<svg width="4000" height="4000" viewBox="0 0 4000 4000" fill="none" xmlns="http://www.w3.org/2000/svg">
<path d="M0 0H4000V4000H0V0Z" fill="#FFDBF4"/>
<path d="M2275.11 3290.64C2224.34 3283.22 2159.95 3258.37 2078.25 3214.64C2066.38 3208.29 2061.58 3192.79 2068 3180.8C2074.35 3168.93 2089.85 3164.14 2101.84 3170.55C2177.29 3210.92 2238.02 3234.67 2282.34 3241.15C2311.27 3245.38 2332.09 3242.15 2344.22 3231.51C2357.83 3219.59 2356.61 3198.51 2353.05 3159.12C2348.88 3113 2343.69 3055.59 2372.83 2989.61C2416.83 2889.89 2526.46 2795.08 2641.92 2812.91C2715.25 2824.27 2785.52 2879.1 2801.65 2953.5C2815.38 3016.86 2795.63 3103.68 2728.12 3127.93C2683.35 3143.93 2632.19 3125.57 2597.28 3095.85C2586.84 3087.17 2585.33 3070.85 2594.22 3060.41C2603.03 3050.07 2619.37 3048.77 2629.7 3057.79C2630.13 3058.15 2673.36 3094.44 2711.19 3080.85C2754.03 3065.47 2760.96 3001.9 2752.75 2964.07C2741 2909.84 2687.15 2870.5 2634.24 2862.3C2541.4 2847.97 2453.44 2930.79 2418.52 3009.79C2394.61 3063.95 2398.96 3112.11 2402.8 3154.6C2406.8 3198.44 2410.51 3239.85 2377.13 3269.1C2349.47 3293.5 2310.06 3295.9 2275.11 3290.64Z" fill="#F08AD0" stroke="#333333" stroke-width="5" stroke-miterlimit="10"/>
<path d="M2786.65 2965.53C2797.71 3016.55 2787.83 3080.08 2748.83 3117.61C2800.24 3083.91 2813.9 3010.05 2801.65 2953.53C2785.52 2879.12 2715.26 2824.29 2641.92 2812.93C2575.66 2802.7 2510.14 2831.49 2460.38 2873.75C2574.5 2793 2753.67 2813.39 2786.65 2965.53Z" fill="black" fill-opacity="0.2"/>
<path d="M2717.62 3078.06C2690.59 3109.51 2642.03 3093.32 2614.73 3069.83C2611.59 3067.15 2607.83 3065.29 2603.79 3064.42C2599.76 3063.55 2595.57 3063.69 2591.6 3064.83C2595.57 3057.53 2603.23 3052.6 2611.53 3051.93C2618.13 3051.4 2624.68 3053.52 2629.73 3057.82C2651.8 3077.32 2689.57 3092.99 2717.62 3078.06Z" fill="black" fill-opacity="0.2"/>
<path d="M2073.5 3173.5C2077 3170.5 2089 3164.5 2096.5 3168C2103.48 3171.26 2111.84 3175.39 2121.23 3180.03C2170.65 3204.44 2248.7 3243 2305 3243C2355 3243 2359.5 3218 2352.5 3152C2353.35 3155.82 2354.42 3160.03 2355.56 3164.51C2365.18 3202.26 2379.65 3259 2305 3259C2223.5 3259 2096.21 3188.43 2073.5 3173.5Z" fill="black" fill-opacity="0.2"/>
<path d="M1587 3147C1623.5 3147 1652.66 3114.42 1649.04 3078.58C1643.62 3015.06 1667.66 2946.39 1714.99 2880.19C1758.05 2819.95 1804.2 2786.94 1768.7 2748C1733.2 2709.06 1653.14 2751.92 1613.3 2807.5C1547.59 2899.42 1516.11 2996.61 1524.67 3091.18C1527.86 3122.65 1550.5 3147 1587 3147Z" fill="#F08AD0" stroke="#333333" stroke-width="5" stroke-miterlimit="10"/>
<path d="M1553.09 3059.17C1552.67 2946.89 1642.7 2781.5 1748.2 2735C1618.2 2714 1503.2 2968.5 1525.49 3086.78C1532.7 3075 1545.2 3063.5 1553.09 3059.17Z" fill="black" fill-opacity="0.15"/>
<path d="M1959.37 3446.51C1964.37 3359.43 1986.77 3292.08 2006.54 3239.7C2026.31 3187.32 2048.96 3095 1963.98 3073.68C1842.48 3043.19 1775.67 3327.8 1770.68 3414.62C1767.75 3465.7 1807.5 3524.95 1859.08 3527.91C1906.56 3530.22 1956.53 3496.12 1959.37 3446.51Z" fill="#F08AD0" stroke="#333333" stroke-width="5" stroke-miterlimit="10"/>
<path d="M1769.48 3414.5C1820.98 3407.5 1917.48 3407.5 1957.98 3448.5C1958.32 3445.41 1959.42 3436.56 1959.64 3433.46C1917.48 3396.5 1821.48 3394 1771.62 3401C1771.36 3404.3 1769.76 3411.13 1769.48 3414.5Z" fill="black" fill-opacity="0.15"/>
<path d="M1785.48 3325C1833.24 3369.29 1894.36 3394.13 1963.48 3403.5C1964.06 3398.49 1965.29 3391.32 1965.98 3386.5C1897.38 3377.62 1837.78 3348.9 1789.98 3305.5C1787.98 3311.5 1786.36 3320.77 1785.48 3325Z" fill="black" fill-opacity="0.15"/>
<path d="M2040.63 3446.51C2035.63 3359.43 2013.23 3292.08 1993.46 3239.7C1973.69 3187.32 1951.04 3095 2036.02 3073.68C2157.52 3043.19 2224.33 3327.8 2229.32 3414.62C2232.25 3465.7 2192.5 3524.95 2140.92 3527.91C2093.44 3530.22 2043.47 3496.12 2040.63 3446.51Z" fill="#F08AD0" stroke="#333333" stroke-width="5" stroke-miterlimit="10"/>
<path d="M2230.52 3414.5C2179.02 3407.5 2082.52 3407.5 2042.02 3448.5C2041.68 3445.41 2040.58 3436.56 2040.36 3433.46C2082.52 3396.5 2178.52 3394 2228.38 3401C2228.64 3404.3 2230.24 3411.13 2230.52 3414.5Z" fill="black" fill-opacity="0.15"/>
<path d="M2214.52 3325C2166.76 3369.29 2105.64 3394.13 2036.52 3403.5C2035.94 3398.49 2034.71 3391.32 2034.02 3386.5C2102.62 3377.62 2162.22 3348.9 2210.02 3305.5C2212.02 3311.5 2213.64 3320.77 2214.52 3325Z" fill="black" fill-opacity="0.15"/>
<path d="M2413 3147C2376.5 3147 2347.34 3114.42 2350.96 3078.58C2356.38 3015.06 2332.34 2946.39 2285.01 2880.19C2241.95 2819.95 2195.8 2786.94 2231.3 2748C2266.8 2709.06 2346.86 2751.92 2386.7 2807.5C2452.41 2899.42 2483.89 2996.61 2475.33 3091.18C2472.14 3122.65 2449.5 3147 2413 3147Z" fill="#F08AD0" stroke="#333333" stroke-width="5" stroke-miterlimit="10"/>
<path d="M2446.91 3059.17C2447.33 2946.89 2357.3 2781.5 2251.8 2735C2381.8 2714 2496.8 2968.5 2474.51 3086.78C2467.3 3075 2454.8 3063.5 2446.91 3059.17Z" fill="black" fill-opacity="0.15"/>
<path d="M3133.19 1832.12C3244.29 1934.12 3199.51 2141.41 3124.1 2259.28C3016.64 2427.28 2770.63 2533.03 2644.64 2443.65C2513.06 2350.3 2530.24 2056.73 2683.84 1904.33C2798.52 1790.55 3018.29 1726.64 3133.19 1832.12Z" fill="#FFBAE9" stroke="#333333" stroke-width="5" stroke-miterlimit="10"/>
<path d="M3003.49 1952.22C3069.49 2020.41 3033.59 2148.9 2981.84 2220.1C2908.09 2321.55 2749.67 2378.79 2673.9 2317.96C2594.76 2254.43 2616.51 2070.74 2718.65 1980.78C2794.91 1913.62 2935.29 1881.7 3003.49 1952.22Z" fill="#FFC9EE"/>
<path d="M3124.1 2259.28C3063.41 2354.13 2929 2462.5 2777.5 2476C2883.86 2451 3037.51 2342.15 3084.14 2269.28C3159.55 2151.41 3199.5 1930.31 3093.23 1842.12C3060.82 1815.23 2978.5 1777 2865.5 1797C3003.5 1754.5 3088.29 1790.87 3133.23 1832.12C3244.29 1934.11 3199.51 2141.41 3124.1 2259.28Z" fill="black" fill-opacity="0.1"/>
<path d="M866.818 1832.12C755.718 1934.12 800.498 2141.41 875.908 2259.28C983.368 2427.28 1229.38 2533.03 1355.37 2443.65C1486.95 2350.3 1469.77 2056.73 1316.17 1904.33C1201.49 1790.55 981.718 1726.64 866.818 1832.12Z" fill="#FFBAE9" stroke="#333333" stroke-width="5" stroke-miterlimit="10"/>
<path d="M996.518 1952.22C930.518 2020.41 966.418 2148.9 1018.17 2220.1C1091.92 2321.55 1250.34 2378.79 1326.11 2317.96C1405.25 2254.43 1383.5 2070.74 1281.36 1980.78C1205.1 1913.62 1064.72 1881.7 996.518 1952.22Z" fill="#FFC9EE"/>
<path d="M875.908 2259.28C936.598 2354.13 1071.01 2462.5 1222.51 2476C1116.15 2451 962.491 2342.15 915.868 2269.28C840.458 2151.41 800.508 1930.31 906.778 1842.12C939.187 1815.23 1021.51 1777 1134.51 1797C996.508 1754.5 911.718 1790.87 866.778 1832.12C755.718 1934.11 800.498 2141.41 875.908 2259.28Z" fill="black" fill-opacity="0.1"/>
<path d="M2000 2548C2154 2548 2220 2683 2260 2794C2300 2905 2318 3014 2318 3086C2318 3238 2179.32 3391.46 2000 3393C1824.47 3394.51 1682 3238 1682 3086C1682 3014 1699.7 2904.5 1740 2794C1780 2683 1846 2548 2000 2548Z" fill="#F08AD0" stroke="#333333" stroke-width="5" stroke-miterlimit="10"/>
<path d="M2000 3393C1824.33 3394.59 1670 3236 1682 3056C1692 3204 1827.15 3344.48 2000 3343C2172.85 3341.52 2308 3204 2318 3056C2330 3236 2175.67 3391.41 2000 3393Z" fill="black" fill-opacity="0.15"/>
<path d="M2000 2672C2104 2672 2160 2740 2174 2800C2208.49 2947.82 2238 3074 2178 3150C2118 3226 2043.05 3232 2000 3232C1952.45 3232 1882 3226 1822 3150C1762 3074 1789.56 2956.17 1826 2800C1840 2740 1896 2672 2000 2672Z" fill="#FFBAE9" stroke="#333333" stroke-width="5" stroke-miterlimit="10"/>
<path d="M2000 3232C1864 3232 1776 3138 1787 3016C1791 3131 1883 3206 2000 3206C2117 3206 2209 3131 2213 3016C2224 3138 2136 3232 2000 3232Z" fill="black" fill-opacity="0.1"/>
<path d="M2395 2818C2279.65 2863.22 2124 2897 2000 2897C1876 2897 1740.66 2870.57 1605 2818C1597.76 2828.54 1588.39 2844.27 1582 2855C1724 2912 1857 2941 2000 2941C2143 2941 2276 2912 2418 2855C2411.85 2844.3 2402.07 2828.64 2395 2818Z" fill="black" fill-opacity="0.15"/>
<path d="M2500.32 839.001C2542.64 803.151 2376 763.001 2353.8 699.511C2327 623.001 2749.39 826.611 2685.37 960.591C2680.37 971.101 2629.94 1054.59 2267.76 936.821C2665.92 1066 2967.42 1339.94 2966 1847C2964.91 2235.75 2615.93 2837.81 1999.57 2843.18C1404.95 2848.37 1032.93 2246.96 1034 1847C1035.32 1358.56 1466.13 856.061 2000 818.501C2319.41 796.051 2465.29 868.601 2500.32 839.001Z" fill="#F08AD0" stroke="#333333" stroke-width="5" stroke-linecap="round" stroke-linejoin="round"/>
<path d="M2565.16 861.34C2535.5 926.5 2353.35 821.34 2033.94 843.8C1380.48 889.738 907.001 1615 1169.36 2202.88C1237.5 2132.5 1320.5 2112.5 1346.95 2103.72C1354.89 2112.29 1364.55 2121.39 1368 2125.5C1286.63 2150.85 1192.07 2205.91 1151.37 2282.34C1075.1 2134.74 1034.37 1979.78 1034.78 1847.01C1036.1 1358.56 1467 856.01 2000.87 818.44C2320.28 795.99 2465.43 868.54 2500.46 838.9C2542.64 803.15 2376 763 2353.81 699.51C2345.24 675.05 2382.63 679.24 2435.36 700.64C2415.36 697.76 2404.36 702.47 2409.81 716.51C2429.19 766.9 2590.11 806.531 2565.16 861.34Z" fill="black" fill-opacity="0.14"/>
<path d="M2964.5 1847.07C2964.14 1974.81 2926.38 2125.58 2853.96 2270.64C2779 2168 2644.73 2127 2631 2127C2635 2122 2647 2107.3 2651 2102.5C2674.5 2108 2779.62 2130.41 2838.28 2208.7C2897.58 2076.55 2924.8 1953.54 2925.12 1837.84C2926.59 1313.6 2571.5 1053 2267.76 936.82C2665.92 1066 2965.92 1340 2964.5 1847.07Z" fill="black" fill-opacity="0.14"/>
<path d="M1725 1203.5C1428 1203.5 1060 1832 1361.5 2122C786 2302 1361.5 2901 2000 2901C2638.5 2901 3214 2302 2638.5 2122C2940 1832 2572 1203.5 2275 1203.5C2148.5 1203.5 2079.49 1262 2000 1320C1920.5 1262 1851.5 1203.5 1725 1203.5Z" fill="#FFBAE9" stroke="#333333" stroke-width="5"/>
<path d="M2749.1 1817C2733.4 1508.46 2484.1 1203.81 2267.6 1203.81C2133 1203.81 2051.4 1285.95 2000 1320C1958.9 1291.95 1867.5 1203.81 1731.6 1203.81C1476 1203.81 1253.5 1577 1249.47 1826.52C1227 1558 1433.07 1155 1733 1155C1889 1155 1972 1230 2000 1261C2028 1230 2111 1155 2267 1155C2564.63 1155 2770.5 1536.5 2749.1 1817Z" fill="black" fill-opacity="0.14"/>
<path d="M1148.6 2266.67C1012.68 2511.93 1482.92 2900.5 2000 2900.5C2517.08 2900.5 2993.17 2507.65 2849.75 2262.64C2945.11 2486.75 2490.72 2863 2000 2863C1512.21 2863 1060.31 2491.22 1148.6 2266.67Z" fill="black" fill-opacity="0.1"/>
<path d="M1250.37 1807.39C1243.26 1924.84 1274.39 2037.4 1361.82 2121.5C1351.4 2124.76 1341.35 2129.16 1331.67 2132.69C1354 2125.5 1375.33 2120.41 1400 2116C1315.46 2034.68 1266.53 1924.24 1250.37 1807.39Z" fill="black" fill-opacity="0.1"/>
<path d="M2670.5 2133C2648.74 2126.59 2625.9 2120.63 2600 2116C2685.32 2033.93 2734.37 1922.19 2750.07 1804.14C2757.96 1922.76 2727.06 2036.63 2638.82 2121.5C2650.14 2125.04 2660.06 2129.14 2670.5 2133Z" fill="black" fill-opacity="0.1"/>
<path d="M2000.41 2770.5C2275.41 2770.5 2572.41 2658 2663.66 2391.06C2678.91 2348.76 2641.57 2306.08 2596.21 2312.53C2398.68 2340.6 2199.42 2354.68 1999.91 2354.68C1800.4 2354.68 1601.13 2340.59 1403.6 2312.53C1358.28 2306.09 1321.44 2348.54 1336.14 2391.06C1428.41 2658 1725.41 2770.5 2000.41 2770.5Z" fill="#3D0C0C"/>
<path d="M2578.21 2512.04C2610.95 2471.9 2634.2 2429.3 2645.95 2386.21C2654.85 2353.54 2631.26 2326.17 2598.91 2330.76C2202.55 2386.26 1797.47 2386.96 1401.12 2330.77C1368.72 2326.21 1345.14 2353.54 1354.04 2386.21C1365.78 2429.31 1389.01 2471.9 1421.78 2512.04C1804.87 2564.51 2195.14 2564.98 2578.21 2512.04Z" fill="white"/>
<path d="M2000.41 2752C2198.96 2752.34 2414.61 2686.28 2554.34 2539.06C2186.88 2587.4 1813.09 2587.36 1445.63 2539.09C1586.41 2687.44 1800.26 2751.66 2000.41 2752Z" fill="white"/>
<path d="M2266.36 2712C2373.57 2679.77 2476.33 2621.26 2554.34 2539.06C2526.74 2542.69 2499.1 2546.11 2471.42 2549.13C2419.14 2610.57 2351.84 2666.61 2266.36 2712Z" fill="black" fill-opacity="0.1"/>
<path d="M2645.95 2386.22C2634.2 2429.3 2610.95 2471.9 2578.21 2512.04C2548.62 2516.13 2518.97 2519.87 2489.29 2523.27C2531.84 2463.5 2561.63 2399.09 2581.29 2333.21L2598.83 2330.77C2631.26 2326.17 2654.85 2353.54 2645.95 2386.22Z" fill="black" fill-opacity="0.1"/>
<path d="M1445.61 2539.05C1523.96 2621.61 1627.99 2680.78 1735.91 2712.8C1649.48 2667.43 1581.73 2611 1529.3 2549.19C1501.37 2546.15 1473.47 2542.71 1445.61 2539.05Z" fill="black" fill-opacity="0.1"/>
<path d="M1421.75 2512.04C1451.57 2516.09 1481.43 2519.86 1511.32 2523.35C1468.61 2463.64 1438.8 2399.2 1419.21 2333.3C1413.17 2332.47 1407.13 2331.63 1401.09 2330.77C1368.69 2326.22 1345.11 2353.54 1354.01 2386.22C1365.75 2429.31 1388.98 2471.9 1421.75 2512.04Z" fill="black" fill-opacity="0.1"/>
<path d="M1759.66 1403.06C1914.55 1421.06 2026.14 1611.81 2009.66 1779.83C1993.28 1947.17 1846.97 2121.83 1679.78 2102.83C1527.98 2085.53 1429.52 1916.61 1426.28 1774.67C1421.97 1584.51 1587.12 1383 1759.66 1403.06Z" fill="white"/>
<path d="M1947.73 1825.22C1969.84 1711.27 1908.23 1603.46 1810.13 1584.43C1712.03 1565.39 1614.58 1642.34 1592.47 1756.3C1570.36 1870.25 1631.97 1978.06 1730.07 1997.09C1828.17 2016.13 1925.62 1939.18 1947.73 1825.22Z" fill="#2243C9" stroke="#333333" stroke-width="5" stroke-miterlimit="10"/>
<path d="M1781.2 1941.56C1839.71 1941.56 1887.14 1888.52 1887.14 1823.1C1887.14 1757.68 1839.71 1704.64 1781.2 1704.64C1722.69 1704.64 1675.26 1757.68 1675.26 1823.1C1675.26 1888.52 1722.69 1941.56 1781.2 1941.56Z" fill="black"/>
<path d="M1874.89 1740.31C1882.34 1719.26 1870.48 1695.86 1848.39 1688.04C1826.31 1680.22 1802.37 1690.95 1794.92 1712C1787.47 1733.05 1799.33 1756.45 1821.42 1764.27C1843.5 1772.08 1867.44 1761.36 1874.89 1740.31Z" fill="white" stroke="#333333" stroke-width="5" stroke-miterlimit="10"/>
<path d="M1835.89 1427C1631.51 1371.11 1461.42 1613.25 1465.58 1795.01C1468.05 1902.26 1524.94 2024.8 1618.28 2086.66C1501.88 2037.88 1429.08 1896.33 1426.28 1774.66C1421.95 1584.55 1587.1 1383.07 1759.64 1403.11C1786.32 1406.3 1812.17 1414.4 1835.89 1427Z" fill="black" fill-opacity="0.05"/>
<path d="M1863.62 1605.54C1750.78 1573.47 1650.88 1670.84 1630.47 1775.98C1613.72 1862.33 1644.54 1945.2 1702.82 1989.33C1620.94 1957.33 1572.59 1859.4 1592.57 1756.44C1614.69 1642.44 1712.15 1565.55 1810.25 1584.59C1829.17 1588.26 1847.26 1595.36 1863.62 1605.54Z" fill="black" fill-opacity="0.15"/>
<path d="M2234 1398.91C2079.46 1419.59 1971.21 1612.27 1990.6 1779.99C2009.9 1946.99 2159.23 2119.09 2326.07 2097.12C2477.54 2077.18 2573.07 1906.57 2573.8 1764.6C2574.78 1574.44 2406.14 1375.87 2234 1398.91Z" fill="white"/>
<path d="M2273.74 1992.69C2371.49 1971.95 2431.21 1863.08 2407.11 1749.53C2383.02 1635.98 2284.24 1560.74 2186.48 1581.48C2088.73 1602.23 2029.02 1711.09 2053.11 1824.64C2077.21 1938.19 2175.98 2013.43 2273.74 1992.69Z" fill="#2243C9" stroke="#333333" stroke-width="5" stroke-miterlimit="10"/>
<path d="M2221.84 1937.71C2280.34 1936.68 2326.84 1882.83 2325.7 1817.41C2324.55 1752 2276.21 1699.8 2217.71 1700.82C2159.2 1701.84 2112.71 1755.7 2113.85 1821.11C2114.99 1886.53 2163.34 1938.73 2221.84 1937.71Z" fill="black"/>
<path d="M2288.34 1764.39C2310.29 1756.19 2321.74 1732.59 2313.92 1711.67C2306.11 1690.75 2281.98 1680.45 2260.04 1688.65C2238.09 1696.85 2226.64 1720.45 2234.45 1741.37C2242.27 1762.28 2266.39 1772.59 2288.34 1764.39Z" fill="white" stroke="#333333" stroke-width="5" stroke-miterlimit="10"/>
<path d="M2573.77 1764.6C2573.11 1887.87 2501.02 2032.73 2382.89 2081.81C2478.18 2020.19 2534.97 1893.73 2535.55 1784.26C2536.51 1600.68 2354.46 1353.02 2149.6 1429.08C2175.6 1413.48 2203.89 1402.94 2233.97 1398.91C2406.14 1375.87 2574.78 1574.44 2573.77 1764.6Z" fill="black" fill-opacity="0.05"/>
<path d="M2295.09 1986.4C2355.95 1942.75 2387.69 1857.33 2368.96 1769.1C2346.56 1663.56 2242.48 1567.69 2130.22 1605.4C2147.25 1593.77 2166.39 1585.58 2186.56 1581.29C2284.32 1560.54 2383.1 1635.77 2407.21 1749.29C2429.51 1854.39 2380.05 1955.46 2295.09 1986.4Z" fill="black" fill-opacity="0.15"/>
<path d="M1785 2099C1785 2175.35 1883.85 2268 2001.26 2267C2109.48 2266.05 2215 2174.45 2215 2099.22C2215 1947.09 1785 1944.8 1785 2099Z" fill="black" fill-opacity="0.1"/>
<path d="M1782 2081C1782 2157.35 1882.23 2250 2001.27 2249C2111 2248.05 2218 2156.45 2218 2081.22C2218 2020.69 2091.76 1967.45 2001.27 1968.22C1917.25 1969 1782 2009.38 1782 2081Z" fill="#F071C8"/>
<path d="M1783.58 2067.77C1825.34 2122.52 1908.26 2168.71 2001.43 2167.99C2087.64 2167.31 2172.35 2120.87 2215.52 2066.44C2217.14 2071.3 2218 2076.23 2218 2081.22C2218 2156.45 2111 2248.05 2001.27 2249C1882.23 2250 1782 2157.35 1782 2081C1782 2076.46 1782.54 2072.05 1783.58 2067.77Z" fill="black" fill-opacity="0.2"/>
<path d="M1601.4 3259.89C1658.22 3259.94 1694.39 3191.78 1659.99 3144.62C1675.9 3099.41 1641.9 3049.23 1593.33 3048.07C1537.33 3046.73 1504.96 3106.57 1510.83 3157.2C1516.31 3204.51 1548.35 3259.85 1601.4 3259.89Z" fill="#FFBAE9" stroke="#333333" stroke-width="5" stroke-miterlimit="10"/>
<path d="M1510.83 3157.2C1517.61 3215.77 1565.2 3284 1636.2 3251C1567.38 3242.2 1519.2 3125.5 1553.09 3059.16C1547.7 3063 1539.2 3067.5 1525.49 3086.77C1513.2 3108.5 1507.79 3132.97 1510.83 3157.2Z" fill="black" fill-opacity="0.1"/>
<path d="M2398.6 3259.89C2341.78 3259.94 2305.61 3191.78 2340.01 3144.62C2324.09 3099.41 2358.09 3049.23 2406.67 3048.07C2462.67 3046.73 2495.03 3106.57 2489.17 3157.2C2483.69 3204.51 2451.65 3259.85 2398.6 3259.89Z" fill="#FFBAE9" stroke="#333333" stroke-width="5" stroke-miterlimit="10"/>
<path d="M2489.17 3157.2C2482.39 3215.77 2434.8 3284 2363.8 3251C2432.62 3242.2 2480.8 3125.5 2446.91 3059.16C2452.3 3063 2460.8 3067.5 2474.51 3086.77C2486.8 3108.5 2492.21 3132.97 2489.17 3157.2Z" fill="black" fill-opacity="0.1"/>
<path d="M1909.99 3556C1941.99 3556 1973.08 3532.4 1976.69 3499.86C1985.8 3417.65 1882.34 3410.18 1826.03 3408.94C1768.92 3407.69 1671.99 3418.5 1655 3481.21C1640.16 3536 1691.49 3556 1727.99 3556C1764.49 3556 1776.99 3543.85 1820.98 3543.85C1859.39 3543.85 1877.99 3556 1909.99 3556Z" fill="#D90243" stroke="#333333" stroke-width="5" stroke-miterlimit="10"/>
<path d="M1908.99 3534C1876.99 3534 1858.39 3521.85 1819.98 3521.85C1775.99 3521.85 1763.49 3534 1726.99 3534C1698.61 3534 1661.24 3521.9 1653.02 3490.74C1646.3 3538.34 1693.7 3556 1727.99 3556C1764.49 3556 1776.99 3543.85 1820.98 3543.85C1859.39 3543.85 1877.99 3556 1909.99 3556C1952.86 3556 1982.99 3521.85 1975.9 3475.74C1972.94 3509.2 1941.87 3534 1908.99 3534Z" fill="black" fill-opacity="0.4"/>
<path d="M2090 3556C2058 3556 2026.91 3532.4 2023.3 3499.86C2014.19 3417.65 2117.65 3410.18 2173.97 3408.94C2231.07 3407.69 2328 3418.5 2344.99 3481.21C2359.84 3536 2308.5 3556 2272 3556C2235.5 3556 2223 3543.85 2179.02 3543.85C2140.6 3543.85 2122 3556 2090 3556Z" fill="#D90243" stroke="#333333" stroke-width="5" stroke-miterlimit="10"/>
<path d="M2091 3534C2123 3534 2141.61 3521.85 2180.02 3521.85C2224 3521.85 2236.5 3534 2273 3534C2301.39 3534 2338.75 3521.9 2346.97 3490.74C2353.7 3538.34 2306.3 3556 2272 3556C2235.5 3556 2223 3543.85 2179.02 3543.85C2140.61 3543.85 2122 3556 2090 3556C2047.14 3556 2017 3521.85 2024.09 3475.74C2027.06 3509.2 2058.13 3534 2091 3534Z" fill="black" fill-opacity="0.4"/>
</svg>
