<svg width="4000" height="4000" viewBox="0 0 4000 4000" fill="none" xmlns="http://www.w3.org/2000/svg">
  <path d="M2275.11 3290.64c-50.77-7.42-115.16-32.27-196.86-76-11.87-6.35-16.67-21.85-10.25-33.84 6.35-11.87 21.85-16.67 33.84-10.25 75.45 40.37 136.18 64.12 180.5 70.6 28.93 4.23 49.75 1 61.88-9.64 13.61-11.92 12.39-33 8.83-72.39-4.17-46.12-9.36-103.53 19.78-169.51 44-99.72 153.63-194.53 269.09-176.7 73.33 11.35 143.6 66.18 159.73 140.59 13.73 63.36-6.02 150.17-73.53 174.43-44.77 15.99-95.93-2.37-130.84-32.08-10.44-8.68-11.95-25-3.06-35.44 8.81-10.34 25.15-11.64 35.48-2.62.43.36 43.66 36.65 81.49 23.06 42.84-15.38 49.77-78.95 41.56-116.78-11.75-54.23-65.6-93.58-118.51-101.77-92.84-14.34-180.8 68.49-215.72 147.49-23.91 54.16-19.56 102.32-15.72 144.81 4 43.84 7.71 85.25-25.67 114.5-27.66 24.39-67.07 26.8-102.02 21.54Z" fill="#4C5A77" stroke="#333" stroke-width="5" stroke-miterlimit="10"/>
  <path d="M2786.65 2965.53c11.06 51.02 1.18 114.55-37.82 152.08 51.41-33.7 65.07-107.56 52.82-164.08-16.13-74.41-86.39-129.24-159.73-140.6-66.26-10.23-131.78 18.56-181.54 60.82 114.12-80.75 293.29-60.36 326.27 91.78Z" fill="#000" fill-opacity=".2"/>
  <path d="M2717.62 3078.06c-27.03 31.45-75.59 15.26-102.89-8.23a24.94 24.94 0 0 0-23.13-5 25.21 25.21 0 0 1 19.93-12.9 25 25 0 0 1 18.2 5.89c22.07 19.5 59.84 35.17 87.89 20.24ZM2073.5 3173.5c3.5-3 15.5-9 23-5.5 6.98 3.26 15.34 7.39 24.73 12.03 49.42 24.41 127.47 62.97 183.77 62.97 50 0 54.5-25 47.5-91a442 442 0 0 0 3.06 12.51c9.62 37.75 24.09 94.49-50.56 94.49-81.5 0-208.79-70.57-231.5-85.5Z" fill="#000" fill-opacity=".2"/>
  <path d="M1959.37 3446.51c5-87.08 27.4-154.43 47.17-206.81 19.77-52.38 42.42-144.7-42.56-166.02-121.5-30.49-188.31 254.12-193.3 340.94-2.93 51.08 36.82 110.33 88.4 113.29 47.48 2.31 97.45-31.79 100.29-81.4Z" fill="#4C5A77" stroke="#333" stroke-width="5" stroke-miterlimit="10"/>
  <path d="M1769.48 3414.5c51.5-7 148-7 188.5 34 .34-3.09 1.44-11.94 1.66-15.04-42.16-36.96-138.16-39.46-188.02-32.46-.26 3.3-1.86 10.13-2.14 13.5ZM1785.48 3325c47.76 44.29 108.88 69.13 178 78.5.58-5.01 1.81-12.18 2.5-17-68.6-8.88-128.2-37.6-176-81-2 6-3.62 15.27-4.5 19.5Z" fill="#000" fill-opacity=".15"/>
  <path d="M2040.63 3446.51c-5-87.08-27.4-154.43-47.17-206.81-19.77-52.38-42.42-144.7 42.56-166.02 121.5-30.49 188.31 254.12 193.3 340.94 2.93 51.08-36.82 110.33-88.4 113.29-47.48 2.31-97.45-31.79-100.29-81.4Z" fill="#4C5A77" stroke="#333" stroke-width="5" stroke-miterlimit="10"/>
  <path d="M2230.52 3414.5c-51.5-7-148-7-188.5 34-.34-3.09-1.44-11.94-1.66-15.04 42.16-36.96 138.16-39.46 188.02-32.46.26 3.3 1.86 10.13 2.14 13.5ZM2214.52 3325c-47.76 44.29-108.88 69.13-178 78.5-.58-5.01-1.81-12.18-2.5-17 68.6-8.88 128.2-37.6 176-81 2 6 3.62 15.27 4.5 19.5Z" fill="#000" fill-opacity=".15"/>
  <path d="M1910 3556c32 0 63.09-23.6 66.7-56.14 9.11-82.21-94.35-89.68-150.67-90.92-57.1-1.25-154.03 9.56-171.02 72.27C1640.16 3536 1691.5 3556 1728 3556c36.5 0 49-12.15 92.98-12.15 38.41 0 57.02 12.15 89.02 12.15Z" fill="#F7C394" stroke="#333" stroke-width="5" stroke-miterlimit="10"/>
  <path d="M1909 3534c-32 0-50.61-12.15-89.02-12.15-43.98 0-56.48 12.15-92.98 12.15-28.39 0-65.75-12.1-73.97-43.26-6.73 47.6 40.67 65.26 74.97 65.26 36.5 0 49-12.15 92.98-12.15 38.41 0 57.02 12.15 89.02 12.15 42.86 0 73-34.15 65.91-80.26-2.97 33.46-34.04 58.26-66.91 58.26Z" fill="#000" fill-opacity=".1"/>
  <path d="M2090 3556c-32 0-63.09-23.6-66.7-56.14-9.11-82.21 94.35-89.68 150.67-90.92 57.1-1.25 154.03 9.56 171.02 72.27C2359.84 3536 2308.5 3556 2272 3556c-36.5 0-49-12.15-92.98-12.15-38.42 0-57.02 12.15-89.02 12.15Z" fill="#F7C394" stroke="#333" stroke-width="5" stroke-miterlimit="10"/>
  <path d="M2091 3534c32 0 50.6-12.15 89.02-12.15 43.98 0 56.48 12.15 92.98 12.15 28.39 0 65.75-12.1 73.97-43.26 6.73 47.6-40.67 65.26-74.97 65.26-36.5 0-49-12.15-92.98-12.15-38.42 0-57.02 12.15-89.02 12.15-42.86 0-73-34.15-65.91-80.26 2.97 33.46 34.04 58.26 66.91 58.26Z" fill="#000" fill-opacity=".1"/>
  <path d="M1587 3147c36.5 0 65.66-32.58 62.04-68.42-5.42-63.52 18.62-132.19 65.95-198.39 43.06-60.25 89.21-93.26 53.71-132.19-35.5-38.94-115.56 3.92-155.4 59.5-65.71 91.92-97.19 189.11-88.63 283.68 3.19 31.47 25.83 55.82 62.33 55.82Z" fill="#4C5A77" stroke="#333" stroke-width="5" stroke-miterlimit="10"/>
  <path d="M1553.09 3059.16c-.42-112.27 89.61-277.66 195.11-324.16-130-21-245 233.5-222.71 351.77 7.21-11.77 19.71-23.27 27.6-27.61Z" fill="#000" fill-opacity=".15"/>
  <path d="M2413 3147c-36.5 0-65.66-32.58-62.04-68.42 5.42-63.52-18.62-132.19-65.95-198.39-43.06-60.25-89.21-93.26-53.71-132.19 35.5-38.94 115.56 3.92 155.4 59.5 65.71 91.92 97.19 189.11 88.63 283.68-3.19 31.47-25.83 55.82-62.33 55.82Z" fill="#4C5A77" stroke="#333" stroke-width="5" stroke-miterlimit="10"/>
  <path d="M2446.91 3059.16c.42-112.27-89.61-277.66-195.11-324.16 130-21 245 233.5 222.71 351.77-7.21-11.77-19.71-23.27-27.6-27.61Z" fill="#000" fill-opacity=".15"/>
  <path d="M2000 2548c154 0 220 135 260 246s58 220 58 292c0 152-138.68 305.46-318 307-175.53 1.51-318-155-318-307 0-72 17.7-181.5 58-292 40-111 106-246 260-246Z" fill="#4C5A77" stroke="#333" stroke-width="5" stroke-miterlimit="10"/>
  <path d="M2000 3393c-175.67 1.59-330-157-318-337 10 148 145.15 288.48 318 287 172.85-1.48 308-139 318-287 12 180-142.33 335.41-318 337Z" fill="#000" fill-opacity=".15"/>
  <path d="M2000 2672c104 0 160 68 174 128 34.49 147.82 64 274 4 350s-134.95 82-178 82c-47.55 0-118-6-178-82s-32.44-193.83 4-350c14-60 70-128 174-128Z" fill="#F7C394" stroke="#333" stroke-width="5" stroke-miterlimit="10"/>
  <path d="M2000 3232c-136 0-224-94-213-216 4 115 96 190 213 190s209-75 213-190c11 122-77 216-213 216Z" fill="#000" fill-opacity=".1"/>
  <path d="M2456.64 2931.88c-11.23 9.05-89.14 48.12-125.49 41.88C2320 2942 2309.5 2925 2298 2909c24 77 44.5 218.5-5 301-60.8 59.77-184 90-293 90s-232.2-30.23-293-90c-40-63-40-180.5-5-301-10 12-17.28 22.88-33.15 64.76-43.85 0-95.08-15.23-127.49-37.88C1562 2871.5 1594 2830 1604.22 2819c132.06 51.39 252.28 79.13 395.78 79.13 143.5 0 284.48-30 398.59-75 7.12 10.87 44.41 57.37 58.05 108.75Z" fill="#61DCB0" stroke="#333" stroke-width="5" stroke-linecap="round" stroke-linejoin="round"/>
  <path fill-rule="evenodd" clip-rule="evenodd" d="M2231.22 2871.5a1115.75 1115.75 0 0 0 74.16-18.11l-100.35 214.21-56.65-7.16-14.66-75.01-32.85 69-56.66-7.15-31.78-152.17c20.61-.13 41.15-.87 61.56-2.19l9.23 101.36 42.17-105.88c13.1-1.46 26.11-3.14 39.02-5.04l16.3 123.98 50.51-135.84Zm-40.63 396.65c-54.83 18.51-118.3 28.15-178.01 28.81l27.56-218.12 97.22 12.28c37.65 4.76 64.85 30.48 59.81 70.32-2.91 23.02-14.26 36.44-30.67 42.91 18.31 10.85 29.07 28.55 25.75 54.87a76.9 76.9 0 0 1-1.66 8.93Zm-71.21-90.55c10.23 1.29 19.84-7.15 21.09-17.02 1.29-10.23-5.96-20.43-16.2-21.72l-34.35-4.34-4.9 38.74 34.36 4.34Zm-44.89 78.99 41.3 5.22c10.97 1.39 20.17-6.74 21.46-16.97 1.25-9.87-5.6-20.39-16.56-21.77l-41.3-5.22-4.9 38.74Z" fill="#36AD82"/>
  <path d="M2457 2932c-33.5 20-82.5 43-125.5 42-6.5-22-28.14-59.22-33-67 17.36 11.29 25.62 29.83 33.96 47.91 41.2 2.55 96.04-23.41 118.04-43.41 2 4 5.5 15 6.5 20.5ZM2320 3029.86c10.5 97.14-9.78 154.89-28.54 181.84-84.96 72.8-207.78 87.57-291.46 88.3-118.33 1-232.94-31.66-293.74-91.43-27.26-35.57-30.95-113.88-30.07-161.91.76 43.11 10.89 101.04 39.31 137.34 46.8 59.77 166.17 88.04 284.5 87 129.24-1.12 245.61-25.36 291.34-93.11 27.9-41.34 27.94-100.75 28.66-148.03ZM1669 2974c-43 1-93.5-18-127-38 .5-5 6.5-19 8-21.5 22 20 76.84 42.96 118.04 40.41C1674 2942 1682 2920 1702 2907c-4.86 7.78-26.5 45-33 67Z" fill="#000" fill-opacity=".15"/>
  <path d="M2456.64 2931.88c-11.23 9.05-89.14 48.12-125.49 41.88C2320 2942 2309.5 2925 2298 2909c24 77 44.5 218.5-5 301-60.8 59.77-184 90-293 90s-232.2-30.23-293-90c-40-63-40-180.5-5-301-10 12-17.28 22.88-33.15 64.76-43.85 0-95.08-15.23-127.49-37.88C1562 2871.5 1594 2830 1604.22 2819c132.06 51.39 252.28 79.13 395.78 79.13 143.5 0 284.48-30 398.59-75 7.12 10.87 44.41 57.37 58.05 108.75Z" stroke="#333" stroke-width="5" stroke-linecap="round" stroke-linejoin="round"/>
  <path d="M3133.19 1832.12c111.1 102 66.32 309.29-9.09 427.16-107.46 168-353.47 273.75-479.46 184.37-131.58-93.35-114.4-386.92 39.2-539.32 114.68-113.78 334.45-177.69 449.35-72.21Z" fill="#F7C394" stroke="#333" stroke-width="5" stroke-miterlimit="10"/>
  <path d="M3003.49 1952.22c66 68.19 30.1 196.68-21.65 267.88-73.75 101.45-232.17 158.69-307.94 97.86-79.14-63.53-57.39-247.22 44.75-337.18 76.26-67.16 216.64-99.08 284.84-28.56Z" fill="#FFC9A1"/>
  <path d="M3124.1 2259.28c-60.69 94.85-195.1 203.22-346.6 216.72 106.36-25 260.01-133.85 306.64-206.72 75.41-117.87 115.36-338.97 9.09-427.16-32.41-26.89-114.73-65.12-227.73-45.12 138-42.5 222.79-6.13 267.73 35.12 111.06 101.99 66.28 309.29-9.13 427.16Z" fill="#000" fill-opacity=".1"/>
  <path d="M866.82 1832.12c-111.1 102-66.32 309.29 9.09 427.16 107.46 168 353.47 273.75 479.46 184.37 131.58-93.35 114.4-386.92-39.2-539.32-114.68-113.78-334.45-177.69-449.35-72.21Z" fill="#F7C394" stroke="#333" stroke-width="5" stroke-miterlimit="10"/>
  <path d="M996.52 1952.22c-66 68.19-30.1 196.68 21.65 267.88 73.75 101.45 232.17 158.69 307.94 97.86 79.14-63.53 57.39-247.22-44.75-337.18-76.26-67.16-216.64-99.08-284.84-28.56Z" fill="#FFC9A1"/>
  <path d="M875.9 2259.28c60.7 94.85 195.11 203.22 346.61 216.72-106.36-25-260.02-133.85-306.64-206.72-75.41-117.87-115.36-338.97-9.1-427.16 32.42-26.89 114.74-65.12 227.74-45.12-138-42.5-222.8-6.13-267.73 35.12-111.06 101.99-66.28 309.29 9.13 427.16Z" fill="#000" fill-opacity=".1"/>
  <path d="M2395 2818c-115.35 45.22-271 79-395 79s-259.34-26.43-395-79c-7.24 10.54-16.61 26.27-23 37 142 57 275 86 418 86s276-29 418-86a778.28 778.28 0 0 0-23-37Z" fill="#000" fill-opacity=".15"/>
  <path d="M2500.32 839c42.32-35.85-124.32-76-146.52-139.49-26.8-76.5 395.59 127.1 331.57 261.08-5 10.51-55.43 94-417.61-23.77C2665.92 1066 2967.42 1339.94 2966 1847c-1.09 388.75-350.07 990.81-966.43 996.18-594.62 5.19-966.64-596.22-965.57-996.18 1.32-488.44 432.13-990.94 966-1028.5 319.41-22.45 465.29 50.1 500.32 20.5Z" fill="#4C5A77" stroke="#333" stroke-width="5" stroke-linecap="round" stroke-linejoin="round"/>
  <path d="M2565.16 861.34c-29.66 65.16-211.81-40-531.22-17.54C1380.48 889.74 907 1615 1169.36 2202.88c68.14-70.38 151.14-90.38 177.59-99.16 7.94 8.57 17.6 17.67 21.05 21.78-81.37 25.35-175.93 80.41-216.63 156.84-76.27-147.6-117-302.56-116.59-435.33 1.32-488.45 432.22-991 966.09-1028.57 319.41-22.45 464.56 50.1 499.59 20.46 42.18-35.75-124.46-75.9-146.65-139.39-8.57-24.46 28.82-20.27 81.55 1.13-20-2.88-31 1.83-25.55 15.87 19.38 50.39 180.3 90.02 155.35 144.83Z" fill="#000" fill-opacity=".14"/>
  <path d="M2964.5 1847.07c-.36 127.74-38.12 278.51-110.54 423.57C2779 2168 2644.73 2127 2631 2127c4-5 16-19.7 20-24.5 23.5 5.5 128.62 27.91 187.28 106.2 59.3-132.15 86.52-255.16 86.84-370.86 1.47-524.24-353.62-784.84-657.36-901.02C2665.92 1066 2965.92 1340 2964.5 1847.07Z" fill="#000" fill-opacity=".14"/>
  <path d="M1725 1203.5c-297 0-665 628.5-363.5 918.5-575.5 180 0 779 638.5 779s1214-599 638.5-779c301.5-290-66.5-918.5-363.5-918.5-126.5 0-195.51 58.5-275 116.5-79.5-58-148.5-116.5-275-116.5Z" fill="#FFCD98" stroke="#333" stroke-width="5"/>
  <path d="M2749.1 1817c-15.7-308.54-265-613.19-481.5-613.19-134.6 0-216.2 82.14-267.6 116.19-41.1-28.05-132.5-116.19-268.4-116.19-255.6 0-478.1 373.19-482.13 622.71C1227 1558 1433.07 1155 1733 1155c156 0 239 75 267 106 28-31 111-106 267-106 297.63 0 503.5 381.5 482.1 662Z" fill="#000" fill-opacity=".14"/>
  <path d="M1148.6 2266.67c-135.93 245.26 334.32 633.83 851.4 633.83 517.08 0 993.17-392.85 849.75-637.86C2945.11 2486.75 2490.72 2863 2000 2863c-487.79 0-939.69-371.78-851.4-596.33ZM1250.37 1807.39c-7.11 117.45 24.02 230.01 111.45 314.11-10.42 3.26-20.47 7.66-30.15 11.19 22.33-7.19 43.66-12.28 68.33-16.69-84.54-81.32-133.47-191.77-149.63-308.61ZM2670.5 2133c-21.76-6.41-44.6-12.37-70.5-17 85.32-82.07 134.37-193.81 150.07-311.86 7.89 118.62-23.01 232.49-111.25 317.36 11.32 3.54 21.24 7.64 31.68 11.5Z" fill="#000" fill-opacity=".1"/>
  <path d="M2588.29 2324.51c20.82 14.6 25.74 49.02 7.48 67.58-3.93 4-12.73 1.05-11.63-5.2 3.17-18.03-.65-37.12-6.2-54.42-1.91-5.94 4.77-11.64 10.32-7.91l.03-.05ZM1404.97 2465.51c-17.65 18.31-15.91 53.03 5.55 67.77 4.62 3.17 12.7-1.41 10.43-7.33-6.56-17.09-6.45-36.56-4.3-54.6.74-6.19-6.91-10.51-11.64-5.79l-.04-.05Z" fill="#000" fill-opacity=".1"/>
  <path d="M2538.22 2317.78c22.69 23.9 25.4 64.16 6.86 91.24-5.66 8.57-18.32 2.1-16.17-7.46 2.17-9.74 3.62-19.74 3.56-29.74-197.17 30.25-395.09 55.62-593.28 78.09-152.66 16.73-323.07 36.59-467.09 47.13 1.45 10.84 4.71 21.38 8.81 31.49 3.46 8.92-8.2 16.44-14.9 9.61-22.68-23.69-26.45-63.89-8.01-91.14 5.92-8.52 17.26-1.91 16.3 7.24a158.58 158.58 0 0 0-3.06 23.97c152.31-26.13 310.03-43.7 464.42-61.73 198.32-21.6 396.68-41.82 594.96-63.79-1.65-8.75-4.41-17.14-7.41-25.5-3.22-8.91 8.38-16.18 15-9.41h.01Z" fill="#634B37"/>
  <path d="M2616.25 1600.5h-1232.5a350.07 350.07 0 0 0-142.1 30.14l-211.56 93.99c-22.94 10.19-15.46 68.7 13.04 60.02 86.45-26.34 175.57-64.61 265.02-78.71-10.81 142.78 75.66 412.56 331.6 412.56 260.5 0 360.48-251.17 349.43-415h21.91c-12 142.12 74 415 331.4 415 259.19 0 359.47-248.65 349.59-412.53 89.38 14.2 178.39 52.36 264.79 78.68 28.5 8.68 35.98-49.83 13.04-60.02l-211.56-93.99a350.03 350.03 0 0 0-142.1-30.14Z" fill="#000"/>
  <path d="M1856.96 1974.67c-198.23 161.17-482.38 0-482.38-246.17 93.62 165 294.51 263.59 482.38 246.17ZM2559.7 1974.67c-198.23 161.17-482.38 0-482.38-246.17 93.62 165 294.51 263.59 482.38 246.17Z" fill="#fff"/>
  <path d="M1785 2099c0 76.35 98.85 169 216.26 168 108.22-.95 213.74-92.55 213.74-167.78 0-152.13-430-154.42-430-.22Z" fill="#000" fill-opacity=".1"/>
  <path d="M1782 2081c0 76.35 100.23 169 219.27 168 109.73-.95 216.73-92.55 216.73-167.78 0-60.53-126.24-113.77-216.73-113-84.02.78-219.27 41.16-219.27 112.78Z" fill="#7F6145"/>
  <path d="M1783.58 2067.77c41.76 54.75 124.68 100.94 217.85 100.22 86.21-.69 170.92-47.12 214.09-101.55a46.54 46.54 0 0 1 2.48 14.78c0 75.23-107 166.83-216.73 167.78-119.04 1-219.27-91.65-219.27-168 0-4.54.54-8.95 1.58-13.23Z" fill="#000" fill-opacity=".2"/>
  <mask id="a" maskUnits="userSpaceOnUse" x="2263.55" y="3113.01" width="282" height="110" fill="#000">
    <path fill="#fff" d="M2263.55 3113.01h282v110h-282z"/>
    <path fill-rule="evenodd" clip-rule="evenodd" d="M2270.55 3218.01c12.31-57 67.6-100 133.95-100s121.64 43 133.94 100h-21.47c-11.94-46.43-57.77-81-112.47-81-54.71 0-100.53 34.57-112.47 81h-21.48Z"/>
  </mask>
  <path fill-rule="evenodd" clip-rule="evenodd" d="M2270.55 3218.01c12.31-57 67.6-100 133.95-100s121.64 43 133.94 100h-21.47c-11.94-46.43-57.77-81-112.47-81-54.71 0-100.53 34.57-112.47 81h-21.48Z" fill="#3FBC8F"/>
  <path d="m2270.55 3218.01-4.88-1.06-1.31 6.06h6.19v-5Zm267.89 0v5h6.2l-1.31-6.06-4.89 1.06Zm-21.47 0-4.85 1.24.97 3.76h3.88v-5Zm-224.94 0v5h3.88l.96-3.76-4.84-1.24Zm112.47-105c-68.43 0-125.98 44.38-138.83 103.94l9.77 2.11c11.75-54.43 64.79-96.05 129.06-96.05v-10Zm138.83 103.94c-12.86-59.56-70.41-103.94-138.83-103.94v10c64.27 0 117.3 41.62 129.06 96.05l9.77-2.11Zm-26.36 6.06h21.47v-10h-21.47v10Zm4.84-6.25c-12.57-48.86-60.57-84.75-117.31-84.75v10c52.67 0 96.31 33.26 107.62 77.24l9.69-2.49Zm-117.31-84.75c-56.74 0-104.75 35.89-117.31 84.75l9.68 2.49c11.31-43.98 54.96-77.24 107.63-77.24v-10Zm-133.95 91h21.48v-10h-21.48v10Z" fill="#333" mask="url(#a)"/>
  <path fill-rule="evenodd" clip-rule="evenodd" d="M2328.93 3138.72a146.73 146.73 0 0 1 66.57-15.71c64.39 0 118.37 40.5 132.74 95h10.2c-12.3-57-67.6-100-133.94-100-27.95 0-53.93 7.63-75.57 20.71Zm10.99 16.22c-26.66 13.33-46.91 35.95-55.46 63.07h7.57c6.72-26.13 24.16-48.5 47.89-63.07Z" fill="#000" fill-opacity=".14"/>
  <path d="M2398 3259.9c-56.81.04-92.98-68.11-58.59-115.27-15.91-45.22 18.09-95.4 66.66-96.56 56-1.33 88.37 58.51 82.5 109.14-5.48 47.31-37.52 102.64-90.57 102.69Z" fill="#F7C394" stroke="#333" stroke-width="5" stroke-miterlimit="10"/>
  <path d="M2488.57 3157.21c-6.78 58.56-54.37 126.8-125.37 93.8 68.83-8.81 117-125.5 83.11-191.84 5.39 3.84 13.89 8.34 27.6 27.61 12.29 21.73 17.7 46.2 14.66 70.43Z" fill="#000" fill-opacity=".14"/>
  <rect x="2155" y="3210.01" width="499" height="306" rx="32" fill="#3FBC8F" stroke="#333" stroke-width="5"/>
  <path fill-rule="evenodd" clip-rule="evenodd" d="M2155 3476.01v8a32 32 0 0 0 32 32h435a32 32 0 0 0 32-32v-242a32 32 0 0 0-32-32h-8v234a32 32 0 0 1-32 32h-427Z" fill="#000" fill-opacity=".14"/>
  <path d="M2155 3242.01a32 32 0 0 1 32-32h435a32 32 0 0 1 32 32v110a32 32 0 0 1-32 32h-435a32 32 0 0 1-32-32v-110Z" fill="#3FBC8F" stroke="#333" stroke-width="5"/>
  <path fill-rule="evenodd" clip-rule="evenodd" d="M2156.28 3361.01a32.02 32.02 0 0 0 30.72 23h435a32 32 0 0 0 32-32v-110a32 32 0 0 0-32-32h-1.28a32.14 32.14 0 0 1 1.28 9v110a32 32 0 0 1-32 32h-433.72Z" fill="#000" fill-opacity=".14"/>
  <path d="M2363 3376.01a42 42 0 1 1 84 0v17h-84v-17Z" fill="#3FBC8F" stroke="#333" stroke-width="5"/>
  <path fill-rule="evenodd" clip-rule="evenodd" d="M2371.57 3350.58a42 42 0 0 1 67.43 33.43v9h8v-17a42 42 0 0 0-75.43-25.43Z" fill="#000" fill-opacity=".14"/>
  <rect x="2362.5" y="3359.51" width="85" height="47" rx="7.5" fill="#B5FFE4" stroke="#333" stroke-width="5"/>
  <path fill-rule="evenodd" clip-rule="evenodd" d="M2360 3397.01v2a10 10 0 0 0 10 10h70a10 10 0 0 0 10-10v-32a10 10 0 0 0-10-10h-1v35a5 5 0 0 1-5 5h-74Z" fill="#000" fill-opacity=".14"/>
  <rect x="2388.5" y="3374.51" width="33" height="17" rx="2.5" fill="#3FBC8F" stroke="#333" stroke-width="5"/>
  <path d="M1837.47 762.32c112.05 16.71 355.08 64.41 609.8 187.82 184.52 89.39 363.01 228.33 441.67 293.05 25.57 21.04 34.31 55.89 22.77 86.91l-8.75 23.54c-14.68 39.46-64.77 52.58-97.91 26.6-90.68-71.08-265.32-197.5-477.7-299.13-200.1-95.76-435.8-146.03-544.44-165.64-31.4-5.67-51.1-37.92-41.01-68.19l10.38-31.14c12.1-36.33 47.31-59.46 85.19-53.82Z" fill="#000" fill-opacity=".15"/>
  <path d="M2818.86 849.63 2835.5 1170l-925-402.5 289.56-222.3A190 190 0 0 1 2396 523.7l296.07 137.93a220 220 0 0 1 126.79 188.01Z" fill="#61DCB0" stroke="#333" stroke-width="5"/>
  <path fill-rule="evenodd" clip-rule="evenodd" d="m2779.48 1145.62-16.62-319.98a220 220 0 0 0-126.79-188.01L2370.9 514.09a189.8 189.8 0 0 1 25.1 9.6l296.07 137.93a220 220 0 0 1 126.79 188.01L2835.5 1170l-56.02-24.38Z" fill="#000" fill-opacity=".15"/>
  <path fill-rule="evenodd" clip-rule="evenodd" d="m2497.35 682.2 21.05-45.79-40.66-18.7-21.05 45.8-17.86-48.26-41.97 15.53 33.39 90.23-17.94 39.02-39.01-17.94-33.4-90.23-41.97 15.53 17.87 48.26-45.8-21.05-18.69 40.66 45.79 21.05-48.26 17.87 15.53 41.96 90.23-33.39 39.02 17.94-17.94 39.01-90.23 33.4 15.53 41.97 48.27-17.87-21.06 45.8 40.66 18.69 21.05-45.8 17.87 48.27 41.96-15.53-33.39-90.23 17.94-39.02 39.01 17.94 33.4 90.23 41.97-15.53-17.86-48.26 45.79 21.05 18.69-40.66-45.79-21.05 48.26-17.87-15.53-41.96-90.23 33.39-39.02-17.94 17.94-39.01 90.23-33.4-15.53-41.97-48.26 17.87Z" fill="#36AD82"/>
  <path d="M1819.54 726.62c121.99 19.11 381.62 72.04 652.96 203.88 189.78 92.21 373.17 232.44 462.34 304.94 32.2 26.17 37.25 72.69 12.6 106.08l-19.23 26.05c-19.84 26.89-58.9 30.85-84.7 9.63-80.35-66.11-258.4-201.01-501.51-317.7-215.65-103.51-458.95-153.44-569.53-172.24-32.45-5.52-54.44-36.99-47.45-69.16l6.41-29.46c8.89-40.92 46.73-68.5 88.11-62.02Z" fill="#3FBC8F" stroke="#333" stroke-width="5"/>
  <path fill-rule="evenodd" clip-rule="evenodd" d="m2962.7 1301.17-.26.35-19.23 26.05c-19.84 26.89-58.9 30.85-84.7 9.62-80.35-66.11-258.4-201-501.51-317.69-215.65-103.51-458.95-153.44-569.53-172.24-32.45-5.52-54.44-37-47.45-69.16l4.08-18.77a82.09 82.09 0 0 0-12.68 29.31l-6.4 29.46c-6.99 32.17 15 63.64 47.45 69.16 110.58 18.8 353.88 68.73 569.53 172.24 243.11 116.69 421.16 251.58 501.51 317.69 25.8 21.23 64.86 17.27 84.7-9.62l19.23-26.05a78.95 78.95 0 0 0 15.26-40.35Z" fill="#000" fill-opacity=".2"/>
  <path fill-rule="evenodd" clip-rule="evenodd" d="M1855.17 3356.76C1752.39 3301.9 1682 3192.84 1682 3086c0-23.2 1.84-50.3 5.68-80.07A199.16 199.16 0 0 1 1814 2961c110.46 0 200 89.54 200 200 0 96.35-68.13 176.78-158.83 195.76Z" fill="#000" fill-opacity=".15"/>
  <rect x="1606" y="2937" width="400" height="400" rx="200" fill="#fff"/>
  <rect x="1626" y="2956.99" width="360" height="360" rx="180" fill="#2D374B"/>
  <path fill-rule="evenodd" clip-rule="evenodd" d="M1857.2 3138.82c6.08-6.38-28.17-71.86-102.54-62.5-9.47 1.19-53.13 13.8-65.94 78.36-3.95 19.91 31.68 8.49 37.38.91 13.63-18.11 34.43-40.08 48.26-40.36 2.48-.06 8.35 3.42 16 7.95 14.36 8.5 34.97 20.7 51.19 20.26 5.41-.15 11.64-.4 15.65-4.62Zm-101.58-2.83c-6.08 6.39 28.17 71.87 102.54 62.51 9.47-1.2 53.13-13.8 65.94-78.36 3.95-19.91-31.68-8.49-37.38-.92-13.63 18.12-34.43 40.09-48.25 40.37-2.48.05-8.35-3.42-16-7.95-14.36-8.5-34.98-20.7-51.2-20.26-5.41.14-11.64.39-15.65 4.61Z" fill="#fff"/>
  <path fill-rule="evenodd" clip-rule="evenodd" d="M1647.56 3014.94A199.3 199.3 0 0 0 1630 3097c0 110.46 89.54 200 200 200 64.5 0 121.87-30.53 158.44-77.94C1957.12 3288.6 1887.21 3337 1806 3337c-110.46 0-200-89.54-200-200a199.1 199.1 0 0 1 41.56-122.06Z" fill="#000" fill-opacity=".15"/>
  <rect x="1606" y="2937" width="400" height="400" rx="200" stroke="#333" stroke-width="5"/>
  <path fill-rule="evenodd" clip-rule="evenodd" d="M1619.4 3064.88A199.55 199.55 0 0 0 1606 3137a199.2 199.2 0 0 0 47.46 129.35c34.59-20.39 50.09-69.31 23.53-105.72 14.91-42.34-13.97-89.05-57.59-95.75Z" fill="#000" fill-opacity=".15"/>
  <path d="M1601.4 3259.89c56.81.05 92.98-68.11 58.59-115.27 15.91-45.21-18.09-95.39-66.66-96.55-56-1.34-88.37 58.5-82.5 109.13 5.48 47.31 37.52 102.65 90.57 102.69Z" fill="#F7C394" stroke="#333" stroke-width="5" stroke-miterlimit="10"/>
  <path d="M1510.83 3157.2c6.78 58.57 54.37 126.8 125.37 93.8-68.82-8.8-117-125.5-83.11-191.84-5.39 3.84-13.89 8.34-27.6 27.61-12.29 21.73-17.7 46.2-14.66 70.43Z" fill="#000" fill-opacity=".1"/>
</svg>
