<svg width="4000" height="4000" viewBox="0 0 4000 4000" fill="none" xmlns="http://www.w3.org/2000/svg"><path d="M2275.11 3290.64c-50.77-7.42-115.16-32.27-196.86-76-11.87-6.35-16.67-21.85-10.25-33.84 6.35-11.87 21.85-16.66 33.84-10.25 75.45 40.37 136.18 64.12 180.5 70.6 28.93 4.23 49.75 1 61.88-9.64 13.61-11.92 12.39-33 8.83-72.39-4.17-46.12-9.36-103.53 19.78-169.51 44-99.72 153.63-194.53 269.09-176.7 73.33 11.36 143.6 66.19 159.73 140.59 13.73 63.36-6.02 150.17-73.53 174.43-44.77 16-95.93-2.36-130.84-32.08-10.44-8.68-11.95-25-3.06-35.44 8.81-10.34 25.15-11.64 35.48-2.62.43.36 43.66 36.65 81.49 23.06 42.84-15.38 49.77-78.95 41.56-116.78-11.75-54.23-65.6-93.57-118.51-101.77-92.84-14.33-180.8 68.49-215.72 147.49-23.91 54.16-19.56 102.32-15.72 144.81 4 43.84 7.71 85.25-25.67 114.5-27.66 24.4-67.07 26.8-102.02 21.54z" fill="#7F6145" stroke="#333" stroke-width="5" stroke-miterlimit="10"/><path d="M2786.65 2965.53c11.06 51.02 1.18 114.55-37.82 152.08 51.41-33.7 65.07-107.56 52.82-164.08-16.13-74.41-86.39-129.24-159.73-140.6-66.26-10.23-131.78 18.56-181.54 60.82 114.12-80.75 293.29-60.36 326.27 91.78z" fill="#000" fill-opacity=".2"/><path d="M2717.62 3078.06c-27.03 31.45-75.59 15.26-102.89-8.23a24.94 24.94 0 00-23.13-5 25.21 25.21 0 0119.93-12.9 25 25 0 0118.2 5.89c22.07 19.5 59.84 35.17 87.89 20.24zM2073.5 3173.5c3.5-3 15.5-9 23-5.5 6.98 3.26 15.34 7.39 24.73 12.03 49.42 24.41 127.47 62.97 183.77 62.97 50 0 54.5-25 47.5-91a442 442 0 003.06 12.51c9.62 37.75 24.09 94.49-50.56 94.49-81.5 0-208.79-70.57-231.5-85.5z" fill="#000" fill-opacity=".2"/><path d="M1587 3147c36.5 0 65.66-32.58 62.04-68.42-5.42-63.52 18.62-132.19 65.95-198.39 43.05-60.25 89.21-93.25 53.71-132.19-35.5-38.94-115.57 3.92-155.4 59.5-65.71 91.92-97.19 189.11-88.63 283.68 3.19 31.47 25.83 55.82 62.33 55.82z" fill="#7F6145" stroke="#333" stroke-width="5" stroke-miterlimit="10"/><path d="M1553.08 3059.16c-.41-112.27 89.62-277.66 195.12-324.16-130-21-245 233.5-222.72 351.77 7.22-11.77 19.72-23.27 27.6-27.61z" fill="#000" fill-opacity=".15"/><path d="M1959.37 3446.51c5-87.08 27.4-154.43 47.17-206.81 19.77-52.38 42.42-144.7-42.56-166.02-121.5-30.49-188.31 254.12-193.3 340.94-2.93 51.08 36.82 110.33 88.4 113.29 47.48 2.31 97.45-31.79 100.29-81.4z" fill="#7F6145" stroke="#333" stroke-width="5" stroke-miterlimit="10"/><path d="M1769.48 3414.5c51.5-7 148-7 188.5 34 .34-3.09 1.44-11.94 1.66-15.04-42.16-36.96-138.16-39.46-188.02-32.46-.26 3.3-1.86 10.13-2.14 13.5zM1785.48 3325c47.76 44.29 108.88 69.13 178 78.5.58-5.01 1.81-12.18 2.5-17-68.6-8.88-128.2-37.6-176-81-2 6-3.62 15.27-4.5 19.5z" fill="#000" fill-opacity=".15"/><path d="M2040.63 3446.51c-5-87.08-27.4-154.43-47.17-206.81-19.77-52.38-42.42-144.7 42.56-166.02 121.5-30.49 188.31 254.12 193.3 340.94 2.93 51.08-36.82 110.33-88.4 113.29-47.48 2.31-97.45-31.79-100.29-81.4z" fill="#7F6145" stroke="#333" stroke-width="5" stroke-miterlimit="10"/><path d="M2230.52 3414.5c-51.5-7-148-7-188.5 34-.34-3.09-1.44-11.94-1.66-15.04 42.16-36.96 138.16-39.46 188.02-32.46.26 3.3 1.86 10.13 2.14 13.5zM2214.52 3325c-47.76 44.29-108.88 69.13-178 78.5-.58-5.01-1.81-12.18-2.5-17 68.6-8.88 128.2-37.6 176-81 2 6 3.62 15.27 4.5 19.5z" fill="#000" fill-opacity=".15"/><path d="M2413 3147c-36.5 0-65.66-32.58-62.04-68.42 5.42-63.52-18.62-132.19-65.95-198.39-43.06-60.25-89.21-93.25-53.71-132.19 35.5-38.94 115.56 3.92 155.4 59.5 65.71 91.92 97.19 189.11 88.63 283.68-3.19 31.47-25.83 55.82-62.33 55.82z" fill="#7F6145" stroke="#333" stroke-width="5" stroke-miterlimit="10"/><path d="M2446.91 3059.16c.42-112.27-89.61-277.66-195.11-324.16 130-21 245 233.5 222.71 351.77-7.21-11.77-19.71-23.27-27.6-27.61z" fill="#000" fill-opacity=".15"/><path d="M3133.19 1832.12c111.1 102 66.32 309.29-9.09 427.16-107.46 168-353.47 273.75-479.46 184.37-131.58-93.35-114.4-386.92 39.2-539.32 114.68-113.78 334.45-177.69 449.35-72.21z" fill="#F7C394" stroke="#333" stroke-width="5" stroke-miterlimit="10"/><path d="M3003.49 1952.22c66 68.19 30.1 196.68-21.65 267.88-73.75 101.45-232.17 158.69-307.94 97.86-79.14-63.53-57.39-247.22 44.75-337.18 76.26-67.16 216.64-99.08 284.84-28.56z" fill="#FFC9A1"/><path d="M3124.1 2259.28c-60.69 94.85-195.1 203.22-346.6 216.72 106.36-25 260.01-133.85 306.64-206.72 75.41-117.87 115.36-338.97 9.09-427.16-32.41-26.89-114.73-65.12-227.73-45.12 138-42.5 222.79-6.13 267.73 35.12 111.06 101.99 66.28 309.29-9.13 427.16z" fill="#000" fill-opacity=".1"/><path d="M866.82 1832.12c-111.1 102-66.32 309.29 9.09 427.16 107.46 168 353.47 273.75 479.46 184.37 131.58-93.35 114.4-386.92-39.2-539.32-114.68-113.78-334.45-177.69-449.35-72.21z" fill="#F7C394" stroke="#333" stroke-width="5" stroke-miterlimit="10"/><path d="M996.52 1952.22c-66 68.19-30.1 196.68 21.65 267.88 73.75 101.45 232.17 158.69 307.94 97.86 79.14-63.53 57.39-247.22-44.75-337.18-76.26-67.16-216.64-99.08-284.84-28.56z" fill="#FFC9A1"/><path d="M875.9 2259.28c60.7 94.85 195.11 203.22 346.61 216.72-106.36-25-260.02-133.85-306.64-206.72-75.41-117.87-115.36-338.97-9.1-427.16 32.42-26.89 114.74-65.12 227.74-45.12-138-42.5-222.8-6.13-267.73 35.12-111.06 101.99-66.28 309.29 9.13 427.16z" fill="#000" fill-opacity=".1"/><path d="M2000 2548c154 0 220 135 260 246s58 220 58 292c0 152-138.68 305.46-318 307-175.53 1.51-318-155-318-307 0-72 17.7-181.5 58-292 40-111 106-246 260-246z" fill="#7F6145" stroke="#333" stroke-width="5" stroke-miterlimit="10"/><path d="M2000 3393c-175.67 1.59-330-157-318-337 10 148 145.15 288.48 318 287 172.85-1.48 308-139 318-287 12 180-142.33 335.41-318 337z" fill="#000" fill-opacity=".15"/><path d="M2000 2672c104 0 160 68 174 128 34.49 147.82 64 274 4 350s-134.95 82-178 82c-47.55 0-118-6-178-82s-32.44-193.83 4-350c14-60 70-128 174-128z" fill="#F7C394" stroke="#333" stroke-width="5" stroke-miterlimit="10"/><path d="M2000 3232c-136 0-224-94-213-216 4 115 96 190 213 190s209-75 213-190c11 122-77 216-213 216z" fill="#000" fill-opacity=".1"/><path d="M1905.79 3024.1c-21.35-28.14-30.29-70.05-13.88-126.12 39.06 101.19 178.53 101.37 217.52.02 16.4 56.06 7.46 97.97-13.89 126.1-22.31 29.4-58.51 44.21-94.87 44.2-36.37 0-72.57-14.8-94.88-44.2z" fill="#D6D6D6" stroke="#333" stroke-width="5"/><path d="M1661.72 3350.49c-5.06-6.48-2.39-15.26 3.7-23.47 12.47-16.81 17.29-33.7 19.85-69.53 2.81-39.43-2.69-96.95-6.71-138.95-6.22-64.95-.76-128.41 16.58-191.24-26.64 46.18-42.33 101.46-46.14 154.7-63-62-113.4-18.63-132 36.54-12-103.54 29.89-215.84 85.27-296.92 255.62 98.95 543.28 100.75 798.73-.62 52.55 79.75 90.5 164.5 76.5 280-32.09-51.22-93.48-58.62-131-7.96 2-62.04-10.53-112.23-37.64-162.53 14.02 67.07 21.52 130.74 10.12 199.38-5.46 42.27-11.55 84.88-8.52 127.6 2.7 37.86 5.61 53.17 17.49 69.18 6.3 8.49 7.54 16.68 3.69 24.34-22.62 44.99-257.59 56.61-323.01 56.61 11.11-148.99-39.59-364.61 75.07-485.03-47.86 0-95.73-.1-143.59-.42 70 149.05 76.79 324.32 58.17 485.45-67.14-.88-294.78-3.62-336.56-57.13z" fill="#F9EB3D" stroke="#333" stroke-width="5" stroke-linecap="round" stroke-linejoin="round"/><path d="M2299.64 3318.28c-12.68-17.05-19.37-48.84-22-85.74-4.17-58.48 28.11-188.37 22.11-321.93 20.09 36.39 29.51 141.18 20.09 210.6-5.68 41.94-13.3 98.08-10.56 136.46 2.63 36.9 7.68 53.79 20.33 70.84C2369.3 3382 2166 3406 2009 3406l1-27.5c102.5 0 316.48-24.08 289.64-60.22zM1719.4 3232.54c-2.66 36.9-9.35 68.69-22 85.74-32.69 44.05 201.1 60.22 303.6 60.22l-3 28.5c-159.5 2-375.85-22.5-333.57-79.49 12.65-17.05 18.7-32.94 21.33-69.84 5.73-80.45-18.33-160.17-7.17-240.74 7.37-53.21 5.88-69.92 28.88-106.32-6.02 133.56 16.1 263.45 11.93 321.93zM1633.08 2833.02c-31.18 50.62-75.33 144.98-75.33 227.92-18.55 11.83-32.66 33.6-40.75 57.6-12-103.54 29.89-215.84 85.27-296.92a1074.5 1074.5 0 0030.81 11.4zM2368.4 2824.61c33.6 46.89 92.1 148.39 81.1 247.39 12 6 21 15 27 31.5 17-102-18-198-79.5-289.5-10.32 3.7-18.19 7.22-28.6 10.61z" fill="#000" fill-opacity=".15"/><path d="M1529.19 3056.71c-1.5-19.38 22.46-32.09 36.1-19.43 9.25-15.08 27.25-13.29 35.91-.42 15.8-13.86 37.8-3.36 36.4 15.06 27.11-6.29 31.07 29.6 16.9 46.58-24-65-108.04-53.59-139.5 17.5-19.5-17.5-13.48-57.81 14.19-59.29zM2470.33 3056.71c1.51-19.38-22.45-32.09-36.1-19.43-9.24-15.08-27.24-13.29-35.91-.42-15.79-13.86-37.79-3.36-36.4 15.06-27.1-6.29-31.06 29.6-16.89 46.58 24-65 105.51-54.09 136.97 17 19-22.5 16.01-57.31-11.67-58.79z" fill="#F9EB3D" stroke="#333" stroke-width="5"/><path d="M1985 3407.55v-220.24c0-73.74-24-183.31-53.3-245.01-19.64-28.12 19.86-31.71 29.3-9.26 5.43 12.92 32.55 93.02 39 111.41 9.63-23.49 35.17-100.49 41.99-111.41 12.51-20.04 39.22-6.72 25.3 16.33-13.68 24.74-48.59 100-52.29 237.46-1.97 74.12 0 145.67 0 220.89-10 .13-20-.07-30-.17z" fill="#fff" stroke="#333" stroke-width="5" stroke-linecap="round" stroke-linejoin="round"/><path d="M1985 3187.31v220.24h13v-220.24c0-73.74-24.69-185.11-54-246.81h-13.5c29.31 61.7 54.5 173.07 54.5 246.81zM1994 3062.5c1.5 2 5.5 4.5 10 6.5 14.14-34.48 36-119.5 59.97-144.27-6.49-3.28-15.91-1.41-21.98 8.31-16.99 35.96-33 88.45-47.99 129.46z" fill="#000" fill-opacity=".15"/><path d="M1986.49 3160.42a15.67 15.67 0 01-15.49-15.49v-90.28a15.67 15.67 0 0115.49-15.49h24.57a15.67 15.67 0 0115.49 15.49v90.28a15.67 15.67 0 01-15.49 15.49h-24.57zm-1.37-52c-.54 0-1 .46-1 1V3138c0 .54.46 1 1 1h27.74c.54 0 1-.46 1-1v-28.58c0-.54-.46-1-1-1h-27.74z" fill="#fff" stroke="#333" stroke-width="5"/><path d="M1991.76 3139a15.67 15.67 0 0013.73 8.42h20.85a15.68 15.68 0 01-15.28 13h-24.57a15.67 15.67 0 01-15.49-15.49v-90.28a15.67 15.67 0 0115.49-15.49h3.72c0 22.34-.21 47.08-.21 69.26h-4.88c-.54 0-1 .46-1 1V3138c0 .54.46 1 1 1h6.64zM2395 2818a786.5 786.5 0 0123 37 1402.88 1402.88 0 01-84.49 30.9c-64.81 87.25-215.78 105.12-333.51 105.12-119.63 0-274.45-17.48-337.08-106.29A1415.09 1415.09 0 011582 2855c6.38-10.73 15.76-26.46 23-37 193.25 74.88 597.7 75.38 790 0z" fill="#000" fill-opacity=".15"/><path d="M2267.76 936.82C2665.92 1066 2967.42 1339.94 2966 1847c-1.09 388.75-350.07 990.81-966.43 996.18-594.62 5.19-966.64-596.22-965.57-996.18 1.32-488.44 432.13-990.94 966-1028.5 533.3-37.49 934.21 335.03 267.76 118.32z" fill="#F9EB3D" stroke="#333" stroke-width="5" stroke-linecap="round" stroke-linejoin="round"/><path d="M2431 872.5c-90.07-15.35-223.24-40.92-397.06-28.7C1380.48 889.74 907 1615 1169.36 2202.88c68.14-70.38 151.14-90.38 177.59-99.16 7.94 8.57 17.6 17.67 21.05 21.78-81.37 25.35-175.93 80.41-216.63 156.84-76.27-147.6-117-302.56-116.59-435.33 1.32-488.45 432.22-991 966.09-1028.57 29.14-2.05 56.83-2.94 83.13-2.94 149.5 0 275.5 33.5 347 57z" fill="#000" fill-opacity=".15"/><path d="M2964.5 1847.07c-.36 127.74-38.12 278.51-110.54 423.57C2779 2168 2644.73 2127 2631 2127c4-5 16-19.7 20-24.5 23.5 5.5 128.62 27.91 187.28 106.2 59.3-132.15 86.52-255.16 86.84-370.86 1.47-524.24-353.62-784.84-657.36-901.02C2665.92 1066 2965.92 1340 2964.5 1847.07z" fill="#000" fill-opacity=".15"/><path d="M1725 1203.5c-297 0-665 628.5-363.5 918.5-575.5 180 0 779 638.5 779s1214-599 638.5-779c301.5-290-66.5-918.5-363.5-918.5-126.5 0-195.51 58.5-275 116.5-79.5-58-148.5-116.5-275-116.5z" fill="#FFCD98" stroke="#333" stroke-width="5"/><path d="M2749.1 1817c-15.7-308.54-265-613.19-481.5-613.19-134.6 0-216.2 82.14-267.6 116.19-41.1-28.05-132.5-116.19-268.4-116.19-255.6 0-478.1 373.19-482.13 622.71C1227 1558 1433.07 1155 1733 1155c156 0 239 75 267 106 28-31 111-106 267-106 297.63 0 503.5 381.5 482.1 662z" fill="#000" fill-opacity=".15"/><path d="M1148.6 2266.67c-135.93 245.26 334.32 633.83 851.4 633.83 517.08 0 993.17-392.85 849.75-637.86C2945.11 2486.74 2490.72 2863 2000 2863c-487.79 0-939.69-371.78-851.4-596.33zM1250.37 1807.39c-7.11 117.45 24.02 230.01 111.45 314.11-10.42 3.26-20.47 7.66-30.15 11.19 22.33-7.19 43.66-12.28 68.33-16.69-84.54-81.32-133.47-191.77-149.63-308.61zM2670.5 2133c-21.76-6.41-44.6-12.37-70.5-17 85.32-82.07 134.37-193.81 150.07-311.86 7.89 118.62-23.01 232.49-111.25 317.36 11.32 3.54 21.24 7.64 31.68 11.5z" fill="#000" fill-opacity=".1"/><path d="M1910 3556c32 0 63.09-23.6 66.69-56.14 9.12-82.21-94.34-89.68-150.66-90.92-57.1-1.25-154.03 9.56-171.02 72.27C1640.16 3536 1691.5 3556 1728 3556c36.5 0 49-12.15 92.98-12.15 38.41 0 57.02 12.15 89.02 12.15z" fill="#F7C394" stroke="#333" stroke-width="5" stroke-miterlimit="10"/><path d="M1909 3534c-32 0-50.61-12.15-89.02-12.15-43.98 0-56.48 12.15-92.98 12.15-28.39 0-65.75-12.1-73.97-43.26-6.73 47.6 40.67 65.26 74.97 65.26 36.5 0 49-12.15 92.98-12.15 38.41 0 57.02 12.15 89.02 12.15 42.86 0 73-34.15 65.91-80.26-2.97 33.46-34.04 58.26-66.91 58.26z" fill="#000" fill-opacity=".1"/><path d="M2090 3556c-32 0-63.09-23.6-66.69-56.14-9.12-82.21 94.34-89.68 150.66-90.92 57.1-1.25 154.03 9.56 171.02 72.27C2359.84 3536 2308.5 3556 2272 3556c-36.5 0-49-12.15-92.98-12.15-38.41 0-57.02 12.15-89.02 12.15z" fill="#F7C394" stroke="#333" stroke-width="5" stroke-miterlimit="10"/><path d="M2091 3534c32 0 50.61-12.15 89.02-12.15 43.98 0 56.48 12.15 92.98 12.15 28.39 0 65.75-12.1 73.97-43.26 6.73 47.6-40.67 65.26-74.97 65.26-36.5 0-49-12.15-92.98-12.15-38.41 0-57.02 12.15-89.02 12.15-42.86 0-73-34.15-65.91-80.26 2.97 33.46 34.04 58.26 66.91 58.26z" fill="#000" fill-opacity=".1"/><path d="M1601.4 3259.89c56.81.05 92.98-68.11 58.59-115.27 15.91-45.21-18.09-95.39-66.66-96.55-56-1.34-88.37 58.5-82.5 109.13 5.48 47.31 37.52 102.65 90.57 102.69z" fill="#4B72D1" stroke="#333" stroke-width="5" stroke-miterlimit="10"/><path d="M1510.83 3157.2c6.78 58.57 54.37 126.8 125.37 93.8-68.83-8.8-117-125.5-83.11-191.84-5.39 3.84-13.89 8.34-27.6 27.61-12.29 21.73-17.7 46.2-14.66 70.43z" fill="#000" fill-opacity=".15"/><path d="M2398.6 3259.89c-56.82.05-92.99-68.11-58.59-115.27-15.92-45.21 18.08-95.39 66.66-96.55 56-1.34 88.36 58.5 82.5 109.13-5.48 47.31-37.53 102.65-90.57 102.69z" fill="#4B72D1" stroke="#333" stroke-width="5" stroke-miterlimit="10"/><path d="M2489.17 3157.2c-6.78 58.57-54.37 126.8-125.37 93.8 68.82-8.8 117-125.5 83.11-191.84 5.39 3.84 13.89 8.34 27.6 27.61 12.29 21.73 17.7 46.2 14.66 70.43zM2962.83 1778.94C2340 1220 1660 1220 1037.42 1780.83c1.04-21.51 2.79-43.36 5.25-65.55 518-547 1400.85-567.43 1919.52 2.96.54 20.04.76 40.27.64 60.7z" fill="#000" fill-opacity=".15"/><path d="M2962.83 1778.94C2448 1176 1552 1176 1037.42 1780.83c5.45-113.06 30.66-236.41 75.12-358 489.15-492.42 1349.99-453.78 1822.53 46.13 19.15 97.04 28.49 200.87 27.76 309.98z" fill="#4F4F4F" stroke="#333" stroke-width="5" stroke-miterlimit="10"/><path d="M2962.1 1715.42c.6 20.08 2.51 44.62 2.4 65.08-507.5-595-1393.56-614.99-1927.5-.5 1.1-21.59 3.49-45.56 6.02-67.81 547.99-596.58 1410.51-586.93 1919.08 3.23z" fill="#000" fill-opacity=".15"/><path d="M2779.66 1077.3c-362.17-279.15-928.4-339.03-1344.61-143.3 387.55-346.65 1048.32-301.67 1344.61 143.3z" fill="#736C3B" stroke="#333" stroke-width="5" stroke-miterlimit="10"/><path d="M2935.07 1469C2356 967 1644 967 1091.62 1484.73c53-188.6 151-355.62 289.29-498.63 286.18-295.88 1221.29-219.96 1429.72 141.17 61.01 105.73 100.53 222.3 124.44 341.73z" fill="#4F4927" stroke="#333" stroke-width="5" stroke-miterlimit="10"/><path d="M2984.89 1219.16a1303.69 1303.69 0 01-347.49-481.94c-8.08-19.41 6.76-48.19 29.1-57.33l60.5-24.77c16.23-6.64 103 50 235.65 204.28 115.59 134.54 139.84 287.35 128.41 300.65l-42.62 49.6c-15.7 18.35-47.69 23.35-63.55 9.51z" fill="#F41655" stroke="#333" stroke-width="5" stroke-miterlimit="10"/><path d="M3091.09 1160.05l-42.62 49.6c-15.72 18.31-47.72 23.31-63.58 9.51a1303.45 1303.45 0 01-347.49-481.95c-8.08-19.4 6.76-48.18 29.1-57.31l11.75-4.81a1303.51 1303.51 0 00303 386.31c15.86 13.8 47.85 8.8 63.58-9.5l20-23.23c27.6 69.93 32.83 123.73 26.26 131.38z" fill="#000" fill-opacity=".2"/><path d="M2975 1309.36a1303.64 1303.64 0 01-433.51-557.48l53.7-52.38A1303.55 1303.55 0 003039 1270.22l-64 39.14z" fill="#736C3B" stroke="#333" stroke-width="5" stroke-miterlimit="10"/><path d="M2541.48 751.88A1303.66 1303.66 0 002975 1309.36l64-39.14a1149.6 1149.6 0 01-21.48-16l-41.09 25.14a1303.81 1303.81 0 01-425-537.17l-9.95 9.69z" fill="#000" fill-opacity=".2"/><path d="M2891.23 1335.22a1303.68 1303.68 0 01-395.45-508.53c-3.49-8-2.1-18.54 3.33-26l26.93-36.83a1303.64 1303.64 0 00433.51 557.48c-14.12 5.69-28.23 11.36-42.33 17-8.54 3.49-19.09 2.24-25.99-3.12z" fill="#736C3B" stroke="#333" stroke-width="5" stroke-miterlimit="10"/><path d="M3033 1285.21c-215.65-150.56-358.43-333.21-451.22-579.27a17.65 17.65 0 014-17.7l35.62-34.74c5.28-5.15 12.08-3.63 14.61 3.18 93.08 250.25 238.47 436.2 458.08 588.06 6 4.14 5.76 11.1-.52 14.94l-42.45 26a17.64 17.64 0 01-18.12-.47z" fill="#423809" stroke="#333" stroke-width="5" stroke-miterlimit="10"/><path d="M2959.16 1331.22a1303.66 1303.66 0 01-442.77-569.38 7.04 7.04 0 011-6.6l14.4-18.7c2.13-2.74 5.42-2.42 6.63.65a1303.65 1303.65 0 00450 578.74c2.68 1.93 2.18 5.21-1 6.58l-21.66 9.36c-2.15.9-4.67.65-6.6-.65z" fill="#2D2D2D" stroke="#333" stroke-width="5" stroke-miterlimit="10"/><path d="M2516.39 761.84a1303.68 1303.68 0 00442.77 569.39 7.06 7.06 0 006.65.63l21.67-9.35c3.19-1.38 3.68-4.66 1-6.59l-5.73-4.15-10.19 4.4c-2.16.91-4.7.67-6.64-.64a1303.48 1303.48 0 01-442.33-568.31l-6.18 8a7.05 7.05 0 00-1.02 6.62z" fill="#000" fill-opacity=".3"/><path d="M2495.78 826.69a1303.64 1303.64 0 00395.45 508.54c6.9 5.35 17.45 6.6 26 3.18l42.33-17c-4.39-3.24-8.76-6.51-13.11-9.81l-18.28 7.35c-8.54 3.42-19.09 2.17-26-3.19a1303.68 1303.68 0 01-395.45-508.53 25.59 25.59 0 01-1.39-15l-6.22 8.53c-5.43 7.4-6.82 17.93-3.33 25.93z" fill="#000" fill-opacity=".2"/><path d="M2581.78 705.94c92.79 246.1 235.57 428.71 451.24 579.27a17.61 17.61 0 0018.14.44l42.45-26c6.28-3.85 6.49-10.82.51-15a1404.1 1404.1 0 01-14.91-10.44l-32.79 18.7a17.66 17.66 0 01-18.13-1c-206.66-154-342.45-336.53-427.95-577.93l-14.53 14.17a17.68 17.68 0 00-4.03 17.79z" fill="#000" fill-opacity=".3"/><path d="M1091.62 1484.73C1644 967 2356 967 2935.07 1469a1323.26 1323.26 0 00-21.5-90.93l-.5-1.77c-231.33-232.87-534.42-358.32-864.21-368.51-380.73-11.77-645.99 144.91-925.49 380.41l-.23.61a1155.4 1155.4 0 00-31.52 95.92z" fill="#000" fill-opacity=".15"/><path d="M1075.28 1212.55a1303.58 1303.58 0 00367.55-466.82c8.9-19.05-4.71-48.43-26.65-58.5l-59.4-27.32c-15.93-7.31-105.02 45.6-244.07 194.14-121.18 129.53-151.86 281.18-141 294.95l40.48 51.36c14.91 19 46.66 25.35 63.09 12.19z" fill="#F41655" stroke="#333" stroke-width="5" stroke-miterlimit="10"/><path d="M971.67 1149c13.51 17.15 27 34.27 40.49 51.36 14.93 18.96 46.69 25.31 63.12 12.19a1303.44 1303.44 0 00367.55-466.83c8.9-19.04-4.71-48.42-26.65-58.49l-11.53-5.3a1303.54 1303.54 0 01-319.07 373.15c-16.42 13.12-48.17 6.77-63.12-12.18l-19-24.05c-30.53 68.7-38.03 122.23-31.79 130.15z" fill="#000" fill-opacity=".2"/><path d="M1081.35 1303.09a1303.67 1303.67 0 00456.69-538.66l-51.44-54.6a1303.49 1303.49 0 01-467.54 551.45l62.29 41.81z" fill="#736C3B" stroke="#333" stroke-width="5" stroke-miterlimit="10"/><path d="M1538.05 764.43a1303.76 1303.76 0 01-456.7 538.66l-62.29-41.81c7.44-4.94 14.81-9.97 22.14-15.08l39.99 26.85a1303.9 1303.9 0 00447.33-518.72l9.53 10.1z" fill="#000" fill-opacity=".2"/><path d="M1163.95 1332.46a1303.58 1303.58 0 00416.59-491.35c3.83-7.85 2.89-18.44-2.22-26.12l-25.35-37.94a1303.67 1303.67 0 01-456.69 538.66 16728.1 16728.1 0 0041.57 18.77c8.39 3.85 18.98 3.05 26.1-2.02z" fill="#736C3B" stroke="#333" stroke-width="5" stroke-miterlimit="10"/><path d="M1024.42 1276.51c221.83-141.31 372.2-317.76 475.31-559.68a17.64 17.64 0 00-3.25-17.85l-34.12-36.22c-5.06-5.37-11.91-4.14-14.73 2.56-103.58 246.1-256.7 425.73-482.53 568.17-6.17 3.88-6.23 10.85-.11 14.95l41.31 27.77a17.64 17.64 0 0018.12.3z" fill="#423809" stroke="#333" stroke-width="5" stroke-miterlimit="10"/><path d="M1096.25 1325.6a1303.7 1303.7 0 00466.45-550.16c.89-2.17.61-4.7-.72-6.63l-13.6-19.3c-2.01-2.82-5.31-2.64-6.65.38a1303.66 1303.66 0 01-474.06 559.19c-2.76 1.82-2.4 5.12.72 6.62l21.24 10.27a7.1 7.1 0 006.62-.37z" fill="#2D2D2D" stroke="#333" stroke-width="5" stroke-miterlimit="10"/><path d="M1562.7 775.44a1303.71 1303.71 0 01-466.45 550.17 7.05 7.05 0 01-6.67.34l-21.25-10.25c-3.13-1.52-3.48-4.82-.72-6.63l5.9-3.9 9.99 4.82a7.03 7.03 0 006.66-.36 1303.38 1303.38 0 00465.96-549.1l5.84 8.26a7.06 7.06 0 01.74 6.65z" fill="#000" fill-opacity=".3"/><path d="M1580.55 841.1a1303.65 1303.65 0 01-416.6 491.37c-7.12 5.06-17.71 5.86-26.11 2.08l-41.57-18.77c4.52-3.05 9.03-6.14 13.51-9.25l17.95 8.12c8.39 3.78 18.98 2.97 26.11-2.09a1303.57 1303.57 0 00416.6-491.36 25.55 25.55 0 002.02-14.93l5.86 8.79c5.11 7.62 6.05 18.2 2.23 26.05z" fill="#000" fill-opacity=".2"/><path d="M1499.73 716.83c-103.11 241.96-253.48 418.37-475.33 559.67a17.6 17.6 0 01-18.14-.32l-41.31-27.77c-6.11-4.12-6.03-11.09.12-15.01 5.15-3.25 10.26-6.51 15.34-9.8l31.97 20.07a17.66 17.66 0 0018.16-.24c212.98-145.12 356.37-321.75 452-559.32l13.92 14.77a17.67 17.67 0 013.27 17.95z" fill="#000" fill-opacity=".3"/><path d="M2136.85 2257.75c-48.3 0-89.89 17.44-136.85 17.44-46.96 0-88.55-17.44-136.85-17.44-93.9 0-256.26-17.11-256.26 316.63 0 291.47 87.21 371.64 393.11 371.64 305.9 0 393.11-89.08 393.11-371.64 0-321.98-162.36-316.63-256.26-316.63zm61.3 380.78c-138 0 24.63-143.86-198.15-143.86s-60.16 143.86-198.15 143.86c-101.53 0-94.24-232.46-31.83-222.6 66.88 10.56 165.85-11.26 230-11.26s163.1 21.82 230 11.26c62.37-9.86 69.66 222.6-31.87 222.6z" fill="#7F6145" stroke="#333" stroke-width="5" stroke-miterlimit="10"/><path d="M2198.15 2638.53c50.56 0 74.12-60.12 77.35-116.77 7.5 64.24-18.64 143.86-77.35 143.86-137.99 0 24.63-143.86-198.15-143.86s-60.15 143.86-198.15 143.86c-58.71 0-86.35-72.62-77.85-141.26 3.24 56.65 27.29 114.17 77.85 114.17 139.65 0-27.85-143.86 198.15-143.86 222.78 0 60.15 143.86 198.15 143.86z" fill="#000" fill-opacity=".15"/><path d="M2136.85 2257.75c93.9 0 256.26-5.35 256.26 316.63-42.11-256.88-108.83-289.5-256.26-289.5-48.3 0-89.89 17.44-136.85 17.44-46.96 0-88.55-17.44-136.85-17.44-141.1 0-246.26 97.57-246.26 239.48 0 291.47 77.21 371.64 383.11 371.64 230.77 0 347.08-50.68 385.37-196.91C2358.3 2883.94 2255.33 2946 2000 2946c-321 0-393.11-97.47-393.11-371.62 0-229.38 66.61-316.7 225.12-316.7 96.99 0 117.51 17.51 167.99 17.51 46.96 0 88.55-17.44 136.85-17.44z" fill="#000" fill-opacity=".15"/><path d="M1708.92 1564.05c117.01 13.59 201.31 157.7 188.86 284.63-12.37 126.42-122.9 258.37-249.21 244.01-114.68-13.07-189.06-140.68-191.51-247.91-3.25-143.66 121.51-295.89 251.86-280.73z" fill="#fff"/><path d="M1850.99 1882.97c16.7-86.08-29.84-167.53-103.95-181.91-74.11-14.38-147.73 43.75-164.43 129.84-16.7 86.09 29.84 167.53 103.95 181.91 74.11 14.38 147.73-43.75 164.43-129.84z" fill="#566859" stroke="#333" stroke-width="5" stroke-miterlimit="10"/><path d="M1725.19 1970.86c44.2 0 80.03-40.07 80.03-89.49 0-49.43-35.83-89.49-80.03-89.49s-80.03 40.06-80.03 89.49c0 49.42 35.83 89.49 80.03 89.49z" fill="#000"/><path d="M1795.97 1818.82c5.63-15.9-3.33-33.58-20.02-39.48-16.68-5.91-34.77 2.19-40.4 18.1-5.63 15.9 3.34 33.58 20.02 39.48 16.69 5.91 34.77-2.2 40.4-18.1z" fill="#fff" stroke="#333" stroke-width="5" stroke-miterlimit="10"/><path d="M1766.51 1582.13c-154.41-42.22-282.91 140.71-279.76 278.02 1.87 81.02 44.85 173.59 115.36 220.33-87.93-36.85-142.93-143.79-145.05-235.71-3.27-143.62 121.5-295.83 251.84-280.69a164.5 164.5 0 0157.61 18.05z" fill="#000" fill-opacity=".05"/><path d="M1787.45 1717.01c-85.25-24.23-160.72 49.33-176.13 128.76-12.66 65.23 10.63 127.84 54.66 161.18-61.86-24.18-98.39-98.16-83.29-175.94 16.71-86.12 90.33-144.21 164.44-129.83a119.46 119.46 0 0140.32 15.83z" fill="#000" fill-opacity=".15"/><path d="M2291.08 1564.05c-117.01 13.59-201.31 157.7-188.86 284.63 12.37 126.42 122.9 258.37 249.21 244.01 114.68-13.07 189.06-140.68 191.51-247.91 3.25-143.66-121.51-295.89-251.86-280.73z" fill="#fff"/><path d="M2149.01 1882.97c-16.7-86.08 29.84-167.53 103.95-181.91 74.11-14.38 147.73 43.75 164.43 129.84 16.7 86.09-29.84 167.53-103.95 181.91-74.11 14.38-147.73-43.75-164.43-129.84z" fill="#566859" stroke="#333" stroke-width="5" stroke-miterlimit="10"/><path d="M2274.81 1970.86c-44.2 0-80.03-40.07-80.03-89.49 0-49.43 35.83-89.49 80.03-89.49s80.03 40.06 80.03 89.49c0 49.42-35.83 89.49-80.03 89.49z" fill="#000"/><path d="M2204.03 1818.82c-5.63-15.9 3.33-33.58 20.02-39.48 16.68-5.91 34.77 2.19 40.4 18.1 5.63 15.9-3.34 33.58-20.02 39.48-16.69 5.91-34.77-2.2-40.4-18.1z" fill="#fff" stroke="#333" stroke-width="5" stroke-miterlimit="10"/><path d="M2233.5 1582.13c154.4-42.22 282.9 140.71 279.75 278.02-1.87 81.02-44.84 173.59-115.36 220.33 87.94-36.85 142.93-143.79 145.05-235.71 3.27-143.62-121.49-295.83-251.84-280.69a164.39 164.39 0 00-57.6 18.05z" fill="#000" fill-opacity=".05"/><path d="M2212.55 1717.01c85.25-24.23 160.72 49.33 176.13 128.76 12.66 65.23-10.63 127.84-54.66 161.18 61.86-24.18 98.39-98.16 83.29-175.94-16.71-86.12-90.33-144.21-164.44-129.83a119.46 119.46 0 00-40.32 15.83z" fill="#000" fill-opacity=".15"/><path d="M1945 1665.55l9 28.37c25.28-8.69 61-14.52 92 1.47l9-26.66c-41.44-21.33-81.73-12.91-110-3.18z" fill="#CEC467"/><path d="M1949.02 1664.21l4.98 15.71c25.28-8.69 61-14.52 92 1.47l4.95-14.65c1.35.63 2.7 1.29 4.05 1.99l-9 26.66c-31-15.99-66.72-10.16-92-1.47l-9-28.37c1.32-.45 2.66-.9 4.02-1.34z" fill="#000" fill-opacity=".2"/><path d="M2966.08 1756.54c-74-46.61-158-90.63-270.38-97-19.29-1.1-21 28.9-1.71 30 105.59 6 185.49 48 256.1 92.48 16.16 9.9 32.42-15.12 15.99-25.48z" fill="#CEC467"/><path opacity=".2" d="M2972.24 1764.23c-3.15 8.92-14.25 12.66-22.14 7.69-70.61-44.46-150.51-86.44-256.1-92.48a15.14 15.14 0 01-13.03-9.32c-2.52 9.17 3.38 18.78 13.03 19.32 105.59 6 185.49 48 256.1 92.48 4.76 3 10.2 2.72 14.6.42 5.93-3.48 9.93-11.36 7.54-18.11z" fill="#000"/><path opacity=".5" d="M2045.94 1712.81c-.86 138.69 77.88 373.49 285.06 396.19 207.18 22.7 474.69-95.99 375.5-404-76.66-238.06-659.22-208-660.56 7.81z" fill="#8DF7FF"/><path fill-rule="evenodd" clip-rule="evenodd" d="M2716.93 1697.02c23.57 79.52 24.86 147.66 9.34 204.85-45.96 169.36-240.41 234.51-399.79 217.05-194.48-21.31-297.53-232.63-297.53-410.11-.01-144.01 213.74-175.82 319.38-178.33 123.82-2.94 326.42 24.24 368.6 166.54zm-659.98 11.79c0 162.95 92.69 362.56 272.58 382.27 145.37 15.93 327.43-40.74 369.72-196.54 13.89-51.2 13.24-113.96-9.17-189.56-38.01-128.24-231.52-149.11-341.09-146.51-87.67 2.08-292.05 25.78-292.04 150.34z" fill="#CEC467"/><path d="M2736.47 1815.2c-.5 26.32-4.01 50.87-10.2 73.67-45.96 169.35-240.41 234.51-399.79 217.05-191.45-20.98-294.29-226.08-297.46-401.77-.05 1.54-.07 3.09-.07 4.66 0 177.48 103.05 388.8 297.53 410.11 159.38 17.46 353.83-47.69 399.79-217.05 7.2-26.52 10.78-55.39 10.2-86.67z" fill="#000" fill-opacity=".2"/><path d="M2057.03 1704.42c-.06-2.88-.08-5.75-.08-8.61-.01-124.56 204.37-148.26 292.04-150.34 109.57-2.6 303.08 18.27 341.09 146.51 13.53 45.66 19.13 86.63 18.38 123.2-.66-33.21-6.43-69.88-18.38-110.2-38.01-128.24-231.52-149.11-341.09-146.51-86.63 2.06-287.21 25.22-291.96 145.95z" fill="#000" fill-opacity=".2"/><path d="M1033.92 1756.27c74-46.61 158-90.63 270.38-97 19.29-1.1 21 28.9 1.71 30-105.59 6-185.49 48-256.1 92.48-16.15 9.9-32.42-15.13-15.99-25.48z" fill="#CEC467"/><path opacity=".2" d="M1027.76 1763.96c3.16 8.92 14.25 12.66 22.14 7.69 70.61-44.46 150.51-86.44 256.1-92.48a15.13 15.13 0 0013.04-9.33c2.52 9.18-3.39 18.78-13.04 19.33-105.59 6-185.49 48-256.1 92.48-4.75 2.99-10.2 2.71-14.6.42-5.93-3.49-9.92-11.37-7.54-18.11z" fill="#000"/><path opacity=".5" d="M1954.06 1712.54c.86 138.69-77.88 373.49-285.06 396.19-207.18 22.7-474.69-95.99-375.5-404 76.66-238.06 659.23-208 660.56 7.81z" fill="#8DF7FF"/><path fill-rule="evenodd" clip-rule="evenodd" d="M1283.08 1696.75c-23.57 79.52-24.86 147.66-9.34 204.85 45.96 169.35 240.4 234.51 399.79 217.04 194.48-21.31 297.53-232.63 297.53-410.1 0-144.01-213.75-175.83-319.38-178.33-123.82-2.94-326.43 24.24-368.6 166.54zm659.98 11.79c0 162.95-92.69 362.56-272.58 382.27-145.37 15.93-327.44-40.74-369.72-196.55-13.9-51.19-13.24-113.95 9.16-189.56 38.01-128.24 231.53-149.1 341.09-146.5 87.68 2.08 292.05 25.78 292.05 150.34z" fill="#CEC467"/><path d="M1263.54 1814.93c.49 26.31 4.01 50.86 10.2 73.67 45.96 169.35 240.4 234.51 399.79 217.04 191.44-20.97 294.29-226.07 297.46-401.76.05 1.54.07 3.09.07 4.66 0 177.47-103.05 388.79-297.53 410.1-159.39 17.47-353.83-47.69-399.79-217.04-7.2-26.52-10.78-55.4-10.2-86.67z" fill="#000" fill-opacity=".2"/><path d="M1942.98 1704.15c.05-2.88.08-5.75.08-8.61 0-124.56-204.37-148.26-292.05-150.34-109.56-2.6-303.08 18.26-341.09 146.5-13.53 45.66-19.13 86.64-18.38 123.21.67-33.21 6.43-69.88 18.38-110.21 38.01-128.24 231.53-149.1 341.09-146.5 86.64 2.06 287.22 25.22 291.97 145.95z" fill="#000" fill-opacity=".2"/><path d="M1785 2079c0 76.35 98.85 169 216.26 168 108.22-.95 213.74-92.55 213.74-167.78 0-152.13-430-154.42-430-.22z" fill="#000" fill-opacity=".1"/><path d="M1782 2061c0 76.35 100.23 169 219.27 168 109.73-.95 216.73-92.55 216.73-167.78 0-60.53-126.24-113.77-216.73-113-84.02.78-219.27 41.16-219.27 112.78z" fill="#7F6145"/><path d="M1783.58 2047.77c41.76 54.75 124.68 100.94 217.85 100.22 86.21-.68 170.92-47.12 214.09-101.55a46.59 46.59 0 012.48 14.78c0 75.23-107 166.83-216.73 167.78-119.04 1-219.27-91.65-219.27-168 0-4.54.54-8.95 1.58-13.23z" fill="#000" fill-opacity=".2"/></svg>