<svg xmlns="http://www.w3.org/2000/svg" xmlns:xlink="http://www.w3.org/1999/xlink" width="4000" height="4000" fill="none" xmlns:v="https://vecta.io/nano"><style><![CDATA[.B{stroke-width:5}.C{fill:#000}.D{stroke:#333}.E{stroke-miterlimit:10}.F{fill-opacity:.1}.G{fill-opacity:.2}.H{fill:#cf1c2c}.I{fill-opacity:.15}.J{fill:#f7c394}.K{fill-opacity:.3}.L{fill-rule:evenodd}]]></style><path d="M2275.1 3290.64c-50.77-7.42-115.16-32.27-196.86-76-11.87-6.35-16.67-21.85-10.25-33.84 6.35-11.87 21.85-16.66 33.84-10.25 75.45 40.37 136.18 64.12 180.5 70.6 28.93 4.23 49.75 1 61.88-9.64 13.6-11.92 12.4-33 8.83-72.4-4.17-46.12-9.36-103.53 19.78-169.5 44-99.72 153.63-194.53 269.1-176.7 73.33 11.36 143.6 66.2 159.73 140.6 13.73 63.36-6.02 150.17-73.53 174.43-44.77 16-95.93-2.36-130.84-32.08-10.44-8.68-11.95-25-3.06-35.44 8.8-10.34 25.15-11.64 35.48-2.62.43.36 43.66 36.65 81.5 23.06 42.84-15.38 49.77-78.95 41.56-116.78-11.75-54.23-65.6-93.57-118.5-101.77-92.84-14.33-180.8 68.5-215.72 147.5-23.9 54.16-19.56 102.32-15.72 144.8 4 43.84 7.7 85.25-25.67 114.5-27.66 24.4-67.07 26.8-102.02 21.54z" class="B D E H"/><path d="M2786.65 2965.53c11.06 51.02 1.18 114.55-37.82 152.08 51.4-33.7 65.07-107.56 52.82-164.08-16.13-74.4-86.4-129.24-159.73-140.6-66.26-10.23-131.78 18.56-181.54 60.82 114.12-80.75 293.3-60.36 326.27 91.78zm-69.03 112.53c-27.03 31.45-75.6 15.26-102.9-8.23-3.14-2.68-6.9-4.54-10.94-5.4a25.037 25.037 0 0 0-12.19.41c3.97-7.3 11.63-12.23 19.93-12.9 6.6-.53 13.15 1.6 18.2 5.9 22.07 19.5 59.84 35.17 87.9 20.24zm-644.12 95.44c3.5-3 15.5-9 23-5.5 6.98 3.26 15.34 7.4 24.73 12.03 49.42 24.4 127.47 62.97 183.77 62.97 50 0 54.5-25 47.5-91 .85 3.82 1.92 8.03 3.06 12.5 9.62 37.75 24.1 94.5-50.56 94.5-81.5 0-208.8-70.57-231.5-85.5z" class="C G"/><path d="M1587 3147c36.5 0 65.66-32.58 62.04-68.42-5.42-63.52 18.62-132.2 65.95-198.4 43.05-60.25 89.2-93.25 53.7-132.2s-115.57 3.92-155.4 59.5c-65.7 91.92-97.2 189.1-88.63 283.68 3.2 31.47 25.83 55.82 62.33 55.82z" class="B D E H"/><path d="M1553.08 3059.16c-.4-112.27 89.62-277.66 195.12-324.16-130-21-245 233.5-222.72 351.77 7.22-11.77 19.72-23.27 27.6-27.6z" class="C I"/><path d="M1959.37 3446.5c5-87.08 27.4-154.43 47.17-206.8s42.42-144.7-42.56-166.02c-121.5-30.5-188.3 254.12-193.3 340.94-2.93 51.08 36.82 110.33 88.4 113.3 47.48 2.3 97.45-31.8 100.3-81.4z" class="B D E H"/><path d="M1769.48 3414.5c51.5-7 148-7 188.5 34l1.66-15.04c-42.16-36.96-138.16-39.46-188.02-32.46-.26 3.3-1.86 10.13-2.14 13.5zm16-89.5c47.76 44.3 108.88 69.13 178 78.5.58-5 1.8-12.18 2.5-17-68.6-8.88-128.2-37.6-176-81-2 6-3.62 15.27-4.5 19.5z" class="C I"/><path d="M2040.63 3446.5c-5-87.08-27.4-154.43-47.17-206.8s-42.42-144.7 42.56-166.02c121.5-30.5 188.3 254.12 193.3 340.94 2.93 51.08-36.82 110.33-88.4 113.3-47.48 2.3-97.45-31.8-100.3-81.4z" class="B D E H"/><path d="M2230.52 3414.5c-51.5-7-148-7-188.5 34l-1.66-15.04c42.16-36.96 138.16-39.46 188.02-32.46.26 3.3 1.86 10.13 2.14 13.5zm-16-89.5c-47.76 44.3-108.88 69.13-178 78.5-.58-5-1.8-12.18-2.5-17 68.6-8.88 128.2-37.6 176-81 2 6 3.62 15.27 4.5 19.5z" class="C I"/><path d="M2413 3147c-36.5 0-65.66-32.58-62.04-68.42 5.42-63.52-18.62-132.2-65.95-198.4-43.06-60.25-89.2-93.25-53.7-132.2s115.56 3.92 155.4 59.5c65.7 91.92 97.2 189.1 88.63 283.68-3.2 31.47-25.83 55.82-62.33 55.82z" class="B D E H"/><path d="M2446.9 3059.16c.42-112.27-89.6-277.66-195.1-324.16 130-21 245 233.5 222.7 351.77-7.2-11.77-19.7-23.27-27.6-27.6z" class="C I"/><path d="M2000 2548c154 0 220 135 260 246s58 220 58 292c0 152-138.68 305.46-318 307-175.53 1.5-318-155-318-307 0-72 17.7-181.5 58-292 40-111 106-246 260-246z" class="B D E H"/><path d="M2000 3393c-175.67 1.6-330-157-318-337 10 148 145.15 288.48 318 287s308-139 318-287c12 180-142.33 335.4-318 337z" class="C I"/><path d="M2000 2672c104 0 160 68 174 128 34.5 147.82 64 274 4 350s-134.95 82-178 82c-47.55 0-118-6-178-82s-32.44-193.83 4-350c14-60 70-128 174-128z" class="B D E J"/><path d="M2000 3232c-136 0-224-94-213-216 4 115 96 190 213 190s209-75 213-190c11 122-77 216-213 216z" class="C F"/><g fill="#fff"><circle cx="2000" cy="2971" r="158" class="F"/><circle cx="2000" cy="2971" r="148" class="F"/><circle cx="2000" cy="2971" r="138" class="G"/><circle cx="2000" cy="2971" r="128" class="K"/><circle cx="2000" cy="2971" r="118" fill-opacity=".4"/><circle cx="2000" cy="2971" r="100" stroke="#e7e7e7" stroke-width="16"/></g><circle cx="2000" cy="2971" r="47" stroke="#e7e7e7" stroke-width="16"/><path d="M2006 2865h-12v60h12v-60zm0 152h-12v60h12v-60zm-71.72-129.4l9.83-6.88 34.4 49.15-9.83 6.88-34.4-49.15zm97.02 117.64l-9.83 6.88 34.42 49.15 9.83-6.88-34.42-49.15zm-132.96-64.84l4.1-11.28 56.38 20.52-4.1 11.28-56.38-20.52zm146.93 40.7l-4.1 11.27 56.38 20.52 4.1-11.27-56.4-20.52zm10.6-100.37l9.83 6.88-34.4 49.15-9.83-6.88 34.4-49.15zm-77.35 131.4l-9.83-6.9-34.42 49.15 9.83 6.88 34.42-49.14zm119.02-83.03l4.1 11.28-56.4 20.52-4.1-11.28 56.38-20.52zm-138.73 63.27l-4.1-11.27-56.38 20.52 4.1 11.27 56.38-20.52z" fill="#e7e7e7"/><circle cx="2000" cy="2971" r="105.5" stroke="#8c8c8c" class="B"/><path d="M2429 2876.38c-11.96-23.2-26.1-46.2-42.3-68.88-182.47-254.57-562.95-293.6-773.4 0-16.2 22.68-30.34 45.68-42.3 68.88 40.94 28.5 71.75 48.8 75.5 49.12 3.13.27 16.8 1.06 38.85 2.06 7.63-14.2 16.4-28.4 26.2-42.5-3.84 14.64-7.28 29.06-10.34 43.2 199 8.43 398.44 8.43 597.44.01-3.1-14.26-6.6-28.83-10.48-43.62 9.93 14.22 18.78 28.55 26.5 42.9l38.85-2.06c3.76-.33 34.57-20.6 75.5-49.12z" class="C K"/><path d="M2090 3556c-32 0-63.1-23.6-66.7-56.14-9.12-82.2 94.34-89.68 150.66-90.92 57.1-1.25 154.03 9.56 171.02 72.27 14.85 54.8-36.5 74.8-73 74.8s-49-12.15-92.98-12.15c-38.4 0-57.02 12.15-89.02 12.15z" class="B D E J"/><path d="M2091 3534c32 0 50.6-12.15 89.02-12.15 43.98 0 56.48 12.15 92.98 12.15 28.4 0 65.75-12.1 73.97-43.26 6.73 47.6-40.67 65.26-74.97 65.26-36.5 0-49-12.15-92.98-12.15-38.4 0-57.02 12.15-89.02 12.15-42.86 0-73-34.15-65.9-80.26 2.97 33.46 34.04 58.26 66.9 58.26z" class="C F"/><path d="M1910 3556c32 0 63.1-23.6 66.7-56.14 9.12-82.2-94.34-89.68-150.66-90.92-57.1-1.25-154.03 9.56-171.02 72.27-14.85 54.8 36.5 74.8 73 74.8s49-12.15 92.98-12.15c38.4 0 57.02 12.15 89.02 12.15z" class="B D E J"/><path d="M1909 3534c-32 0-50.6-12.15-89.02-12.15-43.98 0-56.48 12.15-92.98 12.15-28.4 0-65.75-12.1-73.97-43.26-6.73 47.6 40.67 65.26 74.97 65.26 36.5 0 49-12.15 92.98-12.15 38.4 0 57.02 12.15 89.02 12.15 42.86 0 73-34.15 65.9-80.26-2.97 33.46-34.04 58.26-66.9 58.26z" class="C F"/><path d="M1601.4 3259.9c56.8.05 92.98-68.1 58.6-115.27 15.9-45.2-18.1-95.4-66.66-96.55-56-1.34-88.37 58.5-82.5 109.13 5.48 47.3 37.52 102.65 90.57 102.7z" class="B D E J"/><path d="M1510.83 3157.2c6.78 58.57 54.37 126.8 125.37 93.8-68.83-8.8-117-125.5-83.1-191.84-5.4 3.84-13.9 8.34-27.6 27.6-12.3 21.73-17.7 46.2-14.66 70.43z" class="C F"/><path d="M2398.6 3259.9c-56.82.05-93-68.1-58.6-115.27-15.92-45.2 18.08-95.4 66.66-96.55 56-1.34 88.36 58.5 82.5 109.13-5.48 47.3-37.53 102.65-90.57 102.7z" class="B D E J"/><path d="M2489.17 3157.2c-6.78 58.57-54.37 126.8-125.37 93.8 68.82-8.8 117-125.5 83.1-191.84 5.4 3.84 13.9 8.34 27.6 27.6 12.3 21.73 17.7 46.2 14.66 70.43z" class="C F"/><path d="M1669.23 2705.3c-88.43 22.16-263.98-123.7-364.7-329.17-100.7-205.47-88.43-392.76 0-414.92 88.43-22.17 241.75 126.44 342.46 331.9 100.7 205.48 110.66 390 22.23 412.18zm661.54 0c88.43 22.16 264-123.7 364.7-329.17s88.43-392.76 0-414.92c-88.43-22.17-241.75 126.44-342.46 331.9-100.7 205.48-110.65 390-22.23 412.18z" fill="#46413d"/><use xlink:href="#B" fill="#bf1323" class="L"/><g class="B D"><g stroke-linejoin="round"><path d="M1711.16 2595.4c24.62 57.1 24.62 93.6 24.62 125.04 58.62 4.1 213.72 8.38 264.22 8.38s236.26-6.5 263.2-8.38c0-41.93 6.8-73.43 25.62-125.04-64.95-21.4-188.4-27.02-288.83-27.02s-213.22 5.05-288.84 27.02z" fill="#ed3344"/><path d="M1736.02 2691.25c-9 5.15-53 126.86-76 180.73 116.08 9.8 272.64 10.04 339.97 10.04s216.02 0 339.96-10.04c-23-53.87-67.64-174.56-76-180.73-6.73-4.97-205.62-9.54-263.98-9.54s-253.87 3.77-263.97 9.54z" fill="#a60614"/></g><use xlink:href="#B"/></g><path d="M1261.6 980.464c-32.23 176.696-95.4 796.196-95.4 905.046 0 66.77 37.65 157.93 103.24 228.37 19.64 11.22 32.55 17.95 51.62 28.06 103.34 54.7 231.74 279.42 272.7 421.38h812.47c40.96-141.96 169.35-366.68 272.7-421.38l51.62-28.06c65.6-70.44 103.24-161.6 103.24-228.37 0-108.85-63.16-728.35-95.38-905.046 0 958.926-1476.8 958.926-1476.8 0z" fill="#ebc75e"/><g fill="#fff"><g class="L"><path d="M2712.67 1641.5l42.15 144.42c6.8 23.28-.94 48.37-19.67 63.77l-101.37 83.4c-11.26 9.26-25.48 14.15-40.06 13.78l-378.9-9.72c-21.75-.55-41.53-12.73-51.82-31.9l-94.8-176.36 644.47-87.4z" fill-opacity=".08"/><path d="M2704.6 1653.92l38.6 132.3c6.04 20.7-.84 43-17.5 56.7l-97.8 80.45c-10 8.23-22.65 12.58-35.6 12.25l-374.64-9.6c-19.33-.5-36.9-11.3-46.06-28.35l-85.9-159.8 618.86-83.92z" class="F"/><path d="M2696.54 1666.34l35.08 120.18c5.28 18.1-.74 37.62-15.3 49.6l-94.22 77.5c-8.75 7.2-19.8 11-31.15 10.72l-370.36-9.5c-16.9-.43-32.3-9.9-40.3-24.8l-77-143.26 593.25-80.45z" class="G"/><path d="M2688.47 1678.76l-567.63 76.97 68.1 126.7c6.86 12.77 20.05 20.9 34.55 21.26l366.07 9.4c9.72.24 19.2-3.02 26.7-9.2l90.63-74.56c12.48-10.27 17.64-27 13.1-42.52l-31.54-108.06z" class="K"/></g><path d="M2226.38 1892.55c-12.08-.3-23.07-7.07-28.8-17.72l-59.2-110.15 542.02-73.5 28 95.95c3.78 12.94-.52 26.87-10.92 35.43l-87.06 71.62a33.659 33.659 0 0 1-22.25 7.65l-361.8-9.27z"/><g class="L"><path d="M1287.33 1641.5l-42.15 144.42c-6.8 23.28.94 48.37 19.67 63.77l101.38 83.4c11.25 9.26 25.47 14.15 40.05 13.78l378.9-9.72c21.75-.55 41.53-12.73 51.83-31.9l94.78-176.36-644.47-87.4z" fill-opacity=".08"/><path d="M1295.4 1653.92l-38.62 132.3c-6.03 20.7.84 43 17.5 56.7l97.8 80.45c10 8.23 22.65 12.58 35.6 12.25l374.63-9.6c19.33-.5 36.9-11.3 46.07-28.35l85.9-159.8-618.86-83.92z" class="F"/><path d="M1303.46 1666.34l-35.07 120.18c-5.3 18.1.73 37.62 15.3 49.6l94.2 77.5c8.76 7.2 19.82 11 31.15 10.72l370.36-9.5c16.9-.43 32.3-9.9 40.3-24.8l77-143.26-593.25-80.45z" class="G"/><path d="M1311.53 1678.76l567.63 76.97-68.1 126.7c-6.86 12.77-20.05 20.9-34.55 21.26l-366.07 9.4c-9.72.24-19.2-3.02-26.7-9.2l-90.64-74.56c-12.48-10.27-17.64-27-13.1-42.52l31.54-108.06z" class="K"/></g><path d="M1773.62 1892.55c12.1-.3 23.07-7.07 28.8-17.72l59.2-110.15-542.02-73.5-28 95.95c-3.77 12.94.53 26.87 10.93 35.43l87.05 71.62c6.26 5.14 14.16 7.86 22.26 7.65l361.8-9.27z"/></g><g class="B D"><path d="M2833.58 1894.27c-340.94 247.67-396.06 337.55-517.12 639.87 31.6 7.17 61.6 16.9 89.77 29.18 37.6-127.37 159.92-358.54 272.7-421.38l51.62-28.06c62.76-67.4 99.94-153.78 103.03-219.6z" class="C G"/><path d="M2000 1130.8c187.38-2.7 332.03-140.274 430.36-313.054 145.33 0 285.76 110.504 304.68 149.25 18.92 38.753 24.12 594.763 24.12 622.823 0 28.05-51.05 80.23-78.55 103.8-104.36 22.44-400.62 80.8-680.6 80.8s-576.25-58.36-680.6-80.8c-27.5-23.57-78.55-75.75-78.55-103.8 0-28.06 5.2-584.07 24.12-622.823 18.92-38.747 159.35-149.25 304.68-149.25C1667.97 990.526 1812.4 1128.1 2000 1130.8z" fill="#f5d062"/></g><g class="C"><path d="M1352.5 1596.55c25.23 24.1 228.74 126.2 648.06 126.3 419.32-.1 621.7-102.2 646.95-126.3 34.72-33.2 87.53-361.9 87.53-629.553 18.92 38.743 24.12 594.763 24.12 622.823 0 28.05-51.06 80.23-78.55 103.8-104.22 22.4-422.27 80.64-679.48 80.8-257.2.15-464.04-38.16-681.74-80.8-27.5-23.57-78.55-75.75-78.55-103.8 0-28.06 5.2-584.08 24.13-622.823 0 267.643 52.8 596.363 87.53 629.553z" class="F"/><path d="M1166.42 1894.27c340.94 247.67 396.06 337.55 517.12 639.87-31.6 7.17-61.6 16.9-89.77 29.18-37.6-127.37-159.92-358.54-272.7-421.38l-51.62-28.06c-62.76-67.4-99.94-153.78-103.03-219.6z" class="B D G"/><path d="M2000 2461.76c164.96 0 319.04 25.8 331.6 33.67 12.57 7.85 54.42 41.52 70.14 48.8-9.92-12.53-54.2-55.06-65.65-62.84-15.7-10.66-149.82-38.16-336.1-38.16s-320.4 27.5-336.1 38.16c-11.46 7.78-55.73 50.3-65.65 62.84 15.7-7.3 57.57-40.96 70.14-48.8 12.57-7.86 166.65-33.67 331.6-33.67z"/></g><g class="B D"><path d="M2000 2461.76c-208.73 0-312.48 26.35-330.5 32.54-17.95 6.18-54.98 44.33-71.25 49.94h-37.04l-28.05 76.87 28.05 65.1 74.63 16.27c13.47-27.87 53.3-89.18 72.94-102.68s145.9-30.86 291.2-30.86 271.57 17.36 291.2 30.86 59.48 74.8 72.94 102.68l74.63-16.27 28.05-65.1-28.05-76.87h-37.03c-16.28-5.6-53.3-43.76-71.26-49.94-18-6.2-121.76-32.54-330.5-32.54z" fill="#fad464"/><path d="M2000 1130.8c187.38-2.7 332.03-140.274 430.36-313.054 145.33 0 285.76 110.504 304.68 149.25 1.47 3.007 2.85 9.13 4.16 17.876 32.46 182.357 94.6 792.677 94.6 900.637 0 66.77-37.65 157.93-103.24 228.37-19.64 11.22-32.54 17.96-51.62 28.06-98.82 52.3-220.55 260.1-266.83 402.3h26.68l28.05 76.87-28.05 65.1-74.63 16.27c-13.46-27.87-53.3-89.18-72.94-102.68s-145.88-30.86-291.2-30.86c-145.32 0-271.57 17.36-291.2 30.86s-59.47 74.8-72.94 102.68l-74.63-16.27-28.05-65.1 28.05-76.87h26.68c-46.27-142.2-168-350-266.83-402.3l-51.62-28.06c-65.6-70.44-103.24-161.6-103.24-228.37 0-107.95 62.12-718.18 94.6-900.594 1.3-8.77 2.7-14.907 4.16-17.92 18.92-38.747 159.35-149.25 304.68-149.25C1667.97 990.526 1812.4 1128.1 2000 1130.8z"/><path d="M2331.78 2494.8c-17.78 36.7-30.28 68.7-44.14 103.03 1.43.66 2.62 1.32 3.57 1.97 19.64 13.5 59.47 74.8 72.94 102.68l74.63-16.27 28.05-65.1-28.05-76.87h-37.04c-15.9-5.48-51.57-42-69.96-49.45zm-663.56 0c13.28 27.7 27.78 64.2 44.13 103.03-1.42.66-2.6 1.32-3.56 1.97-19.64 13.5-59.47 74.8-72.94 102.68l-74.63-16.27-28.05-65.1 28.05-76.87h37.04c15.9-5.48 51.57-42 69.96-49.45z" class="C G"/></g><path d="M1216.15 923.232C1230.12 887.517 1514.65 641 2000 641s769.88 246.517 783.85 282.232C2829.3 1039.38 2900 1559.52 2900 1904.6c0 159.9-196.25 667.36-234.54 712.03-7.18 8.38-23.3 23.07-44.74 41.32 55.26-174 107.28-542.7 107.28-542.7l49.5-179.75-26-747c-7.24-36.8-248-307.5-751.5-307.5s-744.26 270.7-751.5 307.5c-11.2 57-31 743.25-31 743.25l54.5 183.5s52.02 368.7 107.28 542.7c-21.43-18.25-37.56-32.94-44.74-41.32-38.3-44.67-234.54-552.12-234.54-712.03 0-345.07 70.7-865.2 116.15-981.358z" class="C G"/><defs ><path id="B" d="M2000 641c-485.35 0-769.88 246.517-783.85 282.232C1170.7 1039.38 1100 1559.52 1100 1904.6c0 159.9 196.25 667.36 234.54 712.03 37.03 43.2 311.97 254.18 324.88 255.3 12.9 1.12 130.17 10.1 340.58 10.1s327.68-8.98 340.58-10.1c12.9-1.12 287.85-212.1 324.88-255.3 38.3-44.67 234.54-552.12 234.54-712.03 0-345.07-70.7-865.2-116.15-981.358C2769.88 887.517 2485.35 641 2000 641zm-290.65 1955.42c19.08-13.46 228.35-30.3 290.65-30.3h0c62.3.01 271.57 16.84 290.65 30.3 19.08 13.47 58.35 72.4 75.18 104.37l67.9-18.95 33.1-60.73s7.86-44.78 7.86-72.94h48.8l132.98-267.08-14.6-64.53 37.04-74.62 51.62-28.06c200.27-446.93-312.9-914.6-730.55-914.6s-977.9 362.6-730.55 914.6l51.62 28.06 37.04 74.62-14.6 64.53 132.98 267.08h48.8c0 28.16 7.86 72.94 7.86 72.94l33.1 60.73 67.9 18.95c16.83-31.98 56.1-90.9 75.18-104.37z"/></defs></svg>