<svg width="4000" height="4000" viewBox="0 0 4000 4000" fill="none" xmlns="http://www.w3.org/2000/svg">
<path d="M0 0H4000V4000H0V0Z" fill="#CCDCFF"/>
<path d="M2275.11 3290.64C2224.34 3283.22 2159.95 3258.37 2078.25 3214.64C2066.38 3208.29 2061.58 3192.79 2068 3180.8C2074.35 3168.93 2089.85 3164.14 2101.84 3170.55C2177.29 3210.92 2238.02 3234.67 2282.34 3241.15C2311.27 3245.38 2332.09 3242.15 2344.22 3231.51C2357.83 3219.59 2356.61 3198.51 2353.05 3159.12C2348.88 3113 2343.69 3055.59 2372.83 2989.61C2416.83 2889.89 2526.46 2795.08 2641.92 2812.91C2715.25 2824.27 2785.52 2879.1 2801.65 2953.5C2815.38 3016.86 2795.63 3103.68 2728.12 3127.93C2683.35 3143.93 2632.19 3125.57 2597.28 3095.85C2586.84 3087.17 2585.33 3070.85 2594.22 3060.41C2603.03 3050.07 2619.37 3048.77 2629.7 3057.79C2630.13 3058.15 2673.36 3094.44 2711.19 3080.85C2754.03 3065.47 2760.96 3001.9 2752.75 2964.07C2741 2909.84 2687.15 2870.5 2634.24 2862.3C2541.4 2847.97 2453.44 2930.79 2418.52 3009.79C2394.61 3063.95 2398.96 3112.11 2402.8 3154.6C2406.8 3198.44 2410.51 3239.85 2377.13 3269.1C2349.47 3293.5 2310.06 3295.9 2275.11 3290.64Z" fill="#3167E1" stroke="#333333" stroke-width="5" stroke-miterlimit="10"/>
<path d="M2787.15 2965.67C2798.21 3016.7 2788.33 3080.22 2749.33 3117.75C2800.73 3084.06 2814.4 3010.2 2802.15 2953.67C2786.02 2879.27 2715.76 2824.43 2642.42 2813.07C2576.16 2802.84 2510.64 2831.63 2460.88 2873.89C2575 2793.14 2754.16 2813.54 2787.15 2965.67Z" fill="black" fill-opacity="0.24"/>
<path d="M2718.12 3078.2C2691.09 3109.65 2642.53 3093.47 2615.23 3069.97C2612.09 3067.3 2608.33 3065.44 2604.29 3064.56C2600.26 3063.69 2596.07 3063.83 2592.1 3064.97C2596.07 3057.68 2603.73 3052.74 2612.02 3052.08C2618.63 3051.55 2625.18 3053.67 2630.23 3057.96C2652.3 3077.47 2690.07 3093.14 2718.12 3078.2Z" fill="black" fill-opacity="0.24"/>
<path d="M2074 3173.64C2077.5 3170.64 2089.5 3164.64 2097 3168.14C2103.98 3171.4 2112.34 3175.53 2121.73 3180.17C2171.15 3204.59 2249.2 3243.14 2305.5 3243.14C2355.5 3243.14 2360 3218.14 2353 3152.14C2353.85 3155.96 2354.92 3160.17 2356.06 3164.65C2365.68 3202.4 2380.15 3259.14 2305.5 3259.14C2224 3259.14 2096.71 3188.57 2074 3173.64Z" fill="black" fill-opacity="0.24"/>
<path d="M1587 3147C1623.5 3147 1652.66 3114.42 1649.04 3078.58C1643.62 3015.06 1667.66 2946.39 1714.99 2880.19C1758.05 2819.95 1804.2 2786.94 1768.7 2748C1733.2 2709.06 1653.14 2751.92 1613.3 2807.5C1547.59 2899.42 1516.11 2996.61 1524.67 3091.18C1527.86 3122.65 1550.5 3147 1587 3147Z" fill="#3167E1" stroke="#333333" stroke-width="5" stroke-miterlimit="10"/>
<path d="M1553.09 3059.17C1552.67 2946.89 1642.7 2781.5 1748.2 2735C1618.2 2714 1503.2 2968.5 1525.49 3086.78C1532.7 3075 1545.2 3063.5 1553.09 3059.17Z" fill="black" fill-opacity="0.15"/>
<path d="M1959.37 3446.51C1964.37 3359.43 1986.77 3292.08 2006.54 3239.7C2026.31 3187.32 2048.96 3095 1963.98 3073.68C1842.48 3043.19 1775.67 3327.8 1770.68 3414.62C1767.75 3465.7 1807.5 3524.95 1859.08 3527.91C1906.56 3530.22 1956.53 3496.12 1959.37 3446.51Z" fill="#3167E1" stroke="#333333" stroke-width="5" stroke-miterlimit="10"/>
<path d="M1769.48 3414.5C1820.98 3407.5 1917.48 3407.5 1957.98 3448.5C1958.32 3445.41 1959.42 3436.56 1959.64 3433.46C1917.48 3396.5 1821.48 3394 1771.62 3401C1771.36 3404.3 1769.76 3411.13 1769.48 3414.5Z" fill="black" fill-opacity="0.14"/>
<path d="M1785.48 3325C1833.24 3369.29 1894.36 3394.13 1963.48 3403.5C1964.06 3398.49 1965.29 3391.32 1965.98 3386.5C1897.38 3377.62 1837.78 3348.9 1789.98 3305.5C1787.98 3311.5 1786.36 3320.77 1785.48 3325Z" fill="black" fill-opacity="0.14"/>
<path d="M2040.63 3446.51C2035.63 3359.43 2013.23 3292.08 1993.46 3239.7C1973.69 3187.32 1951.04 3095 2036.02 3073.68C2157.52 3043.19 2224.33 3327.8 2229.32 3414.62C2232.25 3465.7 2192.5 3524.95 2140.92 3527.91C2093.44 3530.22 2043.47 3496.12 2040.63 3446.51Z" fill="#3167E1" stroke="#333333" stroke-width="5" stroke-miterlimit="10"/>
<path d="M2230.52 3414.5C2179.02 3407.5 2082.52 3407.5 2042.02 3448.5C2041.68 3445.41 2040.58 3436.56 2040.36 3433.46C2082.52 3396.5 2178.52 3394 2228.38 3401C2228.64 3404.3 2230.24 3411.13 2230.52 3414.5Z" fill="black" fill-opacity="0.14"/>
<path d="M2214.52 3325C2166.76 3369.29 2105.64 3394.13 2036.52 3403.5C2035.94 3398.49 2034.71 3391.32 2034.02 3386.5C2102.62 3377.62 2162.22 3348.9 2210.02 3305.5C2212.02 3311.5 2213.64 3320.77 2214.52 3325Z" fill="black" fill-opacity="0.14"/>
<path d="M2413 3147C2376.5 3147 2347.34 3114.42 2350.96 3078.58C2356.38 3015.06 2332.34 2946.39 2285.01 2880.19C2241.95 2819.95 2195.8 2786.94 2231.3 2748C2266.8 2709.06 2346.86 2751.92 2386.7 2807.5C2452.41 2899.42 2483.89 2996.61 2475.33 3091.18C2472.14 3122.65 2449.5 3147 2413 3147Z" fill="#3167E1" stroke="#333333" stroke-width="5" stroke-miterlimit="10"/>
<path d="M2446.91 3059.17C2447.33 2946.89 2357.3 2781.5 2251.8 2735C2381.8 2714 2496.8 2968.5 2474.51 3086.78C2467.3 3075 2454.8 3063.5 2446.91 3059.17Z" fill="black" fill-opacity="0.15"/>
<path d="M2000 2548C2154 2548 2220 2683 2260 2794C2300 2905 2318 3014 2318 3086C2318 3238 2179.32 3391.46 2000 3393C1824.47 3394.51 1682 3238 1682 3086C1682 3014 1699.7 2904.5 1740 2794C1780 2683 1846 2548 2000 2548Z" fill="#3167E1" stroke="#333333" stroke-width="5" stroke-miterlimit="10"/>
<path d="M2000 3393C1824.33 3394.59 1670 3236 1682 3056C1692 3204 1827.15 3344.48 2000 3343C2172.85 3341.52 2308 3204 2318 3056C2330 3236 2175.67 3391.41 2000 3393Z" fill="black" fill-opacity="0.15"/>
<path d="M2000 2672C2104 2672 2160 2740 2174 2800C2208.49 2947.82 2238 3074 2178 3150C2118 3226 2043.05 3232 2000 3232C1952.45 3232 1882 3226 1822 3150C1762 3074 1789.56 2956.17 1826 2800C1840 2740 1896 2672 2000 2672Z" fill="#F7C394" stroke="#333333" stroke-width="5" stroke-miterlimit="10"/>
<path d="M2000 3232C1864 3232 1776 3138 1787 3016C1791 3131 1883 3206 2000 3206C2117 3206 2209 3131 2213 3016C2224 3138 2136 3232 2000 3232Z" fill="black" fill-opacity="0.1"/>
<path d="M1601.4 3259.89C1658.21 3259.94 1694.38 3191.78 1659.99 3144.62C1675.9 3099.41 1641.9 3049.23 1593.33 3048.07C1537.33 3046.73 1504.96 3106.57 1510.83 3157.2C1516.31 3204.51 1548.35 3259.85 1601.4 3259.89Z" fill="#F7C394" stroke="#333333" stroke-width="5" stroke-miterlimit="10"/>
<path d="M1510.83 3157.2C1517.61 3215.77 1565.2 3284 1636.2 3251C1567.37 3242.2 1519.2 3125.5 1553.09 3059.16C1547.7 3063 1539.2 3067.5 1525.49 3086.77C1513.2 3108.5 1507.79 3132.97 1510.83 3157.2Z" fill="black" fill-opacity="0.1"/>
<path d="M2398.6 3259.89C2341.78 3259.94 2305.61 3191.78 2340.01 3144.62C2324.09 3099.41 2358.09 3049.23 2406.67 3048.07C2462.67 3046.73 2495.03 3106.57 2489.17 3157.2C2483.69 3204.51 2451.64 3259.85 2398.6 3259.89Z" fill="#F7C394" stroke="#333333" stroke-width="5" stroke-miterlimit="10"/>
<path d="M2489.17 3157.2C2482.39 3215.77 2434.8 3284 2363.8 3251C2432.62 3242.2 2480.8 3125.5 2446.91 3059.16C2452.3 3063 2460.8 3067.5 2474.51 3086.77C2486.8 3108.5 2492.21 3132.97 2489.17 3157.2Z" fill="black" fill-opacity="0.1"/>
<path d="M1802 2971C1797 3008.5 1744.5 3106.5 1682 3099C1690.5 3270.5 1841.5 3395 2000 3395C2158.5 3395 2310.08 3258.88 2318 3099C2255.5 3106.5 2203 3008.5 2198 2971C2128.21 3052.42 1871.56 3052.15 1802 2971Z" fill="#E24040" stroke="#333333" stroke-width="5"/>
<path d="M1686.63 3138.81C1750.78 3256.72 1874.32 3325 2000 3325C2126.07 3325 2250.4 3248.89 2314.09 3133.2C2288.16 3277.82 2147.06 3395 2000 3395C1854.04 3395 1714.45 3289.43 1686.63 3138.81Z" fill="black" fill-opacity="0.2"/>
<path d="M2127 3012.74C2127 3012.74 2171.5 3001 2198 2971C2200.11 2985.5 2206 2994 2206 2994V3049.85C2206 3054.74 2203.86 3059.39 2200.11 3062.65L2178.3 3081.62C2171.58 3087.46 2161.42 3087.46 2154.7 3081.62L2132.89 3062.65C2129.14 3059.39 2127 3054.74 2127 3049.85V3012.74Z" fill="black" fill-opacity="0.2"/>
<path d="M2133 2889L2200 2877V3043.3C2200 3047.56 2198.18 3051.63 2195.01 3054.47L2176.51 3071.04C2170.81 3076.14 2162.19 3076.14 2156.49 3071.04L2137.99 3054.47C2134.82 3051.63 2133 3047.56 2133 3043.3V2889Z" fill="#E24040" stroke="#333333" stroke-width="5"/>
<circle cx="2166.5" cy="3032.5" r="19.5" fill="#EDE72F" stroke="#333333" stroke-width="5"/>
<path d="M1873 3012.74C1873 3012.74 1828.5 3001 1802 2971C1799.89 2985.5 1794 2994 1794 2994V3049.85C1794 3054.74 1796.14 3059.39 1799.89 3062.65L1821.7 3081.62C1828.42 3087.46 1838.58 3087.46 1845.3 3081.62L1867.11 3062.65C1870.86 3059.39 1873 3054.74 1873 3049.85V3012.74Z" fill="black" fill-opacity="0.2"/>
<path d="M1867 2889L1800 2877V3043.3C1800 3047.56 1801.82 3051.63 1804.99 3054.47L1823.49 3071.04C1829.19 3076.14 1837.81 3076.14 1843.51 3071.04L1862.01 3054.47C1865.18 3051.63 1867 3047.56 1867 3043.3V2889Z" fill="#E24040" stroke="#333333" stroke-width="5"/>
<path d="M1814 3032.5C1814 3043.27 1822.73 3052 1833.5 3052C1844.27 3052 1853 3043.27 1853 3032.5C1853 3021.73 1844.27 3013 1833.5 3013C1822.73 3013 1814 3021.73 1814 3032.5Z" fill="#EDE72F" stroke="#333333" stroke-width="5"/>
<path d="M3133.19 1832.12C3244.29 1934.12 3199.51 2141.41 3124.1 2259.28C3016.64 2427.28 2770.63 2533.03 2644.64 2443.65C2513.06 2350.3 2530.24 2056.73 2683.84 1904.33C2798.52 1790.55 3018.29 1726.64 3133.19 1832.12Z" fill="#F7C394" stroke="#333333" stroke-width="5" stroke-miterlimit="10"/>
<path d="M3003.49 1952.22C3069.49 2020.41 3033.59 2148.9 2981.84 2220.1C2908.09 2321.55 2749.67 2378.79 2673.9 2317.96C2594.76 2254.43 2616.51 2070.74 2718.65 1980.78C2794.91 1913.62 2935.29 1881.7 3003.49 1952.22Z" fill="#FFC9A1"/>
<path d="M3124.1 2259.28C3063.41 2354.13 2929 2462.5 2777.5 2476C2883.86 2451 3037.51 2342.15 3084.14 2269.28C3159.55 2151.41 3199.5 1930.31 3093.23 1842.12C3060.82 1815.23 2978.5 1777 2865.5 1797C3003.5 1754.5 3088.29 1790.87 3133.23 1832.12C3244.29 1934.11 3199.51 2141.41 3124.1 2259.28Z" fill="black" fill-opacity="0.1"/>
<path d="M866.818 1832.12C755.718 1934.12 800.498 2141.41 875.908 2259.28C983.368 2427.28 1229.38 2533.03 1355.37 2443.65C1486.95 2350.3 1469.77 2056.73 1316.17 1904.33C1201.49 1790.55 981.718 1726.64 866.818 1832.12Z" fill="#F7C394" stroke="#333333" stroke-width="5" stroke-miterlimit="10"/>
<path d="M996.518 1952.22C930.518 2020.41 966.418 2148.9 1018.17 2220.1C1091.92 2321.55 1250.34 2378.79 1326.11 2317.96C1405.25 2254.43 1383.5 2070.74 1281.36 1980.78C1205.1 1913.62 1064.72 1881.7 996.518 1952.22Z" fill="#FFC9A1"/>
<path d="M875.908 2259.28C936.598 2354.13 1071.01 2462.5 1222.51 2476C1116.15 2451 962.491 2342.15 915.868 2269.28C840.458 2151.41 800.508 1930.31 906.778 1842.12C939.187 1815.23 1021.51 1777 1134.51 1797C996.508 1754.5 911.718 1790.87 866.778 1832.12C755.718 1934.11 800.498 2141.41 875.908 2259.28Z" fill="black" fill-opacity="0.1"/>
<path d="M2395 2818C2279.65 2863.22 2124 2897 2000 2897C1876 2897 1740.66 2870.57 1605 2818C1597.76 2828.54 1588.39 2844.27 1582 2855C1724 2912 1857 2941 2000 2941C2143 2941 2276 2912 2418 2855C2411.85 2844.3 2402.07 2828.64 2395 2818Z" fill="black" fill-opacity="0.15"/>
<path d="M2500.32 839.001C2542.64 803.151 2376 763.001 2353.8 699.511C2327 623.001 2749.39 826.611 2685.37 960.591C2680.37 971.101 2629.94 1054.59 2267.76 936.821C2665.92 1066 2967.42 1339.94 2966 1847C2964.91 2235.75 2615.93 2837.81 1999.57 2843.18C1404.95 2848.37 1032.93 2246.96 1034 1847C1035.32 1358.56 1466.13 856.061 2000 818.501C2319.41 796.051 2465.29 868.601 2500.32 839.001Z" fill="#3167E1" stroke="#333333" stroke-width="5" stroke-linecap="round" stroke-linejoin="round"/>
<path d="M2565.16 861.34C2535.5 926.5 2353.35 821.34 2033.94 843.8C1380.48 889.738 907.001 1615 1169.36 2202.88C1237.5 2132.5 1320.5 2112.5 1346.95 2103.72C1354.89 2112.29 1364.55 2121.39 1368 2125.5C1286.63 2150.85 1192.07 2205.91 1151.37 2282.34C1075.1 2134.74 1034.37 1979.78 1034.78 1847.01C1036.1 1358.56 1467 856.01 2000.87 818.44C2320.28 795.99 2465.43 868.54 2500.46 838.9C2542.64 803.15 2376 763 2353.81 699.51C2345.24 675.05 2382.63 679.24 2435.36 700.64C2415.36 697.76 2404.36 702.47 2409.81 716.51C2429.19 766.9 2590.11 806.531 2565.16 861.34Z" fill="black" fill-opacity="0.14"/>
<path d="M2964.5 1847.07C2964.14 1974.81 2926.38 2125.58 2853.96 2270.64C2779 2168 2644.73 2127 2631 2127C2635 2122 2647 2107.3 2651 2102.5C2674.5 2108 2779.62 2130.41 2838.28 2208.7C2897.58 2076.55 2924.8 1953.54 2925.12 1837.84C2926.59 1313.6 2571.5 1053 2267.76 936.82C2665.92 1066 2965.92 1340 2964.5 1847.07Z" fill="black" fill-opacity="0.14"/>
<path d="M1725 1203.5C1428 1203.5 1060 1832 1361.5 2122C786.001 2302 1361.5 2901 2000 2901C2638.5 2901 3214 2302 2638.5 2122C2940 1832 2572 1203.5 2275 1203.5C2148.5 1203.5 2079.49 1262 2000 1320C1920.5 1262 1851.5 1203.5 1725 1203.5Z" fill="#FFCD98" stroke="#333333" stroke-width="5"/>
<path d="M2749.1 1817C2733.4 1508.46 2484.1 1203.81 2267.6 1203.81C2133 1203.81 2051.4 1285.95 2000 1320C1958.9 1291.95 1867.5 1203.81 1731.6 1203.81C1476 1203.81 1253.5 1577 1249.47 1826.52C1227 1558 1433.07 1155 1733 1155C1889 1155 1972 1230 2000 1261C2028 1230 2111 1155 2267 1155C2564.63 1155 2770.5 1536.5 2749.1 1817Z" fill="black" fill-opacity="0.14"/>
<path d="M1148.6 2266.67C1012.67 2511.93 1482.92 2900.5 2000 2900.5C2517.08 2900.5 2993.17 2507.65 2849.75 2262.64C2945.11 2486.75 2490.72 2863 2000 2863C1512.21 2863 1060.31 2491.22 1148.6 2266.67Z" fill="black" fill-opacity="0.1"/>
<path d="M1250.37 1807.39C1243.26 1924.84 1274.39 2037.4 1361.82 2121.5C1351.4 2124.76 1341.35 2129.16 1331.67 2132.69C1354 2125.5 1375.33 2120.41 1400 2116C1315.46 2034.68 1266.53 1924.24 1250.37 1807.39Z" fill="black" fill-opacity="0.1"/>
<path d="M2670.5 2133C2648.74 2126.59 2625.9 2120.63 2600 2116C2685.32 2033.93 2734.37 1922.19 2750.07 1804.14C2757.96 1922.76 2727.06 2036.63 2638.82 2121.5C2650.14 2125.04 2660.06 2129.14 2670.5 2133Z" fill="black" fill-opacity="0.1"/>
<path fill-rule="evenodd" clip-rule="evenodd" d="M2231.56 1562.88C2077.8 1587.14 1922.4 1585.53 1768.54 1562.89C1755.78 1561.02 1758.7 1541.23 1771.46 1543.11C1923.31 1565.45 2076.68 1567.07 2228.44 1543.12C2241.18 1541.11 2244.3 1560.87 2231.56 1562.88Z" fill="#B28F6A"/>
<path fill-rule="evenodd" clip-rule="evenodd" d="M1923 1647.3C1971.59 1628.05 2028.41 1628.05 2077.01 1647.3C2080 1640 2081.5 1636 2084.37 1628.7C2031.08 1607.6 1968.92 1607.6 1915.63 1628.7C1918 1635 1920 1640 1923 1647.3Z" fill="#B28F6A"/>
<path fill-rule="evenodd" clip-rule="evenodd" d="M2637.67 1699.27C2745.84 1673.35 2885.36 1692.51 2976.09 1762.06C2986.32 1769.91 2974.15 1785.78 2963.92 1777.94C2878.86 1712.73 2745.82 1693.92 2642.33 1718.72C2629.79 1721.73 2625.13 1702.28 2637.67 1699.27Z" fill="#B28F6A"/>
<path fill-rule="evenodd" clip-rule="evenodd" d="M1362.33 1699.27C1254.17 1673.35 1114.64 1692.51 1023.92 1762.06C1013.68 1769.91 1025.85 1785.78 1036.08 1777.94C1121.14 1712.73 1254.18 1693.92 1357.67 1718.72C1370.21 1721.73 1374.87 1702.28 1362.33 1699.27Z" fill="#B28F6A"/>
<path d="M2675 1825.37C2676.36 1980.26 2601.48 2161.66 2417.5 2161C2233.52 2160.34 2035.55 1896.91 2034 1718.77C2033.33 1642.34 2099.38 1556.2 2311.38 1554.35C2440.21 1553.23 2672.57 1547.83 2675 1825.37Z" fill="#76FFFB" stroke="#B38F6A" stroke-width="10" stroke-miterlimit="10"/>
<path d="M2402.5 2093C2598.29 2093.7 2676.15 1878.31 2657.36 1712.17C2668.26 1743.38 2674.61 1780.71 2675 1825.37C2676.36 1980.26 2601.48 2161.66 2417.5 2161C2243.17 2160.38 2056.28 1923.83 2035.84 1747.46C2087.56 1911 2249.85 2092.45 2402.5 2093Z" fill="black" fill-opacity="0.1"/>
<path d="M1324.99 1825.37C1323.63 1980.26 1398.51 2161.66 1582.49 2161C1766.47 2160.34 1964.44 1896.91 1965.99 1718.77C1966.66 1642.34 1900.62 1556.2 1688.62 1554.35C1559.79 1553.23 1327.42 1547.83 1324.99 1825.37Z" fill="#76FFFB" stroke="#B38F6A" stroke-width="10" stroke-miterlimit="10"/>
<path d="M1597.49 2093C1401.7 2093.7 1323.85 1878.31 1342.64 1712.17C1331.73 1743.38 1325.39 1780.71 1324.99 1825.37C1323.63 1980.26 1398.51 2161.66 1582.49 2161C1756.82 2160.38 1943.71 1923.83 1964.16 1747.46C1912.44 1911 1750.15 2092.45 1597.49 2093Z" fill="black" fill-opacity="0.1"/>
<path d="M1785 2099C1785 2175.35 1883.85 2268 2001.26 2267C2109.48 2266.05 2215 2174.45 2215 2099.22C2215 1947.09 1785 1944.8 1785 2099Z" fill="black" fill-opacity="0.1"/>
<path d="M1782 2081C1782 2157.35 1882.23 2250 2001.27 2249C2111 2248.05 2218 2156.45 2218 2081.22C2218 2020.69 2091.76 1967.45 2001.27 1968.22C1917.25 1969 1782 2009.38 1782 2081Z" fill="#7A5D43"/>
<path d="M1783.58 2067.77C1825.34 2122.52 1908.26 2168.71 2001.43 2167.99C2087.64 2167.31 2172.35 2120.87 2215.52 2066.44C2217.14 2071.3 2218 2076.23 2218 2081.22C2218 2156.45 2111 2248.05 2001.27 2249C1882.23 2250 1782 2157.35 1782 2081C1782 2076.46 1782.54 2072.05 1783.58 2067.77Z" fill="black" fill-opacity="0.2"/>
<path d="M2596.13 2395.88C2597.18 2405.03 2597.87 2414.14 2600.19 2423.09C2602.47 2431.88 2606.16 2440.01 2609.83 2448.28C2612.31 2453.91 2607.37 2460.62 2601.15 2457.95C2577.39 2447.25 2569.54 2413.44 2583.66 2392.27C2587.43 2386.87 2595.52 2389.64 2596.13 2395.88Z" fill="black" fill-opacity="0.1"/>
<path d="M2552.5 2432.5C2546 2403.5 2550.26 2371.45 2551 2368.5C2553.5 2358.5 2536.5 2352 2531 2361C2529.1 2364.11 2518.5 2387.5 2520.5 2423C2458 2464.5 2346 2473 2238.5 2464.5C2111 2459 1933 2389.5 1724 2389.5C1581.5 2389.5 1506.5 2408.5 1479 2413.5C1480 2394 1471 2368 1467.5 2362C1461.15 2351.11 1445.5 2358 1448 2369.5C1451.77 2386.85 1452.5 2410 1447 2434.5C1439.92 2466.03 1423.07 2490.77 1421 2498C1417.61 2509.88 1429.07 2513.41 1436 2511C1447.5 2507 1475.5 2461.5 1477.5 2434.5C1522 2428 1561 2415 1724 2417.5C1897.48 2420.16 2075 2482.5 2238.5 2493C2417.22 2504.48 2507.5 2452.5 2524 2444C2535 2485 2557.5 2507 2562.5 2509.5C2574.5 2515.5 2586 2505 2578 2495C2569.36 2484.2 2559 2461.5 2552.5 2432.5Z" fill="#634B37"/>
<path d="M1415.29 2392.44C1429.78 2413.38 1422.45 2447.32 1398.89 2458.44C1392.71 2461.23 1387.66 2454.59 1390.04 2448.92C1393.58 2440.59 1397.1 2432.37 1399.26 2423.55C1401.41 2414.56 1401.95 2405.44 1402.84 2396.27C1403.46 2390.08 1411.34 2386.99 1415.26 2392.42L1415.29 2392.44Z" fill="black" fill-opacity="0.1"/>
<path d="M2000 636.821C1135.5 636.821 902.499 1046 799.5 1305C865.499 951 1022.9 773.718 1303 636.821C1398.48 590.157 1471 537.5 1628 500.5C1785 463.5 1861.95 487 2000 487C2188.57 487 2360.54 510.471 2513.5 555.199C2629.64 589.159 2701.5 583.643 2845.5 672.5C2896.49 703.962 2970.98 780.641 3045.94 885C3102.97 964.388 3180.09 1017.5 3240 1148.5C3299.91 1279.5 3321 1469.68 3321 1626C3181.5 1140.5 2864.5 636.821 2000 636.821Z" fill="#179917"/>
<path d="M2985 937C3115.5 1026.5 3251.92 1291.43 3287.7 1388.5C3317 1468 3350.74 1700.85 3287.7 1774C3160.5 1185.5 2860.2 736.821 2032.7 736.821C1205.2 736.821 890 1175.5 787.001 1434.5C781 1272.5 852.5 1111 972 945.5C1091.5 780 1226.7 765.321 1337.7 725.321C1448.7 685.321 1508.2 605.321 1689.2 572.321C1870.2 539.321 2038.7 571.321 2151.7 588.821C2264.7 606.321 2479.7 578.321 2648.2 665.821C2816.7 753.321 2854.5 847.5 2985 937Z" fill="#EFE800"/>
<path d="M2954.5 1025C3085 1114.5 3261.35 1337.91 3287.5 1438C3334 1616 3327.5 1739.5 3287.5 1874C3276.5 1526.5 2829.5 813.499 2002 813.499C1174.5 813.499 850.5 1120.17 794.501 1741.5C692.5 1476.5 833 1189.5 952.5 1024C1072 858.499 1187.15 863.545 1294 813.499C1468 731.999 1566 677.499 1747 644.499C1928 611.499 2057 649.499 2170 666.999C2283 684.499 2469.5 670.999 2638 758.499C2806.5 845.999 2824 935.499 2954.5 1025Z" fill="#D80000"/>
<path d="M2952.5 1115C3083 1204.5 3270.75 1446.93 3295 1547.5C3325.5 1674 3335 2029 3092 2309C3252 1510 2827.5 903.499 2000 903.499C1172.5 903.499 754.001 1275.5 800.001 2159.5C612.001 1595 831.001 1279.5 950.501 1114C1070 948.499 1194 931.999 1305 891.999C1416 851.999 1475.5 771.999 1656.5 738.999C1837.5 705.999 2006 737.999 2119 755.499C2232 772.999 2447 744.999 2615.5 832.499C2784 919.999 2822 1025.5 2952.5 1115Z" fill="black"/>
<path d="M3231.5 1983.5C3221 2104.5 3148 2245 3095 2306.5C3255 1507.5 2827.5 1023.5 2000 1023.5C1172.5 1023.5 757.439 1764.5 848.501 2244.5C623.501 1940.5 831.001 1399.5 950.501 1234C1070 1068.5 1194 1052 1305 1012C1416 971.999 1475.5 891.999 1656.5 858.999C1837.5 825.999 2006 857.999 2119 875.499C2232 892.999 2447 864.999 2615.5 952.499C2784 1040 2829.5 1167.5 2960 1257C3090.5 1346.5 3241 1537.5 3255 1640C3269 1742.5 3242 1862.5 3231.5 1983.5Z" fill="#179917"/>
<path d="M3130.67 1616.54C3081.44 1470.04 2964 1373.11 2853 1276.5C2744.77 1182.34 2634.76 1040.74 2487.53 1005.85C2410.75 987.649 2326.86 1006.02 2248.91 999.479C2165.37 992.479 2086.18 966.639 2003.85 953.129C1820.08 922.969 1656.25 959.889 1495.74 1049.98C1364.04 1123.9 1201.84 1094.47 1092 1203.52C1051.3 1243.94 1003 1311 965 1380.5C927 1450 929.5 1494 893 1573C856.5 1652 826 1692.5 809.001 1772C792.001 1851.5 791.5 1988 791.5 2037C791.5 2086 817.835 2212.69 868.501 2279.5C901.758 2316.79 898.28 2323.16 938.001 2351C749.501 2116.5 1130.5 1132 2000 1132C2869.5 1132 3199.5 1732.5 3022 2375C3127.26 2301 3161 2213 3161 2136C3161 2059 3149.45 2016.25 3152.5 1969C3161.42 1833.47 3175 1748.37 3130.67 1616.54Z" fill="#EFE800"/>
<path d="M3095 2016C3095 2106.91 3113.26 2241.93 3068.91 2324.86C3039.27 2380.28 2980.5 2412 2927.5 2431.5C3154 1813 2711 1227.71 2000 1227.71C1289 1227.71 873.877 1882.27 1072 2424.5C1050.29 2434.83 971.83 2379.37 955 2369.5C887.27 2329.77 856.97 2166.66 858.5 2121.5C863.2 1982.66 912.181 1868.49 959.311 1738.58C1005.85 1610.31 1039.19 1431.58 1138.96 1333.34C1217.3 1256.18 1342.55 1247.9 1439.68 1203.16C1579.09 1138.94 1693.68 1047.08 1852.12 1044.01C2022.52 1040.7 2181.33 1105.68 2350.85 1103.19C2523.52 1100.64 2590.85 1209.69 2727.77 1298.42C2857.77 1382.66 2955.97 1442.24 3018.43 1591.42C3072.72 1721 3108.05 1874.93 3095 2016Z" fill="#D80000"/>
<path d="M3033.63 2174.28C3029.63 2316.28 3019.59 2413.12 2869 2459C2919.91 2342.86 2919.02 2169.98 2921.55 2043.11C2924.55 1891.62 2857.25 1764.71 2778.16 1639.11C2639.01 1418.11 2320.16 1336.47 2071.72 1333.91C1930.44 1332.45 1771.3 1310.38 1636.46 1362.72C1502.37 1414.78 1378.22 1529.93 1284.46 1636.72C1109.46 1835.89 1036.52 2209.79 1131 2459C983.45 2410 972.336 2359.46 961.999 2200.5C951.122 2033.22 999.179 1876.26 1057.5 1733C1172.58 1450.31 1396.29 1232.53 1766.85 1175.04C1949.96 1146.62 2131.36 1210.04 2312.26 1228.5C2479.89 1245.62 2628.95 1309.94 2761.94 1416.57C2977.41 1589.32 3040.92 1912.43 3033.63 2174.28Z" fill="#1A1A1A"/>
<path d="M806.62 1269.17C876.448 938.878 1032.51 769.02 1303 636.821C1398.48 590.157 1471 537.5 1628 500.5C1785 463.5 1861.95 487 2000 487C2188.57 487 2360.54 510.471 2513.5 555.199C2629.64 589.159 2701.5 583.643 2845.5 672.5C2896.49 703.962 2970.98 780.641 3045.94 885C3109.51 973.495 3194.48 1037.36 3240.5 1138C3290.01 1246.25 3312.5 1405.42 3319 1542C3344.93 1790.38 3267.07 2070.7 3121.68 2272.85C3057.74 2361.77 2962.78 2433.6 2863 2464C2913.91 2347.86 2919.02 2169.98 2921.55 2043.11C2924.55 1891.62 2857.25 1764.71 2778.16 1639.11C2639.01 1418.11 2320.16 1336.47 2071.72 1333.91C1930.44 1332.45 1771.3 1310.38 1636.46 1362.72C1502.37 1414.78 1378.22 1529.93 1284.46 1636.72C1109.46 1835.89 1041.52 2214.79 1136 2464C1017.8 2424.75 910.607 2350.31 839 2236.5C792.083 2161.93 778.24 2079.09 753.611 1989.59C696.839 1783.29 720.808 1610.38 760.646 1473.85C780.585 1405.52 788.85 1335.7 806.62 1269.17Z" stroke="#333333" stroke-width="20" stroke-linecap="round" stroke-linejoin="round"/>
<path d="M993.985 1277.43C974.3 1373.4 958.067 1471.88 930.646 1565.85C846.43 1854.47 875.023 2261.42 1128.73 2461.54C1013.41 2421.67 909.137 2347.97 839 2236.5C801.719 2177.25 785.322 2112.77 767.802 2043.89C763.273 2026.08 758.67 2007.98 753.611 1989.59C696.839 1783.29 720.808 1610.38 760.646 1473.85C771.434 1436.88 778.804 1399.48 786.112 1362.39C792.311 1330.94 798.464 1299.71 806.62 1269.17C876.448 938.878 1032.51 769.02 1303 636.82C1325.05 626.041 1345.88 614.942 1366.81 603.79C1422.05 574.36 1477.97 544.562 1558.93 519.299C1453.51 594.571 1366.81 692.5 1262 750C1022 881.659 1047.28 1017.6 993.985 1277.43Z" fill="black" fill-opacity="0.4"/>
<path d="M2967 964.501C3152.5 1104 3121.57 1367.52 3152.5 1542C3200 1810 3136 2209.5 2867.3 2462.66C2965.5 2431.53 3058.65 2360.49 3121.68 2272.85C3267.07 2070.7 3344.93 1790.38 3319 1542C3312.5 1405.43 3290 1246.26 3240.5 1138C3211.82 1075.29 3168.02 1026.86 3123.71 977.856C3096.9 948.211 3069.9 918.355 3045.94 885C2970.98 780.642 2896.48 703.962 2845.5 672.5C2741.02 608.03 2674.51 593.24 2601.52 577.007C2573.91 570.866 2545.37 564.519 2513.5 555.199C2878 688.501 2838.56 867.912 2967 964.501Z" fill="black" fill-opacity="0.4"/>
<path d="M2555.5 2872C2550.5 2876.5 2539 2885 2526 2893C2533 2864.5 2523 2843 2507.5 2835C2512 2832 2527 2824.5 2545 2822C2653.5 2776 2798.2 2863.18 2805.5 2970.5C2818.24 3157.89 2672 3139.5 2657 3131C2636 3110 2632.5 3087.5 2648.5 3067.5C2694.5 3100.5 2765.5 3084.5 2754 2970.5C2748.37 2914.64 2663 2832 2555.5 2872Z" fill="#92B595" stroke="#333333" stroke-width="5" stroke-linecap="round" stroke-linejoin="round"/>
<path d="M2623.77 2810.04C2610.62 2808.97 2597.42 2809.28 2584.43 2811.12C2593.39 2820.83 2603.96 2839.11 2593.53 2862.59C2604.39 2861.26 2614.92 2861.12 2625.04 2862.01C2634.3 2848.29 2637.75 2824.27 2623.77 2810.04Z" fill="white"/>
<path d="M2687 2881.69C2677.54 2876.23 2667.26 2871.62 2656.29 2868.19C2671.85 2853.44 2673.33 2833.66 2667.81 2818.72C2679.51 2822.38 2690.92 2827.04 2701.85 2832.58C2707.4 2853.36 2698.71 2871.91 2687 2881.69Z" fill="white"/>
<path d="M2725.75 2913.27C2720.63 2907.49 2714.9 2901.92 2708.61 2896.71C2725.97 2889.19 2733.18 2869.82 2730.42 2849.86C2740.13 2856.77 2749.2 2864.42 2757.45 2872.69C2755.22 2894.41 2738.73 2907.23 2725.75 2913.27Z" fill="white"/>
<path d="M2750.99 2956.14C2748.62 2948.54 2745.02 2940.7 2740.31 2932.95C2752.38 2929.1 2770.56 2918.19 2776.94 2895.51C2784.23 2905.59 2790.35 2916.28 2795.04 2927.42C2787.84 2938.52 2771.47 2952.39 2750.99 2956.14Z" fill="white"/>
<path d="M2754.84 3006.34C2755.34 2998.9 2755.38 2990.86 2754.91 2982.18C2769.43 2981.26 2791.86 2976.15 2804.18 2958.94C2804.79 2962.76 2805.24 2966.62 2805.5 2970.5C2806.12 2979.66 2806.37 2988.34 2806.26 2996.54C2795.04 3003.35 2775.09 3008.55 2754.84 3006.34Z" fill="white"/>
<path d="M2742.12 3053.41C2745.76 3047.11 2748.77 3039.71 2750.99 3031.14C2764.18 3033.42 2786.62 3034.35 2804.34 3024.98C2803.04 3035.14 2801.11 3044.4 2798.65 3052.84C2783.52 3058.05 2764.13 3060.76 2742.12 3053.41Z" fill="white"/>
<path d="M2701.89 3081.96C2709.31 3080.82 2716.44 3078.23 2722.95 3074.04C2735.94 3082.21 2759.98 3088.99 2786.21 3082.49C2777.15 3098.19 2765.71 3109.52 2753.39 3117.58C2732.56 3113.27 2709.94 3103.5 2701.89 3081.96Z" fill="white"/>
<path d="M2713.33 3133.48C2686.35 3138.7 2662.58 3134.16 2657 3131C2636 3110 2632.5 3087.5 2648.5 3067.5C2656.17 3073 2664.53 3077.14 2673.09 3079.69C2669.32 3095.79 2671.25 3115.07 2713.33 3133.48Z" fill="white"/>
<path d="M2555.78 2871.9C2559 2851.67 2551.96 2833.99 2544.41 2822.08C2526.67 2824.66 2511.95 2832.03 2507.5 2835C2523 2843 2533 2864.5 2526 2893C2539 2885 2550.5 2876.5 2555.5 2872C2555.59 2871.96 2555.69 2871.93 2555.78 2871.9Z" fill="white"/>
<path d="M2623.77 2810.04C2610.62 2808.97 2597.42 2809.28 2584.43 2811.12C2593.39 2820.83 2603.96 2839.11 2593.53 2862.59C2604.39 2861.26 2614.92 2861.12 2625.04 2862.01C2634.3 2848.29 2637.75 2824.27 2623.77 2810.04Z" stroke="#333333" stroke-width="5" stroke-linecap="round" stroke-linejoin="round"/>
<path d="M2687 2881.69C2677.54 2876.23 2667.26 2871.62 2656.29 2868.19C2671.85 2853.44 2673.33 2833.66 2667.81 2818.72C2679.51 2822.38 2690.92 2827.04 2701.85 2832.58C2707.4 2853.36 2698.71 2871.91 2687 2881.69Z" stroke="#333333" stroke-width="5" stroke-linecap="round" stroke-linejoin="round"/>
<path d="M2725.75 2913.27C2720.63 2907.49 2714.9 2901.92 2708.61 2896.71C2725.97 2889.19 2733.18 2869.82 2730.42 2849.86C2740.13 2856.77 2749.2 2864.42 2757.45 2872.69C2755.22 2894.41 2738.73 2907.23 2725.75 2913.27Z" stroke="#333333" stroke-width="5" stroke-linecap="round" stroke-linejoin="round"/>
<path d="M2750.99 2956.14C2748.62 2948.54 2745.02 2940.7 2740.31 2932.95C2752.38 2929.1 2770.56 2918.19 2776.94 2895.51C2784.23 2905.59 2790.35 2916.28 2795.04 2927.42C2787.84 2938.52 2771.47 2952.39 2750.99 2956.14Z" stroke="#333333" stroke-width="5" stroke-linecap="round" stroke-linejoin="round"/>
<path d="M2754.84 3006.34C2755.34 2998.9 2755.38 2990.86 2754.91 2982.18C2769.43 2981.26 2791.86 2976.15 2804.18 2958.94C2804.79 2962.76 2805.24 2966.62 2805.5 2970.5C2806.12 2979.66 2806.37 2988.34 2806.26 2996.54C2795.04 3003.35 2775.09 3008.55 2754.84 3006.34Z" stroke="#333333" stroke-width="5" stroke-linecap="round" stroke-linejoin="round"/>
<path d="M2742.12 3053.41C2745.76 3047.11 2748.77 3039.71 2750.99 3031.14C2764.18 3033.42 2786.62 3034.35 2804.34 3024.98C2803.04 3035.14 2801.11 3044.4 2798.65 3052.84C2783.52 3058.05 2764.13 3060.76 2742.12 3053.41Z" stroke="#333333" stroke-width="5" stroke-linecap="round" stroke-linejoin="round"/>
<path d="M2701.89 3081.96C2709.31 3080.82 2716.44 3078.23 2722.95 3074.04C2735.94 3082.21 2759.98 3088.99 2786.21 3082.49C2777.15 3098.19 2765.71 3109.52 2753.39 3117.58C2732.56 3113.27 2709.94 3103.5 2701.89 3081.96Z" stroke="#333333" stroke-width="5" stroke-linecap="round" stroke-linejoin="round"/>
<path d="M2713.33 3133.48C2686.35 3138.7 2662.58 3134.16 2657 3131C2636 3110 2632.5 3087.5 2648.5 3067.5C2656.17 3073 2664.53 3077.14 2673.09 3079.69C2669.32 3095.79 2671.25 3115.07 2713.33 3133.48Z" stroke="#333333" stroke-width="5" stroke-linecap="round" stroke-linejoin="round"/>
<path d="M2555.78 2871.9C2559 2851.67 2551.96 2833.99 2544.41 2822.08C2526.67 2824.66 2511.95 2832.03 2507.5 2835C2523 2843 2533 2864.5 2526 2893C2539 2885 2550.5 2876.5 2555.5 2872C2555.59 2871.96 2555.69 2871.93 2555.78 2871.9Z" stroke="#333333" stroke-width="5" stroke-linecap="round" stroke-linejoin="round"/>
<path d="M2786.65 2965.53C2797.71 3016.55 2785 3082.5 2750 3120C2804 3087 2814.9 3010.05 2802.65 2953.53C2786.52 2879.12 2715.26 2823.29 2641.92 2811.93C2608.94 2806.84 2575.76 2810.41 2545 2821.5C2532 2823.5 2518 2828.5 2507.5 2834.5C2510.5 2837 2514 2839 2517.5 2843.55C2626.65 2802.52 2758.79 2837.03 2786.65 2965.53Z" fill="black" fill-opacity="0.3"/>
<path d="M2717.5 3076.5C2697.35 3099.94 2665.35 3098.47 2639 3085.68C2641 3078.5 2644 3071.5 2648.5 3068C2670.15 3080.9 2695.61 3088.15 2717.5 3076.5Z" fill="black" fill-opacity="0.3"/>
<path d="M1909.99 3556C1941.99 3556 1973.08 3532.4 1976.69 3499.86C1985.8 3417.65 1882.34 3410.18 1826.03 3408.94C1768.92 3407.69 1671.99 3418.5 1655 3481.21C1640.16 3536 1691.49 3556 1727.99 3556C1764.49 3556 1776.99 3543.85 1820.98 3543.85C1859.39 3543.85 1877.99 3556 1909.99 3556Z" fill="#872BDB" stroke="#333333" stroke-width="5" stroke-miterlimit="10"/>
<path d="M1842.5 3545.19C1827.04 3504.95 1821.38 3450.15 1825.8 3408.94C1838.87 3409.22 1851.93 3409.8 1864.94 3411.05C1861.34 3456.1 1870.55 3513.9 1891.85 3554.7C1875.36 3552.37 1861.19 3547.53 1842.5 3545.19Z" fill="#F2F2F2"/>
<path d="M1770.54 3411.7C1751.21 3414.12 1731.44 3418.33 1713.73 3425.15C1715.87 3466.87 1728.94 3517.98 1750.35 3554.32C1767.54 3551.68 1780.66 3546.65 1802.13 3544.68C1783.26 3505.94 1768.94 3453.54 1770.54 3411.7Z" fill="#F2F2F2"/>
<path d="M1966.68 3526.42C1959.93 3536.26 1950.34 3544.16 1939.4 3549.31C1919.07 3512.66 1912 3462.15 1913.35 3419.79C1926.93 3423.78 1939.58 3429.25 1949.99 3436.77C1950.84 3466.68 1956.25 3498.63 1966.68 3526.42Z" fill="#F2F2F2"/>
<path d="M1655 3481.21C1658.09 3469.83 1663.8 3460.17 1671.42 3451.97C1676.13 3485.52 1686.52 3523.3 1702.52 3552.92C1672.05 3545.47 1643.44 3523.9 1655 3481.21Z" fill="#F2F2F2"/>
<path d="M1842.5 3545.19C1827.04 3504.95 1821.38 3450.15 1825.8 3408.94C1838.87 3409.22 1851.93 3409.8 1864.94 3411.05C1861.34 3456.1 1870.55 3513.9 1891.85 3554.7C1875.36 3552.37 1861.19 3547.53 1842.5 3545.19Z" stroke="#333333" stroke-width="5" stroke-linecap="round" stroke-linejoin="round"/>
<path d="M1770.54 3411.7C1751.21 3414.12 1731.44 3418.33 1713.73 3425.15C1715.87 3466.87 1728.94 3517.98 1750.35 3554.32C1767.54 3551.68 1780.66 3546.65 1802.13 3544.68C1783.26 3505.94 1768.94 3453.54 1770.54 3411.7Z" stroke="#333333" stroke-width="5" stroke-linecap="round" stroke-linejoin="round"/>
<path d="M1966.68 3526.42C1959.93 3536.26 1950.34 3544.16 1939.4 3549.31C1919.07 3512.66 1912 3462.15 1913.35 3419.79C1926.93 3423.78 1939.58 3429.25 1949.99 3436.77C1950.84 3466.68 1956.25 3498.63 1966.68 3526.42Z" stroke="#333333" stroke-width="5" stroke-linecap="round" stroke-linejoin="round"/>
<path d="M1655 3481.21C1658.09 3469.83 1663.8 3460.17 1671.42 3451.97C1676.13 3485.52 1686.52 3523.3 1702.52 3552.92C1672.05 3545.47 1643.44 3523.9 1655 3481.21Z" stroke="#333333" stroke-width="5" stroke-linecap="round" stroke-linejoin="round"/>
<path d="M1908.99 3534C1876.99 3534 1858.39 3521.85 1819.98 3521.85C1775.99 3521.85 1763.49 3534 1726.99 3534C1698.61 3534 1661.24 3521.9 1653.02 3490.74C1646.3 3538.34 1693.7 3556 1727.99 3556C1764.49 3556 1776.99 3543.85 1820.98 3543.85C1859.39 3543.85 1877.99 3556 1909.99 3556C1952.86 3556 1982.99 3521.85 1975.9 3475.74C1972.94 3509.2 1941.87 3534 1908.99 3534Z" fill="black" fill-opacity="0.4"/>
<path d="M2090 3556C2058 3556 2026.91 3532.4 2023.3 3499.86C2014.19 3417.65 2117.65 3410.18 2173.97 3408.94C2231.07 3407.69 2328 3418.5 2344.99 3481.21C2359.84 3536 2308.5 3556 2272 3556C2235.5 3556 2223 3543.85 2179.02 3543.85C2140.6 3543.85 2122 3556 2090 3556Z" fill="#872BDB" stroke="#333333" stroke-width="5" stroke-miterlimit="10"/>
<path d="M2157.49 3545.19C2172.96 3504.95 2178.62 3450.15 2174.19 3408.94C2161.13 3409.22 2148.07 3409.8 2135.06 3411.05C2138.65 3456.1 2129.44 3513.9 2108.15 3554.7C2124.63 3552.37 2138.8 3547.53 2157.49 3545.19Z" fill="#F2F2F2"/>
<path d="M2229.45 3411.7C2248.78 3414.12 2268.56 3418.33 2286.26 3425.15C2284.13 3466.87 2271.05 3517.98 2249.65 3554.32C2232.45 3551.68 2219.33 3546.65 2197.86 3544.68C2216.74 3505.94 2231.06 3453.54 2229.45 3411.7Z" fill="#F2F2F2"/>
<path d="M2033.31 3526.42C2040.07 3536.26 2049.65 3544.16 2060.6 3549.31C2080.92 3512.66 2088 3462.15 2086.64 3419.79C2073.07 3423.78 2060.41 3429.25 2050 3436.77C2049.16 3466.68 2043.75 3498.63 2033.31 3526.42Z" fill="#F2F2F2"/>
<path d="M2344.99 3481.21C2341.91 3469.83 2336.2 3460.17 2328.57 3451.97C2323.87 3485.52 2313.47 3523.3 2297.47 3552.92C2327.94 3545.47 2356.56 3523.9 2344.99 3481.21Z" fill="#F2F2F2"/>
<path d="M2157.49 3545.19C2172.96 3504.95 2178.62 3450.15 2174.19 3408.94C2161.13 3409.22 2148.07 3409.8 2135.06 3411.05C2138.65 3456.1 2129.44 3513.9 2108.15 3554.7C2124.63 3552.37 2138.8 3547.53 2157.49 3545.19Z" stroke="#333333" stroke-width="5" stroke-linecap="round" stroke-linejoin="round"/>
<path d="M2229.45 3411.7C2248.78 3414.12 2268.56 3418.33 2286.26 3425.15C2284.13 3466.87 2271.05 3517.98 2249.65 3554.32C2232.45 3551.68 2219.33 3546.65 2197.86 3544.68C2216.74 3505.94 2231.06 3453.54 2229.45 3411.7Z" stroke="#333333" stroke-width="5" stroke-linecap="round" stroke-linejoin="round"/>
<path d="M2033.31 3526.42C2040.07 3536.26 2049.65 3544.16 2060.6 3549.31C2080.92 3512.66 2088 3462.15 2086.64 3419.79C2073.07 3423.78 2060.41 3429.25 2050 3436.77C2049.16 3466.68 2043.75 3498.63 2033.31 3526.42Z" stroke="#333333" stroke-width="5" stroke-linecap="round" stroke-linejoin="round"/>
<path d="M2344.99 3481.21C2341.91 3469.83 2336.2 3460.17 2328.57 3451.97C2323.87 3485.52 2313.47 3523.3 2297.47 3552.92C2327.94 3545.47 2356.56 3523.9 2344.99 3481.21Z" stroke="#333333" stroke-width="5" stroke-linecap="round" stroke-linejoin="round"/>
<path d="M2091 3534C2123 3534 2141.61 3521.85 2180.02 3521.85C2224 3521.85 2236.5 3534 2273 3534C2301.39 3534 2338.75 3521.9 2346.97 3490.74C2353.7 3538.34 2306.3 3556 2272 3556C2235.5 3556 2223 3543.85 2179.02 3543.85C2140.61 3543.85 2122 3556 2090 3556C2047.14 3556 2017 3521.85 2024.09 3475.74C2027.06 3509.2 2058.13 3534 2091 3534Z" fill="black" fill-opacity="0.4"/>
<path d="M2391.09 3009.45C2393.96 3007.02 2395.29 3002.44 2394.15 2997.76C2392.66 2991.61 2387.48 2987.6 2382.59 2988.78C2377.69 2989.97 2374.94 2995.92 2376.43 3002.06C2377.61 3006.92 2381.09 3010.45 2384.91 3011.13L2325.18 3027.34C2328.14 3024.94 2329.53 3020.3 2328.37 3015.54C2326.88 3009.39 2321.7 3005.38 2316.81 3006.57C2311.91 3007.76 2309.15 3013.7 2310.65 3019.85C2311.84 3024.77 2315.41 3028.33 2319.3 3028.94L2306.8 3032.33C2296.23 3035.2 2288.88 3044.76 2288.22 3055.3L1905.08 3144.9C1881.54 3104.83 1843.67 3074.89 1805.81 3074.16C1769.98 3073.45 1751.12 3090.74 1703.98 3104.02C1625.18 3126.21 1601.22 3076.79 1539.28 3090.94C1470.41 3106.66 1396.27 3206.17 1421.1 3307.23C1442.36 3393.73 1528.84 3451.75 1595.47 3445.1C1666.16 3438.01 1680.04 3361.59 1773.62 3350.1C1825.46 3343.73 1844.91 3364.27 1877.19 3345.62C1911.67 3325.71 1927.96 3280.1 1929.15 3237.13L2316.97 3146.45C2321.54 3148.68 2326.79 3149.58 2332.07 3148.71L2346.2 3146.36C2345.24 3148.69 2345 3151.54 2345.7 3154.43C2347.2 3160.58 2352.38 3164.59 2357.27 3163.4C2362.16 3162.21 2364.92 3156.27 2363.43 3150.12C2362.84 3147.7 2361.68 3145.62 2360.19 3144.04L2409.14 3135.93C2408.09 3138.3 2407.81 3141.25 2408.53 3144.25C2410.03 3150.4 2415.21 3154.41 2420.1 3153.22C2424.99 3152.03 2427.75 3146.09 2426.26 3139.94C2425.64 3137.42 2424.41 3135.25 2422.82 3133.66L2456.35 3128.1C2470.53 3125.74 2480.08 3111.43 2476.81 3097.43L2458.31 3018.3C2455.09 3004.58 2440.68 2995.99 2427.09 2999.68L2391.09 3009.45Z" stroke="#333333" stroke-width="10"/>
<path d="M1926.91 3203.71C1935.38 3253.8 1920.91 3320.38 1877.19 3345.62C1844.91 3364.27 1825.46 3343.73 1773.62 3350.1C1680.04 3361.59 1666.16 3438.01 1595.47 3445.1C1528.84 3451.75 1442.36 3393.73 1421.1 3307.23C1396.27 3206.17 1470.41 3106.66 1539.28 3090.94C1601.22 3076.79 1625.18 3126.21 1703.98 3104.02C1751.12 3090.74 1769.98 3073.45 1805.81 3074.16C1860.8 3075.22 1915.8 3137.91 1926.91 3203.71Z" fill="#D39F52"/>
<path d="M1926.92 3203.71C1935.37 3253.8 1920.92 3320.38 1877.19 3345.62C1844.91 3364.26 1825.46 3343.73 1773.62 3350.1C1680.04 3361.6 1666.16 3438.01 1595.47 3445.1C1528.85 3451.73 1442.36 3393.72 1421.1 3307.22C1420.37 3304.22 1419.73 3301.29 1419.17 3298.33C1443.66 3380.33 1526.81 3434.55 1591.35 3428.12C1662.03 3421.12 1675.91 3344.66 1769.49 3333.17C1821.33 3326.8 1840.78 3347.33 1873.06 3328.69C1920.4 3301.35 1931.07 3233.51 1922.34 3184.24C1924.25 3190.63 1925.78 3197.13 1926.92 3203.71Z" fill="#C18F4D"/>
<path d="M2322.21 3028.82C2327.11 3027.63 2329.86 3021.68 2328.37 3015.54C2326.88 3009.39 2321.7 3005.38 2316.81 3006.57C2311.91 3007.76 2309.15 3013.7 2310.65 3019.85C2312.14 3025.99 2317.32 3030.01 2322.21 3028.82Z" fill="#444444"/>
<path d="M2387.99 3011.04C2392.89 3009.85 2395.65 3003.9 2394.15 2997.76C2392.66 2991.61 2387.48 2987.6 2382.59 2988.79C2377.69 2989.98 2374.94 2995.92 2376.43 3002.07C2377.92 3008.21 2383.1 3012.23 2387.99 3011.04Z" fill="#444444"/>
<path d="M1774.4 3274.56C1804.32 3267.29 1823.15 3239.07 1816.45 3211.53C1809.76 3184 1780.08 3167.57 1750.16 3174.84C1720.24 3182.11 1701.42 3210.33 1708.11 3237.87C1714.8 3265.4 1744.48 3281.83 1774.4 3274.56Z" fill="#55473B"/>
<path d="M1573.38 3314.51L1587.16 3311.16C1591.19 3310.18 1593.67 3306.11 1592.69 3302.08L1575.24 3230.3C1574.26 3226.26 1570.2 3223.78 1566.16 3224.77L1552.38 3228.11C1548.35 3229.1 1545.87 3233.16 1546.85 3237.2L1564.3 3308.98C1565.28 3313.01 1569.34 3315.49 1573.38 3314.51Z" fill="#6B594B"/>
<path d="M1907.49 3153.3L2327.07 3055.19L2346.78 3139.48L1927.21 3237.59L1907.49 3153.3Z" fill="#C18F4D"/>
<path d="M1887.11 3149.1L2303.76 3051.67L2323.48 3135.96L1906.77 3233.41C1905.06 3233.8 1903.23 3233.1 1902.21 3231.67L1878.65 3198.22C1878.01 3197.31 1877.74 3196.2 1877.89 3195.1L1883.78 3152.75C1884.02 3150.98 1885.37 3149.5 1887.11 3149.1Z" fill="#806A4A"/>
<path d="M2306.8 3032.33L2427.09 2999.68C2440.68 2995.99 2455.09 3004.58 2458.31 3018.3L2476.81 3097.43C2480.08 3111.43 2470.53 3125.74 2456.35 3128.1L2332.07 3148.71C2318.96 3150.88 2306.06 3142.12 2303.25 3129.14L2288.73 3062.05C2285.93 3049.09 2294 3035.8 2306.8 3032.33Z" fill="#D39F52"/>
<path d="M2328.14 3059.49C2331.17 3059.49 2333.63 3057.03 2333.63 3054C2333.63 3050.97 2331.17 3048.51 2328.14 3048.51C2325.11 3048.51 2322.65 3050.97 2322.65 3054C2322.65 3057.03 2325.11 3059.49 2328.14 3059.49Z" fill="#E6E6E6"/>
<path d="M2393.73 3041.36C2396.76 3041.36 2399.22 3038.9 2399.22 3035.87C2399.22 3032.84 2396.76 3030.38 2393.73 3030.38C2390.7 3030.38 2388.24 3032.84 2388.24 3035.87C2388.24 3038.9 2390.7 3041.36 2393.73 3041.36Z" fill="#E6E6E6"/>
<path d="M2328.03 3053.9L2282.84 3068.05L1562.76 3240.03" stroke="#E5C89E" stroke-width="1.74661" stroke-miterlimit="10"/>
<path d="M1567.37 3257.13L2285.43 3083.95L2393.74 3035.76" stroke="#E5C89E" stroke-width="1.74661" stroke-miterlimit="10"/>
<path d="M2344.14 3125.35C2347.17 3125.35 2349.63 3122.89 2349.63 3119.86C2349.63 3116.83 2347.17 3114.37 2344.14 3114.37C2341.11 3114.37 2338.65 3116.83 2338.65 3119.86C2338.65 3122.89 2341.11 3125.35 2344.14 3125.35Z" fill="#E6E6E6"/>
<path d="M2410.75 3111.35C2413.78 3111.35 2416.24 3108.89 2416.24 3105.86C2416.24 3102.83 2413.78 3100.37 2410.75 3100.37C2407.72 3100.37 2405.26 3102.83 2405.26 3105.86C2405.26 3108.89 2407.72 3111.35 2410.75 3111.35Z" fill="#E6E6E6"/>
<path d="M2344.09 3120L2295.39 3119.67L1576.7 3297.41" stroke="#E5C89E" stroke-width="1.74661" stroke-miterlimit="10"/>
<path d="M1572.26 3277.14L2290.39 3104.36L2410.8 3105.94" stroke="#E5C89E" stroke-width="1.74661" stroke-miterlimit="10"/>
<path d="M2476.81 3097.43C2480.08 3111.43 2470.53 3125.74 2456.35 3128.1L2332.07 3148.71C2320.42 3150.64 2311.5 3145.5 2306 3137C2303.58 3133.26 2303.08 3128.35 2302.1 3123.82C2306.17 3135.17 2318.11 3142.19 2330.01 3140.23L2454.28 3119.61C2468.46 3117.26 2474.75 3104 2474.75 3089C2475.5 3092 2475.89 3093.5 2476.81 3097.43Z" fill="#B48240"/>
<path d="M2357.27 3163.41C2362.16 3162.22 2364.92 3156.27 2363.43 3150.13C2361.93 3143.98 2356.76 3139.96 2351.86 3141.15C2346.97 3142.34 2344.21 3148.29 2345.7 3154.43C2347.2 3160.58 2352.38 3164.59 2357.27 3163.41Z" fill="#444444"/>
<path d="M2420.1 3153.23C2424.99 3152.04 2427.75 3146.09 2426.26 3139.95C2424.76 3133.8 2419.59 3129.78 2414.69 3130.97C2409.8 3132.16 2407.04 3138.11 2408.53 3144.25C2410.03 3150.4 2415.21 3154.41 2420.1 3153.23Z" fill="#444444"/>
<path d="M1915.6 3142.3L1935.35 3226.59" stroke="#E5C89E" stroke-width="1.74661" stroke-miterlimit="10"/>
<path d="M1946.94 3135.11L1966.75 3219.38" stroke="#E5C89E" stroke-width="1.74661" stroke-miterlimit="10"/>
<path d="M1980.56 3127.4L2000.32 3211.69" stroke="#E5C89E" stroke-width="1.74661" stroke-miterlimit="10"/>
<path d="M2011.63 3120.07L2031.38 3204.35" stroke="#E5C89E" stroke-width="1.74661" stroke-miterlimit="10"/>
<path d="M2042.7 3112.73L2062.45 3197.02" stroke="#E5C89E" stroke-width="1.74661" stroke-miterlimit="10"/>
<path d="M2073.77 3105.4L2093.52 3189.68" stroke="#E5C89E" stroke-width="1.74661" stroke-miterlimit="10"/>
<path d="M2104.83 3098.06L2124.59 3182.35" stroke="#E5C89E" stroke-width="1.74661" stroke-miterlimit="10"/>
<path d="M2135.9 3090.72L2155.65 3175.01" stroke="#E5C89E" stroke-width="1.74661" stroke-miterlimit="10"/>
<path d="M2166.97 3083.39L2186.72 3167.68" stroke="#E5C89E" stroke-width="1.74661" stroke-miterlimit="10"/>
<path d="M2198.17 3076.36L2217.89 3160.65" stroke="#E5C89E" stroke-width="1.74661" stroke-miterlimit="10"/>
<path d="M2229.2 3069.11L2248.98 3153.38" stroke="#E5C89E" stroke-width="1.74661" stroke-miterlimit="10"/>
<path d="M2260.28 3061.84L2279.94 3146.14" stroke="#E5C89E" stroke-width="1.74661" stroke-miterlimit="10"/>
<path d="M1601.4 3259.89C1658.21 3259.93 1694.38 3191.78 1659.99 3144.62C1675.9 3099.41 1641.9 3049.22 1593.33 3048.06C1537.33 3046.73 1504.96 3106.57 1510.83 3157.2C1516.31 3204.51 1548.35 3259.84 1601.4 3259.89Z" fill="#F7C394" stroke="#333333" stroke-width="5" stroke-miterlimit="10"/>
<path d="M1510.83 3157.2C1517.61 3215.76 1565.2 3284 1636.2 3251C1567.37 3242.19 1519.2 3125.5 1553.09 3059.16C1547.7 3063 1539.2 3067.5 1525.49 3086.77C1513.2 3108.5 1507.79 3132.97 1510.83 3157.2Z" fill="black" fill-opacity="0.1"/>
</svg>
