<svg xmlns="http://www.w3.org/2000/svg" xmlns:xlink="http://www.w3.org/1999/xlink" width="4000" height="4000" fill="none" xmlns:v="https://vecta.io/nano"><style><![CDATA[.B{stroke:#333}.C{stroke-width:5}.D{fill:#000}.E{stroke-miterlimit:10}.F{fill:#7f6145}.G{fill-opacity:.15}.H{fill-opacity:.2}.I{fill-opacity:.1}.J{fill:#f7c394}.K{fill:#252526}]]></style><path d="M2275.1 3290.64c-50.77-7.42-115.16-32.27-196.86-76-11.87-6.35-16.67-21.85-10.25-33.84 6.35-11.87 21.85-16.66 33.84-10.25 75.45 40.37 136.18 64.12 180.5 70.6 28.93 4.23 49.75 1 61.88-9.64 13.6-11.92 12.4-33 8.83-72.4-4.17-46.12-9.36-103.53 19.78-169.5 44-99.72 153.63-194.53 269.1-176.7 73.33 11.36 143.6 66.2 159.73 140.6 13.73 63.36-6.02 150.17-73.53 174.43-44.77 16-95.93-2.36-130.84-32.08-10.44-8.68-11.95-25-3.06-35.44 8.8-10.34 25.15-11.64 35.48-2.62.43.36 43.66 36.65 81.5 23.06 42.84-15.38 49.77-78.95 41.56-116.78-11.75-54.23-65.6-93.57-118.5-101.77-92.84-14.33-180.8 68.5-215.72 147.5-23.9 54.16-19.56 102.32-15.72 144.8 4 43.84 7.7 85.25-25.67 114.5-27.66 24.4-67.07 26.8-102.02 21.54z" class="B C E F"/><path d="M2786.65 2965.53c11.06 51.02 1.18 114.55-37.82 152.08 51.4-33.7 65.07-107.56 52.82-164.08-16.13-74.4-86.4-129.24-159.73-140.6-66.26-10.23-131.78 18.56-181.54 60.82 114.12-80.75 293.3-60.36 326.27 91.78zm-69.03 112.53c-27.03 31.45-75.6 15.26-102.9-8.23-3.14-2.68-6.9-4.54-10.94-5.4a25.037 25.037 0 0 0-12.19.41c3.97-7.3 11.63-12.23 19.93-12.9 6.6-.53 13.15 1.6 18.2 5.9 22.07 19.5 59.84 35.17 87.9 20.24zm-644.12 95.44c3.5-3 15.5-9 23-5.5 6.98 3.26 15.34 7.4 24.73 12.03 49.42 24.4 127.47 62.97 183.77 62.97 50 0 54.5-25 47.5-91 .85 3.82 1.92 8.03 3.06 12.5 9.62 37.75 24.1 94.5-50.56 94.5-81.5 0-208.8-70.57-231.5-85.5z" class="D H"/><path d="M1587 3147c36.5 0 65.66-32.58 62.04-68.42-5.42-63.52 18.62-132.2 65.95-198.4 43.06-60.25 89.2-93.25 53.7-132.2s-115.56 3.92-155.4 59.5c-65.7 91.92-97.2 189.1-88.63 283.68 3.2 31.47 25.83 55.82 62.33 55.82z" class="B C E F"/><path d="M1553.1 3059.16c-.42-112.27 89.6-277.66 195.1-324.16-130-21-245 233.5-222.7 351.77 7.2-11.77 19.7-23.27 27.6-27.6z" class="D G"/><path d="M1959.37 3446.5c5-87.08 27.4-154.43 47.17-206.8s42.42-144.7-42.56-166.02c-121.5-30.5-188.3 254.12-193.3 340.94-2.93 51.08 36.82 110.33 88.4 113.3 47.48 2.3 97.45-31.8 100.3-81.4z" class="B C E F"/><path d="M1769.48 3414.5c51.5-7 148-7 188.5 34l1.66-15.04c-42.16-36.96-138.16-39.46-188.02-32.46-.26 3.3-1.86 10.13-2.14 13.5zm16-89.5c47.76 44.3 108.88 69.13 178 78.5.58-5 1.8-12.18 2.5-17-68.6-8.88-128.2-37.6-176-81-2 6-3.62 15.27-4.5 19.5z" class="D G"/><path d="M2040.63 3446.5c-5-87.08-27.4-154.43-47.17-206.8s-42.42-144.7 42.56-166.02c121.5-30.5 188.3 254.12 193.3 340.94 2.93 51.08-36.82 110.33-88.4 113.3-47.48 2.3-97.45-31.8-100.3-81.4z" class="B C E F"/><path d="M2230.52 3414.5c-51.5-7-148-7-188.5 34l-1.66-15.04c42.16-36.96 138.16-39.46 188.02-32.46.26 3.3 1.86 10.13 2.14 13.5zm-16-89.5c-47.76 44.3-108.88 69.13-178 78.5-.58-5-1.8-12.18-2.5-17 68.6-8.88 128.2-37.6 176-81 2 6 3.62 15.27 4.5 19.5z" class="D G"/><path d="M2413 3147c-36.5 0-65.66-32.58-62.04-68.42 5.42-63.52-18.62-132.2-65.95-198.4-43.06-60.25-89.2-93.25-53.7-132.2s115.56 3.92 155.4 59.5c65.7 91.92 97.2 189.1 88.63 283.68-3.2 31.47-25.83 55.82-62.33 55.82z" class="B C E F"/><path d="M2446.9 3059.16c.42-112.27-89.6-277.66-195.1-324.16 130-21 245 233.5 222.7 351.77-7.2-11.77-19.7-23.27-27.6-27.6z" class="D G"/><path d="M2000 2548c154 0 220 135 260 246s58 220 58 292c0 152-138.68 305.46-318 307-175.53 1.5-318-155-318-307 0-72 17.7-181.5 58-292 40-111 106-246 260-246z" class="B C E F"/><path d="M2000 3393c-175.67 1.6-330-157-318-337 10 148 145.15 288.48 318 287s308-139 318-287c12 180-142.33 335.4-318 337z" class="D G"/><path d="M1910 3556c32 0 63.1-23.6 66.7-56.14 9.1-82.2-94.35-89.68-150.67-90.92-57.1-1.25-154.03 9.56-171.02 72.27-14.85 54.8 36.5 74.8 73 74.8s49-12.15 92.98-12.15c38.4 0 57.02 12.15 89.02 12.15z" class="B C E J"/><path d="M1909 3534c-32 0-50.6-12.15-89.02-12.15-43.98 0-56.48 12.15-92.98 12.15-28.4 0-65.75-12.1-73.97-43.26-6.73 47.6 40.67 65.26 74.97 65.26 36.5 0 49-12.15 92.98-12.15 38.4 0 57.02 12.15 89.02 12.15 42.86 0 73-34.15 65.9-80.26-2.97 33.46-34.04 58.26-66.9 58.26z" class="D I"/><path d="M2090 3556c-32 0-63.1-23.6-66.7-56.14-9.1-82.2 94.35-89.68 150.67-90.92 57.1-1.25 154.03 9.56 171.02 72.27 14.85 54.8-36.5 74.8-73 74.8s-49-12.15-92.98-12.15c-38.42 0-57.02 12.15-89.02 12.15z" class="B C E J"/><g class="D"><path d="M2091 3534c32 0 50.6-12.15 89.02-12.15 43.98 0 56.48 12.15 92.98 12.15 28.4 0 65.75-12.1 73.97-43.26 6.73 47.6-40.67 65.26-74.97 65.26-36.5 0-49-12.15-92.98-12.15-38.4 0-57.02 12.15-89.02 12.15-42.86 0-73-34.15-65.9-80.26 2.97 33.46 34.04 58.26 66.9 58.26z" class="I"/><path d="M1544.83 2937.17c10.4-30.02 24.46-59.88 42.03-89.32 245.9-174.53 570.8-187.4 817.93-13.55 19.44 30.58 35.1 61.64 46.8 92.9l-99.9 130.47c-.8-56.08-23.32-115.42-63.53-173.03 20.4 77.66 29.84 149.2 29.84 201.35 0 5.18-.16 10.37-.48 15.55-35 44.6-65.92 82.87-78.5 95.32-9.3 28.72-20.7 74.92-29.65 114.94-55.42 48.7-128.23 80.5-209.37 81.2-81.63.7-156.1-32.77-212.44-84.08-7.1-38.32-15.94-81.25-25.3-108.53-12.52-11.97-43.67-48.6-79.2-91.68-.7-7.57-1.05-15.14-1.05-22.7 0-52 9.23-123.56 29.54-200.92-42.1 60.45-64.72 122.8-63.18 181.3l-103.53-129.2zm431.87 562.65c-19.66-22.13-43.14-55.1-45.24-73.5 28.9 12.72 49.5 34.84 45.24 73.5zm96.03-75.25c-5.53 16.4-29.9 50.57-49.57 73.84-3.8-39.6 18.87-61.58 49.57-73.84z" class="H"/></g><g class="B C"><path d="M2462 2884.5c-13.36 17.47-188.23 248.97-222.98 283.37-15.63 48.34-37.26 146.2-43.13 180.75-51.76 13.07-122.08 32.18-122 41.26.15 18-59.08 94.43-73.9 102.74-15-8.06-68.52-71.5-68.7-97.7 0-5-79.18-32.25-131.17-44.4-6.48-34.45-21.4-131.07-37.88-179.13-35.32-33.76-218.88-263.82-231.28-281.2-8.48-11.9-8.16-20.68 0-27.68 268.2-229.98 657.52-247.78 927.95-15 8.57 7.38 16.07 20 3.07 37z" fill="#3080bd"/><path d="M1998.05 3177.38c31-.08 119.13-8.42 193.77-16.1l-167.54 39.3c-15.16 3.56-36.23 3.6-51.5.07L1809.32 3163c74.16 7.1 158.8 14.46 188.73 14.38zm1.05 145.5c31-.1 119.14-8.43 193.77-16.1l-167.54 39.3c-15.16 3.55-36.23 3.58-51.5.07l-163.46-37.63c74.16 7.07 158.8 14.48 188.73 14.36z" fill="#24617f"/></g><path opacity=".3" d="M2001.5 3278c-9.46.24-18.92-.63-28.18-2.6l-163.45-37.62c74.15 7.06 158.8 14.43 188.73 14.35h2.88l.02 25.87z" class="D"/><path d="M2311.2 3143.53l-.84 3.7c-2.83 11.9-6.4 23.6-10.73 35.06-5.23 13.85-11.45 27.3-18.62 40.25-4.24 7.67-8.8 15.2-13.72 22.56l-.26.1-.2.07-.7.3-1.32.53-.54.22-.2.08-.8.32-.43.17-.53.2-.83.33-.87.34-.9.36-1 .37-2.52 1-1.18.46-.73.28-1.76.68-.43.17-.5.18-1.3.5-.43.17-.2.08-1.15.44-.87.33-6.42 2.43-.58.22-.55.2-2.27.85-1.26.46-.17.07-.74.27-5.13 1.88-1.5.54-.58.2-1.66.6-3.8 1.36-1.52.54-2.86 1-.16.06-1.53.53h-.13l-1 .34-.66.23-7.24 2.45-.56.18-3.85 1.26-1.44.46-2.84.9-1.4.43-1 .3-5.7 1.66-2.37.66-1.33.35-11.06 2.8-10.2 2.37-2.3.5c-6.78 1.5-13.65 2.92-20.6 4.24l-8 1.46-5.05.88-5.7.94-5.92.94-4.78.72-4.8.7-3.75.52-.55.08-.76.1-1.8.24-1.54.2-10.65 1.3-1.13.13-4.05.45-4.13.44-.73.08-.9.1-5.92.58-1.05.1-4.87.44-.92.08-5.44.45-1.08.1-2.13.16-4.42.32-3.14.22-2.75.17-2.13.14-2.13.12-2.87.16-2.87.15h-.08l-3.54.17-2 .1-1.58.07h-1.1l-3.06.12-11.72.35h-.4l-4.45.08-4.4.06h-14.78c-62.6-.45-124.43-8.17-178.1-23.88-4-1.16-8-2.42-12.06-3.75l-6.07-2.06-6.08-2.16-3-1.12c-8.1-3-16.1-6.3-23.9-9.75l-2.9-1.3-5.72-2.64-4.88-2.34-.7-.35-2.74-1.36-1.3-.65-2.93-1.5-2.63-1.4-3.7-2-1.3-.72-1.23-.68-.38-.22-.34-.2-1.76-1-1.07-.62-.35-.2-1-.6-2.37-1.4-.64-.4-.2-.12-.93-.56c-3.73-6.16-7.24-12.43-10.53-18.8-6.33-12.2-11.83-24.83-16.45-37.78-4.1-11.44-7.47-23.13-10.07-35a.657.657 0 0 0 .17.12c1 .73 2.06 1.46 3.1 2.18l4.75 3.25 3.5 2.33 1.66 1.1 3.72 2.4c1.53 1 3.06 1.94 4.6 2.9l.5.3 4.6 2.8 3.65 2.16 1.2.7c.15.1.3.2.46.27l4.78 2.74 1.66.94c.08.04.17.1.25.14l.25.14 1 .53 2.43 1.34 3.3 1.77 1.4.74 2.3 1.2 2.3 1.18c.05.04.1.07.17.1.37.2.75.4 1.13.58 13.76 7 27.87 13.3 42.27 18.86l4.68 1.78 4.7 1.72c.08.04.18.08.27.1.3.12.6.22.9.33l5 1.75 8.56 2.88c.36.13.73.25 1.1.36l2.62.83c.2.08.4.14.6.2l1.15.37.34.1 1.5.46c.76.25 1.52.48 2.28.7l2.46.74a15.667 15.667 0 0 0 .91.27l4.32 1.26 4 1.14 4.66 1.27 1.42.38 2.17.57 10 2.5 2.6.62 1.3.3 2 .46 7.84 1.72 3.9.8 3.83.77h.07l3.9.75 3.4.64 4.4.78 3.8.65h.22l3.08.5 4.66.73 3.93.6 3.1.44 2.93.4c7.74 1.05 15.5 1.95 23.25 2.68l4.36.4 4.37.37 4.36.34 4.36.3 16.12.87 2.84.12 1.8.06 3.16.1 2.23.06 4.34.1a133.386 133.386 0 0 1 4 .06c126 1.72 246.36-32.6 318.9-73.3l7.66-4.43 2.06-1.24c2.45-1.47 4.83-2.96 7.15-4.46l1.7-1.1z" fill="#d8d8d8"/><path opacity=".1" d="M2281 3222.54c-4.24 7.67-8.8 15.2-13.72 22.56l-.26.1-.2.07-.7.3-1.32.53-.3.1-.46.2-.8.32-.43.17-.53.2-.83.33-.87.34-.9.36-1 .37-2.52 1-1.18.46-.73.28-1.76.68-.43.17-.5.18-1.3.5-.45.17-.2.08-1.15.44-.87.33-6.42 2.43-.58.2-.55.2-2.27.85-1.43.53-.74.27-5.13 1.88-1.5.54-.58.2-1.66.6-3.8 1.36-3.04 1.08-1.5.52-1.53.53h-.13l-.63.22-.76.26-.28.1-7.24 2.45-.56.18-3.85 1.26-1.44.46-2.84.9-1.4.43-1 .3-5.7 1.66-2.37.66-1.33.35-11.06 2.8-10.2 2.37-2.3.5-20.6 4.24-8 1.46-5.05.88-5.7.94-5.92.94-4.78.72-4.8.7-3.75.52-.55.08-.76.1-1.8.24-1.54.2-10.65 1.3-1.13.13-4.05.45-4.13.44-.73.08-.9.1-5.92.58-1.05.1-4.87.44-.92.08-5.44.45-3.2.25-4.42.32-3.14.22-2.75.17-2.13.14-2.13.12-2.87.16-2.87.15h-.08l-3.54.17-2 .1-1.58.07-2.94.12h-1.2l-11.72.35h-.4l-4.45.08-4.4.06h-14.78c-62.6-.45-124.43-8.17-178.1-23.88-4-1.16-8-2.42-12.06-3.75l-6.07-2.06-6.08-2.16-3-1.12c-8.1-3-16.1-6.3-23.9-9.75l-2.9-1.3-5.72-2.64-4.88-2.34-.7-.35-2.74-1.36-4.18-2.14-2.63-1.4-3.7-2-1.3-.72-1.23-.68-.38-.22-.34-.2-1.76-1-1.07-.62-.35-.2-1-.6-2.37-1.4-.64-.4-.2-.12-.93-.57c-3.73-6.16-7.24-12.43-10.53-18.8 20.7 10.94 42.2 20.25 64.36 27.85 6.26 2.16 12.5 4.15 18.66 6 87.43 25.6 194.8 31.77 295 21.13 38.73-4 77.1-10.87 114.82-20.58 22.05-5.76 58.08-19.3 76.74-26.62zm28.26-77.74l1.94-1.26-.84 3.7c-2.83 11.9-6.4 23.6-10.73 35.06-20.9 8-52.68 19.72-74.17 25.57l-2.17.58c-115 30.13-256.57 36.9-378.1 15.84a651.485 651.485 0 0 1-71.59-16.44c-27.08-8.03-53.43-18.32-78.78-30.77-4.1-11.44-7.47-23.13-10.07-35a.657.657 0 0 0 .17.12c1 .74 2.06 1.46 3.1 2.18l4.75 3.25 3.5 2.33 1.66 1.1 3.72 2.4c1.53 1 3.06 1.94 4.6 2.9l.5.3 4.6 2.8 3.65 2.16 1.2.7c.15.1.3.2.46.27l4.78 2.74 1.66.94c.08.04.17.1.25.14l.25.13 1 .53 2.43 1.34 3.3 1.77 1.4.74 2.3 1.2 2.3 1.18c.05.04.1.07.17.1.37.2.75.4 1.13.58 13.76 7 27.87 13.3 42.27 18.86l4.68 1.78 4.7 1.72c.08.04.18.08.27.1.3.12.6.22.9.33l5 1.75 8.56 2.88c.36.13.73.25 1.1.36l2.62.83c.2.08.4.14.6.2l1.15.37c.6.2 1.22.4 1.83.56s1.52.48 2.28.7l2.46.74a15.667 15.667 0 0 0 .91.27l4.32 1.26 4 1.14 4.66 1.27 1.42.38 2.17.57 10 2.5 2.6.62 1.3.3 2 .46 7.84 1.72 3.9.8 3.83.77h.07l3.9.75 3.4.64 4.4.78 3.8.65h.22l3.08.5 4.66.73 3.93.6 3.1.44 2.93.4c7.74 1.05 15.5 1.95 23.25 2.68l4.36.4 4.37.37 4.36.34 4.36.3 16.12.87 2.84.12 1.8.06 3.16.1 2.23.06 4.34.1c1.33 0 2.66.02 4 .06 126 1.72 246.36-32.6 318.9-73.3l7.66-4.43 2.06-1.24a203.196 203.196 0 0 0 7.06-4.39z" class="D"/><path d="M2453.46 2842.84c-124.5 92.43-312.37 221.77-416.14 295.06-10.52 8.07-24.06 13.04-37.32 13.1s-25.52-4.8-36.12-12.77c-88.06-60.98-320.83-214.38-417.57-288.54 265.7-216.26 642.1-230.4 907.15-6.85z" fill="#24617f" class="B C"/><path d="M2000 2681.34c-169.1 2.8-331.5 63.23-469.02 181.16-8.16 7-8.48 15.8 0 27.68 12.4 17.4 195.96 247.45 231.28 281.2 13.3 38.74 25.56 109.04 33.2 152.9l4.67 26.24c52 12.15 131.17 39.4 131.17 44.4.17 26.2 53.7 89.64 68.7 97.7h0v-811.28z" fill-opacity=".3" class="D"/><g class="B C"><path d="M1727.63 3237.05c-18.04-29-31.3-60.3-38.75-92.36 193.3 125.38 447.92 95.22 622.48-.43-8.2 36.13-23.72 71.2-45.2 103.07-134.46 57.2-374.05 80.06-538.53-10.28z" fill="#c2c2c2"/><path d="M1716 3216.8c-9-17.05-16.36-34.74-21.9-52.77 159.9 111.47 432.4 104.8 610 6.38-6.66 20.22-15.58 39.93-26.53 58.73-132.4 50.43-339 82.44-561.57-12.34z" fill="#fff"/></g><path d="M1852.18 3213.12c-39.16 11.28-87.34 22.56-115.1 28.96a355.524 355.524 0 0 1-9.46-5.03c-18.04-29-31.3-60.3-38.75-92.36 51.02 33.1 106.32 55.36 163.3 68.43zm137.67 84.48c103.76.82 204.87-19.87 276.3-50.27 21.48-31.87 37-66.94 45.2-103.07l-10.2 5.47c-69.84 64.25-251.67 127.56-311.3 147.87z" class="D H"/><path d="M1292 2184c206.5 291.5 1183.5 262 1416 0 299.7-337.73-245.32-1201.587-708-864-462.7-337.56-1013.943 432.13-708 864z" fill="#ffcd98" class="B C"/><path d="M1659.2 1868l-136.56 149.95-83.6 49.15 40.6 67.16 120.08-40.3 46.03-78.86 13.45-147.1z" fill="#c15353" stroke="#c69c6d" stroke-width="3" class="E"/><path d="M1451.45 2070.25l78.45-46.96 118.05-131.06-11 120.06-43.32 74.22-110 36.93-32.18-53.2z" fill="#b76353"/><path d="M1463.87 2073.4l23.72 39.23 100-33.57 40.6-69.57 8.5-93-99.55 112.17-73.3 44.74z" fill="#c15353"/><path d="M1488.7 2079.67c19.48-11.45 43.3-27.17 62.95-40.38l62.54-74.33-3.56 38.95-35.2 60.28-79.9 26.8-6.83-11.33z" fill="#b76353"/><path d="M1790.97 1488.18c132.37 15.4 227.73 178.4 213.65 322-14 143-139.03 292.27-281.9 276.03-129.73-14.8-213.87-159.14-216.64-280.44-3.68-162.5 137.45-334.72 284.9-317.58z" fill="#fff"/><path d="M1951.7 1848.96c18.9-97.38-33.75-189.52-117.6-205.78-83.83-16.27-167.1 49.5-186 146.88-18.9 97.38 33.76 189.5 117.6 205.78 83.84 16.26 167.12-49.5 186-146.88z" fill="#bfdef2" class="B C E"/><g class="D"><path d="M1809.38 1948.38c50 0 90.54-45.33 90.54-101.24s-40.54-101.23-90.54-101.23-90.53 45.32-90.53 101.23 40.53 101.24 90.53 101.24z"/><path d="M1856.12 1508.64c-174.67-47.76-320.03 159.17-316.46 314.5 2.1 91.65 50.72 196.37 130.5 249.24-99.47-41.7-161.7-162.65-164.08-266.63-3.7-162.47 137.44-334.65 284.9-317.52 22.8 2.72 44.88 9.64 65.16 20.4z" fill-opacity=".05"/><path d="M1879.82 1661.22c-96.44-27.4-181.8 55.8-199.25 145.66-14.3 73.8 12.02 144.6 61.83 182.32-69.97-27.34-111.3-111.03-94.22-199.02 18.9-97.43 102.2-163.13 186.03-146.86 16.16 3.14 31.62 9.2 45.6 17.9z" class="G"/></g><path d="M2203.8 1488.56c-131.98 17.66-224.43 182.22-207.87 325.46 16.48 142.63 144.02 289.6 286.5 270.84 129.37-17.02 210.95-162.73 211.58-283.98.83-162.4-143.2-332-290.2-312.32z" fill="#fff"/><path d="M2237.73 1995.68c83.5-17.72 134.48-110.7 113.9-207.67-20.58-96.98-104.94-161.24-188.43-143.52-83.48 17.7-134.48 110.7-113.9 207.67 20.57 96.98 104.93 161.23 188.42 143.52z" fill="#bfdef2" class="B C E"/><g class="D"><path d="M2193.4 1948.72c49.96-.88 89.67-46.87 88.7-102.74-.98-55.86-42.27-100.44-92.23-99.57-49.97.87-89.68 46.87-88.7 102.73.97 55.87 42.27 100.45 92.23 99.58z"/><path d="M2493.97 1800.88c-.56 105.28-62.13 229-163.02 270.9 81.38-52.63 129.88-160.63 130.38-254.12.82-156.8-154.66-368.3-329.62-303.34 22.2-13.32 46.37-22.33 72.06-25.77 147.04-19.67 291.06 149.9 290.2 312.32z" fill-opacity=".05"/><path d="M2255.97 1990.3c51.97-37.27 79.08-110.23 63.08-185.58-19.12-90.13-108.02-172-203.9-139.8 14.54-9.93 30.9-16.93 48.12-20.6 83.5-17.72 167.85 46.53 188.44 143.48 19.05 89.76-23.2 176.08-95.75 202.5z" class="G"/><path d="M1813.8 2090.5c0 66.13 85.62 146.37 187.3 145.5 93.73-.82 185.12-80.15 185.12-145.3 0-131.75-372.42-133.74-372.42-.2z" class="I"/></g><path d="M1811.2 2074.9c0 66.13 86.8 146.37 189.9 145.5 95.04-.82 187.7-80.15 187.7-145.3 0-52.42-109.33-98.53-187.7-97.86-72.77.67-189.9 35.64-189.9 97.67z" class="F"/><path d="M1812.56 2063.45c36.17 47.4 107.98 87.42 188.68 86.8 74.66-.6 148.02-40.8 185.42-87.95 1.4 4.2 2.14 8.5 2.14 12.8 0 65.16-92.66 144.5-187.7 145.3-103.1.87-189.9-79.37-189.9-145.5 0-3.93.47-7.74 1.36-11.45z" class="D H"/><path d="M1601.4 3259.9c56.82.05 93-68.1 58.6-115.27 15.9-45.2-18.1-95.4-66.66-96.55-56-1.34-88.37 58.5-82.5 109.13 5.48 47.3 37.52 102.65 90.57 102.7z" class="B C E J"/><path d="M1510.83 3157.2c6.78 58.57 54.37 126.8 125.37 93.8-68.82-8.8-117-125.5-83.1-191.84-5.4 3.84-13.9 8.34-27.6 27.6-12.3 21.73-17.7 46.2-14.66 70.43z" class="D I"/><path d="M2398.6 3259.9c-56.82.05-93-68.1-58.6-115.27-15.92-45.2 18.08-95.4 66.66-96.55 56-1.34 88.36 58.5 82.5 109.13-5.48 47.3-37.52 102.65-90.57 102.7z" class="B C E J"/><g class="D"><path d="M2489.17 3157.2c-6.78 58.57-54.37 126.8-125.37 93.8 68.82-8.8 117-125.5 83.1-191.84 5.4 3.84 13.9 8.34 27.6 27.6 12.3 21.73 17.7 46.2 14.66 70.43z" class="I"/><path d="M2422.7 2818.33c-133 131.23-288.02 258.67-422.7 258.67-133.3 0-286.2-124.83-418.06-254.63 252.45-182.16 589.95-192.67 840.75-4.04z" fill-opacity=".3"/><path d="M2000 1900c-274.5 0-517-190.5-598.93-144.5-169.8 95.33 28.93 543 28.93 543C387.502 1002 3642.5 698 2599 2263.5c0 0 168.7-394.4 0-508-75-50.5-324.5 144.5-599 144.5z" class="H"/><path d="M1843.25 2076.18c-18.46 19.2-34 38.55-62 46.82-38.72 11.44-145.47-36.5-245.5-79-111.76-47.5-166.1-100.42-185-111-37.5-21-54.33-5.93-58.5 42.5 0 503 1416.24 522 1416.24 0-4.16-48.43-21-63.5-58.5-42.5-18.88 10.58-64 56.3-185 111-76.5 34.6-206.78 90.44-245.5 79-27.98-8.26-44.46-26.8-62.18-46.77-29.48-33.18-78.82-70.23-157.32-70.23s-120.5 32.5-156.75 70.18z" class="H"/></g><path d="M1512.57 2654c-79.5-40-332.44-224-384-533C1057.14 1693.03 1091 632 2000 632s972.44 884.14 871.5 1489c-51.57 309-304.5 493-384 533 28.98-183.35 280.2-833.9 111.5-947.5-75-50.5-324.5 144.5-599 144.5s-517-190.5-598.93-144.5c-169.8 95.33 83.8 772.26 111.5 947.5z" class="B C K"/><g class="D"><path d="M1344 1834.98c4.16-62.04 21.13-108.3 57.08-128.48 37.55-21.08 108.84 7.52 201.48 44.7 109.48 43.92 248.77 99.8 397.45 99.8 148.03 0 288.8-56.7 398.84-101.05 94-37.87 165.6-66.72 200.16-43.45 35.8 24.1 52.7 72.4 56.8 135.27 5.2-96.15-8.8-171.95-56.8-204.27-34.56-23.27-106.15 5.58-200.16 43.45C2288.8 1725.3 2148.03 1782 2000 1782c-148.68 0-287.97-55.9-397.45-99.8-92.64-37.17-163.93-65.77-201.48-44.7-48.28 27.1-62.33 101.23-57.08 197.48z" fill-opacity=".5"/><path d="M1105.32 1867.1C1091.73 1373.82 1239.94 632 2000 632c742.77 0 920.96 590.35 906.22 1136.27C2891.94 1259.3 2688.56 752 2000 752c-700.54 0-881.3 630.17-894.68 1115.1z" fill-opacity=".7"/></g><use xlink:href="#B" fill="#3182bf"/><path d="M2706.8 1986.5C2553.64 2179.53 2277 2430 2277 2430h-554s-250.1-214.67-427.77-450.02c7.06-31.78 23.98-39.65 55.53-21.98 18.9 10.58 73.24 63.5 185 111 100.03 42.5 206.78 90.44 245.5 79 28-8.27 43.53-27.63 62-46.82C1879.5 2063.5 1921.5 2031 2000 2031s127.84 37.05 157.32 70.23c17.72 19.96 34.2 38.5 62.18 46.77 38.72 11.44 169-44.4 245.5-79 121-54.7 166.12-100.42 185-111 33.6-18.82 50.62-8.67 56.8 28.5z" fill="#5aa8e0" class="B C"/><path d="M2000 2031c-40.56 0-71.38 8.68-96.7 22.26 7.8 54.05 25.14 129.2 63.7 185.74h66c38.24-56.5 55.63-131.56 63.52-185.6-25.74-13.26-57.53-22.4-96.52-22.4z" fill="#73b6e6"/><path d="M2730 2241.95c1.6-22.76 2.42-45.2 2.6-66.76-26.48 35.85-155.1 176.22-194.35 209.68-9.87-13.18-23.32-22.12-41.04-22.26-36-.37-65.54 45.25-66.18 101.9s11.36 102.16 47.27 102.48 82.26-44.67 82.84-101.26c.12-10.14-.95-22-3.42-33.98 27.05-24.76 160.37-171.6 172.3-189.75v-.05z" class="K"/><path d="M2517.32 2461.84c-.18 17.15-11.2 30.94-24.62 30.83s-24.2-14.1-24-31.25 11.25-30.93 24.68-30.77 24.17 14.05 23.94 31.2z" fill="#3a3a4c"/><path d="M1270 2241.95c-1.6-22.76-2.42-45.2-2.6-66.76 26.48 35.85 155.1 176.22 194.35 209.68 9.87-13.18 23.32-22.12 41.04-22.26 36-.37 65.54 45.25 66.18 101.9s-11.36 102.16-47.27 102.48-82.26-44.67-82.84-101.26c-.12-10.14.95-22 3.42-33.98-27.05-24.76-160.37-171.6-172.3-189.75v-.05z" class="K"/><path d="M1482.68 2461.84c.18 17.15 11.2 30.94 24.62 30.83s24.2-14.1 24-31.25-11.25-30.93-24.68-30.77-24.17 14.05-23.94 31.2z" fill="#3a3a4c"/><path d="M2146.9 2982c94.36-231.8 184.6-463.76 184.6-542 0-101.05-241.32-266-331.5-266-90.02 0-331.5 165.53-331.5 266 0 78.24 90.22 310.17 184.57 541.94 49.68 27.98 99.08 45.06 146.93 45.06 47.8 0 97.2-17.05 146.9-45z" fill="#23648c" class="B C"/><path d="M2104.16 3003.26c98.8-241.87 195.34-481.5 195.34-563.26 0-86.33-222.1-240-299.5-240-78.57 0-299.5 154.36-299.5 240 0 81.77 96.53 321.37 195.34 563.23 35.2 15.1 70.07 23.77 104.16 23.77 34.07 0 68.94-8.66 104.16-23.74z" fill="#242428"/><path d="M1751 2514.5s158.5-119 249-119 249 119 249 119M1851 2788s98.5-49 149-49 149 49 149 49m-244 136s63-29 95-29 95 29 95 29m-294-259s128-89 199-89 199 89 199 89" stroke="#000" stroke-width="10" stroke-linecap="round" stroke-linejoin="round"/><use xlink:href="#B" class="B C"/><defs ><path id="B" d="M1843.25 2101.18c-18.46 19.2-34 38.55-62 46.82-38.72 11.44-145.47-36.5-245.5-79-111.76-47.5-166.1-100.42-185-111-37.5-21-54.33-5.93-58.5 42.5-15 174.5-23.5 463.2 103.5 573 42.64 36.86 90.27 80.94 141.08 133.28C1679.7 2853.97 1847.67 3027 2000 3027c152.5 0 321.06-173.4 464.24-320.68 50.72-52.17 98.25-96.07 140.76-132.82 127-109.8 118.5-398.5 103.5-573-4.16-48.43-21-63.5-58.5-42.5-18.88 10.58-64 56.3-185 111-76.5 34.6-206.78 90.44-245.5 79-27.98-8.26-44.46-26.8-62.18-46.77-29.48-33.18-78.82-70.23-157.32-70.23s-120.5 32.5-156.75 70.18z"/></defs></svg>