<svg xmlns="http://www.w3.org/2000/svg" width="4000" height="4000" fill="none" xmlns:v="https://vecta.io/nano"><style><![CDATA[.B{fill:#000}.C{stroke:#333}.D{stroke-width:5}.E{stroke-miterlimit:10}.F{fill-opacity:.15}.G{fill-opacity:.2}.H{fill:#7f6145}.I{fill-opacity:.1}.J{fill:#fff}.K{fill:#f7c394}.L{fill:#736c3b}.M{fill:#cec467}.N{fill-opacity:.3}.O{fill:#f9eb3d}.P{stroke-linejoin:round}.Q{fill-rule:evenodd}]]></style><path d="M2275.1 3290.64c-50.77-7.42-115.16-32.27-196.86-76-11.87-6.35-16.67-21.85-10.25-33.84 6.35-11.87 21.85-16.66 33.84-10.25 75.45 40.37 136.18 64.12 180.5 70.6 28.93 4.23 49.75 1 61.88-9.64 13.6-11.92 12.4-33 8.83-72.4-4.17-46.12-9.36-103.53 19.78-169.5 44-99.72 153.63-194.53 269.1-176.7 73.33 11.36 143.6 66.2 159.73 140.6 13.73 63.36-6.02 150.17-73.53 174.43-44.77 16-95.93-2.36-130.84-32.08-10.44-8.68-11.95-25-3.06-35.44 8.8-10.34 25.15-11.64 35.48-2.62.43.36 43.66 36.65 81.5 23.06 42.84-15.38 49.77-78.95 41.56-116.78-11.75-54.23-65.6-93.57-118.5-101.77-92.84-14.33-180.8 68.5-215.72 147.5-23.9 54.16-19.56 102.32-15.72 144.8 4 43.84 7.7 85.25-25.67 114.5-27.66 24.4-67.07 26.8-102.02 21.54z" class="C D E H"/><path d="M2786.65 2965.53c11.06 51.02 1.18 114.55-37.82 152.08 51.4-33.7 65.07-107.56 52.82-164.08-16.13-74.4-86.4-129.24-159.73-140.6-66.26-10.23-131.78 18.56-181.54 60.82 114.12-80.75 293.3-60.36 326.27 91.78zm-69.03 112.53c-27.03 31.45-75.6 15.26-102.9-8.23-3.14-2.68-6.9-4.54-10.94-5.4a25.037 25.037 0 0 0-12.19.41c3.97-7.3 11.63-12.23 19.93-12.9 6.6-.53 13.15 1.6 18.2 5.9 22.07 19.5 59.84 35.17 87.9 20.24zm-644.12 95.44c3.5-3 15.5-9 23-5.5 6.98 3.26 15.34 7.4 24.73 12.03 49.42 24.4 127.47 62.97 183.77 62.97 50 0 54.5-25 47.5-91 .85 3.82 1.92 8.03 3.06 12.5 9.62 37.75 24.1 94.5-50.56 94.5-81.5 0-208.8-70.57-231.5-85.5z" class="B G"/><path d="M1587 3147c36.5 0 65.66-32.58 62.04-68.42-5.42-63.52 18.62-132.2 65.95-198.4 43.06-60.25 89.2-93.25 53.7-132.2s-115.56 3.92-155.4 59.5c-65.7 91.92-97.2 189.1-88.63 283.68 3.2 31.47 25.83 55.82 62.33 55.82z" class="C D E H"/><path d="M1553.1 3059.16c-.42-112.27 89.6-277.66 195.1-324.16-130-21-245 233.5-222.7 351.77 7.2-11.77 19.7-23.27 27.6-27.6z" class="B F"/><path d="M1959.37 3446.5c5-87.08 27.4-154.43 47.17-206.8s42.42-144.7-42.56-166.02c-121.5-30.5-188.3 254.12-193.3 340.94-2.93 51.08 36.82 110.33 88.4 113.3 47.48 2.3 97.45-31.8 100.3-81.4z" class="C D E H"/><path d="M1769.48 3414.5c51.5-7 148-7 188.5 34l1.66-15.04c-42.16-36.96-138.16-39.46-188.02-32.46-.26 3.3-1.86 10.13-2.14 13.5zm16-89.5c47.76 44.3 108.88 69.13 178 78.5.58-5 1.8-12.18 2.5-17-68.6-8.88-128.2-37.6-176-81-2 6-3.62 15.27-4.5 19.5z" class="B F"/><path d="M2040.63 3446.5c-5-87.08-27.4-154.43-47.17-206.8s-42.42-144.7 42.56-166.02c121.5-30.5 188.3 254.12 193.3 340.94 2.93 51.08-36.82 110.33-88.4 113.3-47.48 2.3-97.45-31.8-100.3-81.4z" class="C D E H"/><path d="M2230.52 3414.5c-51.5-7-148-7-188.5 34l-1.66-15.04c42.16-36.96 138.16-39.46 188.02-32.46.26 3.3 1.86 10.13 2.14 13.5zm-16-89.5c-47.76 44.3-108.88 69.13-178 78.5-.58-5-1.8-12.18-2.5-17 68.6-8.88 128.2-37.6 176-81 2 6 3.62 15.27 4.5 19.5z" class="B F"/><path d="M2413 3147c-36.5 0-65.66-32.58-62.04-68.42 5.42-63.52-18.62-132.2-65.95-198.4-43.06-60.25-89.2-93.25-53.7-132.2s115.56 3.92 155.4 59.5c65.7 91.92 97.2 189.1 88.63 283.68-3.2 31.47-25.83 55.82-62.33 55.82z" class="C D E H"/><path d="M2446.9 3059.16c.42-112.27-89.6-277.66-195.1-324.16 130-21 245 233.5 222.7 351.77-7.2-11.77-19.7-23.27-27.6-27.6z" class="B F"/><path d="M3133.2 1832.12c111.1 102 66.32 309.3-9.1 427.16-107.46 168-353.47 273.75-479.46 184.37-131.58-93.35-114.4-386.92 39.2-539.32 114.68-113.78 334.45-177.7 449.35-72.2z" class="C D E K"/><path d="M3003.5 1952.22c66 68.2 30.1 196.68-21.65 267.88-73.75 101.45-232.17 158.7-307.94 97.86-79.14-63.53-57.4-247.22 44.75-337.18 76.26-67.16 216.64-99.08 284.84-28.56z" fill="#ffc9a1"/><path d="M3124.1 2259.28c-60.7 94.85-195.1 203.22-346.6 216.72 106.36-25 260-133.85 306.64-206.72 75.4-117.87 115.36-338.97 9.1-427.16-32.4-26.9-114.73-65.12-227.73-45.12 138-42.5 222.8-6.13 267.73 35.12 111.06 102 66.28 309.3-9.13 427.16z" class="B I"/><path d="M866.818 1832.12c-111.1 102-66.32 309.3 9.1 427.16 107.46 168 353.472 273.75 479.462 184.37 131.58-93.35 114.4-386.92-39.2-539.32-114.68-113.78-334.452-177.7-449.352-72.2z" class="C D E K"/><path d="M996.518 1952.22c-66 68.2-30.1 196.68 21.652 267.88 73.75 101.45 232.17 158.7 307.94 97.86 79.14-63.53 57.4-247.22-44.75-337.18-76.26-67.16-216.64-99.08-284.842-28.56z" fill="#ffc9a1"/><path d="M875.908 2259.28C936.598 2354.13 1071 2462.5 1222.5 2476c-106.36-25-260.02-133.85-306.642-206.72-75.4-117.87-115.36-338.97-9.1-427.16 32.41-26.9 114.732-65.12 227.732-45.12-138.002-42.5-222.792-6.13-267.732 35.12-111.06 102-66.28 309.3 9.13 427.16z" class="B I"/><path d="M2000 2548c154 0 220 135 260 246s58 220 58 292c0 152-138.68 305.46-318 307-175.53 1.5-318-155-318-307 0-72 17.7-181.5 58-292 40-111 106-246 260-246z" class="C D E H"/><path d="M2000 3393c-175.67 1.6-330-157-318-337 10 148 145.15 288.48 318 287s308-139 318-287c12 180-142.33 335.4-318 337z" class="B F"/><path d="M2000 2672c104 0 160 68 174 128 34.5 147.82 64 274 4 350s-134.95 82-178 82c-47.55 0-118-6-178-82s-32.44-193.83 4-350c14-60 70-128 174-128z" class="C D E K"/><path d="M2000 3232c-136 0-224-94-213-216 4 115 96 190 213 190s209-75 213-190c11 122-77 216-213 216z" class="B I"/><g class="C D"><path d="M1905.8 3024.1c-21.36-28.14-30.3-70.05-13.9-126.12 39.07 101.2 178.53 101.37 217.53.02 16.4 56.06 7.46 97.97-13.9 126.1-22.3 29.4-58.5 44.2-94.88 44.2-36.36 0-72.56-14.8-94.87-44.2z" fill="#d6d6d6"/><path d="M1661.72 3350.5c-5.06-6.48-2.4-15.26 3.7-23.47 12.47-16.8 17.3-33.7 19.85-69.53 2.8-39.43-2.7-96.95-6.7-138.95-6.22-64.95-.76-128.4 16.58-191.24-26.64 46.18-42.33 101.46-46.14 154.7-63-62-113.4-18.63-132 36.54-12-103.54 29.9-215.84 85.27-296.92 255.62 98.95 543.28 100.75 798.73-.62 52.55 79.75 90.5 164.5 76.5 280-32.1-51.22-93.48-58.62-131-7.96 2-62.04-10.53-112.23-37.64-162.53 14.02 67.07 21.52 130.74 10.12 199.38-5.46 42.27-11.55 84.88-8.52 127.6 2.7 37.86 5.6 53.17 17.5 69.18 6.3 8.5 7.54 16.68 3.7 24.34-22.62 45-257.6 56.6-323 56.6 11.1-149-39.6-364.6 75.07-485.03-47.86 0-95.73-.1-143.6-.42 70 149.05 76.8 324.32 58.17 485.45-67.14-.88-294.78-3.62-336.56-57.13z" class="O P"/></g><path d="M2299.64 3318.28c-12.68-17.05-19.37-48.84-22-85.74-4.17-58.48 28.1-188.37 22.1-321.93 20.1 36.4 29.5 141.18 20.1 210.6h0c-5.7 41.94-13.3 98.08-10.56 136.46 2.63 36.9 7.68 53.8 20.33 70.84 39.7 53.5-163.6 77.5-320.6 77.5l1-27.5c102.5 0 316.48-24.08 289.64-60.22zm-580.24-85.74c-2.66 36.9-9.35 68.7-22 85.74-32.7 44.05 201.1 60.22 303.6 60.22l-3 28.5c-159.5 2-375.85-22.5-333.57-79.5 12.65-17.05 18.7-32.94 21.33-69.84 5.73-80.45-18.33-160.17-7.17-240.74 7.37-53.2 5.88-69.92 28.88-106.32-6.02 133.56 16.1 263.45 11.93 321.93zm-86.32-399.52c-31.18 50.62-75.33 144.98-75.33 227.92-18.55 11.83-32.66 33.6-40.75 57.6-12-103.54 29.9-215.84 85.27-296.92a1074.498 1074.498 0 0 0 30.81 11.4zm735.32-8.42c33.6 46.9 92.1 148.4 81.1 247.4 12 6 21 15 27 31.5 17-102-18-198-79.5-289.5-10.32 3.7-18.2 7.22-28.6 10.6z" class="B F"/><g class="C D"><path d="M1529.2 3056.7c-1.5-19.38 22.46-32.1 36.1-19.43 9.25-15.08 27.25-13.3 35.9-.42 15.8-13.86 37.8-3.36 36.4 15.06 27.1-6.3 31.07 29.6 16.9 46.58-24-65-108.04-53.6-139.5 17.5-19.5-17.5-13.48-57.8 14.2-59.3zm941.14 0c1.5-19.38-22.46-32.1-36.1-19.43-9.25-15.08-27.25-13.3-35.9-.42-15.8-13.86-37.8-3.36-36.4 15.06-27.1-6.3-31.07 29.6-16.9 46.58 24-65 105.5-54.1 136.97 17 19-22.5 16-57.3-11.66-58.8z" class="O"/><path d="M1985 3407.55V3187.3c0-73.74-24-183.3-53.3-245-19.64-28.12 19.86-31.7 29.3-9.26 5.43 12.92 32.55 93.02 39 111.4 9.63-23.5 35.17-100.5 42-111.4 12.5-20.04 39.22-6.72 25.3 16.33-13.68 24.74-48.6 100-52.3 237.46-1.97 74.12 0 145.67 0 220.9-10 .13-20-.07-30-.17z" class="J P"/></g><path d="M1985 3187.3v220.24h13V3187.3c0-73.74-24.7-185.1-54-246.8h-13.5c29.3 61.7 54.5 173.07 54.5 246.8zm9-124.8c1.5 2 5.5 4.5 10 6.5 14.14-34.48 36-119.5 59.97-144.27-6.5-3.28-15.9-1.4-21.98 8.3-17 35.96-33 88.45-48 129.46z" class="B F"/><path d="M1986.5 3160.42c-8.43-.01-15.48-7.06-15.5-15.5v-90.28c.01-8.43 7.06-15.48 15.5-15.5h24.57c8.43.01 15.48 7.06 15.5 15.5v90.28c-.01 8.43-7.06 15.48-15.5 15.5h-24.57zm-1.37-52c-.54 0-1 .46-1 1V3138c0 .54.46 1 1 1h27.74c.55 0 1-.46 1-1v-28.58c0-.54-.45-1-1-1h-27.74z" class="C D J"/><path d="M1991.76 3139c2.6 4.96 7.83 8.4 13.73 8.42h20.85c-1.22 7.3-7.7 13-15.28 13h-24.57c-8.43-.01-15.48-7.06-15.5-15.5v-90.28c.01-8.43 7.06-15.48 15.5-15.5h3.72l-.2 69.26h-4.88c-.54 0-1 .46-1 1v28.6c0 .54.46 1 1 1h6.64zM2395 2818c7.07 10.64 16.84 26.3 23 37-28.48 11.43-56.6 21.73-84.5 30.9-64.8 87.25-215.78 105.12-333.5 105.12-119.63 0-274.45-17.48-337.08-106.3-26.73-8.88-53.66-18.8-80.92-29.73 6.38-10.73 15.76-26.46 23-37 193.25 74.88 597.7 75.38 790 0z" class="B F"/><path d="M2267.76 936.82C2665.92 1066 2967.42 1339.94 2966 1847c-1.1 388.75-350.07 990.8-966.43 996.18-594.62 5.2-966.64-596.22-965.57-996.18 1.32-488.44 432.13-990.94 966-1028.5 533.3-37.484 934.2 335.03 267.76 118.32z" class="C D O P"/><path d="M2431 872.498c-90.07-15.35-223.24-40.92-397.06-28.7C1380.48 889.737 907 1615 1169.36 2202.88c68.14-70.38 151.14-90.38 177.6-99.16 7.94 8.57 17.6 17.67 21.05 21.78-81.37 25.35-175.93 80.4-216.63 156.84-76.27-147.6-117-302.56-116.6-435.33 1.32-488.45 432.22-991 966.1-1028.57 29.14-2.048 56.83-2.94 83.13-2.94 149.5 0 275.5 33.5 347 56.998zm533.5 974.572c-.36 127.74-38.12 278.5-110.54 423.57C2779 2168 2644.73 2127 2631 2127l20-24.5c23.5 5.5 128.62 27.9 187.28 106.2 59.3-132.15 86.52-255.16 86.84-370.86 1.47-524.24-353.62-784.84-657.36-901.02C2665.92 1066 2965.92 1340 2964.5 1847.07z" class="B F"/><path d="M1725 1203.5c-297 0-665 628.5-363.5 918.5-575.5 180 0 779 638.5 779s1214-599 638.5-779c301.5-290-66.5-918.5-363.5-918.5-126.5 0-195.5 58.5-275 116.5-79.5-58-148.5-116.5-275-116.5z" fill="#ffcd98" class="C D"/><g class="B"><path d="M2749.1 1817c-15.7-308.54-265-613.2-481.5-613.2-134.6 0-216.2 82.14-267.6 116.2-41.1-28.05-132.5-116.2-268.4-116.2-255.6 0-478.1 373.2-482.13 622.7C1227 1558 1433.07 1155 1733 1155c156 0 239 75 267 106 28-31 111-106 267-106 297.63 0 503.5 381.5 482.1 662z" class="F"/><path d="M1250.37 1807.4c-7.1 117.45 24.02 230 111.45 314.1-10.42 3.26-20.47 7.66-30.15 11.2 22.33-7.2 43.66-12.28 68.33-16.7-84.54-81.32-133.47-191.77-149.63-308.6zm-101.77 459.27c-135.93 245.26 334.32 633.83 851.4 633.83s993.17-392.85 849.75-637.86C2945.1 2486.74 2490.72 2863 2000 2863c-487.8 0-939.7-371.78-851.4-596.33zM2670.5 2133c-21.76-6.4-44.6-12.37-70.5-17 85.32-82.07 134.37-193.8 150.07-311.86 7.9 118.62-23 232.5-111.25 317.36 11.32 3.54 21.24 7.64 31.68 11.5z" class="I"/></g><path d="M1910 3556c32 0 63.1-23.6 66.7-56.14 9.1-82.2-94.35-89.68-150.67-90.92-57.1-1.25-154.03 9.56-171.02 72.27-14.85 54.8 36.5 74.8 73 74.8s49-12.15 92.98-12.15c38.4 0 57.02 12.15 89.02 12.15z" class="C D E K"/><path d="M1909 3534c-32 0-50.6-12.15-89.02-12.15-43.98 0-56.48 12.15-92.98 12.15-28.4 0-65.75-12.1-73.97-43.26-6.73 47.6 40.67 65.26 74.97 65.26 36.5 0 49-12.15 92.98-12.15 38.4 0 57.02 12.15 89.02 12.15 42.86 0 73-34.15 65.9-80.26-2.97 33.46-34.04 58.26-66.9 58.26z" class="B I"/><path d="M2090 3556c-32 0-63.1-23.6-66.7-56.14-9.1-82.2 94.35-89.68 150.67-90.92 57.1-1.25 154.03 9.56 171.02 72.27 14.85 54.8-36.5 74.8-73 74.8s-49-12.15-92.98-12.15c-38.42 0-57.02 12.15-89.02 12.15z" class="C D E K"/><path d="M2091 3534c32 0 50.6-12.15 89.02-12.15 43.98 0 56.48 12.15 92.98 12.15 28.4 0 65.75-12.1 73.97-43.26 6.73 47.6-40.67 65.26-74.97 65.26-36.5 0-49-12.15-92.98-12.15-38.42 0-57.02 12.15-89.02 12.15-42.86 0-73-34.15-65.9-80.26 2.97 33.46 34.04 58.26 66.9 58.26z" class="B I"/><path d="M1601.4 3259.9c56.8.05 92.98-68.1 58.6-115.27 15.9-45.2-18.1-95.4-66.66-96.55-56-1.34-88.37 58.5-82.5 109.13 5.48 47.3 37.52 102.65 90.57 102.7z" fill="#4b72d1" class="C D E"/><path d="M1510.83 3157.2c6.78 58.57 54.37 126.8 125.37 93.8-68.83-8.8-117-125.5-83.1-191.84-5.4 3.84-13.9 8.34-27.6 27.6-12.3 21.73-17.7 46.2-14.66 70.43z" class="B F"/><path d="M2398.6 3259.9c-56.82.05-93-68.1-58.6-115.27-15.92-45.2 18.08-95.4 66.66-96.55 56-1.34 88.36 58.5 82.5 109.13-5.48 47.3-37.53 102.65-90.57 102.7z" fill="#4b72d1" class="C D E"/><path d="M2489.17 3157.2c-6.78 58.57-54.37 126.8-125.37 93.8 68.82-8.8 117-125.5 83.1-191.84 5.4 3.84 13.9 8.34 27.6 27.6 12.3 21.73 17.7 46.2 14.66 70.43zm473.66-1378.26C2340 1220 1660 1220 1037.42 1780.83c1.04-21.5 2.8-43.36 5.25-65.55 518-547 1400.85-567.43 1919.52 2.96a1849.723 1849.723 0 0 1 .64 60.7z" class="B F"/><path d="M2962.83 1778.94C2448 1176 1552 1176 1037.42 1780.83c5.45-113.06 30.66-236.4 75.12-358 489.15-492.42 1350-453.782 1822.53 46.13 19.15 97.04 28.5 200.87 27.76 309.98z" fill="#4f4f4f" class="C D E"/><path d="M2962.1 1715.42c.6 20.08 2.5 44.62 2.4 65.08-507.5-595-1393.56-615-1927.5-.5 1.1-21.6 3.5-45.56 6.02-67.8 548-596.58 1410.5-586.93 1919.08 3.23z" class="B F"/><g class="C D E"><path d="M2779.66 1077.3c-362.17-279.15-928.4-339.034-1344.6-143.3 387.55-346.653 1048.32-301.672 1344.6 143.3z" class="L"/><path d="M2935.07 1469C2356 967 1644 967 1091.62 1484.73c53-188.6 151-355.62 289.3-498.63 286.18-295.875 1221.3-219.957 1429.72 141.17 61 105.73 100.53 222.3 124.44 341.73z" fill="#4f4927"/><path d="M2984.9 1219.16c-151.38-131.76-270.3-296.687-347.5-481.94-8.08-19.4 6.76-48.2 29.1-57.33l60.5-24.77c16.23-6.64 103 50 235.65 204.28 115.6 134.54 139.84 287.35 128.4 300.65l-42.62 49.6c-15.7 18.35-47.7 23.35-63.55 9.5z" fill="#f41655"/></g><path d="M3091.1 1160.05l-42.62 49.6c-15.72 18.3-47.72 23.3-63.58 9.5-151.4-131.76-270.3-296.69-347.5-481.95-8.08-19.4 6.76-48.18 29.1-57.3l11.75-4.8c75.62 146.8 178.44 277.894 303 386.3 15.86 13.8 47.85 8.8 63.58-9.5l20-23.23c27.6 69.93 32.83 123.73 26.26 131.38z" class="B G"/><path d="M2975 1309.36c-193.04-142.4-343.05-335.308-433.5-557.48l53.7-52.38c91.17 228.28 245.02 426.13 443.8 570.72l-64 39.14z" class="C D E L"/><path d="M2541.48 751.88c90.46 222.173 240.48 415.08 433.52 557.48l64-39.14-21.48-16-41.1 25.14a1303.812 1303.812 0 0 1-425-537.17l-9.95 9.7z" class="B G"/><g class="C D E"><path d="M2891.23 1335.22a1303.679 1303.679 0 0 1-395.45-508.53c-3.5-8-2.1-18.54 3.33-26l26.93-36.83c90.46 222.172 240.47 415.08 433.5 557.48l-42.33 17c-8.54 3.5-19.1 2.24-26-3.12z" class="L"/><path d="M3033 1285.2c-215.65-150.56-358.43-333.2-451.22-579.27-2.05-6.123-.48-13.052 4-17.7l35.62-34.74c5.28-5.15 12.08-3.63 14.6 3.18 93.08 250.25 238.47 436.2 458.08 588.06 6 4.14 5.76 11.1-.52 14.94l-42.45 26c-5.6 3.2-12.7 3-18.12-.47z" fill="#423809"/><path d="M2959.16 1331.22c-198.2-144.38-351.67-341.723-442.77-569.38-.8-2.208-.42-4.728 1-6.6l14.4-18.7c2.13-2.74 5.42-2.42 6.63.65 91.55 231.986 247.73 432.84 450 578.74 2.68 1.93 2.18 5.2-1 6.58l-21.66 9.36c-2.15.9-4.67.65-6.6-.65z" fill="#2d2d2d"/></g><g class="B"><path d="M2516.4 761.84c91.1 227.66 244.57 425 442.77 569.4 1.95 1.3 4.5 1.55 6.65.63l21.67-9.35c3.2-1.38 3.68-4.66 1-6.6l-5.73-4.15-10.2 4.4c-2.16.9-4.7.67-6.64-.64-197.9-144.14-351.18-341.094-442.33-568.3l-6.18 8c-1.43 1.873-1.82 4.404-1.02 6.62z" class="N"/><path d="M2495.78 826.7c87.2 199.93 223.17 374.78 395.45 508.54 6.9 5.35 17.45 6.6 26 3.18l42.33-17-13.1-9.8-18.28 7.35c-8.54 3.42-19.1 2.17-26-3.2a1303.679 1303.679 0 0 1-395.45-508.53c-1.96-4.747-2.44-9.974-1.4-15l-6.22 8.53c-5.43 7.4-6.82 17.93-3.33 25.93z" class="G"/><path d="M2581.78 705.94c92.8 246.1 235.57 428.7 451.24 579.27 5.43 3.5 12.54 3.66 18.14.44l42.45-26c6.28-3.85 6.5-10.82.5-15l-14.9-10.44-32.8 18.7c-5.7 3.04-12.8 2.65-18.13-1-206.66-154-342.45-336.53-427.95-577.93l-14.53 14.17c-4.52 4.66-6.1 11.635-4.03 17.8z" class="N"/><path d="M1091.62 1484.73C1644 967 2356 967 2935.07 1469c-6.1-30.54-13.25-60.9-21.5-90.93l-.5-1.77c-231.33-232.87-534.42-358.32-864.2-368.5-380.73-11.772-646 144.9-925.5 380.4-.08.2-.15.4-.23.6-11.84 31.32-22.35 63.3-31.52 95.92z" class="F"/></g><path d="M1075.28 1212.55c156.82-125.24 282.6-284.996 367.55-466.82 8.9-19.05-4.7-48.433-26.65-58.51l-59.4-27.306c-15.93-7.32-105.02 45.6-244.07 194.135C991.535 983.583 960.846 1135.23 971.704 1149l40.486 51.36c14.9 19 46.66 25.35 63.1 12.2z" fill="#f41655" class="C D E"/><path d="M971.672 1149l40.488 51.36c14.93 18.96 46.7 25.3 63.12 12.2 156.82-125.24 282.6-285 367.55-466.83 8.9-19.04-4.7-48.423-26.65-58.49l-11.53-5.303C1322.9 825.4 1214.6 952.03 1085.58 1055.08c-16.42 13.12-48.17 6.77-63.12-12.18l-19-24.05c-30.528 68.7-38.028 122.23-31.788 130.15z" class="B G"/><path d="M1081.35 1303.1c198.9-134.12 356.92-320.51 456.7-538.658l-51.44-54.604c-100.73 224.22-262.8 415.392-467.54 551.452l62.3 41.8z" class="C D E L"/><path d="M1538.05 764.432c-99.78 218.15-257.8 404.538-456.7 538.658l-62.3-41.8 22.14-15.08 40 26.85a1303.893 1303.893 0 0 0 447.33-518.72l9.53 10.102z" class="B G"/><g class="C D E"><path d="M1163.95 1332.46c177.78-126.35 321.02-295.3 416.6-491.353 3.83-7.845 2.9-18.435-2.22-26.118l-25.35-37.935c-99.77 218.15-257.8 404.536-456.7 538.656l41.57 18.77c8.4 3.85 18.98 3.05 26.1-2.02z" class="L"/><path d="M1024.42 1276.5c221.83-141.3 372.2-317.764 475.3-559.68 2.3-6.03 1.03-13.02-3.25-17.853l-34.12-36.215c-5.06-5.368-11.9-4.137-14.73 2.56-103.58 246.09-256.7 425.73-482.53 568.17-6.17 3.88-6.224 10.85-.112 14.95l41.313 27.77c5.46 3.43 12.55 3.55 18.12.3z" fill="#423809"/><path d="M1096.25 1325.6c204.13-135.87 365.8-326.554 466.45-550.156.9-2.172.6-4.706-.72-6.636l-13.6-19.292c-2-2.828-5.3-2.647-6.65.37-101.28 227.908-265.8 421.985-474.06 559.195-2.76 1.82-2.4 5.12.72 6.62l21.24 10.27c2.1.98 4.64.84 6.62-.37z" fill="#2d2d2d"/></g><g class="B"><path d="M1562.7 775.444c-100.65 223.605-262.32 414.296-466.45 550.166-2 1.22-4.55 1.36-6.67.34l-21.25-10.25c-3.13-1.52-3.48-4.82-.72-6.63l5.9-3.9 10 4.82c2.12 1 4.66.87 6.66-.36 203.8-135.64 365.3-325.938 465.96-549.098l5.84 8.254c1.35 1.932 1.63 4.477.74 6.658z" class="N"/><path d="M1580.55 841.107c-95.58 196.063-238.82 365.013-416.6 491.363-7.12 5.06-17.7 5.86-26.1 2.08l-41.57-18.77 13.5-9.25 17.95 8.12c8.4 3.78 18.98 2.97 26.1-2.1 177.8-126.36 321.03-295.3 416.6-491.358 2.16-4.66 2.86-9.86 2.02-14.928l5.86 8.786c5.1 7.623 6.05 18.202 2.23 26.047z" class="G"/><path d="M1499.73 716.83c-103.1 241.958-253.48 418.37-475.33 559.67-5.57 3.26-12.68 3.13-18.14-.32l-41.31-27.77c-6.112-4.12-6.027-11.1.124-15l15.34-9.8 31.968 20.07c5.57 3.28 12.68 3.18 18.16-.24 212.98-145.12 356.37-321.747 452-559.317l13.92 14.772c4.32 4.848 5.6 11.882 3.27 17.944z" class="N"/></g><path d="M2136.85 2257.75c-48.3 0-89.9 17.44-136.85 17.44s-88.55-17.44-136.85-17.44c-93.9 0-256.26-17.1-256.26 316.63 0 291.47 87.2 371.64 393.1 371.64s393.1-89.08 393.1-371.64c0-321.98-162.36-316.63-256.26-316.63zm61.3 380.78c-138 0 24.63-143.86-198.15-143.86s-60.16 143.86-198.15 143.86c-101.53 0-94.24-232.46-31.83-222.6 66.88 10.56 165.85-11.26 230-11.26s163.1 21.82 230 11.26c62.37-9.86 69.66 222.6-31.87 222.6z" class="C D E H"/><path d="M2198.15 2638.53c50.56 0 74.12-60.12 77.35-116.77 7.5 64.24-18.64 143.86-77.35 143.86-138 0 24.63-143.86-198.15-143.86s-60.15 143.86-198.15 143.86c-58.7 0-86.35-72.62-77.85-141.26 3.24 56.65 27.3 114.17 77.85 114.17 139.65 0-27.85-143.86 198.15-143.86 222.78 0 60.15 143.86 198.15 143.86zm-61.3-380.78c93.9 0 256.26-5.35 256.26 316.63-42.1-256.88-108.83-289.5-256.26-289.5-48.3 0-89.9 17.44-136.85 17.44s-88.55-17.44-136.85-17.44c-141.1 0-246.26 97.57-246.26 239.48 0 291.47 77.2 371.64 383.1 371.64 230.77 0 347.08-50.68 385.37-196.9C2358.3 2883.94 2255.33 2946 2000 2946c-321 0-393.1-97.47-393.1-371.62 0-229.38 66.6-316.7 225.12-316.7 97 0 117.5 17.5 168 17.5 46.96 0 88.55-17.44 136.85-17.44z" class="B F"/><path d="M1708.92 1564.05c117 13.6 201.3 157.7 188.86 284.63-12.37 126.42-122.9 258.37-249.2 244-114.68-13.07-189.06-140.68-191.5-247.9-3.25-143.66 121.5-295.9 251.86-280.73z" class="J"/><path d="M1851 1882.97c16.7-86.08-29.84-167.53-103.95-181.9s-147.73 43.75-164.43 129.84 29.84 167.53 103.95 181.9 147.73-43.75 164.43-129.84z" fill="#566859" class="C D E"/><path d="M1725.2 1970.86c44.2 0 80.03-40.07 80.03-89.5 0-49.43-35.83-89.5-80.03-89.5s-80.03 40.06-80.03 89.5c0 49.42 35.83 89.5 80.03 89.5z" class="B"/><path d="M1795.97 1818.82c5.63-15.9-3.33-33.58-20.02-39.48-16.68-5.9-34.77 2.2-40.4 18.1-5.63 15.9 3.34 33.58 20.02 39.48 16.68 5.9 34.77-2.2 40.4-18.1z" class="C D E J"/><g class="B"><path d="M1766.5 1582.13c-154.4-42.22-282.9 140.7-279.76 278.02 1.87 81.02 44.85 173.6 115.36 220.33-87.93-36.85-142.93-143.8-145.05-235.7-3.27-143.62 121.5-295.83 251.84-280.7 20.15 2.4 39.68 8.53 57.6 18.05z" fill-opacity=".05"/><path d="M1787.45 1717c-85.25-24.23-160.72 49.33-176.13 128.76-12.66 65.23 10.63 127.84 54.66 161.18-61.86-24.18-98.4-98.16-83.3-175.94 16.7-86.12 90.33-144.2 164.44-129.83 14.3 2.78 27.96 8.14 40.32 15.83z" class="F"/></g><path d="M2291.08 1564.05c-117 13.6-201.3 157.7-188.86 284.63 12.37 126.42 122.9 258.37 249.2 244 114.68-13.07 189.06-140.68 191.5-247.9 3.25-143.66-121.5-295.9-251.86-280.73z" class="J"/><path d="M2149 1882.97c-16.7-86.08 29.84-167.53 103.95-181.9s147.73 43.75 164.43 129.84-29.84 167.53-103.95 181.9-147.73-43.75-164.43-129.84z" fill="#566859" class="C D E"/><path d="M2274.8 1970.86c-44.2 0-80.03-40.07-80.03-89.5 0-49.43 35.83-89.5 80.03-89.5s80.03 40.06 80.03 89.5c0 49.42-35.83 89.5-80.03 89.5z" class="B"/><path d="M2204.03 1818.82c-5.63-15.9 3.33-33.58 20.02-39.48 16.68-5.9 34.77 2.2 40.4 18.1 5.63 15.9-3.34 33.58-20.02 39.48-16.7 5.9-34.77-2.2-40.4-18.1z" class="C D E J"/><g class="B"><path d="M2233.5 1582.13c154.4-42.22 282.9 140.7 279.75 278.02-1.87 81.02-44.84 173.6-115.36 220.33 87.94-36.85 142.93-143.8 145.05-235.7 3.27-143.62-121.5-295.83-251.84-280.7a164.387 164.387 0 0 0-57.6 18.05z" fill-opacity=".05"/><path d="M2212.55 1717c85.25-24.23 160.72 49.33 176.13 128.76 12.66 65.23-10.63 127.84-54.66 161.18 61.86-24.18 98.4-98.16 83.3-175.94-16.7-86.12-90.33-144.2-164.44-129.83-14.3 2.78-27.96 8.14-40.32 15.83z" class="F"/></g><path d="M1945 1665.55l9 28.37c25.28-8.7 61-14.52 92 1.47l9-26.66c-41.44-21.33-81.73-12.9-110-3.18z" class="M"/><path d="M1949.02 1664.2l4.98 15.7c25.28-8.7 61-14.52 92 1.47l4.95-14.65c1.35.63 2.7 1.3 4.05 2l-9 26.66c-31-16-66.72-10.16-92-1.47l-9-28.37 4.02-1.34z" class="B G"/><path d="M2966.08 1756.54c-74-46.6-158-90.63-270.38-97-19.3-1.1-21 28.9-1.7 30 105.6 6 185.5 48 256.1 92.48 16.16 9.9 32.42-15.12 16-25.48z" class="M"/><path opacity=".2" d="M2972.24 1764.23c-3.15 8.92-14.25 12.66-22.14 7.7-70.6-44.46-150.5-86.44-256.1-92.48-5.72-.33-10.87-4.02-13.03-9.32-2.52 9.17 3.38 18.78 13.03 19.32 105.6 6 185.5 48 256.1 92.48 4.76 3 10.2 2.72 14.6.42 5.93-3.48 9.93-11.36 7.54-18.1z" class="B"/><path opacity=".5" d="M2045.94 1712.8c-.86 138.7 77.88 373.5 285.06 396.2s474.7-96 375.5-404c-76.66-238.06-659.22-208-660.56 7.8z" fill="#8df7ff"/><path d="M2716.93 1697.02c23.57 79.52 24.86 147.66 9.34 204.85-45.96 169.36-240.4 234.5-399.8 217.05-194.48-21.3-297.53-232.63-297.53-410.1-.01-144 213.74-175.82 319.38-178.33 123.82-2.94 326.42 24.24 368.6 166.54zm-659.98 11.8c0 162.95 92.7 362.56 272.58 382.27 145.37 15.93 327.43-40.74 369.72-196.54 13.9-51.2 13.24-113.96-9.17-189.56-38-128.24-231.52-149.1-341.1-146.5-87.67 2.08-292.05 25.78-292.04 150.34z" class="M Q"/><path d="M2736.47 1815.2c-.5 26.32-4 50.87-10.2 73.67-45.96 169.35-240.4 234.5-399.8 217.05-191.45-20.98-294.3-226.08-297.46-401.77-.05 1.54-.07 3.1-.07 4.66 0 177.48 103.05 388.8 297.53 410.1 159.38 17.46 353.83-47.7 399.8-217.05 7.2-26.52 10.78-55.4 10.2-86.67zm-679.44-110.78l-.08-8.6c-.01-124.56 204.37-148.26 292.04-150.34 109.57-2.6 303.08 18.27 341.1 146.5 13.53 45.66 19.13 86.63 18.38 123.2-.66-33.2-6.43-69.88-18.38-110.2-38-128.24-231.52-149.1-341.1-146.5-86.63 2.06-287.2 25.22-291.96 145.95z" class="B G"/><path d="M1033.92 1756.27c74-46.6 158-90.63 270.38-97 19.3-1.1 21 28.9 1.7 30-105.6 6-185.5 48-256.1 92.48-16.15 9.9-32.42-15.13-16-25.48z" class="M"/><path opacity=".2" d="M1027.76 1763.96c3.16 8.92 14.25 12.66 22.14 7.7 70.6-44.46 150.5-86.44 256.1-92.48 5.73-.33 10.88-4.02 13.04-9.33 2.52 9.18-3.4 18.78-13.04 19.33-105.6 6-185.5 48-256.1 92.48-4.75 3-10.2 2.7-14.6.42-5.93-3.5-9.92-11.37-7.54-18.1z" class="B"/><path opacity=".5" d="M1954.06 1712.54c.86 138.7-77.88 373.5-285.06 396.2s-474.7-96-375.5-404c76.66-238.06 659.23-208 660.56 7.8z" fill="#8df7ff"/><path d="M1283.08 1696.75c-23.57 79.52-24.86 147.66-9.34 204.85 45.96 169.35 240.4 234.5 399.8 217.04 194.48-21.3 297.53-232.63 297.53-410.1 0-144-213.75-175.83-319.38-178.33-123.82-2.94-326.43 24.24-368.6 166.54zm659.98 11.8c0 162.95-92.7 362.56-272.58 382.27-145.37 15.93-327.44-40.74-369.72-196.55-13.9-51.2-13.24-113.95 9.16-189.56 38-128.24 231.53-149.1 341.1-146.5 87.68 2.08 292.05 25.78 292.05 150.34z" class="M Q"/><g class="B"><path d="M1263.54 1814.93c.5 26.3 4 50.86 10.2 73.67 45.96 169.35 240.4 234.5 399.8 217.04 191.44-20.97 294.3-226.07 297.46-401.76.05 1.54.07 3.1.07 4.66 0 177.47-103.05 388.8-297.53 410.1-159.4 17.47-353.83-47.7-399.8-217.04-7.2-26.52-10.78-55.4-10.2-86.67zm679.44-110.78l.08-8.6c0-124.56-204.37-148.26-292.05-150.34-109.56-2.6-303.08 18.26-341.1 146.5-13.53 45.66-19.13 86.64-18.38 123.2.67-33.2 6.43-69.88 18.38-110.2 38-128.24 231.53-149.1 341.1-146.5 86.64 2.06 287.22 25.22 291.97 145.95z" class="G"/><path d="M1785 2079c0 76.35 98.85 169 216.26 168 108.22-.95 213.74-92.55 213.74-167.78 0-152.13-430-154.42-430-.22z" class="I"/></g><path d="M1782 2061c0 76.35 100.23 169 219.27 168 109.73-.95 216.73-92.55 216.73-167.78 0-60.53-126.24-113.77-216.73-113-84.02.78-219.27 41.16-219.27 112.78z" class="H"/><path d="M1783.58 2047.77c41.76 54.75 124.68 100.94 217.85 100.22 86.2-.68 170.92-47.12 214.1-101.55 1.62 4.86 2.48 9.8 2.48 14.78 0 75.23-107 166.83-216.73 167.78-119.04 1-219.27-91.65-219.27-168 0-4.54.54-8.95 1.58-13.23z" class="B G"/></svg>