<svg width="4000" height="4000" viewBox="0 0 4000 4000" fill="none" xmlns="http://www.w3.org/2000/svg"><path d="M2782.93 2648c151.2 31.92 321.54 41.98 440.43-16.54 108.49-53.43-103.79-356.4-156.55-428.28-49.63-67.62 99.53-63.77 89.56-118.36-7.58-41.52-303.84-53.27-306.75-7.17-1.72 27.87 90.54 66.25 77.42 122.59-11.04 47.36-385.5 396.8-144.11 447.76z" fill="#DBC66B" stroke="#333" stroke-width="5" stroke-miterlimit="10"/><path d="M3043.63 2457.35c6.51-6.87-30.15-77.17-109.83-67.11-10.17 1.28-56.92 14.81-70.62 84.14-4.23 21.37 33.93 9.11 40.03.98 14.6-19.45 36.88-43.05 51.69-43.35 7.63-.16 45.33 31.02 71.97 30.3 5.78-.16 12.47-.43 16.76-4.96z" fill="#99883D"/><path d="M2934.81 2454.31c-6.5 6.85 30.15 77.16 109.83 67.1 10.15-1.27 56.9-14.81 70.62-84.13 4.23-21.37-33.94-9.11-40.05-.98-14.59 19.44-36.86 43.04-51.68 43.34-7.63.15-45.33-31.01-71.96-30.3-5.79.16-12.48.43-16.76 4.97z" fill="#99883D"/><path d="M3043.63 2457.35c6.51-6.87-30.15-77.17-109.83-67.11-10.17 1.28-56.92 14.81-70.62 84.14-4.23 21.37 33.93 9.11 40.03.98 14.6-19.45 36.88-43.05 51.69-43.35 7.63-.16 45.33 31.02 71.97 30.3 5.78-.16 12.47-.43 16.76-4.96z" stroke="#231F20" stroke-width="2" stroke-miterlimit="10"/><path d="M2934.81 2454.31c-6.5 6.85 30.15 77.16 109.83 67.1 10.15-1.27 56.9-14.81 70.62-84.13 4.23-21.37-33.94-9.11-40.05-.98-14.59 19.44-36.86 43.04-51.68 43.34-7.63.15-45.33-31.01-71.96-30.3-5.79.16-12.48.43-16.76 4.97z" stroke="#231F20" stroke-width="2" stroke-miterlimit="10"/><path d="M1027.93 2821c151.2 31.92 321.54 41.98 440.43-16.54 108.49-53.43-103.79-356.4-156.55-428.28-49.63-67.62 99.53-63.77 89.56-118.36-7.58-41.52-303.84-53.27-306.75-7.17-1.72 27.87 90.54 66.25 77.42 122.59-11.04 47.36-385.5 396.8-144.11 447.76z" fill="#DBC66B" stroke="#333" stroke-width="5" stroke-miterlimit="10"/><path d="M1288.63 2630.35c6.51-6.87-30.15-77.17-109.83-67.11-10.17 1.28-56.92 14.81-70.62 84.14-4.23 21.37 33.93 9.11 40.03.98 14.6-19.45 36.88-43.05 51.69-43.35 7.63-.16 45.33 31.02 71.97 30.3 5.78-.16 12.47-.43 16.76-4.96z" fill="#99883D"/><path d="M1179.81 2627.31c-6.5 6.85 30.15 77.16 109.83 67.1 10.15-1.27 56.9-14.81 70.62-84.13 4.23-21.37-33.94-9.11-40.05-.98-14.59 19.44-36.86 43.04-51.68 43.34-7.63.15-45.33-31.01-71.96-30.3-5.79.16-12.48.43-16.76 4.97z" fill="#99883D"/><path d="M1288.63 2630.35c6.51-6.87-30.15-77.17-109.83-67.11-10.17 1.28-56.92 14.81-70.62 84.14-4.23 21.37 33.93 9.11 40.03.98 14.6-19.45 36.88-43.05 51.69-43.35 7.63-.16 45.33 31.02 71.97 30.3 5.78-.16 12.47-.43 16.76-4.96z" stroke="#231F20" stroke-width="2" stroke-miterlimit="10"/><path d="M1179.81 2627.31c-6.5 6.85 30.15 77.16 109.83 67.1 10.15-1.27 56.9-14.81 70.62-84.13 4.23-21.37-33.94-9.11-40.05-.98-14.59 19.44-36.86 43.04-51.68 43.34-7.63.15-45.33-31.01-71.96-30.3-5.79.16-12.48.43-16.76 4.97z" stroke="#231F20" stroke-width="2" stroke-miterlimit="10"/><path d="M2445.46 2967.33c176.49 37.26 375.31 49 514.08-19.3 126.63-62.37-121.14-416-182.73-499.9-57.93-78.93 116.17-74.44 104.54-138.15-8.85-48.47-354.65-62.18-358.05-8.37-2 32.53 105.68 77.33 90.37 143.09-12.88 55.28-449.96 463.15-168.21 522.63z" fill="#DBC66B" stroke="#333" stroke-width="5" stroke-miterlimit="10"/><path d="M2749.75 2744.8c7.6-8.01-35.19-90.07-128.19-78.33-11.87 1.49-66.44 17.29-82.43 98.21-4.94 24.94 39.61 10.63 46.73 1.14 17.04-22.7 43.04-50.24 60.33-50.59 8.91-.19 52.91 36.2 84 35.36 6.75-.19 14.56-.5 19.56-5.79z" fill="#99883D"/><path d="M2622.74 2741.25c-7.59 8 35.19 90.07 128.19 78.33 11.85-1.49 66.42-17.29 82.43-98.2 4.94-24.95-39.61-10.64-46.74-1.15-17.03 22.7-43.03 50.24-60.32 50.59-8.91.18-52.91-36.2-84-35.36-6.75.18-14.56.5-19.56 5.79z" fill="#99883D"/><path d="M2749.75 2744.8c7.6-8.01-35.19-90.07-128.19-78.33-11.87 1.49-66.44 17.29-82.43 98.21-4.94 24.94 39.61 10.63 46.73 1.14 17.04-22.7 43.04-50.24 60.33-50.59 8.91-.19 52.91 36.2 84 35.36 6.75-.19 14.56-.5 19.56-5.79z" stroke="#231F20" stroke-width="2" stroke-miterlimit="10"/><path d="M2622.74 2741.25c-7.59 8 35.19 90.07 128.19 78.33 11.85-1.49 66.42-17.29 82.43-98.2 4.94-24.95-39.61-10.64-46.74-1.15-17.03 22.7-43.03 50.24-60.32 50.59-8.91.18-52.91-36.2-84-35.36-6.75.18-14.56.5-19.56 5.79z" stroke="#231F20" stroke-width="2" stroke-miterlimit="10"/><path d="M594.46 2862.31c176.49 37.26 375.3 49 514.08-19.3 126.63-62.37-121.14-416-182.73-499.9-57.93-78.93 91-74.81 104.54-138.15 7.08-33.05-85.83-30.54-161.72-28.79-25.38.59-49.53-7.94-66.5-5.84-20.48 2.53-41 11.2-58.32 10.52-40-1.56-69.91-9.6-71.51 15.74-2 32.53 105.68 77.33 90.37 143.09-12.88 55.28-449.96 463.15-168.21 522.63z" fill="#DBC66B" stroke="#333" stroke-width="5" stroke-miterlimit="10"/><path d="M898.75 2639.78c7.6-8.01-35.2-90.07-128.2-78.33-11.86 1.49-66.43 17.29-82.42 98.21-4.94 24.94 39.6 10.63 46.73 1.14 17.04-22.7 43.04-50.24 60.33-50.59 8.9-.19 52.9 36.2 84 35.36 6.75-.19 14.56-.5 19.56-5.79z" fill="#99883D"/><path d="M771.74 2636.23c-7.6 8 35.19 90.07 128.19 78.33 11.85-1.49 66.42-17.29 82.43-98.2 4.94-24.95-39.61-10.64-46.74-1.15-17.03 22.7-43.03 50.24-60.32 50.59-8.91.18-52.91-36.2-84-35.36-6.75.18-14.56.5-19.56 5.79z" fill="#99883D"/><path d="M898.75 2639.78c7.6-8.01-35.2-90.07-128.2-78.33-11.86 1.49-66.43 17.29-82.42 98.21-4.94 24.94 39.6 10.63 46.73 1.14 17.04-22.7 43.04-50.24 60.33-50.59 8.9-.19 52.9 36.2 84 35.36 6.75-.19 14.56-.5 19.56-5.79z" stroke="#231F20" stroke-width="2" stroke-miterlimit="10"/><path d="M771.74 2636.23c-7.6 8 35.19 90.07 128.19 78.33 11.85-1.49 66.42-17.29 82.43-98.2 4.94-24.95-39.61-10.64-46.74-1.15-17.03 22.7-43.03 50.24-60.32 50.59-8.91.18-52.91-36.2-84-35.36-6.75.18-14.56.5-19.56 5.79z" stroke="#231F20" stroke-width="2" stroke-miterlimit="10"/><path opacity=".13" d="M1108.56 2843.01c-138.77 68.34-337.58 56.55-514.08 19.3-61-12.87-87.5-42-91.61-80.29 128.77 70.87 441.13 56.57 561.67-2.59 100.52-49.51-34.91-282.58-125.83-418.55 76.9 107.32 288.91 423.48 169.85 482.13z" fill="#000"/><path fill-rule="evenodd" clip-rule="evenodd" d="M924.76 2314.78c-56.17-.1-112.36 2.27-168.6 7.11-7.43.75-7.95-12.35-.54-13.05a1911.62 1911.62 0 01168.59-7.16c7.42.11 8.02 13.2.55 13.1z" fill="#99883D" stroke="#231F20" stroke-width="2" stroke-miterlimit="10"/><path fill-rule="evenodd" clip-rule="evenodd" d="M924.76 2323.58c-56 5.7-112.3 8.09-168.6 7.17-7.18-.25-8.05-13.36-.54-13.13 56.29.94 112.58-1.43 168.59-7.1 7.55-.91 7.72 12.25.55 13.06z" fill="#99883D" stroke="#231F20" stroke-width="2" stroke-miterlimit="10"/><path fill-rule="evenodd" clip-rule="evenodd" d="M923.34 2333.76a1436.5 1436.5 0 00-168.41 10.59c-7.54 1.06-7.98-12.1-.82-13.07a1437.2 1437.2 0 01168.45-10.65c7.13.1 8.53 13.26.78 13.13z" fill="#99883D" stroke="#231F20" stroke-width="2" stroke-miterlimit="10"/><path fill-rule="evenodd" clip-rule="evenodd" d="M925.74 2334.2c-31.75 2.29-86.2 15-117.17 34.78-8.35 3.36-9.96-6.98-.35-13.12 31-19.8 85.5-37.93 117.17-34.78 7.61.76 10.11 12.42.35 13.12z" fill="#99883D" stroke="#231F20" stroke-width="2" stroke-miterlimit="10"/><path d="M2950.46 2862.31c176.49 37.26 375.31 49 514.08-19.3 126.63-62.37-121.14-416-182.73-499.9-57.93-78.93 91-74.81 104.54-138.15 7.08-33.05-85.83-30.54-161.72-28.79-25.38.59-49.53-7.94-66.49-5.84-20.49 2.53-41 11.2-58.33 10.52-40-1.56-69.91-9.6-71.51 15.74-2 32.53 105.68 77.33 90.37 143.09-12.88 55.28-449.96 463.15-168.21 522.63z" fill="#DBC66B" stroke="#333" stroke-width="5" stroke-miterlimit="10"/><path d="M3254.75 2639.78c7.6-8.01-35.19-90.07-128.19-78.33-11.87 1.49-66.44 17.29-82.43 98.21-4.94 24.94 39.61 10.63 46.73 1.14 17.04-22.7 43.04-50.24 60.33-50.59 8.91-.19 52.91 36.2 84 35.36 6.75-.19 14.56-.5 19.56-5.79z" fill="#99883D"/><path d="M3127.74 2636.23c-7.59 8 35.19 90.07 128.19 78.33 11.85-1.49 66.42-17.29 82.43-98.2 4.94-24.95-39.61-10.64-46.74-1.15-17.03 22.7-43.03 50.24-60.32 50.59-8.91.18-52.91-36.2-84-35.36-6.75.18-14.56.5-19.56 5.79z" fill="#99883D"/><path d="M3254.75 2639.78c7.6-8.01-35.19-90.07-128.19-78.33-11.87 1.49-66.44 17.29-82.43 98.21-4.94 24.94 39.61 10.63 46.73 1.14 17.04-22.7 43.04-50.24 60.33-50.59 8.91-.19 52.91 36.2 84 35.36 6.75-.19 14.56-.5 19.56-5.79z" stroke="#231F20" stroke-width="2" stroke-miterlimit="10"/><path d="M3127.74 2636.23c-7.59 8 35.19 90.07 128.19 78.33 11.85-1.49 66.42-17.29 82.43-98.2 4.94-24.95-39.61-10.64-46.74-1.15-17.03 22.7-43.03 50.24-60.32 50.59-8.91.18-52.91-36.2-84-35.36-6.75.18-14.56.5-19.56 5.79z" stroke="#231F20" stroke-width="2" stroke-miterlimit="10"/><path opacity=".13" d="M3464.56 2843.01c-138.77 68.34-337.58 56.55-514.08 19.3-61-12.87-87.5-42-91.61-80.29 128.77 70.87 441.13 56.57 561.67-2.59 100.52-49.51-34.91-282.58-125.83-418.55 76.9 107.32 288.91 423.48 169.85 482.13z" fill="#000"/><path fill-rule="evenodd" clip-rule="evenodd" d="M3280.76 2311.78c-56.17-.1-112.36 2.27-168.59 7.11-7.44.75-7.96-12.35-.55-13.05a1911.55 1911.55 0 01168.59-7.16c7.42.11 8.02 13.2.55 13.1z" fill="#99883D" stroke="#231F20" stroke-width="2" stroke-miterlimit="10"/><path fill-rule="evenodd" clip-rule="evenodd" d="M3280.76 2320.58a1433.7 1433.7 0 01-168.59 7.17c-7.19-.25-8.06-13.36-.55-13.13a1435.9 1435.9 0 00168.59-7.1c7.55-.91 7.72 12.25.55 13.06z" fill="#99883D" stroke="#231F20" stroke-width="2" stroke-miterlimit="10"/><path fill-rule="evenodd" clip-rule="evenodd" d="M3279.34 2330.76c-56.3.23-112.53 3.76-168.41 10.59-7.55 1.06-7.99-12.1-.82-13.07a1437.17 1437.17 0 01168.45-10.65c7.12.1 8.53 13.26.78 13.13z" fill="#99883D" stroke="#231F20" stroke-width="2" stroke-miterlimit="10"/><path fill-rule="evenodd" clip-rule="evenodd" d="M3281.74 2331.2c-31.75 2.29-86.19 15-117.17 34.78-8.35 3.36-9.96-6.98-.35-13.12 31-19.8 85.5-37.93 117.17-34.78 7.61.76 10.11 12.42.35 13.12z" fill="#99883D" stroke="#231F20" stroke-width="2" stroke-miterlimit="10"/><path d="M2630.46 3178.31c176.49 37.26 375.31 49 514.08-19.3 126.63-62.37-121.14-416-182.73-499.9-57.93-78.93 91-74.81 104.54-138.15 7.08-33.05-85.83-30.54-161.72-28.79-25.38.59-49.53-7.94-66.49-5.84-20.49 2.53-41 11.2-58.33 10.52-40-1.56-69.91-9.6-71.51 15.74-2 32.53 105.68 77.33 90.37 143.09-12.88 55.28-449.96 463.15-168.21 522.63z" fill="#DBC66B" stroke="#333" stroke-width="5" stroke-miterlimit="10"/><path d="M2934.75 2955.78c7.6-8.01-35.19-90.07-128.19-78.33-11.87 1.49-66.44 17.29-82.43 98.21-4.94 24.94 39.61 10.63 46.73 1.14 17.04-22.7 43.04-50.24 60.33-50.59 8.91-.19 52.91 36.2 84 35.36 6.75-.19 14.56-.5 19.56-5.79z" fill="#99883D"/><path d="M2807.74 2952.23c-7.59 8 35.19 90.07 128.19 78.33 11.85-1.49 66.42-17.29 82.43-98.2 4.94-24.95-39.61-10.64-46.74-1.15-17.03 22.7-43.03 50.24-60.32 50.59-8.91.18-52.91-36.2-84-35.36-6.75.18-14.56.5-19.56 5.79z" fill="#99883D"/><path d="M2934.75 2955.78c7.6-8.01-35.19-90.07-128.19-78.33-11.87 1.49-66.44 17.29-82.43 98.21-4.94 24.94 39.61 10.63 46.73 1.14 17.04-22.7 43.04-50.24 60.33-50.59 8.91-.19 52.91 36.2 84 35.36 6.75-.19 14.56-.5 19.56-5.79z" stroke="#231F20" stroke-width="2" stroke-miterlimit="10"/><path d="M2807.74 2952.23c-7.59 8 35.19 90.07 128.19 78.33 11.85-1.49 66.42-17.29 82.43-98.2 4.94-24.95-39.61-10.64-46.74-1.15-17.03 22.7-43.03 50.24-60.32 50.59-8.91.18-52.91-36.2-84-35.36-6.75.18-14.56.5-19.56 5.79z" stroke="#231F20" stroke-width="2" stroke-miterlimit="10"/><path opacity=".13" d="M3144.56 3159.01c-138.77 68.34-337.58 56.55-514.08 19.3-61-12.87-87.5-42-91.61-80.29 128.77 70.87 441.13 56.57 561.67-2.59 100.52-49.51-34.91-282.58-125.83-418.55 76.9 107.32 288.91 423.48 169.85 482.13z" fill="#000"/><path fill-rule="evenodd" clip-rule="evenodd" d="M2960.76 2628.78c-56.17-.1-112.36 2.27-168.59 7.11-7.44.75-7.96-12.35-.55-13.05a1911.55 1911.55 0 01168.59-7.16c7.42.11 8.02 13.2.55 13.1z" fill="#99883D" stroke="#231F20" stroke-width="2" stroke-miterlimit="10"/><path fill-rule="evenodd" clip-rule="evenodd" d="M2960.76 2637.58a1433.7 1433.7 0 01-168.59 7.17c-7.19-.25-8.06-13.36-.55-13.13a1435.9 1435.9 0 00168.59-7.1c7.55-.91 7.72 12.25.55 13.06z" fill="#99883D" stroke="#231F20" stroke-width="2" stroke-miterlimit="10"/><path fill-rule="evenodd" clip-rule="evenodd" d="M2959.34 2647.76c-56.3.23-112.53 3.76-168.41 10.59-7.55 1.06-7.99-12.1-.82-13.07a1437.17 1437.17 0 01168.45-10.65c7.12.1 8.53 13.26.78 13.13z" fill="#99883D" stroke="#231F20" stroke-width="2" stroke-miterlimit="10"/><path fill-rule="evenodd" clip-rule="evenodd" d="M2961.74 2648.2c-31.75 2.29-86.19 15-117.17 34.78-8.35 3.36-9.96-6.98-.35-13.12 31-19.8 85.5-37.93 117.17-34.78 7.61.76 10.11 12.42.35 13.12z" fill="#99883D" stroke="#231F20" stroke-width="2" stroke-miterlimit="10"/><path d="M2736.43 3373.58c-99.11 20.92-182.91 35.53-283.31 35.39-106.81-.16-99.44-35.19-245.86-41.83-118.76-5.38-79.64-271.93 21.42-390.23 70-81.94 147.14-146.12 155.24-185.28 23-111.12-7.2-123.86-65.28-135.12-38.45-7.47-39.52-56.66 67.61-45.08 29.26 3.17 98.67 12.9 128.68-2.09 21.4-10.69 45.54 7.75 65.66 7 46.37-1.81 89.57 22.9 61.51 31.76-26.39 8.33-89.05 79.8-83.5 145.35 2.63 31.11 116.36 80.3 179.94 198.38 29.94 55.61 6.24 148.84 14.23 198.12 9.07 55.78 93.64 160.41-16.34 183.63z" fill="#DBC66B" stroke="#333" stroke-width="5" stroke-miterlimit="10"/><path d="M2545.62 3122.02c8.8-9.28-40.82-104.39-148.57-90.79-13.73 1.74-76.99 20.05-95.55 113.82-5.72 28.91 45.9 12.32 54.17 1.32 19.74-26.31 49.91-58.23 69.91-58.64 10.36-.2 61.36 42 97.36 41 7.83-.21 16.87-.58 22.68-6.71z" fill="#99883D"/><path d="M2398.44 3117.9c-8.8 9.28 40.82 104.39 148.57 90.79 13.73-1.73 76.99-20.04 95.55-113.8 5.72-28.91-45.91-12.32-54.17-1.32-19.75 26.31-49.91 58.22-69.91 58.63-10.37.19-61.37-42-97.37-41-7.83.21-16.86.58-22.67 6.7z" fill="#99883D"/><path d="M2545.62 3122.02c8.8-9.28-40.82-104.39-148.57-90.79-13.73 1.74-76.99 20.05-95.55 113.82-5.72 28.91 45.9 12.32 54.17 1.32 19.74-26.31 49.91-58.23 69.91-58.64 10.36-.2 61.36 42 97.36 41 7.83-.21 16.87-.58 22.68-6.71z" stroke="#231F20" stroke-width="2" stroke-miterlimit="10"/><path d="M2398.44 3117.9c-8.8 9.28 40.82 104.39 148.57 90.79 13.73-1.73 76.99-20.04 95.55-113.8 5.72-28.91-45.91-12.32-54.17-1.32-19.75 26.31-49.91 58.22-69.91 58.63-10.37.19-61.37-42-97.37-41-7.83.21-16.86.58-22.67 6.7z" stroke="#231F20" stroke-width="2" stroke-miterlimit="10"/><path fill-rule="evenodd" clip-rule="evenodd" d="M2374.36 2780.54a2219.12 2219.12 0 01195.52-4.11c8.66.3 8.31-14.9-.31-15.18a2216.38 2216.38 0 00-195.53 4.06c-8.58.67-8.15 15.87.32 15.23z" fill="#99883D" stroke="#231F20" stroke-width="2" stroke-miterlimit="10"/><path fill-rule="evenodd" clip-rule="evenodd" d="M2374.25 2788.6a1663.73 1663.73 0 00195.57-1.69c8.33-.69 8.82-15.95-.12-15.23a1661.4 1661.4 0 01-195.56 1.76c-8.95-.6-8.28 14.64.11 15.16z" fill="#99883D" stroke="#231F20" stroke-width="2" stroke-miterlimit="10"/><path fill-rule="evenodd" clip-rule="evenodd" d="M2375.1 2804.42a1663.25 1663.25 0 01195.53-3.83c8.79.5 8.15-14.76-.25-15.17a1665.4 1665.4 0 00-195.53 3.76c-8.52.78-8.47 16.03.25 15.24z" fill="#99883D" stroke="#231F20" stroke-width="2" stroke-miterlimit="10"/><path fill-rule="evenodd" clip-rule="evenodd" d="M2375.57 2804.58c36.71-3.66 125.23 3.07 161.13 26 9.65 3.93 9.3-8.58.41-15.2-34.21-25.45-136.23-28.54-160.68-27.45-12.01.53-10.16 19.23-.86 16.65z" fill="#99883D" stroke="#231F20" stroke-width="2" stroke-miterlimit="10"/><path opacity=".13" d="M2736.43 3373.58c-99.1 20.92-182.92 35.53-283.32 35.38-106.81-.15-99.43-35.18-245.86-41.82-39.35-1.79-61.38-32.25-69.54-76.49 188.03 10.1 328.05 46.99 521.87 6.08 97.34-20.54 19.28-369.67-34.97-437.64 36.92 31 81.82 73.09 113.92 132.71 29.94 55.6 6.24 148.84 14.23 198.12 9.07 55.81 93.66 160.44-16.33 183.66z" fill="#000"/><path d="M1298.43 3096.58c-99.11 20.92-182.91 35.53-283.31 35.39-106.81-.16-99.44-35.19-245.86-41.83-118.76-5.38-79.64-271.93 21.42-390.23 70-81.94 147.14-146.12 155.24-185.28 23-111.12-7.2-123.86-65.28-135.12-38.45-7.47-39.52-56.66 67.6-45.08 29.27 3.17 98.68 12.9 128.69-2.09 21.4-10.69 45.54 7.75 65.66 7 46.37-1.81 89.57 22.9 61.51 31.76-26.39 8.33-89.05 79.8-83.5 145.35 2.63 31.11 116.36 80.3 179.94 198.38 29.94 55.61 6.24 148.84 14.23 198.12 9.07 55.78 93.64 160.41-16.34 183.63z" fill="#DBC66B" stroke="#333" stroke-width="5" stroke-miterlimit="10"/><path d="M1107.63 2845.02c8.8-9.28-40.82-104.39-148.57-90.79-13.73 1.74-77 20.05-95.55 113.82-5.72 28.91 45.9 12.32 54.17 1.32 19.74-26.31 49.9-58.23 69.9-58.64 10.37-.2 61.37 42 97.37 41 7.83-.21 16.87-.58 22.68-6.71z" fill="#99883D"/><path d="M960.45 2840.9c-8.8 9.28 40.82 104.39 148.57 90.79 13.73-1.73 76.99-20.04 95.55-113.8 5.72-28.91-45.91-12.32-54.17-1.32-19.75 26.31-49.91 58.22-69.91 58.63-10.37.19-61.37-42-97.38-41-7.83.21-16.86.58-22.66 6.7z" fill="#99883D"/><path d="M1107.63 2845.02c8.8-9.28-40.82-104.39-148.57-90.79-13.73 1.74-77 20.05-95.55 113.82-5.72 28.91 45.9 12.32 54.17 1.32 19.74-26.31 49.9-58.23 69.9-58.64 10.37-.2 61.37 42 97.37 41 7.83-.21 16.87-.58 22.68-6.71z" stroke="#231F20" stroke-width="2" stroke-miterlimit="10"/><path d="M960.45 2840.9c-8.8 9.28 40.82 104.39 148.57 90.79 13.73-1.73 76.99-20.04 95.55-113.8 5.72-28.91-45.91-12.32-54.17-1.32-19.75 26.31-49.91 58.22-69.91 58.63-10.37.19-61.37-42-97.38-41-7.83.21-16.86.58-22.66 6.7z" stroke="#231F20" stroke-width="2" stroke-miterlimit="10"/><path fill-rule="evenodd" clip-rule="evenodd" d="M936.37 2497.54a2219.13 2219.13 0 01195.52-4.11c8.65.3 8.3-14.9-.31-15.18a2216.42 2216.42 0 00-195.53 4.06c-8.59.67-8.16 15.87.32 15.23z" fill="#99883D" stroke="#231F20" stroke-width="2" stroke-miterlimit="10"/><path fill-rule="evenodd" clip-rule="evenodd" d="M936.24 2505.6a1663.65 1663.65 0 00195.57-1.69c8.34-.69 8.83-15.95-.12-15.23a1661.3 1661.3 0 01-195.56 1.76c-8.94-.6-8.27 14.64.11 15.16z" fill="#99883D" stroke="#231F20" stroke-width="2" stroke-miterlimit="10"/><path fill-rule="evenodd" clip-rule="evenodd" d="M937.1 2521.42a1663.34 1663.34 0 01195.53-3.83c8.79.5 8.15-14.76-.25-15.17a1665.48 1665.48 0 00-195.53 3.76c-8.52.78-8.47 16.03.25 15.24z" fill="#99883D" stroke="#231F20" stroke-width="2" stroke-miterlimit="10"/><path fill-rule="evenodd" clip-rule="evenodd" d="M937.57 2521.58c36.7-3.66 125.23 3.07 161.13 26 9.65 3.93 9.3-8.58.41-15.2-34.21-25.45-136.23-28.54-160.68-27.45-12.01.53-10.16 19.23-.86 16.65z" fill="#99883D" stroke="#231F20" stroke-width="2" stroke-miterlimit="10"/><path opacity=".13" d="M1298.43 3096.58c-99.1 20.92-182.92 35.53-283.32 35.38-106.8-.15-99.43-35.18-245.86-41.82-39.35-1.79-61.38-32.25-69.53-76.49 188.02 10.1 328.04 46.99 521.86 6.08 97.34-20.54 19.28-369.67-34.97-437.64 36.92 31 81.82 73.09 113.92 132.71 29.94 55.6 6.24 148.84 14.23 198.12 9.07 55.81 93.66 160.44-16.33 183.66z" fill="#000"/><path d="M1725.72 3340.94c-196.29 41.43-368.43 49.56-529.17-6.44-112.26-39.11-79.64-271.93 21.42-390.23 70-81.94 147.14-146.12 155.24-185.28 23-111.12-15.41-111.69-65.28-135.12-109.63-51.51 354.27-106.98 323.46-8.41-8.09 25.9-89.05 79.8-83.5 145.35 2.63 31.11 130.59 51.61 194.17 169.69 29.94 55.61-7.99 177.53 0 226.81 9.07 55.78 93.64 160.41-16.34 183.63z" fill="#DBC66B" stroke="#333" stroke-width="5" stroke-miterlimit="10"/><path d="M1534.92 3089.38c8.8-9.28-40.82-104.39-148.57-90.79-13.73 1.74-76.99 20.05-95.55 113.82-5.72 28.91 45.9 12.32 54.17 1.32 19.74-26.31 49.91-58.23 69.91-58.64 10.36-.2 61.36 42 97.36 41 7.83-.21 16.87-.58 22.68-6.71z" fill="#99883D"/><path d="M1387.74 3085.26c-8.8 9.28 40.82 104.39 148.57 90.79 13.73-1.73 76.99-20.04 95.55-113.8 5.72-28.91-45.91-12.32-54.17-1.32-19.75 26.31-49.91 58.22-69.91 58.63-10.37.19-61.37-42-97.37-41-7.83.21-16.86.58-22.67 6.7z" fill="#99883D"/><path d="M1534.92 3089.38c8.8-9.28-40.82-104.39-148.57-90.79-13.73 1.74-76.99 20.05-95.55 113.82-5.72 28.91 45.9 12.32 54.17 1.32 19.74-26.31 49.91-58.23 69.91-58.64 10.36-.2 61.36 42 97.36 41 7.83-.21 16.87-.58 22.68-6.71z" stroke="#231F20" stroke-width="2" stroke-miterlimit="10"/><path d="M1387.74 3085.26c-8.8 9.28 40.82 104.39 148.57 90.79 13.73-1.73 76.99-20.04 95.55-113.8 5.72-28.91-45.91-12.32-54.17-1.32-19.75 26.31-49.91 58.22-69.91 58.63-10.37.19-61.37-42-97.37-41-7.83.21-16.86.58-22.67 6.7z" stroke="#231F20" stroke-width="2" stroke-miterlimit="10"/><path opacity=".13" d="M1725.72 3340.94c-99.1 20.92-182.91 35.53-283.31 35.38-78.12-2.82-121.12-4.32-238.12-38.82-37.78-11.14-61-43.5-71.5-79.5 385.79 58.99 709.6 77.05 485.21-447 43 25 90.4 57.38 122.5 117 29.94 55.6-6.43 180 1.56 229.28 9.07 55.81 93.65 160.44-16.34 183.66z" fill="#000"/><path d="M2275.11 3290.64c-50.77-7.42-115.16-32.27-196.86-76-11.87-6.35-16.67-21.85-10.25-33.84 6.35-11.87 21.85-16.66 33.84-10.25 75.45 40.37 136.18 64.12 180.5 70.6 28.93 4.23 49.75 1 61.88-9.64 13.61-11.92 12.39-33 8.83-72.39-4.17-46.12-9.36-103.53 19.78-169.51 44-99.72 153.63-194.53 269.09-176.7 73.33 11.36 143.6 66.19 159.73 140.59 13.73 63.36-6.02 150.17-73.53 174.43-44.77 16-95.93-2.36-130.84-32.08-10.44-8.68-11.95-25-3.06-35.44 8.81-10.34 25.15-11.64 35.48-2.62.43.36 43.66 36.65 81.49 23.06 42.84-15.38 49.77-78.95 41.56-116.78-11.75-54.23-65.6-93.57-118.51-101.77-92.84-14.33-180.8 68.49-215.72 147.49-23.91 54.16-19.56 102.32-15.72 144.81 4 43.84 7.71 85.25-25.67 114.5-27.66 24.4-67.07 26.8-102.02 21.54z" fill="#494542" stroke="#333" stroke-width="5" stroke-miterlimit="10"/><path d="M2786.65 2965.53c11.06 51.02 1.18 114.55-37.82 152.08 51.41-33.7 65.07-107.56 52.82-164.08-16.13-74.41-86.39-129.24-159.73-140.6-66.26-10.23-131.78 18.56-181.54 60.82 114.12-80.75 293.29-60.36 326.27 91.78z" fill="#000" fill-opacity=".4"/><path d="M2717.62 3078.06c-27.03 31.45-75.59 15.26-102.89-8.23a24.94 24.94 0 00-23.13-5 25.21 25.21 0 0119.93-12.9 25 25 0 0118.2 5.89c22.07 19.5 59.84 35.17 87.89 20.24zM2073.5 3173.5c3.5-3 15.5-9 23-5.5 6.98 3.26 15.34 7.39 24.73 12.03 49.42 24.41 127.47 62.97 183.77 62.97 50 0 54.5-25 47.5-91a442 442 0 003.06 12.51c9.62 37.75 24.09 94.49-50.56 94.49-81.5 0-208.79-70.57-231.5-85.5z" fill="#000" fill-opacity=".4"/><path d="M1587 3147c36.5 0 65.66-32.58 62.04-68.42-5.42-63.52 18.62-132.19 65.95-198.39 43.05-60.25 89.21-93.25 53.71-132.19-35.5-38.94-115.57 3.92-155.4 59.5-65.71 91.92-97.19 189.11-88.63 283.68 3.19 31.47 25.83 55.82 62.33 55.82z" fill="#494542" stroke="#333" stroke-width="5" stroke-miterlimit="10"/><path d="M1553.08 3059.16c-.41-112.27 89.62-277.66 195.12-324.16-130-21-245 233.5-222.72 351.77 7.22-11.77 19.72-23.27 27.6-27.61z" fill="#000" fill-opacity=".3"/><path d="M1959.37 3446.51c5-87.08 27.4-154.43 47.17-206.81 19.77-52.38 42.42-144.7-42.56-166.02-121.5-30.49-188.31 254.12-193.3 340.94-2.93 51.08 36.82 110.33 88.4 113.29 47.48 2.31 97.45-31.79 100.29-81.4z" fill="#233E5E" stroke="#333" stroke-width="5" stroke-miterlimit="10"/><path d="M1769.48 3414.5c51.5-7 148-7 188.5 34 .34-3.09 1.44-11.94 1.66-15.04-42.16-36.96-138.16-39.46-188.02-32.46-.26 3.3-1.86 10.13-2.14 13.5zM1785.48 3325c47.76 44.29 108.88 69.13 178 78.5.58-5.01 1.81-12.18 2.5-17-68.6-8.88-128.2-37.6-176-81-2 6-3.62 15.27-4.5 19.5z" fill="#000" fill-opacity=".2"/><path d="M2040.63 3446.51c-5-87.08-27.4-154.43-47.17-206.81-19.77-52.38-42.42-144.7 42.56-166.02 121.5-30.49 188.31 254.12 193.3 340.94 2.93 51.08-36.82 110.33-88.4 113.29-47.48 2.31-97.45-31.79-100.29-81.4z" fill="#233E5E" stroke="#333" stroke-width="5" stroke-miterlimit="10"/><path d="M2230.52 3414.5c-51.5-7-148-7-188.5 34-.34-3.09-1.44-11.94-1.66-15.04 42.16-36.96 138.16-39.46 188.02-32.46.26 3.3 1.86 10.13 2.14 13.5zM2214.52 3325c-47.76 44.29-108.88 69.13-178 78.5-.58-5.01-1.81-12.18-2.5-17 68.6-8.88 128.2-37.6 176-81 2 6 3.62 15.27 4.5 19.5z" fill="#000" fill-opacity=".2"/><path d="M2413 3147c-36.5 0-65.66-32.58-62.04-68.42 5.42-63.52-18.62-132.19-65.95-198.39-43.06-60.25-89.21-93.25-53.71-132.19 35.5-38.94 115.56 3.92 155.4 59.5 65.71 91.92 97.19 189.11 88.63 283.68-3.19 31.47-25.83 55.82-62.33 55.82z" fill="#494542" stroke="#333" stroke-width="5" stroke-miterlimit="10"/><path d="M2446.91 3059.16c.42-112.27-89.61-277.66-195.11-324.16 130-21 245 233.5 222.71 351.77-7.21-11.77-19.71-23.27-27.6-27.61z" fill="#000" fill-opacity=".3"/><path d="M3133.19 1832.12c111.1 102 66.32 309.29-9.09 427.16-107.46 168-353.47 273.75-479.46 184.37-131.58-93.35-114.4-386.92 39.2-539.32 114.68-113.78 334.45-177.69 449.35-72.21z" fill="#F7C394" stroke="#333" stroke-width="5" stroke-miterlimit="10"/><path d="M3003.49 1952.22c66 68.19 30.1 196.68-21.65 267.88-73.75 101.45-232.17 158.69-307.94 97.86-79.14-63.53-57.39-247.22 44.75-337.18 76.26-67.16 216.64-99.08 284.84-28.56z" fill="#FFC9A1"/><path d="M3124.1 2259.28c-60.69 94.85-195.1 203.22-346.6 216.72 106.36-25 260.01-133.85 306.64-206.72 75.41-117.87 115.36-338.97 9.09-427.16-32.41-26.89-114.73-65.12-227.73-45.12 138-42.5 222.79-6.13 267.73 35.12 111.06 101.99 66.28 309.29-9.13 427.16z" fill="#000" fill-opacity=".1"/><path d="M866.82 1832.12c-111.1 102-66.32 309.29 9.09 427.16 107.46 168 353.47 273.75 479.46 184.37 131.58-93.35 114.4-386.92-39.2-539.32-114.68-113.78-334.45-177.69-449.35-72.21z" fill="#F7C394" stroke="#333" stroke-width="5" stroke-miterlimit="10"/><path d="M996.52 1952.22c-66 68.19-30.1 196.68 21.65 267.88 73.75 101.45 232.17 158.69 307.94 97.86 79.14-63.53 57.39-247.22-44.75-337.18-76.26-67.16-216.64-99.08-284.84-28.56z" fill="#FFC9A1"/><path d="M875.9 2259.28c60.7 94.85 195.11 203.22 346.61 216.72-106.36-25-260.02-133.85-306.64-206.72-75.41-117.87-115.36-338.97-9.1-427.16 32.42-26.89 114.74-65.12 227.74-45.12-138-42.5-222.8-6.13-267.73 35.12-111.06 101.99-66.28 309.29 9.13 427.16z" fill="#000" fill-opacity=".1"/><path d="M2000 2548c154 0 220 135 260 246s58 220 58 292c0 152-138.68 305.46-318 307-175.53 1.51-318-155-318-307 0-72 17.7-181.5 58-292 40-111 106-246 260-246z" fill="#494542" stroke="#333" stroke-width="5" stroke-miterlimit="10"/><ellipse cx="2000" cy="2944.5" rx="88" ry="111.5" fill="#FFCD98"/><path d="M2220.79 3301.3c60.32-58.13 97.21-136.91 97.21-215.3 0-52.14-9.44-123.69-29.84-201.35 45.24 64.82 68.1 131.83 62.8 193.93-3.62 35.84 25.54 68.42 62.04 68.42s59.14-24.35 62.33-55.82c8.49-93.84-22.43-190.25-87.1-281.54-99 42.28-226.55 68.67-366.44 71.17L2000 2995l-21.79-114.19c-139.89-2.5-267.44-28.89-366.44-71.17-64.67 91.29-95.59 187.7-87.1 281.54 3.19 31.47 25.83 55.82 62.33 55.82s65.66-32.58 62.04-68.42c-5.29-61.96 17.46-128.82 62.5-193.5C1691.23 2962.44 1682 3034 1682 3086c0 77.91 37.43 157 97.55 215.39 143.44 39.57 297.82 39.54 441.24-.09z" fill="#FEEBFF" stroke="#333" stroke-width="5" stroke-linecap="round" stroke-linejoin="round"/><path d="M2241.41 2834.14l-132.15 159.15-90.61-93.19 222.76-65.96z" fill="#000" fill-opacity=".1"/><path d="M2243.24 2813.14l-127.71 148.19-94.92-59.21 222.63-88.98z" fill="#FEEBFF" stroke="#333" stroke-width="5" stroke-miterlimit="10" stroke-linecap="round" stroke-linejoin="round"/><path d="M1758.59 2834.14l132.15 159.15 90.61-93.19-222.76-65.96z" fill="#000" fill-opacity=".1"/><path d="M1756.76 2813.14l127.71 148.19 94.92-59.21-222.63-88.98z" fill="#FEEBFF" stroke="#333" stroke-width="5" stroke-miterlimit="10" stroke-linecap="round" stroke-linejoin="round"/><path d="M2355 2822.5c61.5 84 115.5 198.5 83 319.5 73-18.5 26.5-198.5-1.42-250.26-14.98-27.77-29.3-56.94-48.57-82-11.65 4.97-20.59 8.24-33.01 12.76zM1644.5 2822.5c-58.83 82.24-114 195-82.5 319.5-73-18.5-26.5-198.5 1.42-250.26 14.98-27.77 29.3-56.94 48.57-82a580.69 580.69 0 0032.51 12.76z" fill="#000" fill-opacity=".15"/><path d="M2307.42 3159.61c-35.6 124.28-157.26 232.1-307.42 233.39-145.44 1.25-268.18-105.98-305.99-229.25 208.63 65.46 438.94 53.4 613.41-4.14z" fill="#233E5E" stroke="#333" stroke-width="5" stroke-miterlimit="10"/><path d="M1695.89 3169.66a275.43 275.43 0 01-12.57-58.1c182.76 65.1 450.81 63.42 633.78-4.22a274.67 274.67 0 01-11.45 58.2c-194.17 66.56-442.74 59.64-609.76 4.12z" fill="#0C0C0B" stroke="#333" stroke-width="5" stroke-miterlimit="10"/><path d="M2072.52 3146h-145.04c-8 0-14.48 6.46-14.48 14.42v49.16c0 7.96 6.48 14.42 14.48 14.42h145.04c8 0 14.48-6.46 14.48-14.42v-49.16c0-7.96-6.48-14.42-14.48-14.42z" fill="#0C0C0B" stroke="#333" stroke-width="5" stroke-miterlimit="10"/><path d="M2000 3393c-175.67 1.59-330-157-318-337 10 148 145.15 288.48 318 287 172.85-1.48 308-139 318-287 12 180-142.33 335.41-318 337z" fill="#000" fill-opacity=".2"/><path d="M2395 2818c-115.35 45.22-271 79-395 79s-259.34-26.43-395-79c-7.24 10.54-16.61 26.27-23 37 142 57 275 86 418 86s276-29 418-86a778.28 778.28 0 00-23-37z" fill="#000" fill-opacity=".15"/><path d="M2500.32 839c42.32-35.85-124.32-76-146.52-139.49-26.8-76.51 395.59 127.1 331.57 261.08-5 10.51-55.43 94-417.61-23.77C2665.92 1066 2967.42 1339.94 2966 1847c-1.09 388.75-350.07 990.81-966.43 996.18-594.62 5.19-966.64-596.22-965.57-996.18 1.32-488.44 432.13-990.94 966-1028.5 319.41-22.45 465.29 50.1 500.32 20.5z" fill="#494542" stroke="#333" stroke-width="5" stroke-linecap="round" stroke-linejoin="round"/><path d="M2565.16 861.34c-29.66 65.16-211.81-40-531.22-17.54C1380.48 889.74 907 1615 1169.36 2202.88c68.14-70.38 151.14-90.38 177.59-99.16 7.94 8.57 17.6 17.67 21.05 21.78-81.37 25.35-175.93 80.41-216.63 156.84-76.27-147.6-117-302.56-116.59-435.33 1.32-488.45 432.22-991 966.09-1028.57 319.41-22.45 464.56 50.1 499.59 20.46 42.18-35.75-124.46-75.9-146.65-139.39-8.57-24.46 28.82-20.27 81.55 1.13-20-2.88-31 1.83-25.55 15.87 19.38 50.39 180.3 90.02 155.35 144.83z" fill="#000" fill-opacity=".14"/><path d="M2964.5 1847.07c-.36 127.74-38.12 278.51-110.54 423.57C2779 2168 2644.73 2127 2631 2127c4-5 16-19.7 20-24.5 23.5 5.5 128.62 27.91 187.28 106.2 59.3-132.15 86.52-255.16 86.84-370.86 1.47-524.24-353.62-784.84-657.36-901.02C2665.92 1066 2965.92 1340 2964.5 1847.07z" fill="#000" fill-opacity=".14"/><path d="M1725 1203.5c-297 0-665 628.5-363.5 918.5-575.5 180 0 779 638.5 779s1214-599 638.5-779c301.5-290-66.5-918.5-363.5-918.5-126.5 0-195.51 58.5-275 116.5-79.5-58-148.5-116.5-275-116.5z" fill="#FFCD98" stroke="#333" stroke-width="5"/><path d="M2749.1 1817c-15.7-308.54-265-613.19-481.5-613.19-134.6 0-216.2 82.14-267.6 116.19-41.1-28.05-132.5-116.19-268.4-116.19-255.6 0-478.1 373.19-482.13 622.71C1227 1558 1433.07 1155 1733 1155c156 0 239 75 267 106 28-31 111-106 267-106 297.63 0 503.5 381.5 482.1 662z" fill="#000" fill-opacity=".14"/><path d="M1148.6 2266.67c-135.93 245.26 334.32 633.83 851.4 633.83 517.08 0 993.17-392.85 849.75-637.86C2945.11 2486.74 2490.72 2863 2000 2863c-487.79 0-939.69-371.78-851.4-596.33zM1250.37 1807.39c-7.11 117.45 24.02 230.01 111.45 314.11-10.42 3.26-20.47 7.66-30.15 11.19 22.33-7.19 43.66-12.28 68.33-16.69-84.54-81.32-133.47-191.77-149.63-308.61zM2670.5 2133c-21.76-6.41-44.6-12.37-70.5-17 85.32-82.07 134.37-193.81 150.07-311.86 7.89 118.62-23.01 232.49-111.25 317.36 11.32 3.54 21.24 7.64 31.68 11.5z" fill="#000" fill-opacity=".1"/><path d="M2000.41 2770.5c275 0 572-112.5 663.25-379.44 15.25-42.3-22.09-84.98-67.45-78.53a4238.32 4238.32 0 01-1192.61 0c-45.32-6.44-82.16 36.01-67.46 78.53 92.27 266.94 389.27 379.44 664.27 379.44z" fill="#3D0C0C"/><path d="M2578.21 2512.04c32.74-40.14 55.99-82.74 67.74-125.83 8.9-32.67-14.69-60.04-47.04-55.45-396.36 55.5-801.44 56.2-1197.79.01-32.4-4.56-55.98 22.77-47.08 55.44 11.74 43.1 34.97 85.69 67.74 125.83 383.09 52.47 773.36 52.94 1156.43 0z" fill="#fff"/><path d="M2000.41 2752c198.56.34 414.2-65.72 553.93-212.94a4259.79 4259.79 0 01-1108.71.03c140.78 148.35 354.63 212.57 554.78 212.91z" fill="#fff"/><path d="M2266.36 2712c107.21-32.23 209.97-90.74 287.98-172.94-27.6 3.63-55.25 7.05-82.92 10.07-52.28 61.44-119.58 117.48-205.06 162.87zM2645.95 2386.22c-11.75 43.08-35 85.68-67.74 125.82-29.6 4.09-59.24 7.83-88.92 11.23 42.55-59.77 72.34-124.18 92-190.06l17.54-2.44c32.43-4.6 56.02 22.77 47.12 55.45zM1445.61 2539.05c78.35 82.56 182.38 141.73 290.3 173.75-86.43-45.37-154.18-101.8-206.61-163.61a3797 3797 0 01-83.69-10.14zM1421.75 2512.04c29.82 4.05 59.68 7.82 89.57 11.31-42.71-59.71-72.52-124.15-92.11-190.05-6.04-.83-12.08-1.67-18.12-2.53-32.4-4.55-55.98 22.77-47.08 55.45 11.74 43.09 34.97 85.68 67.74 125.82z" fill="#000" fill-opacity=".1"/><path d="M1757.01 1444.59c134.63 18.02 228.92 185.87 212.03 331.97-16.81 145.48-146.89 295.4-292.23 276.26-131.95-17.37-215.17-165.99-215.81-289.66-.85-165.66 146.06-338.64 296.01-318.57z" fill="#fff"/><path d="M1722.39 1961.85c-85.15-18.07-137.17-112.91-116.18-211.82 20.99-98.92 107.04-164.46 192.19-146.39 85.16 18.07 137.18 112.9 116.19 211.82-20.99 98.92-107.04 164.46-192.2 146.39z" fill="#2F4941" stroke="#333" stroke-width="5" stroke-miterlimit="10"/><path d="M1767.61 1913.95c-50.96-.89-91.47-47.8-90.47-104.79.99-56.98 43.11-102.45 94.07-101.56 50.96.89 91.47 47.8 90.47 104.78-.99 56.99-43.11 102.46-94.07 101.57z" fill="#000"/><path d="M1709.68 1762.97c-19.12-7.14-29.1-27.7-22.29-45.93 6.81-18.22 27.83-27.2 46.94-20.05 19.12 7.14 29.1 27.7 22.29 45.93-6.81 18.22-27.83 27.2-46.94 20.05z" fill="#fff" stroke="#333" stroke-width="5" stroke-miterlimit="10"/><path d="M1461.03 1763.16c.57 107.38 63.37 233.57 166.28 276.32-83.01-53.67-132.48-163.84-132.99-259.2-.84-159.92 157.76-375.66 336.21-309.4-22.65-13.59-47.29-22.78-73.49-26.29-149.98-20.07-296.89 152.91-296.01 318.57z" fill="#000" fill-opacity=".05"/><path d="M1703.79 1956.37c-53.01-38.02-80.66-112.43-64.35-189.29 19.51-91.94 110.19-175.46 207.98-142.61a137.83 137.83 0 00-49.08-21c-85.16-18.08-171.21 47.46-192.22 146.35-19.42 91.55 23.66 179.6 97.67 206.55z" fill="#000" fill-opacity=".15"/><path d="M2242.99 1444.59c-134.63 18.02-228.92 185.87-212.03 331.97 16.81 145.48 146.89 295.4 292.23 276.26 131.95-17.37 215.17-165.99 215.81-289.66.85-165.66-146.06-338.64-296.01-318.57z" fill="#fff"/><path d="M2277.61 1961.85c85.15-18.07 137.17-112.91 116.18-211.82-20.99-98.92-107.04-164.46-192.19-146.39-85.16 18.07-137.18 112.9-116.19 211.82 20.99 98.92 107.04 164.46 192.2 146.39z" fill="#2F4941" stroke="#333" stroke-width="5" stroke-miterlimit="10"/><path d="M2232.4 1913.95c50.96-.89 91.46-47.8 90.47-104.79-1-56.98-43.11-102.45-94.08-101.56-50.96.89-91.46 47.8-90.47 104.78 1 56.99 43.12 102.46 94.08 101.57z" fill="#000"/><path d="M2290.33 1762.97c19.11-7.14 29.09-27.7 22.28-45.92-6.81-18.23-27.82-27.2-46.94-20.06-19.12 7.14-29.1 27.71-22.29 45.93 6.81 18.22 27.83 27.2 46.95 20.05z" fill="#fff" stroke="#333" stroke-width="5" stroke-miterlimit="10"/><path d="M2538.97 1763.16c-.58 107.38-63.37 233.57-166.28 276.32 83.01-53.67 132.48-163.84 132.99-259.2.83-159.92-157.76-375.66-336.22-309.4 22.65-13.59 47.3-22.78 73.5-26.29 149.98-20.07 296.89 152.91 296.01 318.57z" fill="#000" fill-opacity=".05"/><path d="M2296.2 1956.37c53.02-38.02 80.67-112.44 64.35-189.29-19.51-91.94-110.18-175.46-207.97-142.61a137.83 137.83 0 0149.08-21c85.16-18.08 171.21 47.46 192.21 146.35 19.43 91.55-23.65 179.6-97.67 206.55z" fill="#000" fill-opacity=".15"/><path d="M2744.23 1617.56c-67.73-47.4-186.23-92.55-417.07-77.32-110.2 7.27-217.33 38.8-274.15 89.79-8.59 7.71-15.77 18.33-21.43 31.41-18.07-3.38-46.1-4.19-63.55 2-5.78-14-13.26-25.33-22.29-33.43-77.48-68.26-193.37-84.19-292.24-91.22-189.5-13.46-310 20.7-398 81.71-75 52-142.72 99.48-218.5 151 0 2 1 4 1.5 5.5l205.35-112.2c5.24 2.74 31 18.14 30.09 74.88-3.94 245.32 153.43 354.01 353.17 362.97 230.39 10.34 362.39-176.65 354.24-377.14 11.51-5.73 24.08-7.66 36.09 2.63-8.94 222.86 143.59 383.94 354.4 374.47 224.16-10.06 359.3-152.78 353.22-359.88 1.14-58.71 28-76.83 33.47-79.94L2964 1774c.5-.5 1.5-1.5 2.5-3-20-14.04-195.1-134.42-222.27-153.44zm-1115.9 455.16C1440 2061 1296.21 1935 1303.88 1740.09c2.23-56.67 15.9-95.94 29.38-112.68 47.24-58.67 234.77-64.93 320.24-58.67 90.75 6.65 208 29.26 272.16 83.5 15.75 13.31 25.14 46.55 26.2 87.69 4.42 181.11-136.2 344.45-323.53 332.79zm743.51 1.73c-188.16 1.64-329.91-145.88-325.05-334.4 1.06-41.14 10.85-73.92 26.2-87.69 66.02-59.24 198.01-76.84 254.17-82.2 88.11-8.41 287.84-7.11 338.21 57.36 13.24 16.94 27.15 56 29.38 112.68 7.55 191.57-125.75 332.52-322.91 334.25z" fill="#000" fill-opacity=".1"/><path d="M1328.86 1597.13c-60.77 82.59-69.42 441.92 299.52 458.48 326.26 14.64 376.07-369 301-436.4-125.58-112.69-533.16-113.62-600.52-22.08zM2670.48 1597.13c60.77 82.59 69.42 441.92-299.52 458.48-326.26 14.64-376.07-369-301-436.4 125.58-112.69 533.16-113.62 600.52-22.08z" fill="#9AFFF2" fill-opacity=".3"/><path d="M2744.23 1591.56c-67.73-47.4-186.23-92.55-417.07-77.32-110.2 7.27-217.33 38.8-274.15 89.79-8.59 7.71-15.77 18.33-21.43 31.41-18.07-3.38-46.1-4.19-63.55 2-5.78-14-13.26-25.33-22.29-33.43-77.48-68.26-193.37-84.19-292.24-91.22-189.5-13.46-310 20.7-398 81.71-75 52-155.86 106.06-231.64 157.58-15.82 11.1 1.65 34.82 16.86 24.81l203.13-138.09c5.24 2.74 31 18.14 30.09 74.88-3.94 245.32 153.43 354.01 353.17 362.97 230.39 10.34 362.39-176.65 354.24-377.14 11.51-5.73 24.08-7.66 36.09 2.63-8.94 222.86 143.59 383.94 354.4 374.47 224.16-10.06 359.3-152.78 353.22-359.88 1.14-58.71 28-76.83 33.47-79.94l203.09 138.06c16.14 10.62 31.76-14.35 16.86-24.81-20.01-14.04-207.08-139.46-234.25-158.48zm-1115.9 455.16C1440 2035 1296.21 1909 1303.88 1714.09c2.23-56.67 15.9-95.94 29.38-112.68 47.24-58.67 234.77-64.93 320.24-58.67 90.75 6.65 208 29.26 272.16 83.5 15.75 13.31 25.14 46.55 26.2 87.69 4.42 181.11-136.2 344.45-323.53 332.79zm743.51 1.73c-188.16 1.64-329.91-145.88-325.05-334.4 1.06-41.14 10.85-73.92 26.2-87.69 66.02-59.24 198.01-76.84 254.17-82.2 88.11-8.41 287.84-7.11 338.21 57.36 13.24 16.94 27.15 56 29.38 112.68 7.55 191.57-125.75 332.52-322.91 334.25z" fill="#35241D"/><path d="M2424.58 1540.34c-32.79-.39-65.61 1-98.25 4.05a83.4 83.4 0 01.67-29.89c33-2.5 64.29-3.27 95.5-3a78.09 78.09 0 012.08 28.84zM2494.99 1544a783.31 783.31 0 00-34.89-2.53c0-10.01.04-19.01.33-29.02 11.71.57 22.86 1.03 34.07 2.05.29 10.04.61 19.46.49 29.5zM2559 1522c-3.13 11-7.83 18.25-12.48 18.25-5.2 0-9.87-8.46-13.07-21.89 8.64 1.26 17.48 2.1 25.55 3.64zM2677.36 1913.55a314.99 314.99 0 01-18.79 28.64 168.15 168.15 0 01-23.6-18.53c5.1-6.95 9.9-14.18 14.4-21.69a175.71 175.71 0 0127.99 11.58zM1329.5 1860c-13.41-5.05-27.27-11.43-39.45-18.98a379.95 379.95 0 01-10.17-42.49 208.35 208.35 0 0134 16h.06c3.74 15.52 9.63 30.65 15.56 45.47zM1909.5 1577.5c-5 10.72-10.58 20.09-15.56 26.27a277.33 277.33 0 00-19.9-10.45c.41-8.43 2.83-20.2 5.96-31.82 10.22 4.56 19.81 10.4 29.5 16z" fill="#8E6930"/><path opacity=".5" d="M1243.77 1625.84l-203.13 138.09c-7.41 5.02-18.11 2.11-21.94-5.93-4.7 12.5 9.99 27.02 21.94 18.91l203.13-138.09c5.07 2.65 27.27 17.15 29.89 69.43.43-26.88-2.6-68.11-29.89-82.41zm681.87-12.53c-61.64-55.29-178.65-76.45-270.14-83.35-85.77-6.47-286.64 4.56-326 58.04-26.83 36.45-26.62 89.96-25.86 133.9.34-30.4 3.87-88.56 29.6-120.42 47.26-58.52 236.48-64.99 322.26-58.52 91.03 6.87 201.5 27.71 270.14 83.35 23.4 18.97 25.36 63.69 26.2 88.9.72-32.59-.19-78.57-26.2-101.9zm56.2 101.93c-3.77 192.65-155.45 357.51-354.93 348.46-198.2-8.9-350.2-142.03-353.4-342.08 0 230.38 149.79 345.94 353.4 355.08 203.75 9.03 354.96-141.7 354.96-361.46h-.03zm-.69-28.68c.29 4.14.49 8.37.62 12.7 11.18-5.42 23.32-7.13 35 2.51 0-4.18.22-8.37.48-12.54-11.99-10.33-24.56-8.4-36.07-2.67h-.03zm416.85-159.4c-105.14 1.61-243.6 13.06-325.04 86.13-17.96 16.11-34.46 57.21-26.2 100.69 1.06-41.14 10.46-74.37 26.2-87.69 76.54-64.79 219.88-84.48 325.04-86.11 76.75-1.19 228.34 8.32 267.34 61.27 24.2 32.85 28.98 80.9 29.6 120.35 5.56-61.3-1.43-103.58-16.94-125.8-37-53-172.97-70.49-280-68.84zm326.93 194.45c-3.25 202.4-155.53 333.2-353.33 342.08-199.68 8.86-350.83-155.74-354.97-348.43-3.94 197.28 136.57 371.34 354.97 361.43 218.4-9.91 356.92-147.25 353.4-355.08h-.07zm258.42 34.39c-3.89 8.16-14.5 10.97-21.94 5.93l-203.09-138.06c-29.22 16.52-33.6 58.2-33.31 88.13 2.46-54.9 28-72.11 33.31-75.13l203.09 138.06c12.5 8.48 26.59-5.93 21.94-18.91v-.02z" fill="#000"/><path d="M1785 2099c0 76.35 98.85 169 216.26 168 108.22-.95 213.74-92.55 213.74-167.78 0-152.13-430-154.42-430-.22z" fill="#000" fill-opacity=".1"/><path d="M1782 2081c0 76.35 100.23 169 219.27 168 109.73-.95 216.73-92.55 216.73-167.78 0-60.53-126.24-113.77-216.73-113-84.02.78-219.27 41.16-219.27 112.78z" fill="#7F6145"/><path d="M1783.58 2067.77c41.76 54.75 124.68 100.94 217.85 100.22 86.21-.68 170.92-47.12 214.09-101.55a46.59 46.59 0 012.48 14.78c0 75.23-107 166.83-216.73 167.78-119.04 1-219.27-91.65-219.27-168 0-4.54.54-8.95 1.58-13.23z" fill="#000" fill-opacity=".2"/><path d="M1910 3556c32 0 63.09-23.6 66.69-56.14 9.12-82.21-94.34-89.68-150.66-90.92-57.1-1.25-154.03 9.56-171.02 72.27C1640.16 3536 1691.5 3556 1728 3556c36.5 0 49-12.15 92.98-12.15 38.41 0 57.02 12.15 89.02 12.15z" fill="#F7C394" stroke="#333" stroke-width="5" stroke-miterlimit="10"/><path d="M1909 3534c-32 0-50.61-12.15-89.02-12.15-43.98 0-56.48 12.15-92.98 12.15-28.39 0-65.75-12.1-73.97-43.26-6.73 47.6 40.67 65.26 74.97 65.26 36.5 0 49-12.15 92.98-12.15 38.41 0 57.02 12.15 89.02 12.15 42.86 0 73-34.15 65.91-80.26-2.97 33.46-34.04 58.26-66.91 58.26z" fill="#000" fill-opacity=".1"/><path d="M2090 3556c-32 0-63.09-23.6-66.69-56.14-9.12-82.21 94.34-89.68 150.66-90.92 57.1-1.25 154.03 9.56 171.02 72.27C2359.84 3536 2308.5 3556 2272 3556c-36.5 0-49-12.15-92.98-12.15-38.41 0-57.02 12.15-89.02 12.15z" fill="#F7C394" stroke="#333" stroke-width="5" stroke-miterlimit="10"/><path d="M2091 3534c32 0 50.61-12.15 89.02-12.15 43.98 0 56.48 12.15 92.98 12.15 28.39 0 65.75-12.1 73.97-43.26 6.73 47.6-40.67 65.26-74.97 65.26-36.5 0-49-12.15-92.98-12.15-38.41 0-57.02 12.15-89.02 12.15-42.86 0-73-34.15-65.91-80.26 2.97 33.46 34.04 58.26 66.91 58.26z" fill="#000" fill-opacity=".1"/><path d="M1483 3133a20 20 0 00-20 20v69c0 13.56 20 30.49 20 11v-67a13 13 0 0113-13h192a13 13 0 0113 13v67c0 19.49 20 2.56 20-11v-69a20 20 0 00-20-20h-218z" fill="#A8A8A8" stroke="#333" stroke-width="5"/><path d="M1465.09 3144.09A20.02 20.02 0 011483 3133h218a20 20 0 0120 20v69c0 10.66-9 27.55-9 9v-69c0-15.5-4-20-20-20h-218c-3.2 0-6.23.75-8.91 2.09z" fill="#000" fill-opacity=".15"/><path d="M1601.4 3259.89c56.81.05 92.98-68.11 58.59-115.27 15.91-45.21-18.09-95.39-66.66-96.55-56-1.34-88.37 58.5-82.5 109.13 5.48 47.31 37.52 102.65 90.57 102.69z" fill="#F7C394" stroke="#333" stroke-width="5" stroke-miterlimit="10"/><path d="M1510.83 3157.2c6.78 58.57 54.37 126.8 125.37 93.8-68.83-8.8-117-125.5-83.11-191.84-5.39 3.84-13.89 8.34-27.6 27.61-12.29 21.73-17.7 46.2-14.66 70.43z" fill="#000" fill-opacity=".1"/><path d="M1366 3216.5a22.5 22.5 0 00-22.5 22.5v256a22.5 22.5 0 0022.5 22.5h452a22.5 22.5 0 0022.5-22.5v-256a22.5 22.5 0 00-22.5-22.5h-452z" fill="#CCC" stroke="#333" stroke-width="5"/><path d="M1366 3219a20 20 0 00-20 20v36h50v-56h-30zM1366 3515a20 20 0 01-20-20v-36h50v56h-30zM1838 3239a20 20 0 00-20-20h-30v56h50v-36zM1818 3515a20 20 0 0020-20v-36h-50v56h30z" fill="#848484"/><path d="M1370 3255a12 12 0 0112-12h420a12 12 0 0112 12v224a12 12 0 01-12 12h-420a12 12 0 01-12-12v-224z" fill="#A8A8A8"/><path d="M1820 3295h-456v8h456v-8zM1820 3415h-456v8h456v-8zM1364 3311h456v8h-456v-8zM1820 3431h-456v8h456v-8z" fill="#CCC"/><path d="M1455.89 3351.79h9.93v19.2c0 8.79-6.52 13.58-14.63 13.58-8.76 0-16.24-4.25-16.24-13.58v-19.2h9.93v19.66c0 3.34 2.15 5.61 5.52 5.61 3.35 0 5.49-2.28 5.49-5.61v-19.66zM1472.37 3351.79h16.54c6.23 0 10.79 3.37 10.79 9.89 0 10.04-9.82 10.37-17.33 10.37V3384h-10v-32.21zm10 13.73c2.75 0 7.64.44 7.64-3.56 0-4.13-4.75-3.62-7.64-3.62v7.18zM1504.91 3351.79h26.67v6.88h-16.7v5.11h15.5v6.57h-15.5v6.35h17.19v7.3h-27.16v-32.21zM1585.77 3373.34l9.47-.59c.42 3.13 2.26 5.47 5.65 5.47 1.97 0 4.43-.99 4.43-3.32 0-2.95-4.04-3.63-6.19-4.11-5.37-1.2-12.15-3.56-12.15-10.13 0-7.16 7.72-9.42 13.69-9.42 6.59 0 12.39 2.45 13.27 9.6l-9.38.55c-.46-2.65-2.18-4.15-4.88-4.15-1.55 0-3.5.67-3.5 2.52 0 1.87 2.74 2.3 4.07 2.57 6.13 1.33 14.74 3.3 14.74 11.19 0 7.88-7.54 11.03-14.26 11.03-7.61 0-14.25-2.86-14.96-11.21zM1620 3351.79h26.68v6.88h-16.7v5.11h15.49v6.57h-15.49v6.35h17.18v7.3H1620v-32.21zM1673.99 3370.84l8.72 2.63c-1.76 7.36-7.32 11.1-14.59 11.1-10.19 0-16.74-6.75-16.74-16.74 0-9.95 6.23-16.59 16.28-16.59 7.08 0 12.46 3.15 14.74 10.02l-8.78 1.95c-.82-2.61-2.81-4.52-5.72-4.52-8.86 0-9.17 18.41-.35 18.41 3.85 0 5.69-2.78 6.44-6.26zM1687.7 3384v-32.21h16.59c5.99 0 12.48 1.55 12.48 8.94 0 4.73-3.25 8.02-7.78 9.05 6.14 2.05 7.72 9.03 10.39 14.22h-11.25c-2.48-4.6-3.97-13.07-10.43-13.07V3384h-10zm10-19.16c2.75 0 9.07.85 9.07-3.32 0-4.23-6.26-3.23-9.07-3.23v6.55zM1722.57 3351.79h26.68v6.88h-16.7v5.11h15.49v6.57h-15.49v6.35h17.18v7.3h-27.16v-32.21zM1752.85 3351.79h30.25v7.95h-10.15V3384H1763v-24.26h-10.15v-7.95zM1537.54 3384v-32.21h16.59c5.99 0 12.48 1.55 12.48 8.94 0 4.73-3.25 8.02-7.78 9.05 6.13 2.05 7.72 9.03 10.39 14.22h-11.25c-2.48-4.6-3.97-13.07-10.43-13.07V3384h-10zm10-19.16c2.75 0 9.07.85 9.07-3.32 0-4.23-6.26-3.23-9.07-3.23v6.55zM1401 3373.34l9.47-.59c.42 3.13 2.27 5.47 5.65 5.47 1.97 0 4.44-.99 4.44-3.32 0-2.95-4.05-3.63-6.2-4.11-5.37-1.2-12.15-3.56-12.15-10.13 0-7.16 7.72-9.42 13.69-9.42 6.59 0 12.39 2.45 13.27 9.6l-9.38.55c-.46-2.65-2.18-4.15-4.88-4.15-1.55 0-3.49.67-3.49 2.52 0 1.87 2.73 2.3 4.06 2.57 6.13 1.33 14.74 3.3 14.74 11.19 0 7.88-7.54 11.03-14.26 11.03-7.61 0-14.25-2.86-14.96-11.21z" fill="#848484"/><path d="M2398.6 3259.89c-56.82.05-92.99-68.11-58.59-115.27-15.92-45.21 18.08-95.39 66.66-96.55 56-1.34 88.36 58.5 82.5 109.13-5.48 47.31-37.53 102.65-90.57 102.69z" fill="#F7C394" stroke="#333" stroke-width="5" stroke-miterlimit="10"/><path d="M2489.17 3157.2c-6.78 58.57-54.37 126.8-125.37 93.8 68.82-8.8 117-125.5 83.11-191.84 5.39 3.84 13.89 8.34 27.6 27.61 12.29 21.73 17.7 46.2 14.66 70.43z" fill="#000" fill-opacity=".1"/><path d="M2489.73 1420.88c100.57 0 270.27-11.88 337.78-88.71-125.16-193.33-325.2-319.04-558.55-394.96 644.9 209.34 392.39-165.2-268.96-118.71-345.33 24.3-647.55 243.13-818.29 526.86 36.72 48.32 120 73.62 244.26 73.62 101.28 0 226.3-17 361.62-49 233.32 22.38 467.49 50.9 702.14 50.9z" fill="#000" fill-opacity=".2"/><path d="M2488.73 1372.88c-175.28 0-399.83-21.71-617-42.71-28.47-2.75-56.85-5.48-85.14-8.19-135.32 32-260.34 49-361.62 49-149.77 0-240-36.75-260.94-106.27-13.87-46-3.72-98 29.34-150.29 42.5-67.19 118.72-125.33 181.38-139.5-26.85-64-24.47-125.78 7-175 17.13-26.81 42.5-49 73.38-64.28 30.45-15 65.61-23 101.69-23 2.36 0 4.74 0 7.12.11-13.1-20.91-21.09-41.3-23.8-60.8a101.83 101.83 0 0110.13-61.39c18-35.21 53.11-57.29 79.44-69.62 25.19-11.79 53.56-19.81 77.05-22-21.43-25.22-30.46-48.57-27.56-71.05 5.46-42.2 51.57-69.3 92.25-93.22 25.29-14.86 51.44-30.24 53.93-43.33 4.07-21.37-8.86-38.18-20.27-53-8.86-11.5-16.51-21.44-13.29-31.95 2.77-9.07 12.31-13.19 19.25-15.5 10.25-3.42 23.32-5.15 38.85-5.15 39.4 0 96.61 11.48 157 31.5 58.49 19.4 112 43.94 146.86 67.33 50.45 33.86 90.58 71.31 116.06 108.32 14.39 20.9 24 41.54 28.49 61.35 4.11 18 4.05 35.43-.16 51.92 36.57 1.88 72.76 13.31 105.31 33.34a257.14 257.14 0 0180 78.06c28.21 43.2 39 89.21 29.54 123.21 30.49 3.44 57.49 12.78 80.37 27.84 22.88 15.06 41.23 35.43 54.62 60.65 15.72 29.58 23.82 64.33 23.42 100.5-.33 30.33-6.74 59.1-18.17 82.07a539.49 539.49 0 0191.22 58.56c47.13 37.68 77.45 76.44 90.11 115.19 11.42 34.94 8.09 69.26-9.9 102-17.24 31.38-56 53.42-118.42 67.38-54.17 12.04-125.3 17.92-217.54 17.92z" fill="#714D2C"/><path d="M2287.33 513.82c-47 50.17-426.56 240.21-708.83 207.68-8.51-11.51-14.61-23.72-20.49-36.77 277 12.76 630.8-175.94 651.38-224.15 27.47-64.33-91.78-182.53-347.47-266.9 356.91 25.18 477.85 277.37 425.41 320.14zM2817.6 1283.67c-72.31 131.63-574.29 73.82-1031.56 30.22 105.83-18.3 216.9-42.51 320.91-66.89 274.54 5.82 533.51 17.93 594-27.8 55.68-42.13-7.46-152.76-49.46-199.35 106.61 53.04 223.97 158.51 166.11 263.82z" fill="#000" fill-opacity=".15"/><path d="M2642.19 1015.34c-41 48.6-332.59 216.45-856.15 298.55-278.47 66.08-527.42 71.25-598.45-20.76 252.91 36.87 1051.91-69.63 1374.6-327.79 47.88-38.3 31.3-149.52-20.68-211.14 128.21 34.55 142.87 188.56 100.68 261.14z" fill="#000" fill-opacity=".15"/><path d="M2503 747.5c-153.5 117.42-537.29 281.7-1116.9 233.35a253.27 253.27 0 01-15.78-43.9c526.93 24.28 986.47-175.25 1021.62-239.19 35.15-63.94 16.45-128-75.31-181.83C2448.1 534.86 2534.01 676.87 2503 747.5zM1723 505.5c41.42 3.1 178.53-14.76 295.87-89.03-106.11 28.2-220.24 34.44-332 14.51-4.77 19.23 15.63 54.52 36.13 74.52z" fill="#000" fill-opacity=".15"/><path d="M2488.73 1372.88c-175.28 0-399.83-21.71-617-42.71-28.47-2.75-56.85-5.48-85.14-8.19-135.32 32-260.34 49-361.62 49-149.77 0-240-36.75-260.94-106.27-13.87-46-3.72-98 29.34-150.29 42.5-67.19 118.72-125.33 181.38-139.5-26.85-64-24.47-125.78 7-175 17.13-26.81 42.5-49 73.38-64.28 30.45-15 65.61-23 101.69-23 2.36 0 4.74 0 7.12.11-13.1-20.91-21.09-41.3-23.8-60.8a101.83 101.83 0 0110.13-61.39c18-35.21 53.11-57.29 79.44-69.62 25.19-11.79 53.56-19.81 77.05-22-21.43-25.22-30.46-48.57-27.56-71.05 5.46-42.2 51.57-69.3 92.25-93.22 25.29-14.86 51.44-30.24 53.93-43.33 4.07-21.37-8.86-38.18-20.27-53-8.86-11.5-16.51-21.44-13.29-31.95 2.77-9.07 12.31-13.19 19.25-15.5 10.25-3.42 23.32-5.15 38.85-5.15 39.4 0 96.61 11.48 157 31.5 58.49 19.4 112 43.94 146.86 67.33 50.45 33.86 90.58 71.31 116.06 108.32 14.39 20.9 24 41.54 28.49 61.35 4.11 18 4.05 35.43-.16 51.92 36.57 1.88 72.76 13.31 105.31 33.34a257.14 257.14 0 0180 78.06c28.21 43.2 39 89.21 29.54 123.21 30.49 3.44 57.49 12.78 80.37 27.84 22.88 15.06 41.23 35.43 54.62 60.65 15.72 29.58 23.82 64.33 23.42 100.5-.33 30.33-6.74 59.1-18.17 82.07a539.49 539.49 0 0191.22 58.56c47.13 37.68 77.45 76.44 90.11 115.19 11.42 34.94 8.09 69.26-9.9 102-17.24 31.38-56 53.42-118.42 67.38-54.17 12.04-125.3 17.92-217.54 17.92z" stroke="#4D3117" stroke-width="16"/><path d="M1708 500.14c45.39 9.42 230.5-20.14 313-81.64M1782 1320c170.5-40 579.5-96 869.5-308M1373 977c121.61 12 731.3 63.87 1135.5-234M2296 504c-76.5 91.5-522.9 269.52-737 211" stroke="#4D3117" stroke-width="10" stroke-miterlimit="10" stroke-linecap="round"/><path d="M2338.74 643.33h-695.48a197.5 197.5 0 00-80.18 17l-119.38 53.04c-12.94 5.75-8.72 38.77 7.36 33.87 48.78-14.87 99.07-36.46 149.55-44.42-6.11 80.57 42.69 232.8 187.11 232.8 146.99 0 203.41-141.73 197.17-234.17h12.37c-6.77 80.19 41.75 234.17 187 234.17 146.26 0 202.84-140.3 197.26-232.78 50.44 8.01 100.67 29.54 149.42 44.4 16.08 4.9 20.3-28.12 7.36-33.87l-119.38-53.04a197.5 197.5 0 00-80.18-17z" fill="#000"/><path d="M2338.74 665.33h-695.48a197.5 197.5 0 00-80.18 17L1448 747a7934 7934 0 00152.61-22.18c-6.11 80.57 42.69 232.8 187.11 232.8 146.99 0 203.41-141.73 197.17-234.17h12.37c-6.77 80.19 41.75 234.17 187 234.17 146.26 0 202.84-140.3 197.26-232.78 45.48 7.66 96.98 16.66 151.98 22.66l-114.58-65.17a197.53 197.53 0 00-80.18-17z" fill="#000" fill-opacity=".2"/><path d="M2306.82 854.46c-111.85 90.94-272.19 0-272.19-138.9 52.82 93.1 166.18 148.73 272.19 138.9zM1910.29 854.46c-111.86 90.94-272.2 0-272.2-138.9 52.83 93.1 166.18 148.73 272.2 138.9z" fill="#fff"/><path d="M1995.53 1169.77c91.3 0 189.9-37.35 220.2-125.97 5.06-14.05-7.34-28.22-22.39-26.07a1408.56 1408.56 0 01-395.95 0c-15.04-2.14-27.27 11.95-22.39 26.07 30.63 88.62 129.23 125.97 220.53 125.97z" fill="#3D0C0C"/><path d="M1995.53 1163.63c49.85.08 102.93-12.44 145.92-39.68-89.28 5.81-209.8 7.64-291.47.47 42.9 27.01 95.51 39.12 145.55 39.21z" fill="#fff"/><path d="M2305.16 1177.65c-58.28-11.37-148.25-35.6-193.4-67.04-12.78-8.9-12.85-35.06 13.18-37.21 87.08-7.21 158.79-3.06 212.91-.07 28.31 38.11 40.71 116.3-32.69 104.32z" fill="#B34A31"/><path d="M2265.14 1070.09l-2.16-.09c-17.26 27.02-24.76 61.18-20.75 92.96.59.18 1.17.34 1.83.5-4.17-31.95 3.5-66.32 21.08-93.37zM2200.73 1069.67c-15.87 20.23-24.9 46.31-25.39 72.05.33.16 1.1.46 1.66.66.37-26.02 9.79-52.44 26.06-72.71h-2.33zM2151.34 1071.59c-10.53 15.8-16.76 32.48-18.83 51.37.53.25 1.11.58 1.66.83 2-19.23 8.37-36.33 19.25-52.29l-2.08.09z" fill="#933B2A"/><path d="M2200.4 1072.99c-29.75 3.37-63.07 6.71-92.95 8.63.99-1.49 3.71-3.78 5.64-4.81 28.55-1.91 61.35-8.2 89.97-7.14-.18.22-2.1 2.49-2.66 3.32zM2110.77 1095.34c45.14 31.44 135.12 55.67 193.39 67.04 39.27 6.4 53.98-12.99 54.83-38.25 4.94 32-6.92 61.17-53.83 53.52-58.28-11.37-148.25-35.6-193.4-67.04-6.95-4.84-10.14-14.77-7.43-23.18a19.33 19.33 0 006.44 7.91z" fill="#000" fill-opacity=".2"/><path d="M2306.81 1179.07c-8.76-1.48-23-2.59-24.14-13.25-.25-2.3 2-4.41 1.73-6.87-.62-5.71-8.28-5.2-9.64-10.62-1.18-4.74 5.09-6.57 5.01-12.82-.1-7.54-8.91-9.82-8.23-16.44.47-4.6 4.85-4.7 5.92-10.15 1.32-6.8-3.28-9.35-1.31-12.55 2.53-4.13 9.79-3.11 12.73-7.5 2.26-3.39 3.03-5.23 4.93-9.92 5.45-13.44 43.1-4.89 51.51-2.14 4.39 36.7-28.93 68.49-38.51 102.26z" fill="#EAEAEA"/><path d="M2322.08 1184.05c-12.53-2.12-35.16-4.43-34.37-20.43.32-6.4-4.68-11.38-6.04-16.8-1.18-4.75 2.1-4.73 2.05-9.08-.1-7.54-5.46-10.34-4.78-16.96.48-4.6 3.67-4.52 4.73-9.97 1.32-6.79-.5-8.67 1.47-11.87 2.53-4.13 11.18-6.24 14.86-10.02 3.78-3.88 1.41-5.85 3.31-10.55 1.81-4.48 7.7-2.32 12.7-4.13 4.63-1.67 11.55-3.69 16.69-3.58 5.98.13 21.12 2.05 24.9 4.99 4.39 36.7-25.94 74.63-35.52 108.4z" fill="#C1C1C1"/><path d="M2395.78 1152.01c14.94-41.67-10.29-80.01-49.96-80.01-4.99 0-5.57 2.3-9.63 3.02-5.22.92-8.47-2.19-12.12 1.46-3.98 3.98-8.67 1.67-12.92 5.02-2.15 1.71-2.22 6.11-5.03 9.92-2.48 3.38-6.47 1.46-7.9 3.84-1.78 2.96 1.72 6.21-1.1 8.25-7.93 5.73-9.14 9.45-6.57 17.17.99 2.98-1.81 5.93-2.31 8.73-.62 3.49 1.25 6.18 1.95 10.54.9 5.59-2.89 6.78-1.06 10.6 1.18 2.52 4.1 5.09 4.67 8.77.56 3.64-1.43 6.3 0 9.45 11.56 25.5 87.04 24.9 101.98-16.76z" fill="#181818"/><path d="M2197.5 1069.84c5.62-9.03 9.8-18.31 12.35-27.65 2.95-10.85-4.88-19.94-15.62-18.41-131.59 18.42-266.08 18.65-397.66 0-10.76-1.51-18.59 7.56-15.63 18.41 2.54 9.35 6.72 18.62 12.34 27.65 93.22 12.78 281.63 16.76 404.22 0z" fill="#fff"/><path d="M2167.11 1073.45a926.93 926.93 0 0030.39-3.61c5.62-9.03 9.8-18.3 12.35-27.65 2.93-10.75-4.74-19.77-15.32-18.45-2.06.25-4.1.57-6.15.85a216.65 216.65 0 01-21.27 48.86zM1793.28 1069.84a808.9 808.9 0 0030.51 3.54 215.1 215.1 0 01-21.22-48.76c-3.18-.44-6.48-1.23-9.71-.94-8.76.78-14.52 8.96-11.92 18.51 2.54 9.35 6.72 18.62 12.34 27.65zM2083.83 1150.35c20.2-6.08 39.8-15.1 57.62-26.4-6.26.41-12.67.8-19.21 1.16a241.43 241.43 0 01-38.41 25.24zM1869.73 1125.94a239.27 239.27 0 0037.99 24.67 233.54 233.54 0 01-57.74-26.19 979.7 979.7 0 0019.75 1.52z" fill="#000" fill-opacity=".1"/><path d="M2336.16 1172.04c2.37-.57 3.4-.05 3.87-.77.47-.71-.08-2.16-1.04-2.86-2.58-1.89-11.87 3.21-9.77 5.51.82 1.04 5.8-1.61 6.94-1.88zM2330.44 1129.6c1.84-1.59 3-1.61 3.08-2.46.09-.85-1.07-1.88-2.24-2.06-3.16-.49-9.06 8.3-6.13 9.38 1.2.55 4.4-4.09 5.29-4.86zM2347.5 1087.33c-2.36-.63-5.82-3.7-6.58-3.29-.76.4-.34 3.77.17 4.84 1.36 2.89 13.99 2.94 13.25-.08-.22-1.31-5.71-1.17-6.84-1.47zM2355.97 1170.92c1.24 2.09 1.05 3.23 1.87 3.47.83.24 4.19-4.5 4.58-5.62 1.05-3.02-8.7-6.61-10.29-3.92-.76 1.08 3.24 5.06 3.84 6.07zM2360.84 1143.97c2.43-.2 3.37.47 3.95-.17.57-.64.09-3.41-.76-4.24-2.26-2.26-13.41 2.16-11.69 4.76.65 1.15 7.33-.25 8.5-.35zM2354.01 1125.98c8.44 1.2 23.9-6.67 9.39-8.32-3.18-.37-11.43-3.09-12.21 4.93-.2 2.08 1.66 3.22 2.82 3.39zM2314.54 1156.3c-4.49 1.08-10.56 4.15-4.01 8.9 2.58 1.89 13-7.75 10.9-10.06-.81-1.04-5.76.89-6.89 1.16zM2305.52 1141.5c-1.63-1.81-1.67-2.97-2.52-3.04-.86-.07-1.86 1.11-2.02 2.29-.43 3.16 8.49 8.88 9.51 5.93.53-1.21-4.18-4.32-4.97-5.18zM2309.6 1109.13c1.21.31 6.44-2.64 6.19-3.96-.4-2.18-7.15-1.55-8.04.41-.58 1.3.49 3.19 1.85 3.55zM2384.17 1135.28c1.2.31 6.44-2.64 6.19-3.95-.41-2.19-7.15-1.56-8.04.41-.58 1.29.49 3.18 1.85 3.54zM2368.03 1095.6c1.2.31 10.76.18 10.51-1.14-.4-2.18-12.52-6.72-13.42-4.76-.57 1.3 1.55 5.54 2.91 5.9zM2376.88 1107.61c.36 1.19 11.29 11.81 12.29 10.9 1.65-1.48-8.1-14.6-10.24-14.33-1.41.18-2.46 2.08-2.05 3.43zM2328.71 1114.08c1.21.29 15.91-3.76 15.64-5.07-.45-2.17-16.71-.41-17.56 1.57-.55 1.3.56 3.17 1.92 3.5zM2321.19 1094.61c2.81-2.11 9.27-1.68 9.03-3-.41-2.18-12.33.2-12.8 2.3-.69 3.12 2.65 1.55 3.77.7zM2314.6 1128.39c1.42-3.5 2.06-5.17 1.28-6.47-10.13-9.42-7.2 21.1-1.28 6.47zM2373.47 1163.32c.83 1.73 1.68-3.45 2.61-5.67.58-1.38 4.14-4.86 3.47-5.8-3.6-5.03-7.6 8.31-6.08 11.47zM2334.91 1151.45c1.2.31 6.43-.63 6.18-1.95-.4-2.18-6.18-7-8.04-1.59-.58 1.29.5 3.18 1.86 3.54z" fill="#B5482C"/></svg>