<svg fill="none" height="4000" viewBox="0 0 4000 4000" width="4000" xmlns="http://www.w3.org/2000/svg"><path d="m2275.11 3290.64c-50.77-7.42-115.16-32.27-196.86-76-11.87-6.35-16.67-21.85-10.25-33.84 6.35-11.87 21.85-16.66 33.84-10.25 75.45 40.37 136.18 64.12 180.5 70.6 28.93 4.23 49.75 1 61.88-9.64 13.61-11.92 12.39-33 8.83-72.39-4.17-46.12-9.36-103.53 19.78-169.51 44-99.72 153.63-194.53 269.09-176.7 73.33 11.36 143.6 66.19 159.73 140.59 13.73 63.36-6.02 150.17-73.53 174.43-44.77 16-95.93-2.36-130.84-32.08-10.44-8.68-11.95-25-3.06-35.44 8.81-10.34 25.15-11.64 35.48-2.62.43.36 43.66 36.65 81.49 23.06 42.84-15.38 49.77-78.95 41.56-116.78-11.75-54.23-65.6-93.57-118.51-101.77-92.84-14.33-180.8 68.49-215.72 147.49-23.91 54.16-19.56 102.32-15.72 144.81 4 43.84 7.71 85.25-25.67 114.5-27.66 24.4-67.07 26.8-102.02 21.54z" fill="#7f6145" stroke="#333" stroke-miterlimit="10" stroke-width="5"/><path d="m2786.65 2965.53c11.06 51.02 1.18 114.55-37.82 152.08 51.41-33.7 65.07-107.56 52.82-164.08-16.13-74.41-86.39-129.24-159.73-140.6-66.26-10.23-131.78 18.56-181.54 60.82 114.12-80.75 293.29-60.36 326.27 91.78z" fill="#000" fill-opacity=".2"/><path d="m2717.62 3078.06c-27.03 31.45-75.59 15.26-102.89-8.23-3.14-2.68-6.9-4.54-10.94-5.41-4.03-.87-8.22-.73-12.19.41 3.97-7.3 11.63-12.23 19.93-12.9 6.6-.53 13.15 1.59 18.2 5.89 22.07 19.5 59.84 35.17 87.89 20.24z" fill="#000" fill-opacity=".2"/><path d="m2073.5 3173.5c3.5-3 15.5-9 23-5.5 6.98 3.26 15.34 7.39 24.73 12.03 49.42 24.41 127.47 62.97 183.77 62.97 50 0 54.5-25 47.5-91 .85 3.82 1.92 8.03 3.06 12.51 9.62 37.75 24.09 94.49-50.56 94.49-81.5 0-208.79-70.57-231.5-85.5z" fill="#000" fill-opacity=".2"/><path d="m1587 3147c36.5 0 65.66-32.58 62.04-68.42-5.42-63.52 18.62-132.19 65.95-198.39 43.06-60.25 89.21-93.25 53.71-132.19s-115.56 3.92-155.4 59.5c-65.71 91.92-97.19 189.11-88.63 283.68 3.19 31.47 25.83 55.82 62.33 55.82z" fill="#7f6145" stroke="#333" stroke-miterlimit="10" stroke-width="5"/><path d="m1553.09 3059.16c-.42-112.27 89.61-277.66 195.11-324.16-130-21-245 233.5-222.71 351.77 7.21-11.77 19.71-23.27 27.6-27.61z" fill="#000" fill-opacity=".15"/><path d="m1959.37 3446.51c5-87.08 27.4-154.43 47.17-206.81s42.42-144.7-42.56-166.02c-121.5-30.49-188.31 254.12-193.3 340.94-2.93 51.08 36.82 110.33 88.4 113.29 47.48 2.31 97.45-31.79 100.29-81.4z" fill="#7f6145" stroke="#333" stroke-miterlimit="10" stroke-width="5"/><path d="m1769.48 3414.5c51.5-7 148-7 188.5 34 .34-3.09 1.44-11.94 1.66-15.04-42.16-36.96-138.16-39.46-188.02-32.46-.26 3.3-1.86 10.13-2.14 13.5z" fill="#000" fill-opacity=".15"/><path d="m1785.48 3325c47.76 44.29 108.88 69.13 178 78.5.58-5.01 1.81-12.18 2.5-17-68.6-8.88-128.2-37.6-176-81-2 6-3.62 15.27-4.5 19.5z" fill="#000" fill-opacity=".15"/><path d="m2040.63 3446.51c-5-87.08-27.4-154.43-47.17-206.81s-42.42-144.7 42.56-166.02c121.5-30.49 188.31 254.12 193.3 340.94 2.93 51.08-36.82 110.33-88.4 113.29-47.48 2.31-97.45-31.79-100.29-81.4z" fill="#7f6145" stroke="#333" stroke-miterlimit="10" stroke-width="5"/><path d="m2230.52 3414.5c-51.5-7-148-7-188.5 34-.34-3.09-1.44-11.94-1.66-15.04 42.16-36.96 138.16-39.46 188.02-32.46.26 3.3 1.86 10.13 2.14 13.5z" fill="#000" fill-opacity=".15"/><path d="m2214.52 3325c-47.76 44.29-108.88 69.13-178 78.5-.58-5.01-1.81-12.18-2.5-17 68.6-8.88 128.2-37.6 176-81 2 6 3.62 15.27 4.5 19.5z" fill="#000" fill-opacity=".15"/><path d="m2413 3147c-36.5 0-65.66-32.58-62.04-68.42 5.42-63.52-18.62-132.19-65.95-198.39-43.06-60.25-89.21-93.25-53.71-132.19s115.56 3.92 155.4 59.5c65.71 91.92 97.19 189.11 88.63 283.68-3.19 31.47-25.83 55.82-62.33 55.82z" fill="#7f6145" stroke="#333" stroke-miterlimit="10" stroke-width="5"/><path d="m2446.91 3059.16c.42-112.27-89.61-277.66-195.11-324.16 130-21 245 233.5 222.71 351.77-7.21-11.77-19.71-23.27-27.6-27.61z" fill="#000" fill-opacity=".15"/><path d="m2000 2548c154 0 220 135 260 246s58 220 58 292c0 152-138.68 305.46-318 307-175.53 1.51-318-155-318-307 0-72 17.7-181.5 58-292 40-111 106-246 260-246z" fill="#7f6145" stroke="#333" stroke-miterlimit="10" stroke-width="5"/><path d="m2000 3393c-175.67 1.59-330-157-318-337 10 148 145.15 288.48 318 287s308-139 318-287c12 180-142.33 335.41-318 337z" fill="#000" fill-opacity=".15"/><path d="m1910 3556c32 0 63.09-23.6 66.7-56.14 9.11-82.21-94.35-89.68-150.67-90.92-57.1-1.25-154.03 9.56-171.02 72.27-14.85 54.79 36.49 74.79 72.99 74.79s49-12.15 92.98-12.15c38.41 0 57.02 12.15 89.02 12.15z" fill="#f7c394" stroke="#333" stroke-miterlimit="10" stroke-width="5"/><path d="m1909 3534c-32 0-50.61-12.15-89.02-12.15-43.98 0-56.48 12.15-92.98 12.15-28.39 0-65.75-12.1-73.97-43.26-6.73 47.6 40.67 65.26 74.97 65.26 36.5 0 49-12.15 92.98-12.15 38.41 0 57.02 12.15 89.02 12.15 42.86 0 73-34.15 65.91-80.26-2.97 33.46-34.04 58.26-66.91 58.26z" fill="#000" fill-opacity=".1"/><path d="m2090 3556c-32 0-63.09-23.6-66.7-56.14-9.11-82.21 94.35-89.68 150.67-90.92 57.1-1.25 154.03 9.56 171.02 72.27 14.85 54.79-36.49 74.79-72.99 74.79s-49-12.15-92.98-12.15c-38.42 0-57.02 12.15-89.02 12.15z" fill="#f7c394" stroke="#333" stroke-miterlimit="10" stroke-width="5"/><g fill="#000"><path d="m2091 3534c32 0 50.61-12.15 89.02-12.15 43.98 0 56.48 12.15 92.98 12.15 28.39 0 65.75-12.1 73.97-43.26 6.73 47.6-40.67 65.26-74.97 65.26-36.5 0-49-12.15-92.98-12.15-38.41 0-57.02 12.15-89.02 12.15-42.86 0-73-34.15-65.91-80.26 2.97 33.46 34.04 58.26 66.91 58.26z" fill-opacity=".1"/><g fill-opacity=".2"><path d="m1544.83 2937.17c10.39-30.02 24.46-59.88 42.03-89.32 245.91-174.53 570.8-187.4 817.93-13.55 19.44 30.58 35.11 61.64 46.79 92.91-18.91 24.91-59.08 77.77-99.89 130.47-.8-56.08-23.32-115.42-63.53-173.03 20.4 77.66 29.84 149.21 29.84 201.35 0 5.18-.16 10.37-.48 15.55-34.99 44.6-65.92 82.87-78.5 95.32-9.29 28.72-20.69 74.92-29.65 114.94-55.42 48.69-128.23 80.49-209.37 81.19-81.63.7-156.11-32.77-212.44-84.08-7.09-38.32-15.94-81.25-25.3-108.53-12.52-11.97-43.67-48.6-79.21-91.68-.7-7.57-1.05-15.14-1.05-22.71 0-52 9.23-123.56 29.54-200.92-42.1 60.45-64.72 122.81-63.18 181.29-41.29-50.72-82.43-102.29-103.53-129.2z"/><path d="m1976.7 3499.82c-19.66-22.13-43.14-55.1-45.24-73.49 28.89 12.72 49.51 34.84 45.24 73.49z"/><path d="m2072.73 3424.57c-5.53 16.41-29.89 50.57-49.57 73.84-3.8-39.6 18.87-61.58 49.57-73.84z"/></g></g><path d="m2462 2884.5c-13.36 17.47-188.23 248.97-222.98 283.37-15.63 48.34-37.26 146.19-43.13 180.75-51.76 13.07-122.08 32.18-122 41.26.15 18-59.08 94.43-73.89 102.74-15-8.06-68.52-71.51-68.69-97.7 0-5-79.18-32.25-131.17-44.4-6.48-34.45-21.39-131.07-37.88-179.13-35.32-33.76-218.88-263.82-231.28-281.21-8.48-11.89-8.16-20.68 0-27.68 268.19-229.98 657.52-247.78 927.95-15 8.57 7.38 16.07 20.01 3.07 37z" fill="#3080bd" stroke="#333" stroke-width="5"/><path d="m1998.05 3177.38c31-.08 119.13-8.42 193.77-16.09l-167.54 39.29c-15.16 3.56-36.23 3.59-51.5.07l-163.46-37.65c74.16 7.1 158.81 14.46 188.73 14.38z" fill="#24617f" stroke="#333" stroke-width="5"/><path d="m1999.11 3322.88c31-.09 119.14-8.43 193.77-16.09l-167.54 39.29c-15.16 3.55-36.23 3.58-51.5.07l-163.46-37.63c74.16 7.07 158.81 14.48 188.73 14.36z" fill="#24617f" stroke="#333" stroke-width="5"/><path d="m2001.49 3278c-9.46.24-18.92-.63-28.18-2.6l-163.45-37.62c74.15 7.06 158.8 14.43 188.73 14.35h2.88z" fill="#000" opacity=".3"/><path d="m2311.2 3143.53c-.26 1.23-.55 2.46-.84 3.69-2.83 11.9-6.41 23.61-10.73 35.06-5.23 13.85-11.45 27.3-18.62 40.25-4.24 7.67-8.81 15.19-13.72 22.56l-.26.11-.19.07-.7.29-1.32.53-.27.11-.27.11-.21.08-.81.32-.43.17-.53.21-.83.33-.87.34-.91.36-1 .37-2.52 1-1.18.46-.73.28-1.76.68-.43.17-.49.18-1.3.5-.43.17-.19.08-1.15.44-.87.33-6.42 2.43-.58.22-.55.2-2.27.85-1.26.46-.17.07-.74.27-5.13 1.88-1.49.54-.58.21-1.66.6-3.81 1.36-1.52.54-2.86 1-.16.06-1.53.53h-.13l-1 .34-.66.23c-2.43.84-4.86 1.66-7.24 2.45l-.56.18-3.85 1.26-1.44.46-2.84.89-1.4.43-1 .3c-2 .59-3.87 1.15-5.7 1.66l-2.37.66-1.33.35c-3.66.96-7.35 1.89-11.06 2.79-3.38.81-6.77 1.61-10.2 2.37-.76.18-1.53.35-2.29.51-6.78 1.51-13.65 2.92-20.61 4.24-2.67.5-5.33.99-8 1.46l-5.05.88-5.69.94c-2 .32-3.94.64-5.92.94-1.59.25-3.18.49-4.78.72s-3.19.47-4.79.69l-3.75.52-.55.08-.76.1-1.79.24-1.54.2c-3.54.46-7.09.9-10.65 1.31l-1.13.13c-1.33.16-2.68.31-4.05.45l-4.13.44-.73.08-.89.09c-2 .2-3.94.4-5.92.58l-1.05.1c-1.62.16-3.24.3-4.87.44l-.92.08c-1.81.16-3.62.31-5.44.45l-1.08.09-2.13.16-4.42.32-3.14.22-2.75.17-2.13.14-2.13.12-2.87.16-2.87.15h-.08l-3.54.17c-.67.04-1.33.07-2 .09l-1.58.07h-1.09c-1.02.05-2.04.09-3.06.12-3.9.15-7.81.27-11.72.35h-.39l-4.45.08c-1.46 0-2.92.05-4.39.06-1.22 0-2.43 0-3.65 0h-1.74c-3.13 0-6.26 0-9.39 0-62.59-.45-124.43-8.17-178.09-23.88-4-1.16-8-2.42-12.06-3.75-2-.67-4-1.35-6.07-2.06s-4-1.42-6.08-2.16l-3-1.12c-8.09-3-16.11-6.3-23.89-9.75l-2.9-1.3c-1.92-.87-3.83-1.75-5.72-2.64-1.64-.77-3.27-1.56-4.88-2.34l-.71-.35-2.74-1.36-1.29-.65-2.93-1.5c-.88-.46-1.76-.92-2.63-1.39-1.25-.66-2.49-1.32-3.71-2l-1.31-.72-1.23-.68-.38-.22-.34-.19-1.76-1-1.07-.62-.35-.2-1-.6-2.37-1.41-.64-.39-.2-.12-.93-.56c-3.73-6.16-7.24-12.43-10.53-18.8-6.33-12.21-11.83-24.83-16.45-37.78-4.1-11.44-7.47-23.13-10.07-35 .05.05.11.09.17.12 1 .73 2.06 1.46 3.1 2.18 1.58 1.1 3.16 2.18 4.75 3.25 1.16.79 2.32 1.57 3.49 2.33l1.66 1.09c1.23.81 2.48 1.61 3.72 2.4 1.53 1 3.06 1.94 4.6 2.9l.49.3c1.53.95 3.07 1.88 4.61 2.81 1.21.73 2.43 1.45 3.65 2.16l1.2.7c.15.1.3.19.46.27 1.59.93 3.18 1.85 4.78 2.74l1.66.94c.08.04.17.09.25.14l.25.14 1 .53 2.43 1.34c1.1.6 2.19 1.19 3.29 1.77l1.39.74 2.29 1.2 2.29 1.18c.05.04.11.07.17.09.37.2.75.39 1.13.58 13.76 7 27.87 13.3 42.27 18.86l4.68 1.78 4.7 1.72c.08.04.18.08.27.1.29.12.59.22.89.33 1.65.6 3.31 1.18 5 1.75 2.85.99 5.71 1.95 8.56 2.88.36.13.73.25 1.09.36.87.29 1.75.57 2.62.83.19.08.39.14.59.19l1.15.37.34.1 1.49.46c.76.25 1.52.48 2.28.71l2.46.74c.3.1.61.19.91.27 1.44.43 2.88.85 4.32 1.26 1.33.39 2.67.77 4 1.14 1.55.43 3.1.86 4.66 1.27l1.42.38c.72.2 1.44.39 2.17.57 3.33.87 6.67 1.7 10 2.49l2.61.62 1.29.3 2 .46c2.61.59 5.22 1.17 7.84 1.72 1.29.28 2.59.55 3.89.81s2.55.52 3.83.77h.07c1.3.26 2.6.51 3.91.75l3.4.64c1.46.26 2.93.53 4.41.78l3.79.65h.22l3.08.5c1.55.25 3.1.5 4.66.73 1.31.21 2.62.4 3.93.59l3.09.44 2.93.4c7.74 1.05 15.49 1.95 23.25 2.68 1.45.14 2.91.28 4.36.4s2.91.26 4.37.37 2.91.24 4.36.34l4.36.31c5.38.36 10.75.65 16.12.87l2.84.12 1.79.06 3.16.1 2.23.06 4.34.1c1.33 0 2.67.02 4 .06 126 1.72 246.36-32.59 318.9-73.29 2.62-1.47 5.17-2.94 7.66-4.43.69-.41 1.38-.82 2.06-1.24 2.45-1.47 4.83-2.96 7.15-4.46z" fill="#d8d8d8"/><path d="m2281 3222.54c-4.24 7.67-8.81 15.19-13.72 22.56l-.26.11-.19.07-.7.29-1.32.53-.29.11-.46.19-.81.32-.43.17-.53.21-.83.33-.87.34-.91.36-1 .37-2.52 1-1.18.46-.73.28-1.76.68-.43.17-.49.18-1.3.5-.45.17-.19.08-1.15.44-.87.33-6.42 2.43-.58.21-.55.21-2.27.85-1.43.53-.74.27-5.13 1.88-1.49.54-.58.21-1.66.6-3.81 1.36-1.52.54-1.52.54-1.5.52-1.53.53h-.13l-.63.22-.76.26-.28.09c-2.43.84-4.86 1.66-7.24 2.45l-.56.18-3.85 1.26-1.44.46-2.84.89-1.4.43-1 .3c-2 .59-3.87 1.15-5.7 1.66l-2.37.66-1.33.35c-3.66.96-7.35 1.89-11.06 2.79-3.38.81-6.77 1.61-10.2 2.37-.76.18-1.53.35-2.29.51-6.78 1.51-13.65 2.92-20.61 4.24-2.67.5-5.33.99-8 1.46l-5.05.88c-1.89.32-3.78.64-5.69.94s-3.94.64-5.92.94c-1.59.25-3.18.49-4.78.72s-3.19.47-4.79.69l-3.75.52-.55.08-.76.1-1.79.24-1.54.2c-3.54.46-7.09.9-10.65 1.31l-1.13.13c-1.33.16-2.68.31-4.05.45l-4.13.44-.73.08-.89.09c-2 .2-3.94.4-5.92.58l-1.05.1c-1.62.16-3.24.3-4.87.44l-.92.08c-1.81.16-3.62.31-5.44.45l-3.21.25-4.42.32-3.14.22-2.75.17-2.13.14-2.13.12-2.87.16-2.87.15h-.08l-3.54.17c-.67.04-1.33.07-2 .09l-1.58.07-2.94.12h-1.21c-3.9.15-7.81.27-11.72.35h-.39l-4.45.08c-1.46 0-2.92.05-4.39.06-1.22 0-2.43 0-3.65 0h-1.74c-3.13 0-6.26 0-9.39 0-62.59-.45-124.43-8.17-178.09-23.88-4-1.16-8-2.42-12.06-3.75-2-.67-4-1.35-6.07-2.06s-4-1.42-6.08-2.16l-3-1.12c-8.09-3-16.11-6.3-23.89-9.75l-2.9-1.3c-1.92-.87-3.83-1.75-5.72-2.64-1.64-.77-3.27-1.56-4.88-2.34l-.71-.35-2.74-1.36-1.25-.64-2.93-1.5c-.88-.46-1.76-.92-2.63-1.39-1.25-.66-2.49-1.32-3.71-2l-1.31-.72-1.23-.68-.38-.22-.34-.19-1.76-1-1.07-.62-.35-.2-1-.6-2.37-1.41-.64-.39-.2-.12-.93-.57c-3.73-6.16-7.24-12.43-10.53-18.8 20.7 10.94 42.21 20.25 64.36 27.85 6.26 2.16 12.5 4.15 18.66 6 87.43 25.6 194.79 31.77 295 21.13 38.73-3.99 77.11-10.87 114.82-20.58 22.05-5.76 58.08-19.31 76.74-26.62z" fill="#000" opacity=".1"/><path d="m2309.26 3144.8 1.94-1.26c-.26 1.23-.55 2.46-.84 3.69-2.83 11.9-6.41 23.61-10.73 35.06-20.89 8-52.68 19.72-74.17 25.57l-2.17.58c-115 30.13-256.57 36.9-378.1 15.84-24.16-4.13-48.06-9.62-71.59-16.44-27.08-8.03-53.43-18.32-78.78-30.77-4.1-11.44-7.47-23.13-10.07-35 .05.05.11.09.17.12 1 .74 2.06 1.46 3.1 2.18 1.58 1.1 3.16 2.18 4.75 3.25 1.16.79 2.32 1.57 3.49 2.33l1.66 1.09c1.23.81 2.47 1.61 3.72 2.4 1.53 1 3.06 1.94 4.6 2.9l.49.3c1.53.95 3.07 1.88 4.61 2.81 1.21.73 2.43 1.45 3.65 2.16l1.2.7c.15.1.3.19.46.27 1.59.93 3.18 1.85 4.78 2.74l1.66.94c.08.04.17.09.25.14l.25.13 1 .53 2.43 1.34c1.1.6 2.19 1.19 3.29 1.77l1.39.74 2.29 1.2c.76.4 1.52.8 2.29 1.18.05.04.11.07.17.09.37.2.75.39 1.13.58 13.76 7 27.87 13.3 42.27 18.86 1.56.6 3.12 1.2 4.68 1.78s3.13 1.16 4.7 1.72c.08.04.18.08.27.1.29.12.59.22.89.33 1.64.6 3.31 1.18 5 1.75 2.85.99 5.7 1.95 8.56 2.88.36.13.73.25 1.09.36.87.29 1.75.57 2.62.83.19.08.39.14.59.19l1.15.37c.61.2 1.22.39 1.83.56s1.52.48 2.28.71l2.46.74c.3.1.61.19.91.27 1.44.43 2.88.85 4.32 1.26 1.33.39 2.66.77 4 1.14 1.55.43 3.1.86 4.66 1.27l1.42.38c.72.2 1.44.39 2.17.57 3.33.87 6.66 1.7 10 2.49l2.61.62 1.29.3 2 .46c2.61.59 5.22 1.17 7.84 1.72 1.29.28 2.59.55 3.89.81s2.55.52 3.83.77h.07c1.3.26 2.6.51 3.91.75l3.4.64c1.46.26 2.93.53 4.41.78l3.79.65h.22l3.08.5c1.55.25 3.1.5 4.66.73 1.31.21 2.62.4 3.93.59l3.09.44c1 .14 1.95.28 2.93.4 7.74 1.05 15.49 1.95 23.25 2.68 1.45.14 2.91.28 4.36.4s2.91.26 4.37.37 2.91.24 4.36.34l4.36.31c5.38.36 10.75.65 16.12.87l2.84.12 1.79.06 3.16.1 2.23.06 4.34.1c1.33 0 2.66.02 4 .06 126 1.72 246.36-32.59 318.9-73.29 2.62-1.47 5.17-2.94 7.66-4.43.69-.41 1.38-.82 2.06-1.24 2.39-1.42 4.74-2.88 7.06-4.39z" fill="#000" opacity=".1"/><path d="m2453.46 2842.84c-124.51 92.43-312.37 221.77-416.14 295.06-10.52 8.07-24.06 13.04-37.32 13.1s-25.52-4.79-36.12-12.77c-88.06-60.98-320.83-214.38-417.57-288.54 265.7-216.26 642.11-230.39 907.15-6.85z" fill="#24617f" stroke="#333" stroke-width="5"/><path d="m2000 2681.34c-169.09 2.8-331.5 63.23-469.02 181.16-8.16 7-8.48 15.79 0 27.68 12.4 17.39 195.96 247.45 231.28 281.21 13.29 38.74 25.56 109.04 33.21 152.89 1.84 10.54 3.41 19.56 4.67 26.24 51.99 12.15 131.17 39.4 131.17 44.4.17 26.19 53.69 89.64 68.69 97.7z" fill="#000" fill-opacity=".3"/><path d="m1727.63 3237.05c-18.04-28.99-31.31-60.3-38.75-92.36 193.31 125.38 447.92 95.22 622.48-.43-8.2 36.13-23.72 71.2-45.2 103.07-134.46 57.21-374.05 80.06-538.53-10.28z" fill="#c2c2c2" stroke="#333" stroke-width="5"/><path d="m1716 3216.8c-8.99-17.05-16.36-34.74-21.91-52.77 159.91 111.47 432.41 104.79 610.01 6.38-6.66 20.22-15.58 39.93-26.53 58.73-132.41 50.43-338.99 82.44-561.57-12.34z" fill="#fff" stroke="#333" stroke-width="5"/><path d="m1852.18 3213.12c-39.16 11.28-87.34 22.56-115.09 28.96-3.18-1.63-6.34-3.31-9.46-5.03-18.04-28.99-31.31-60.3-38.75-92.36 51.02 33.1 106.32 55.36 163.3 68.43z" fill="#000" fill-opacity=".2"/><path d="m1989.85 3297.6c103.76.82 204.87-19.87 276.31-50.27 21.48-31.87 37-66.94 45.2-103.07-3.38 1.85-6.78 3.67-10.21 5.47-69.84 64.25-251.67 127.56-311.3 147.87z" fill="#000" fill-opacity=".2"/><path d="m1292 2184c206.5 291.5 1183.5 262 1416 0 299.7-337.73-245.32-1201.587-708-864-462.69-337.559-1013.943 432.13-708 864z" fill="#ffcd98" stroke="#333" stroke-width="5"/><path d="m1659.2 1868.01-136.56 149.95-83.61 49.15 40.61 67.16 120.08-40.3 46.03-78.86z" fill="#c15353" stroke="#c69c6d" stroke-miterlimit="10" stroke-width="3"/><path d="m1451.45 2070.25c21.26-12.5 78.45-46.96 78.45-46.96l118.05-131.06-11 120.06-43.32 74.22-110 36.93z" fill="#b76353"/><path d="m1463.87 2073.39 23.72 39.23 100-33.57 40.61-69.57 8.51-93-99.55 112.17c-25.66 15.35-52.31 32.42-73.29 44.74z" fill="#c15353"/><path d="m1488.7 2079.67c19.48-11.45 43.3-27.17 62.95-40.38l62.54-74.33-3.56 38.95-35.19 60.28-79.91 26.81z" fill="#b76353"/><path d="m1790.97 1488.18c132.37 15.39 227.73 178.4 213.65 321.99-14 143-139.03 292.27-281.91 276.03-129.73-14.79-213.87-159.14-216.64-280.44-3.68-162.51 137.45-334.72 284.9-317.58z" fill="#fff"/><path d="m1951.69 1848.96c18.9-97.38-33.75-189.52-117.59-205.78-83.83-16.27-167.11 49.49-186.01 146.88-18.89 97.38 33.76 189.51 117.59 205.78 83.84 16.26 167.12-49.5 186.01-146.88z" fill="#bfdef2" stroke="#333" stroke-miterlimit="10" stroke-width="5"/><path d="m1809.38 1948.38c50 0 90.54-45.33 90.54-101.24s-40.54-101.23-90.54-101.23-90.53 45.32-90.53 101.23 40.53 101.24 90.53 101.24z" fill="#000"/><path d="m1856.12 1508.64c-174.67-47.76-320.03 159.17-316.46 314.5 2.11 91.65 50.72 196.37 130.49 249.24-99.47-41.69-161.69-162.65-164.08-266.63-3.7-162.47 137.44-334.65 284.89-317.52 22.79 2.72 44.88 9.64 65.16 20.41z" fill="#000" fill-opacity=".05"/><path d="m1879.82 1661.22c-96.44-27.41-181.81 55.8-199.25 145.66-14.31 73.79 12.02 144.61 61.83 182.32-69.97-27.34-111.29-111.03-94.22-199.02 18.9-97.43 102.19-163.13 186.03-146.86 16.16 3.14 31.62 9.2 45.61 17.9z" fill="#000" fill-opacity=".15"/><path d="m2203.79 1488.56c-131.98 17.66-224.43 182.22-207.87 325.46 16.48 142.63 144.02 289.61 286.5 270.84 129.37-17.02 210.95-162.73 211.58-283.98.83-162.41-143.19-331.99-290.21-312.32z" fill="#fff"/><path d="m2237.73 1995.68c83.49-17.72 134.48-110.7 113.91-207.67-20.58-96.98-104.94-161.24-188.43-143.52-83.48 17.71-134.48 110.69-113.9 207.67 20.57 96.98 104.93 161.23 188.42 143.52z" fill="#bfdef2" stroke="#333" stroke-miterlimit="10" stroke-width="5"/><g fill="#000"><path d="m2193.41 1948.72c49.96-.88 89.67-46.87 88.7-102.74-.98-55.86-42.27-100.44-92.23-99.57-49.97.87-89.68 46.87-88.7 102.73.97 55.87 42.27 100.45 92.23 99.58z"/><path d="m2493.97 1800.88c-.56 105.28-62.13 228.99-163.02 270.91 81.38-52.63 129.88-160.63 130.38-254.12.82-156.79-154.66-368.3-329.62-303.34 22.21-13.32 46.37-22.33 72.06-25.77 147.04-19.67 291.06 149.91 290.2 312.32z" fill-opacity=".05"/><path d="m2255.97 1990.3c51.97-37.27 79.08-110.23 63.08-185.58-19.12-90.13-108.02-172.01-203.89-139.81 14.54-9.93 30.89-16.93 48.12-20.59 83.49-17.72 167.85 46.53 188.44 143.48 19.05 89.76-23.2 176.08-95.75 202.5z" fill-opacity=".15"/><path d="m1813.79 2090.49c0 66.13 85.62 146.37 187.3 145.5 93.73-.82 185.12-80.15 185.12-145.31 0-131.75-372.42-133.74-372.42-.19z" fill-opacity=".1"/></g><path d="m1811.2 2074.9c0 66.13 86.8 146.37 189.9 145.5 95.04-.82 187.7-80.15 187.7-145.31 0-52.42-109.33-98.53-187.7-97.86-72.77.67-189.9 35.64-189.9 97.67z" fill="#7f6145"/><path d="m1812.56 2063.45c36.17 47.41 107.98 87.42 188.68 86.79 74.66-.59 148.02-40.81 185.42-87.95 1.4 4.21 2.14 8.49 2.14 12.8 0 65.16-92.66 144.49-187.7 145.31-103.1.87-189.9-79.37-189.9-145.5 0-3.93.47-7.74 1.36-11.45z" fill="#000" fill-opacity=".2"/><path d="m1601.4 3259.89c56.82.05 92.99-68.11 58.59-115.27 15.91-45.21-18.09-95.39-66.66-96.55-56-1.34-88.37 58.5-82.5 109.13 5.48 47.31 37.52 102.65 90.57 102.69z" fill="#f7c394" stroke="#333" stroke-miterlimit="10" stroke-width="5"/><path d="m1510.83 3157.2c6.78 58.57 54.37 126.8 125.37 93.8-68.82-8.8-117-125.5-83.11-191.84-5.39 3.84-13.89 8.34-27.6 27.61-12.29 21.73-17.7 46.2-14.66 70.43z" fill="#000" fill-opacity=".1"/><path d="m2398.6 3259.89c-56.82.05-92.99-68.11-58.59-115.27-15.92-45.21 18.08-95.39 66.66-96.55 56-1.34 88.36 58.5 82.5 109.13-5.48 47.31-37.52 102.65-90.57 102.69z" fill="#f7c394" stroke="#333" stroke-miterlimit="10" stroke-width="5"/><path d="m2489.17 3157.2c-6.78 58.57-54.37 126.8-125.37 93.8 68.82-8.8 117-125.5 83.11-191.84 5.39 3.84 13.89 8.34 27.6 27.61 12.29 21.73 17.7 46.2 14.66 70.43z" fill="#000" fill-opacity=".1"/><path d="m2422.69 2818.33c-133.01 131.23-288.02 258.67-422.69 258.67-133.29 0-286.2-124.83-418.06-254.63 252.45-182.16 589.95-192.67 840.75-4.04z" fill="#000" fill-opacity=".3"/><path d="m2000 1900c-274.5 0-517-190.5-598.93-144.5-169.8 95.33 28.93 543 28.93 543-1042.498-1296.5 2212.5-1600.5 1169-35 0 0 168.7-394.4 0-508-75-50.5-324.5 144.5-599 144.5z" fill="#000" fill-opacity=".2"/><path d="m1843.25 2076.18c-18.46 19.19-33.99 38.55-61.99 46.82-38.72 11.44-145.47-36.49-245.5-79-111.76-47.5-166.11-100.42-185-111-37.5-21-54.33-5.93-58.5 42.5 0 503 1416.24 522 1416.24 0-4.16-48.43-21-63.5-58.5-42.5-18.88 10.58-64 56.29-185 111-76.5 34.59-206.78 90.44-245.5 79-27.98-8.26-44.46-26.81-62.18-46.77-29.48-33.18-78.82-70.23-157.32-70.23s-120.5 32.5-156.75 70.18z" fill="#000" fill-opacity=".2"/><path d="m1512.57 2654c-79.5-40-332.44-224-384-533-71.43-427.97-37.57-1489 871.43-1489s972.44 884.14 871.5 1489c-51.57 309-304.5 493-384 533 28.98-183.35 280.2-833.9 111.5-947.5-75-50.5-324.5 144.5-599 144.5s-517-190.5-598.93-144.5c-169.8 95.33 83.79 772.26 111.5 947.5z" fill="#252526" stroke="#333" stroke-width="5"/><path d="m1343.99 1834.98c4.16-62.04 21.13-108.3 57.08-128.48 37.55-21.08 108.84 7.52 201.48 44.69 109.48 43.92 248.77 99.81 397.45 99.81 148.03 0 288.79-56.71 398.84-101.05 94.01-37.87 165.6-66.72 200.16-43.45 35.8 24.11 52.69 72.39 56.81 135.27 5.2-96.15-8.81-171.95-56.81-204.27-34.56-23.27-106.15 5.58-200.16 43.45-110.05 44.34-250.81 101.05-398.84 101.05-148.68 0-287.97-55.89-397.45-99.81-92.64-37.17-163.93-65.77-201.48-44.69-48.28 27.11-62.33 101.23-57.08 197.48z" fill="#000" fill-opacity=".5"/><path d="m1105.32 1867.1c-13.59-493.28 134.62-1235.1 894.68-1235.1 742.77 0 920.96 590.35 906.22 1136.27-14.28-508.96-217.66-1016.27-906.22-1016.27-700.54 0-881.3 630.17-894.68 1115.1z" fill="#000" fill-opacity=".7"/><path d="m1843.25 2101.18c-18.46 19.19-33.99 38.55-61.99 46.82-38.72 11.44-145.47-36.49-245.5-79-111.76-47.5-166.11-100.42-185-111-37.5-21-54.33-5.93-58.5 42.5-15 174.5-23.5 463.19 103.5 573 42.64 36.86 90.27 80.94 141.08 133.28 142.87 147.19 310.83 320.22 463.16 320.22 152.49 0 321.06-173.4 464.24-320.68 50.72-52.17 98.25-96.07 140.76-132.82 127-109.81 118.5-398.5 103.5-573-4.16-48.43-21-63.5-58.5-42.5-18.88 10.58-64 56.29-185 111-76.5 34.59-206.78 90.44-245.5 79-27.98-8.26-44.46-26.81-62.18-46.77-29.48-33.18-78.82-70.23-157.32-70.23s-120.5 32.5-156.75 70.18z" fill="#3182bf"/><path d="m2706.79 1986.51c-153.15 193.02-429.79 443.49-429.79 443.49h-554s-250.1-214.67-427.77-450.02c7.06-31.78 23.98-39.65 55.53-21.98 18.89 10.58 73.24 63.5 185 111 100.03 42.51 206.78 90.44 245.5 79 28-8.27 43.53-27.63 61.99-46.82 36.25-37.68 78.25-70.18 156.75-70.18s127.84 37.05 157.32 70.23c17.72 19.96 34.2 38.51 62.18 46.77 38.72 11.44 169-44.41 245.5-79 121-54.71 166.12-100.42 185-111 33.61-18.82 50.62-8.67 56.79 28.51z" fill="#5aa8e0" stroke="#333" stroke-width="5"/><path d="m2000 2031c-40.56 0-71.38 8.68-96.69 22.26 7.79 54.05 25.14 129.19 63.69 185.74h66c38.24-56.5 55.63-131.56 63.52-185.6-25.74-13.26-57.53-22.4-96.52-22.4z" fill="#73b6e6"/><path d="m2730 2241.95c1.59-22.76 2.42-45.2 2.59-66.76-26.48 35.85-155.1 176.22-194.35 209.68-9.87-13.18-23.32-22.12-41.04-22.26-36-.37-65.54 45.25-66.18 101.9s11.36 102.16 47.27 102.48 82.26-44.67 82.84-101.26c.12-10.14-.95-21.99-3.42-33.98 27.05-24.76 160.37-171.59 172.29-189.75z" fill="#252526"/><path d="m2517.32 2461.84c-.18 17.15-11.19 30.94-24.62 30.83s-24.21-14.11-24-31.25 11.25-30.93 24.68-30.77 24.17 14.05 23.94 31.19z" fill="#3a3a4c"/><path d="m1270 2241.95c-1.59-22.76-2.42-45.2-2.59-66.76 26.48 35.85 155.1 176.22 194.35 209.68 9.87-13.18 23.32-22.12 41.04-22.26 36-.37 65.54 45.25 66.18 101.9s-11.36 102.16-47.27 102.48-82.26-44.67-82.84-101.26c-.12-10.14.95-21.99 3.42-33.98-27.05-24.76-160.37-171.59-172.29-189.75z" fill="#252526"/><path d="m1482.68 2461.84c.18 17.15 11.19 30.94 24.62 30.83s24.21-14.11 24-31.25-11.25-30.93-24.68-30.77-24.17 14.05-23.94 31.19z" fill="#3a3a4c"/><path d="m2146.9 2982.01c94.36-231.79 184.6-463.76 184.6-542.01 0-101.05-241.32-266-331.5-266-90.02 0-331.5 165.53-331.5 266 0 78.24 90.22 310.17 184.57 541.94 49.68 27.98 99.08 45.06 146.93 45.06 47.81 0 97.2-17.05 146.9-44.99z" fill="#23648c" stroke="#333" stroke-width="5"/><path d="m2104.16 3003.26c98.81-241.87 195.34-481.49 195.34-563.26 0-86.33-222.1-240-299.49-240-78.57 0-299.51 154.36-299.51 240 0 81.77 96.53 321.37 195.34 563.23 35.2 15.1 70.07 23.77 104.16 23.77 34.07 0 68.94-8.66 104.16-23.74z" fill="#242428"/><path d="m1751 2514.5s158.5-119 249-119 249 119 249 119" stroke="#000" stroke-linecap="round" stroke-linejoin="round" stroke-width="10"/><path d="m1851 2788s98.5-49 149-49 149 49 149 49" stroke="#000" stroke-linecap="round" stroke-linejoin="round" stroke-width="10"/><path d="m1905 2924s63-29 95-29 95 29 95 29" stroke="#000" stroke-linecap="round" stroke-linejoin="round" stroke-width="10"/><path d="m1801 2665s128-89 199-89 199 89 199 89" stroke="#000" stroke-linecap="round" stroke-linejoin="round" stroke-width="10"/><path d="m1843.25 2101.18c-18.46 19.19-33.99 38.55-61.99 46.82-38.72 11.44-145.47-36.49-245.5-79-111.76-47.5-166.11-100.42-185-111-37.5-21-54.33-5.93-58.5 42.5-15 174.5-23.5 463.19 103.5 573 42.64 36.86 90.27 80.94 141.08 133.28 142.87 147.19 310.83 320.22 463.16 320.22 152.49 0 321.06-173.4 464.24-320.68 50.72-52.17 98.25-96.07 140.76-132.82 127-109.81 118.5-398.5 103.5-573-4.16-48.43-21-63.5-58.5-42.5-18.88 10.58-64 56.29-185 111-76.5 34.59-206.78 90.44-245.5 79-27.98-8.26-44.46-26.81-62.18-46.77-29.48-33.18-78.82-70.23-157.32-70.23s-120.5 32.5-156.75 70.18z" stroke="#333" stroke-width="5"/></svg>