<svg width="4000" height="4000" viewBox="0 0 4000 4000" fill="none" xmlns="http://www.w3.org/2000/svg">
<path d="M2275.11 3290.64C2224.34 3283.22 2159.95 3258.37 2078.25 3214.64C2066.38 3208.29 2061.59 3192.79 2068 3180.8C2074.35 3168.93 2089.85 3164.14 2101.84 3170.55C2177.29 3210.92 2238.02 3234.67 2282.34 3241.15C2311.27 3245.38 2332.09 3242.15 2344.22 3231.51C2357.83 3219.59 2356.61 3198.51 2353.05 3159.12C2348.88 3113 2343.69 3055.59 2372.83 2989.61C2416.83 2889.89 2526.46 2795.08 2641.92 2812.91C2715.25 2824.27 2785.52 2879.1 2801.65 2953.5C2815.38 3016.86 2795.63 3103.67 2728.12 3127.93C2683.35 3143.93 2632.19 3125.57 2597.28 3095.85C2586.84 3087.17 2585.33 3070.85 2594.22 3060.41C2603.03 3050.07 2619.37 3048.77 2629.7 3057.79C2630.13 3058.15 2673.36 3094.44 2711.19 3080.85C2754.03 3065.47 2760.96 3001.9 2752.75 2964.07C2741 2909.84 2687.15 2870.5 2634.24 2862.3C2541.4 2847.97 2453.44 2930.79 2418.52 3009.79C2394.61 3063.95 2398.96 3112.11 2402.8 3154.6C2406.8 3198.44 2410.51 3239.85 2377.13 3269.1C2349.47 3293.5 2310.06 3295.9 2275.11 3290.64Z" fill="#E0E1EA" stroke="#333333" stroke-width="5" stroke-miterlimit="10"/>
<path d="M2786.65 2965.53C2797.71 3016.55 2787.83 3080.08 2748.83 3117.61C2800.24 3083.91 2813.9 3010.05 2801.65 2953.53C2785.52 2879.12 2715.26 2824.29 2641.92 2812.93C2575.66 2802.7 2510.14 2831.49 2460.38 2873.75C2574.5 2793 2753.67 2813.39 2786.65 2965.53Z" fill="black" fill-opacity="0.24"/>
<path d="M2717.62 3078.06C2690.59 3109.51 2642.03 3093.32 2614.73 3069.83C2611.59 3067.15 2607.83 3065.29 2603.79 3064.42C2599.76 3063.55 2595.57 3063.69 2591.6 3064.83C2595.58 3057.53 2603.24 3052.6 2611.53 3051.93C2618.13 3051.4 2624.68 3053.52 2629.73 3057.82C2651.8 3077.32 2689.57 3092.99 2717.62 3078.06Z" fill="black" fill-opacity="0.24"/>
<path d="M2073.5 3173.5C2077 3170.5 2089 3164.5 2096.5 3168C2103.48 3171.26 2111.84 3175.39 2121.23 3180.03C2170.65 3204.44 2248.7 3243 2305 3243C2355 3243 2359.5 3218 2352.5 3152C2353.35 3155.82 2354.42 3160.03 2355.56 3164.51C2365.18 3202.26 2379.65 3259 2305 3259C2223.5 3259 2096.21 3188.43 2073.5 3173.5Z" fill="black" fill-opacity="0.24"/>
<path d="M1587 3147C1623.5 3147 1652.66 3114.42 1649.04 3078.58C1643.62 3015.06 1667.66 2946.39 1714.99 2880.19C1758.05 2819.94 1804.2 2786.94 1768.7 2748C1733.2 2709.06 1653.14 2751.92 1613.3 2807.5C1547.59 2899.42 1516.11 2996.61 1524.67 3091.18C1527.86 3122.65 1550.5 3147 1587 3147Z" fill="#E0E1EA" stroke="#333333" stroke-width="5" stroke-miterlimit="10"/>
<path d="M1553.09 3059.16C1552.67 2946.89 1642.7 2781.5 1748.2 2735C1618.2 2714 1503.2 2968.5 1525.49 3086.77C1532.7 3075 1545.2 3063.5 1553.09 3059.16Z" fill="black" fill-opacity="0.14"/>
<path d="M1959.37 3446.51C1964.37 3359.43 1986.77 3292.08 2006.54 3239.7C2026.31 3187.32 2048.96 3095 1963.98 3073.68C1842.48 3043.19 1775.67 3327.8 1770.68 3414.62C1767.75 3465.7 1807.5 3524.95 1859.08 3527.91C1906.56 3530.22 1956.53 3496.12 1959.37 3446.51Z" fill="#E0E1EA" stroke="#333333" stroke-width="5" stroke-miterlimit="10"/>
<path d="M1769.48 3414.5C1820.98 3407.5 1917.48 3407.5 1957.98 3448.5C1958.32 3445.41 1959.42 3436.56 1959.64 3433.46C1917.48 3396.5 1821.48 3394 1771.62 3401C1771.36 3404.3 1769.76 3411.13 1769.48 3414.5Z" fill="black" fill-opacity="0.14"/>
<path d="M1785.48 3325C1833.24 3369.29 1894.36 3394.13 1963.48 3403.5C1964.06 3398.49 1965.29 3391.32 1965.98 3386.5C1897.38 3377.62 1837.78 3348.9 1789.98 3305.5C1787.98 3311.5 1786.36 3320.77 1785.48 3325Z" fill="black" fill-opacity="0.14"/>
<path d="M2040.63 3446.51C2035.63 3359.43 2013.23 3292.08 1993.46 3239.7C1973.69 3187.32 1951.04 3095 2036.02 3073.68C2157.52 3043.19 2224.33 3327.8 2229.32 3414.62C2232.25 3465.7 2192.5 3524.95 2140.92 3527.91C2093.44 3530.22 2043.47 3496.12 2040.63 3446.51Z" fill="#E0E1EA" stroke="#333333" stroke-width="5" stroke-miterlimit="10"/>
<path d="M2230.52 3414.5C2179.02 3407.5 2082.52 3407.5 2042.02 3448.5C2041.68 3445.41 2040.58 3436.56 2040.36 3433.46C2082.52 3396.5 2178.52 3394 2228.38 3401C2228.64 3404.3 2230.24 3411.13 2230.52 3414.5Z" fill="black" fill-opacity="0.14"/>
<path d="M2214.52 3325C2166.76 3369.29 2105.64 3394.13 2036.52 3403.5C2035.94 3398.49 2034.71 3391.32 2034.02 3386.5C2102.62 3377.62 2162.22 3348.9 2210.02 3305.5C2212.02 3311.5 2213.64 3320.77 2214.52 3325Z" fill="black" fill-opacity="0.14"/>
<path d="M2413 3147C2376.5 3147 2347.34 3114.42 2350.96 3078.58C2356.38 3015.06 2332.34 2946.39 2285.01 2880.19C2241.95 2819.94 2195.8 2786.94 2231.3 2748C2266.8 2709.06 2346.86 2751.92 2386.7 2807.5C2452.41 2899.42 2483.89 2996.61 2475.33 3091.18C2472.14 3122.65 2449.5 3147 2413 3147Z" fill="#E0E1EA" stroke="#333333" stroke-width="5" stroke-miterlimit="10"/>
<path d="M2446.91 3059.16C2447.33 2946.89 2357.3 2781.5 2251.8 2735C2381.8 2714 2496.8 2968.5 2474.51 3086.77C2467.3 3075 2454.8 3063.5 2446.91 3059.16Z" fill="black" fill-opacity="0.14"/>
<path d="M2000 2548C2154 2548 2220 2683 2260 2794C2300 2905 2318 3014 2318 3086C2318 3238 2179.32 3391.46 2000 3393C1824.47 3394.51 1682 3238 1682 3086C1682 3014 1699.7 2904.5 1740 2794C1780 2683 1846 2548 2000 2548Z" fill="#E0E1EA" stroke="#333333" stroke-width="5" stroke-miterlimit="10"/>
<path d="M2000 3393C1824.33 3394.59 1670 3236 1682 3056C1692 3204 1827.15 3344.48 2000 3343C2172.85 3341.52 2308 3204 2318 3056C2330 3236 2175.67 3391.41 2000 3393Z" fill="black" fill-opacity="0.14"/>
<path d="M2000 2672C2104 2672 2160 2740 2174 2800C2208.49 2947.82 2238 3074 2178 3150C2118 3226 2043.05 3232 2000 3232C1952.45 3232 1882 3226 1822 3150C1762 3074 1789.56 2956.17 1826 2800C1840 2740 1896 2672 2000 2672Z" fill="#F7C394" stroke="#333333" stroke-width="5" stroke-miterlimit="10"/>
<path d="M2000 3232C1864 3232 1776 3138 1787 3016C1791 3131 1883 3206 2000 3206C2117 3206 2209 3131 2213 3016C2224 3138 2136 3232 2000 3232Z" fill="black" fill-opacity="0.14"/>
<path d="M2090 3556C2058 3556 2026.91 3532.4 2023.31 3499.86C2014.19 3417.65 2117.65 3410.18 2173.97 3408.94C2231.07 3407.69 2328 3418.5 2344.99 3481.21C2359.84 3536 2308.5 3556 2272 3556C2235.5 3556 2223 3543.85 2179.02 3543.85C2140.61 3543.85 2122 3556 2090 3556Z" fill="#F7C394" stroke="#333333" stroke-width="5" stroke-miterlimit="10"/>
<path d="M2091 3534C2123 3534 2141.61 3521.85 2180.02 3521.85C2224 3521.85 2236.5 3534 2273 3534C2301.39 3534 2338.75 3521.9 2346.97 3490.74C2353.7 3538.34 2306.3 3556 2272 3556C2235.5 3556 2223 3543.85 2179.02 3543.85C2140.61 3543.85 2122 3556 2090 3556C2047.14 3556 2017 3521.85 2024.09 3475.74C2027.06 3509.2 2058.13 3534 2091 3534Z" fill="black" fill-opacity="0.14"/>
<path d="M1910 3556C1942 3556 1973.09 3532.4 1976.69 3499.86C1985.81 3417.65 1882.35 3410.18 1826.03 3408.94C1768.93 3407.69 1672 3418.5 1655.01 3481.21C1640.16 3536 1691.5 3556 1728 3556C1764.5 3556 1777 3543.85 1820.98 3543.85C1859.39 3543.85 1878 3556 1910 3556Z" fill="#F7C394" stroke="#333333" stroke-width="5" stroke-miterlimit="10"/>
<path d="M1909 3534C1877 3534 1858.39 3521.85 1819.98 3521.85C1776 3521.85 1763.5 3534 1727 3534C1698.61 3534 1661.25 3521.9 1653.03 3490.74C1646.3 3538.34 1693.7 3556 1728 3556C1764.5 3556 1777 3543.85 1820.98 3543.85C1859.39 3543.85 1878 3556 1910 3556C1952.86 3556 1983 3521.85 1975.91 3475.74C1972.94 3509.2 1941.87 3534 1909 3534Z" fill="black" fill-opacity="0.14"/>
<path d="M1601.4 3259.89C1658.22 3259.94 1694.39 3191.78 1659.99 3144.62C1675.9 3099.41 1641.9 3049.23 1593.33 3048.07C1537.33 3046.73 1504.96 3106.57 1510.83 3157.2C1516.31 3204.51 1548.35 3259.85 1601.4 3259.89Z" fill="#F7C394" stroke="#333333" stroke-width="5" stroke-miterlimit="10"/>
<path d="M1510.83 3157.2C1517.61 3215.77 1565.2 3284 1636.2 3251C1567.38 3242.2 1519.2 3125.5 1553.09 3059.16C1547.7 3063 1539.2 3067.5 1525.49 3086.77C1513.2 3108.5 1507.79 3132.97 1510.83 3157.2Z" fill="black" fill-opacity="0.14"/>
<path d="M2398.6 3259.89C2341.78 3259.94 2305.61 3191.78 2340.01 3144.62C2324.09 3099.41 2358.09 3049.23 2406.67 3048.07C2462.67 3046.73 2495.03 3106.57 2489.17 3157.2C2483.69 3204.51 2451.64 3259.85 2398.6 3259.89Z" fill="#F7C394" stroke="#333333" stroke-width="5" stroke-miterlimit="10"/>
<path d="M2489.17 3157.2C2482.39 3215.77 2434.8 3284 2363.8 3251C2432.62 3242.2 2480.8 3125.5 2446.91 3059.16C2452.3 3063 2460.8 3067.5 2474.51 3086.77C2486.8 3108.5 2492.2 3132.97 2489.17 3157.2Z" fill="black" fill-opacity="0.14"/>
<path fill-rule="evenodd" clip-rule="evenodd" d="M2434.5 2887.38C2421.45 2860.44 2405.47 2833.76 2386.7 2807.5C2349.61 2755.74 2277.63 2715.02 2239.24 2741.1C2197.36 2644.3 2130.07 2548 2000 2548C1869.94 2548 1802.64 2644.3 1760.77 2741.1C1722.38 2715.02 1650.4 2755.74 1613.3 2807.5C1594.47 2833.85 1578.44 2860.63 1565.37 2887.66C1605.61 2900.56 1646.85 2911.71 1688.94 2921.02C1695.69 2908.99 1703.24 2896.99 1711.55 2885.07C1708.1 2898.2 1704.97 2911.16 1702.16 2923.88C1797.43 2943.99 1897.02 2954.66 1999.5 2954.66C1999.5 2954.35 1999.5 2954.05 1999.5 2953.75C1999.5 2953.38 1999.5 2953.01 1999.5 2952.65V2954.66C2102.27 2954.66 2202.12 2943.93 2297.64 2923.71C2294.79 2910.91 2291.64 2897.87 2288.16 2884.65C2296.54 2896.65 2304.15 2908.72 2310.95 2920.83C2353.04 2911.49 2394.26 2900.31 2434.5 2887.38Z" fill="black" fill-opacity="0.24"/>
<path d="M878.607 1811.83C878.607 1642.4 841.931 1502.82 815.326 1484.25C776.502 1650.5 768 1979 815.326 2139.41C841.931 2120.84 878.607 1981.26 878.607 1811.83Z" fill="#E0E1EA" stroke="#333333" stroke-width="5" stroke-linejoin="round"/>
<path fill-rule="evenodd" clip-rule="evenodd" d="M807.33 1523.06C826.175 1582.38 842.607 1682.42 842.607 1795.83C842.607 1919.41 823.094 2027.12 802.209 2083.56C772.739 1925.65 779.166 1677.69 807.33 1523.06Z" fill="black" fill-opacity="0.14"/>
<path d="M3121 1811.83C3121 1642.4 3157.07 1502.82 3183.68 1484.25C3222.5 1650.5 3231 1979 3183.68 2139.41C3157.07 2120.84 3121 1981.26 3121 1811.83Z" fill="#E0E1EA" stroke="#333333" stroke-width="5" stroke-linejoin="round"/>
<path d="M3121 1811.83C3121 1642.4 3157.07 1502.82 3183.68 1484.25C3222.5 1650.5 3231 1979 3183.68 2139.41C3157.07 2120.84 3121 1981.26 3121 1811.83Z" fill="black" fill-opacity="0.1"/>
<path fill-rule="evenodd" clip-rule="evenodd" d="M3193.56 1533.72C3220.7 1692.33 3225.83 1939.95 3194.83 2093.71C3174.93 2035.87 3157 1931.27 3157 1811.83C3157 1694.94 3174.17 1592.26 3193.56 1533.72Z" fill="black" fill-opacity="0.14"/>
<path d="M3191.34 1811.83C3191.34 1959.99 3215.22 2080.09 3244.67 2080.09C3274.12 2080.09 3314 1959.99 3314 1811.83C3314 1663.67 3274.12 1543.56 3244.67 1543.56C3215.22 1543.56 3191.34 1663.67 3191.34 1811.83Z" fill="#E0E1EA" stroke="#333333" stroke-width="5"/>
<path d="M3191.34 1811.83C3191.34 1959.99 3215.22 2080.09 3244.67 2080.09C3274.12 2080.09 3314 1959.99 3314 1811.83C3314 1663.67 3274.12 1543.56 3244.67 1543.56C3215.22 1543.56 3191.34 1663.67 3191.34 1811.83Z" fill="black" fill-opacity="0.14"/>
<path fill-rule="evenodd" clip-rule="evenodd" d="M3287.48 1949C3257.94 1949 3234 1851.62 3234 1731.5C3234 1656.09 3243.44 1589.65 3257.77 1550.63C3253.29 1546.01 3248.87 1543.56 3244.67 1543.56C3215.22 1543.56 3191.34 1663.67 3191.34 1811.83C3191.34 1959.99 3215.22 2080.09 3244.67 2080.09C3264.86 2080.09 3289.96 2023.64 3303.74 1940.39C3298.18 1945.99 3292.67 1949 3287.48 1949Z" fill="black" fill-opacity="0.14"/>
<path d="M2462.26 634.966C2503.67 658.67 2538.34 678.515 2516.29 697.192C2481.69 726.5 2368.7 692.692 2048 692.692C1435 692.692 973.24 1061.42 815.325 1484.25C841.93 1502.82 878.606 1642.4 878.606 1811.83C878.606 1981.26 841.93 2120.84 815.324 2139.41C976.146 2570.02 1445.52 2881.66 1999.5 2881.66C1999.5 2880.99 1999.5 2880.32 1999.5 2879.65V2881.66C2553.48 2881.66 3022.86 2570.02 3183.68 2139.41C3157.07 2120.84 3120.4 1981.26 3120.4 1811.83C3120.4 1642.4 3157.07 1502.82 3183.68 1484.25C3045.44 1114.11 2654.13 939.506 2284.9 819.39C2646.02 936.603 2696.35 829.281 2701.34 818.782C2765.36 684.802 2342.97 481.192 2369.77 557.702C2380.41 588.115 2424.18 613.172 2462.26 634.966Z" fill="#E0E1EA"/>
<path fill-rule="evenodd" clip-rule="evenodd" d="M2565.24 923.439C2594.9 1035.46 2611.22 1195.4 2617.64 1359.59C2624.49 1534.8 2619.99 1712.96 2609.07 1839.28L2648.93 1842.72C2660.01 1714.54 2664.51 1534.7 2657.61 1358.03C2651.73 1207.43 2637.51 1057.76 2611.49 944.057C2596.18 937.012 2580.75 930.143 2565.24 923.439ZM2419.06 2819.24C2445.02 2586.89 2464.68 2243.16 2469.99 2100.74L2430.01 2099.26C2424.57 2245.46 2404.07 2601.41 2377.43 2831.36C2391.42 2827.52 2405.3 2823.48 2419.06 2819.24ZM1623.64 2831.92C1605.11 2620.04 1582.71 2228.67 1576.98 2103.09L1537.02 2104.91C1542.61 2227.4 1564.1 2603.88 1582.47 2820.01C1596.08 2824.18 1609.81 2828.15 1623.64 2831.92ZM1325.87 888.245C1322.05 979.651 1319.15 1083.93 1318.31 1190.66C1316.38 1437.3 1325.4 1700.17 1360.55 1847.64L1399.46 1838.36C1365.6 1696.33 1356.37 1438.2 1358.31 1190.97C1359.23 1074.51 1362.6 961.167 1366.93 864.53C1353.05 872.221 1339.36 880.129 1325.87 888.245Z" fill="black" fill-opacity="0.14"/>
<path d="M807.66 1811.83C807.66 1959.99 783.783 2080.09 754.33 2080.09C724.877 2080.09 685 1959.99 685 1811.83C685 1663.67 724.877 1543.56 754.33 1543.56C783.783 1543.56 807.66 1663.67 807.66 1811.83Z" fill="#E0E1EA" stroke="#333333" stroke-width="5"/>
<path fill-rule="evenodd" clip-rule="evenodd" d="M714.52 1960C744.055 1960 767.998 1854.34 767.998 1724C767.998 1652.24 760.741 1587.96 749.288 1544.68C750.996 1543.94 752.68 1543.56 754.332 1543.56C783.785 1543.56 807.661 1663.67 807.661 1811.83C807.661 1959.99 783.785 2080.09 754.332 2080.09C734.835 2080.09 710.772 2027.47 696.73 1948.91C702.808 1956.11 708.856 1960 714.52 1960Z" fill="black" fill-opacity="0.14"/>
<circle cx="1657.5" cy="2050.5" r="112.5" fill="#FBDD11"/>
<path fill-rule="evenodd" clip-rule="evenodd" d="M2592.8 935.567C2884.38 1128.17 3069.99 1418.38 3069.99 1743C3069.99 2322.9 2477.67 2793 1746.99 2793C1637.07 2793 1530.27 2782.36 1428.15 2762.3C1599.23 2838.57 1793.52 2881.66 1999.5 2881.66C1999.5 2880.99 1999.5 2880.32 1999.5 2879.65V2881.66C2553.48 2881.66 3022.86 2570.02 3183.68 2139.4C3157.07 2120.84 3120.4 1981.26 3120.4 1811.83C3120.4 1642.39 3157.07 1502.82 3183.68 1484.25C3083.97 1217.26 2852.59 1052.02 2592.8 935.567Z" fill="black" fill-opacity="0.14"/>
<path fill-rule="evenodd" clip-rule="evenodd" d="M2569.5 686C2569.5 670.773 2546.41 640.705 2505 617.001C2469.67 596.776 2429.43 573.743 2415.31 546.228C2382.84 537.105 2363.33 539.311 2369.77 557.702C2380.4 588.115 2424.18 613.172 2462.26 634.966C2503.67 658.67 2538.34 678.515 2516.29 697.192C2497.36 713.231 2454.94 710.367 2367.85 704.487C2295.81 699.622 2193.19 692.692 2048 692.692C1435 692.692 973.24 1061.42 815.324 1484.25C822.385 1489.18 830.156 1502.63 837.762 1522.9C1014.81 1121.6 1461.93 749.692 2046.68 749.692C2128.4 749.692 2202.42 752.634 2267.36 755.215C2457.26 762.763 2569.5 767.224 2569.5 686Z" fill="black" fill-opacity="0.14"/>
<path d="M2462.26 634.966C2503.67 658.67 2538.34 678.515 2516.29 697.192C2481.69 726.5 2368.7 692.692 2048 692.692C1435 692.692 973.24 1061.42 815.325 1484.25C841.93 1502.82 878.606 1642.4 878.606 1811.83C878.606 1981.26 841.93 2120.84 815.324 2139.41C976.146 2570.02 1445.52 2881.66 1999.5 2881.66C1999.5 2880.99 1999.5 2880.32 1999.5 2879.65V2881.66C2553.48 2881.66 3022.86 2570.02 3183.68 2139.41C3157.07 2120.84 3120.4 1981.26 3120.4 1811.83C3120.4 1642.4 3157.07 1502.82 3183.68 1484.25C3045.44 1114.11 2654.13 939.506 2284.9 819.39C2646.02 936.603 2696.35 829.281 2701.34 818.782C2765.36 684.802 2342.97 481.192 2369.77 557.702C2380.41 588.115 2424.18 613.172 2462.26 634.966Z" stroke="#333333" stroke-width="5" stroke-linejoin="round"/>
<path fill-rule="evenodd" clip-rule="evenodd" d="M1252.32 1794.84C1187.25 1805.03 1145.08 1862.26 1146.95 1928.09L1154.49 2194.03C1155.91 2243.85 1179.93 2290.17 1224.12 2313.22C1335 2371.04 1585.71 2470.52 1998.69 2470.78V2470.78C1998.96 2470.78 1999.23 2470.78 1999.5 2470.78C1999.77 2470.78 2000.04 2470.78 2000.31 2470.78V2470.78C2413.29 2470.52 2664.01 2371.04 2774.88 2313.22C2819.07 2290.17 2843.1 2243.85 2844.51 2194.03L2852.29 1919.85C2854.04 1858.01 2816.24 1804.48 2755.21 1794.37C2642.94 1775.77 2418.87 1752.51 2000.31 1752.45V1752.45C2000.05 1752.45 1999.79 1752.45 1999.53 1752.45C1999.25 1752.45 1998.97 1752.45 1998.69 1752.45V1752.45C1600.8 1752.51 1371.43 1776.16 1252.32 1794.84Z" fill="#263947"/>
<path d="M1146.95 1928.09L1144.45 1928.16L1146.95 1928.09ZM1252.32 1794.84L1251.93 1792.37L1251.93 1792.37L1252.32 1794.84ZM1154.49 2194.03L1156.99 2193.96L1156.99 2193.96L1154.49 2194.03ZM1224.12 2313.22L1222.97 2315.43L1222.97 2315.43L1224.12 2313.22ZM1998.69 2470.78H2001.19V2468.28L1998.7 2468.28L1998.69 2470.78ZM1998.69 2470.78H1996.19V2473.28H1998.69V2470.78ZM2000.31 2470.78V2473.28H2002.81V2470.78H2000.31ZM2000.31 2470.78L2000.31 2468.28L1997.81 2468.28V2470.78H2000.31ZM2774.88 2313.22L2776.04 2315.43L2776.04 2315.43L2774.88 2313.22ZM2844.51 2194.03L2842.01 2193.96L2842.01 2193.96L2844.51 2194.03ZM2852.29 1919.85L2849.79 1919.78L2849.79 1919.78L2852.29 1919.85ZM2755.21 1794.37L2755.62 1791.9L2755.62 1791.9L2755.21 1794.37ZM2000.31 1752.45H1997.81V1754.95L2000.31 1754.95L2000.31 1752.45ZM2000.31 1752.45H2002.81V1749.95H2000.31V1752.45ZM1999.53 1752.45L1999.53 1754.95L1999.53 1754.95L1999.53 1752.45ZM1998.69 1752.45V1749.95H1996.19V1752.45H1998.69ZM1998.69 1752.45L1998.69 1754.95L2001.19 1754.95V1752.45H1998.69ZM1149.45 1928.02C1147.61 1863.29 1189.03 1807.29 1252.7 1797.3L1251.93 1792.37C1185.47 1802.78 1142.55 1861.23 1144.45 1928.16L1149.45 1928.02ZM1156.99 2193.96L1149.45 1928.02L1144.45 1928.16L1152 2194.1L1156.99 2193.96ZM1225.28 2311C1182.04 2288.45 1158.39 2243.05 1156.99 2193.96L1152 2194.1C1153.43 2244.65 1177.83 2291.89 1222.97 2315.43L1225.28 2311ZM1998.7 2468.28C1586.13 2468.02 1335.81 2368.64 1225.28 2311L1222.97 2315.43C1334.18 2373.43 1585.29 2473.02 1998.69 2473.28L1998.7 2468.28ZM1996.19 2470.78V2470.78H2001.19V2470.78H1996.19ZM1998.69 2473.28C1998.83 2473.28 1998.96 2473.28 1999.1 2473.28C1999.23 2473.28 1999.37 2473.28 1999.5 2473.28V2468.28C1999.37 2468.28 1999.23 2468.28 1999.1 2468.28C1998.96 2468.28 1998.83 2468.28 1998.69 2468.28V2473.28ZM2000.31 2468.28C2000.18 2468.28 2000.04 2468.28 1999.91 2468.28C1999.77 2468.28 1999.64 2468.28 1999.5 2468.28V2473.28C1999.64 2473.28 1999.77 2473.28 1999.91 2473.28C2000.04 2473.28 2000.18 2473.28 2000.31 2473.28V2468.28ZM1997.81 2470.78V2470.78H2002.81V2470.78H1997.81ZM2000.31 2473.28C2413.71 2473.02 2664.82 2373.43 2776.04 2315.43L2773.72 2311C2663.19 2368.64 2412.87 2468.02 2000.31 2468.28L2000.31 2473.28ZM2776.04 2315.43C2821.18 2291.89 2845.58 2244.65 2847.01 2194.1L2842.01 2193.96C2840.62 2243.05 2816.97 2288.45 2773.72 2311L2776.04 2315.43ZM2847.01 2194.1L2854.79 1919.92L2849.79 1919.78L2842.01 2193.96L2847.01 2194.1ZM2854.79 1919.92C2856.57 1857.03 2818.07 1802.25 2755.62 1791.9L2754.8 1796.84C2814.42 1806.71 2851.51 1859 2849.79 1919.78L2854.79 1919.92ZM2755.62 1791.9C2643.17 1773.27 2418.95 1750.01 2000.31 1749.95L2000.31 1754.95C2418.79 1755.01 2642.71 1778.27 2754.8 1796.84L2755.62 1791.9ZM1997.81 1752.45V1752.45H2002.81V1752.45H1997.81ZM1999.53 1754.95C1999.79 1754.95 2000.05 1754.95 2000.31 1754.95V1749.95C2000.05 1749.95 1999.79 1749.95 1999.53 1749.95L1999.53 1754.95ZM1999.53 1749.95C1999.25 1749.95 1998.97 1749.95 1998.69 1749.95V1754.95C1998.97 1754.95 1999.25 1754.95 1999.53 1754.95L1999.53 1749.95ZM1996.19 1752.45V1752.45H2001.19V1752.45H1996.19ZM1252.7 1797.3C1371.65 1778.66 1600.89 1755.01 1998.69 1754.95L1998.69 1749.95C1600.71 1750.01 1371.2 1773.67 1251.93 1792.37L1252.7 1797.3Z" fill="#333333"/>
<path fill-rule="evenodd" clip-rule="evenodd" d="M2766.26 1796.73C2820.76 1811.13 2853.94 1861.84 2852.29 1919.85L2844.51 2194.03C2843.1 2243.85 2819.07 2290.17 2774.88 2313.22C2664.01 2371.04 2413.29 2470.52 2000.31 2470.78V2470.78L1999.5 2470.78L1998.7 2470.78V2470.78C1585.71 2470.52 1335 2371.04 1224.13 2313.22C1198.85 2300.03 1180.17 2279.24 1168.54 2254.53C1288.56 2313.1 1533.43 2401.09 1921.79 2401.34V2401.34L1922.6 2401.34L1923.41 2401.34V2401.34C2336.39 2401.08 2587.11 2301.59 2697.98 2243.77C2742.17 2220.72 2766.2 2174.41 2767.61 2124.59L2775.39 1850.41C2775.93 1831.39 2772.73 1813.16 2766.26 1796.73Z" fill="black" fill-opacity="0.14"/>
<circle r="212.5" transform="matrix(-1 0 0 1 2390.5 2098.5)" fill="#112535" stroke="#333333" stroke-width="5"/>
<circle r="112.5" transform="matrix(-1 0 0 1 2390.5 2098.5)" fill="#FBDD11"/>
<circle cx="1609.5" cy="2098.5" r="212.5" fill="#112535" stroke="#333333" stroke-width="5"/>
<circle cx="1609.5" cy="2098.5" r="112.5" fill="#FBDD11"/>
<mask id="path-49-outside-1" maskUnits="userSpaceOnUse" x="2263.55" y="3113" width="282" height="110" fill="black">
<rect fill="white" x="2263.55" y="3113" width="282" height="110"/>
<path fill-rule="evenodd" clip-rule="evenodd" d="M2270.55 3218C2282.86 3161 2338.15 3118 2404.5 3118C2470.85 3118 2526.14 3161 2538.44 3218H2516.97C2505.03 3171.58 2459.2 3137 2404.5 3137C2349.79 3137 2303.97 3171.58 2292.03 3218H2270.55Z"/>
</mask>
<path fill-rule="evenodd" clip-rule="evenodd" d="M2270.55 3218C2282.86 3161 2338.15 3118 2404.5 3118C2470.85 3118 2526.14 3161 2538.44 3218H2516.97C2505.03 3171.58 2459.2 3137 2404.5 3137C2349.79 3137 2303.97 3171.58 2292.03 3218H2270.55Z" fill="#813720"/>
<path d="M2270.55 3218L2265.67 3216.94L2264.36 3223H2270.55V3218ZM2538.44 3218V3223H2544.64L2543.33 3216.94L2538.44 3218ZM2516.97 3218L2512.12 3219.25L2513.09 3223H2516.97V3218ZM2292.03 3218V3223H2295.91L2296.87 3219.25L2292.03 3218ZM2404.5 3113C2336.07 3113 2278.52 3157.38 2265.67 3216.94L2275.44 3219.06C2287.19 3164.62 2340.23 3123 2404.5 3123V3113ZM2543.33 3216.94C2530.47 3157.38 2472.92 3113 2404.5 3113V3123C2468.77 3123 2521.8 3164.62 2533.56 3219.06L2543.33 3216.94ZM2516.97 3223H2538.44V3213H2516.97V3223ZM2521.81 3216.75C2509.24 3167.89 2461.24 3132 2404.5 3132V3142C2457.17 3142 2500.81 3175.26 2512.12 3219.25L2521.81 3216.75ZM2404.5 3132C2347.76 3132 2299.75 3167.89 2287.19 3216.75L2296.87 3219.25C2308.18 3175.26 2351.83 3142 2404.5 3142V3132ZM2270.55 3223H2292.03V3213H2270.55V3223Z" fill="#333333" mask="url(#path-49-outside-1)"/>
<path fill-rule="evenodd" clip-rule="evenodd" d="M2328.93 3138.72C2348.63 3128.71 2371.33 3123 2395.5 3123C2459.89 3123 2513.87 3163.51 2528.24 3218H2538.44C2526.14 3161 2470.84 3118 2404.5 3118C2376.55 3118 2350.57 3125.63 2328.93 3138.72ZM2339.92 3154.93C2313.26 3168.26 2293.01 3190.89 2284.46 3218H2292.03C2298.75 3191.88 2316.19 3169.5 2339.92 3154.93Z" fill="black" fill-opacity="0.14"/>
<path d="M2398 3259.89C2341.19 3259.94 2305.02 3191.78 2339.41 3144.62C2323.5 3099.41 2357.5 3049.23 2406.07 3048.07C2462.07 3046.73 2494.44 3106.57 2488.57 3157.2C2483.09 3204.51 2451.05 3259.85 2398 3259.89Z" fill="#F7C394" stroke="#333333" stroke-width="5" stroke-miterlimit="10"/>
<path d="M2488.57 3157.2C2481.79 3215.77 2434.2 3284 2363.2 3251C2432.03 3242.2 2480.2 3125.5 2446.31 3059.16C2451.7 3063 2460.2 3067.5 2473.91 3086.77C2486.2 3108.5 2491.61 3132.97 2488.57 3157.2Z" fill="black" fill-opacity="0.14"/>
<rect x="2155" y="3210" width="499" height="306" rx="32" fill="#813720" stroke="#333333" stroke-width="5"/>
<path fill-rule="evenodd" clip-rule="evenodd" d="M2155 3476V3484C2155 3501.67 2169.33 3516 2187 3516H2622C2639.67 3516 2654 3501.67 2654 3484V3242C2654 3224.33 2639.67 3210 2622 3210H2614V3444C2614 3461.67 2599.67 3476 2582 3476H2155Z" fill="black" fill-opacity="0.14"/>
<path d="M2155 3242C2155 3224.33 2169.33 3210 2187 3210H2622C2639.67 3210 2654 3224.33 2654 3242V3352C2654 3369.67 2639.67 3384 2622 3384H2187C2169.33 3384 2155 3369.67 2155 3352V3242Z" fill="#813720" stroke="#333333" stroke-width="5"/>
<path fill-rule="evenodd" clip-rule="evenodd" d="M2156.28 3361C2160.17 3374.29 2172.45 3384 2187 3384H2622C2639.67 3384 2654 3369.67 2654 3352V3242C2654 3224.33 2639.67 3210 2622 3210H2620.72C2621.55 3212.85 2622 3215.87 2622 3219V3329C2622 3346.67 2607.67 3361 2590 3361H2156.28Z" fill="black" fill-opacity="0.14"/>
<path d="M2363 3376C2363 3352.8 2381.8 3334 2405 3334V3334C2428.2 3334 2447 3352.8 2447 3376V3393H2363V3376Z" fill="#813720" stroke="#333333" stroke-width="5"/>
<path fill-rule="evenodd" clip-rule="evenodd" d="M2371.57 3350.57C2378.63 3345.19 2387.44 3342 2397 3342C2420.2 3342 2439 3360.8 2439 3384V3393H2447V3376C2447 3352.8 2428.2 3334 2405 3334C2391.36 3334 2379.24 3340.5 2371.57 3350.57Z" fill="black" fill-opacity="0.14"/>
<rect x="2362.5" y="3359.5" width="85" height="47" rx="7.5" fill="#FCD9AB" stroke="#333333" stroke-width="5"/>
<path fill-rule="evenodd" clip-rule="evenodd" d="M2360 3397V3399C2360 3404.52 2364.48 3409 2370 3409H2440C2445.52 3409 2450 3404.52 2450 3399V3367C2450 3361.48 2445.52 3357 2440 3357H2439V3392C2439 3394.76 2436.76 3397 2434 3397H2360Z" fill="black" fill-opacity="0.14"/>
<rect x="2388.5" y="3374.5" width="33" height="17" rx="2.5" fill="#FFE7C8" stroke="#333333" stroke-width="5"/>
</svg>
