<svg xmlns="http://www.w3.org/2000/svg" xmlns:xlink="http://www.w3.org/1999/xlink" width="4000" height="4000" fill="none" xmlns:v="https://vecta.io/nano"><style><![CDATA[.B{fill:#000}.C{stroke-width:5}.D{stroke:#333}.E{stroke-miterlimit:10}.F{fill-opacity:.15}.G{fill-opacity:.2}.H{fill:#feda30}.I{fill-opacity:.1}.J{stroke-linejoin:round}.K{fill:#994d5f}.L{fill:#f7c394}.M{fill:#974b5d}.N{stroke-linecap:round}]]></style><path d="M2635.25 2986.94c-3.94-36.28-39.47-61.76-74.72-54.3-62.56 12.25-133.42-4.25-204.34-44.16-64.54-36.3-102.34-78.63-137.22-39.13-34.88 39.5 16.37 114.46 75.92 148.07 98.47 55.4 199.5 72.22 292.6 53.5 30.94-6.57 51.7-27.7 47.77-64z" class="C D E H"/><path d="M2551.58 3030.13c-111.57 12.53-285.7-59.13-343.32-159-6.85 131.5 251.24 212.87 370.75 180.46-12.48-5.9-22.26-14.08-27.43-21.46z" class="B F"/><path d="M2745.92 2960.45c-6.08-56.5-77.74-85.1-120.9-45.82-46.67-10.94-92.9 28.28-88.8 76.7 4.7 55.82 67.7 81.54 117.4 70.25 46.45-10.56 98-48.38 92.32-101.12z" class="C D E K"/><path d="M2653.6 3061.57c57.5-13.06 120.2-67.74 79.72-134.76-.75 39.13-36.34 75.44-79.72 94.9-2.1 9.3-4.1 23.8 0 39.87z" class="B G"/><path d="M1724.9 3290.64c50.77-7.42 115.16-32.27 196.86-76 11.87-6.35 16.67-21.85 10.25-33.84-6.35-11.87-21.85-16.66-33.84-10.25-75.45 40.37-136.18 64.12-180.5 70.6-28.93 4.23-49.75 1-61.88-9.64-13.6-11.92-12.4-33-8.83-72.4 4.17-46.12 9.36-103.53-19.78-169.5-44-99.72-153.63-194.53-269.1-176.7-73.33 11.36-143.6 66.2-159.73 140.6-13.73 63.36 6.02 150.18 73.53 174.43 44.77 16 95.93-2.36 130.84-32.08 10.45-8.68 11.95-25 3.06-35.44-8.8-10.34-25.15-11.64-35.48-2.62-.43.36-43.66 36.65-81.5 23.06-42.84-15.38-49.77-78.95-41.56-116.78 11.75-54.23 65.6-93.57 118.5-101.77 92.84-14.33 180.8 68.5 215.72 147.5 23.9 54.16 19.56 102.32 15.72 144.8-4 43.84-7.7 85.25 25.67 114.5 27.67 24.4 67.07 26.8 102.02 21.54z" class="C D E H"/><path d="M1213.35 2965.53c-11.06 51.02-1.18 114.55 37.82 152.08-51.4-33.7-65.07-107.56-52.82-164.08 16.13-74.4 86.4-129.24 159.73-140.6 66.26-10.23 131.78 18.56 181.54 60.82-114.12-80.75-293.3-60.36-326.27 91.78zm69.03 112.53c27.03 31.45 75.6 15.26 102.9-8.23 3.14-2.68 6.9-4.54 10.94-5.4a25.037 25.037 0 0 1 12.19.41c-3.97-7.3-11.63-12.23-19.93-12.9-6.6-.53-13.15 1.6-18.2 5.9-22.07 19.5-59.84 35.17-87.9 20.24zm644.12 95.44c-3.5-3-15.5-9-23-5.5-6.98 3.26-15.34 7.4-24.73 12.03-49.42 24.4-127.47 62.97-183.77 62.97-50 0-54.5-25-47.5-91-.85 3.82-1.92 8.03-3.06 12.5-9.62 37.75-24.1 94.5 50.56 94.5 81.5 0 208.8-70.57 231.5-85.5z" class="B G"/><path d="M1587 3147c36.5 0 65.66-32.58 62.04-68.42-5.42-63.52 18.62-132.2 65.95-198.4 43.06-60.25 89.2-93.25 53.7-132.2s-115.56 3.92-155.4 59.5c-65.7 91.92-97.2 189.1-88.63 283.68 3.2 31.47 25.83 55.82 62.33 55.82z" class="C D E H"/><path d="M1553.1 3059.16c-.42-112.27 89.6-277.66 195.1-324.16-130-21-245 233.5-222.7 351.77 7.2-11.77 19.7-23.27 27.6-27.6z" class="B F"/><path d="M1959.37 3446.5c5-87.08 27.4-154.43 47.17-206.8s42.42-144.7-42.56-166.02c-121.5-30.5-188.3 254.12-193.3 340.94-2.93 51.08 36.82 110.33 88.4 113.3 47.48 2.3 97.45-31.8 100.3-81.4z" class="C D E H"/><path d="M1769.48 3414.5c51.5-7 148-7 188.5 34l1.66-15.04c-42.16-36.96-138.16-39.46-188.02-32.46-.26 3.3-1.86 10.13-2.14 13.5zm16-89.5c47.76 44.3 108.88 69.13 178 78.5.58-5 1.8-12.18 2.5-17-68.6-8.88-128.2-37.6-176-81-2 6-3.62 15.27-4.5 19.5z" class="B F"/><path d="M2040.63 3446.5c-5-87.08-27.4-154.43-47.17-206.8s-42.42-144.7 42.56-166.02c121.5-30.5 188.3 254.12 193.3 340.94 2.93 51.08-36.82 110.33-88.4 113.3-47.48 2.3-97.45-31.8-100.3-81.4z" class="C D E H"/><path d="M2230.52 3414.5c-51.5-7-148-7-188.5 34l-1.66-15.04c42.16-36.96 138.16-39.46 188.02-32.46.26 3.3 1.86 10.13 2.14 13.5zm-16-89.5c-47.76 44.3-108.88 69.13-178 78.5-.58-5-1.8-12.18-2.5-17 68.6-8.88 128.2-37.6 176-81 2 6 3.62 15.27 4.5 19.5z" class="B F"/><path d="M3133.2 1832.12c111.1 102 66.32 309.3-9.1 427.16-107.46 168-353.47 273.75-479.46 184.37-131.58-93.35-114.4-386.92 39.2-539.32 114.68-113.78 334.45-177.7 449.35-72.2z" class="C D E L"/><path d="M3003.5 1952.22c66 68.2 30.1 196.68-21.65 267.88-73.75 101.45-232.17 158.7-307.94 97.86-79.14-63.53-57.4-247.22 44.75-337.18 76.26-67.16 216.64-99.08 284.84-28.56z" fill="#ffc9a1"/><path d="M3124.1 2259.28c-60.7 94.85-195.1 203.22-346.6 216.72 106.36-25 260-133.85 306.64-206.72 75.4-117.87 115.36-338.97 9.1-427.16-32.4-26.9-114.73-65.12-227.73-45.12 138-42.5 222.8-6.13 267.73 35.12 111.06 102 66.28 309.3-9.13 427.16z" class="B I"/><path d="M866.818 1832.12c-111.1 102-66.32 309.3 9.1 427.16 107.46 168 353.472 273.75 479.462 184.37 131.58-93.35 114.4-386.92-39.2-539.32-114.68-113.78-334.452-177.7-449.352-72.2z" class="C D E L"/><path d="M996.518 1952.22c-66 68.2-30.1 196.68 21.652 267.88 73.75 101.45 232.17 158.7 307.94 97.86 79.14-63.53 57.4-247.22-44.75-337.18-76.26-67.16-216.64-99.08-284.842-28.56z" fill="#ffc9a1"/><path d="M875.908 2259.28C936.598 2354.13 1071 2462.5 1222.5 2476c-106.36-25-260.02-133.85-306.642-206.72-75.4-117.87-115.36-338.97-9.1-427.16 32.41-26.9 114.732-65.12 227.732-45.12-138.002-42.5-222.792-6.13-267.732 35.12-111.06 102-66.28 309.3 9.13 427.16z" class="B I"/><path d="M2000 2548c154 0 220 135 260 246s58 220 58 292c0 152-138.68 305.46-318 307-175.53 1.5-318-155-318-307 0-72 17.7-181.5 58-292 40-111 106-246 260-246z" class="C D E H"/><path d="M2000 3393c-175.67 1.6-330-157-318-337 10 148 145.15 288.48 318 287s308-139 318-287c12 180-142.33 335.4-318 337z" class="B F"/><path d="M2000 2672c104 0 160 68 174 128 34.5 147.82 64 274 4 350s-134.95 82-178 82c-47.55 0-118-6-178-82s-32.44-193.83 4-350c14-60 70-128 174-128z" class="C D E L"/><g class="B"><path d="M2000 3232c-136 0-224-94-213-216 4 115 96 190 213 190s209-75 213-190c11 122-77 216-213 216z" class="I"/><path d="M2302 2849.44c-98.24 28.56-209.02 47.56-302 47.56-124 0-259.34-26.43-395-79-7.24 10.54-16.6 26.27-23 37 142 57 275 86 418 86 118.33 0 229.8-19.86 345.2-59-15.7-10-35.7-19.5-43.2-32.56z" class="F"/></g><path d="M2500.32 839c42.32-35.85-124.32-76-146.52-139.5-26.8-76.5 395.6 127.1 331.57 261.08-5 10.5-55.43 94-417.6-23.77C2665.92 1066 2967.42 1339.94 2966 1847c-1.1 388.75-350.07 990.8-966.43 996.18-594.62 5.2-966.64-596.22-965.57-996.18 1.32-488.44 432.13-990.94 966-1028.5 319.4-22.45 465.3 50.1 500.32 20.5z" class="C D H J"/><path d="M2565.16 861.34c-29.66 65.16-211.8-40-531.22-17.54C1380.48 889.737 907 1615 1169.36 2202.88c68.14-70.38 151.14-90.38 177.6-99.16 7.94 8.57 17.6 17.67 21.05 21.78-81.37 25.35-175.93 80.4-216.63 156.84-76.27-147.6-117-302.56-116.6-435.33 1.32-488.45 432.22-991 966.1-1028.57 319.4-22.45 464.56 50.1 499.6 20.46 42.18-35.75-124.46-75.9-146.65-139.4-8.57-24.46 28.82-20.27 81.55 1.13-20-2.88-31 1.83-25.55 15.87 19.38 50.4 180.3 90.02 155.35 144.83zm399.34 985.73c-.36 127.74-38.12 278.5-110.54 423.57C2779 2168 2644.73 2127 2631 2127l20-24.5c23.5 5.5 128.62 27.9 187.28 106.2 59.3-132.15 86.52-255.16 86.84-370.86 1.47-524.24-353.62-784.84-657.36-901.02C2665.92 1066 2965.92 1340 2964.5 1847.07z" class="B F"/><path d="M1725 1203.5c-297 0-665 628.5-363.5 918.5-575.5 180 0 779 638.5 779s1214-599 638.5-779c301.5-290-66.5-918.5-363.5-918.5-126.5 0-195.5 58.5-275 116.5-79.5-58-148.5-116.5-275-116.5z" fill="#ffcd98" class="C D"/><g class="B"><path d="M2749.1 1817c-15.7-308.54-265-613.2-481.5-613.2-134.6 0-216.2 82.14-267.6 116.2-41.1-28.05-132.5-116.2-268.4-116.2-255.6 0-478.1 373.2-482.13 622.7C1227 1558 1433.07 1155 1733 1155c156 0 239 75 267 106 28-31 111-106 267-106 297.63 0 503.5 381.5 482.1 662z" class="F"/><path d="M1250.37 1807.4c-7.1 117.45 24.02 230 111.45 314.1-10.42 3.26-20.47 7.66-30.15 11.2 22.33-7.2 43.66-12.28 68.33-16.7-84.54-81.32-133.47-191.76-149.63-308.6zm-101.77 459.27c-135.93 245.26 334.32 633.83 851.4 633.83s993.17-392.85 849.75-637.86C2945.1 2486.74 2490.72 2863 2000 2863c-487.8 0-939.7-371.78-851.4-596.33zM2670.5 2133c-21.76-6.4-44.6-12.37-70.5-17 85.32-82.07 134.37-193.8 150.07-311.86 7.9 118.62-23 232.5-111.25 317.36 11.32 3.54 21.24 7.64 31.68 11.5z" class="I"/></g><g class="C D"><path d="M2000 1651c29.8-125.4 118.48-236.63 234-252.1 172.14-23.04 340.78 175.53 339.8 365.7-.73 141.97-96.26 312.58-247.73 332.52-149.65 19.7-285.2-116.72-325.5-265.56-37.66 149.54-170.83 288.3-320.8 271.27-151.8-17.3-250.26-186.22-253.5-328.16-4.3-190.16 160.84-391.67 333.38-371.6C1875.44 1416.52 1968 1526.14 2000 1651z" fill="#fff"/><path d="M2273.74 1992.7c97.75-20.74 157.47-129.6 133.37-243.16-24.1-113.55-122.87-188.8-220.62-168.05-97.76 20.75-157.47 129.6-133.38 243.16 24.1 113.56 122.88 188.8 220.63 168.05z" fill="#4a4b51" class="E"/></g><path d="M2221.84 1937.7c58.5-1.02 105-54.87 103.86-120.3-1.15-65.4-49.5-117.6-108-116.6-58.5 1.02-105 54.88-103.86 120.3 1.14 65.42 49.5 117.62 108 116.6z" class="B"/><path d="M2288.34 1764.4c21.95-8.2 33.4-31.8 25.58-52.72-7.8-20.92-31.94-31.23-53.88-23.03-21.95 8.2-33.4 31.8-25.6 52.73 7.82 20.9 31.95 31.22 53.9 23.02z" fill="#fff" class="C D E"/><path d="M2295.1 1986.4c60.86-43.65 92.6-129.07 73.87-217.3-22.4-105.54-126.48-201.4-238.74-163.7 17.03-11.63 36.17-19.82 56.34-24.1 97.76-20.75 196.54 54.48 220.65 168 22.3 105.1-27.16 206.17-112.12 237.1z" class="B F"/><path d="M1947.73 1825.22c22.1-113.95-39.5-221.76-137.6-240.8-98.1-19.04-195.55 57.9-217.66 171.87-22.1 113.95 39.5 221.76 137.6 240.8 98.1 19.04 195.55-57.9 217.66-171.87z" fill="#4a4b51" class="C D E"/><path d="M1781.2 1941.56c58.5 0 105.94-53.04 105.94-118.46s-47.43-118.46-105.94-118.46-105.94 53.04-105.94 118.46 47.43 118.46 105.94 118.46z" class="B"/><path d="M1874.9 1740.3c7.45-21.05-4.42-44.45-26.5-52.27-22.1-7.82-46.03 2.9-53.48 23.96s4.4 44.45 26.5 52.27c22.08 7.8 46.03-2.9 53.48-23.96z" fill="#fff" class="C D E"/><path d="M1863.62 1605.54c-112.85-32.07-212.74 65.3-233.15 170.44-16.75 86.35 14.07 169.22 72.35 213.35-81.88-32-130.23-129.93-110.25-232.9 22.12-114 119.58-190.9 217.68-171.85 18.92 3.67 37 10.77 53.37 20.95z" class="B F"/><path d="M1910 3556c32 0 63.1-23.6 66.7-56.14 9.1-82.2-94.35-89.68-150.67-90.92-57.1-1.25-154.03 9.56-171.02 72.27-14.85 54.8 36.5 74.8 73 74.8s49-12.15 92.98-12.15c38.4 0 57.02 12.15 89.02 12.15z" fill="#816297" class="C D E"/><path d="M1909 3534c-32 0-50.6-12.15-89.02-12.15-43.98 0-56.48 12.15-92.98 12.15-28.4 0-65.75-12.1-73.97-43.26-6.73 47.6 40.67 65.26 74.97 65.26 36.5 0 49-12.15 92.98-12.15 38.4 0 57.02 12.15 89.02 12.15 42.86 0 73-34.15 65.9-80.26-2.97 33.46-34.04 58.26-66.9 58.26z" class="B G"/><path d="M2090 3556c-32 0-63.1-23.6-66.7-56.14-9.1-82.2 94.35-89.68 150.67-90.92 57.1-1.25 154.03 9.56 171.02 72.27 14.85 54.8-36.5 74.8-73 74.8s-49-12.15-92.98-12.15c-38.42 0-57.02 12.15-89.02 12.15z" fill="#816297" class="C D E"/><path d="M2091 3534c32 0 50.6-12.15 89.02-12.15 43.98 0 56.48 12.15 92.98 12.15 28.4 0 65.75-12.1 73.97-43.26 6.73 47.6-40.67 65.26-74.97 65.26-36.5 0-49-12.15-92.98-12.15-38.42 0-57.02 12.15-89.02 12.15-42.86 0-73-34.15-65.9-80.26 2.97 33.46 34.04 58.26 66.9 58.26z" class="B G"/><path d="M1601.4 3259.9c56.8.05 92.98-68.1 58.6-115.27 15.9-45.2-18.1-95.4-66.66-96.55-56-1.34-88.37 58.5-82.5 109.13 5.48 47.3 37.52 102.65 90.57 102.7z" class="C D E K"/><path d="M1510.83 3157.2c6.78 58.57 54.37 126.8 125.37 93.8-68.83-8.8-117-125.5-83.1-191.84-5.4 3.84-13.9 8.34-27.6 27.6-12.3 21.73-17.7 46.2-14.66 70.43z" class="B G"/><path d="M1644 2456.42c23-35.92 42.14-55.2 101.07-55.2s611 32.76 611 32.76" stroke="#634b37" stroke-width="28" class="J N"/><path d="M2834.85 1345.32c-195.46 24.3-451.5 35.8-744.22 29.23-278.45-6.23-594.76-58.44-844.56-123.85 30.05-40.22 62.7-78.43 97.73-114.4 182.55 38.3 426.92 76.45 754.5 101.8 272.66 21.1 481.9 6.9 642.2-16.73 35.37 38.17 66.97 79.68 94.35 123.94z" class="B F"/><g stroke="#000" class="C"><path d="M2775.35 1264.27l-1462.64-90.52c9-51.45 33.57-136.28 28.93-232-8.26-167.1-80.75-342.702-29.5-507.05 128.58-412.288 645.1-112.344 932.18-115.14 87.3-.86 223.4-33.56 367.67-.85 220.66 50 127.58 340.6 122.15 562-3.2 127.66 5.97 260.6 41.2 383.56z" class="J M"/><path d="M2775.35 1264.27c-.01-.05-.03-.1-.04-.14-24.15-84.33-36.04-173.35-40.1-262.15-230.16-59.676-1075.6-61.868-1393.57-60.25 4.64 95.72-19.92 180.54-28.93 232l1462.64 90.54z" fill="#67253c"/></g><g class="B"><path d="M1417 609.24c137.8 197.4 647.1 156.4 674.38-65.8s-62.37 64.27-349.78 56.9-353.42-32.34-324.6 8.9z" class="F"/><path d="M2775.35 1264.27l-150-60c-35.25-123.03-44.2-255.787-41.23-383.5 4.43-180.7 67.22-407.4-29.7-511.9 19.34 2.29 38.56 5.586 57.56 9.87 220.66 50 127.58 340.6 122.15 562-3.2 127.66 6 260.58 41.23 383.53z" class="G"/></g><path d="M2532.15 1037.52c-14.72-13.84-34.85-19.05-50.57-31.04-6.74-5.35-15.02-8.404-23.62-8.7-77.68-2.848-141.8 70.76-120.5 147.17 14.57 52.26 56.75 88.6 111.4 90.45 59.67.86 112.27-53.28 117.78-110.24 3.3-34.54-9.47-64.15-34.48-87.63zm23.88 82.84c-3.04 69.66-73.88 117.1-138.74 91.95-39.04-15.14-63.2-56.82-63.2-97.84.37-36.93 17.2-64.7 48.3-83.72 35.92-21.97 90.4-15.06 120.7 13.24 23.36 21.8 32.93 44.83 32.93 76.37zm-92.46-.7l.63-2.2 66.65-1.84-.07-1.57c-.46-.26-.95-.45-1.47-.55l-48.48-1c-6.87-.18-13.78-.38-20.6-1.2-2.6-.52-4.92-1.94-6.58-4-7.9-9.83-15.54-19.87-23.08-30-.8-1.06-1.1-3.78-.4-4.48 7.32-7.14 14.64-14.3 22.43-20.9 9.87-8.36 20.18-16.2 30.7-24.6-9.35.72-18.68-2.9-28.05 1.43 4.34 5.9 4.57 6.9.85 10.74l-41.48 42.4-1.86-.8c-.85-15.5 3.4-31.2-.73-46.94-2.8 7.77-10.14 6-17.1 8.25 11.35 5.42 9.5 14.5 9.4 23.18-.1 6.13.18 12.25.85 18.34.58 5.1-.56 9-4.76 12.13-2.3 1.7-4.3 3.85-6.42 5.8l1 1.14 8-5.36c1 4.06 3.55 8.55 2.3 10.18-2.26 3-6.75 4.23-10.6 6.37 5.36 1.27 10.77 1.36 10.56 8.55l-1.13 30c-.44 8.2-1.52 9.18-9.73 10.6l-7.43 1.4c7.38 4.32 16.7-1 23.28 7 1.17-4.1 1.8-8.34 1.83-12.6-.23-11.15-.75-22.3-1.33-33.45-.17-3.4.68-5.18 4.46-5.35 11.67-.54 23.36-2 35-1.64 3.9.1 8.75 3.55 11.3 6.88 8.57 11.25 16.36 23.1 24.34 34.8 4.16 6.1 8.06 12.33 12.23 18.72l-10 7.15c9.9 2.05 20.14 1.83 29.94-.65-22.82-19.02-35.74-44.76-54.48-65.9zm-27.68-7.53c-6.5 0-13-.64-19.5-.58-4 0-5.06-1.78-5.25-5.37-.6-10.8 2.33-19.88 11.16-26.86 3.5-2.75 4.87-.8 6.57 1.6l21.43 30.3c-5.7.38-10.05.92-14.4.92z" class="M"/><path d="M2520.83 1039.5c-19-17.8-41.95-25-67.7-25.47-18.86-.37-36.9 2.4-53 12.23-31.12 19-47.95 46.8-48.32 83.73 0 12.98 3.08 24.44 6.52 37.02 1.8 6.74 5.38 12.83 8.67 19-2.23-4.8-5.04-9.38-6.42-14.5-2.3-8.4-3.82-16.48-5.58-25-.78-3.74-.95-8.12-.95-12.02.38-36.94 17.2-64.7 48.32-83.73 16.1-9.84 34.12-12.6 53-12.23 25.75.5 48.65 7.68 67.7 25.47 8.93 8.17 16.45 17.76 22.24 28.4-5.97-12.43-14.28-23.6-24.48-32.88zm34.68 28.06c7.73 16.56 10.8 34.92 8.87 53.1-9.07 94.56-128.78 144.03-198.56 74.8-7.84-7.84-14.43-16.83-19.54-26.67 5.4 11.57 12.77 22.1 21.78 31.16 68.25 67.7 189.37 20.4 198.56-74.8 2.02-21.15-1.97-40.4-11.1-57.6zm-24.73 46.5c-.46-.26-.95-.45-1.47-.55l-48.5-1h-.3l-18.52.5-.62 2.2 2.64 3.08.23-.78 66.65-1.84c-.08-.54-.1-1.07-.12-1.6zm-17.22 67.54c-6.76 1.48-13.7 1.88-20.6 1.2l-4.83 3.43c9.9 2.05 20.14 1.83 29.94-.65-1.55-1.3-3.07-2.57-4.5-3.97zm-54.23-60.54c-2.55-3.34-7.4-6.78-11.3-6.9-11.64-.3-23.32 1.1-35 1.64-3.78.17-4.62 2-4.45 5.36l1.32 33.44c-.04 4.27-.66 8.5-1.83 12.62-2.8-3.44-6.13-4.43-9.6-4.76-1.1.3-2.42.56-4 .83-2.48.42-4.95.93-7.43 1.4 1.26.73 2.64 1.24 4.07 1.5 6.84 1.32 14.44-.43 19.38 5.8 1.18-4.1 1.66-8.63 1.7-12.9-.22-11.15-.75-22.3-1.32-33.44-.17-3.4.67-5.2 4.46-5.36 11.67-.54 23.36-2 35-1.64 3.88.1 8.74 3.55 11.3 6.9 8.58 11.24 16.37 23.1 24.35 34.8-5.16-10.86-20.43-31.14-26.65-39.3zm16.25-93.9l-25.22 20.26c-7.8 6.6-15.1 13.78-22.43 20.92-.7.7-.4 3.4.4 4.48l1.47 2c-.13-.7 0-1.4.37-2 7.32-7.14 14.64-14.3 22.43-20.92 9.88-8.36 20.2-16.2 30.72-24.6-2.58.16-5.17.1-7.74-.14zm-63.54 6.96c-.25.73-.6 1.43-1 2.08 1.78 13.55-1.26 27-.53 40.38l2.13.5c-.05-14.2 3.18-28.57-.64-42.97h.04z" fill="#49162a"/><path d="M2526.45 1045.1a90.081 90.081 0 0 0-35.07-20.46 89.86 89.86 0 0 1 31.7 19.34c22.1 20.63 34.26 46.1 33 76.37-1.82 41.75-26.28 76.36-64.06 91.8-21.48 8.88-45.42 9.83-67.53 2.67 23.45 8.18 47.66 8 70.9-1.54 37.77-15.45 62.24-50.06 64-91.8 1.32-30.27-10.84-55.73-32.94-76.37zM2458 997.77c-38.2-1.4-70.2 13.33-95.3 40.92-27.48 30.2-36.4 66.13-25.2 106.25 5.8 20.84 15.4 40 30.6 55 12.28 12.2 27.32 21.26 43.85 26.4a106.991 106.991 0 0 1-40.48-25.28c-15.2-15-24.8-34.16-30.6-55-11.18-40.12-2.27-76 25.2-106.26 25.1-27.6 57.1-42.32 95.3-40.9 3.17.1 6.3.58 9.36 1.43a39.354 39.354 0 0 0-12.73-2.55zm72.78 116.3c-.46-.26-.95-.45-1.47-.55l-48.5-1c-6.76-.18-13.57-.37-20.3-1.17.94.56 2 .93 3.07 1.1 6.82.83 13.72 1 20.6 1.2l46.6 1-.02-.57zm-41.5 47.42c-8-11.7-15.77-23.56-24.35-34.8-2.34-3.05-6.62-6.2-10.3-6.78 2.7 1.35 5.07 3.28 6.94 5.66 8.58 11.24 16.37 23.1 24.35 34.8 4.15 6.08 8.06 12.32 12.23 18.7l-10 7.15c1.36.26 2.7.48 4 .68l9.38-6.7-12.24-18.7zm-34-132.76c4.35 5.92 4.57 6.9.86 10.75l-40 40.93c0 .6 0 1.2.07 1.78l1.86.8 41.48-42.4c3.72-3.85 3.5-4.83-.85-10.74 7.76-3.6 15.48-1.72 23.2-1.4l1.5-1.16c-9.4.7-18.76-2.9-28.14 1.42h.03zm-47.55 38c.1-8.68 1.94-17.76-9.4-23.2 5.5-1.8 11.23-1.06 14.77-4.46-.26-1.64-.6-3.27-1-4.9-2.78 7.77-10.13 6-17.1 8.25 11.34 5.42 9.5 14.5 9.4 23.18-.1 6.13.18 12.26.86 18.35.58 5.1-.57 9-4.76 12.12-2.3 1.72-4.3 3.85-6.43 5.8l1 1.15c2.88-1.94 6.08-3.74 8.7-5.82 4.2-3.1 5.35-7 4.76-12.12-.66-6.1-.94-12.25-.83-18.4l.03.05zm-5.14 49.36c2 1.3 2.84 3.64 2.76 6.65l-1.13 30c-.44 8.2-1.52 9.18-9.74 10.6-2.48.42-4.95.93-7.43 1.4 1.26.73 2.64 1.24 4.07 1.5l-.7-.4 7.43-1.4c8.22-1.4 9.3-2.4 9.73-10.6.54-10 .85-20 1.14-30 .1-4.36-1.64-7.3-6.16-7.85l.03.08z" fill="#bc7394"/><path d="M800.63 996.5c-28.9 116 712.08 327 1290 339.93 701 15.7 1191.67-72.15 1143.57-191.12-59.86-148.07-299.77 119.4-1135.9 54.68C976 1113.1 830.56 876.24 800.63 996.5z" stroke="#000" class="C J M"/><path d="M2090.63 1336.42c-577.92-12.94-1318.9-223.92-1290-339.93 2-8.14 4.58-14.65 7.94-19.67 83.73 119 751.58 297.72 1282.06 309.6 619.45 13.87 1074.68-53.1 1139-151 1.7 3.2 3.22 6.5 4.57 9.86 48.1 119-442.58 206.84-1143.57 191.14z" class="B G"/><path d="M1723.32 3229.94c-17.43-29.65-29.9-61.54-36.34-94.04 67.82 39.98 182.8 66.27 313.2 66.27 130.2.06 245.03-26.14 312.88-66.02-6.35 32.5-18.66 64.26-35.95 93.76-68.95 29.58-167.5 48.1-276.93 48.1-109.4 0-207.92-18.5-276.87-48.06z" class="C D E K"/><path d="M1723.24 3229.8c-7.48-12.74-14.05-25.9-19.6-39.33 76.6 27.22 182.28 44.05 299 44.05 113.8 0 217.14-16 293.23-42.06-5.32 12.72-11.55 25.17-18.6 37.24-69.02 29.72-167.63 48.3-277.12 48.3-109.37 0-207.9-18.55-276.9-48.2z" class="B G"/><use xlink:href="#B" fill="#e0cad0"/><path d="M1986.7 3204.1c0-.1-3.34-.16-7.67-.16-1.04.34-1.64 1.57-1.6 2.6v36.16c-.08 1.36.9 2.25 2.1 2.7v-36.07c-.04-.9.4-1.8 1.12-2.35.75-.57 3.44-.87 4.85-.87s1.2-1.45 1.2-2.02zm-1.18 45.15l-1-.2c0 .26-.07.55-.13.83-4.46-.34-8.92-.54-13.4-.54-3.7 0-7.36.23-11.04.5l.04 2.95c4.35-.34 8.7-.64 13.06-.64 4.47 0 8.92.2 13.38.53.26-1.27.72-3-.92-3.4zm47.63-38.5c-.32-.5-4.37-5.2-4.8-5.64 1.2 2 4.1 5.65 5.68 10.07 6 16.74-2.54 41.9-32.45 54.5l-1.33.7-3.6 2.82h1.7c32.5-12.26 48.97-39.55 34.8-62.45zM2008 3241.9c-2.43.02-4.85-.34-7.17-1.07-2.04-.65-3.8-2.23-5.14-3.85.67 1.17 1.5 2.24 2.46 3.18 1.63 1.6 2.68 2.64 4.85 3.33 2.32.72 4.67 1.23 7.1 1.2a18.699 18.699 0 0 0 8.13-1.7c3.6-1.75 6.56-5.87 7-7.68-5.23 5.55-12.56 6.57-17.23 6.57zm-1.93-33.28c-1.57 2.36-2.35 6.43-2.35 12.2 0 5.28.72 9 2.2 11.2a7.406 7.406 0 0 0 1.44 1.62c-1.02-2.25-1.53-5.58-1.53-10 0-5.78.78-9.85 2.35-12.2 2.12-3.45 7.27-4.8 10.53-2.14-2.42-5.2-9.6-5.58-12.63-.67z" fill-opacity=".4" class="B"/><path d="M1968.12 3203.94l-8 .15c0 .58-.2 2.3 1.2 2.3 1.3.01 2.58.17 3.84.46 1.02.48 1.8 1.3 1.77 2.48v36.17c.06.94-.45 1.9-1.28 2.35-1.5.7-3.07 1.16-4.7 1.4-.7.06-1.24.7-1.18 1.4-.04.72-.05 1.46.26 2.13l2.56-.2v-1.25c-.06-.7.48-1.33 1.18-1.4 1.63-.22 3.2-.7 4.7-1.4.83-.46 1.34-1.4 1.3-2.35v-39.68c.03-1.03-.76-2.58-1.64-2.58zm28.53 69.2c12.17-9.18 21.5-18.26 25.7-33.1 1.1-1.5 2.08-3.1 2.94-4.76-1.4 8.5-4.9 16.5-10.16 23.3-5.57 7.07-14.8 13.1-16.67 14.54h-1.8zM1992 3225c.02-12.35 10.57-22.36 22.74-22.12 3.05-.07 6.1.33 9.02 1.2-14.22-2.57-29.03 6.38-28.96 21.62-.18 7.67 3.17 16.08 10.98 18.56-9.45-1.65-14-10.36-13.78-19.26zm20.12 11.73c5.13.47 9.88-5.76 10.6-13.9.47-5.32-.9-10.13-3.32-12.96 1.65 3.36 2.3 7.1 1.9 10.83-.72 8.14-5.47 14.36-10.6 13.9-1.83-.22-3.55-1.18-4.7-2.63 1.45 2.74 3.6 4.52 6.1 4.74zm56.98-40.73h-125.63c-1.96 0-3.6 1.63-3.6 3.6v87.4c-5.04-.5-9-4.88-9-9.95V3197c0-5.45 4.55-10 10-10h118.28c5.07 0 9.44 3.96 9.95 9z" fill="#faf2f5"/><path d="M2069.14 3197v80.08c0 5.45-4.55 10-10 10h-118.28c-4.7.01-8.87-3.4-9.8-8h123.63c2.97-.01 5.45-2.5 5.46-5.46l-.2-86.62c5.13.42 9.2 4.85 9.2 10z" fill-opacity=".4" class="B"/><g class="C D"><use xlink:href="#B"/><path d="M2660.5 3138.57c-63.73-62.94-78.2-123.92-69.82-176.26 8.4-52.5 39.9-96.75 68.8-125.86 82.1-82.68 212.44-98.98 302.45-.7 4.1 4.48 4.1 10.16 1.64 14.36-2.45 4.2-7.27 6.8-13.04 5.16-71.24-20.5-151.97-2.76-206.77 47.44-26.74 24.5-51.32 63.03-64.88 104.16-13.55 41.1-16.24 85.24 1.43 120.7 1.5 3 1.46 5.56.66 7.62-.84 2.12-2.6 3.96-4.95 5.22-4.8 2.56-11.28 2.36-15.52-1.82z" fill="#fbdd11"/></g><path d="M2657.7 2834.7c-58.2 58.62-127.43 178.78 1.05 305.66l.2.2c8.84 8.42 24.82 2.6 25.07-8.06-124.05-120.55-49.1-314.46 102.46-364.77-47.28 6.95-92.68 30.63-128.78 66.98zm192.18-66c40.52 7.44 80.02 28.38 113.88 65.35 9.82 10.72.03 27.57-13.93 23.6-5.46-1.57-11-2.94-16.55-4.07 11.96-.94 16.65-16.52 6.9-28.76-13.4-16.8-27.84-38.36-90.3-56.12z" class="B F"/><path d="M2574 2922c103.5-51.5 96.5 173.5 9.5 132.5L2574 2922z" class="K"/><path d="M2572.5 2923c101-59 102 177 9.5 130.5" class="C D E N"/><path d="M2643.16 3026c-30.82 11.58-64.35 14.5-91.58 4.13 4.4 4.94 29.27 30.48 52.92 29.87 19.5-.5 31-13 38.66-34z" class="B G"/><g class="H"><use xlink:href="#C"/><use xlink:href="#D"/></g><g class="C D J"><use xlink:href="#C"/><use xlink:href="#D"/></g><g class="H"><use xlink:href="#E"/><use xlink:href="#F"/></g><g class="C D J"><use xlink:href="#E"/><use xlink:href="#F"/></g><path d="M1785 2099c0 76.35 98.85 169 216.26 168 108.22-.95 213.74-92.55 213.74-167.78 0-152.13-430-154.42-430-.22z" class="B I"/><path d="M1782 2081c0 76.35 100.23 169 219.27 168 109.73-.95 216.73-92.55 216.73-167.78 0-60.53-126.24-113.77-216.73-113-84.02.78-219.27 41.16-219.27 112.78z" fill="#7f6145"/><g class="B"><path d="M1783.58 2067.77c41.76 54.75 124.68 100.94 217.85 100.22 86.2-.68 170.92-47.12 214.1-101.55 1.62 4.86 2.48 9.8 2.48 14.78 0 75.23-107 166.83-216.73 167.78-119.04 1-219.27-91.65-219.27-168 0-4.54.54-8.95 1.58-13.23z" class="G"/><path d="M2573.77 1764.6c-.66 123.27-72.75 268.13-190.88 317.2 95.3-61.62 152.08-188.08 152.66-297.55.96-183.58-181.1-431.24-385.95-355.18 26-15.6 54.3-26.14 84.37-30.17 172.17-23.04 340.8 175.53 339.8 365.7zM1835.9 1427c-204.38-55.9-374.48 186.25-370.3 368 2.47 107.25 59.36 229.8 152.7 291.65-116.4-48.78-189.2-190.33-192-312-4.33-190.1 160.82-391.6 333.36-371.55 26.68 3.2 52.53 11.3 76.25 23.9z" class="I"/></g><defs ><path id="B" d="M2059.13 3187h-118.27c-5.52 0-10 4.48-10 10v80.08c0 5.52 4.48 10 10 10h118.27c5.52 0 10-4.48 10-10V3197c0-5.52-4.48-10-10-10z"/><path id="C" d="M2000 1656c17.83-116.95 111.73-240.73 234-257.1 77-10.3 153.28 23.72 214 81.5-161.8-58.5-358.72 41.03-448 175.6z"/><path id="D" d="M2512.07 1968.14c-119.73 66.9-257.6 80.54-391.07 58.25 57.86 50.95 129.67 80.66 205.07 70.73 79.1-10.4 142.95-61.92 186-128.98z"/><path id="E" d="M1800.38 1411.98c-90.15-27.8-181.98 8.37-248.57 71.72 161.66-62.37 358.6 37.3 448.2 172.3-15.52-101.77-100.35-211.8-199.62-244.02z"/><path id="F" d="M1696.97 2104.1c70.17 2.1 135.86-29.3 188.75-78.85-137.44 23.27-277.9 10.76-401.1-58.98 46.18 74.7 121.86 134.6 212.36 137.83z"/></defs></svg>