<svg fill="none" height="4000" viewBox="0 0 4000 4000" width="4000" xmlns="http://www.w3.org/2000/svg"><path d="m2275.11 3290.64c-50.77-7.42-115.16-32.27-196.86-76-11.87-6.35-16.67-21.85-10.25-33.84 6.35-11.87 21.85-16.66 33.84-10.25 75.45 40.37 136.18 64.12 180.5 70.6 28.93 4.23 49.75 1 61.88-9.64 13.61-11.92 12.39-33 8.83-72.39-4.17-46.12-9.36-103.53 19.78-169.51 44-99.72 153.63-194.53 269.09-176.7 73.33 11.36 143.6 66.19 159.73 140.59 13.73 63.36-6.02 150.17-73.53 174.43-44.77 16-95.93-2.36-130.84-32.08-10.44-8.68-11.95-25-3.06-35.44 8.81-10.34 25.15-11.64 35.48-2.62.43.36 43.66 36.65 81.49 23.06 42.84-15.38 49.77-78.95 41.56-116.78-11.75-54.23-65.6-93.57-118.51-101.77-92.84-14.33-180.8 68.49-215.72 147.49-23.91 54.16-19.56 102.32-15.72 144.81 4 43.84 7.71 85.25-25.67 114.5-27.66 24.4-67.07 26.8-102.02 21.54z" fill="#7f6145" stroke="#333" stroke-miterlimit="10" stroke-width="5"/><path d="m2786.65 2965.53c11.06 51.02 1.18 114.55-37.82 152.08 51.41-33.7 65.07-107.56 52.82-164.08-16.13-74.41-86.39-129.24-159.73-140.6-66.26-10.23-131.78 18.56-181.54 60.82 114.12-80.75 293.29-60.36 326.27 91.78z" fill="#000" fill-opacity=".2"/><path d="m2717.62 3078.06c-27.03 31.45-75.59 15.26-102.89-8.23-3.14-2.68-6.9-4.54-10.94-5.41-4.03-.87-8.22-.73-12.19.41 3.97-7.3 11.63-12.23 19.93-12.9 6.6-.53 13.15 1.59 18.2 5.89 22.07 19.5 59.84 35.17 87.89 20.24z" fill="#000" fill-opacity=".2"/><path d="m2073.5 3173.5c3.5-3 15.5-9 23-5.5 6.98 3.26 15.34 7.39 24.73 12.03 49.42 24.41 127.47 62.97 183.77 62.97 50 0 54.5-25 47.5-91 .85 3.82 1.92 8.03 3.06 12.51 9.62 37.75 24.09 94.49-50.56 94.49-81.5 0-208.79-70.57-231.5-85.5z" fill="#000" fill-opacity=".2"/><path d="m1959.37 3446.51c5-87.08 27.4-154.43 47.17-206.81s42.42-144.7-42.56-166.02c-121.5-30.49-188.31 254.12-193.3 340.94-2.93 51.08 36.82 110.33 88.4 113.29 47.48 2.31 97.45-31.79 100.29-81.4z" fill="#7f6145" stroke="#333" stroke-miterlimit="10" stroke-width="5"/><path d="m1769.48 3414.5c51.5-7 148-7 188.5 34 .34-3.09 1.44-11.94 1.66-15.04-42.16-36.96-138.16-39.46-188.02-32.46-.26 3.3-1.86 10.13-2.14 13.5z" fill="#000" fill-opacity=".15"/><path d="m1785.48 3325c47.76 44.29 108.88 69.13 178 78.5.58-5.01 1.81-12.18 2.5-17-68.6-8.88-128.2-37.6-176-81-2 6-3.62 15.27-4.5 19.5z" fill="#000" fill-opacity=".15"/><path d="m2040.63 3446.51c-5-87.08-27.4-154.43-47.17-206.81s-42.42-144.7 42.56-166.02c121.5-30.49 188.31 254.12 193.3 340.94 2.93 51.08-36.82 110.33-88.4 113.29-47.48 2.31-97.45-31.79-100.29-81.4z" fill="#7f6145" stroke="#333" stroke-miterlimit="10" stroke-width="5"/><path d="m2230.52 3414.5c-51.5-7-148-7-188.5 34-.34-3.09-1.44-11.94-1.66-15.04 42.16-36.96 138.16-39.46 188.02-32.46.26 3.3 1.86 10.13 2.14 13.5z" fill="#000" fill-opacity=".15"/><path d="m2214.52 3325c-47.76 44.29-108.88 69.13-178 78.5-.58-5.01-1.81-12.18-2.5-17 68.6-8.88 128.2-37.6 176-81 2 6 3.62 15.27 4.5 19.5z" fill="#000" fill-opacity=".15"/><path d="m2400 3153.5c-29-10.5-52.66-39.08-49.04-74.92 5.42-63.52-18.62-132.19-65.95-198.39-43.06-60.25-89.21-93.25-53.71-132.19s115.56 3.92 155.4 59.5c65.71 91.92 103.8 201 83.8 304-3.19 31.47-41.5 52.5-70.5 42z" fill="#7f6145" stroke="#333" stroke-miterlimit="10" stroke-width="5"/><path d="m2443.5 3065c0-148.5-86.2-283.5-191.7-330 131.2-16.5 252.7 238 218.7 375-3-22.5-16.5-37.5-27-45z" fill="#000" fill-opacity=".15"/><path d="m3133.19 1832.12c111.1 102 66.32 309.29-9.09 427.16-107.46 168-353.47 273.75-479.46 184.37-131.58-93.35-114.4-386.92 39.2-539.32 114.68-113.78 334.45-177.69 449.35-72.21z" fill="#f7c394" stroke="#333" stroke-miterlimit="10" stroke-width="5"/><path d="m3003.49 1952.22c66 68.19 30.1 196.68-21.65 267.88-73.75 101.45-232.17 158.69-307.94 97.86-79.14-63.53-57.39-247.22 44.75-337.18 76.26-67.16 216.64-99.08 284.84-28.56z" fill="#ffc9a1"/><path d="m3124.1 2259.28c-60.69 94.85-195.1 203.22-346.6 216.72 106.36-25 260.01-133.85 306.64-206.72 75.41-117.87 115.36-338.97 9.09-427.16-32.41-26.89-114.73-65.12-227.73-45.12 138-42.5 222.79-6.13 267.73 35.12 111.06 101.99 66.28 309.29-9.13 427.16z" fill="#000" fill-opacity=".1"/><path d="m866.818 1832.12c-111.1 102-66.32 309.29 9.09 427.16 107.46 168 353.472 273.75 479.462 184.37 131.58-93.35 114.4-386.92-39.2-539.32-114.68-113.78-334.452-177.69-449.352-72.21z" fill="#f7c394" stroke="#333" stroke-miterlimit="10" stroke-width="5"/><path d="m996.518 1952.22c-66 68.19-30.1 196.68 21.652 267.88 73.75 101.45 232.17 158.69 307.94 97.86 79.14-63.53 57.39-247.22-44.75-337.18-76.26-67.16-216.64-99.08-284.842-28.56z" fill="#ffc9a1"/><path d="m875.908 2259.28c60.69 94.85 195.102 203.22 346.602 216.72-106.36-25-260.019-133.85-306.642-206.72-75.41-117.87-115.36-338.97-9.09-427.16 32.409-26.89 114.732-65.12 227.732-45.12-138.002-42.5-222.792-6.13-267.732 35.12-111.06 101.99-66.28 309.29 9.13 427.16z" fill="#000" fill-opacity=".1"/><path d="m2000 2548c154 0 220 135 260 246s58 220 58 292c0 152-138.68 305.46-318 307-175.53 1.51-318-155-318-307 0-72 17.7-181.5 58-292 40-111 106-246 260-246z" fill="#7f6145" stroke="#333" stroke-miterlimit="10" stroke-width="5"/><path d="m2000 3393c-175.67 1.59-330-157-318-337 10 148 145.15 288.48 318 287s308-139 318-287c12 180-142.33 335.41-318 337z" fill="#000" fill-opacity=".15"/><path d="m2000 2672c104 0 160 68 174 128 34.49 147.82 64 274 4 350s-134.95 82-178 82c-47.55 0-118-6-178-82s-32.44-193.83 4-350c14-60 70-128 174-128z" fill="#f7c394" stroke="#333" stroke-miterlimit="10" stroke-width="5"/><path d="m2000 3232c-136 0-224-94-213-216 4 115 96 190 213 190s209-75 213-190c11 122-77 216-213 216z" fill="#000" fill-opacity=".1"/><path d="m2395 2818c-115.35 45.22-271 79-395 79s-259.34-26.43-395-79c-7.24 10.54-16.61 26.27-23 37 142 57 275 86 418 86s276-29 418-86c-6.15-10.7-15.93-26.36-23-37z" fill="#000" fill-opacity=".15"/><path d="m2500.32 839c42.32-35.85-124.32-76-146.52-139.49-26.8-76.51 395.59 127.1 331.57 261.08-5 10.51-55.43 94-417.61-23.77 398.16 129.18 699.66 403.12 698.24 910.18-1.09 388.75-350.07 990.81-966.43 996.18-594.62 5.19-966.64-596.22-965.57-996.18 1.32-488.44 432.13-990.94 966-1028.5 319.41-22.45 465.29 50.1 500.32 20.5z" fill="#7f6145" stroke="#333" stroke-linecap="round" stroke-linejoin="round" stroke-width="5"/><path d="m2565.16 861.34c-29.66 65.16-211.81-40-531.22-17.54-653.46 45.937-1126.939 771.2-864.58 1359.08 68.14-70.38 151.14-90.38 177.59-99.16 7.94 8.57 17.6 17.67 21.05 21.78-81.37 25.35-175.93 80.41-216.63 156.84-76.27-147.6-117-302.56-116.59-435.33 1.32-488.45 432.22-991 966.09-1028.57 319.41-22.45 464.56 50.1 499.59 20.46 42.18-35.75-124.46-75.9-146.65-139.39-8.57-24.46 28.82-20.27 81.55 1.13-20-2.88-31 1.83-25.55 15.87 19.38 50.39 180.3 90.02 155.35 144.83z" fill="#000" fill-opacity=".14"/><path d="m2964.5 1847.07c-.36 127.74-38.12 278.51-110.54 423.57-74.96-102.64-209.23-143.64-222.96-143.64 4-5 16-19.7 20-24.5 23.5 5.5 128.62 27.91 187.28 106.2 59.3-132.15 86.52-255.16 86.84-370.86 1.47-524.24-353.62-784.84-657.36-901.02 398.16 129.18 698.16 403.18 696.74 910.25z" fill="#000" fill-opacity=".14"/><path d="m1725 1203.5c-297 0-665 628.5-363.5 918.5-575.5 180 0 779 638.5 779s1214-599 638.5-779c301.5-290-66.5-918.5-363.5-918.5-126.5 0-195.51 58.5-275 116.5-79.5-58-148.5-116.5-275-116.5z" fill="#ffcd98" stroke="#333" stroke-width="5"/><path d="m2749.1 1817c-15.7-308.54-265-613.19-481.5-613.19-134.6 0-216.2 82.14-267.6 116.19-41.1-28.05-132.5-116.19-268.4-116.19-255.6 0-478.1 373.19-482.13 622.71-22.47-268.52 183.6-671.52 483.53-671.52 156 0 239 75 267 106 28-31 111-106 267-106 297.63 0 503.5 381.5 482.1 662z" fill="#000" fill-opacity=".14"/><path d="m1148.6 2266.67c-135.93 245.26 334.32 633.83 851.4 633.83s993.17-392.85 849.75-637.86c95.36 224.1-359.03 600.36-849.75 600.36-487.79 0-939.69-371.78-851.4-596.33z" fill="#000" fill-opacity=".1"/><path d="m1250.37 1807.39c-7.11 117.45 24.02 230.01 111.45 314.11-10.42 3.26-20.47 7.66-30.15 11.19 22.33-7.19 43.66-12.28 68.33-16.69-84.54-81.32-133.47-191.77-149.63-308.61z" fill="#000" fill-opacity=".1"/><path d="m2670.5 2133c-21.76-6.41-44.6-12.37-70.5-17 85.32-82.07 134.37-193.81 150.07-311.86 7.89 118.62-23.01 232.49-111.25 317.36 11.32 3.54 21.24 7.64 31.68 11.5z" fill="#000" fill-opacity=".1"/><path d="m2000.41 2770.62c275 0 572-112.5 663.25-379.44 15.25-42.3-22.09-84.98-67.45-78.53-197.53 28.07-396.79 42.15-596.3 42.15s-398.78-14.09-596.31-42.15c-45.32-6.44-82.15 36.02-67.46 78.53 92.27 266.94 389.27 379.44 664.27 379.44z" fill="#3d0c0c"/><path d="m2578.21 2512.16c32.74-40.14 55.99-82.74 67.74-125.83 8.9-32.67-14.69-60.04-47.04-55.45-396.36 55.5-801.44 56.2-1197.79.01-32.4-4.56-55.98 22.77-47.08 55.44 11.74 43.1 34.97 85.69 67.74 125.83 383.09 52.47 773.36 52.94 1156.43 0z" fill="#fff"/><path d="m2000.41 2752.12c198.56.34 414.2-65.72 553.93-212.94-367.46 48.34-741.25 48.3-1108.71.03 140.78 148.35 354.63 212.57 554.78 212.91z" fill="#fff"/><path d="m2645.95 2386.34c-11.75 43.08-35 85.68-67.74 125.82-29.59 4.09-59.24 7.83-88.92 11.23 42.55-59.77 72.34-124.18 92-190.06l17.54-2.44c32.43-4.6 56.02 22.77 47.12 55.45z" fill="#000" fill-opacity=".1"/><path d="m2266.36 2712.12c107.21-32.23 209.97-90.74 287.98-172.94-27.6 3.63-55.24 7.05-82.92 10.07-52.28 61.44-119.58 117.48-205.06 162.87z" fill="#000" fill-opacity=".1"/><path d="m1421.75 2512.16c29.82 4.05 59.68 7.82 89.57 11.31-42.71-59.71-72.52-124.15-92.11-190.05-6.04-.83-12.08-1.67-18.12-2.53-32.4-4.55-55.98 22.77-47.08 55.45 11.74 43.09 34.97 85.68 67.74 125.82z" fill="#000" fill-opacity=".1"/><path d="m1445.61 2539.17c78.35 82.56 182.38 141.74 290.3 173.75-86.43-45.37-154.18-101.8-206.61-163.61-27.93-3.04-55.83-6.48-83.69-10.14z" fill="#000" fill-opacity=".1"/><path d="m1759.66 1403.06c154.89 18 266.48 208.75 250 376.77-16.38 167.34-162.69 342-329.88 323-151.8-17.3-250.26-186.22-253.5-328.16-4.31-190.16 160.84-391.67 333.38-371.61z" fill="#fff"/><path d="m1947.73 1825.22c22.11-113.95-39.5-221.76-137.6-240.79s-195.55 57.91-217.66 171.87c-22.11 113.95 39.5 221.76 137.6 240.79 98.1 19.04 195.55-57.91 217.66-171.87z" fill="#46ca39" stroke="#333" stroke-miterlimit="10" stroke-width="5"/><path d="m1781.2 1941.56c58.51 0 105.94-53.04 105.94-118.46s-47.43-118.46-105.94-118.46-105.94 53.04-105.94 118.46 47.43 118.46 105.94 118.46z" fill="#000"/><path d="m1874.89 1740.31c7.45-21.05-4.41-44.45-26.5-52.27-22.08-7.82-46.02 2.91-53.47 23.96s4.41 44.45 26.5 52.27c22.08 7.81 46.02-2.91 53.47-23.96z" fill="#fff" stroke="#333" stroke-miterlimit="10" stroke-width="5"/><path d="m1835.89 1427c-204.38-55.89-374.48 186.25-370.31 368.01 2.47 107.25 59.36 229.79 152.7 291.65-116.4-48.78-189.2-190.33-192-312-4.33-190.11 160.82-391.59 333.36-371.55 26.68 3.19 52.53 11.29 76.25 23.89z" fill="#000" fill-opacity=".05"/><path d="m1863.62 1605.54c-112.85-32.07-212.74 65.3-233.15 170.44-16.75 86.35 14.07 169.22 72.35 213.35-81.88-32-130.23-129.93-110.25-232.89 22.12-114 119.58-190.89 217.68-171.85 18.92 3.67 37.01 10.77 53.37 20.95z" fill="#000" fill-opacity=".15"/><path d="m2234 1398.91c-154.54 20.68-262.79 213.36-243.4 381.08 19.3 167 168.63 339.1 335.47 317.13 151.47-19.94 247-190.55 247.73-332.52.98-190.16-167.66-388.73-339.8-365.69z" fill="#fff"/><path d="m2273.74 1992.69c97.75-20.74 157.47-129.61 133.37-243.16-24.09-113.55-122.87-188.79-220.63-168.05-97.75 20.75-157.46 129.61-133.37 243.16 24.1 113.56 122.87 188.79 220.63 168.05z" fill="#46ca39" stroke="#333" stroke-miterlimit="10" stroke-width="5"/><path d="m2221.84 1937.7c58.5-1.02 105-54.87 103.86-120.29-1.15-65.41-49.49-117.61-107.99-116.59-58.51 1.02-105 54.88-103.86 120.29 1.14 65.42 49.49 117.62 107.99 116.59z" fill="#000"/><path d="m2288.34 1764.39c21.94-8.2 33.4-31.81 25.58-52.72-7.81-20.92-31.94-31.23-53.89-23.03-21.94 8.21-33.4 31.81-25.58 52.73 7.82 20.91 31.94 31.22 53.89 23.02z" fill="#fff" stroke="#333" stroke-miterlimit="10" stroke-width="5"/><path d="m2573.77 1764.6c-.66 123.27-72.75 268.13-190.88 317.21 95.29-61.62 152.08-188.08 152.66-297.55.96-183.58-181.09-431.24-385.95-355.18 26-15.6 54.29-26.14 84.37-30.17 172.17-23.04 340.81 175.53 339.8 365.69z" fill="#000" fill-opacity=".05"/><path d="m2295.09 1986.4c60.86-43.65 92.6-129.07 73.87-217.3-22.4-105.54-126.48-201.41-238.74-163.7 17.03-11.63 36.17-19.82 56.34-24.11 97.76-20.75 196.54 54.48 220.65 168 22.3 105.1-27.16 206.17-112.12 237.11z" fill="#000" fill-opacity=".15"/><path d="m1785 2099c0 76.35 98.85 169 216.26 168 108.22-.95 213.74-92.55 213.74-167.78 0-152.13-430-154.42-430-.22z" fill="#000" fill-opacity=".1"/><path d="m1782 2081c0 76.35 100.23 169 219.27 168 109.73-.95 216.73-92.55 216.73-167.78 0-60.53-126.24-113.77-216.73-113-84.02.78-219.27 41.16-219.27 112.78z" fill="#7f6145"/><path d="m1783.58 2067.77c41.76 54.75 124.68 100.94 217.85 100.22 86.21-.68 170.92-47.12 214.09-101.55 1.62 4.86 2.48 9.8 2.48 14.78 0 75.23-107 166.83-216.73 167.78-119.04 1-219.27-91.65-219.27-168 0-4.54.54-8.95 1.58-13.23z" fill="#000" fill-opacity=".2"/><path d="m1910 3556c32 0 63.09-23.6 66.7-56.14 9.11-82.21-94.35-89.68-150.67-90.92-57.1-1.25-154.03 9.56-171.02 72.27-14.85 54.79 36.49 74.79 72.99 74.79s49-12.15 92.98-12.15c38.41 0 57.02 12.15 89.02 12.15z" fill="#f7c394" stroke="#333" stroke-miterlimit="10" stroke-width="5"/><path d="m1909 3534c-32 0-50.61-12.15-89.02-12.15-43.98 0-56.48 12.15-92.98 12.15-28.39 0-65.75-12.1-73.97-43.26-6.73 47.6 40.67 65.26 74.97 65.26 36.5 0 49-12.15 92.98-12.15 38.41 0 57.02 12.15 89.02 12.15 42.86 0 73-34.15 65.91-80.26-2.97 33.46-34.04 58.26-66.91 58.26z" fill="#000" fill-opacity=".1"/><path d="m2090 3556c-32 0-63.09-23.6-66.7-56.14-9.11-82.21 94.35-89.68 150.67-90.92 57.1-1.25 154.03 9.56 171.02 72.27 14.85 54.79-36.49 74.79-72.99 74.79s-49-12.15-92.98-12.15c-38.42 0-57.02 12.15-89.02 12.15z" fill="#f7c394" stroke="#333" stroke-miterlimit="10" stroke-width="5"/><path d="m2091 3534c32 0 50.61-12.15 89.02-12.15 43.98 0 56.48 12.15 92.98 12.15 28.39 0 65.75-12.1 73.97-43.26 6.73 47.6-40.67 65.26-74.97 65.26-36.5 0-49-12.15-92.98-12.15-38.41 0-57.02 12.15-89.02 12.15-42.86 0-73-34.15-65.91-80.26 2.97 33.46 34.04 58.26 66.91 58.26z" fill="#000" fill-opacity=".1"/><path d="m1999.97 2825.94c-12.66-44.09-53.58-66.33-98.14-64.26-9.06-163.34-111.67-290.67-263.5-350.99 28.9 7.87 124.09 38.13 143.27-1.97 22.42-46.96-66.26-94.64-98.36-109.51-23.06-10.69-40.17-14.79-45.76-10.97-15.4 10.47 33.68 38.24 39.03 41.31 41.88 23.98 15.7 29.88-20.8 24.25-137.32-21.21-283.68-11.09-399.64 73.34-4.91-9.24-11.95-15.99-22.77-14.01-11.63-48.02-76.81-52.85-105.3-89.54-2.5 11.91-3.37 33.91-3.37 42.91 8.72 19.61 24.8 35.97 40.12 46.56-25.55 3.52-48.02 11.46-63.75 31.94 14 5.24 46 19.97 65.5 52.5 12-8 25.88-15.94 40.79-37.31 1.23 1.75 2.66 3.42 4.31 4.78-49.92 48.44 431.35 599.95 495.4 736.53 64.5-23 116.53-73.21 148.33-142.53 91.27-28.71 173.12-134.15 144.64-233.03zm-195.21 402.98c-27.31-22.89-59.34-27.21-88.76-14.52 3.5 9.6 6 14.52 9.5 20.84 21.58-8.5 44-4.13 64.32 12.24 17.38 13.99 31.46 59.2 12.89 72.52 4.79 6 10.79 11 17.66 16 29.65-27.32 13.76-82.48-15.61-107.08z" fill="#000" fill-opacity=".15"/><path d="m1574.9 3441.83c-22.13-3.23-50.19-14.06-85.8-33.12-5.17-2.77-7.26-9.53-4.46-14.75 2.76-5.18 9.52-7.26 14.74-4.47 32.89 17.6 59.36 27.95 78.67 30.77 12.61 1.85 21.68.44 26.97-4.2 5.93-5.19 5.4-14.38 3.85-31.55-1.82-20.1-4.08-45.12 8.62-73.88 19.18-43.46 66.96-84.78 117.28-77.01 31.96 4.95 62.58 28.85 69.61 61.27 5.99 27.62-2.62 65.46-32.04 76.03-19.52 6.97-41.81-1.03-57.03-13.98-4.55-3.79-5.2-10.9-1.33-15.45 3.84-4.51 10.96-5.07 15.46-1.14.19.15 19.03 15.97 35.52 10.05 18.67-6.71 21.69-34.41 18.11-50.9-5.12-23.63-28.59-40.78-51.65-44.35-40.46-6.25-78.8 29.85-94.02 64.28-10.42 23.6-8.52 44.59-6.85 63.11 1.75 19.11 3.36 37.16-11.19 49.9-12.05 10.64-29.23 11.68-44.46 9.39z" fill="#7f6145" stroke="#333" stroke-miterlimit="10" stroke-width="3"/><path d="m1797.85 3300.14c4.81 22.24.51 49.92-16.49 66.28 22.41-14.69 28.36-46.88 23.02-71.51-7.03-32.43-37.65-56.33-69.61-61.28-28.88-4.46-57.44 8.09-79.12 26.51 49.73-35.2 127.82-26.31 142.2 40z" fill="#000" fill-opacity=".2"/><path d="m1767.76 3349.18c-11.78 13.71-32.94 6.65-44.84-3.59-1.37-1.16-3.01-1.97-4.77-2.35s-3.58-.32-5.31.18c1.73-3.19 5.07-5.34 8.68-5.63 2.88-.23 5.73.7 7.93 2.57 9.62 8.5 26.08 15.33 38.31 8.82z" fill="#000" fill-opacity=".2"/><path d="m1487.03 3390.78c1.53-1.31 6.76-3.93 10.03-2.4 3.04 1.42 6.68 3.22 10.77 5.24 21.54 10.64 55.56 27.45 80.1 27.45 21.79 0 23.75-10.9 20.7-39.66.37 1.66.84 3.5 1.33 5.45 4.2 16.45 10.5 41.18-22.03 41.18-35.52 0-91-30.76-100.9-37.26z" fill="#000" fill-opacity=".2"/><path d="m1275 3379.23c15.91 0 28.62-14.2 27.04-29.82-2.36-27.69 8.11-57.61 28.74-86.47 18.77-26.25 38.88-40.64 23.41-57.61s-50.37 1.71-67.73 25.93c-28.64 40.06-42.36 82.42-38.63 123.64 1.4 13.72 11.26 24.33 27.17 24.33z" fill="#7f6145" stroke="#333" stroke-miterlimit="10" stroke-width="3"/><path d="m1260.22 3340.95c-.18-48.94 39.06-121.02 85.04-141.28-56.66-9.16-106.78 101.76-97.07 153.31 3.14-5.13 8.59-10.14 12.03-12.03z" fill="#000" fill-opacity=".15"/><path d="m1437.29 3509.76c2.18-37.95 11.94-67.3 20.56-90.13s18.49-63.06-18.55-72.36c-52.95-13.28-82.07 110.76-84.25 148.6-1.27 22.26 16.05 48.08 38.53 49.37 20.69 1.01 42.47-13.86 43.71-35.48z" fill="#7f6145" stroke="#333" stroke-miterlimit="10" stroke-width="3"/><path d="m1354.53 3495.81c22.45-3.05 64.51-3.05 82.16 14.82.14-1.34.63-5.2.72-6.55-18.37-16.11-60.21-17.2-81.94-14.15-.12 1.44-.82 4.42-.94 5.88z" fill="#000" fill-opacity=".15"/><path d="m1361.51 3456.81c20.81 19.3 47.45 30.12 77.58 34.21.25-2.18.78-5.31 1.08-7.41-29.89-3.87-55.87-16.39-76.7-35.3-.87 2.61-1.58 6.65-1.96 8.5z" fill="#000" fill-opacity=".15"/><path d="m1472.71 3509.76c-2.18-37.95-11.95-67.3-20.56-90.13-8.62-22.83-18.49-63.06 18.55-72.36 52.95-13.28 82.07 110.76 84.24 148.6 1.28 22.26-16.04 48.08-38.52 49.37-20.7 1.01-42.47-13.86-43.71-35.48z" fill="#7f6145" stroke="#333" stroke-miterlimit="10" stroke-width="3"/><path d="m1555.46 3495.81c-22.44-3.05-64.5-3.05-82.15 14.82-.14-1.34-.63-5.2-.72-6.55 18.37-16.11 60.21-17.2 81.94-14.15.12 1.44.82 4.42.93 5.88z" fill="#000" fill-opacity=".15"/><path d="m1548.49 3456.81c-20.81 19.3-47.45 30.12-77.58 34.21-.25-2.18-.78-5.31-1.09-7.41 29.9-3.87 55.88-16.39 76.71-35.3.87 2.61 1.58 6.65 1.96 8.5z" fill="#000" fill-opacity=".15"/><path d="m1635 3379.23c-15.91 0-28.62-14.2-27.04-29.82 2.36-27.69-8.12-57.61-28.75-86.47-18.76-26.25-38.88-40.64-23.4-57.61 15.47-16.97 50.36 1.71 67.72 25.93 28.64 40.06 42.36 82.42 38.63 123.64-1.39 13.72-11.25 24.33-27.16 24.33z" fill="#7f6145" stroke="#333" stroke-miterlimit="10" stroke-width="3"/><path d="m1649.78 3340.95c.18-48.94-39.06-121.02-85.04-141.28 56.66-9.16 106.78 101.76 97.07 153.31-3.15-5.13-8.59-10.14-12.03-12.03z" fill="#000" fill-opacity=".15"/><path d="m1948.88 2806.16c48.42 44.46 28.9 134.8-3.96 186.17-46.84 73.22-154.06 119.31-208.97 80.36-57.35-40.69-49.86-168.64 17.09-235.06 49.98-49.59 145.76-77.44 195.84-31.47z" fill="#f7c394" stroke="#333" stroke-miterlimit="10" stroke-width="3"/><path d="m1892.35 2858.5c28.76 29.72 13.12 85.72-9.44 116.75-32.14 44.22-101.18 69.17-134.21 42.66-34.49-27.69-25.01-107.75 19.51-146.96 33.23-29.27 94.42-43.18 124.14-12.45z" fill="#ffc9a1"/><path d="m1944.92 2992.33c-26.45 41.34-85.03 88.57-151.06 94.45 46.35-10.89 113.32-58.33 133.64-90.09 32.87-51.37 50.28-147.74 3.96-186.17-14.12-11.72-50-28.38-99.25-19.67 60.15-18.52 97.1-2.67 116.69 15.31 48.4 44.45 28.88 134.8-3.98 186.17z" fill="#000" fill-opacity=".1"/><path d="m961.123 2806.16c-48.421 44.46-28.905 134.8 3.961 186.17 46.836 73.22 154.056 119.31 208.966 80.36 57.35-40.69 49.86-168.64-17.09-235.06-49.98-49.59-145.76-77.44-195.837-31.47z" fill="#f7c394" stroke="#333" stroke-miterlimit="10" stroke-width="3"/><path d="m1017.65 2858.5c-28.764 29.72-13.12 85.72 9.44 116.75 32.14 44.22 101.18 69.17 134.21 42.66 34.49-27.69 25.01-107.75-19.51-146.96-33.23-29.27-94.42-43.18-124.14-12.45z" fill="#ffc9a1"/><path d="m965.083 2992.33c26.451 41.34 85.027 88.57 151.057 94.45-46.35-10.89-113.32-58.33-133.641-90.09-32.866-51.37-50.278-147.74-3.962-186.17 14.125-11.72 50.003-28.38 99.253-19.67-60.15-18.52-97.1-2.67-116.686 15.31-48.403 44.45-28.887 134.8 3.979 186.17z" fill="#000" fill-opacity=".1"/><path d="m1455 3118.16c67.12 0 95.88 58.84 113.32 107.22 17.43 48.38 25.27 95.88 25.27 127.26 0 66.25-60.44 133.13-138.59 133.8-76.5.66-138.59-67.55-138.59-133.8 0-31.38 7.71-79.1 25.27-127.26 17.44-48.38 46.2-107.22 113.32-107.22z" fill="#7f6145" stroke="#333" stroke-miterlimit="10" stroke-width="3"/><path d="m1455 3486.44c-76.56.7-143.83-68.42-138.6-146.87 4.36 64.5 63.27 125.73 138.6 125.08 75.33-.64 134.24-60.58 138.59-125.08 5.23 78.45-62.03 146.18-138.59 146.87z" fill="#000" fill-opacity=".15"/><path d="m1455 3172.21c45.33 0 69.73 29.63 75.83 55.78 15.04 64.43 27.9 119.42 1.75 152.55-26.15 33.12-58.82 35.73-77.58 35.73-20.72 0-51.43-2.61-77.58-35.73-26.15-33.13-14.14-84.48 1.74-152.55 6.11-26.15 30.51-55.78 75.84-55.78z" fill="#f7c394" stroke="#333" stroke-miterlimit="10" stroke-width="3"/><path d="m1455 3416.27c-59.28 0-97.63-40.96-92.83-94.14 1.74 50.12 41.84 82.81 92.83 82.81s91.09-32.69 92.83-82.81c4.8 53.18-33.56 94.14-92.83 94.14z" fill="#000" fill-opacity=".1"/><path d="m1627.15 3235.84c-50.27 19.71-118.11 34.43-172.15 34.43s-113.03-11.52-172.16-34.43c-3.15 4.59-7.24 11.45-10.02 16.12 61.89 24.85 119.85 37.49 182.18 37.49 62.32 0 120.29-12.64 182.18-37.49-2.69-4.66-6.95-11.48-10.03-16.12z" fill="#000" fill-opacity=".15"/><path d="m1673.06 2373.33c18.44-15.63-54.19-33.13-63.86-60.8-11.68-33.34 172.41 55.4 144.51 113.79-2.18 4.58-24.16 40.97-182.01-10.36 173.53 56.3 304.93 175.69 304.31 396.69-.47 169.43-152.57 431.82-421.2 434.16-259.15 2.27-421.29-259.85-420.82-434.16.57-212.88 188.33-431.89 421.01-448.26 139.21-9.78 202.79 21.84 218.06 8.94z" fill="#7f6145" stroke="#333" stroke-linecap="round" stroke-linejoin="round" stroke-width="3"/><path d="m1701.31 2383.06c-12.92 28.4-92.31-17.43-231.52-7.64-284.8 20.02-491.155 336.11-376.81 592.33 29.7-30.67 65.87-39.39 77.4-43.22 3.46 3.74 7.67 7.7 9.17 9.49-35.46 11.05-76.67 35.05-94.41 68.36-33.24-64.33-50.99-131.86-50.81-189.73.57-212.88 188.37-431.91 421.05-448.28 139.21-9.79 202.47 21.83 217.74 8.91 18.38-15.58-54.25-33.08-63.92-60.75-3.73-10.66 12.56-8.83 35.54.49-8.71-1.25-13.51.8-11.13 6.92 8.44 21.96 78.58 39.23 67.7 63.12z" fill="#000" fill-opacity=".15"/><path d="m1875.36 2812.68c-.16 55.67-16.61 121.38-48.18 184.6-32.67-44.73-91.19-62.6-97.17-62.6 1.74-2.18 6.97-8.59 8.72-10.68 10.24 2.4 56.05 12.16 81.62 46.29 25.84-57.6 37.71-111.21 37.85-161.64.64-228.48-154.12-342.06-286.5-392.69 173.53 56.3 304.28 175.72 303.66 396.72z" fill="#000" fill-opacity=".15"/><path d="m1335.15 2532.19c-129.45 0-289.83 273.92-158.43 400.31-250.822 78.45 0 339.51 278.28 339.51s529.1-261.06 278.28-339.51c131.4-126.39-28.98-400.31-158.43-400.31-55.13 0-85.21 25.49-119.85 50.77-34.65-25.28-64.72-50.77-119.85-50.77z" fill="#ffcd98" stroke="#333" stroke-width="3"/><path d="m1781.48 2799.57c-6.84-134.47-115.49-267.25-209.85-267.25-58.66 0-94.23 35.8-116.63 50.64-17.91-12.22-57.75-50.64-116.98-50.64-111.4 0-208.37 162.65-210.13 271.4-9.79-117.03 80.02-292.67 210.74-292.67 67.99 0 104.17 32.69 116.37 46.2 12.2-13.51 48.38-46.2 116.37-46.2 129.71 0 219.44 166.27 210.11 288.52z" fill="#000" fill-opacity=".15"/><path d="m1128.29 2795.38c-3.1 51.19 10.47 100.25 48.57 136.9-4.54 1.42-8.92 3.34-13.14 4.88 9.73-3.14 19.03-5.35 29.78-7.28-36.85-35.44-58.17-83.57-65.21-134.5z" fill="#000" fill-opacity=".1"/><path d="m1083.93 2995.55c-59.24 106.89 145.71 276.24 371.07 276.24s432.86-171.21 370.35-278c41.56 97.68-156.48 261.66-370.35 261.66-212.59 0-409.55-162.03-371.07-259.9z" fill="#000" fill-opacity=".1"/><path d="m1747.23 2937.29c-9.49-2.79-19.44-5.39-30.73-7.41 37.19-35.76 58.56-84.47 65.4-135.91 3.44 51.69-10.02 101.32-48.48 138.31 4.93 1.54 9.26 3.33 13.81 5.01z" fill="#000" fill-opacity=".1"/><path d="m1350.25 2619.16c67.51 7.85 116.14 90.98 108.96 164.21-7.14 72.93-70.91 149.06-143.77 140.77-66.16-7.54-109.07-81.16-110.49-143.02-1.88-82.88 70.1-170.7 145.3-161.96z" fill="#fff"/><path d="m1432.22 2803.15c9.63-49.66-17.22-96.65-59.97-104.94-42.76-8.3-85.23 25.24-94.87 74.9-9.63 49.67 17.22 96.66 59.97 104.95 42.76 8.3 85.23-25.24 94.87-74.91z" fill="#46ca39" stroke="#333" stroke-miterlimit="10" stroke-width="3"/><path d="m1359.64 2853.86c25.5 0 46.17-23.12 46.17-51.63s-20.67-51.63-46.17-51.63-46.17 23.12-46.17 51.63 20.67 51.63 46.17 51.63z" fill="#000"/><path d="m1400.47 2766.15c3.25-9.18-1.92-19.38-11.55-22.78-9.62-3.41-20.06 1.26-23.31 10.44-3.24 9.17 1.93 19.37 11.55 22.78 9.63 3.4 20.06-1.27 23.31-10.44z" fill="#fff" stroke="#333" stroke-miterlimit="10" stroke-width="3"/><path d="m1383.47 2629.6c-89.07-24.36-163.21 81.17-161.39 160.39 1.08 46.74 25.87 100.15 66.55 127.11-50.73-21.26-82.46-82.95-83.68-135.98-1.88-82.86 70.09-170.67 145.29-161.94 11.63 1.39 22.89 4.92 33.23 10.42z" fill="#000" fill-opacity=".05"/><path d="m1395.56 2707.41c-49.18-13.98-92.72 28.46-101.61 74.28-7.3 37.64 6.13 73.75 31.53 92.99-35.69-13.95-56.76-56.63-48.05-101.5 9.64-49.69 52.11-83.2 94.87-74.9 8.24 1.6 16.13 4.69 23.26 9.13z" fill="#000" fill-opacity=".15"/><path d="m1556.98 2617.35c-67.35 9.02-114.53 92.99-106.08 166.09 8.41 72.78 73.5 147.79 146.21 138.22 66.02-8.69 107.65-83.05 107.97-144.93.43-82.87-73.07-169.42-148.1-159.38z" fill="#fff"/><path d="m1574.3 2876.14c42.61-9.04 68.63-56.49 58.13-105.98-10.5-49.48-53.55-82.27-96.15-73.23-42.61 9.04-68.63 56.48-58.13 105.97s53.55 82.28 96.15 73.24z" fill="#46ca39" stroke="#333" stroke-miterlimit="10" stroke-width="3"/><path d="m1551.69 2852.18c25.49-.45 45.76-23.92 45.26-52.43s-21.57-51.26-47.07-50.81c-25.49.44-45.76 23.91-45.26 52.42s21.57 51.26 47.07 50.82z" fill="#000"/><path d="m1580.67 2776.64c9.56-3.57 14.55-13.86 11.15-22.98-3.41-9.11-13.92-13.6-23.49-10.03-9.56 3.57-14.56 13.86-11.15 22.98 3.41 9.11 13.92 13.61 23.49 10.03z" fill="#fff" stroke="#333" stroke-miterlimit="10" stroke-width="3"/><path d="m1705.07 2776.73c-.29 53.73-31.71 116.86-83.19 138.25 41.53-26.85 66.28-81.97 66.53-129.68.42-80.01-78.93-187.95-168.21-154.8 11.33-6.8 23.66-11.39 36.77-13.15 75.04-10.04 148.54 76.5 148.1 159.38z" fill="#000" fill-opacity=".05"/><path d="m1583.61 2873.4c26.52-19.02 40.36-56.25 32.19-94.71-9.76-45.99-55.12-87.78-104.05-71.34 7.43-5.07 15.77-8.64 24.56-10.51 42.61-9.04 85.66 23.74 96.17 73.22 9.71 45.81-11.84 89.86-48.87 103.34z" fill="#000" fill-opacity=".15"/><path d="m1361.29 2922.48c0 33.27 43.09 73.65 94.26 73.22 47.16-.42 93.15-40.34 93.15-73.13 0-66.3-187.41-67.3-187.41-.09z" fill="#000" fill-opacity=".1"/><path d="m1359.99 2914.63c0 33.28 43.68 73.66 95.56 73.22 47.83-.41 94.46-40.34 94.46-73.12 0-26.38-55.02-49.59-94.46-49.25-36.62.34-95.56 17.94-95.56 49.15z" fill="#7f6145"/><path d="m1360.68 2908.86c18.19 23.86 54.33 44 94.94 43.68 37.58-.3 74.49-20.53 93.31-44.26.71 2.12 1.08 4.27 1.08 6.45 0 32.78-46.63 72.71-94.46 73.12-51.88.44-95.56-39.94-95.56-73.22 0-1.98.23-3.9.69-5.77z" fill="#000" fill-opacity=".2"/><path d="m1415.77 3557.48c13.95 0 27.5-10.28 29.07-24.46 3.97-35.84-41.12-39.09-65.66-39.63-24.89-.55-67.13 4.17-74.54 31.5-6.47 23.88 15.9 32.59 31.81 32.59s21.36-5.29 40.53-5.29c16.74 0 24.85 5.29 38.79 5.29z" fill="#f7c394" stroke="#333" stroke-miterlimit="10" stroke-width="3"/><path d="m1415.34 3547.9c-13.95 0-22.06-5.3-38.8-5.3-19.17 0-24.61 5.3-40.52 5.3-12.38 0-28.66-5.28-32.24-18.86-2.93 20.75 17.73 28.44 32.67 28.44 15.91 0 21.36-5.29 40.53-5.29 16.74 0 24.85 5.29 38.8 5.29 18.68 0 31.81-14.88 28.72-34.98-1.29 14.59-14.83 25.4-29.16 25.4z" fill="#000" fill-opacity=".1"/><path d="m1494.22 3557.48c-13.94 0-27.49-10.28-29.06-24.46-3.98-35.84 41.12-39.09 65.66-39.63 24.89-.55 67.13 4.17 74.54 31.5 6.47 23.88-15.91 32.59-31.81 32.59-15.91 0-21.36-5.29-40.53-5.29-16.74 0-24.85 5.29-38.8 5.29z" fill="#f7c394" stroke="#333" stroke-miterlimit="10" stroke-width="3"/><path d="m1494.66 3547.9c13.94 0 22.05-5.3 38.79-5.3 19.17 0 24.62 5.3 40.53 5.3 12.37 0 28.66-5.28 32.24-18.86 2.93 20.75-17.73 28.44-32.68 28.44-15.9 0-21.35-5.29-40.52-5.29-16.74 0-24.85 5.29-38.8 5.29-18.68 0-31.81-14.88-28.72-34.98 1.29 14.59 14.83 25.4 29.16 25.4z" fill="#000" fill-opacity=".1"/><path d="m1281.28 3428.43c24.76.02 40.52-29.69 25.53-50.24 6.94-19.7-7.88-41.58-29.05-42.08-24.41-.58-38.51 25.5-35.96 47.56 2.39 20.62 16.36 44.74 39.48 44.76z" fill="#f7c394" stroke="#333" stroke-miterlimit="10" stroke-width="3"/><path d="m1241.8 3383.68c2.96 25.52 23.7 55.26 54.64 40.88-29.99-3.84-50.99-54.7-36.22-83.61-2.35 1.67-6.05 3.63-12.03 12.03-5.36 9.47-7.71 20.13-6.39 30.7z" fill="#000" fill-opacity=".1"/><path d="m1628.72 3428.43c-24.76.02-40.52-29.69-25.53-50.24-6.94-19.7 7.88-41.58 29.05-42.08 24.41-.58 38.51 25.5 35.96 47.56-2.39 20.62-16.36 44.74-39.48 44.76z" fill="#f7c394" stroke="#333" stroke-miterlimit="10" stroke-width="3"/><path d="m1668.2 3383.68c-2.96 25.52-23.7 55.26-54.65 40.88 30-3.84 51-54.7 36.23-83.61 2.35 1.67 6.05 3.63 12.03 12.03 5.35 9.47 7.71 20.13 6.39 30.7z" fill="#000" fill-opacity=".1"/><path d="m1465.9 3183.36c61.41 0 111.2-32.37 111.2-72.3 0-39.92-49.79-72.29-111.2-72.29-61.42 0-111.2 32.37-111.2 72.29 0 39.93 49.78 72.3 111.2 72.3z" fill="#ffa6c8" stroke="#333" stroke-miterlimit="10" stroke-width="2.5"/><path d="m1465.9 3071.06c24.08-.1 70.03 9.34 70.03 40.01 0 20.01-24.48 31.88-40.81 36.18-26.99 7.18-99.24 5.52-99.24-36.18 0-30.76 47.11-40.11 70.02-40.01zm0-15.77c-47.38 0-85.79 24.97-85.79 55.77 0 30.81 38.41 55.78 85.79 55.78s85.8-24.97 85.8-55.78c0-30.8-38.41-55.77-85.8-55.77z" fill="#ffcae5"/><path d="m1577.1 3111.07c0 39.92-49.79 72.29-111.2 72.29-57.5 0-104.81-28.38-110.61-64.77 17.03 25.74 56.38 43.76 102.2 43.76 42.54 0 119.65-23.3 110.6-79.82 5.77 8.41 8.91 18.34 9.01 28.54z" fill="#000" fill-opacity=".2"/><path d="m1565.88 3133.97c15.44 31.02-13.2 65.02-39.67 78.06-26.66 13.49-70.49 15.47-86.2-15.43-15.43-31.03 13.19-65.03 39.67-78.07 26.66-13.49 70.48-15.49 86.2 15.44zm-98.37-39.91c-48.27 24.02-71.54 75.38-51.97 114.71 22.36 44.93 82.64 48.02 122.85 27.73 48.27-24.02 71.53-75.38 51.96-114.71-22.36-44.93-82.64-48.02-122.84-27.73z" fill="#ffa6c8" stroke="#333" stroke-miterlimit="10" stroke-width="2.5"/><path d="m1597 3145.43c-4.61 53.06-58.76 90.36-109.28 90.71-37.8 0-75.36-24.02-78.83-63.61-3.89 48.97 36.14 76.21 78.83 76.21 54.01-.37 114.56-44.68 109.28-103.31zm-117.32-26.9c29.33-14.84 83.91-13.93 89.8 27.02 12.8-76.81-145.13-54.44-133.08 26.84 3.32-22.74 17.4-41.11 43.28-53.86z" fill="#000" fill-opacity=".2"/><path d="m1463.17 3087.82-13.01 8.88c-9.01 6.14-11.33 18.42-5.19 27.42l10.02 14.69c6.14 9.01 18.42 11.33 27.42 5.19l13.02-8.87c9-6.14 11.32-18.42 5.18-27.43l-10.01-14.69c-6.14-9-18.42-11.33-27.43-5.19z" fill="#f48eb8" stroke="#333" stroke-miterlimit="10" stroke-width="2.5"/><path d="m1482.42 3143.98c-6.52 4.45-15.34 4.52-21.92.21-6.9-4.52-11-13.47-15.52-20.09-1.93-2.84-3.1-6.13-3.37-9.56-.27-3.42.36-6.86 1.82-9.97 3.57 7.63 9.76 18.02 17.07 22.81 4.34 2.85 9.75 3.87 14.84 2.81 9.09-1.9 22.68-10.93 26.84-19.79 1.99 4.25 2.41 9.07 1.18 13.59-2.7 9.89-13.1 14.65-20.94 19.99z" fill="#000" fill-opacity=".2"/><path d="m1298.66 3047.01c5.75-4.51 26.38 14.25 24.06 43.87-2.14 27.36-24.06 60.26-31.28 54.8-5.19-3.92 19.16-26.71 21.32-54.07 2.65-33.5-18.83-40.89-14.1-44.6z" fill="#000" fill-opacity=".15"/><path d="m1633.47 3047.01c-5.75-4.51-26.38 14.25-24.06 43.87 2.14 27.36 24.06 60.26 31.28 54.8 5.19-3.92-19.16-26.71-21.32-54.07-2.65-33.5 18.83-40.89 14.1-44.6z" fill="#000" fill-opacity=".15"/><path d="m1067.65 2494.42c-8.77-1.94-13.61-3.01-14.51-5.25-.27-.73-.14-1.57.34-2.18 23.81-35.6 62.46-61 106.67-55.9 27.98 3.71 31.54 24.12 17.17 45.9-34.2 47.07-69.13 26.47-109.67 17.43z" fill="#ffa6c8" stroke="#333" stroke-width="3"/><path d="m1063.28 2479.55c6.59 1.47 13.04 3.24 19.35 4.98 32.53 8.97 61.68 17 90.32-22.42 4.92-7.46 7.73-14.76 8.19-21.28 7.23 8.8 5.39 22.2-3.82 36.16-28.63 39.41-57.78 31.38-90.31 22.42-6.11-1.68-32.76-7.21-33.87-10.24-1.11-3.02 4.68-8.37 6.3-10.48 1.28.29 2.56.57 3.84.86z" fill="#000" fill-opacity=".15"/><path d="m1181.36 2456.28c-55.2-2.79-95.81-69.16-90.99-118.15.17-1.74 2.22-1.25 3.08.01 25.78 37.98 75.71 39.99 103.42 83.65 9.25 14.57 2.74 35.48-15.51 34.49z" fill="#ffa6c8" stroke="#333" stroke-width="3"/><path d="m1092.08 2337.1c3.97 46.29 41.67 99.62 91.03 102.12 5.8.31 12.18-1.59 17.89-4.79.74 11.63-6.32 22.57-19.64 21.85-55.2-2.79-95.81-69.16-90.99-118.15.11-1.06.91-1.29 1.71-1.03z" fill="#000" fill-opacity=".15"/><path d="m1171.79 2468.49c-1.92-8.27 7.34-14.48 11.05-17.05 6.42-4.45 18.6 5.58 22.1 10.81 14.97 22.45-24.85 42.1-33.15 6.24z" fill="#ffa6c8" stroke="#333" stroke-width="3"/><path d="m1171.79 2467.18c-.44-9.63 10.82-14.38 13.18-16.36 0 0 1.96.74 4.66 1.97-16.53 11.47-10.43 29.78 7.48 36.66-17.11 2.55-25.01-15.38-25.32-22.27z" fill="#000" fill-opacity=".15"/><path d="m1183.72 2446.22c1.11-11.02 17.1-15.87 26.51-14.41 8.85 1.45 17.24 13.3 17 22.22-.65 24.52-45.78 14.77-43.51-7.81z" fill="#ffa6c8" stroke="#333" stroke-width="3"/><path d="m1218.06 2466.42c-13.95 5.34-35.79-4.93-34.19-21 .9-8.95 13.97-12.69 22.35-13.05-28.04 7.16-8.1 33.44 11.84 34.05z" fill="#000" fill-opacity=".15"/><path d="m1808 2575.91c-115.08 49.66-615.59 24.11-670.97-35.94 15.33-19.07 32.03-36.99 49.97-53.64 29.41-27.28 514.23-13.08 546.62 11.98 27.56 21.32 53.84 49.44 74.38 77.6z" fill="#000" fill-opacity=".15"/><path d="m1250.4 2436.51c10.27-6.77 19.79-13.49 30.56-19.43 58.08 11.21 280.72 19.56 345.34 19.06 18.67 7.98 36.92 16.94 54.57 26.99 52.31 29.82-474.74 2.55-430.47-26.62z" fill="#000" fill-opacity=".15"/><path d="m1798.37 2557.89c1.02 2.2-.12 4.9-2.36 5.73-114.8 43.07-588.57 31.76-649.17-37.37-9.12-10.41 106.55-107.49 123.04-103.21 49.24 12.8 326.14 19.85 368.58 19.85 29.96 0 141.5 75.45 159.91 115z" fill="#ffa6c8" stroke="#333" stroke-miterlimit="10" stroke-width="3"/><path d="m1798.67 2560.58c-.31 1.38-1.32 2.54-2.65 3.04-114.81 43.07-581.22 31.76-648.3-36.95-10.79-11.06 86.64-91.22 117.05-102.16-20.05 12.05-108.74 85.77-102.17 95.16 39.94 57.1 501.81 78.94 636.07 40.91z" fill="#000" fill-opacity=".15"/><path clip-rule="evenodd" d="m1512.76 2555.28c-58.33 7.37-85.19-44.15-80.42-49.18 3.14-3.32 8.03-3.52 12.27-3.63 19.5-.53 47.1 22.31 52.7 22.2 10.84-.22 27.16-17.51 37.84-31.77 4.48-5.96 32.42-14.94 29.32.72-10.04 50.8-44.28 60.72-51.71 61.66zm-81.18-96.13c58.33-7.37 85.19 44.15 80.42 49.18-3.14 3.32-8.03 3.52-12.27 3.63-19.5.53-47.1-22.31-52.7-22.2-10.85.22-27.16 17.51-37.85 31.76-4.47 5.97-32.41 14.95-29.32-.71 10.05-50.81 44.29-60.73 51.72-61.66z" fill="#fbdd11" fill-rule="evenodd" stroke="#333" stroke-width="3"/><path d="m2298.5 3185.5c-41-16-68.99-36.75-97.29-72.79-3.83 7.78-13.88 9.14-21.64 9.14-16.41 0-32.33-12.89-44.64-22.51-17.56-13.73-33.4-30.07-42.39-43.71-11.78-17.91-7.56-29.43-1.95-48.01 2.17-9.31 2.25-16.63.22-21.84-4.94-12.63-12.56-8.82-23.83-8.52-21.74 0-48.8-24.13-55.98-43.91-7.81-21.52 10.92-48.14 33.88-48.14 30.16 0 58.36 29.4 61.65 57.57.75 6.45 8.96 8.25 14.43 8.22 18.22 0 29.48-18.7 46.9-18.7 31.7 0 94.27 38.92 102.99 71.08 2.17 7.97 3.95 19.23-3.32 25.24 14.69 6.74 38.68 18.44 48.97 27.01 1.95 42.95-4.21 88.65-18 129.87z" fill="#000" fill-opacity=".1"/><path d="m2461.22 3312.43c-10.35.23-11.35-16.71-12.4-23.64-2.2-14.4-4.05-33.53-16.18-43.1-16.6-13.09-40.87-14.26-58.12-27.87-12.69-10-24.41-21.19-36.86-31.48-4.38-3.62-24.36-13.09-41.98-21.46-17.59-8.34-34.2-16.22-40.27-20.35-10.81-7.34-31.51-29.16-41.57-42.42-2.74 9.72-14.95 10.66-23.36 10.41-18.6-.56-64.84-36.74-83.85-65.61-7.88-11.96-10.47-21.61-7.68-28.66 7.36-18.63 9.4-32.41 6.07-40.94-2.01-5.16-5.89-10.7-9.66-10.7-5.09 0-10.24 1.21-15.37 1.35-21.19 0-47.78-23.8-54.77-43.06-7.51-20.69 10.59-46.41 32.66-46.41 30.79 0 57.14 28.96 60.59 58.24.68 5.84 10.65 7.57 15.5 7.56 8.85 0 20.84-5.26 35.64-15.63 2.91-2.04 6.7-3.08 11.26-3.08 14.04 0 36.61 10.14 60.37 27.12 16.99 12.15 38.03 30.7 41.37 43 2.18 8.02 4.06 20.25-4.68 25.14 15.24 6.7 41.28 21.74 50.94 30.54 5.42 4.95 16.96 19.26 29.17 34.42 12.24 15.19 26.11 32.4 30.65 35.83 12.91 9.71 26.52 18.5 39.21 28.51 17.25 13.6 24.04 36.93 40.64 50.02 12.13 9.57 31.16 6.91 45.67 5.69 7.15-.6 17.15-2.52 23.25 2.29 14.55 11.48-19.6 51.75-27.48 61.62-3.44 4.38-34.06 42.67-48.76 42.67z" fill="#f4be33"/><path d="m2167.18 2986.14c-2.08-1.65-4.71-2.43-7.35-2.2 1.78-.93 3.79-1.32 5.79-1.13 2 .18 3.9.95 5.48 2.19l48.05 37.9-2.06 2.61z" fill="#b88731"/><path d="m2237.02 3019.08c1.41 1.12 1.67 3.23.55 4.65l-6.66 8.44 276.46 218.04-12.91 16.37-1.86-1.46 10.85-13.77-276.46-218.04 6.66-8.45c1.11-1.39.87-3.53-.55-4.64-1.7-1.34-3.49-3.35-5.52-4.18.86-1.09 2.22-1.64 3.59-1.25 2.17.61 4.13 2.93 5.85 4.29z" fill="#b88731"/><g fill="#fff" opacity=".5"><path d="m2157.52 3001.45c-5.83-4.6-4.94-14.01 1.65-17.43-8.69 1.29-11.95 12.92-4.9 18.49l49.92 39.36-6.66 8.45c-2.83 3.58 4.42 9.36 7.61 9.05.85-.08 1.63-.49 2.19-1.14-2.23-.49-4.28-2.97-6-4.32-1.4-1.11-1.67-3.24-.55-4.65l6.66-8.44z"/><path d="m2215.57 3050.82 1.77-2.23 274.97 216.87-1.76 2.23z"/></g><path d="m2173.36 3104.39c17.98 11.44 33.96 4.1 37.65.57 12.46-10.21-8.8-42-14.61-50.88-11.09-16.76-12.85-26.85-13.66-31.52 4.77-4.64 5.96-12.07 2.89-17.97-3.07-5.91-9.83-9.2-16.37-7.97-6.55 1.23-11.65 6.74-12.37 13.36s3.08 13.1 9.2 15.71c.5 8.52 2.02 21.63 6.59 31.78-22.41-33.53-62.23-30.9-72.61-29.17 3.03 25.61 55.3 64.65 73.29 76.09z" fill="#f4be33"/><path d="m2210.62 3107.5c3.88-3.5 5.02-10.66 4.29-14.29-2.92-14.4-8.17-27.43-16.22-39.74-11.09-16.76-12.84-26.85-13.66-31.51 5.28-5.15 6.07-13.8 1.76-19.82-3.9-5.47-11.16-7.76-17.49-5.52 6.53-1.21 13.28 2.08 16.34 7.99 3.06 5.9 1.86 13.31-2.9 17.95.81 4.66 2.57 14.76 13.66 31.52 8.09 12.36 12.93 25.13 15.86 39.57.78 3.94-.23 10.08-1.64 13.85z" fill="#b88731"/><path d="m2163.56 3024.32c-5.78-5.34-6.5-14.51-1.63-20.69 4.88-6.18 13.95-7.61 20.5-3.24-6.37-5.83-16.98-5.03-22.35 1.78s-3.77 17.24 3.48 22.15z" fill="#fff" opacity=".5"/><path d="m2174.54 3058.93c-4.57-10.14-6.09-23.25-6.58-31.77-.64-.27-1.25-.58-1.83-.93.48 7.8 1.81 19.15 5.47 28.63 1.01 1.29 1.99 2.65 2.94 4.07z" fill="#fff" opacity=".5"/><path d="m2174.37 3059.12c-4.19-10.78-19.73-31.08-37.95-32.75 14 6.05 28.25 18.33 37.95 32.75z" fill="#b88731"/><path d="m2270 2980c15.32 14.82 13.14 32.35 10.57 36.76-6.9 14.23-41.14 1.87-52.89-2.35-18.88-6.87-29.1-6.23-33.83-5.93-3.46 5.82-10.74 8.72-17.27 6.88-5.88-1.66-10.31-6.84-11.02-12.92-1.11-9.33 6.9-17.77 16.37-17.02 4.37.34 8.48 2.62 11.08 6.14 8.4-1.51 21.5-3.09 32.44-1-37.83-13.99-50.45-43.56-45.45-63.56 25.62-3.03 74.68 38.17 90 53z" fill="#f4be33"/><path d="m2282.9 3015.5c-5.4 12-28.6 8.02-36.33 6.49-17.81-3.46-34.21-12.31-52.77-11.14-7.91 13.27-29.97 6.62-28.31-9.4.77 14.85 21.03 19.35 28.36 7.03 18.56-1.18 34.97 7.68 52.78 11.13 25.37 4.93 32.87-1.11 36.27-4.11z" fill="#b88731"/><path d="m2191.09 2989.41c-6.54-4.37-15.61-2.93-20.49 3.24-4.87 6.18-4.37 15.01 1.4 20.35-7.26-4.89-8.62-15.01-3.26-21.81 5.37-6.81 15.99-7.63 22.35-1.78z" fill="#fff" opacity=".5"/><path d="m2227.31 2992.02c-10.93-2.08-24.03-.5-32.43 1-.41-.55-.85-1.07-1.33-1.56 7.7-1.35 19.04-2.7 29.12-1.35 1.49.68 3.04 1.32 4.64 1.91z" fill="#fff" opacity=".5"/><path d="m2227.46 2991.82c-11.47-1.57-34.83-11.95-40.7-29.28 9.15 12.2 24.41 23.2 40.7 29.28z" fill="#b88731"/><path d="m2049.03 2882.47c39.4 40.11 100.91 121.49 93.77 199.79-24.7-20.96-47.29-48.51-41.53-63.08 5.49-13.9 10.58-31.24 6.07-42.78-2-5.14-6.7-12.95-12.75-12.24-19.63 2.32-26.34 5.1-47.59-11.66s-29.84-37.39-13.3-58.36c4.77-6.05 9.91-9.8 15.33-11.67z" fill="#fff" opacity=".2"/><path d="m2096.94 2964.31c5.17 1.86 13.61-1.19 17.03-5.52 3.41-4.32 5.33-15.93 2.89-19.08-1.75 3.69-2.85 8.52-7.85 15.05-4.54 5.95-7.67 6.1-12.07 9.55z" fill="#b88731"/><g stroke="#333"><path d="m2461.22 3312.43c-10.35.23-11.35-16.71-12.4-23.64-2.2-14.4-4.05-33.53-16.18-43.1-16.6-13.09-40.87-14.26-58.12-27.87-12.69-10-24.41-21.19-36.86-31.48-4.38-3.62-24.36-13.09-41.98-21.46-17.59-8.34-34.2-16.22-40.27-20.35-10.81-7.34-31.51-29.16-41.57-42.42-2.74 9.72-14.95 10.66-23.36 10.41-18.6-.56-64.84-36.74-83.85-65.61-7.88-11.96-10.47-21.61-7.68-28.66 7.36-18.63 9.4-32.41 6.07-40.94-2.01-5.16-5.89-10.7-9.66-10.7-5.09 0-10.24 1.21-15.37 1.35-21.19 0-47.78-23.8-54.77-43.06-7.51-20.69 10.59-46.41 32.66-46.41 30.79 0 57.14 28.96 60.59 58.24.68 5.84 10.65 7.57 15.5 7.56 8.85 0 20.84-5.26 35.64-15.63 2.91-2.04 6.7-3.08 11.26-3.08 14.04 0 36.61 10.14 60.37 27.12 16.99 12.15 38.03 30.7 41.37 43 2.18 8.02 4.06 20.25-4.68 25.14 15.24 6.7 41.28 21.74 50.94 30.54 5.42 4.95 16.96 19.26 29.17 34.42 12.24 15.19 26.11 32.4 30.65 35.83 12.91 9.71 26.52 18.5 39.21 28.51 17.25 13.6 24.04 36.93 40.64 50.02 12.13 9.57 31.16 6.91 45.67 5.69 7.15-.6 17.15-2.52 23.25 2.29 14.55 11.48-19.6 51.75-27.48 61.62-3.44 4.38-34.06 42.67-48.76 42.67z" stroke-width="5"/><path d="m2449.98 3320.11 95-120.45c2.08-2.64 6.02-3.1 8.66-1.02l6.79 5.35-102.64 130.14-6.78-5.36c-2.61-2.05-3.11-6.03-1.03-8.66z" fill="#453f31" stroke-miterlimit="10" stroke-width="5"/><path d="m2454.32 3334.32 104.86-132.97c2.7-3.43 7.81-4.03 11.23-1.33l67.42 53.16-114.77 145.54-67.41-53.16c-3.42-2.7-4.03-7.81-1.33-11.23z" fill="#2b221e" stroke-miterlimit="10" stroke-width="4.99847"/><path d="m2523.68 3398.82 115.02-145.84c2.65-3.36 7.68-3.95 11.04-1.3l9.66 7.62-124.75 158.18-9.66-7.62c-3.36-2.65-3.96-7.68-1.31-11.04z" fill="#453f31" stroke-miterlimit="10" stroke-width="5"/><path d="m2533.95 3415.78 123.64-156.76c2.74-3.47 7.93-4.09 11.4-1.35l5.53 4.36c1.75 1.38 2.06 4 .67 5.75l-128.62 163.08c-1.38 1.75-3.99 2.06-5.75.68l-5.52-4.36c-3.47-2.73-4.06-7.97-1.35-11.4z" fill="#2b221e" stroke-miterlimit="10" stroke-width="5"/></g><path d="m2573.06 3319.49c21.97-27.86 27.23-60.34 11.76-72.55-15.48-12.21-45.84.48-67.81 28.34-21.98 27.86-27.24 60.34-11.76 72.55 15.48 12.2 45.84-.48 67.81-28.34z" fill="#f4be33"/><g fill="#2b221e"><path d="m2558.42 3255.47 8.9 7.02 1.9-2.4-8.9-7.02 2.68-3.4-1.95-1.54-7.26 9.2 1.95 1.54z"/><path d="m2556.15 3274.37-1.1-2.12c1.54-.46 2.89-1.39 3.88-2.66.66-.75 1.44-2.3.41-3.09-1.53-1.23-4.45 2.27-5.69 2.91-2.03 1.08-4.5-.08-5.14-2.28-.5-1.8.21-3.71 1.36-5.11 1.08-1.38 2.59-2.59 4.34-2.94l1.1 2.12c-1.41.35-2.66 1.15-3.57 2.28-.7.79-1.27 2.3-.23 3.08 1.02.87 2.47-.53 3.21-1.16 1.03-.94 2.24-1.64 3.56-2.08 1.58-.37 3.17.61 3.86 2.03.91 1.9-.07 4.28-1.37 5.74-1.17 1.49-2.77 2.78-4.62 3.28z"/><path clip-rule="evenodd" d="m2590.5 3268.05-2.72 3.44-6.5-1.12c-.95-.17-1.85.25-2.41 1.02l-1.23 1.56 5.55 4.37-2.46 3.12-14.28-11.26 5.18-6.56c1.85-2.73 5.61-4.11 8.3-1.69 2.11 1.55 2.67 4.43 1.43 6.71.89-.61 2.03-.84 3.09-.62zm-12.85-4.09c-1.43-1.13-3.07-.35-3.99 1.03l-2.38 3.02 3.93 3.1 2.38-3.01c1.14-1.22 1.49-3.01.06-4.14z" fill-rule="evenodd"/><path d="m2556.97 3281.19 14.28 11.26 7.76-9.84-2.45-1.93-5.33 6.76-3.59-2.83 5.02-6.35-2.45-1.94-5.02 6.36-3.34-2.63 5.34-6.77-2.45-1.93z"/><path d="m2552.3 3287.12 2.44-3.09 14.28 11.26-2.45 3.1-5.99-4.73-5.19 6.58 5.99 4.73-2.44 3.1-14.28-11.26 2.44-3.1 5.78 4.55 5.19-6.58z"/><path d="m2539.91 3308.13 11.7 9.23 2.49-3.16-11.7-9.23 3.53-4.48-2.58-2.02-9.55 12.11 2.58 2.02z"/><path clip-rule="evenodd" d="m2547.04 3323.15-4.23-1.13-5.24 6.64 2.09 3.85-2.51 3.18-9.1-17.82 2-2.54 19.45 4.71zm-11.05 2.59 3.61-4.57-7.15-1.93z" fill-rule="evenodd"/><path d="m2530.19 3344.52-14.28-11.26 7.6-9.64 2.49 1.96-5.14 6.52 3.28 2.59 4.82-6.12 2.49 1.97-4.82 6.12 6.01 4.74z"/><path d="m2507.77 3319.7 8.9 7.01 1.89-2.4-8.9-7.01 2.69-3.4-1.96-1.55-7.26 9.21 1.96 1.54z"/><path d="m2517.19 3303.73 1.86-2.35 10.85 8.56-1.86 2.35-4.55-3.59-3.95 5 4.56 3.59-1.86 2.36-10.85-8.56 1.86-2.36 4.38 3.46 3.95-5z"/><path d="m2520.75 3299.22 10.85 8.56 5.9-7.48-1.86-1.47-4.06 5.14-2.72-2.15 3.81-4.83-1.86-1.47-3.81 4.83-2.54-2 4.05-5.14-1.86-1.47z"/><path clip-rule="evenodd" d="m2546.27 3283.08c.85.62 1.38 1.66 1.37 2.72-.06 1.26-.55 2.46-1.39 3.41l-4.06 5.15-10.86-8.56 3.95-5c1.24-1.75 3.84-3.05 5.72-1.46 1.1.84 1.52 2.32 1.07 3.62 1.25-.95 2.99-.9 4.2.12zm-8.67 3.87 1.78-2.27c.69-.75 1.17-2.11.14-2.81-.92-.85-2.14-.09-2.72.77l-1.79 2.26zm6.66-1.81c-.95-.89-2.21-.22-2.83.71l-2 2.54 2.77 2.19 2-2.54c.75-.81 1.13-2.21.06-2.9z" fill-rule="evenodd"/><path d="m2539.7 3275.2 10.85 8.56 5.9-7.49-1.86-1.47-4.06 5.15-2.72-2.15 3.81-4.84-1.86-1.46-3.81 4.83-2.54-2 4.05-5.14-1.86-1.47z"/></g><path d="m2344.15 3248.19c-53.83-18.17-66.24-94.33-18.54-127.97-.58-47.93 47.72-84.56 94.1-70.08 53.47 16.68 64.94 83.74 43.15 129.82-20.36 43.06-68.45 85.2-118.71 68.23z" fill="#f7c394" stroke="#333" stroke-miterlimit="10" stroke-width="5"/><path d="m2462.86 3179.96c-25.2 53.3-92.15 102.67-148.82 48.66 68.01 13.72 151.06-81.37 140.23-155.07 3.87 5.36 10.48 12.35 17.29 35 4.67 24.52 1.95 49.43-8.7 71.41z" fill="#000" fill-opacity=".1"/></svg>