<svg fill="none" height="4000" viewBox="0 0 4000 4000" width="4000" xmlns="http://www.w3.org/2000/svg"><path d="m2275.11 3287.64c-50.77-7.42-115.16-32.27-196.86-76-11.87-6.35-16.66-21.85-10.25-33.84 6.35-11.87 21.85-16.66 33.84-10.25 75.45 40.37 136.18 64.12 180.5 70.6 28.93 4.23 49.75 1 61.88-9.64 25.86-22.65 11.35-113.81 28.61-152.9 44-99.72 153.63-194.53 269.09-176.7 73.33 11.36 143.6 66.19 159.73 140.59 13.73 63.36-6.02 150.18-73.53 174.43-44.77 16-95.92-2.36-130.84-32.08-10.44-8.68-11.95-25-3.06-35.44 8.81-10.34 25.15-11.64 35.48-2.62.43.36 43.66 36.65 81.49 23.06 42.84-15.38 49.77-78.95 41.56-116.78-11.75-54.23-65.6-93.57-118.51-101.77-92.84-14.33-180.8 68.49-215.72 147.49-24 54.37 6.85 128.04-41.39 170.31-27.66 24.4-67.07 26.8-102.02 21.54z" fill="#353535" stroke="#333" stroke-miterlimit="10" stroke-width="5"/><path d="m2786.65 3051.53c11.06 51.02 1.18 114.55-37.82 152.08 51.41-33.7 65.07-107.56 52.82-164.08-16.13-74.41-86.39-129.24-159.73-140.6-66.26-10.23-131.78 18.56-181.54 60.82 114.12-80.75 293.29-60.36 326.27 91.78z" fill="#000" fill-opacity=".3"/><path d="m2717.62 3164.06c-27.03 31.45-75.59 15.26-102.89-8.23-3.14-2.68-6.9-4.54-10.94-5.41-4.03-.87-8.22-.73-12.19.41 3.98-7.3 11.64-12.23 19.93-12.9 6.6-.53 13.15 1.59 18.2 5.89 22.07 19.5 59.84 35.17 87.89 20.24z" fill="#000" fill-opacity=".3"/><path d="m2073.5 3206.5c15.72-13.48 32.62-.94 47.73 6.53 49.42 24.41 127.47 59.97 183.77 59.97 50 0 78.5-17.5 86.5-82 4 0 14.5.5 18.5 3-6.5 68.5-48.99 96.5-105 96.5-81.5 0-208.79-69.07-231.5-84z" fill="#000" fill-opacity=".3"/><path d="m1587 3147c36.5 0 65.66-32.58 62.04-68.42-5.42-63.52 18.62-132.19 65.95-198.39 43.06-60.25 89.21-93.25 53.71-132.19s-115.56 3.92-155.4 59.5c-65.71 91.92-97.19 189.11-88.63 283.68 3.19 31.47 25.83 55.82 62.33 55.82z" fill="#353535" stroke="#333" stroke-miterlimit="10" stroke-width="5"/><path d="m1553.09 3059.16c-.42-112.27 89.61-277.66 195.11-324.16-130-21-245 233.5-222.71 351.77 7.21-11.77 19.71-23.27 27.6-27.61z" fill="#000" fill-opacity=".3"/><path d="m1959.37 3446.51c5-87.08 27.4-154.43 47.17-206.81s42.42-144.7-42.56-166.02c-121.5-30.49-188.31 254.12-193.3 340.94-2.93 51.08 36.82 110.33 88.4 113.29 47.48 2.31 97.45-31.79 100.29-81.4z" fill="#353535" stroke="#333" stroke-miterlimit="10" stroke-width="5"/><path d="m1769.48 3414.5c51.5-7 148-7 188.5 34 .34-3.09 1.44-11.94 1.66-15.04-42.16-36.96-138.16-39.46-188.02-32.46-.26 3.3-1.86 10.13-2.14 13.5z" fill="#000" fill-opacity=".3"/><path d="m1785.48 3325c47.76 44.29 108.88 69.13 178 78.5.58-5.01 1.81-12.18 2.5-17-68.6-8.88-128.2-37.6-176-81-2 6-3.62 15.27-4.5 19.5z" fill="#000" fill-opacity=".3"/><path d="m2040.63 3446.51c-5-87.08-27.4-154.43-47.17-206.81s-42.42-144.7 42.56-166.02c121.5-30.49 188.31 254.12 193.3 340.94 2.93 51.08-36.82 110.33-88.4 113.29-47.48 2.31-97.45-31.79-100.29-81.4z" fill="#353535" stroke="#333" stroke-miterlimit="10" stroke-width="5"/><path d="m2230.52 3414.5c-51.5-7-148-7-188.5 34-.34-3.09-1.44-11.94-1.66-15.04 42.16-36.96 138.16-39.46 188.02-32.46.26 3.3 1.86 10.13 2.14 13.5z" fill="#000" fill-opacity=".3"/><path d="m2214.52 3325c-47.76 44.29-108.88 69.13-178 78.5-.58-5.01-1.81-12.18-2.5-17 68.6-8.88 128.2-37.6 176-81 2 6 3.62 15.27 4.5 19.5z" fill="#000" fill-opacity=".3"/><path d="m2413 3147c-36.5 0-65.66-32.58-62.04-68.42 5.42-63.52-18.62-132.19-65.95-198.39-43.06-60.25-89.21-93.25-53.71-132.19s115.56 3.92 155.4 59.5c65.71 91.92 97.19 189.11 88.63 283.68-3.19 31.47-25.83 55.82-62.33 55.82z" fill="#353535" stroke="#333" stroke-miterlimit="10" stroke-width="5"/><path d="m2446.91 3059.16c.42-112.27-89.61-277.66-195.11-324.16 130-21 245 233.5 222.71 351.77-7.21-11.77-19.71-23.27-27.6-27.61z" fill="#000" fill-opacity=".3"/><path d="m2000 2548c154 0 220 135 260 246s58 220 58 292c0 152-138.68 305.46-318 307-175.53 1.51-318-155-318-307 0-72 17.7-181.5 58-292 40-111 106-246 260-246z" fill="#353535" stroke="#333" stroke-miterlimit="10" stroke-width="5"/><path d="m2000 3393c-175.67 1.59-330-157-318-337 10 148 145.15 288.48 318 287s308-139 318-287c12 180-142.33 335.41-318 337z" fill="#000" fill-opacity=".3"/><path d="m2000 2672c104 0 160 68 174 128 34.49 147.82 64 274 4 350s-134.95 82-178 82c-47.55 0-118-6-178-82s-32.44-193.83 4-350c14-60 70-128 174-128z" fill="#f7c394" stroke="#333" stroke-miterlimit="10" stroke-width="5"/><path d="m2000 3232c-136 0-224-94-213-216 4 115 96 190 213 190s209-75 213-190c11 122-77 216-213 216z" fill="#000" fill-opacity=".1"/><path d="m2443.64 2907.41-121.66 34.53c13.05 27.01 22.01 54.04 26.47 80.58l120.8-34.25c-5.53-27.03-14.12-54.04-25.61-80.86z" fill="#000" fill-opacity=".3"/><path d="m2315.2 3031.95c-2.48-25.9-6.65-54.38-12.59-84.51l-278.06 78.92c-8.33-7.55-20.28-10.29-31.07-7.12-44.31 13.02-83.1 23.44-123.04 34.17-42.54 11.42-86.39 23.2-139.65 38.85-1.68-5.44-7.12-9.05-12.71-7.41l-35.95 9.16c1.58 48.39 17.39 96.95 43.89 140.44l33.55-8.45c5.63-1.65 8.27-7.52 6.7-13.08l116.77-34.31c2.57 4.6 8.14 6.88 13.2 5.39l51.14-15c6.97-2.05 9.24-9.2 7.36-15.58l72-21.15c11.54-3.4 20.46-13.19 22.78-25z" fill="#000" fill-opacity=".3"/><path d="m1910 3556c32 0 63.09-23.6 66.7-56.14 9.11-82.21-94.35-89.68-150.67-90.92-57.1-1.25-154.03 9.56-171.02 72.27-14.85 54.79 36.49 74.79 72.99 74.79s49-12.15 92.98-12.15c38.41 0 57.02 12.15 89.02 12.15z" fill="#f7c394" stroke="#333" stroke-miterlimit="10" stroke-width="5"/><path d="m1909 3534c-32 0-50.61-12.15-89.02-12.15-43.98 0-56.48 12.15-92.98 12.15-28.39 0-65.75-12.1-73.97-43.26-6.73 47.6 40.67 65.26 74.97 65.26 36.5 0 49-12.15 92.98-12.15 38.41 0 57.02 12.15 89.02 12.15 42.86 0 73-34.15 65.91-80.26-2.97 33.46-34.04 58.26-66.91 58.26z" fill="#000" fill-opacity=".1"/><path d="m2090 3556c-32 0-63.09-23.6-66.7-56.14-9.11-82.21 94.35-89.68 150.67-90.92 57.1-1.25 154.03 9.56 171.02 72.27 14.85 54.79-36.49 74.79-72.99 74.79s-49-12.15-92.98-12.15c-38.42 0-57.02 12.15-89.02 12.15z" fill="#f7c394" stroke="#333" stroke-miterlimit="10" stroke-width="5"/><path d="m2091 3534c32 0 50.61-12.15 89.02-12.15 43.98 0 56.48 12.15 92.98 12.15 28.39 0 65.75-12.1 73.97-43.26 6.73 47.6-40.67 65.26-74.97 65.26-36.5 0-49-12.15-92.98-12.15-38.41 0-57.02 12.15-89.02 12.15-42.86 0-73-34.15-65.91-80.26 2.97 33.46 34.04 58.26 66.91 58.26z" fill="#000" fill-opacity=".1"/><path d="m2398.6 3259.89c-56.82.05-92.99-68.11-58.59-115.27-15.92-45.21 18.08-95.39 66.66-96.55 56-1.34 88.36 58.5 82.5 109.13-5.48 47.31-37.52 102.65-90.57 102.69z" fill="#f7c394" stroke="#333" stroke-miterlimit="10" stroke-width="5"/><path d="m2489.17 3157.2c-6.78 58.57-54.37 126.8-125.37 93.8 68.82-8.8 117-125.5 83.11-191.84 5.39 3.84 13.89 8.34 27.6 27.61 12.29 21.73 17.7 46.2 14.66 70.43z" fill="#000" fill-opacity=".1"/><path d="m2289.5 2885.5c3.19 5.06 16.58 26.95 19.5 32 28.13 2.89 54.34 7.4 82.26 11.86 7.74 12.64 36.74 28.14 64.24 5.14-23.5-81-132.04-219.75-235.91-285.42-93.6-194.09-297.73-209.8-412.21-9.16-116.04 62.93-229.38 186.08-265.38 301.58 20 11.5 47.5 7.5 63.13-8.81l.9-.15c28.62-4.66 54.54-8.89 83.47-11.65 5.35-9.19 15.05-25.39 20.5-33.39-2.43 8.61-5.5 24.5-6.8 33.39 0 0 84.3-22.2 296.8-22.2s296 17.81 296 17.81c-.92-4.75-5.48-26.06-6.5-31z" fill="#000" fill-opacity=".3"/><path d="m1944.63 715.13h110.74c13.09 0 24.46 8.495 28.81 20.198 605.73 27.316 651.13 358.412 717.48 842.342 4.25 31.01 8.59 62.65 13.17 94.88 79.17 243.95 170.17 777.95 213.33 1218.95-58.9-7.5-312.5-25.34-556.35-39.05-8.98 34.58-54.7 47.75-80.53 21.85-13.18-2.59-26.48-5-39.89-7.26-75.77-10.9-182.94-15.03-351.39-15.03-141.44 0-251.62 6.52-329.39 15.56-22.08 3.1-43.9 6.44-65.4 10.01-26.69 21.81-68.42 7.56-76.91-25.13-243.9 13.73-497.49 31.61-556.41 39.07 40.03-390.81 123.61-894.02 213.33-1218.93 4.58-32.26 8.92-63.93 13.18-94.97v-.01c66.34-483.85 111.73-814.963 717.42-842.282 4.36-11.7 15.72-20.193 28.81-20.198z" fill="#0e0e0f" stroke="#333" stroke-width="10"/><path d="m1528.3 2852.45c-243.9 13.73-497.49 31.61-556.41 39.07 40.03-390.81 123.61-894.02 213.33-1218.93 79.18-557.46 86.78-939.09 814.78-939.09s735.65 381.56 814.83 939.05c79.17 243.95 170.17 777.95 213.33 1218.95-58.9-7.5-312.5-25.34-556.35-39.05-8.98 34.58-54.7 47.75-80.53 21.85-247.18-48.51-537.98-37.93-786.07 3.28-26.69 21.81-68.42 7.56-76.91-25.13z" fill="#0e0e0f"/><path d="m2131.5 1583.93c32.03 26 324.34 18 360.34-30 304.24-405.67 60.99-638.686-22.95-730.275-109.1-58.463-259.08-90.155-468.89-90.155-209.8 0-359.78 31.696-468.87 90.163-83.91 91.582-327.23 324.607-22.96 730.307 36.04 48 328.31 56.04 360.34 30s131.49-322.31 131.49-408.38c0 86.07 99.47 382.34 131.5 408.34z" fill="#262c30"/><path d="m1469.05 1880.92c83.35-115.51 327.83-113.76 415.87-4.81 38.07 47.16 43.86 102.9 44.46 109.5 3.49 38.05 2.12 98.58-38.54 117.3-44.93 20.11-188.68 11.79-188.68 11.79-80.75-4.65-212.91 11.02-258.24-73.57-27.33-50.83-3.8-120.13 25.13-160.21z" fill="#131516"/><path d="m2644.51 2288c-45.35 52.24-215 274-246.4 464.16-102.93-154.61-203.16-311.11-308.41-464.15 32.59-14.72 70.36-27 109.7-32.35 68-9.33 418.91 20.12 445.11 32.34z" fill="#262c30"/><path d="m1907.67 2287.11c-55.17 87.83-214.76 330.7-305.64 465.94-31-190.39-201.12-412.75-246.55-465.07 26.22-12.2 377.12-41.65 445.11-32.34 38.57 5.27 75.3 17.14 107.08 31.47z" fill="#262c30"/><path d="m2393.51 2825.68c-256.9-27.26-530.08-26.98-787 0 1.29-23.37-.38-47.75-4.45-72.66 90.88-135.24 250.47-378.11 305.64-465.94 32.7 14.72 65.99 33.37 91.49 58.9 25.2-25.2 58.27-43.46 90.54-58.02 105.25 153.04 205.46 309.56 308.41 464.15-4.08 24.28-5.95 48.97-4.63 73.57z" fill="#262c30"/><g fill="#141619"><path d="m1691 2757.21v24.06c-6.21.67-12.35 1.37-18.42 2.1 6.19-8.78 12.33-17.5 18.42-26.16z"/><path d="m1803.77 2594.15v177.3c-17.59 1.16-34.54 2.43-51 3.82l-1.34-104.76c18.23-26.28 35.67-51.73 52.34-76.36z"/><path d="m1914.82 2422.4-1.91 343.8c-17.14.54-33.72 1.18-49.75 1.93v-263.44c19.34-29.79 36.69-57.38 51.66-82.29z"/><path d="m2328.55 2785.49c-3.82-.48-10.52-1.18-19.53-2v-26.49c7.22 10.38 13.77 19.88 19.53 28.49z"/><path d="m2248.52 2671-1.38 107.2c-15.75-1.22-32.94-2.51-50.91-3.78v-180.29c18.07 27.36 35.77 53.11 52.29 76.87z"/><path d="m2136.85 2499.8v270.75c-16.7-1-33.44-2-49.75-2.78l-2-355.19c15.9 26.97 33.13 56.42 51.75 87.22z"/><path d="m2026 2386.72v378.55c-19.65-.57-37.36-.79-52-.55v-378z"/></g><path d="m1435.1 2107.39c.81-6.45 21.37-9.75 29.82-9.68s13.95 19.42 49.28 25 316.07 38.15 410.89-12.53c9.82 7.39 20.4 29.8 20.7 36.88-2.36 7.08-118.17 80-284.39 74.35-136.47-4.63-190.58-24.78-199.43-32.45s-27.74-74.66-26.87-81.57z" fill="#262c30"/><path d="m1668.52 1839.63c-37.1 0-115.69 5.39-151 65.64" stroke="#e6e6e6" stroke-linecap="round" stroke-miterlimit="10" stroke-width="30.07"/><path d="m1486.53 1959.88c-6.28 9.26-9.81 41.72-7.92 51" stroke="#e6e6e6" stroke-linecap="round" stroke-miterlimit="10" stroke-width="30.07"/><path d="m2531 1880.92c-83.35-115.5-327.83-113.77-415.86-4.81-44.02 54.52-50.39 116.39-37.16 181.76 3.94 19.51 12.61 36.47 31.23 45.04 44.93 20.11 188.68 11.79 188.68 11.79 80.77-4.65 212.88 11.02 258.25-73.57 27.28-50.83 3.75-120.13-25.14-160.21z" fill="#131516"/><path d="m2564.91 2107.39c-.81-6.45-21.37-9.75-29.81-9.68s-14 19.42-49.29 25-316.07 38.15-410.89-12.53c-9.82 7.39-20.4 29.8-20.7 36.88 2.36 7.08 118.17 80 284.39 74.35 136.47-4.63 190.59-24.78 199.44-32.45s27.73-74.66 26.86-81.57z" fill="#262c30"/><path d="m1939.89 1877.56c23.49-11 107-10.08 124.46 1.42" stroke="#2c343a" stroke-linecap="round" stroke-miterlimit="10" stroke-width="14.22"/><path d="m1949.3 1923.08c23.49-11 82.77-11.51 100.18 0" stroke="#2c343a" stroke-linecap="round" stroke-miterlimit="10" stroke-width="14.22"/><path d="m1961 1967.17c23.49-11 60-10.7 77.43.8" stroke="#2c343a" stroke-linecap="round" stroke-miterlimit="10" stroke-width="14.22"/><path d="m1961 2010.7c23.49-11 60-10.7 77.43.8" stroke="#2c343a" stroke-linecap="round" stroke-miterlimit="10" stroke-width="14.22"/><path d="m2054.46 2305.32c8.69-5.27 7.94-4.55 18-9.6-1.82-2.66-3.59-5.25-5.3-7.73-15.24 6.87-30.05 14.66-44.36 23.3 40.84 59.13 98.68 169.59 173.44 282.84 53.43 80.91 103.11 147.62 132.32 191.36-94.56-5.99-202.56-21.77-328.56-21.77s-244.23 9.89-327.42 19.65c152.52-216.07 276.79-401.78 299.7-473-14.25-8.64-29.01-16.4-44.2-23.24-1.57 2.5-3.23 5.15-5 7.89 9.87 5 10.58 4.93 19.14 10.14-110.52 176.97-240.46 345.07-347.72 523.84 70.5-19 244.5-26.72 405.5-26.72s288.5 4.72 393.4 21.77c-114.61-171.91-221.37-348.53-338.94-518.73z" fill="#000" opacity=".3"/><path d="m1958.09 2057.75c23.49-11 65.42-12.21 82.84-.71" stroke="#2c343a" stroke-linecap="round" stroke-miterlimit="10" stroke-width="14.22"/><path d="m1563.34 2886.43-13.76-47.81c64.7-18.62 177.92-36.36 450.42-36.36s362 13.24 436.37 31.55l-13.55 47.87c-77.58-22-193.32-29.67-422.82-29.67s-376.7 17.17-436.66 34.42z" fill="#141619"/><path d="m2317.77 1856.22c-37.1 0-115.69 5.38-151 65.64" stroke="#e6e6e6" stroke-linecap="round" stroke-miterlimit="10" stroke-width="30"/><path d="m2135.78 1976.47c-6.28 9.25-9.8 41.71-7.92 51" stroke="#e6e6e6" stroke-linecap="round" stroke-miterlimit="10" stroke-width="30"/><path d="m2491.84 1553.93c-36 48-328.3 56.06-360.34 30s-131.5-322.27-131.5-408.34c0 86.07-99.46 382.34-131.49 408.38s-324.29 18-360.33-30c-122.24-163-156.11-296.58-147.42-404 7.47 95.07 48.52 207.68 147.42 339.54 36 48 328.3 56.06 360.33 30s131.49-322.28 131.49-408.35c0 86.07 99.46 382.34 131.49 408.38s324.3 18 360.34-30c98.88-131.86 139.93-244.46 147.41-339.54 8.69 107.37-25.16 240.93-147.4 403.93z" fill="#000" fill-opacity=".3"/><path d="m1945.79 2147.06c-2.36 7.07-118.17 80-284.39 74.34-136.47-4.63-190.58-24.79-199.44-32.45s-27.72-74.65-26.85-81.56c.18-1.48 1.41-2.8 3.31-3.95 5.67 22.47 17.19 58.53 23.54 64 8.86 7.67 63 27.82 199.44 32.45 146.12 5 253.27-50.77 278.67-69.13 3.34 6.71 5.58 13.09 5.72 16.3z" fill="#000" fill-opacity=".3"/><path d="m2538 2189c-8.85 7.66-62.95 27.82-199.42 32.45-166.23 5.64-282-67.27-284.4-74.34.14-3.21 2.39-9.59 5.73-16.27 25.38 18.36 132.55 74.09 278.67 69.13 136.47-4.63 190.57-24.78 199.42-32.45 6.36-5.5 17.88-41.56 23.55-64 1.89 1.15 3.14 2.47 3.32 3.95.91 6.83-17.97 73.81-26.87 81.53z" fill="#000" fill-opacity=".3"/><path d="m2901.15 2064.77c-77.94-138.71-186.11-318.62-346.4-371.27-168.38-55.23-409.23 24.49-554.76 107.63-129.34-73.68-308.36-121.22-455.96-121.22-213.96 0-352.09 219.15-445.17 384.86 35.58-196.88 66.51-330.18 89.74-386.5.13-.33.26-.63.38-.93l.84-2c56.65-71.63 155.62-128 248.54-128 105.67 0 428.14 26.16 560.89 179.33 106.25-150.17 456.25-179.33 562.31-179.33 92.96 0 191.93 56.33 248.61 128l.6 1.41c23.31 55.44 54.46 189.25 90.38 388.02z" fill="#262c30"/><path d="m2890.24 2034.89c-76.78-131.68-181.31-296.38-333.84-346.49-174.44-57.25-404.8 24.56-556.4 106.57-132.18-71.56-306.4-120.44-456-120.44-206.11 0-341.17 200.67-434.26 360.35 4.04-21.9 8.01-42.94 11.92-63.11 92.15-153.61 223.82-340.19 422.32-340.19 149.63 0 323.78 48.91 456 120.44 152.01-82.35 388.51-161.76 556.4-106.56 145.68 47.9 246.66 200.92 321.9 326.34 3.92 20.13 7.91 41.16 11.96 63.09z" fill="#000" fill-opacity=".3"/><path d="m2888.86 2030.93c-35.28-61.55-76.53-128.63-125.4-187.89-57.17-69.32-125.17-128.41-206.84-155.24-85.68-28.1-189.24-21.75-289.19 1.79-98.71 23.24-194.58 63.4-267.45 104.64-129.99-73.23-308.43-120.32-455.95-120.32-109.22 0-198.7 55.98-272.23 132.12-64.56 66.85-117.26 149.69-160.68 225.02 32.93-177.89 61.46-298.21 83.03-350.49l.01-.05.02-.04c.1-.26.13-.31.15-.37.03-.07.07-.15.2-.48l.5-1.2c55.81-70.15 152.83-125.08 243.33-125.08 52.48 0 159.04 6.51 268.93 32.07 110.13 25.62 222.34 70.1 287.43 145.19l5.01 5.78 4.42-6.24c25.75-36.4 66.56-65.82 115.48-89.44 48.87-23.59 105.43-41.19 162.18-54.16 113.53-25.94 227.09-33.2 279.75-33.2 90.54 0 187.57 54.9 243.41 125.09l.27.65c21.63 51.44 50.38 172.21 83.62 351.85z" stroke="#0e0e0f" stroke-width="12"/><path d="m2065.87 1775.46c-2.77 7.29-8.63 13.18-15.9 16-11.6 4.46-27.56 12.61-38.43 18.38-7.62 4.07-16.92 4.32-24.75.67-12.26-5.7-31-14.17-44.61-19.23-8.52-3.13-15.09-10.43-17.31-19.23-6.8-27.43-5.58-62.34-5.58-62.34v-963.87c.01-13.8 11.54-25.335 25.34-25.34h110.74c13.8 0 25.34 11.538 25.34 25.34v961.51c0 21.89-7.2 47.93-14.84 68.11z" fill="#262c30" stroke="#0e0e0f" stroke-miterlimit="10" stroke-width="10.74"/><path d="m2055.37 720.5h-110.74c-13.8.005-25.33 11.54-25.34 25.34v963.88c-.05 23.51-3 66.78 19.89 79.51 12.71 7.07 35.35 12.53 47.61 18.23 7.83 3.64 17.13 3.39 24.75-.67 10.87-5.78 29.06-13.36 40.44-18.38 17.94-7.91 28.68-57.39 28.73-81.06v-961.51c-.01-13.8-11.54-25.335-25.34-25.34zm14.55 895.16c.02 48.69-22.03 61.07-59.38 80.93-6.6 3.52-14.66 3.73-21.44.57-43.27-20.13-59.12-29.03-59.02-79.44v-835.09c0-11.983 10.02-22 22-22h95.92c11.98 0 22 10.017 22 22z" fill="#000" fill-opacity=".3"/><path d="m2644.51 2288c-45.35 52.24-215 274-246.4 464.16-102.93-154.61-203.16-311.11-308.41-464.15 4.67-2.1 9.43-4.15 14.29-6.15 95.61 141.68 188.64 285.09 283.38 427.35 26.61-161 152.18-344.51 217.63-428.79 20.77 2.84 35 5.46 39.51 7.58z" fill="#000" opacity=".2"/><path d="m1907.67 2287.11c-55.17 87.83-214.76 330.7-305.64 465.94-31-190.39-201.12-412.75-246.55-465.07 4.53-2.1 18.74-4.72 39.51-7.58 65.59 84.44 191.5 268.52 217.78 429.7 80.1-119.2 213.58-322 281.9-428.59 4.42 1.81 8.75 3.69 13 5.6z" fill="#000" opacity=".2"/><path d="m2109.47 2408.19h-220.64c0-10-6.53-51.5 8-87.77-5.64 29.73-1.63 58.21-1.63 66.3h209.36c0-4.18 3.48-28.56-.49-56.27 11.17 35.55 5.4 72.55 5.4 77.74z" fill="#000" fill-opacity=".4"/><path d="m2065.87 1775.46c-2.77 7.29-8.63 13.18-15.9 16-11.6 4.46-27.56 12.61-38.43 18.38-7.62 4.07-16.92 4.32-24.75.67-12.26-5.7-31-14.17-44.61-19.23-8.52-3.13-15.09-10.43-17.31-19.23-6.8-27.43-5.58-62.34-5.58-62.34v-963.87c.01-13.8 11.54-25.335 25.34-25.34h110.74c13.8 0 25.34 11.538 25.34 25.34v961.51c0 21.89-7.2 47.93-14.84 68.11z" fill="#262c30" stroke="#0e0e0f" stroke-miterlimit="10" stroke-width="10.74"/><path d="m2065.87 1775.46c-2.77 7.29-8.63 13.18-15.9 16-11.6 4.46-27.56 12.61-38.43 18.38-7.62 4.07-16.92 4.32-24.75.67-12.26-5.7-31-14.17-44.61-19.23-8.52-3.13-15.09-10.43-17.31-19.23-6.8-27.43-5.58-62.34-5.58-62.34v-963.87c.01-13.8 11.54-25.335 25.34-25.34h110.74c13.8 0 25.34 11.538 25.34 25.34v961.51c0 21.89-7.2 47.93-14.84 68.11z" fill="#262c30"/><path d="m2462.19 2846.05-37.23 33c-.31-.34-.65-.76-1-1.23-142.57-174.16-250.69-381.36-378.58-566.53 14.31-8.64 29.12-16.43 44.36-23.3 124.64 181.22 255.26 387.51 372.45 558.06z" fill="#141619"/><path d="m2425.25 2888.4c26.53 0 48.04-21.51 48.04-48.04s-21.51-48.04-48.04-48.04-48.04 21.51-48.04 48.04 21.51 48.04 48.04 48.04z" fill="#28323c"/><path d="m2425.25 2869.11c15.88 0 28.75-12.87 28.75-28.75s-12.87-28.75-28.75-28.75-28.75 12.87-28.75 28.75 12.87 28.75 28.75 28.75z" fill="#868488"/><path d="m1951.87 2310.35c-117.96 188.89-248.37 385.65-376.82 568.75l-37.18-33.05c118.13-174.05 251.13-378.55 369.8-558.89 15.19 6.82 29.95 14.57 44.2 23.19z" fill="#141619"/><path d="m1574.76 2888.4c26.53 0 48.04-21.51 48.04-48.04s-21.51-48.04-48.04-48.04-48.04 21.51-48.04 48.04 21.51 48.04 48.04 48.04z" fill="#28323c"/><path d="m1574.76 2869.11c15.88 0 28.75-12.87 28.75-28.75s-12.87-28.75-28.75-28.75-28.75 12.87-28.75 28.75 12.87 28.75 28.75 28.75z" fill="#868488"/><path d="m1999.87 2240.19c-126.18 0-104.68 127.82-104.68 146.53h209.36c0-10.43 21.65-146.53-104.68-146.53z" fill="#28323c"/><path d="m2000 2266.69c-89.59 0-81 88-81 93.52h162c0-12.21 5.48-93.52-81-93.52z" fill="#868488"/><path clip-rule="evenodd" d="m1946.1 3139.56-44.09-147.55 1547.38-462.42c40.75-12.18 83.65 10.98 95.82 51.73 12.18 40.74-10.98 83.64-51.72 95.82z" fill="#ff1f1f" fill-opacity=".05" fill-rule="evenodd"/><path clip-rule="evenodd" d="m1946.11 3129.12-38.36-128.39 1544.5-461.56c35.46-10.6 72.79 9.56 83.38 45.01 10.6 35.45-9.55 72.78-45.01 83.38z" fill="#ff1f1f" fill-opacity=".1" fill-rule="evenodd"/><path clip-rule="evenodd" d="m2019.9 3096.64-32.64-109.23 1467.86-438.66c30.16-9.01 61.92 8.13 70.93 38.29s-8.13 61.92-38.29 70.94z" fill="#ff1f1f" fill-opacity=".2" fill-rule="evenodd"/><path d="m3457.98 2558.33c24.87-7.43 51.06 6.71 58.49 31.58s-6.7 51.05-31.57 58.49l-1458.28 435.79-26.92-90.06z" fill="#ff1f1f"/><path clip-rule="evenodd" d="m2033.34 3071.75 1448.69-432.94c19.58-5.85 30.71-26.46 24.86-46.04s-26.47-30.71-46.05-24.86l-1448.69 432.93z" fill="#ff6e6e" fill-rule="evenodd"/><path clip-rule="evenodd" d="m2040.06 3059.3 1439.11-430.07c14.29-4.27 22.41-19.31 18.14-33.6s-19.32-22.41-33.6-18.14l-1439.12 430.07z" fill="#ffb6b6" fill-rule="evenodd"/><path clip-rule="evenodd" d="m2042.94 3048 1433.37-428.35c8.99-2.69 14.1-12.16 11.42-21.15-2.69-9-12.16-14.11-21.16-11.43l-1433.36 428.36z" fill="#ffebeb" fill-rule="evenodd"/><path clip-rule="evenodd" d="m2040.08 3038.42 1433.36-428.35c3.71-1.11 5.81-5.01 4.7-8.71-1.1-3.71-5-5.81-8.71-4.7l-1433.36 428.35z" fill="#fff" fill-rule="evenodd"/><path d="m2033.03 3000.87c-4.43-14.82-20.03-23.24-34.84-18.81l-72.82 21.76-4.87-16.29c-1.9-6.35-8.58-9.96-14.93-8.06l-60.37 18.04c-6.35 1.89-9.96 8.58-8.06 14.93l3.15 10.54-109.22 32.64c-3.22-3.94-8.61-5.78-13.79-4.23l-98.69 29.49c-5.89 1.76-9.6 7.33-9.26 13.21l-11.83 3.53c-.95-3.17-4.29-4.98-7.47-4.03l-278.35 83.18c-2.18-2.99-6.09-4.44-9.85-3.31l-22.03 6.58c-4.77 1.43-7.47 6.44-6.05 11.2l.86 2.88-5.75 1.71-1.43-4.79c-1.11-3.7-5.01-5.81-8.71-4.7l-7.67 2.29c-3.7 1.11-5.81 5.01-4.7 8.71l1.69 5.67c-4.46 3.44-6.58 9.39-4.87 15.11l28.06 93.9c1.71 5.72 6.75 9.54 12.37 9.96l1.69 5.67c1.11 3.7 5.01 5.81 8.71 4.7l7.67-2.29c3.7-1.11 5.81-5.01 4.7-8.71l-1.43-4.79 5.75-1.72.86 2.88c1.42 4.76 6.43 7.46 11.2 6.04l22.03-6.58c3.76-1.13 6.23-4.48 6.42-8.18l278.35-83.19c3.17-.94 4.98-4.29 4.03-7.46l11.83-3.54c2.94 5.11 9.09 7.72 14.98 5.96l98.69-29.49c5.18-1.55 8.68-6.04 9.21-11.1l114.02-34.08.57 1.92c1.9 6.35 8.65 9.94 15.08 8.02l51.44-15.38c6.43-1.92 10.11-8.62 8.21-14.97l-2.29-7.67 76.65-22.9c14.82-4.43 23.24-20.03 18.81-34.85z" stroke="#333" stroke-width="10"/><path d="m1289.94 3189.54 36.08 120.72-37.37 11.17c-7.41 2.21-15.21-2-17.42-9.41l-28.06-93.9c-2.22-7.4 1.99-15.2 9.4-17.42z" fill="#202021"/><path d="m1618.58 3091.32h126v330h-126z" fill="#b5b2b4" transform="matrix(.28633058 .95813089 -.95813089 .28633058 4117.020234 655.369066)"/><path d="m1328.45 3273 10.02 33.54 316.19-94.49-10.03-33.54z" fill="#000" fill-opacity=".2"/><path d="m1590.03 3093.59c3.18-.95 6.52.86 7.47 4.03l5.15 17.25c.95 3.17-.85 6.52-4.03 7.47l-283.6 84.75-8.59-28.74z" fill="#202021"/><path d="m1605.49 3145.33c3.18-.95 6.52.86 7.47 4.03l5.15 17.25c.95 3.17-.85 6.52-4.03 7.47l-283.6 84.75-8.59-28.74z" fill="#202021"/><path d="m1620.96 3197.07c3.17-.95 6.51.86 7.46 4.03l5.16 17.25c.95 3.17-.86 6.52-4.03 7.46l-283.61 84.76-8.59-28.75z" fill="#202021"/><path d="m1851.79 3019.54h130v149h-130z" fill="#b5b2b4" transform="matrix(.28633058 .95813089 -.95813089 .28633058 4214.680445 380.69617)"/><path d="m1765.54 3114.09-12.23-36.79c-2.15-6.47.54-13.27 6.03-15.18l84.63-29.63c5.48-1.96 11.65 1.77 13.8 8.24l12.23 36.79c2.16 6.46-.54 13.26-6.01 15.18l-84.64 29.63c-5.49 1.91-11.66-1.78-13.81-8.24z" fill="#000" fill-opacity=".3"/><path d="m1769.72 3110.06-11.65-35.08c-2.05-6.16.52-12.64 5.75-14.46l80.62-28.22c5.21-1.83 11.11 1.69 13.15 7.85l11.65 35.07c2.05 6.17-.52 12.64-5.75 14.47l-80.59 28.22c-5.24 1.83-11.13-1.69-13.18-7.85z" fill="#9b9b9b"/><g fill="#303030"><path d="m1839.29 3053.32c2.1-.72 3.15-3.15 2.37-5.43-.79-2.28-3.13-3.53-5.22-2.81s-3.15 3.16-2.36 5.43c.79 2.28 3.12 3.54 5.21 2.81z"/><path d="m1845.1 3070.08c2.09-.73 3.15-3.16 2.36-5.44-.79-2.27-3.12-3.53-5.21-2.8-2.1.72-3.16 3.15-2.37 5.43.79 2.27 3.12 3.53 5.22 2.81z"/><path d="m1850.9 3086.84c2.09-.72 3.15-3.15 2.36-5.43-.79-2.27-3.12-3.53-5.22-2.81-2.09.73-3.15 3.16-2.36 5.43.79 2.28 3.12 3.54 5.22 2.81z"/><path d="m1823.79 3058.68c2.09-.72 3.15-3.15 2.36-5.43-.78-2.27-3.12-3.53-5.21-2.81-2.09.73-3.15 3.16-2.37 5.43.79 2.28 3.13 3.54 5.22 2.81z"/><path d="m1829.59 3075.44c2.1-.73 3.16-3.16 2.37-5.43-.79-2.28-3.12-3.54-5.22-2.81-2.09.72-3.15 3.15-2.36 5.43.79 2.27 3.12 3.53 5.21 2.81z"/><path d="m1835.4 3092.21c2.1-.72 3.15-3.15 2.37-5.43-.79-2.27-3.13-3.53-5.22-2.81-2.09.73-3.15 3.16-2.36 5.43.78 2.28 3.12 3.54 5.21 2.81z"/><path d="m1808.29 3064.05c2.09-.73 3.15-3.16 2.36-5.44-.79-2.27-3.12-3.53-5.21-2.81-2.1.73-3.16 3.16-2.37 5.44.79 2.27 3.12 3.53 5.22 2.81z"/><path d="m1814.09 3080.81c2.1-.72 3.16-3.16 2.37-5.43-.79-2.28-3.12-3.54-5.22-2.81-2.09.72-3.15 3.15-2.36 5.43s3.12 3.53 5.21 2.81z"/><path d="m1819.9 3097.57c2.09-.72 3.15-3.15 2.36-5.43-.78-2.27-3.12-3.53-5.21-2.81-2.1.73-3.15 3.16-2.37 5.44.79 2.27 3.13 3.53 5.22 2.8z"/><path d="m1792.79 3069.4c2.1-.72 3.15-3.15 2.37-5.43-.79-2.27-3.13-3.53-5.22-2.81-2.09.73-3.15 3.16-2.36 5.43.78 2.28 3.12 3.54 5.21 2.81z"/><path d="m1798.59 3086.18c2.09-.72 3.15-3.15 2.36-5.43-.78-2.28-3.12-3.53-5.21-2.81-2.09.73-3.15 3.16-2.36 5.43.78 2.28 3.12 3.54 5.21 2.81z"/><path d="m1804.39 3102.94c2.09-.73 3.15-3.16 2.36-5.44-.79-2.27-3.12-3.53-5.22-2.8-2.09.72-3.15 3.15-2.36 5.43.79 2.27 3.12 3.53 5.22 2.81z"/><path d="m1777.29 3074.78c2.1-.73 3.15-3.16 2.37-5.44-.79-2.27-3.13-3.53-5.22-2.81-2.09.73-3.15 3.16-2.36 5.44.79 2.27 3.12 3.53 5.21 2.81z"/><path d="m1783.09 3091.54c2.09-.72 3.15-3.16 2.36-5.43-.79-2.28-3.12-3.53-5.21-2.81-2.1.72-3.16 3.16-2.37 5.43.79 2.28 3.12 3.53 5.22 2.81z"/><path d="m1788.89 3108.31c2.09-.73 3.15-3.16 2.36-5.43-.79-2.28-3.12-3.54-5.22-2.81-2.09.72-3.15 3.15-2.36 5.43.79 2.27 3.12 3.53 5.22 2.81z"/></g><path d="m1717.28 3051.39c6.88-2.05 14.12 1.86 16.17 8.74l34.36 114.97c2.06 6.88-1.85 14.12-8.73 16.18l-98.69 29.49c-6.88 2.06-14.12-1.85-16.17-8.73l-34.36-114.98c-2.06-6.88 1.85-14.12 8.73-16.18z" fill="#202021"/><path d="m1629.9 3164.13 14.32 47.91c2.05 6.88 9.29 10.79 16.17 8.73l98.69-29.49c6.88-2.06 10.79-9.3 8.73-16.18l-14.31-47.91c2.05 6.88-1.86 14.13-8.74 16.18l-98.68 29.49c-6.88 2.06-14.13-1.85-16.18-8.73z" fill="#000"/><circle cx="1833.28" cy="3131.71" fill="#a77559" r="20" transform="matrix(.28633058 .95813089 -.95813089 .28633058 4308.943966 478.483472)"/><path d="m1817.76 3132.17c3.16 10.58 14.3 16.6 24.89 13.44 3.42-1.03 6.37-2.88 8.68-5.29-2.35 4.92-6.69 8.87-12.33 10.55-10.58 3.16-21.72-2.85-24.89-13.44-2.14-7.16-.07-14.57 4.76-19.6-2.06 4.32-2.59 9.39-1.11 14.34z" fill="#000" fill-opacity=".2"/><path d="m1998.19 2982.06c14.81-4.43 30.41 3.99 34.84 18.81l17.75 59.4c4.43 14.82-3.99 30.42-18.81 34.85l-97.73 29.2-33.78-113.06z" fill="#202021"/><path d="m1924.79 3092.7 9.45 31.62 97.73-29.2c14.82-4.43 23.24-20.03 18.81-34.85l-9.45-31.62c4.43 14.82-3.99 30.42-18.81 34.85z" fill="#000"/><path d="m1916.38 2987.72 41.23 137.97c1.9 6.35-1.78 13.05-8.21 14.98l-51.44 15.37c-6.43 1.92-13.18-1.67-15.08-8.02l-41.23-137.97z" fill="#9b9b9b"/><path d="m1905.57 2979.47c6.35-1.9 13.03 1.71 14.93 8.06l32.93 110.18c1.9 6.35-1.71 13.04-8.06 14.94l-60.37 18.04c-6.35 1.89-13.03-1.72-14.93-8.07l-32.93-110.18c-1.9-6.35 1.71-13.04 8.06-14.93z" fill="#202021"/><path d="m1846.16 2997.22c-6.59 1.97-11.11 8.21-9.02 15.22l32.93 110.18c1.9 6.35 8.58 9.96 14.93 8.07l60.37-18.04c6.35-1.9 9.96-8.59 8.06-14.94l-6.01-20.12-59.41 17.76c-6.35 1.89-13.04-1.72-14.93-8.07z" fill="#000"/><path d="m1258.72 3186.34c3.7-1.11 7.6 1 8.71 4.7l38.94 130.31c1.11 3.7-1 7.6-4.7 8.71l-7.67 2.29c-3.7 1.11-7.6-1-8.71-4.7l-38.94-130.31c-1.11-3.7 1-7.6 4.7-8.71z" fill="#b5b2b4"/><path d="m1272.69 3285.49 12.6 42.16c1.11 3.7 5.01 5.81 8.71 4.7l7.67-2.29c3.7-1.11 5.81-5.01 4.7-8.71l-12.6-42.16c1.11 3.71-1 7.61-4.7 8.71l-7.67 2.29c-3.7 1.11-7.6-.99-8.71-4.7z" fill="#000" fill-opacity=".2"/><path d="m1301.83 3173.46c4.77-1.43 9.78 1.28 11.2 6.04l37.8 126.48c1.42 4.76-1.28 9.77-6.05 11.2l-22.03 6.58c-4.77 1.42-9.78-1.28-11.2-6.04l-37.8-126.48c-1.42-4.76 1.28-9.77 6.05-11.2z" fill="#b5b2b4"/><path d="m1298.95 3275.56 12.6 42.16c1.42 4.76 6.43 7.46 11.2 6.04l22.03-6.58c4.77-1.43 7.47-6.44 6.05-11.2l-12.6-42.16c1.42 4.76-1.28 9.78-6.05 11.2l-22.03 6.58c-4.77 1.43-9.78-1.28-11.2-6.04z" fill="#000" fill-opacity=".2"/><path d="m1601.4 3259.89c56.82.05 92.99-68.11 58.59-115.27 15.91-45.21-18.09-95.39-66.66-96.55-56-1.34-88.37 58.5-82.5 109.13 5.48 47.31 37.52 102.65 90.57 102.69z" fill="#f7c394" stroke="#333" stroke-miterlimit="10" stroke-width="5"/><path d="m1510.83 3157.2c6.78 58.57 54.37 126.8 125.37 93.8-68.82-8.8-117-125.5-83.11-191.84-5.39 3.84-13.89 8.34-27.6 27.61-12.29 21.73-17.7 46.2-14.66 70.43z" fill="#000" fill-opacity=".1"/></svg>