<svg xmlns="http://www.w3.org/2000/svg" width="4000" height="4000" fill="none" xmlns:v="https://vecta.io/nano"><style><![CDATA[.B{fill:#000}.C{stroke:#333}.D{stroke-width:5}.E{stroke-miterlimit:10}.F{fill-opacity:.15}.G{fill-opacity:.1}.H{fill:#b5b2a7}.I{fill-rule:evenodd}.J{fill-opacity:.2}.K{fill:#f7c394}.L{fill:#efefef}.M{fill:#232323}.N{fill-opacity:.3}.O{stroke-linejoin:round}]]></style><path d="M2275.1 3290.64c-50.77-7.42-115.16-32.27-196.86-76-11.87-6.35-16.67-21.85-10.25-33.84 6.35-11.87 21.85-16.66 33.84-10.25 75.45 40.37 136.18 64.12 180.5 70.6 28.93 4.23 49.75 1 61.88-9.64 13.6-11.92 12.4-33 8.83-72.4-4.17-46.12-9.36-103.53 19.78-169.5 44-99.72 153.63-194.53 269.1-176.7 73.33 11.36 143.6 66.2 159.73 140.6 13.73 63.36-6.02 150.17-73.53 174.43-44.77 16-95.93-2.36-130.84-32.08-10.44-8.68-11.95-25-3.06-35.44 8.8-10.34 25.15-11.64 35.48-2.62.43.36 43.66 36.65 81.5 23.06 42.84-15.38 49.77-78.95 41.56-116.78-11.75-54.23-65.6-93.57-118.5-101.77-92.84-14.33-180.8 68.5-215.72 147.5-23.9 54.16-19.56 102.32-15.72 144.8 4 43.84 7.7 85.25-25.67 114.5-27.66 24.4-67.07 26.8-102.02 21.54z" class="C D E H"/><path d="M2786.65 2965.53c11.06 51.02 1.18 114.55-37.82 152.08 51.4-33.7 65.07-107.56 52.82-164.08-16.13-74.4-86.4-129.24-159.73-140.6-66.26-10.23-131.78 18.56-181.54 60.82 114.12-80.75 293.3-60.36 326.27 91.78zm-69.03 112.53c-27.03 31.45-75.6 15.26-102.9-8.23-3.14-2.68-6.9-4.54-10.94-5.4a25.037 25.037 0 0 0-12.19.41c3.97-7.3 11.63-12.23 19.93-12.9 6.6-.53 13.15 1.6 18.2 5.9 22.07 19.5 59.84 35.17 87.9 20.24zm-644.12 95.44c3.5-3 15.5-9 23-5.5 6.98 3.26 15.34 7.4 24.73 12.03 49.42 24.4 127.47 62.97 183.77 62.97 50 0 54.5-25 47.5-91 .85 3.82 1.92 8.03 3.06 12.5 9.62 37.75 24.1 94.5-50.56 94.5-81.5 0-208.8-70.57-231.5-85.5z" class="B J"/><path d="M1587 3147c36.5 0 65.66-32.58 62.04-68.42-5.42-63.52 18.62-132.2 65.95-198.4 43.06-60.25 89.2-93.25 53.7-132.2s-115.56 3.92-155.4 59.5c-65.7 91.92-97.2 189.1-88.63 283.68 3.2 31.47 25.83 55.82 62.33 55.82z" class="C D E H"/><path d="M1553.1 3059.16c-.42-112.27 89.6-277.66 195.1-324.16-130-21-245 233.5-222.7 351.77 7.2-11.77 19.7-23.27 27.6-27.6z" class="B F"/><path d="M1959.37 3446.5c5-87.08 27.4-154.43 47.17-206.8s42.42-144.7-42.56-166.02c-121.5-30.5-188.3 254.12-193.3 340.94-2.93 51.08 36.82 110.33 88.4 113.3 47.48 2.3 97.45-31.8 100.3-81.4z" class="C D E H"/><path d="M1769.48 3414.5c51.5-7 148-7 188.5 34l1.66-15.04c-42.16-36.96-138.16-39.46-188.02-32.46-.26 3.3-1.86 10.13-2.14 13.5zm16-89.5c47.76 44.3 108.88 69.13 178 78.5.58-5 1.8-12.18 2.5-17-68.6-8.88-128.2-37.6-176-81-2 6-3.62 15.27-4.5 19.5z" class="B F"/><path d="M2040.63 3446.5c-5-87.08-27.4-154.43-47.17-206.8s-42.42-144.7 42.56-166.02c121.5-30.5 188.3 254.12 193.3 340.94 2.93 51.08-36.82 110.33-88.4 113.3-47.48 2.3-97.45-31.8-100.3-81.4z" class="C D E H"/><path d="M2230.52 3414.5c-51.5-7-148-7-188.5 34l-1.66-15.04c42.16-36.96 138.16-39.46 188.02-32.46.26 3.3 1.86 10.13 2.14 13.5zm-16-89.5c-47.76 44.3-108.88 69.13-178 78.5-.58-5-1.8-12.18-2.5-17 68.6-8.88 128.2-37.6 176-81 2 6 3.62 15.27 4.5 19.5z" class="B F"/><g class="C D"><path d="M2012.5 3500.5c-1.5-31.5.5-74.5 17-93.5-4-4 .67-9.27 4.5-8 29.5 9.83 107.5 9.5 181-13 119.5 84.5 209 82 226 97 18.3 16.15-427 49-428.5 17.5z" class="L"/><path d="M2233.5 3384c29.93 14.48 118.3 57.57 103 68.5-42 30-155.3-34.43-158.5-43.5-3-8.5 9.7-14.74 18.5-19.5 9.7-5.26 21.5-13 37-5.5zm-220.78 159.07c-.72-12.67-1.5-32.28-.22-42.57 95.5 16 367 13.5 430-15.5 9 5.5 17 27.5 11.5 45-54.16 49.23-364.32 30.36-428.77 25.86-6.88-.48-12.12-5.9-12.5-12.8z" class="M"/></g><path d="M2014.85 3503.72c.13 7.83-.5 12.97-.13 19.35.4 6.88 5.63 12.3 12.5 12.8 64.18 4.48 372.05 23.22 428.08-25.25.9 6.4.64 13.18-1.3 19.4-54.16 49.23-364.32 30.36-428.77 25.86-6.88-.48-12.12-5.9-12.5-12.8-.72-12.67-.5-29.28.78-39.57l1.35.22z" fill-opacity=".5" class="B"/><g class="C D"><path d="M1987.5 3500.5c1.5-31.5-.5-74.5-17-93.5 4-4-.68-9.27-4.5-8-29.5 9.83-107.5 9.5-181-13-119.5 84.5-209 82-226 97-18.3 16.15 427 49 428.5 17.5z" class="L"/><path d="M1766.5 3384c-29.93 14.48-118.3 57.57-103 68.5 42 30 155.3-34.43 158.5-43.5 3-8.5-9.7-14.74-18.5-19.5-9.7-5.26-21.5-13-37-5.5zm220.8 159.07c.72-12.67 1.5-32.28.22-42.57-95.5 16-367 13.5-430-15.5-9 5.5-17 27.5-11.5 45 54.15 49.23 364.32 30.36 428.77 25.86 6.87-.48 12.12-5.9 12.5-12.8z" class="M"/></g><path d="M1985.15 3503.72c-.12 7.83.5 12.97.14 19.35-.4 6.88-5.64 12.3-12.5 12.8-64.18 4.48-372.05 23.22-428.1-25.25-.9 6.4-.64 13.18 1.32 19.4 54.15 49.23 364.32 30.36 428.77 25.86 6.87-.48 12.12-5.9 12.5-12.8.72-12.67.5-29.28-.78-39.57-.45.08-.9.15-1.36.22z" fill-opacity=".5" class="B"/><path d="M2413 3147c-36.5 0-65.66-32.58-62.04-68.42 5.42-63.52-18.62-132.2-65.95-198.4-43.06-60.25-89.2-93.25-53.7-132.2s115.56 3.92 155.4 59.5c65.7 91.92 97.2 189.1 88.63 283.68-3.2 31.47-25.83 55.82-62.33 55.82z" class="C D E H"/><path d="M2446.9 3059.16c.42-112.27-89.6-277.66-195.1-324.16 130-21 245 233.5 222.7 351.77-7.2-11.77-19.7-23.27-27.6-27.6z" class="B F"/><path d="M3133.2 1832.12c111.1 102 66.32 309.3-9.1 427.16-107.46 168-353.47 273.75-479.46 184.37-131.58-93.35-114.4-386.92 39.2-539.32 114.68-113.78 334.45-177.7 449.35-72.2z" class="C D E K"/><path d="M3003.5 1952.22c66 68.2 30.1 196.68-21.65 267.88-73.75 101.45-232.17 158.7-307.94 97.86-79.14-63.53-57.4-247.22 44.75-337.18 76.26-67.16 216.64-99.08 284.84-28.56z" fill="#ffc9a1"/><path d="M3124.1 2259.28c-60.7 94.85-195.1 203.22-346.6 216.72 106.36-25 260-133.85 306.64-206.72 75.4-117.87 115.36-338.97 9.1-427.16-32.4-26.9-114.73-65.12-227.73-45.12 138-42.5 222.8-6.13 267.73 35.12 111.06 102 66.28 309.3-9.13 427.16z" class="B G"/><path d="M866.818 1832.12c-111.1 102-66.32 309.3 9.1 427.16 107.46 168 353.472 273.75 479.462 184.37 131.58-93.35 114.4-386.92-39.2-539.32-114.68-113.78-334.452-177.7-449.352-72.2z" class="C D E K"/><path d="M996.518 1952.22c-66 68.2-30.1 196.68 21.652 267.88 73.75 101.45 232.17 158.7 307.94 97.86 79.14-63.53 57.4-247.22-44.75-337.18-76.26-67.16-216.64-99.08-284.842-28.56z" fill="#ffc9a1"/><path d="M875.908 2259.28C936.598 2354.13 1071 2462.5 1222.5 2476c-106.36-25-260.02-133.85-306.642-206.72-75.4-117.87-115.36-338.97-9.1-427.16 32.41-26.9 114.732-65.12 227.732-45.12-138.002-42.5-222.792-6.13-267.732 35.12-111.06 102-66.28 309.3 9.13 427.16z" class="B G"/><path d="M2000 2548c154 0 220 135 260 246s58 220 58 292c0 152-138.68 305.46-318 307-175.53 1.5-318-155-318-307 0-72 17.7-181.5 58-292 40-111 106-246 260-246z" class="C D E H"/><path d="M2000 3393c-175.67 1.6-330-157-318-337 10 148 145.15 288.48 318 287s308-139 318-287c12 180-142.33 335.4-318 337z" class="B F"/><path d="M2000 2672c104 0 160 68 174 128 34.5 147.82 64 274 4 350s-134.95 82-178 82c-47.55 0-118-6-178-82s-32.44-193.83 4-350c14-60 70-128 174-128z" class="C D E K"/><g class="B"><path d="M2000 3232c-136 0-224-94-213-216 4 115 96 190 213 190s209-75 213-190c11 122-77 216-213 216z" class="G"/><path d="M2152.17 2903.9c0 7.73 2.82 14.8 7.5 20.23-15.26 1.95-27.06 15-27.06 30.78 0 9.3 4.08 17.62 10.54 23.3-13.83 3.13-24.14 15.5-24.14 30.26 0 17.14 13.9 31.04 31.03 31.04s31.04-13.9 31.04-31.04c0-9.28-4.08-17.6-10.54-23.3 13.82-3.13 24.14-15.5 24.14-30.27 0-7.73-2.82-14.8-7.5-20.23 15.26-1.95 27.06-15 27.06-30.78 0-17.14-13.9-31.04-31.04-31.04s-31.03 13.9-31.03 31.04zm31.03 16.58c-9.15 0-16.58-7.43-16.58-16.58 0-9.16 7.43-16.58 16.58-16.58 9.16 0 16.58 7.42 16.58 16.58 0 9.15-7.42 16.58-16.58 16.58zm-19.55 51.02c-9.16 0-16.58-7.43-16.58-16.6 0-9.15 7.42-16.58 16.58-16.58 9.15 0 16.58 7.43 16.58 16.58 0 9.16-7.43 16.6-16.58 16.6zm-30.2 36.98c0 9.16 7.42 16.58 16.58 16.58s16.58-7.42 16.58-16.58c0-9.15-7.42-16.58-16.58-16.58s-16.58 7.43-16.58 16.58zm-285.62-104.58c0 7.73-2.82 14.8-7.5 20.23 15.26 1.95 27.06 15 27.06 30.78 0 9.3-4.08 17.62-10.54 23.3 13.83 3.13 24.14 15.5 24.14 30.26 0 17.14-13.9 31.04-31.03 31.04s-31.04-13.9-31.04-31.04c0-9.28 4.08-17.6 10.54-23.3-13.82-3.13-24.14-15.5-24.14-30.27 0-7.73 2.82-14.8 7.5-20.23-15.26-1.95-27.06-15-27.06-30.78 0-17.14 13.9-31.04 31.04-31.04s31.03 13.9 31.03 31.04zm-31.03 16.58c9.15 0 16.58-7.43 16.58-16.58 0-9.16-7.43-16.58-16.58-16.58-9.16 0-16.58 7.42-16.58 16.58 0 9.15 7.42 16.58 16.58 16.58zm19.55 51.02c9.16 0 16.58-7.43 16.58-16.6 0-9.15-7.42-16.58-16.58-16.58-9.15 0-16.58 7.43-16.58 16.58 0 9.16 7.43 16.6 16.58 16.6zm30.2 36.98c0 9.16-7.42 16.58-16.58 16.58s-16.58-7.42-16.58-16.58c0-9.15 7.42-16.58 16.58-16.58s16.58 7.43 16.58 16.58z" class="I J"/></g><g fill="#ffe600" class="C D I"><path d="M2173 2930.7c-17.14 0-31.04-13.9-31.04-31.03s13.9-31.04 31.04-31.04 31.04 13.9 31.04 31.04-13.9 31.03-31.04 31.03zm0-14.45c-9.16 0-16.58-7.43-16.58-16.58 0-9.16 7.42-16.6 16.58-16.6s16.58 7.43 16.58 16.6c0 9.15-7.42 16.58-16.58 16.58z"/><path d="M2153.44 2981.7c-17.14 0-31.03-13.9-31.03-31.04s13.9-31.03 31.03-31.03 31.04 13.9 31.04 31.03-13.9 31.04-31.04 31.04zm0-14.46c-9.16 0-16.58-7.42-16.58-16.58 0-9.15 7.42-16.58 16.58-16.58s16.58 7.43 16.58 16.58c0 9.16-7.42 16.58-16.58 16.58z"/><path d="M2139.84 3035.28c-17.14 0-31.04-13.9-31.04-31.04s13.9-31.03 31.04-31.03 31.03 13.9 31.03 31.03-13.9 31.04-31.03 31.04zm0-14.46c-9.16 0-16.58-7.42-16.58-16.58 0-9.15 7.42-16.58 16.58-16.58s16.58 7.43 16.58 16.58c0 9.16-7.42 16.58-16.58 16.58zM1827 2930.7c17.14 0 31.04-13.9 31.04-31.03s-13.9-31.04-31.04-31.04-31.04 13.9-31.04 31.04 13.9 31.03 31.04 31.03zm0-14.45c9.16 0 16.58-7.43 16.58-16.58 0-9.16-7.42-16.6-16.58-16.6s-16.58 7.43-16.58 16.6c0 9.15 7.42 16.58 16.58 16.58z"/><path d="M1846.56 2981.7c17.14 0 31.03-13.9 31.03-31.04s-13.9-31.03-31.03-31.03-31.04 13.9-31.04 31.03 13.9 31.04 31.04 31.04zm0-14.46c9.15 0 16.58-7.42 16.58-16.58 0-9.15-7.43-16.58-16.58-16.58-9.16 0-16.58 7.43-16.58 16.58 0 9.16 7.42 16.58 16.58 16.58z"/><path d="M1860.16 3035.28c17.14 0 31.04-13.9 31.04-31.04s-13.9-31.03-31.04-31.03-31.03 13.9-31.03 31.03 13.9 31.04 31.03 31.04zm0-14.46c9.16 0 16.58-7.42 16.58-16.58 0-9.15-7.42-16.58-16.58-16.58s-16.58 7.43-16.58 16.58c0 9.16 7.42 16.58 16.58 16.58z"/></g><path d="M1716 3071.17c0-32.03 25.97-58 58-58h452c32.03 0 58 25.97 58 58v53.2c0 32.03-25.97 58-58 58h-452c-32.03 0-58-25.97-58-58v-53.2z" class="B J"/><path d="M2068.1 3132.14c2.93 3.05 6.27 5.64 9.86 7.78h-33.73c17.4-10.32 27.5-29.35 27.5-49.9 0-19.95-10.06-38.7-26.84-48.84h41.67c-8.5 6.17-13.97 15.8-13.97 27.1 0 18.25 14 27.72 28.5 32.4l.02.01 1.63.5h.01c4.55 1.4 10.47 3.24 14.5 6.07 2 1.4 3.26 2.86 3.8 4.38.5 1.4.5 3.24-.85 5.75-1.43 2.7-3.55 4.15-6.1 4.8-2.64.67-5.83.47-9.2-.42-6.83-1.8-13.54-6.16-16.5-9.8-.45-.55-1.1-.9-1.82-.92-.72-.04-1.4.24-1.9.74l-16.57 16.87c-.94.96-.95 2.5-.02 3.48zm80.02 0c2.92 3.05 6.26 5.64 9.86 7.78h-20.9c9.15-6.7 14.63-17.3 14.63-29.33 0-9.87-4.04-16.5-10.02-21.28-5.74-4.6-13.28-7.54-20.32-10.27l-.2-.08c-5.47-2.12-10.65-4.13-15.02-6.74-3.16-2.06-4.24-6.1-2.23-9.02 3-4.17 8.1-5.4 13.77-4.38 5.68 1.03 11.22 4.27 14.18 8.04.45.57 1.12.92 1.85.95.72.03 1.43-.25 1.93-.78l16.12-17c.46-.5.7-1.14.7-1.8-.03-.67-.32-1.3-.8-1.76-2.16-1.97-4.47-3.73-6.95-5.27h21.83c-8.58 6.2-13.92 15.8-13.92 27.1 0 18.25 14 27.72 28.5 32.4l.02.01c1.06.33 2.24.66 3.45 1h.02c3.92 1.1 8.18 2.3 11.48 4.22 3.23 1.9 5.05 4.16 5.05 7.33 0 4.34-1.55 6.48-3.54 7.6-2.2 1.25-5.53 1.54-9.5.9-3.9-.63-8.08-2.12-11.7-3.98-3.67-1.88-6.52-4-7.97-5.8-.45-.55-1.1-.9-1.82-.92-.7-.04-1.4.24-1.9.74l-16.57 16.87c-.95.96-.96 2.5-.02 3.48zm83.53-85.7c-2.15-1.97-4.47-3.73-6.94-5.27h7.4c5.2 0 9.4 4.2 9.4 9.4v79.93c0 5.2-4.2 9.4-9.4 9.4h-15.03c9.15-6.7 14.63-17.3 14.63-29.33 0-14.7-10.44-25.32-23.08-29.87-2.03-.77-4.62-1.42-7.2-2.07l-.12-.03c-4.53-1.13-9.24-2.32-12.83-4.27-3.5-1.9-5.43-4.24-5.43-7.56 0-2.87 1.4-4.74 3.63-6.03 2.35-1.36 5.54-1.97 8.52-1.97 6.1 0 12.9 3.28 16.67 8.07.45.57 1.13.92 1.85.95.73.03 1.43-.25 1.93-.78l16.13-17c.46-.5.7-1.14.68-1.8-.02-.67-.3-1.3-.8-1.76zm-460.4-36.63c-24.4 0-44.17 19.77-44.17 44.17v73.12c0 24.4 19.78 44.17 44.17 44.17h457.46c24.4 0 44.16-19.78 44.16-44.17V3054c0-24.4-19.77-44.17-44.16-44.17h-457.46zm-12.8 40.76c0-5.2 4.2-9.4 9.4-9.4h1.75v98.74h-1.75c-5.2 0-9.4-4.2-9.4-9.4v-79.93zm103.84 89.34h-23.45c9.96-5.22 17.44-14.35 17.44-27.56 0-11.4-7.12-20.9-17.13-25.04 7.82-4.6 12.84-12.45 12.84-22.3 0-8.67-3.52-15.42-9.06-20.22-1.6-1.37-3.33-2.57-5.2-3.62h24.55v98.74zm68.14-98.74h48.85c-16.94 10.17-26.62 28.77-26.62 48.84 0 20.3 10.3 39.58 27.46 49.9h-48.6c9.96-5.22 17.44-14.35 17.44-27.56 0-11.4-7.1-20.9-17.12-25.04 7.8-4.6 12.83-12.45 12.83-22.3 0-8.67-3.5-15.42-9.06-20.22-1.58-1.37-3.32-2.57-5.18-3.62zm109.22 48.84c0 16.2-11.5 30.05-27.53 30.05-16.35 0-27.4-14.13-27.4-30.05 0-15.94 11.6-29.46 27.4-29.46 16.08 0 27.53 13.75 27.53 29.46zm-217.07-21.6c0 3.32-1.43 5.4-3.56 6.75-2.28 1.45-5.5 2.14-8.9 2.14h-11.1v-16.6h9.93c3.3 0 6.9.4 9.58 1.65 1.3.6 2.3 1.37 2.96 2.3.65.9 1.1 2.1 1.1 3.76zm3.4 41.57c0 3.74-1.82 6.1-4.63 7.63-2.94 1.63-6.9 2.3-10.63 2.3h-11.7v-18.97h11.56c3.85 0 7.87.45 10.84 1.87 1.45.7 2.56 1.57 3.32 2.67.74 1.08 1.24 2.5 1.24 4.5zm76.84-32.68h-11.12v-16.6h9.93c3.3 0 6.9.4 9.58 1.65 1.3.6 2.3 1.37 2.96 2.3.65.9 1.1 2.1 1.1 3.76 0 3.32-1.42 5.4-3.56 6.75-2.28 1.45-5.5 2.14-8.88 2.14zm.6 42.6h-11.7v-18.97h11.56c3.85 0 7.87.45 10.84 1.87 1.45.7 2.56 1.57 3.32 2.67.74 1.08 1.24 2.5 1.24 4.5 0 3.74-1.82 6.08-4.63 7.63-2.94 1.63-6.9 2.3-10.62 2.3z" fill="#ffe600" class="C D O"/><path d="M1798.45 3240.26L1766 3288c-52.34-55.62-83.3-126-84.5-198 7.86-1.36 13.02-2 20.8-3.68 12.8-3.08 23.2 6.63 29.86 16.42 21.55 31.82 41.24 64.94 61.63 97.5 8.37 13.38 14.67 25.34 4.65 40.02z" class="B N"/><path d="M1678.7 3362.27l-94.77-2.13c-9.85 0-17.43-2.93-23.37-11.38l-71.25-103.97c-4.3-6.63-4.07-15.45.55-21.85 22.73-31.14 49.62-58.87 74.5-88.24 9.5-11.22 20.2-21.64 35.34-24.08 28.27-4.48 57.04-8.18 85-14.4 11.92-2.88 21.6 6.5 27.74 15.57 21.6 31.8 41.2 64.88 61.6 97.43 8 12.7 14.22 23.88 4.68 37.87-22.4 32.88-42.7 68.14-66.9 99.7-7.75 10.43-20.24 15.86-33.12 15.5z" fill="#fbdd11"/><g class="B"><path d="M1615.08 3263.78c2.92 5.98 2.55 15.9-6.53 14.67-9.23-1.4-16.84-9.7-20.16-18-2.58-5.74-1.08-14.2 6.8-13.32 8.88 1.23 16.24 8.86 19.9 16.65zm-14.38 30.64c2.9 5.98 2.55 15.9-6.53 14.67-9.23-1.4-16.84-9.7-20.16-18-2.6-5.73-1.1-14.22 6.8-13.32 8.88 1.2 16.25 8.87 19.9 16.65zm-16.62 48.16c9.07 1.2 9.46-8.7 6.53-14.68-3.65-7.8-11-15.42-19.9-16.65-7.88-.88-9.38 7.6-6.8 13.33 3.33 8.32 10.93 16.57 20.16 18zm52.95-215.48c-4.1 3.93-9.54 15.25.03 16.07 8.35.6 16.76-5.5 21.74-11.65 3.54-4 6.75-12.93-.96-14.26-7.7-1.27-15.84 4.68-20.8 9.84zm-53.16 6.83c-3.16 4.36-4.2 12.15 3.1 12.56 7.9.4 15.68-5.12 20.67-10.7 3.9-4.07 8.3-14.53-.75-15.32-9.1-.83-18.1 6.6-23.03 13.47zm-58.67 65.77c-3.78 3.9-10.13 15.64-.13 16.3 8.04.27 15.67-4.88 20.84-10.63 3.4-3.98 8.62-14-.12-15.32-7.57-1.06-15.76 4.37-20.6 9.64zm81.33-22.4c-8.53-1.06-3.94-10.96-.56-14.87 4.97-5.75 13.38-12.1 21.53-11.05 7.02.8 5.4 8.57 2.4 12.68-4.88 6.87-14.27 14.37-23.36 13.24zm-34.18 34.6c-7.68-4.57 2.77-15.4 6.65-18.74 5.42-4.7 12.44-8.27 18.63-6 6.98 2.2 1.6 11.4-1.3 14.82-4.8 5.5-16.06 14.62-23.97 9.93zm4.8-41.45c3.64-3.9 9.3-14.67.06-15.77-7.3-.87-15.2 4.3-20.02 9.3-3.2 3.23-9.5 11.7-3.8 15.6 7.25 4.96 19.33-4.1 23.77-9.13zm198.66 37.75c-20.48-32.53-40.07-65.67-61.63-97.5-4.06-6-8.75-11.35-15.36-14.7-8.72-4.47-18.45-.82-27.5.63l-71.82 12.02c-16.64 2.92-27.58 14.25-38.1 26.57-24.34 28.6-50.9 56.2-73.04 86.53-5.13 7.06-5.4 16.82-.62 24.14 22.85 35.2 47.1 69.68 71.25 104 3.82 5.44 8.7 9.58 15.23 11.52 3.2.95 6.48.65 9.74.73l94.82 2.1c24.85.33 35.42-17.16 47.53-35.4l54.24-80.63c9.9-14.7 3.63-26.65-4.73-40zm-87.26 42.8c-6.6-1.47-4.1-7.2-.74-11.17 6.32-7.25 16.37-10.92 25.17-14.03 2.85-1 6.9-1.15 8.93-3.64 2.32-3.05 2.6-8 3.04-11.62 1.2-9.35-2.88-19.12.17-28.13a21.945 21.945 0 0 1 5.94-9.13c5.4-4.67 9.74 5.5 11.58 9.15 9.4 18.86 6.76 40.94-8.7 55.7-12.08 11.76-28.76 16.94-45.4 12.87zm-10.96 109.25l-27.56-.77-75.74-2.15c-5.75-1.56-8.98-5.15-12-9.4l-63.16-91.44c-5.27-7.64-15.9-21.68 1.83-22.03 33.47-.65 66.9-2.9 100.35-4.28 21.12-.85 32.12 26.38 41.36 40.83l47 74c5.1 8.42-4 15.46-12.08 15.24zm-119.15-215.73c11.98-13.56 23.35-28.94 42.46-31.94l85.67-14.4c7.17-1.12 9.78 8 3.33 16.6l-58.03 78.16c-10.83 14.67-20.98 30.9-41.22 31.97l-75.6 3.6c-6.46.28-12.78.67-19.23-.02-6.6-.7-2.68-6.57.66-11.15 18.7-25.68 41-49 61.96-72.8zm160.92 67.56c-6.16 9.4-15.67 12.7-25.75 16.74-3.95 1.6-10.5 1.8-11.85 6.67-2.66 8.56-2.98 18.04-1.24 26.8 1.46 7.27-1.34 14.8-6.73 19.78-4.1 3.8-7.9-2.45-9.74-5.6-11.53-19.77-9.1-45.38 8.48-60.92 12-10.93 29.13-15.77 44.88-10.78 3.55 1.2 4.07 4.26 1.95 7.32z"/><path opacity=".3" d="M1657 3255c-58.27 39.07-118.56-25.23-129.64-79.95l33.9-39.8c10.5-12.33 21.5-23.66 38.1-26.57l71.82-12.02c7.92 16.9 9.32 36.36 3.5 54.16 24.78 32.45 16.56 81.33-17.7 104.17z"/></g><path d="M1601.4 3259.9c56.82.05 93-68.1 58.6-115.27 15.9-45.2-18.1-95.4-66.66-96.55-56-1.34-88.37 58.5-82.5 109.13 5.48 47.3 37.52 102.65 90.57 102.7z" class="C D E K"/><g class="B"><path d="M1510.83 3157.2c6.78 58.57 54.37 126.8 125.37 93.8-68.82-8.8-117-125.5-83.1-191.84-5.4 3.84-13.9 8.34-27.6 27.6-12.3 21.73-17.7 46.2-14.66 70.43z" class="G"/><path d="M2395 2818c-115.35 45.22-271 79-395 79s-259.34-26.43-395-79c-7.24 10.54-16.6 26.27-23 37 142 57 275 86 418 86s276-29 418-86c-6.15-10.7-15.93-26.36-23-37z" class="F"/></g><path d="M2500.32 839c42.32-35.85-124.32-76-146.52-139.5-26.8-76.5 395.6 127.1 331.57 261.08-5 10.5-55.43 94-417.6-23.77C2665.92 1066 2967.42 1339.94 2966 1847c-1.1 388.75-350.07 990.8-966.43 996.18-594.62 5.2-966.64-596.22-965.57-996.18 1.32-488.44 432.13-990.94 966-1028.5 319.4-22.45 465.3 50.1 500.32 20.5z" class="C D H O"/><path d="M2565.16 861.34c-29.66 65.16-211.8-40-531.22-17.54C1380.48 889.737 907 1615 1169.36 2202.88c68.14-70.38 151.14-90.38 177.6-99.16 7.94 8.57 17.6 17.67 21.05 21.78-81.37 25.35-175.93 80.4-216.63 156.84-76.27-147.6-117-302.56-116.6-435.33 1.32-488.45 432.22-991 966.1-1028.57 319.4-22.45 464.56 50.1 499.6 20.46 42.18-35.75-124.46-75.9-146.65-139.4-8.57-24.46 28.82-20.27 81.55 1.13-20-2.88-31 1.83-25.55 15.87 19.38 50.4 180.3 90.02 155.35 144.83zm399.34 985.73c-.36 127.74-38.12 278.5-110.54 423.57C2779 2168 2644.73 2127 2631 2127l20-24.5c23.5 5.5 128.62 27.9 187.28 106.2 59.3-132.15 86.52-255.16 86.84-370.86 1.47-524.24-353.62-784.84-657.36-901.02C2665.92 1066 2965.92 1340 2964.5 1847.07z" class="B F"/><path d="M1725 1203.5c-297 0-665 628.5-363.5 918.5-575.5 180 0 779 638.5 779s1214-599 638.5-779c301.5-290-66.5-918.5-363.5-918.5-126.5 0-195.5 58.5-275 116.5-79.5-58-148.5-116.5-275-116.5z" fill="#ffcd98" class="C D"/><g class="B"><path d="M2749.1 1817c-15.7-308.54-265-613.2-481.5-613.2-134.6 0-216.2 82.14-267.6 116.2-41.1-28.05-132.5-116.2-268.4-116.2-255.6 0-478.1 373.2-482.13 622.7C1227 1558 1433.07 1155 1733 1155c156 0 239 75 267 106 28-31 111-106 267-106 297.63 0 503.5 381.5 482.1 662z" class="F"/><path d="M1250.37 1807.4c-7.1 117.45 24.02 230 111.45 314.1-10.42 3.26-20.47 7.66-30.15 11.2 22.33-7.2 43.66-12.28 68.33-16.7-84.54-81.32-133.47-191.77-149.63-308.6zm-101.77 459.27c-135.93 245.26 334.32 633.83 851.4 633.83s993.17-392.85 849.75-637.86C2945.1 2486.74 2490.72 2863 2000 2863c-487.8 0-939.7-371.78-851.4-596.33zM2670.5 2133c-21.76-6.4-44.6-12.37-70.5-17 85.32-82.07 134.37-193.8 150.07-311.86 7.9 118.62-23 232.5-111.25 317.36 11.32 3.54 21.24 7.64 31.68 11.5z" class="G"/><path d="M2616.25 1600.5h-1232.5c-48.96 0-97.36 10.27-142.1 30.14l-211.56 94c-7.33 3.26-12 10.58-11.88 18.6l.38 23.55c.2 12.63 12.45 21.55 24.54 17.87l237.87-72.47c8.9-2.7 17.98-4.8 27.15-6.24-10.8 142.78 75.66 412.56 331.6 412.56 260.5 0 360.48-251.17 349.43-415h21.9c-12 142.12 74 415 331.4 415 259.2 0 359.47-248.65 349.6-412.53 9.1 1.45 18.08 3.52 26.92 6.2l237.87 72.47c12.1 3.68 24.33-5.24 24.54-17.87l.38-23.55c.13-8.02-4.55-15.34-11.88-18.6l-211.56-94c-44.73-19.87-93.14-30.14-142.1-30.14z" class="I"/></g><path d="M2559.7 1974.67c-198.23 161.17-482.38 0-482.38-246.17 93.62 165 294.5 263.6 482.38 246.17zm-702.74 0c-198.23 161.17-482.38 0-482.38-246.17 93.62 165 294.5 263.6 482.38 246.17z" fill="#fff"/><path d="M1785 2099c0 76.35 98.85 169 216.26 168 108.22-.95 213.74-92.55 213.74-167.78 0-152.13-430-154.42-430-.22z" class="B G"/><path d="M1782 2081c0 76.35 100.23 169 219.27 168 109.73-.95 216.73-92.55 216.73-167.78 0-60.53-126.24-113.77-216.73-113-84.02.78-219.27 41.16-219.27 112.78z" fill="#7f6145"/><g class="B"><path d="M1783.58 2067.77c41.76 54.75 124.68 100.94 217.85 100.22 86.2-.68 170.92-47.12 214.1-101.55 1.62 4.86 2.48 9.8 2.48 14.78 0 75.23-107 166.83-216.73 167.78-119.04 1-219.27-91.65-219.27-168 0-4.54.54-8.95 1.58-13.23z" class="J"/><path d="M2831 1337c-382.5 155.5-1115.5 70-1440-247 491.2-444.546 1090.47-282.57 1440 247z" class="F"/></g><g class="C D E"><path d="M2202 915.5c487.05 71.07 827.73-67.38 827.73 123.92 0 346.67-570.23 346.08-857.1 318.77s-857.18-204.7-857.18-510.07c0-287.12 399.5-3.7 886.56 67.38z" class="M"/><path d="M2877 450c32.28 189.224-112 269.5-159.93 633.73-18.33 139.27-448.23 96.76-582.52 76.38-115.05-17.45-534.17-80-517.55-235.1 44.1-411.5-40.6-474.958 44.1-621.9 64.9-112.6 317.9-102.6 655.4-55.6S2859 344.5 2877 450z" fill="#1a1a1a"/><path d="M2752.3 906.54c-120.26 76.385-474.88 50.188-598.66 30.355-100.6-16.1-414.6-91.49-523.66-200.555-1.38 53.528-5.15 115.6-12.98 188.66-16.52 154.14 397.3 216.88 515.36 234.78l2.2.33c134.3 20.38 564.2 62.9 582.52-76.38 8.97-68.15 21.3-126.352 35.23-177.19z" class="L"/></g><path d="M2687.34 428.223c-10.8-70.85-88.74-119.362-222.12-158.2C2713.67 311.537 2861.82 361.035 2877 450c16.35 95.823-12.58 163.707-51.35 254.674-37.8 88.67-84.92 199.27-108.58 379.056-8.17 62.06-98.06 88.02-207.1 95.94 9.54-11.86 15.6-25.56 17.46-41.34 47.92-408.126 192.2-498.077 159.9-710.107z" class="B N"/><path d="M2000.4 2770.5c275 0 572-112.5 663.25-379.44 15.25-42.3-22.1-84.98-67.45-78.53-197.53 28.07-396.8 42.15-596.3 42.15s-398.78-14.1-596.3-42.15c-45.32-6.44-82.16 36-67.46 78.53C1428.4 2658 1725.4 2770.5 2000.4 2770.5z" fill="#3d0c0c"/><path d="M2000.4 2752c150.13.26 310.04-37.45 439.5-119.5-268.92 17.5-631.92 23-877.92 1.4 129.2 81.35 287.7 117.83 438.4 118.1z" fill="#fff"/><path d="M2933.03 2794.23C2757.5 2760 2486.5 2687 2350.5 2592.3c-38.5-26.82-38.72-105.6 39.7-112.08 262.3-21.72 478.3-9.22 641.3-.22 85.26 114.8 122.6 350.3-98.47 314.23z" fill="#b34a31"/><path d="M2812.5 2470.25l-6.5-.25c-52 81.38-74.58 184.27-62.5 280 1.77.52 3.5 1 5.5 1.5-12.56-96.24 10.54-199.78 63.5-281.25zm-194-1.25c-47.82 60.92-75.02 139.48-76.5 217 1 .5 3.34 1.4 5 2 1.12-78.36 29.5-157.96 78.5-219h-7zm-148.78 5.77c-31.7 47.6-50.5 97.84-56.72 154.73 1.6.75 3.35 1.74 5 2.5 6.04-57.92 25.2-109.4 58-157.5l-6.28.27z" fill="#933b2a"/><path d="M2617.5 2479c-89.63 10.15-190 20.2-280 26 3-4.5 11.2-11.4 17-14.5 86-5.77 184.8-24.7 271-21.5-.53.66-6.32 7.5-8 10zm-270 67.3c136 94.7 407 167.7 582.52 201.93 118.27 19.3 162.58-39.12 165.16-115.2 14.87 96.4-20.86 184.27-162.16 161.2C2757.5 2760 2486.5 2687 2350.5 2592.3c-20.93-14.57-30.55-44.5-22.38-69.8 4.34 9.56 10.94 17.93 19.38 23.8z" class="B J"/><path d="M2938 2798.5c-26.4-4.46-69.27-7.8-72.7-39.9-.75-6.94 6.02-13.3 5.22-20.7-1.86-17.2-24.95-15.65-29.05-31.97-3.54-14.3 15.35-19.8 15.1-38.64-.3-22.7-26.86-29.57-24.8-49.5 1.42-13.86 14.63-14.16 17.83-30.6 3.98-20.46-9.86-28.16-3.93-37.8 7.62-12.44 29.5-9.36 38.33-22.58 6.8-10.2 9.14-15.74 14.86-29.88 16.4-40.5 129.82-14.7 155.15-6.44 13.2 110.54-87.15 206.3-116 308z" fill="#eaeaea"/><path d="M2963 2805c-25.5 0-91.5-4.5-86.96-52.08 3.03-31.8-15.18-35.22-19.28-51.54-3.54-14.3 4.68-13.73 4.43-32.58-.3-22.7-16.75-30.5-14.7-50.44 1.42-13.86 11.98-12.34 15.18-28.77 4-20.46-5.6-28.94.32-38.58 7.62-12.45 23.07-3.15 34.16-14.54 11.4-11.7 12.3-25.07 18.03-39.2 6.16-15.2 17.82-11.6 38.8-15.26 11.46-2 23.37-9.15 35.5-9 17 .2 49.42 1.22 65.47 6.47 13.2 110.54-62.12 223.82-90.97 325.53z" fill="#d6d6d6"/><path d="M2984 2813.5c-37.73-6.37-99.88-10.3-97.5-58.5.95-19.3-14.1-34.3-18.2-50.62-3.54-14.3 6.35-14.24 6.17-27.35-.3-22.7-16.43-31.14-14.38-51.08 1.43-13.86 11.04-13.6 14.24-30.03 4-20.46-1.5-26.1 4.43-35.74 7.62-12.44 33.66-18.8 44.75-30.2 11.4-11.7 4.25-17.63 9.97-31.78 5.47-13.5 23.2-7 38.27-12.44 13.94-5.03 34.78-11.1 50.25-10.77 18 .4 57.62 3.14 69 12 13.2 110.54-78.15 224.8-107 326.5z" fill="#c1c1c1"/><path d="M3206 2717c45-125.5-31-241-150.5-241-15 0-16.77 6.92-29 9.1-15.7 2.77-25.5-6.6-36.5 4.4-12 12-26.1 5.04-38.93 15.13-6.48 5.14-6.68 18.4-15.13 29.9-7.48 10.17-19.5 4.4-23.8 11.55-5.36 8.92 5.17 18.7-3.32 24.85-23.9 17.25-27.52 28.48-19.78 51.72 3 8.98-5.45 17.87-6.96 26.28-1.87 10.53 3.77 18.63 5.9 31.76 2.7 16.85-8.7 20.4-3.22 31.93 3.58 7.58 12.37 15.33 14.07 26.4 1.7 11-4.3 19 0 28.5 34.83 76.78 262.2 75 307.2-50.5z" fill="#181818"/><path d="M2950.56 2808.1c-24.28-4.57-47.15-11.5-68.33-24.3-173.55-37.43-408.27-105.52-531.72-191.5-38.5-26.82-38.72-105.6 39.7-112.08 217.3-18 402.8-12.5 552.73-4.97 9.8-.75 20.46-.55 31.2.26 25.43-7.87 55.25.5 81.37.5 119.5 0 195.5 115.5 150.5 241-34.4 95.94-175.38 119.58-255.44 91.1z" class="C D"/><path d="M2608.75 2469.5c16.93-27.2 29.52-55.13 37.2-83.3 8.9-32.67-14.7-60.04-47.04-55.45-396.36 55.5-801.44 56.2-1197.8.01-32.4-4.56-55.98 22.77-47.08 55.44 7.67 28.16 20.25 56.1 37.18 83.3 280.78 38.5 848.28 50.5 1217.53 0z" fill="#fff"/><path d="M2517.23 2480.38c31.6-3.25 62.18-6.86 91.52-10.88 16.93-27.18 29.52-55.13 37.2-83.3 8.82-32.36-14.26-59.53-46.15-55.56-6.18.76-12.34 1.7-18.5 2.56-15.04 50.4-36 99.92-64.06 147.17zm-1126-10.88c27.95 3.84 58.74 7.4 91.9 10.68-28.05-47.14-48.95-96.58-63.9-146.88-9.6-1.32-19.54-3.7-29.27-2.84-26.4 2.35-43.74 26.98-35.9 55.75 7.67 28.17 20.25 56.1 37.18 83.3zm875.14 242.5c60.87-18.3 119.9-45.5 173.56-79.5l-57.85 3.5c-34.23 27.6-72.66 53.14-115.7 76zm-644.86-73.53c33.88 27 71.88 52 114.4 74.33-60.96-18.1-120.12-45.02-173.9-78.9l59.5 4.56z" class="B G"/><path d="M3030.65 2774.97c7.06-1.7 10.14-.15 11.54-2.28s-.25-6.43-3.1-8.5c-7.67-5.64-35.3 9.52-29.06 16.38 2.43 3.1 17.25-4.8 20.63-5.6zm-17.02-126.27c5.5-4.76 8.93-4.8 9.2-7.33.26-2.54-3.2-5.6-6.7-6.12-9.4-1.48-26.95 24.7-18.25 27.9 3.6 1.64 13.1-12.2 15.74-14.46zm50.8-125.8c-7.02-1.88-17.33-11-19.58-9.8s-1 11.24.5 14.42c4.05 8.6 41.64 8.75 39.42-.25-.65-3.9-17-3.48-20.35-4.38zm24.2 241.73c3.7 6.24 3.13 9.63 5.58 10.34 2.45.72 12.47-13.4 13.62-16.73 3.13-8.98-25.9-19.66-30.62-11.67-2.26 3.23 9.65 15.06 11.42 18.06zm18.5-82.17c7.24-.62 10.04 1.37 11.75-.52 1.7-1.9.27-10.14-2.24-12.62-6.74-6.72-39.94 6.44-34.8 14.16 1.93 3.43 21.8-.73 25.28-1.02zm-20.34-53.56c25.14 3.6 71.14-19.84 27.97-24.75-9.46-1.08-34.02-9.2-36.34 14.67-.6 6.2 4.93 9.6 8.37 10.08zm-120.48 99.24c-13.36 3.2-31.4 12.33-11.9 26.47 7.66 5.64 38.68-23.06 32.44-29.92-2.43-3.1-17.14 2.63-20.53 3.45zm-29.74-44.04c-4.87-5.38-4.98-8.83-7.53-9.04-2.54-.2-5.53 3.3-6 6.8-1.28 9.43 25.27 26.43 28.3 17.67 1.57-3.62-12.46-12.85-14.8-15.43zm13.12-96.34c3.58.93 19.15-7.83 18.4-11.75-1.2-6.5-21.28-4.62-23.93 1.22-1.72 3.85 1.47 9.46 5.52 10.53zm223.88 77.82c3.58.92 19.16-7.83 18.4-11.76-1.2-6.5-21.27-4.6-23.93 1.22-1.72 3.85 1.47 9.47 5.52 10.54zm-48.03-118.08c3.58.93 32.03.56 31.28-3.36-1.2-6.5-37.28-20-39.93-14.17-1.73 3.85 4.6 16.46 8.65 17.53zm26.32 35.75c1.08 3.53 33.63 35.13 36.6 32.45 4.9-4.42-24.12-43.45-30.5-42.66-4.18.55-7.3 6.2-6.1 10.2zm-143.35 19.25c3.6.85 47.35-11.18 46.53-15.1-1.33-6.47-49.72-1.23-52.26 4.66-1.64 3.88 1.66 9.43 5.73 10.43zm-22.37-57.92c10.37-6.08 27.6-5 26.84-8.93-1.2-6.5-36.7.6-38.08 6.85-2.06 9.27 7.25 4.42 11.24 2.08zm-19.63 100.52c4.23-10.43 6.14-15.4 3.82-19.25-30.15-28.04-21.43 62.77-3.82 19.25zm175.2 103.92c2.47 5.15 5-10.27 7.77-16.86 1.73-4.12 12.32-14.46 10.32-17.27-10.7-14.97-22.6 24.73-18.1 34.13zm-114.76-35.32c3.58.92 19.15-1.88 18.4-5.8-1.2-6.5-18.4-20.83-23.93-4.73-1.72 3.85 1.47 9.47 5.52 10.54zm28.1-34.7c3.57.92 10.12-26.38 9.38-30.3-1.2-6.5-14.77 11.96-17.42 17.8-1.72 3.85 4 11.43 8.04 12.5z" fill="#b5482c"/><path d="M2258.9 2779.73c-4.54 1-7.5 5.2-7.18 9.84l3.42 52.95c.12 1.73.77 3.3 1.8 4.55 4.8 21.26-17.65 76.5 1.73 103-5.28 4.04-6.9 9.97-1.22 14.38-5.23 8-19.45 25.5-44.75 27.14-5.5.35-9.7 5.1-9.34 10.62l1.75 26.94c.3 4.83 4 8.64 8.62 9.27l16.37 252.8c-4.6 3.07-7.47 8.44-7.1 14.35l1.6 24.94c.57 8.82 8.2 15.5 17 14.94l163.66-10.6c8.82-.57 15.5-8.18 14.93-17l-1.6-24.95c-.38-5.9-3.93-10.86-8.88-13.3l-16.37-252.8c4.5-1.22 7.66-5.47 7.35-10.3l-1.75-26.94c-.35-5.52-5.1-9.7-10.62-9.34-25.3 1.64-41.66-13.86-47.88-21.13 5.07-5.1 2.7-10.8-3.07-14.1 15.8-28.8-13.57-80.66-11.57-102.36.86-1.37 1.3-3 1.2-4.74l-3.43-52.96c-.3-4.63-3.76-8.42-8.4-8.82-18.76-1.6-37.87-.38-56.27 3.64z" fill="#eab342"/><path d="M2394.25 3040.95l-179.63 11.63 15 231.5 179.63-11.63-15-231.5z" fill="#1e1e1e"/><path d="M2214.62 3052.58l37.92-2.46 15 231.52-37.93 2.45-15-231.5z" fill="#fff" class="F"/><path d="M2341.9 2919c-1.8-27.57-17.58-60.28-16.1-76.38.85-1.37 1.3-3 1.18-4.74l-3.42-52.96c-.3-4.63-3.77-8.42-8.4-8.82-18.76-1.6-37.87-.38-56.27 3.64-4.54 1-7.48 5.2-7.18 9.84l3.43 52.95c.1 1.73.76 3.3 1.8 4.55 3.55 15.77-7.9 50.25-6.1 77.82 30.04-5.7 60.54-7.68 91.07-5.9z" fill="#1e1e1e"/><path d="M2276.93 2776.7l4.15 64.13c.1 1.73.77 3.3 1.8 4.55 3.46 15.34-7.27 48.37-6.22 75.53-8.64 1.02-17.26 2.34-25.83 3.97-1.78-27.57 9.66-62.05 6.1-77.82-1.02-1.25-1.67-2.82-1.8-4.55l-3.43-52.95c-.3-4.64 2.65-8.85 7.2-9.84 5.95-1.3 11.97-2.3 18.04-3.02z" fill="#fff" class="F"/><path d="M2374.33 3336.85l30.93-2c8.82-.57 15.5-8.18 14.94-17l-1.62-24.95c-.38-5.9-3.93-10.86-8.88-13.3l-16.37-252.8c4.5-1.22 7.66-5.47 7.35-10.3l-1.74-26.94c-.36-5.52-5.12-9.7-10.63-9.34-25.3 1.64-41.66-13.86-47.88-21.13 5.07-5.1 2.7-10.8-3.07-14.1 15.8-28.8-13.57-80.66-11.56-102.36.85-1.37 1.3-3 1.18-4.74l-3.42-52.96c-.3-4.63-3.83-9.42-8.46-9.82-6.75-.58-15.3-1.1-31.1-.58 5.82.13 8.32 7.77 8.62 12.4l3.43 52.95c.1 1.74-.34 3.37-1.2 4.74-2 21.7 27.37 73.58 11.57 102.36 5.76 3.32 8.14 9 3.07 14.1 6.22 7.27 22.57 22.77 47.88 21.14 5.5-.36 10.26 3.82 10.62 9.33l1.75 26.94c.3 4.83-2.86 9.08-7.35 10.3l16.37 252.8c4.95 2.45 8.5 7.4 8.87 13.3l1.62 24.95c.57 8.82-6.1 16.43-14.93 17z" class="B N"/><g class="C D"><path d="M2326.98 2837.87c.12 1.73-.33 3.37-1.2 4.74-2 21.7 27.38 73.57 11.57 102.36 5.76 3.3 8.14 9 3.07 14.1 6.22 7.27 22.58 22.77 47.88 21.13 5.5-.35 10.27 3.82 10.62 9.34l1.75 26.94c.3 4.83-2.86 9.08-7.35 10.3l16.37 252.8c4.95 2.45 8.5 7.4 8.88 13.3l1.6 24.95c.58 8.82-6.1 16.43-14.93 17l-163.66 10.6c-8.8.57-16.43-6.12-17-14.94l-1.6-24.94c-.38-5.9 2.5-11.28 7.1-14.35l-16.37-252.8c-4.62-.63-8.3-4.44-8.62-9.27l-1.75-26.94c-.35-5.5 3.83-10.27 9.34-10.62 25.3-1.64 39.52-19.13 44.75-27.14-5.7-4.4-4.06-10.34 1.22-14.38-19.38-26.5 3.06-81.73-1.73-103-1.02-1.25-1.67-2.82-1.8-4.55l-3.42-52.95c-.3-4.64 2.64-8.85 7.18-9.84 18.4-4.02 37.5-5.25 56.27-3.64 4.63.4 8.1 4.2 8.4 8.82l3.43 52.96zm0 0z"/><path d="M2398.6 3259.9c-56.82.05-93-68.1-58.6-115.27-15.92-45.2 18.08-95.4 66.66-96.55 56-1.34 88.36 58.5 82.5 109.13-5.48 47.3-37.53 102.65-90.57 102.7z" class="E K"/></g><path d="M2489.17 3157.2c-6.78 58.57-54.37 126.8-125.37 93.8 68.82-8.8 117-125.5 83.1-191.84 5.4 3.84 13.9 8.34 27.6 27.6 12.3 21.73 17.7 46.2 14.66 70.43z" class="B G"/></svg>