<svg width="4000" height="4000" viewBox="0 0 4000 4000" fill="none" xmlns="http://www.w3.org/2000/svg">
<path d="M2275.11 3290.64C2224.34 3283.22 2159.95 3258.37 2078.25 3214.64C2066.38 3208.29 2061.59 3192.79 2068 3180.8C2074.35 3168.93 2089.85 3164.13 2101.84 3170.55C2177.29 3210.92 2238.02 3234.67 2282.34 3241.15C2311.27 3245.38 2332.09 3242.15 2344.22 3231.51C2357.83 3219.59 2356.61 3198.51 2353.05 3159.12C2348.88 3113 2343.69 3055.59 2372.83 2989.61C2416.83 2889.89 2526.46 2795.08 2641.92 2812.91C2715.25 2824.26 2785.52 2879.09 2801.65 2953.5C2815.38 3016.86 2795.63 3103.67 2728.12 3127.93C2683.35 3143.92 2632.2 3125.56 2597.28 3095.85C2586.84 3087.17 2585.33 3070.85 2594.22 3060.41C2603.03 3050.07 2619.37 3048.77 2629.7 3057.79C2630.13 3058.15 2673.36 3094.44 2711.19 3080.85C2754.03 3065.47 2760.96 3001.9 2752.75 2964.07C2741 2909.84 2687.15 2870.49 2634.24 2862.3C2541.4 2847.96 2453.44 2930.79 2418.52 3009.79C2394.61 3063.95 2398.96 3112.11 2402.8 3154.6C2406.8 3198.44 2410.51 3239.85 2377.13 3269.1C2349.47 3293.49 2310.06 3295.9 2275.11 3290.64Z" fill="#FFCF59" stroke="#333333" stroke-width="5" stroke-miterlimit="10"/>
<path d="M2786.65 2965.53C2797.71 3016.55 2787.83 3080.08 2748.83 3117.61C2800.24 3083.91 2813.9 3010.05 2801.65 2953.53C2785.52 2879.12 2715.26 2824.29 2641.92 2812.93C2575.66 2802.7 2510.14 2831.49 2460.38 2873.75C2574.5 2793 2753.67 2813.39 2786.65 2965.53Z" fill="black" fill-opacity="0.2"/>
<path d="M2717.62 3078.06C2690.59 3109.51 2642.03 3093.32 2614.73 3069.83C2611.59 3067.15 2607.83 3065.29 2603.79 3064.42C2599.76 3063.55 2595.57 3063.69 2591.6 3064.83C2595.58 3057.53 2603.24 3052.6 2611.53 3051.93C2618.13 3051.4 2624.68 3053.52 2629.73 3057.82C2651.8 3077.32 2689.57 3092.99 2717.62 3078.06Z" fill="black" fill-opacity="0.2"/>
<path d="M2073.5 3173.5C2077 3170.5 2089 3164.5 2096.5 3168C2103.48 3171.26 2111.84 3175.39 2121.23 3180.03C2170.65 3204.44 2248.7 3243 2305 3243C2355 3243 2359.5 3218 2352.5 3152C2353.35 3155.82 2354.42 3160.03 2355.56 3164.51C2365.18 3202.26 2379.65 3259 2305 3259C2223.5 3259 2096.21 3188.43 2073.5 3173.5Z" fill="black" fill-opacity="0.2"/>
<path d="M1959.37 3446.51C1964.37 3359.43 1986.77 3292.08 2006.54 3239.7C2026.31 3187.32 2048.96 3095 1963.98 3073.68C1842.48 3043.19 1775.67 3327.8 1770.68 3414.62C1767.75 3465.7 1807.5 3524.95 1859.08 3527.91C1906.56 3530.22 1956.53 3496.12 1959.37 3446.51Z" fill="#FFCF59" stroke="#333333" stroke-width="5" stroke-miterlimit="10"/>
<path d="M1769.48 3414.5C1820.98 3407.5 1917.48 3407.5 1957.98 3448.5C1958.32 3445.41 1959.42 3436.56 1959.64 3433.46C1917.48 3396.5 1821.48 3394 1771.62 3401C1771.36 3404.3 1769.76 3411.13 1769.48 3414.5Z" fill="black" fill-opacity="0.15"/>
<path d="M1785.48 3325C1833.24 3369.29 1894.36 3394.13 1963.48 3403.5C1964.06 3398.49 1965.29 3391.32 1965.98 3386.5C1897.38 3377.62 1837.78 3348.9 1789.98 3305.5C1787.98 3311.5 1786.36 3320.77 1785.48 3325Z" fill="black" fill-opacity="0.15"/>
<path d="M2040.63 3446.51C2035.63 3359.43 2013.23 3292.08 1993.46 3239.7C1973.69 3187.32 1951.04 3095 2036.02 3073.68C2157.52 3043.19 2224.33 3327.8 2229.32 3414.62C2232.25 3465.7 2192.5 3524.95 2140.92 3527.91C2093.44 3530.22 2043.47 3496.12 2040.63 3446.51Z" fill="#FFCF59" stroke="#333333" stroke-width="5" stroke-miterlimit="10"/>
<path d="M2230.52 3414.5C2179.02 3407.5 2082.52 3407.5 2042.02 3448.5C2041.68 3445.41 2040.58 3436.56 2040.36 3433.46C2082.52 3396.5 2178.52 3394 2228.38 3401C2228.64 3404.3 2230.24 3411.13 2230.52 3414.5Z" fill="black" fill-opacity="0.15"/>
<path d="M2214.52 3325C2166.76 3369.29 2105.64 3394.13 2036.52 3403.5C2035.94 3398.49 2034.71 3391.32 2034.02 3386.5C2102.62 3377.62 2162.22 3348.9 2210.02 3305.5C2212.02 3311.5 2213.64 3320.77 2214.52 3325Z" fill="black" fill-opacity="0.15"/>
<path d="M1910 3556C1942 3556 1973.09 3532.4 1976.7 3499.86C1985.81 3417.65 1882.35 3410.18 1826.03 3408.94C1768.93 3407.69 1672 3418.5 1655.01 3481.21C1640.16 3536 1691.5 3556 1728 3556C1764.5 3556 1777 3543.85 1820.98 3543.85C1859.39 3543.85 1878 3556 1910 3556Z" fill="#F7C394" stroke="#333333" stroke-width="5" stroke-miterlimit="10"/>
<path d="M1909 3534C1877 3534 1858.39 3521.85 1819.98 3521.85C1776 3521.85 1763.5 3534 1727 3534C1698.61 3534 1661.25 3521.9 1653.03 3490.74C1646.3 3538.34 1693.7 3556 1728 3556C1764.5 3556 1777 3543.85 1820.98 3543.85C1859.39 3543.85 1878 3556 1910 3556C1952.86 3556 1983 3521.85 1975.91 3475.74C1972.94 3509.2 1941.87 3534 1909 3534Z" fill="black" fill-opacity="0.1"/>
<path d="M2090 3556C2058 3556 2026.91 3532.4 2023.3 3499.86C2014.19 3417.65 2117.65 3410.18 2173.97 3408.94C2231.07 3407.69 2328 3418.5 2344.99 3481.21C2359.84 3536 2308.5 3556 2272 3556C2235.5 3556 2223 3543.85 2179.02 3543.85C2140.6 3543.85 2122 3556 2090 3556Z" fill="#F7C394" stroke="#333333" stroke-width="5" stroke-miterlimit="10"/>
<path d="M2091 3534C2123 3534 2141.61 3521.85 2180.02 3521.85C2224 3521.85 2236.5 3534 2273 3534C2301.39 3534 2338.75 3521.9 2346.97 3490.74C2353.7 3538.34 2306.3 3556 2272 3556C2235.5 3556 2223 3543.85 2179.02 3543.85C2140.61 3543.85 2122 3556 2090 3556C2047.14 3556 2017 3521.85 2024.09 3475.74C2027.06 3509.2 2058.13 3534 2091 3534Z" fill="black" fill-opacity="0.1"/>
<path d="M1587 3147C1623.5 3147 1652.66 3114.42 1649.04 3078.58C1643.62 3015.06 1667.66 2946.39 1714.99 2880.19C1758.05 2819.94 1804.2 2786.93 1768.7 2748C1733.2 2709.06 1653.14 2751.92 1613.3 2807.5C1547.59 2899.42 1516.11 2996.61 1524.67 3091.18C1527.86 3122.65 1550.5 3147 1587 3147Z" fill="#FFCF59" stroke="#333333" stroke-width="5" stroke-miterlimit="10"/>
<path d="M1553.09 3059.16C1552.67 2946.89 1642.7 2781.5 1748.2 2735C1618.2 2714 1503.2 2968.5 1525.49 3086.77C1532.7 3075 1545.2 3063.5 1553.09 3059.16Z" fill="black" fill-opacity="0.15"/>
<path d="M2413 3147C2376.5 3147 2347.34 3114.42 2350.96 3078.58C2356.38 3015.06 2332.34 2946.39 2285.01 2880.19C2241.95 2819.94 2195.8 2786.93 2231.3 2748C2266.8 2709.06 2346.86 2751.92 2386.7 2807.5C2452.41 2899.42 2483.89 2996.61 2475.33 3091.18C2472.14 3122.65 2449.5 3147 2413 3147Z" fill="#FFCF59" stroke="#333333" stroke-width="5" stroke-miterlimit="10"/>
<path d="M2446.91 3059.16C2447.33 2946.89 2357.3 2781.5 2251.8 2735C2381.8 2714 2496.8 2968.5 2474.51 3086.77C2467.3 3075 2454.8 3063.5 2446.91 3059.16Z" fill="black" fill-opacity="0.15"/>
<path d="M2000 2548C2154 2548 2220 2683 2260 2794C2300 2905 2318 3014 2318 3086C2318 3238 2179.32 3391.46 2000 3393C1824.47 3394.51 1682 3238 1682 3086C1682 3014 1699.7 2904.5 1740 2794C1780 2683 1846 2548 2000 2548Z" fill="#FFCF59" stroke="#333333" stroke-width="5" stroke-miterlimit="10"/>
<path d="M2000 3393C1824.33 3394.59 1670 3236 1682 3056C1692 3204 1827.15 3344.48 2000 3343C2172.85 3341.52 2308 3204 2318 3056C2330 3236 2175.67 3391.41 2000 3393Z" fill="black" fill-opacity="0.15"/>
<path d="M2000 2672C2104 2672 2160 2740 2174 2800C2208.49 2947.82 2238 3074 2178 3150C2118 3226 2043.05 3232 2000 3232C1952.45 3232 1882 3226 1822 3150C1762 3074 1789.56 2956.17 1826 2800C1840 2740 1896 2672 2000 2672Z" fill="#F7C394" stroke="#333333" stroke-width="5" stroke-miterlimit="10"/>
<path d="M2000 3232C1864 3232 1776 3138 1787 3016C1791 3131 1883 3206 2000 3206C2117 3206 2209 3131 2213 3016C2224 3138 2136 3232 2000 3232Z" fill="black" fill-opacity="0.1"/>
<path d="M3133.19 1832.12C3244.29 1934.12 3199.51 2141.41 3124.1 2259.28C3016.64 2427.28 2770.63 2533.03 2644.64 2443.65C2513.06 2350.3 2530.24 2056.73 2683.84 1904.33C2798.52 1790.55 3018.29 1726.64 3133.19 1832.12Z" fill="#F7C394" stroke="#333333" stroke-width="5" stroke-miterlimit="10"/>
<path d="M3003.49 1952.22C3069.49 2020.41 3033.59 2148.9 2981.84 2220.1C2908.09 2321.55 2749.67 2378.79 2673.9 2317.96C2594.76 2254.43 2616.51 2070.74 2718.65 1980.78C2794.91 1913.62 2935.29 1881.7 3003.49 1952.22Z" fill="#FFC9A1"/>
<path d="M3124.1 2259.28C3063.41 2354.13 2929 2462.5 2777.5 2476C2883.86 2451 3037.51 2342.15 3084.14 2269.28C3159.55 2151.41 3199.5 1930.31 3093.23 1842.12C3060.82 1815.23 2978.5 1777 2865.5 1797C3003.5 1754.5 3088.29 1790.87 3133.23 1832.12C3244.29 1934.11 3199.51 2141.41 3124.1 2259.28Z" fill="black" fill-opacity="0.1"/>
<path d="M866.818 1832.12C755.718 1934.12 800.498 2141.41 875.908 2259.28C983.368 2427.28 1229.38 2533.03 1355.37 2443.65C1486.95 2350.3 1469.77 2056.73 1316.17 1904.33C1201.49 1790.55 981.718 1726.64 866.818 1832.12Z" fill="#F7C394" stroke="#333333" stroke-width="5" stroke-miterlimit="10"/>
<path d="M996.518 1952.22C930.518 2020.41 966.418 2148.9 1018.17 2220.1C1091.92 2321.55 1250.34 2378.79 1326.11 2317.96C1405.25 2254.43 1383.5 2070.74 1281.36 1980.78C1205.1 1913.62 1064.72 1881.7 996.518 1952.22Z" fill="#FFC9A1"/>
<path d="M875.908 2259.28C936.598 2354.13 1071.01 2462.5 1222.51 2476C1116.15 2451 962.491 2342.15 915.868 2269.28C840.458 2151.41 800.508 1930.31 906.778 1842.12C939.187 1815.23 1021.51 1777 1134.51 1797C996.508 1754.5 911.718 1790.87 866.778 1832.12C755.718 1934.11 800.498 2141.41 875.908 2259.28Z" fill="black" fill-opacity="0.1"/>
<path d="M2456.64 2931.88C2445.41 2940.93 2367.5 2980 2331.15 2973.76C2320 2942 2309.5 2925 2298 2909C2322 2986 2342.5 3127.5 2293 3210C2232.2 3269.77 2109 3300 2000 3300C1891 3300 1767.8 3269.77 1707 3210C1667 3147 1667 3029.5 1702 2909C1692 2921 1684.72 2931.88 1668.85 2973.76C1625 2973.76 1573.77 2958.53 1541.36 2935.88C1562 2871.5 1594 2830 1604.22 2819C1736.28 2870.39 1856.5 2898.13 2000 2898.13C2143.5 2898.13 2284.48 2868.13 2398.59 2823.13C2405.71 2834 2443 2880.5 2456.64 2931.88Z" fill="#DE5F5F" stroke="#333333" stroke-width="5" stroke-linecap="round" stroke-linejoin="round"/>
<path fill-rule="evenodd" clip-rule="evenodd" d="M2231.23 2871.5C2256.56 2866.21 2281.34 2860.14 2305.39 2853.39L2205.03 3067.62L2148.38 3060.46L2133.72 2985.46L2100.87 3054.46L2044.21 3047.3L2012.43 2895.11C2033.03 2894.98 2053.58 2894.24 2073.99 2892.92L2083.22 2994.3L2125.4 2888.4C2138.49 2886.94 2151.5 2885.26 2164.41 2883.36L2180.71 3007.36L2231.23 2871.5ZM2190.6 3268.15C2135.77 3286.66 2072.29 3296.3 2012.58 3296.96L2040.14 3078.86L2137.36 3091.15C2175.01 3095.91 2202.21 3121.62 2197.17 3161.46C2194.26 3184.49 2182.91 3197.91 2166.5 3204.37C2184.81 3215.23 2195.57 3232.92 2192.25 3259.24C2191.85 3262.35 2191.3 3265.32 2190.6 3268.15ZM2119.38 3177.62C2129.61 3178.92 2139.22 3170.48 2140.47 3160.61C2141.76 3150.37 2134.51 3140.18 2124.27 3138.88L2089.92 3134.54L2085.02 3173.28L2119.38 3177.62ZM2074.49 3256.62L2115.79 3261.83C2126.76 3263.22 2135.95 3255.1 2137.25 3244.87C2138.49 3235 2131.65 3224.48 2120.69 3223.09L2079.39 3217.87L2074.49 3256.62Z" fill="#B53333"/>
<path d="M2457 2932C2423.5 2952 2374.5 2975 2331.5 2974C2325 2952 2303.36 2914.78 2298.5 2907C2315.86 2918.29 2324.11 2936.83 2332.46 2954.91C2373.66 2957.46 2428.5 2931.5 2450.5 2911.5C2452.5 2915.5 2456 2926.5 2457 2932Z" fill="black" fill-opacity="0.15"/>
<path d="M2320 3029.86C2330.5 3127 2310.22 3184.75 2291.46 3211.7C2206.5 3284.5 2083.68 3299.27 2000 3300C1881.67 3301 1767.06 3268.34 1706.26 3208.57C1679 3173 1675.31 3094.69 1676.19 3046.66C1676.95 3089.77 1687.08 3147.7 1715.5 3184C1762.3 3243.77 1881.67 3272.04 2000 3271C2129.24 3269.88 2245.61 3245.64 2291.34 3177.89C2319.24 3136.55 2319.28 3077.14 2320 3029.86Z" fill="black" fill-opacity="0.15"/>
<path d="M1669 2974C1626 2975 1575.5 2956 1542 2936C1542.5 2931 1548.5 2917 1550 2914.5C1572 2934.5 1626.84 2957.46 1668.04 2954.91C1674 2942 1682 2920 1702 2907C1697.14 2914.78 1675.5 2952 1669 2974Z" fill="black" fill-opacity="0.15"/>
<path d="M2456.64 2931.88C2445.41 2940.93 2367.5 2980 2331.15 2973.76C2320 2942 2309.5 2925 2298 2909C2322 2986 2342.5 3127.5 2293 3210C2232.2 3269.77 2109 3300 2000 3300C1891 3300 1767.8 3269.77 1707 3210C1667 3147 1667 3029.5 1702 2909C1692 2921 1684.72 2931.88 1668.85 2973.76C1625 2973.76 1573.77 2958.53 1541.36 2935.88C1562 2871.5 1594 2830 1604.22 2819C1736.28 2870.39 1856.5 2898.13 2000 2898.13C2143.5 2898.13 2284.48 2868.13 2398.59 2823.13C2405.71 2834 2443 2880.5 2456.64 2931.88Z" stroke="#333333" stroke-width="5" stroke-linecap="round" stroke-linejoin="round"/>
<path d="M2395 2818C2279.65 2863.22 2124 2897 2000 2897C1876 2897 1740.66 2870.57 1605 2818C1597.76 2828.54 1588.39 2844.27 1582 2855C1724 2912 1857 2941 2000 2941C2143 2941 2276 2912 2418 2855C2411.85 2844.3 2402.07 2828.64 2395 2818Z" fill="black" fill-opacity="0.15"/>
<path d="M2500.32 839.001C2542.64 803.151 2376 763.001 2353.8 699.511C2327 623.001 2749.39 826.611 2685.37 960.591C2680.37 971.101 2629.94 1054.59 2267.76 936.821C2665.92 1066 2967.42 1339.94 2966 1847C2964.91 2235.75 2615.93 2837.81 1999.57 2843.18C1404.95 2848.37 1032.93 2246.96 1034 1847C1035.32 1358.56 1466.13 856.061 2000 818.501C2319.41 796.051 2465.29 868.601 2500.32 839.001Z" fill="#FFCF59" stroke="#333333" stroke-width="5" stroke-linecap="round" stroke-linejoin="round"/>
<path d="M2565.16 861.34C2535.5 926.5 2353.35 821.34 2033.94 843.8C1380.48 889.738 907 1615 1169.36 2202.88C1237.5 2132.5 1320.5 2112.5 1346.95 2103.72C1354.89 2112.29 1364.55 2121.39 1368 2125.5C1286.63 2150.85 1192.07 2205.91 1151.37 2282.34C1075.1 2134.74 1034.37 1979.78 1034.78 1847.01C1036.1 1358.56 1467 856.01 2000.87 818.44C2320.28 795.99 2465.43 868.54 2500.46 838.9C2542.64 803.15 2376 763 2353.81 699.51C2345.24 675.05 2382.63 679.24 2435.36 700.64C2415.36 697.76 2404.36 702.47 2409.81 716.51C2429.19 766.9 2590.11 806.531 2565.16 861.34Z" fill="black" fill-opacity="0.14"/>
<path d="M2964.5 1847.07C2964.14 1974.81 2926.38 2125.58 2853.96 2270.64C2779 2168 2644.73 2127 2631 2127C2635 2122 2647 2107.3 2651 2102.5C2674.5 2108 2779.62 2130.41 2838.28 2208.7C2897.58 2076.55 2924.8 1953.54 2925.12 1837.84C2926.59 1313.6 2571.5 1053 2267.76 936.82C2665.92 1066 2965.92 1340 2964.5 1847.07Z" fill="black" fill-opacity="0.14"/>
<path d="M1725 1203.5C1428 1203.5 1060 1832 1361.5 2122C786 2302 1361.5 2901 2000 2901C2638.5 2901 3214 2302 2638.5 2122C2940 1832 2572 1203.5 2275 1203.5C2148.5 1203.5 2079.49 1262 2000 1320C1920.5 1262 1851.5 1203.5 1725 1203.5Z" fill="#FFCD98" stroke="#333333" stroke-width="5"/>
<path d="M2749.1 1817C2733.4 1508.46 2484.1 1203.81 2267.6 1203.81C2133 1203.81 2051.4 1285.95 2000 1320C1958.9 1291.95 1867.5 1203.81 1731.6 1203.81C1476 1203.81 1253.5 1577 1249.47 1826.52C1227 1558 1433.07 1155 1733 1155C1889 1155 1972 1230 2000 1261C2028 1230 2111 1155 2267 1155C2564.63 1155 2770.5 1536.5 2749.1 1817Z" fill="black" fill-opacity="0.14"/>
<path d="M1148.6 2266.67C1012.68 2511.93 1482.92 2900.5 2000 2900.5C2517.08 2900.5 2993.17 2507.65 2849.75 2262.64C2945.11 2486.75 2490.72 2863 2000 2863C1512.21 2863 1060.31 2491.22 1148.6 2266.67Z" fill="black" fill-opacity="0.1"/>
<path d="M1250.37 1807.39C1243.26 1924.84 1274.39 2037.4 1361.82 2121.5C1351.4 2124.76 1341.35 2129.16 1331.67 2132.69C1354 2125.5 1375.33 2120.41 1400 2116C1315.46 2034.68 1266.53 1924.23 1250.37 1807.39Z" fill="black" fill-opacity="0.1"/>
<path d="M2670.5 2133C2648.74 2126.59 2625.9 2120.63 2600 2116C2685.32 2033.93 2734.37 1922.19 2750.07 1804.14C2757.96 1922.76 2727.06 2036.63 2638.82 2121.5C2650.14 2125.04 2660.06 2129.14 2670.5 2133Z" fill="black" fill-opacity="0.1"/>
<path d="M2000.41 2770.5C2275.41 2770.5 2572.41 2658 2663.66 2391.06C2678.91 2348.76 2641.57 2306.08 2596.21 2312.53C2398.68 2340.6 2199.42 2354.68 1999.91 2354.68C1800.4 2354.68 1601.13 2340.59 1403.6 2312.53C1358.28 2306.09 1321.44 2348.54 1336.14 2391.06C1428.41 2658 1725.41 2770.5 2000.41 2770.5Z" fill="#3D0C0C"/>
<path d="M2578.21 2512.04C2610.95 2471.9 2634.2 2429.3 2645.95 2386.21C2654.85 2353.54 2631.26 2326.17 2598.91 2330.76C2202.55 2386.26 1797.47 2386.96 1401.12 2330.77C1368.72 2326.21 1345.14 2353.54 1354.04 2386.21C1365.78 2429.31 1389.01 2471.9 1421.78 2512.04C1804.87 2564.51 2195.14 2564.98 2578.21 2512.04Z" fill="white"/>
<path d="M2000.41 2752C2198.97 2752.34 2414.61 2686.28 2554.34 2539.06C2186.88 2587.4 1813.09 2587.36 1445.63 2539.09C1586.41 2687.44 1800.26 2751.66 2000.41 2752Z" fill="white"/>
<path d="M2266.36 2712C2373.57 2679.77 2476.33 2621.26 2554.34 2539.06C2526.74 2542.69 2499.1 2546.11 2471.42 2549.13C2419.14 2610.57 2351.84 2666.61 2266.36 2712Z" fill="black" fill-opacity="0.1"/>
<path d="M2645.95 2386.22C2634.2 2429.3 2610.95 2471.9 2578.21 2512.04C2548.62 2516.13 2518.97 2519.87 2489.29 2523.27C2531.84 2463.5 2561.63 2399.09 2581.29 2333.21L2598.83 2330.77C2631.26 2326.17 2654.85 2353.54 2645.95 2386.22Z" fill="black" fill-opacity="0.1"/>
<path d="M1445.61 2539.05C1523.96 2621.61 1627.99 2680.78 1735.91 2712.8C1649.48 2667.43 1581.73 2611 1529.3 2549.19C1501.37 2546.15 1473.47 2542.71 1445.61 2539.05Z" fill="black" fill-opacity="0.1"/>
<path d="M1421.75 2512.04C1451.57 2516.09 1481.43 2519.86 1511.32 2523.35C1468.61 2463.64 1438.8 2399.2 1419.21 2333.3C1413.17 2332.47 1407.13 2331.63 1401.09 2330.77C1368.69 2326.22 1345.11 2353.54 1354.01 2386.22C1365.75 2429.31 1388.98 2471.9 1421.75 2512.04Z" fill="black" fill-opacity="0.1"/>
<path d="M1759.66 1403.06C1914.55 1421.06 2026.14 1611.81 2009.66 1779.83C1993.28 1947.17 1846.97 2121.83 1679.78 2102.83C1527.98 2085.53 1429.52 1916.61 1426.28 1774.67C1421.97 1584.51 1587.12 1383 1759.66 1403.06Z" fill="white"/>
<path d="M1947.73 1825.23C1969.84 1711.27 1908.23 1603.46 1810.13 1584.43C1712.03 1565.4 1614.58 1642.35 1592.47 1756.3C1570.36 1870.25 1631.97 1978.06 1730.07 1997.09C1828.17 2016.13 1925.62 1939.18 1947.73 1825.23Z" fill="#FFDB84" stroke="#333333" stroke-width="5" stroke-miterlimit="10"/>
<path d="M1781.2 1941.56C1839.71 1941.56 1887.14 1888.52 1887.14 1823.1C1887.14 1757.68 1839.71 1704.64 1781.2 1704.64C1722.69 1704.64 1675.26 1757.68 1675.26 1823.1C1675.26 1888.52 1722.69 1941.56 1781.2 1941.56Z" fill="black"/>
<path d="M1874.9 1740.3C1882.34 1719.26 1870.48 1695.85 1848.39 1688.04C1826.31 1680.22 1802.37 1690.95 1794.92 1712C1787.47 1733.05 1799.33 1756.45 1821.42 1764.27C1843.5 1772.08 1867.45 1761.35 1874.9 1740.3Z" fill="white" stroke="#333333" stroke-width="5" stroke-miterlimit="10"/>
<path d="M1835.89 1427C1631.51 1371.1 1461.42 1613.25 1465.58 1795.01C1468.05 1902.26 1524.94 2024.8 1618.28 2086.66C1501.88 2037.88 1429.08 1896.33 1426.28 1774.66C1421.95 1584.55 1587.1 1383.07 1759.64 1403.11C1786.32 1406.3 1812.17 1414.4 1835.89 1427Z" fill="black" fill-opacity="0.05"/>
<path d="M1863.62 1605.54C1750.78 1573.47 1650.88 1670.84 1630.47 1775.98C1613.72 1862.33 1644.54 1945.2 1702.82 1989.33C1620.94 1957.33 1572.59 1859.4 1592.57 1756.44C1614.69 1642.44 1712.15 1565.55 1810.25 1584.59C1829.17 1588.26 1847.26 1595.36 1863.62 1605.54Z" fill="black" fill-opacity="0.15"/>
<path d="M2234 1398.91C2079.46 1419.59 1971.21 1612.27 1990.6 1779.99C2009.9 1946.99 2159.23 2119.09 2326.07 2097.12C2477.54 2077.18 2573.07 1906.57 2573.8 1764.6C2574.78 1574.44 2406.14 1375.87 2234 1398.91Z" fill="white"/>
<path d="M2273.74 1992.69C2371.49 1971.94 2431.21 1863.08 2407.11 1749.53C2383.02 1635.98 2284.24 1560.74 2186.48 1581.48C2088.73 1602.22 2029.02 1711.09 2053.11 1824.64C2077.21 1938.19 2175.98 2013.43 2273.74 1992.69Z" fill="#FFDB84" stroke="#333333" stroke-width="5" stroke-miterlimit="10"/>
<path d="M2221.84 1937.7C2280.34 1936.68 2326.84 1882.83 2325.7 1817.41C2324.55 1752 2276.21 1699.8 2217.71 1700.82C2159.2 1701.84 2112.71 1755.7 2113.85 1821.11C2114.99 1886.52 2163.34 1938.72 2221.84 1937.7Z" fill="black"/>
<path d="M2288.34 1764.39C2310.29 1756.19 2321.74 1732.58 2313.92 1711.67C2306.11 1690.75 2281.98 1680.44 2260.04 1688.64C2238.09 1696.84 2226.64 1720.45 2234.45 1741.36C2242.27 1762.28 2266.39 1772.59 2288.34 1764.39Z" fill="white" stroke="#333333" stroke-width="5" stroke-miterlimit="10"/>
<path d="M2573.77 1764.6C2573.11 1887.87 2501.02 2032.73 2382.89 2081.81C2478.18 2020.19 2534.97 1893.73 2535.55 1784.26C2536.51 1600.68 2354.46 1353.02 2149.6 1429.08C2175.6 1413.48 2203.89 1402.94 2233.97 1398.91C2406.14 1375.87 2574.78 1574.44 2573.77 1764.6Z" fill="black" fill-opacity="0.05"/>
<path d="M2295.09 1986.4C2355.95 1942.75 2387.69 1857.33 2368.96 1769.1C2346.56 1663.56 2242.48 1567.69 2130.22 1605.4C2147.25 1593.77 2166.39 1585.58 2186.56 1581.29C2284.32 1560.54 2383.1 1635.77 2407.21 1749.29C2429.51 1854.39 2380.05 1955.46 2295.09 1986.4Z" fill="black" fill-opacity="0.15"/>
<path d="M2378 2112C2585.11 2112 2753 1944.11 2753 1737C2753 1529.89 2585.11 1362 2378 1362C2170.89 1362 2003 1529.89 2003 1737C2003 1944.11 2170.89 2112 2378 2112Z" fill="#FFCF59" fill-opacity="0.5" stroke="#333333" stroke-width="35"/>
<path d="M1622 2112C1829.11 2112 1997 1944.11 1997 1737C1997 1529.89 1829.11 1362 1622 1362C1414.89 1362 1247 1529.89 1247 1737C1247 1944.11 1414.89 2112 1622 2112Z" fill="#FFCF59" fill-opacity="0.5" stroke="#333333" stroke-width="35"/>
<path d="M2954.5 1777.5C2898 1748 2841.5 1760 2785 1764C2728.18 1768.02 2723.76 1671.5 2783 1671.5C2822.5 1671.5 2945 1712.5 2974 1757C2983.43 1771.47 2968.95 1785.04 2954.5 1777.5Z" fill="#333333"/>
<path d="M1045.5 1777.5C1102 1748 1158.5 1760 1215 1764C1271.82 1768.02 1276.24 1671.5 1217 1671.5C1177.5 1671.5 1055 1712.5 1026 1757C1016.57 1771.47 1031.05 1785.04 1045.5 1777.5Z" fill="#333333"/>
<path d="M1785 2099C1785 2175.35 1883.85 2268 2001.26 2267C2109.48 2266.05 2215 2174.45 2215 2099.22C2215 1947.09 1785 1944.8 1785 2099Z" fill="black" fill-opacity="0.1"/>
<path d="M1782 2081C1782 2157.35 1882.23 2250 2001.27 2249C2111 2248.05 2218 2156.45 2218 2081.22C2218 2020.69 2091.76 1967.45 2001.27 1968.22C1917.25 1969 1782 2009.38 1782 2081Z" fill="#7F6145"/>
<path d="M1783.58 2067.77C1825.34 2122.52 1908.26 2168.71 2001.43 2167.99C2087.64 2167.3 2172.35 2120.87 2215.52 2066.44C2217.14 2071.3 2218 2076.23 2218 2081.22C2218 2156.45 2111 2248.05 2001.27 2249C1882.23 2250 1782 2157.35 1782 2081C1782 2076.46 1782.54 2072.05 1783.58 2067.77Z" fill="black" fill-opacity="0.2"/>
<mask id="path-66-outside-1_898_2317" maskUnits="userSpaceOnUse" x="2263.55" y="3113.01" width="282" height="110" fill="black">
<rect fill="white" x="2263.55" y="3113.01" width="282" height="110"/>
<path fill-rule="evenodd" clip-rule="evenodd" d="M2270.55 3218.01C2282.86 3161.01 2338.15 3118.01 2404.5 3118.01C2470.85 3118.01 2526.14 3161.01 2538.44 3218.01H2516.97C2505.03 3171.58 2459.2 3137.01 2404.5 3137.01C2349.79 3137.01 2303.97 3171.58 2292.03 3218.01H2270.55Z"/>
</mask>
<path fill-rule="evenodd" clip-rule="evenodd" d="M2270.55 3218.01C2282.86 3161.01 2338.15 3118.01 2404.5 3118.01C2470.85 3118.01 2526.14 3161.01 2538.44 3218.01H2516.97C2505.03 3171.58 2459.2 3137.01 2404.5 3137.01C2349.79 3137.01 2303.97 3171.58 2292.03 3218.01H2270.55Z" fill="#C03F3F"/>
<path d="M2270.55 3218.01L2265.67 3216.95L2264.36 3223.01H2270.55V3218.01ZM2538.44 3218.01V3223.01H2544.64L2543.33 3216.95L2538.44 3218.01ZM2516.97 3218.01L2512.12 3219.25L2513.09 3223.01H2516.97V3218.01ZM2292.03 3218.01V3223.01H2295.91L2296.87 3219.25L2292.03 3218.01ZM2404.5 3113.01C2336.07 3113.01 2278.52 3157.39 2265.67 3216.95L2275.44 3219.06C2287.19 3164.63 2340.23 3123.01 2404.5 3123.01V3113.01ZM2543.33 3216.95C2530.47 3157.39 2472.92 3113.01 2404.5 3113.01V3123.01C2468.77 3123.01 2521.8 3164.63 2533.56 3219.06L2543.33 3216.95ZM2516.97 3223.01H2538.44V3213.01H2516.97V3223.01ZM2521.81 3216.76C2509.24 3167.9 2461.24 3132.01 2404.5 3132.01V3142.01C2457.17 3142.01 2500.81 3175.27 2512.12 3219.25L2521.81 3216.76ZM2404.5 3132.01C2347.76 3132.01 2299.75 3167.9 2287.19 3216.76L2296.87 3219.25C2308.18 3175.27 2351.83 3142.01 2404.5 3142.01V3132.01ZM2270.55 3223.01H2292.03V3213.01H2270.55V3223.01Z" fill="#333333" mask="url(#path-66-outside-1_898_2317)"/>
<path fill-rule="evenodd" clip-rule="evenodd" d="M2328.93 3138.72C2348.62 3128.71 2371.33 3123.01 2395.5 3123.01C2459.89 3123.01 2513.87 3163.51 2528.24 3218.01H2538.44C2526.14 3161.01 2470.84 3118.01 2404.5 3118.01C2376.55 3118.01 2350.57 3125.64 2328.93 3138.72ZM2339.92 3154.94C2313.26 3168.27 2293.01 3190.89 2284.46 3218.01H2292.03C2298.75 3191.88 2316.19 3169.51 2339.92 3154.94Z" fill="black" fill-opacity="0.14"/>
<path d="M2398 3259.9C2341.19 3259.94 2305.02 3191.79 2339.41 3144.63C2323.5 3099.41 2357.5 3049.23 2406.07 3048.07C2462.07 3046.74 2494.44 3106.58 2488.57 3157.21C2483.09 3204.52 2451.05 3259.85 2398 3259.9Z" fill="#F7C394" stroke="#333333" stroke-width="5" stroke-miterlimit="10"/>
<path d="M2488.57 3157.21C2481.79 3215.77 2434.2 3284.01 2363.2 3251.01C2432.03 3242.2 2480.2 3125.51 2446.31 3059.17C2451.7 3063.01 2460.2 3067.51 2473.91 3086.78C2486.2 3108.51 2491.61 3132.98 2488.57 3157.21Z" fill="black" fill-opacity="0.14"/>
<rect x="2155" y="3210.01" width="499" height="306" rx="32" fill="#C03F3F" stroke="#333333" stroke-width="5"/>
<path fill-rule="evenodd" clip-rule="evenodd" d="M2155 3476.01V3484.01C2155 3501.68 2169.33 3516.01 2187 3516.01H2622C2639.67 3516.01 2654 3501.68 2654 3484.01V3242.01C2654 3224.33 2639.67 3210.01 2622 3210.01H2614V3444.01C2614 3461.68 2599.67 3476.01 2582 3476.01H2155Z" fill="black" fill-opacity="0.14"/>
<path d="M2155 3242.01C2155 3224.33 2169.33 3210.01 2187 3210.01H2622C2639.67 3210.01 2654 3224.33 2654 3242.01V3352.01C2654 3369.68 2639.67 3384.01 2622 3384.01H2187C2169.33 3384.01 2155 3369.68 2155 3352.01V3242.01Z" fill="#C03F3F" stroke="#333333" stroke-width="5"/>
<path fill-rule="evenodd" clip-rule="evenodd" d="M2156.28 3361.01C2160.17 3374.3 2172.45 3384.01 2187 3384.01H2622C2639.67 3384.01 2654 3369.68 2654 3352.01V3242.01C2654 3224.33 2639.67 3210.01 2622 3210.01H2620.72C2621.55 3212.86 2622 3215.88 2622 3219.01V3329.01C2622 3346.68 2607.67 3361.01 2590 3361.01H2156.28Z" fill="black" fill-opacity="0.14"/>
<path d="M2363 3376.01C2363 3352.81 2381.8 3334.01 2405 3334.01C2428.2 3334.01 2447 3352.81 2447 3376.01V3393.01H2363V3376.01Z" fill="#C03F3F" stroke="#333333" stroke-width="5"/>
<path fill-rule="evenodd" clip-rule="evenodd" d="M2371.57 3350.58C2378.63 3345.2 2387.44 3342.01 2397 3342.01C2420.2 3342.01 2439 3360.81 2439 3384.01V3393.01H2447V3376.01C2447 3352.81 2428.2 3334.01 2405 3334.01C2391.36 3334.01 2379.24 3340.51 2371.57 3350.58Z" fill="black" fill-opacity="0.14"/>
<rect x="2362.5" y="3359.51" width="85" height="47" rx="7.5" fill="#FF9191" stroke="#333333" stroke-width="5"/>
<path fill-rule="evenodd" clip-rule="evenodd" d="M2360 3397.01V3399.01C2360 3404.53 2364.48 3409.01 2370 3409.01H2440C2445.52 3409.01 2450 3404.53 2450 3399.01V3367.01C2450 3361.48 2445.52 3357.01 2440 3357.01H2439V3392.01C2439 3394.77 2436.76 3397.01 2434 3397.01H2360Z" fill="black" fill-opacity="0.14"/>
<rect x="2388.5" y="3374.51" width="33" height="17" rx="2.5" fill="#C03F3F" stroke="#333333" stroke-width="5"/>
<path fill-rule="evenodd" clip-rule="evenodd" d="M1855.17 3356.76C1752.39 3301.9 1682 3192.84 1682 3086C1682 3062.8 1683.84 3035.7 1687.68 3005.93C1722.12 2977.84 1766.09 2961 1814 2961C1924.46 2961 2014 3050.54 2014 3161C2014 3257.35 1945.87 3337.78 1855.17 3356.76Z" fill="black" fill-opacity="0.15"/>
<rect x="1606" y="2937" width="400" height="400" rx="200" fill="#383838"/>
<rect x="1626" y="2956.99" width="360" height="360" rx="180" fill="#F3BA2F"/>
<path fill-rule="evenodd" clip-rule="evenodd" d="M1857.2 3138.82C1863.28 3132.44 1829.03 3066.96 1754.66 3076.32C1745.19 3077.51 1701.53 3090.12 1688.72 3154.68C1684.77 3174.59 1720.4 3163.17 1726.1 3155.59C1739.73 3137.48 1760.53 3115.51 1774.35 3115.23C1776.84 3115.17 1782.71 3118.65 1790.36 3123.18C1804.71 3131.68 1825.33 3143.88 1841.55 3143.44C1846.96 3143.29 1853.19 3143.04 1857.2 3138.82ZM1755.62 3135.99C1749.54 3142.38 1783.79 3207.86 1858.16 3198.5C1867.63 3197.3 1911.29 3184.7 1924.1 3120.14C1928.05 3100.23 1892.42 3111.65 1886.72 3119.22C1873.09 3137.34 1852.29 3159.31 1838.47 3159.59C1835.98 3159.64 1830.11 3156.17 1822.47 3151.64C1808.11 3143.14 1787.49 3130.94 1771.27 3131.38C1765.86 3131.52 1759.63 3131.77 1755.62 3135.99Z" fill="#383838"/>
<path fill-rule="evenodd" clip-rule="evenodd" d="M1647.56 3014.94C1636.28 3039.98 1630 3067.76 1630 3097C1630 3207.46 1719.54 3297 1830 3297C1894.5 3297 1951.87 3266.47 1988.44 3219.06C1957.12 3288.6 1887.21 3337 1806 3337C1695.54 3337 1606 3247.46 1606 3137C1606 3091.05 1621.5 3048.71 1647.56 3014.94Z" fill="black" fill-opacity="0.15"/>
<rect x="1606" y="2937" width="400" height="400" rx="200" stroke="#333333" stroke-width="5"/>
<path fill-rule="evenodd" clip-rule="evenodd" d="M1619.4 3064.88C1610.75 3087.25 1606 3111.57 1606 3137C1606 3186.32 1623.86 3231.48 1653.46 3266.35C1688.05 3245.96 1703.55 3197.04 1676.99 3160.63C1691.9 3118.29 1663.02 3071.58 1619.4 3064.88Z" fill="black" fill-opacity="0.15"/>
<path d="M1601.4 3259.89C1658.22 3259.94 1694.39 3191.78 1659.99 3144.62C1675.9 3099.41 1641.9 3049.23 1593.33 3048.07C1537.33 3046.73 1504.96 3106.57 1510.83 3157.2C1516.31 3204.51 1548.35 3259.85 1601.4 3259.89Z" fill="#F7C394" stroke="#333333" stroke-width="5" stroke-miterlimit="10"/>
<path d="M1510.83 3157.2C1517.61 3215.77 1565.2 3284 1636.2 3251C1567.37 3242.2 1519.2 3125.5 1553.09 3059.16C1547.7 3063 1539.2 3067.5 1525.49 3086.77C1513.2 3108.5 1507.79 3132.97 1510.83 3157.2Z" fill="black" fill-opacity="0.1"/>
<path d="M1837.47 762.324C1949.52 779.034 2192.55 826.732 2447.27 950.138C2631.79 1039.53 2810.28 1178.47 2888.94 1243.19C2914.51 1264.23 2923.25 1299.08 2911.71 1330.1L2902.96 1353.64C2888.28 1393.1 2838.19 1406.22 2805.05 1380.24C2714.37 1309.16 2539.73 1182.74 2327.35 1081.11C2127.25 985.354 1891.55 935.08 1782.9 915.465C1751.51 909.797 1731.81 877.552 1741.9 847.284L1752.28 816.141C1764.38 779.812 1799.59 756.676 1837.47 762.324Z" fill="black" fill-opacity="0.15"/>
<path d="M2818.86 849.633L2835.5 1170L1910.5 767.5L2200.06 545.202C2256.25 502.061 2331.78 493.767 2396 523.686L2692.07 661.624C2765.86 696.005 2814.64 768.33 2818.86 849.633Z" fill="#DE5F5F" stroke="#333333" stroke-width="5"/>
<path fill-rule="evenodd" clip-rule="evenodd" d="M2767.5 1138L2750.86 817.628C2746.84 740.124 2702.32 670.779 2634.25 634.684L2692.07 661.622C2765.86 696.004 2814.64 768.329 2818.86 849.632L2835.5 1170L1910.5 767.499L1912.51 765.958L2767.5 1138Z" fill="black" fill-opacity="0.15"/>
<path d="M2452.33 766.68C2515.49 735.535 2520.7 646.832 2513.35 619.944C2483.68 671.958 2436.69 683.798 2403.38 693.37C2370.09 702.968 2337.5 729.308 2320.31 759.442C2304.76 786.686 2300.68 818.989 2308.96 849.244C2317.23 879.499 2337.19 905.228 2364.43 920.77C2391.68 936.312 2423.98 940.395 2454.23 932.119C2484.49 923.844 2510.22 903.89 2525.76 876.645C2540.72 850.415 2546.16 798.874 2540.35 771.505C2501.41 794.677 2469.32 787.21 2452.33 766.68Z" fill="#B53333"/>
<path d="M1819.54 726.617C1941.53 745.733 2201.16 798.662 2472.5 930.5C2662.28 1022.71 2845.67 1162.94 2934.84 1235.44C2967.04 1261.61 2972.09 1308.13 2947.44 1341.52L2928.21 1367.57C2908.37 1394.46 2869.31 1398.42 2843.51 1377.2C2763.16 1311.09 2585.11 1176.19 2342 1059.5C2126.35 955.989 1883.05 906.059 1772.47 887.262C1740.02 881.744 1718.03 850.27 1725.02 818.1L1731.43 788.644C1740.32 747.721 1778.16 720.134 1819.54 726.617Z" fill="#C03F3F" stroke="#333333" stroke-width="5"/>
<path fill-rule="evenodd" clip-rule="evenodd" d="M2962.7 1301.17C2962.61 1301.29 2962.53 1301.4 2962.45 1301.52L2943.22 1327.57C2923.37 1354.46 2884.31 1358.42 2858.51 1337.19C2778.17 1271.08 2600.11 1136.19 2357 1019.5C2141.35 915.987 1898.05 866.058 1787.48 847.26C1755.02 841.743 1733.03 810.269 1740.02 778.099L1744.1 759.332C1738.16 767.911 1733.78 777.81 1731.42 788.643L1725.02 818.099C1718.03 850.269 1740.02 881.743 1772.47 887.261C1883.05 906.058 2126.35 955.987 2342 1059.5C2585.11 1176.19 2763.16 1311.08 2843.51 1377.19C2869.31 1398.42 2908.37 1394.46 2928.21 1367.57L2947.44 1341.52C2956.47 1329.28 2961.52 1315.29 2962.7 1301.17Z" fill="black" fill-opacity="0.2"/>
</svg>
