<svg xmlns="http://www.w3.org/2000/svg" xmlns:xlink="http://www.w3.org/1999/xlink" width="4000" height="4000" fill="none" xmlns:v="https://vecta.io/nano"><style><![CDATA[.B{stroke-miterlimit:10}.C{fill:#000}.D{stroke:#333}.E{stroke-width:5}.F{fill:#99883d}.G{fill-opacity:.1}.H{stroke:#231f20}.I{stroke-width:2}.J{fill:#dbc66b}.K{fill:#fff}.L{fill-opacity:.2}.M{fill-opacity:.15}.N{opacity:.13}.O{fill:#f7c394}.P{fill-rule:evenodd}.Q{fill:#494542}.R{fill-opacity:.3}.S{stroke-linejoin:round}.T{fill:#233e5e}.U{fill:#feebff}]]></style><use xlink:href="#B" class="B D E J"/><g class="F"><use xlink:href="#C"/><use xlink:href="#D"/></g><g class="B"><g class="H I"><use xlink:href="#C"/><use xlink:href="#D"/></g><use xlink:href="#B" x="-1755" y="173" class="D E J"/></g><g class="F"><use xlink:href="#C" x="-1755" y="173"/><use xlink:href="#D" x="-1755" y="173"/></g><g class="B"><g class="H I"><use xlink:href="#C" x="-1755" y="173"/><use xlink:href="#D" x="-1755" y="173"/></g><path d="M2445.46 2967.33c176.5 37.26 375.3 49 514.08-19.3 126.63-62.37-121.14-416-182.73-499.9-57.93-78.93 116.17-74.44 104.54-138.15-8.85-48.47-354.65-62.18-358.05-8.37-2 32.53 105.68 77.33 90.37 143.1-12.88 55.28-449.96 463.15-168.2 522.63z" class="D E J"/></g><g class="F"><use xlink:href="#E"/><use xlink:href="#F"/></g><g class="B"><g class="H I"><use xlink:href="#E"/><use xlink:href="#F"/></g><path d="M594.458 2862.3c176.5 37.26 375.3 49 514.082-19.3 126.63-62.37-121.142-416-182.73-499.9-57.93-78.93 91-74.8 104.54-138.15 7.08-33.05-85.83-30.54-161.72-28.8-25.38.6-49.53-7.94-66.5-5.84-20.5 2.53-41 11.2-58.33 10.52-40-1.56-69.9-9.6-71.5 15.74-2 32.53 105.68 77.33 90.37 143.1-12.88 55.28-449.96 463.15-168.21 522.63z" class="D E J"/></g><g class="F"><use xlink:href="#E" x="-1851" y="-105.02"/><use xlink:href="#F" x="-1851" y="-105.02"/></g><g class="B H I"><use xlink:href="#E" x="-1851" y="-105.02"/><use xlink:href="#F" x="-1851" y="-105.02"/></g><path d="M1108.56 2843c-138.77 68.34-337.58 56.55-514.08 19.3-61-12.87-87.5-42-91.6-80.3 128.775 70.87 441.136 56.57 561.67-2.6 100.52-49.5-34.9-282.58-125.83-418.55 76.9 107.32 288.91 423.48 169.85 482.13z" class="C N"/><g class="B"><g class="F H I P"><path d="M924.76 2314.78c-56.167-.1-112.363 2.27-168.6 7.1-7.436.75-7.958-12.35-.55-13.05 56.174-4.87 112.37-7.26 168.6-7.16 7.42.1 8.02 13.2.55 13.1z"/><path d="M924.758 2323.58c-56.007 5.7-112.3 8.1-168.59 7.17-7.188-.25-8.06-13.36-.55-13.13a1435.81 1435.81 0 0 0 168.589-7.1c7.556-.9 7.726 12.25.55 13.06z"/><path d="M923.338 2333.76c-56.295.23-112.53 3.76-168.4 10.6-7.54 1.06-7.982-12.1-.82-13.07 55.893-6.85 112.14-10.4 168.45-10.65 7.13.1 8.533 13.26.78 13.13z"/><path d="M925.738 2334.2c-31.745 2.3-86.2 15-117.17 34.78-8.344 3.36-9.96-6.98-.35-13.12 31-19.8 85.5-37.93 117.17-34.78 7.612.76 10.112 12.42.35 13.12z"/></g><use xlink:href="#G" class="D E J"/></g><g class="F"><use xlink:href="#E" x="505" y="-105.02"/><use xlink:href="#F" x="505" y="-105.02"/></g><g class="B H I"><use xlink:href="#E" x="505" y="-105.02"/><use xlink:href="#F" x="505" y="-105.02"/></g><use xlink:href="#H" class="C N"/><g class="B"><g class="F H I P"><use xlink:href="#I"/><use xlink:href="#J"/><use xlink:href="#K"/><use xlink:href="#L"/></g><use xlink:href="#G" x="-320" y="316" class="D E J"/></g><g class="F"><use xlink:href="#E" x="185" y="210.98"/><use xlink:href="#F" x="185" y="210.98"/></g><g class="B H I"><use xlink:href="#E" x="185" y="210.98"/><use xlink:href="#F" x="185" y="210.98"/></g><use xlink:href="#H" x="-320" y="316" class="C N"/><g class="B"><g class="F H I P"><use xlink:href="#I" x="-320" y="317"/><use xlink:href="#J" x="-320" y="317"/><use xlink:href="#K" x="-320" y="317"/><use xlink:href="#L" x="-320" y="317"/></g><path d="M2736.43 3373.58c-99.1 20.92-182.9 35.53-283.3 35.4-106.8-.16-99.44-35.2-245.86-41.83-118.76-5.38-79.64-271.93 21.42-390.23 70-81.94 147.14-146.12 155.24-185.28 23-111.12-7.2-123.86-65.28-135.12-38.45-7.47-39.52-56.66 67.6-45.08 29.26 3.17 98.67 12.9 128.68-2.1 21.4-10.7 45.54 7.75 65.66 7 46.37-1.8 89.57 22.9 61.5 31.76-26.4 8.33-89.05 79.8-83.5 145.35 2.63 31.1 116.36 80.3 179.94 198.38 29.94 55.6 6.24 148.84 14.23 198.12 9.07 55.78 93.64 160.4-16.34 183.63z" class="D E J"/></g><g class="F"><use xlink:href="#M"/><use xlink:href="#N"/></g><g class="B H I"><use xlink:href="#M"/><use xlink:href="#N"/><g class="F P"><path d="M2374.37 2780.54c64.96-4.24 130.13-5.6 195.52-4.1 8.65.3 8.3-14.9-.3-15.18-65.34-1.52-130.5-.17-195.53 4.06-8.6.67-8.16 15.87.32 15.23z"/><path d="M2374.24 2788.6c65.17 3.27 130.47 2.7 195.57-1.7 8.34-.7 8.83-15.95-.12-15.23-65.1 4.43-130.4 5-195.56 1.76-8.94-.6-8.27 14.64.1 15.16z"/><path d="M2375.1 2804.42c65.04-5.1 130.33-6.4 195.53-3.83 8.8.5 8.15-14.76-.25-15.17-65.2-2.58-130.5-1.32-195.53 3.76-8.52.78-8.47 16.03.25 15.24z"/><path d="M2375.57 2804.58c36.7-3.66 125.23 3.07 161.13 26 9.65 3.93 9.3-8.58.4-15.2-34.2-25.45-136.23-28.54-160.68-27.45-12 .53-10.16 19.23-.86 16.65z"/></g></g><path d="M2736.43 3373.58c-99.1 20.92-182.92 35.53-283.32 35.38-106.8-.15-99.43-35.18-245.86-41.82-39.35-1.8-61.38-32.25-69.54-76.5 188.03 10.1 328.05 47 521.87 6.08 97.34-20.54 19.28-369.67-34.97-437.64 36.92 31 81.82 73.1 113.92 132.7 29.94 55.6 6.24 148.84 14.23 198.12 9.07 55.8 93.66 160.44-16.33 183.66z" class="C N"/><path d="M1298.43 3096.58c-99.1 20.92-182.9 35.53-283.3 35.4-106.814-.16-99.444-35.2-245.864-41.83-118.76-5.38-79.64-271.93 21.42-390.23 70-81.94 147.14-146.12 155.24-185.28 23-111.12-7.2-123.86-65.28-135.12-38.45-7.47-39.52-56.66 67.6-45.08 29.26 3.17 98.674 12.9 128.684-2.1 21.4-10.7 45.54 7.75 65.66 7 46.37-1.8 89.57 22.9 61.5 31.76-26.4 8.33-89.05 79.8-83.5 145.35 2.63 31.1 116.36 80.3 179.94 198.38 29.94 55.6 6.24 148.84 14.23 198.12 9.07 55.78 93.64 160.4-16.34 183.63z" class="B D E J"/><g class="F"><use xlink:href="#O"/><use xlink:href="#P"/></g><g class="B H I"><use xlink:href="#O"/><use xlink:href="#P"/><g class="F P"><path d="M936.367 2497.54c64.963-4.24 130.133-5.6 195.523-4.1 8.65.3 8.3-14.9-.3-15.18-65.34-1.52-130.5-.17-195.534 4.06-8.582.67-8.155 15.87.32 15.23z"/><path d="M936.244 2505.6c65.166 3.27 130.466 2.7 195.566-1.7 8.34-.7 8.83-15.95-.12-15.23-65.1 4.43-130.4 5-195.556 1.76-8.945-.6-8.278 14.64.1 15.16z"/><path d="M937.096 2521.42c65.044-5.1 130.334-6.4 195.534-3.83 8.8.5 8.15-14.76-.25-15.17-65.2-2.58-130.5-1.32-195.534 3.76-8.518.78-8.466 16.03.25 15.24z"/><path d="M937.565 2521.58c36.7-3.66 125.235 3.07 161.135 26 9.65 3.93 9.3-8.58.4-15.2-34.2-25.45-136.234-28.54-160.684-27.45-12.008.53-10.152 19.23-.86 16.65z"/></g></g><path d="M1298.43 3096.58c-99.1 20.92-182.92 35.53-283.32 35.38-106.805-.15-99.425-35.18-245.855-41.82-39.35-1.8-61.38-32.25-69.54-76.5 188.024 10.1 328.045 47 521.865 6.08 97.34-20.54 19.28-369.67-34.97-437.64 36.92 31 81.82 73.1 113.92 132.7 29.94 55.6 6.24 148.84 14.23 198.12 9.07 55.8 93.66 160.44-16.33 183.66z" class="C N"/><path d="M1725.72 3340.94c-196.3 41.43-368.43 49.56-529.17-6.44-112.26-39.1-79.64-271.93 21.42-390.23 70-81.94 147.14-146.12 155.24-185.28 23-111.12-15.4-111.7-65.28-135.12-109.63-51.5 354.27-106.98 323.46-8.4-8.1 25.9-89.05 79.8-83.5 145.35 2.63 31.1 130.6 51.6 194.17 169.7 29.94 55.6-8 177.53 0 226.8 9.07 55.78 93.64 160.4-16.34 183.63z" class="B D E J"/><g class="F"><use xlink:href="#M" x="-1010.71" y="-32.64"/><use xlink:href="#N" x="-1010.71" y="-32.64"/></g><g class="B H I"><use xlink:href="#M" x="-1010.71" y="-32.64"/><use xlink:href="#N" x="-1010.71" y="-32.64"/></g><path d="M1725.72 3340.94c-99.1 20.92-182.9 35.53-283.3 35.38-78.12-2.82-121.12-4.32-238.12-38.82-37.78-11.14-61-43.5-71.5-79.5 385.8 59 709.6 77.05 485.2-447 43 25 90.4 57.38 122.5 117 29.94 55.6-6.43 180 1.56 229.28 9.07 55.8 93.65 160.44-16.34 183.66z" class="C N"/><path d="M2275.1 3290.64c-50.77-7.42-115.16-32.27-196.86-76-11.87-6.35-16.67-21.85-10.25-33.84 6.35-11.87 21.85-16.66 33.84-10.25 75.45 40.37 136.18 64.12 180.5 70.6 28.93 4.23 49.75 1 61.88-9.64 13.6-11.92 12.4-33 8.83-72.4-4.17-46.12-9.36-103.53 19.78-169.5 44-99.72 153.63-194.53 269.1-176.7 73.33 11.36 143.6 66.2 159.73 140.6 13.73 63.36-6.02 150.17-73.53 174.43-44.77 16-95.93-2.36-130.84-32.08-10.44-8.68-11.95-25-3.06-35.44 8.8-10.34 25.15-11.64 35.48-2.62.43.36 43.66 36.65 81.5 23.06 42.84-15.38 49.77-78.95 41.56-116.78-11.75-54.23-65.6-93.57-118.5-101.77-92.84-14.33-180.8 68.5-215.72 147.5-23.9 54.16-19.56 102.32-15.72 144.8 4 43.84 7.7 85.25-25.67 114.5-27.66 24.4-67.07 26.8-102.02 21.54z" class="B D E Q"/><path d="M2786.65 2965.53c11.06 51.02 1.18 114.55-37.82 152.08 51.4-33.7 65.07-107.56 52.82-164.08-16.13-74.4-86.4-129.24-159.73-140.6-66.26-10.23-131.78 18.56-181.54 60.82 114.12-80.75 293.3-60.36 326.27 91.78zm-69.03 112.53c-27.03 31.45-75.6 15.26-102.9-8.23-3.14-2.68-6.9-4.54-10.94-5.4a25.037 25.037 0 0 0-12.19.41c3.97-7.3 11.63-12.23 19.93-12.9 6.6-.53 13.15 1.6 18.2 5.9 22.07 19.5 59.84 35.17 87.9 20.24zm-644.12 95.44c3.5-3 15.5-9 23-5.5 6.98 3.26 15.34 7.4 24.73 12.03 49.42 24.4 127.47 62.97 183.77 62.97 50 0 54.5-25 47.5-91 .85 3.82 1.92 8.03 3.06 12.5 9.62 37.75 24.1 94.5-50.56 94.5-81.5 0-208.8-70.57-231.5-85.5z" fill-opacity=".4" class="C"/><path d="M1587 3147c36.5 0 65.66-32.58 62.04-68.42-5.42-63.52 18.62-132.2 65.95-198.4 43.06-60.25 89.2-93.25 53.7-132.2s-115.56 3.92-155.4 59.5c-65.7 91.92-97.2 189.1-88.63 283.68 3.2 31.47 25.83 55.82 62.33 55.82z" class="B D E Q"/><path d="M1553.1 3059.16c-.42-112.27 89.6-277.66 195.1-324.16-130-21-245 233.5-222.7 351.77 7.2-11.77 19.7-23.27 27.6-27.6z" class="C R"/><path d="M1959.37 3446.5c5-87.08 27.4-154.43 47.17-206.8s42.42-144.7-42.56-166.02c-121.5-30.5-188.3 254.12-193.3 340.94-2.93 51.08 36.82 110.33 88.4 113.3 47.48 2.3 97.45-31.8 100.3-81.4z" class="B D E T"/><path d="M1769.48 3414.5c51.5-7 148-7 188.5 34l1.66-15.04c-42.16-36.96-138.16-39.46-188.02-32.46-.26 3.3-1.86 10.13-2.14 13.5zm16-89.5c47.76 44.3 108.88 69.13 178 78.5.58-5 1.8-12.18 2.5-17-68.6-8.88-128.2-37.6-176-81-2 6-3.62 15.27-4.5 19.5z" class="C L"/><path d="M2040.63 3446.5c-5-87.08-27.4-154.43-47.17-206.8s-42.42-144.7 42.56-166.02c121.5-30.5 188.3 254.12 193.3 340.94 2.93 51.08-36.82 110.33-88.4 113.3-47.48 2.3-97.45-31.8-100.3-81.4z" class="B D E T"/><path d="M2230.52 3414.5c-51.5-7-148-7-188.5 34l-1.66-15.04c42.16-36.96 138.16-39.46 188.02-32.46.26 3.3 1.86 10.13 2.14 13.5zm-16-89.5c-47.76 44.3-108.88 69.13-178 78.5-.58-5-1.8-12.18-2.5-17 68.6-8.88 128.2-37.6 176-81 2 6 3.62 15.27 4.5 19.5z" class="C L"/><path d="M2413 3147c-36.5 0-65.66-32.58-62.04-68.42 5.42-63.52-18.62-132.2-65.95-198.4-43.06-60.25-89.2-93.25-53.7-132.2s115.56 3.92 155.4 59.5c65.7 91.92 97.2 189.1 88.63 283.68-3.2 31.47-25.83 55.82-62.33 55.82z" class="B D E Q"/><path d="M2446.9 3059.16c.42-112.27-89.6-277.66-195.1-324.16 130-21 245 233.5 222.7 351.77-7.2-11.77-19.7-23.27-27.6-27.6z" class="C R"/><path d="M3133.2 1832.12c111.1 102 66.32 309.3-9.1 427.16-107.46 168-353.47 273.75-479.46 184.37-131.58-93.35-114.4-386.92 39.2-539.32 114.68-113.78 334.45-177.7 449.35-72.2z" class="B D E O"/><path d="M3003.5 1952.22c66 68.2 30.1 196.68-21.65 267.88-73.75 101.45-232.17 158.7-307.94 97.86-79.14-63.53-57.4-247.22 44.75-337.18 76.26-67.16 216.64-99.08 284.84-28.56z" fill="#ffc9a1"/><path d="M3124.1 2259.28c-60.7 94.85-195.1 203.22-346.6 216.72 106.36-25 260-133.85 306.64-206.72 75.4-117.87 115.36-338.97 9.1-427.16-32.4-26.9-114.73-65.12-227.73-45.12 138-42.5 222.8-6.13 267.73 35.12 111.06 102 66.28 309.3-9.13 427.16z" class="C G"/><path d="M866.818 1832.12c-111.1 102-66.32 309.3 9.1 427.16 107.46 168 353.472 273.75 479.462 184.37 131.58-93.35 114.4-386.92-39.2-539.32-114.68-113.78-334.452-177.7-449.352-72.2z" class="B D E O"/><path d="M996.518 1952.22c-66 68.2-30.1 196.68 21.652 267.88 73.75 101.45 232.17 158.7 307.94 97.86 79.14-63.53 57.4-247.22-44.75-337.18-76.26-67.16-216.64-99.08-284.842-28.56z" fill="#ffc9a1"/><path d="M875.908 2259.28C936.598 2354.13 1071 2462.5 1222.5 2476c-106.36-25-260.02-133.85-306.642-206.72-75.4-117.87-115.36-338.97-9.1-427.16 32.41-26.9 114.732-65.12 227.732-45.12-138.002-42.5-222.792-6.13-267.732 35.12-111.06 102-66.28 309.3 9.13 427.16z" class="C G"/><path d="M2000 2548c154 0 220 135 260 246s58 220 58 292c0 152-138.68 305.46-318 307-175.53 1.5-318-155-318-307 0-72 17.7-181.5 58-292 40-111 106-246 260-246z" class="B D E Q"/><ellipse cx="2000" cy="2944.5" rx="88" ry="111.5" fill="#ffcd98"/><path d="M2220.8 3301.3c60.32-58.13 97.2-136.9 97.2-215.3 0-52.14-9.44-123.7-29.84-201.35 45.24 64.82 68.1 131.83 62.8 193.93-3.62 35.84 25.54 68.42 62.04 68.42s59.14-24.35 62.33-55.82c8.5-93.84-22.43-190.25-87.1-281.54-99 42.28-226.55 68.67-366.44 71.17L2000 2995l-21.8-114.2c-139.9-2.5-267.44-28.9-366.44-71.17-64.67 91.3-95.6 187.7-87.1 281.54 3.2 31.47 25.83 55.82 62.33 55.82s65.66-32.58 62.04-68.42c-5.3-61.96 17.46-128.82 62.5-193.5C1691.23 2962.44 1682 3034 1682 3086c0 77.9 37.43 157 97.55 215.4 143.44 39.57 297.82 39.54 441.24-.1z" class="D E S U"/><path d="M2241.4 2834.14l-132.15 159.15-90.6-93.2 222.76-65.96z" class="C G"/><path d="M2243.24 2813.14l-127.7 148.2-94.92-59.2 222.63-88.98z" class="B D E S U"/><path d="M1758.6 2834.14l132.15 159.15 90.6-93.2-222.76-65.96z" class="C G"/><path d="M1756.76 2813.14l127.7 148.2 94.92-59.2-222.63-88.98z" class="B D E S U"/><path d="M2355 2822.5c61.5 84 115.5 198.5 83 319.5 73-18.5 26.5-198.5-1.42-250.26-14.98-27.77-29.3-56.94-48.57-82-11.65 4.97-20.6 8.24-33 12.76zm-710.5 0c-58.83 82.24-114 195-82.5 319.5-73-18.5-26.5-198.5 1.42-250.26 14.98-27.77 29.3-56.94 48.57-82 11.65 4.97 20.1 8.24 32.5 12.76z" class="C M"/><g class="B D E"><path d="M2307.42 3159.6c-35.6 124.28-157.26 232.1-307.42 233.4-145.44 1.25-268.18-105.98-306-229.25 208.63 65.46 438.94 53.4 613.4-4.14z" class="T"/><g fill="#0c0c0b"><path d="M1695.9 3169.66c-6.3-19.06-10.56-38.54-12.57-58.1 182.76 65.1 450.8 63.42 633.78-4.22-1.65 19.6-5.54 39.12-11.45 58.2-194.17 66.56-442.74 59.64-609.76 4.12z"/><path d="M2072.52 3146h-145.04c-8 0-14.48 6.46-14.48 14.42v49.16c0 7.96 6.48 14.42 14.48 14.42h145.04c8 0 14.48-6.46 14.48-14.42v-49.16c0-7.96-6.48-14.42-14.48-14.42z"/></g></g><g class="C"><path d="M2000 3393c-175.67 1.6-330-157-318-337 10 148 145.15 288.48 318 287s308-139 318-287c12 180-142.33 335.4-318 337z" class="L"/><path d="M2395 2818c-115.35 45.22-271 79-395 79s-259.34-26.43-395-79c-7.24 10.54-16.6 26.27-23 37 142 57 275 86 418 86s276-29 418-86c-6.15-10.7-15.93-26.36-23-37z" class="M"/></g><path d="M2267.76 936.82C2665.92 1066 2967.42 1339.94 2966 1847c-1.1 388.75-350.07 990.8-966.43 996.18-594.62 5.2-966.64-596.22-965.57-996.18 1.32-488.44 432.13-990.94 966-1028.5 661.76-46.513 914.17 328.5 267.76 118.32z" class="D E Q S"/><path d="M2033.94 843.8C1380.48 889.737 907 1615 1169.36 2202.88c68.14-70.38 151.14-90.38 177.6-99.16 7.94 8.57 17.6 17.67 21.05 21.78-81.37 25.35-175.93 80.4-216.63 156.84-76.27-147.6-117-302.56-116.6-435.33 1.32-488.45 432.22-991 966.1-1028.57 513.48-36.1 601.22-14.6 33.07 25.36zm930.56 1003.27c-.36 127.74-38.12 278.5-110.54 423.57C2779 2168 2644.73 2127 2631 2127l20-24.5c23.5 5.5 128.62 27.9 187.28 106.2 59.3-132.15 86.52-255.16 86.84-370.86 1.47-524.24-353.62-784.84-657.36-901.02C2665.92 1066 2965.92 1340 2964.5 1847.07z" class="C R"/><path d="M1725 1203.5c-297 0-665 628.5-363.5 918.5-575.5 180 0 779 638.5 779s1214-599 638.5-779c301.5-290-66.5-918.5-363.5-918.5-126.5 0-195.5 58.5-275 116.5-79.5-58-148.5-116.5-275-116.5z" fill="#ffcd98" class="D E"/><g class="C"><path d="M2749.1 1817c-15.7-308.54-265-613.2-481.5-613.2-134.6 0-216.2 82.14-267.6 116.2-41.1-28.05-132.5-116.2-268.4-116.2-255.6 0-478.1 373.2-482.13 622.7C1227 1558 1433.07 1155 1733 1155c156 0 239 75 267 106 28-31 111-106 267-106 297.63 0 503.5 381.5 482.1 662z" class="R"/><path d="M1250.37 1807.4c-7.1 117.45 24.02 230 111.45 314.1-10.42 3.26-20.47 7.66-30.15 11.2 22.33-7.2 43.66-12.28 68.33-16.7-84.54-81.32-133.47-191.76-149.63-308.6zm-101.77 459.27c-135.93 245.26 334.32 633.83 851.4 633.83s993.17-392.85 849.75-637.86C2945.1 2486.75 2490.72 2863 2000 2863c-487.8 0-939.7-371.78-851.4-596.33zM2670.5 2133c-21.76-6.4-44.6-12.37-70.5-17 85.32-82.07 134.37-193.8 150.07-311.86 7.9 118.62-23 232.5-111.25 317.36 11.32 3.54 21.24 7.64 31.68 11.5z" class="G"/></g><path d="M2000.4 2770.5c275 0 572-112.5 663.25-379.44 15.25-42.3-22.1-84.98-67.45-78.53-197.53 28.07-396.8 42.15-596.3 42.15s-398.78-14.1-596.3-42.15c-45.32-6.44-82.16 36-67.46 78.53C1428.4 2658 1725.4 2770.5 2000.4 2770.5z" fill="#3d0c0c"/><path d="M2578.2 2512.04c32.74-40.14 56-82.74 67.74-125.83 8.9-32.67-14.7-60.04-47.04-55.45-396.36 55.5-801.44 56.2-1197.8.01-32.4-4.56-55.98 22.77-47.08 55.44 11.74 43.1 34.97 85.7 67.74 125.83 383.1 52.47 773.36 52.94 1156.43 0zM2000.4 2752c198.56.34 414.2-65.72 553.93-212.94-367.46 48.34-741.25 48.3-1108.7.03 140.78 148.35 354.63 212.57 554.78 212.9z" class="K"/><path d="M2645.95 2386.22c-11.75 43.08-35 85.68-67.74 125.82l-88.92 11.23c42.55-59.77 72.34-124.18 92-190.06l17.54-2.44c32.43-4.6 56.02 22.77 47.12 55.45zm-1224.2 125.82l89.57 11.3c-42.7-59.7-72.52-124.15-92.1-190.05l-18.12-2.53c-32.4-4.55-55.98 22.77-47.08 55.45 11.74 43.1 34.97 85.68 67.74 125.82zm23.85 27c78.35 82.56 182.38 141.73 290.3 173.75-86.43-45.37-154.18-101.8-206.6-163.6l-83.7-10.14zM2266.36 2712c107.2-32.23 209.97-90.74 287.98-172.94l-82.92 10.07c-52.28 61.44-119.58 117.48-205.06 162.87z" class="C G"/><path d="M1757 1444.6c134.63 18.02 228.92 185.87 212.03 331.97-16.8 145.48-146.9 295.4-292.23 276.26-131.95-17.37-215.17-166-215.8-289.66-.85-165.66 146.06-338.64 296-318.57z" class="K"/><path d="M1722.4 1961.85c-85.15-18.07-137.17-112.9-116.18-211.82 21-98.92 107.04-164.46 192.2-146.4 85.16 18.07 137.18 112.9 116.2 211.82s-107.04 164.46-192.2 146.4z" fill="#2f4941" class="B D E"/><path d="M1767.6 1913.95c-50.96-.9-91.46-47.8-90.47-104.8 1-56.98 43.12-102.45 94.08-101.56s91.46 47.8 90.47 104.78c-1 57-43.1 102.46-94.08 101.57z" class="C"/><path d="M1709.67 1762.97c-19.1-7.14-29.1-27.7-22.28-45.93 6.8-18.22 27.82-27.2 46.94-20.05 19.12 7.14 29.1 27.7 22.3 45.93-6.8 18.22-27.83 27.2-46.95 20.05z" class="B D E K"/><g class="C"><path d="M1461.03 1763.16c.57 107.38 63.37 233.57 166.28 276.32-83-53.67-132.48-163.84-133-259.2-.84-159.92 157.76-375.66 336.2-309.4-22.65-13.6-47.3-22.78-73.5-26.3-149.98-20.07-296.9 152.9-296 318.57z" fill-opacity=".05"/><path d="M1703.8 1956.37c-53-38.02-80.66-112.43-64.35-189.3 19.5-91.94 110.2-175.46 207.98-142.6-14.84-10.13-31.5-17.27-49.08-21-85.16-18.08-171.2 47.46-192.22 146.35-19.42 91.55 23.66 179.6 97.67 206.55z" class="M"/></g><path d="M2243 1444.6c-134.63 18.02-228.92 185.87-212.03 331.97 16.8 145.48 146.9 295.4 292.23 276.26 131.95-17.37 215.17-166 215.8-289.66.85-165.66-146.06-338.64-296-318.57z" class="K"/><path d="M2277.6 1961.85c85.16-18.07 137.18-112.9 116.2-211.82-21-98.92-107.04-164.46-192.2-146.4-85.16 18.07-137.18 112.9-116.2 211.82s107.04 164.46 192.2 146.4z" fill="#2f4941" class="B D E"/><path d="M2232.4 1913.95c50.96-.9 91.46-47.8 90.47-104.8-1-56.98-43.1-102.45-94.08-101.56-50.96.9-91.46 47.8-90.47 104.78 1 57 43.12 102.46 94.08 101.57z" class="C"/><path d="M2290.33 1762.97c19.1-7.14 29.1-27.7 22.28-45.92-6.8-18.23-27.82-27.2-46.94-20.06s-29.1 27.7-22.3 45.93 27.83 27.2 46.95 20.05z" class="B D E K"/><g class="C"><path d="M2538.97 1763.16c-.58 107.38-63.37 233.57-166.28 276.32 83-53.67 132.48-163.84 133-259.2.83-159.92-157.76-375.66-336.22-309.4 22.65-13.6 47.3-22.78 73.5-26.3 149.98-20.07 296.9 152.9 296 318.57z" fill-opacity=".05"/><path d="M2296.2 1956.37c53.02-38.02 80.67-112.44 64.35-189.3-19.5-91.94-110.18-175.46-207.97-142.6 14.84-10.13 31.5-17.27 49.08-21 85.16-18.08 171.2 47.46 192.2 146.35 19.43 91.55-23.65 179.6-97.67 206.55z" class="M"/><path d="M2744.23 1617.56c-67.73-47.4-186.23-92.55-417.07-77.32-110.2 7.27-217.33 38.8-274.15 89.8-8.6 7.7-15.77 18.33-21.43 31.4-18.07-3.38-46.1-4.2-63.55 2-5.78-14-13.26-25.33-22.3-33.43-77.48-68.26-193.37-84.2-292.24-91.22-189.5-13.46-310 20.7-398 81.7l-218.5 151c0 2 1 4 1.5 5.5l205.35-112.2c5.24 2.74 31 18.14 30.1 74.88-3.94 245.32 153.43 354 353.17 362.97 230.4 10.34 362.4-176.65 354.24-377.14 11.5-5.73 24.08-7.66 36.1 2.63-8.94 222.86 143.6 383.94 354.4 374.47 224.16-10.06 359.3-152.78 353.22-359.88 1.14-58.7 28-76.83 33.47-79.94L2964 1774c.5-.5 1.5-1.5 2.5-3l-222.27-153.44zm-1115.9 455.16C1440 2061 1296.2 1935 1303.88 1740.1c2.23-56.67 15.9-95.94 29.38-112.68 47.24-58.67 234.77-64.93 320.24-58.67 90.75 6.65 208 29.26 272.16 83.5 15.75 13.3 25.14 46.55 26.2 87.7 4.42 181.1-136.2 344.45-323.53 332.8zm743.5 1.73c-188.16 1.64-329.9-145.88-325.05-334.4 1.06-41.14 10.85-73.92 26.2-87.7 66.02-59.24 198-76.84 254.17-82.2 88.1-8.4 287.84-7.1 338.2 57.36 13.24 16.94 27.15 56 29.38 112.68 7.55 191.57-125.75 332.52-322.9 334.25z" class="G"/></g><path d="M1328.86 1597.13c-60.77 82.6-69.42 441.92 299.52 458.48 326.26 14.64 376.07-369 301-436.4-125.58-112.7-533.16-113.62-600.52-22.08zm1341.62 0c60.77 82.6 69.42 441.92-299.52 458.48-326.26 14.64-376.07-369-301-436.4 125.58-112.7 533.16-113.62 600.52-22.08z" fill="#9afff2" class="R"/><path d="M2744.23 1591.56c-67.73-47.4-186.23-92.55-417.07-77.32-110.2 7.27-217.33 38.8-274.15 89.8-8.6 7.7-15.77 18.33-21.43 31.4-18.07-3.38-46.1-4.2-63.55 2-5.78-14-13.26-25.33-22.3-33.43-77.48-68.26-193.37-84.2-292.24-91.22-189.5-13.46-310 20.7-398 81.7l-231.64 157.58c-15.82 11.1 1.65 34.82 16.86 24.8l203.13-138.1c5.24 2.74 31 18.14 30.1 74.88-3.94 245.32 153.43 354 353.17 362.97 230.4 10.34 362.4-176.65 354.24-377.14 11.5-5.73 24.08-7.66 36.1 2.63-8.94 222.86 143.6 383.94 354.4 374.47 224.16-10.06 359.3-152.78 353.22-359.88 1.14-58.7 28-76.83 33.47-79.94l203.1 138.06c16.14 10.62 31.76-14.35 16.86-24.8-20-14.04-207.08-139.46-234.25-158.48zm-1115.9 455.16C1440 2035 1296.2 1909 1303.88 1714.1c2.23-56.67 15.9-95.94 29.38-112.68 47.24-58.67 234.77-64.93 320.24-58.67 90.75 6.65 208 29.26 272.16 83.5 15.75 13.3 25.14 46.55 26.2 87.7 4.42 181.1-136.2 344.45-323.53 332.8zm743.5 1.73c-188.16 1.64-329.9-145.88-325.05-334.4 1.06-41.14 10.85-73.92 26.2-87.7 66.02-59.24 198-76.84 254.17-82.2 88.1-8.4 287.84-7.1 338.2 57.36 13.24 16.94 27.15 56 29.38 112.68 7.55 191.57-125.75 332.52-322.9 334.25z" fill="#35241d"/><path d="M2424.58 1540.34c-32.8-.4-65.6 1-98.25 4.05-1.55-10-1.38-20 .67-29.9 33-2.5 64.3-3.27 95.5-3 2.53 9.76 3.14 18.8 2.08 28.84zM2495 1544c-11.6-1.1-23.24-1.95-34.9-2.53l.33-29.02c11.7.57 22.87 1.03 34.07 2.05l.5 29.5zm64-22c-3.13 11-7.83 18.25-12.48 18.25-5.2 0-9.87-8.46-13.07-21.9 8.64 1.26 17.48 2.1 25.55 3.64zm118.36 391.55c-5.74 9.88-12 19.44-18.8 28.64-8.4-5.46-16.3-11.66-23.6-18.53 5.1-6.95 9.9-14.18 14.4-21.7 9.65 3.05 19 6.92 28 11.58zM1329.5 1860c-13.4-5.05-27.27-11.43-39.45-18.98-4.2-13.96-7.6-28.14-10.17-42.5 11.8 4.3 23.17 9.65 34 16h.06c3.74 15.52 9.63 30.65 15.56 45.47zm580-282.5c-5 10.72-10.58 20.1-15.56 26.27-6.22-3.6-12.85-7.1-19.9-10.45.4-8.43 2.83-20.2 5.96-31.82 10.22 4.56 19.8 10.4 29.5 16z" fill="#8e6930"/><g class="C"><path opacity=".5" d="M1243.77 1625.84l-203.13 138.1c-7.4 5.02-18.1 2.1-21.94-5.93-4.7 12.5 10 27.02 21.94 18.9l203.13-138.1c5.07 2.65 27.27 17.15 29.9 69.43.43-26.88-2.6-68.1-29.9-82.4zm681.87-12.53c-61.64-55.3-178.65-76.45-270.14-83.35-85.77-6.47-286.64 4.56-326 58.04-26.83 36.45-26.62 89.96-25.86 133.9.34-30.4 3.87-88.56 29.6-120.42 47.26-58.52 236.48-65 322.26-58.52 91.03 6.87 201.5 27.7 270.14 83.35 23.4 18.97 25.36 63.7 26.2 88.9.72-32.6-.2-78.57-26.2-101.9zm56.2 101.93c-3.77 192.65-155.45 357.5-354.93 348.46-198.2-8.9-350.2-142.03-353.4-342.08 0 230.38 149.8 345.94 353.4 355.08 203.75 9.03 354.96-141.7 354.96-361.46h-.03zm-.7-28.68c.3 4.14.5 8.37.62 12.7 11.18-5.42 23.32-7.13 35 2.5 0-4.18.22-8.37.48-12.54-12-10.33-24.56-8.4-36.07-2.67h-.03zm416.85-159.4c-105.14 1.6-243.6 13.06-325.04 86.13-17.96 16.1-34.46 57.2-26.2 100.7 1.06-41.14 10.46-74.37 26.2-87.7 76.54-64.8 219.88-84.48 325.04-86.1 76.75-1.2 228.34 8.32 267.34 61.27 24.2 32.85 28.98 80.9 29.6 120.35 5.56-61.3-1.43-103.58-16.94-125.8-37-53-172.97-70.5-280-68.84zm326.93 194.45c-3.25 202.4-155.53 333.2-353.33 342.08-199.68 8.86-350.83-155.74-354.97-348.43-3.94 197.28 136.57 371.34 354.97 361.43s356.92-147.25 353.4-355.08h-.07zm258.42 34.4c-3.9 8.16-14.5 10.97-21.94 5.93l-203.1-138.06c-29.22 16.52-33.6 58.2-33.3 88.13 2.46-54.9 28-72.1 33.3-75.13l203.1 138.06c12.5 8.48 26.6-5.93 21.94-18.9v-.02z"/><path d="M1785 2099c0 76.35 98.85 169 216.26 168 108.22-.95 213.74-92.55 213.74-167.78 0-152.13-430-154.42-430-.22z" class="G"/></g><path d="M1782 2081c0 76.35 100.23 169 219.27 168 109.73-.95 216.73-92.55 216.73-167.78 0-60.53-126.24-113.77-216.73-113-84.02.78-219.27 41.16-219.27 112.78z" fill="#7f6145"/><path d="M1783.58 2067.77c41.76 54.75 124.68 100.94 217.85 100.22 86.2-.68 170.92-47.12 214.1-101.55 1.62 4.86 2.48 9.8 2.48 14.78 0 75.23-107 166.83-216.73 167.78-119.04 1-219.27-91.65-219.27-168 0-4.54.54-8.95 1.58-13.23z" class="C L"/><path d="M1910 3556c32 0 63.1-23.6 66.7-56.14 9.1-82.2-94.35-89.68-150.67-90.92-57.1-1.25-154.03 9.56-171.02 72.27-14.85 54.8 36.5 74.8 73 74.8s49-12.15 92.98-12.15c38.4 0 57.02 12.15 89.02 12.15z" class="B D E O"/><path d="M1909 3534c-32 0-50.6-12.15-89.02-12.15-43.98 0-56.48 12.15-92.98 12.15-28.4 0-65.75-12.1-73.97-43.26-6.73 47.6 40.67 65.26 74.97 65.26 36.5 0 49-12.15 92.98-12.15 38.4 0 57.02 12.15 89.02 12.15 42.86 0 73-34.15 65.9-80.26-2.97 33.46-34.04 58.26-66.9 58.26z" class="C G"/><path d="M2090 3556c-32 0-63.1-23.6-66.7-56.14-9.1-82.2 94.35-89.68 150.67-90.92 57.1-1.25 154.03 9.56 171.02 72.27 14.85 54.8-36.5 74.8-73 74.8s-49-12.15-92.98-12.15c-38.42 0-57.02 12.15-89.02 12.15z" class="B D E O"/><path d="M2091 3534c32 0 50.6-12.15 89.02-12.15 43.98 0 56.48 12.15 92.98 12.15 28.4 0 65.75-12.1 73.97-43.26 6.73 47.6-40.67 65.26-74.97 65.26-36.5 0-49-12.15-92.98-12.15-38.42 0-57.02 12.15-89.02 12.15-42.86 0-73-34.15-65.9-80.26 2.97 33.46 34.04 58.26 66.9 58.26z" class="C G"/><path d="M1483 3133c-11.05 0-20 8.95-20 20v69c0 13.56 20 30.5 20 11v-67c0-7.18 5.82-13 13-13h192c7.18 0 13 5.82 13 13v67c0 19.5 20 2.56 20-11v-69c0-11.05-8.95-20-20-20h-218z" fill="#a8a8a8" class="D E"/><path d="M1465.1 3144.1c3.28-6.57 10.07-11.1 17.9-11.1h218c11.05 0 20 8.95 20 20v69c0 10.66-9 27.55-9 9v-69c0-15.5-4-20-20-20h-218c-3.2 0-6.23.75-8.9 2.1z" class="C M"/><path d="M1601.4 3259.9c56.8.05 92.98-68.1 58.6-115.27 15.9-45.2-18.1-95.4-66.66-96.55-56-1.34-88.37 58.5-82.5 109.13 5.48 47.3 37.52 102.65 90.57 102.7z" class="B D E O"/><path d="M1510.83 3157.2c6.78 58.57 54.37 126.8 125.37 93.8-68.83-8.8-117-125.5-83.1-191.84-5.4 3.84-13.9 8.34-27.6 27.6-12.3 21.73-17.7 46.2-14.66 70.43z" class="C G"/><path d="M1366 3216.5c-12.43 0-22.5 10.07-22.5 22.5v256c0 12.43 10.07 22.5 22.5 22.5h452c12.43 0 22.5-10.07 22.5-22.5v-256c0-12.43-10.07-22.5-22.5-22.5h-452z" fill="#ccc" class="D E"/><path d="M1366 3219c-11.05 0-20 8.95-20 20v36h50v-56h-30zm0 296c-11.05 0-20-8.95-20-20v-36h50v56h-30zm472-276c0-11.05-8.95-20-20-20h-30v56h50v-36zm-20 276c11.05 0 20-8.95 20-20v-36h-50v56h30z" fill="#848484"/><path d="M1370 3255c0-6.63 5.37-12 12-12h420c6.63 0 12 5.37 12 12v224c0 6.63-5.37 12-12 12h-420c-6.63 0-12-5.37-12-12v-224z" fill="#a8a8a8"/><path d="M1820 3295h-456v8h456v-8zm0 120h-456v8h456v-8zm-456-104h456v8h-456v-8zm456 120h-456v8h456v-8z" fill="#ccc"/><path d="M1455.9 3351.8h9.93v19.2c0 8.8-6.52 13.58-14.63 13.58-8.76 0-16.24-4.25-16.24-13.58v-19.2h9.93v19.66c0 3.34 2.15 5.6 5.52 5.6 3.35 0 5.5-2.28 5.5-5.6v-19.66zm16.47 0h16.54c6.23 0 10.8 3.37 10.8 9.9 0 10.04-9.82 10.37-17.33 10.37V3384h-10v-32.2zm10 13.73c2.75 0 7.64.44 7.64-3.56 0-4.13-4.75-3.62-7.64-3.62v7.18zm22.53-13.73h26.67v6.88h-16.7v5.1h15.5v6.57h-15.5v6.35h17.2v7.3h-27.16v-32.2zm80.87 21.54l9.47-.6c.42 3.13 2.26 5.47 5.65 5.47 1.97 0 4.43-1 4.43-3.32 0-2.95-4.04-3.63-6.2-4.1-5.37-1.2-12.15-3.56-12.15-10.13 0-7.16 7.72-9.42 13.7-9.42 6.6 0 12.4 2.45 13.27 9.6l-9.38.55c-.46-2.65-2.18-4.15-4.88-4.15-1.55 0-3.5.67-3.5 2.52 0 1.87 2.74 2.3 4.07 2.57 6.13 1.33 14.74 3.3 14.74 11.2 0 7.88-7.54 11.03-14.26 11.03-7.6 0-14.25-2.86-14.96-11.2zm34.23-21.54h26.68v6.88h-16.7v5.1h15.5v6.57h-15.5v6.35h17.18v7.3H1620v-32.2zm54 19.04l8.72 2.63c-1.76 7.36-7.32 11.1-14.6 11.1-10.2 0-16.74-6.75-16.74-16.74 0-9.95 6.23-16.6 16.28-16.6 7.08 0 12.46 3.15 14.74 10.02l-8.78 1.95c-.82-2.6-2.8-4.52-5.72-4.52-8.86 0-9.17 18.4-.35 18.4 3.85 0 5.7-2.78 6.44-6.26zm13.7 13.16v-32.2h16.6c6 0 12.48 1.55 12.48 8.94 0 4.73-3.25 8.02-7.78 9.05 6.14 2.05 7.72 9.03 10.4 14.22h-11.25c-2.48-4.6-3.97-13.07-10.43-13.07V3384h-10zm10-19.16c2.75 0 9.07.85 9.07-3.32 0-4.23-6.26-3.23-9.07-3.23v6.55zm24.87-13.04h26.68v6.88h-16.7v5.1h15.5v6.57h-15.5v6.35h17.18v7.3h-27.16v-32.2zm30.28 0h30.25v7.95h-10.15V3384H1763v-24.26h-10.15v-7.95zm-215.3 32.2v-32.2h16.6c6 0 12.48 1.55 12.48 8.94 0 4.73-3.25 8.02-7.78 9.05 6.13 2.05 7.72 9.03 10.4 14.22H1558c-2.48-4.6-3.97-13.07-10.43-13.07V3384h-10zm10-19.16c2.75 0 9.07.85 9.07-3.32 0-4.23-6.26-3.23-9.07-3.23v6.55zm-146.54 8.5l9.47-.6c.42 3.13 2.27 5.47 5.65 5.47 1.97 0 4.44-1 4.44-3.32 0-2.95-4.05-3.63-6.2-4.1-5.37-1.2-12.15-3.56-12.15-10.13 0-7.16 7.72-9.42 13.7-9.42 6.6 0 12.4 2.45 13.27 9.6l-9.38.55c-.46-2.65-2.18-4.15-4.88-4.15-1.55 0-3.5.67-3.5 2.52 0 1.87 2.73 2.3 4.06 2.57 6.13 1.33 14.74 3.3 14.74 11.2 0 7.88-7.54 11.03-14.26 11.03-7.6 0-14.25-2.86-14.96-11.2z" fill="#848484"/><path d="M2398.6 3259.9c-56.82.05-93-68.1-58.6-115.27-15.92-45.2 18.08-95.4 66.66-96.55 56-1.34 88.36 58.5 82.5 109.13-5.48 47.3-37.53 102.65-90.57 102.7z" class="B D E O"/><g class="C"><path d="M2489.17 3157.2c-6.78 58.57-54.37 126.8-125.37 93.8 68.82-8.8 117-125.5 83.1-191.84 5.4 3.84 13.9 8.34 27.6 27.6 12.3 21.73 17.7 46.2 14.66 70.43z" class="G"/><path d="M2489.73 1420.88c100.57 0 270.27-11.88 337.78-88.7-125.16-193.33-325.2-319.04-558.55-394.96 644.9 209.34 392.4-165.194-268.96-118.71-345.33 24.296-647.55 243.13-818.3 526.86 36.72 48.32 120 73.62 244.26 73.62 101.28 0 226.3-17 361.62-49 233.32 22.38 467.5 50.9 702.14 50.9z" class="L"/></g><use xlink:href="#Q" fill="#714d2c"/><g class="C M"><path d="M2287.33 513.82c-47 50.17-426.56 240.2-708.83 207.68-8.5-11.5-14.6-23.723-20.5-36.77 277 12.76 630.8-175.94 651.38-224.15 27.47-64.33-91.78-182.53-347.47-266.9 356.9 25.18 477.85 277.37 425.4 320.14zm530.27 769.85c-72.3 131.63-574.3 73.82-1031.56 30.22 105.83-18.3 216.9-42.5 320.9-66.9 274.54 5.82 533.5 17.93 594-27.8 55.68-42.13-7.46-152.76-49.46-199.35 106.6 53.04 223.97 158.5 166.1 263.82z"/><path d="M2642.2 1015.34c-41 48.6-332.6 216.45-856.15 298.55-278.47 66.08-527.42 71.25-598.45-20.76 252.9 36.87 1051.9-69.63 1374.6-327.8 47.88-38.303 31.3-149.52-20.68-211.14 128.2 34.55 142.87 188.56 100.68 261.14zM2503 747.5c-153.5 117.42-537.3 281.7-1116.9 233.35-6.6-14.115-11.88-28.8-15.78-43.9 526.93 24.28 986.47-175.25 1021.62-239.2s16.45-128-75.3-181.83C2448.1 534.86 2534 676.87 2503 747.5zm-780-242c41.42 3.1 178.53-14.76 295.87-89.03-106.1 28.2-220.24 34.44-332 14.5-4.77 19.23 15.63 54.52 36.13 74.52z"/></g><g stroke="#4d3117"><use xlink:href="#Q" stroke-width="16"/><path d="M1708 500.14c45.4 9.42 230.5-20.14 313-81.64M1782 1320c170.5-40 579.5-96 869.5-308M1373 977c121.6 12 731.3 63.87 1135.5-234M2296 504c-76.5 91.5-522.9 269.52-737 211" stroke-width="10" stroke-linecap="round" class="B"/></g><g class="C"><path d="M2338.74 643.325h-695.48c-27.62 0-54.94 5.795-80.18 17.01l-119.38 53.034c-12.94 5.75-8.72 38.768 7.36 33.868 48.78-14.86 99.07-36.46 149.55-44.414-6.1 80.565 42.7 232.798 187.1 232.798 147 0 203.4-141.728 197.17-234.174h12.37c-6.77 80.194 41.75 234.174 187 234.174 146.26 0 202.84-140.308 197.26-232.778 50.44 8 100.67 29.542 149.42 44.394 16.08 4.9 20.3-28.117 7.36-33.868l-119.38-53.034c-25.24-11.214-52.56-17.01-80.18-17.01z"/><path d="M2338.74 665.325h-695.48c-27.62 0-54.94 5.795-80.18 17.01L1448 747l152.6-22.178c-6.1 80.565 42.7 232.798 187.1 232.798 147 0 203.4-141.728 197.17-234.174h12.37c-6.77 80.194 41.75 234.174 187 234.174 146.26 0 202.84-140.308 197.26-232.778C2427 732.5 2478.5 741.5 2533.5 747.5l-114.58-65.166c-25.25-11.214-52.56-17.01-80.18-17.01z" class="L"/></g><path d="M2306.82 854.46c-111.85 90.942-272.2 0-272.2-138.908 52.82 93.108 166.18 148.735 272.2 138.908zm-396.52 0c-111.86 90.942-272.2 0-272.2-138.908 52.83 93.108 166.18 148.735 272.2 138.908z" class="K"/><path d="M1995.53 1169.77c91.3 0 189.9-37.35 220.2-125.97 5.06-14.05-7.34-28.22-22.4-26.07-65.58 9.3-131.74 14-197.97 14-66.24 0-132.4-4.68-197.98-14-15.04-2.14-27.27 11.95-22.4 26.07 30.63 88.62 129.23 125.97 220.53 125.97z" fill="#3d0c0c"/><path d="M1995.53 1163.63c49.84.08 102.93-12.44 145.92-39.68-89.3 5.8-209.8 7.64-291.47.47 42.9 27 95.5 39.12 145.55 39.2z" class="K"/><path d="M2305.16 1177.65c-58.28-11.37-148.25-35.6-193.4-67.04-12.78-8.9-12.85-35.06 13.18-37.2 87.08-7.2 158.8-3.06 212.9-.07 28.3 38.1 40.7 116.3-32.7 104.32z" fill="#b34a31"/><path d="M2265.14 1070.1l-2.15-.1c-17.27 27.02-24.77 61.18-20.75 92.96.58.18 1.16.34 1.82.5-4.17-31.95 3.5-66.32 21.08-93.37zm-64.4-.43c-15.88 20.23-24.9 46.3-25.4 72.05.33.16 1.1.46 1.66.66.37-26.02 9.8-52.44 26.06-72.7h-2.32zm-49.4 1.93c-10.52 15.8-16.76 32.48-18.83 51.37.53.25 1.1.58 1.66.83 2-19.23 8.37-36.33 19.26-52.3l-2.1.1z" fill="#933b2a"/><path d="M2200.4 1073c-29.75 3.37-63.08 6.7-92.96 8.63 1-1.5 3.72-3.78 5.65-4.8 28.55-1.9 61.35-8.2 89.97-7.14-.18.22-2.1 2.5-2.66 3.32zm-89.63 22.34c45.14 31.44 135.12 55.67 193.4 67.04 39.27 6.4 53.98-13 54.83-38.25 4.94 32-6.92 61.17-53.83 53.52-58.28-11.37-148.25-35.6-193.4-67.04-6.95-4.84-10.14-14.77-7.43-23.18 1.44 3.17 3.63 5.95 6.44 7.9z" class="C L"/><path d="M2306.8 1179.07c-8.76-1.48-23-2.6-24.14-13.25-.25-2.3 2-4.4 1.73-6.87-.62-5.7-8.28-5.2-9.64-10.62-1.18-4.74 5.1-6.57 5-12.82-.1-7.54-8.9-9.82-8.23-16.44.47-4.6 4.85-4.7 5.92-10.15 1.32-6.8-3.28-9.35-1.3-12.55 2.53-4.13 9.8-3.1 12.73-7.5 2.26-3.4 3.03-5.23 4.93-9.92 5.45-13.44 43.1-4.9 51.5-2.14 4.4 36.7-28.93 68.5-38.5 102.26z" fill="#eaeaea"/><path d="M2322.08 1184.05c-12.52-2.12-35.16-4.43-34.37-20.43.32-6.4-4.68-11.38-6.04-16.8-1.18-4.75 2.1-4.73 2.05-9.08-.1-7.54-5.46-10.34-4.78-16.96.48-4.6 3.67-4.52 4.73-9.97 1.33-6.8-.5-8.67 1.47-11.87 2.53-4.13 11.18-6.24 14.86-10.02 3.78-3.88 1.4-5.85 3.3-10.55 1.8-4.48 7.7-2.32 12.7-4.13 4.63-1.67 11.55-3.7 16.7-3.58 5.98.13 21.13 2.05 24.9 5 4.38 36.7-25.95 74.63-35.53 108.4z" fill="#c1c1c1"/><path d="M2395.78 1152c14.94-41.67-10.3-80-49.96-80-5 0-5.57 2.3-9.63 3.02-5.22.92-8.47-2.2-12.12 1.46-3.98 3.98-8.67 1.67-12.92 5.02-2.15 1.7-2.22 6.1-5.03 9.92-2.48 3.38-6.47 1.46-7.9 3.84-1.78 2.96 1.72 6.2-1.1 8.25-7.93 5.73-9.14 9.45-6.57 17.17 1 2.98-1.8 5.93-2.3 8.73-.62 3.5 1.25 6.18 1.95 10.54.9 5.6-2.9 6.78-1.06 10.6 1.18 2.52 4.1 5.1 4.67 8.77.56 3.64-1.43 6.3 0 9.45 11.56 25.5 87.04 24.9 101.98-16.76z" fill="#181818"/><path d="M2197.5 1069.84c5.62-9.03 9.8-18.3 12.35-27.65 2.95-10.85-4.88-19.94-15.62-18.4-131.6 18.42-266.08 18.65-397.66 0-10.76-1.5-18.6 7.56-15.63 18.4 2.54 9.35 6.72 18.62 12.34 27.65 93.22 12.78 281.63 16.76 404.22 0z" class="K"/><path d="M2167.1 1073.45c10.5-1.08 20.65-2.28 30.4-3.6 5.62-9.03 9.8-18.3 12.35-27.65 2.93-10.75-4.74-19.77-15.32-18.45-2.06.25-4.1.57-6.15.85-5 16.73-11.95 33.17-21.27 48.86zm-373.82-3.6c9.28 1.27 19.5 2.46 30.5 3.54-9.3-15.65-16.25-32.06-21.22-48.76-3.18-.44-6.48-1.23-9.7-.94-8.76.78-14.52 8.96-11.92 18.5 2.54 9.35 6.72 18.62 12.34 27.65zm290.55 80.5c20.2-6.08 39.8-15.1 57.62-26.4l-19.2 1.16c-11.36 9.16-24.12 17.65-38.4 25.24zm-214.1-24.4c11.25 8.96 23.87 17.26 38 24.67-20.24-6-39.88-14.94-57.74-26.2l19.75 1.52z" class="C G"/><path d="M2336.16 1172.04c2.37-.57 3.4-.05 3.87-.77.47-.7-.08-2.16-1.04-2.86-2.58-1.9-11.87 3.2-9.77 5.5.82 1.04 5.8-1.6 6.94-1.88zm-5.72-42.44c1.84-1.6 3-1.6 3.08-2.46.1-.85-1.07-1.88-2.24-2.06-3.16-.5-9.06 8.3-6.13 9.38 1.2.55 4.4-4.1 5.3-4.86zm17.06-42.27c-2.36-.63-5.82-3.7-6.58-3.3s-.34 3.77.17 4.84c1.36 2.9 14 2.94 13.25-.08-.22-1.3-5.7-1.17-6.84-1.47zm8.47 83.6c1.24 2.1 1.05 3.23 1.87 3.47.83.24 4.2-4.5 4.58-5.62 1.05-3.02-8.7-6.6-10.3-3.92-.76 1.08 3.24 5.06 3.84 6.07zm4.87-26.95c2.43-.2 3.37.47 3.95-.17.57-.64.1-3.4-.76-4.24-2.26-2.26-13.4 2.16-11.7 4.76.65 1.15 7.33-.25 8.5-.35zm-6.84-18c8.44 1.2 23.9-6.67 9.4-8.32-3.18-.37-11.43-3.1-12.2 4.93-.2 2.08 1.66 3.22 2.82 3.4zm-39.46 30.32c-4.5 1.08-10.56 4.15-4 8.9 2.58 1.9 13-7.75 10.9-10.06-.8-1.04-5.76.9-6.9 1.16zm-9.02-14.8c-1.63-1.8-1.67-2.97-2.52-3.04-.86-.07-1.86 1.1-2.02 2.3-.43 3.16 8.5 8.88 9.5 5.93.53-1.2-4.18-4.32-4.97-5.18zm4.08-32.37c1.2.3 6.44-2.64 6.2-3.96-.4-2.18-7.15-1.55-8.04.4-.58 1.3.5 3.2 1.85 3.55zm74.57 26.15c1.2.3 6.44-2.64 6.2-3.95-.4-2.2-7.15-1.56-8.04.4-.58 1.3.5 3.18 1.85 3.54zm-16.14-39.68c1.2.3 10.76.18 10.5-1.14-.4-2.18-12.52-6.72-13.42-4.76-.57 1.3 1.55 5.54 2.9 5.9zm8.85 12c.36 1.2 11.3 11.8 12.3 10.9 1.65-1.48-8.1-14.6-10.24-14.33-1.4.18-2.46 2.08-2.05 3.43zm-48.18 6.48c1.2.3 15.9-3.76 15.64-5.07-.45-2.17-16.7-.4-17.56 1.57-.55 1.3.56 3.17 1.92 3.5zm-7.5-19.48c2.8-2.1 9.27-1.68 9.03-3-.4-2.18-12.33.2-12.8 2.3-.7 3.12 2.65 1.55 3.77.7zm-6.6 33.8c1.42-3.5 2.06-5.17 1.28-6.47-10.13-9.42-7.2 21.1-1.28 6.47zm58.87 34.92c.83 1.73 1.68-3.45 2.6-5.67.58-1.38 4.14-4.86 3.47-5.8-3.6-5.03-7.6 8.3-6.08 11.47zm-38.57-11.87c1.2.3 6.43-.63 6.18-1.95-.4-2.18-6.18-7-8.04-1.6-.58 1.3.5 3.18 1.86 3.54z" fill="#b5482c"/><defs ><path id="B" d="M2782.93 2648c151.2 31.92 321.54 41.98 440.43-16.54 108.5-53.43-103.8-356.4-156.55-428.28-49.63-67.62 99.53-63.77 89.56-118.36-7.58-41.52-303.84-53.27-306.75-7.17-1.72 27.87 90.54 66.25 77.42 122.6-11.04 47.36-385.5 396.8-144.1 447.76z"/><path id="C" d="M3043.63 2457.35c6.5-6.87-30.15-77.17-109.83-67.1-10.17 1.28-56.92 14.8-70.62 84.14-4.23 21.37 33.93 9.1 40.03.98 14.6-19.45 36.88-43.05 51.7-43.35 7.63-.16 45.33 31.02 71.97 30.3 5.78-.16 12.47-.43 16.76-4.96z"/><path id="D" d="M2934.8 2454.3c-6.5 6.85 30.15 77.16 109.83 67.1 10.15-1.27 56.9-14.8 70.62-84.13 4.23-21.37-33.94-9.1-40.05-.98-14.6 19.44-36.86 43.04-51.68 43.34-7.63.15-45.33-31-71.96-30.3-5.8.16-12.48.43-16.76 4.97z"/><path id="E" d="M2749.75 2744.8c7.6-8-35.2-90.07-128.2-78.33-11.87 1.5-66.44 17.3-82.43 98.2-4.94 24.94 39.6 10.63 46.73 1.14 17.04-22.7 43.04-50.24 60.33-50.6 8.9-.2 52.9 36.2 84 35.36 6.75-.2 14.56-.5 19.56-5.8z"/><path id="F" d="M2622.74 2741.25c-7.6 8 35.2 90.07 128.2 78.33 11.85-1.5 66.42-17.3 82.43-98.2 4.94-24.95-39.6-10.64-46.74-1.15-17.03 22.7-43.03 50.24-60.32 50.6-8.9.18-52.9-36.2-84-35.36-6.75.18-14.56.5-19.56 5.8z"/><path id="G" d="M2950.46 2862.3c176.5 37.26 375.3 49 514.08-19.3 126.63-62.37-121.14-416-182.73-499.9-57.93-78.93 91-74.8 104.54-138.15 7.08-33.05-85.83-30.54-161.72-28.8-25.38.6-49.53-7.94-66.5-5.84-20.5 2.53-41 11.2-58.33 10.52-40-1.56-69.9-9.6-71.5 15.74-2 32.53 105.68 77.33 90.37 143.1-12.88 55.28-449.96 463.15-168.2 522.63z"/><path id="H" d="M3464.56 2843c-138.77 68.34-337.58 56.55-514.08 19.3-61-12.87-87.5-42-91.6-80.3 128.77 70.87 441.14 56.57 561.67-2.6 100.52-49.5-34.9-282.58-125.83-418.55 76.9 107.32 288.9 423.48 169.85 482.13z"/><path id="I" d="M3280.76 2311.78c-56.17-.1-112.36 2.27-168.6 7.1-7.44.75-7.96-12.35-.55-13.05 56.17-4.87 112.37-7.26 168.6-7.16 7.42.1 8.02 13.2.55 13.1z"/><path id="J" d="M3280.76 2320.58c-56 5.7-112.3 8.1-168.6 7.17-7.2-.25-8.06-13.36-.55-13.13 56.3.94 112.58-1.43 168.6-7.1 7.55-.9 7.72 12.25.55 13.06z"/><path id="K" d="M3279.34 2330.76c-56.3.23-112.53 3.76-168.4 10.6-7.54 1.06-7.98-12.1-.82-13.07 55.9-6.85 112.14-10.4 168.45-10.65 7.13.1 8.53 13.26.78 13.13z"/><path id="L" d="M3281.74 2331.2c-31.75 2.3-86.2 15-117.17 34.78-8.35 3.36-9.96-6.98-.35-13.12 31-19.8 85.5-37.93 117.17-34.78 7.6.76 10.1 12.42.35 13.12z"/><path id="M" d="M2545.63 3122.02c8.8-9.28-40.82-104.4-148.57-90.8-13.73 1.74-77 20.05-95.55 113.82-5.72 28.9 45.9 12.32 54.17 1.32 19.74-26.3 49.9-58.23 69.9-58.64 10.36-.2 61.36 42 97.36 41 7.83-.2 16.87-.58 22.68-6.7z"/><path id="N" d="M2398.45 3117.9c-8.8 9.28 40.82 104.4 148.57 90.8 13.73-1.73 77-20.04 95.55-113.8 5.72-28.9-45.9-12.32-54.17-1.32-19.75 26.3-49.9 58.22-69.9 58.63-10.37.2-61.37-42-97.37-41-7.83.2-16.86.58-22.67 6.7z"/><path id="O" d="M1107.63 2845.02c8.8-9.28-40.82-104.4-148.574-90.8-13.73 1.74-77 20.05-95.55 113.82-5.72 28.9 45.9 12.32 54.17 1.32 19.74-26.3 49.9-58.23 69.9-58.64 10.36-.2 61.364 42 97.364 41 7.83-.2 16.87-.58 22.68-6.7z"/><path id="P" d="M960.445 2840.9c-8.8 9.28 40.825 104.4 148.575 90.8 13.73-1.73 77-20.04 95.55-113.8 5.72-28.9-45.9-12.32-54.17-1.32-19.75 26.3-49.9 58.22-69.9 58.63-10.37.2-61.37-42-97.375-41-7.83.2-16.86.58-22.67 6.7z"/><path id="Q" d="M2488.73 1372.88c-175.28 0-399.83-21.7-617-42.7l-85.14-8.2c-135.32 32-260.34 49-361.62 49-149.77 0-240-36.75-260.94-106.27-13.87-46-3.72-98 29.34-150.3 42.5-67.2 118.72-125.33 181.38-139.5-26.85-64-24.47-125.78 7-175 17.13-26.8 42.5-49 73.38-64.28 30.45-15 65.6-23 101.7-23 2.36 0 4.74 0 7.12.1-13.1-20.9-21.1-41.3-23.8-60.8-3.1-21.02.43-42.486 10.13-61.4 18-35.2 53.1-57.3 79.44-69.62 25.2-11.8 53.56-19.8 77.05-22-21.43-25.22-30.46-48.57-27.56-71.05 5.46-42.2 51.57-69.3 92.25-93.22 25.3-14.86 51.44-30.24 53.93-43.33 4.07-21.37-8.86-38.18-20.27-53-8.86-11.5-16.5-21.44-13.3-31.95 2.77-9.07 12.3-13.2 19.25-15.5 10.25-3.42 23.32-5.15 38.85-5.15 39.4 0 96.6 11.48 157 31.5 58.5 19.4 112 43.94 146.86 67.33 50.45 33.86 90.58 71.3 116.06 108.32 14.4 20.9 24 41.54 28.5 61.35 4.1 18 4.05 35.43-.16 51.92 36.57 1.88 72.76 13.3 105.3 33.34 32.07 19.84 59.38 46.5 80 78.06 28.2 43.2 39 89.2 29.54 123.2 30.5 3.44 57.5 12.78 80.37 27.84s41.23 35.43 54.62 60.65c15.72 29.58 23.82 64.33 23.42 100.5-.33 30.33-6.74 59.1-18.17 82.07a539.489 539.489 0 0 1 91.22 58.56c47.13 37.68 77.45 76.44 90.1 115.2 11.42 34.94 8.1 69.26-9.9 102-17.24 31.38-56 53.42-118.42 67.38-54.17 12.04-125.3 17.92-217.54 17.92z"/></defs></svg>