<svg width="4000" height="4000" viewBox="0 0 4000 4000" fill="none" xmlns="http://www.w3.org/2000/svg">
<path d="M2275.11 3290.64C2224.34 3283.22 2159.95 3258.37 2078.25 3214.64C2066.38 3208.29 2061.58 3192.79 2068 3180.8C2074.35 3168.93 2089.85 3164.14 2101.84 3170.55C2177.29 3210.92 2238.02 3234.67 2282.34 3241.15C2311.27 3245.38 2332.09 3242.15 2344.22 3231.51C2357.83 3219.59 2356.61 3198.51 2353.05 3159.12C2348.88 3113 2343.69 3055.59 2372.83 2989.61C2416.83 2889.89 2526.46 2795.08 2641.92 2812.91C2715.25 2824.27 2785.52 2879.1 2801.65 2953.5C2815.38 3016.86 2795.63 3103.68 2728.12 3127.93C2683.35 3143.93 2632.19 3125.57 2597.28 3095.85C2586.84 3087.17 2585.33 3070.85 2594.22 3060.41C2603.03 3050.07 2619.37 3048.77 2629.7 3057.79C2630.13 3058.15 2673.36 3094.44 2711.19 3080.85C2754.03 3065.47 2760.96 3001.9 2752.75 2964.07C2741 2909.84 2687.15 2870.5 2634.24 2862.3C2541.4 2847.97 2453.44 2930.79 2418.52 3009.79C2394.61 3063.95 2398.96 3112.11 2402.8 3154.6C2406.8 3198.44 2410.51 3239.85 2377.13 3269.1C2349.47 3293.5 2310.06 3295.9 2275.11 3290.64Z" fill="#B4DF92" stroke="#333333" stroke-width="5" stroke-miterlimit="10"/>
<path d="M2787.15 2965.67C2798.21 3016.7 2788.33 3080.22 2749.33 3117.76C2800.73 3084.06 2814.4 3010.2 2802.15 2953.67C2786.02 2879.27 2715.76 2824.43 2642.42 2813.07C2576.16 2802.84 2510.64 2831.63 2460.88 2873.89C2575 2793.15 2754.16 2813.54 2787.15 2965.67Z" fill="black" fill-opacity="0.24"/>
<path d="M2718.12 3078.2C2691.09 3109.65 2642.53 3093.47 2615.23 3069.97C2612.09 3067.3 2608.33 3065.44 2604.29 3064.56C2600.26 3063.69 2596.07 3063.83 2592.1 3064.97C2596.07 3057.68 2603.73 3052.74 2612.02 3052.08C2618.63 3051.55 2625.18 3053.67 2630.23 3057.96C2652.3 3077.47 2690.07 3093.14 2718.12 3078.2Z" fill="black" fill-opacity="0.24"/>
<path d="M2074 3173.65C2077.5 3170.65 2089.5 3164.65 2097 3168.15C2103.98 3171.4 2112.34 3175.53 2121.73 3180.17C2171.15 3204.59 2249.2 3243.15 2305.5 3243.15C2355.5 3243.15 2360 3218.15 2353 3152.15C2353.85 3155.96 2354.92 3160.17 2356.06 3164.65C2365.68 3202.4 2380.15 3259.15 2305.5 3259.15C2224 3259.15 2096.71 3188.57 2074 3173.65Z" fill="black" fill-opacity="0.24"/>
<path d="M1587 3147C1623.5 3147 1652.66 3114.42 1649.04 3078.58C1643.62 3015.06 1667.66 2946.39 1714.99 2880.19C1758.05 2819.95 1804.2 2786.94 1768.7 2748C1733.2 2709.06 1653.14 2751.92 1613.3 2807.5C1547.59 2899.42 1516.11 2996.61 1524.67 3091.18C1527.86 3122.65 1550.5 3147 1587 3147Z" fill="#B4DF92" stroke="#333333" stroke-width="5" stroke-miterlimit="10"/>
<path d="M1553.09 3059.17C1552.67 2946.89 1642.7 2781.5 1748.2 2735C1618.2 2714 1503.2 2968.5 1525.49 3086.78C1532.7 3075 1545.2 3063.5 1553.09 3059.17Z" fill="black" fill-opacity="0.15"/>
<path d="M1959.37 3446.51C1964.37 3359.43 1986.77 3292.08 2006.54 3239.7C2026.31 3187.32 2048.96 3095 1963.98 3073.68C1842.48 3043.19 1775.67 3327.8 1770.68 3414.62C1767.75 3465.7 1807.5 3524.95 1859.08 3527.91C1906.56 3530.22 1956.53 3496.12 1959.37 3446.51Z" fill="#B4DF92" stroke="#333333" stroke-width="5" stroke-miterlimit="10"/>
<path d="M1769.48 3414.5C1820.98 3407.5 1917.48 3407.5 1957.98 3448.5C1958.32 3445.41 1959.42 3436.56 1959.64 3433.46C1917.48 3396.5 1821.48 3394 1771.62 3401C1771.36 3404.3 1769.76 3411.13 1769.48 3414.5Z" fill="black" fill-opacity="0.14"/>
<path d="M1785.48 3325C1833.24 3369.29 1894.36 3394.13 1963.48 3403.5C1964.06 3398.49 1965.29 3391.32 1965.98 3386.5C1897.38 3377.62 1837.78 3348.9 1789.98 3305.5C1787.98 3311.5 1786.36 3320.77 1785.48 3325Z" fill="black" fill-opacity="0.14"/>
<path d="M2040.63 3446.51C2035.63 3359.43 2013.23 3292.08 1993.46 3239.7C1973.69 3187.32 1951.04 3095 2036.02 3073.68C2157.52 3043.19 2224.33 3327.8 2229.32 3414.62C2232.25 3465.7 2192.5 3524.95 2140.92 3527.91C2093.44 3530.22 2043.47 3496.12 2040.63 3446.51Z" fill="#B4DF92" stroke="#333333" stroke-width="5" stroke-miterlimit="10"/>
<path d="M2230.52 3414.5C2179.02 3407.5 2082.52 3407.5 2042.02 3448.5C2041.68 3445.41 2040.58 3436.56 2040.36 3433.46C2082.52 3396.5 2178.52 3394 2228.38 3401C2228.64 3404.3 2230.24 3411.13 2230.52 3414.5Z" fill="black" fill-opacity="0.14"/>
<path d="M2214.52 3325C2166.76 3369.29 2105.64 3394.13 2036.52 3403.5C2035.94 3398.49 2034.71 3391.32 2034.02 3386.5C2102.62 3377.62 2162.22 3348.9 2210.02 3305.5C2212.02 3311.5 2213.64 3320.77 2214.52 3325Z" fill="black" fill-opacity="0.14"/>
<path d="M2413 3147C2376.5 3147 2347.34 3114.42 2350.96 3078.58C2356.38 3015.06 2332.34 2946.39 2285.01 2880.19C2241.95 2819.95 2195.8 2786.94 2231.3 2748C2266.8 2709.06 2346.86 2751.92 2386.7 2807.5C2452.41 2899.42 2483.89 2996.61 2475.33 3091.18C2472.14 3122.65 2449.5 3147 2413 3147Z" fill="#B4DF92" stroke="#333333" stroke-width="5" stroke-miterlimit="10"/>
<path d="M2446.91 3059.17C2447.33 2946.89 2357.3 2781.5 2251.8 2735C2381.8 2714 2496.8 2968.5 2474.51 3086.78C2467.3 3075 2454.8 3063.5 2446.91 3059.17Z" fill="black" fill-opacity="0.15"/>
<path d="M3133.19 1832.12C3244.29 1934.12 3199.51 2141.41 3124.1 2259.28C3016.64 2427.28 2770.63 2533.03 2644.64 2443.65C2513.06 2350.3 2530.24 2056.73 2683.84 1904.33C2798.52 1790.55 3018.29 1726.64 3133.19 1832.12Z" fill="#F7C394" stroke="#333333" stroke-width="5" stroke-miterlimit="10"/>
<path d="M3003.49 1952.22C3069.49 2020.41 3033.59 2148.9 2981.84 2220.1C2908.09 2321.55 2749.67 2378.79 2673.9 2317.96C2594.76 2254.43 2616.51 2070.74 2718.65 1980.78C2794.91 1913.62 2935.29 1881.7 3003.49 1952.22Z" fill="#FFC9A1"/>
<path d="M3124.1 2259.28C3063.41 2354.13 2929 2462.5 2777.5 2476C2883.86 2451 3037.51 2342.15 3084.14 2269.28C3159.55 2151.41 3199.5 1930.31 3093.23 1842.12C3060.82 1815.23 2978.5 1777 2865.5 1797C3003.5 1754.5 3088.29 1790.87 3133.23 1832.12C3244.29 1934.11 3199.51 2141.41 3124.1 2259.28Z" fill="black" fill-opacity="0.1"/>
<path d="M866.818 1832.12C755.718 1934.12 800.498 2141.41 875.908 2259.28C983.368 2427.28 1229.38 2533.03 1355.37 2443.65C1486.95 2350.3 1469.77 2056.73 1316.17 1904.33C1201.49 1790.55 981.718 1726.64 866.818 1832.12Z" fill="#F7C394" stroke="#333333" stroke-width="5" stroke-miterlimit="10"/>
<path d="M996.518 1952.22C930.518 2020.41 966.418 2148.9 1018.17 2220.1C1091.92 2321.55 1250.34 2378.79 1326.11 2317.96C1405.25 2254.43 1383.5 2070.74 1281.36 1980.78C1205.1 1913.62 1064.72 1881.7 996.518 1952.22Z" fill="#FFC9A1"/>
<path d="M875.908 2259.28C936.598 2354.13 1071.01 2462.5 1222.51 2476C1116.15 2451 962.491 2342.15 915.868 2269.28C840.458 2151.41 800.508 1930.31 906.778 1842.12C939.187 1815.23 1021.51 1777 1134.51 1797C996.508 1754.5 911.718 1790.87 866.778 1832.12C755.718 1934.11 800.498 2141.41 875.908 2259.28Z" fill="black" fill-opacity="0.1"/>
<path d="M2000 2548C2154 2548 2220 2683 2260 2794C2300 2905 2318 3014 2318 3086C2318 3238 2179.32 3391.46 2000 3393C1824.47 3394.51 1682 3238 1682 3086C1682 3014 1699.7 2904.5 1740 2794C1780 2683 1846 2548 2000 2548Z" fill="#B4DF92" stroke="#333333" stroke-width="5" stroke-miterlimit="10"/>
<path d="M2000 3393C1824.33 3394.59 1670 3236 1682 3056C1692 3204 1827.15 3344.48 2000 3343C2172.85 3341.52 2308 3204 2318 3056C2330 3236 2175.67 3391.41 2000 3393Z" fill="black" fill-opacity="0.15"/>
<path d="M2000 2672C2104 2672 2160 2740 2174 2800C2208.49 2947.82 2238 3074 2178 3150C2118 3226 2043.05 3232 2000 3232C1952.45 3232 1882 3226 1822 3150C1762 3074 1789.56 2956.17 1826 2800C1840 2740 1896 2672 2000 2672Z" fill="#F7C394" stroke="#333333" stroke-width="5" stroke-miterlimit="10"/>
<path d="M2000 3232C1864 3232 1776 3138 1787 3016C1791 3131 1883 3206 2000 3206C2117 3206 2209 3131 2213 3016C2224 3138 2136 3232 2000 3232Z" fill="black" fill-opacity="0.1"/>
<path d="M2456.64 2931.84C2445.41 2940.89 2367.5 2979.96 2331.15 2973.72C2320 2941.96 2309.5 2924.96 2298 2908.96C2322 2985.96 2342.5 3127.46 2293 3209.96C2232.2 3269.73 2109 3299.96 2000 3299.96C1891 3299.96 1767.8 3269.73 1707 3209.96C1667 3146.96 1667 3029.46 1702 2908.96C1692 2920.96 1684.72 2931.84 1668.85 2973.72C1625 2973.72 1573.77 2958.49 1541.36 2935.84C1562 2871.46 1594 2829.96 1604.22 2818.96C1736.28 2870.35 1856.5 2898.09 2000 2898.09C2143.5 2898.09 2284.48 2868.09 2398.59 2823.09C2405.71 2833.96 2443 2880.46 2456.64 2931.84Z" fill="#5F985A" stroke="#333333" stroke-width="5" stroke-linecap="round" stroke-linejoin="round"/>
<path d="M2457 2931.96C2423.5 2951.96 2374.5 2974.96 2331.5 2973.96C2325 2951.96 2303.36 2914.74 2298.5 2906.96C2315.86 2918.25 2324.12 2936.8 2332.46 2954.87C2373.66 2957.42 2428.5 2931.46 2450.5 2911.46C2452.5 2915.46 2456 2926.46 2457 2931.96Z" fill="black" fill-opacity="0.15"/>
<path d="M2320 3029.82C2330.5 3126.96 2310.22 3184.71 2291.46 3211.66C2206.5 3284.46 2083.68 3299.24 2000 3299.96C1881.67 3300.96 1767.06 3268.3 1706.26 3208.53C1679 3172.96 1675.31 3094.65 1676.19 3046.62C1676.95 3089.73 1687.08 3147.67 1715.5 3183.96C1762.3 3243.73 1881.67 3272 2000 3270.96C2129.24 3269.84 2245.61 3245.6 2291.34 3177.85C2319.24 3136.51 2319.28 3077.1 2320 3029.82Z" fill="black" fill-opacity="0.15"/>
<path d="M1669 2973.96C1626 2974.96 1575.5 2955.96 1542 2935.96C1542.5 2930.96 1548.5 2916.96 1550 2914.46C1572 2934.46 1626.84 2957.42 1668.04 2954.87C1674 2941.96 1682 2919.96 1702 2906.96C1697.14 2914.74 1675.5 2951.96 1669 2973.96Z" fill="black" fill-opacity="0.15"/>
<path d="M2395 2818C2279.65 2863.22 2124 2897 2000 2897C1876 2897 1740.66 2870.57 1605 2818C1597.76 2828.54 1588.39 2844.27 1582 2855C1724 2912 1857 2941 2000 2941C2143 2941 2276 2912 2418 2855C2411.85 2844.3 2402.07 2828.64 2395 2818Z" fill="black" fill-opacity="0.15"/>
<path d="M2500.32 839.001C2542.64 803.151 2376 763.001 2353.8 699.511C2327 623.001 2749.39 826.611 2685.37 960.591C2680.37 971.101 2629.94 1054.59 2267.76 936.821C2665.92 1066 2967.42 1339.94 2966 1847C2964.91 2235.75 2615.93 2837.81 1999.57 2843.18C1404.95 2848.37 1032.93 2246.96 1034 1847C1035.32 1358.56 1466.13 856.061 2000 818.501C2319.41 796.051 2465.29 868.601 2500.32 839.001Z" fill="#B4DF92" stroke="#333333" stroke-width="5" stroke-linecap="round" stroke-linejoin="round"/>
<path d="M2565.16 861.341C2535.5 926.501 2353.35 821.341 2033.94 843.801C1380.48 889.738 907.001 1615 1169.36 2202.88C1237.5 2132.5 1320.5 2112.5 1346.95 2103.72C1354.89 2112.29 1364.55 2121.39 1368 2125.5C1286.63 2150.85 1192.07 2205.91 1151.37 2282.34C1075.1 2134.74 1034.37 1979.78 1034.78 1847.01C1036.1 1358.56 1467 856.011 2000.87 818.441C2320.28 795.991 2465.43 868.541 2500.46 838.901C2542.64 803.151 2376 763.001 2353.81 699.511C2345.24 675.051 2382.63 679.241 2435.36 700.641C2415.36 697.761 2404.36 702.471 2409.81 716.511C2429.19 766.901 2590.11 806.531 2565.16 861.341Z" fill="black" fill-opacity="0.14"/>
<path d="M2964.5 1847.07C2964.14 1974.81 2926.38 2125.58 2853.96 2270.64C2779 2168 2644.73 2127 2631 2127C2635 2122 2647 2107.3 2651 2102.5C2674.5 2108 2779.62 2130.41 2838.28 2208.7C2897.58 2076.55 2924.8 1953.54 2925.12 1837.84C2926.59 1313.6 2571.5 1053 2267.76 936.821C2665.92 1066 2965.92 1340 2964.5 1847.07Z" fill="black" fill-opacity="0.14"/>
<path d="M1725 1203.5C1428 1203.5 1060 1832 1361.5 2122C786.001 2302 1361.5 2901 2000 2901C2638.5 2901 3214 2302 2638.5 2122C2940 1832 2572 1203.5 2275 1203.5C2148.5 1203.5 2079.49 1262 2000 1320C1920.5 1262 1851.5 1203.5 1725 1203.5Z" fill="#FFCD98" stroke="#333333" stroke-width="5"/>
<path d="M2749.1 1817C2733.4 1508.46 2484.1 1203.81 2267.6 1203.81C2133 1203.81 2051.4 1285.95 2000 1320C1958.9 1291.95 1867.5 1203.81 1731.6 1203.81C1476 1203.81 1253.5 1577 1249.47 1826.52C1227 1558 1433.07 1155 1733 1155C1889 1155 1972 1230 2000 1261C2028 1230 2111 1155 2267 1155C2564.63 1155 2770.5 1536.5 2749.1 1817Z" fill="black" fill-opacity="0.14"/>
<path d="M1148.6 2266.67C1012.67 2511.93 1482.92 2900.5 2000 2900.5C2517.08 2900.5 2993.17 2507.65 2849.75 2262.64C2945.11 2486.75 2490.72 2863 2000 2863C1512.21 2863 1060.31 2491.22 1148.6 2266.67Z" fill="black" fill-opacity="0.1"/>
<path d="M1250.37 1807.39C1243.26 1924.84 1274.39 2037.4 1361.82 2121.5C1351.4 2124.76 1341.35 2129.16 1331.67 2132.69C1354 2125.5 1375.33 2120.41 1400 2116C1315.46 2034.68 1266.53 1924.24 1250.37 1807.39Z" fill="black" fill-opacity="0.1"/>
<path d="M2670.5 2133C2648.74 2126.59 2625.9 2120.63 2600 2116C2685.32 2033.93 2734.37 1922.19 2750.07 1804.14C2757.96 1922.76 2727.06 2036.63 2638.82 2121.5C2650.14 2125.04 2660.06 2129.14 2670.5 2133Z" fill="black" fill-opacity="0.1"/>
<path d="M1759.66 1403.06C1914.55 1421.06 2026.14 1611.81 2009.66 1779.83C1993.28 1947.17 1846.97 2121.83 1679.78 2102.83C1527.98 2085.53 1429.52 1916.61 1426.28 1774.67C1421.97 1584.51 1587.12 1383 1759.66 1403.06Z" fill="white"/>
<path d="M1947.73 1825.22C1969.84 1711.27 1908.23 1603.46 1810.13 1584.43C1712.03 1565.4 1614.58 1642.34 1592.47 1756.3C1570.36 1870.25 1631.97 1978.06 1730.07 1997.09C1828.17 2016.13 1925.62 1939.18 1947.73 1825.22Z" fill="#D1FFAD" stroke="#333333" stroke-width="5" stroke-miterlimit="10"/>
<path d="M1781.2 1941.56C1839.71 1941.56 1887.14 1888.52 1887.14 1823.1C1887.14 1757.68 1839.71 1704.64 1781.2 1704.64C1722.69 1704.64 1675.26 1757.68 1675.26 1823.1C1675.26 1888.52 1722.69 1941.56 1781.2 1941.56Z" fill="black"/>
<path d="M1874.89 1740.31C1882.34 1719.26 1870.48 1695.86 1848.39 1688.04C1826.31 1680.22 1802.36 1690.95 1794.91 1712C1787.46 1733.05 1799.33 1756.45 1821.41 1764.27C1843.5 1772.08 1867.44 1761.36 1874.89 1740.31Z" fill="white" stroke="#333333" stroke-width="5" stroke-miterlimit="10"/>
<path d="M1835.89 1427C1631.51 1371.11 1461.41 1613.25 1465.58 1795.01C1468.05 1902.26 1524.94 2024.8 1618.28 2086.66C1501.88 2037.88 1429.08 1896.33 1426.28 1774.66C1421.95 1584.55 1587.1 1383.07 1759.64 1403.11C1786.32 1406.3 1812.17 1414.4 1835.89 1427Z" fill="black" fill-opacity="0.05"/>
<path d="M1863.62 1605.54C1750.77 1573.47 1650.88 1670.84 1630.47 1775.98C1613.72 1862.33 1644.54 1945.2 1702.82 1989.33C1620.94 1957.33 1572.59 1859.4 1592.57 1756.44C1614.69 1642.44 1712.15 1565.55 1810.25 1584.59C1829.17 1588.26 1847.26 1595.36 1863.62 1605.54Z" fill="black" fill-opacity="0.15"/>
<path d="M2234 1398.91C2079.46 1419.59 1971.21 1612.27 1990.6 1779.99C2009.9 1946.99 2159.23 2119.09 2326.07 2097.12C2477.54 2077.18 2573.07 1906.57 2573.8 1764.6C2574.78 1574.44 2406.14 1375.87 2234 1398.91Z" fill="white"/>
<path d="M2273.74 1992.69C2371.49 1971.95 2431.2 1863.08 2407.11 1749.53C2383.02 1635.98 2284.24 1560.74 2186.48 1581.48C2088.73 1602.23 2029.02 1711.09 2053.11 1824.64C2077.21 1938.2 2175.98 2013.43 2273.74 1992.69Z" fill="#D1FFAD" stroke="#333333" stroke-width="5" stroke-miterlimit="10"/>
<path d="M2221.84 1937.7C2280.34 1936.68 2326.84 1882.83 2325.7 1817.41C2324.55 1752 2276.21 1699.8 2217.71 1700.82C2159.2 1701.84 2112.71 1755.7 2113.85 1821.11C2114.99 1886.53 2163.34 1938.73 2221.84 1937.7Z" fill="black"/>
<path d="M2288.34 1764.39C2310.28 1756.19 2321.74 1732.58 2313.92 1711.67C2306.11 1690.75 2281.98 1680.44 2260.03 1688.64C2238.09 1696.85 2226.63 1720.45 2234.45 1741.37C2242.27 1762.28 2266.39 1772.59 2288.34 1764.39Z" fill="white" stroke="#333333" stroke-width="5" stroke-miterlimit="10"/>
<path d="M2573.77 1764.6C2573.11 1887.87 2501.02 2032.73 2382.89 2081.81C2478.18 2020.19 2534.97 1893.73 2535.55 1784.26C2536.51 1600.68 2354.46 1353.02 2149.6 1429.08C2175.6 1413.48 2203.89 1402.94 2233.97 1398.91C2406.14 1375.87 2574.78 1574.44 2573.77 1764.6Z" fill="black" fill-opacity="0.05"/>
<path d="M2295.09 1986.4C2355.95 1942.75 2387.69 1857.33 2368.96 1769.1C2346.56 1663.56 2242.47 1567.69 2130.22 1605.4C2147.25 1593.77 2166.39 1585.58 2186.56 1581.29C2284.32 1560.54 2383.1 1635.77 2407.21 1749.29C2429.51 1854.39 2380.05 1955.46 2295.09 1986.4Z" fill="black" fill-opacity="0.15"/>
<path d="M1910 3556C1942 3556 1973.09 3532.4 1976.7 3499.86C1985.81 3417.65 1882.35 3410.18 1826.03 3408.94C1768.93 3407.69 1672 3418.5 1655.01 3481.21C1640.16 3536 1691.5 3556 1728 3556C1764.5 3556 1777 3543.85 1820.98 3543.85C1859.39 3543.85 1878 3556 1910 3556Z" fill="#F7C394" stroke="#333333" stroke-width="5" stroke-miterlimit="10"/>
<path d="M1909 3534C1877 3534 1858.39 3521.85 1819.98 3521.85C1776 3521.85 1763.5 3534 1727 3534C1698.61 3534 1661.25 3521.9 1653.03 3490.74C1646.3 3538.34 1693.7 3556 1728 3556C1764.5 3556 1777 3543.85 1820.98 3543.85C1859.39 3543.85 1878 3556 1910 3556C1952.86 3556 1983 3521.85 1975.91 3475.74C1972.94 3509.2 1941.87 3534 1909 3534Z" fill="black" fill-opacity="0.1"/>
<path d="M2090 3556C2058 3556 2026.91 3532.4 2023.3 3499.86C2014.19 3417.65 2117.65 3410.18 2173.97 3408.94C2231.07 3407.69 2328 3418.5 2344.99 3481.21C2359.84 3536 2308.5 3556 2272 3556C2235.5 3556 2223 3543.85 2179.02 3543.85C2140.6 3543.85 2122 3556 2090 3556Z" fill="#F7C394" stroke="#333333" stroke-width="5" stroke-miterlimit="10"/>
<path d="M2091 3534C2123 3534 2141.6 3521.85 2180.02 3521.85C2224 3521.85 2236.5 3534 2273 3534C2301.39 3534 2338.75 3521.9 2346.97 3490.74C2353.7 3538.34 2306.3 3556 2272 3556C2235.5 3556 2223 3543.85 2179.02 3543.85C2140.6 3543.85 2122 3556 2090 3556C2047.14 3556 2017 3521.85 2024.09 3475.74C2027.06 3509.2 2058.13 3534 2091 3534Z" fill="black" fill-opacity="0.1"/>
<path d="M1601.4 3259.89C1658.21 3259.94 1694.38 3191.78 1659.99 3144.62C1675.9 3099.41 1641.9 3049.23 1593.33 3048.07C1537.33 3046.73 1504.96 3106.57 1510.83 3157.2C1516.31 3204.51 1548.35 3259.85 1601.4 3259.89Z" fill="#F7C394" stroke="#333333" stroke-width="5" stroke-miterlimit="10"/>
<path d="M1510.83 3157.2C1517.61 3215.77 1565.2 3284 1636.2 3251C1567.37 3242.2 1519.2 3125.5 1553.09 3059.16C1547.7 3063 1539.2 3067.5 1525.49 3086.77C1513.2 3108.5 1507.79 3132.97 1510.83 3157.2Z" fill="black" fill-opacity="0.1"/>
<path d="M2398.6 3259.89C2341.78 3259.94 2305.61 3191.78 2340.01 3144.62C2324.09 3099.41 2358.09 3049.23 2406.67 3048.07C2462.67 3046.73 2495.03 3106.57 2489.17 3157.2C2483.69 3204.51 2451.64 3259.85 2398.6 3259.89Z" fill="#F7C394" stroke="#333333" stroke-width="5" stroke-miterlimit="10"/>
<path d="M2489.17 3157.2C2482.39 3215.77 2434.8 3284 2363.8 3251C2432.62 3242.2 2480.8 3125.5 2446.91 3059.16C2452.3 3063 2460.8 3067.5 2474.51 3086.77C2486.8 3108.5 2492.21 3132.97 2489.17 3157.2Z" fill="black" fill-opacity="0.1"/>
<path d="M1785 2099C1785 2175.35 1883.85 2268 2001.26 2267C2109.48 2266.05 2215 2174.45 2215 2099.22C2215 1947.09 1785 1944.79 1785 2099Z" fill="black" fill-opacity="0.1"/>
<path d="M1782 2081C1782 2157.35 1882.23 2250 2001.27 2249C2111 2248.05 2218 2156.45 2218 2081.22C2218 2020.69 2091.76 1967.45 2001.27 1968.22C1917.25 1969 1782 2009.38 1782 2081Z" fill="#7A5D43"/>
<path d="M1783.58 2067.77C1825.34 2122.52 1908.26 2168.71 2001.43 2167.99C2087.64 2167.31 2172.35 2120.87 2215.52 2066.44C2217.14 2071.3 2218 2076.23 2218 2081.22C2218 2156.45 2111 2248.05 2001.27 2249C1882.23 2250 1782 2157.35 1782 2081C1782 2076.46 1782.54 2072.05 1783.58 2067.77Z" fill="black" fill-opacity="0.2"/>
<path d="M1123.5 1458.5C1433.5 736.5 2789.37 870.744 2943 1619.5C2172 1297 1677 1331.5 1123.5 1458.5Z" fill="black" fill-opacity="0.15"/>
<circle cx="2216" cy="476" r="190.5" fill="#ADE6A8" stroke="#333333" stroke-width="5"/>
<path d="M2136 589C2242.59 589 2329 502.591 2329 396C2329 363.293 2320.86 332.487 2306.5 305.494C2367.48 337.928 2409 402.116 2409 476C2409 582.591 2322.59 669 2216 669C2142.11 669 2077.93 627.483 2045.49 566.506C2072.49 580.864 2103.29 589 2136 589Z" fill="black" fill-opacity="0.1"/>
<path d="M2925.5 1335C2853.5 896 2655 583.354 2145 544C1503.5 494.499 1220 990.5 1202.5 1173.5C1671 1067 2416 1098.5 2925.5 1335Z" fill="#8BC586" stroke="#333333" stroke-width="5"/>
<path d="M2144.99 544C2655 583.354 2853.5 896 2925.5 1335C2843.8 1297.08 2756.04 1264.42 2664.34 1236.77C2572.45 852.522 2365 587.793 1914.5 550.687C1913.8 550.629 1913.1 550.572 1912.4 550.516C1984 540.358 2061.46 537.554 2144.99 544Z" fill="black" fill-opacity="0.1"/>
<path d="M2976.5 1252.5C2855 1160.78 2561.5 1034 2080 994.5C1801.22 971.63 1236 1012.5 1153.5 1077C1071 1141.5 1038 1429.18 1172 1399C1338.5 1361.5 1630.5 1308 2040.5 1330.5C2348.56 1347.41 2785 1491.8 2892.5 1552C3000 1612.2 3098 1344.22 2976.5 1252.5Z" fill="#5F985A" stroke="#333333" stroke-width="5"/>
<path d="M1081.47 1280.03C1095.27 1310.44 1119.87 1327.59 1158 1319C1324.5 1281.5 1616.5 1228 2026.5 1250.5C2334.55 1267.4 2771 1411.8 2878.5 1472C2949.45 1511.73 3016.25 1408.52 3018.56 1307.37C3066.7 1420.91 2982.97 1602.66 2892.5 1552C2785 1491.8 2348.56 1347.41 2040.5 1330.5C1630.5 1308 1338.5 1361.5 1172 1399C1106.92 1413.66 1081.23 1353.34 1081.47 1280.03Z" fill="black" fill-opacity="0.15"/>
<path d="M2000.41 2770.5C2275.41 2770.5 2572.41 2658 2663.66 2391.06C2678.91 2348.76 2641.57 2306.08 2596.21 2312.53C2398.68 2340.6 2199.42 2354.68 1999.91 2354.68C1800.4 2354.68 1601.13 2340.59 1403.6 2312.53C1358.28 2306.09 1321.44 2348.54 1336.14 2391.06C1428.41 2658 1725.41 2770.5 2000.41 2770.5Z" fill="#3D0C0C"/>
<path d="M2000.41 2752C2150.54 2752.26 2310.45 2714.55 2439.92 2632.5C2171 2650 1808 2655.5 1562 2633.91C1691.2 2715.26 1849.69 2751.74 2000.41 2752Z" fill="white"/>
<path d="M2266.36 2712C2327.23 2693.7 2386.26 2666.51 2439.92 2632.5C2421.07 2633.73 2401.77 2634.89 2382.07 2636C2347.84 2663.59 2309.4 2689.14 2266.36 2712Z" fill="black" fill-opacity="0.1"/>
<path d="M2350.51 2592.3C2308.43 2571.52 2311.79 2486.71 2390.2 2480.22C2468.45 2468.86 2535.76 2470.92 2607 2472C2796.84 2474.88 3091 2488 3219 2522C3244.79 2528.85 3245.42 2552.76 3243.5 2561.5C3240.26 2576.24 3223.68 2594.96 3203.5 2592C3166 2586.5 3112.52 2583.51 3103.5 2664C3095.61 2734.4 3135.57 2742.52 3170.5 2753C3190.5 2759 3201.56 2780.34 3195 2801.79C3190.5 2816.5 3173.89 2827.32 3154.5 2825C2960.5 2801.79 2608 2719.5 2350.51 2592.3Z" fill="#B4DF92"/>
<path fill-rule="evenodd" clip-rule="evenodd" d="M2329.64 2517.72C2334.4 2525.37 2341.04 2531.6 2349.3 2535.37C2600.39 2650.06 2937.96 2720.61 3136.61 2741.29C3145.66 2745.67 3155.65 2748.62 3165.45 2751.5C3167.14 2752 3168.83 2752.5 3170.5 2753C3190.5 2759 3201.56 2780.34 3195 2801.79C3190.5 2816.5 3173.89 2827.32 3154.5 2825C2960.5 2801.79 2608 2719.5 2350.51 2592.3C2325.63 2580.01 2316.64 2545.35 2329.64 2517.72Z" fill="black" fill-opacity="0.1"/>
<path fill-rule="evenodd" clip-rule="evenodd" d="M2430.21 2475.42L3121.5 2566.5L3089 2633L2342.55 2499.78C2353.36 2489.42 2369.05 2481.97 2390.2 2480.22C2403.84 2478.24 2417.15 2476.67 2430.21 2475.42Z" fill="#D7FFB7"/>
<path d="M2350.51 2592.3C2308.43 2571.52 2311.79 2486.71 2390.2 2480.22C2468.45 2468.86 2535.76 2470.92 2607 2472C2796.84 2474.88 3091 2488 3219 2522C3244.79 2528.85 3245.42 2552.76 3243.5 2561.5C3240.26 2576.24 3223.68 2594.96 3203.5 2592C3166 2586.5 3112.52 2583.51 3103.5 2664C3095.61 2734.4 3135.57 2742.52 3170.5 2753C3190.5 2759 3201.56 2780.34 3195 2801.79C3190.5 2816.5 3173.89 2827.32 3154.5 2825C2960.5 2801.79 2608 2719.5 2350.51 2592.3Z" stroke="#333333" stroke-width="5"/>
<path d="M2952.5 2516L3123.35 2540.06" stroke="#95C271" stroke-width="8" stroke-linecap="round"/>
<path d="M3077 2677.5L2523.5 2565" stroke="#95C271" stroke-width="8" stroke-linecap="round"/>
<path d="M3219 2522C3244.8 2528.82 3245.42 2552.76 3243.5 2561.5C3240.26 2576.24 3223.68 2594.96 3203.5 2592C3166 2586.5 3128.55 2612 3123.5 2657C3118.46 2702 3135.57 2742.52 3170.5 2753C3190.5 2759 3201.56 2780.34 3195 2801.79C3190.5 2816.5 3173.89 2827.32 3154.5 2825C2979 2804 3035.5 2473.5 3219 2522Z" fill="#E0F0D0" stroke="#333333" stroke-width="5"/>
<path d="M3129.7 2597C3117.77 2609.49 3108.37 2627.6 3104.5 2653C3094 2722 3124.5 2763.5 3161.5 2771.5C3178.89 2775.26 3179.32 2788.5 3177.5 2793.5C3172.59 2807 3159.62 2807.12 3144.5 2802.5C3126.6 2797.03 3110.63 2786.12 3099 2774M3167.5 2575.31C3178.34 2572.69 3188.98 2572.51 3198 2574C3211 2576.14 3223.24 2569.5 3225 2560.5C3226.08 2555 3227 2544.54 3208.5 2541C3109.87 2522.12 3060.97 2622.75 3072.5 2707.5" stroke="#C8D8B9" stroke-width="8" stroke-linecap="round"/>
<path d="M2663 2474C2573.37 2484.15 2427.5 2499.21 2337.5 2505C2340.5 2500.5 2348.7 2493.61 2354.5 2490.5C2440.51 2484.73 2513.29 2466.81 2599.5 2470C2598.97 2470.66 2664.68 2471.5 2663 2474Z" fill="black" fill-opacity="0.2"/>
<path d="M2608.75 2469.5C2625.68 2442.31 2638.27 2414.37 2645.95 2386.21C2654.85 2353.54 2631.26 2326.17 2598.91 2330.76C2202.55 2386.26 1797.47 2386.96 1401.12 2330.77C1368.72 2326.21 1345.14 2353.54 1354.04 2386.21C1361.71 2414.37 1374.29 2442.32 1391.22 2469.5C1672 2508 2239.5 2520 2608.75 2469.5Z" fill="white"/>
<path d="M1391.22 2469.51C1419.17 2473.34 1449.96 2476.91 1483.11 2480.18C1455.06 2433.04 1434.16 2383.6 1419.21 2333.31C1409.62 2331.99 1399.67 2329.6 1389.94 2330.46C1363.55 2332.81 1346.2 2357.44 1354.04 2386.22C1361.71 2414.38 1374.29 2442.32 1391.22 2469.51Z" fill="black" fill-opacity="0.1"/>
<path d="M1621.5 2638.47C1655.38 2665.48 1693.38 2690.48 1735.91 2712.8C1674.95 2694.71 1615.79 2667.78 1562 2633.92C1581.16 2635.6 1601.02 2637.11 1621.5 2638.47Z" fill="black" fill-opacity="0.1"/>
<path d="M2517.23 2480.38C2548.82 2477.14 2579.41 2473.52 2608.75 2469.51C2625.69 2442.32 2638.27 2414.37 2645.95 2386.22C2654.77 2353.85 2631.69 2326.68 2599.8 2330.65C2593.62 2331.42 2587.46 2332.36 2581.29 2333.22C2566.25 2383.6 2545.29 2433.13 2517.23 2480.38Z" fill="black" fill-opacity="0.1"/>
</svg>
