<svg xmlns="http://www.w3.org/2000/svg" xmlns:xlink="http://www.w3.org/1999/xlink" width="4000" height="4000" fill="none" xmlns:v="https://vecta.io/nano"><style><![CDATA[.B{fill:#000}.C{stroke-miterlimit:10}.D{stroke:#333}.E{fill-opacity:.3}.F{stroke-width:5}.G{fill:#262c30}.H{fill:#353535}.I{fill-opacity:.1}.J{fill:#f7c394}.K{fill-opacity:.2}.L{fill:#202021}.M{fill:#141619}.N{stroke-linecap:round}.O{fill:#b5b2b4}.P{fill:#28323c}.Q{fill:#868488}.R{stroke-width:14.22}.S{stroke-width:10.74}.T{fill-rule:evenodd}]]></style><path d="M2275.1 3287.64c-50.77-7.42-115.16-32.27-196.86-76-11.87-6.35-16.66-21.85-10.25-33.84 6.35-11.87 21.85-16.66 33.84-10.25 75.45 40.37 136.18 64.12 180.5 70.6 28.93 4.23 49.75 1 61.88-9.64 25.86-22.65 11.35-113.8 28.6-152.9 44-99.72 153.63-194.53 269.1-176.7 73.33 11.36 143.6 66.2 159.73 140.6 13.73 63.36-6.02 150.18-73.53 174.43-44.77 16-95.92-2.36-130.84-32.08-10.44-8.68-11.95-25-3.06-35.44 8.8-10.34 25.15-11.64 35.48-2.62.43.36 43.66 36.65 81.5 23.06 42.84-15.38 49.77-78.95 41.56-116.78-11.75-54.23-65.6-93.57-118.5-101.77-92.84-14.33-180.8 68.5-215.72 147.5-24 54.37 6.85 128.04-41.4 170.3-27.66 24.4-67.07 26.8-102.02 21.54z" class="C D F H"/><path d="M2786.65 3051.53c11.06 51.02 1.18 114.55-37.82 152.08 51.4-33.7 65.07-107.56 52.82-164.08-16.13-74.4-86.4-129.24-159.73-140.6-66.26-10.23-131.78 18.56-181.54 60.82 114.12-80.75 293.3-60.36 326.27 91.78zm-69.03 112.53c-27.03 31.45-75.6 15.26-102.9-8.23-3.14-2.68-6.9-4.54-10.94-5.4a25.037 25.037 0 0 0-12.19.41c3.98-7.3 11.64-12.23 19.93-12.9 6.6-.53 13.15 1.6 18.2 5.9 22.07 19.5 59.84 35.17 87.9 20.24zm-644.12 42.44c15.72-13.48 32.62-.94 47.73 6.53 49.42 24.4 127.47 59.97 183.77 59.97 50 0 78.5-17.5 86.5-82 4 0 14.5.5 18.5 3-6.5 68.5-49 96.5-105 96.5-81.5 0-208.8-69.07-231.5-84z" class="B E"/><path d="M1587 3147c36.5 0 65.66-32.58 62.04-68.42-5.42-63.52 18.62-132.2 65.95-198.4 43.06-60.25 89.2-93.25 53.7-132.2s-115.56 3.92-155.4 59.5c-65.7 91.92-97.2 189.1-88.63 283.68 3.2 31.47 25.83 55.82 62.33 55.82z" class="C D F H"/><path d="M1553.1 3059.16c-.42-112.27 89.6-277.66 195.1-324.16-130-21-245 233.5-222.7 351.77 7.2-11.77 19.7-23.27 27.6-27.6z" class="B E"/><path d="M1959.37 3446.5c5-87.08 27.4-154.43 47.17-206.8s42.42-144.7-42.56-166.02c-121.5-30.5-188.3 254.12-193.3 340.94-2.93 51.08 36.82 110.33 88.4 113.3 47.48 2.3 97.45-31.8 100.3-81.4z" class="C D F H"/><path d="M1769.48 3414.5c51.5-7 148-7 188.5 34l1.66-15.04c-42.16-36.96-138.16-39.46-188.02-32.46-.26 3.3-1.86 10.13-2.14 13.5zm16-89.5c47.76 44.3 108.88 69.13 178 78.5.58-5 1.8-12.18 2.5-17-68.6-8.88-128.2-37.6-176-81-2 6-3.62 15.27-4.5 19.5z" class="B E"/><path d="M2040.63 3446.5c-5-87.08-27.4-154.43-47.17-206.8s-42.42-144.7 42.56-166.02c121.5-30.5 188.3 254.12 193.3 340.94 2.93 51.08-36.82 110.33-88.4 113.3-47.48 2.3-97.45-31.8-100.3-81.4z" class="C D F H"/><path d="M2230.52 3414.5c-51.5-7-148-7-188.5 34l-1.66-15.04c42.16-36.96 138.16-39.46 188.02-32.46.26 3.3 1.86 10.13 2.14 13.5zm-16-89.5c-47.76 44.3-108.88 69.13-178 78.5-.58-5-1.8-12.18-2.5-17 68.6-8.88 128.2-37.6 176-81 2 6 3.62 15.27 4.5 19.5z" class="B E"/><path d="M2413 3147c-36.5 0-65.66-32.58-62.04-68.42 5.42-63.52-18.62-132.2-65.95-198.4-43.06-60.25-89.2-93.25-53.7-132.2s115.56 3.92 155.4 59.5c65.7 91.92 97.2 189.1 88.63 283.68-3.2 31.47-25.83 55.82-62.33 55.82z" class="C D F H"/><path d="M2446.9 3059.16c.42-112.27-89.6-277.66-195.1-324.16 130-21 245 233.5 222.7 351.77-7.2-11.77-19.7-23.27-27.6-27.6z" class="B E"/><path d="M2000 2548c154 0 220 135 260 246s58 220 58 292c0 152-138.68 305.46-318 307-175.53 1.5-318-155-318-307 0-72 17.7-181.5 58-292 40-111 106-246 260-246z" class="C D F H"/><path d="M2000 3393c-175.67 1.6-330-157-318-337 10 148 145.15 288.48 318 287s308-139 318-287c12 180-142.33 335.4-318 337z" class="B E"/><path d="M2000 2672c104 0 160 68 174 128 34.5 147.82 64 274 4 350s-134.95 82-178 82c-47.55 0-118-6-178-82s-32.44-193.83 4-350c14-60 70-128 174-128z" class="C D F J"/><g class="B"><path d="M2000 3232c-136 0-224-94-213-216 4 115 96 190 213 190s209-75 213-190c11 122-77 216-213 216z" class="I"/><path d="M2443.64 2907.4l-121.66 34.53c13.05 27 22 54.04 26.47 80.58l120.8-34.25c-5.53-27.03-14.12-54.04-25.6-80.86zm-128.44 124.55c-2.48-25.9-6.65-54.38-12.6-84.5l-278.06 78.92c-8.33-7.55-20.28-10.3-31.07-7.12l-123.04 34.17-139.65 38.85c-1.68-5.44-7.12-9.05-12.7-7.4l-35.95 9.16c1.58 48.4 17.4 96.95 43.9 140.44l33.55-8.45c5.63-1.65 8.27-7.52 6.7-13.08l116.77-34.3c2.57 4.6 8.14 6.88 13.2 5.4l51.14-15c6.97-2.05 9.24-9.2 7.36-15.58l72-21.15c11.54-3.4 20.46-13.2 22.78-25L2315.2 3032z" class="E"/></g><path d="M1910 3556c32 0 63.1-23.6 66.7-56.14 9.1-82.2-94.35-89.68-150.67-90.92-57.1-1.25-154.03 9.56-171.02 72.27-14.85 54.8 36.5 74.8 73 74.8s49-12.15 92.98-12.15c38.4 0 57.02 12.15 89.02 12.15z" class="C D F J"/><path d="M1909 3534c-32 0-50.6-12.15-89.02-12.15-43.98 0-56.48 12.15-92.98 12.15-28.4 0-65.75-12.1-73.97-43.26-6.73 47.6 40.67 65.26 74.97 65.26 36.5 0 49-12.15 92.98-12.15 38.4 0 57.02 12.15 89.02 12.15 42.86 0 73-34.15 65.9-80.26-2.97 33.46-34.04 58.26-66.9 58.26z" class="B I"/><path d="M2090 3556c-32 0-63.1-23.6-66.7-56.14-9.1-82.2 94.35-89.68 150.67-90.92 57.1-1.25 154.03 9.56 171.02 72.27 14.85 54.8-36.5 74.8-73 74.8s-49-12.15-92.98-12.15c-38.42 0-57.02 12.15-89.02 12.15z" class="C D F J"/><path d="M2091 3534c32 0 50.6-12.15 89.02-12.15 43.98 0 56.48 12.15 92.98 12.15 28.4 0 65.75-12.1 73.97-43.26 6.73 47.6-40.67 65.26-74.97 65.26-36.5 0-49-12.15-92.98-12.15-38.4 0-57.02 12.15-89.02 12.15-42.86 0-73-34.15-65.9-80.26 2.97 33.46 34.04 58.26 66.9 58.26z" class="B I"/><path d="M2398.6 3259.9c-56.82.05-93-68.1-58.6-115.27-15.92-45.2 18.08-95.4 66.66-96.55 56-1.34 88.36 58.5 82.5 109.13-5.48 47.3-37.52 102.65-90.57 102.7z" class="C D F J"/><g class="B"><path d="M2489.17 3157.2c-6.78 58.57-54.37 126.8-125.37 93.8 68.82-8.8 117-125.5 83.1-191.84 5.4 3.84 13.9 8.34 27.6 27.6 12.3 21.73 17.7 46.2 14.66 70.43z" class="I"/><path d="M2289.5 2885.5c3.2 5.06 16.58 26.95 19.5 32 28.13 2.9 54.34 7.4 82.26 11.86 7.74 12.64 36.74 28.14 64.24 5.14-23.5-81-132.04-219.75-235.9-285.42-93.6-194.1-297.73-209.8-412.2-9.16C1691.34 2702.85 1578 2826 1542 2941.5c20 11.5 47.5 7.5 63.13-8.8l.9-.15c28.62-4.66 54.54-8.9 83.47-11.65 5.35-9.2 15.05-25.4 20.5-33.4-2.43 8.6-5.5 24.5-6.8 33.4 0 0 84.3-22.2 296.8-22.2s296 17.8 296 17.8c-.92-4.75-5.48-26.06-6.5-31z" class="E"/></g><g fill="#0e0e0f"><path d="M1944.63 715.13h110.74c13.1 0 24.46 8.495 28.8 20.198 605.73 27.316 651.13 358.412 717.48 842.342h0l13.17 94.88C2894 1916.5 2985 2450.5 3028.16 2891.5c-58.9-7.5-312.5-25.34-556.35-39.05-8.98 34.58-54.7 47.75-80.53 21.85l-39.9-7.26c-75.77-10.9-182.94-15.03-351.4-15.03-141.44 0-251.62 6.52-329.4 15.56l-65.4 10c-26.7 21.8-68.42 7.56-76.9-25.13l-556.4 39.07c40.03-390.8 123.6-894.02 213.33-1218.93l13.18-94.98c66.34-483.85 111.73-814.963 717.42-842.282 4.36-11.7 15.72-20.193 28.8-20.198z" stroke-width="10" class="D"/><path d="M1528.3 2852.45l-556.4 39.07c40.03-390.8 123.6-894.02 213.33-1218.93C1264.4 1115.13 1272 733.5 2000 733.5s735.65 381.56 814.83 939.05C2894 1916.5 2985 2450.5 3028.16 2891.5c-58.9-7.5-312.5-25.34-556.35-39.05-8.98 34.58-54.7 47.75-80.53 21.85-247.18-48.5-537.98-37.93-786.07 3.28-26.7 21.8-68.42 7.56-76.9-25.13z"/></g><path d="M2131.5 1583.93c32.03 26 324.34 18 360.34-30 304.24-405.67 61-638.686-22.95-730.275C2359.8 765.192 2209.8 733.5 2000 733.5c-209.8 0-359.78 31.696-468.87 90.163-83.9 91.582-327.23 324.607-22.96 730.307 36.04 48 328.3 56.04 360.34 30s131.5-322.3 131.5-408.38c0 86.07 99.47 382.34 131.5 408.34z" class="G"/><path d="M1469.05 1880.92c83.35-115.5 327.83-113.76 415.87-4.8 38.07 47.16 43.86 102.9 44.46 109.5 3.5 38.05 2.12 98.58-38.54 117.3-44.93 20.1-188.68 11.8-188.68 11.8-80.75-4.65-212.9 11.02-258.24-73.57-27.33-50.83-3.8-120.13 25.13-160.2z" fill="#131516"/><g class="G"><path d="M2644.5 2288c-45.35 52.24-215 274-246.4 464.16L2089.7 2288c32.6-14.72 70.36-27 109.7-32.35 68-9.33 418.9 20.12 445.1 32.34zm-736.83-.9c-55.17 87.83-214.76 330.7-305.64 465.94-31-190.4-201.12-412.75-246.55-465.07 26.22-12.2 377.12-41.65 445.1-32.34 38.57 5.27 75.3 17.14 107.08 31.47z"/><path d="M2393.5 2825.68c-256.9-27.26-530.08-26.98-787 0 1.3-23.37-.38-47.75-4.45-72.66l305.64-465.94c32.7 14.72 66 33.37 91.5 58.9 25.2-25.2 58.27-43.46 90.54-58.02 105.25 153.04 205.46 309.56 308.4 464.15-4.08 24.28-5.95 48.97-4.63 73.57z"/></g><path d="M1691 2757.2v24.06l-18.42 2.1 18.42-26.16zm112.77-163.05v177.3l-51 3.82-1.34-104.76 52.34-76.36zm111.05-171.75l-1.9 343.8-49.75 1.93V2504.7c19.34-29.8 36.7-57.38 51.66-82.3zm413.73 363.1c-3.82-.48-10.52-1.18-19.53-2V2757l19.53 28.5zm-80.03-114.5l-1.38 107.2-50.9-3.78v-180.3l52.3 76.87zm-111.67-171.2v270.75l-49.75-2.78-2-355.2 51.75 87.22zM2026 2386.72v378.55c-19.65-.57-37.36-.8-52-.55v-378h52z" class="M"/><path d="M1435.1 2107.4c.8-6.45 21.37-9.75 29.82-9.68s13.95 19.42 49.28 25 316.07 38.15 410.9-12.53c9.82 7.4 20.4 29.8 20.7 36.88-2.36 7.08-118.17 80-284.4 74.35-136.47-4.63-190.58-24.78-199.43-32.45s-27.74-74.66-26.87-81.57z" class="G"/><path d="M1668.52 1839.63c-37.1 0-115.7 5.4-151 65.64m-31 54.6c-6.28 9.26-9.8 41.72-7.92 51" stroke="#e6e6e6" stroke-width="30.07" class="C N"/><path d="M2531 1880.92c-83.35-115.5-327.83-113.77-415.86-4.8-44.02 54.52-50.4 116.4-37.16 181.76 3.94 19.5 12.6 36.47 31.23 45.04 44.93 20.1 188.68 11.8 188.68 11.8 80.77-4.65 212.88 11.02 258.25-73.57 27.28-50.83 3.75-120.13-25.14-160.2z" fill="#131516"/><path d="M2564.9 2107.4c-.8-6.45-21.37-9.75-29.8-9.68s-14 19.42-49.3 25-316.07 38.15-410.9-12.53c-9.82 7.4-20.4 29.8-20.7 36.88 2.36 7.08 118.17 80 284.4 74.35 136.47-4.63 190.6-24.78 199.44-32.45s27.73-74.66 26.86-81.57z" class="G"/><path d="M1939.9 1877.56c23.5-11 107-10.08 124.46 1.42m-115.06 44.1c23.5-11 82.77-11.5 100.18 0m-88.48 44.1c23.5-11 60-10.7 77.43.8M1961 2010.7c23.5-11 60-10.7 77.43.8" stroke="#2c343a" class="C N R"/><path opacity=".3" d="M2054.46 2305.32c8.7-5.27 7.94-4.55 18-9.6l-5.3-7.73c-15.24 6.87-30.05 14.66-44.36 23.3 40.84 59.13 98.68 169.6 173.44 282.84 53.43 80.9 103.1 147.62 132.32 191.36-94.56-6-202.56-21.77-328.56-21.77s-244.23 9.9-327.42 19.65c152.52-216.07 276.8-401.78 299.7-473a409.729 409.729 0 0 0-44.2-23.24l-5 7.9c9.87 5 10.58 4.93 19.14 10.14-110.52 176.97-240.46 345.07-347.72 523.84 70.5-19 244.5-26.72 405.5-26.72s288.5 4.72 393.4 21.77l-338.94-518.73z" class="B"/><path d="M1958.1 2057.75c23.5-11 65.42-12.2 82.84-.7" stroke="#2c343a" class="C N R"/><path d="M1563.34 2886.43l-13.76-47.8c64.7-18.62 177.92-36.36 450.42-36.36s362 13.24 436.37 31.55l-13.55 47.87c-77.58-22-193.32-29.67-422.82-29.67s-376.7 17.17-436.66 34.42z" class="M"/><path d="M2317.77 1856.22c-37.1 0-115.7 5.38-151 65.64m-31 54.6c-6.28 9.25-9.8 41.7-7.92 51" stroke="#e6e6e6" stroke-width="30" class="C N"/><path d="M2491.84 1553.93c-36 48-328.3 56.06-360.34 30S2000 1261.66 2000 1175.6c0 86.07-99.46 382.34-131.5 408.38s-324.3 18-360.33-30c-122.24-163-156.1-296.58-147.42-404 7.47 95.07 48.52 207.68 147.42 339.54 36 48 328.3 56.06 360.33 30s131.5-322.28 131.5-408.35c0 86.07 99.46 382.34 131.5 408.38s324.3 18 360.34-30c98.88-131.86 139.93-244.46 147.4-339.54 8.7 107.37-25.16 240.93-147.4 403.93zm-546.04 593.13c-2.36 7.07-118.17 80-284.4 74.34-136.47-4.63-190.58-24.8-199.44-32.45s-27.72-74.65-26.85-81.56c.18-1.48 1.4-2.8 3.3-3.95 5.67 22.47 17.2 58.53 23.54 64 8.86 7.67 63 27.82 199.44 32.45 146.12 5 253.27-50.77 278.67-69.13 3.34 6.7 5.58 13.1 5.72 16.3zM2538 2189c-8.85 7.66-62.95 27.82-199.42 32.45-166.23 5.64-282-67.27-284.4-74.34.14-3.2 2.4-9.6 5.73-16.27 25.38 18.36 132.55 74.1 278.67 69.13 136.47-4.63 190.57-24.78 199.42-32.45 6.36-5.5 17.88-41.56 23.55-64 1.9 1.15 3.14 2.47 3.32 3.95.9 6.83-17.97 73.8-26.87 81.53z" class="B E"/><path d="M2901.15 2064.77c-77.94-138.7-186.1-318.62-346.4-371.27-168.38-55.23-409.23 24.5-554.76 107.63-129.34-73.68-308.36-121.22-455.96-121.22-213.96 0-352.1 219.15-445.17 384.86 35.58-196.88 66.5-330.18 89.74-386.5l.38-.93.84-2c56.65-71.63 155.62-128 248.54-128 105.67 0 428.14 26.16 560.9 179.33 106.25-150.17 456.25-179.33 562.3-179.33 92.96 0 191.93 56.33 248.6 128l.6 1.4c23.3 55.44 54.46 189.25 90.38 388.02z" class="G"/><path d="M2890.24 2034.9c-76.78-131.68-181.3-296.38-333.84-346.5-174.44-57.25-404.8 24.56-556.4 106.57-132.18-71.56-306.4-120.44-456-120.44-206.1 0-341.17 200.67-434.26 360.35l11.92-63.1c92.15-153.6 223.82-340.2 422.32-340.2 149.63 0 323.78 48.9 456 120.44 152-82.35 388.5-161.76 556.4-106.56 145.68 47.9 246.66 200.92 321.9 326.34l11.96 63.1z" class="B E"/><g stroke="#0e0e0f"><path d="M2888.86 2030.93c-35.28-61.55-76.53-128.63-125.4-187.9-57.17-69.32-125.17-128.4-206.84-155.24h0c-85.68-28.1-189.24-21.75-289.2 1.8-98.7 23.24-194.58 63.4-267.45 104.64-130-73.23-308.43-120.32-455.95-120.32-109.22 0-198.7 55.98-272.23 132.12-64.56 66.85-117.26 149.7-160.68 225.02 32.93-177.9 61.46-298.2 83.03-350.5l.01-.05.02-.04c.1-.26.13-.3.15-.37.03-.07.07-.15.2-.48l.5-1.2c55.8-70.15 152.83-125.08 243.33-125.08 52.48 0 159.04 6.5 268.93 32.07 110.13 25.62 222.34 70.1 287.43 145.2l5 5.78 4.42-6.24c25.75-36.4 66.56-65.82 115.48-89.44 48.87-23.6 105.43-41.2 162.18-54.16 113.53-25.94 227.1-33.2 279.75-33.2 90.54 0 187.57 54.9 243.4 125.1l.27.65c21.63 51.44 50.38 172.2 83.62 351.85z" stroke-width="12"/><use xlink:href="#B" class="C G S"/></g><g class="B"><path d="M2055.37 720.5h-110.74c-13.8.005-25.33 11.54-25.34 25.34v963.88c-.05 23.5-3 66.78 19.9 79.5 12.7 7.07 35.35 12.53 47.6 18.23 7.83 3.64 17.13 3.4 24.75-.67 10.87-5.78 29.06-13.36 40.44-18.38 17.94-7.9 28.68-57.4 28.73-81.06v-961.5c-.01-13.8-11.54-25.335-25.34-25.34zm14.55 895.16c.02 48.7-22.03 61.07-59.38 80.93-6.6 3.52-14.66 3.73-21.44.57-43.27-20.13-59.12-29.03-59.02-79.44v-835.1c0-11.983 10.02-22 22-22H2048c11.98 0 22 10.017 22 22l-.08 833.03z" class="E"/><path opacity=".2" d="M2644.5 2288c-45.35 52.24-215 274-246.4 464.16L2089.7 2288c4.67-2.1 9.43-4.15 14.3-6.15l283.38 427.35c26.6-161 152.18-344.5 217.63-428.8 20.77 2.84 35 5.46 39.5 7.58zm-736.83-.9c-55.17 87.83-214.76 330.7-305.64 465.94-31-190.4-201.12-412.75-246.55-465.07 4.53-2.1 18.74-4.72 39.5-7.58 65.6 84.44 191.5 268.52 217.78 429.7l281.9-428.6c4.42 1.8 8.75 3.7 13 5.6z"/><path d="M2109.47 2408.2h-220.64c0-10-6.53-51.5 8-87.77-5.64 29.73-1.63 58.2-1.63 66.3h209.36c0-4.18 3.48-28.56-.5-56.27 11.17 35.55 5.4 72.55 5.4 77.74z" fill-opacity=".4"/></g><g class="G"><use xlink:href="#B" stroke="#0e0e0f" class="C S"/><use xlink:href="#B"/></g><path d="M2462.2 2846.05l-37.23 33c-.3-.34-.65-.76-1-1.23-142.57-174.16-250.7-381.36-378.58-566.53 14.3-8.64 29.12-16.43 44.36-23.3l372.45 558.06z" class="M"/><use xlink:href="#C" class="P"/><use xlink:href="#D" class="Q"/><path d="M1951.87 2310.35c-117.96 188.9-248.37 385.65-376.82 568.75l-37.18-33.05 369.8-558.9c15.2 6.82 29.95 14.57 44.2 23.2z" class="M"/><use xlink:href="#C" x="-850.49" class="P"/><use xlink:href="#D" x="-850.49" class="Q"/><path d="M1999.87 2240.2c-126.18 0-104.68 127.82-104.68 146.53h209.36c0-10.43 21.65-146.53-104.68-146.53z" class="P"/><path d="M2000 2266.7c-89.6 0-81 88-81 93.52h162c0-12.2 5.48-93.52-81-93.52z" class="Q"/><g fill="#ff1f1f" class="T"><path d="M1946.1 3139.56L1902 2992 3449.4 2529.6c40.75-12.18 83.65 10.98 95.82 51.73 12.18 40.74-10.98 83.64-51.72 95.82l-1547.4 462.42z" fill-opacity=".05"/><path d="M1946.1 3129.12l-38.36-128.4 1544.5-461.56c35.46-10.6 72.8 9.56 83.38 45 10.6 35.45-9.55 72.78-45 83.38l-1544.5 461.56z" class="I"/><path d="M2019.9 3096.64l-32.64-109.23 1467.86-438.66c30.16-9 61.92 8.13 70.93 38.3s-8.13 61.92-38.3 70.94L2019.9 3096.64z" class="K"/></g><path d="M3457.98 2558.33c24.87-7.43 51.06 6.7 58.5 31.58s-6.7 51.05-31.57 58.5l-1458.28 435.8-26.92-90.06 1458.28-435.8z" fill="#ff1f1f"/><g class="T"><path d="M2033.34 3071.75l1448.7-432.94c19.58-5.85 30.7-26.46 24.86-46.04s-26.47-30.7-46.05-24.86l-1448.7 432.93 21.2 70.9z" fill="#ff6e6e"/><path d="M2040.06 3059.3l1439.1-430.07c14.3-4.27 22.4-19.3 18.14-33.6s-19.32-22.4-33.6-18.14L2024.6 3007.56l15.47 51.74z" fill="#ffb6b6"/><path d="M2042.94 3048l1433.37-428.35c9-2.7 14.1-12.16 11.42-21.15-2.7-9-12.16-14.1-21.16-11.43L2033.2 3015.43l9.73 32.57z" fill="#ffebeb"/><path d="M2040.08 3038.42l1433.36-428.35c3.7-1.1 5.8-5 4.7-8.7-1.1-3.7-5-5.8-8.7-4.7L2036.07 3025l4 13.4z" fill="#fff"/></g><path d="M2033.03 3000.87c-4.43-14.82-20.03-23.24-34.84-18.8l-72.82 21.76-4.87-16.3c-1.9-6.35-8.58-9.96-14.93-8.06l-60.37 18.04c-6.35 1.9-9.96 8.58-8.06 14.93l3.15 10.54-109.22 32.64c-3.22-3.94-8.6-5.78-13.8-4.23l-98.7 29.5c-5.9 1.76-9.6 7.33-9.26 13.2l-11.83 3.53c-.95-3.17-4.3-4.98-7.47-4.03l-278.35 83.18c-2.18-3-6.1-4.44-9.85-3.3l-22.03 6.58c-4.77 1.43-7.47 6.44-6.05 11.2l.86 2.88-5.75 1.7-1.43-4.8c-1.1-3.7-5-5.8-8.7-4.7l-7.67 2.3c-3.7 1.1-5.8 5-4.7 8.7l1.7 5.67c-4.46 3.44-6.58 9.4-4.87 15.1l28.06 93.9c1.7 5.72 6.75 9.54 12.37 9.96l1.7 5.67c1.1 3.7 5 5.8 8.7 4.7l7.67-2.3c3.7-1.1 5.8-5 4.7-8.7l-1.43-4.8 5.75-1.72.86 2.88c1.42 4.76 6.43 7.46 11.2 6.04l22.03-6.58c3.76-1.13 6.23-4.48 6.42-8.18l278.35-83.2c3.17-.94 4.98-4.3 4.03-7.46l11.83-3.54c2.94 5.1 9.1 7.72 14.98 5.96l98.7-29.5c5.18-1.55 8.68-6.04 9.2-11.1l114.02-34.08.57 1.92c1.9 6.35 8.65 9.94 15.08 8.02l51.44-15.38c6.43-1.92 10.1-8.62 8.2-14.97l-2.3-7.67 76.65-22.9c14.82-4.43 23.24-20.03 18.8-34.85l-17.75-59.4z" stroke-width="10" class="D"/><path d="M1289.94 3189.54l36.08 120.72-37.37 11.17c-7.4 2.2-15.2-2-17.42-9.4l-28.06-93.9c-2.22-7.4 2-15.2 9.4-17.42l37.37-11.16z" class="L"/><path d="M1618.58 3091.32l36.0777 120.7245-316.1832 94.489-36.0777-120.7245z" class="O"/><path d="M1328.45 3273l10.02 33.54 316.2-94.5-10.03-33.54-316.18 94.5z" class="B K"/><g class="L"><use xlink:href="#E"/><use xlink:href="#E" x="15.47" y="51.73"/><path d="M1620.96 3197.07c3.17-.95 6.5.86 7.46 4.03l5.16 17.25c.95 3.17-.86 6.52-4.03 7.46l-283.6 84.76-8.6-28.75 283.6-84.75z"/></g><path d="M1851.8 3019.54l37.223 124.557-142.7615 42.6633-37.223-124.557z" class="O"/><path d="M1765.54 3114.1l-12.23-36.8c-2.15-6.47.54-13.27 6.03-15.18l84.63-29.63c5.48-1.96 11.65 1.77 13.8 8.24l12.23 36.8c2.16 6.46-.54 13.26-6 15.18l-84.64 29.63c-5.5 1.9-11.66-1.78-13.8-8.24z" class="B E"/><path d="M1769.72 3110.06l-11.65-35.08c-2.05-6.16.52-12.64 5.75-14.46l80.62-28.22c5.2-1.83 11.1 1.7 13.15 7.85l11.65 35.07c2.05 6.17-.52 12.64-5.75 14.47l-80.6 28.22c-5.24 1.83-11.13-1.7-13.18-7.85z" fill="#9b9b9b"/><g fill="#303030"><path d="M1839.3 3053.32c2.1-.72 3.15-3.15 2.37-5.43-.8-2.28-3.13-3.53-5.22-2.8s-3.15 3.16-2.36 5.43c.8 2.28 3.12 3.54 5.2 2.8zm5.8 16.76c2.1-.73 3.15-3.16 2.36-5.44-.8-2.27-3.12-3.53-5.2-2.8-2.1.72-3.16 3.15-2.37 5.43.8 2.27 3.12 3.53 5.22 2.8zm5.8 16.76c2.1-.72 3.15-3.15 2.36-5.43-.8-2.27-3.12-3.53-5.22-2.8s-3.15 3.16-2.36 5.43c.8 2.28 3.12 3.54 5.22 2.8zm-27.1-28.16c2.1-.72 3.15-3.15 2.36-5.43-.78-2.27-3.12-3.53-5.2-2.8-2.1.73-3.15 3.16-2.37 5.43.8 2.28 3.13 3.54 5.22 2.8zm5.8 16.76c2.1-.73 3.16-3.16 2.37-5.43-.8-2.28-3.12-3.54-5.22-2.8-2.1.72-3.15 3.15-2.36 5.43.8 2.27 3.12 3.53 5.2 2.8z"/><use xlink:href="#F"/><path d="M1808.3 3064.05c2.1-.73 3.15-3.16 2.36-5.44-.8-2.27-3.12-3.53-5.2-2.8-2.1.73-3.16 3.16-2.37 5.44.8 2.27 3.12 3.53 5.22 2.8zm5.8 16.75c2.1-.72 3.16-3.16 2.37-5.43-.8-2.28-3.12-3.54-5.22-2.8-2.1.72-3.15 3.15-2.36 5.43s3.12 3.53 5.2 2.8zm5.8 16.77c2.1-.72 3.15-3.15 2.36-5.43-.78-2.27-3.12-3.53-5.2-2.8-2.1.73-3.15 3.16-2.37 5.44.8 2.27 3.13 3.53 5.22 2.8z"/><use xlink:href="#F" x="-42.6" y="-22.8"/><path d="M1798.6 3086.18c2.1-.72 3.15-3.15 2.36-5.43-.78-2.28-3.12-3.53-5.2-2.8-2.1.73-3.15 3.16-2.36 5.43.78 2.28 3.12 3.54 5.2 2.8zm5.8 16.76c2.1-.73 3.15-3.16 2.36-5.44-.8-2.27-3.12-3.53-5.22-2.8-2.1.72-3.15 3.15-2.36 5.43.8 2.27 3.12 3.53 5.22 2.8zm-27.1-28.16c2.1-.73 3.15-3.16 2.37-5.44-.8-2.27-3.13-3.53-5.22-2.8-2.1.73-3.15 3.16-2.36 5.44.8 2.27 3.12 3.53 5.2 2.8zm5.8 16.76c2.1-.72 3.15-3.16 2.36-5.43-.8-2.28-3.12-3.53-5.2-2.8-2.1.72-3.16 3.16-2.37 5.43.8 2.28 3.12 3.53 5.22 2.8zm5.8 16.76c2.1-.73 3.15-3.16 2.36-5.43-.8-2.28-3.12-3.54-5.22-2.8-2.1.72-3.15 3.15-2.36 5.43.8 2.27 3.12 3.53 5.22 2.8z"/></g><path d="M1717.28 3051.4c6.88-2.05 14.12 1.86 16.17 8.74l34.36 114.97c2.06 6.88-1.85 14.12-8.73 16.18l-98.7 29.5c-6.88 2.06-14.12-1.85-16.17-8.73l-34.36-114.98c-2.06-6.88 1.85-14.12 8.73-16.18l98.7-29.5z" class="L"/><path d="M1629.9 3164.13l14.32 47.9c2.05 6.88 9.3 10.8 16.17 8.73l98.7-29.5c6.88-2.06 10.8-9.3 8.73-16.18l-14.3-47.9c2.05 6.88-1.86 14.13-8.74 16.18l-98.68 29.5c-6.88 2.06-14.13-1.85-16.18-8.73z" class="B"/><circle cx="1833.28" cy="3131.71" r="20" transform="rotate(73.3616 1833.28 3131.71)" fill="#a77559"/><path d="M1817.76 3132.17c3.16 10.58 14.3 16.6 24.9 13.44 3.42-1.03 6.37-2.88 8.68-5.3-2.35 4.92-6.7 8.87-12.33 10.55-10.58 3.16-21.72-2.85-24.9-13.44-2.14-7.16-.07-14.57 4.76-19.6-2.06 4.32-2.6 9.4-1.1 14.34z" class="B K"/><path d="M1998.2 2982.06c14.8-4.43 30.4 4 34.84 18.8l17.75 59.4c4.43 14.82-4 30.42-18.8 34.85l-97.73 29.2-33.78-113.06 97.73-29.2z" class="L"/><path d="M1924.8 3092.7l9.45 31.62 97.73-29.2c14.82-4.43 23.24-20.03 18.8-34.85l-9.45-31.62c4.43 14.82-4 30.42-18.8 34.85l-97.73 29.2z" class="B"/><path d="M1916.38 2987.72l41.23 137.97c1.9 6.35-1.78 13.05-8.2 14.98l-51.44 15.37c-6.43 1.92-13.18-1.67-15.08-8.02l-41.23-137.97 74.73-22.33z" fill="#9b9b9b"/><path d="M1905.57 2979.47c6.35-1.9 13.03 1.7 14.93 8.06l32.93 110.18c1.9 6.35-1.7 13.04-8.06 14.94L1885 3130.7c-6.35 1.9-13.03-1.72-14.93-8.07l-32.93-110.18c-1.9-6.35 1.7-13.04 8.06-14.93l60.37-18.04z" class="L"/><path d="M1846.16 2997.22c-6.6 1.97-11.1 8.2-9.02 15.22l32.93 110.18c1.9 6.35 8.58 9.96 14.93 8.07l60.37-18.04c6.35-1.9 9.96-8.6 8.06-14.94l-6-20.12-59.4 17.76c-6.35 1.9-13.04-1.72-14.93-8.07l-26.92-90.06z" class="B"/><path d="M1258.72 3186.34c3.7-1.1 7.6 1 8.7 4.7l38.94 130.3c1.1 3.7-1 7.6-4.7 8.7l-7.67 2.3c-3.7 1.1-7.6-1-8.7-4.7l-38.94-130.3c-1.1-3.7 1-7.6 4.7-8.7l7.67-2.3z" class="O"/><path d="M1272.7 3285.5l12.6 42.16c1.1 3.7 5 5.8 8.7 4.7l7.67-2.3c3.7-1.1 5.8-5 4.7-8.7l-12.6-42.16c1.1 3.7-1 7.6-4.7 8.7l-7.67 2.3c-3.7 1.1-7.6-1-8.7-4.7z" class="B K"/><path d="M1301.83 3173.46c4.77-1.43 9.78 1.28 11.2 6.04l37.8 126.48c1.42 4.76-1.28 9.77-6.05 11.2l-22.03 6.58c-4.77 1.42-9.78-1.28-11.2-6.04l-37.8-126.48c-1.42-4.76 1.28-9.77 6.05-11.2l22.03-6.58z" class="O"/><path d="M1298.95 3275.56l12.6 42.16c1.42 4.76 6.43 7.46 11.2 6.04l22.03-6.58c4.77-1.43 7.47-6.44 6.05-11.2l-12.6-42.16c1.42 4.76-1.28 9.78-6.05 11.2l-22.03 6.58c-4.77 1.43-9.78-1.28-11.2-6.04z" class="B K"/><path d="M1601.4 3259.9c56.82.05 93-68.1 58.6-115.27 15.9-45.2-18.1-95.4-66.66-96.55-56-1.34-88.37 58.5-82.5 109.13 5.48 47.3 37.52 102.65 90.57 102.7z" class="C D F J"/><path d="M1510.83 3157.2c6.78 58.57 54.37 126.8 125.37 93.8-68.82-8.8-117-125.5-83.1-191.84-5.4 3.84-13.9 8.34-27.6 27.6-12.3 21.73-17.7 46.2-14.66 70.43z" class="B I"/><defs ><path id="B" d="M2065.87 1775.46c-2.77 7.3-8.63 13.18-15.9 16-11.6 4.46-27.56 12.6-38.43 18.38-7.62 4.07-16.92 4.32-24.75.67-12.26-5.7-31-14.17-44.6-19.23-8.52-3.13-15.1-10.43-17.3-19.23-6.8-27.43-5.58-62.34-5.58-62.34V745.84c.01-13.8 11.54-25.335 25.34-25.34h110.74c13.8 0 25.34 11.538 25.34 25.34v961.5c0 21.9-7.2 47.93-14.84 68.1z"/><path id="C" d="M2425.25 2888.4c26.53 0 48.04-21.5 48.04-48.04s-21.5-48.04-48.04-48.04-48.04 21.5-48.04 48.04 21.5 48.04 48.04 48.04z"/><path id="D" d="M2425.25 2869.1c15.88 0 28.75-12.87 28.75-28.75s-12.87-28.75-28.75-28.75-28.75 12.87-28.75 28.75 12.87 28.75 28.75 28.75z"/><path id="E" d="M1590.03 3093.6c3.18-.95 6.52.86 7.47 4.03l5.15 17.25c.95 3.17-.85 6.52-4.03 7.47l-283.6 84.75-8.6-28.74 283.6-84.76z"/><path id="F" d="M1835.4 3092.2c2.1-.72 3.15-3.15 2.37-5.43-.8-2.27-3.13-3.53-5.22-2.8-2.1.73-3.15 3.16-2.36 5.43.78 2.28 3.12 3.54 5.2 2.8z"/></defs></svg>