<svg xmlns="http://www.w3.org/2000/svg" xmlns:xlink="http://www.w3.org/1999/xlink" width="4000" height="4000" fill="none" xmlns:v="https://vecta.io/nano"><style><![CDATA[.B{stroke-miterlimit:10}.C{fill:#000}.D{stroke:#333}.E{stroke-width:5}.F{fill:#35353d}.G{fill:#b32645}.H{fill-opacity:.15}.I{fill-opacity:.3}.J{fill-opacity:.4}.K{fill-opacity:.2}.L{stroke-linejoin:round}.M{fill:#871a37}.N{fill-rule:evenodd}]]></style><path d="M1804.42 3100.78l25.72-30.83c3.42-4.1 2.87-10.2-1.23-13.62l-291.32-243.07c-4.1-3.42-10.2-2.87-13.62 1.23l-25.72 30.83c-3.43 4.1-2.88 10.2 1.23 13.62L1790.8 3102c4.1 3.42 10.2 2.87 13.62-1.23z" fill="#1a1924"/><path d="M1516.13 2853.52l28.6-34.28-5.18-4.3-28.6 34.27 5.17 4.32zm14.14 11.78l28.6-34.27-5.18-4.32-28.6 34.28 5.18 4.3zm14.13 11.8l28.6-34.27-5.18-4.32-28.6 34.27 5.18 4.32zm14.15 11.8l28.6-34.28-5.18-4.32-28.6 34.28 5.18 4.32zm14.15 11.8l28.6-34.28-5.18-4.32-28.6 34.28 5.18 4.32zm14.12 11.8l28.6-34.28-5.17-4.3-28.6 34.27 5.17 4.32zm14.13 11.78l28.6-34.28-5.17-4.32-28.6 34.28 5.17 4.32zm14.15 11.8l28.6-34.28-5.18-4.3-28.6 34.27 5.17 4.32zm14.13 11.8l28.6-34.28-5.17-4.32-28.6 34.28 5.17 4.32zm14.14 11.8l28.6-34.27-5.18-4.32-28.6 34.27 5.17 4.32zm14.15 11.78l28.6-34.27-5.18-4.32-28.6 34.28 5.18 4.3z" fill="#2b2b3a"/><path d="M2195.58 3100.78l-25.72-30.83c-3.42-4.1-2.87-10.2 1.23-13.62l291.32-243.07c4.1-3.42 10.2-2.87 13.62 1.23l25.73 30.83c3.42 4.1 2.87 10.2-1.23 13.62L2209.2 3102c-4.1 3.42-10.2 2.87-13.62-1.23z" fill="#1a1924"/><path d="M2483.87 2853.52l-28.6-34.28 5.18-4.3 28.6 34.27-5.18 4.32zm-14.14 11.78l-28.6-34.27 5.18-4.32 28.6 34.28-5.18 4.3zm-14.13 11.8l-28.6-34.27 5.18-4.32 28.6 34.27-5.18 4.32zm-14.15 11.8l-28.6-34.28 5.18-4.32 28.6 34.28-5.18 4.32zm-14.15 11.8l-28.6-34.28 5.18-4.32 28.6 34.28-5.18 4.32zm-14.13 11.8l-28.6-34.28 5.17-4.3 28.6 34.27-5.18 4.32zm-14.12 11.78l-28.6-34.28 5.17-4.32 28.6 34.28-5.17 4.32zm-14.15 11.8l-28.6-34.28 5.17-4.3 28.6 34.27-5.17 4.32zm-14.13 11.8l-28.6-34.28 5.17-4.32 28.6 34.28-5.17 4.32zm-14.14 11.8l-28.6-34.27 5.17-4.32 28.6 34.27-5.17 4.32zm-14.15 11.78l-28.6-34.27 5.18-4.32 28.6 34.28-5.17 4.3z" fill="#2b2b3a"/><path d="M2275.1 3290.64c-50.77-7.42-115.16-32.27-196.86-76-11.87-6.35-16.67-21.85-10.25-33.84 6.35-11.87 21.85-16.66 33.84-10.25 75.45 40.37 136.18 64.12 180.5 70.6 28.93 4.23 49.75 1 61.88-9.64 13.6-11.92 12.4-33 8.83-72.4-4.17-46.12-9.36-103.53 19.78-169.5 44-99.72 153.63-194.53 269.1-176.7 73.33 11.36 143.6 66.2 159.73 140.6 13.73 63.36-6.02 150.17-73.53 174.43-44.77 16-95.93-2.36-130.84-32.08-10.44-8.68-11.95-25-3.06-35.44 8.8-10.34 25.15-11.64 35.48-2.62.43.36 43.66 36.65 81.5 23.06 42.84-15.38 49.77-78.95 41.56-116.78-11.75-54.23-65.6-93.57-118.5-101.77-92.84-14.33-180.8 68.5-215.72 147.5-23.9 54.16-19.56 102.32-15.72 144.8 4 43.84 7.7 85.25-25.67 114.5-27.66 24.4-67.07 26.8-102.02 21.54z" class="B D E G"/><path d="M2786.65 2965.53c11.06 51.02 1.18 114.55-37.82 152.08 51.4-33.7 65.07-107.56 52.82-164.08-16.13-74.4-86.4-129.24-159.73-140.6-66.26-10.23-131.78 18.56-181.54 60.82 114.12-80.75 293.3-60.36 326.27 91.78zm-69.03 112.53c-27.03 31.45-75.6 15.26-102.9-8.23-3.14-2.68-6.9-4.54-10.94-5.4a25.037 25.037 0 0 0-12.19.41c3.97-7.3 11.63-12.23 19.93-12.9 6.6-.53 13.15 1.6 18.2 5.9 22.07 19.5 59.84 35.17 87.9 20.24zm-644.12 95.44c3.5-3 15.5-9 23-5.5 6.98 3.26 15.34 7.4 24.73 12.03 49.42 24.4 127.47 62.97 183.77 62.97 50 0 54.5-25 47.5-91 .85 3.82 1.92 8.03 3.06 12.5 9.62 37.75 24.1 94.5-50.56 94.5-81.5 0-208.8-70.57-231.5-85.5z" class="C K"/><path d="M1959.37 3446.5c5-87.08 27.4-154.43 47.17-206.8s42.42-144.7-42.56-166.02c-121.5-30.5-188.3 254.12-193.3 340.94-2.93 51.08 36.82 110.33 88.4 113.3 47.48 2.3 97.45-31.8 100.3-81.4z" class="B D E G"/><path d="M1769.48 3414.5c51.5-7 148-7 188.5 34l1.66-15.04c-42.16-36.96-138.16-39.46-188.02-32.46-.26 3.3-1.86 10.13-2.14 13.5zm16-89.5c47.76 44.3 108.88 69.13 178 78.5.58-5 1.8-12.18 2.5-17-68.6-8.88-128.2-37.6-176-81-2 6-3.62 15.27-4.5 19.5z" class="C H"/><path d="M2040.63 3446.5c-5-87.08-27.4-154.43-47.17-206.8s-42.42-144.7 42.56-166.02c121.5-30.5 188.3 254.12 193.3 340.94 2.93 51.08-36.82 110.33-88.4 113.3-47.48 2.3-97.45-31.8-100.3-81.4z" class="B D E G"/><path d="M2230.52 3414.5c-51.5-7-148-7-188.5 34l-1.66-15.04c42.16-36.96 138.16-39.46 188.02-32.46.26 3.3 1.86 10.13 2.14 13.5zm-16-89.5c-47.76 44.3-108.88 69.13-178 78.5-.58-5-1.8-12.18-2.5-17 68.6-8.88 128.2-37.6 176-81 2 6 3.62 15.27 4.5 19.5z" class="C H"/><g class="B D E"><path d="M2239.23 2741.1c-106.05-145.18-372.4-145.18-478.46 0-38.4-26.08-110.37 14.65-147.47 66.4-65.7 91.92-97.2 189.1-88.63 283.68 3.2 31.47 25.83 55.82 62.33 55.82s65.66-32.58 62.04-68.42c-5.3-61.96 17.45-128.82 62.5-193.5C1691.23 2962.44 1682 3034 1682 3086c0 152 142.47 308.5 318 307 179.32-1.54 318-155 318-307 0-52.14-9.44-123.7-29.84-201.35 45.24 64.82 68.1 131.84 62.8 193.93-3.62 35.84 25.54 68.42 62.04 68.42s59.14-24.35 62.33-55.82c8.56-94.57-22.92-191.76-88.63-283.68-37.1-51.75-109.07-92.48-147.47-66.4z" class="G"/><path d="M1537.17 2961.7c122.56-.93 182.8-104.47 161.25-221.76-31.24 11.94-63.9 37.94-85.12 67.56-35.93 50.26-61.62 102.1-76.13 154.2zm925.66 0c-122.57-.93-182.8-104.47-161.26-221.76 31.25 11.94 63.9 37.94 85.13 67.56 35.92 50.26 61.62 102.1 76.13 154.2z" class="F"/></g><path d="M1553.1 3059.17c-.42-112.28 89.6-277.67 195.1-324.17-130-21-245 233.5-222.7 351.78 7.2-11.78 19.7-23.28 27.6-27.6zm893.8 0c.42-112.28-89.6-277.67-195.1-324.17 130-21 245 233.5 222.7 351.78-7.2-11.78-19.7-23.28-27.6-27.6z" class="C H"/><path d="M1830.12 3341.92c151.1-113.1 249.95-331.84 264.03-357l-34.9-19.53c-71.5 127.8-142.1 265.98-262.63 351.5 10.6 9 21.8 17.38 33.5 25.04z" class="B D E F"/><path d="M2093.15 2986.9c-14.13 25.26-111.62 243.45-263.64 356.2-3.74-2.4-7.4-4.87-11-7.4 138.23-106 236.43-306.4 264.8-354.34l9.85 5.54z" class="C I"/><g class="D E F"><path d="M1760.08 3280.85l60.8-142.3c6.76-15.85-.85-34.76-16.7-41.52l-120.56-51.53c-1.08 14.5-1.6 28.05-1.6 40.5 0 69.1 29.45 139.16 78.08 194.85z" class="B"/><path d="M1689.74 2991.02l138.83 59.3c6.88 2.94 15.1 1.4 20.44-3.83 6.95-6.8 9.58-18.82 13.3-27.5 4-9.36-.48-20.53-9.84-24.54l-144.67-94.36c-8.26 29.64-13.58 60.5-18.05 90.92z" class="L"/><path d="M2239.92 3280.86l-60.8-142.3c-6.76-15.85.85-34.76 16.7-41.52l120.56-51.53c1.08 14.5 1.6 28.05 1.6 40.5 0 69.1-29.46 139.16-78.08 194.86z" class="B"/><path d="M2310.26 2991.02l-138.83 59.3c-6.9 2.94-15.1 1.4-20.44-3.83-6.96-6.8-9.6-18.82-13.3-27.5-4-9.36.48-20.53 9.84-24.54l144.67-94.36c8.26 29.64 13.57 60.5 18.05 90.92z" class="L"/><path d="M2186.44 2823.5l-35.07-20.25c-14.65-8.46-33.38-3.44-41.84 11.2l-66.83 115.74c-8.46 14.65-3.44 33.38 11.2 41.84l35.08 20.25c14.65 8.46 33.38 3.44 41.84-11.2l66.82-115.74c8.46-14.65 3.44-33.4-11.2-41.84z" class="B"/></g><path d="M2197.66 2865.33l-66.83 115.75c-8.34 14.45-27.4 19.55-41.84 11.2-15.23-8.8-39.83-16.95-47.65-34.14-2.64-5.82-3.4-12.32-2.17-18.6 9.15 14.9 31.38 22.35 45.82 30.7 14.45 8.34 33.5 3.24 41.84-11.2l70.37-125.15c5.88 9.5 6.06 21.77.46 31.44z" class="C I"/><path d="M1731.43 3203.3l13-37.83c152.5 52.52 354.47 59.26 507.18 4.24l13.56 37.63c-161.45 58.24-372.76 51.4-533.74-4.04z" fill="#3d3d44" class="B D E"/><path d="M2265.24 3207.33c-161.5 58.2-372.78 51.4-533.8-4.04l4.63-13.44c159.42 53.1 364.43 59.55 524.4 4.17l4.8 13.3z" class="C I"/><path d="M2044.74 3187h-89.48c-9.98 0-18.07 8.1-18.07 18.07v36.74c0 9.98 8.1 18.07 18.07 18.07h89.48c9.98 0 18.07-8.1 18.07-18.07v-36.74c0-9.98-8.1-18.07-18.07-18.07z" fill="#34343a" class="B D E"/><g class="C"><path d="M2062.8 3205.07v36.75c.01 9.73-8.23 18.07-18.06 18.07h-89.5c-8.06 0-15.33-5.55-17.44-13.33l92.93.33c9.73 0 18.07-8.24 18.06-18.07 0-12.98 0-29.32-.63-41.48 8.4 1.62 14.63 9.18 14.63 17.73z" class="I"/><path d="M2000 3393c-175.67 1.6-330-157-318-337 10 148 145.15 288.48 318 287s308-139 318-287c12 180-142.33 335.4-318 337z" class="H"/></g><path d="M2271.63 3144.42l25.3 11.48c12.3 5.58 17.76 20.08 12.17 32.4l-28.45 62.7c-5.58 12.3-20.1 17.75-32.4 12.17l-25.3-11.48c-12.3-5.6-17.76-20.1-12.17-32.4l28.45-62.7c5.6-12.3 20.1-17.76 32.4-12.17z" fill="#814739" class="B D E"/><path d="M2208.75 3229.32c-.1 9.6 5.6 18.6 14.36 22.55 10.53 4.78 17.7 8.6 31.4 13.63 8 2.94 22-4 26.3-14.32l28.45-62.7c4.72-10.42 1.4-23.08-7.82-29.85-7.93 23.36-23.95 58.93-36.2 80.3-3.78 6.6-11.4 8.6-17.53 6.6-13.7-4.53-29.2-10.53-38.95-16.2z" class="C K"/><path d="M1728.37 3144.4l-25.3 11.48c-12.3 5.6-17.75 20.1-12.17 32.4l28.46 62.7c5.58 12.3 20.08 17.75 32.4 12.17l25.3-11.48c12.3-5.6 17.75-20.1 12.17-32.4l-28.46-62.7c-5.58-12.3-20.08-17.75-32.4-12.17z" fill="#814739" class="B D E"/><path d="M1791.25 3229.32c.1 9.6-5.6 18.6-14.36 22.55-10.53 4.78-17.7 8.6-31.4 13.63-8 2.94-22-4-26.3-14.32l-28.45-62.7c-4.72-10.42-1.4-23.08 7.82-29.85 7.93 23.36 23.94 58.93 36.2 80.3 3.77 6.6 11.4 8.6 17.53 6.6 13.7-4.53 29.2-10.53 38.95-16.2z" class="C K"/><path d="M1910 3556c32 0 63.1-23.6 66.7-56.14 9.1-82.2-94.35-89.68-150.67-90.92-57.1-1.25-154.03 9.56-171.02 72.27-14.85 54.8 36.5 74.8 73 74.8s49-12.15 92.98-12.15c38.4 0 57.02 12.15 89.02 12.15z" class="B D E F"/><path d="M1909 3534c-32 0-50.6-12.15-89.02-12.15-43.98 0-56.48 12.15-92.98 12.15-28.4 0-65.75-12.1-73.97-43.26-6.73 47.6 40.67 65.26 74.97 65.26 36.5 0 49-12.15 92.98-12.15 38.4 0 57.02 12.15 89.02 12.15 42.86 0 73-34.15 65.9-80.26-2.97 33.46-34.04 58.26-66.9 58.26z" class="C J"/><path d="M2090 3556c-32 0-63.1-23.6-66.7-56.14-9.1-82.2 94.35-89.68 150.67-90.92 57.1-1.25 154.03 9.56 171.02 72.27 14.85 54.8-36.5 74.8-73 74.8s-49-12.15-92.98-12.15c-38.42 0-57.02 12.15-89.02 12.15z" class="B D E F"/><path d="M2091 3534c32 0 50.6-12.15 89.02-12.15 43.98 0 56.48 12.15 92.98 12.15 28.4 0 65.75-12.1 73.97-43.26 6.73 47.6-40.67 65.26-74.97 65.26-36.5 0-49-12.15-92.98-12.15-38.42 0-57.02 12.15-89.02 12.15-42.86 0-73-34.15-65.9-80.26 2.97 33.46 34.04 58.26 66.9 58.26z" class="C J"/><path d="M2296.3 2941.25H1703.7c-31.9 0-57.78 25.87-57.78 57.78v267.15c0 31.9 25.87 57.78 57.78 57.78h592.62c31.9 0 57.78-25.87 57.78-57.78v-267.15c0-31.9-25.87-57.78-57.78-57.78z" fill="#643ba2" stroke-width="5.27" class="B D"/><path d="M2297.18 2941.25H1702.8c-31.43 0-56.9 26.26-56.9 58.66v265.38c0 32.4 25.47 58.66 56.9 58.66h594.37c31.43 0 56.9-26.26 56.9-58.66V2999.9c0-32.4-25.47-58.66-56.9-58.66zm39.25 324.1c0 22.37-17.6 40.5-39.3 40.5h-594.27c-21.7 0-39.3-18.14-39.3-40.5v-265.48c0-22.37 17.6-40.5 39.3-40.5h594.27c21.7 0 39.3 18.14 39.3 40.5v265.48z" class="C H"/><g class="D E"><path d="M2058.27 3045.73v55.47c-.01 15.07 18.43 23.38 29.7 13.38l11.68-9.18c3.58 9.4 5.74 19.26 6.4 29.3 29.3-1.55 29.75 33.2 17.5 52.4-6.96 10.4-17.24 18.1-29.16 21.9-9.45 21.56-49.4 46.87-89.4 48-45.7 1.32-90.3-28.64-97.9-48.64-10.6-3.53-21.25-11.16-27.65-20.8-12.74-19.26-12.48-53.97 17.1-52.57 4.1-50.8 43.92-92.9 86.14-100.26s-28.8-18 3.1-18.4c27.2-.32 52.27 11.68 72.5 29.4zm34.37 43.76l-15.06 13.34c-1.33 1.2-3.62.2-3.62-1.63v-73.54c0-11.86 9.9-21.77 21.77-21.77h105.5c11.86 0 21.77 9.9 21.77 21.77v40.28c0 11.86-9.9 21.77-21.77 21.77h-105.5c-1.03 0-2.06-.07-3.1-.22z" fill="#3df291" class="L"/><path d="M1601.4 3259.9c56.8.05 92.98-68.1 58.6-115.27 15.9-45.2-18.1-95.4-66.66-96.55-56-1.34-88.37 58.5-82.5 109.13 5.48 47.3 37.52 102.65 90.57 102.7z" class="B F"/></g><path d="M1510.83 3157.2c6.78 58.57 54.37 126.8 125.37 93.8-68.83-8.8-117-125.5-83.1-191.84-5.4 3.84-13.9 8.34-27.6 27.6-12.3 21.73-17.7 46.2-14.66 70.43z" class="C J"/><path d="M2398.6 3259.9c-56.82.05-93-68.1-58.6-115.27-15.92-45.2 18.08-95.4 66.66-96.55 56-1.34 88.36 58.5 82.5 109.13-5.48 47.3-37.53 102.65-90.57 102.7z" class="B D E F"/><path d="M2489.17 3157.2c-6.78 58.57-54.37 126.8-125.37 93.8 68.82-8.8 117-125.5 83.1-191.84 5.4 3.84 13.9 8.34 27.6 27.6 12.3 21.73 17.7 46.2 14.66 70.43z" class="C J"/><path d="M3083.2 1832.12c111.1 102 66.32 309.3-9.1 427.16-107.46 168-353.47 273.75-479.46 184.37-131.58-93.35-114.4-386.92 39.2-539.32 114.68-113.78 334.45-177.7 449.35-72.2z" class="B D E G"/><path d="M3074.1 2259.28c-60.7 94.85-195.1 203.22-346.6 216.72 106.36-25 260-133.85 306.64-206.72 75.4-117.87 115.36-338.97 9.1-427.16-32.4-26.9-114.73-65.12-227.73-45.12 138-42.5 222.8-6.13 267.73 35.12 111.06 102 66.28 309.3-9.13 427.16z" class="C H"/><path d="M916.818 1832.12c-111.1 102-66.32 309.3 9.1 427.16 107.462 168 353.472 273.75 479.462 184.37 131.58-93.35 114.4-386.92-39.2-539.32-114.68-113.78-334.45-177.7-449.352-72.2z" class="B D E G"/><path d="M925.908 2259.28C986.598 2354.13 1121 2462.5 1272.5 2476c-106.36-25-260.02-133.85-306.642-206.72-75.4-117.87-115.36-338.97-9.1-427.16 32.4-26.9 114.732-65.12 227.732-45.12-138-42.5-222.792-6.13-267.732 35.12-111.06 102-66.28 309.3 9.13 427.16zM2395 2818c-115.35 45.22-271 79-395 79s-259.34-26.43-395-79c-7.24 10.54-16.6 26.27-23 37 142 57 275 86 418 86s276-29 418-86c-6.15-10.7-15.93-26.36-23-37z" class="C H"/><use xlink:href="#B" class="G"/><path d="M1148.6 2266.67c-135.93 245.26 334.32 633.83 851.4 633.83s993.17-392.85 849.75-637.86C2945.1 2486.74 2490.72 2863 2000 2863c-487.8 0-939.7-371.78-851.4-596.33z" fill-opacity=".1" class="C"/><path d="M1402 1013c44.5 55 94.35 107 96.27 127.27 6.23 65.77 131 1067.57 131 1177.7C1597.2 2478.1 1533 2586 1439.5 2748.5" stroke="#871a37" stroke-width="31" class="B"/><path d="M1814.53 1259.83C1887.2 1337 1971 1690 1971 1822.5c0 157.4-252 517-340.5 517-266.5 0-403.5-293-403.5-666 0-114 195-527.44 261.96-555.57 74.04-31.1 261.9 74.28 325.57 141.9z" class="M N"/><path d="M1630.5 2295.5c-118 0-359.5-118.27-359.5-622 0-115.5 192.26-497.05 235-515s226.13 78 276.5 131.5c58.1 61.7 144.5 416.47 144.5 532.5 0 134.7-236.94 473-296.5 473z" stroke="#212126" stroke-width="30" class="F"/><path d="M1433.48 1554.75c-39.9 2.36-75 207.06-64.53 251.1s145.56 146.85 247.6 146.85 261.1-66.08 261.1-157.13-394.65-243.77-444.17-240.83z" fill="#24242b"/><path d="M1451.57 1773.15c-22.42 48.2 113.86 95.54 151.3 102 61 10.47 236.15-12.84 240.62-62.67 3.2-35.48-299.5-237.95-391.93-39.33z" fill="#f1eff0"/><path d="M2598 1013c-44.5 55-94.35 107-96.27 127.27-6.23 65.77-131 1067.57-131 1177.7C2402.8 2478.1 2467 2586 2560.5 2748.5" stroke="#871a37" stroke-width="31" class="B"/><path d="M2185.47 1259.83C2112.8 1337 2029 1690 2029 1822.5c0 157.4 252 517 340.5 517 266.5 0 403.5-293 403.5-666 0-114-195-527.44-261.96-555.57-74.04-31.1-261.9 74.28-325.57 141.9z" class="M N"/><path d="M2369.5 2295.5c118 0 359.5-118.27 359.5-622 0-115.5-192.26-497.05-235-515s-226.13 78-276.5 131.5c-58.1 61.7-144.5 416.47-144.5 532.5 0 134.7 236.94 473 296.5 473z" stroke="#212126" stroke-width="30" class="F"/><path d="M2566.52 1554.75c39.9 2.36 75 207.06 64.53 251.1s-145.56 146.85-247.6 146.85-261.1-66.08-261.1-157.13 394.65-243.77 444.17-240.83z" fill="#24242b"/><path d="M2548.43 1773.15c22.42 48.2-113.86 95.54-151.3 102-61 10.47-236.15-12.84-240.62-62.67-3.2-35.48 299.5-237.95 391.93-39.33z" fill="#f1eff0"/><use xlink:href="#B" class="D E"/><path d="M1785 2099c0 76.35 98.85 169 216.26 168 108.22-.95 213.74-92.55 213.74-167.78 0-152.13-430-154.42-430-.22z" fill-opacity=".1" class="C"/><path d="M1782 2081c0 76.35 100.23 169 219.27 168 109.73-.95 216.73-92.55 216.73-167.78 0-60.53-126.24-113.77-216.73-113-84.02.78-219.27 41.16-219.27 112.78z" class="G"/><path d="M1783.58 2067.77c41.76 54.75 124.68 100.94 217.85 100.22 86.2-.68 170.92-47.12 214.1-101.55 1.62 4.86 2.48 9.8 2.48 14.78 0 75.23-107 166.83-216.73 167.78-119.04 1-219.27-91.65-219.27-168 0-4.54.54-8.95 1.58-13.23z" class="M"/><defs ><path id="B" d="M2000 818.5c-667.5 0-964.68 540.06-966 1028.5-.35 129.73 38.56 280.66 111.58 425.2C1018.8 2517.7 1489.25 2901 2000 2901c510.85 0 981.37-383.43 854.35-628.93 73.1-145.53 111.3-296.9 111.65-425.07 2.03-488.44-298.5-1028.5-966-1028.5z"/></defs></svg>