<svg xmlns="http://www.w3.org/2000/svg" xmlns:xlink="http://www.w3.org/1999/xlink" width="4000" height="4000" fill="none" viewBox="0 0 4000 4000"><defs><path id="a" stroke="#333" stroke-linecap="round" stroke-linejoin="round" stroke-miterlimit="10" stroke-width="5" d="m2705.9 2514.5 15.6 202.1s3.5-8.8 16.2-13.4c0 0 31.6-53 73.9-34.7 0 0 13-36.5 73.1-17.5l-12.8-131.6-4.6-1.6s-18.6 15.2-36.3 6.8c-17.7-8.4-19.6-37.4-19.4-48.3 0 0-16.6 20.1-40.2 9.7 0 0-3.2 47.9-53.2 17.2l-12.3 11.3Z"/><path id="b" stroke="#333" stroke-linecap="round" stroke-linejoin="round" stroke-miterlimit="10" stroke-width="5" d="m1289.4 2514.5-15.6 202.1s-3.5-8.8-16.2-13.4c0 0-31.6-53-73.9-34.7 0 0-13-36.5-73.1-17.5l12.8-131.6 4.6-1.6s18.6 15.2 36.3 6.8c17.7-8.4 19.6-37.4 19.4-48.3 0 0 16.6 20.1 40.2 9.7 0 0 3.2 47.9 53.2 17.2l12.3 11.3Z"/></defs><path fill="#EFAF4D" stroke="#333" stroke-linejoin="round" stroke-miterlimit="10" stroke-width="5" d="M2601.7 3259.9c16.8-9.3-41.7 114.5-86 149 379.8-242.4 507.8-769.4 420.3-1108.9-467.5 423.5-1168.5 639-1891.5 0-94.999 657 171.5 959.9 433.8 1108.9-44.3-34.6-102.8-158.4-86-149 0 0 160.1 112 408.9 140.5 53.4-.9 121.3-7.1 195.8-11.6 74.5 4.5 142.4 10.7 195.8 11.6 248.8-28.4 408.9-140.5 408.9-140.5Z"/><path fill="#000" fill-opacity=".08" d="M2601.7 3259.9c16.8-9.3-41.7 114.5-86 149 379.8-242.4 507.8-769.4 420.3-1108.9-112.5 439.5-222 791.5-322.5 914-363 194.9-826.6 193.4-1232.5 0-117-179.5-198.7-792.2-336.5-914-94.999 657 171.5 959.9 433.8 1108.9-44.3-34.6-102.8-158.4-86-149 0 0 160.1 112 408.9 140.5 53.4-.9 121.3-7.1 195.8-11.6 74.5 4.5 142.4 10.7 195.8 11.6 248.8-28.4 408.9-140.5 408.9-140.5Z"/><path fill="#FCDE11" stroke="#333" stroke-linejoin="round" stroke-miterlimit="10" stroke-width="5" d="M907.8 2501c-1.5 3.9-71.1 181.3-265.3 255.1 300-342.6 389.5-835.1 605-1284.1-97 680-272.8 1485.3 230.9 1936.9-159.2-48.3-357.4-148.9-483-289.9 25.2 54 71.2 139.5 96.9 161.8C839.5 3108 820.4 2797.2 907.8 2501Z"/><path fill="#000" fill-opacity=".1" d="M907.8 2501c-1.5 3.9-71.1 181.3-265.3 255.1 300-342.6 389.5-835.1 605-1284.1-410.6 1143.5-418 1597.5 230.9 1936.9-159.2-48.3-357.4-148.9-483-289.9 25.2 54 71.2 139.5 96.9 161.8C839.5 3108 820.4 2797.2 907.8 2501Z"/><path fill="#FCDE11" stroke="#333" stroke-linejoin="round" stroke-miterlimit="10" stroke-width="5" d="M3086.6 2501c1.5 3.9 71.1 181.3 265.3 255.1-300-342.6-389.5-835.1-605-1284.1 97 680 272.8 1485.3-230.9 1936.9 159.2-48.3 357.4-148.9 483-289.9-25.2 54-71.2 139.5-96.9 161.8 252.8-172.8 271.9-483.6 184.5-779.8Z"/><path fill="#333" fill-opacity=".1" d="M3086.6 2501c1.5 3.9 71.1 181.3 265.3 255.1-300-342.6-389.5-835.1-605-1284.1C3287 2864.1 3024 3049.9 2524.5 3402.9l-8.5 6c159.2-48.3 357.4-148.9 483-289.9-25.2 54-71.2 139.5-96.9 161.8 252.8-172.8 271.9-483.6 184.5-779.8Z"/><path fill="#9B7657" stroke="#333" stroke-miterlimit="10" stroke-width="5" d="M2304.7 3292.9c-9.9 0-19.8-.8-29.6-2.3-50.8-7.4-115.2-32.3-196.9-76-12.2-6.5-16.8-21.7-10.2-33.8 6.6-12.1 21.7-16.8 33.8-10.2 75.4 40.4 136.2 64.1 180.5 70.6 28.9 4.2 49.8 1 61.9-9.6 13.6-11.9 12.4-33 8.8-72.4-4.2-46.1-9.4-103.5 19.8-169.5 22.1-50 60.8-97.6 106.3-130.7 24.7-17.9 50.5-31.1 76.7-39.1 29.1-8.9 58.1-11.2 86.1-6.9 34.6 5.4 69.2 20.9 97.6 43.7 32.6 26.2 54.1 59.7 62.1 96.9 6.6 30.4 4.8 66.5-4.7 96.6-12.3 38.6-36.7 66.3-68.8 77.8-11.2 4-23.1 6-35 6-49.4 0-90.4-33.4-95.8-38.1-10.6-8.8-12.1-24.6-3.3-35.2 8.8-10.6 24.6-12.1 35.2-3.3.2.1.3.3.5.4.4.4 43.7 36.6 81.5 23.1 21.9-7.9 32.8-29.3 38.1-45.9 6.9-21.8 8.2-49 3.5-70.9-7.1-32.6-28.2-55.3-44.6-68.5-21.3-17.2-48.3-29.3-73.9-33.3-28.1-4.3-72.7-1.4-125.7 37.1-38.6 28.1-71.4 68.3-90 110.4-23.9 54.2-19.6 102.3-15.7 144.8 4 43.8 7.7 85.2-25.7 114.5-18.1 15.9-42.4 23.8-72.5 23.8Z"/><g fill="#000" opacity=".2"><path d="M2352.6 3244.9c-21.3 18.4-65.1 13.1-91.6 9.3 3.5-4.9 6.9-9.9 10.1-14.9 3.9.8 7.6 1.4 11.2 1.9 26.6 3.9 46.4 1.5 58.8-7.2 3.5 4 7.3 7.6 11.5 10.9Zm358.6-164c2.2-.8 4.3-1.7 6.4-2.8-5.7 6.7-13.1 11.8-21.4 14.8-37.8 13.6-81.1-22.7-81.5-23.1-6.4-5.4-15.1-7.3-23.1-5 .8-1.5 1.8-2.9 2.9-4.2 9-10.5 24.7-11.8 35.2-2.8.5.4 43.7 36.7 81.5 23.1Z"/><path d="M2796.9 3050.1c-9.5 29.8-26.2 53.1-48.1 67.5 14.6-14.1 25.9-32.9 33.1-55.5 9.5-30.1 11.3-66.2 4.7-96.6-8.1-37.1-29.5-70.6-62.1-96.9-28.4-22.9-63.1-38.4-97.6-43.7-28-4.3-56.9-2-86.1 6.9-26.2 8-52 21.2-76.7 39.1-1.3.9-2.5 1.8-3.8 2.8 6.1-5.2 12.4-10.1 18.8-14.8 24.7-17.9 50.5-31.1 76.7-39.1 29.1-8.9 58.1-11.2 86.1-6.9 34.6 5.4 69.2 20.9 97.6 43.7 32.6 26.2 54.1 59.7 62.1 96.9 6.6 30.4 4.9 66.5-4.7 96.6Z"/></g><path fill="#755841" stroke="#333" stroke-miterlimit="10" stroke-width="5" d="M1580.1 3154.5c-34.4 0-62.4-27.8-62.5-62.3-.3-95.4 34-193.1 99.3-282.6 56-76.8 132.1-142.1 208.6-179.1 31.1-15 68.5-2 83.5 29.1s2 68.5-29.1 83.5c-58.7 28.4-117.7 79.5-162 140.2-34.5 47.4-75.6 122-75.3 208.5.1 34.5-27.8 62.6-62.3 62.7h-.2Z"/><path fill="#F7C394" stroke="#333" stroke-miterlimit="10" stroke-width="5" d="M1601 3260.2c-8.6 0-17.2-1.6-25.3-4.6-21.2-7.9-38.2-24.2-50.7-48.5-7.7-15.1-12.8-31.3-15.1-48.1-2.1-14.6-1.4-29.5 2.1-43.8 5.6-22 17.9-40.4 35.8-53.2 32.6-23.3 77.8-15.8 101.1 16.8 13.5 18.9 17.1 43 9.9 65 24.2 31.9 17.9 77.4-14.1 101.6-12.6 9.6-27.9 14.8-43.7 14.8Z"/><path fill="#755841" stroke="#333" stroke-miterlimit="10" stroke-width="5" d="M1864.5 3526.2c-1.3 0-2.6 0-3.9-.1-52.4-2.1-93.2-46.3-91.1-98.7 4.6-116.2 33.5-197 54.6-256 6.3-17.6 11.7-32.8 15.7-46.4 14.3-50.5 66.8-79.9 117.2-65.6 50.4 14.3 79.9 66.8 65.6 117.2-.1.4-.2.7-.3 1.1-5.6 19.2-12.2 37.9-19.3 57.6-18.8 52.7-40.2 112.4-43.7 199.6-2 51.1-43.8 91.3-94.8 91.3Z"/><path fill="#F7C394" stroke="#333" stroke-miterlimit="10" stroke-width="5" d="M1910 3556.6c-7.2 0-14.4-1.2-21.3-3.4-27.7-9.2-93.8-15.5-147.7.2-35.8 10.4-73.3-10.1-83.7-45.9-10.4-35.8 10.1-73.3 45.9-83.7 46.2-13.5 92.3-15.5 122.8-14.8 39.2.9 76.6 6.6 105.2 16.1 35.4 11.7 54.6 49.9 42.8 85.3-9.1 27.6-34.9 46.2-64 46.2Z"/><path fill="#755841" stroke="#333" stroke-miterlimit="10" stroke-width="5" d="M2135.4 3528.1c-50.3 0-91.9-39.3-94.8-89.6-5-87.1-27.4-146.4-47.2-198.8-7.4-19.6-14.4-38.1-20.3-57.3-15.4-50.1 12.7-103.3 62.8-118.8 50.1-15.4 103.3 12.7 118.8 62.8 4.1 13.5 9.9 28.6 16.5 46.1 22.1 58.6 52.4 138.9 59.1 255 3 52.4-37 97.3-89.4 100.3-1.8.2-3.7.3-5.5.3Z"/><path fill="#F7C394" stroke="#333" stroke-miterlimit="10" stroke-width="5" d="M2090 3556.6c-37.3 0-67.5-30.2-67.6-67.4 0-29.1 18.7-55 46.3-64.2 28.6-9.5 66-15.2 105.2-16.1 30.5-.7 76.6 1.4 122.8 14.8 35.8 10.4 56.4 47.9 45.9 83.7-10.4 35.8-47.9 56.4-83.7 45.9-53.9-15.7-120-9.4-147.7-.2-6.8 2.3-14 3.5-21.2 3.5Z"/><path fill="#755841" stroke="#333" stroke-miterlimit="10" stroke-width="5" d="M2411.4 3137.4c-34.5 0-62.5-27.9-62.6-62.5 0-2.1.1-4.2.3-6.3 5.4-53.5-18.6-122.2-65.9-188.4-44.7-62.6-107-117.4-162.4-143-31.5-14.1-45.5-51.1-31.4-82.6 14.1-31.5 51.1-45.5 82.6-31.4.4.2.8.4 1.2.5 37.5 17.3 76.8 43.5 113.7 75.6 36.7 32.2 69.6 68.5 98.1 108.1 65.7 91.9 97.2 189.1 88.6 273.7-3.3 32-30.1 56.2-62.2 56.3Z"/><path fill="#F7C394" stroke="#333" stroke-miterlimit="10" stroke-width="5" d="M2396.8 3259.9c-40.1 0-72.5-32.5-72.5-72.5 0-15.4 4.9-30.3 13.9-42.7-13.3-37.8 6.5-79.2 44.3-92.5 21.9-7.7 46.2-4.5 65.3 8.7 18 12.5 30.7 30.6 36.7 52.6 3.7 14.3 4.7 29.1 2.9 43.8-4.1 35.1-23.3 81.7-64.1 97.7-8.5 3.2-17.5 4.9-26.5 4.9Z"/><path fill="#7F6145" stroke="#333" stroke-miterlimit="10" stroke-width="5" d="M2025.6 2468.7c55.3 3.4 93.4 43.6 127.2 80.3 39.3 42.7 80.1 104.5 119 245.3 39.4 142.8 45.9 220.1 45.9 292 0 153.6-140.7 305.1-320 306.6-175.5 1.5-319-153-319-306.6 0-72.8 12.6-145.3 62.3-292.3 48.2-142.7 92.6-200.2 125.8-235.1 37.4-39.3 89.9-94.4 158.8-90.2Z"/><path fill="#F7C394" stroke="#333" stroke-miterlimit="10" stroke-width="5" d="M1997.3 2512.8c41-.4 82.2 51.9 113.6 106.2 48.1 83.3 65.4 157.6 70.6 181.4 32.5 148.3 54.2 271.3-6 346.6-59.9 74.9-132.4 85.6-175.4 85.6-47.6 0-118.3-8.3-177.4-81.9-58.8-73.3-34.8-194.7 3.5-350.5 3.9-16 38.3-103.8 95.4-210.3 18.2-34 42.8-76.8 75.7-77.1Zm-1133.5-676c-109.3 103.9-60.9 310.4 16.5 426.9 110.4 166.1 358.2 267.5 482.6 176 129.9-95.6 107.6-388.9-48.6-538.6-116.6-111.7-337.5-171.8-450.5-64.3Z"/><path fill="#FFC9A1" d="M995.6 1954.6c-64.8 69.3-26.7 197.2 26.3 267.5 75.5 100.1 234.9 154.6 309.6 92.5 78-64.9 53.1-248.2-50.6-336.3-77.4-65.9-218.4-95.4-285.3-23.7Z"/><path fill="#F7C394" stroke="#333" stroke-miterlimit="10" stroke-width="5" d="M3133.2 1832.1c111.1 102 66.3 309.3-9.1 427.2-107.5 168-353.5 273.8-479.5 184.4-131.6-93.4-114.4-386.9 39.2-539.3 114.7-113.8 334.5-177.8 449.4-72.3Z"/><path fill="#FFC9A1" d="M3003.5 1952.2c66 68.2 30.1 196.7-21.6 267.9-73.8 101.4-232.2 158.7-307.9 97.9-79.1-63.5-57.4-247.2 44.8-337.2 76.1-67.2 216.5-99.1 284.7-28.6Z"/><path fill="#FFCD98" stroke="#333" stroke-miterlimit="10" stroke-width="5" d="M2000.1 1320.6c19.2-.2 112.4-116.8 268-116.7 223.5 0 482 324.8 482.3 643.2.2 205.9-85.8 256.9-85.6 280.6.2 21.1 211.1 17.7 211.1 249.8 0 209.2-420.4 512-840.9 524.2-461.3 13.3-910.3-319.7-910.3-497.7 0-232.4 211.6-263.8 211.4-284.5-.2-20.7-86.4-73-86.5-272.4-.3-318.5 259.3-643.2 482.5-643.2 172.3-.1 245.2 116.9 268 116.7Z"/><path fill="#fff" d="M1758.3 1403.1c154.9 18 266.5 208.8 250 376.8-16.4 167.3-162.7 342-329.9 323-151.8-17.3-250.3-186.2-253.5-328.2-4.3-190.2 160.9-391.7 333.4-371.6Z"/><path fill="#2DC938" stroke="#333" stroke-miterlimit="10" stroke-width="5" d="M1946.41 1825.22c22.12-113.96-39.46-221.78-137.54-240.81-98.08-19.04-195.52 57.92-217.64 171.89-22.11 113.96 39.47 221.78 137.55 240.81 98.08 19.04 195.52-57.92 217.63-171.89Z"/><path fill="#BF0" d="M1602.8 1881.1c-14.3-39.5 80.5-104.2 172.4-104.2s176.6 53.3 150 104.5c-32.6 62.8-85.2 115.8-166.5 115.8-79.8.1-133.9-55.5-155.9-116.1Z"/><path fill="#000" d="M1779.8 1941.6c58.5 0 105.9-53 105.9-118.5 0-65.4-47.4-118.5-105.9-118.5-58.5 0-105.9 53.1-105.9 118.5 0 65.5 47.4 118.5 105.9 118.5Z"/><path fill="#fff" stroke="#333" stroke-miterlimit="10" stroke-width="5" d="M1873.3 1740.3c7.5-21-4.4-44.4-26.5-52.2-22.1-7.8-46 2.9-53.4 23.9-7.4 21 4.4 44.4 26.5 52.2 22.1 7.9 46-2.9 53.4-23.9Z"/><path fill="#fff" d="M2234 1398.9c-154.5 20.7-262.8 213.4-243.4 381.1 19.3 167 168.6 339.1 335.5 317.1 151.5-19.9 247-190.6 247.7-332.5 1-190.2-167.7-388.7-339.8-365.7Z"/><path fill="#2DC938" stroke="#333" stroke-miterlimit="10" stroke-width="5" d="M2273.71 1992.59c97.73-20.74 157.42-129.61 133.32-243.17-24.1-113.56-122.87-188.8-220.6-168.06-97.73 20.74-157.42 129.61-133.32 243.17 24.1 113.56 122.87 188.8 220.6 168.06Z"/><path fill="#BF0" d="M2395.9 1877.1c14.3-39.5-80.5-104.2-172.4-104.2s-176.6 53.3-150 104.5c32.6 62.8 85.2 115.8 166.5 115.8 79.8.1 133.9-55.5 155.9-116.1Z"/><path fill="#000" d="M2221.5 1937.4c58.5-1 104.9-54.9 103.8-120.3-1.1-65.4-49.5-117.6-107.9-116.6-58.5 1-105 54.9-103.8 120.3 1.1 65.4 49.4 117.6 107.9 116.6Z"/><path fill="#fff" stroke="#333" stroke-miterlimit="9.998" stroke-width="4.999" d="M2287.8 1764.2c21.9-8.2 33.4-31.8 25.6-52.7-7.8-20.9-31.9-31.2-53.9-23-21.9 8.2-33.4 31.8-25.6 52.7 7.9 20.9 32 31.2 53.9 23Z"/><path fill="#775A42" d="M1784.1 2081.4c0 75.3 98.6 166.6 215.7 165.6 107.9-.9 213.2-91.2 213.2-165.4 0-59.7-124.2-112.2-213.2-111.4-82.7.7-215.7 40.6-215.7 111.2Z"/><path fill="#000" d="M1134.5 2454.8c-97.4-32.4-195.301-102.5-254.201-191-77.5-116.5-125.8-323-16.5-426.9 45.2-42.9 107.5-59.1 173.601-56-.3 3.5-.6 7.1-.8 10.6-50.601 4.2-97.101 21.4-132.801 55.3-109.3 103.9-60.9 310.4 16.5 426.9 50.3 75.7 129.201 138 211.901 174.6.7 2.2 1.5 4.3 2.3 6.5Zm1989.6-195.5c-60.7 94.9-165.6 169.9-268 201.1.8-1.8 1.5-3.5 2.3-5.3 88.2-36.9 173.4-104 225.8-185.8 75.4-117.9 120.2-325.2 9.1-427.2-35.4-32.5-80.7-48.9-129.9-52.7-.2-3.5-.3-7-.5-10.4 64.4-3.4 125.4 11.9 170.4 53.2 111 101.9 66.2 309.2-9.2 427.1Z" opacity=".08"/><path fill="#000" d="M2212.9 2101.6c0 74.2-105.2 164.5-213.2 165.4-117.1 1-215.7-90.4-215.7-165.6 0-2.9.2-5.9.7-8.8 9 72.8 103.6 155.4 215 154.4 102.4-.9 202.3-82.2 212.4-153.9.5 2.8.8 5.7.8 8.5Z" opacity=".1"/><path fill="#000" d="M1637.8 3250.1c-18.8 11.1-41.6 13.1-62.1 5.5-21.2-7.9-38.2-24.2-50.7-48.5-7.7-15.1-12.8-31.3-15.1-48.1-2.1-14.6-1.4-29.5 2.1-43.8 1.4-5.8 3.4-11.4 5.9-16.8-.2-2.1-.3-4.2-.3-6.3-.3-90.4 30.6-183 89.5-268.8l.8.3c10.1 3.9 20.2 7.7 30.5 11.3-49.5 78.7-85.3 140.9-85 223.4-17 21.8-12.6 82.9.5 114.5 27.1 65.3 76.6 77 83.9 77.3Z" opacity=".08"/><path fill="#000" d="M1974.1 3510.3c-11.7 35.4-49.8 54.6-85.2 42.9h-.1c-27.7-9.2-93.8-15.5-147.7.2-35.8 10.4-73.3-10.1-83.7-45.9-2.7-9.4-3.4-19.2-2-28.9.5 3 1.1 6 2 8.9 10.4 35.8 47.9 56.3 83.7 45.9 53.9-15.7 120-9.4 147.7-.2 35.4 11.7 73.6-7.5 85.3-42.8 1.2-3.7 2.1-7.4 2.7-11.2 1.6 10.4.6 21.1-2.7 31.1Zm368.6-2.8c-10.4 35.8-47.8 56.3-83.6 46h-.1c-53.9-15.7-120-9.4-147.7-.2-35.4 11.7-73.6-7.5-85.3-42.8-3.3-10.1-4.3-20.8-2.7-31.2 5.5 36.8 39.8 62.3 76.6 56.8 3.9-.6 7.7-1.5 11.4-2.7 27.7-9.2 93.8-15.5 147.7.2 35.8 10.5 73.2-10.1 83.7-45.8v-.1c.9-2.9 1.5-5.9 2-8.9 1.4 9.4.7 19.3-2 28.7Z" opacity=".1"/><path fill="#000" d="M2487.4 3157.2c-4.1 35.1-23.3 81.7-64.1 97.7-20 7.9-42.4 6.4-61.2-3.9 10.5-1.3 56.9-14.7 82.8-77 13.1-31.6 17.4-93 .3-114.8.3-78.5-32-149-77.8-223.6 9.8-3.5 19.6-7.2 29.3-11 57.7 86.8 84.9 177.3 76.9 256.7-.2 1.9-.5 3.7-.8 5.5 5.3 8.3 9.2 17.3 11.8 26.8 3.6 14.2 4.6 29 2.8 43.6Zm-528 275.9c0 .6 0 1.3-.1 1.9-.1 2.5-.3 4.9-.6 7.4-7.6-8-17.1-13.9-27.5-17.4-28.6-9.5-66-15.2-105.2-16.1-18.6-.4-37.2.3-55.7 2.1.2-3.4.4-6.7.7-10.1 18.3-1.8 36.6-2.5 55-2.1 39.2.9 76.6 6.6 105.2 16.1 10.8 3.7 20.5 9.9 28.2 18.2Zm269.8-22.1c-18.3-1.8-36.8-2.4-55.2-2-39.2.9-76.6 6.6-105.2 16.1-10.6 3.5-20.1 9.6-27.8 17.7-.2-1.4-.3-2.8-.3-4.2l-.3-5.1c7.8-8.5 17.6-14.8 28.5-18.4 28.6-9.5 66-15.2 105.2-16.1 18.1-.4 36.3.3 54.4 2 .1 3.3.4 6.6.7 10Zm-445.5-102.2c48.6 44.1 110.6 75 179.1 82.5-.6 4.8-1.1 9.8-1.5 14.8-69-7.9-131.4-39.6-180-84.6.7-4.3 1.6-8.6 2.4-12.7Zm432.6 11.1c-47.8 44.3-109.5 75.8-178.6 85.2-.6-5-1.2-9.9-1.9-14.7 68.6-8.9 130-39.6 177.8-83 .9 4.1 1.8 8.3 2.7 12.5Z" opacity=".08"/><path fill="#000" d="M2317.6 3086.4c0 153.6-140.7 305.1-320 306.6-175.5 1.5-319-153-319-306.6 0-10 .2-20.1.8-30.3 11.6 146.8 150.2 288.4 318.2 286.9 172.9-1.5 309.8-142.3 319.4-290.1.4 11.5.6 22.5.6 33.5Z" opacity=".1"/><path fill="#000" d="M2175.4 3147c-59.9 74.9-132.4 85.6-175.4 85.6-47.6 0-118.3-8.3-177.4-81.9-27.7-34.5-37-79.7-35.1-134.2 1.6 43 12 79.3 35.1 108.2 59.1 73.6 129.9 81.9 177.4 81.9 43 0 115.5-10.7 175.4-85.6 25.4-31.7 36.2-71.9 37.8-118.8 1.8 58.2-7.8 107.3-37.8 144.8Z" opacity=".08"/><path fill="#000" d="M2396.6 2824.5c-35 13.7-71 26-107.7 36.4-5.5 1.6-11 3.1-16.6 4.6-77.3 20.8-157.6 33.7-237.9 36.1-102.9 3-205.3-11.3-302.1-37.2-4.3-1.2-8.7-2.4-13-3.6-38.4-10.8-76-23.3-112.3-37.4-7.2 10.5-14.1 21.2-20.4 31.9 39.6 16.1 80.1 30.2 121.2 42.2l1.2-1.7c-.2.6-.4 1.3-.5 1.9 103.8 30.1 214.6 47.1 326 43.9 88.5-2.6 176.9-18 261.5-42.7l1.4-.4c40.4-11.9 80.2-25.9 119.1-42-6.2-10.7-12.8-21.3-19.9-32Z" opacity=".1"/><path fill="#000" d="M2212.9 2081.6c0 74.2-105.2 164.5-213.2 165.4-117.1 1-215.7-90.4-215.7-165.6 0-3.1.3-6.2.8-9.3 42.2 52.2 123.3 95.7 214.4 94.9 85.1-.7 168.7-45.3 211.9-97.9 1.2 4.1 1.8 8.3 1.8 12.5Z" opacity=".2"/><path fill="#000" d="M1834.5 1427c-10.5-2.9-21.1-4.9-31.9-6.2-175.2-20.2-342.8 182.7-338.4 374.2 2.5 107.2 59.4 229.8 152.7 291.6-116.4-48.8-189.2-190.3-192-312-4.3-190.1 160.8-391.6 333.4-371.6 26.6 3.3 52.5 11.4 76.2 24Zm739.3 337.6c-.7 123.3-72.8 268.1-190.9 317.2 95.3-61.6 152.1-188.1 152.7-297.6 1-190.6-168-389.6-340.6-366.5-15.5 2.1-30.7 5.9-45.4 11.3 26-15.6 54.3-26.1 84.4-30.2 172.1-22.9 340.8 175.6 339.8 365.8Z" opacity=".05"/><path fill="#000" d="M1862.2 1605.5c-4.3-1.2-8.8-2.3-13.2-3.2-99.1-19.2-197.6 58.5-219.9 173.6-16.8 86.3 14.1 169.2 72.3 213.3-81.9-32-130.2-129.9-110.2-232.9 22.1-114 119.6-190.9 217.7-171.8 18.9 3.8 37 10.9 53.3 21Zm432.9 380.9c60.9-43.7 92.6-129.1 73.9-217.3-24.2-113.8-123.2-189.3-221.2-168.5-5.9 1.3-11.8 2.9-17.5 4.8 17-11.6 36.2-19.8 56.3-24.1 97.8-20.8 196.5 54.5 220.6 168 22.3 105.1-27.1 206.2-112.1 237.1Z" opacity=".1"/><path fill="#000" d="M2749.4 1798.1c0 6.5-.1 12.8-.3 18.9-15.7-308.5-265-613.2-481.5-613.2-155.6 0-248.9 116.6-268 116.7-22.7.2-95.6-116.7-268-116.7-215.8 0-465.7 303.7-481.7 611.8l-.2 3.6c0 1.2-.1 2.4-.2 3.7-.1 1.3-.1 2.4-.1 3.6-.5-9.1-.8-18.6-.8-28.5-.3-318.5 259.3-643.2 482.5-643.3 172.4 0 245.3 117 268 116.8 19.2-.2 112.4-116.8 268-116.8 223.6.1 482.1 324.9 482.3 643.4Z" opacity=".1"/><path fill="#000" d="M2875.3 2377.5c0 209.3-420.4 512-840.9 524.2-461.3 13.3-910.3-319.7-910.3-497.7 0-4.8.1-9.4.3-14 38.6 182.8 468.4 486 909.4 473.3 406.2-11.8 812.3-294.1 841-502.2.4 5.2.5 10.7.5 16.4Z" opacity=".08"/><path fill="#84565B" stroke="#3A1717" stroke-miterlimit="10" stroke-width="10" d="M2303.4 2294.4c-4.5-8.2-18.2-3.9-22.6 4.6-17.6 34.2-38.8 12-49.8-4.3-4.4-6.5-13-8.8-19.7-4.8-22.6 13.3-51 22.1-82.6 27.6-85.9 15-195.2 5.5-275.1-6.8-59.2-9.1-102.3-19.6-108-22.8-16.7-9.4-13.9-2.5-16.2.9-397.8 588.8 925.2 641.9 574 5.6Z"/><path fill="#C17989" stroke="#3A1717" stroke-miterlimit="10" stroke-width="5" d="M1665 2432.8c73.3-61.6 201.8-102.4 348.2-102.4 145.5 0 273.4 40.3 346.9 101.3 90.8 440.4-794.2 411.2-695.1 1.1Z"/><path fill="#E6949A" d="M1651.1 2476.3c68.9-56.2 201.6-83.5 354.4-83.5 152.1 0 284.9 27.1 354.5 82.7 14.8 370.1-726.6 347.5-708.9.8Z"/><path stroke="#3A1717" stroke-miterlimit="10" stroke-width="10" d="M1654.3 2482.8c.8-16 3.2-32.7 7.4-50 10.6-43.7 32.3-91.8 67.6-144 2.3-3.4-.5-10.3 16.2-.9 5.7 3.2 48.8 13.8 108 22.8 80 12.2 189.3 21.8 275.1 6.8 31.6-5.5 60-14.4 82.6-27.6 6.7-3.9 15.3-1.7 19.7 4.8 11.1 16.2 32.3 38.5 49.9 4.3 4.3-8.4 18-12.8 22.5-4.6 27.6 50 44.9 95.8 53.4 137.3 3.6 17.5 5.7 34.3 6.3 50.4 15.1 370-726.4 347.4-708.7.7Z"/><path fill="#FFB699" d="M1479.3 2351.5c85.6 0 155-38.6 155-86.3 0-47.7-69.4-86.3-155-86.3s-155 38.6-155 86.3c0 47.7 69.4 86.3 155 86.3Z"/><path stroke="#EF9D81" stroke-linecap="round" stroke-miterlimit="10" stroke-width="10" d="m1345.4 2201.7 165.6 165.6m-102.3-200.6 184.2 184.2m-87-184.2 141.3 141.3m-322.9-42.8 67.7 67.8"/><path fill="#FFB699" d="M2509.8 2334.7c85.6 0 155-38.6 155-86.3 0-47.7-69.4-86.3-155-86.3s-155 38.6-155 86.3c0 47.7 69.4 86.3 155 86.3Z"/><path stroke="#EF9D81" stroke-linecap="round" stroke-miterlimit="10" stroke-width="10" d="m2375.9 2184.8 165.7 165.7m-102.3-200.7 184.2 184.2m-87.1-184.2 141.3 141.4m-322.9-42.8 67.8 67.7"/><path fill="#FBDD11" d="M2298.3 819.2c44-18.8 146.8-107.9 146.8-107.9 182 38.4 325.4-9.3 363.2-41.5 37.8-32.2 11.4-75.8 11.4-75.8s-138.9-164.1-328.9-182.8C2300.9 392.4 2111.7 663 2111.7 663l-2.6-11.4c-48.4-69.6-94.1-31.2-94.1-31.2-22.9-9.3-44.8 14.5-44.8 14.5-32.5-30.1-73.9 3.1-73.9 3.1s-185.5-266.9-375.5-248.2c-189.9 18.7-328.9 182.8-328.9 182.8s-26.4 43.6 11.4 75.8c37.8 32.2 181.1 80 363.2 41.5 0 0 102.9 89.2 146.8 107.9"/><path fill="#000" d="M1623.3 405.5s-143.7-17.2-344.7 155.9c0 0-8 35.8 12.8 43.5 20.7 7.7 59.4 59 223 59 0 0 8.8-1.4 9.4-3.5 0 0-24-22.2-17.9-59.9 0 0 2.3-22.8 29.9 9.7 27.6 32.5 220.7 178.3 315.7 154.7 0 0 2.1-59.6 35-97.6 0 0-9.7 38 5.8 114.4 0 0-107.7-1.9-178.3 17.1 0 0-83.8-51.1-148.8-109.9 0 0-148.8 42.5-311.7-13.2 0 0-62.8-17.2-69.6-63.9 0 0-.4-28.9 12.4-42.5 12.8-13.6 101.4-106 206.4-147.7 104.7-41.7 146.1-38.2 220.6-16.1Zm954.8 25.2s-201.5-114.4-475 328.5c-3.1 5-5.2 10.9-4.2 17 1.4 9 8.6 19 34.3 16.2 44.7-4.7 61.1-23.4 159.6-25.5 98.5-2.1 77.3 6.4 77.3 6.4s-53.8 41.7-75.8 48.5c0 0-110.7-30.8-235.5-15.2l-8.7-2.9s19.9-92.9 77.2-160.2c57.4-67.4 110.9-140.5 231.6-203.6 108-56.5 219.2-9.2 219.2-9.2Z" opacity=".1"/><path fill="#000" d="M1929.9 783.8s-24.6-20.7-20.5-89.9c4.1-69.2 22.6-70.3 22.6-70.3s-20.7 1.1-36 16.3c-15.3 15.2-14.6 66.1-3.8 141.7-.1 0 22.6-.9 37.7 2.2Z" opacity=".1"/><path stroke="#333" stroke-linecap="round" stroke-linejoin="round" stroke-miterlimit="10" stroke-width="5" d="M2298.8 819.9c44-18.8 146.8-107.9 146.8-107.9 182 38.4 325.4-9.3 363.2-41.5 37.8-32.2 11.4-75.8 11.4-75.8s-138.9-164.1-328.9-182.8c-189.9-18.7-379.2 251.9-379.2 251.9l-2.6-11.4c-48.4-69.6-94.1-31.2-94.1-31.2-19.9-16.4-44.8 17.7-44.8 17.7-27.8-38.3-73.9 0-73.9 0S1711.2 372 1521.3 390.7c-189.9 18.7-328.9 182.8-328.9 182.8s-26.4 43.6 11.4 75.8c37.8 32.2 181.1 80 363.2 41.5 0 0 102.9 89.2 146.8 107.9"/><path stroke="#333" stroke-linecap="round" stroke-linejoin="round" stroke-miterlimit="10" stroke-width="5" d="M1567 690.8s-28.1-25.6-52.8-83.1m378.2 175.1c-22.3-114.2 4.4-144 4.4-144m51.8 144.7s5.1-71.9 7.4-86.5c3.4-21.4 2-30.8 14.6-58.2m44.9-17.6s-30.6 13.4-63.1 162.3m159.8-119.7s-47.5 50.3-60 142.1"/><path fill="#FBDD11" d="M2737.7 2694s-18.3-54.6-55.1 29.3c-36.7 83.9-51.4 92.5-45 156.4 6.4 63.8 97.6 59.3 97.6 59.3"/><path stroke="#333" stroke-linejoin="round" stroke-miterlimit="10" stroke-width="5" d="M2737.7 2694s-18.3-54.6-55.1 29.3c-36.7 83.9-51.4 92.5-45 156.4 6.4 63.8 97.6 59.3 97.6 59.3"/><path fill="#FBDD11" d="M1257.5 2694s18.3-54.6 55.1 29.3c36.7 83.9 51.4 92.5 45 156.4-6.4 63.8-97.6 59.3-97.6 59.3"/><path stroke="#333" stroke-linejoin="round" stroke-miterlimit="10" stroke-width="5" d="M1257.5 2694s18.3-54.6 55.1 29.3c36.7 83.9 51.4 92.5 45 156.4-6.4 63.8-97.6 59.3-97.6 59.3"/><path fill="#FBDD11" stroke="#333" stroke-linejoin="round" stroke-miterlimit="10" stroke-width="5" d="M2966.3 2862.7c95-12.7 60-99.3 52.4-121.3-41.6-121-78.7-128.1-104.6-135.8-17.7-5.3-31.6 10.6-31.6 10.6l-30.8 26.8 35.7 140.3 78.9 79.4Zm-1937.3 0c-95-12.7-60-99.3-52.4-121.3 41.6-121 78.7-128.1 104.6-135.8 17.7-5.3 31.6 10.6 31.6 10.6l30.8 26.8-35.7 140.3-78.9 79.4Z"/><path fill="#FCDE11" stroke="#333" stroke-linejoin="round" stroke-miterlimit="10" stroke-width="5" d="M3055 2191.5c13.4-186.9-25.7-917.9-382-1305.2-90.1-98-358.9-232.9-562.2-157.9-22.2 8.2-48.6 17.8-76.1 40-37.9 30.5-28.4 243.6 1.7 226.7l548.6 330.3s173.3 441.6 47 808.6c-75.1 217.9-35 311.2 10 351l3.6 3.4c13.8 36 28.3 46.9 39.4 48.3l3.2.2c0 11.9 21 20.6 21 20.6l.1-.1 12.3 159.1s-2.6 2.3-3.7 2.9c-26.2 13.8-36.4 0-46.9-7.9-5.4-4.1-11.5 48.9 26.4 43.1 2.6-.4 3.5 5 2.2 7.3-41.1 71.1-21 258.8 89.1 179.6l-2.5-2.6c51.8 31.2 83.8-32.1 83.8-32.1l-1.6-1.5c59.5 16.9 107.7-27.8 101.9-76.9 0 0-4.8-118.8-85.4-176.9l-.1-.5-8.9-101.1s22.8-.6 23.9-23.8c75.2-7.1 144.7-187.6 155.2-334.6Z"/><path stroke="#333" stroke-miterlimit="10" stroke-width="5" d="M2718.2 2503.1c-10.6 8.1-12.2 11.2-12.2 11.2l1 12.8 2.5 30.4 12.7 159.1"/><path stroke="#333" stroke-linecap="round" stroke-miterlimit="10" stroke-width="5" d="M2737.7 2703.2s-44 6.8 14.9 193.4m105.5-537.9c140.5-216.8 50.9-650.9 50.9-650.9s33.6 46.7 49 136.7"/><path fill="#333" d="M2958 1844.4c-15.4-90-49-136.7-49-136.7s19.2 96.8 27.7 220.5c.1.1-8.2-120 21.3-83.8Z" opacity=".1"/><path stroke="#333" stroke-linecap="round" stroke-miterlimit="10" stroke-width="5" d="M2867.2 2517.8s194-76.5 138.5-497.4m-298.8 506.8s-31.9 38.9-62.7-38.8"/><path stroke="#333" stroke-linecap="round" stroke-miterlimit="10" stroke-width="5" d="M2834.5 2392.4c-22.7 32.9-22.7 69.3-22.9 81.7v.2c1.8 17.8 1.4 26.5 8.4 39 .8 1.5 1.7 2.8 2.8 4.2.2.4.6.7.9 1 8.1 9.5 21.4 12.9 43.6-1m14.3 98.7s13.9-15.9 31.6-10.6c25.9 7.7 63 14.8 104.6 135.8 7.6 22 42.6 108.6-52.4 121.3m-194-376.7s-4 44.8-45.4 20.1c0 0-165.6-55.8-63.6-489.2"/><path stroke="#333" stroke-linecap="round" stroke-miterlimit="10" stroke-width="5" d="M2811.7 2474.2c-.1.1-.1.1-.1.2-36.1 46.8-138.4-26.5-88-299.3m175.7 351.1c-17.2 4.7-29.1-8.4-29.1-8.4m-1.9 387.5s-48.4-6.2-74.7-110.6"/><path fill="#FBEA5E" stroke="#333" stroke-miterlimit="10" d="M2621.1 924.9c-.1 0-.1 0 0 0Z"/><path fill="#FBDD11" d="M2786.1 2938.9s-23.4-7.7-33.5-42.3l33.5 42.3Z"/><path stroke="#333" stroke-linecap="round" stroke-linejoin="round" stroke-miterlimit="10" stroke-width="5" d="M2786.1 2938.9s-23.4-7.7-33.5-42.3"/><path stroke="#333" stroke-linecap="round" stroke-miterlimit="10" stroke-width="5" d="M2884.8 2651.5s11.5-50.6 56.7-34.8"/><path fill="#333" fill-opacity=".1" fill-rule="evenodd" d="M3008.8 2714.4c3.3 8.3 6.6 17.3 9.9 27 .3.9.7 2 1.1 3.1 9.2 26 37.6 106-53.5 118.2l-.6-.6c-13.4 33.2-52.1 56-97.4 43.2l1.6 1.5s-32 63.3-83.8 32.1l2.5 2.6c-42.5 30.6-71.6 21.4-88.9-5.6-26.4-5.3-58.5-19.3-62.2-56.2-3.1-30.8-1.3-48.7 5.5-68.4 3.4 50.7 20.1 65 36.9 47.2 20 30 58 38.5 65 9.5 27 15 50 0 59-41.5 41.5 32 130.5-2.5 157-50.5 39.5 29 56-19.5 46.5-62 .5.1 1 .3 1.4.4Z" clip-rule="evenodd"/><path fill="#FBDD11" d="M2721.5 2716.5s-10.1-43.4-30.3-11l30.3 11Z"/><path stroke="#333" stroke-linejoin="round" stroke-miterlimit="10" stroke-width="5" d="M2721.5 2716.5s-10.1-43.4-30.3-11m30.3 11.1s5.6-10.1 16.2-13.4c0 0 30.7-51 73.9-34.7"/><use xlink:href="#a" stroke-linecap="round" stroke-linejoin="round" stroke-miterlimit="10" stroke-width="5"/><path fill="#DDCB73" d="m2706.2 2513.9 15.6 202.1s3.5-8.8 16.2-13.4c0 0 31.6-53 73.9-34.7 0 0 13-36.5 73.1-17.5l-12.8-131.6-4.6-1.6s-18.6 15.2-36.3 6.8c-17.7-8.4-19.6-37.4-19.4-48.3 0 0-16.6 20.1-40.2 9.7 0 0-3.2 47.9-53.2 17.2l-12.3 11.3Z"/><path fill="#FFFDF5" d="M2749.6 2687.8c8.9-9.6 22.3-20.6 38.5-22.7l-12.8-177.6c-1.3-.4-2.6-.9-4-1.5 0 0-2.3 35.2-34.4 25.9l12.7 175.9Z"/><path fill="#333" fill-opacity=".1" d="M2877.2 2574.7c-10-39.8-39.7-18.1-67.3-39.7-13.5-10.6-17.9-39.9-38-12.5-14.4 19.5-41.5.9-41.5.9s-19.3.2-20.6 39.4l-4-6.7s-18.3-5.5-17.8-19.1c0 0-20.6 6.6-42.1-48.6s26.4-32 26.4-32-5.9-91.9 55.6-28c0 0 40.9-60 92.5-8.7 0 0 163.6 3.1 80.4 76.1 0 0 15.4.2 35-9.9 14.7-7.6 31.8-21 46.5-44.5 0 0-34 65.9-63.3 77.9l-20.3 9.3s.8 18.1-22.2 21.7l.7 24.4Z"/><use xlink:href="#a" stroke-linecap="round" stroke-linejoin="round" stroke-miterlimit="10" stroke-width="5"/><path fill="#FCDE11" stroke="#333" stroke-linejoin="round" stroke-miterlimit="10" stroke-width="5" d="M948.101 2225.4c8.2-310.1 17.9-951.8 374.199-1339.1 90.1-98 358.9-232.9 562.2-157.9 127.1 46.9 90.2 154.2 90.2 275.6l-564.4 321.5s-173.3 441.6-47 808.6c75.1 217.9 35 311.2-10 351l-4 3.3c-13.8 36-27.9 47-39 48.4l-3.2.2c0 11.9-21 20.6-21 20.6l-.1-.1-12.3 159.1s2.6 2.3 3.7 2.9c26.2 13.8 36.4 0 46.9-7.9 5.4-4.1 11.5 48.9-26.4 43.1-2.6-.4-3.5 5-2.2 7.3 41.1 71.1 21 258.8-89.1 179.6l2.5-2.6c-51.8 31.2-83.8-32.1-83.8-32.1l1.6-1.5c-59.5 16.9-107.7-27.8-101.9-76.9 0 0 4.8-118.8 85.4-176.9l.1-.5 8.9-101.1s-22.8-.6-23.9-23.8l-3-.6c-19.3-3.5-46.9-22.4-79.6-84.1l-3.1-3.8c-35.899-46.2-64.299-114.2-61.699-212.3Z"/><path stroke="#333" stroke-miterlimit="10" stroke-width="5" d="M1277.1 2503.1c10.6 8.1 12.2 11.2 12.2 11.2l-1 12.8-2.5 30.4-12.7 159.1"/><path stroke="#333" stroke-linecap="round" stroke-miterlimit="10" stroke-width="5" d="M1257.5 2703.2s44 6.8-14.9 193.4m-105.5-537.9c-140.501-216.8-50.9-650.9-50.9-650.9s-33.6 46.7-49 136.7"/><path fill="#333" d="M1037.2 1844.4c15.4-90 49-136.7 49-136.7s-19.2 96.8-27.7 220.5c0 .1 8.2-120-21.3-83.8Z" opacity=".1"/><path stroke="#333" stroke-linecap="round" stroke-miterlimit="10" stroke-width="5" d="M1128 2517.8s-194.001-76.5-138.501-497.4m298.901 506.8s31.9 38.9 62.7-38.8m-190.3-96c22.7 32.9 22.7 69.3 22.9 81.7v.2c-1.8 17.8-1.4 26.5-8.4 39-.8 1.5-1.7 2.8-2.8 4.2-.2.4-.6.7-.9 1-8.1 9.5-21.4 12.9-43.6-1m-14.3 98.7s-13.9-15.9-31.6-10.6c-25.9 7.7-63 14.8-104.599 135.8-7.6 22-42.6 108.6 52.399 121.3m194-376.7s4 44.8 45.4 20.1c0 0 165.7-55.4 63.7-488.8"/><path stroke="#333" stroke-linecap="round" stroke-miterlimit="10" stroke-width="5" d="M1183.6 2474.2c.1.1.1.1.1.2 36.1 46.8 138.4-26.5 88-299.3m-175.8 351.1c17.2 4.7 29.1-8.4 29.1-8.4m2 387.5s48.4-6.2 74.7-110.6"/><path fill="#FBDD11" d="M1209.1 2938.9s23.4-7.7 33.5-42.3l-33.5 42.3Z"/><path stroke="#333" stroke-linecap="round" stroke-linejoin="round" stroke-miterlimit="10" stroke-width="5" d="M1209.1 2938.9s23.4-7.7 33.5-42.3"/><path fill="#333" fill-opacity=".1" fill-rule="evenodd" d="M1349.2 2803.6c-.1 0-.2-.1-.2-.1 4 45-17.5 72-34.5 54-20 30-55.1 39.5-62.1 10.5-20.9 14-51.4-1-60.4-42.5-41.5 32-142.5 11.5-157.5-56-39.5 29-54.1-13-44.6-55.5l-3.6 1.2c-3.2 8.1-6.4 16.8-9.6 26.2-.3.9-.7 1.9-1.1 3-9.2 26-37.5 106 53.5 118.2l.5-.5c13.4 33.3 52.1 56.1 97.4 43.2l-1.6 1.5s32 63.3 83.8 32.1l-2.5 2.6c42.6 30.6 71.7 21.3 89-5.7 26.3-5.3 58.3-19.4 62-56.2 3.4-34.6.6-53-8.5-76Z" clip-rule="evenodd"/><path stroke="#333" stroke-linecap="round" stroke-miterlimit="10" stroke-width="5" d="M1110.4 2651.5s-11.5-50.6-56.7-34.8"/><path fill="#FBDD11" d="M1273.7 2716.5s10.1-43.4 30.3-11l-30.3 11Z"/><path stroke="#333" stroke-linejoin="round" stroke-miterlimit="10" stroke-width="5" d="M1273.7 2716.5s10.1-43.4 30.3-11m-30.3 11.1s-5.6-10.1-16.2-13.4c0 0-30.7-51-73.9-34.7"/><use xlink:href="#b" stroke-linecap="round" stroke-linejoin="round" stroke-miterlimit="10" stroke-width="5"/><path fill="#DDCB73" d="m1289.1 2513.9-15.6 202.1s-3.5-8.8-16.2-13.4c0 0-31.6-53-73.9-34.7 0 0-13-36.5-73.1-17.5l12.8-131.6 4.6-1.6s18.6 15.2 36.3 6.8c17.7-8.4 19.6-37.4 19.4-48.3 0 0 16.6 20.1 40.2 9.7 0 0 3.2 47.9 53.2 17.2l12.3 11.3Z"/><path fill="#FFFDF5" d="M1174.7 2658c-8.2-11.7-22.7-11.8-38.5-12.3l11.6-119.1c1.3-.4 28.2 12.6 37.5-48.7 0 0 .6 7.4 8.5 7l-19.1 173.1Z"/><path fill="#333" fill-opacity=".1" d="M1118 2574.7c10-39.8 39.7-18.1 67.3-39.7 13.5-10.6 17.9-39.9 38-12.5 14.4 19.5 41.5.9 41.5.9s19.3.2 20.6 39.4l4-6.7s18.3-5.5 17.8-19.1c0 0 20.6 6.6 42.1-48.6s-26.4-32-26.4-32 5.9-91.9-55.6-28c0 0-40.9-60-92.5-8.7 0 0-163.6 3.1-80.4 76.1 0 0-15.4.2-35-9.9-14.7-7.6-31.8-21-46.5-44.5 0 0 34 65.9 63.3 77.9l20.3 9.3s-.8 18.1 22.2 21.7l-.7 24.4Z"/><use xlink:href="#b" stroke-linecap="round" stroke-linejoin="round" stroke-miterlimit="10" stroke-width="5"/><path stroke="#333" stroke-linecap="round" stroke-miterlimit="10" stroke-width="5" d="M1349.3 2488.4s-37.3 43.9-59.9 26.1m1355.3-27s20.8 22.9 61.2 27"/><path fill="#4DBF4C" d="M2980.8 1346.7c.7 3.6 1.4 7.3 2.1 10.9-.7-3.6-1.4-7.3-2.1-10.9Zm2.1 11.1c.6 3.3 1.2 6.6 1.8 10-.5-3.3-1.1-6.7-1.8-10Zm4.2 23.4c.6 3.4 1.2 6.9 1.7 10.3-.5-3.4-1.1-6.8-1.7-10.3Zm-1.8-10.6c.5 2.6.9 5.2 1.4 7.8-.5-2.6-1-5.3-1.4-7.8Zm-11.5-57.5c1.6 7.1 3.1 14.2 4.6 21.4-1.5-7.2-3-14.3-4.6-21.4Zm4.9 22.8c.7 3.2 1.3 6.5 1.9 9.7-.6-3.2-1.3-6.4-1.9-9.7Zm-192.4-69.7c-.7-1.6-1.5-3.2-2.2-4.8.7 1.5 1.4 3.1 2.2 4.8Zm4.7 10.3c-1-2.2-2-4.4-3-6.7 1 2.3 2 4.5 3 6.7Zm180.5 26.7c.6 2.8 1.3 5.6 1.9 8.4-.6-2.8-1.2-5.6-1.9-8.4Zm-126.2 108.2c0 .1.1.2.1.3-.1-.1-.1-.2-.1-.3Zm-65.7-159.7c.1.3.3.6.4.9-.1-.2-.2-.4-.2-.5-.1-.1-.2-.2-.2-.4Zm12 26.2c13 28.7 24.9 57.3 35.7 85.1-11.1-28.7-23-57.1-35.7-85.1Zm83.1 226.8-4.8-17.1c-1.7-5.7-3.3-11.4-5.1-17.1-5.5-17.9-11.3-35.6-17.5-53.3 11.6 33.3 21.4 65.2 29.3 94.9v-.1c-.6-2.4-1.3-4.8-1.9-7.3Zm-92.3-342.9c52.9 14.9 102.6 40.9 145.3 75.4 25.1 20.3 35.8 32.3 43.2 63.3-75.3-322.5-258.7-528.5-557.7-500.1 131 66 246.6 220 332.1 382.5-5.1-19 1.1-31.3 37.1-21.1Zm-1578.5 125.3Zm-162.5-28.5c8.3-16.3 19.5-30.3 34.9-40.6 57.2-38.2 122.9-63.7 191-73.7 4.4-.7-22.2 56.3-23.6 59l-.3.6c86.5-170.1 206.4-334.5 343-403.4-247.5 0-456 166.1-545 458.1Zm175.7-.5c-.5 1-.9 2-1.4 3 .4-1 .9-2 1.4-3Zm-5.4 11.7c-.4 1-.9 2-1.3 2.9.4-.9.8-1.9 1.3-2.9Zm-278.401 446.1-.6-1.5c.5 1.6 1.3 3 2.3 4.1-.6-.7-1.1-1.5-1.5-2.4-.1 0-.2-.1-.2-.2Zm272.501-433.2c.6-1.3 1.2-2.6 1.7-3.9l-.6 1.2c-.3 1-.7 1.9-1.1 2.7Zm28.9-61.4c-.7 1.3-1.3 2.7-2 4 .7-1.3 1.4-2.6 2-4Zm4.4-8.8c-.5.9-.9 1.8-1.4 2.7.5-.8.9-1.8 1.4-2.7Zm-57.4 126.8c-.9 2.2-1.7 4.3-2.6 6.5-.5 1.2-1 2.4-1.4 3.6-.9 2.4-1.9 4.8-2.8 7.2-.4 1-.8 2-1.2 2.9-2.6 6.8-5.3 13.6-7.8 20.4-.3.9-.7 1.8-1 2.8-.9 2.5-1.8 4.9-2.8 7.4-.4 1.2-.9 2.3-1.3 3.5-.3.7-.5 1.4-.8 2.1 7.1-19.5 14.8-39.5 23-59.7-.1.2-.1.3-.2.5-.3 1-.7 1.9-1.1 2.8Zm48.7-109.1c-.7 1.4-1.4 2.9-2.1 4.3.7-1.5 1.4-2.9 2.1-4.3Zm-4.3 8.9c-.7 1.4-1.4 2.9-2.1 4.3.7-1.5 1.4-2.9 2.1-4.3Zm-4.4 9.1c-.6 1.4-1.3 2.7-1.9 4.1.6-1.4 1.3-2.8 1.9-4.1ZM1157 1404c-.1.3-.2.5-.3.8.9-2.4 1.7-4.8 2.6-7.2-.3.9-.7 1.8-1 2.8-.4 1.2-.9 2.4-1.3 3.6Zm-75.4 257.6-5.4 3.3c-1.3.8-2.5 1.5-3.8 2.3-1.6 1-3.3 2-4.9 2.9-5.2 3.1-10.4 6.2-15.7 9.2-1.1.7-2.3 1.3-3.4 2-2.8 1.6-5.7 3.2-8.5 4.8-2.5 1.4-5.1 2.8-7.6 4.2-2.7 1.5-5.5 2.9-8.2 4.4-1.9 1-3.7 1.9-5.5 2.9-.1.1-.2.1-.4.2-24.201 12.4-46.601 21.8-62.501 24.5-.5.1-1 .2-1.5.2-1.3.2-2.6.3-3.8.4-.9.1-1.8.1-2.6.1-3.2 0-5.9-.4-8.2-1.3-.6-.2-1.1-.4-1.6-.7-.3-.1-.5-.3-.8-.4 21.6 13.6 104.701-33.4 162.901-70.5-5.9 3.7-12.1 7.6-18.5 11.5Zm68.2-237.1c-3 8.9-6.1 17.9-9.1 27 0 .1-.1.3-.1.4-1.4 4.1-2.7 8.2-4.1 12.4-.4 1.2-.8 2.5-1.2 3.7-3.5 10.7-6.8 21.6-10 32.5-1.9 6.6-3.8 13.2-5.6 19.8-.7 2.5-1.3 4.9-1.9 7.4-2.3 11.2-5.4 22.4-7.9 34-.1.6-.2 1.1-.4 1.7 0 .2-.1.5-.1.7-.1.4-.2.8-.2 1.2-.4 2.4-.8 7-1.2 12.8 8.2-44.3 22.6-97.6 42.5-155.4-.3.7-.5 1.2-.7 1.8Zm3-8.7c.3-1 .7-1.9 1-2.9-.2.5-.3.9-.5 1.4-.1.5-.3 1-.5 1.5Z"/><path fill="#71C540" d="M3061.2 1721.1c-.1 0-.1.1-.2.1 0 0 .1 0 .2-.1Zm5-4.9c-.4.9-.9 1.7-1.5 2.4.6-.8 1.1-1.6 1.5-2.4Zm.3-.7c-.1.1-.1.3-.1.4 0-.1.1-.2.1-.4Zm-30.4 5c1.5.4 3 .7 4.4 1-.3-.1-.7-.1-1-.2-1.1-.3-2.2-.6-3.4-.8Zm28.5-1.9c-.5.6-1.2 1.1-1.8 1.6.7-.5 1.3-1 1.8-1.6Zm-36.9-.6c1.2.4 2.3.7 3.4 1.1-.1 0-.2-.1-.3-.1-1-.4-2-.7-3.1-1Zm15.8 4.1c2 .3 3.9.6 5.6.7-1.4-.1-2.9-.3-4.4-.5-.3-.1-.8-.2-1.2-.2Zm-124-59.6c-1-.6-1.9-1.2-2.9-1.8.9.6 1.9 1.2 2.9 1.8Zm-91.5-303.4c28.8.2 57.9 15.7 83.4 27.8 10.8 5.1 21.7 10.3 31.5 17 7.2 4.9 13.6 10 19.3 15.3 33.7 31.5 42.4 70.1 52.7 117.3.1.2.1.5.2.7-10.4-47.5-18.3-96.5-26.3-145.7-.6-3.4-1.1-6.9-1.7-10.3-.2-1-.3-1.9-.5-2.9-.4-2.6-.9-5.2-1.4-7.8-.2-.9-.3-1.8-.5-2.8-.6-3.3-1.2-6.6-1.8-10v-.2c-.7-3.6-1.4-7.3-2.1-10.9-.1-.3-.1-.7-.2-1-.6-3.2-1.3-6.5-1.9-9.7l-.3-1.5c-1.5-7.1-3-14.2-4.6-21.4-.1-.5-.2-1-.3-1.4-.6-2.8-1.3-5.6-1.9-8.4-.1-.6-.3-1.1-.4-1.7-.1-.3-.2-.6-.2-.9-7.4-31-18.1-43-43.2-63.3-42.7-34.6-92.4-60.5-145.3-75.4-36-10.2-42.2 2.1-37.1 21.2 5.9 21.9 26.6 52.7 34.2 68.8.1.1.1.2.2.4s.2.4.2.5c1.4 2.9 2.7 5.8 4 8.7.7 1.6 1.5 3.2 2.2 4.8.6 1.2 1.1 2.4 1.7 3.7 1 2.2 2 4.4 3 6.7.2.5.4.9.6 1.4 12.7 28 24.6 56.4 35.7 85.1.2-1.5.4-2.8.8-4.1Zm129.5 325.7c1.7 1 3.4 1.9 5.2 2.9l-1.2-.6c-1.4-.8-2.7-1.5-4-2.3Zm94.3 38.1c3.5 0 6.4-.5 8.8-1.5-1.9.8-4.1 1.3-6.7 1.5h-2.1Zm11.9-30.6v.1c.1 0 0-.1 0-.1ZM1157 1404c.4-1.2.9-2.4 1.3-3.7-.4 1.3-.9 2.5-1.3 3.7Zm-206.6 318.8c1.2-.1 2.5-.2 3.8-.4-1.3.1-2.6.3-3.8.4Zm-18-9.5c.1.4.1.7.3 1.1.2.5.4 1.1.6 1.5-.4-.8-.7-1.7-.9-2.6Zm187.3-192.9c-.7 2.5-1.3 4.9-1.9 7.4.6-2.5 1.2-5 1.9-7.4Zm30.1-95.9c-3.1 9-6.1 18-9.2 27.1 3.1-9.1 6.2-18.2 9.2-27.1Zm-214.8 294c.7.7 1.4 1.4 2.3 1.9.2.1.5.3.8.4-1.2-.5-2.3-1.3-3.1-2.3Zm-.1 0Zm190.4-217.9c3.2-10.9 6.6-21.8 10-32.5-3.5 10.7-6.8 21.5-10 32.5Zm-138.499 26c.4-2.1.9-4.1 1.3-6.2-.5 2-.9 4.1-1.3 6.2Zm2.099-10.3c.2-1.2.5-2.4.7-3.6-.2 1.2-.5 2.4-.7 3.6Zm-4.601 21.7c-.5 2.4-1.1 4.9-1.6 7.3 0-.1.1-.3.1-.4l1.5-6.9Zm14.2-72.8c-.1.6-.2 1.1-.3 1.7.1-.5.2-.9.2-1.4.1 0 .1-.1.1-.3Zm179.101-115.8c.5-1.2 1-2.4 1.4-3.6-.4 1.2-.9 2.4-1.4 3.6Zm-16.8 44.2c.4-1.2.9-2.3 1.3-3.5-.5 1.1-.9 2.3-1.3 3.5Zm-213 329.3c-3.2 0-5.9-.4-8.2-1.3 2.3.9 5 1.3 8.2 1.3Zm7.899-.8c15.9-2.6 38.3-12.1 62.501-24.5-24.101 12.5-46.501 21.9-62.501 24.5Zm209.101-339.4c.3-.9.7-1.8 1-2.8-.3.9-.6 1.8-1 2.8Zm-180.101 153.5c.6-2.6 1.1-5.3 1.7-7.9-.5 2.6-1.1 5.3-1.7 7.9Zm189.001-176.7c.4-1 .8-2 1.2-2.9-.5.9-.9 1.9-1.2 2.9Zm-20.4 54.8c.2-.5.3-.9.5-1.4.2-.6.4-1.3.7-1.9-.4 1.2-.8 2.2-1.2 3.3Zm-134.6 283.2c1.8-.9 3.7-1.9 5.5-2.9-1.9 1-3.7 1.9-5.5 2.9Zm57.6-32.6 5.4-3.3-5.4 3.3Zm-43.9 25.3c2.5-1.4 5.1-2.8 7.6-4.2-2.6 1.5-5.1 2.9-7.6 4.2Zm16.1-8.9c1.1-.6 2.3-1.3 3.4-2-1.2.7-2.3 1.3-3.4 2Zm19.1-11.2c1.6-1 3.3-2 4.9-2.9-1.7 1-3.3 2-4.9 2.9Zm68.9-205.7c1.3-4.1 2.7-8.3 4.1-12.4-1.4 4.1-2.8 8.2-4.1 12.4Zm46.1-127.4c-.3.8-.6 1.5-.9 2.3.4-.9.8-1.9 1.1-2.8 0 .2-.1.4-.2.5Zm-246.901 355.8c.2-.5.4-1.1.6-1.6-.2.5-.4 1.1-.6 1.6Zm331.601-548.5c-68.1 10.1-133.8 35.6-191 73.7-15.4 10.3-26.5 24.3-34.9 40.6-20.1 39.2-23.8 91.1-30.6 132.9-.9 5.7-1.8 11.4-2.8 17.1 1.1-1.8 2.4-3.4 3.9-4.9 1.6-1.6 3.3-3.1 5.1-4.5 5.2-4.2 11-7.8 16.2-12.1 11-9.1 19.3-21 30.5-29.8 12.4-9.6 27.7-14.7 41.6-21.9 11.7-6 22.6-13.5 32.3-22.3 15.2-13.7 29.7-31.6 50.1-33.1 11.3-.9 14.5 4.6 13.7 12.5.1-.3.3-.6.4-.9.7-1.5 1.4-3.1 2-4.6.6-1.5 1.3-2.9 1.9-4.4.4-.9.8-1.8 1.2-2.6l.6-1.2c.9-2 1.8-4.1 2.8-6.1.4-1 .9-2 1.3-2.9 1.3-2.9 2.7-5.8 4-8.7.5-1 .9-2 1.4-3 .9-2 1.8-3.9 2.7-5.9.6-1.4 1.3-2.7 1.9-4.1.8-1.6 1.5-3.2 2.3-4.8.7-1.4 1.4-2.9 2.1-4.3.7-1.5 1.5-3.1 2.2-4.6.7-1.4 1.4-2.9 2.1-4.3l2.4-4.8c.7-1.3 1.3-2.7 2-4 1-2 2-4 3-6.1.5-.9.9-1.8 1.4-2.7 1.5-2.9 2.9-5.8 4.4-8.7l.3-.6c1.3-2.6 28-59.6 23.5-58.9ZM932.699 1703Z"/><path fill="#97CC33" d="M3051.8 1722.9c-.7 0-1.5 0-2.2-.1.8 0 1.5.1 2.2.1Zm-98.3-40.3-6.3-3.6 6.3 3.6Zm-22.3-13c4.2 2.5 8.4 5 12.6 7.4-3.4-2-6.9-4-10.2-6-.8-.5-1.6-.9-2.4-1.4Zm-66.4-199 5.1 17.1c1.6 5.7 3.3 11.4 4.8 17.1.7 2.4 1.3 4.9 2 7.3 1.3-5.8 4.3-10.1 10-11.5 12.5-3.2 26.1-2 37.9 3.1 2.6 1.1 5.2 2.5 7.6 4 8 5 14.6 11.9 21.1 18.7 24 25 56.7 50.3 76.4 78.6 2.1 3 4 6.3 5.8 9.7-7.8-25.4-14.5-51.2-20.2-77.4-.1-.2-.1-.5-.2-.7-10.3-47.2-19-85.7-52.7-117.3-5.7-5.3-12.1-10.4-19.3-15.3-9.9-6.7-20.7-11.9-31.5-17-25.5-12.1-54.6-27.6-83.4-27.8-.4 1.2-.6 2.5-.7 3.9-.9 14.5 13.3 35.4 17.9 48.3v.1c0 .1 0 .1.1.2.7 1.9 1.3 3.8 2 5.6 6 17.6 11.8 35.4 17.3 53.3Zm23.9 106.1c.2 1.7.3 3.5.5 5.4-.1-2.1-.3-3.8-.5-5.2v-.2Zm156.1 145.6c1.5.2 3 .4 4.4.5h.4c-1.5-.1-3.1-.3-4.8-.5Zm-5.3-1c.3.1.7.1 1 .2l3 .6c.4.1.8.2 1.3.2-1.7-.3-3.5-.6-5.3-1Zm-66.1-27.8c11.8 6.3 23.4 12 34.1 16.6-10.7-4.6-22.3-10.3-34.1-16.6Zm57.4 25.4c.1 0 .2.1.3.1 1.7.5 3.4 1 5 1.4 1.1.3 2.3.6 3.4.8-2.7-.5-5.6-1.3-8.7-2.3Zm-12.8-4.5c3.4 1.3 6.6 2.5 9.8 3.5-3.2-1-6.5-2.2-9.8-3.5Zm-56.5-27.3 1.2.6c3.6 2 7.2 3.9 10.8 5.8-4.1-2.1-8-4.2-12-6.4Zm46 23c3.6 1.6 7.1 3 10.4 4.3-3.3-1.3-6.8-2.7-10.4-4.3Zm-1898-146.6c.1-.6.2-1.1.4-1.7-.1.6-.3 1.1-.4 1.7Zm78.2-283.4c-20.4 1.5-34.9 19.4-50.1 33.1-9.7 8.8-20.6 16.3-32.3 22.3-14 7.2-29.2 12.2-41.6 21.9-11.2 8.7-19.6 20.7-30.5 29.8-5.2 4.3-10.9 7.9-16.2 12.1-1.8 1.4-3.5 2.9-5.1 4.5-1.5 1.5-2.7 3.1-3.9 4.9-9.4 15-6.7 39.9-9.5 56.6 0 .1 0 .2-.1.3-.1.5-.2.9-.2 1.4-2.3 12.8-4.6 25.5-7.1 38.2v.2c-.5 2.4-1 4.9-1.5 7.3-.2 1.2-.5 2.4-.7 3.6-.3 1.4-.6 2.7-.8 4.1-.4 2.1-.9 4.1-1.3 6.2-.1.6-.2 1.1-.4 1.7-.6 2.6-1.1 5.3-1.7 7.9-.1.6-.3 1.2-.4 1.8l-1.5 6.9c0 .1-.1.3-.1.4-5.3 23.6-11.5 46.9-18.6 69.9 10.1-16.9 30-34.7 44-49.4 16.7-17.5 40.9-25.8 59.4-41.4 8.5-7.2 16.9-17.3 26.5-24.7 7.7-5.9 16.1-10.1 25.9-9.8 1.9 13.1.5 25.5-2 37.8.6-2.5 1.3-4.9 1.9-7.4 1.8-6.6 3.6-13.2 5.6-19.8 3.2-10.9 6.6-21.8 10-32.5.4-1.2.8-2.5 1.2-3.7 1.3-4.1 2.7-8.3 4.1-12.4 0-.1.1-.3.1-.4 3-9.1 6.1-18.1 9.1-27v-.1c.2-.6.4-1.1.6-1.7.8-2.3 1.6-4.7 2.4-7 .2-.5.3-1 .5-1.5.4-1.1.8-2.2 1.1-3.2.7-2.1 1.5-4.2 2.2-6.2.1-.3.2-.5.3-.8.4-1.2.9-2.4 1.3-3.7.3-.9.7-1.8 1-2.8.2-.6.5-1.3.7-1.9.3-.7.5-1.4.8-2.1.4-1.2.9-2.3 1.3-3.5.9-2.5 1.8-4.9 2.8-7.4.3-.9.7-1.8 1-2.8l7.8-20.4c.4-1 .8-2 1.2-2.9.9-2.4 1.9-4.8 2.8-7.2.5-1.2 1-2.4 1.4-3.6.9-2.2 1.7-4.3 2.6-6.5.3-.8.6-1.5.9-2.3.1-.2.1-.3.2-.5s.1-.3.2-.5c4.1-9.2 17-29.9 18.4-43.4.8-7.8-2.3-13.2-13.7-12.4Zm-78.5 284.8c0 .1-.1.3-.1.5.1-.4.2-.8.2-1.2 0 .2 0 .4-.1.7Z"/><path fill="#CDD621" d="M3067.6 1708.3c-.1-2-.4-4.3-1-6.9v-.1c-.6-2.7-1.6-5.6-2.8-8.9v-.1c-.4-1.1-.9-2.2-1.3-3.3-9.7-22.9-15.2-52-27-74.4-1.8-3.4-3.7-6.6-5.8-9.7-19.6-28.2-52.4-53.5-76.4-78.6-6.5-6.8-13.1-13.7-21.1-18.7-2.4-1.5-5-2.9-7.6-4-11.8-5.2-25.4-6.3-37.9-3.1-5.7 1.5-8.7 5.7-10 11.5v.1c-4 18.8 10.3 53.7 12 64.6v.2c.2 1.3.4 3.1.5 5.2 1 18.2-.9 60.8 10.3 67.9 5.5 3.5 11.2 7.1 17 10.7 1 .6 1.9 1.2 2.9 1.8 3.9 2.4 7.8 4.7 11.7 7.1.8.5 1.6.9 2.4 1.4l10.2 6c.6.3 1.1.6 1.7 1 .6.3 1.1.7 1.7 1l6.3 3.6c1.3.8 2.7 1.5 4 2.3 1.3.7 2.7 1.5 4 2.2 4 2.2 8 4.4 11.9 6.5 11.8 6.3 23.4 12 34.1 16.6 3.6 1.6 7.1 3 10.4 4.3 3.4 1.3 6.6 2.5 9.8 3.5 1 .3 2.1.7 3.1 1 3 .9 5.9 1.7 8.7 2.3 1.8.4 3.6.7 5.3 1 1.7.3 3.3.4 4.8.5.8 0 1.5.1 2.2.1.7 0 1.4 0 2.1-.1 2.6-.2 4.8-.6 6.7-1.5.1 0 .2-.1.3-.1.1 0 .1-.1.2-.1.6-.3 1.1-.6 1.6-1 .7-.5 1.3-1 1.8-1.6.6-.7 1.1-1.5 1.5-2.4 0-.1.1-.2.1-.2.1-.1.1-.3.1-.4.4-.9.7-1.8.8-2.9.2-1.2.3-2.5.3-4 .4 0 .4-.2.4-.3Zm-1958.4-143.4c0-.2.1-.5.1-.7 0-.2.1-.5.1-.7.1-.6.2-1.1.4-1.7 2.5-11.7 5.6-22.9 7.9-34 2.5-12.3 3.9-24.7 2-37.8-9.8-.3-18.2 3.9-25.9 9.8-9.6 7.4-18 17.5-26.5 24.7-18.5 15.6-42.6 23.9-59.4 41.4-14 14.7-33.8 32.5-44 49.4v.1c-12.5 20.9-17.2 51-26.8 73.7-.3.8-.6 1.5-.9 2.2-.2.5-.4 1.1-.6 1.6-.9 2.3-1.6 4.4-2.1 6.4-.4 1.3-.7 2.6-.9 3.8-.4 1.9-.6 3.8-.7 5.4v.3c0 1.7.1 3.2.4 4.6.2.9.5 1.8.8 2.6 0 .1.1.2.1.2.4.9.9 1.7 1.5 2.4.8 1 1.9 1.7 3.1 2.4.5.3 1 .5 1.6.7 2.3.9 5 1.3 8.2 1.3.8 0 1.7 0 2.6-.1 1.2-.1 2.5-.2 3.8-.4.5-.1 1-.2 1.5-.2 15.9-2.6 38.3-12.1 62.5-24.5.1-.1.2-.1.4-.2 1.8-.9 3.7-1.9 5.5-2.9 2.7-1.4 5.4-2.9 8.2-4.4 2.5-1.4 5.1-2.8 7.6-4.2 2.8-1.6 5.7-3.2 8.5-4.8 1.1-.6 2.3-1.3 3.4-2 5.3-3 10.5-6.1 15.7-9.2 1.6-1 3.3-2 4.9-2.9 1.3-.8 2.6-1.5 3.8-2.3l5.4-3.3c6.4-3.9 12.6-7.8 18.5-11.6 4.1-2.6 6.1-47.9 7.8-71.8.4-5.9.8-10.5 1.2-12.8.3-.2.3-.4.3-.5Z"/><path stroke="#333" stroke-miterlimit="10" stroke-width="5" d="M2988.8 1391.6c16.9 104.3 33.8 207.7 73.6 297.4 31.6 74.7-86.9 9.5-162.9-39 0-174-208.5-709.5-486.3-849.5 326.3-31 514.9 217 575.6 591.1Zm-1978 0c-16.901 104.3-33.7 207.7-73.6 297.4-31.6 74.7 86.9 9.5 162.9-39 0-174 208.5-709.5 486.3-849.5-282.9 0-514.8 217-575.6 591.1Z"/><path fill="#333" fill-opacity=".1" d="M3055 2191.5c-5.3 74.6-25.8 157.7-54.5 222.5 11-121.5 20.5-316.5 6-389.5-14.3 48.3-44.5 81.1-76 96 0-43.9-10-146.5-27.5-170-11 97.5-138.9 174.8-176.5 177.5 17.5-27 29-58.5 29-103.5-14 46-81 66.5-110.5 66.5 39.6-173.6 270.9-681 283.5-750 120.6 349.3 135.5 724.2 126.5 850.5ZM1322.3 886.3c-356.299 387.3-365.999 1029-374.199 1339.1-2.6 98.1 25.8 166.1 61.699 212.3-26.799-137.2-37.799-302.2-21.299-413.2 14.499 45 50.499 93.5 75.999 111 4-69.5 19-175 37.5-221 15 72 71 141 111 177.5-5.1-58.3 5-136 23.5-166.5 20 41 70.3 65.6 92.5 74.5l-70-825.5 715.7-170.5c0-121.3 36.9-228.7-90.2-275.6-203.3-75-472.1 59.9-562.2 157.9Z"/><path fill="#4DBF4C" d="m2909.5 1288.6 4.5 12-4.5-12Zm75.6 247.1c.9 3.7 1.8 7.5 2.7 11.2-.9-3.7-1.8-7.4-2.7-11.2Zm-51.2-178.7c.3.8.5 1.6.8 2.3-.3-.7-.5-1.5-.8-2.3Zm-3.9-11.6.6 1.8c-.2-.7-.4-1.2-.6-1.8Zm-14.9-41.7c1.5 4.1 3 8.1 4.5 12.2-1.5-4.1-2.9-8.2-4.5-12.2Zm6.8 18.5c.8 2.4 1.7 4.7 2.5 7.1-.9-2.4-1.7-4.8-2.5-7.1ZM2042.7 977c6.9-4.2 15.5-3.9 23.5-3.4 181.1 10.9 356.4 65.2 533.6 103.9 50.1 10.9 100.8 20.7 148.9 38.7 38.1 14.2 74.9 34 104.9 61.7 8.8 8.1 15.9 17.6 22 27.9C2823.4 1088 2757 977.6 2673 886.3c-90.1-98-358.9-232.9-562.2-157.9-.3.1-.6.2-.8.3-22 8.1-48.1 17.8-75.3 39.7-37.9 30.5-28.4 243.7 1.7 226.7l10.6 6.4c-10.5-8.5-15.9-17.5-4.3-24.5Zm940.5 551.2c-.3-1.2-.6-2.3-.9-3.5.4 1.1.7 2.3.9 3.5Zm-897.6-503.5s-.1 0 0 0l263.2 158.5-168.9-101.7c-31.5-19-62.9-37.9-94.3-56.8Z"/><path fill="#71C540" d="M2974.7 1494.4c.4 1.6.8 3.2 1.3 4.8-.5-1.6-.9-3.2-1.3-4.8Zm-13.3-48.8 1.8 6.3c-.6-2-1.2-4.2-1.8-6.3Zm-5.4-18.4c.7 2.5 1.5 4.9 2.2 7.4-.7-2.5-1.4-4.9-2.2-7.4Zm14.7 52.1c.4 1.7.9 3.3 1.3 5-.4-1.6-.8-3.3-1.3-5Zm-5.1-18.8c.5 1.9 1.1 3.8 1.6 5.7-.6-1.9-1.1-3.8-1.6-5.7Zm-14-48.1c.7 2.2 1.3 4.4 2 6.5-.7-2.1-1.3-4.3-2-6.5Zm-10-32.1c.6 1.7 1.1 3.4 1.6 5.1-.5-1.7-1.1-3.4-1.6-5.1Zm5 15.7c.7 2.4 1.5 4.7 2.2 7.1-.8-2.4-1.5-4.7-2.2-7.1Zm-9.6-29.7c.3.8.5 1.6.8 2.4-.2-.8-.5-1.6-.8-2.4Zm-162.3-127.5c76.1 2.5 150.5 92.7 161.9 126.2-.6-1.9-1.3-3.7-1.9-5.6-.3-.8-.5-1.6-.8-2.3l-3.3-9.9-.6-1.8c-1.8-5.4-3.7-10.7-5.6-16.1-.8-2.4-1.7-4.7-2.5-7.1-.7-2.1-1.5-4.2-2.3-6.3-1.5-4.1-3-8.2-4.5-12.2-.4-1-.8-2.1-1.1-3.1l-4.5-12c-.3-.7-.5-1.3-.7-2-10-26.3-18.6-55.9-33.2-80.7-6.1-10.3-13.2-19.9-22-27.9-30-27.7-66.8-47.5-104.9-61.7-48.1-18-98.7-27.8-148.9-38.7-177.3-38.7-352.5-93-533.6-103.9-8-.5-16.6-.8-23.5 3.4-11.5 7-6.1 16 4.3 24.4 12.5 10.1 32 19.3 38.6 23.2 31.4 18.9 62.9 37.8 94.3 56.8l168.9 101.7c23.7 14.2 47.3 28.5 71 42.7 55.1 33.2 110.2 66.3 165.2 99.5-45.7-27.5 160-87.6 189.7-86.6Zm209.5 293.5c-.3-1.4-.7-2.7-1-4.1.4 1.3.7 2.7 1 4.1Zm-3.9-16.2c-.2-1-.5-2-.7-3 .2 1.1.4 2 .7 3Z"/><path fill="#97CC33" d="M2676.4 1895.2c-2.6 47.9-8.5 96.4-18.5 144.4 8.7-41.1 14.4-82.8 17.5-124.6.4-5.4.7-12.1 1-19.8Zm54.6 74.8c-.3.6-.6 1.1-.8 1.7.3-.5.5-1.1.8-1.7Zm-8.1 14.8-1.5 2.4c.5-.7 1-1.5 1.5-2.4Zm237.4-141.9c-.7.9-1.5 1.8-2.3 2.6.8-.8 1.5-1.7 2.3-2.6Zm-227.6 123.6c.5-1.2 1-2.3 1.5-3.5l-1.2 2.7c-.1.2-.2.5-.3.8Zm-4.2 8.6c-1 2-2.1 3.9-3.2 5.8 1-1.9 2.1-3.8 3.2-5.8Zm-76.8-405.9c-3.6-18.9 201.7-68.2 210.1-58.3 69.7 82.2 122.3 65.6 132.6 140.5-.8-32.4-3.1-67.4-6.7-104.5-.9-3.7-1.8-7.5-2.7-11.2-.3-1.2-.6-2.3-.8-3.5-.3-1.4-.7-2.7-1-4.1-.3-1.2-.6-2.3-.9-3.5-.7-2.8-1.4-5.7-2.1-8.5-.2-1-.5-2-.7-3-1.2-4.7-2.4-9.3-3.6-14-.4-1.6-.8-3.2-1.3-4.8-.9-3.3-1.8-6.7-2.6-10-.4-1.7-.9-3.3-1.3-5-1.2-4.4-2.4-8.8-3.6-13.1-.5-1.9-1.1-3.8-1.6-5.7-.8-2.8-1.6-5.7-2.4-8.5l-1.8-6.3c-1.1-3.7-2.1-7.4-3.2-11-.7-2.5-1.4-4.9-2.2-7.4-.8-2.7-1.6-5.5-2.4-8.2-.7-2.2-1.3-4.4-2-6.5-.9-3.1-1.9-6.2-2.9-9.3-.7-2.4-1.5-4.7-2.2-7.1-1.1-3.5-2.2-7.1-3.4-10.6-.5-1.7-1.1-3.4-1.6-5.1-1.2-3.9-2.5-7.7-3.8-11.6-.3-.8-.5-1.6-.8-2.4l-.3-.9c0-.1-.1-.3-.1-.4-11.4-33.5-85.8-123.6-161.9-126.2-29.7-1-235.4 59.1-189.7 86.6 0 0 39.2 99.9 66.7 244.2.2-.3.2-.5.2-.6Zm309.9 272.1-.2.2.2-.2ZM2656 2048.4c.6-2.7 1.2-5.3 1.7-8-.5 2.7-1.1 5.4-1.7 8 17.8-10.8 35.1-24 49.8-40.6-14.7 16.7-32 29.9-49.8 40.6Zm64.3-59.5c-1.7 2.6-3.5 5.2-5.4 7.7 1.9-2.5 3.7-5.1 5.4-7.7Zm-51.3-308.2c-4.2-35.8-9.8-71.5-16.5-106.7 6.3 33.6 12 69.6 16.4 107.2.1-.1.1-.3.1-.5Zm43.4 319.1c-.8 1.1-1.7 2.1-2.6 3.2.9-1 1.8-2.1 2.6-3.2Zm-3.2 4.1c-1 1.1-1.9 2.3-2.9 3.4.9-1.1 1.9-2.3 2.9-3.4Zm276.4-221.2-.3 1.5.3-1.5Z"/><path fill="#CDD621" d="M2656 2048.4c17.8-10.8 35.1-24 49.8-40.6.2-.2.3-.4.5-.5 1-1.1 1.9-2.2 2.9-3.4.2-.3.5-.6.7-.9.9-1 1.7-2.1 2.6-3.2.9-1.1 1.7-2.2 2.5-3.3 1.8-2.5 3.6-5 5.4-7.7.4-.5.7-1.1 1.1-1.6l1.5-2.4c.8-1.3 1.6-2.6 2.3-3.9 1.1-1.9 2.2-3.8 3.2-5.8.6-1.1 1.2-2.2 1.7-3.4.3-.6.6-1.1.8-1.7.6-1.2 1.1-2.4 1.7-3.6.1-.3.3-.6.4-.8-17.1 38.3-46.4 64.2-77.1 82.8Z"/><path fill="#CDD621" d="M2675.3 1916.7c0-.6.1-1.2.1-1.8-3.1 41.9-8.8 83.5-17.5 124.6-.1.3-.1.6-.2.9-.6 2.7-1.1 5.3-1.7 8 17.2-10.4 17.7-111.5 19.3-131.7Zm71.6-2.7c-.8 6.8-1.9 13.4-3.3 19.7 1.4-6.3 2.5-12.8 3.3-19.7Zm-3.3 19.7c-1.2 5.2-2.5 10.3-4.1 15.2 1.5-4.9 2.9-10 4.1-15.2Zm-74.6-253c13.9-75 122.4-175 154.5-117.4 61.5 110.4 55.2 93.2 89.7 95.3 28.1 1.7 65.6 41.8 74.6 67.8 4.5 13.1 4.7 24.7-2.1 56.2 10.7-49.6 14.3-71.9 9.7-123-.3-2.8-.6-5.6-.9-8.2-10.3-74.9-62.9-58.3-132.6-140.5-8.4-9.9-213.7 39.4-210.1 58.3 0 .1 0 .2.1.4.3 1.5.6 3 .8 4.4 6.5 35.3 12.1 70.9 16.3 106.7Zm78.5 226.4c-.2 2.3-.4 4.6-.7 6.9.3-2.2.6-4.5.7-6.9Zm-13.3 55.8c1.9-4.5 3.7-9.2 5.2-14.1-1.9 5.8-4 11.4-6.4 16.8.5-.9.9-1.8 1.2-2.7Z"/><path fill="#FCDE11" d="M2961.6 1841.3c12.9-16.1 19.3-37.2 23.7-57.1l.3-1.5v-.2c6.8-31.5 6.7-43.2 2.1-56.2-9-25.9-46.5-66.1-74.6-67.8-34.4-2-28.1 15.2-89.7-95.3-32.1-57.5-140.6 42.4-154.5 117.4 0 .2-.1.3-.1.5-2 11.3-1.9 22.1 1 31.6 8.4 27.6 8.7 128.4 6.5 182.4-.3 7.6-.7 14.3-1.1 19.7 0 .6-.1 1.2-.1 1.8-1.6 20.2-2.1 121.3-19.3 131.7 30.7-18.6 60-44.5 77.1-82.8 2.4-5.3 4.5-10.9 6.4-16.8 1.6-4.9 2.9-9.9 4.1-15.2 1.4-6.3 2.5-12.8 3.3-19.7.3-2.3.5-4.6.7-6.9.2-2.3.3-4.7.5-7.1 26 13.5 31 106 31 148 113.5-45.5 129.5-259.5 129.5-339 26 37.5 38.5 79 49.5 136.5.8-.8 1.5-1.7 2.3-2.6.4-.5.8-.9 1.2-1.4.1.1.2 0 .2 0Z"/><path stroke="#333" stroke-linejoin="round" stroke-miterlimit="10" stroke-width="5" d="M2987.8 1546.9c13.8 143.3 8.6 257.2-29.8 298.6-11-57.5-23.5-99-49.5-136.5 0 79.5-16 293.5-129.5 339 0-42-5-134.5-31-148-3.7 76.9-46.3 120.8-92 148.4 76.7-346.6-71-723-71-723l-548.6-330.3c-30.1 17-39.6-196.2-1.7-226.7 27.2-21.9 53.2-31.6 75.3-39.7.3-.1.6-.2.8-.3 203.3-75 472.1 59.9 562.2 157.9 162.6 176.8 259.1 425.1 314.8 660.6ZM1320.2 1916c-22.5-303.5 90.1-590.5 90.1-590.5l564.4-321.5c0-23.1 1.3-45.7 2.6-67.5 5.5-92.6 10.1-170.1-92.8-208.1-203.3-75-472.1 59.9-562.2 157.9-140.4 152.6-226.9 344.6-280.8 540.3-32 184.1-50.701 360.7-5 418.9 11-57.5 25.5-98 51-142-18.9 80.7 13 200.5 85 252.5-26-153 5-266.5 31-280 7 145.5 75 216.1 116.7 240Z" clip-rule="evenodd"/><path fill="#4DBF4C" d="M1884.5 728.4c-203.3-75-472.1 59.9-562.2 157.9-95.1 103.4-165.5 224.8-217.8 353.3 22-53.7 41.8-83.8 95.9-111.2 44.6-22.6 89.3-45.2 133.9-67.8 29.5-14.9 59-29.9 90-41.5 38.1-14.3 77.9-23.4 117.7-31.3 106.6-21.3 216-34.8 324-21.9 35.8 4.3 77.1 11.1 106.8 33-13 10.4-26.7 20.1-40.8 29.4l42.7-24.3c0-23.1 1.3-45.7 2.6-67.5 5.5-92.5 10.1-170.1-92.8-208.1ZM1710 1154.8l56.3-32.1c-18.8 10.7-37.6 21.4-56.3 32.1Z"/><path fill="#71C540" d="M1866 965.8c-107.9-13-217.4.6-324 21.9-39.9 8-79.7 17-117.7 31.3-30.9 11.6-60.5 26.6-90 41.5-44.6 22.6-89.3 45.2-133.9 67.8-54.1 27.4-73.9 57.5-95.9 111.2-.3.7-.5 1.3-.8 2-23.3 57.3-50.4 120.5-61.6 181.7 5.9-31.4 20.7-76.3 32.1-107.5 9.5-25.8 67-64 91.6-72.8 68.6-24.7 276.2 64.5 244.5 82.6 34.2-19.5 68.3-38.9 102.5-58.4 65.7-37.4 131.5-74.9 197.2-112.3 18.8-10.7 37.5-21.4 56.3-32.1 54.4-31 113.1-59.6 165.8-94.4 14.1-9.3 27.7-19.1 40.8-29.4-29.9-21.9-71.1-28.7-106.9-33.1Z"/><path fill="#97CC33" d="M1324.4 1699.1Zm-3.8 43.5c-.3 3.6-.5 7.3-.7 10.9.2-3.6.4-7.2.7-10.9Zm9-86.8c0 .3-.1.6-.1.9 0-.3 0-.6.1-.9Zm-12.3 195c0 2.3.1 4.5.1 6.8 0-2.2 0-4.5-.1-6.8Zm-257.6-89.8c-1.6 4.2-3.2 8.5-4.7 12.8 1.5-4.4 3.1-8.6 4.7-12.8Zm257.6 56.7c-.1 4-.1 8-.1 11.9 0-3.9.1-7.9.1-11.9Zm2.4-61.3c-.3 4.1-.5 8.3-.7 12.4.2-4.2.4-8.3.7-12.4Zm-.8 13.3c-.8 15.6-1.3 31.3-1.6 46.9.3-15.8.8-31.4 1.6-46.9Zm7.1-85.1c-.1.6-.1 1.2-.2 1.8.1-.6.1-1.2.2-1.8Zm11.8-83c-.1.3-.1.6-.2 1 .1-.3.1-.7.2-1Zm-316.3-45.6c.5-4.2 1.1-8.3 1.7-12.5-.6 4.2-1.2 8.3-1.7 12.5Zm318.8 31.6c-.1.5-.2.9-.2 1.4 0-.5.1-1 .2-1.4Zm-4.7 27.2-.3 1.8.3-1.8Zm-2.1 13.3c-.1.7-.2 1.3-.3 2 .1-.6.2-1.3.3-2Zm-2 13.7c-.1.6-.2 1.1-.2 1.7 0-.6.1-1.2.2-1.7Zm-315.1 155.4-.3-1.5.3 1.5Zm-1.4-185.7c.4-3.5.7-7.1 1.1-10.6-.3 3.6-.7 7.1-1.1 10.6Zm-.9 9.7c.2-1.8.3-3.6.5-5.4-.2 1.8-.3 3.6-.5 5.4Zm1.3 171.1c-.1-.3-.1-.7-.2-1 0 .4.1.7.2 1Zm8.4 30.2c-.1-.3-.2-.5-.3-.8.1.3.2.5.3.8Zm-6.5-21.3c0-.2-.1-.3-.1-.5 0 .2 0 .4.1.5Zm2.3-230.5c.5-4.1 1-8.2 1.6-12.4-.6 4.2-1.1 8.3-1.6 12.4Zm298.7 312.8c0 1 .1 2 .1 2.9 0-.9-.1-1.9-.1-2.9Zm-.6-15.9c0 1.4.1 2.9.1 4.3 0-1.4-.1-2.8-.1-4.3Zm-299.9-281.9 1.5-12.6-1.5 12.6Zm-1.5 14c.5-4.3.9-8.5 1.4-12.7-.5 4.2-1 8.5-1.4 12.7Zm302.8 300c0 .5.1 1 .1 1.5 0-.5-.1-1-.1-1.5Zm-295-76.6c3.5 8.7 7.6 16.2 12.4 22.4 5.2-27 11.1-50.2 18.5-71.8-7.5 21.6-13.4 44.8-18.5 71.8.5-2.8-10.5-18.1-12.4-22.4Zm297.5-94.3c-.2 2-.3 4-.5 6 .2-2 .4-4 .5-6Zm-76.1 107c-.3-.6-.6-1.1-.9-1.7 1.4 2.5 2.8 5 4.3 7.5-.6-1-1.2-2.1-1.8-3.1-.6-.9-1.1-1.8-1.6-2.7Zm9.7 16.1c-.7-1-1.4-2.1-2-3.2 1.5 2.3 3 4.6 4.5 6.8-.8-1.1-1.5-2.2-2.2-3.3l-.3-.3Zm10.2 14.2-.9-1.2c19.1 25.3 39.4 41.7 55.7 51.1-16.1-9.2-36-25.3-54.8-49.9Zm-7.8-10.6c2.2 3.3 4.5 6.4 6.8 9.4-.6-.8-1.1-1.5-1.7-2.3-1.7-2.3-3.4-4.7-5.1-7.1Zm85.1-281.3c-.1.4-.2.9-.2 1.3 0-.4.1-.8.2-1.3Zm-176.9-331.3c-24.5 8.8-82.1 47-91.6 72.8-11.5 31.2-26.2 76.1-32.1 107.5l-.6 3.3c-4.9 28.2-9.5 56.2-13.6 83.6 1.9-6.7 4.9-13 10-18 20.8-20.6 42.8-40.5 68.8-54.2 11.3-6 23.3-10.6 35.5-14.5 35.4-11.4 73.5-16.1 110.1-9.5 36.6 6.6 71.7 25.2 94.5 54.6 8.8 11.3 11.1 23.8 10.4 36.8.7-2.9 1.3-5.8 2-8.6 2-8.4 4-16.5 6-24.4 1.6-6.3 3.2-12.5 4.8-18.4 2-7.5 4-14.7 5.9-21.6 1.2-4.2 2.3-8.2 3.5-12.2.4-1.3.8-2.6 1.1-3.9 2.3-7.8 4.5-15.1 6.6-21.9.7-2.3 1.4-4.5 2.1-6.7 12.3-39.4 21.2-62.1 21.2-62.1 31.6-18.1-176-107.3-244.6-82.6Z"/><path fill="#CDD621" d="M1247 1838.5c.6 1 1.2 2.1 1.8 3.1 1.4 2.4 2.9 4.8 4.4 7.1.7 1.1 1.4 2.1 2 3.2-2.8-4.3-5.5-8.7-8.2-13.4Zm73.2 77.5c-16-9.2-36-25.3-54.8-49.9 18.8 24.6 38.7 40.7 54.8 49.9-.4-5-.7-9.9-1-14.9 0-.5-.1-1-.1-1.5-.3-4.4-.5-8.8-.7-13.2 0-1-.1-2-.1-2.9-.2-3.8-.3-7.7-.4-11.6 0-1.4-.1-2.9-.1-4.3-.1-3.3-.2-6.7-.2-10 0-2.3-.1-4.5-.1-6.8 0-2.4-.1-4.9-.1-7.3v-13.9c0-4 0-8 .1-11.9v-1.2c.2-15.7.8-31.3 1.6-46.9v-.9c.2-4.1.5-8.3.7-12.4.1-.9.1-1.9.2-2.8.2-3.6.5-7.3.7-10.9.2-2.6.4-5.3.6-7.9.2-2 .3-4 .5-6 .2-1.9.3-3.8.5-5.8-5.6 50.5-22.5 181.4-2.1 193.1Zm-76.3-83 .6 1.2c.3.6.6 1.1.9 1.7-.5-1-1-2-1.5-2.9Zm11.5 19.1c.7 1.1 1.5 2.2 2.2 3.3 1.7 2.4 3.4 4.8 5.1 7.1-2.4-3.3-4.9-6.7-7.3-10.4Zm91.4-383.5c-22.9-29.4-57.9-48-94.5-54.6-36.6-6.6-74.7-1.9-110.1 9.5-12.2 3.9-24.2 8.6-35.5 14.5-25.9 13.6-47.9 33.6-68.8 54.2-5.1 5-8.1 11.3-10 18-2.9 10.4-3.2 22-4.6 32.4 0 .3-.1.5-.1.8-.6 4.2-1.1 8.3-1.7 12.5l-.3 2.4c-.5 4.1-1.1 8.2-1.6 12.4l-.3 2.4-1.5 12.6c0 .4-.1.8-.1 1.2-.5 4.2-1 8.5-1.4 12.7 0 .3-.1.6-.1.9v.4c-.4 3.5-.7 7.1-1.1 10.6-.1 1.4-.3 2.8-.4 4.3-.2 1.8-.3 3.6-.5 5.4-1.7 17.8-3 35.6-3.9 53.5 5.3-18.4 15.4-35 32.8-48.4 23.2-17.7 51.5-27.4 79.2-36.8 19.1-6.5 38.8-13 59-12.6 22.5.5 43.9 9.7 63.8 20.3 47.4 25.2 81.4 55.3 78.6 109.8v.2c.2-1.8.3-3.6.5-5.4.1-.9.2-1.8.3-2.6.4-4.3.9-8.5 1.4-12.8.1-.6.1-1.2.2-1.8.5-4.8 1.1-9.5 1.7-14.3v-.3c.5-4.4 1.1-8.9 1.7-13.3 0-.3.1-.6.1-.9.6-4.1 1.1-8.2 1.7-12.3.1-.6.2-1.1.2-1.7.6-3.9 1.1-7.8 1.7-11.7.1-.7.2-1.3.3-2 .6-3.8 1.2-7.7 1.8-11.5l.3-1.8c.7-4.1 1.3-8.1 2-12.2.1-.3.1-.6.2-1 .7-4.2 1.5-8.5 2.2-12.7.1-.5.2-.9.2-1.4.7-4 1.5-8 2.2-12 .1-.4.2-.9.2-1.3.8-4.2 1.6-8.5 2.4-12.7v-.3c3.6-18.2 10.9-37.5 12-55.9.9-12.8-1.4-25.3-10.2-36.7Zm-110.7 348.9c-.9-1.9-1.8-3.9-2.7-5.9.9 2 1.7 4 2.7 5.9Z"/><path fill="#CDD621" d="M1204.9 1696c-.6-6.5-1-13.2-1.4-20 .3 6.8.8 13.5 1.4 20Zm26.2 110.4c-2.1-5.1-4.2-10.3-6.1-15.8 1.9 5.4 4 10.7 6.1 15.8Zm-11.4-31.8c-1.1-3.6-2.1-7.3-3.1-11.1 1 3.8 2 7.5 3.1 11.1Zm-12.6-58.8c-.9-6.4-1.6-13.1-2.2-19.9.6 6.9 1.3 13.5 2.2 19.9Zm5.5 31.2c-1.5-6.7-2.8-13.6-3.9-20.8 1.1 7.1 2.4 14.1 3.9 20.8Z"/><path fill="#FCDE11" d="M1245 1597.2c-19.9-10.6-41.3-19.8-63.8-20.3-20.2-.5-39.8 6.1-59 12.6-27.7 9.4-55.9 19-79.2 36.8-17.5 13.3-27.5 30-32.8 48.4-10.401 36.1-2.3 78.9 4.9 116.5v.2c.1.3.1.7.2 1 .2 1.1.5 2.3.7 3.4l.3 1.5c.3 1.2.5 2.3.8 3.5 0 .2.1.3.1.5 1.6 6.9 3.6 13.8 6.2 20.5.1.3.2.5.3.8 0 .1.1.2.1.3 0 .1.1.2.1.3 2 4.3 13 19.6 12.4 22.4 5.2-27 11.1-50.2 18.5-71.8 1.5-4.3 3-8.6 4.7-12.8 7.6-19.6 16.6-38.2 27.8-57.5-18.9 80.7 13 200.5 85 252.5-26-153 5-266.5 31-280 .3 6.8.8 13.5 1.4 20 .6 6.8 1.4 13.4 2.2 19.9.5 3.5 1 6.9 1.5 10.3 1.2 7.2 2.5 14.1 3.9 20.8 1.2 5.7 2.6 11.2 4 16.5 1 3.8 2.1 7.5 3.1 11.1.7 2.4 1.4 4.7 2.2 7 1 3 2 6 3 8.9 2 5.5 4 10.7 6.1 15.8.7 1.8 1.5 3.5 2.3 5.2.9 2 1.8 4 2.7 5.9.8 1.6 1.5 3.2 2.3 4.8 1.8 3.7 3.6 7.2 5.5 10.6.5 1 1.1 1.9 1.6 2.9l1.5 2.7c2.7 4.7 5.4 9.1 8.2 13.4.1.1.1.2.2.3 2.4 3.6 4.8 7.1 7.3 10.5.6.8 1.1 1.5 1.7 2.3l.1.1.9 1.2c18.8 24.6 38.8 40.7 54.8 49.9-20.4-11.7-3.5-142.6 2-193 .8-7 1.3-12.5 1.5-15.8v-.2c3.1-54.6-30.9-84.7-78.3-109.9Z"/><path fill="#333" d="m2987.8 1546.9 2.5-.2c0-.1 0-.2-.1-.3l-2.4.5Zm-29.8 298.6-2.5.5c.2.9.9 1.7 1.8 1.9.9.3 1.9 0 2.5-.7l-1.8-1.7Zm-49.5-136.5 2.1-1.4c-.6-.9-1.8-1.3-2.8-1-1 .3-1.8 1.3-1.8 2.4h2.5ZM2779 2048h-2.5c0 .8.4 1.6 1.1 2.1.7.5 1.6.6 2.3.2l-.9-2.3Zm-31-148 1.1-2.2c-.8-.4-1.7-.4-2.4 0s-1.2 1.2-1.2 2.1l2.5.1Zm-92 148.4-2.4-.5c-.2 1 .2 2 1 2.6.8.6 1.9.6 2.8.1l-1.4-2.2Zm-71-723 2.3-.9c-.2-.5-.6-.9-1-1.2l-1.3 2.1Zm-548.6-330.3 1.3-2.1c-.8-.5-1.7-.5-2.5 0l1.2 2.1Zm-1.7-226.7 1.6 1.9-1.6-1.9Zm75.3-39.7-.9-2.3.9 2.3Zm.8-.3-.9-2.3.9 2.3ZM2673 886.3l-1.8 1.7 1.8-1.7Zm312.3 660.9c6.9 71.6 9.1 135.7 4.7 187-4.4 51.5-15.2 89.6-33.8 109.6l3.7 3.4c19.8-21.4 30.8-60.9 35.1-112.6 4.4-51.8 2.2-116.2-4.7-187.9l-5 .5Zm-24.8 297.8c-11-57.6-23.6-99.5-49.9-137.5l-4.1 2.8c25.7 37.1 38.1 78.1 49.1 135.5l4.9-.8Zm-54.5-136c0 39.6-4 112.8-22.1 181.6-18.2 69-50.3 132.8-105.8 155.1l1.9 4.6c57.9-23.2 90.6-89.2 108.8-158.4 18.3-69.4 22.3-143 22.3-182.9h-5.1Zm-124.5 339c0-21.1-1.2-54.8-5.8-85.1-2.3-15.1-5.3-29.4-9.6-40.9-4.1-11.3-9.6-20.4-17-24.3l-2.3 4.4c5.6 2.9 10.5 10.4 14.6 21.6 4 11 7.1 24.9 9.3 39.9 4.5 29.9 5.7 63.4 5.7 84.3h5.1v.1Zm-36-148.1c-3.6 75.8-45.6 119-90.8 146.4l2.6 4.3c46.1-28 89.5-72.5 93.2-150.5l-5-.2ZM2585 1325.4l-2.3.9v.1s0 .1.1.2c.1.2.2.5.3.8.3.7.7 1.8 1.2 3.2 1.1 2.8 2.6 7 4.5 12.5 3.9 10.9 9.3 27 15.6 47.3 12.6 40.6 28.7 98.4 42.3 167.1 27.3 137.3 45 317.6 6.7 490.5l4.9 1.1c38.5-173.8 20.7-354.9-6.7-492.5-13.7-68.8-29.8-126.8-42.4-167.6-6.3-20.4-11.8-36.5-15.7-47.5-1.9-5.5-3.5-9.7-4.6-12.6-.5-1.4-.9-2.5-1.2-3.2-.1-.4-.2-.6-.3-.8 0-.1-.1-.2-.1-.2v-.1s0-.1-2.3.8Zm-549.9-328.2 548.6 330.3 2.6-4.3L2037.7 993l-2.6 4.2Zm-2-230.7c-5.2 4.2-9.4 11.4-12.8 20.3-3.4 8.9-6 19.9-8 32-4 24.2-5.4 53.3-4.7 80.9.7 27.6 3.5 53.8 8.1 72.1 2.3 9.1 5.1 16.5 8.4 21.2 1.7 2.3 3.7 4.2 6 5.1 2.5.9 5.1.6 7.5-.7l-2.5-4.4c-1.3.7-2.4.8-3.3.4-1.1-.4-2.3-1.4-3.7-3.3-2.8-3.9-5.4-10.5-7.6-19.5-4.5-17.8-7.3-43.6-8-71-.7-27.4.7-56.2 4.7-80 2-11.9 4.6-22.5 7.8-31 3.2-8.6 7.1-14.7 11.3-18.1l-3.2-4Zm76-40.1c-22.1 8.1-48.5 17.9-76 40.1l3.1 3.9c26.8-21.6 52.6-31.2 74.6-39.3l-1.7-4.7Zm.8-.3c-.3.1-.5.2-.8.3l1.7 4.7c.3-.1.5-.2.8-.3l-1.7-4.7Zm564.9 158.5c-45.4-49.4-135.5-107.8-239.7-144.5-104.2-36.7-222.8-51.8-325.2-14.1l1.7 4.7c100.9-37.2 218.3-22.4 321.9 14.1 103.6 36.5 192.9 94.5 237.6 143.2l3.7-3.4Zm315.4 661.8c-55.7-235.7-152.3-484.5-315.3-661.8l-3.7 3.4c162.2 176.3 258.6 424.2 314.2 659.5l4.8-1.1Zm-1579.9-220.9-1.2-2.2-.8.4-.3.8 2.3 1Zm-90.1 590.5-1.2 2.2 4.1 2.4-.3-4.7-2.6.1Zm654.5-912 1.2 2.2 1.3-.7v-1.5h-2.5Zm2.6-67.5 2.5.1-2.5-.1Zm-92.8-208.1.9-2.3-.9 2.3Zm-562.2 157.9 1.8 1.7-1.8-1.7Zm-280.8 540.3-2.4-.7v.2l2.4.5Zm-5 418.9-2 1.5 3.4 4.3 1-5.4-2.4-.4Zm51-142 2.4.6-4.6-1.8 2.2 1.2Zm85 252.5-1.5 2 4.9 3.6-1-6-2.4.4Zm31-280 2.5-.1-.2-3.9-3.5 1.8 1.2 2.2Zm206.8-350.5-2.3-.9s0 .1-.1.2-.1.4-.2.6c-.2.6-.5 1.4-.9 2.5-.8 2.2-2 5.4-3.5 9.7-3 8.5-7.4 20.9-12.5 36.7-10.2 31.7-23.6 77.1-36.3 132.1-25.4 109.8-47.9 257.7-36.7 409.8l5-.4c-11.2-151.4 11.2-298.8 36.6-408.3 12.7-54.8 26-100.1 36.2-131.7 5.1-15.8 9.4-28.2 12.4-36.6 1.5-4.2 2.7-7.4 3.5-9.6.4-1.1.7-1.9.9-2.5.1-.3.2-.5.2-.6 0-.1 0-.1.1-.2-.1.1-.1.1-2.4-.8Zm563.2-323.7-564.4 321.5 2.5 4.3 564.4-321.5-2.5-4.3Zm1.3-65.4c-1.3 21.8-2.6 44.4-2.6 67.6h5c0-23 1.3-45.5 2.6-67.3l-5-.3Zm-91.2-205.7c50.8 18.8 74.8 47.1 85.5 82 10.9 35.2 8.4 77.2 5.7 123.6l5 .3c2.7-46.1 5.3-89.2-5.9-125.4-11.3-36.5-36.5-66-88.6-85.2l-1.7 4.7ZM1324.1 888c44.7-48.6 134-106.7 237.6-143.2 103.6-36.5 221-51.3 321.8-14.1l1.7-4.7c-102.4-37.8-221.1-22.6-325.2 14.1-104.2 36.7-194.3 95.1-239.7 144.5l3.8 3.4Zm-280.2 539.3c53.8-195.5 140.2-387.1 280.2-539.3l-3.7-3.4C1179.7 1037.6 1093 1230 1039 1426l4.9 1.3Zm-4.9-1.1c-16 92.1-28.7 182.3-31.7 257-1.5 37.3-.5 70.8 3.7 98.6 4.2 27.8 11.7 50.2 23.5 65.3l3.9-3.1c-11-14.1-18.4-35.5-22.5-63-4.2-27.4-5.1-60.5-3.6-97.7 3-74.3 15.6-164.3 31.6-256.3l-4.9-.8Zm0 419.8c11-57.3 25.4-97.5 50.7-141.2l-4.3-2.5c-25.7 44.3-40.2 85.1-51.3 142.8l4.9.9Zm46.1-143.1c-9.6 40.9-6.2 91.5 8.5 138.3 14.7 46.9 40.9 90.4 77.5 116.8l2.9-4.1c-35.4-25.6-61.1-68-75.6-114.2-14.5-46.2-17.7-95.9-8.4-135.7l-4.9-1.1Zm89.9 252.7c-12.9-76.2-11.7-142.6-4-191.5 3.9-24.5 9.3-44.5 15.4-59.2 3-7.3 6.2-13.3 9.3-17.8 3.2-4.5 6.2-7.4 9-8.8l-2.3-4.4c-3.8 1.9-7.4 5.6-10.8 10.4-3.4 4.9-6.7 11.2-9.9 18.8-6.2 15.2-11.8 35.6-15.7 60.3-7.8 49.5-9 116.4 4 193.1l5-.9Zm26-279.5c7 146.3 75.4 217.7 117.9 242.1l2.5-4.3c-40.9-23.5-108.5-93.2-115.4-238l-5 .2Z"/><path fill="#000" d="M1243.6 1893.8c5-86.8 77.5-137.5 122.7-160.4 0 0 16.6-90.6 27.1-125.4 0 0 17.5 46.6 50.9 65.7 0 0 37-13.9 82.6-21.7 0 0 9-148.1 35.7-236.3 0 0-7.6 97.6 72 215.8 0 0 91.5-16.8 161.9-18.3 0 0-57-95.7 28.7-287.6 0 0 23.3 175.6 152.4 281.7 0 0 27.5-8.2 102.1 2.9 0 0-24.1-24.7-11.6-96.7 0 0 32 63.1 85.6 101.7 0 0 133.8 6.1 224.2 32.6 0 0 4.7-61.8-6.6-74.5 0 0 64.8 63.4 99.3 105.8s249 42.2 261.8 215c0 0 65.4-31.7 90.5-139.4 25.1-107.8 105.2-284.2-118.3-641.1 0 0-228.9-347.1-668.4-305.2 0 0-477.9-134.2-822 359.4 0 0-132.7 177.2-90.5 450.6 42.2 273.4 119.9 275.4 119.9 275.4Z" opacity=".1"/><path fill="#4DBF4C" d="M2853.8 1429.4c-.2-2.2-.5-4.4-.8-6.6.1 1.1.3 2.2.4 3.4.2 1.1.3 2.1.4 3.2ZM1124 1358.7c-.3 1.3-.6 2.5-.9 3.8.1-.5.3-1 .4-1.6.2-.7.3-1.4.5-2.2Zm1730.9 80.8c-.2-2.1-.4-4.1-.7-6.2.1.8.2 1.6.2 2.3.2 1.4.4 2.6.5 3.9Zm-4.7-38.7c-.1-1-.3-2-.4-3 0 .3.1.5.1.8 0 .7.2 1.5.3 2.2ZM1123 1362.9c-.4 1.5-.7 2.9-1.1 4.4.2-.9.4-1.7.6-2.6.2-.6.3-1.2.5-1.8Zm1728 44.1c-.2-1.2-.3-2.4-.5-3.6.1.6.2 1.2.2 1.8.2.6.2 1.2.3 1.8Zm.5 3.7c-.1-.8-.2-1.7-.3-2.5 0 .3.1.7.1 1 .1.5.2 1 .2 1.5Zm-2.1-15.2c-.1-.7-.2-1.4-.3-2.2 0 .3.1.5.1.8 0 .5.1.9.2 1.4Zm3.1 22.8c-.2-1.9-.5-3.8-.7-5.7.1 1.1.3 2.2.4 3.4.1.7.2 1.5.3 2.3Zm-4-28.4-.3-1.8c0 .2.1.5.1.7.1.4.2.7.2 1.1Zm4.3 31c0-.4-.1-.7-.1-1.1 0 .2 0 .4.1.6v.5Zm-1581.7-295c35.8-12.7 74-18.6 109-33.5 26.8-11.4 51-27.8 75.6-43.4 40.7-25.7 82.8-49.2 126.1-70.4 23.8-11.6 49.4-22.8 75.7-19.5 40.3 5 70.4 42.3 110.4 49.5 58.4 10.4 105.2-44.5 157.3-72.8 56.7-30.7 125.1-30.2 188.9-20.9 27.6 4 55.5 9.7 79.6 23.8 16.9 9.9 31.2 23.6 47.8 34.1 39 24.6 87.4 29.3 133.3 26.5 46-2.8 91.4-12.4 137.5-13.7 58.9-1.7 118.2 10.6 171.7 35.2 9.4 4.3 17.9 10.6 25.5 18.1-131.7-182.8-349.2-296.3-649.3-262.3-362.7-104-721.5 109.7-877.4 423.3 20.8-33.1 48.7-59.9 88.3-74Zm-158 284.2c.2-1 .4-2.1.6-3.1.4-2 .7-4.1 1.1-6.1.2-1.1.4-2.1.6-3.2l1.2-6c.2-1.1.4-2.2.7-3.3.4-1.9.8-3.9 1.2-5.8.2-1.1.5-2.3.7-3.4.3-1.6.7-3.1 1-4.7-2.7 11.9-5.2 23.9-7.3 36 0-.1.1-.2.1-.3.1.1.1 0 .1-.1Z"/><path fill="#71C540" d="M1279.1 1182.2c18.1.2 35.8 5.6 53.8 6.5 50.8 2.8 96.4-28.2 139.6-55.3 63.3-39.7 141.9-74.4 210.5-44.8 32 13.8 58.5 40.5 92.7 46.9 36.3 6.8 72-10.8 105.9-25.3 50.7-21.7 103.9-37.3 158.2-46.5 47.5-8.1 96.3-11.2 143.8-2.9 84.4 14.9 161.4 65.4 247 67.8 53.2 1.5 105.9-16 159-11.6 29.6 2.4 58.4 11.6 85.8 23 45 18.6 118 46.9 135 95.3.8 2.2 1.5 4.4 2.3 6.6-3.9-11.5-8-23-12.4-34.3-.1-.1-.1-.3-.2-.4-1.2-3.1-2.4-6.2-3.6-9.2-.2-.6-.5-1.2-.7-1.8-1-2.5-2-4.9-3-7.4-.4-1-.9-2.1-1.3-3.1-.6-1.5-1.3-3-1.9-4.5-.8-1.9-1.7-3.9-2.5-5.8-.5-1.2-1-2.3-1.5-3.5l-3-6.6c-.4-.9-.8-1.8-1.3-2.7l-3.3-7.2c-.3-.7-.6-1.3-.9-2-1.2-2.6-2.5-5.2-3.7-7.8-.2-.4-.4-.7-.5-1.1-1.4-2.8-2.7-5.5-4.1-8.3 0-.1-.1-.1-.1-.2-15.5-30.7-32.7-71.5-58.9-97.3-7.7-7.5-16.1-13.8-25.5-18.1-53.5-24.7-112.8-36.9-171.7-35.2-46.1 1.3-91.5 10.9-137.5 13.7-46 2.8-94.4-1.9-133.3-26.5-16.5-10.4-30.9-24.2-47.8-34.1-24-14.1-52-19.8-79.6-23.8-63.8-9.2-132.2-9.8-188.9 20.9-52.2 28.3-98.9 83.2-157.3 72.8-40-7.1-70.1-44.5-110.4-49.5-26.2-3.2-51.9 7.9-75.7 19.5-43.3 21.1-85.4 44.7-126.1 70.4-24.6 15.5-48.8 32-75.6 43.4-35 14.9-73.2 20.8-109 33.5-39.6 14.1-67.5 41-88.2 73.9-20.2 32.1-33.7 69.9-44.7 107.2 8-25.2 18.5-48.2 38.1-69.9 26.2-29.4 61-55.2 102.5-54.7ZM1123.5 1361c-.1.5-.3 1-.4 1.6 0 .1-.1.2-.1.4-.1.6-.3 1.2-.4 1.8.3-1.3.6-2.6.9-3.8Zm1725.7 33.1c0-.3-.1-.5-.1-.8-.2-1.1-.3-2.3-.5-3.4-.1-.3-.1-.7-.2-1 .2 1.7.5 3.5.8 5.2Zm3 21.8c-.1-1.1-.3-2.2-.4-3.4-.1-.6-.2-1.3-.3-1.9-.1-.5-.1-1-.2-1.5.3 2.3.6 4.6.9 6.8Zm2.1 17.4c-.1-.6-.1-1.1-.2-1.7.1 1.3.3 2.7.4 4-.1-.7-.2-1.5-.2-2.3Zm-3.5-28.2c-.1-.6-.2-1.2-.2-1.8-.1-.9-.2-1.7-.4-2.6-.1-.7-.2-1.5-.3-2.2.3 2.3.6 4.5.9 6.6Zm2.6 21.1c-.1-1.1-.3-2.2-.4-3.4-.1-.6-.2-1.3-.2-1.9 0-.2 0-.4-.1-.5.3 1.9.5 3.9.7 5.8Z"/><path fill="#97CC33" d="M2845.8 1709v-.1c.1-.3.1-.6.2-.9-.1.3-.1.7-.2 1Zm2.1-12.8c.6-3.6 1.1-7.2 1.6-10.8.1-.7.2-1.5.3-2.2.3-2.4.7-4.8 1-7.3.1-1.1.3-2.1.4-3.2.3-2.4.6-4.9.9-7.3.1-1 .3-2.1.4-3.1l.9-7.5.3-2.7c.3-2.7.6-5.3.9-8 .1-.6.1-1.3.2-1.9.3-2.9.6-5.8.9-8.8v-.1c1.2-13.5 2.2-26.9 2.9-40.4-.1 1.5-.2 3-.3 4.4-1.8 33.2-5.3 66.1-10.4 98.9Zm-1.2 7.3c.2-1.5.5-3 .7-4.6.1-.9.3-1.8.4-2.7-.6 3.6-1.1 7.1-1.7 10.7.3-1.1.4-2.2.6-3.4Zm-1030.2-149.8c.1.7.1 1.5.2 2.2 0 .4.1.7.1 1.1 0 .2 0 .4.1.6l.3 3.3c.2 2.1.4 4.1.7 6.1.2 1.8.4 3.5.6 5 0 .2.1.4.1.6.2 1.2.3 2.3.5 3.3.1.7.2 1.4.4 2 .2.8.3 1.5.5 2 .2.6.4.9.5 1h.1s-2.7-11.9-4.6-33.2c.1 1.8.3 3.8.5 6Zm-1.4-17.9c-.1-.8-.1-1.6-.1-2.4 0 .6.1 1.3.1 1.9-.1.1 0 .3 0 .5Zm-128.1 58.9c.5-.1 1-.2 1.5-.2-.1 0-.2 0-.4.1-.3 0-.7 0-1.1.1Zm8-1.3c-.1 0-.3 0-.4.1 1.3-.2 2.6-.4 4-.6-.2 0-.3 0-.5.1-1 .1-2 .3-3.1.4Zm378.7-312.2c59.5-13.1 215.9-107.3 306.5-9.6 20.6 22.2 110 77.1 122.1 50.5 38.9-85.9 172.2-30.7 225.8 9.2 33 24.6 95.7 102.8 117.1 138 7.6 12.5 11.9 25.4 14.2 38.7-.4-12.6-1.1-25.2-1.9-37.7v-.2c-.2-3.4-.5-6.8-.8-10.2-.1-1-.2-1.9-.2-2.9-.2-2.5-.4-4.9-.6-7.4-.2-1.8-.3-3.6-.5-5.4-.2-1.6-.3-3.2-.5-4.8-.1-1.3-.3-2.6-.4-3.9-.1-1.3-.3-2.7-.4-4-.1-.7-.2-1.5-.2-2.2-.1-1.1-.3-2.1-.4-3.2-.2-1.9-.4-3.9-.7-5.8 0-.2 0-.4-.1-.6-.1-.5-.1-1-.2-1.6l-.3-2.4c-.3-2.3-.6-4.5-.9-6.8 0-.3-.1-.7-.1-1 0-.3-.1-.5-.1-.8 0-.1 0-.3-.1-.4l-.3-1.8c-.3-2.2-.6-4.4-.9-6.5 0-.3-.1-.5-.1-.8l-.3-2.4c-.1-.5-.1-.9-.2-1.4-.3-1.8-.5-3.5-.8-5.3 0-.2-.1-.5-.1-.7-.3-1.9-.6-3.8-.9-5.8-.1-.8-.3-1.6-.4-2.4-7.7-46.8-19-93.2-34.3-138.1-.8-2.2-1.5-4.4-2.3-6.6-17-48.4-90-76.6-135-95.3-27.5-11.4-56.2-20.6-85.8-23-53-4.4-105.8 13.1-159 11.6-85.7-2.4-162.6-52.9-247-67.8-47.4-8.4-96.3-5.2-143.8 2.9-54.3 9.2-107.5 24.9-158.2 46.5-33.9 14.5-69.6 32.1-105.9 25.3-34.2-6.4-60.7-33.1-92.7-46.9-68.7-29.5-147.2 5.1-210.5 44.8-43.1 27.1-88.7 58.1-139.6 55.3-18.1-1-35.7-6.3-53.8-6.5-41.5-.6-76.2 25.3-102.8 54.8-19.5 21.7-30 44.7-38.1 69.9-4.3 13.5-7.9 27.7-11.9 42.6-.1.4-.2.8-.3 1.1-.1.4-.2.7-.3 1.1-.3 1.3-.7 2.7-1 4-.2.8-.4 1.5-.6 2.3-.1.2-.1.4-.2.7-.2.7-.4 1.5-.5 2.3-.3 1.3-.6 2.5-.9 3.8-.2.9-.4 1.7-.6 2.6 0 .2-.1.3-.1.5l-.6 2.4c-.3 1.2-.5 2.4-.8 3.6-.1.3-.1.6-.2 1-.4 1.6-.7 3.1-1 4.7-.2 1.1-.5 2.3-.7 3.4-.4 1.9-.8 3.9-1.2 5.8-.2 1.1-.4 2.2-.7 3.3l-1.2 6c-.2 1.1-.4 2.1-.6 3.2-.4 2-.8 4.1-1.1 6.1-.2 1-.4 2.1-.6 3.1v.3c25-75 76.6-83.8 103.8-73.5 107.3 40.6 200-99.9 374.5-104.2 216.8-5.4 259.9 52.7 253.6 74.8-1.1 3.9-2.4 8.6-3.7 13.8 8-26.8 18.2-54.8 31.2-83.8 0 0 0 27.9 5.4 68.7 132.8-145.2 147.9-14.4 195.8-25Zm-384 313.1c-.1 0-.3 0-.4.1l3.9-.6c-.1 0-.2 0-.3.1-1.1 0-2.2.2-3.2.4Zm124.6-113c-.1 1.4-.1 2.9-.1 4.3 0 1.1-.1 2.2-.1 3.3 0 1.5-.1 3-.1 4.5v18.7c0 1.6.1 3.1.1 4.7 0 1 .1 2 .1 3 .1 1.6.1 3.2.2 4.8 0 1 .1 1.9.1 2.9 0 .9.1 1.8.1 2.7-.8-14.9-1.1-32.7-.2-53 0 .5-.1.9-.1 1.3.1 1 .1 1.9 0 2.8Zm1.3 61.7v.7c0-.4-.1-.8-.1-1.2.1.1.1.3.1.5 0 0 0-.1 0 0Zm.1 1.7c0 .5.1 1.1.2 1.8-.1-.6-.1-1.2-.2-1.8Z"/><path fill="#97CC33" d="M1904.7 1423.6c-10.2-30.3-22.2-89-25.8-109.9 4.6 31.9 12.4 70.7 25.8 109.9Z"/><path fill="#CDD621" d="M1237.4 1894.2c-1.4 0-3-.2-4.7-.4-.8-.1-1.5-.2-2.4-.4-.3-.1-.6-.1-.8-.2-1.7-.4-3.5-.9-5.4-1.5-1.9-.6-4-1.4-6.1-2.4-2.5-1.1-5.1-2.5-7.8-4.2-.4-.2-.8-.5-1.2-.7-2.4-1.5-4.8-3.3-7.3-5.3-.4-.3-.8-.7-1.3-1-.7-.6-1.5-1.2-2.2-1.9 25.6 23.2 45.4 17.7 45.4 17.7s-1.8.4-5 .4c-.4-.1-.8-.1-1.2-.1Zm445.3-298.8c.7-.1 1.4-.2 2.2-.3-.7 0-1.5.1-2.2.3Zm-19 3.1c-.3.1-.6.1-.9.2.3-.1.6-.1.9-.2Zm2.3-.4c-.2 0-.5.1-.7.1.2 0 .4 0 .7-.1Zm-3.4.6c-.3.1-.6.1-.9.2.3-.1.6-.1.9-.2Zm2.3-.4c-.4.1-.7.1-1 .2.3-.1.7-.1 1-.2Zm-3.3.6c-.3.1-.6.1-.8.1.2 0 .5-.1.8-.1Zm-2.2.4c-.5.1-.7.1-.7.1s.3 0 .7-.1Zm.6-.1c-.2 0-.4.1-.6.1.2-.1.4-.1.6-.1Zm25.4-4.3c.5-.1 1.1-.2 1.7-.3.4-.1.8-.1 1.2-.2-1.1.2-2 .4-2.9.5Zm-24.7 4.1c-.2 0-.5.1-.7.1.2 0 .5 0 .7-.1Zm6.6-1.1c-.3 0-.5.1-.8.1.2 0 .5-.1.8-.1Zm152.2-19.8c-.1-.6-.2-1.3-.4-2 .2.7.3 1.4.4 2Zm-243-154.7c.5-2.1.9-4.2 1.4-6.3-.4 1.7-.9 3.8-1.4 6.3Zm14.9 14.4c.1-.8-.6-3.7-1.6-8 .5 3.4 1.1 6.9 1.8 10.5-.2-1-.3-1.9-.2-2.5Zm223 41.6c0 .7 0 1.3-.1 2 0-.9.1-1.9.1-2.8v.8Z"/><path fill="#CDD621" d="M1591.4 1232.7c-174.6 4.4-267.2 144.9-374.5 104.2-27.2-10.3-78.8-1.5-103.8 73.5 0 .1-.1.2-.1.3-15.7 47.2-20.8 120.7-2.8 232-2.1-13.8-3.5-146.4 16.7-162.6 17.9-14.3 52.8-42.9 75.2-32.5 59.2 27.5 91.9 14.8 127-10.8 207-150.7 340.6-136.3 401.1-129.9 36 3.8 101.1 29.2 98 65.3-.1.6-.7 5-1.6 11.7 4.5-21.4 10.1-45 14.7-62.4 1.4-5.2 2.6-9.9 3.7-13.8 6.2-22.3-36.8-80.4-253.6-75Zm224.6 315.2c0-.5-.1-.9-.1-1.3-.1-.7-.1-1.3-.2-1.8 0-.4-.1-.7-.1-.9.1 1.6.5 5.4.9 9.9-.2-2.3-.4-4.3-.5-5.9Zm.8 8.1c-.1-.8-.1-1.5-.2-2.2 0 .7.1 1.4.2 2.2Zm-1.9-22.6v-.6c0 .8.1 1.6.1 2.5 0-.6 0-1.3-.1-1.9Z"/><path fill="#FCDE11" d="M1730.2 1306.8c-60.5-6.4-194.1-20.7-401.1 129.9-35.2 25.6-67.9 38.3-127 10.8-22.4-10.4-57.4 18.1-75.2 32.5-20.2 16.2-18.8 148.9-16.7 162.6 2.3 15 4.8 29 7.3 42.3 5.2 26.5 10.8 49.6 16.8 69.8.9 2.9 1.7 5.7 2.6 8.5 1.3 4.2 2.6 8.2 3.9 12.1.4 1.3.9 2.6 1.3 3.9 13.7 39.4 28.6 65.4 42.6 82.6.5.6.9 1.1 1.4 1.6 4.2 5 8.3 9.1 12.2 12.6.7.7 1.5 1.3 2.2 1.9.4.4.8.7 1.3 1 2.5 2 4.9 3.8 7.3 5.3.4.3.8.5 1.2.7 2.7 1.7 5.3 3.1 7.8 4.2 2.1 1 4.2 1.8 6.1 2.4 1.9.6 3.7 1.1 5.4 1.5.3.1.6.1.8.2.8.2 1.6.3 2.4.4 1.8.3 3.3.4 4.7.4h1.1c3.2 0 5-.4 5-.4s-9.9-9.2-17.3-25.2c-.6-1.3-1.2-2.6-1.7-4-1.1-2.7-2.2-5.7-3.1-8.7-.4-1.5-.9-3.1-1.2-4.7-.4-1.6-.7-3.3-1-5-.3-1.7-.5-3.4-.7-5.2-.1-.9-.2-1.8-.2-2.7-.1-1.8-.2-3.7-.2-5.5v-2.9c0-1.9.2-3.9.3-5.9l.3-3c.3-2 .6-4.1 1-6.2 3.7-18.8 14.1-40.2 35.5-63.4 0 0-15.7-21.7-29.4-64-.4-1.1-.7-2.2-1.1-3.4-1.4-4.6-2.8-9.4-4.2-14.4-.3-1.3-.7-2.5-1-3.8-.7-2.6-1.3-5.2-1.9-7.9-.6-2.7-1.2-5.4-1.8-8.2-2.1-9.8-3.9-20.2-5.5-31.3-2-14.3-3.3-29.7-3.9-46.3 0 0 .6 6.1 2.3 16.3.2 1.3.4 2.6.7 4 .2 1.4.5 2.9.8 4.4.3 1.5.6 3.1.9 4.8.5 2.5 1 5.1 1.5 7.8.4 1.8.8 3.7 1.2 5.6.4 1.9.8 3.8 1.3 5.8.4 2 .9 4 1.4 6.1l1.5 6.3c.8 3.2 1.7 6.5 2.6 9.9.6 2.2 1.2 4.5 1.9 6.8s1.3 4.6 2 7c.7 2.4 1.4 4.7 2.2 7.1.8 2.4 1.5 4.8 2.3 7.2.8 2.4 1.6 4.9 2.5 7.3 7.7 22 17.7 45 30.5 66.3 0 0 3.6-4.3 12.5-11.6.7-.6 1.4-1.2 2.2-1.8 1.2-.9 2.4-1.9 3.7-2.9.4-.3.9-.7 1.3-1 .9-.7 1.9-1.4 2.9-2.1.5-.4 1-.7 1.5-1.1 1-.7 2.1-1.5 3.2-2.3 1.7-1.2 3.4-2.4 5.2-3.6 1.2-.8 2.5-1.7 3.8-2.5 1.3-.8 2.6-1.7 4-2.6 4.1-2.6 8.6-5.4 13.5-8.2 1.6-.9 3.3-1.9 5-2.9 4.3-2.4 8.9-4.9 13.7-7.5 1-.5 2-1 2.9-1.5 2-1 4-2.1 6.1-3.1 1-.5 2.1-1 3.2-1.6 2.1-1 4.3-2.1 6.5-3.2s4.5-2.1 6.8-3.2c0 0 .1-.9.4-2.5.2-1.1.4-2.5.7-4.1.6-3.7 1.5-8.6 2.6-14 .4-1.8.7-3.7 1.1-5.5.9-4.4 1.9-8.9 3-13.2.3-1.2.6-2.5.9-3.6.2-.6.3-1.2.5-1.8 0 0 5.6 12 12.4 21.1 3.5 4.8 7.4 8.7 10.8 9.7l14.8-5.8v-5c0-1.1 0-2.3.1-3.6 0-1.3.1-2.8.1-4.4 0-.8.1-1.6.1-2.5.2-5.1.5-11.3 1-17.9 0-.6.1-1.1.1-1.7.3-3.4.6-6.9 1-10.4.3-2.4.5-4.8.9-7.2.2-1.2.3-2.4.5-3.6.5-3.6 1.1-7.3 1.8-10.9 1.2-6.6 2.7-13.1 4.5-19.1 0 0 4.1 10.9 12.1 24.4.5.9 1.1 1.7 1.6 2.6.3.4.6.9.8 1.3.6.9 1.2 1.8 1.7 2.7.9 1.4 1.8 2.7 2.8 4.1.6.9 1.3 1.8 2 2.7l2.1 2.7c7.5 9.6 16.7 18.8 27.7 25.1 0 0 13-4.9 33.2-10.5 4.2-1.2 8.8-2.4 13.6-3.6 2.4-.6 4.9-1.2 7.4-1.8 8.9-2.1 18.4-4.1 28.4-5.8 0 0 17.2-154.3 25.5-196.5.5-2.5 1-4.6 1.4-6.3 1.8-6.9 4.1-13.7 6.8-20.2.7 13.7 3.3 25.5 5 32.9 1 4.3 1.7 7.2 1.6 8-.1.6 0 1.5.1 2.5.6 5.1 3 14.7 4.1 19.4 4.1 16.9 9.3 33.5 15.6 49.7 6.3 16.2 13.6 32 21.8 47.4 2.4 4.5 21.7 43.3 25.6 42.6 0 0 .3 0 .7-.1.2 0 .3-.1.6-.1.2 0 .4-.1.7-.1h.1c.2 0 .5-.1.8-.1h.1c.3-.1.6-.1.9-.2h.1c.3-.1.6-.1.9-.2h.2c.3-.1.7-.1 1-.2.1 0 .2 0 .4-.1.2 0 .5-.1.7-.1.2 0 .3-.1.5-.1.3 0 .5-.1.8-.1.8-.1 1.6-.3 2.5-.4 2.6-.4 5.6-.9 8.9-1.5h.1c1.2-.2 2.5-.4 3.9-.6.7-.1 1.4-.2 2.2-.3.1 0 .3 0 .4-.1.9-.1 1.9-.3 2.8-.4.1 0 .2 0 .4-.1.2 0 .5-.1.7-.1.1 0 .3 0 .4-.1 1-.2 2.1-.3 3.2-.5.1 0 .2 0 .3-.1.5-.1 1-.1 1.4-.2.1 0 .3 0 .4-.1 1-.2 2.1-.3 3.1-.5.2 0 .3 0 .5-.1 33.1-4.9 81.1-10.9 122-11.8h-.1c-.2-.1-.3-.4-.5-1-.2-.5-.3-1.2-.5-2-.1-.6-.2-1.3-.4-2-.2-1-.3-2.1-.5-3.3 0-.2-.1-.4-.1-.6-.2-1.6-.4-3.3-.6-5-.2-2-.5-4.1-.7-6.1l-.3-3.3c0-.2 0-.4-.1-.6 0-.4-.1-.7-.1-1.1-.1-.8-.1-1.5-.2-2.2v-.1c-.4-4.6-.8-8.3-.9-9.9v-1.3c-.2-2.2-.3-4.4-.5-6.6v-.5c-.1-.8-.1-1.6-.1-2.5-.1-.9-.1-1.7-.1-2.6 0-.9-.1-1.8-.1-2.7 0-1-.1-1.9-.1-2.9-.1-1.6-.1-3.2-.2-4.8 0-1-.1-2-.1-3 0-1.6-.1-3.1-.1-4.7v-18.7c0-1.5.1-3 .1-4.5 0-1.1.1-2.2.1-3.3 0-1.4.1-2.9.1-4.3 0-.7 0-1.3.1-2v-.9c0-.4.1-.8.1-1.3 1.2-14.8 8.7-69.3 12.1-93.5.9-6.7 1.5-11.1 1.6-11.7 3.4-36-61.7-61.4-97.7-65.2Z"/><path fill="#CDD621" d="M2737.5 1888.5c97.2-174.8-196.8-210.7-231.3-253.1-34.5-42.4-105.8-99.8-105.8-99.8 2.5 2.8 4.2 7.9 5.3 14.2 21 17.5 69.1 58.8 95.5 91.3 34.5 42.4 328.5 78.3 231.3 253.1 0 0 33.3-6.3 63.1-42.1-28.4 30.8-58.1 36.4-58.1 36.4Zm-640.3-412.7c-.7 4-1.3 7.9-1.8 11.6 9.3 16.6 38.7 64.3 82.4 95.8 0 0 133.8 6.1 224.2 32.6 0 0 .2-2.7.4-7-90.3-25.4-219.7-31.3-219.7-31.3-53.5-38.6-85.5-101.7-85.5-101.7Z"/><path fill="#CDD621" d="M2859.5 1508.1c-2.3-13.3-6.7-26.2-14.2-38.7-21.4-35.2-84.1-113.5-117.1-138-53.6-39.9-186.9-95.2-225.8-9.2-12 26.6-101.5-28.3-122.1-50.5-90.6-97.7-246.9-3.5-306.5 9.6-47.9 10.6-63.1-120.2-195.8 25-.1.2.2 2.9 1 7.6 3.6 20.8 15.5 79.6 25.8 109.9l.3.9c0 .1.1.2.1.3l1.5 4.2c.1.2.2.5.3.7.4 1.2.8 2.3 1.3 3.5.2.5.3.9.5 1.4.4 1 .7 2 1.1 2.9.2.5.4.9.5 1.4l1.5 3.9c.2.6.5 1.3.8 1.9.3.7.5 1.4.8 2 .3.8.7 1.6 1 2.4.2.4.4.9.5 1.3 6.6 16 14.1 31.7 22.7 46.8 9.1 15.8 19.4 30.9 31 44.9l.2.2c.8 1 1.6 1.9 2.4 2.9l.1.1c1.4 1.7 2.9 3.3 4.4 4.9.5.6 1 1.1 1.5 1.7.8.8 1.5 1.7 2.3 2.5.9.9 1.7 1.8 2.6 2.7.5.5 1 1.1 1.6 1.6 1.1 1.1 2.3 2.3 3.5 3.4.3.3.7.6 1 .9 1.1 1 2.2 2 3.2 3.1.3.3.7.6 1 .9 1.3 1.2 2.7 2.4 4 3.6.3.3.6.5.9.8 1.4 1.2 2.9 2.5 4.3 3.7 0 0 27.5-8.2 102.1 2.9 0 0-2.1-2.2-4.7-7.1-67.3-9-92.4-1.5-92.4-1.5-26.3-21.6-47.3-48.5-64.2-77.9-16.5-28.8-42.5-99.3-51.8-154.5 73.9-61 130.2-55.4 162.1-11.6 24.1 33.1 184-3.7 197.8-5.9 35.7-5.6 167.1 30.9 218.8 71.7 92.6 73.1 174.3 15.4 276.1 63.5 66.2 31.3 98 73.9 104.1 94.2 7.4 24.6 2.2 103.6-3.7 159.9.1-.4.1-.7.2-1.1.1-.3.1-.7.2-1 .6-3.6 1.2-7.1 1.7-10.7v-.1c5.1-32.7 8.6-65.7 10.4-98.8.1-1.5.2-3 .3-4.4 1.8-29.1 5.5-57.7.8-84.8Z"/><path fill="#FCDE11" d="M2845.8 1709c5.8-56.3 11.1-135.3 3.7-159.9-6.1-20.3-37.9-62.9-104.1-94.2-101.8-48.1-183.5 9.6-276.1-63.5-51.6-40.8-183.1-77.3-218.8-71.7-13.8 2.2-173.7 39-197.8 5.9-31.8-43.8-88.2-49.4-162.1 11.6 9.3 55.2 35.3 125.7 51.8 154.5 16.8 29.4 37.9 56.2 64.2 77.9 0 0 25.1-7.5 92.4 1.5 3.1.4 6.4.9 9.7 1.4 0 0-21.5-22-13.4-85.1.5-3.7 1.1-7.6 1.8-11.6 0 0 32 63.1 85.6 101.7 0 0 129.4 5.9 219.7 31.3 1.5.4 3 .9 4.5 1.3 0 0 2.9-37.8-1.3-60.3-1.2-6.3-2.9-11.4-5.3-14.2 0 0 71.3 57.4 105.8 99.8s328.5 78.3 231.3 253.1c0 0 29.7-5.6 58.1-36.4 16.9-18.3 33.2-45.5 42.6-85.7 1.8-7.5 4.8-29.7 7.7-57.4Z"/><path stroke="#333" stroke-linecap="round" stroke-linejoin="round" stroke-miterlimit="10" stroke-width="5" d="M1571.8 949.8s-85.6 146.3-126.7 327.2c-41.1 180.8-29.4 253.4-29.4 253.4M2193.5 954c149 99 208.3 313.5 208.3 538.2"/><path stroke="#333" stroke-linecap="round" stroke-linejoin="round" stroke-miterlimit="10" stroke-width="5" d="M2701.5 1741.4c249.3-415.2-193.7-1003.4-641.2-964.8 0 0-28.1 1-40 22.3m-813.8 773.3c-7.2-59.6-7-144.1 10.9-238.4 55.5-291.5 174.2-399.2 238.7-447.5"/><path stroke="#333" stroke-linejoin="round" stroke-miterlimit="10" stroke-width="5" d="M1243.6 1893.8s-64.6-60 11.7-142.4c0 0-44.6-61.6-48.8-179.2 0 0 10 97 55.4 172.7 0 0 23.7-28.3 98.1-62.7 0 0 4.1-26.3 9.3-44.9 0 0 13.1 27.9 23.2 30.8l14.8-5.8s-.4-51.7 10.2-86.4c0 0 17.5 46.6 50.9 65.7 0 0 37-13.9 82.6-21.7 0 0 9-148.1 35.7-236.3 0 0-7.6 97.6 72 215.8 0 0 91.5-16.8 161.9-18.3 0 0-33.9-151.8 51.9-343.6 0 0 .1 231.7 129.2 337.8 0 0 27.5-8.2 102.1 2.9 0 0-24.1-24.7-11.6-96.7 0 0 32 63.1 85.6 101.7 0 0 133.8 6.1 224.2 32.6 0 0 4.7-61.8-6.6-74.5 0 0 71.3 57.4 105.8 99.8s328.5 78.3 231.3 253.1c0 0 75.6-14.3 100.7-122.1C2950.1 1270.2 2683 706 2060.3 776.5c-518.8-148.7-1029.5 352.4-950.2 866.2 42.2 273.4 133.5 251.1 133.5 251.1Z"/><path fill="#333" fill-opacity=".1" fill-rule="evenodd" d="M1255.3 1751.4c-76.3 82.4-11.7 142.4-11.7 142.4s-83.4 6.2-118.9-181c-7.5-48.9-2.6 48.1 0 0 7.3-74 17.3-60.1 92.6-56.9 12.7-56.3 83.2-131.2 111.8-142.6 53.1-21.1 67-39.4 86 5.6 9.9-33.1 115.8-65 190.8-24.3 69.5 76.5 105.1-129.4 211.8-63.9-4.3 26.6 0 0 0 0-9.6 83.9 2.9 150.3 2.9 150.3-70.4 1.5-161.9 18.3-161.9 18.3-79.6-118.2-72-215.8-72-215.8-26.7 88.2-35.7 236.3-35.7 236.3-45.6 7.8-82.6 21.7-82.6 21.7-33.4-19.1-50.9-65.7-50.9-65.7-10.6 34.7-10.2 86.4-10.2 86.4l-14.8 5.8c-10.1-2.9-23.2-30.8-23.2-30.8-5.2 18.6-9.3 44.9-9.3 44.9-74.4 34.4-98.1 62.7-98.1 62.7-45.4-75.7-55.4-172.7-55.4-172.7 4.2 117.7 48.8 179.3 48.8 179.3Zm664.3-302.7c2.6 16.7 4.6 63 82.1 126.6 0 0 27.5-8.2 102.1 2.9 0 0-24.1-24.7-11.6-96.7 0 0 32 63.1 85.6 101.7 0 0 133.8 6.1 224.2 32.6 0 0 4.7-61.8-6.6-74.5 0 0 71.3 57.4 105.8 99.8 9.3 11.4 37.5 22.4 71.8 35.7 92.9 36.1 230.5 89.7 159.6 217.4 0 0 75.6-14.3 100.7-122.1 13.3-57.2-3.4 57.8 0 0 22.9-85.4-49.3-90.8-79.2-151.7-.7-94.9-232.4-166.3-352.2-170.7-86-52.8-271.5-48.1-319.6-15.2-93.9-24.6-122.7-19.4-162.7 14.2Z" clip-rule="evenodd"/></svg>