<svg xmlns="http://www.w3.org/2000/svg" xmlns:xlink="http://www.w3.org/1999/xlink" width="4000" height="4000" fill="none" xmlns:v="https://vecta.io/nano"><style><![CDATA[.B{fill:#000}.C{stroke:#000}.D{stroke-width:5}.E{stroke-miterlimit:10}.F{fill-opacity:.1}.G{fill:#4cd84c}.H{fill-opacity:.4}.I{fill:#333232}.J{fill:#f7c394}.K{fill-opacity:.15}.L{stroke-linejoin:round}.M{fill-rule:evenodd}]]></style><path d="M2275.1 3290.64c-50.77-7.42-115.16-32.27-196.86-76-11.87-6.35-16.67-21.85-10.25-33.84 6.35-11.87 21.85-16.66 33.84-10.25 75.45 40.37 136.18 64.12 180.5 70.6 28.93 4.23 49.75 1 61.88-9.64 13.6-11.92 12.4-33 8.83-72.4-4.17-46.12-9.36-103.53 19.78-169.5 44-99.72 153.63-194.53 269.1-176.7 73.33 11.36 143.6 66.2 159.73 140.6 13.73 63.36-6.02 150.17-73.53 174.43-44.77 16-95.93-2.36-130.84-32.08-10.44-8.68-11.95-25-3.06-35.44 8.8-10.34 25.15-11.64 35.48-2.62.43.36 43.66 36.65 81.5 23.06 42.84-15.38 49.77-78.95 41.56-116.78-11.75-54.23-65.6-93.57-118.5-101.77-92.84-14.33-180.8 68.5-215.72 147.5-23.9 54.16-19.56 102.32-15.72 144.8 4 43.84 7.7 85.25-25.67 114.5-27.66 24.4-67.07 26.8-102.02 21.54z" class="C D E I"/><path d="M2786.65 2965.53c11.06 51.02 1.18 114.55-37.82 152.08 51.4-33.7 65.07-107.56 52.82-164.08-16.13-74.4-86.4-129.24-159.73-140.6-66.26-10.23-131.78 18.56-181.54 60.82 114.12-80.75 293.3-60.36 326.27 91.78zm-69.03 112.53c-27.03 31.45-75.6 15.26-102.9-8.23-3.14-2.68-6.9-4.54-10.94-5.4a25.037 25.037 0 0 0-12.19.41c3.97-7.3 11.63-12.23 19.93-12.9 6.6-.53 13.15 1.6 18.2 5.9 22.07 19.5 59.84 35.17 87.9 20.24zm-644.12 95.44c3.5-3 15.5-9 23-5.5 6.98 3.26 15.34 7.4 24.73 12.03 49.42 24.4 127.47 62.97 183.77 62.97 50 0 54.5-25 47.5-91 .85 3.82 1.92 8.03 3.06 12.5 9.62 37.75 24.1 94.5-50.56 94.5-81.5 0-208.8-70.57-231.5-85.5z" class="B H"/><path d="M1587 3147c36.5 0 65.66-32.58 62.04-68.42-5.42-63.52 18.62-132.2 65.95-198.4 43.06-60.25 89.2-93.25 53.7-132.2s-115.56 3.92-155.4 59.5c-65.7 91.92-97.2 189.1-88.63 283.68 3.2 31.47 25.83 55.82 62.33 55.82z" class="C D E I"/><path d="M1553.1 3059.16c-.42-112.27 89.6-277.66 195.1-324.16-130-21-245 233.5-222.7 351.77 7.2-11.77 19.7-23.27 27.6-27.6z" class="B H"/><path d="M1959.37 3446.5c5-87.08 27.4-154.43 47.17-206.8s42.42-144.7-42.56-166.02c-121.5-30.5-188.3 254.12-193.3 340.94-2.93 51.08 36.82 110.33 88.4 113.3 47.48 2.3 97.45-31.8 100.3-81.4z" class="C D E I"/><path d="M1769.48 3414.5c51.5-7 148-7 188.5 34l1.66-15.04c-42.16-36.96-138.16-39.46-188.02-32.46-.26 3.3-1.86 10.13-2.14 13.5zm16-89.5c47.76 44.3 108.88 69.13 178 78.5.58-5 1.8-12.18 2.5-17-68.6-8.88-128.2-37.6-176-81-2 6-3.62 15.27-4.5 19.5z" class="B H"/><path d="M2040.63 3446.5c-5-87.08-27.4-154.43-47.17-206.8s-42.42-144.7 42.56-166.02c121.5-30.5 188.3 254.12 193.3 340.94 2.93 51.08-36.82 110.33-88.4 113.3-47.48 2.3-97.45-31.8-100.3-81.4z" class="C D E I"/><path d="M2230.52 3414.5c-51.5-7-148-7-188.5 34l-1.66-15.04c42.16-36.96 138.16-39.46 188.02-32.46.26 3.3 1.86 10.13 2.14 13.5zm-16-89.5c-47.76 44.3-108.88 69.13-178 78.5-.58-5-1.8-12.18-2.5-17 68.6-8.88 128.2-37.6 176-81 2 6 3.62 15.27 4.5 19.5z" class="B H"/><path d="M2413 3147c-36.5 0-65.66-32.58-62.04-68.42 5.42-63.52-18.62-132.2-65.95-198.4-43.06-60.25-89.2-93.25-53.7-132.2s115.56 3.92 155.4 59.5c65.7 91.92 97.2 189.1 88.63 283.68-3.2 31.47-25.83 55.82-62.33 55.82z" class="C D E I"/><path d="M2446.9 3059.16c.42-112.27-89.6-277.66-195.1-324.16 130-21 245 233.5 222.7 351.77-7.2-11.77-19.7-23.27-27.6-27.6z" class="B H"/><path d="M3133.2 1832.12c111.1 102 66.32 309.3-9.1 427.16-107.46 168-353.47 273.75-479.46 184.37-131.58-93.35-114.4-386.92 39.2-539.32 114.68-113.78 334.45-177.7 449.35-72.2z" class="C D E J"/><path d="M3003.5 1952.22c66 68.2 30.1 196.68-21.65 267.88-73.75 101.45-232.17 158.7-307.94 97.86-79.14-63.53-57.4-247.22 44.75-337.18 76.26-67.16 216.64-99.08 284.84-28.56z" fill="#ffc9a1"/><path d="M3124.1 2259.28c-60.7 94.85-195.1 203.22-346.6 216.72 106.36-25 260-133.85 306.64-206.72 75.4-117.87 115.36-338.97 9.1-427.16-32.4-26.9-114.73-65.12-227.73-45.12 138-42.5 222.8-6.13 267.73 35.12 111.06 102 66.28 309.3-9.13 427.16z" class="B F"/><path d="M866.818 1832.12c-111.1 102-66.32 309.3 9.1 427.16 107.46 168 353.472 273.75 479.462 184.37 131.58-93.35 114.4-386.92-39.2-539.32-114.68-113.78-334.452-177.7-449.352-72.2z" class="C D E J"/><path d="M996.518 1952.22c-66 68.2-30.1 196.68 21.652 267.88 73.75 101.45 232.17 158.7 307.94 97.86 79.14-63.53 57.4-247.22-44.75-337.18-76.26-67.16-216.64-99.08-284.842-28.56z" fill="#ffc9a1"/><path d="M875.908 2259.28C936.598 2354.13 1071 2462.5 1222.5 2476c-106.36-25-260.02-133.85-306.642-206.72-75.4-117.87-115.36-338.97-9.1-427.16 32.41-26.9 114.732-65.12 227.732-45.12-138.002-42.5-222.792-6.13-267.732 35.12-111.06 102-66.28 309.3 9.13 427.16z" class="B F"/><path d="M2000 2548c154 0 220 135 260 246s58 220 58 292c0 152-138.68 305.46-318 307-175.53 1.5-318-155-318-307 0-72 17.7-181.5 58-292 40-111 106-246 260-246z" class="C D E I"/><path d="M2000 3393c-175.67 1.6-330-157-318-337 10 148 145.15 288.48 318 287s308-139 318-287c12 180-142.33 335.4-318 337z" class="B H"/><path d="M2000 2672c104 0 160 68 174 128 34.5 147.82 64 274 4 350s-134.95 82-178 82c-47.55 0-118-6-178-82s-32.44-193.83 4-350c14-60 70-128 174-128z" class="C D E J"/><path d="M2000 3232c-136 0-224-94-213-216 4 115 96 190 213 190s209-75 213-190c11 122-77 216-213 216z" class="B F"/><g class="C"><g class="D"><path d="M2456.64 2931.88c-11.23 9.05-89.14 48.12-125.5 41.88C2320 2942 2309.5 2925 2298 2909c24 77 44.5 218.5-5 301-60.8 59.77-184 90-293 90s-232.2-30.23-293-90c-40-63-40-180.5-5-301-10 12-17.28 22.88-33.15 64.76-43.85 0-95.08-15.23-127.5-37.88C1562 2871.5 1594 2830 1604.22 2819c132.06 51.4 252.28 79.13 395.78 79.13s284.48-30 398.6-75c7.12 10.87 44.4 57.37 58.05 108.75z" class="G L"/><path d="M2210 2873.6l-2.27 3.1-158.83 215.55 123.64 180.57c-14.8 4.46-29.9 7.97-45.08 10.82-17.12 3.24-34.43 5.64-51.77 7.32l-83.52-121.9-88.7 119.95c-32.3-4.7-64.45-11.66-95.27-22.54l130.08-176-148.25-217.12c40.28 8.43 81 14.56 121.98 18.36l83.04 121.75 89-120.93c42.34-3.7 84.4-10 125.96-18.9z" class="B E"/></g><path d="M2046.9 3092.25l-143.44 198.5c-15.07-2.2-30.05-5.38-44.9-8.75-17.14-4.06-33.84-9.17-50.37-15l130.08-176.54-146.25-214.2c40.2 8.38 80.8 14.48 121.7 18.26l133.2 197.72z" stroke-width="8" class="G L"/></g><path d="M1669 2974c-43 1-93.5-18-127-38 .5-5 6.5-19 8-21.5 22 20 76.84 42.96 118.04 40.4C1674 2942 1682 2920 1702 2907c-4.86 7.78-26.5 45-33 67zm788-42c-33.5 20-82.5 43-125.5 42-6.5-22-28.14-59.22-33-67 17.36 11.3 25.62 29.83 33.96 47.9 41.2 2.55 96.04-23.4 118.04-43.4 2 4 5.5 15 6.5 20.5zm-137 97.86c10.5 97.14-9.78 154.9-28.54 181.84-84.96 72.8-207.78 87.57-291.46 88.3-118.33 1-232.94-31.66-293.74-91.43-27.26-35.57-30.95-113.88-30.07-161.9.77 43.1 10.9 101.04 39.3 137.34 46.8 59.77 166.17 88.04 284.5 87 129.24-1.12 245.6-25.36 291.34-93.1 27.9-41.34 27.94-100.75 28.66-148.03zm75-211.86c-115.35 45.22-271 79-395 79s-259.34-26.43-395-79c-7.24 10.54-16.6 26.27-23 37 142 57 275 86 418 86s276-29 418-86c-6.15-10.7-15.93-26.36-23-37z" class="B K"/><path d="M2500.32 839c42.32-35.85-124.32-76-146.52-139.5-26.8-76.5 395.6 127.1 331.57 261.08-5 10.5-55.43 94-417.6-23.77C2665.92 1066 2967.42 1339.94 2966 1847c-1.1 388.75-350.07 990.8-966.43 996.18-594.62 5.2-966.64-596.22-965.57-996.18 1.32-488.44 432.13-990.94 966-1028.5 319.4-22.45 465.3 50.1 500.32 20.5z" class="C D I L"/><path d="M2565.16 861.34c-29.66 65.16-211.8-40-531.22-17.54C1380.48 889.737 907 1615 1169.36 2202.88c68.14-70.38 151.14-90.38 177.6-99.16 7.94 8.57 17.6 17.67 21.05 21.78-81.37 25.35-175.93 80.4-216.63 156.84-76.27-147.6-117-302.56-116.6-435.33 1.32-488.45 432.22-991 966.1-1028.57 319.4-22.45 464.56 50.1 499.6 20.46 42.18-35.75-124.46-75.9-146.65-139.4-8.57-24.46 28.82-20.27 81.55 1.13-20-2.88-31 1.83-25.55 15.87 19.38 50.4 180.3 90.02 155.35 144.83zm399.34 985.73c-.36 127.74-38.12 278.5-110.54 423.57C2779 2168 2644.73 2127 2631 2127l20-24.5c23.5 5.5 128.62 27.9 187.28 106.2 59.3-132.15 86.52-255.16 86.84-370.86 1.47-524.24-353.62-784.84-657.36-901.02C2665.92 1066 2965.92 1340 2964.5 1847.07z" class="B H"/><path d="M1725 1203.5c-297 0-665 628.5-363.5 918.5-575.5 180 0 779 638.5 779s1214-599 638.5-779c301.5-290-66.5-918.5-363.5-918.5-126.5 0-195.5 58.5-275 116.5-79.5-58-148.5-116.5-275-116.5z" fill="#ffcd98" class="C D"/><g class="B"><path d="M2749.1 1817c-15.7-308.54-265-613.2-481.5-613.2-134.6 0-216.2 82.14-267.6 116.2-41.1-28.05-132.5-116.2-268.4-116.2-255.6 0-478.1 373.2-482.13 622.7C1227 1558 1433.07 1155 1733 1155c156 0 239 75 267 106 28-31 111-106 267-106 297.63 0 503.5 381.5 482.1 662z" class="H"/><path d="M1250.37 1807.4c-7.1 117.45 24.02 230 111.45 314.1-10.42 3.26-20.47 7.66-30.15 11.2 22.33-7.2 43.66-12.28 68.33-16.7-84.54-81.32-133.47-191.76-149.63-308.6zm-101.77 459.27c-135.93 245.26 334.32 633.83 851.4 633.83s993.17-392.85 849.75-637.86C2945.1 2486.74 2490.72 2863 2000 2863c-487.8 0-939.7-371.78-851.4-596.33zM2670.5 2133c-21.76-6.4-44.6-12.37-70.5-17 85.32-82.07 134.37-193.8 150.07-311.86 7.9 118.62-23 232.5-111.25 317.36 11.32 3.54 21.24 7.64 31.68 11.5z" class="F"/></g><path d="M1759.66 1403.06c154.9 18 266.48 208.75 250 376.77-16.38 167.34-162.7 342-329.88 323-151.8-17.3-250.26-186.22-253.5-328.16-4.3-190.16 160.84-391.67 333.38-371.6z" fill="#fff"/><path d="M1947.73 1825.22c22.1-113.95-39.5-221.76-137.6-240.8-98.1-19.04-195.55 57.9-217.66 171.87-22.1 113.95 39.5 221.76 137.6 240.8 98.1 19.04 195.55-57.9 217.66-171.87z" class="C D E G"/><path d="M1781.2 1941.56c58.5 0 105.94-53.04 105.94-118.46s-47.43-118.46-105.94-118.46-105.94 53.04-105.94 118.46 47.43 118.46 105.94 118.46z" class="B"/><path d="M1874.9 1740.3c7.45-21.05-4.4-44.45-26.5-52.27-22.08-7.82-46.03 2.9-53.48 23.96s4.42 44.45 26.5 52.27c22.1 7.8 46.03-2.9 53.48-23.96z" fill="#fff" class="C D E"/><g class="B"><path d="M1835.9 1427c-204.38-55.9-374.48 186.25-370.3 368 2.47 107.25 59.36 229.8 152.7 291.65-116.4-48.78-189.2-190.33-192-312-4.33-190.1 160.82-391.6 333.36-371.55 26.68 3.2 52.53 11.3 76.25 23.9z" fill-opacity=".05"/><path d="M1863.62 1605.54c-112.85-32.07-212.74 65.3-233.15 170.44-16.75 86.35 14.07 169.22 72.35 213.35-81.88-32-130.23-129.93-110.25-232.9 22.12-114 119.58-190.9 217.68-171.85 18.92 3.67 37 10.77 53.37 20.95z" class="K"/></g><path d="M2234 1398.9c-154.54 20.68-262.8 213.36-243.4 381.08 19.3 167 168.63 339.1 335.47 317.13 151.47-19.94 247-190.55 247.73-332.52.98-190.16-167.66-388.73-339.8-365.7z" fill="#fff"/><path d="M2273.74 1992.7c97.75-20.74 157.46-129.6 133.37-243.16s-122.87-188.8-220.63-168.05c-97.75 20.75-157.46 129.6-133.37 243.16 24.1 113.55 122.87 188.8 220.63 168.05z" class="C D E G"/><path d="M2221.84 1937.7c58.5-1.02 105-54.87 103.86-120.3-1.15-65.4-49.5-117.6-108-116.6-58.5 1.02-105 54.88-103.86 120.3s49.5 117.62 108 116.6z" class="B"/><path d="M2288.34 1764.4c21.94-8.2 33.4-31.8 25.58-52.72-7.8-20.92-31.94-31.23-53.9-23.03-21.94 8.2-33.4 31.8-25.58 52.73 7.82 20.9 31.94 31.22 53.9 23.02z" fill="#fff" class="C D E"/><g class="B"><path d="M2573.77 1764.6c-.66 123.27-72.75 268.13-190.88 317.2 95.3-61.62 152.08-188.08 152.66-297.55.96-183.58-181.1-431.24-385.95-355.18 26-15.6 54.3-26.14 84.37-30.17 172.17-23.04 340.8 175.53 339.8 365.7z" fill-opacity=".05"/><path d="M2295.1 1986.4c60.86-43.65 92.6-129.07 73.87-217.3-22.4-105.54-126.5-201.4-238.74-163.7 17.03-11.63 36.17-19.82 56.34-24.1 97.76-20.75 196.54 54.48 220.65 168 22.3 105.1-27.16 206.17-112.12 237.1z" class="K"/><path d="M1785 2099c0 76.35 98.85 169 216.26 168 108.22-.95 213.74-92.55 213.74-167.78 0-152.13-430-154.42-430-.22z" class="F"/></g><path d="M1782 2081c0 76.35 100.23 169 219.27 168 109.73-.95 216.73-92.55 216.73-167.78 0-60.53-126.24-113.77-216.73-113-84.02.78-219.27 41.16-219.27 112.78z" fill="#7f6145"/><path d="M1783.58 2067.77c41.76 54.75 124.68 100.94 217.85 100.22 86.2-.68 170.92-47.12 214.1-101.55 1.62 4.86 2.48 9.8 2.48 14.78 0 75.23-107 166.83-216.73 167.78-119.04 1-219.27-91.65-219.27-168 0-4.54.54-8.95 1.58-13.23z" fill-opacity=".2" class="B"/><path d="M1910 3556c32 0 63.1-23.6 66.7-56.14 9.1-82.2-94.35-89.68-150.67-90.92-57.1-1.25-154.03 9.56-171.02 72.27-14.85 54.8 36.5 74.8 73 74.8s49-12.15 92.98-12.15c38.4 0 57.02 12.15 89.02 12.15z" class="C D E J"/><path d="M1909 3534c-32 0-50.6-12.15-89.02-12.15-43.98 0-56.48 12.15-92.98 12.15-28.4 0-65.75-12.1-73.97-43.26-6.73 47.6 40.67 65.26 74.97 65.26 36.5 0 49-12.15 92.98-12.15 38.4 0 57.02 12.15 89.02 12.15 42.86 0 73-34.15 65.9-80.26-2.97 33.46-34.04 58.26-66.9 58.26z" class="B F"/><path d="M2090 3556c-32 0-63.1-23.6-66.7-56.14-9.1-82.2 94.35-89.68 150.67-90.92 57.1-1.25 154.03 9.56 171.02 72.27 14.85 54.8-36.5 74.8-73 74.8s-49-12.15-92.98-12.15c-38.42 0-57.02 12.15-89.02 12.15z" class="C D E J"/><path d="M2091 3534c32 0 50.6-12.15 89.02-12.15 43.98 0 56.48 12.15 92.98 12.15 28.4 0 65.75-12.1 73.97-43.26 6.73 47.6-40.67 65.26-74.97 65.26-36.5 0-49-12.15-92.98-12.15-38.42 0-57.02 12.15-89.02 12.15-42.86 0-73-34.15-65.9-80.26 2.97 33.46 34.04 58.26 66.9 58.26z" class="B F"/><path d="M1601.4 3259.9c56.8.05 92.98-68.1 58.6-115.27 15.9-45.2-18.1-95.4-66.66-96.55-56-1.34-88.37 58.5-82.5 109.13 5.48 47.3 37.52 102.65 90.57 102.7z" class="C D E J"/><path d="M1510.83 3157.2c6.78 58.57 54.37 126.8 125.37 93.8-68.83-8.8-117-125.5-83.1-191.84-5.4 3.84-13.9 8.34-27.6 27.6-12.3 21.73-17.7 46.2-14.66 70.43z" class="B F"/><path d="M2398.6 3259.9c-56.82.05-93-68.1-58.6-115.27-15.92-45.2 18.08-95.4 66.66-96.55 56-1.34 88.36 58.5 82.5 109.13-5.48 47.3-37.53 102.65-90.57 102.7z" class="C D E J"/><g class="B"><path d="M2489.17 3157.2c-6.78 58.57-54.37 126.8-125.37 93.8 68.82-8.8 117-125.5 83.1-191.84 5.4 3.84 13.9 8.34 27.6 27.6 12.3 21.73 17.7 46.2 14.66 70.43z" class="F"/><path d="M2962.6 1775c-1.85-.15-3.63-.8-5.13-1.9s-2.66-2.58-3.37-4.3c-218.06-510-974.77-575.76-1453.18-507.32-131 18.73-241.06 47.53-313.56 80-1 .45-2.06.74-3.15.87 48.32-79.6 106.13-153.06 172.15-218.75 379.48-68.1 1044.53-117.3 1486.28 234.62 68.1 115 110.72 252.78 119.96 416.78z" fill-opacity=".2"/></g><g class="C D E"><path d="M2613.8 241c.2 20.372-3.93 40.555-12.12 59.21s-20.25 35.354-35.4 48.99c-38.34-37-76.5-59.62-113.1-63.76-25.82-2.92-64.66 4.2-113 20.08-9.47-19.432-14.45-40.746-14.57-62.364s4.63-42.985 13.9-62.518 22.8-36.732 39.62-50.322a144.05 144.05 0 0 1 57.5-28.185c21.05-4.962 42.93-5.1257 64.05-.48 21.1 4.646 40.9 13.984 57.92 27.32s30.8 30.33 40.36 49.723c9.56 19.393 14.62 40.687 14.83 62.304z" class="G"/><path d="M1209.2 1310.47c-8.1 3.68-16.9-4.57-13.75-12.88C1396.1 771.06 2266.12 264.26 2453.2 285.44c264.15 29.9 609.58 1021.67 520.72 1450.45-2 9.8-15.48 11.12-19.38 1.9-274.4-649.6-1412.12-578.5-1745.36-427.3z" class="B"/><g fill="#f2f2f2"><use xlink:href="#B"/><use xlink:href="#C"/></g><g class="G"><use xlink:href="#B"/><use xlink:href="#C"/></g></g><g class="B K"><path d="M2613.8 241c.2 20.372-3.93 40.555-12.12 59.21s-20.25 35.354-35.4 48.99c-22-21.23-43.93-37.73-65.55-48.7 10.46-16.194 17.57-34.32 20.9-53.308s2.8-38.45-1.5-57.238c-4.33-18.786-12.37-36.514-23.67-52.135s-25.6-28.818-42.1-38.81c4.67-.5 9.37-.77 14.1-.8 38.2-.333 75 14.526 102.24 41.308 27.26 26.78 42.76 63.293 43.1 101.502z"/><path d="M2683.6 1418.42c118 78.73 213.43 183.22 270.94 319.36 3.9 9.23 17.38 7.92 19.38-1.9 88.86-428.78-256.57-1420.55-520.72-1450.45-16.75-1.896-38.98.44-65.7 6.645C2683.6 424 2692.05 1158.45 2683.6 1418.42z"/></g><path d="M2000.4 2770.5c275 0 572-112.5 663.25-379.44 15.25-42.3-22.1-84.98-67.45-78.53-197.53 28.07-396.8 42.15-596.3 42.15s-398.78-14.1-596.3-42.15c-45.32-6.44-82.16 36-67.46 78.53C1428.4 2658 1725.4 2770.5 2000.4 2770.5z" fill="#3d0c0c"/><path d="M2578.2 2512.04c32.74-40.14 56-82.74 67.74-125.83 8.9-32.67-14.7-60.04-47.04-55.45-396.36 55.5-801.44 56.2-1197.8.01-32.4-4.56-55.98 22.77-47.08 55.44 11.74 43.1 34.97 85.7 67.74 125.83 383.1 52.47 773.36 52.94 1156.43 0zM2000.4 2752c198.56.34 414.2-65.72 553.93-212.94-367.46 48.34-741.25 48.3-1108.7.03 140.78 148.35 354.63 212.57 554.78 212.9z" fill="#fff"/><path d="M2645.95 2386.22c-11.75 43.08-35 85.68-67.74 125.82l-88.92 11.23c42.55-59.77 72.34-124.18 92-190.06l17.54-2.44c32.43-4.6 56.02 22.77 47.12 55.45zm-1224.2 125.82l89.57 11.3c-42.7-59.7-72.52-124.15-92.1-190.05l-18.12-2.53c-32.4-4.55-55.98 22.77-47.08 55.45 11.74 43.1 34.97 85.68 67.74 125.82zm23.85 27c78.35 82.56 182.38 141.73 290.3 173.75-86.43-45.37-154.18-101.8-206.6-163.6l-83.7-10.14zM2266.36 2712c107.2-32.23 209.97-90.74 287.98-172.94l-82.92 10.07c-52.28 61.44-119.58 117.48-205.06 162.87z" class="B F"/><g class="C D"><path d="M2014.5 3490.5c-1.5-31.5-1.5-64.5 15-83.5-4-4 .67-9.27 4.5-8 29.5 9.83 107.5 9.5 181-13 119.5 84.5 203 82 220 97 18.3 16.15-419 39-420.5 7.5z" class="G"/><g fill="#2fc12f"><path d="M2216.5 3368c16-7 61 24 57.5 35.5-9 12-83.38 2.73-71-8 15-13 8-25.1 13.5-27.5z"/><path d="M2239.5 3387c29.93 14.48 118.3 57.57 103 68.5-42 30-155.3-34.43-158.5-43.5-3-8.5 9.7-14.74 18.5-19.5 9.7-5.26 21.5-13 37-5.5z"/></g><path d="M2012.72 3543.07c-.72-12.67-1.5-32.28-.22-42.57 95.5 16 367 13.5 430-15.5 9 5.5 17 27.5 11.5 45-54.16 49.23-364.32 30.36-428.77 25.86-6.88-.48-12.12-5.9-12.5-12.8z" fill="#1b1b1b"/></g><path d="M2013.85 3500.72c.13 7.83.5 15.97.87 22.35.4 6.88 5.63 12.3 12.5 12.8 64.18 4.48 372.05 23.22 428.08-25.25.9 6.4.64 13.18-1.3 19.4-54.16 49.23-364.32 30.36-428.77 25.86-6.88-.48-12.12-5.9-12.5-12.8-.72-12.67-1.5-32.28-.22-42.57l1.35.22z" class="B M"/><g class="C D"><path d="M2015 3492c-3.5.5-5.5 5-2.5 8.5 95.5 16 367 13.5 430-15.5 1.5-3.5-2.5-8.68-6.5-7.5-106.5 31.5-340.5 22-421 14.5zm-29.5-1.5c1.5-31.5 1.5-64.5-15-83.5 4-4-.68-9.27-4.5-8-29.5 9.83-107.5 9.5-181-13-119.5 84.5-203 82-220 97-18.3 16.15 419 39 420.5 7.5z" class="G"/><g fill="#2fc12f"><path d="M1783.5 3368c-16-7-61 24-57.5 35.5 9 12 83.37 2.73 71-8-15-13-8-25.1-13.5-27.5z"/><path d="M1760.5 3387c-29.93 14.48-118.3 57.57-103 68.5 42 30 155.3-34.43 158.5-43.5 3-8.5-9.7-14.74-18.5-19.5-9.7-5.26-21.5-13-37-5.5z"/></g><path d="M1987.3 3543.07c.72-12.67 1.5-32.28.22-42.57-95.5 16-367 13.5-430-15.5-9 5.5-17 27.5-11.5 45 54.15 49.23 364.32 30.36 428.77 25.86 6.87-.48 12.12-5.9 12.5-12.8z" fill="#1b1b1b"/></g><path d="M1986.15 3500.72c-.12 7.83-.5 15.97-.86 22.35-.4 6.88-5.64 12.3-12.5 12.8-64.18 4.48-372.05 23.22-428.1-25.25-.9 6.4-.64 13.18 1.32 19.4 54.15 49.23 364.32 30.36 428.77 25.86 6.87-.48 12.12-5.9 12.5-12.8.72-12.67 1.5-32.28.22-42.57l-1.36.22z" class="B M"/><path d="M1985 3492c3.5.5 5.5 5 2.5 8.5-95.5 16-367 13.5-430-15.5-1.5-3.5 2.5-8.68 6.5-7.5 106.5 31.5 340.5 22 421 14.5z" class="C D G"/><defs ><path id="B" d="M2954.56 1737.75c-274.4-649.6-1412.12-578.46-1745.37-427.27-8.1 3.7-16.92-4.58-13.75-12.9 43.7-114.64 119.12-228.34 212.32-335.87 405.68-96.4 1255.32-54.34 1565.33 426 24.52 159.35 23 241.26.84 348.22-2.03 9.75-15.48 11.07-19.37 1.82z"/><path id="C" d="M2864.1 914c-298.36-227.2-767.38-287.9-1118.33-265.83C1891.5 536 2042.13 442.55 2169.33 378.54c170.8 16.6 352 53.83 509.7 118.4C2745.84 609.16 2811.33 756 2864.1 914z"/></defs></svg>