<svg fill="none" height="4000" viewBox="0 0 4000 4000" width="4000" xmlns="http://www.w3.org/2000/svg"><path d="m2275.11 3290.64c-50.77-7.42-115.16-32.27-196.86-76-11.87-6.35-16.67-21.85-10.25-33.84 6.35-11.87 21.85-16.66 33.84-10.25 75.45 40.37 136.18 64.12 180.5 70.6 28.93 4.23 49.75 1 61.88-9.64 13.61-11.92 12.39-33 8.83-72.39-4.17-46.12-9.36-103.53 19.78-169.51 44-99.72 153.63-194.53 269.09-176.7 73.33 11.36 143.6 66.19 159.73 140.59 13.73 63.36-6.02 150.17-73.53 174.43-44.77 16-95.93-2.36-130.84-32.08-10.44-8.68-11.95-25-3.06-35.44 8.81-10.34 25.15-11.64 35.48-2.62.43.36 43.66 36.65 81.49 23.06 42.84-15.38 49.77-78.95 41.56-116.78-11.75-54.23-65.6-93.57-118.51-101.77-92.84-14.33-180.8 68.49-215.72 147.49-23.91 54.16-19.56 102.32-15.72 144.81 4 43.84 7.71 85.25-25.67 114.5-27.66 24.4-67.07 26.8-102.02 21.54z" fill="#b5b2a7" stroke="#333" stroke-miterlimit="10" stroke-width="5"/><path d="m2786.65 2965.53c11.06 51.02 1.18 114.55-37.82 152.08 51.41-33.7 65.07-107.56 52.82-164.08-16.13-74.41-86.39-129.24-159.73-140.6-66.26-10.23-131.78 18.56-181.54 60.82 114.12-80.75 293.29-60.36 326.27 91.78z" fill="#000" fill-opacity=".2"/><path d="m2717.62 3078.06c-27.03 31.45-75.59 15.26-102.89-8.23-3.14-2.68-6.9-4.54-10.94-5.41-4.03-.87-8.22-.73-12.19.41 3.97-7.3 11.63-12.23 19.93-12.9 6.6-.53 13.15 1.59 18.2 5.89 22.07 19.5 59.84 35.17 87.89 20.24z" fill="#000" fill-opacity=".2"/><path d="m2073.5 3173.5c3.5-3 15.5-9 23-5.5 6.98 3.26 15.34 7.39 24.73 12.03 49.42 24.41 127.47 62.97 183.77 62.97 50 0 54.5-25 47.5-91 .85 3.82 1.92 8.03 3.06 12.51 9.62 37.75 24.09 94.49-50.56 94.49-81.5 0-208.79-70.57-231.5-85.5z" fill="#000" fill-opacity=".2"/><path d="m1587 3147c36.5 0 65.66-32.58 62.04-68.42-5.42-63.52 18.62-132.19 65.95-198.39 43.06-60.25 89.21-93.25 53.71-132.19s-115.56 3.92-155.4 59.5c-65.71 91.92-97.19 189.11-88.63 283.68 3.19 31.47 25.83 55.82 62.33 55.82z" fill="#b5b2a7" stroke="#333" stroke-miterlimit="10" stroke-width="5"/><path d="m1553.09 3059.16c-.42-112.27 89.61-277.66 195.11-324.16-130-21-245 233.5-222.71 351.77 7.21-11.77 19.71-23.27 27.6-27.61z" fill="#000" fill-opacity=".15"/><path d="m1959.37 3446.51c5-87.08 27.4-154.43 47.17-206.81s42.42-144.7-42.56-166.02c-121.5-30.49-188.31 254.12-193.3 340.94-2.93 51.08 36.82 110.33 88.4 113.29 47.48 2.31 97.45-31.79 100.29-81.4z" fill="#b5b2a7" stroke="#333" stroke-miterlimit="10" stroke-width="5"/><path d="m1769.48 3414.5c51.5-7 148-7 188.5 34 .34-3.09 1.44-11.94 1.66-15.04-42.16-36.96-138.16-39.46-188.02-32.46-.26 3.3-1.86 10.13-2.14 13.5z" fill="#000" fill-opacity=".15"/><path d="m1785.48 3325c47.76 44.29 108.88 69.13 178 78.5.58-5.01 1.81-12.18 2.5-17-68.6-8.88-128.2-37.6-176-81-2 6-3.62 15.27-4.5 19.5z" fill="#000" fill-opacity=".15"/><path d="m2040.63 3446.51c-5-87.08-27.4-154.43-47.17-206.81s-42.42-144.7 42.56-166.02c121.5-30.49 188.31 254.12 193.3 340.94 2.93 51.08-36.82 110.33-88.4 113.29-47.48 2.31-97.45-31.79-100.29-81.4z" fill="#b5b2a7" stroke="#333" stroke-miterlimit="10" stroke-width="5"/><path d="m2230.52 3414.5c-51.5-7-148-7-188.5 34-.34-3.09-1.44-11.94-1.66-15.04 42.16-36.96 138.16-39.46 188.02-32.46.26 3.3 1.86 10.13 2.14 13.5z" fill="#000" fill-opacity=".15"/><path d="m2214.52 3325c-47.76 44.29-108.88 69.13-178 78.5-.58-5.01-1.81-12.18-2.5-17 68.6-8.88 128.2-37.6 176-81 2 6 3.62 15.27 4.5 19.5z" fill="#000" fill-opacity=".15"/><path d="m2012.5 3500.5c-1.5-31.5.5-74.5 17-93.5-4-4 .67-9.27 4.5-8 29.5 9.83 107.5 9.5 181-13 119.5 84.5 209 82 226 97 18.31 16.15-427 49-428.5 17.5z" fill="#efefef" stroke="#333" stroke-width="5"/><path d="m2233.5 3384c29.93 14.48 118.3 57.57 103 68.5-42 30-155.3-34.43-158.5-43.5-3-8.5 9.7-14.74 18.5-19.5 9.71-5.26 21.5-13 37-5.5z" fill="#232323" stroke="#333" stroke-width="5"/><path d="m2012.72 3543.07c-.72-12.67-1.51-32.28-.22-42.57 95.5 16 367 13.5 430-15.5 9 5.5 17 27.5 11.5 45-54.16 49.23-364.32 30.36-428.77 25.86-6.88-.48-12.12-5.91-12.51-12.79z" fill="#232323" stroke="#333" stroke-width="5"/><path d="m2014.85 3503.72c.13 7.83-.5 12.97-.13 19.35.39 6.88 5.63 12.31 12.51 12.79 64.18 4.48 372.05 23.22 428.08-25.25.89 6.4.64 13.18-1.31 19.39-54.16 49.23-364.32 30.36-428.77 25.86-6.88-.48-12.12-5.91-12.51-12.79-.72-12.67-.51-29.28.78-39.57.45.08.9.15 1.35.22z" fill="#000" fill-opacity=".5"/><path d="m1987.51 3500.5c1.5-31.5-.5-74.5-17-93.5 4-4-.68-9.27-4.5-8-29.5 9.83-107.5 9.5-181-13-119.5 84.5-209 82-226 97-18.31 16.15 427 49 428.5 17.5z" fill="#efefef" stroke="#333" stroke-width="5"/><path d="m1766.51 3384c-29.93 14.48-118.3 57.57-103.01 68.5 42.01 30 155.31-34.43 158.51-43.5 3-8.5-9.7-14.74-18.5-19.5-9.71-5.26-21.5-13-37-5.5z" fill="#232323" stroke="#333" stroke-width="5"/><path d="m1987.29 3543.07c.72-12.67 1.5-32.28.22-42.57-95.5 16-367 13.5-430-15.5-9 5.5-17 27.5-11.5 45 54.15 49.23 364.32 30.36 428.77 25.86 6.87-.48 12.12-5.91 12.51-12.79z" fill="#232323" stroke="#333" stroke-width="5"/><path d="m1985.15 3503.72c-.12 7.83.5 12.97.14 19.35-.39 6.88-5.64 12.31-12.51 12.79-64.18 4.48-372.05 23.22-428.09-25.25-.89 6.4-.64 13.18 1.32 19.39 54.15 49.23 364.32 30.36 428.77 25.86 6.87-.48 12.12-5.91 12.51-12.79.72-12.67.5-29.28-.78-39.57-.45.08-.9.15-1.36.22z" fill="#000" fill-opacity=".5"/><path d="m2413 3147c-36.5 0-65.66-32.58-62.04-68.42 5.42-63.52-18.62-132.19-65.95-198.39-43.06-60.25-89.21-93.25-53.71-132.19s115.56 3.92 155.4 59.5c65.71 91.92 97.19 189.11 88.63 283.68-3.19 31.47-25.83 55.82-62.33 55.82z" fill="#b5b2a7" stroke="#333" stroke-miterlimit="10" stroke-width="5"/><path d="m2446.91 3059.16c.42-112.27-89.61-277.66-195.11-324.16 130-21 245 233.5 222.71 351.77-7.21-11.77-19.71-23.27-27.6-27.61z" fill="#000" fill-opacity=".15"/><path d="m3133.19 1832.12c111.1 102 66.32 309.29-9.09 427.16-107.46 168-353.47 273.75-479.46 184.37-131.58-93.35-114.4-386.92 39.2-539.32 114.68-113.78 334.45-177.69 449.35-72.21z" fill="#f7c394" stroke="#333" stroke-miterlimit="10" stroke-width="5"/><path d="m3003.49 1952.22c66 68.19 30.1 196.68-21.65 267.88-73.75 101.45-232.17 158.69-307.94 97.86-79.14-63.53-57.39-247.22 44.75-337.18 76.26-67.16 216.64-99.08 284.84-28.56z" fill="#ffc9a1"/><path d="m3124.1 2259.28c-60.69 94.85-195.1 203.22-346.6 216.72 106.36-25 260.01-133.85 306.64-206.72 75.41-117.87 115.36-338.97 9.09-427.16-32.41-26.89-114.73-65.12-227.73-45.12 138-42.5 222.79-6.13 267.73 35.12 111.06 101.99 66.28 309.29-9.13 427.16z" fill="#000" fill-opacity=".1"/><path d="m866.818 1832.12c-111.1 102-66.32 309.29 9.09 427.16 107.46 168 353.472 273.75 479.462 184.37 131.58-93.35 114.4-386.92-39.2-539.32-114.68-113.78-334.452-177.69-449.352-72.21z" fill="#f7c394" stroke="#333" stroke-miterlimit="10" stroke-width="5"/><path d="m996.518 1952.22c-66 68.19-30.1 196.68 21.652 267.88 73.75 101.45 232.17 158.69 307.94 97.86 79.14-63.53 57.39-247.22-44.75-337.18-76.26-67.16-216.64-99.08-284.842-28.56z" fill="#ffc9a1"/><path d="m875.908 2259.28c60.69 94.85 195.102 203.22 346.602 216.72-106.36-25-260.019-133.85-306.642-206.72-75.41-117.87-115.36-338.97-9.09-427.16 32.409-26.89 114.732-65.12 227.732-45.12-138.002-42.5-222.792-6.13-267.732 35.12-111.06 101.99-66.28 309.29 9.13 427.16z" fill="#000" fill-opacity=".1"/><path d="m2000 2548c154 0 220 135 260 246s58 220 58 292c0 152-138.68 305.46-318 307-175.53 1.51-318-155-318-307 0-72 17.7-181.5 58-292 40-111 106-246 260-246z" fill="#b5b2a7" stroke="#333" stroke-miterlimit="10" stroke-width="5"/><path d="m2000 3393c-175.67 1.59-330-157-318-337 10 148 145.15 288.48 318 287s308-139 318-287c12 180-142.33 335.41-318 337z" fill="#000" fill-opacity=".15"/><path d="m2000 2672c104 0 160 68 174 128 34.49 147.82 64 274 4 350s-134.95 82-178 82c-47.55 0-118-6-178-82s-32.44-193.83 4-350c14-60 70-128 174-128z" fill="#f7c394" stroke="#333" stroke-miterlimit="10" stroke-width="5"/><path d="m2000 3232c-136 0-224-94-213-216 4 115 96 190 213 190s209-75 213-190c11 122-77 216-213 216z" fill="#000" fill-opacity=".1"/><path clip-rule="evenodd" d="m2152.17 2903.91c0 7.73 2.82 14.8 7.5 20.23-15.26 1.95-27.06 14.99-27.06 30.78 0 9.29 4.08 17.62 10.54 23.31-13.83 3.13-24.14 15.49-24.14 30.26 0 17.14 13.89 31.04 31.03 31.04s31.04-13.9 31.04-31.04c0-9.28-4.08-17.61-10.54-23.3 13.82-3.13 24.14-15.49 24.14-30.27 0-7.73-2.82-14.8-7.5-20.23 15.26-1.95 27.06-14.99 27.06-30.78 0-17.14-13.9-31.04-31.04-31.04s-31.03 13.9-31.03 31.04zm31.03 16.58c-9.15 0-16.58-7.43-16.58-16.58 0-9.16 7.43-16.58 16.58-16.58 9.16 0 16.58 7.42 16.58 16.58 0 9.15-7.42 16.58-16.58 16.58zm-19.55 51.02c-9.16 0-16.58-7.43-16.58-16.59 0-9.15 7.42-16.58 16.58-16.58 9.15 0 16.58 7.43 16.58 16.58 0 9.16-7.43 16.59-16.58 16.59zm-30.19 36.98c0 9.16 7.42 16.58 16.58 16.58s16.58-7.42 16.58-16.58c0-9.15-7.42-16.58-16.58-16.58s-16.58 7.43-16.58 16.58z" fill="#000" fill-opacity=".2" fill-rule="evenodd"/><path clip-rule="evenodd" d="m1847.83 2903.91c0 7.73-2.82 14.8-7.5 20.23 15.26 1.95 27.06 14.99 27.06 30.78 0 9.29-4.08 17.62-10.54 23.31 13.83 3.13 24.14 15.49 24.14 30.26 0 17.14-13.89 31.04-31.03 31.04s-31.04-13.9-31.04-31.04c0-9.28 4.08-17.61 10.54-23.3-13.83-3.13-24.14-15.49-24.14-30.27 0-7.73 2.82-14.8 7.5-20.23-15.26-1.95-27.06-14.99-27.06-30.78 0-17.14 13.9-31.04 31.04-31.04s31.03 13.9 31.03 31.04zm-31.03 16.58c9.15 0 16.58-7.43 16.58-16.58 0-9.16-7.43-16.58-16.58-16.58-9.16 0-16.59 7.42-16.59 16.58 0 9.15 7.43 16.58 16.59 16.58zm19.55 51.02c9.16 0 16.58-7.43 16.58-16.59 0-9.15-7.42-16.58-16.58-16.58-9.15 0-16.58 7.43-16.58 16.58 0 9.16 7.43 16.59 16.58 16.59zm30.19 36.98c0 9.16-7.43 16.58-16.58 16.58-9.16 0-16.58-7.42-16.58-16.58 0-9.15 7.42-16.58 16.58-16.58 9.15 0 16.58 7.43 16.58 16.58z" fill="#000" fill-opacity=".2" fill-rule="evenodd"/><path clip-rule="evenodd" d="m2173 2930.69c-17.14 0-31.04-13.89-31.04-31.03s13.9-31.04 31.04-31.04 31.04 13.9 31.04 31.04-13.9 31.03-31.04 31.03zm0-14.45c-9.16 0-16.58-7.43-16.58-16.58 0-9.16 7.42-16.59 16.58-16.59s16.58 7.43 16.58 16.59c0 9.15-7.42 16.58-16.58 16.58z" fill="#ffe600" fill-rule="evenodd" stroke="#333" stroke-width="5"/><path clip-rule="evenodd" d="m2153.44 2981.71c-17.14 0-31.03-13.9-31.03-31.04s13.89-31.03 31.03-31.03 31.04 13.89 31.04 31.03-13.9 31.04-31.04 31.04zm0-14.46c-9.16 0-16.58-7.42-16.58-16.58 0-9.15 7.42-16.58 16.58-16.58s16.58 7.43 16.58 16.58c0 9.16-7.42 16.58-16.58 16.58z" fill="#ffe600" fill-rule="evenodd" stroke="#333" stroke-width="5"/><path clip-rule="evenodd" d="m2139.84 3035.28c-17.14 0-31.04-13.9-31.04-31.04s13.9-31.03 31.04-31.03 31.03 13.89 31.03 31.03-13.89 31.04-31.03 31.04zm0-14.46c-9.16 0-16.58-7.42-16.58-16.58 0-9.15 7.42-16.58 16.58-16.58s16.58 7.43 16.58 16.58c0 9.16-7.42 16.58-16.58 16.58z" fill="#ffe600" fill-rule="evenodd" stroke="#333" stroke-width="5"/><path clip-rule="evenodd" d="m1827 2930.69c17.14 0 31.04-13.89 31.04-31.03s-13.9-31.04-31.04-31.04-31.04 13.9-31.04 31.04 13.9 31.03 31.04 31.03zm0-14.45c9.16 0 16.58-7.43 16.58-16.58 0-9.16-7.42-16.59-16.58-16.59s-16.58 7.43-16.58 16.59c0 9.15 7.42 16.58 16.58 16.58z" fill="#ffe600" fill-rule="evenodd" stroke="#333" stroke-width="5"/><path clip-rule="evenodd" d="m1846.56 2981.71c17.14 0 31.03-13.9 31.03-31.04s-13.89-31.03-31.03-31.03-31.04 13.89-31.04 31.03 13.9 31.04 31.04 31.04zm0-14.46c9.15 0 16.58-7.42 16.58-16.58 0-9.15-7.43-16.58-16.58-16.58-9.16 0-16.58 7.43-16.58 16.58 0 9.16 7.42 16.58 16.58 16.58z" fill="#ffe600" fill-rule="evenodd" stroke="#333" stroke-width="5"/><path clip-rule="evenodd" d="m1860.16 3035.28c17.14 0 31.04-13.9 31.04-31.04s-13.9-31.03-31.04-31.03-31.04 13.89-31.04 31.03 13.9 31.04 31.04 31.04zm0-14.46c9.16 0 16.58-7.42 16.58-16.58 0-9.15-7.42-16.58-16.58-16.58s-16.58 7.43-16.58 16.58c0 9.16 7.42 16.58 16.58 16.58z" fill="#ffe600" fill-rule="evenodd" stroke="#333" stroke-width="5"/><path d="m1716 3071.17c0-32.03 25.97-58 58-58h452c32.03 0 58 25.97 58 58v53.21c0 32.03-25.97 58-58 58h-452c-32.03 0-58-25.97-58-58z" fill="#000" fill-opacity=".2"/><path d="m2068.11 3132.14c2.93 3.05 6.27 5.64 9.86 7.78h-33.73c17.4-10.32 27.5-29.35 27.5-49.9 0-19.95-10.06-38.69-26.84-48.84h41.68c-8.5 6.17-13.98 15.81-13.98 27.09 0 18.25 13.99 27.72 28.51 32.41l.02.01c.51.16 1.06.33 1.64.51 4.55 1.4 10.47 3.24 14.51 6.07 1.99 1.39 3.26 2.86 3.8 4.38.5 1.41.49 3.24-.84 5.75-1.44 2.69-3.56 4.15-6.11 4.79-2.64.67-5.83.47-9.21-.42-6.83-1.8-13.54-6.16-16.49-9.8-.45-.55-1.11-.89-1.82-.92-.71-.04-1.41.24-1.9.74l-16.58 16.87c-.94.96-.95 2.51-.02 3.48zm80.02 0c2.93 3.05 6.26 5.64 9.86 7.78h-20.9c9.15-6.69 14.63-17.31 14.63-29.33 0-9.87-4.04-16.49-10.02-21.28-5.74-4.61-13.28-7.54-20.32-10.27l-.21-.08c-5.47-2.12-10.65-4.13-15.01-6.74-3.17-2.06-4.25-6.1-2.24-9.02 2.99-4.17 8.12-5.41 13.77-4.38 5.68 1.03 11.22 4.27 14.18 8.04.45.57 1.12.92 1.85.95.72.03 1.43-.25 1.93-.78l16.12-17.01c.47-.49.71-1.14.69-1.81-.03-.67-.32-1.3-.81-1.76-2.16-1.97-4.47-3.73-6.95-5.27h21.84c-8.59 6.19-13.93 15.79-13.93 27.09 0 18.25 14 27.72 28.51 32.41l.02.01c1.06.33 2.24.66 3.45 1l.03.01c3.92 1.09 8.17 2.3 11.47 4.22 3.23 1.89 5.05 4.16 5.05 7.33 0 4.34-1.55 6.48-3.54 7.6-2.21 1.25-5.52 1.54-9.49.89-3.9-.63-8.08-2.12-11.7-3.98-3.67-1.88-6.52-4.01-7.97-5.79-.44-.55-1.11-.89-1.82-.92-.71-.04-1.4.24-1.9.74l-16.57 16.87c-.95.96-.96 2.51-.02 3.48zm83.53-85.69c-2.15-1.97-4.47-3.73-6.94-5.27h7.41c5.2 0 9.41 4.21 9.41 9.4v79.93c0 5.2-4.21 9.41-9.41 9.41h-15.03c9.16-6.69 14.64-17.31 14.64-29.33 0-14.71-10.44-25.32-23.09-29.87-2.03-.77-4.62-1.42-7.21-2.07l-.12-.03c-4.53-1.13-9.24-2.32-12.83-4.27-3.51-1.91-5.43-4.24-5.43-7.56 0-2.87 1.4-4.74 3.63-6.03 2.35-1.36 5.54-1.97 8.52-1.97 6.11 0 12.91 3.28 16.67 8.07.45.57 1.13.92 1.85.95.73.03 1.43-.25 1.93-.78l16.13-17.01c.46-.49.71-1.14.68-1.81-.02-.67-.31-1.3-.81-1.76zm-460.39-36.63c-24.39 0-44.16 19.77-44.16 44.17v73.12c0 24.39 19.77 44.17 44.16 44.17h457.46c24.39 0 44.17-19.78 44.17-44.17v-73.12c0-24.4-19.78-44.17-44.17-44.17zm-12.81 40.76c0-5.19 4.22-9.4 9.41-9.4h1.75v98.74h-1.75c-5.19 0-9.41-4.21-9.41-9.41zm103.84 89.34h-23.45c9.96-5.22 17.44-14.35 17.44-27.56 0-11.39-7.11-20.89-17.13-25.04 7.82-4.59 12.84-12.45 12.84-22.3 0-8.67-3.51-15.42-9.06-20.22-1.59-1.37-3.33-2.57-5.18-3.62h24.54zm68.14-98.74h48.85c-16.94 10.17-26.62 28.77-26.62 48.84 0 20.29 10.29 39.58 27.46 49.9h-48.6c9.96-5.22 17.44-14.35 17.44-27.56 0-11.39-7.11-20.89-17.12-25.04 7.81-4.59 12.83-12.45 12.83-22.3 0-8.67-3.51-15.42-9.06-20.22-1.58-1.37-3.32-2.57-5.18-3.62zm109.22 48.84c0 16.21-11.51 30.05-27.53 30.05-16.35 0-27.39-14.13-27.39-30.05 0-15.94 11.6-29.46 27.39-29.46 16.08 0 27.53 13.75 27.53 29.46zm-217.07-21.6c0 3.32-1.43 5.39-3.56 6.75-2.28 1.45-5.49 2.14-8.89 2.14h-11.11v-16.6h9.93c3.31 0 6.9.4 9.58 1.65 1.31.61 2.3 1.37 2.96 2.3.65.9 1.09 2.09 1.09 3.76zm3.4 41.57c0 3.74-1.82 6.09-4.63 7.63-2.94 1.63-6.91 2.3-10.62 2.3h-11.71v-18.97h11.56c3.85 0 7.87.45 10.84 1.87 1.45.69 2.56 1.57 3.32 2.67.74 1.08 1.24 2.51 1.24 4.5zm76.84-32.68h-11.11v-16.6h9.92c3.31 0 6.91.4 9.58 1.65 1.31.61 2.3 1.37 2.96 2.3.65.9 1.09 2.09 1.09 3.76 0 3.32-1.42 5.39-3.56 6.75-2.28 1.45-5.49 2.14-8.88 2.14zm.59 42.61h-11.7v-18.97h11.55c3.85 0 7.87.45 10.84 1.87 1.45.69 2.56 1.57 3.32 2.67.74 1.08 1.24 2.51 1.24 4.5 0 3.74-1.82 6.08-4.62 7.63-2.95 1.63-6.92 2.3-10.63 2.3z" fill="#ffe600" stroke="#333" stroke-linecap="round" stroke-linejoin="round" stroke-width="5"/><path d="m1798.45 3240.26c-11.28 16.54-21.37 31.06-32.45 47.74-52.34-55.62-83.3-125.99-84.5-198 7.86-1.36 13.02-1.99 20.81-3.68 12.79-3.08 23.21 6.63 29.86 16.42 21.55 31.82 41.24 64.94 61.63 97.5 8.37 13.38 14.67 25.34 4.65 40.02z" fill="#000" fill-opacity=".3"/><path d="m1678.71 3362.27c-31.59-.43-63.18-1.35-94.77-2.13-9.85 0-17.43-2.93-23.37-11.38-24.13-34.33-48.39-68.78-71.25-103.97-4.29-6.63-4.07-15.45.55-21.85 22.73-31.14 49.63-58.87 74.5-88.24 9.5-11.22 20.21-21.64 35.34-24.08 28.27-4.48 57.04-8.18 84.99-14.4 11.92-2.88 21.6 6.51 27.74 15.57 21.59 31.8 41.19 64.88 61.61 97.43 8 12.69 14.22 23.88 4.68 37.87-22.4 32.88-42.69 68.14-66.9 99.69-7.75 10.43-20.24 15.86-33.12 15.49z" fill="#fbdd11"/><g fill="#000"><path d="m1615.08 3263.78c2.92 5.98 2.55 15.89-6.53 14.67-9.23-1.41-16.84-9.69-20.16-18-2.58-5.74-1.08-14.2 6.8-13.32 8.88 1.23 16.24 8.86 19.89 16.65z"/><path d="m1600.69 3294.42c2.9 5.98 2.55 15.89-6.53 14.67-9.23-1.4-16.84-9.69-20.16-18-2.59-5.73-1.09-14.22 6.79-13.32 8.88 1.21 16.25 8.87 19.9 16.65z"/><path d="m1584.08 3342.58c9.07 1.2 9.46-8.69 6.53-14.68-3.65-7.79-11.01-15.42-19.89-16.65-7.88-.88-9.38 7.59-6.8 13.33 3.33 8.32 10.93 16.57 20.16 18z"/><path d="m1637.03 3127.09c-4.1 3.93-9.55 15.25.03 16.07 8.35.6 16.76-5.51 21.74-11.65 3.54-3.99 6.75-12.93-.96-14.26-7.7-1.27-15.84 4.68-20.81 9.84z"/><path d="m1583.87 3133.93c-3.16 4.36-4.19 12.15 3.11 12.56 7.89.41 15.68-5.12 20.67-10.71 3.89-4.07 8.29-14.53-.75-15.32-9.1-.83-18.09 6.61-23.03 13.47z"/><path d="m1525.2 3199.71c-3.78 3.91-10.13 15.64-.13 16.31 8.04.27 15.67-4.88 20.84-10.63 3.41-3.98 8.62-13.99-.12-15.32-7.57-1.06-15.76 4.37-20.59 9.64z"/><path d="m1606.53 3177.31c-8.53-1.06-3.94-10.96-.56-14.87 4.97-5.75 13.38-12.09 21.53-11.05 7.02.81 5.41 8.57 2.39 12.68-4.89 6.87-14.27 14.37-23.36 13.24z"/><path d="m1572.35 3211.9c-7.68-4.57 2.77-15.39 6.65-18.74 5.42-4.69 12.44-8.27 18.63-6.01 6.98 2.21 1.6 11.41-1.31 14.82-4.79 5.51-16.06 14.62-23.97 9.93z"/><path d="m1577.14 3170.45c3.64-3.91 9.28-14.67.06-15.77-7.31-.87-15.21 4.3-20.02 9.3-3.2 3.23-9.5 11.71-3.81 15.6 7.25 4.96 19.33-4.1 23.77-9.13z"/><path d="m1775.81 3208.2c-20.48-32.53-40.07-65.67-61.63-97.5-4.06-6-8.75-11.35-15.36-14.69-8.72-4.47-18.45-.82-27.5.63-23.97 3.83-47.84 8.26-71.82 12.02-16.64 2.92-27.58 14.25-38.11 26.57-24.34 28.61-50.89 56.19-73.04 86.53-5.13 7.06-5.39 16.82-.62 24.14 22.85 35.2 47.1 69.68 71.25 104 3.82 5.44 8.7 9.58 15.23 11.52 3.2.95 6.48.65 9.74.73 31.6.76 63.21 1.71 94.82 2.09 24.85.33 35.42-17.16 47.53-35.4 17.94-26.98 35.99-53.86 54.24-80.63 9.91-14.7 3.63-26.65-4.73-40.01zm-87.26 42.8c-6.61-1.47-4.11-7.19-.74-11.17 6.32-7.25 16.37-10.92 25.17-14.03 2.85-1.01 6.9-1.15 8.93-3.64 2.32-3.05 2.6-7.99 3.04-11.62 1.21-9.35-2.88-19.12.17-28.13 1.18-3.49 3.22-6.63 5.94-9.13 5.41-4.67 9.74 5.5 11.58 9.15 9.39 18.86 6.76 40.94-8.7 55.7-12.08 11.76-28.76 16.94-45.39 12.87zm-10.96 109.25c-9.19-.27-18.37-.52-27.56-.77-22.37-.54-72.79-1.36-75.74-2.15-5.75-1.56-8.98-5.15-12-9.39-21.29-29.94-42.17-61.1-63.16-91.44-5.27-7.64-15.9-21.68 1.83-22.03 33.47-.65 66.91-2.89 100.35-4.28 21.12-.85 32.12 26.38 41.36 40.83 15.83 24.54 31.82 49.04 47 73.99 5.1 8.42-4 15.46-12.08 15.24zm-119.15-215.73c11.98-13.56 23.35-28.94 42.46-31.94 28.61-4.46 57.07-9.86 85.67-14.4 7.17-1.12 9.78 8 3.33 16.59-19.45 25.97-38.77 52.05-58.03 78.16-10.83 14.67-20.98 30.9-41.22 31.97-25.18 1.56-50.39 2.6-75.6 3.59-6.46.28-12.78.67-19.23-.02-6.6-.69-2.68-6.57.66-11.15 18.7-25.68 41.01-48.99 61.96-72.8zm160.92 67.56c-6.16 9.39-15.67 12.69-25.75 16.74-3.95 1.6-10.49 1.81-11.85 6.67-2.66 8.56-2.98 18.04-1.24 26.79 1.46 7.27-1.34 14.8-6.73 19.78-4.11 3.8-7.91-2.45-9.74-5.6-11.53-19.77-9.1-45.38 8.48-60.92 12-10.93 29.13-15.77 44.88-10.78 3.55 1.21 4.07 4.26 1.95 7.32z"/><path d="m1657.01 3255c-58.27 39.07-118.56-25.23-129.64-79.95 11.33-13.26 22.64-26.52 33.91-39.79 10.5-12.33 21.49-23.66 38.11-26.57 23.98-3.79 47.87-8.11 71.82-12.02 7.92 16.9 9.32 36.36 3.49 54.16 24.78 32.45 16.56 81.33-17.69 104.17z" opacity=".3"/></g><path d="m1601.4 3259.89c56.81.05 92.98-68.11 58.59-115.27 15.91-45.21-18.09-95.39-66.66-96.55-56-1.34-88.37 58.5-82.5 109.13 5.48 47.31 37.52 102.65 90.57 102.69z" fill="#f7c394" stroke="#333" stroke-miterlimit="10" stroke-width="5"/><path d="m1510.83 3157.2c6.78 58.57 54.37 126.8 125.37 93.8-68.83-8.8-117-125.5-83.11-191.84-5.39 3.84-13.89 8.34-27.6 27.61-12.29 21.73-17.7 46.2-14.66 70.43z" fill="#000" fill-opacity=".1"/><path d="m2395 2818c-115.35 45.22-271 79-395 79s-259.34-26.43-395-79c-7.24 10.54-16.61 26.27-23 37 142 57 275 86 418 86s276-29 418-86c-6.15-10.7-15.93-26.36-23-37z" fill="#000" fill-opacity=".15"/><path d="m2500.32 839c42.32-35.85-124.32-76-146.52-139.49-26.8-76.51 395.59 127.1 331.57 261.08-5 10.51-55.43 94-417.61-23.77 398.16 129.18 699.66 403.12 698.24 910.18-1.09 388.75-350.07 990.81-966.43 996.18-594.62 5.19-966.64-596.22-965.57-996.18 1.32-488.44 432.13-990.94 966-1028.5 319.41-22.45 465.29 50.1 500.32 20.5z" fill="#b5b2a7" stroke="#333" stroke-linecap="round" stroke-linejoin="round" stroke-width="5"/><path d="m2565.16 861.34c-29.66 65.16-211.81-40-531.22-17.54-653.46 45.937-1126.939 771.2-864.58 1359.08 68.14-70.38 151.14-90.38 177.59-99.16 7.94 8.57 17.6 17.67 21.05 21.78-81.37 25.35-175.93 80.41-216.63 156.84-76.27-147.6-117-302.56-116.59-435.33 1.32-488.45 432.22-991 966.09-1028.57 319.41-22.45 464.56 50.1 499.59 20.46 42.18-35.75-124.46-75.9-146.65-139.39-8.57-24.46 28.82-20.27 81.55 1.13-20-2.88-31 1.83-25.55 15.87 19.38 50.39 180.3 90.02 155.35 144.83z" fill="#000" fill-opacity=".15"/><path d="m2964.5 1847.07c-.36 127.74-38.12 278.51-110.54 423.57-74.96-102.64-209.23-143.64-222.96-143.64 4-5 16-19.7 20-24.5 23.5 5.5 128.62 27.91 187.28 106.2 59.3-132.15 86.52-255.16 86.84-370.86 1.47-524.24-353.62-784.84-657.36-901.02 398.16 129.18 698.16 403.18 696.74 910.25z" fill="#000" fill-opacity=".15"/><path d="m1725 1203.5c-297 0-665 628.5-363.5 918.5-575.499 180 0 779 638.5 779s1214-599 638.5-779c301.5-290-66.5-918.5-363.5-918.5-126.5 0-195.51 58.5-275 116.5-79.5-58-148.5-116.5-275-116.5z" fill="#ffcd98" stroke="#333" stroke-width="5"/><path d="m2749.1 1817c-15.7-308.54-265-613.19-481.5-613.19-134.6 0-216.2 82.14-267.6 116.19-41.1-28.05-132.5-116.19-268.4-116.19-255.6 0-478.1 373.19-482.13 622.71-22.47-268.52 183.6-671.52 483.53-671.52 156 0 239 75 267 106 28-31 111-106 267-106 297.63 0 503.5 381.5 482.1 662z" fill="#000" fill-opacity=".15"/><path d="m1250.37 1807.39c-7.11 117.45 24.02 230.01 111.45 314.11-10.42 3.26-20.47 7.66-30.15 11.19 22.33-7.19 43.66-12.28 68.33-16.69-84.54-81.32-133.47-191.77-149.63-308.61z" fill="#000" fill-opacity=".1"/><path d="m1148.6 2266.67c-135.93 245.26 334.32 633.83 851.4 633.83s993.17-392.85 849.75-637.86c95.36 224.1-359.03 600.36-849.75 600.36-487.79 0-939.69-371.78-851.4-596.33z" fill="#000" fill-opacity=".1"/><path d="m2670.5 2133c-21.76-6.41-44.6-12.37-70.5-17 85.32-82.07 134.37-193.81 150.07-311.86 7.89 118.62-23.01 232.49-111.25 317.36 11.32 3.54 21.24 7.64 31.68 11.5z" fill="#000" fill-opacity=".1"/><path clip-rule="evenodd" d="m2616.25 1600.5h-1232.5c-48.96 0-97.36 10.27-142.1 30.14l-211.56 93.99c-7.33 3.26-12.01 10.58-11.88 18.6l.38 23.55c.21 12.63 12.45 21.55 24.54 17.87l237.87-72.47c8.91-2.71 17.98-4.8 27.15-6.24-10.81 142.78 75.66 412.56 331.6 412.56 260.5 0 360.48-251.17 349.43-415h21.9c-11.99 142.12 74.01 415 331.41 415 259.19 0 359.47-248.65 349.59-412.53 9.09 1.45 18.08 3.52 26.92 6.21l237.87 72.47c12.09 3.68 24.33-5.24 24.54-17.87l.38-23.55c.13-8.02-4.55-15.34-11.88-18.6l-211.56-93.99c-44.73-19.87-93.14-30.14-142.1-30.14z" fill="#000" fill-rule="evenodd"/><path d="m2559.7 1974.67c-198.23 161.17-482.38 0-482.38-246.17 93.62 165 294.51 263.59 482.38 246.17z" fill="#fff"/><path d="m1856.96 1974.67c-198.23 161.17-482.38 0-482.38-246.17 93.62 165 294.51 263.59 482.38 246.17z" fill="#fff"/><path d="m1785 2099c0 76.35 98.85 169 216.26 168 108.22-.95 213.74-92.55 213.74-167.78 0-152.13-430-154.42-430-.22z" fill="#000" fill-opacity=".1"/><path d="m1782 2081c0 76.35 100.23 169 219.27 168 109.73-.95 216.73-92.55 216.73-167.78 0-60.53-126.24-113.77-216.73-113-84.02.78-219.27 41.16-219.27 112.78z" fill="#7f6145"/><path d="m1783.58 2067.77c41.76 54.75 124.68 100.94 217.85 100.22 86.21-.68 170.92-47.12 214.09-101.55 1.62 4.86 2.48 9.8 2.48 14.78 0 75.23-107 166.83-216.73 167.78-119.04 1-219.27-91.65-219.27-168 0-4.54.54-8.95 1.58-13.23z" fill="#000" fill-opacity=".2"/><path d="m2831 1337c-382.5 155.5-1115.5 70-1440-247 491.2-444.546 1090.47-282.57 1440 247z" fill="#000" fill-opacity=".15"/><path d="m2202 915.5c487.05 71.071 827.73-67.38 827.73 123.92 0 346.67-570.23 346.08-857.11 318.77s-857.18-204.69-857.18-510.07c0-287.12 399.51-3.69 886.56 67.38z" fill="#232323" stroke="#333" stroke-miterlimit="10" stroke-width="5"/><path d="m2877 450c32.28 189.224-112 269.5-159.93 633.73-18.33 139.27-448.23 96.76-582.52 76.38-115.05-17.45-534.17-80-517.55-235.11 44.1-411.5-40.59-474.958 44.1-621.9 64.9-112.6 317.9-102.6 655.4-55.6s542.5 96.999 560.5 202.5z" fill="#1a1a1a" stroke="#333" stroke-miterlimit="10" stroke-width="5"/><path d="m2752.3 906.539c-120.26 76.385-474.88 50.188-598.66 30.355-100.6-16.11-414.6-91.491-523.66-200.555-1.38 53.528-5.15 115.61-12.98 188.661-16.52 154.14 397.3 216.88 515.36 234.78l2.19.33c134.29 20.38 564.19 62.89 582.52-76.38 8.97-68.15 21.31-126.352 35.23-177.191z" fill="#efefef" stroke="#333" stroke-miterlimit="10" stroke-width="5"/><path d="m2687.34 428.223c-10.79-70.85-88.74-119.362-222.12-158.2 248.45 41.514 396.6 91.012 411.78 179.977 16.35 95.823-12.58 163.707-51.35 254.674-37.79 88.67-84.92 199.271-108.58 379.056-8.17 62.06-98.06 88.02-207.1 95.94 9.54-11.86 15.61-25.56 17.46-41.34 47.92-408.126 192.19-498.077 159.91-710.107z" fill="#000" fill-opacity=".3"/><path d="m2000.41 2770.5c275 0 572-112.5 663.25-379.44 15.25-42.3-22.09-84.98-67.45-78.53-197.53 28.07-396.79 42.15-596.3 42.15s-398.78-14.09-596.31-42.15c-45.32-6.44-82.16 36.01-67.46 78.53 92.27 266.94 389.27 379.44 664.27 379.44z" fill="#3d0c0c"/><path d="m2000.41 2752c150.13.26 310.04-37.45 439.51-119.5-268.92 17.5-631.92 23-877.92 1.41 129.2 81.35 287.69 117.83 438.41 118.09z" fill="#fff"/><path d="m2933.03 2794.23c-175.53-34.23-446.53-107.23-582.52-201.93-38.51-26.82-38.72-105.59 39.69-112.08 262.3-21.72 478.3-9.22 641.3-.22 85.26 114.81 122.61 350.31-98.47 314.23z" fill="#b34a31"/><path d="m2812.5 2470.25-6.5-.25c-52 81.38-74.58 184.27-62.5 280 1.77.52 3.5 1 5.5 1.5-12.56-96.24 10.54-199.78 63.5-281.25z" fill="#933b2a"/><path d="m2618.5 2469c-47.82 60.92-75.02 139.48-76.5 217 1 .5 3.34 1.39 5 2 1.12-78.36 29.49-157.96 78.5-219z" fill="#933b2a"/><path d="m2469.72 2474.77c-31.7 47.61-50.49 97.84-56.72 154.73 1.59.75 3.35 1.74 5 2.5 6.04-57.92 25.21-109.41 58-157.5z" fill="#933b2a"/><path d="m2617.5 2479c-89.63 10.15-190 20.21-280 26 3-4.5 11.2-11.39 17-14.5 86.01-5.77 184.79-24.69 271-21.5-.53.66-6.32 7.5-8 10z" fill="#000" fill-opacity=".2"/><path d="m2347.51 2546.3c135.99 94.7 406.99 167.7 582.52 201.93 118.27 19.3 162.58-39.12 165.16-115.21 14.87 96.4-20.86 184.27-162.16 161.21-175.53-34.23-446.53-107.23-582.52-201.93-20.93-14.57-30.55-44.49-22.38-69.81 4.34 9.56 10.94 17.93 19.38 23.81z" fill="#000" fill-opacity=".2"/><path d="m2938 2798.5c-26.39-4.46-69.27-7.8-72.71-39.89-.75-6.94 6.02-13.3 5.22-20.71-1.86-17.19-24.95-15.65-29.05-31.97-3.54-14.3 15.35-19.79 15.1-38.64-.31-22.71-26.86-29.57-24.8-49.5 1.42-13.86 14.63-14.16 17.83-30.59 3.98-20.46-9.86-28.16-3.93-37.8 7.62-12.44 29.49-9.36 38.33-22.58 6.81-10.2 9.14-15.74 14.86-29.88 16.41-40.49 129.82-14.71 155.15-6.44 13.21 110.54-87.15 206.29-116 308z" fill="#eaeaea"/><path d="m2963 2805c-25.5 0-91.5-4.5-86.96-52.08 3.03-31.81-15.18-35.22-19.28-51.54-3.54-14.31 4.68-13.73 4.43-32.58-.3-22.7-16.75-30.51-14.69-50.44 1.42-13.86 11.98-12.34 15.18-28.77 3.99-20.46-5.6-28.94.32-38.58 7.62-12.45 23.07-3.15 34.16-14.54 11.39-11.7 12.31-25.07 18.03-39.21 6.16-15.19 17.82-11.6 38.81-15.26 11.46-2 23.37-9.15 35.5-9 16.99.21 49.42 1.22 65.47 6.47 13.21 110.54-62.12 223.82-90.97 325.53z" fill="#d6d6d6"/><path d="m2984 2813.5c-37.73-6.37-99.88-10.3-97.5-58.5.95-19.29-14.1-34.3-18.2-50.62-3.54-14.3 6.35-14.24 6.17-27.35-.3-22.71-16.43-31.14-14.38-51.08 1.43-13.86 11.04-13.6 14.24-30.03 3.99-20.46-1.5-26.1 4.43-35.74 7.62-12.44 33.66-18.8 44.75-30.19 11.39-11.7 4.25-17.63 9.97-31.78 5.47-13.49 23.19-6.99 38.27-12.44 13.94-5.03 34.78-11.11 50.25-10.77 18.01.39 57.62 3.14 69 12 13.21 110.54-78.15 224.79-107 326.5z" fill="#c1c1c1"/><path d="m3206 2717c45-125.5-31-241-150.5-241-15.01 0-16.77 6.92-29 9.11-15.71 2.77-25.5-6.61-36.5 4.39-11.99 11.99-26.1 5.04-38.93 15.13-6.48 5.14-6.68 18.41-15.13 29.89-7.48 10.17-19.51 4.39-23.81 11.55-5.36 8.92 5.17 18.71-3.32 24.85-23.89 17.25-27.52 28.48-19.78 51.72 2.99 8.98-5.45 17.87-6.96 26.28-1.87 10.53 3.77 18.63 5.89 31.76 2.71 16.85-8.71 20.41-3.22 31.93 3.58 7.58 12.37 15.33 14.07 26.4 1.69 10.99-4.31 18.99 0 28.49 34.83 76.78 262.19 75 307.19-50.5z" fill="#181818"/><path d="m2950.56 2808.09c-24.28-4.57-47.15-11.5-68.33-24.3-173.55-37.43-408.27-105.52-531.72-191.49-38.51-26.82-38.72-105.59 39.69-112.08 217.29-17.99 402.8-12.5 552.73-4.97 9.81-.75 20.46-.55 31.2.26 25.43-7.87 55.25.49 81.37.49 119.5 0 195.5 115.5 150.5 241-34.4 95.94-175.38 119.58-255.44 91.09z" stroke="#333" stroke-width="5"/><path d="m2608.75 2469.5c16.93-27.19 29.52-55.13 37.2-83.29 8.9-32.67-14.69-60.04-47.04-55.45-396.36 55.5-801.44 56.2-1197.79.01-32.4-4.56-55.98 22.77-47.08 55.44 7.67 28.16 20.25 56.11 37.18 83.29 280.78 38.5 848.28 50.5 1217.53 0z" fill="#fff"/><path d="m2517.23 2480.38c31.59-3.25 62.18-6.86 91.52-10.88 16.93-27.18 29.52-55.13 37.2-83.29 8.82-32.36-14.26-59.53-46.15-55.56-6.18.76-12.34 1.71-18.51 2.56-15.04 50.39-36 99.92-64.06 147.17z" fill="#000" fill-opacity=".1"/><path d="m1391.22 2469.5c27.95 3.84 58.74 7.41 91.89 10.68-28.05-47.14-48.95-96.58-63.9-146.88-9.59-1.32-19.54-3.7-29.27-2.84-26.39 2.35-43.74 26.98-35.9 55.75 7.67 28.17 20.25 56.11 37.18 83.29z" fill="#000" fill-opacity=".1"/><path d="m2266.36 2712c60.87-18.3 119.9-45.49 173.56-79.5-18.85 1.23-38.15 2.39-57.85 3.5-34.23 27.59-72.66 53.14-115.71 76z" fill="#000" fill-opacity=".1"/><path d="m1621.5 2638.47c33.88 27 71.88 52.01 114.41 74.33-60.96-18.09-120.12-45.02-173.91-78.89 19.15 1.69 39.02 3.2 59.5 4.56z" fill="#000" fill-opacity=".1"/><g fill="#b5482c"><path d="m3030.65 2774.97c7.06-1.7 10.14-.15 11.54-2.28 1.41-2.13-.25-6.43-3.11-8.5-7.67-5.64-35.31 9.52-29.06 16.38 2.43 3.1 17.25-4.79 20.63-5.6z"/><path d="m3013.63 2648.7c5.49-4.76 8.93-4.8 9.2-7.33.26-2.54-3.2-5.6-6.69-6.12-9.4-1.48-26.95 24.69-18.25 27.91 3.59 1.64 13.11-12.19 15.74-14.46z"/><path d="m3064.42 2522.9c-7.02-1.88-17.33-11-19.58-9.79-2.25 1.2-1.01 11.24.51 14.42 4.05 8.6 41.64 8.75 39.42-.25-.65-3.89-16.99-3.48-20.35-4.38z"/><path d="m3088.62 2764.63c3.71 6.24 3.13 9.63 5.58 10.34 2.45.72 12.47-13.4 13.62-16.73 3.13-8.98-25.9-19.66-30.62-11.67-2.26 3.23 9.65 15.06 11.42 18.06z"/><path d="m3107.12 2682.46c7.24-.62 10.04 1.37 11.75-.52 1.71-1.9.27-10.14-2.24-12.62-6.74-6.72-39.94 6.44-34.79 14.16 1.93 3.43 21.81-.73 25.28-1.02z"/><path d="m3086.78 2628.9c25.14 3.6 71.14-19.84 27.97-24.75-9.46-1.08-34.02-9.19-36.34 14.67-.6 6.21 4.93 9.59 8.37 10.08z"/><path d="m2966.31 2728.14c-13.36 3.21-31.41 12.33-11.91 26.47 7.66 5.64 38.68-23.06 32.44-29.92-2.43-3.1-17.14 2.63-20.53 3.45z"/><path d="m2936.56 2684.09c-4.87-5.38-4.98-8.83-7.53-9.04-2.54-.21-5.53 3.31-5.99 6.8-1.28 9.43 25.27 26.43 28.31 17.67 1.57-3.62-12.46-12.85-14.79-15.43z"/><path d="m2949.68 2587.76c3.58.93 19.15-7.83 18.41-11.75-1.21-6.49-21.28-4.62-23.93 1.22-1.72 3.85 1.47 9.46 5.52 10.53z"/><path d="m3173.56 2665.58c3.58.92 19.16-7.83 18.41-11.76-1.2-6.49-21.27-4.61-23.93 1.22-1.72 3.85 1.47 9.47 5.52 10.54z"/><path d="m3125.53 2547.5c3.58.93 32.03.56 31.28-3.36-1.2-6.49-37.28-20.01-39.93-14.17-1.73 3.85 4.6 16.46 8.65 17.53z"/><path d="m3151.85 2583.25c1.08 3.53 33.63 35.13 36.59 32.45 4.9-4.42-24.12-43.45-30.49-42.66-4.18.55-7.3 6.2-6.1 10.21z"/><path d="m3008.51 2602.51c3.59.85 47.35-11.18 46.53-15.09-1.33-6.47-49.72-1.23-52.26 4.66-1.64 3.88 1.66 9.43 5.73 10.43z"/><path d="m2986.13 2544.58c10.37-6.08 27.59-5.01 26.84-8.93-1.2-6.49-36.69.59-38.08 6.85-2.06 9.27 7.25 4.42 11.24 2.08z"/><path d="m2966.49 2645.09c4.23-10.43 6.14-15.4 3.82-19.25-30.15-28.04-21.43 62.77-3.82 19.25z"/><path d="m3141.71 2749.02c2.47 5.15 5-10.27 7.77-16.86 1.73-4.12 12.32-14.46 10.32-17.27-10.7-14.97-22.61 24.73-18.09 34.13z"/><path d="m3026.94 2713.71c3.58.92 19.15-1.88 18.41-5.81-1.21-6.49-18.41-20.83-23.93-4.73-1.72 3.85 1.47 9.47 5.52 10.54z"/><path d="m3055.04 2679c3.57.92 10.12-26.38 9.38-30.3-1.21-6.49-14.77 11.96-17.42 17.8-1.72 3.85 3.99 11.43 8.04 12.5z"/></g><path d="m2258.89 2779.73c-4.54.99-7.49 5.2-7.18 9.84l3.42 52.95c.12 1.73.77 3.3 1.79 4.55 4.79 21.26-17.65 76.49 1.73 102.99-5.28 4.04-6.91 9.97-1.22 14.38-5.23 8.01-19.45 25.5-44.75 27.14-5.51.35-9.69 5.11-9.34 10.62l1.75 26.94c.31 4.83 4 8.64 8.62 9.27l16.37 252.81c-4.6 3.07-7.47 8.44-7.09 14.35l1.61 24.94c.57 8.82 8.19 15.51 17 14.94l163.66-10.6c8.82-.57 15.51-8.18 14.93-17l-1.61-24.95c-.38-5.91-3.93-10.86-8.88-13.31l-16.37-252.81c4.49-1.22 7.66-5.47 7.35-10.3l-1.75-26.94c-.35-5.52-5.11-9.69-10.62-9.34-25.3 1.64-41.66-13.86-47.88-21.13 5.07-5.11 2.69-10.79-3.07-14.1 15.81-28.79-13.57-80.66-11.57-102.36.86-1.37 1.31-3.01 1.19-4.74l-3.43-52.96c-.3-4.63-3.76-8.42-8.39-8.82-18.76-1.61-37.87-.38-56.27 3.64z" fill="#eab342"/><path d="m2394.25 3040.95-179.63 11.63 14.99 231.51 179.63-11.63z" fill="#1e1e1e"/><path d="m2214.62 3052.58 37.92-2.46 15 231.52-37.93 2.45z" fill="#fff" fill-opacity=".15"/><path d="m2341.89 2918.99c-1.79-27.57-17.58-60.28-16.09-76.38.85-1.37 1.3-3.01 1.18-4.74l-3.42-52.96c-.3-4.63-3.77-8.42-8.4-8.82-18.76-1.61-37.87-.38-56.27 3.64-4.54.99-7.48 5.2-7.18 9.84l3.43 52.95c.11 1.73.76 3.3 1.79 4.55 3.55 15.77-7.89 50.25-6.11 77.82 30.04-5.7 60.54-7.68 91.07-5.9z" fill="#1e1e1e"/><path d="m2276.93 2776.71 4.15 64.13c.11 1.73.77 3.3 1.79 4.55 3.46 15.34-7.27 48.37-6.22 75.53-8.64 1.02-17.26 2.34-25.83 3.97-1.78-27.57 9.66-62.05 6.1-77.82-1.02-1.25-1.67-2.82-1.79-4.55l-3.43-52.95c-.3-4.64 2.65-8.85 7.19-9.84 5.95-1.3 11.97-2.31 18.04-3.02z" fill="#fff" fill-opacity=".15"/><path d="m2374.33 3336.85 30.93-2c8.82-.57 15.51-8.18 14.94-17l-1.62-24.95c-.38-5.91-3.93-10.86-8.88-13.31l-16.37-252.81c4.5-1.22 7.66-5.47 7.35-10.3l-1.74-26.94c-.36-5.52-5.12-9.69-10.63-9.34-25.3 1.64-41.66-13.86-47.88-21.13 5.07-5.11 2.7-10.79-3.07-14.1 15.81-28.79-13.57-80.66-11.56-102.36.85-1.37 1.3-3.01 1.18-4.74l-3.42-52.96c-.3-4.63-3.83-9.42-8.46-9.82-6.75-.58-15.3-1.1-31.1-.58 5.82.13 8.32 7.77 8.62 12.41l3.43 52.95c.11 1.74-.34 3.37-1.19 4.74-2.01 21.7 27.37 73.58 11.57 102.36 5.76 3.32 8.14 8.99 3.07 14.1 6.22 7.27 22.57 22.77 47.88 21.14 5.51-.36 10.26 3.82 10.62 9.33l1.75 26.94c.31 4.83-2.86 9.08-7.35 10.3l16.37 252.81c4.95 2.45 8.49 7.4 8.87 13.31l1.62 24.95c.57 8.82-6.11 16.43-14.93 17z" fill="#000" fill-opacity=".3"/><path d="m2326.98 2837.87c.12 1.73-.33 3.37-1.19 4.74-2 21.7 27.38 73.57 11.57 102.36 5.76 3.31 8.14 8.99 3.07 14.1 6.22 7.27 22.58 22.77 47.88 21.13 5.51-.35 10.27 3.82 10.62 9.34l1.75 26.94c.31 4.83-2.86 9.08-7.35 10.3l16.37 252.81c4.95 2.45 8.5 7.4 8.88 13.31l1.61 24.95c.58 8.82-6.11 16.43-14.93 17l-163.66 10.6c-8.81.57-16.43-6.12-17-14.94l-1.61-24.94c-.38-5.91 2.49-11.28 7.09-14.35l-16.37-252.81c-4.62-.63-8.31-4.44-8.62-9.27l-1.75-26.94c-.35-5.51 3.83-10.27 9.34-10.62 25.3-1.64 39.52-19.13 44.75-27.14-5.69-4.41-4.06-10.34 1.22-14.38-19.38-26.5 3.06-81.73-1.73-102.99-1.02-1.25-1.67-2.82-1.79-4.55l-3.42-52.95c-.31-4.64 2.64-8.85 7.18-9.84 18.4-4.02 37.51-5.25 56.27-3.64 4.63.4 8.09 4.19 8.39 8.82z" stroke="#333" stroke-width="5"/><path d="m2398.6 3259.89c-56.82.05-92.99-68.11-58.59-115.27-15.92-45.21 18.08-95.39 66.66-96.55 56-1.34 88.36 58.5 82.5 109.13-5.48 47.31-37.53 102.65-90.57 102.69z" fill="#f7c394" stroke="#333" stroke-miterlimit="10" stroke-width="5"/><path d="m2489.17 3157.2c-6.78 58.57-54.37 126.8-125.37 93.8 68.82-8.8 117-125.5 83.11-191.84 5.39 3.84 13.89 8.34 27.6 27.61 12.29 21.73 17.7 46.2 14.66 70.43z" fill="#000" fill-opacity=".1"/></svg>