<svg width="4000" height="4000" viewBox="0 0 4000 4000" fill="none" xmlns="http://www.w3.org/2000/svg"><path d="M2275.11 3290.64c-50.77-7.42-115.16-32.27-196.86-76-11.87-6.35-16.67-21.85-10.25-33.84 6.35-11.87 21.85-16.66 33.84-10.25 75.45 40.37 136.18 64.12 180.5 70.6 28.93 4.23 49.75 1 61.88-9.64 13.61-11.92 12.39-33 8.83-72.39-4.17-46.12-9.36-103.53 19.78-169.51 44-99.72 153.63-194.53 269.09-176.7 73.33 11.36 143.6 66.19 159.73 140.59 13.73 63.36-6.02 150.17-73.53 174.43-44.77 16-95.93-2.36-130.84-32.08-10.44-8.68-11.95-25-3.06-35.44 8.81-10.34 25.15-11.64 35.48-2.62.43.36 43.66 36.65 81.49 23.06 42.84-15.38 49.77-78.95 41.56-116.78-11.75-54.23-65.6-93.57-118.51-101.77-92.84-14.33-180.8 68.49-215.72 147.49-23.91 54.16-19.56 102.32-15.72 144.81 4 43.84 7.71 85.25-25.67 114.5-27.66 24.4-67.07 26.8-102.02 21.54z" fill="#D7D7D7" stroke="#333" stroke-width="5" stroke-miterlimit="10"/><path d="M2786.65 2965.53c11.06 51.02 1.18 114.55-37.82 152.08 51.41-33.7 65.07-107.56 52.82-164.08-16.13-74.41-86.39-129.24-159.73-140.6-66.26-10.23-131.78 18.56-181.54 60.82 114.12-80.75 293.29-60.36 326.27 91.78z" fill="#000" fill-opacity=".2"/><path d="M2717.62 3078.06c-27.03 31.45-75.59 15.26-102.89-8.23a24.94 24.94 0 00-23.13-5 25.21 25.21 0 0119.93-12.9 25 25 0 0118.2 5.89c22.07 19.5 59.84 35.17 87.89 20.24zM2073.5 3173.5c3.5-3 15.5-9 23-5.5 6.98 3.26 15.34 7.39 24.73 12.03 49.42 24.41 127.47 62.97 183.77 62.97 50 0 54.5-25 47.5-91a442 442 0 003.06 12.51c9.62 37.75 24.09 94.49-50.56 94.49-81.5 0-208.79-70.57-231.5-85.5z" fill="#000" fill-opacity=".2"/><path d="M1587 3147c36.5 0 65.66-32.58 62.04-68.42-5.42-63.52 18.62-132.19 65.95-198.39 43.06-60.25 89.21-93.25 53.71-132.19-35.5-38.94-115.56 3.92-155.4 59.5-65.71 91.92-97.19 189.11-88.63 283.68 3.19 31.47 25.83 55.82 62.33 55.82z" fill="#D7D7D7" stroke="#333" stroke-width="5" stroke-miterlimit="10"/><path d="M1553.09 3059.16c-.42-112.27 89.61-277.66 195.11-324.16-130-21-245 233.5-222.71 351.77 7.21-11.77 19.71-23.27 27.6-27.61z" fill="#000" fill-opacity=".15"/><path d="M1959.37 3446.51c5-87.08 27.4-154.43 47.17-206.81 19.77-52.38 42.42-144.7-42.56-166.02-121.5-30.49-188.31 254.12-193.3 340.94-2.93 51.08 36.82 110.33 88.4 113.29 47.48 2.31 97.45-31.79 100.29-81.4z" fill="#D7D7D7" stroke="#333" stroke-width="5" stroke-miterlimit="10"/><path d="M1769.48 3414.5c51.5-7 148-7 188.5 34 .34-3.09 1.44-11.94 1.66-15.04-42.16-36.96-138.16-39.46-188.02-32.46-.26 3.3-1.86 10.13-2.14 13.5zM1785.48 3325c47.76 44.29 108.88 69.13 178 78.5.58-5.01 1.81-12.18 2.5-17-68.6-8.88-128.2-37.6-176-81-2 6-3.62 15.27-4.5 19.5z" fill="#000" fill-opacity=".15"/><path d="M2040.63 3446.51c-5-87.08-27.4-154.43-47.17-206.81-19.77-52.38-42.42-144.7 42.56-166.02 121.5-30.49 188.31 254.12 193.3 340.94 2.93 51.08-36.82 110.33-88.4 113.29-47.48 2.31-97.45-31.79-100.29-81.4z" fill="#D7D7D7" stroke="#333" stroke-width="5" stroke-miterlimit="10"/><path d="M2230.52 3414.5c-51.5-7-148-7-188.5 34-.34-3.09-1.44-11.94-1.66-15.04 42.16-36.96 138.16-39.46 188.02-32.46.26 3.3 1.86 10.13 2.14 13.5zM2214.52 3325c-47.76 44.29-108.88 69.13-178 78.5-.58-5.01-1.81-12.18-2.5-17 68.6-8.88 128.2-37.6 176-81 2 6 3.62 15.27 4.5 19.5z" fill="#000" fill-opacity=".15"/><path d="M2413 3147c-36.5 0-65.66-32.58-62.04-68.42 5.42-63.52-18.62-132.19-65.95-198.39-43.06-60.25-89.21-93.25-53.71-132.19 35.5-38.94 115.56 3.92 155.4 59.5 65.71 91.92 97.19 189.11 88.63 283.68-3.19 31.47-25.83 55.82-62.33 55.82z" fill="#D7D7D7" stroke="#333" stroke-width="5" stroke-miterlimit="10"/><path d="M2446.91 3059.16c.42-112.27-89.61-277.66-195.11-324.16 130-21 245 233.5 222.71 351.77-7.21-11.77-19.71-23.27-27.6-27.61z" fill="#000" fill-opacity=".15"/><path d="M3133.19 1832.12c111.1 102 66.32 309.29-9.09 427.16-107.46 168-353.47 273.75-479.46 184.37-131.58-93.35-114.4-386.92 39.2-539.32 114.68-113.78 334.45-177.69 449.35-72.21z" fill="#F7C394" stroke="#333" stroke-width="5" stroke-miterlimit="10"/><path d="M3003.49 1952.22c66 68.19 30.1 196.68-21.65 267.88-73.75 101.45-232.17 158.69-307.94 97.86-79.14-63.53-57.39-247.22 44.75-337.18 76.26-67.16 216.64-99.08 284.84-28.56z" fill="#FFC9A1"/><path d="M3124.1 2259.28c-60.69 94.85-195.1 203.22-346.6 216.72 106.36-25 260.01-133.85 306.64-206.72 75.41-117.87 115.36-338.97 9.09-427.16-32.41-26.89-114.73-65.12-227.73-45.12 138-42.5 222.79-6.13 267.73 35.12 111.06 101.99 66.28 309.29-9.13 427.16z" fill="#000" fill-opacity=".1"/><path d="M866.82 1832.12c-111.1 102-66.32 309.29 9.09 427.16 107.46 168 353.47 273.75 479.46 184.37 131.58-93.35 114.4-386.92-39.2-539.32-114.68-113.78-334.45-177.69-449.35-72.21z" fill="#F7C394" stroke="#333" stroke-width="5" stroke-miterlimit="10"/><path d="M996.52 1952.22c-66 68.19-30.1 196.68 21.65 267.88 73.75 101.45 232.17 158.69 307.94 97.86 79.14-63.53 57.39-247.22-44.75-337.18-76.26-67.16-216.64-99.08-284.84-28.56z" fill="#FFC9A1"/><path d="M875.9 2259.28c60.7 94.85 195.11 203.22 346.61 216.72-106.36-25-260.02-133.85-306.64-206.72-75.41-117.87-115.36-338.97-9.1-427.16 32.42-26.89 114.74-65.12 227.74-45.12-138-42.5-222.8-6.13-267.73 35.12-111.06 101.99-66.28 309.29 9.13 427.16z" fill="#000" fill-opacity=".1"/><path d="M2000 2548c154 0 220 135 260 246s58 220 58 292c0 152-138.68 305.46-318 307-175.53 1.51-318-155-318-307 0-72 17.7-181.5 58-292 40-111 106-246 260-246z" fill="#D7D7D7" stroke="#333" stroke-width="5" stroke-miterlimit="10"/><path d="M2000 3393c-175.67 1.59-330-157-318-337 10 148 145.15 288.48 318 287 172.85-1.48 308-139 318-287 12 180-142.33 335.41-318 337z" fill="#000" fill-opacity=".15"/><path d="M2000 2672c104 0 160 68 174 128 34.49 147.82 64 274 4 350s-134.95 82-178 82c-47.55 0-118-6-178-82s-32.44-193.83 4-350c14-60 70-128 174-128z" fill="#F7C394" stroke="#333" stroke-width="5" stroke-miterlimit="10"/><path d="M2000 3232c-136 0-224-94-213-216 4 115 96 190 213 190s209-75 213-190c11 122-77 216-213 216z" fill="#000" fill-opacity=".1"/><path d="M2395 2818c-115.35 45.22-271 79-395 79s-259.34-26.43-395-79c-7.24 10.54-16.61 26.27-23 37 142 57 275 86 418 86s276-29 418-86a778.28 778.28 0 00-23-37z" fill="#000" fill-opacity=".15"/><path d="M2500.32 839c42.32-35.85-124.32-76-146.52-139.49-26.8-76.51 395.59 127.1 331.57 261.08-5 10.51-55.43 94-417.61-23.77C2665.92 1066 2967.42 1339.94 2966 1847c-1.09 388.75-350.07 990.81-966.43 996.18-594.62 5.19-966.64-596.22-965.57-996.18 1.32-488.44 432.13-990.94 966-1028.5 319.41-22.45 465.29 50.1 500.32 20.5z" fill="#268833" stroke="#333" stroke-width="5" stroke-linecap="round" stroke-linejoin="round"/><path d="M2565.16 861.34c-29.66 65.16-211.81-40-531.22-17.54C1380.48 889.74 907 1615 1169.36 2202.88c68.14-70.38 151.14-90.38 177.59-99.16 7.94 8.57 17.6 17.67 21.05 21.78-81.37 25.35-175.93 80.41-216.63 156.84-76.27-147.6-117-302.56-116.59-435.33 1.32-488.45 432.22-991 966.09-1028.57 319.41-22.45 464.56 50.1 499.59 20.46 42.18-35.75-124.46-75.9-146.65-139.39-8.57-24.46 28.82-20.27 81.55 1.13-20-2.88-31 1.83-25.55 15.87 19.38 50.39 180.3 90.02 155.35 144.83z" fill="#000" fill-opacity=".14"/><path d="M2964.5 1847.07c-.36 127.74-38.12 278.51-110.54 423.57C2779 2168 2644.73 2127 2631 2127c4-5 16-19.7 20-24.5 23.5 5.5 128.62 27.91 187.28 106.2 59.3-132.15 86.52-255.16 86.84-370.86 1.47-524.24-353.62-784.84-657.36-901.02C2665.92 1066 2965.92 1340 2964.5 1847.07z" fill="#000" fill-opacity=".14"/><path d="M1725 1203.5c-297 0-665 628.5-363.5 918.5-575.5 180 0 779 638.5 779s1214-599 638.5-779c301.5-290-66.5-918.5-363.5-918.5-126.5 0-195.51 58.5-275 116.5-79.5-58-148.5-116.5-275-116.5z" fill="#FFCD98" stroke="#333" stroke-width="5"/><path d="M2749.1 1817c-15.7-308.54-265-613.19-481.5-613.19-134.6 0-216.2 82.14-267.6 116.19-41.1-28.05-132.5-116.19-268.4-116.19-255.6 0-478.1 373.19-482.13 622.71C1227 1558 1433.07 1155 1733 1155c156 0 239 75 267 106 28-31 111-106 267-106 297.63 0 503.5 381.5 482.1 662z" fill="#000" fill-opacity=".14"/><path d="M1148.6 2266.67c-135.92 245.26 334.32 633.83 851.4 633.83 517.08 0 993.17-392.85 849.75-637.86C2945.11 2486.74 2490.72 2863 2000 2863c-487.79 0-939.69-371.78-851.4-596.33zM1250.37 1807.39c-7.11 117.45 24.02 230.01 111.45 314.11-10.42 3.26-20.47 7.66-30.15 11.19 22.33-7.19 43.66-12.28 68.33-16.69-84.54-81.32-133.47-191.77-149.63-308.61zM2670.5 2133c-21.76-6.41-44.6-12.37-70.5-17 85.32-82.07 134.37-193.81 150.07-311.86 7.89 118.62-23.01 232.49-111.25 317.36 11.32 3.54 21.24 7.64 31.68 11.5z" fill="#000" fill-opacity=".1"/><path d="M1759.66 1403.06c154.89 18 266.48 208.75 250 376.77-16.38 167.34-162.69 342-329.88 323-151.8-17.3-250.26-186.22-253.5-328.16-4.31-190.16 160.84-391.67 333.38-371.61z" fill="#fff"/><path d="M1947.73 1825.22c22.11-113.95-39.5-221.76-137.6-240.79s-195.55 57.91-217.66 171.87c-22.11 113.95 39.5 221.76 137.6 240.79 98.1 19.04 195.55-57.91 217.66-171.87z" fill="#313CC4" stroke="#333" stroke-width="5" stroke-miterlimit="10"/><path d="M1781.2 1941.56c58.51 0 105.94-53.04 105.94-118.46 0-65.42-47.43-118.46-105.94-118.46s-105.94 53.04-105.94 118.46c0 65.42 47.43 118.46 105.94 118.46z" fill="#000"/><path d="M1874.89 1740.31c7.45-21.05-4.41-44.45-26.5-52.27-22.08-7.82-46.02 2.91-53.47 23.96-7.45 21.05 4.41 44.45 26.5 52.27 22.08 7.81 46.02-2.91 53.47-23.96z" fill="#fff" stroke="#333" stroke-width="5" stroke-miterlimit="10"/><path d="M1835.89 1427c-204.38-55.89-374.47 186.25-370.31 368.01 2.47 107.25 59.36 229.79 152.7 291.65-116.4-48.78-189.2-190.33-192-312-4.33-190.11 160.82-391.59 333.36-371.55a217.6 217.6 0 0176.25 23.89z" fill="#000" fill-opacity=".05"/><path d="M1863.62 1605.54c-112.84-32.07-212.74 65.3-233.15 170.44-16.75 86.35 14.07 169.22 72.35 213.35-81.88-32-130.23-129.93-110.25-232.89 22.12-114 119.58-190.89 217.68-171.85a157.95 157.95 0 0153.37 20.95z" fill="#000" fill-opacity=".15"/><path d="M2234 1398.91c-154.54 20.68-262.79 213.36-243.4 381.08 19.3 167 168.63 339.1 335.47 317.13 151.47-19.94 247-190.55 247.73-332.52.98-190.16-167.66-388.73-339.8-365.69z" fill="#fff"/><path d="M2273.74 1992.69c97.75-20.74 157.47-129.61 133.37-243.16-24.09-113.55-122.87-188.79-220.63-168.05-97.75 20.75-157.46 129.61-133.37 243.16 24.1 113.56 122.87 188.79 220.63 168.05z" fill="#313CC4" stroke="#333" stroke-width="5" stroke-miterlimit="10"/><path d="M2221.84 1937.7c58.5-1.02 105-54.87 103.86-120.29-1.15-65.41-49.49-117.61-107.99-116.59-58.51 1.02-105 54.88-103.86 120.29 1.14 65.42 49.49 117.62 107.99 116.59z" fill="#000"/><path d="M2288.34 1764.39c21.95-8.2 33.4-31.81 25.58-52.72-7.81-20.92-31.94-31.23-53.88-23.03-21.95 8.21-33.4 31.81-25.59 52.73 7.82 20.91 31.94 31.22 53.89 23.02z" fill="#fff" stroke="#333" stroke-width="5" stroke-miterlimit="10"/><path d="M2573.77 1764.6c-.66 123.27-72.75 268.13-190.88 317.21 95.29-61.62 152.08-188.08 152.66-297.55.96-183.58-181.09-431.24-385.95-355.18 26-15.6 54.29-26.14 84.37-30.17 172.17-23.04 340.81 175.53 339.8 365.69z" fill="#000" fill-opacity=".05"/><path d="M2295.09 1986.4c60.86-43.65 92.6-129.07 73.87-217.3-22.4-105.54-126.48-201.41-238.74-163.7a158.3 158.3 0 0156.34-24.11c97.76-20.75 196.54 54.48 220.65 168 22.3 105.1-27.16 206.17-112.12 237.11z" fill="#000" fill-opacity=".15"/><path d="M1785 2099c0 76.35 98.85 169 216.26 168 108.22-.95 213.74-92.55 213.74-167.78 0-152.13-430-154.42-430-.22z" fill="#000" fill-opacity=".1"/><path d="M1782 2081c0 76.35 100.23 169 219.27 168 109.73-.95 216.73-92.55 216.73-167.78 0-60.53-126.24-113.77-216.73-113-84.02.78-219.27 41.16-219.27 112.78z" fill="#7F6145"/><path d="M1783.58 2067.77c41.76 54.75 124.68 100.94 217.85 100.22 86.21-.68 170.92-47.12 214.09-101.55a46.59 46.59 0 012.48 14.78c0 75.23-107 166.83-216.73 167.78-119.04 1-219.27-91.65-219.27-168 0-4.54.54-8.95 1.58-13.23z" fill="#000" fill-opacity=".2"/><path d="M1601.4 3259.89c56.82.05 92.99-68.11 58.59-115.27 15.91-45.21-18.09-95.39-66.66-96.55-56-1.34-88.37 58.5-82.5 109.13 5.48 47.31 37.52 102.65 90.57 102.69z" fill="#F7C394" stroke="#333" stroke-width="5" stroke-miterlimit="10"/><path d="M1510.83 3157.2c6.78 58.57 54.37 126.8 125.37 93.8-68.82-8.8-117-125.5-83.11-191.84-5.39 3.84-13.89 8.34-27.6 27.61-12.29 21.73-17.7 46.2-14.66 70.43z" fill="#000" fill-opacity=".1"/><path d="M2398.6 3259.89c-56.82.05-92.99-68.11-58.59-115.27-15.92-45.21 18.08-95.39 66.66-96.55 56-1.34 88.36 58.5 82.5 109.13-5.48 47.31-37.52 102.65-90.57 102.69z" fill="#F7C394" stroke="#333" stroke-width="5" stroke-miterlimit="10"/><path d="M2489.17 3157.2c-6.78 58.57-54.37 126.8-125.37 93.8 68.82-8.8 117-125.5 83.11-191.84 5.39 3.84 13.89 8.34 27.6 27.61 12.29 21.73 17.7 46.2 14.66 70.43z" fill="#000" fill-opacity=".1"/><path d="M2000.41 2770.5c275 0 572-112.5 663.25-379.44 15.25-42.3-22.09-84.98-67.45-78.53a4238.32 4238.32 0 01-1192.61 0c-45.32-6.44-82.16 36.01-67.46 78.53 92.27 266.94 389.27 379.44 664.27 379.44z" fill="#3D0C0C"/><path d="M2578.21 2512.04c32.74-40.14 55.99-82.74 67.74-125.83 8.9-32.67-14.69-60.04-47.04-55.45-396.36 55.5-801.44 56.2-1197.79.01-32.4-4.56-55.98 22.77-47.08 55.44 11.74 43.1 34.97 85.69 67.74 125.83 383.09 52.47 773.36 52.94 1156.43 0z" fill="#fff"/><path d="M2000.41 2752c198.55.34 414.2-65.72 553.93-212.94a4259.79 4259.79 0 01-1108.71.03c140.78 148.35 354.63 212.57 554.78 212.91z" fill="#fff"/><path d="M2266.36 2712c107.21-32.23 209.97-90.74 287.98-172.94-27.6 3.63-55.24 7.05-82.92 10.07-52.28 61.44-119.58 117.48-205.06 162.87zM2645.95 2386.22c-11.75 43.08-35 85.68-67.74 125.82a3848.18 3848.18 0 01-88.92 11.23c42.55-59.77 72.34-124.18 92-190.06l17.54-2.44c32.43-4.6 56.02 22.77 47.12 55.45zM1445.61 2539.05c78.35 82.56 182.38 141.73 290.3 173.75-86.43-45.37-154.18-101.8-206.61-163.61a3797 3797 0 01-83.69-10.14zM1421.75 2512.04c29.82 4.05 59.68 7.82 89.57 11.31-42.71-59.71-72.52-124.15-92.11-190.05-6.04-.83-12.08-1.67-18.12-2.53-32.4-4.55-55.98 22.77-47.08 55.45 11.74 43.09 34.97 85.68 67.74 125.82z" fill="#000" fill-opacity=".1"/><path d="M1909.99 3556c32 0 63.09-23.6 66.7-56.14 9.11-82.21-94.35-89.68-150.66-90.92-57.11-1.25-154.04 9.56-171.03 72.27-14.84 54.79 36.49 74.79 72.99 74.79 36.5 0 49-12.15 92.99-12.15 38.41 0 57.01 12.15 89.01 12.15z" fill="#CC341B" stroke="#333" stroke-width="5" stroke-miterlimit="10"/><path d="M1842.5 3545.19c-15.46-40.24-21.12-95.04-16.7-136.25 13.07.28 26.13.86 39.14 2.11-3.6 45.05 5.61 102.85 26.91 143.65-16.49-2.33-30.66-7.16-49.35-9.51zM1770.54 3411.7c-19.33 2.42-39.1 6.63-56.81 13.45 2.14 41.72 15.21 92.83 36.62 129.17 17.19-2.64 30.31-7.67 51.78-9.64-18.87-38.74-33.19-91.14-31.59-132.98zM1966.68 3526.42c-6.75 9.84-16.34 17.74-27.28 22.89-20.33-36.65-27.4-87.16-26.05-129.52 13.58 3.99 26.23 9.46 36.64 16.98.85 29.91 6.26 61.86 16.69 89.65zM1655 3481.21a69.1 69.1 0 0116.42-29.24c4.71 33.55 15.1 71.33 31.1 100.95-30.47-7.45-59.08-29.02-47.52-71.71z" fill="#ED431E"/><path d="M1842.5 3545.19c-15.46-40.24-21.12-95.04-16.7-136.25 13.07.28 26.13.86 39.14 2.11-3.6 45.05 5.61 102.85 26.91 143.65-16.49-2.33-30.66-7.16-49.35-9.51zM1770.54 3411.7c-19.33 2.42-39.1 6.63-56.81 13.45 2.14 41.72 15.21 92.83 36.62 129.17 17.19-2.64 30.31-7.67 51.78-9.64-18.87-38.74-33.19-91.14-31.59-132.98zM1966.68 3526.42c-6.75 9.84-16.34 17.74-27.28 22.89-20.33-36.65-27.4-87.16-26.05-129.52 13.58 3.99 26.23 9.46 36.64 16.98.85 29.91 6.26 61.86 16.69 89.65zM1655 3481.21a69.1 69.1 0 0116.42-29.24c4.71 33.55 15.1 71.33 31.1 100.95-30.47-7.45-59.08-29.02-47.52-71.71z" stroke="#333" stroke-width="5" stroke-linecap="round" stroke-linejoin="round"/><path d="M1908.99 3534c-32 0-50.6-12.15-89.01-12.15-43.99 0-56.49 12.15-92.99 12.15-28.38 0-65.75-12.1-73.97-43.26-6.72 47.6 40.68 65.26 74.97 65.26 36.5 0 49-12.15 92.99-12.15 38.41 0 57.01 12.15 89.01 12.15 42.87 0 73-34.15 65.91-80.26-2.96 33.46-34.03 58.26-66.91 58.26z" fill="#000" fill-opacity=".4"/><path d="M2090 3556c-32 0-63.09-23.6-66.7-56.14-9.11-82.21 94.35-89.68 150.67-90.92 57.1-1.25 154.03 9.56 171.02 72.27C2359.84 3536 2308.5 3556 2272 3556c-36.5 0-49-12.15-92.98-12.15-38.42 0-57.02 12.15-89.02 12.15z" fill="#CC341B" stroke="#333" stroke-width="5" stroke-miterlimit="10"/><path d="M2157.49 3545.19c15.47-40.24 21.13-95.04 16.7-136.25-13.06.28-26.12.86-39.13 2.11 3.59 45.05-5.62 102.85-26.91 143.65 16.48-2.33 30.65-7.16 49.34-9.51zM2229.45 3411.7c19.33 2.42 39.11 6.63 56.81 13.45-2.13 41.72-15.21 92.83-36.61 129.17-17.2-2.64-30.32-7.67-51.79-9.64 18.88-38.74 33.2-91.14 31.59-132.98zM2033.31 3526.42a68.45 68.45 0 0027.29 22.89c20.32-36.65 27.4-87.16 26.04-129.52-13.57 3.99-26.23 9.46-36.64 16.98-.84 29.91-6.25 61.86-16.69 89.65zM2344.99 3481.21a68.88 68.88 0 00-16.42-29.24c-4.7 33.55-15.1 71.33-31.1 100.95 30.47-7.45 59.09-29.02 47.52-71.71z" fill="#ED431E"/><path d="M2157.49 3545.19c15.47-40.24 21.13-95.04 16.7-136.25-13.06.28-26.12.86-39.13 2.11 3.59 45.05-5.62 102.85-26.91 143.65 16.48-2.33 30.65-7.16 49.34-9.51zM2229.45 3411.7c19.33 2.42 39.11 6.63 56.81 13.45-2.13 41.72-15.21 92.83-36.61 129.17-17.2-2.64-30.32-7.67-51.79-9.64 18.88-38.74 33.2-91.14 31.59-132.98zM2033.31 3526.42a68.45 68.45 0 0027.29 22.89c20.32-36.65 27.4-87.16 26.04-129.52-13.57 3.99-26.23 9.46-36.64 16.98-.84 29.91-6.25 61.86-16.69 89.65zM2344.99 3481.21a68.88 68.88 0 00-16.42-29.24c-4.7 33.55-15.1 71.33-31.1 100.95 30.47-7.45 59.09-29.02 47.52-71.71z" stroke="#333" stroke-width="5" stroke-linecap="round" stroke-linejoin="round"/><path d="M2091 3534c32 0 50.61-12.15 89.02-12.15 43.98 0 56.48 12.15 92.98 12.15 28.39 0 65.75-12.1 73.97-43.26 6.73 47.6-40.67 65.26-74.97 65.26-36.5 0-49-12.15-92.98-12.15-38.41 0-57.02 12.15-89.02 12.15-42.86 0-73-34.15-65.91-80.26 2.97 33.46 34.04 58.26 66.91 58.26z" fill="#000" fill-opacity=".4"/><path d="M1874.8 2767.34c-.67 7.55-8.39 5.9-13.85 4.99-46.35-6.36-90.2-22.88-137.74-15.91-15.64 2.21-29.53 8.25-45.85 8.25-20.4 0-28.89 29.85-15.92 59.13 6.22 14 24.66 26.74 35.18 40.94 15.85 21.19 21.79 62.15 49.24 71.41 163.41 62.88 89.65 251.72-1.86 326.85-42.65-53.32-65.36-111.91-65.36-176.65 0-53.7 11.36-110.85 29.86-194.35-133.44 195.99-213.59 94.76-101.39-68.57a1260.9 1260.9 0 01-104.59-46c-35.6-87.7 4.98-207.52 117.26-201.15 91.17 5.64 120.08 64.57 128 104 11.33 12 24.6 30.76 44.3 35.89 21.38 5.57 85.74 16.99 82.72 51.17z" fill="#000" fill-opacity=".2"/><path d="M1034.65 3297.5c17.91 97.62 174 140 341.68 114.59 220.39-33.35 460.88-174.68 434.34-371.09-5.94-44-49.79-81.19-112.82-102.46-17.34-5.84-25.64-16.84-33.64-31.56l-18.06 25.87-10-7.26-16.56 22.11-13.48-14.85-19.11 26.09-12.32-3.3-9.32 12.1-9-11.06-14.16 17.62-16.94-5.46-18.16 4.19-21.76-4.63c-102.01-5.98-492.17 103.16-450.69 329.1z" fill="#D7D7D7" stroke="#333" stroke-width="5" stroke-miterlimit="10"/><path d="M1485.32 2968.45l21.77 4.62 18.16-4.19 16.94 5.46 14.16-17.62 9 11.06 9.32-12.1L1587 2959l19.11-26.09 13.48 14.84 16.57-22.1 10 7.26 18-25.88c-14.66-38.53-41.44-47.39-52.81-73.19-13-29.29-4.49-59.13 15.91-59.13 50.21 0 72.15-27.19 73-57.64.85-30.45-15.23-131.19-145-131.19-81.85 0-119.22 80.2-119.22 139.42 0 84.73 66.96 98.7 49.28 243.15z" fill="#268833" stroke="#333" stroke-width="5" stroke-miterlimit="10"/><path d="M1610.48 2682.46c-11.92 0-21.63-8.42-21.63-18.75s9.71-18.76 21.63-18.76c11.92 0 21.63 8.42 21.63 18.76 0 10.34-9.7 18.75-21.63 18.75z" fill="#000"/><path d="M1610.48 2647.45c10.57 0 19.13 7.28 19.13 16.26s-8.56 16.25-19.13 16.25c-10.57 0-19.13-7.28-19.13-16.25 0-8.97 8.57-16.26 19.13-16.26zm0-5c-13.3 0-24.13 9.54-24.13 21.26 0 11.72 10.83 21.25 24.13 21.25 13.3 0 24.13-9.54 24.13-21.25s-10.82-21.26-24.13-21.26z" fill="#333"/><path d="M1742 2726.18c-29-7.55-44.06-44.62-59.5-46.22-15.44-1.6 6.9 32.59-3.39 49.61-8 13.29-16 21-33.71 19.07-6.84-.75-5.59 5.45-.92 11.17s11.72 10.72 20.16 8.36c18.85-5.28 58.25-3.5 77.36.24 14.66 2.87 67 15.4 78.34 14.64 7.06-.47 7.94-17.88-13.71-33.45-13.01-9.34-36.87-16.18-64.63-23.42z" fill="#EBA22C" stroke="#333" stroke-width="5" stroke-miterlimit="10"/><path d="M1717.64 2726.35c-5.12 2.51-.84 19.38 12.9 16.4 9.56-2.07-6.06-19.75-12.9-16.4z" fill="#35200E" stroke="#333" stroke-width="3" stroke-miterlimit="10"/><path d="M1436.04 2725.3c-2.58-54.3 37.37-139.42 119.22-139.42 5 0 9.84.16 14.51.45-74.69 6.41-108.91 82.29-108.91 139 0 53.08 54.4 112 52.4 208.17 5.71-1 9.93-1.91 9.93-1.91l9.18 6.52 14.75-12.16 6.89 1 6.22-16.1 12.42-2.11 7.88-9.73 13.2-.4 13.14-11.42 21 2.92s9.64-8.25 18.73-15.3c3 4.02 5.29 8.53 7.61 12.96-10.22 7.15-26.34 21-26.34 21l-19.34-5.18s-62.17 45.59-65.27 50.09a1345.28 1345.28 0 00-55.72-3.13c8.96-121.55-48.04-152.55-51.5-225.25z" fill="#000" fill-opacity=".2"/><path opacity=".2" d="M1602.19 2673.95a3.11 3.11 0 01-.25-.38c-6.21-9.78 3.92-21.96 14.28-21.79-14.07-6.97-30.49 14.38-14.03 22.17z" fill="#fff"/><path d="M1598.69 2668.53a4.82 4.82 0 100-9.65 4.82 4.82 0 000 9.65z" fill="#fff"/><path d="M1485.32 2968.41l21.77 4.62 18.16.47 16.94.8 14.16-17.62 9 11.06 9.32-12.1L1587 2959l19.11-26.09 13.48 14.84 16.57-22.1 10 7.26 18-25.88c-3.21-5.86-6.36-12.31-10-19.26-10.22 7.15-26.34 21-26.34 21l-19.34-5.18s-62.17 45.59-65.27 50.09c-5-1.06-39.4-2.5-55.7-3.13a274.67 274.67 0 01-2.19 17.86z" fill="#E0ECF2" stroke="#333" stroke-width="5" stroke-miterlimit="10"/><path d="M1544 2972.11c5.73 21.9 15.55 42.5 30.18 51.81 33.68 21.41 121.82-11.48 148.12 62.76 22 62.09 10 125 7.26 163.42 58.45-58.17 95-129.53 81.16-209.1-10.81-62.15-51.46-87.42-112.82-102.46-17.77-4.35-25.64-16.84-33.64-31.56l-18.06 25.87-10-7.26-16.56 22.11-13.48-14.85-19.16 26.09-12.32-3.3-9.32 12.1-9-11.06-12.36 15.43z" fill="#4A3632" stroke="#333" stroke-width="5" stroke-miterlimit="10"/><path d="M1671.44 2972.56c-15 4.83-21.87 18.88-9.65 29.27 13.26 11.27 49.65 21.38 67.13 48.8 7.17 11.24 12.44 28.61 16.83 60.13 2 14 20.79 17.09 27.26 4.49 30.61-59.63 13.1-179.49-101.57-142.69z" fill="#543D39"/><path d="M1681.86 2717.54c-.01-6.3-1.56-13.13-2.93-19.22-1.1-4.87-5.85-20.65 4.51-18.16 2.31 12.33 6.08 26.11-1.58 37.38zM1664.62 2768.17c-8.44 2.37-15.49-2.62-20.16-8.36-4.67-5.73-5.91-11.92.94-11.17 2.24.26 4.5.35 6.76.26 4.21 3.66 9.41 5.24 15.76 4.44 58.58-7.34 103.08 11.66 156.41 18.97 1.44 6.19-.53 10.52-4 10.75-8.51.55-40.08-6.35-61.51-11.05-7.15-1.56-13.17-2.88-16.84-3.59-19.11-3.74-58.51-5.53-77.36-.25z" fill="#000" fill-opacity=".2"/><path d="M1034.64 3297.51c17.92 97.61 174 140 341.68 114.58 181.74-27.5 377.14-128.42 425.21-273.11-75.34 111.26-239.7 187.69-394.18 211.06-129.65 19.64-392.59-5.07-338.13-194.78-29.69 40.74-44.5 88.14-34.58 142.25z" fill="#000" fill-opacity=".15"/><path d="M1656.58 3071.76c-.17-33.73-89.6-21.58-112.63-99.65-46.28-5.94-256.53-21-338.32 54.45 8-3.86 11.57-1.61 13-.54-14.29 9.34-62.87 40.41-109.5 82.42-42.31 38.11-63.3 86.69-117 97-53.7 10.31-108.71 35.09-116.28 37.15C881.4 3255 967.5 3342.82 1044.5 3351c77 8.18 244.31-22.95 330.19-79.21 85.88-56.26 147.12-140.27 197-149.95.51-14.25-4.62-30.71 13.62-32.37.83-6.91.55-15.75 1.93-22.38 14.94-.04 44.76-1.15 69.34 4.67z" fill="#C1C1C1" stroke="#333" stroke-width="5" stroke-miterlimit="10"/><path d="M1531.52 3024.34c-23.87-3.23-133.68 11.38-187 67.35 6.37-14 18.45-30.15 26.75-38.88-24.32 10.12-92.64 52-122.35 54.62 8.74-10.49 9.18-12.24 14-15.74-15.73 5.25-149.88 105.32-180 145.08-27.94 7.77-68.45 19.28-91.9 41.87 37.48 30.7 96.98 45.86 195.27 30.7 11.51-2.56 126.21-70.77 153.07-80.15 26.86-9.38 85.27-29.44 132.59-70.36-12.36 4.7-35 21.33-49.71 26 22.85-15.35 71.88-57.14 80.84-61h-21.29c15.21-4.93 62.4-34.15 71.07-38.28-3.62-1.63-8.44-.15-12.07-2.51 11.09-2.81 25.88-12.14 27.64-13.2 18.3-11.02-29.25-44.46-36.91-45.5z" fill="#CCC"/><path d="M1418.68 3390.74c-4.55-8.73-20-.11-34 1.86-14 1.97-27.78 2.27-26.85 13.09.93 10.82 15.14 76.27 13 98.16-2.14 21.89-13 56.8-42.58 64.48-4 1-4 7.59-1.16 10.44 1.82 1.85 6.63 2.41 12.4 1.53 8.78-1.35 20.12 2.05 27.27 2.38 61.74 2.82 127.17-.12 188.11-2.27 11.21-.43 20-3.76 20.18-10.77.25-8.23-3-14.61-27.08-15.22 12.39-.3 25.57-.77 25.44-12.28-.1-9.83-13.19-12.53-27.1-11.2-50.54 4.84-122.31 5.19-130.89 3.37-1.72-.37-10.39-6-10.55-12.43-.56-21.78 9.13-70.38 6.74-105.76-.61-10.55 15.39-9.33 7.07-25.38z" fill="#ED431E" stroke="#333" stroke-width="5" stroke-linecap="round" stroke-linejoin="round"/><path d="M1366.27 3395.65c-5.4 1.66-8.87 4.43-8.39 10 3.88 45.21 25.24 92.64 2 135.86 35.68-40.85 12.75-98.65 6.39-145.86zM1328.33 3568.33c2.2-.58 4.35-1.32 6.44-2.22 2.44 3.74 9.31 1.96 12.98 2.25 65.25 5.14 137.47 3.78 201.74.92 5.44-.24 13.4-.59 13.28-7.04-.07-3.48-.53-6.76-9.72-7.63 10.31.71 22.02 2.94 22.02 15-.22 7-9 10.33-20.17 10.77-16.29.61-31.58 1.61-46.75 2.6-41.89 2.74-82.82 5.42-141.31-.37-2.07-.2-4.5-.61-7.12-1.04-6.39-1.06-13.93-2.31-20.15-1.35-5.77.88-10.57.33-12.39-1.54-2.81-2.75-2.87-9.32 1.15-10.35zM1573.49 3542.14c-.09-9.07-11.23-12.07-23.86-11.43 17.61 1.03 15.38 23.3-1.76 23.7h.18c12.44-.27 25.57-.76 25.44-12.27z" fill="#000" fill-opacity=".2"/></svg>