<svg width="4000" height="4000" viewBox="0 0 4000 4000" fill="none" xmlns="http://www.w3.org/2000/svg">
<path d="M0 0H4000V4000H0V0Z" fill="#F3D9FF"/>
<path d="M2275.11 3290.64C2224.34 3283.22 2159.95 3258.37 2078.25 3214.64C2066.38 3208.29 2061.58 3192.79 2068 3180.8C2074.35 3168.93 2089.85 3164.14 2101.84 3170.55C2177.29 3210.92 2238.02 3234.67 2282.34 3241.15C2311.27 3245.38 2332.09 3242.15 2344.22 3231.51C2357.83 3219.59 2356.61 3198.51 2353.05 3159.12C2348.88 3113 2343.69 3055.59 2372.83 2989.61C2416.83 2889.89 2526.46 2795.08 2641.92 2812.91C2715.25 2824.27 2785.52 2879.1 2801.65 2953.5C2815.38 3016.86 2795.63 3103.68 2728.12 3127.93C2683.35 3143.93 2632.19 3125.57 2597.28 3095.85C2586.84 3087.17 2585.33 3070.85 2594.22 3060.41C2603.03 3050.07 2619.37 3048.77 2629.7 3057.79C2630.13 3058.15 2673.36 3094.44 2711.19 3080.85C2754.03 3065.47 2760.96 3001.9 2752.75 2964.07C2741 2909.84 2687.15 2870.5 2634.24 2862.3C2541.4 2847.97 2453.44 2930.79 2418.52 3009.79C2394.61 3063.95 2398.96 3112.11 2402.8 3154.6C2406.8 3198.44 2410.51 3239.85 2377.13 3269.1C2349.47 3293.5 2310.06 3295.9 2275.11 3290.64Z" fill="#B756E3" stroke="#333333" stroke-width="5" stroke-miterlimit="10"/>
<path d="M2787.15 2965.67C2798.21 3016.7 2788.33 3080.22 2749.33 3117.75C2800.74 3084.06 2814.4 3010.2 2802.15 2953.67C2786.02 2879.27 2715.76 2824.43 2642.42 2813.07C2576.16 2802.84 2510.64 2831.63 2460.88 2873.89C2575 2793.14 2754.17 2813.54 2787.15 2965.67Z" fill="black" fill-opacity="0.24"/>
<path d="M2718.12 3078.2C2691.09 3109.65 2642.53 3093.47 2615.23 3069.97C2612.09 3067.3 2608.33 3065.44 2604.29 3064.56C2600.26 3063.69 2596.07 3063.83 2592.1 3064.97C2596.07 3057.68 2603.73 3052.74 2612.03 3052.08C2618.63 3051.55 2625.18 3053.67 2630.23 3057.96C2652.3 3077.47 2690.07 3093.14 2718.12 3078.2Z" fill="black" fill-opacity="0.24"/>
<path d="M2074 3173.64C2077.5 3170.64 2089.5 3164.64 2097 3168.14C2103.98 3171.4 2112.34 3175.53 2121.73 3180.17C2171.15 3204.59 2249.2 3243.14 2305.5 3243.14C2355.5 3243.14 2360 3218.14 2353 3152.14C2353.85 3155.96 2354.92 3160.17 2356.06 3164.65C2365.68 3202.4 2380.15 3259.14 2305.5 3259.14C2224 3259.14 2096.71 3188.57 2074 3173.64Z" fill="black" fill-opacity="0.24"/>
<path d="M1587 3147C1623.5 3147 1652.66 3114.42 1649.04 3078.58C1643.62 3015.06 1667.66 2946.39 1714.99 2880.19C1758.05 2819.95 1804.2 2786.94 1768.7 2748C1733.2 2709.06 1653.14 2751.92 1613.3 2807.5C1547.59 2899.42 1516.11 2996.61 1524.67 3091.18C1527.86 3122.65 1550.5 3147 1587 3147Z" fill="#B756E3" stroke="#333333" stroke-width="5" stroke-miterlimit="10"/>
<path d="M1553.09 3059.17C1552.67 2946.89 1642.7 2781.5 1748.2 2735C1618.2 2714 1503.2 2968.5 1525.49 3086.78C1532.7 3075 1545.2 3063.5 1553.09 3059.17Z" fill="black" fill-opacity="0.15"/>
<path d="M1959.37 3446.51C1964.37 3359.43 1986.77 3292.08 2006.54 3239.7C2026.31 3187.32 2048.96 3095 1963.98 3073.68C1842.48 3043.19 1775.67 3327.8 1770.68 3414.62C1767.75 3465.7 1807.5 3524.95 1859.08 3527.91C1906.56 3530.22 1956.53 3496.12 1959.37 3446.51Z" fill="#B756E3" stroke="#333333" stroke-width="5" stroke-miterlimit="10"/>
<path d="M1769.48 3414.5C1820.98 3407.5 1917.48 3407.5 1957.98 3448.5C1958.32 3445.41 1959.42 3436.56 1959.64 3433.46C1917.48 3396.5 1821.48 3394 1771.62 3401C1771.36 3404.3 1769.76 3411.13 1769.48 3414.5Z" fill="black" fill-opacity="0.14"/>
<path d="M1785.48 3325C1833.24 3369.29 1894.36 3394.13 1963.48 3403.5C1964.06 3398.49 1965.29 3391.32 1965.98 3386.5C1897.38 3377.62 1837.78 3348.9 1789.98 3305.5C1787.98 3311.5 1786.36 3320.77 1785.48 3325Z" fill="black" fill-opacity="0.14"/>
<path d="M2040.63 3446.51C2035.63 3359.43 2013.23 3292.08 1993.46 3239.7C1973.69 3187.32 1951.04 3095 2036.02 3073.68C2157.52 3043.19 2224.33 3327.8 2229.32 3414.62C2232.25 3465.7 2192.5 3524.95 2140.92 3527.91C2093.44 3530.22 2043.47 3496.12 2040.63 3446.51Z" fill="#B756E3" stroke="#333333" stroke-width="5" stroke-miterlimit="10"/>
<path d="M2230.52 3414.5C2179.02 3407.5 2082.52 3407.5 2042.02 3448.5C2041.68 3445.41 2040.58 3436.56 2040.36 3433.46C2082.52 3396.5 2178.52 3394 2228.38 3401C2228.64 3404.3 2230.24 3411.13 2230.52 3414.5Z" fill="black" fill-opacity="0.14"/>
<path d="M2214.52 3325C2166.76 3369.29 2105.64 3394.13 2036.52 3403.5C2035.94 3398.49 2034.71 3391.32 2034.02 3386.5C2102.62 3377.62 2162.22 3348.9 2210.02 3305.5C2212.02 3311.5 2213.64 3320.77 2214.52 3325Z" fill="black" fill-opacity="0.14"/>
<path d="M2413 3147C2376.5 3147 2347.34 3114.42 2350.96 3078.58C2356.38 3015.06 2332.34 2946.39 2285.01 2880.19C2241.95 2819.95 2195.8 2786.94 2231.3 2748C2266.8 2709.06 2346.86 2751.92 2386.7 2807.5C2452.41 2899.42 2483.89 2996.61 2475.33 3091.18C2472.14 3122.65 2449.5 3147 2413 3147Z" fill="#B756E3" stroke="#333333" stroke-width="5" stroke-miterlimit="10"/>
<path d="M2446.91 3059.17C2447.33 2946.89 2357.3 2781.5 2251.8 2735C2381.8 2714 2496.8 2968.5 2474.51 3086.78C2467.3 3075 2454.8 3063.5 2446.91 3059.17Z" fill="black" fill-opacity="0.15"/>
<path d="M2000 2548C2154 2548 2220 2683 2260 2794C2300 2905 2318 3014 2318 3086C2318 3238 2179.32 3391.46 2000 3393C1824.47 3394.51 1682 3238 1682 3086C1682 3014 1699.7 2904.5 1740 2794C1780 2683 1846 2548 2000 2548Z" fill="#B756E3" stroke="#333333" stroke-width="5" stroke-miterlimit="10"/>
<path d="M2000 3393C1824.33 3394.59 1670 3236 1682 3056C1692 3204 1827.15 3344.48 2000 3343C2172.85 3341.52 2308 3204 2318 3056C2330 3236 2175.67 3391.41 2000 3393Z" fill="black" fill-opacity="0.15"/>
<path d="M2000 2672C2104 2672 2160 2740 2174 2800C2208.49 2947.82 2238 3074 2178 3150C2118 3226 2043.05 3232 2000 3232C1952.45 3232 1882 3226 1822 3150C1762 3074 1789.56 2956.17 1826 2800C1840 2740 1896 2672 2000 2672Z" fill="#F7C394" stroke="#333333" stroke-width="5" stroke-miterlimit="10"/>
<path d="M2000 3232C1864 3232 1776 3138 1787 3016C1791 3131 1883 3206 2000 3206C2117 3206 2209 3131 2213 3016C2224 3138 2136 3232 2000 3232Z" fill="black" fill-opacity="0.1"/>
<path d="M1910 3556C1942 3556 1973.09 3532.4 1976.7 3499.86C1985.81 3417.65 1882.35 3410.18 1826.03 3408.94C1768.93 3407.69 1672 3418.5 1655.01 3481.21C1640.16 3536 1691.5 3556 1728 3556C1764.5 3556 1777 3543.85 1820.98 3543.85C1859.39 3543.85 1878 3556 1910 3556Z" fill="#F7C394" stroke="#333333" stroke-width="5" stroke-miterlimit="10"/>
<path d="M1909 3534C1877 3534 1858.39 3521.85 1819.98 3521.85C1776 3521.85 1763.5 3534 1727 3534C1698.61 3534 1661.25 3521.9 1653.03 3490.74C1646.3 3538.34 1693.7 3556 1728 3556C1764.5 3556 1777 3543.85 1820.98 3543.85C1859.39 3543.85 1878 3556 1910 3556C1952.86 3556 1983 3521.85 1975.91 3475.74C1972.94 3509.2 1941.87 3534 1909 3534Z" fill="black" fill-opacity="0.1"/>
<path d="M2090 3556C2058 3556 2026.91 3532.4 2023.3 3499.86C2014.19 3417.65 2117.65 3410.18 2173.97 3408.94C2231.07 3407.69 2328 3418.5 2344.99 3481.21C2359.84 3536 2308.5 3556 2272 3556C2235.5 3556 2223 3543.85 2179.02 3543.85C2140.6 3543.85 2122 3556 2090 3556Z" fill="#F7C394" stroke="#333333" stroke-width="5" stroke-miterlimit="10"/>
<path d="M2091 3534C2123 3534 2141.61 3521.85 2180.02 3521.85C2224 3521.85 2236.5 3534 2273 3534C2301.39 3534 2338.75 3521.9 2346.97 3490.74C2353.7 3538.34 2306.3 3556 2272 3556C2235.5 3556 2223 3543.85 2179.02 3543.85C2140.61 3543.85 2122 3556 2090 3556C2047.14 3556 2017 3521.85 2024.09 3475.74C2027.06 3509.2 2058.13 3534 2091 3534Z" fill="black" fill-opacity="0.1"/>
<path d="M2220.79 3301.3C2152.25 3320.24 2077.81 3331 2000 3331C1922.32 3331 1848 3320.28 1779.55 3301.39C1719.43 3243 1682 3163.91 1682 3086C1682 3034 1691.23 2962.44 1711.54 2885.08C1666.5 2949.76 1643.75 3016.62 1649.04 3078.58C1652.66 3114.42 1623.5 3147 1587 3147C1550.5 3147 1527.86 3122.65 1524.67 3091.18C1516.18 2997.35 1547.1 2900.93 1611.77 2809.64C1715.89 2854.11 1851.59 2881 2000 2881C2148.41 2881 2284.11 2854.11 2388.23 2809.65C2452.9 2900.93 2483.82 2997.35 2475.33 3091.18C2472.14 3122.65 2449.5 3147 2413 3147C2376.5 3147 2347.34 3114.42 2350.96 3078.58C2356.26 3016.49 2333.4 2949.47 2288.16 2884.65C2308.56 2962.31 2318 3033.86 2318 3086C2318 3164.39 2281.11 3243.17 2220.79 3301.3Z" fill="white" stroke="#333333" stroke-width="5" stroke-linecap="round" stroke-linejoin="round"/>
<path d="M2345.81 3009.07C2338.91 2978.18 2326.09 2946.77 2307.95 2915.59C2331.56 2911.62 2397.62 2885.06 2425.79 2870.26C2443.58 2903.66 2456.88 2937.5 2465.41 2971.43C2438.57 2986.55 2370.86 3005.12 2345.81 3009.07Z" fill="#FF69B3"/>
<path d="M1534.59 2971.43C1543.12 2937.5 1556.42 2903.66 1574.21 2870.26C1602.38 2885.06 1668.44 2911.62 1692.04 2915.59C1673.91 2946.77 1661.08 2978.18 1654.19 3009.07C1629.14 3005.12 1561.43 2986.55 1534.59 2971.43Z" fill="#FF69B3"/>
<path d="M2316.66 3049.55C2111.78 3095.28 1888.2 3095.28 1683.32 3049.55C1685.23 3021.59 1689.25 2990 1695.56 2956.21C1893.21 2998.04 2106.65 2998.04 2304.3 2956.24C2310.65 2990.04 2314.72 3021.59 2316.66 3049.55Z" fill="#FF69B3"/>
<path d="M2268.93 3243.16C2092.96 3274.9 1907.56 3274.92 1731.58 3243.25C1710.31 3210.69 1695.1 3175 1687.51 3138.47C1889.99 3182.86 2110.13 3182.85 2312.61 3138.45C2305.13 3175.05 2290.1 3210.7 2268.93 3243.16Z" fill="#FF69B3"/>
<path d="M2345.81 3009.07C2338.91 2978.18 2326.09 2946.77 2307.95 2915.59C2331.56 2911.62 2397.62 2885.06 2425.79 2870.26C2443.58 2903.66 2456.88 2937.5 2465.41 2971.43C2438.57 2986.55 2370.86 3005.12 2345.81 3009.07Z" stroke="#333333" stroke-width="5"/>
<path d="M1534.59 2971.43C1543.12 2937.5 1556.42 2903.66 1574.21 2870.26C1602.38 2885.06 1668.44 2911.62 1692.04 2915.59C1673.91 2946.77 1661.08 2978.18 1654.19 3009.07C1629.14 3005.12 1561.43 2986.55 1534.59 2971.43Z" stroke="#333333" stroke-width="5"/>
<path d="M2316.66 3049.55C2111.78 3095.28 1888.2 3095.28 1683.32 3049.55C1685.23 3021.59 1689.25 2990 1695.56 2956.21C1893.21 2998.04 2106.65 2998.04 2304.3 2956.24C2310.65 2990.04 2314.72 3021.59 2316.66 3049.55Z" stroke="#333333" stroke-width="5"/>
<path d="M2268.93 3243.16C2092.96 3274.9 1907.56 3274.92 1731.58 3243.25C1710.31 3210.69 1695.1 3175 1687.51 3138.47C1889.99 3182.86 2110.13 3182.85 2312.61 3138.45C2305.13 3175.05 2290.1 3210.7 2268.93 3243.16Z" stroke="#333333" stroke-width="5"/>
<path d="M2355 2822.5C2416.5 2906.5 2470.5 3021 2438 3142C2511 3123.5 2464.5 2943.5 2436.58 2891.74C2421.6 2863.97 2407.28 2834.8 2388.01 2809.74C2376.36 2814.71 2367.42 2817.98 2355 2822.5Z" fill="black" fill-opacity="0.15"/>
<path d="M1644.5 2822.5C1585.67 2904.74 1530.5 3017.5 1562 3142C1489 3123.5 1535.5 2943.5 1563.42 2891.74C1578.4 2863.97 1592.72 2834.8 1611.99 2809.74C1623.64 2814.71 1632.08 2817.98 1644.5 2822.5Z" fill="black" fill-opacity="0.15"/>
<path d="M2218.96 3301.8C2182.7 3311.73 2144.81 3319.37 2105.65 3324.34C2222.91 3282.6 2306.75 3176.45 2317.44 3062.94C2324 3155.5 2284.07 3239.59 2218.96 3301.8Z" fill="black" fill-opacity="0.15"/>
<path d="M1889.24 3323.67C1774.63 3281.25 1693.06 3174.82 1682.55 3062.88C1676 3156 1714.87 3238.58 1779.55 3301.39C1814.68 3311.08 1851.36 3318.63 1889.24 3323.67Z" fill="black" fill-opacity="0.15"/>
<path d="M1601.4 3259.89C1658.22 3259.94 1694.39 3191.78 1659.99 3144.62C1675.9 3099.41 1641.9 3049.23 1593.33 3048.07C1537.33 3046.73 1504.96 3106.57 1510.83 3157.2C1516.31 3204.51 1548.35 3259.85 1601.4 3259.89Z" fill="#F7C394" stroke="#333333" stroke-width="5" stroke-miterlimit="10"/>
<path d="M1510.83 3157.2C1517.61 3215.77 1565.2 3284 1636.2 3251C1567.38 3242.2 1519.2 3125.5 1553.09 3059.16C1547.7 3063 1539.2 3067.5 1525.49 3086.77C1513.2 3108.5 1507.79 3132.97 1510.83 3157.2Z" fill="black" fill-opacity="0.1"/>
<path d="M2398.6 3259.89C2341.78 3259.94 2305.61 3191.78 2340.01 3144.62C2324.09 3099.41 2358.09 3049.23 2406.67 3048.07C2462.67 3046.73 2495.03 3106.57 2489.17 3157.2C2483.69 3204.51 2451.65 3259.85 2398.6 3259.89Z" fill="#F7C394" stroke="#333333" stroke-width="5" stroke-miterlimit="10"/>
<path d="M2489.17 3157.2C2482.39 3215.77 2434.8 3284 2363.8 3251C2432.62 3242.2 2480.8 3125.5 2446.91 3059.16C2452.3 3063 2460.8 3067.5 2474.51 3086.77C2486.8 3108.5 2492.21 3132.97 2489.17 3157.2Z" fill="black" fill-opacity="0.1"/>
<path d="M3133.19 1832.12C3244.29 1934.12 3199.51 2141.41 3124.1 2259.28C3016.64 2427.28 2770.63 2533.03 2644.64 2443.65C2513.06 2350.3 2530.24 2056.73 2683.84 1904.33C2798.52 1790.55 3018.29 1726.64 3133.19 1832.12Z" fill="#F7C394" stroke="#333333" stroke-width="5" stroke-miterlimit="10"/>
<path d="M3003.49 1952.22C3069.49 2020.41 3033.59 2148.9 2981.84 2220.1C2908.09 2321.55 2749.67 2378.79 2673.9 2317.96C2594.76 2254.43 2616.51 2070.74 2718.65 1980.78C2794.91 1913.62 2935.29 1881.7 3003.49 1952.22Z" fill="#FFC9A1"/>
<path d="M3124.1 2259.28C3063.41 2354.13 2929 2462.5 2777.5 2476C2883.86 2451 3037.51 2342.15 3084.14 2269.28C3159.55 2151.41 3199.5 1930.31 3093.23 1842.12C3060.82 1815.23 2978.5 1777 2865.5 1797C3003.5 1754.5 3088.29 1790.87 3133.23 1832.12C3244.29 1934.11 3199.51 2141.41 3124.1 2259.28Z" fill="black" fill-opacity="0.1"/>
<path d="M866.818 1832.12C755.718 1934.12 800.498 2141.41 875.908 2259.28C983.368 2427.28 1229.38 2533.03 1355.37 2443.65C1486.95 2350.3 1469.77 2056.73 1316.17 1904.33C1201.49 1790.55 981.718 1726.64 866.818 1832.12Z" fill="#F7C394" stroke="#333333" stroke-width="5" stroke-miterlimit="10"/>
<path d="M996.518 1952.22C930.518 2020.41 966.418 2148.9 1018.17 2220.1C1091.92 2321.55 1250.34 2378.79 1326.11 2317.96C1405.25 2254.43 1383.5 2070.74 1281.36 1980.78C1205.1 1913.62 1064.72 1881.7 996.518 1952.22Z" fill="#FFC9A1"/>
<path d="M875.908 2259.28C936.598 2354.13 1071.01 2462.5 1222.51 2476C1116.15 2451 962.491 2342.15 915.868 2269.28C840.458 2151.41 800.508 1930.31 906.778 1842.12C939.187 1815.23 1021.51 1777 1134.51 1797C996.508 1754.5 911.718 1790.87 866.778 1832.12C755.718 1934.11 800.498 2141.41 875.908 2259.28Z" fill="black" fill-opacity="0.1"/>
<path d="M2395 2818C2279.65 2863.22 2124 2897 2000 2897C1876 2897 1740.66 2870.57 1605 2818C1597.76 2828.54 1588.39 2844.27 1582 2855C1724 2912 1857 2941 2000 2941C2143 2941 2276 2912 2418 2855C2411.85 2844.3 2402.07 2828.64 2395 2818Z" fill="black" fill-opacity="0.15"/>
<path d="M2500.32 839.001C2542.64 803.151 2376 763.001 2353.8 699.511C2327 623.001 2749.39 826.611 2685.37 960.591C2680.37 971.101 2629.94 1054.59 2267.76 936.821C2665.92 1066 2967.42 1339.94 2966 1847C2964.91 2235.75 2615.93 2837.81 1999.57 2843.18C1404.95 2848.37 1032.93 2246.96 1034 1847C1035.32 1358.56 1466.13 856.061 2000 818.501C2319.41 796.051 2465.29 868.601 2500.32 839.001Z" fill="#B756E3" stroke="#333333" stroke-width="5" stroke-linecap="round" stroke-linejoin="round"/>
<path d="M2565.16 861.34C2535.5 926.5 2353.35 821.34 2033.94 843.8C1380.48 889.738 907.001 1615 1169.36 2202.88C1237.5 2132.5 1320.5 2112.5 1346.95 2103.72C1354.89 2112.29 1364.55 2121.39 1368 2125.5C1286.63 2150.85 1192.07 2205.91 1151.37 2282.34C1075.1 2134.74 1034.37 1979.78 1034.78 1847.01C1036.1 1358.56 1467 856.01 2000.87 818.44C2320.28 795.99 2465.43 868.54 2500.46 838.9C2542.64 803.15 2376 763 2353.81 699.51C2345.24 675.05 2382.63 679.24 2435.36 700.64C2415.36 697.76 2404.36 702.47 2409.81 716.51C2429.19 766.9 2590.11 806.531 2565.16 861.34Z" fill="black" fill-opacity="0.14"/>
<path d="M2964.5 1847.07C2964.14 1974.81 2926.38 2125.58 2853.96 2270.64C2779 2168 2644.73 2127 2631 2127C2635 2122 2647 2107.3 2651 2102.5C2674.5 2108 2779.62 2130.41 2838.28 2208.7C2897.58 2076.55 2924.8 1953.54 2925.12 1837.84C2926.59 1313.6 2571.5 1053 2267.76 936.82C2665.92 1066 2965.92 1340 2964.5 1847.07Z" fill="black" fill-opacity="0.14"/>
<path d="M1725 1203.5C1428 1203.5 1060 1832 1361.5 2122C786 2302 1361.5 2901 2000 2901C2638.5 2901 3214 2302 2638.5 2122C2940 1832 2572 1203.5 2275 1203.5C2148.5 1203.5 2079.49 1262 2000 1320C1920.5 1262 1851.5 1203.5 1725 1203.5Z" fill="#FFCD98" stroke="#333333" stroke-width="5"/>
<path d="M2749.1 1817C2733.4 1508.46 2484.1 1203.81 2267.6 1203.81C2133 1203.81 2051.4 1285.95 2000 1320C1958.9 1291.95 1867.5 1203.81 1731.6 1203.81C1476 1203.81 1253.5 1577 1249.47 1826.52C1227 1558 1433.07 1155 1733 1155C1889 1155 1972 1230 2000 1261C2028 1230 2111 1155 2267 1155C2564.63 1155 2770.5 1536.5 2749.1 1817Z" fill="black" fill-opacity="0.14"/>
<path d="M1148.6 2266.67C1012.67 2511.93 1482.92 2900.5 2000 2900.5C2517.08 2900.5 2993.17 2507.65 2849.75 2262.64C2945.11 2486.75 2490.72 2863 2000 2863C1512.21 2863 1060.31 2491.22 1148.6 2266.67Z" fill="black" fill-opacity="0.1"/>
<path d="M1250.37 1807.39C1243.26 1924.84 1274.39 2037.4 1361.82 2121.5C1351.4 2124.76 1341.35 2129.16 1331.67 2132.69C1354 2125.5 1375.33 2120.41 1400 2116C1315.46 2034.68 1266.53 1924.24 1250.37 1807.39Z" fill="black" fill-opacity="0.1"/>
<path d="M2670.5 2133C2648.74 2126.59 2625.9 2120.63 2600 2116C2685.32 2033.93 2734.37 1922.19 2750.07 1804.14C2757.96 1922.76 2727.06 2036.63 2638.82 2121.5C2650.14 2125.04 2660.06 2129.14 2670.5 2133Z" fill="black" fill-opacity="0.1"/>
<path d="M1759.66 1403.06C1914.55 1421.06 2026.14 1611.81 2009.66 1779.83C1993.28 1947.17 1846.97 2121.83 1679.78 2102.83C1527.98 2085.53 1429.52 1916.61 1426.28 1774.67C1421.97 1584.51 1587.12 1383 1759.66 1403.06Z" fill="white"/>
<path d="M1947.73 1825.22C1969.84 1711.27 1908.23 1603.46 1810.13 1584.43C1712.03 1565.39 1614.58 1642.34 1592.47 1756.3C1570.36 1870.25 1631.97 1978.06 1730.07 1997.09C1828.17 2016.13 1925.62 1939.18 1947.73 1825.22Z" fill="#1F9950" stroke="#333333" stroke-width="5" stroke-miterlimit="10"/>
<path d="M1781.2 1941.56C1839.71 1941.56 1887.14 1888.52 1887.14 1823.1C1887.14 1757.68 1839.71 1704.64 1781.2 1704.64C1722.69 1704.64 1675.26 1757.68 1675.26 1823.1C1675.26 1888.52 1722.69 1941.56 1781.2 1941.56Z" fill="black"/>
<path d="M1874.9 1740.31C1882.35 1719.26 1870.48 1695.86 1848.4 1688.04C1826.31 1680.22 1802.37 1690.95 1794.92 1712C1787.47 1733.05 1799.33 1756.45 1821.42 1764.27C1843.5 1772.08 1867.45 1761.36 1874.9 1740.31Z" fill="white" stroke="#333333" stroke-width="5" stroke-miterlimit="10"/>
<path d="M1835.89 1427C1631.51 1371.11 1461.42 1613.25 1465.58 1795.01C1468.05 1902.26 1524.94 2024.8 1618.28 2086.66C1501.88 2037.88 1429.08 1896.33 1426.28 1774.66C1421.95 1584.55 1587.1 1383.07 1759.64 1403.11C1786.32 1406.3 1812.17 1414.4 1835.89 1427Z" fill="black" fill-opacity="0.05"/>
<path d="M1863.62 1605.54C1750.77 1573.47 1650.88 1670.84 1630.47 1775.98C1613.72 1862.33 1644.54 1945.2 1702.82 1989.33C1620.94 1957.33 1572.59 1859.4 1592.57 1756.44C1614.69 1642.44 1712.15 1565.55 1810.25 1584.59C1829.17 1588.26 1847.26 1595.36 1863.62 1605.54Z" fill="black" fill-opacity="0.15"/>
<path d="M2234 1398.91C2079.46 1419.59 1971.21 1612.27 1990.6 1779.99C2009.9 1946.99 2159.23 2119.09 2326.07 2097.12C2477.54 2077.18 2573.07 1906.57 2573.8 1764.6C2574.78 1574.44 2406.14 1375.87 2234 1398.91Z" fill="white"/>
<path d="M2273.74 1992.69C2371.49 1971.95 2431.21 1863.08 2407.11 1749.53C2383.02 1635.98 2284.24 1560.74 2186.48 1581.48C2088.73 1602.23 2029.02 1711.09 2053.11 1824.64C2077.21 1938.19 2175.98 2013.43 2273.74 1992.69Z" fill="#1F9950" stroke="#333333" stroke-width="5" stroke-miterlimit="10"/>
<path d="M2221.84 1937.71C2280.34 1936.68 2326.84 1882.83 2325.7 1817.41C2324.55 1752 2276.21 1699.8 2217.71 1700.82C2159.2 1701.84 2112.71 1755.7 2113.85 1821.11C2114.99 1886.53 2163.34 1938.73 2221.84 1937.71Z" fill="black"/>
<path d="M2288.34 1764.39C2310.28 1756.19 2321.74 1732.59 2313.92 1711.67C2306.11 1690.75 2281.98 1680.45 2260.03 1688.65C2238.09 1696.85 2226.63 1720.45 2234.45 1741.37C2242.27 1762.28 2266.39 1772.59 2288.34 1764.39Z" fill="white" stroke="#333333" stroke-width="5" stroke-miterlimit="10"/>
<path d="M2573.77 1764.6C2573.11 1887.87 2501.02 2032.73 2382.89 2081.81C2478.18 2020.19 2534.97 1893.73 2535.55 1784.26C2536.51 1600.68 2354.46 1353.02 2149.6 1429.08C2175.6 1413.48 2203.89 1402.94 2233.97 1398.91C2406.14 1375.87 2574.78 1574.44 2573.77 1764.6Z" fill="black" fill-opacity="0.05"/>
<path d="M2295.09 1986.4C2355.95 1942.75 2387.69 1857.33 2368.96 1769.1C2346.56 1663.56 2242.48 1567.69 2130.22 1605.4C2147.25 1593.77 2166.39 1585.58 2186.56 1581.29C2284.32 1560.54 2383.1 1635.77 2407.21 1749.29C2429.51 1854.39 2380.05 1955.46 2295.09 1986.4Z" fill="black" fill-opacity="0.15"/>
<path d="M2553.44 2324.73C2578.61 2328.68 2598.14 2357.38 2589.96 2382.1C2587.93 2387.82 2578.75 2388.43 2577.23 2382.56C2572.79 2365.48 2561.54 2349.04 2547.33 2336C2542.79 2331.83 2547.32 2323.9 2553.44 2324.74V2324.73Z" fill="black" fill-opacity="0.1"/>
<path d="M1446.56 2324.73C1421.39 2328.68 1401.85 2357.38 1410.04 2382.1C1412.07 2387.82 1421.25 2388.43 1422.77 2382.56C1427.21 2365.48 1438.46 2349.04 1452.66 2336C1457.21 2331.83 1452.67 2323.9 1446.56 2324.74V2324.73Z" fill="black" fill-opacity="0.1"/>
<path d="M2518.6 2374.5C2440.1 2422 2238.1 2514.5 2000.1 2513.5C1762.1 2512.5 1560.1 2422 1481.39 2374.5C1488.6 2366 1496.89 2360.5 1503.89 2356C1511.04 2351.4 1506.89 2339 1496.89 2339.5C1486.89 2340 1465.08 2348.5 1452.39 2369.5C1439.7 2390.5 1442.89 2410.5 1445.39 2420C1447.89 2429.5 1464.89 2432 1465.89 2420C1466.26 2415.51 1467.39 2396 1471.89 2391.5C1495.6 2405 1700.1 2545.5 2000.1 2545.5C2300.1 2545.5 2504.6 2405 2528.1 2391.5C2532.6 2396 2533.73 2415.51 2534.1 2420C2535.1 2432 2552.1 2429.5 2554.6 2420C2557.1 2410.5 2560.29 2390.5 2547.6 2369.5C2534.91 2348.5 2513.1 2340 2503.1 2339.5C2493.1 2339 2488.95 2351.4 2496.1 2356C2503.1 2360.5 2510.6 2364 2518.6 2374.5Z" fill="#634B37"/>
<path d="M2253.86 2481.02C2177.92 2500.43 2091.68 2513.89 2000.1 2513.5C1909.08 2513.12 1823.33 2499.65 1747.72 2480.5C1778.57 2607.9 1908.86 2743.43 2000 2743.43C2093.5 2743.43 2226.19 2635.13 2253.86 2481.02Z" fill="#E15F6B"/>
<path d="M2005.59 2513.5C2012.72 2556.23 2010.29 2608.28 2003.12 2643.3C2002.46 2646.54 2004.55 2649.71 2007.8 2650.38C2011.04 2651.04 2014.21 2648.95 2014.88 2645.7C2022.16 2610.12 2024.79 2557.57 2017.73 2513.4C2013.69 2513.46 2009.65 2513.5 2005.59 2513.5Z" fill="black" fill-opacity="0.2"/>
<path d="M2000.1 2513.5C2091.68 2513.89 2177.92 2500.43 2253.86 2481.02C2252.9 2486.35 2251.82 2491.62 2250.62 2496.84C2175.47 2515.81 2090.38 2528.88 2000.1 2528.5C1910.85 2528.13 1826.66 2515.16 1752.13 2496.6C1750.49 2491.23 1749.02 2485.85 1747.72 2480.5C1823.33 2499.65 1909.08 2513.12 2000.1 2513.5Z" fill="black" fill-opacity="0.05"/>
<path d="M1761.91 2483.99C1804.38 2600.56 1916.83 2713.43 2000 2713.43C2086.69 2713.43 2203.65 2620.32 2242.26 2483.91C2246.15 2482.96 2250.02 2482 2253.86 2481.02C2226.19 2635.13 2093.5 2743.43 2000 2743.43C1908.86 2743.43 1778.57 2607.9 1747.72 2480.5C1752.42 2481.68 1757.14 2482.85 1761.91 2483.99Z" fill="black" fill-opacity="0.2"/>
<path d="M2378 2112C2585.11 2112 2753 1944.11 2753 1737C2753 1529.89 2585.11 1362 2378 1362C2170.89 1362 2003 1529.89 2003 1737C2003 1944.11 2170.89 2112 2378 2112Z" fill="#00F3FF" fill-opacity="0.5" stroke="#333333" stroke-width="35"/>
<path d="M1622 2112C1829.11 2112 1997 1944.11 1997 1737C1997 1529.89 1829.11 1362 1622 1362C1414.89 1362 1247 1529.89 1247 1737C1247 1944.11 1414.89 2112 1622 2112Z" fill="#00F3FF" fill-opacity="0.5" stroke="#333333" stroke-width="35"/>
<path d="M2954.5 1777.5C2898 1748 2841.5 1760 2785 1764C2728.18 1768.02 2723.76 1671.5 2783 1671.5C2822.5 1671.5 2945 1712.5 2974 1757C2983.43 1771.47 2968.95 1785.04 2954.5 1777.5Z" fill="#333333"/>
<path d="M1045.5 1777.5C1102 1748 1158.5 1760 1215 1764C1271.82 1768.02 1276.24 1671.5 1217 1671.5C1177.5 1671.5 1055 1712.5 1026 1757C1016.57 1771.47 1031.05 1785.04 1045.5 1777.5Z" fill="#333333"/>
<path d="M1785 2099C1785 2175.35 1883.85 2268 2001.26 2267C2109.48 2266.05 2215 2174.45 2215 2099.22C2215 1947.09 1785 1944.8 1785 2099Z" fill="black" fill-opacity="0.1"/>
<path d="M1782 2081C1782 2157.35 1882.23 2250 2001.27 2249C2111 2248.05 2218 2156.45 2218 2081.22C2218 2020.69 2091.76 1967.45 2001.27 1968.22C1917.25 1969 1782 2009.38 1782 2081Z" fill="#7A5D43"/>
<path d="M1783.58 2067.77C1825.34 2122.52 1908.26 2168.71 2001.43 2167.99C2087.64 2167.31 2172.35 2120.87 2215.52 2066.44C2217.14 2071.3 2218 2076.23 2218 2081.22C2218 2156.45 2111 2248.05 2001.27 2249C1882.23 2250 1782 2157.35 1782 2081C1782 2076.46 1782.54 2072.05 1783.58 2067.77Z" fill="black" fill-opacity="0.2"/>
<path d="M1256.5 1165C1169 1357 2443.5 1603.5 2900 1467.5C3054 419.5 1443.5 359.501 1256.5 1165Z" fill="white" stroke="#333333" stroke-width="5" stroke-linejoin="round"/>
<path fill-rule="evenodd" clip-rule="evenodd" d="M2694.51 1501.44C2772.97 1495.54 2842.89 1484.52 2900 1467.5C2990.96 848.475 2466.3 574.157 1983.01 619.303C2392.56 661.042 2764.31 949.621 2694.51 1501.44Z" fill="black" fill-opacity="0.1"/>
<path d="M1256.5 1165C1169 1357 2443.5 1603.5 2900 1467.5C1947 2284 85.0017 1467.5 1256.5 1165Z" fill="#333333" stroke="#333333" stroke-width="5" stroke-linejoin="round"/>
<path fill-rule="evenodd" clip-rule="evenodd" d="M1135.85 1679.81C1136.73 1680.04 1137.61 1680.27 1138.5 1680.5C1541.27 1784.94 2153.35 1750.43 2558.52 1506.65C2692.47 1505.83 2811.58 1493.84 2900 1467.5C2366.19 1924.84 1547.2 1869.84 1135.85 1679.81Z" fill="black" fill-opacity="0.3"/>
<path fill-rule="evenodd" clip-rule="evenodd" d="M1276.73 1232.43C1084.07 1292.71 895.719 1368.48 897.08 1488.27C840.661 1371.47 932.725 1248.6 1256.5 1165C1246.48 1186.98 1254.32 1209.68 1276.73 1232.43Z" fill="black" fill-opacity="0.3"/>
<rect x="1795.98" y="732" width="551.321" height="551.319" rx="275.66" transform="rotate(14.2788 1795.98 732)" fill="#FBDD11"/>
<path d="M2262.28 1135.11C2224.73 1282.65 2074.69 1371.81 1927.15 1334.27C1779.61 1296.72 1690.44 1146.67 1727.99 999.132C1728.22 998.241 1728.45 997.351 1728.69 996.464C1692.88 1143.14 1781.86 1291.6 1928.51 1328.92C2075.16 1366.24 2224.28 1278.38 2262.95 1132.44C2262.73 1133.33 2262.51 1134.22 2262.28 1135.11Z" fill="#E8C900"/>
<path d="M2261.58 1137.79C2297.39 991.116 2208.41 842.654 2061.76 805.332C1915.11 768.01 1765.99 855.874 1727.32 1001.82C1727.54 1000.93 1727.76 1000.04 1727.99 999.144C1765.54 851.604 1915.58 762.44 2063.12 799.989C2210.66 837.538 2299.83 987.582 2262.28 1135.12C2262.05 1136.01 2261.82 1136.9 2261.58 1137.79V1137.79Z" fill="#FFEF7F"/>
<rect x="1815.9" y="765.523" width="496.189" height="496.187" rx="248.094" transform="rotate(14.2788 1815.9 765.523)" fill="#2A2A2E"/>
<rect x="1795.98" y="732" width="551.321" height="551.319" rx="275.66" transform="rotate(14.2788 1795.98 732)" fill="url(#paint0_radial_798_8)" stroke="#333333" stroke-width="5"/>
<path fill-rule="evenodd" clip-rule="evenodd" d="M2062.88 1086.95C2073.17 1080.48 2049.69 981.381 1947.17 968.604C1934.11 966.976 1871.51 968.975 1832.45 1050.85C1820.4 1076.1 1871.88 1072.96 1882.07 1064.78C1906.43 1045.22 1941.68 1022.94 1960.25 1027.26C1963.58 1028.04 1970.24 1034.68 1978.92 1043.33C1995.21 1059.56 2018.6 1082.87 2040.41 1087.79C2047.68 1089.44 2056.09 1091.22 2062.88 1086.95ZM1928.16 1048.64C1917.87 1055.1 1941.35 1154.2 2043.87 1166.98C2056.94 1168.61 2119.54 1166.61 2158.6 1084.73C2170.64 1059.49 2119.16 1062.62 2108.97 1070.81C2084.61 1090.37 2049.36 1112.64 2030.8 1108.32C2027.47 1107.54 2020.81 1100.91 2012.13 1092.26C1995.84 1076.03 1972.45 1052.72 1950.63 1047.79C1943.36 1046.15 1934.95 1044.37 1928.16 1048.64Z" fill="black"/>
<path fill-rule="evenodd" clip-rule="evenodd" d="M2043.87 1166.98C1941.35 1154.2 1917.87 1055.1 1928.16 1048.64C1934.95 1044.37 1943.36 1046.15 1950.63 1047.79C1984.07 1055.34 2021.21 1106.09 2030.8 1108.32C2049.36 1112.64 2084.61 1090.37 2108.97 1070.81C2119.16 1062.62 2170.64 1059.49 2158.6 1084.73C2119.54 1166.61 2056.94 1168.61 2043.87 1166.98ZM1947.17 968.604C2049.69 981.381 2073.17 1080.48 2062.88 1086.95C2056.09 1091.22 2047.68 1089.44 2040.41 1087.79C2006.97 1080.24 1969.83 1029.5 1960.25 1027.26C1941.68 1022.94 1906.43 1045.22 1882.07 1064.78C1871.88 1072.96 1820.4 1076.1 1832.45 1050.85C1871.51 968.975 1934.11 966.976 1947.17 968.604Z" fill="#FBDD11"/>
<path fill-rule="evenodd" clip-rule="evenodd" d="M1946.08 972.878C2037.1 984.221 2065.82 1063.6 2063.92 1085.8C2071.25 1072.97 2045.74 980.889 1947.17 968.604C1934.11 966.976 1871.51 968.975 1832.45 1050.85C1831.43 1052.99 1830.86 1054.92 1830.69 1056.66C1830.89 1056.16 1831.11 1055.65 1831.36 1055.13C1870.42 973.249 1933.02 971.251 1946.08 972.878ZM1928.16 1048.64C1927 1049.36 1926.27 1051.25 1926.03 1054.06C1926.33 1053.55 1926.67 1053.16 1927.07 1052.91C1933.86 1048.64 1942.27 1050.42 1949.54 1052.07C1971.36 1056.99 1994.76 1080.31 2011.04 1096.54C2019.72 1105.18 2026.38 1111.82 2029.71 1112.6C2048.27 1116.92 2083.52 1094.64 2107.88 1075.08C2117.21 1067.59 2161.14 1064.33 2159.26 1083.2C2168.52 1059.62 2118.95 1062.79 2108.97 1070.81C2084.61 1090.37 2049.36 1112.64 2030.8 1108.32C2027.47 1107.54 2020.81 1100.91 2012.13 1092.26C1995.84 1076.03 1972.45 1052.72 1950.63 1047.79C1943.36 1046.15 1934.95 1044.37 1928.16 1048.64Z" fill="#FFEF7F"/>
<path fill-rule="evenodd" clip-rule="evenodd" d="M2062.89 1086.93C2064.04 1086.21 2064.77 1084.32 2065.01 1081.51C2064.72 1082.02 2064.37 1082.41 2063.98 1082.66C2057.19 1086.93 2048.77 1085.15 2041.51 1083.51C2019.69 1078.58 1996.3 1055.27 1980.01 1039.04C1971.33 1030.39 1964.67 1023.75 1961.34 1022.98C1942.78 1018.65 1907.53 1040.93 1883.16 1060.49C1873.83 1067.98 1829.9 1071.24 1831.78 1052.38C1822.52 1075.95 1872.09 1072.78 1882.07 1064.77C1906.44 1045.21 1941.69 1022.93 1960.25 1027.25C1963.58 1028.03 1970.24 1034.66 1978.92 1043.31C1995.21 1059.54 2018.6 1082.85 2040.42 1087.78C2047.69 1089.42 2056.1 1091.21 2062.89 1086.93ZM2044.97 1162.69C1953.95 1151.34 1925.23 1071.96 1927.13 1049.77C1919.8 1062.58 1945.31 1154.68 2043.88 1166.96C2056.94 1168.59 2119.54 1166.59 2158.6 1084.71C2159.62 1082.58 2160.19 1080.65 2160.36 1078.91C2160.16 1079.41 2159.94 1079.92 2159.69 1080.44C2120.63 1162.32 2058.03 1164.32 2044.97 1162.69Z" fill="#E8C900"/>
<path fill-rule="evenodd" clip-rule="evenodd" d="M2110.07 2735.43L2258.81 2752.55C2264.07 2753.22 2267.99 2758.26 2267.3 2763.56L2250.09 2907.88C2248.23 2922.24 2232.41 2925.52 2220.3 2924.16C2190.06 2921.99 2108.19 2913.24 2044.4 2906.14L2045.89 2907.54C2045.89 2907.54 2208.48 2925.63 2345.36 2940.89C2347 2947.5 2347.67 2951.07 2349.5 2959C2350.22 2962.11 2350.5 2966 2354.5 2966.5C2358.47 2967 2359.29 2965.98 2360 2960.5C2360.91 2953.49 2361.65 2946.82 2362.12 2942.76C2365.59 2943.13 2369.06 2943.52 2372.53 2943.91C2374.5 2950.5 2375.5 2958.5 2377 2964C2378.5 2969.5 2386 2972 2387 2965C2388.14 2957.02 2388.56 2953.7 2389.46 2945.8L2399.71 2946.95C2402 2955 2402.16 2960.41 2404.5 2969C2406 2974.5 2413.78 2975.5 2414.5 2969C2415.5 2960 2416.19 2954.21 2416.81 2948.84L2426.89 2949.96C2427.5 2951.8 2430.92 2968.62 2432 2973.5C2433 2978 2440.49 2978.24 2441 2975C2442.5 2965.5 2443.54 2957 2444.12 2951.9L2454.07 2953C2456 2958.5 2457.2 2968.37 2458.88 2975.5C2459.92 2979.92 2461.49 2980.72 2464 2981C2468.5 2981.5 2468.98 2976.19 2469.5 2972C2470.02 2967.81 2471.47 2954.94 2471.47 2954.94L2482.04 2956.12C2484 2965 2485.72 2972.34 2487 2980C2488 2986 2496.56 2985.23 2496.9 2981.66L2499.6 2958.08C2503.05 2958.46 2506.27 2958.82 2509.2 2959.16C2510.5 2964.5 2513.03 2975.15 2514.5 2982.5C2516 2990 2523.64 2988.58 2524 2985L2526.94 2961.19C2532 2961.5 2536.66 2962.43 2538.5 2967.5C2539.86 2965.24 2542.29 2964.35 2545.08 2964.72L2614.01 2973.87C2619.5 2974.6 2623.79 2982.37 2624.89 2987.22C2631.17 2988.32 2663.17 3008.6 2687.07 3032.82C2708.21 3034.03 2746.17 3036.82 2770.54 3036.51C2776.09 3015.84 2783.5 3002.25 2789.89 3003.07C2869.75 3013.44 2949.64 3023.73 3029.51 3034.06C3034.91 3034.77 3039.62 3038.46 3041.61 3043.54C3056.34 3081.88 3052.74 3129.95 3026.43 3162.61C3023.18 3166.66 3017.92 3168.77 3012.77 3168.09C2932.68 3157.75 2852.27 3147.36 2772.64 3137.09C2787.22 3138.96 2822.41 3143.46 2772.58 3137.02C2768.27 3136.46 2765.17 3129.44 2763.58 3118.36L2743.6 3115.77C2741.39 3115.44 2741.57 3112.07 2741.5 3110.33C2731.13 3109.22 2702.83 3104.65 2693.32 3101.8C2692.75 3104.98 2692.81 3108.34 2691.48 3111.33C2688.75 3117.5 2688.68 3125.5 2688.68 3130.85C2687.5 3145 2684.65 3167 2679.5 3181.5C2678.61 3184 2674.5 3188 2666.45 3187.46C2666.44 3193.61 2666.2 3199.7 2665.68 3205.69C2609.59 3200.4 2553.69 3192.59 2497.82 3185.37L2480.03 3210.21C2417.03 3198.23 2356.23 3191.13 2292.79 3183.33L2273.5 3180.96L2272.44 3176.86L2250.88 3174.26C2251.3 3175.92 2251.65 3177.27 2251.9 3178.25L2225.18 3174.95L2224.17 3171.04L2202.55 3168.43L2203.55 3172.31L2178.18 3169.21L2177.18 3165.37L2155.55 3162.76L2156.53 3166.55L2129.81 3163.28L2128.84 3159.54L2107.25 3156.93C2107.64 3158.46 2107.96 3159.7 2108.2 3160.62C2076.03 3156.65 2043.86 3152.75 2011.69 3148.86L2011.39 3148.82L2011.35 3148.82L2004.63 3148L2003.7 3144.44L1982.11 3141.84C1982.48 3143.28 1982.8 3144.48 1983.03 3145.39L1956.33 3142.17L1955.4 3138.61L1933.83 3136.01C1934.2 3137.46 1934.51 3138.67 1934.75 3139.58C1898.85 3135.3 1876.34 3132.71 1875.92 3132.9C1868.65 3148.28 1839.93 3154.84 1820.75 3159.22C1807.04 3162.35 1791.61 3164.06 1779.84 3154.28C1770.07 3146.15 1729.3 3142.29 1729.3 3142.29C1701.79 3160.34 1701.22 3161.33 1699.74 3192.7C1697.03 3201.99 1684.86 3199.07 1677.53 3204.45C1670.84 3209.25 1631.67 3255.22 1630.17 3260.7C1626.07 3272.07 1625.45 3282.34 1630.8 3293.51C1634.42 3314.46 1619.86 3315 1603.23 3315.54C1599.64 3315.08 1506.39 3265.76 1503.16 3262.5C1500.33 3259.01 1501.94 3244.2 1503.95 3237.5C1512.15 3231.17 1515.16 3229.74 1516.43 3227.37C1519.07 3222.45 1518.06 3214.5 1518.8 3209.08C1520.92 3201.89 1559.42 3150.72 1602.24 3135.2C1620.39 3128.88 1636.93 3095.02 1633.04 3071.24C1628.36 3053.03 1617.1 3035.09 1602.32 3023.55C1597.27 3021.95 1592.97 3022.73 1590.5 3020.5C1585.7 3016.18 1585.02 3007.75 1579.74 2999.19C1579.06 2998.08 1571.72 2994.68 1563.46 2991.27C1554.09 2992.32 1544.48 2989.64 1537.03 2983.84C1518.67 2991.42 1398.46 3045.07 1391.7 3050.29C1384.46 3055.88 1282.67 3151.64 1280.67 3152.2C1269.68 3150.96 1258.65 3150.13 1247.68 3148.71C1246.24 3151.58 1234.44 3160.96 1232.5 3162C1230.89 3162.86 1213.53 3159.5 1204.91 3156.44C1201.22 3161.9 1194.97 3165.48 1187.89 3165.47C1172.22 3165.45 1162.46 3147.71 1170.32 3134.52C1166.24 3130.07 1162.14 3124.47 1158.96 3120.12C1152.93 3111.9 1147.18 3112.73 1137.56 3109.71C1132.54 3108.14 1129.99 3103.27 1130.58 3098.05L1160.8 2829.86C1161.64 2822.35 1168.26 2816.89 1175.77 2817.66C1195.11 2819.65 1225.62 2823.17 1250.63 2826.11C1263.14 2780.27 1277.69 2691.59 1606.5 2745.45C1604.2 2735.36 1607.26 2721.63 1623.91 2716.46C1645.29 2709.81 1654.43 2723.49 1657.5 2732C1661.31 2742.59 1658.91 2749.89 1652.5 2756L1661.07 2757.26C1662.12 2752.71 1663.47 2748.3 1665.12 2744.18C1666.53 2740.6 1670.31 2738.38 1674.12 2738.87L1701.23 2742.38C1705.5 2727.77 1712.36 2714.41 1721.93 2703.94C1728.84 2696.39 1739.24 2692.59 1749.39 2693.91L2039.67 2727.32C2039.82 2726.57 2040.11 2726.01 2040.53 2725.64C2043.93 2722.8 2102.43 2730.48 2107.52 2733.12C2108.06 2733.4 2108.93 2734.2 2110.07 2735.43ZM2003.26 2888.19L1963.06 2883.38C1965.02 2884.75 1966.67 2885.85 1967.61 2886.16C1970.43 2887.09 1996.28 2889.27 2003.26 2888.19ZM1930.16 2879.45L1732.91 2855.88C1722.74 2854.58 1713.64 2848.26 1708.87 2839.18C1703.16 2828.26 1699.29 2815.48 1697.32 2802L1666.49 2798C1660.66 2797.28 1657.63 2790.31 1657.5 2785L1619 2779.5C1619 2780.5 1616.81 2782.21 1614.18 2781.94C1557.79 2776.17 1306.53 2724.15 1291.87 2831.98C1296.61 2836.19 1301.47 2849.42 1303.83 2850.58C1321.6 2852.81 1340.53 2855.18 1360.5 2857.69C1358.47 2856.96 1353.5 2856 1353.5 2854.5C1408 2826 1563 2859 1683.23 2869.09L1686.65 2864.27L1689.83 2864.64L1689.83 2864.64C1779.45 2875.04 1869.06 2885.43 1958.75 2895.16C1954.72 2892.27 1946.57 2885.58 1944.47 2884.76C1941.9 2883.75 1933.88 2884.08 1932.12 2883.74C1930.8 2883.48 1930.1 2881.14 1930.16 2879.45ZM2757.2 3095.24L2746.43 3093.85C2744.56 3093.64 2743.96 3095.84 2743.47 3097.2C2734.15 3095.78 2717.32 3092.45 2708.17 3090.36C2709.96 3089.01 2711.55 3087.46 2712.64 3085.71C2727.48 3088.96 2742.46 3091.56 2757.2 3095.24ZM1767.73 3132.81C1746.09 3115.49 1758.3 3082.15 1783.26 3075.47C1785.59 3075.14 1797.25 3076.17 1810.23 3077.51C1806.59 3095.52 1800.32 3120.67 1797.91 3130.19C1797.33 3132.46 1798.67 3134.85 1800.91 3135.53C1805.42 3136.86 1817.97 3137.82 1819.44 3130.96L1831.04 3079.76C1839.52 3080.72 1846.55 3081.54 1849.41 3081.89C1871.39 3085.99 1870 3121.74 1856.85 3133.98C1846.13 3144.91 1829.89 3148.62 1815.24 3149.76C1795.59 3151.95 1784.13 3147.53 1767.73 3132.81ZM1213.53 3116.52L1240.21 2979.11C1240.65 2977.25 1242.81 2976.27 1244.49 2977.11L1360.4 3038.38C1363.19 3039.86 1363.72 3043.78 1361.51 3045.96L1278.17 3127.83C1256.66 3123.85 1235.01 3120.63 1213.53 3116.52ZM1461.36 2994.62C1390 2979.5 1342 2974.5 1273.38 2963.46C1268.11 2962.76 1266.32 2969.88 1270.58 2972.04L1377.81 3030.2C1402 3019 1433.5 3006 1461.36 2994.62Z" fill="#FF6A6A" stroke="#333333" stroke-width="10"/>
<path d="M1616.9 2776.79L1675.6 2784.58L1678.91 2759.63L1620.22 2751.83L1616.9 2776.79Z" fill="#695624"/>
<path d="M1618.4 2765.46L1616.64 2779.1L1659.09 2784.59L1660.85 2770.95L1618.4 2765.46Z" fill="#5B4920"/>
<path d="M1250.56 2826.38C1259.4 2827.35 1281.95 2830.88 1291.81 2832.44C1305.82 2724 1557.71 2776.16 1614.18 2781.94C1624.73 2783.01 1626.65 2748.86 1619.68 2747.66C1277.39 2689.13 1263.24 2780.03 1250.56 2826.38Z" fill="#161719"/>
<path d="M1291.81 2832.44C1305.83 2724.01 1557.7 2776.17 1614.18 2781.94C1618.99 2782.43 1622.01 2775.6 1623.2 2767.95C1622.23 2768.75 1620.99 2769.12 1619.74 2769.01C1560.47 2763.07 1295.57 2709.47 1280.01 2830.16C1283.44 2831.05 1287.36 2831.94 1291.81 2832.44Z" fill="#09090A"/>
<path d="M1834.35 3065.19L1819.44 3130.95C1817.97 3137.82 1805.42 3136.86 1800.91 3135.53C1798.67 3134.85 1797.33 3132.45 1797.91 3130.19C1801.28 3116.87 1812.21 3072.92 1812.94 3060.79C1813.77 3046.48 1834.35 3065.19 1834.35 3065.19Z" fill="#C1C1C1"/>
<path d="M1800.05 3135.2C1804.81 3138.13 1817.97 3137.52 1819.44 3130.95L1834.34 3065.2C1824.31 3056.07 1809.18 3050.13 1824.59 3063.94L1809.69 3129.69C1808.87 3133.48 1803.28 3134.89 1800.05 3135.2Z" fill="#A5A5A5"/>
<path d="M2447.92 3198.03L1916.88 3133.97L1897.17 3035.95L2434.26 3101.04L2447.92 3198.03Z" fill="#161719"/>
<path fill-rule="evenodd" clip-rule="evenodd" d="M1130.58 3098.05C1129.99 3103.27 1132.54 3108.14 1137.56 3109.71C1147.18 3112.73 1152.93 3111.9 1158.96 3120.12C1162.82 3125.4 1168.04 3132.51 1172.91 3137.2C1168.82 3162.3 1190.06 3163.23 1201.18 3155.62C1204.97 3156.47 1231.72 3162.32 1233.66 3161.28C1235.6 3160.24 1246.24 3151.58 1247.68 3148.71C1256.97 3149.91 1271.51 3151.17 1280.67 3152.2C1282.67 3151.64 1384.46 3055.88 1391.7 3050.29C1398.94 3044.7 1536.28 2983.57 1539.33 2982.95C1542.38 2982.34 1578.19 2996.67 1579.74 2999.19C1581.3 3001.72 1588.28 3019.38 1589.99 3020.45C1591.71 3021.52 1596.82 3021.81 1602.32 3023.55C1617.1 3035.09 1628.36 3053.03 1633.04 3071.24C1636.93 3095.02 1620.39 3128.88 1602.24 3135.2C1559.42 3150.71 1520.92 3201.89 1518.8 3209.08C1517.15 3221.16 1517.81 3224.81 1516.43 3227.37C1515.16 3229.74 1512.15 3231.17 1503.95 3237.5C1501.94 3244.2 1500.34 3259.01 1503.16 3262.5C1506.39 3265.76 1599.64 3315.08 1603.23 3315.54C1619.86 3315 1634.42 3314.46 1630.8 3293.51C1625.45 3282.34 1626.07 3272.07 1630.17 3260.7C1631.67 3255.22 1670.84 3209.25 1677.52 3204.45C1684.86 3199.07 1697.03 3201.99 1699.74 3192.7C1701.22 3161.33 1701.79 3160.34 1729.3 3142.29C1729.3 3142.29 1770.07 3146.15 1779.84 3154.28C1791.61 3164.06 1807.04 3162.35 1820.75 3159.22C1839.93 3154.84 1868.65 3148.28 1875.92 3132.9C1876.34 3132.71 1898.85 3135.3 1934.75 3139.58C1932.16 3129.57 1920.47 3084.51 1916.62 3069.66C1913.05 3055.89 1932 3048.18 1935.63 3062.25L1956.33 3142.17L1983.03 3145.39C1980.29 3134.77 1967.45 3085.23 1964.44 3073.59C1961.18 3060.99 1980.77 3055.92 1984.03 3068.51L2004.63 3148C2039.15 3152.18 2073.68 3156.36 2108.2 3160.62C2105.49 3150.14 2091.29 3095.32 2088.25 3083.65C2084.99 3071.02 2104.61 3065.95 2107.87 3078.58L2129.81 3163.28L2156.53 3166.55L2136.7 3089.91C2133.39 3077.52 2153.27 3071.98 2156.3 3084.83L2178.18 3169.21L2203.55 3172.31L2183.8 3095.99C2180.59 3083.59 2200.39 3078.06 2203.41 3090.92L2225.18 3174.95L2251.9 3178.25C2249.2 3167.73 2235.25 3113.91 2232.22 3102.22C2228.96 3089.62 2248.56 3084.55 2251.82 3097.15L2273.5 3180.96C2348.41 3190.17 2416.33 3198.51 2456.6 3203.53L2460.11 3207.63L2480.03 3210.21L2497.82 3185.37C2555.24 3192.79 2609.8 3200.42 2665.68 3205.69C2670.85 3146.4 2648.72 3078.28 2639.81 3020.63C2316.08 2977.96 1622.85 2890.57 1303.83 2850.58C1301.07 2849.23 1294.91 2831.42 1289.51 2830.73C1274.3 2828.9 1208.77 2821.05 1175.77 2817.66C1168.26 2816.89 1161.64 2822.35 1160.8 2829.86L1130.58 3098.05ZM1783.26 3075.47C1758.3 3082.14 1746.09 3115.49 1767.73 3132.81C1784.13 3147.53 1795.59 3151.95 1815.24 3149.76C1829.89 3148.62 1846.13 3144.91 1856.85 3133.98C1870 3121.74 1871.39 3085.99 1849.41 3081.89C1840.26 3080.78 1788.46 3074.74 1783.26 3075.47ZM1240.21 2979.11L1213.53 3116.52C1226.34 3118.97 1258.98 3124.28 1278.17 3127.83L1361.51 3045.96C1363.72 3043.78 1363.19 3039.86 1360.4 3038.38L1244.49 2977.11C1242.81 2976.27 1240.65 2977.25 1240.21 2979.11ZM1461.36 2994.62C1450 2999 1394 3022.5 1377.81 3030.2L1270.58 2972.04C1266.32 2969.88 1268.11 2962.76 1273.38 2963.46L1406.64 2981.65C1428.35 2987.26 1445.04 2990.65 1461.36 2994.62Z" fill="#292C31"/>
<path d="M2785.5 3138.76L3012.77 3168.09C3017.92 3168.77 3023.18 3166.66 3026.43 3162.61C3033.67 3153.62 3045.39 3135.21 3049.07 3106.76C3051.9 3085.39 3049.34 3063.66 3041.61 3043.54C3039.62 3038.46 3034.91 3034.77 3029.51 3034.06L2802.82 3004.73C2802.82 3004.73 2818.69 3010.63 2810.52 3073.82C2802.34 3137.01 2785.5 3138.76 2785.5 3138.76Z" fill="#262827"/>
<path d="M2798.01 3072.22C2802.79 3035.23 2799.16 3004.27 2789.89 3003.07C2780.63 3001.88 2769.25 3030.89 2764.47 3067.88C2759.69 3104.87 2763.32 3135.82 2772.58 3137.02C2781.85 3138.22 2793.23 3109.2 2798.01 3072.22Z" fill="#B8A98A"/>
<path d="M2673.9 3032.28C2688.71 3032.19 2768.2 3039.51 2788.59 3035.15C2791.24 3052.77 2784.31 3095.2 2778.31 3102.55C2762.51 3092.77 2696.14 3085.27 2693.35 3079.31C2690.56 3073.35 2673.9 3032.28 2673.9 3032.28Z" fill="#B8A98A"/>
<path d="M2683.59 3056.16C2687.79 3066.36 2691.99 3076.56 2693.3 3079.3C2696.14 3085.3 2762.51 3092.77 2778.32 3102.55C2780.89 3099.4 2783.64 3089.79 2785.72 3078.44C2762.66 3069.98 2702.17 3061.9 2683.59 3056.16Z" fill="#A89A80"/>
<path d="M2749.31 3097.88C2743.31 3097.8 2705.44 3090.19 2702.07 3088.76C2698.71 3087.34 2690.48 3097.75 2690.16 3100.25C2689.83 3102.76 2737.52 3110.38 2744.51 3110.57C2751.5 3110.76 2749.31 3097.88 2749.31 3097.88Z" fill="#252A28"/>
<path d="M2690.16 3100.25C2689.83 3102.74 2737.53 3110.38 2744.51 3110.57C2749.05 3110.7 2749.72 3105.28 2749.64 3101.48C2748.93 3103.39 2747.63 3104.79 2745.27 3104.73C2739.15 3104.57 2701.85 3098.66 2692.86 3095.55C2691.36 3097.57 2690.27 3099.38 2690.16 3100.25Z" fill="#191C1B"/>
<path d="M2541.14 2994.32L2610.07 3003.48C2613.81 3003.97 2617.25 3001.34 2617.74 2997.6L2619.88 2981.54C2620.37 2977.8 2617.75 2974.37 2614.01 2973.87L2545.08 2964.72C2541.34 2964.22 2537.9 2966.85 2537.41 2970.59L2535.27 2986.65C2534.78 2990.39 2537.41 2993.83 2541.14 2994.32Z" fill="#A5A5A5"/>
<path d="M2536.64 2971.41L2534.61 2991.51C2532.32 3009.33 2615.78 3013.76 2617.26 3002.19L2619.29 2982.09C2618.82 2985.74 2615.32 2988.47 2611.63 2987.99L2542.57 2979.07C2538.87 2978.6 2536.17 2975.07 2536.64 2971.41Z" fill="#939393"/>
<path d="M2558.65 2997.05L2565.6 2997.95C2566.89 2998.12 2568.08 2997.2 2568.24 2995.91L2571.07 2974.03C2571.24 2972.74 2570.33 2971.56 2569.03 2971.39L2562.08 2970.49C2560.79 2970.33 2559.61 2971.24 2559.44 2972.53L2556.61 2994.41C2556.44 2995.7 2557.36 2996.88 2558.65 2997.05Z" fill="#292C31"/>
<path d="M2174.96 3020.15C2176.96 3021.78 2192.93 3045.93 2195.86 3046.3C2198.79 3046.68 2555 3088.39 2558.54 3089.83C2562.08 3091.28 2588.47 3177.39 2593.65 3178.05L2665.45 3187.34C2676 3188.5 2678.3 3184.1 2679.61 3181.87C2681 3179.5 2688.95 3138.82 2688.68 3130.82C2688.7 3125.32 2686.44 3117.96 2690.43 3113.17C2693.59 3108.86 2692.24 3102.79 2694.4 3098.17C2695.31 3096.27 2713.55 3091.46 2714.13 3081.2L2174.96 3020.15Z" fill="#D8D8D8"/>
<path d="M2633.22 3123.5L2688.72 3130.85C2688.75 3122.95 2688.95 3118.41 2691.53 3111.2L2635.29 3105.38C2623.82 3104.33 2621.54 3122.01 2633.22 3123.5Z" fill="#C4C4C4"/>
<path d="M1354.34 2855.5C1393.32 2869.26 1422.83 2881.69 1446.52 2917.91C1449 2922.58 1455.64 2926.79 1458.92 2927.22C1520.43 2935.19 1545.81 2938.3 1595.05 2951.56C1600.73 2953.09 2172.91 3018.53 2174.89 3020.15L2714.1 3081.27C2716.21 3043.44 2635.28 2989.04 2624.89 2987.22C2623.64 2981.79 2623.73 2980.69 2617.42 2980.65C2616.56 2980.54 2616.62 2995.92 2614.68 2996.21C2600.03 2995.54 2551.08 2994.05 2539.5 2984.84C2541.04 2961.91 2534.4 2962.27 2526.94 2961.19L2524.19 2985.18C2523.83 2988.76 2519.7 2990.53 2517.37 2990.23C2510.91 2989.5 2510.38 2960.94 2509.2 2959.16C2506.27 2958.82 2503.05 2958.46 2499.6 2958.08L2496.9 2981.66C2496.56 2985.23 2492.05 2985.91 2489.72 2985.61C2485.24 2985.1 2483.21 2957.92 2482.04 2956.12L2471.47 2954.94L2468.83 2978.03C2468.47 2981.6 2464.65 2983.33 2462.33 2983.02C2457.36 2982.46 2455.24 2954.82 2454.07 2953L2444.12 2951.9L2441.54 2974.5C2441.2 2978.08 2436.57 2978.15 2434.24 2977.84C2429.27 2977.28 2428.05 2951.8 2426.89 2949.96L2416.81 2948.84L2414.27 2970.98C2413.91 2974.55 2409.29 2974.57 2406.96 2974.27C2400.73 2971.55 2400.89 2948.8 2399.71 2946.95L2389.46 2945.8L2386.98 2967.45C2386.63 2971.03 2382.22 2969.83 2379.9 2969.52C2375.01 2967.65 2373.7 2945.78 2372.53 2943.91C2369.1 2943.53 2365.62 2943.13 2362.12 2942.76L2359.7 2963.92C2359.35 2967.5 2354.75 2967.42 2352.42 2967.11C2347.13 2965.01 2346.52 2942.76 2345.36 2940.89C2208.48 2925.63 2045.89 2907.53 2045.89 2907.53L2042.07 2903.97C1923.48 2891.76 1805.08 2878.01 1686.65 2864.27L1683.23 2869.09C1668.08 2871.34 1385.93 2822.77 1354.34 2855.5Z" fill="#E9E9E9"/>
<path d="M2666.7 3052.28C2672.45 3052.29 2677.12 3047.63 2677.13 3041.88C2677.14 3036.12 2672.48 3031.45 2666.73 3031.44C2660.97 3031.43 2656.3 3036.09 2656.29 3041.85C2656.28 3047.6 2660.94 3052.27 2666.7 3052.28Z" fill="#D6D6D6"/>
<path d="M2637.72 3046.56C2643.47 3046.57 2648.14 3041.91 2648.15 3036.15C2648.16 3030.4 2643.5 3025.73 2637.75 3025.72C2631.99 3025.71 2627.32 3030.37 2627.31 3036.12C2627.3 3041.88 2631.96 3046.55 2637.72 3046.56Z" fill="#D6D6D6"/>
<path d="M2648.59 3069.75C2654.35 3069.76 2659.02 3065.1 2659.03 3059.35C2659.04 3053.59 2654.38 3048.92 2648.62 3048.91C2642.87 3048.91 2638.2 3053.56 2638.19 3059.32C2638.18 3065.07 2642.84 3069.75 2648.59 3069.75Z" fill="#D6D6D6"/>
<path d="M2594.18 3091.03C2598.87 3091.04 2602.68 3087.25 2602.68 3082.56C2602.69 3077.87 2598.89 3074.06 2594.21 3074.05C2589.52 3074.05 2585.71 3077.84 2585.7 3082.53C2585.7 3087.22 2589.49 3091.03 2594.18 3091.03Z" fill="#252A28"/>
<path d="M2241.56 3048.41C2246.25 3048.42 2250.06 3044.62 2250.07 3039.93C2250.07 3035.24 2246.28 3031.44 2241.59 3031.43C2236.9 3031.42 2233.09 3035.22 2233.09 3039.91C2233.08 3044.6 2236.87 3048.4 2241.56 3048.41Z" fill="#252A28"/>
<path d="M2284.02 3049.35L2559.76 3080.67L2570.08 3064.94L2272.13 3031.16L2284.02 3049.35Z" fill="#A5A5A5"/>
<path d="M1684.17 2962.26L2174.96 3020.14L2153.84 2991.4L1703.5 2939.73L1684.17 2962.26Z" fill="#BFBFBF"/>
<path d="M2785.49 3138.71L3012.77 3168.09C3017.92 3168.76 3023.18 3166.65 3026.44 3162.61C3033.11 3154.34 3043.6 3138.01 3048.07 3113.22L2809.32 3082.35C2800.8 3137.24 2785.49 3138.71 2785.49 3138.71Z" fill="#181919"/>
<path d="M2457.5 3205L2460.05 3207.59L2479.97 3210.17L2497.76 3185.32C2517.43 3187.87 2537.15 3190.42 2556.97 3192.99C2592.36 3197.57 2628.04 3202.19 2664.2 3206.85C2665.4 3207 2666.47 3206.06 2666.46 3204.85L2666.36 3193.02L2492.8 3170.66L2476.13 3193.9L2456.22 3191.32L2452.71 3187.23C2391.54 3179.61 2330.01 3172.07 2268.68 3164.54L2273.5 3180.96C2334.5 3188.46 2387 3195.5 2457.5 3205Z" fill="#191B1E"/>
<path d="M2251.85 3178.26L2225.13 3174.96L2220.33 3158.56C2229.2 3159.64 2238.96 3160.84 2247.63 3161.92L2251.85 3178.26Z" fill="#191B1E"/>
<path d="M2203.54 3172.32L2178.17 3169.22L2173.38 3152.81L2199.32 3155.96L2203.54 3172.32Z" fill="#191B1E"/>
<path d="M2156.54 3166.56L2129.82 3163.29L2125.03 3146.87L2152.31 3150.2L2156.54 3166.56Z" fill="#191B1E"/>
<path d="M2108.21 3160.64C2071.63 3156.12 2036.24 3151.85 2004.64 3148.02L1999.83 3131.57C2031.31 3135.38 2067.49 3139.79 2103.98 3144.24L2103.98 3144.3L2108.21 3160.64Z" fill="#191B1E"/>
<path d="M1983.07 3145.4L1956.37 3142.18L1951.55 3125.73L1978.85 3129.01L1978.84 3129.07L1983.07 3145.4Z" fill="#191B1E"/>
<path d="M2743.6 3115.77L2773.74 3119.67C2774.46 3119.76 2775.21 3119.43 2775.63 3118.84C2779.63 3113.1 2780.6 3105.59 2778.19 3099.02C2777.93 3098.34 2777.29 3097.83 2776.57 3097.74L2746.43 3093.85C2745.62 3093.76 2744.8 3094.2 2744.43 3094.92C2741.84 3100.24 2740.78 3108.42 2741.94 3114.21C2742.11 3115.01 2742.79 3115.65 2743.6 3115.77Z" fill="#252A28"/>
<path d="M2741.87 3114.21C2742.04 3115.03 2742.73 3115.67 2743.57 3115.77L2773.71 3119.68C2774.43 3119.77 2775.18 3119.44 2775.6 3118.85C2778.34 3114.92 2779.79 3110.04 2779.45 3105.25C2778.79 3107.29 2777.84 3109.23 2776.61 3111C2776.19 3111.6 2775.44 3111.92 2774.72 3111.83L2744.58 3107.93C2743.74 3107.83 2743.05 3107.18 2742.88 3106.36C2742.57 3104.42 2742.51 3102.45 2742.69 3100.49C2741.42 3105.04 2741.14 3107.55 2741.87 3114.21Z" fill="#191C1B"/>
<path d="M2772.63 3137.09L2785.49 3138.74C2785.49 3138.74 2802.35 3137.09 2810.52 3073.89C2818.68 3010.69 2802.81 3004.8 2802.81 3004.8L2789.95 3003.13C2799.22 3004.33 2802.84 3035.29 2798.07 3072.28C2793.3 3109.28 2781.9 3138.29 2772.63 3137.09Z" fill="#9B8E78"/>
<path d="M1361.12 2857.95C1358.1 2856.77 1355.74 2856.03 1354.34 2855.5C1347.5 2852.81 1385.8 2840.82 1435.04 2843.63C1484.29 2846.45 1683.25 2869.22 1683.25 2869.22L1686.67 2864.4C1805.12 2878.14 1923.55 2891.81 2042.16 2904.02L2045.98 2907.59C2045.98 2907.59 2208.57 2925.68 2345.45 2940.94L2350.23 2963.75C2350.87 2966.85 2358.3 2968.02 2359.6 2964.72L2358.79 2971.77C2358.36 2975.59 2349.97 2975.17 2349.23 2971.55L2344.44 2948.74L2044.97 2915.37L2041.15 2911.81C1922.54 2899.61 1804.13 2885.89 1685.69 2872.15L1682.28 2876.95C1682.28 2876.95 1483.3 2854.19 1434.07 2851.37C1401.93 2849.51 1374.43 2853.84 1361.12 2857.95Z" fill="#BFBFBF"/>
<path d="M2508.31 2966.95C2506.67 2966.79 2504.94 2966.61 2503.12 2966.41C2501.73 2966.26 2500.29 2966.1 2498.81 2965.94L2499.7 2958.08C2502.91 2958.43 2506.11 2958.79 2509.31 2959.16L2514.74 2984.96C2515.42 2988.27 2522.75 2989.38 2524.1 2985.93L2523.29 2992.98C2522.84 2996.95 2514.52 2996.54 2513.72 2992.76L2508.31 2966.95Z" fill="#BFBFBF"/>
<path d="M2526.12 2969L2529.83 2969.41C2532.5 2969.76 2540.88 2972.49 2538.55 2992.63C2538.04 2996.63 2570.54 3000.86 2576.95 3001.69C2583.36 3002.52 2611.78 3004.29 2613.74 3003.98C2614.83 3003.83 2615.95 2994.6 2615.59 2994.66C2605.24 2996.37 2549.78 2992.89 2540.3 2983.26C2542.37 2964.87 2533.51 2961.97 2530.84 2961.62L2527.01 2961.19L2526.12 2969Z" fill="#BFBFBF"/>
<path d="M2621.38 2988.9C2622.74 2989.08 2623.96 2995.02 2623.96 2995.02C2633.63 2996.71 2704.52 3044.03 2712.46 3081.08L2714.17 3081.28C2716.28 3043.45 2635.35 2989.05 2624.96 2987.23C2624.96 2987.23 2623.77 2981.29 2622.39 2981.11C2620.77 2980.89 2619.12 2980.87 2617.49 2980.66C2617.01 2980.58 2616.61 2987.37 2616.52 2988.46C2618.14 2988.66 2619.77 2988.7 2621.38 2988.9Z" fill="#BFBFBF"/>
<path d="M2470.65 2962.8L2481.1 2963.97L2486.41 2989.28C2487.21 2993.13 2495.49 2993.84 2495.97 2989.5L2496.78 2982.5C2495.52 2985.73 2488.14 2985.06 2487.41 2981.54L2482.11 2956.22L2471.54 2955.04L2470.65 2962.8Z" fill="#BFBFBF"/>
<path d="M2453.13 2960.85L2443.31 2959.76L2444.19 2951.99L2454.14 2953.09L2459.34 2977.9C2460.02 2981.21 2467.34 2982.3 2468.69 2978.87L2467.88 2985.87C2467.46 2989.85 2459.11 2989.43 2458.32 2985.65L2453.13 2960.85Z" fill="#BFBFBF"/>
<path d="M2415.99 2956.7L2425.99 2957.81L2431.09 2982.13C2431.84 2985.75 2440.23 2986.17 2440.65 2982.35L2441.46 2975.3C2440.11 2978.75 2432.78 2977.64 2432.09 2974.33L2427 2950.01L2416.92 2948.89L2415.99 2956.7Z" fill="#BFBFBF"/>
<path d="M2398.78 2954.79L2388.64 2953.66L2389.54 2945.9L2399.79 2947.05L2404.76 2970.85C2405.39 2973.95 2412.83 2975.12 2414.12 2971.82L2413.31 2978.82C2412.84 2982.98 2404.43 2981.93 2403.75 2978.6L2398.78 2954.79Z" fill="#BFBFBF"/>
<path d="M2361.3 2950.63C2364.73 2950.99 2368.16 2951.37 2371.59 2951.75L2376.48 2975.07C2377.22 2978.7 2385.63 2979.12 2386.04 2975.29L2386.88 2967.8C2385.59 2971.08 2378.26 2969.86 2377.62 2966.75L2372.62 2944.01C2369.15 2943.62 2365.68 2943.23 2362.21 2942.86L2361.3 2950.63Z" fill="#BFBFBF"/>
<path d="M1203.65 3114.9C1206.57 3115.73 1209.55 3116.07 1213.53 3116.52L1240.19 2979.11C1240.63 2977.25 1242.79 2976.27 1244.47 2977.11L1235.22 2971.96C1233.51 2971.11 1231.32 2972.17 1230.95 2974.07L1203.65 3114.9Z" fill="#191B1E"/>
<path d="M1145.57 3095.76L1177.63 2817.86C1167.31 2816.69 1161.79 2821.07 1160.8 2829.86L1130.58 3098.05C1129.99 3103.27 1132.54 3108.14 1137.56 3109.71C1147.13 3112.71 1152.94 3111.97 1158.96 3120.18C1175.78 3143.13 1189.26 3157.56 1233 3162.49C1234.94 3161.45 1246.24 3151.64 1247.68 3148.76C1249.96 3149.06 1278.72 3152.81 1280.67 3152.26C1281.67 3151.98 1308.93 3126.66 1336.23 3101.31C1362.18 3077.21 1388.17 3053.07 1391.7 3050.35C1398.94 3044.77 1536.28 2983.63 1539.33 2983.01C1542.38 2982.38 1578.19 2996.73 1579.74 2999.25C1581.3 3001.78 1588.27 3019.43 1589.99 3020.51C1591.71 3021.59 1596.82 3021.87 1602.32 3023.61C1618.3 3036.54 1631.7 3056.78 1633.77 3077.65C1652.03 3038.26 1598.94 3011.15 1581.76 2983.7C1580.19 2981.2 1544.37 2966.84 1541.34 2967.46C1538.31 2968.07 1400.96 3029.19 1393.71 3034.8C1390.24 3037.49 1365.01 3060.93 1339.48 3084.64C1311.78 3110.38 1283.72 3136.44 1282.69 3136.71C1280.71 3137.23 1251.96 3133.51 1249.7 3133.21C1248.29 3136.08 1237.68 3144.76 1235.68 3145.79C1200.06 3146.7 1178.02 3127.84 1161.03 3104.69C1155.99 3097.81 1153.48 3098.17 1145.57 3095.76Z" fill="#191B1E"/>
<path d="M1702.52 3166.93C1701.28 3146.63 1712.11 3139.46 1727.61 3129.2C1730.72 3127.14 1731.26 3126.86 1734.93 3127.2C1742.2 3127.88 1758.7 3129.43 1768.8 3133.79C1785.38 3147.8 1795.79 3151.93 1815.21 3149.76C1836.93 3148.07 1861.67 3139.46 1866.24 3115.6C1866.64 3115.47 1898.25 3119.42 1930.5 3123.26L1934.73 3139.59C1898.83 3135.31 1876.32 3132.72 1875.9 3132.9C1867.33 3151.06 1828.85 3156.93 1811.47 3161.42C1801.9 3162.98 1787.94 3161.04 1779.82 3154.28C1770.05 3146.16 1729.29 3142.3 1729.29 3142.3C1720.68 3148.57 1704.45 3157.44 1702.52 3166.93Z" fill="#191B1E"/>
<path d="M1628.81 3265.35C1628.81 3265.38 1628.81 3265.42 1628.81 3265.45L1628.83 3265.45C1628.82 3265.42 1628.82 3265.38 1628.81 3265.35Z" fill="#191B1E"/>
<path d="M1628.81 3265.35C1629.35 3255.88 1668.91 3211.86 1677.5 3204.46C1682.12 3202.2 1686.01 3201.09 1689.22 3200.17C1697.67 3197.75 1701.33 3196.71 1700.61 3179.72C1694.7 3187.86 1679.56 3188.94 1671.66 3197.09C1653.8 3215.51 1625.43 3244.76 1628.81 3265.35Z" fill="#191B1E"/>
<path d="M1603.21 3315.55C1599.62 3315.08 1506.37 3265.77 1503.14 3262.51L1503.16 3262.51C1500.38 3259.26 1502.07 3244.92 1503.67 3238.31C1503.6 3242.26 1503.94 3245.69 1505.15 3246.93C1508.38 3250.17 1601.64 3299.5 1605.23 3299.96C1612.18 3299.87 1627.78 3299.06 1630.78 3293.52C1634.43 3314.4 1619.8 3315.07 1603.21 3315.55Z" fill="#191B1E"/>
<path d="M1269.19 2971.05C1269.14 2971.08 1246.1 2954.55 1246.1 2954.55L1246.12 2954.51C1241.93 2952.1 1244.09 2945.45 1248.89 2945.96C1248.89 2945.96 1479.5 2980 1485 2983.01C1476.5 2986.5 1469.5 2990.5 1461.57 2994.49C1396 2981 1339.48 2973.5 1273.33 2963.54C1269.27 2963.01 1266.57 2967.9 1269.19 2971.05Z" fill="#191B1E"/>
<path d="M1187.89 3165.47C1199.2 3165.49 1208.38 3156.33 1208.4 3145.02C1208.42 3133.71 1199.26 3124.53 1187.95 3124.51C1176.64 3124.5 1167.46 3133.65 1167.44 3144.96C1167.42 3156.27 1176.58 3165.46 1187.89 3165.47Z" fill="black"/>
<path d="M1189.14 3142.71L1188.42 3148.32L1202.31 3155.51C1203.99 3153.2 1205.1 3150.51 1205.53 3147.67C1205.96 3144.84 1205.7 3141.94 1204.78 3139.23L1189.14 3142.71Z" fill="#414744"/>
<path d="M1171.17 3151.04L1186.19 3147.68L1186.91 3142.06L1173.27 3135.03C1170.19 3139.62 1169.21 3145.57 1171.17 3151.04Z" fill="#414744"/>
<path d="M1187.91 3150.89C1191.17 3150.9 1193.82 3148.26 1193.82 3145C1193.83 3141.74 1191.19 3139.1 1187.93 3139.09C1184.67 3139.09 1182.03 3141.72 1182.02 3144.98C1182.02 3148.24 1184.65 3150.89 1187.91 3150.89Z" fill="#121413"/>
<path d="M1559.31 2991.49C1579.39 2991.52 1595.7 2975.26 1595.73 2955.18C1595.76 2935.09 1579.5 2918.78 1559.41 2918.75C1539.32 2918.72 1523.02 2934.98 1522.99 2955.07C1522.96 2975.16 1539.22 2991.46 1559.31 2991.49Z" fill="black"/>
<path d="M1561.53 2951.06L1560.24 2961.06L1584.9 2973.81C1590.94 2965.54 1592.6 2954.59 1589.29 2944.9L1561.53 2951.06Z" fill="#414744"/>
<path d="M1529.62 2965.88L1556.28 2959.91L1557.58 2949.91L1533.42 2937.48C1527.97 2945.61 1526.14 2956.14 1529.62 2965.88Z" fill="#414744"/>
<path d="M1559.34 2965.59C1565.13 2965.6 1569.82 2960.92 1569.83 2955.14C1569.84 2949.36 1565.16 2944.66 1559.37 2944.65C1553.59 2944.65 1548.9 2949.33 1548.89 2955.11C1548.88 2960.89 1553.56 2965.59 1559.34 2965.59Z" fill="#121413"/>
<path d="M1659.09 2790.57C1659.55 2794.41 1662.65 2797.52 1666.49 2798L1697.66 2802.05C1703.37 2783.78 1716.22 2759.06 1702.21 2742.5L1674.13 2738.87C1670.31 2738.38 1666.53 2740.6 1665.12 2744.18C1659.51 2758.2 1657.3 2775.58 1659.09 2790.57Z" fill="#695624"/>
<path d="M1656.52 2730.7C1653.45 2722.18 1645.29 2709.81 1623.91 2716.46C1605.54 2722.17 1603.71 2738.28 1607.37 2748.44C1613.52 2765.52 1631.11 2769.77 1646.76 2759.28C1655.94 2753.13 1661.09 2743.4 1656.52 2730.7Z" fill="#292C31"/>
<path d="M1636.27 2750.86C1647.05 2746.98 1653.4 2737.2 1650.45 2729.02C1647.5 2720.84 1636.38 2717.36 1625.6 2721.24C1614.83 2725.12 1608.48 2734.9 1611.42 2743.08C1614.37 2751.25 1625.49 2754.74 1636.27 2750.86Z" fill="#161719"/>
<path d="M1608.45 2750.94C1616.13 2780.99 1674.86 2759.93 1655.31 2728.04C1659.67 2739.61 1653.09 2747.97 1644.39 2753.48C1632.99 2760.72 1614.46 2760.17 1608.45 2750.94Z" fill="#202226"/>
<path d="M1666.49 2798L1701.24 2802.66C1700.41 2796.05 1700.82 2789.16 1701 2782.5L1668.99 2778.52C1659.4 2777.33 1660.86 2764.26 1661.32 2757.38C1659.3 2767.65 1651.89 2796.18 1666.49 2798Z" fill="#5B4920"/>
<path d="M1732.91 2855.88L2239.08 2916.37C2244.39 2917.06 2249.4 2913.19 2250.09 2907.88L2267.3 2763.56C2267.99 2758.26 2264.07 2753.22 2258.82 2752.55L1749.39 2693.91C1739.24 2692.59 1728.84 2696.39 1721.93 2703.94C1691.4 2737.35 1688.48 2800.15 1708.87 2839.18C1713.64 2848.26 1722.74 2854.58 1732.91 2855.88Z" fill="#252A28"/>
<path d="M1732.91 2855.88C1722.74 2854.58 1713.64 2848.26 1708.87 2839.18C1693.44 2809.65 1691.98 2772.31 1701.73 2740.7C1702.06 2764.48 1709.3 2805.27 1738.89 2809.12L2245.05 2869.59C2249.27 2870.14 2253.47 2867.81 2255.25 2863.95L2250.01 2907.87C2249.34 2913.13 2244.3 2917.06 2239 2916.36L1732.91 2855.88Z" fill="#191C1B"/>
<path d="M1932.12 2883.74C1933.88 2884.08 1941.9 2883.75 1944.47 2884.76C1947.04 2885.76 1958.7 2895.59 1960.72 2896.41C1962.51 2897.13 2168.15 2920.41 2220.3 2924.16C2235.31 2925.85 2248.41 2921.18 2249.92 2907.76C2244.87 2906.83 2221.29 2908.67 2215.82 2906.58C2210.35 2904.49 2163.2 2810.63 2147.99 2787.48C2136.02 2769.24 2111.74 2735.31 2107.52 2733.12C2102.43 2730.48 2043.93 2722.8 2040.53 2725.64C2032.44 2732.47 2076.18 2811.75 2071.19 2835.08C2067.42 2852.79 2010.12 2886.99 2003.46 2888.15C1996.79 2889.31 1970.46 2887.1 1967.61 2886.16C1964.76 2885.21 1955.49 2877.09 1950.55 2876.19C1945.62 2875.3 1931.27 2876.81 1930.48 2878.08C1929.69 2879.34 1930.36 2883.39 1932.12 2883.74ZM2100.38 2756.84L2073.96 2754.38C2072.24 2754.23 2070.65 2753.25 2069.75 2751.77L2061.51 2738.38C2060.17 2736.19 2062.04 2733.36 2064.51 2733.63L2089.36 2736.41C2092.07 2736.71 2094.57 2737.99 2096.4 2740.01L2104.39 2748.79C2107.3 2752 2104.54 2757.22 2100.38 2756.84ZM2126.43 2802.05L2091.71 2799.84C2089.7 2799.72 2087.87 2798.49 2086.99 2796.68L2077.95 2778.1C2075.38 2772.81 2079.57 2766.49 2085.44 2766.79L2113.15 2768.25C2117.63 2768.5 2121.8 2770.99 2124.14 2774.82L2133.55 2790.19C2136.77 2795.46 2132.6 2802.42 2126.43 2802.05ZM2047.39 2887.22C2090.93 2859.39 2093.06 2831.41 2092.33 2826.18C2091.51 2820.4 2095.51 2815.19 2101.34 2815.5L2134.69 2817.64C2142.77 2818.23 2149.96 2823.6 2152.82 2831.18C2163.49 2858.86 2185.92 2889.31 2194.24 2900.09C2195.39 2901.59 2194.17 2903.91 2192.23 2903.75C2172.65 2902.24 2101.33 2896.55 2047.94 2889.83C2046.65 2889.65 2046.32 2887.88 2047.39 2887.22Z" fill="black"/>
<path d="M2136.65 2957.39L2150.57 2958.96L2150.06 2963.43L2145.59 2962.93L2143.85 2978.33L2138.89 2977.77L2140.62 2962.37L2136.15 2961.86L2136.65 2957.39Z" fill="#221F23"/>
<path d="M2156.63 2967.69L2157.52 2959.74L2152.55 2959.18L2150.31 2979.06L2155.28 2979.62L2156.18 2971.67L2164.13 2972.56L2163.23 2980.51L2168.2 2981.07L2170.44 2961.2L2165.47 2960.64L2164.58 2968.59L2156.63 2967.69Z" fill="#221F23"/>
<path d="M2575.26 3033.94L2572.36 3029.13L2566.4 3028.46L2572.29 3038.66L2571.28 3047.63L2576.25 3048.19L2577.29 3039L2585.12 3030.57L2579.15 3029.9L2575.26 3033.94Z" fill="#221F23"/>
<path d="M2484.35 3028.78L2481.85 3037.55L2476.88 3036.99L2481.88 3019.44L2486.85 3020L2489.67 3030.67L2494.8 3020.9L2499.76 3021.46L2500.73 3039.68L2495.76 3039.12L2495.28 3030.01L2490.79 3038.56L2486.82 3038.11L2484.35 3028.78Z" fill="#221F23"/>
<path fill-rule="evenodd" clip-rule="evenodd" d="M2533.55 3025.26L2538.49 3043.93L2533.52 3043.37L2532.7 3040.26L2525.08 3039.4L2523.58 3042.25L2518.62 3041.69L2527.59 3024.59L2533.55 3025.26ZM2529.99 3030.04L2527.07 3035.6L2531.6 3036.11L2529.99 3030.04Z" fill="#221F23"/>
<path d="M2547.43 3044.94L2548.58 3034.78L2556.38 3045.95L2561.35 3046.51L2563.36 3028.62L2558.39 3028.06L2557.18 3038.8L2549.45 3027.06L2544.48 3026.5L2542.47 3044.38L2547.43 3044.94Z" fill="#221F23"/>
<path d="M2177.65 2977.61L2177.98 2974.63L2184.19 2975.33L2184.7 2970.86L2178.49 2970.16L2178.88 2966.68L2185.09 2967.38L2185.59 2962.91L2174.42 2961.65L2172.18 2981.52L2183.11 2982.75L2183.61 2978.28L2177.65 2977.61Z" fill="#221F23"/>
<path fill-rule="evenodd" clip-rule="evenodd" d="M2520.51 3029.33C2521.12 3023.91 2515.72 3022.75 2511.74 3022.3L2506.78 3021.74L2504.7 3040.13L2509.67 3040.69L2510.34 3034.72C2516.72 3035.37 2519.95 3034.3 2520.51 3029.33ZM2515.54 3028.77C2515.73 3027.11 2514.58 3026.14 2511.6 3025.81C2511.43 3027.3 2511.15 3029.78 2511.04 3030.78C2514.02 3031.11 2515.28 3031.09 2515.54 3028.77Z" fill="#221F23"/>
<path fill-rule="evenodd" clip-rule="evenodd" d="M2462.36 3036.36C2468.12 3037.01 2473.29 3033.09 2473.91 3027.6C2474.53 3022.11 2470.36 3017.14 2464.6 3016.49C2458.84 3015.84 2453.66 3019.76 2453.05 3025.25C2452.43 3030.74 2456.6 3035.71 2462.36 3036.36ZM2462.92 3031.39C2465.94 3031.73 2468.64 3029.78 2468.94 3027.04C2469.25 3024.3 2467.06 3021.8 2464.04 3021.46C2461.02 3021.12 2458.32 3023.06 2458.01 3025.81C2457.7 3028.55 2459.9 3031.05 2462.92 3031.39Z" fill="#221F23"/>
<path d="M2448.2 3014.64C2449.42 3014.78 2450.57 3015.09 2451.62 3015.54L2451.04 3020.72C2450.16 3019.55 2448.82 3018.73 2447.26 3018.56C2444.24 3018.22 2441.52 3020.39 2441.18 3023.41C2440.84 3026.43 2443.01 3029.15 2446.03 3029.49C2447.59 3029.67 2449.08 3029.17 2450.19 3028.22L2449.72 3032.42C2449.61 3033.41 2446.24 3034.04 2445.03 3033.9C2440.55 3033.4 2435.53 3028.83 2436.15 3023.34C2436.77 3017.86 2442.17 3013.96 2448.2 3014.64Z" fill="#221F23"/>
<path d="M2318.17 2980.86L2328.1 2981.98L2323.85 3019.75L2313.91 3018.63L2318.17 2980.86Z" fill="#221F23"/>
<path d="M2346.98 2984.11L2362.14 3010.4L2364.87 2986.13L2374.81 2987.25L2370.55 3025.01L2360.62 3023.89L2345.47 2997.6L2342.73 3021.87L2332.79 3020.75L2337.05 2982.99L2346.98 2984.11Z" fill="#221F23"/>
<path fill-rule="evenodd" clip-rule="evenodd" d="M2291.34 2977.84L2281.4 2976.72L2277.14 3014.48L2287.08 3015.6L2288.63 3001.84L2297.02 3016.72L2306.96 3017.84L2297.43 3000.94C2302.02 3000.32 2306.18 2997.91 2307 2990.68C2308.12 2980.74 2299.29 2978.74 2291.34 2977.84ZM2289.85 2985.22L2288.79 2994.66C2288.86 2994.67 2288.96 2994.68 2289.07 2994.7C2290.76 2994.92 2296.72 2995.72 2297.27 2990.84C2297.82 2985.98 2292.34 2985.46 2290.25 2985.26C2290.1 2985.25 2289.96 2985.23 2289.85 2985.22Z" fill="#221F23"/>
<path d="M2246.23 3012C2257.75 3013.3 2268.1 3005.46 2269.34 2994.48C2270.57 2983.51 2262.23 2973.55 2250.71 2972.26C2239.18 2970.96 2228.84 2978.8 2227.6 2989.78C2226.36 3000.75 2234.7 3010.71 2246.23 3012Z" fill="#221F23"/>
<path fill-rule="evenodd" clip-rule="evenodd" d="M2205.88 2968.21L2195.94 2967.09L2191.69 3004.85L2201.62 3005.97C2211.06 3007.04 2220.12 3007.05 2221.24 2997.11C2222.02 2990.16 2216.78 2987.55 2214.85 2986.83C2214.95 2986.75 2215.05 2986.68 2215.15 2986.6C2215.27 2986.51 2215.4 2986.42 2215.53 2986.32C2217.15 2985.13 2219.24 2983.6 2219.78 2978.83C2220.73 2970.39 2211.84 2968.88 2205.88 2968.21ZM2204.84 2975.64C2208.02 2976 2211 2976.34 2210.55 2980.31C2210.15 2983.89 2207.33 2983.52 2204.81 2983.2C2204.65 2983.17 2204.48 2983.15 2204.32 2983.13C2204.21 2983.12 2204.11 2983.11 2204 2983.09C2204.28 2980.61 2204.56 2978.13 2204.84 2975.64ZM2203.22 2990.05C2202.94 2992.53 2202.66 2995.02 2202.38 2997.5C2202.75 2997.55 2203.19 2997.61 2203.67 2997.69C2206.6 2998.15 2210.98 2998.84 2211.41 2995C2211.87 2990.92 2207.31 2990.46 2204.1 2990.14L2204.06 2990.14C2203.76 2990.11 2203.48 2990.08 2203.22 2990.05Z" fill="#221F23"/>
<path d="M2422.15 3009.19C2421.58 3023.21 2410.99 3030.07 2400.31 3028.87C2389.33 3027.63 2381.38 3018.22 2382.62 3007.25C2383.86 2996.27 2393.76 2988.38 2404.73 2989.61C2412.32 2990.47 2418.43 2995.46 2421.08 3002.09L2411.77 3004.5C2410.46 3000.74 2407.46 2998.47 2403.78 2998.06C2398.29 2997.44 2393.79 3001.84 2393.05 3008.42C2392.31 3015.01 2395.74 3020.05 2401.23 3020.67C2405.24 3021.12 2409.53 3019.34 2409.97 3015.36L2401.93 3014.46L2402.77 3007L2422.15 3009.19Z" fill="#221F23"/>
<path d="M1601.4 3259.9C1658.22 3259.94 1694.39 3191.79 1659.99 3144.63C1675.9 3099.41 1641.9 3049.23 1593.33 3048.07C1537.33 3046.74 1504.96 3106.58 1510.83 3157.21C1516.31 3204.52 1548.35 3259.85 1601.4 3259.9Z" fill="#F7C394" stroke="#333333" stroke-width="5" stroke-miterlimit="10"/>
<path d="M1510.83 3157.21C1517.61 3215.77 1565.2 3284 1636.2 3251.01C1567.38 3242.2 1519.2 3125.5 1553.09 3059.17C1547.7 3063 1539.2 3067.5 1525.49 3086.78C1513.2 3108.5 1507.79 3132.98 1510.83 3157.21Z" fill="black" fill-opacity="0.1"/>
<path d="M2307.34 3278.07C2278.62 3229.04 2319.21 3163.42 2377.28 3169.32C2408.28 3132.76 2468.76 3136.79 2494.28 3178.14C2523.69 3225.81 2488.37 3283.95 2441.7 3304.44C2398.09 3323.58 2334.15 3323.84 2307.34 3278.07Z" fill="#F7C394" stroke="#333333" stroke-width="5" stroke-miterlimit="10"/>
<path d="M2441.7 3304.44C2387.72 3328.14 2304.79 3321.49 2297.45 3243.55C2339.78 3298.52 2464.84 3281.21 2505.01 3218.48C2504.42 3225.07 2504.82 3234.68 2495.1 3256.24C2482.55 3277.82 2464.15 3294.83 2441.7 3304.44Z" fill="black" fill-opacity="0.1"/>
<defs>
<radialGradient id="paint0_radial_798_8" cx="0" cy="0" r="1" gradientUnits="userSpaceOnUse" gradientTransform="translate(1883.55 792.086) scale(535.66 535.658)">
<stop stop-color="white" stop-opacity="0.15"/>
<stop offset="1" stop-color="white" stop-opacity="0.01"/>
</radialGradient>
</defs>
</svg>
