<svg width="4000" height="4000" viewBox="0 0 4000 4000" fill="none" xmlns="http://www.w3.org/2000/svg">
<path d="M2275.11 3290.64C2224.34 3283.22 2159.95 3258.37 2078.25 3214.64C2066.38 3208.29 2061.58 3192.79 2068 3180.8C2074.35 3168.93 2089.85 3164.13 2101.84 3170.55C2177.29 3210.92 2238.02 3234.67 2282.34 3241.15C2311.27 3245.38 2332.09 3242.15 2344.22 3231.51C2357.83 3219.59 2356.61 3198.51 2353.05 3159.12C2348.88 3113 2343.69 3055.59 2372.83 2989.61C2416.83 2889.89 2526.46 2795.08 2641.92 2812.91C2715.25 2824.26 2785.52 2879.09 2801.65 2953.5C2815.38 3016.86 2795.63 3103.67 2728.12 3127.93C2683.35 3143.92 2632.19 3125.56 2597.28 3095.85C2586.84 3087.17 2585.33 3070.85 2594.22 3060.41C2603.03 3050.07 2619.37 3048.77 2629.7 3057.79C2630.13 3058.15 2673.36 3094.44 2711.19 3080.85C2754.03 3065.47 2760.96 3001.9 2752.75 2964.07C2741 2909.84 2687.15 2870.49 2634.24 2862.3C2541.4 2847.96 2453.44 2930.79 2418.52 3009.79C2394.61 3063.95 2398.96 3112.11 2402.8 3154.6C2406.8 3198.44 2410.51 3239.85 2377.13 3269.1C2349.47 3293.49 2310.06 3295.9 2275.11 3290.64Z" fill="#5993FF" stroke="#333333" stroke-width="5" stroke-miterlimit="10"/>
<path d="M2786.65 2965.53C2797.71 3016.55 2787.83 3080.08 2748.83 3117.61C2800.24 3083.91 2813.9 3010.05 2801.65 2953.53C2785.52 2879.12 2715.26 2824.29 2641.92 2812.93C2575.66 2802.7 2510.14 2831.49 2460.38 2873.75C2574.5 2793 2753.67 2813.39 2786.65 2965.53Z" fill="black" fill-opacity="0.2"/>
<path d="M2717.62 3078.06C2690.59 3109.51 2642.03 3093.32 2614.73 3069.83C2611.59 3067.15 2607.83 3065.29 2603.79 3064.42C2599.76 3063.55 2595.57 3063.69 2591.6 3064.83C2595.57 3057.53 2603.23 3052.6 2611.53 3051.93C2618.13 3051.4 2624.68 3053.52 2629.73 3057.82C2651.8 3077.32 2689.57 3092.99 2717.62 3078.06Z" fill="black" fill-opacity="0.2"/>
<path d="M2073.5 3173.5C2077 3170.5 2089 3164.5 2096.5 3168C2103.48 3171.26 2111.84 3175.39 2121.23 3180.03C2170.65 3204.44 2248.7 3243 2305 3243C2355 3243 2359.5 3218 2352.5 3152C2353.35 3155.82 2354.42 3160.03 2355.56 3164.51C2365.18 3202.26 2379.65 3259 2305 3259C2223.5 3259 2096.21 3188.43 2073.5 3173.5Z" fill="black" fill-opacity="0.2"/>
<path d="M1959.37 3446.51C1964.37 3359.43 1986.77 3292.08 2006.54 3239.7C2026.31 3187.32 2048.96 3095 1963.98 3073.68C1842.48 3043.19 1775.67 3327.8 1770.68 3414.62C1767.75 3465.7 1807.5 3524.95 1859.08 3527.91C1906.56 3530.22 1956.53 3496.12 1959.37 3446.51Z" fill="#5993FF" stroke="#333333" stroke-width="5" stroke-miterlimit="10"/>
<path d="M1769.48 3414.5C1820.98 3407.5 1917.48 3407.5 1957.98 3448.5C1958.32 3445.41 1959.42 3436.56 1959.64 3433.46C1917.48 3396.5 1821.48 3394 1771.62 3401C1771.36 3404.3 1769.76 3411.13 1769.48 3414.5Z" fill="black" fill-opacity="0.15"/>
<path d="M1785.48 3325C1833.24 3369.29 1894.36 3394.13 1963.48 3403.5C1964.06 3398.49 1965.29 3391.32 1965.98 3386.5C1897.38 3377.62 1837.78 3348.9 1789.98 3305.5C1787.98 3311.5 1786.36 3320.77 1785.48 3325Z" fill="black" fill-opacity="0.15"/>
<path d="M2040.63 3446.51C2035.63 3359.43 2013.23 3292.08 1993.46 3239.7C1973.69 3187.32 1951.04 3095 2036.02 3073.68C2157.52 3043.19 2224.33 3327.8 2229.32 3414.62C2232.25 3465.7 2192.5 3524.95 2140.92 3527.91C2093.44 3530.22 2043.47 3496.12 2040.63 3446.51Z" fill="#5993FF" stroke="#333333" stroke-width="5" stroke-miterlimit="10"/>
<path d="M2230.52 3414.5C2179.02 3407.5 2082.52 3407.5 2042.02 3448.5C2041.68 3445.41 2040.58 3436.56 2040.36 3433.46C2082.52 3396.5 2178.52 3394 2228.38 3401C2228.64 3404.3 2230.24 3411.13 2230.52 3414.5Z" fill="black" fill-opacity="0.15"/>
<path d="M2214.52 3325C2166.76 3369.29 2105.64 3394.13 2036.52 3403.5C2035.94 3398.49 2034.71 3391.32 2034.02 3386.5C2102.62 3377.62 2162.22 3348.9 2210.02 3305.5C2212.02 3311.5 2213.64 3320.77 2214.52 3325Z" fill="black" fill-opacity="0.15"/>
<path d="M1910 3556C1942 3556 1973.09 3532.4 1976.7 3499.86C1985.81 3417.65 1882.35 3410.18 1826.03 3408.94C1768.93 3407.69 1672 3418.5 1655.01 3481.21C1640.16 3536 1691.5 3556 1728 3556C1764.5 3556 1777 3543.85 1820.98 3543.85C1859.39 3543.85 1878 3556 1910 3556Z" fill="#F7C394" stroke="#333333" stroke-width="5" stroke-miterlimit="10"/>
<path d="M1909 3534C1877 3534 1858.39 3521.85 1819.98 3521.85C1776 3521.85 1763.5 3534 1727 3534C1698.61 3534 1661.25 3521.9 1653.03 3490.74C1646.3 3538.34 1693.7 3556 1728 3556C1764.5 3556 1777 3543.85 1820.98 3543.85C1859.39 3543.85 1878 3556 1910 3556C1952.86 3556 1983 3521.85 1975.91 3475.74C1972.94 3509.2 1941.87 3534 1909 3534Z" fill="black" fill-opacity="0.1"/>
<path d="M2090 3556C2058 3556 2026.91 3532.4 2023.3 3499.86C2014.19 3417.65 2117.65 3410.18 2173.97 3408.94C2231.07 3407.69 2328 3418.5 2344.99 3481.21C2359.84 3536 2308.5 3556 2272 3556C2235.5 3556 2223 3543.85 2179.02 3543.85C2140.6 3543.85 2122 3556 2090 3556Z" fill="#F7C394" stroke="#333333" stroke-width="5" stroke-miterlimit="10"/>
<path d="M2091 3534C2123 3534 2141.61 3521.85 2180.02 3521.85C2224 3521.85 2236.5 3534 2273 3534C2301.39 3534 2338.75 3521.9 2346.97 3490.74C2353.7 3538.34 2306.3 3556 2272 3556C2235.5 3556 2223 3543.85 2179.02 3543.85C2140.61 3543.85 2122 3556 2090 3556C2047.14 3556 2017 3521.85 2024.09 3475.74C2027.06 3509.2 2058.13 3534 2091 3534Z" fill="black" fill-opacity="0.1"/>
<path d="M1587 3147C1623.5 3147 1652.66 3114.42 1649.04 3078.58C1643.62 3015.06 1667.66 2946.39 1714.99 2880.19C1758.05 2819.94 1804.2 2786.93 1768.7 2748C1733.2 2709.06 1653.14 2751.92 1613.3 2807.5C1547.59 2899.42 1516.11 2996.61 1524.67 3091.18C1527.86 3122.65 1550.5 3147 1587 3147Z" fill="#5993FF" stroke="#333333" stroke-width="5" stroke-miterlimit="10"/>
<path d="M1553.09 3059.16C1552.67 2946.89 1642.7 2781.5 1748.2 2735C1618.2 2714 1503.2 2968.5 1525.49 3086.77C1532.7 3075 1545.2 3063.5 1553.09 3059.16Z" fill="black" fill-opacity="0.15"/>
<path d="M2413 3147C2376.5 3147 2347.34 3114.42 2350.96 3078.58C2356.38 3015.06 2332.34 2946.39 2285.01 2880.19C2241.95 2819.94 2195.8 2786.93 2231.3 2748C2266.8 2709.06 2346.86 2751.92 2386.7 2807.5C2452.41 2899.42 2483.89 2996.61 2475.33 3091.18C2472.14 3122.65 2449.5 3147 2413 3147Z" fill="#5993FF" stroke="#333333" stroke-width="5" stroke-miterlimit="10"/>
<path d="M2446.91 3059.16C2447.33 2946.89 2357.3 2781.5 2251.8 2735C2381.8 2714 2496.8 2968.5 2474.51 3086.77C2467.3 3075 2454.8 3063.5 2446.91 3059.16Z" fill="black" fill-opacity="0.15"/>
<path d="M2000 2548C2154 2548 2220 2683 2260 2794C2300 2905 2318 3014 2318 3086C2318 3238 2179.32 3391.46 2000 3393C1824.47 3394.51 1682 3238 1682 3086C1682 3014 1699.7 2904.5 1740 2794C1780 2683 1846 2548 2000 2548Z" fill="#5993FF" stroke="#333333" stroke-width="5" stroke-miterlimit="10"/>
<path d="M2000 3393C1824.33 3394.59 1670 3236 1682 3056C1692 3204 1827.15 3344.48 2000 3343C2172.85 3341.52 2308 3204 2318 3056C2330 3236 2175.67 3391.41 2000 3393Z" fill="black" fill-opacity="0.15"/>
<path d="M2000 2672C2104 2672 2160 2740 2174 2800C2208.49 2947.82 2238 3074 2178 3150C2118 3226 2043.05 3232 2000 3232C1952.45 3232 1882 3226 1822 3150C1762 3074 1789.56 2956.17 1826 2800C1840 2740 1896 2672 2000 2672Z" fill="#F7C394" stroke="#333333" stroke-width="5" stroke-miterlimit="10"/>
<path d="M2000 3232C1864 3232 1776 3138 1787 3016C1791 3131 1883 3206 2000 3206C2117 3206 2209 3131 2213 3016C2224 3138 2136 3232 2000 3232Z" fill="black" fill-opacity="0.1"/>
<path d="M2456.64 2931.88C2445.41 2940.93 2367.5 2980 2331.15 2973.76C2320 2942 2309.5 2925 2298 2909C2322 2986 2342.5 3127.5 2293 3210C2232.2 3269.77 2109 3300 2000 3300C1891 3300 1767.8 3269.77 1707 3210C1667 3147 1667 3029.5 1702 2909C1692 2921 1684.72 2931.88 1668.85 2973.76C1625 2973.76 1573.77 2958.53 1541.36 2935.88C1562 2871.5 1594 2830 1604.22 2819C1736.28 2870.39 1856.5 2898.13 2000 2898.13C2143.5 2898.13 2284.48 2868.13 2398.59 2823.13C2405.71 2834 2443 2880.5 2456.64 2931.88Z" fill="#FDFF8C" stroke="#333333" stroke-width="5" stroke-linecap="round" stroke-linejoin="round"/>
<path fill-rule="evenodd" clip-rule="evenodd" d="M2231.21 2871.5C2256.54 2866.22 2281.32 2860.15 2305.37 2853.39L2205.03 3067.58L2148.38 3060.42L2133.72 2985.41L2100.87 3054.41L2044.21 3047.26L2012.44 2895.11C2033.04 2894.98 2053.58 2894.24 2073.99 2892.92L2083.22 2994.26L2125.38 2888.41C2138.48 2886.95 2151.5 2885.26 2164.41 2883.36L2180.71 3007.32L2231.21 2871.5ZM2190.58 3268.16C2135.76 3286.66 2072.29 3296.3 2012.58 3296.96L2040.14 3078.82L2137.36 3091.11C2175.01 3095.86 2202.21 3121.58 2197.17 3161.42C2194.26 3184.44 2182.91 3197.86 2166.5 3204.33C2184.81 3215.18 2195.57 3232.88 2192.25 3259.2C2191.85 3262.33 2191.29 3265.31 2190.58 3268.16ZM2119.38 3177.58C2129.61 3178.87 2139.22 3170.43 2140.47 3160.57C2141.76 3150.33 2134.51 3140.13 2124.27 3138.84L2089.92 3134.5L2085.02 3173.24L2119.38 3177.58ZM2074.49 3256.57L2115.79 3261.79C2126.76 3263.18 2135.95 3255.06 2137.25 3244.82C2138.49 3234.95 2131.65 3224.43 2120.69 3223.05L2079.39 3217.83L2074.49 3256.57Z" fill="#D6D950"/>
<path d="M2457 2932C2423.5 2952 2374.5 2975 2331.5 2974C2325 2952 2303.36 2914.78 2298.5 2907C2315.86 2918.29 2324.11 2936.83 2332.46 2954.91C2373.66 2957.46 2428.5 2931.5 2450.5 2911.5C2452.5 2915.5 2456 2926.5 2457 2932Z" fill="black" fill-opacity="0.15"/>
<path d="M2320 3029.86C2330.5 3127 2310.22 3184.75 2291.46 3211.7C2206.5 3284.5 2083.68 3299.27 2000 3300C1881.67 3301 1767.06 3268.34 1706.26 3208.57C1679 3173 1675.31 3094.69 1676.19 3046.66C1676.95 3089.77 1687.08 3147.7 1715.5 3184C1762.3 3243.77 1881.67 3272.04 2000 3271C2129.24 3269.88 2245.61 3245.64 2291.34 3177.89C2319.24 3136.55 2319.28 3077.14 2320 3029.86Z" fill="black" fill-opacity="0.15"/>
<path d="M1669 2974C1626 2975 1575.5 2956 1542 2936C1542.5 2931 1548.5 2917 1550 2914.5C1572 2934.5 1626.84 2957.46 1668.04 2954.91C1674 2942 1682 2920 1702 2907C1697.14 2914.78 1675.5 2952 1669 2974Z" fill="black" fill-opacity="0.15"/>
<path d="M2456.64 2931.88C2445.41 2940.93 2367.5 2980 2331.15 2973.76C2320 2942 2309.5 2925 2298 2909C2322 2986 2342.5 3127.5 2293 3210C2232.2 3269.77 2109 3300 2000 3300C1891 3300 1767.8 3269.77 1707 3210C1667 3147 1667 3029.5 1702 2909C1692 2921 1684.72 2931.88 1668.85 2973.76C1625 2973.76 1573.77 2958.53 1541.36 2935.88C1562 2871.5 1594 2830 1604.22 2819C1736.28 2870.39 1856.5 2898.13 2000 2898.13C2143.5 2898.13 2284.48 2868.13 2398.59 2823.13C2405.71 2834 2443 2880.5 2456.64 2931.88Z" stroke="#333333" stroke-width="5" stroke-linecap="round" stroke-linejoin="round"/>
<path d="M3133.19 1832.12C3244.29 1934.12 3199.51 2141.41 3124.1 2259.28C3016.64 2427.28 2770.63 2533.03 2644.64 2443.65C2513.06 2350.3 2530.24 2056.73 2683.84 1904.33C2798.52 1790.55 3018.29 1726.64 3133.19 1832.12Z" fill="#F7C394" stroke="#333333" stroke-width="5" stroke-miterlimit="10"/>
<path d="M3003.49 1952.22C3069.49 2020.41 3033.59 2148.9 2981.84 2220.1C2908.09 2321.55 2749.67 2378.79 2673.9 2317.96C2594.76 2254.43 2616.51 2070.74 2718.65 1980.78C2794.91 1913.62 2935.29 1881.7 3003.49 1952.22Z" fill="#FFC9A1"/>
<path d="M3124.1 2259.28C3063.41 2354.13 2929 2462.5 2777.5 2476C2883.86 2451 3037.51 2342.15 3084.14 2269.28C3159.55 2151.41 3199.5 1930.31 3093.23 1842.12C3060.82 1815.23 2978.5 1777 2865.5 1797C3003.5 1754.5 3088.29 1790.87 3133.23 1832.12C3244.29 1934.11 3199.51 2141.41 3124.1 2259.28Z" fill="black" fill-opacity="0.1"/>
<path d="M866.818 1832.12C755.718 1934.12 800.498 2141.41 875.908 2259.28C983.368 2427.28 1229.38 2533.03 1355.37 2443.65C1486.95 2350.3 1469.77 2056.73 1316.17 1904.33C1201.49 1790.55 981.718 1726.64 866.818 1832.12Z" fill="#F7C394" stroke="#333333" stroke-width="5" stroke-miterlimit="10"/>
<path d="M996.518 1952.22C930.518 2020.41 966.418 2148.9 1018.17 2220.1C1091.92 2321.55 1250.34 2378.79 1326.11 2317.96C1405.25 2254.43 1383.5 2070.74 1281.36 1980.78C1205.1 1913.62 1064.72 1881.7 996.518 1952.22Z" fill="#FFC9A1"/>
<path d="M875.908 2259.28C936.598 2354.13 1071.01 2462.5 1222.51 2476C1116.15 2451 962.491 2342.15 915.868 2269.28C840.458 2151.41 800.508 1930.31 906.778 1842.12C939.187 1815.23 1021.51 1777 1134.51 1797C996.508 1754.5 911.718 1790.87 866.778 1832.12C755.718 1934.11 800.498 2141.41 875.908 2259.28Z" fill="black" fill-opacity="0.1"/>
<path d="M2395 2818C2279.65 2863.22 2124 2897 2000 2897C1876 2897 1740.66 2870.57 1605 2818C1597.76 2828.54 1588.39 2844.27 1582 2855C1724 2912 1857 2941 2000 2941C2143 2941 2276 2912 2418 2855C2411.85 2844.3 2402.07 2828.64 2395 2818Z" fill="black" fill-opacity="0.15"/>
<path d="M2500.32 839.001C2542.64 803.151 2376 763.001 2353.8 699.511C2327 623.001 2749.39 826.611 2685.37 960.591C2680.37 971.101 2629.94 1054.59 2267.76 936.821C2665.92 1066 2967.42 1339.94 2966 1847C2964.91 2235.75 2615.93 2837.81 1999.57 2843.18C1404.95 2848.37 1032.93 2246.96 1034 1847C1035.32 1358.56 1466.13 856.061 2000 818.501C2319.41 796.051 2465.29 868.601 2500.32 839.001Z" fill="#5993FF" stroke="#333333" stroke-width="5" stroke-linecap="round" stroke-linejoin="round"/>
<path d="M2565.16 861.34C2535.5 926.5 2353.35 821.34 2033.94 843.8C1380.48 889.738 907.001 1615 1169.36 2202.88C1237.5 2132.5 1320.5 2112.5 1346.95 2103.72C1354.89 2112.29 1364.55 2121.39 1368 2125.5C1286.63 2150.85 1192.07 2205.91 1151.37 2282.34C1075.1 2134.74 1034.37 1979.78 1034.78 1847.01C1036.1 1358.56 1467 856.01 2000.87 818.44C2320.28 795.99 2465.43 868.54 2500.46 838.9C2542.64 803.15 2376 763 2353.81 699.51C2345.24 675.05 2382.63 679.24 2435.36 700.64C2415.36 697.76 2404.36 702.47 2409.81 716.51C2429.19 766.9 2590.11 806.531 2565.16 861.34Z" fill="black" fill-opacity="0.14"/>
<path d="M2964.5 1847.07C2964.14 1974.81 2926.38 2125.58 2853.96 2270.64C2779 2168 2644.73 2127 2631 2127C2635 2122 2647 2107.3 2651 2102.5C2674.5 2108 2779.62 2130.41 2838.28 2208.7C2897.58 2076.55 2924.8 1953.54 2925.12 1837.84C2926.59 1313.6 2571.5 1053 2267.76 936.82C2665.92 1066 2965.92 1340 2964.5 1847.07Z" fill="black" fill-opacity="0.14"/>
<path d="M1725 1203.5C1428 1203.5 1060 1832 1361.5 2122C786 2302 1361.5 2901 2000 2901C2638.5 2901 3214 2302 2638.5 2122C2940 1832 2572 1203.5 2275 1203.5C2148.5 1203.5 2079.49 1262 2000 1320C1920.5 1262 1851.5 1203.5 1725 1203.5Z" fill="#FFCD98" stroke="#333333" stroke-width="5"/>
<path d="M2749.1 1817C2733.4 1508.46 2484.1 1203.81 2267.6 1203.81C2133 1203.81 2051.4 1285.95 2000 1320C1958.9 1291.95 1867.5 1203.81 1731.6 1203.81C1476 1203.81 1253.5 1577 1249.47 1826.52C1227 1558 1433.07 1155 1733 1155C1889 1155 1972 1230 2000 1261C2028 1230 2111 1155 2267 1155C2564.63 1155 2770.5 1536.5 2749.1 1817Z" fill="black" fill-opacity="0.14"/>
<path d="M1148.6 2266.67C1012.67 2511.93 1482.92 2900.5 2000 2900.5C2517.08 2900.5 2993.17 2507.65 2849.75 2262.64C2945.11 2486.75 2490.72 2863 2000 2863C1512.21 2863 1060.31 2491.22 1148.6 2266.67Z" fill="black" fill-opacity="0.1"/>
<path d="M1250.37 1807.39C1243.26 1924.84 1274.39 2037.4 1361.82 2121.5C1351.4 2124.76 1341.35 2129.16 1331.67 2132.69C1354 2125.5 1375.33 2120.41 1400 2116C1315.46 2034.68 1266.53 1924.23 1250.37 1807.39Z" fill="black" fill-opacity="0.1"/>
<path d="M2670.5 2133C2648.74 2126.59 2625.9 2120.63 2600 2116C2685.32 2033.93 2734.37 1922.19 2750.07 1804.14C2757.96 1922.76 2727.06 2036.63 2638.82 2121.5C2650.14 2125.04 2660.06 2129.14 2670.5 2133Z" fill="black" fill-opacity="0.1"/>
<mask id="path-41-outside-1_899_4068" maskUnits="userSpaceOnUse" x="2263.55" y="3113" width="282" height="110" fill="black">
<rect fill="white" x="2263.55" y="3113" width="282" height="110"/>
<path fill-rule="evenodd" clip-rule="evenodd" d="M2270.55 3218C2282.86 3161 2338.15 3118 2404.5 3118C2470.85 3118 2526.14 3161 2538.44 3218H2516.97C2505.03 3171.58 2459.2 3137 2404.5 3137C2349.79 3137 2303.97 3171.58 2292.03 3218H2270.55Z"/>
</mask>
<path fill-rule="evenodd" clip-rule="evenodd" d="M2270.55 3218C2282.86 3161 2338.15 3118 2404.5 3118C2470.85 3118 2526.14 3161 2538.44 3218H2516.97C2505.03 3171.58 2459.2 3137 2404.5 3137C2349.79 3137 2303.97 3171.58 2292.03 3218H2270.55Z" fill="#E6E968"/>
<path d="M2270.55 3218L2265.67 3216.94L2264.36 3223H2270.55V3218ZM2538.44 3218V3223H2544.64L2543.33 3216.94L2538.44 3218ZM2516.97 3218L2512.12 3219.25L2513.09 3223H2516.97V3218ZM2292.03 3218V3223H2295.91L2296.87 3219.25L2292.03 3218ZM2404.5 3113C2336.07 3113 2278.52 3157.38 2265.67 3216.94L2275.44 3219.06C2287.19 3164.62 2340.23 3123 2404.5 3123V3113ZM2543.33 3216.94C2530.47 3157.38 2472.92 3113 2404.5 3113V3123C2468.77 3123 2521.8 3164.62 2533.56 3219.06L2543.33 3216.94ZM2516.97 3223H2538.44V3213H2516.97V3223ZM2521.81 3216.75C2509.24 3167.89 2461.24 3132 2404.5 3132V3142C2457.17 3142 2500.81 3175.26 2512.12 3219.25L2521.81 3216.75ZM2404.5 3132C2347.76 3132 2299.75 3167.89 2287.19 3216.75L2296.87 3219.25C2308.18 3175.26 2351.83 3142 2404.5 3142V3132ZM2270.55 3223H2292.03V3213H2270.55V3223Z" fill="#333333" mask="url(#path-41-outside-1_899_4068)"/>
<path fill-rule="evenodd" clip-rule="evenodd" d="M2328.93 3138.72C2348.62 3128.71 2371.33 3123 2395.5 3123C2459.89 3123 2513.87 3163.51 2528.24 3218H2538.44C2526.14 3161 2470.84 3118 2404.5 3118C2376.55 3118 2350.57 3125.63 2328.93 3138.72ZM2339.92 3154.93C2313.26 3168.26 2293.01 3190.89 2284.46 3218H2292.03C2298.75 3191.88 2316.19 3169.5 2339.92 3154.93Z" fill="black" fill-opacity="0.14"/>
<path d="M2398 3259.89C2341.18 3259.94 2305.02 3191.78 2339.41 3144.62C2323.5 3099.41 2357.5 3049.23 2406.07 3048.07C2462.07 3046.73 2494.44 3106.57 2488.57 3157.2C2483.09 3204.51 2451.05 3259.85 2398 3259.89Z" fill="#F7C394" stroke="#333333" stroke-width="5" stroke-miterlimit="10"/>
<path d="M2488.57 3157.2C2481.79 3215.77 2434.2 3284 2363.2 3251C2432.03 3242.2 2480.2 3125.5 2446.31 3059.16C2451.7 3063 2460.2 3067.5 2473.91 3086.77C2486.2 3108.5 2491.61 3132.97 2488.57 3157.2Z" fill="black" fill-opacity="0.14"/>
<rect x="2155" y="3210" width="499" height="306" rx="32" fill="#E6E968" stroke="#333333" stroke-width="5"/>
<path fill-rule="evenodd" clip-rule="evenodd" d="M2155 3476V3484C2155 3501.67 2169.33 3516 2187 3516H2622C2639.67 3516 2654 3501.67 2654 3484V3242C2654 3224.33 2639.67 3210 2622 3210H2614V3444C2614 3461.67 2599.67 3476 2582 3476H2155Z" fill="black" fill-opacity="0.14"/>
<path d="M2155 3242C2155 3224.33 2169.33 3210 2187 3210H2622C2639.67 3210 2654 3224.33 2654 3242V3352C2654 3369.67 2639.67 3384 2622 3384H2187C2169.33 3384 2155 3369.67 2155 3352V3242Z" fill="#E6E968" stroke="#333333" stroke-width="5"/>
<path fill-rule="evenodd" clip-rule="evenodd" d="M2156.28 3361C2160.17 3374.29 2172.45 3384 2187 3384H2622C2639.67 3384 2654 3369.67 2654 3352V3242C2654 3224.33 2639.67 3210 2622 3210H2620.72C2621.55 3212.85 2622 3215.87 2622 3219V3329C2622 3346.67 2607.67 3361 2590 3361H2156.28Z" fill="black" fill-opacity="0.14"/>
<path d="M2363 3376C2363 3352.8 2381.8 3334 2405 3334C2428.2 3334 2447 3352.8 2447 3376V3393H2363V3376Z" fill="#E6E968" stroke="#333333" stroke-width="5"/>
<path fill-rule="evenodd" clip-rule="evenodd" d="M2371.57 3350.57C2378.63 3345.19 2387.44 3342 2397 3342C2420.2 3342 2439 3360.8 2439 3384V3393H2447V3376C2447 3352.8 2428.2 3334 2405 3334C2391.36 3334 2379.24 3340.5 2371.57 3350.57Z" fill="black" fill-opacity="0.14"/>
<rect x="2362.5" y="3359.5" width="85" height="47" rx="7.5" fill="#FEFFAB" stroke="#333333" stroke-width="5"/>
<path fill-rule="evenodd" clip-rule="evenodd" d="M2360 3397V3399C2360 3404.52 2364.48 3409 2370 3409H2440C2445.52 3409 2450 3404.52 2450 3399V3367C2450 3361.48 2445.52 3357 2440 3357H2439V3392C2439 3394.76 2436.76 3397 2434 3397H2360Z" fill="black" fill-opacity="0.14"/>
<rect x="2388.5" y="3374.5" width="33" height="17" rx="2.5" fill="#E6E968" stroke="#333333" stroke-width="5"/>
<path fill-rule="evenodd" clip-rule="evenodd" d="M2231.56 1562.88C2077.8 1587.15 1922.4 1585.53 1768.54 1562.9C1755.78 1561.02 1758.7 1541.23 1771.46 1543.11C1923.31 1565.45 2076.68 1567.08 2228.44 1543.12C2241.18 1541.11 2244.3 1560.87 2231.56 1562.88Z" fill="#333333"/>
<path fill-rule="evenodd" clip-rule="evenodd" d="M1923 1647.3C1971.59 1628.05 2028.41 1628.05 2077.01 1647.3C2080 1640 2081.5 1636 2084.37 1628.7C2031.08 1607.6 1968.92 1607.6 1915.63 1628.7C1918 1635 1920 1640 1923 1647.3Z" fill="#333333"/>
<path fill-rule="evenodd" clip-rule="evenodd" d="M2637.67 1699.28C2745.84 1673.35 2885.36 1692.51 2976.09 1762.07C2986.32 1769.91 2974.15 1785.78 2963.92 1777.94C2878.86 1712.73 2745.82 1693.92 2642.33 1718.73C2629.79 1721.73 2625.13 1702.28 2637.67 1699.28Z" fill="#333333"/>
<path fill-rule="evenodd" clip-rule="evenodd" d="M1362.33 1699.28C1254.17 1673.35 1114.64 1692.51 1023.92 1762.07C1013.68 1769.91 1025.85 1785.78 1036.08 1777.94C1121.14 1712.73 1254.18 1693.92 1357.67 1718.73C1370.21 1721.73 1374.87 1702.28 1362.33 1699.28Z" fill="#333333"/>
<path d="M2675 1825.37C2676.36 1980.26 2601.48 2161.66 2417.5 2161C2233.52 2160.34 2035.55 1896.91 2034 1718.77C2033.33 1642.34 2099.38 1556.2 2311.38 1554.35C2440.21 1553.23 2672.57 1547.83 2675 1825.37Z" fill="#FDFF8C" stroke="#333333" stroke-width="10" stroke-miterlimit="10"/>
<path d="M2402.5 2093C2598.29 2093.7 2676.15 1878.31 2657.36 1712.17C2668.26 1743.38 2674.61 1780.71 2675 1825.37C2676.36 1980.26 2601.48 2161.66 2417.5 2161C2243.17 2160.38 2056.28 1923.83 2035.84 1747.46C2087.56 1911 2249.85 2092.45 2402.5 2093Z" fill="black" fill-opacity="0.1"/>
<path d="M1324.99 1825.37C1323.63 1980.26 1398.51 2161.66 1582.49 2161C1766.47 2160.34 1964.44 1896.91 1965.99 1718.77C1966.66 1642.34 1900.62 1556.2 1688.62 1554.35C1559.79 1553.23 1327.42 1547.83 1324.99 1825.37Z" fill="#FDFF8C" stroke="#333333" stroke-width="10" stroke-miterlimit="10"/>
<path d="M1597.5 2093C1401.7 2093.7 1323.85 1878.31 1342.64 1712.17C1331.73 1743.38 1325.39 1780.71 1325 1825.37C1323.64 1980.26 1398.52 2161.66 1582.5 2161C1756.82 2160.38 1943.71 1923.83 1964.16 1747.46C1912.44 1911 1750.15 2092.45 1597.5 2093Z" fill="black" fill-opacity="0.1"/>
<path d="M1785 2099C1785 2175.35 1883.85 2268 2001.26 2267C2109.48 2266.05 2215 2174.45 2215 2099.22C2215 1947.09 1785 1944.8 1785 2099Z" fill="black" fill-opacity="0.1"/>
<path d="M1782 2081C1782 2157.35 1882.23 2250 2001.27 2249C2111 2248.05 2218 2156.45 2218 2081.22C2218 2020.69 2091.76 1967.45 2001.27 1968.22C1917.25 1969 1782 2009.38 1782 2081Z" fill="#7F6145"/>
<path d="M1783.58 2067.77C1825.34 2122.52 1908.26 2168.71 2001.43 2167.99C2087.64 2167.3 2172.35 2120.87 2215.52 2066.44C2217.14 2071.3 2218 2076.23 2218 2081.22C2218 2156.45 2111 2248.05 2001.27 2249C1882.23 2250 1782 2157.35 1782 2081C1782 2076.46 1782.54 2072.05 1783.58 2067.77Z" fill="black" fill-opacity="0.2"/>
<path d="M2596.13 2395.88C2597.18 2405.03 2597.87 2414.14 2600.19 2423.09C2602.47 2431.88 2606.16 2440.01 2609.83 2448.28C2612.31 2453.91 2607.37 2460.62 2601.15 2457.95C2577.39 2447.25 2569.54 2413.44 2583.66 2392.27C2587.43 2386.86 2595.52 2389.64 2596.13 2395.88Z" fill="black" fill-opacity="0.1"/>
<path d="M2552.5 2432.5C2546 2403.5 2550.26 2371.45 2551 2368.5C2553.5 2358.5 2536.5 2352 2531 2361C2529.1 2364.1 2518.5 2387.5 2520.5 2423C2458 2464.5 2346 2473 2238.5 2464.5C2111 2459 1933 2389.5 1724 2389.5C1581.5 2389.5 1506.5 2408.5 1479 2413.5C1480 2394 1471 2368 1467.5 2362C1461.15 2351.11 1445.5 2358 1448 2369.5C1451.77 2386.85 1452.5 2410 1447 2434.5C1439.92 2466.03 1423.07 2490.76 1421 2498C1417.61 2509.87 1429.07 2513.41 1436 2511C1447.5 2507 1475.5 2461.5 1477.5 2434.5C1522 2428 1561 2415 1724 2417.5C1897.48 2420.16 2075 2482.5 2238.5 2493C2417.22 2504.47 2507.5 2452.5 2524 2444C2535 2485 2557.5 2507 2562.5 2509.5C2574.5 2515.5 2586 2505 2578 2495C2569.36 2484.2 2559 2461.5 2552.5 2432.5Z" fill="#634B37"/>
<path d="M1415.29 2392.44C1429.78 2413.38 1422.45 2447.32 1398.89 2458.44C1392.71 2461.23 1387.66 2454.59 1390.04 2448.92C1393.58 2440.59 1397.1 2432.37 1399.26 2423.55C1401.41 2414.56 1401.95 2405.44 1402.84 2396.27C1403.46 2390.08 1411.34 2386.99 1415.26 2392.42L1415.29 2392.44Z" fill="black" fill-opacity="0.1"/>
<path fill-rule="evenodd" clip-rule="evenodd" d="M1855.17 3356.76C1752.39 3301.9 1682 3192.84 1682 3086C1682 3062.8 1683.84 3035.7 1687.68 3005.93C1722.12 2977.84 1766.09 2961 1814 2961C1924.46 2961 2014 3050.54 2014 3161C2014 3257.35 1945.87 3337.78 1855.17 3356.76Z" fill="black" fill-opacity="0.15"/>
<rect x="1606" y="2937" width="400" height="400" rx="200" fill="white"/>
<rect x="1626" y="2956.99" width="360" height="360" rx="180" fill="#1969FF"/>
<path fill-rule="evenodd" clip-rule="evenodd" d="M1857.2 3138.82C1863.28 3132.44 1829.03 3066.96 1754.66 3076.32C1745.19 3077.51 1701.53 3090.12 1688.72 3154.68C1684.77 3174.59 1720.4 3163.17 1726.1 3155.59C1739.73 3137.48 1760.53 3115.51 1774.35 3115.23C1776.84 3115.17 1782.71 3118.65 1790.36 3123.18C1804.71 3131.68 1825.33 3143.88 1841.55 3143.44C1846.96 3143.29 1853.19 3143.04 1857.2 3138.82ZM1755.62 3135.99C1749.54 3142.38 1783.79 3207.86 1858.16 3198.5C1867.63 3197.3 1911.29 3184.7 1924.1 3120.14C1928.05 3100.23 1892.42 3111.65 1886.72 3119.22C1873.09 3137.34 1852.29 3159.31 1838.47 3159.59C1835.98 3159.64 1830.11 3156.17 1822.47 3151.64C1808.11 3143.14 1787.49 3130.94 1771.27 3131.38C1765.86 3131.52 1759.63 3131.77 1755.62 3135.99Z" fill="white"/>
<path fill-rule="evenodd" clip-rule="evenodd" d="M1647.56 3014.94C1636.28 3039.98 1630 3067.76 1630 3097C1630 3207.46 1719.54 3297 1830 3297C1894.5 3297 1951.87 3266.47 1988.44 3219.06C1957.12 3288.6 1887.21 3337 1806 3337C1695.54 3337 1606 3247.46 1606 3137C1606 3091.05 1621.5 3048.71 1647.56 3014.94Z" fill="black" fill-opacity="0.15"/>
<rect x="1606" y="2937" width="400" height="400" rx="200" stroke="#333333" stroke-width="5"/>
<path fill-rule="evenodd" clip-rule="evenodd" d="M1619.4 3064.88C1610.75 3087.25 1606 3111.57 1606 3137C1606 3186.32 1623.86 3231.48 1653.46 3266.35C1688.05 3245.96 1703.55 3197.04 1676.99 3160.63C1691.9 3118.29 1663.02 3071.58 1619.4 3064.88Z" fill="black" fill-opacity="0.15"/>
<path d="M1601.4 3259.89C1658.22 3259.94 1694.39 3191.78 1659.99 3144.62C1675.9 3099.41 1641.9 3049.23 1593.33 3048.07C1537.33 3046.73 1504.96 3106.57 1510.83 3157.2C1516.31 3204.51 1548.35 3259.85 1601.4 3259.89Z" fill="#F7C394" stroke="#333333" stroke-width="5" stroke-miterlimit="10"/>
<path d="M1510.83 3157.2C1517.61 3215.77 1565.2 3284 1636.2 3251C1567.38 3242.2 1519.2 3125.5 1553.09 3059.16C1547.7 3063 1539.2 3067.5 1525.49 3086.77C1513.2 3108.5 1507.79 3132.97 1510.83 3157.2Z" fill="black" fill-opacity="0.1"/>
<path d="M1837.47 762.324C1949.52 779.034 2192.55 826.732 2447.27 950.138C2631.79 1039.53 2810.28 1178.47 2888.94 1243.19C2914.51 1264.23 2923.25 1299.08 2911.71 1330.1L2902.96 1353.64C2888.28 1393.1 2838.19 1406.22 2805.05 1380.24C2714.37 1309.16 2539.73 1182.74 2327.35 1081.11C2127.25 985.354 1891.55 935.08 1782.91 915.465C1751.51 909.797 1731.81 877.552 1741.9 847.284L1752.28 816.141C1764.38 779.812 1799.59 756.676 1837.47 762.324Z" fill="black" fill-opacity="0.15"/>
<path d="M2818.86 849.633L2835.5 1170L1910.5 767.5L2200.06 545.202C2256.25 502.061 2331.78 493.767 2396 523.686L2692.07 661.624C2765.86 696.005 2814.64 768.33 2818.86 849.633Z" fill="#FDFF8C" stroke="#333333" stroke-width="5"/>
<path fill-rule="evenodd" clip-rule="evenodd" d="M2666.26 649.602L2636.47 713.723C2651.11 714.482 2665.18 719.636 2676.85 728.514C2688.52 737.392 2697.23 749.58 2701.87 763.488C2706.5 777.396 2706.83 792.378 2702.82 806.478C2698.81 820.578 2690.64 833.141 2679.38 842.528L2822.26 914.995L2825.05 968.815L2601.6 852.529L2624.02 919.826C2625.05 922.579 2625.51 925.509 2625.38 928.443C2625.24 931.377 2624.52 934.255 2623.26 936.905C2621.99 939.554 2620.2 941.921 2618 943.865C2615.8 945.808 2613.22 947.288 2610.44 948.216C2607.65 949.145 2604.71 949.502 2601.78 949.268C2598.85 949.033 2596 948.211 2593.4 946.851C2590.79 945.491 2588.49 943.62 2586.63 941.351C2584.76 939.082 2583.37 936.46 2582.55 933.643L2560.13 866.345L2495.68 995.181L2456.56 975.612L2521.01 846.776L2453.71 869.194C2450.96 870.22 2448.03 870.681 2445.09 870.55C2442.16 870.419 2439.28 869.698 2436.63 868.43C2433.98 867.163 2431.61 865.375 2429.67 863.173C2427.73 860.971 2426.25 858.4 2425.32 855.613C2424.39 852.826 2424.03 849.881 2424.27 846.954C2424.5 844.026 2425.32 841.176 2426.68 838.572C2428.04 835.969 2429.91 833.667 2432.18 831.802C2434.45 829.938 2437.08 828.549 2439.89 827.72L2507.19 805.301L2115.2 610.344L2154.97 579.812L2468.55 737.062C2469.31 722.422 2474.46 708.351 2483.34 696.685C2492.22 685.019 2504.4 676.301 2518.31 671.668C2532.22 667.034 2547.2 666.702 2561.3 670.713C2575.4 674.725 2587.97 682.894 2597.35 694.154L2627.37 631.48L2666.26 649.602ZM2567.45 753.931C2570.03 748.773 2571.02 742.966 2570.3 737.243C2569.58 731.521 2567.18 726.14 2563.4 721.783C2559.63 717.425 2554.64 714.285 2549.08 712.761C2543.52 711.236 2537.63 711.395 2532.15 713.218C2526.68 715.041 2521.87 718.446 2518.34 723.001C2514.8 727.557 2512.69 733.059 2512.28 738.812C2511.87 744.565 2513.18 750.311 2516.03 755.322C2518.89 760.333 2523.17 764.385 2528.32 766.965L2554.4 780.011L2567.45 753.931ZM2593.52 799.581L2619.61 812.627C2624.76 815.207 2630.57 816.2 2636.29 815.48C2642.02 814.76 2647.4 812.359 2651.75 808.581C2656.11 804.802 2659.25 799.817 2660.78 794.254C2662.3 788.692 2662.14 782.802 2660.32 777.33C2658.5 771.859 2655.09 767.05 2650.53 763.513C2645.98 759.976 2640.48 757.869 2634.72 757.459C2628.97 757.049 2623.23 758.355 2618.21 761.21C2613.2 764.065 2609.15 768.342 2606.57 773.501L2593.52 799.581Z" fill="#D6D950"/>
<path fill-rule="evenodd" clip-rule="evenodd" d="M2779.47 1145.4L2762.86 825.634C2758.64 744.331 2709.86 672.006 2636.07 637.625L2370 513.664C2378.99 516.316 2387.85 519.654 2396.5 523.685L2692.57 661.623C2766.36 696.004 2815.14 768.329 2819.36 849.632L2836 1170L2779.47 1145.4Z" fill="black" fill-opacity="0.1"/>
<path d="M2818.86 849.633L2835.5 1170L1910.5 767.5L2200.06 545.202C2256.25 502.061 2331.78 493.767 2396 523.686L2692.07 661.624C2765.86 696.005 2814.64 768.33 2818.86 849.633Z" stroke="#333333" stroke-width="5"/>
<path d="M1819.54 726.617C1941.53 745.733 2201.16 798.662 2472.5 930.5C2662.28 1022.71 2845.67 1162.94 2934.84 1235.44C2967.04 1261.61 2972.09 1308.13 2947.44 1341.52L2928.21 1367.57C2908.37 1394.46 2869.31 1398.42 2843.51 1377.2C2763.16 1311.09 2585.11 1176.19 2342 1059.5C2126.35 955.989 1883.05 906.059 1772.47 887.262C1740.02 881.744 1718.03 850.27 1725.02 818.1L1731.43 788.644C1740.32 747.721 1778.16 720.134 1819.54 726.617Z" fill="#E6E968" stroke="#333333" stroke-width="5"/>
<path fill-rule="evenodd" clip-rule="evenodd" d="M2962.7 1301.17C2962.61 1301.29 2962.53 1301.4 2962.44 1301.52L2943.21 1327.57C2923.37 1354.46 2884.31 1358.42 2858.51 1337.19C2778.16 1271.08 2600.11 1136.19 2357 1019.5C2141.35 915.987 1898.05 866.058 1787.47 847.26C1755.02 841.743 1733.03 810.269 1740.02 778.099L1744.1 759.332C1738.16 767.911 1733.78 777.81 1731.42 788.643L1725.02 818.099C1718.03 850.269 1740.02 881.743 1772.47 887.261C1883.05 906.058 2126.35 955.987 2342 1059.5C2585.11 1176.19 2763.16 1311.08 2843.51 1377.19C2869.31 1398.42 2908.37 1394.46 2928.21 1367.57L2947.44 1341.52C2956.47 1329.28 2961.52 1315.29 2962.7 1301.17Z" fill="black" fill-opacity="0.2"/>
</svg>
