<svg fill="none" height="4000" viewBox="0 0 4000 4000" width="4000" xmlns="http://www.w3.org/2000/svg"><path d="m2275.11 3290.64c-50.77-7.42-115.16-32.27-196.86-76-11.87-6.35-16.67-21.85-10.25-33.84 6.35-11.87 21.85-16.66 33.84-10.25 75.45 40.37 136.18 64.12 180.5 70.6 28.93 4.23 49.75 1 61.88-9.64 13.61-11.92 12.39-33 8.83-72.39-4.17-46.12-9.36-103.53 19.78-169.51 44-99.72 153.63-194.53 269.09-176.7 73.33 11.36 143.6 66.19 159.73 140.59 13.73 63.36-6.02 150.17-73.53 174.43-44.77 16-95.93-2.36-130.84-32.08-10.44-8.68-11.95-25-3.06-35.44 8.81-10.34 25.15-11.64 35.48-2.62.43.36 43.66 36.65 81.49 23.06 42.84-15.38 49.77-78.95 41.56-116.78-11.75-54.23-65.6-93.57-118.51-101.77-92.84-14.33-180.8 68.49-215.72 147.49-23.91 54.16-19.56 102.32-15.72 144.81 4 43.84 7.71 85.25-25.67 114.5-27.66 24.4-67.07 26.8-102.02 21.54z" fill="#333232" stroke="#000" stroke-miterlimit="10" stroke-width="5"/><path d="m2786.65 2965.53c11.06 51.02 1.18 114.55-37.82 152.08 51.41-33.7 65.07-107.56 52.82-164.08-16.13-74.41-86.39-129.24-159.73-140.6-66.26-10.23-131.78 18.56-181.54 60.82 114.12-80.75 293.29-60.36 326.27 91.78z" fill="#000" fill-opacity=".4"/><path d="m2717.62 3078.06c-27.03 31.45-75.59 15.26-102.89-8.23-3.14-2.68-6.9-4.54-10.94-5.41-4.03-.87-8.22-.73-12.19.41 3.97-7.3 11.63-12.23 19.93-12.9 6.6-.53 13.15 1.59 18.2 5.89 22.07 19.5 59.84 35.17 87.89 20.24z" fill="#000" fill-opacity=".4"/><path d="m2073.5 3173.5c3.5-3 15.5-9 23-5.5 6.98 3.26 15.34 7.39 24.73 12.03 49.42 24.41 127.47 62.97 183.77 62.97 50 0 54.5-25 47.5-91 .85 3.82 1.92 8.03 3.06 12.51 9.62 37.75 24.09 94.49-50.56 94.49-81.5 0-208.79-70.57-231.5-85.5z" fill="#000" fill-opacity=".4"/><path d="m1587 3147c36.5 0 65.66-32.58 62.04-68.42-5.42-63.52 18.62-132.19 65.95-198.39 43.06-60.25 89.21-93.25 53.71-132.19s-115.56 3.92-155.4 59.5c-65.71 91.92-97.19 189.11-88.63 283.68 3.19 31.47 25.83 55.82 62.33 55.82z" fill="#333232" stroke="#000" stroke-miterlimit="10" stroke-width="5"/><path d="m1553.09 3059.16c-.42-112.27 89.61-277.66 195.11-324.16-130-21-245 233.5-222.71 351.77 7.21-11.77 19.71-23.27 27.6-27.61z" fill="#000" fill-opacity=".4"/><path d="m1959.37 3446.51c5-87.08 27.4-154.43 47.17-206.81s42.42-144.7-42.56-166.02c-121.5-30.49-188.31 254.12-193.3 340.94-2.93 51.08 36.82 110.33 88.4 113.29 47.48 2.31 97.45-31.79 100.29-81.4z" fill="#333232" stroke="#000" stroke-miterlimit="10" stroke-width="5"/><path d="m1769.48 3414.5c51.5-7 148-7 188.5 34 .34-3.09 1.44-11.94 1.66-15.04-42.16-36.96-138.16-39.46-188.02-32.46-.26 3.3-1.86 10.13-2.14 13.5z" fill="#000" fill-opacity=".4"/><path d="m1785.48 3325c47.76 44.29 108.88 69.13 178 78.5.58-5.01 1.81-12.18 2.5-17-68.6-8.88-128.2-37.6-176-81-2 6-3.62 15.27-4.5 19.5z" fill="#000" fill-opacity=".4"/><path d="m2040.63 3446.51c-5-87.08-27.4-154.43-47.17-206.81s-42.42-144.7 42.56-166.02c121.5-30.49 188.31 254.12 193.3 340.94 2.93 51.08-36.82 110.33-88.4 113.29-47.48 2.31-97.45-31.79-100.29-81.4z" fill="#333232" stroke="#000" stroke-miterlimit="10" stroke-width="5"/><path d="m2230.52 3414.5c-51.5-7-148-7-188.5 34-.34-3.09-1.44-11.94-1.66-15.04 42.16-36.96 138.16-39.46 188.02-32.46.26 3.3 1.86 10.13 2.14 13.5z" fill="#000" fill-opacity=".4"/><path d="m2214.52 3325c-47.76 44.29-108.88 69.13-178 78.5-.58-5.01-1.81-12.18-2.5-17 68.6-8.88 128.2-37.6 176-81 2 6 3.62 15.27 4.5 19.5z" fill="#000" fill-opacity=".4"/><path d="m2413 3147c-36.5 0-65.66-32.58-62.04-68.42 5.42-63.52-18.62-132.19-65.95-198.39-43.06-60.25-89.21-93.25-53.71-132.19s115.56 3.92 155.4 59.5c65.71 91.92 97.19 189.11 88.63 283.68-3.19 31.47-25.83 55.82-62.33 55.82z" fill="#333232" stroke="#000" stroke-miterlimit="10" stroke-width="5"/><path d="m2446.91 3059.16c.42-112.27-89.61-277.66-195.11-324.16 130-21 245 233.5 222.71 351.77-7.21-11.77-19.71-23.27-27.6-27.61z" fill="#000" fill-opacity=".4"/><path d="m3133.19 1832.12c111.1 102 66.32 309.29-9.09 427.16-107.46 168-353.47 273.75-479.46 184.37-131.58-93.35-114.4-386.92 39.2-539.32 114.68-113.78 334.45-177.69 449.35-72.21z" fill="#f7c394" stroke="#000" stroke-miterlimit="10" stroke-width="5"/><path d="m3003.49 1952.22c66 68.19 30.1 196.68-21.65 267.88-73.75 101.45-232.17 158.69-307.94 97.86-79.14-63.53-57.39-247.22 44.75-337.18 76.26-67.16 216.64-99.08 284.84-28.56z" fill="#ffc9a1"/><path d="m3124.1 2259.28c-60.69 94.85-195.1 203.22-346.6 216.72 106.36-25 260.01-133.85 306.64-206.72 75.41-117.87 115.36-338.97 9.09-427.16-32.41-26.89-114.73-65.12-227.73-45.12 138-42.5 222.79-6.13 267.73 35.12 111.06 101.99 66.28 309.29-9.13 427.16z" fill="#000" fill-opacity=".1"/><path d="m866.818 1832.12c-111.1 102-66.32 309.29 9.09 427.16 107.46 168 353.472 273.75 479.462 184.37 131.58-93.35 114.4-386.92-39.2-539.32-114.68-113.78-334.452-177.69-449.352-72.21z" fill="#f7c394" stroke="#000" stroke-miterlimit="10" stroke-width="5"/><path d="m996.518 1952.22c-66 68.19-30.1 196.68 21.652 267.88 73.75 101.45 232.17 158.69 307.94 97.86 79.14-63.53 57.39-247.22-44.75-337.18-76.26-67.16-216.64-99.08-284.842-28.56z" fill="#ffc9a1"/><path d="m875.908 2259.28c60.69 94.85 195.102 203.22 346.602 216.72-106.36-25-260.019-133.85-306.642-206.72-75.41-117.87-115.36-338.97-9.09-427.16 32.409-26.89 114.732-65.12 227.732-45.12-138.002-42.5-222.792-6.13-267.732 35.12-111.06 101.99-66.28 309.29 9.13 427.16z" fill="#000" fill-opacity=".1"/><path d="m2000 2548c154 0 220 135 260 246s58 220 58 292c0 152-138.68 305.46-318 307-175.53 1.51-318-155-318-307 0-72 17.7-181.5 58-292 40-111 106-246 260-246z" fill="#333232" stroke="#000" stroke-miterlimit="10" stroke-width="5"/><path d="m2000 3393c-175.67 1.59-330-157-318-337 10 148 145.15 288.48 318 287s308-139 318-287c12 180-142.33 335.41-318 337z" fill="#000" fill-opacity=".4"/><path d="m2000 2672c104 0 160 68 174 128 34.49 147.82 64 274 4 350s-134.95 82-178 82c-47.55 0-118-6-178-82s-32.44-193.83 4-350c14-60 70-128 174-128z" fill="#f7c394" stroke="#000" stroke-miterlimit="10" stroke-width="5"/><path d="m2000 3232c-136 0-224-94-213-216 4 115 96 190 213 190s209-75 213-190c11 122-77 216-213 216z" fill="#000" fill-opacity=".1"/><path d="m2456.64 2931.88c-11.23 9.05-89.14 48.12-125.49 41.88-11.15-31.76-21.65-48.76-33.15-64.76 24 77 44.5 218.5-5 301-60.8 59.77-184 90-293 90s-232.2-30.23-293-90c-40-63-40-180.5-5-301-10 12-17.28 22.88-33.15 64.76-43.85 0-95.08-15.23-127.49-37.88 20.64-64.38 52.64-105.88 62.86-116.88 132.06 51.39 252.28 79.13 395.78 79.13s284.48-30 398.59-75c7.12 10.87 44.41 57.37 58.05 108.75z" fill="#4cd84c" stroke="#000" stroke-linecap="round" stroke-linejoin="round" stroke-width="5"/><path d="m2210 2873.61-2.27 3.09-158.83 215.55 123.64 180.57c-14.8 4.46-29.89 7.97-45.08 10.82-17.12 3.24-34.43 5.64-51.77 7.32l-83.52-121.91-88.71 119.95c-32.3-4.71-64.45-11.66-95.27-22.54l130.08-176-148.25-217.12c40.28 8.43 81 14.56 121.98 18.36l83.04 121.75 89-120.93c42.34-3.7 84.4-10.01 125.96-18.91z" fill="#000" stroke="#000" stroke-miterlimit="10" stroke-width="5"/><path d="m2046.9 3092.25-143.44 198.5c-15.07-2.2-30.05-5.38-44.9-8.75-17.14-4.06-33.84-9.17-50.37-15l130.08-176.54-146.25-214.19c40.19 8.38 80.81 14.48 121.69 18.26z" fill="#4cd84c" stroke="#000" stroke-linejoin="round" stroke-width="8"/><path d="m1669 2974c-43 1-93.5-18-127-38 .5-5 6.5-19 8-21.5 22 20 76.84 42.96 118.04 40.41 5.96-12.91 13.96-34.91 33.96-47.91-4.86 7.78-26.5 45-33 67z" fill="#000" fill-opacity=".15"/><path d="m2457 2932c-33.5 20-82.5 43-125.5 42-6.5-22-28.14-59.22-33-67 17.36 11.29 25.62 29.83 33.96 47.91 41.2 2.55 96.04-23.41 118.04-43.41 2 4 5.5 15 6.5 20.5z" fill="#000" fill-opacity=".15"/><path d="m2320 3029.86c10.5 97.14-9.78 154.89-28.54 181.84-84.96 72.8-207.78 87.57-291.46 88.3-118.33 1-232.94-31.66-293.74-91.43-27.26-35.57-30.95-113.88-30.07-161.91.77 43.11 10.89 101.04 39.31 137.34 46.8 59.77 166.17 88.04 284.5 87 129.24-1.12 245.61-25.36 291.34-93.11 27.91-41.34 27.94-100.75 28.66-148.03z" fill="#000" fill-opacity=".15"/><path d="m2395 2818c-115.35 45.22-271 79-395 79s-259.34-26.43-395-79c-7.24 10.54-16.61 26.27-23 37 142 57 275 86 418 86s276-29 418-86c-6.15-10.7-15.93-26.36-23-37z" fill="#000" fill-opacity=".15"/><path d="m2500.32 839c42.32-35.85-124.32-76-146.52-139.49-26.8-76.51 395.59 127.1 331.57 261.08-5 10.51-55.43 94-417.61-23.77 398.16 129.18 699.66 403.12 698.24 910.18-1.09 388.75-350.07 990.81-966.43 996.18-594.62 5.19-966.64-596.22-965.57-996.18 1.32-488.44 432.13-990.94 966-1028.5 319.41-22.45 465.29 50.1 500.32 20.5z" fill="#333232" stroke="#333" stroke-linecap="round" stroke-linejoin="round" stroke-width="5"/><path d="m2565.16 861.34c-29.66 65.16-211.81-40-531.22-17.54-653.46 45.937-1126.939 771.2-864.58 1359.08 68.14-70.38 151.14-90.38 177.59-99.16 7.94 8.57 17.6 17.67 21.05 21.78-81.37 25.35-175.93 80.41-216.63 156.84-76.27-147.6-117-302.56-116.59-435.33 1.32-488.45 432.22-991 966.09-1028.57 319.41-22.45 464.56 50.1 499.59 20.46 42.18-35.75-124.46-75.9-146.65-139.39-8.57-24.46 28.82-20.27 81.55 1.13-20-2.88-31 1.83-25.55 15.87 19.38 50.39 180.3 90.02 155.35 144.83z" fill="#000" fill-opacity=".14"/><path d="m2964.5 1847.07c-.36 127.74-38.12 278.51-110.54 423.57-74.96-102.64-209.23-143.64-222.96-143.64 4-5 16-19.7 20-24.5 23.5 5.5 128.62 27.91 187.28 106.2 59.3-132.15 86.52-255.16 86.84-370.86 1.47-524.24-353.62-784.84-657.36-901.02 398.16 129.18 698.16 403.18 696.74 910.25z" fill="#000" fill-opacity=".14"/><path d="m1725 1203.5c-297 0-665 628.5-363.5 918.5-575.499 180 0 779 638.5 779s1214-599 638.5-779c301.5-290-66.5-918.5-363.5-918.5-126.5 0-195.51 58.5-275 116.5-79.5-58-148.5-116.5-275-116.5z" fill="#ffcd98" stroke="#333" stroke-width="5"/><path d="m2749.1 1817c-15.7-308.54-265-613.19-481.5-613.19-134.6 0-216.2 82.14-267.6 116.19-41.1-28.05-132.5-116.19-268.4-116.19-255.6 0-478.1 373.19-482.13 622.71-22.47-268.52 183.6-671.52 483.53-671.52 156 0 239 75 267 106 28-31 111-106 267-106 297.63 0 503.5 381.5 482.1 662z" fill="#000" fill-opacity=".14"/><path d="m1148.6 2266.67c-135.93 245.26 334.32 633.83 851.4 633.83s993.17-392.85 849.75-637.86c95.36 224.1-359.03 600.36-849.75 600.36-487.79 0-939.69-371.78-851.4-596.33z" fill="#000" fill-opacity=".1"/><path d="m1250.37 1807.39c-7.11 117.45 24.02 230.01 111.45 314.11-10.42 3.26-20.47 7.66-30.15 11.19 22.33-7.19 43.66-12.28 68.33-16.69-84.54-81.32-133.47-191.77-149.63-308.61z" fill="#000" fill-opacity=".1"/><path d="m2670.5 2133c-21.76-6.41-44.6-12.37-70.5-17 85.32-82.07 134.37-193.81 150.07-311.86 7.89 118.62-23.01 232.49-111.25 317.36 11.32 3.54 21.24 7.64 31.68 11.5z" fill="#000" fill-opacity=".1"/><path d="m2000.41 2770.5c275 0 572-112.5 663.25-379.44 15.25-42.3-22.09-84.98-67.45-78.53-197.53 28.07-396.79 42.15-596.3 42.15s-398.78-14.09-596.31-42.15c-45.32-6.44-82.16 36.01-67.46 78.53 92.27 266.94 389.27 379.44 664.27 379.44z" fill="#3d0c0c"/><path d="m2578.21 2512.04c32.74-40.14 55.99-82.74 67.74-125.83 8.9-32.67-14.69-60.04-47.04-55.45-396.36 55.5-801.44 56.2-1197.79.01-32.4-4.56-55.98 22.77-47.08 55.44 11.74 43.1 34.97 85.69 67.74 125.83 383.09 52.47 773.36 52.94 1156.43 0z" fill="#fff"/><path d="m2000.41 2752c198.56.34 414.2-65.72 553.93-212.94-367.46 48.34-741.25 48.29-1108.71.03 140.78 148.35 354.63 212.57 554.78 212.91z" fill="#fff"/><path d="m2266.36 2712c107.21-32.23 209.97-90.74 287.98-172.94-27.6 3.63-55.24 7.05-82.92 10.07-52.28 61.44-119.58 117.48-205.06 162.87z" fill="#000" fill-opacity=".1"/><path d="m2645.95 2386.22c-11.75 43.08-35 85.68-67.74 125.82-29.59 4.09-59.24 7.83-88.92 11.23 42.55-59.77 72.34-124.18 92-190.06l17.54-2.44c32.43-4.6 56.02 22.77 47.12 55.45z" fill="#000" fill-opacity=".1"/><path d="m1445.61 2539.05c78.35 82.56 182.38 141.73 290.3 173.75-86.43-45.37-154.18-101.8-206.61-163.61-27.93-3.04-55.83-6.48-83.69-10.14z" fill="#000" fill-opacity=".1"/><path d="m1421.75 2512.04c29.82 4.05 59.68 7.82 89.57 11.31-42.71-59.71-72.52-124.15-92.11-190.05-6.04-.83-12.08-1.67-18.12-2.53-32.4-4.55-55.98 22.77-47.08 55.45 11.74 43.09 34.97 85.68 67.74 125.82z" fill="#000" fill-opacity=".1"/><path d="m1759.66 1403.06c154.89 18 266.48 208.75 250 376.77-16.38 167.34-162.69 342-329.88 323-151.8-17.3-250.26-186.22-253.5-328.16-4.31-190.16 160.84-391.67 333.38-371.61z" fill="#fff"/><path d="m1947.73 1825.22c22.11-113.95-39.5-221.76-137.6-240.79-98.1-19.04-195.55 57.91-217.66 171.87-22.11 113.95 39.5 221.76 137.6 240.79 98.1 19.04 195.55-57.91 217.66-171.87z" fill="#4cd84c" stroke="#000" stroke-miterlimit="10" stroke-width="5"/><path d="m1781.2 1941.56c58.51 0 105.94-53.04 105.94-118.46s-47.43-118.46-105.94-118.46-105.94 53.04-105.94 118.46 47.43 118.46 105.94 118.46z" fill="#000"/><path d="m1874.89 1740.31c7.45-21.05-4.41-44.45-26.5-52.27-22.08-7.82-46.03 2.91-53.48 23.96s4.42 44.45 26.5 52.27c22.09 7.81 46.03-2.91 53.48-23.96z" fill="#fff" stroke="#000" stroke-miterlimit="10" stroke-width="5"/><path d="m1835.89 1427c-204.38-55.89-374.48 186.25-370.31 368.01 2.47 107.25 59.36 229.79 152.7 291.65-116.4-48.78-189.2-190.33-192-312-4.33-190.11 160.82-391.59 333.36-371.55 26.68 3.19 52.53 11.29 76.25 23.89z" fill="#000" fill-opacity=".05"/><path d="m1863.62 1605.54c-112.85-32.07-212.74 65.3-233.15 170.44-16.75 86.35 14.07 169.22 72.35 213.35-81.88-32-130.23-129.93-110.25-232.89 22.12-114 119.58-190.89 217.68-171.85 18.92 3.67 37.01 10.77 53.37 20.95z" fill="#000" fill-opacity=".15"/><path d="m2234 1398.91c-154.54 20.68-262.79 213.36-243.4 381.08 19.3 167 168.63 339.1 335.47 317.13 151.47-19.94 247-190.55 247.73-332.52.98-190.16-167.66-388.73-339.8-365.69z" fill="#fff"/><path d="m2273.74 1992.69c97.75-20.74 157.46-129.61 133.37-243.16s-122.87-188.79-220.63-168.05c-97.75 20.75-157.46 129.61-133.37 243.16 24.1 113.55 122.87 188.79 220.63 168.05z" fill="#4cd84c" stroke="#000" stroke-miterlimit="10" stroke-width="5"/><path d="m2221.84 1937.7c58.5-1.02 105-54.87 103.86-120.29-1.15-65.41-49.49-117.61-107.99-116.59-58.51 1.02-105 54.88-103.86 120.29s49.49 117.62 107.99 116.59z" fill="#000"/><path d="m2288.34 1764.39c21.94-8.2 33.4-31.81 25.58-52.72-7.81-20.92-31.94-31.23-53.89-23.03-21.94 8.21-33.4 31.81-25.58 52.73 7.82 20.91 31.94 31.22 53.89 23.02z" fill="#fff" stroke="#000" stroke-miterlimit="10" stroke-width="5"/><path d="m2573.77 1764.6c-.66 123.27-72.75 268.13-190.88 317.21 95.29-61.62 152.08-188.08 152.66-297.55.96-183.58-181.09-431.24-385.95-355.18 26-15.6 54.29-26.14 84.37-30.17 172.17-23.04 340.81 175.53 339.8 365.69z" fill="#000" fill-opacity=".05"/><path d="m2295.09 1986.4c60.86-43.65 92.6-129.07 73.87-217.3-22.4-105.54-126.49-201.41-238.74-163.7 17.03-11.63 36.17-19.82 56.34-24.11 97.76-20.75 196.54 54.48 220.65 168 22.3 105.1-27.16 206.17-112.12 237.11z" fill="#000" fill-opacity=".15"/><path d="m1785 2099c0 76.35 98.85 169 216.26 168 108.22-.95 213.74-92.55 213.74-167.78 0-152.13-430-154.42-430-.22z" fill="#000" fill-opacity=".1"/><path d="m1782 2081c0 76.35 100.23 169 219.27 168 109.73-.95 216.73-92.55 216.73-167.78 0-60.53-126.24-113.77-216.73-113-84.02.78-219.27 41.16-219.27 112.78z" fill="#7f6145"/><path d="m1783.58 2067.77c41.76 54.75 124.68 100.94 217.85 100.22 86.21-.68 170.92-47.12 214.09-101.55 1.62 4.86 2.48 9.8 2.48 14.78 0 75.23-107 166.83-216.73 167.78-119.04 1-219.27-91.65-219.27-168 0-4.54.54-8.95 1.58-13.23z" fill="#000" fill-opacity=".2"/><path d="m1910 3556c32 0 63.09-23.6 66.7-56.14 9.11-82.21-94.35-89.68-150.67-90.92-57.1-1.25-154.03 9.56-171.02 72.27-14.85 54.79 36.49 74.79 72.99 74.79s49-12.15 92.98-12.15c38.41 0 57.02 12.15 89.02 12.15z" fill="#f7c394" stroke="#000" stroke-miterlimit="10" stroke-width="5"/><path d="m1909 3534c-32 0-50.61-12.15-89.02-12.15-43.98 0-56.48 12.15-92.98 12.15-28.39 0-65.75-12.1-73.97-43.26-6.73 47.6 40.67 65.26 74.97 65.26 36.5 0 49-12.15 92.98-12.15 38.41 0 57.02 12.15 89.02 12.15 42.86 0 73-34.15 65.91-80.26-2.97 33.46-34.04 58.26-66.91 58.26z" fill="#000" fill-opacity=".1"/><path d="m2090 3556c-32 0-63.09-23.6-66.7-56.14-9.11-82.21 94.35-89.68 150.67-90.92 57.1-1.25 154.03 9.56 171.02 72.27 14.85 54.79-36.49 74.79-72.99 74.79s-49-12.15-92.98-12.15c-38.42 0-57.02 12.15-89.02 12.15z" fill="#f7c394" stroke="#000" stroke-miterlimit="10" stroke-width="5"/><path d="m2091 3534c32 0 50.6-12.15 89.02-12.15 43.98 0 56.48 12.15 92.98 12.15 28.39 0 65.75-12.1 73.97-43.26 6.73 47.6-40.67 65.26-74.97 65.26-36.5 0-49-12.15-92.98-12.15-38.42 0-57.02 12.15-89.02 12.15-42.86 0-73-34.15-65.91-80.26 2.97 33.46 34.04 58.26 66.91 58.26z" fill="#000" fill-opacity=".1"/><path d="m1601.4 3259.89c56.81.05 92.98-68.11 58.59-115.27 15.91-45.21-18.09-95.39-66.66-96.55-56-1.34-88.37 58.5-82.5 109.13 5.48 47.31 37.52 102.65 90.57 102.69z" fill="#f7c394" stroke="#000" stroke-miterlimit="10" stroke-width="5"/><path d="m1510.83 3157.2c6.78 58.57 54.37 126.8 125.37 93.8-68.83-8.8-117-125.5-83.11-191.84-5.39 3.84-13.89 8.34-27.6 27.61-12.29 21.73-17.7 46.2-14.66 70.43z" fill="#000" fill-opacity=".1"/><path d="m2398.6 3259.89c-56.82.05-92.99-68.11-58.59-115.27-15.92-45.21 18.08-95.39 66.66-96.55 56-1.34 88.36 58.5 82.5 109.13-5.48 47.31-37.53 102.65-90.57 102.69z" fill="#f7c394" stroke="#000" stroke-miterlimit="10" stroke-width="5"/><path d="m2489.17 3157.2c-6.78 58.57-54.37 126.8-125.37 93.8 68.82-8.8 117-125.5 83.11-191.84 5.39 3.84 13.89 8.34 27.6 27.61 12.29 21.73 17.7 46.2 14.66 70.43z" fill="#000" fill-opacity=".1"/><path d="m2962.61 1775c-1.85-.15-3.63-.81-5.13-1.9s-2.66-2.58-3.37-4.3c-218.06-510-974.77-575.76-1453.18-507.32-131 18.73-241.06 47.53-313.56 80-1 .45-2.06.74-3.15.87 48.32-79.61 106.13-153.06 172.15-218.75 379.48-68.1 1044.53-117.29 1486.28 234.62 68.11 115.01 110.72 252.78 119.96 416.78z" fill="#000" fill-opacity=".2"/><g stroke="#000" stroke-miterlimit="10" stroke-width="5"><path d="m2613.81 241c.2 20.372-3.93 40.555-12.12 59.209s-20.25 35.354-35.39 48.991c-38.34-37-76.5-59.62-113.09-63.76-25.82-2.92-64.66 4.21-113 20.08-9.47-19.432-14.45-40.746-14.57-62.364s4.63-42.985 13.89-62.518c9.26-19.534 22.8-36.732 39.62-50.322 16.81-13.59 36.46-23.223 57.5-28.185 21.05-4.9619 42.93-5.1257 64.05-.479 21.11 4.646 40.91 13.984 57.92 27.321s30.81 30.331 40.36 49.723c9.56 19.393 14.62 40.687 14.83 62.304z" fill="#4cd84c"/><path d="m1209.19 1310.47c-8.09 3.68-16.89-4.57-13.75-12.88 200.66-526.53 1070.68-1033.33 1257.77-1012.15 264.15 29.9 609.58 1021.67 520.72 1450.45-2 9.81-15.48 11.12-19.38 1.89-274.4-649.59-1412.12-578.49-1745.36-427.31z" fill="#000"/><path d="m2954.56 1737.75c-274.39-649.59-1412.12-578.46-1745.37-427.27-8.1 3.69-16.92-4.58-13.75-12.9 43.69-114.64 119.12-228.34 212.32-335.87 405.68-96.39 1255.32-54.34 1565.33 426 24.52 159.35 23 241.26.84 348.22-2.03 9.75-15.48 11.07-19.37 1.82z" fill="#f2f2f2"/><path d="m2864.09 914c-298.36-227.2-767.38-287.91-1118.33-265.83 145.74-112.17 296.37-205.62 423.57-269.63 170.81 16.59 352 53.83 509.71 118.4 66.8 112.22 132.29 259.06 185.05 417.06z" fill="#f2f2f2"/><g fill="#4cd84c"><path d="m2954.56 1737.75c-274.39-649.59-1412.12-578.46-1745.37-427.27-8.1 3.69-16.92-4.58-13.75-12.9 43.69-114.64 119.12-228.34 212.32-335.87 405.68-96.39 1255.32-54.34 1565.33 426 24.52 159.35 23 241.26.84 348.22-2.03 9.75-15.48 11.07-19.37 1.82z"/><path d="m2864.09 914c-298.36-227.2-767.38-287.91-1118.33-265.83 145.74-112.17 296.37-205.62 423.57-269.63 170.81 16.59 352 53.83 509.71 118.4 66.8 112.22 132.29 259.06 185.05 417.06z"/></g></g><path d="m2613.81 241c.2 20.372-3.93 40.555-12.12 59.209s-20.25 35.354-35.39 48.991c-22-21.23-43.93-37.73-65.55-48.71 10.46-16.194 17.57-34.321 20.9-53.308 3.33-18.988 2.81-38.451-1.51-57.238-4.33-18.786-12.37-36.514-23.67-52.135s-25.61-28.818-42.1-38.809c4.67-.5 9.37-.77 14.11-.81 38.21-.3329 74.99 14.526 102.24 41.308 27.26 26.781 42.76 63.293 43.09 101.502z" fill="#000" fill-opacity=".15"/><path d="m2683.61 1418.42c118 78.73 213.43 183.22 270.94 319.36 3.9 9.23 17.38 7.92 19.38-1.89 88.86-428.78-256.57-1420.55-520.72-1450.45-16.75-1.896-38.98.44-65.71 6.645 296.11 131.915 304.55 866.365 296.11 1126.335z" fill="#000" fill-opacity=".15"/><path d="m2014.5 3490.5c-1.5-31.5-1.5-64.5 15-83.5-4-4 .67-9.27 4.5-8 29.5 9.83 107.5 9.5 181-13 119.5 84.5 203 82 220 97 18.31 16.15-419 39-420.5 7.5z" fill="#4cd84c" stroke="#000" stroke-width="5"/><path d="m2216.5 3368c16-7 61 24 57.5 35.5-9 12-83.38 2.73-71-8 15-13 8-25.09 13.5-27.5z" fill="#2fc12f" stroke="#000" stroke-width="5"/><path d="m2239.5 3387c29.93 14.48 118.3 57.57 103 68.5-42 30-155.3-34.43-158.5-43.5-3-8.5 9.7-14.74 18.5-19.5 9.71-5.26 21.5-13 37-5.5z" fill="#2fc12f" stroke="#000" stroke-width="5"/><path d="m2012.72 3543.07c-.72-12.67-1.51-32.28-.22-42.57 95.5 16 367 13.5 430-15.5 9 5.5 17 27.5 11.5 45-54.16 49.23-364.32 30.36-428.77 25.86-6.88-.48-12.12-5.91-12.51-12.79z" fill="#1b1b1b" stroke="#000" stroke-width="5"/><path clip-rule="evenodd" d="m2013.85 3500.72c.13 7.83.5 15.97.87 22.35.39 6.88 5.63 12.31 12.51 12.79 64.18 4.48 372.05 23.22 428.08-25.25.89 6.4.64 13.18-1.31 19.39-54.16 49.23-364.32 30.36-428.77 25.86-6.88-.48-12.12-5.91-12.51-12.79-.72-12.67-1.51-32.28-.22-42.57.45.07.9.15 1.35.22z" fill="#000" fill-rule="evenodd"/><g stroke="#000"><path d="m2015 3492c-3.5.5-5.5 5-2.5 8.5 95.5 16 367 13.5 430-15.5 1.5-3.5-2.5-8.68-6.5-7.5-106.5 31.5-340.5 22-421 14.5z" fill="#4cd84c" stroke-width="5"/><path d="m1985.51 3490.5c1.5-31.5 1.5-64.5-15-83.5 4-4-.68-9.27-4.5-8-29.5 9.83-107.5 9.5-181-13-119.5 84.5-203 82-220 97-18.31 16.15 419 39 420.5 7.5z" fill="#4cd84c" stroke-width="5"/><path d="m1783.51 3368c-16-7-61 24-57.5 35.5 9 12 83.37 2.73 71-8-15-13-8-25.09-13.5-27.5z" fill="#2fc12f" stroke-width="5"/><path d="m1760.51 3387c-29.93 14.48-118.3 57.57-103.01 68.5 42.01 30 155.31-34.43 158.51-43.5 3-8.5-9.7-14.74-18.5-19.5-9.71-5.26-21.5-13-37-5.5z" fill="#2fc12f" stroke-width="5"/><path d="m1987.29 3543.07c.72-12.67 1.5-32.28.22-42.57-95.5 16-367 13.5-430-15.5-9 5.5-17 27.5-11.5 45 54.15 49.23 364.32 30.36 428.77 25.86 6.87-.48 12.12-5.91 12.51-12.79z" fill="#1b1b1b" stroke-width="5"/></g><path clip-rule="evenodd" d="m1986.15 3500.72c-.12 7.83-.5 15.97-.86 22.35-.39 6.88-5.64 12.31-12.51 12.79-64.18 4.48-372.05 23.22-428.09-25.25-.89 6.4-.64 13.18 1.32 19.39 54.15 49.23 364.32 30.36 428.77 25.86 6.87-.48 12.12-5.91 12.51-12.79.72-12.67 1.5-32.28.22-42.57-.45.07-.9.15-1.36.22z" fill="#000" fill-rule="evenodd"/><path d="m1985.01 3492c3.5.5 5.5 5 2.5 8.5-95.5 16-367 13.5-430-15.5-1.5-3.5 2.5-8.68 6.5-7.5 106.5 31.5 340.5 22 421 14.5z" fill="#4cd84c" stroke="#000" stroke-width="5"/></svg>