<svg fill="none" height="4000" viewBox="0 0 4000 4000" width="4000" xmlns="http://www.w3.org/2000/svg"><path d="m2635.25 2986.94c-3.94-36.28-39.47-61.76-74.72-54.3-62.56 12.25-133.42-4.25-204.34-44.16-64.54-36.3-102.34-78.63-137.22-39.13-34.88 39.49 16.37 114.46 75.92 148.07 98.47 55.41 199.49 72.22 292.59 53.51 30.94-6.57 51.7-27.7 47.77-63.99z" fill="#feda30" stroke="#333" stroke-miterlimit="10" stroke-width="5"/><path d="m2551.58 3030.13c-111.57 12.53-285.71-59.13-343.32-159-6.85 131.51 251.24 212.87 370.75 180.46-12.48-5.9-22.26-14.08-27.43-21.46z" fill="#000" fill-opacity=".15"/><path d="m2745.92 2960.45c-6.08-56.49-77.74-85.1-120.91-45.82-46.67-10.94-92.89 28.28-88.8 76.69 4.71 55.82 67.69 81.54 117.39 70.25 46.45-10.56 98-48.38 92.32-101.12z" fill="#994d5f" stroke="#333" stroke-miterlimit="10" stroke-width="5"/><path d="m2653.61 3061.57c57.49-13.06 120.19-67.74 79.72-134.76-.75 39.13-36.34 75.44-79.72 94.89-2.11 9.3-4.11 23.8 0 39.87z" fill="#000" fill-opacity=".2"/><path d="m1724.89 3290.64c50.77-7.42 115.16-32.27 196.86-76 11.87-6.35 16.67-21.85 10.25-33.84-6.35-11.87-21.85-16.66-33.84-10.25-75.45 40.37-136.18 64.12-180.5 70.6-28.93 4.23-49.75 1-61.88-9.64-13.61-11.92-12.39-33-8.83-72.39 4.17-46.12 9.36-103.53-19.78-169.51-43.99-99.72-153.63-194.53-269.09-176.7-73.33 11.36-143.6 66.19-159.73 140.59-13.73 63.36 6.02 150.18 73.53 174.43 44.77 16 95.93-2.36 130.84-32.08 10.45-8.68 11.95-25 3.06-35.44-8.81-10.34-25.15-11.64-35.48-2.62-.43.36-43.66 36.65-81.49 23.06-42.84-15.38-49.77-78.95-41.56-116.78 11.75-54.23 65.6-93.57 118.51-101.77 92.84-14.33 180.8 68.49 215.72 147.49 23.91 54.16 19.56 102.32 15.72 144.81-4 43.84-7.71 85.25 25.67 114.5 27.67 24.4 67.07 26.8 102.02 21.54z" fill="#feda30" stroke="#333" stroke-miterlimit="10" stroke-width="5"/><path d="m1213.35 2965.53c-11.06 51.02-1.18 114.55 37.82 152.08-51.41-33.7-65.07-107.56-52.82-164.08 16.13-74.41 86.39-129.24 159.73-140.6 66.26-10.23 131.78 18.56 181.54 60.82-114.12-80.75-293.29-60.36-326.27 91.78z" fill="#000" fill-opacity=".2"/><path d="m1282.38 3078.06c27.03 31.45 75.59 15.26 102.89-8.23 3.14-2.68 6.9-4.54 10.94-5.41 4.03-.87 8.22-.73 12.19.41-3.97-7.3-11.63-12.23-19.93-12.9-6.6-.53-13.15 1.59-18.2 5.89-22.07 19.5-59.84 35.17-87.89 20.24z" fill="#000" fill-opacity=".2"/><path d="m1926.5 3173.5c-3.5-3-15.5-9-23-5.5-6.98 3.26-15.34 7.39-24.73 12.03-49.42 24.41-127.47 62.97-183.77 62.97-50 0-54.5-25-47.5-91-.85 3.82-1.92 8.03-3.06 12.51-9.62 37.75-24.09 94.49 50.56 94.49 81.5 0 208.79-70.57 231.5-85.5z" fill="#000" fill-opacity=".2"/><path d="m1587 3147c36.5 0 65.66-32.58 62.04-68.42-5.42-63.52 18.62-132.19 65.95-198.39 43.06-60.25 89.21-93.25 53.71-132.19s-115.56 3.92-155.4 59.5c-65.71 91.92-97.19 189.11-88.63 283.68 3.19 31.47 25.83 55.82 62.33 55.82z" fill="#feda30" stroke="#333" stroke-miterlimit="10" stroke-width="5"/><path d="m1553.09 3059.16c-.42-112.27 89.61-277.66 195.11-324.16-130-21-245 233.5-222.71 351.77 7.21-11.77 19.71-23.27 27.6-27.61z" fill="#000" fill-opacity=".15"/><path d="m1959.37 3446.51c5-87.08 27.4-154.43 47.17-206.81s42.42-144.7-42.56-166.02c-121.5-30.49-188.31 254.12-193.3 340.94-2.93 51.08 36.82 110.33 88.4 113.29 47.48 2.31 97.45-31.79 100.29-81.4z" fill="#feda30" stroke="#333" stroke-miterlimit="10" stroke-width="5"/><path d="m1769.48 3414.5c51.5-7 148-7 188.5 34 .34-3.09 1.44-11.94 1.66-15.04-42.16-36.96-138.16-39.46-188.02-32.46-.26 3.3-1.86 10.13-2.14 13.5z" fill="#000" fill-opacity=".15"/><path d="m1785.48 3325c47.76 44.29 108.88 69.13 178 78.5.58-5.01 1.81-12.18 2.5-17-68.6-8.88-128.2-37.6-176-81-2 6-3.62 15.27-4.5 19.5z" fill="#000" fill-opacity=".15"/><path d="m2040.63 3446.51c-5-87.08-27.4-154.43-47.17-206.81s-42.42-144.7 42.56-166.02c121.5-30.49 188.31 254.12 193.3 340.94 2.93 51.08-36.82 110.33-88.4 113.29-47.48 2.31-97.45-31.79-100.29-81.4z" fill="#feda30" stroke="#333" stroke-miterlimit="10" stroke-width="5"/><path d="m2230.52 3414.5c-51.5-7-148-7-188.5 34-.34-3.09-1.44-11.94-1.66-15.04 42.16-36.96 138.16-39.46 188.02-32.46.26 3.3 1.86 10.13 2.14 13.5z" fill="#000" fill-opacity=".15"/><path d="m2214.52 3325c-47.76 44.29-108.88 69.13-178 78.5-.58-5.01-1.81-12.18-2.5-17 68.6-8.88 128.2-37.6 176-81 2 6 3.62 15.27 4.5 19.5z" fill="#000" fill-opacity=".15"/><path d="m3133.19 1832.12c111.1 102 66.32 309.29-9.09 427.16-107.46 168-353.47 273.75-479.46 184.37-131.58-93.35-114.4-386.92 39.2-539.32 114.68-113.78 334.45-177.69 449.35-72.21z" fill="#f7c394" stroke="#333" stroke-miterlimit="10" stroke-width="5"/><path d="m3003.49 1952.22c66 68.19 30.1 196.68-21.65 267.88-73.75 101.45-232.17 158.69-307.94 97.86-79.14-63.53-57.39-247.22 44.75-337.18 76.26-67.16 216.64-99.08 284.84-28.56z" fill="#ffc9a1"/><path d="m3124.1 2259.28c-60.69 94.85-195.1 203.22-346.6 216.72 106.36-25 260.01-133.85 306.64-206.72 75.41-117.87 115.36-338.97 9.09-427.16-32.41-26.89-114.73-65.12-227.73-45.12 138-42.5 222.79-6.13 267.73 35.12 111.06 101.99 66.28 309.29-9.13 427.16z" fill="#000" fill-opacity=".1"/><path d="m866.818 1832.12c-111.1 102-66.32 309.29 9.09 427.16 107.46 168 353.472 273.75 479.462 184.37 131.58-93.35 114.4-386.92-39.2-539.32-114.68-113.78-334.452-177.69-449.352-72.21z" fill="#f7c394" stroke="#333" stroke-miterlimit="10" stroke-width="5"/><path d="m996.518 1952.22c-66 68.19-30.1 196.68 21.652 267.88 73.75 101.45 232.17 158.69 307.94 97.86 79.14-63.53 57.39-247.22-44.75-337.18-76.26-67.16-216.64-99.08-284.842-28.56z" fill="#ffc9a1"/><path d="m875.908 2259.28c60.69 94.85 195.102 203.22 346.602 216.72-106.36-25-260.019-133.85-306.642-206.72-75.41-117.87-115.36-338.97-9.09-427.16 32.409-26.89 114.732-65.12 227.732-45.12-138.002-42.5-222.792-6.13-267.732 35.12-111.06 101.99-66.28 309.29 9.13 427.16z" fill="#000" fill-opacity=".1"/><path d="m2000 2548c154 0 220 135 260 246s58 220 58 292c0 152-138.68 305.46-318 307-175.53 1.51-318-155-318-307 0-72 17.7-181.5 58-292 40-111 106-246 260-246z" fill="#feda30" stroke="#333" stroke-miterlimit="10" stroke-width="5"/><path d="m2000 3393c-175.67 1.59-330-157-318-337 10 148 145.15 288.48 318 287s308-139 318-287c12 180-142.33 335.41-318 337z" fill="#000" fill-opacity=".15"/><path d="m2000 2672c104 0 160 68 174 128 34.49 147.82 64 274 4 350s-134.95 82-178 82c-47.55 0-118-6-178-82s-32.44-193.83 4-350c14-60 70-128 174-128z" fill="#f7c394" stroke="#333" stroke-miterlimit="10" stroke-width="5"/><path d="m2000 3232c-136 0-224-94-213-216 4 115 96 190 213 190s209-75 213-190c11 122-77 216-213 216z" fill="#000" fill-opacity=".1"/><path d="m2302 2849.44c-98.24 28.56-209.02 47.56-302 47.56-124 0-259.34-26.43-395-79-7.24 10.54-16.61 26.27-23 37 142 57 275 86 418 86 118.33 0 229.8-19.86 345.2-59-15.7-10-35.7-19.5-43.2-32.56z" fill="#000" fill-opacity=".15"/><path d="m2500.32 839c42.32-35.85-124.32-76-146.52-139.49-26.8-76.51 395.59 127.1 331.57 261.08-5 10.51-55.43 94-417.61-23.77 398.16 129.18 699.66 403.12 698.24 910.18-1.09 388.75-350.07 990.81-966.43 996.18-594.62 5.19-966.64-596.22-965.57-996.18 1.32-488.44 432.13-990.94 966-1028.5 319.41-22.45 465.29 50.1 500.32 20.5z" fill="#feda30" stroke="#333" stroke-linecap="round" stroke-linejoin="round" stroke-width="5"/><path d="m2565.16 861.34c-29.66 65.16-211.81-40-531.22-17.54-653.46 45.937-1126.939 771.2-864.58 1359.08 68.14-70.38 151.14-90.38 177.59-99.16 7.94 8.57 17.6 17.67 21.05 21.78-81.37 25.35-175.93 80.41-216.63 156.84-76.27-147.6-117-302.56-116.59-435.33 1.32-488.45 432.22-991 966.09-1028.57 319.41-22.45 464.56 50.1 499.59 20.46 42.18-35.75-124.46-75.9-146.65-139.39-8.57-24.46 28.82-20.27 81.55 1.13-20-2.88-31 1.83-25.55 15.87 19.38 50.39 180.3 90.02 155.35 144.83z" fill="#000" fill-opacity=".15"/><path d="m2964.5 1847.07c-.36 127.74-38.12 278.51-110.54 423.57-74.96-102.64-209.23-143.64-222.96-143.64 4-5 16-19.7 20-24.5 23.5 5.5 128.62 27.91 187.28 106.2 59.3-132.15 86.52-255.16 86.84-370.86 1.47-524.24-353.62-784.84-657.36-901.02 398.16 129.18 698.16 403.18 696.74 910.25z" fill="#000" fill-opacity=".15"/><path d="m1725 1203.5c-297 0-665 628.5-363.5 918.5-575.499 180 0 779 638.5 779s1214-599 638.5-779c301.5-290-66.5-918.5-363.5-918.5-126.5 0-195.51 58.5-275 116.5-79.5-58-148.5-116.5-275-116.5z" fill="#ffcd98" stroke="#333" stroke-width="5"/><g fill="#000"><path d="m2749.1 1817c-15.7-308.54-265-613.19-481.5-613.19-134.6 0-216.2 82.14-267.6 116.19-41.1-28.05-132.5-116.19-268.4-116.19-255.6 0-478.1 373.19-482.13 622.71-22.47-268.52 183.6-671.52 483.53-671.52 156 0 239 75 267 106 28-31 111-106 267-106 297.63 0 503.5 381.5 482.1 662z" fill-opacity=".15"/><path d="m1148.6 2266.67c-135.93 245.26 334.32 633.83 851.4 633.83s993.17-392.85 849.75-637.86c95.36 224.1-359.03 600.36-849.75 600.36-487.79 0-939.69-371.78-851.4-596.33z" fill-opacity=".1"/><path d="m1250.37 1807.39c-7.11 117.45 24.02 230.01 111.45 314.11-10.42 3.26-20.47 7.66-30.15 11.19 22.33-7.19 43.66-12.28 68.33-16.69-84.54-81.32-133.47-191.76-149.63-308.61z" fill-opacity=".1"/><path d="m2670.5 2133c-21.76-6.41-44.6-12.37-70.5-17 85.32-82.07 134.37-193.81 150.07-311.86 7.89 118.62-23.01 232.49-111.25 317.36 11.32 3.54 21.24 7.64 31.68 11.5z" fill-opacity=".1"/></g><path d="m2000 1651c29.81-125.41 118.48-236.63 234-252.09 172.14-23.04 340.78 175.53 339.8 365.69-.73 141.97-96.26 312.58-247.73 332.52-149.65 19.71-285.21-116.72-325.49-265.56-37.66 149.54-170.83 288.31-320.8 271.27-151.8-17.3-250.26-186.22-253.5-328.16-4.31-190.16 160.84-391.67 333.38-371.61 115.78 13.46 208.35 123.08 240.34 247.94z" fill="#fff" stroke="#333" stroke-width="5"/><path d="m2273.74 1992.69c97.75-20.74 157.47-129.61 133.37-243.16-24.09-113.55-122.87-188.79-220.62-168.05-97.76 20.75-157.47 129.61-133.38 243.16 24.1 113.56 122.88 188.79 220.63 168.05z" fill="#4a4b51" stroke="#333" stroke-miterlimit="10" stroke-width="5"/><path d="m2221.84 1937.7c58.5-1.02 105-54.87 103.86-120.29-1.15-65.41-49.49-117.61-107.99-116.59-58.51 1.02-105 54.88-103.86 120.29 1.14 65.42 49.49 117.62 107.99 116.59z" fill="#000"/><path d="m2288.34 1764.39c21.95-8.2 33.4-31.81 25.58-52.72-7.81-20.92-31.94-31.23-53.88-23.03-21.95 8.21-33.4 31.81-25.59 52.73 7.82 20.91 31.95 31.22 53.89 23.02z" fill="#fff" stroke="#333" stroke-miterlimit="10" stroke-width="5"/><path d="m2295.09 1986.4c60.86-43.65 92.6-129.07 73.87-217.3-22.4-105.54-126.48-201.41-238.74-163.7 17.03-11.63 36.17-19.82 56.34-24.11 97.76-20.75 196.54 54.48 220.65 168 22.3 105.1-27.16 206.17-112.12 237.11z" fill="#000" fill-opacity=".15"/><path d="m1947.73 1825.22c22.11-113.95-39.5-221.76-137.6-240.79-98.1-19.04-195.55 57.91-217.66 171.87-22.11 113.95 39.5 221.76 137.6 240.79 98.1 19.04 195.55-57.91 217.66-171.87z" fill="#4a4b51" stroke="#333" stroke-miterlimit="10" stroke-width="5"/><path d="m1781.2 1941.56c58.51 0 105.94-53.04 105.94-118.46s-47.43-118.46-105.94-118.46-105.94 53.04-105.94 118.46 47.43 118.46 105.94 118.46z" fill="#000"/><path d="m1874.9 1740.31c7.45-21.05-4.42-44.45-26.5-52.27-22.09-7.82-46.03 2.91-53.48 23.96s4.41 44.45 26.5 52.27c22.08 7.81 46.03-2.91 53.48-23.96z" fill="#fff" stroke="#333" stroke-miterlimit="10" stroke-width="5"/><path d="m1863.62 1605.54c-112.85-32.07-212.74 65.3-233.15 170.44-16.75 86.35 14.07 169.22 72.35 213.35-81.88-32-130.23-129.93-110.25-232.89 22.12-114 119.58-190.89 217.68-171.85 18.92 3.67 37.01 10.77 53.37 20.95z" fill="#000" fill-opacity=".15"/><path d="m1910 3556c32 0 63.09-23.6 66.7-56.14 9.11-82.21-94.35-89.68-150.67-90.92-57.1-1.25-154.03 9.56-171.02 72.27-14.85 54.79 36.49 74.79 72.99 74.79s49-12.15 92.98-12.15c38.41 0 57.02 12.15 89.02 12.15z" fill="#816297" stroke="#333" stroke-miterlimit="10" stroke-width="5"/><path d="m1909 3534c-32 0-50.61-12.15-89.02-12.15-43.98 0-56.48 12.15-92.98 12.15-28.39 0-65.75-12.1-73.97-43.26-6.73 47.6 40.67 65.26 74.97 65.26 36.5 0 49-12.15 92.98-12.15 38.41 0 57.02 12.15 89.02 12.15 42.86 0 73-34.15 65.91-80.26-2.97 33.46-34.04 58.26-66.91 58.26z" fill="#000" fill-opacity=".2"/><path d="m2090 3556c-32 0-63.09-23.6-66.7-56.14-9.11-82.21 94.35-89.68 150.67-90.92 57.1-1.25 154.03 9.56 171.02 72.27 14.85 54.79-36.49 74.79-72.99 74.79s-49-12.15-92.98-12.15c-38.42 0-57.02 12.15-89.02 12.15z" fill="#816297" stroke="#333" stroke-miterlimit="10" stroke-width="5"/><path d="m2091 3534c32 0 50.6-12.15 89.02-12.15 43.98 0 56.48 12.15 92.98 12.15 28.39 0 65.75-12.1 73.97-43.26 6.73 47.6-40.67 65.26-74.97 65.26-36.5 0-49-12.15-92.98-12.15-38.42 0-57.02 12.15-89.02 12.15-42.86 0-73-34.15-65.91-80.26 2.97 33.46 34.04 58.26 66.91 58.26z" fill="#000" fill-opacity=".2"/><path d="m1601.4 3259.89c56.81.05 92.98-68.11 58.59-115.27 15.91-45.21-18.09-95.39-66.66-96.55-56-1.34-88.37 58.5-82.5 109.13 5.48 47.31 37.52 102.65 90.57 102.69z" fill="#994d5f" stroke="#333" stroke-miterlimit="10" stroke-width="5"/><path d="m1510.83 3157.2c6.78 58.57 54.37 126.8 125.37 93.8-68.83-8.8-117-125.5-83.11-191.84-5.39 3.84-13.89 8.34-27.6 27.61-12.29 21.73-17.7 46.2-14.66 70.43z" fill="#000" fill-opacity=".2"/><path d="m1644 2456.42c23-35.92 42.14-55.19 101.07-55.19s611 32.76 611 32.76" stroke="#634b37" stroke-linecap="round" stroke-linejoin="round" stroke-width="28"/><path d="m2834.85 1345.32c-195.46 24.29-451.5 35.79-744.22 29.23-278.45-6.23-594.76-58.44-844.56-123.85 30.05-40.22 62.7-78.43 97.73-114.4 182.55 38.29 426.92 76.45 754.51 101.81 272.66 21.11 481.91 6.89 642.19-16.73 35.37 38.17 66.97 79.68 94.35 123.94z" fill="#000" fill-opacity=".15"/><path d="m2775.35 1264.27-1462.64-90.52c9-51.45 33.57-136.28 28.93-232-8.26-167.099-80.75-342.702-29.49-507.05 128.58-412.2881 645.09-112.344 932.18-115.14 87.31-.86 223.41-33.56 367.67-.85 220.66 50 127.58 340.6 122.15 562-3.21 127.66 5.97 260.61 41.2 383.56z" fill="#974b5d" stroke="#000" stroke-linecap="round" stroke-linejoin="round" stroke-width="5"/><path d="m2775.35 1264.27c-.01-.05-.03-.09-.04-.14-24.15-84.33-36.04-173.35-40.1-262.15-230.16-59.676-1075.61-61.868-1393.57-60.25 4.64 95.72-19.92 180.54-28.93 232z" fill="#67253c" stroke="#000" stroke-width="5"/><path d="m1417 609.24c137.79 197.4 647.1 156.41 674.38-65.79s-62.37 64.27-349.78 56.89-353.42-32.34-324.6 8.9z" fill="#000" fill-opacity=".15"/><path d="m2775.35 1264.27-150-60c-35.25-123.03-44.2-255.787-41.23-383.49 4.43-180.69 67.22-407.41-29.71-511.91 19.34 2.291 38.56 5.586 57.56 9.87 220.66 50 127.58 340.6 122.15 562-3.21 127.66 6 260.58 41.23 383.53z" fill="#000" fill-opacity=".2"/><path d="m2532.15 1037.52c-14.72-13.84-34.85-19.05-50.57-31.04-6.74-5.35-15.02-8.404-23.62-8.71-77.68-2.848-141.79 70.76-120.5 147.17 14.57 52.26 56.75 88.6 111.39 90.45 59.67.86 112.27-53.28 117.78-110.24 3.3-34.54-9.47-64.15-34.48-87.63zm23.88 82.84c-3.04 69.66-73.88 117.1-138.74 91.95-39.04-15.14-63.2-56.82-63.2-97.84.37-36.93 17.2-64.69 48.31-83.72 35.92-21.97 90.41-15.06 120.7 13.24 23.36 21.81 32.93 44.83 32.93 76.37z" fill="#974b5d"/><path d="m2463.57 1119.66c.22-.73.42-1.46.63-2.19l66.65-1.84c0-.53 0-1.06-.07-1.57-.46-.26-.95-.45-1.47-.55-16.15-.35-32.32-.62-48.48-1-6.87-.18-13.78-.38-20.59-1.21-2.59-.52-4.92-1.94-6.58-4-7.9-9.83-15.54-19.87-23.08-30-.8-1.06-1.1-3.78-.4-4.48 7.32-7.14 14.64-14.31 22.43-20.91 9.87-8.36 20.18-16.21 30.71-24.61-9.35.72-18.68-2.9-28.05 1.43 4.34 5.91 4.57 6.89.85 10.74-13.75 14.2-27.64 28.27-41.48 42.39l-1.86-.8c-.85-15.49 3.39-31.19-.73-46.94-2.79 7.77-10.14 6-17.11 8.25 11.35 5.42 9.51 14.5 9.41 23.18-.11 6.13.18 12.25.85 18.34.58 5.1-.56 9-4.76 12.13-2.3 1.71-4.29 3.85-6.42 5.79.34.38.67.76 1 1.14l8-5.36c1 4.06 3.55 8.55 2.31 10.18-2.26 3-6.75 4.23-10.6 6.37 5.36 1.27 10.77 1.36 10.56 8.55-.29 10-.59 20-1.13 30-.44 8.2-1.52 9.18-9.73 10.59-2.48.43-4.95.94-7.43 1.41 7.38 4.32 16.71-1 23.28 7 1.17-4.1 1.79-8.34 1.83-12.61-.23-11.15-.75-22.31-1.33-33.45-.17-3.4.68-5.18 4.46-5.35 11.67-.54 23.36-2 35-1.64 3.89.1 8.75 3.55 11.3 6.88 8.57 11.25 16.36 23.1 24.34 34.81 4.16 6.09 8.06 12.33 12.23 18.72l-10 7.15c9.9 2.05 20.14 1.83 29.94-.65-22.82-19.02-35.74-44.76-54.48-65.89zm-27.68-7.53c-6.5 0-13-.64-19.5-.58-4 0-5.06-1.78-5.25-5.37-.59-10.79 2.33-19.88 11.16-26.86 3.49-2.75 4.87-.81 6.57 1.59 6.84 9.64 13.66 19.3 21.43 30.3-5.69.38-10.05.92-14.41.92z" fill="#974b5d"/><path d="m2520.83 1039.5c-19-17.79-41.95-25-67.7-25.47-18.86-.37-36.89 2.39-53 12.23-31.12 19-47.95 46.79-48.32 83.73 0 12.98 3.08 24.44 6.52 37.02 1.81 6.74 5.38 12.83 8.67 18.99-2.23-4.81-5.04-9.38-6.42-14.5-2.3-8.4-3.82-16.48-5.58-25-.78-3.74-.95-8.12-.95-12.02.38-36.94 17.2-64.7 48.32-83.73 16.09-9.84 34.12-12.6 53-12.23 25.75.5 48.65 7.68 67.7 25.47 8.93 8.17 16.45 17.76 22.24 28.39-5.97-12.43-14.28-23.59-24.48-32.88zm34.68 28.06c7.73 16.56 10.8 34.92 8.87 53.1-9.07 94.56-128.78 144.03-198.56 74.79-7.84-7.84-14.43-16.83-19.54-26.67 5.4 11.57 12.77 22.11 21.78 31.16 68.25 67.69 189.37 20.4 198.56-74.79 2.02-21.15-1.97-40.41-11.11-57.59z" fill="#49162a"/><path d="m2530.78 1114.06c-.46-.26-.95-.45-1.47-.55-16.15-.35-32.32-.62-48.49-1h-.3l-18.52.49c-.21.73-.41 1.46-.62 2.19.89 1 1.78 2 2.64 3.08.08-.26.15-.52.23-.78l66.65-1.84c-.08-.54-.1-1.07-.12-1.59zm-17.22 67.54c-6.76 1.48-13.71 1.88-20.6 1.19l-4.83 3.43c9.9 2.05 20.14 1.83 29.94-.65-1.55-1.29-3.07-2.57-4.51-3.97zm-54.23-60.54c-2.55-3.34-7.41-6.78-11.3-6.89-11.64-.31-23.32 1.1-35 1.64-3.78.17-4.62 2-4.45 5.36.57 11.13 1.1 22.29 1.32 33.44-.04 4.27-.66 8.51-1.83 12.62-2.81-3.44-6.13-4.43-9.59-4.76-1.1.3-2.42.56-4 .83-2.48.42-4.95.93-7.43 1.4 1.26.73 2.64 1.24 4.07 1.51 6.84 1.32 14.44-.43 19.38 5.79 1.18-4.1 1.66-8.63 1.7-12.9-.22-11.15-.75-22.31-1.32-33.44-.17-3.4.67-5.19 4.46-5.36 11.67-.54 23.36-2 35-1.64 3.88.11 8.74 3.55 11.29 6.89 8.58 11.24 16.37 23.1 24.35 34.81-5.16-10.86-20.43-31.14-26.65-39.3zm16.25-93.91c-8.62 6.8-17.07 13.36-25.22 20.26-7.79 6.61-15.11 13.78-22.43 20.92-.7.69-.39 3.41.4 4.48l1.47 2c-.13-.69 0-1.4.37-2 7.32-7.14 14.64-14.31 22.43-20.92 9.88-8.36 20.19-16.21 30.72-24.6-2.58.16-5.17.11-7.74-.14zm-63.54 6.96c-.25.73-.59 1.43-1 2.08 1.78 13.55-1.26 27-.53 40.38l2.13.51c-.05-14.2 3.18-28.57-.64-42.97z" fill="#49162a"/><path d="m2526.45 1045.11c-9.98-9.4-21.98-16.4-35.07-20.46 11.8 4.17 22.59 10.76 31.7 19.34 22.1 20.63 34.26 46.09 33 76.37-1.82 41.75-26.28 76.36-64.06 91.8-21.48 8.88-45.42 9.83-67.53 2.67 23.45 8.18 47.66 8 70.9-1.54 37.77-15.45 62.24-50.06 64-91.81 1.32-30.27-10.84-55.73-32.94-76.37zm-68.45-47.34c-38.19-1.4-70.2 13.33-95.29 40.92-27.48 30.21-36.39 66.13-25.21 106.25 5.8 20.84 15.41 40 30.6 55 12.28 12.2 27.32 21.26 43.85 26.4-15.22-5.27-29.06-13.91-40.48-25.28-15.19-15-24.8-34.16-30.6-55-11.18-40.12-2.27-76 25.21-106.26 25.09-27.59 57.09-42.32 95.29-40.91 3.17.1 6.31.58 9.36 1.43-4.07-1.548-8.37-2.409-12.73-2.55z" fill="#bc7394"/><path d="m2530.78 1114.06c-.46-.26-.95-.45-1.47-.55-16.15-.35-32.32-.62-48.49-1-6.76-.18-13.57-.37-20.29-1.17.94.56 1.99.93 3.07 1.09 6.82.83 13.72 1 20.59 1.2 15.54.41 31.09.66 46.61 1-.01-.21-.01-.39-.02-.57zm-41.49 47.42c-8-11.71-15.77-23.56-24.35-34.81-2.34-3.05-6.62-6.21-10.31-6.78 2.7 1.35 5.07 3.28 6.94 5.66 8.58 11.24 16.37 23.1 24.35 34.81 4.15 6.08 8.06 12.32 12.23 18.71-3.09 2.21-6 4.26-10 7.15 1.36.26 2.69.48 4 .68l9.38-6.71c-4.18-6.38-8.09-12.63-12.24-18.71zm-34-132.76c4.35 5.92 4.57 6.9.86 10.75-13.28 13.7-26.69 27.3-40 40.93 0 .59 0 1.19.07 1.78l1.86.8c13.85-14.12 27.73-28.19 41.48-42.39 3.72-3.85 3.5-4.83-.85-10.74 7.76-3.59 15.48-1.72 23.2-1.39l1.49-1.16c-9.4.7-18.76-2.91-28.14 1.42zm-47.55 38c.1-8.68 1.94-17.76-9.41-23.19 5.49-1.79 11.23-1.06 14.77-4.46-.26-1.64-.6-3.27-1-4.91-2.78 7.77-10.13 6-17.1 8.25 11.34 5.42 9.5 14.51 9.4 23.18-.1 6.13.18 12.26.86 18.35.58 5.09-.57 9-4.76 12.12-2.3 1.72-4.29 3.85-6.43 5.79.34.38.68.77 1 1.15 2.88-1.94 6.08-3.74 8.71-5.82 4.2-3.09 5.35-7 4.76-12.12-.66-6.11-.94-12.25-.83-18.39zm-5.14 49.36c2 1.31 2.84 3.64 2.76 6.65-.29 10-.59 20-1.13 30-.44 8.21-1.52 9.18-9.74 10.6-2.48.42-4.95.93-7.43 1.4 1.26.73 2.64 1.24 4.07 1.51l-.7-.39c2.48-.47 4.95-1 7.43-1.4 8.22-1.41 9.3-2.39 9.73-10.6.54-10 .85-20 1.14-30 .09-4.36-1.64-7.3-6.16-7.85z" fill="#bc7394"/><path d="m800.63 996.49c-28.89 116 712.08 327 1290 339.93 701 15.7 1191.67-72.15 1143.57-191.12-59.86-148.07-299.77 119.41-1135.89 54.68-1122.31-86.89-1267.75-323.74-1297.68-203.49z" fill="#974b5d" stroke="#000" stroke-linecap="round" stroke-linejoin="round" stroke-width="5"/><path d="m2090.63 1336.42c-577.92-12.94-1318.89-223.92-1290-339.93 2-8.14 4.58-14.65 7.94-19.67 83.73 119 751.58 297.72 1282.06 309.6 619.45 13.87 1074.68-53.11 1139-151 1.69 3.21 3.22 6.5 4.57 9.86 48.1 118.99-442.58 206.84-1143.57 191.14z" fill="#000" fill-opacity=".2"/><path d="m1723.32 3229.94c-17.43-29.65-29.9-61.54-36.34-94.04 67.82 39.98 182.79 66.27 313.21 66.27 130.21.06 245.03-26.14 312.88-66.02-6.35 32.49-18.66 64.26-35.95 93.76-68.95 29.58-167.5 48.09-276.93 48.09-109.4 0-207.92-18.5-276.87-48.06z" fill="#994d5f" stroke="#333" stroke-miterlimit="10" stroke-width="5"/><path d="m1723.24 3229.79c-7.48-12.74-14.05-25.89-19.61-39.33 76.59 27.22 182.28 44.05 299 44.05 113.8 0 217.14-16 293.23-42.06-5.32 12.72-11.55 25.17-18.61 37.24-69.02 29.72-167.63 48.31-277.12 48.31-109.37 0-207.89-18.55-276.89-48.21z" fill="#000" fill-opacity=".2"/><path d="m2059.13 3186.99h-118.27c-5.52 0-10 4.48-10 10v80.08c0 5.52 4.48 10 10 10h118.27c5.52 0 10-4.48 10-10v-80.08c0-5.52-4.48-10-10-10z" fill="#e0cad0"/><path d="m1986.71 3204.1c0-.11-3.34-.16-7.67-.16-1.04.34-1.64 1.57-1.6 2.6v36.16c-.08 1.36.91 2.25 2.1 2.71v-36.07c-.04-.91.39-1.81 1.12-2.35.75-.57 3.44-.87 4.85-.87s1.2-1.45 1.2-2.02zm-1.18 45.15-1-.21c0 .26-.07.55-.13.83-4.46-.34-8.92-.54-13.39-.54-3.69 0-7.36.23-11.04.49 0 .68.03 2.18.04 2.95 4.35-.34 8.69-.64 13.06-.64 4.47 0 8.92.19 13.38.53.26-1.27.72-2.99-.92-3.41z" fill="#000" fill-opacity=".4"/><path d="m2033.15 3210.74c-.32-.51-4.37-5.2-4.79-5.64 1.21 2 4.1 5.65 5.68 10.07 6 16.74-2.54 41.9-32.45 54.5l-1.33.7c-1.43 1.15-2.72 2.15-3.61 2.82h1.69c32.49-12.26 48.97-39.55 34.81-62.45zm-25.15 31.17c-2.43.02-4.85-.34-7.17-1.07-2.04-.65-3.79-2.23-5.14-3.85.67 1.17 1.5 2.24 2.46 3.18 1.63 1.6 2.68 2.64 4.85 3.33 2.32.72 4.67 1.23 7.1 1.21 2.8.05 5.58-.53 8.13-1.69 3.6-1.75 6.56-5.87 7-7.68-5.23 5.55-12.56 6.57-17.23 6.57zm-1.93-33.28c-1.57 2.36-2.35 6.43-2.35 12.2 0 5.28.72 9 2.19 11.19.4.61.88 1.15 1.44 1.62-1.02-2.25-1.53-5.58-1.53-10 0-5.78.78-9.85 2.35-12.2 2.12-3.45 7.27-4.8 10.53-2.14-2.42-5.2-9.61-5.58-12.63-.67z" fill="#000" fill-opacity=".4"/><g fill="#faf2f5"><path d="m1968.12 3203.94c-4.33 0-8 .06-8 .15 0 .58-.21 2.31 1.2 2.31 1.29.01 2.58.17 3.84.46 1.02.48 1.79 1.29 1.77 2.48v36.17c.06.94-.45 1.89-1.28 2.35-1.49.69-3.07 1.16-4.7 1.39-.7.06-1.24.69-1.18 1.39-.04.72-.05 1.46.26 2.13l2.56-.19c0-.42 0-.83 0-1.25-.06-.7.48-1.33 1.18-1.39 1.63-.22 3.21-.69 4.7-1.39.83-.46 1.34-1.4 1.29-2.35v-39.68c.03-1.03-.76-2.58-1.64-2.58z"/><path d="m1996.65 3273.14c12.17-9.18 21.49-18.26 25.7-33.09 1.09-1.51 2.08-3.1 2.94-4.76-1.41 8.49-4.9 16.5-10.16 23.31-5.57 7.07-14.81 13.1-16.67 14.54z"/><path d="m1992 3225c.02-12.35 10.57-22.36 22.74-22.12 3.05-.07 6.09.33 9.02 1.2-14.22-2.57-29.03 6.38-28.96 21.62-.18 7.67 3.17 16.08 10.98 18.56-9.45-1.65-14-10.36-13.78-19.26z"/><path d="m2012.12 3236.73c5.13.47 9.88-5.76 10.6-13.89.47-5.32-.89-10.13-3.32-12.96 1.65 3.36 2.3 7.11 1.89 10.83-.72 8.14-5.47 14.36-10.59 13.91-1.83-.22-3.55-1.18-4.69-2.63 1.45 2.74 3.59 4.52 6.11 4.74z"/><path d="m2069.09 3196h-125.63c-1.96 0-3.6 1.63-3.6 3.59v87.41c-5.04-.51-9-4.88-9-9.95v-80.05c0-5.45 4.55-10 10-10h118.28c5.07 0 9.44 3.96 9.95 9z"/></g><path d="m2069.14 3197v80.08c0 5.45-4.55 10-10 10h-118.28c-4.7.01-8.87-3.4-9.81-8h123.63c2.97-.01 5.45-2.49 5.46-5.46 0-27.31-.19-59.12-.19-86.62 5.13.42 9.21 4.85 9.19 10z" fill="#000" fill-opacity=".4"/><path d="m2059.13 3186.99h-118.27c-5.52 0-10 4.48-10 10v80.08c0 5.52 4.48 10 10 10h118.27c5.52 0 10-4.48 10-10v-80.08c0-5.52-4.48-10-10-10z" stroke="#333" stroke-width="5"/><path d="m2660.49 3138.57c-63.73-62.94-78.2-123.92-69.82-176.26 8.41-52.51 39.89-96.75 68.8-125.86 82.1-82.68 212.44-98.98 302.45-.71 4.09 4.48 4.1 10.16 1.64 14.36-2.45 4.19-7.27 6.79-13.04 5.16-71.24-20.5-151.97-2.76-206.77 47.44-26.74 24.49-51.32 63.03-64.88 104.16-13.55 41.1-16.24 85.24 1.43 120.69 1.5 3 1.46 5.56.66 7.62-.84 2.12-2.59 3.96-4.95 5.22-4.79 2.56-11.28 2.36-15.52-1.82z" fill="#fbdd11" stroke="#333" stroke-width="5"/><path d="m2849.88 2768.71c40.52 7.44 80.02 28.38 113.88 65.35 9.82 10.72.03 27.57-13.93 23.6-5.46-1.57-10.99-2.94-16.56-4.07 11.96-.94 16.66-16.52 6.91-28.76-13.4-16.8-27.84-38.36-90.3-56.12z" fill="#000" fill-opacity=".15"/><path d="m2657.69 2834.69c-58.21 58.62-127.43 178.78 1.05 305.66.06.06.13.13.2.19 8.84 8.42 24.82 2.61 25.07-8.06-124.05-120.55-49.1-314.46 102.46-364.77-47.28 6.95-92.68 30.63-128.78 66.98z" fill="#000" fill-opacity=".15"/><path d="m2574 2922c103.5-51.5 96.5 173.5 9.5 132.5z" fill="#994d5f"/><path d="m2572.5 2923c101-59 102 177 9.5 130.5" stroke="#333" stroke-linecap="round" stroke-miterlimit="10" stroke-width="5"/><path d="m2643.16 3026c-30.82 11.58-64.35 14.51-91.58 4.13 4.4 4.94 29.27 30.48 52.92 29.87 19.5-.5 31-13 38.66-34z" fill="#000" fill-opacity=".2"/><path d="m2000 1656c17.83-116.95 111.73-240.73 234-257.09 76.99-10.3 153.28 23.72 214 81.49-161.8-58.51-358.72 41.03-448 175.6z" fill="#feda30"/><path d="m2512.07 1968.14c-119.73 66.91-257.61 80.54-391.07 58.25 57.86 50.95 129.67 80.66 205.07 70.73 79.1-10.41 142.95-61.92 186-128.98z" fill="#feda30"/><path d="m2000 1656c17.83-116.95 111.73-240.73 234-257.09 76.99-10.3 153.28 23.72 214 81.49-161.8-58.51-358.72 41.03-448 175.6z" stroke="#333" stroke-linecap="round" stroke-linejoin="round" stroke-width="5"/><path d="m2512.07 1968.14c-119.73 66.91-257.61 80.54-391.07 58.25 57.86 50.95 129.67 80.66 205.07 70.73 79.1-10.41 142.95-61.92 186-128.98z" stroke="#333" stroke-linecap="round" stroke-linejoin="round" stroke-width="5"/><path d="m1800.38 1411.98c-90.15-27.79-181.98 8.37-248.57 71.72 161.66-62.37 358.61 37.29 448.19 172.3-15.52-101.77-100.35-211.8-199.62-244.02z" fill="#feda30"/><path d="m1696.97 2104.11c70.17 2.1 135.86-29.3 188.75-78.85-137.44 23.27-277.89 10.76-401.11-58.98 46.18 74.71 121.86 134.61 212.36 137.83z" fill="#feda30"/><path d="m1800.38 1411.98c-90.15-27.79-181.98 8.37-248.57 71.72 161.66-62.37 358.61 37.29 448.19 172.3-15.52-101.77-100.35-211.8-199.62-244.02z" stroke="#333" stroke-linecap="round" stroke-linejoin="round" stroke-width="5"/><path d="m1696.97 2104.11c70.17 2.1 135.86-29.3 188.75-78.85-137.44 23.27-277.89 10.76-401.11-58.98 46.18 74.71 121.86 134.61 212.36 137.83z" stroke="#333" stroke-linecap="round" stroke-linejoin="round" stroke-width="5"/><path d="m1785 2099c0 76.35 98.85 169 216.26 168 108.22-.95 213.74-92.55 213.74-167.78 0-152.13-430-154.42-430-.22z" fill="#000" fill-opacity=".1"/><path d="m1782 2081c0 76.35 100.23 169 219.27 168 109.73-.95 216.73-92.55 216.73-167.78 0-60.53-126.24-113.77-216.73-113-84.02.78-219.27 41.16-219.27 112.78z" fill="#7f6145"/><path d="m1783.58 2067.77c41.76 54.75 124.68 100.94 217.85 100.22 86.21-.68 170.92-47.12 214.09-101.55 1.62 4.86 2.48 9.8 2.48 14.78 0 75.23-107 166.83-216.73 167.78-119.04 1-219.27-91.65-219.27-168 0-4.54.54-8.95 1.58-13.23z" fill="#000" fill-opacity=".2"/><path d="m2573.77 1764.6c-.66 123.27-72.75 268.13-190.88 317.21 95.29-61.62 152.08-188.08 152.66-297.55.96-183.58-181.09-431.24-385.95-355.18 26-15.6 54.29-26.14 84.37-30.17 172.17-23.04 340.81 175.53 339.8 365.69z" fill="#000" fill-opacity=".1"/><path d="m1835.89 1427c-204.38-55.89-374.48 186.25-370.31 368.01 2.47 107.25 59.36 229.79 152.7 291.65-116.4-48.78-189.2-190.33-192-312-4.33-190.11 160.82-391.59 333.36-371.55 26.68 3.19 52.53 11.29 76.25 23.89z" fill="#000" fill-opacity=".1"/></svg>