<svg xmlns="http://www.w3.org/2000/svg" width="4000" height="4000" fill="none" xmlns:v="https://vecta.io/nano"><style><![CDATA[.B{fill:#000}.C{stroke-width:5}.D{stroke:#333}.E{stroke-miterlimit:10}.F{fill-opacity:.15}.G{fill-opacity:.1}.H{fill:#3b7217}.I{fill:#6aa047}.J{fill-opacity:.2}.K{stroke-linejoin:round}]]></style><path d="M2275.1 3290.64c-50.77-7.42-115.16-32.27-196.86-76-11.87-6.35-16.67-21.85-10.25-33.84 6.35-11.87 21.85-16.66 33.84-10.25 75.45 40.37 136.18 64.12 180.5 70.6 28.93 4.23 49.75 1 61.88-9.64 13.6-11.92 12.4-33 8.83-72.4-4.17-46.12-9.36-103.53 19.78-169.5 44-99.72 153.63-194.53 269.1-176.7 73.33 11.36 143.6 66.2 159.73 140.6 13.73 63.36-6.02 150.17-73.53 174.43-44.77 16-95.93-2.36-130.84-32.08-10.44-8.68-11.95-25-3.06-35.44 8.8-10.34 25.15-11.64 35.48-2.62.43.36 43.66 36.65 81.5 23.06 42.84-15.38 49.77-78.95 41.56-116.78-11.75-54.23-65.6-93.57-118.5-101.77-92.84-14.33-180.8 68.5-215.72 147.5-23.9 54.16-19.56 102.32-15.72 144.8 4 43.84 7.7 85.25-25.67 114.5-27.66 24.4-67.07 26.8-102.02 21.54z" class="C D E H"/><path d="M2786.65 2965.53c11.06 51.02 1.18 114.55-37.82 152.08 51.4-33.7 65.07-107.56 52.82-164.08-16.13-74.4-86.4-129.24-159.73-140.6-66.26-10.23-131.78 18.56-181.54 60.82 114.12-80.75 293.3-60.36 326.27 91.78zm-69.03 112.53c-27.03 31.45-75.6 15.26-102.9-8.23-3.14-2.68-6.9-4.54-10.94-5.4a25.037 25.037 0 0 0-12.19.41c3.97-7.3 11.63-12.23 19.93-12.9 6.6-.53 13.15 1.6 18.2 5.9 22.07 19.5 59.84 35.17 87.9 20.24zm-644.12 95.44c3.5-3 15.5-9 23-5.5 6.98 3.26 15.34 7.4 24.73 12.03 49.42 24.4 127.47 62.97 183.77 62.97 50 0 54.5-25 47.5-91 .85 3.82 1.92 8.03 3.06 12.5 9.62 37.75 24.1 94.5-50.56 94.5-81.5 0-208.8-70.57-231.5-85.5z" class="B J"/><path d="M1587 3147c36.5 0 65.66-32.58 62.04-68.42-5.42-63.52 18.62-132.2 65.95-198.4 43.06-60.25 89.2-93.25 53.7-132.2s-115.56 3.92-155.4 59.5c-65.7 91.92-97.2 189.1-88.63 283.68 3.2 31.47 25.83 55.82 62.33 55.82z" class="C D E H"/><path d="M1553.1 3059.16c-.42-112.27 89.6-277.66 195.1-324.16-130-21-245 233.5-222.7 351.77 7.2-11.77 19.7-23.27 27.6-27.6z" class="B F"/><path d="M1959.37 3446.5c5-87.08 27.4-154.43 47.17-206.8s42.42-144.7-42.56-166.02c-121.5-30.5-188.3 254.12-193.3 340.94-2.93 51.08 36.82 110.33 88.4 113.3 47.48 2.3 97.45-31.8 100.3-81.4z" class="C D E H"/><path d="M1769.48 3414.5c51.5-7 148-7 188.5 34l1.66-15.04c-42.16-36.96-138.16-39.46-188.02-32.46-.26 3.3-1.86 10.13-2.14 13.5zm16-89.5c47.76 44.3 108.88 69.13 178 78.5.58-5 1.8-12.18 2.5-17-68.6-8.88-128.2-37.6-176-81-2 6-3.62 15.27-4.5 19.5z" class="B F"/><path d="M2040.63 3446.5c-5-87.08-27.4-154.43-47.17-206.8s-42.42-144.7 42.56-166.02c121.5-30.5 188.3 254.12 193.3 340.94 2.93 51.08-36.82 110.33-88.4 113.3-47.48 2.3-97.45-31.8-100.3-81.4z" class="C D E H"/><path d="M2230.52 3414.5c-51.5-7-148-7-188.5 34l-1.66-15.04c42.16-36.96 138.16-39.46 188.02-32.46.26 3.3 1.86 10.13 2.14 13.5zm-16-89.5c-47.76 44.3-108.88 69.13-178 78.5-.58-5-1.8-12.18-2.5-17 68.6-8.88 128.2-37.6 176-81 2 6 3.62 15.27 4.5 19.5z" class="B F"/><path d="M2413 3147c-36.5 0-65.66-32.58-62.04-68.42 5.42-63.52-18.62-132.2-65.95-198.4-43.06-60.25-89.2-93.25-53.7-132.2s115.56 3.92 155.4 59.5c65.7 91.92 97.2 189.1 88.63 283.68-3.2 31.47-25.83 55.82-62.33 55.82z" class="C D E H"/><path d="M2446.9 3059.16c.42-112.27-89.6-277.66-195.1-324.16 130-21 245 233.5 222.7 351.77-7.2-11.77-19.7-23.27-27.6-27.6z" class="B F"/><path d="M3133.2 1832.12c111.1 102 66.32 309.3-9.1 427.16-107.46 168-353.47 273.75-479.46 184.37-131.58-93.35-114.4-386.92 39.2-539.32 114.68-113.78 334.45-177.7 449.35-72.2z" class="C D E I"/><path d="M3003.5 1952.22c66 68.2 30.1 196.68-21.65 267.88-73.75 101.45-232.17 158.7-307.94 97.86-79.14-63.53-57.4-247.22 44.75-337.18 76.26-67.16 216.64-99.08 284.84-28.56z" fill="#7bb256"/><path d="M3124.1 2259.28c-60.7 94.85-195.1 203.22-346.6 216.72 106.36-25 260-133.85 306.64-206.72 75.4-117.87 115.36-338.97 9.1-427.16-32.4-26.9-114.73-65.12-227.73-45.12 138-42.5 222.8-6.13 267.73 35.12 111.06 102 66.28 309.3-9.13 427.16z" class="B G"/><path d="M866.818 1832.12c-111.1 102-66.32 309.3 9.1 427.16 107.46 168 353.472 273.75 479.462 184.37 131.58-93.35 114.4-386.92-39.2-539.32-114.68-113.78-334.452-177.7-449.352-72.2z" class="C D E I"/><path d="M996.518 1952.22c-66 68.2-30.1 196.68 21.652 267.88 73.75 101.45 232.17 158.7 307.94 97.86 79.14-63.53 57.4-247.22-44.75-337.18-76.26-67.16-216.64-99.08-284.842-28.56z" fill="#7bb356"/><path d="M875.908 2259.28C936.598 2354.13 1071 2462.5 1222.5 2476c-106.36-25-260.02-133.85-306.642-206.72-75.4-117.87-115.36-338.97-9.1-427.16 32.41-26.9 114.732-65.12 227.732-45.12-138.002-42.5-222.792-6.13-267.732 35.12-111.06 102-66.28 309.3 9.13 427.16z" class="B G"/><path d="M2000 2548c154 0 220 135 260 246s58 220 58 292c0 152-138.68 305.46-318 307-175.53 1.5-318-155-318-307 0-72 17.7-181.5 58-292 40-111 106-246 260-246z" class="C D E H"/><path d="M2000 3393c-175.67 1.6-330-157-318-337 10 148 145.15 288.48 318 287s308-139 318-287c12 180-142.33 335.4-318 337z" class="B F"/><path d="M2000 2672c104 0 160 68 174 128 34.5 147.82 64 274 4 350s-134.95 82-178 82c-47.55 0-118-6-178-82s-32.44-193.83 4-350c14-60 70-128 174-128z" class="C D E I"/><path d="M2000 3232c-136 0-224-94-213-216 4 115 96 190 213 190s209-75 213-190c11 122-77 216-213 216z" class="B G"/><path d="M2456.64 2931.88c-11.23 9.05-89.14 48.12-125.5 41.88C2320 2942 2309.5 2925 2298 2909c24 77 44.5 218.5-5 301-60.8 59.77-184 90-293 90s-232.2-30.23-293-90c-40-63-40-180.5-5-301-10 12-17.28 22.88-33.15 64.76-43.85 0-95.08-15.23-127.5-37.88C1562 2871.5 1594 2830 1604.22 2819c132.06 51.4 252.28 79.13 395.78 79.13s284.48-30 398.6-75c7.12 10.87 44.4 57.37 58.05 108.75z" fill="#0e45fe" class="C D K"/><path d="M1669 2974c-43 1-93.5-18-127-38 .5-5 6.5-19 8-21.5 22 20 76.84 42.96 118.04 40.4C1674 2942 1682 2920 1702 2907c-4.86 7.78-26.5 45-33 67zm788-42c-33.5 20-82.5 43-125.5 42-6.5-22-28.14-59.22-33-67 17.36 11.3 25.62 29.83 33.96 47.9 41.2 2.55 96.04-23.4 118.04-43.4 2 4 5.5 15 6.5 20.5zm-137 97.86c10.5 97.14-9.78 154.9-28.54 181.84-84.96 72.8-207.78 87.57-291.46 88.3-118.33 1-232.94-31.66-293.74-91.43-27.26-35.57-30.95-113.88-30.07-161.9.77 43.1 10.9 101.04 39.3 137.34 46.8 59.77 166.17 88.04 284.5 87 129.24-1.12 245.6-25.36 291.34-93.1 27.9-41.34 27.94-100.75 28.66-148.03zm75-211.86c-115.35 45.2-271 79-395 79s-259.34-26.43-395-79c-7.24 10.54-16.6 26.27-23 37 142 57 275 86 418 86s276-29 418-86c-6.15-10.7-15.93-26.36-23-37z" class="B F"/><path d="M2267.76 936.82C2665.92 1066 2967.42 1339.94 2966 1847c-1.1 388.75-350.07 990.8-966.43 996.18-594.62 5.2-966.64-596.22-965.57-996.18 1.32-488.44 432.13-990.94 966-1028.5 394.94-27.786 393.5 65.5 267.76 118.32z" class="C D H K"/><path d="M2338.5 857.24c-81.02-12.02-182.82-22-304.56-13.44C1380.48 889.737 907 1615 1169.36 2202.88c68.14-70.38 151.14-90.38 177.6-99.16 7.94 8.57 17.6 17.67 21.05 21.78-81.37 25.35-175.93 80.4-216.63 156.84-76.27-147.6-117-302.56-116.6-435.33 1.32-488.45 432.22-991 966.1-1028.57 88.45-6.217 163.54-5.148 226.63-.982 80.5 8.542 100 26.342 111 39.782zm626 989.83c-.36 127.74-38.12 278.5-110.54 423.57C2779 2168 2644.73 2127 2631 2127l20-24.5c23.5 5.5 128.62 27.9 187.28 106.2 59.3-132.15 86.52-255.16 86.84-370.86 1.47-524.24-353.62-784.84-657.36-901.02C2665.92 1066 2965.92 1340 2964.5 1847.07z" class="B F"/><path d="M1725 1203.5c-297 0-665 628.5-363.5 918.5-575.5 180 0 779 638.5 779s1214-599 638.5-779c301.5-290-66.5-918.5-363.5-918.5-126.5 0-195.5 58.5-275 116.5-79.5-58-148.5-116.5-275-116.5z" class="C D I"/><g class="B"><path d="M2749.1 1817c-15.7-308.54-265-613.2-481.5-613.2-134.6 0-216.2 82.14-267.6 116.2-41.1-28.05-132.5-116.2-268.4-116.2-255.6 0-478.1 373.2-482.13 622.7C1227 1558 1433.07 1155 1733 1155c156 0 239 75 267 106 28-31 111-106 267-106 297.63 0 503.5 381.5 482.1 662z" class="F"/><path d="M1250.37 1807.4c-7.1 117.45 24.02 230 111.45 314.1-10.42 3.26-20.47 7.66-30.15 11.2 22.33-7.2 43.66-12.28 68.33-16.7-84.54-81.32-133.47-191.77-149.63-308.6zm-101.77 459.27c-135.93 245.26 334.32 633.83 851.4 633.83s993.17-392.85 849.75-637.86C2945.1 2486.74 2490.72 2863 2000 2863c-487.8 0-939.7-371.78-851.4-596.33zM2670.5 2133c-21.76-6.4-44.6-12.37-70.5-17 85.32-82.07 134.37-193.8 150.07-311.86 7.9 118.62-23 232.5-111.25 317.36 11.32 3.54 21.24 7.64 31.68 11.5z" class="G"/><path d="M2359.06 2685.1l25.38-8.07-249.25-155.98 281.26-63.52-11.57-18.88 5.76-19.1-15.22-13.98 7.46-25.37-18.44-19.07 12.23-23.65-407.14 92.43-346.03-216.55 3.84 26.8-27.63 20.32 7.42 17.22-23.43 9.76 3.9 17.75-23.16 10.3 240.38 151.8-215.32 48.9-64.63 17.34 21.67 16.24-5.17 33.9 17.42 6.92-9.66 23.47 15.3 9.8-9.1 23.65 393.94-88.98 344.24 217.4 5.16-21.53 17.6-9.44-.88-20.65 23.2-12.66.44-26.53z"/></g><path d="M1759.66 1403.06c154.9 18 266.48 208.75 250 376.77-16.38 167.34-162.7 342-329.88 323-151.8-17.3-250.26-186.22-253.5-328.16-4.3-190.16 160.84-391.67 333.38-371.6z" fill="#fff"/><g class="B"><path d="M1835.9 1427c-204.38-55.9-374.48 186.25-370.3 368 2.47 107.25 59.36 229.8 152.7 291.65-116.4-48.78-189.2-190.33-192-312-4.33-190.1 160.82-391.6 333.36-371.55 26.68 3.2 52.53 11.3 76.25 23.9z" fill-opacity=".05"/><path d="M1756.82 1955.43c84.1 0 152.26-68.17 152.26-152.26s-68.17-152.26-152.26-152.26-152.26 68.17-152.26 152.26 68.17 152.26 152.26 152.26z"/></g><path d="M1780.3 1780.96c22.37 0 40.5-18.14 40.5-40.52 0-22.37-18.14-40.5-40.5-40.5-22.38 0-40.52 18.14-40.52 40.5 0 22.38 18.14 40.52 40.52 40.52zm-89.56-17.32c11.7 0 21.2-9.5 21.2-21.2s-9.5-21.2-21.2-21.2-21.2 9.5-21.2 21.2 9.5 21.2 21.2 21.2zm31.34-53.2c9.87 0 17.88-8 17.88-17.88s-8-17.87-17.88-17.87-17.87 8-17.87 17.87 8 17.88 17.87 17.88zM2234 1398.9c-154.54 20.68-262.8 213.36-243.4 381.08 19.3 167 168.63 339.1 335.47 317.13 151.47-19.94 247-190.55 247.73-332.52.98-190.16-167.66-388.73-339.8-365.7z" fill="#fff"/><g class="B"><path d="M2573.77 1764.6c-.66 123.27-72.75 268.13-190.88 317.2 95.3-61.62 152.08-188.08 152.66-297.55.96-183.58-181.1-431.24-385.95-355.18 26-15.6 54.3-26.14 84.37-30.17 172.17-23.04 340.8 175.53 339.8 365.7z" fill-opacity=".05"/><path d="M2243.18 1955.43c-84.1 0-152.26-68.17-152.26-152.26s68.17-152.26 152.26-152.26 152.26 68.17 152.26 152.26-68.17 152.26-152.26 152.26z"/></g><path d="M2219.7 1780.96c-22.37 0-40.5-18.14-40.5-40.52 0-22.37 18.14-40.5 40.5-40.5 22.38 0 40.52 18.14 40.52 40.5 0 22.38-18.14 40.52-40.52 40.52zm89.56-17.32c-11.7 0-21.2-9.5-21.2-21.2s9.5-21.2 21.2-21.2 21.2 9.5 21.2 21.2-9.5 21.2-21.2 21.2zm-31.34-53.2c-9.87 0-17.88-8-17.88-17.88s8-17.87 17.88-17.87 17.88 8 17.88 17.87-8 17.88-17.88 17.88z" fill="#fff"/><path d="M1785 2099c0 76.35 98.85 169 216.26 168 108.22-.95 213.74-92.55 213.74-167.78 0-152.13-430-154.42-430-.22z" class="B G"/><path d="M1782 2081c0 76.35 100.23 169 219.27 168 109.73-.95 216.73-92.55 216.73-167.78 0-60.53-126.24-113.77-216.73-113-84.02.78-219.27 41.16-219.27 112.78z" class="H"/><path d="M1783.58 2067.77c41.76 54.75 124.68 100.94 217.85 100.22 86.2-.68 170.92-47.12 214.1-101.55 1.62 4.86 2.48 9.8 2.48 14.78 0 75.23-107 166.83-216.73 167.78-119.04 1-219.27-91.65-219.27-168 0-4.54.54-8.95 1.58-13.23z" class="B J"/><g fill="#777" class="C D E"><path d="M1713.06 3354.78l-49.76 5.88c-33.16 3.92-27.08 55.5 6.08 51.58l49.78-5.9c31.75-3.75 27.3-55.52-6.1-51.57zm.94 40.48l-39.27 4.64c-19.07 2.25-22.44-26.23-3.36-28.5l39.26-4.63c19.08-2.26 22.44 26.22 3.37 28.48zm-113.4-22.48l-49.2 9.45c-33.08 6.36-22.48 57.2 9.8 51l49.22-9.46c32.3-6.2 23.12-57.33-9.8-51zm3.85 40.3l-38.82 7.46c-18.87 3.63-24.28-24.54-5.4-28.16l38.82-7.47c17.17-3.3 24.68 24.47 5.4 28.17zm-113.2-9.34l-45.7 20.57c-30.44 13.7-9.18 61.08 21.3 47.36l45.7-20.57c29.18-13.14 9.62-61.27-21.3-47.36zm13.06 38.33l-36.05 16.22c-17.52 7.9-29.3-18.27-11.78-26.15l36.06-16.23c17.5-7.88 29.28 18.27 11.77 26.16zm-114.54.37l-49.65 6.77c-33.13 4.5-26.07 55.97 7 51.46l49.67-6.77c33.08-4.5 26.06-55.97-7.02-51.46zm1.66 40.46l-39.18 5.33c-19.03 2.6-22.9-25.82-3.87-28.4l39.17-5.34c19.04-2.6 22.9 25.82 3.88 28.42z"/><path d="M1761 3374.5h-38.77c-1.48 0-2.68 1.2-2.68 2.68v3.64c0 1.48 1.2 2.68 2.68 2.68H1761c1.48 0 2.68-1.2 2.68-2.68v-3.64c0-1.48-1.2-2.68-2.68-2.68zm-102.38 9.47l-46 6.23c-1.6.2-2.7 1.68-2.5 3.27l.43 3.15c.2 1.6 1.68 2.7 3.27 2.5l46-6.23c1.6-.2 2.7-1.68 2.5-3.27l-.43-3.15c-.22-1.6-1.68-2.7-3.28-2.5zm-104.92 20.56l-44 14.8c-1.52.5-2.34 2.17-1.83 3.7l1 3c.5 1.52 2.16 2.34 3.7 1.83l44-14.8c1.52-.5 2.34-2.16 1.83-3.68l-1-3c-.52-1.53-2.17-2.35-3.7-1.83zm-105.14 41l-46.96 15.78c-1.57.53-2.42 2.23-1.9 3.8l.96 2.83c.52 1.57 2.23 2.42 3.8 1.9l46.95-15.8c1.58-.53 2.42-2.23 1.9-3.8l-.95-2.83c-.53-1.58-2.23-2.42-3.8-1.9zm-339 110.9c200.75 0 363.5-162.75 363.5-363.5s-162.74-363.5-363.5-363.5-363.5 162.74-363.5 363.5 162.74 363.5 363.5 363.5z"/></g><g stroke="#000" class="B C E"><path opacity=".1" d="M1473.06 3192.95c0 200.75-162.74 363.5-363.5 363.5-154.84 0-287.06-96.8-339.44-233.2 290.52 177.82 645.9-135.56 528.88-440.56 104.4 63.87 174.05 178.94 174.05 310.28z"/><path opacity=".1" d="M1473.06 3192.95c0 200.75-162.74 363.5-363.5 363.5-126.35 0-237.64-64.47-302.78-162.3 317.36 265.36 751.21-156.74 535.56-480.38 79.88 66.68 130.7 167 130.7 279.2z"/></g><g class="D C E"><path d="M1975.53 3407.66l-206.92-43.38c-2.47-.52-4.88 1.06-5.4 3.53l-5.6 26.68c-.5 2.47 1.07 4.88 3.53 5.4l206.93 43.38c2.46.52 4.88-1.06 5.4-3.52l5.6-26.7c.52-2.46-1.06-4.88-3.53-5.4z" fill="#777"/><path d="M1910 3556c32 0 63.1-23.6 66.7-56.14 9.1-82.2-94.35-89.68-150.67-90.92-57.1-1.25-154.03 9.56-171.02 72.27-14.85 54.8 36.5 74.8 73 74.8s49-12.15 92.98-12.15c38.4 0 57.02 12.15 89.02 12.15z" class="I"/></g><path d="M1909 3534c-32 0-50.6-12.15-89.02-12.15-43.98 0-56.48 12.15-92.98 12.15-28.4 0-65.75-12.1-73.97-43.26-6.73 47.6 40.67 65.26 74.97 65.26 36.5 0 49-12.15 92.98-12.15 38.4 0 57.02 12.15 89.02 12.15 42.86 0 73-34.15 65.9-80.26-2.97 33.46-34.04 58.26-66.9 58.26z" class="B G"/><path d="M2090 3556c-32 0-63.1-23.6-66.7-56.14-9.1-82.2 94.35-89.68 150.67-90.92 57.1-1.25 154.03 9.56 171.02 72.27 14.85 54.8-36.5 74.8-73 74.8s-49-12.15-92.98-12.15c-38.42 0-57.02 12.15-89.02 12.15z" class="C D E I"/><path d="M2091 3534c32 0 50.6-12.15 89.02-12.15 43.98 0 56.48 12.15 92.98 12.15 28.4 0 65.75-12.1 73.97-43.26 6.73 47.6-40.67 65.26-74.97 65.26-36.5 0-49-12.15-92.98-12.15-38.42 0-57.02 12.15-89.02 12.15-42.86 0-73-34.15-65.9-80.26 2.97 33.46 34.04 58.26 66.9 58.26z" class="B G"/><path d="M2372.37 2939.25h-751.83V3357h751.83v-417.76z" fill="#efefef" class="C D K"/><g class="B"><path fill-rule="evenodd" d="M1808.45 3181.46c4.52 19.56 25.9 10.04 20.9-3.2-2.5-6.64-1.88-20.76-1.88-28.24 4.06-1.8 22.53-9.45 26.54-5.45 6.55 5.22 3.52 24 7.34 31.62 5.36 10.72 19.16 3.8 17.78-7.63-2.1-17.32-12.23-90.78-39.62-89.45-28.5 0-36.8 77.46-31.05 102.34zm32.37-80.55c5.66 1.05 12.88 19.3 9.4 22.77-2.44 2.45-17.95 5.98-20.7 3.77-3.2-3.2 4.77-27.74 11.3-26.54z"/><path d="M1746.24 3083.3c-34.53 18.74 15.7 80.8 23.06 101.35-21.5 17.2-25.58-17.66-39.62-23.8-5.07-1.54-15.67 3.94-12.5 10.26 9.25 25.9 31 47.58 59.47 33.13 35.03-17.6-18.97-69.17-20.33-97.88-.3-7.7 4.52-8.55 11-4.14 7.62 5.2 13.04 12.94 20.33 18.54 6.45 3.87 18.8-1.55 15.44-10.07-7.2-18.23-39-36.6-56.85-27.38zm222.2 27.58c-5.77 27.76-14.6 63.5-23.25 89.12-5.57 16.5-26.18 13.2-32.18-1.8-8-19.94-25.2-62.88-30.2-87.9-1.57-7.9 5.83-15.37 13.85-10.75 16.67 9.6 21.86 82.28 32.27 82.28 8.6 0 16.45-62.27 19.57-75.67 3.44-14.8 22.72-11.57 19.95 4.7zm58.45 27.02c-5.75-3.42-25.12 2.53-26.92-3.4-2.13-7.04-1.66-21.83-1.88-30.02 8.45 0 17 .45 25.4-.47 8.8-2 10.68-18.73.56-19.1-11.02-1.38-23.43-1.4-34.45-.2-4.24.56-12.1 3.28-12.1 10.78 0 30.2 4 78 7.2 105.33.66 5.67 5.57 7.96 8.68 9.43 7.45 3.73 28.43 2.97 35-2.44 3.73-3.4 3.7-14.58-2.36-16-4.42-1.04-18.52 3.58-20.98-.38-2.9-5.07-6.35-29.1-3.4-34.07 2.33-4.66 18.9-.77 24.66-3 5.03-2.15 5.13-13.76.57-16.47zm95.6-58.54c17.52 7.14 25.02 50.35 45.26 50.35 21 0 18.54-33.22 30.02-44.42 6.3-6.46 14.23-.95 15.15 6.4 3 24.02.87 50.37 7.72 74.72 4.84 17.23-19 24.1-19 6.77 0-12.47-3.53-25.76-5.46-38.02-4.16 5.34-9.66 14.95-27.6 14.95-17 .4-28.18-13.28-37.72-25.5-1.9.01-1.13 62.5-1.13 70.4-5.18 4.86-17.52 7.48-18.72-1.52-3.96-29.84-2.5-82.5-.48-104.06.47-5.02 6.93-12.13 11.96-10.08zm146.8 57.04c-4.56-.63-20.45 2.6-21.17-1.9-1.13-7.04-1.67-21.83-1.88-30.02 8.44 0 17 .45 25.4-.47 8.8-2 10.68-18.75.56-19.1-11.02-.38-23.43-.4-34.45-.2-4.27.1-12.37 2.28-12.04 8.1 1.8 31.8 4.8 80.37 9.13 110.02.5 3.4 3.25 7.1 6.68 7.43 7.45.73 28.43.97 35-2.44 4.48-2.33 3.7-14.58-2.36-16-4.42-1.04-18.52 3.58-20.98-.38-2.9-5.08-3.35-29.1-3.4-34.07-.01-1.5 16.82-1.3 19.48-1.7 11.66-1.52 11.53-17.7 0-19.27z"/></g><path d="M1601.4 3259.9c56.8.05 92.98-68.1 58.6-115.27 15.9-45.2-18.1-95.4-66.66-96.55-56-1.34-88.37 58.5-82.5 109.13 5.48 47.3 37.52 102.65 90.57 102.7z" class="C D E I"/><path d="M1510.83 3157.2c6.78 58.57 54.37 126.8 125.37 93.8-68.83-8.8-117-125.5-83.1-191.84-5.4 3.84-13.9 8.34-27.6 27.6-12.3 21.73-17.7 46.2-14.66 70.43z" class="B G"/><path d="M2398.6 3259.9c-56.82.05-93-68.1-58.6-115.27-15.92-45.2 18.08-95.4 66.66-96.55 56-1.34 88.36 58.5 82.5 109.13-5.48 47.3-37.53 102.65-90.57 102.7z" class="C D E I"/><g class="B"><path d="M2489.17 3157.2c-6.78 58.57-54.37 126.8-125.37 93.8 68.82-8.8 117-125.5 83.1-191.84 5.4 3.84 13.9 8.34 27.6 27.6 12.3 21.73 17.7 46.2 14.66 70.43z" class="G"/><path d="M1037.04 1781.43c3.73-.3 7.07-2.73 8.5-6.2 250.72-586.37 1247.96-620.73 1780.5-446.12-39.53-57.6-137.53-200.1-238.23-280.5-411.95-74.143-985.74-85.503-1379.84 238.7-.01 0-.01.01-.01.02-90.3 125.93-160.04 301.32-170.9 494.08z" class="J"/></g><g class="C D"><path d="M2803.2 1298.1c-518.16-235.2-1516.48-121.45-1756 458.66-2.95 7.23-14.3 6.5-15.95-1.46-31.65-152.86-8.33-350 49.67-555.05-43.98 98.44-152.782 322.45-208.93 319.08-124.455-7.48 47.87-446.3 102.48-538 181.33-304.3 514.5-459.084 860.04-458.9 435.16.25 807.27 303.18 982.44 762.8 3.07 8.1-5.6 16.6-13.75 12.88z" fill="#1d8cc4" class="K"/><g class="E"><path d="M1077.3 1209.82c11.06-34.72 58.2-131.65 61.13-161.03" stroke-linecap="round"/><path d="M2718.6 1264.24c-152.42-53.6-335.1-81.32-523.73-80.88 51.83-303.755 594.27-228.56 523.73 80.88zm-1172.56-127.4c73.43 0 132.96-52.26 132.96-116.7 0-64.46-59.53-116.713-132.96-116.713-73.44 0-132.97 52.253-132.97 116.713 0 64.45 59.53 116.7 132.97 116.7zm-242.9-477.508c99.2-57.052 208.73-96.4 323-117.798 109.72 158.342-313.86 307.968-323 117.798zm-176.06 130.943c112.2 46.94-55.92 270.265-152.6 191.035 41.86-70.255 93.3-134.708 152.6-191.035zM843.05 1332.6c17.613-76.4 47.844-163.13 76.332-233.18 51.27 69.62 8.686 209.5-76.332 233.18zm1183.75-141.42c-71.86 6.54-143.54 17.2-213.72 32.12-39.3-131.3 201.52-166.98 213.72-32.12zm24.48-259.848c95.73 0 173.35-68.124 173.35-152.158S2147 627.016 2051.28 627.016c-95.74 0-173.35 68.123-173.35 152.158s77.6 152.158 173.35 152.158zM1443.9 1352.3c-93.45 48.68-180.07 110.13-253.27 186.17-118.02-52.45-93.1-212.37 5.37-274.32 89.56-56.34 230.03-26.5 247.9 88.15z" fill="#f2f2f2"/></g></g><path d="M1047.2 1756.76c239.52-580.1 1237.84-693.86 1756-458.66 8.8 4.02 16.47-5.76 13.3-14.06C2652.68 855.977 2297 509.5 1794.7 523.087c314.58 78.102 578.04 320.143 729.45 659.713-233.43-34.6-474.86-30.55-707.03 12.4-311.9 58.2-643.98 208.72-771.9 518.55-2.95 7.23-14.3 6.5-15.95-1.46-1.45-7.02-6.9-26.03-9.5-39.03 2.22 27.5 6 55.02 11.5 82.03 1.66 7.97 13 8.7 15.95 1.46zm91.23-707.96c-10.5 37.13-49.4 115.07-57.5 151.46-85.43 191.25-206.468 402.6-236.308 283.36-5.37-21.47-7.45-51.7-5.48-88.28 10.93 204 269.858-290.33 299.288-346.54z" class="B J"/><path d="M992.54 1568.24c23.17-83.88-19.422-168.85-95.14-189.76-75.718-20.92-155.886 30.13-179.06 114-23.174 83.9 19.422 168.85 95.14 189.77 75.718 20.9 155.886-30.13 179.06-114.02z" fill="#f2f2f2" stroke-width="4.75" class="D E"/><path d="M992.54 1568.25c-23.17 83.9-103.34 134.94-179.06 114.02-46.2-12.77-80.06-49.36-94.18-95.02 122.92 76.94 248.27-75.3 212.3-193.73 53.65 33.5 80.36 104.5 60.95 174.73z" class="B F"/></svg>