<svg fill="none" height="4000" viewBox="0 0 4000 4000" width="4000" xmlns="http://www.w3.org/2000/svg"><path d="m2115.11 3290.64c-34.95-5.26-21.7-53.72 7.23-49.49 48.81 7.14 129.85-9.4 150.71-62.03 63.45-160.12 193.23-393.34 368.87-366.21 73.33 11.36 143.6 66.19 159.73 140.59 13.73 63.36-6.02 150.17-73.53 174.43-44.77 16-95.93-2.36-130.84-32.08-10.44-8.68-11.95-25-3.06-35.44 8.81-10.34 25.15-11.64 35.48-2.62.43.36 43.66 36.65 81.49 23.06 42.84-15.38 49.77-78.95 41.56-116.78-11.75-54.23-65.6-93.57-118.51-101.77-142.57-22.01-262.04 213.6-305.24 328.2-34.94 92.68-134.42 112.11-213.89 100.14z" fill="#7f6145" stroke="#333" stroke-miterlimit="10" stroke-width="5"/><path d="m2786.65 2965.53c11.06 51.02 1.18 114.55-37.82 152.08 51.41-33.7 65.07-107.56 52.82-164.08-16.13-74.41-86.39-129.24-159.73-140.6-66.26-10.23-128.92 12.57-182.42 59.57 114.12-80.75 294.17-59.11 327.15 93.03z" fill="#000" fill-opacity=".2"/><path d="m2717.62 3078.06c-27.03 31.45-75.59 15.26-102.89-8.23-3.14-2.68-6.9-4.54-10.94-5.41-4.03-.87-8.22-.73-12.19.41 3.97-7.3 11.63-12.23 19.93-12.9 6.6-.53 13.15 1.59 18.2 5.89 22.07 19.5 59.84 35.17 87.89 20.24z" fill="#000" fill-opacity=".2"/><path d="m1587 3147c36.5 0 65.66-32.58 62.04-68.42-5.42-63.52 18.62-132.19 65.95-198.39 43.06-60.24 89.21-93.25 53.71-132.19s-115.56 3.92-155.4 59.5c-65.71 91.92-97.19 189.11-88.63 283.68 3.19 31.47 25.83 55.82 62.33 55.82z" fill="#7f6145" stroke="#333" stroke-miterlimit="10" stroke-width="5"/><path d="m1553.09 3059.16c-.42-112.27 89.61-277.66 195.11-324.16-130-21-245 233.5-222.71 351.77 7.21-11.77 19.71-23.27 27.6-27.61z" fill="#000" fill-opacity=".15"/><path d="m1959.37 3446.51c5-87.08 27.4-154.43 47.17-206.81s42.42-144.7-42.56-166.02c-121.5-30.49-188.31 254.12-193.3 340.94-2.93 51.08 36.82 110.33 88.4 113.29 47.48 2.31 97.45-31.79 100.29-81.4z" fill="#7f6145" stroke="#333" stroke-miterlimit="10" stroke-width="5"/><path d="m1769.48 3414.5c51.5-7 148-7 188.5 34 .34-3.09 1.44-11.94 1.66-15.04-42.16-36.96-138.16-39.46-188.02-32.46-.26 3.3-1.86 10.13-2.14 13.5z" fill="#000" fill-opacity=".15"/><path d="m1785.48 3325c47.76 44.29 108.88 69.13 178 78.5.58-5.01 1.81-12.18 2.5-17-68.6-8.88-128.2-37.6-176-81-2 6-3.62 15.27-4.5 19.5z" fill="#000" fill-opacity=".15"/><path d="m2040.63 3446.51c-5-87.08-27.4-154.43-47.17-206.81s-42.42-144.7 42.56-166.02c121.5-30.49 188.31 254.12 193.3 340.94 2.93 51.08-36.82 110.33-88.4 113.29-47.48 2.31-97.45-31.79-100.29-81.4z" fill="#7f6145" stroke="#333" stroke-miterlimit="10" stroke-width="5"/><path d="m2230.52 3414.5c-51.5-7-148-7-188.5 34-.34-3.09-1.44-11.94-1.66-15.04 42.16-36.96 138.16-39.46 188.02-32.46.26 3.3 1.86 10.13 2.14 13.5z" fill="#000" fill-opacity=".15"/><path d="m2214.52 3325c-47.76 44.29-108.88 69.13-178 78.5-.58-5.01-1.81-12.18-2.5-17 68.6-8.88 128.2-37.6 176-81 2 6 3.62 15.27 4.5 19.5z" fill="#000" fill-opacity=".15"/><path d="m2413 3147c-36.5 0-65.66-32.58-62.04-68.42 5.42-63.52-18.62-132.19-65.95-198.39-43.06-60.24-89.21-93.25-53.71-132.19s115.56 3.92 155.4 59.5c65.71 91.92 97.19 189.11 88.63 283.68-3.19 31.47-25.83 55.82-62.33 55.82z" fill="#7f6145" stroke="#333" stroke-miterlimit="10" stroke-width="5"/><path d="m2446.91 3059.16c.42-112.27-89.61-277.66-195.11-324.16 130-21 245 233.5 222.71 351.77-7.21-11.77-19.71-23.27-27.6-27.61z" fill="#000" fill-opacity=".15"/><path d="m2000 2548c154 0 220 135 260 246s58 220 58 292c0 152-138.68 305.46-318 307-175.53 1.51-318-155-318-307 0-72 17.7-181.5 58-292 40-111 106-246 260-246z" fill="#7f6145" stroke="#333" stroke-miterlimit="10" stroke-width="5"/><path d="m2000 3393c-175.67 1.59-330-157-318-337 10 148 145.15 288.48 318 287s308-139 318-287c12 180-142.33 335.41-318 337z" fill="#000" fill-opacity=".15"/><path d="m2000 2672c104 0 160 68 174 128 34.49 147.82 64 274 4 350s-134.95 82-178 82c-47.55 0-118-6-178-82s-32.44-193.83 4-350c14-60 70-128 174-128z" fill="#f7c394" stroke="#333" stroke-miterlimit="10" stroke-width="5"/><path d="m2000 3232c-136 0-224-94-213-216 4 115 96 190 213 190s209-75 213-190c11 122-77 216-213 216z" fill="#000" fill-opacity=".1"/><path d="m1673.08 2952.61c-38.61-25.26-75.6-44.63-109.87-60.44 173.79-368.93 694.99-378.8 873.51-.13-34.27 15.75-71.29 35.05-109.94 60.25-10.04-22.61-23-45.26-38.62-67.64 7.41 28.21 13.37 55.61 17.96 81.58-58.35 40.72-109.89 95.42-171 171.86 0 0-7-79.01-12.67-194.78-74.52 10.87-171.59 10.3-246.28 1.34-5.66 114.8-12.59 193-12.59 193-60.72-75.95-111.88-130.45-169.9-171.09 4.55-25.95 10.47-53.33 17.86-81.48-15.56 22.35-28.46 44.95-38.46 67.53z" fill="#000" fill-opacity=".2"/><path d="m1461.5 2122c0 458 38 779 538.5 779s538.5-404.5 538.5-779c-207.5 0-847.5 0-1077 0z" fill="#ffcd98" stroke="#333" stroke-width="5"/><path d="m1461.72 2122c3.71 427.95 58.44 723 538.28 723 475.63 0 533.58-365.3 538.17-723h.33c0 374.5-38 779-538.5 779s-538.5-321-538.5-779z" fill="#000" fill-opacity=".1"/><path d="m1910 3556c32 0 63.09-23.6 66.7-56.14 9.11-82.21-94.35-89.68-150.67-90.92-57.1-1.25-154.03 9.56-171.02 72.27-14.85 54.79 36.49 74.79 72.99 74.79s49-12.15 92.98-12.15c38.41 0 57.02 12.15 89.02 12.15z" fill="#f7c394" stroke="#333" stroke-miterlimit="10" stroke-width="5"/><path d="m1909 3534c-32 0-50.61-12.15-89.02-12.15-43.98 0-56.48 12.15-92.98 12.15-28.39 0-65.75-12.1-73.97-43.26-6.73 47.6 40.67 65.26 74.97 65.26 36.5 0 49-12.15 92.98-12.15 38.41 0 57.02 12.15 89.02 12.15 42.86 0 73-34.15 65.91-80.26-2.97 33.46-34.04 58.26-66.91 58.26z" fill="#000" fill-opacity=".1"/><path d="m2090 3556c-32 0-63.09-23.6-66.7-56.14-9.11-82.21 94.35-89.68 150.67-90.92 57.1-1.25 154.03 9.56 171.02 72.27 14.85 54.79-36.49 74.79-72.99 74.79s-49-12.15-92.98-12.15c-38.42 0-57.02 12.15-89.02 12.15z" fill="#f7c394" stroke="#333" stroke-miterlimit="10" stroke-width="5"/><path d="m2091 3534c32 0 50.6-12.15 89.02-12.15 43.98 0 56.48 12.15 92.98 12.15 28.39 0 65.75-12.1 73.97-43.26 6.73 47.6-40.67 65.26-74.97 65.26-36.5 0-49-12.15-92.98-12.15-38.42 0-57.02 12.15-89.02 12.15-42.86 0-73-34.15-65.91-80.26 2.97 33.46 34.04 58.26 66.91 58.26z" fill="#000" fill-opacity=".1"/><path d="m2311.83 3142.12c-189.33 20.88-431.83 41.38-559.63 51.33 14.3 36.59 26.61 79.51 37.24 117.18 15.73 14.11 32.85 26.84 51.11 37.84 6.48-4 13.02-7.88 19.6-11.64-.73 6.85-1.83 13.99-3.2 20.87 14.18 7.46 28.96 13.88 44.26 19.13 6.46-16.06 14.86-27.39 21.51-40.13-5.94-9.95-3.55-21.9.87-32.16 17.59-8 35.36-15.38 53.2-22.27 1.15 23.95-11.08 53.21-15.46 61.28 48.59-6.62 174.18-65.07 181.26 2.65 8.01-1.23 18.95-3.94 31.22-7.12 70.66-47.03 121.14-119.67 138.02-196.96z" fill="#000" fill-opacity=".25"/><path d="m1892.16 3414.79c-15.57-2.89-31.45-4.34-45.86-5.11 5.89 25.46 18.35 57.81 47.56 67.35-3.17-25.77-3.38-45.91-1.7-62.24z" fill="#000" fill-opacity=".25"/><path d="m2398.6 3259.89c-56.82.05-92.99-68.11-58.59-115.27-15.92-45.21 18.08-95.39 66.66-96.55 56-1.34 88.36 58.5 82.5 109.13-5.48 47.31-37.52 102.65-90.57 102.69z" fill="#f7c394" stroke="#333" stroke-miterlimit="10" stroke-width="5"/><path d="m2489.17 3157.2c-6.78 58.57-54.37 126.8-125.37 93.8 68.82-8.8 117-125.5 83.11-191.84 5.39 3.84 13.89 8.34 27.6 27.61 12.29 21.73 17.7 46.2 14.66 70.43z" fill="#000" fill-opacity=".1"/><path d="m2301.68 2535c.56-5.33 1.08-10.67 1.57-16-201.93 10.22-404.66 10.32-606.61.32.49 5.38 1.02 10.73 1.57 16.06 200.91 9.89 402.59 9.77 603.47-.38z" fill="#3d0c0c"/><path d="m2285.92 2641.36c.9-4.57 1.78-13.17 2.64-17.78-188.66 46.66-387.51 48.2-576.43 1.81l-.53-.12c.86 4.6 1.74 13.17 2.65 17.72 185.74 43.63 386.27 43.22 571.67-1.63z" fill="#3d0c0c"/><path d="m2308.6 2399.6c0-5.88-.03-11.75-.09-17.6-205.25 15.08-411.56 15.28-616.83.48-.05 5.87-.07 11.74-.08 17.61 205.54 14.71 411.47 14.54 617-.49z" fill="#3d0c0c"/><path d="m2303.25 2519c3.62-39.9 5.24-79.94 5.24-120-205.56 10.59-411.52 10.7-617.09.35 0 40.03 1.63 80.05 5.26 119.92 201.94 10.04 404.66 9.94 606.59-.27z" fill="#fff"/><path d="m1996.6 2661.4c91.85.1 196.5-10.4 292.11-35.67 5.38-29.26 9.71-59.49 13-90.7-200.88 10.12-402.56 10.24-603.47.34 3.17 30.39 7.38 64.91 12.61 93.56 111.25 24.07 192.13 32.71 285.75 32.47z" fill="#fff"/><path d="m1753.44 2087.99c0 87.55 113.36 193.8 248 192.66 124.11-1.09 245.12-106.14 245.12-192.41 0-174.46-493.12-177.09-493.12-.25z" fill="#000" fill-opacity=".1"/><path d="m1750 2067.34c0 87.56 114.94 193.81 251.46 192.66 125.84-1.08 248.54-106.13 248.54-192.4 0-69.42-144.77-200.47-248.54-199.59-96.36.89-251.46 117.2-251.46 199.33z" fill="#7f6145"/><path d="m1751.81 2052.17c47.89 62.79 142.98 115.76 249.83 114.94 98.86-.79 196-54.04 245.52-116.46 1.86 5.57 2.84 11.23 2.84 16.95 0 86.27-122.7 191.32-248.54 192.4-136.52 1.15-251.46-105.1-251.46-192.66 0-5.2.62-10.25 1.81-15.17z" fill="#000" fill-opacity=".2"/><path d="m1970 1852.87c75 81 146.32 206.64 156 254-88.79 294.65-28 971-28 971 33.4-41.78 72.94-79.54 113.5-112.69 0-532.31 130.68-1283.67-241.5-1112.31z" fill="#000" fill-opacity=".3"/><path d="m2030 1852.87c-75 81-146.32 206.64-156 254 88.79 294.65 28 971 28 971-33.41-41.78-72.94-79.54-113.5-112.69 0-532.31-130.68-1283.67 241.5-1112.31z" fill="#000" fill-opacity=".3"/><path d="m2088.21 272.54c-17.71 12.34-42.07 32.67-56.46 87.12-39.36 148.936 36.25 313.84-11.61 460.654-10.14-28.814-30.69-29.16-41.46-2.886-47.18-150.428 20.57-309.705-22.52-457.338-15.84-54.28-40.73-74.32-58.77-86.46 40.87 179.806-53.01 336.395-48.37 513.92 1.59 60.71 8.45 109.71 34.22 147.42-6.17 23.092-16.48 45.962-16.67 51.1-.15 4.348 4 8.699 10.76 13.201 12.06 118.849 4.09 242.569-26.33 353.229-113.3-132.19-22-420-101.73-575.02-19.06 161.992-46.77 344.52-121.98 517.3-78.79-78.28-54.27-200.82-37.8-298.32 8.69-51.522 54.56-576.379 35.52-579.88-11.01-2.023-64.01 161.42-104.29 181.6-22.15 11.094.25 17.427 11.09 23.63 63.19 36.19-111.02 337.427-141.89 409.83-64.3 151.21-80.24 311.44-82.16 474.58-.03 2.85-.16 34.97 12.14 37.85 19.43 4.55 38.6-63.09 85.86-67.47 83.29-7.72 51.84 91.17 31.11 133.47-18.69 38.14-123.87 148.43-110.17 177.02 6.45 13.47 63.8-5.09 84.96-7.71 5.24 79.82-26.1 125.87-135.66 91.42 36.25 64.11 91.75 119.59 131.78 154.78-2.21 22.13-7.14 45.19-14.64 65.66-20.37-13.65-34.03-25.39-36.97-32.9-21.95 52.42-34 118.74 22.98 151.44 3.59 26.6 5.41 56.01 4.6 80.57-19.24-11.4-33.15-20.83-39.01-26.53-24.94 59.57-4.33 111.56 52.58 138.88 9.12 26.88 17.8 57.93 20.65 84.73-18.7-9.89-32.15-17.96-37.49-22.43-24.22 57.84-22.48 102.93 38.71 125.99 9.91 30.1 20.03 60.21 27.39 91.04-17.03-10.18-29.81-18.73-35.98-23.94-38.12 97.29 16.34 125.7 72.13 148.18 99.97 40.29 236.47 103.29 370.85 271.38 0 0 59.91-675.83-28.88-970.48 5.8-28.38 43.43-105.32 82.49-167.7 3.81 2.57 5.73 1.46 12.09-2.83 19.47-13.14 147.47-17.5 170.23-1.27.27.2.54.39.8.57 39.94 63.04 79.07 142.68 84.99 171.67-88.79 294.65-28.88 970.48-28.88 970.48 134.38-168.09 270.88-231.09 370.85-271.38 55.79-22.48 110.25-50.89 72.13-148.18-6.19 5.22-19.01 13.8-36.11 24.01 7.34-30.87 17.44-60.93 27.35-91.05 72.86-29.49 63.16-68.08 38.88-126.05-5.34 4.47-18.81 12.55-37.54 22.45 2.79-26.72 11.42-57.75 20.52-84.67 63-27.22 77.74-79.3 52.76-138.96-5.86 5.7-19.76 15.12-38.99 26.52-.85-24.5.95-53.89 4.52-80.53 59.21-33.75 45.01-99.01 23.04-151.47-5.33 7.72-16.55 19.19-36.84 32.81-7.53-20.43-12.49-43.48-14.73-65.61 40.03-35.19 95.5-90.66 131.74-154.74-114.06 35.86-143.35-15.52-134.83-101.43 18.7 2.64 81.18 19.19 89.87 7.1 14.31-19.93-56.47-63.85-113.74-175.31-21.47-41.73-55.17-140.42 28.4-133.96 47.5 3.68 68.91 70.75 87.2 66.16 12.19-3.07 11.42-35.16 11.33-37.95-5.99-189.88-29.23-368.35-126.5-541.539-63.98-113.926-166.15-315.485-115.23-339.491 14.14-6.657 31.86-13.875 10.58-23.8-45.08-21.02-95.08-182.508-107.87-179.98-18.34 3.624 37.43 528.002 47.13 579.24 18.25 96.44 45 218.58-28.72 295.74-75.29-161.79-97.64-331.689-120.89-508.54-87.73 214.55 21.87 420.05-104.73 578.52-29.11-111.57-33.51-237.4-22.98-358.065 7.15-4.799 11.56-9.387 11.28-13.905-.29-4.867-9.95-25.481-16.6-47.171 26.63-38.465 32.53-88.611 32.47-151.079 0-177.74-98.17-332.306-61.96-513.24z" stroke="#333" stroke-width="10"/><path d="m2549.29 2744c-104.09 68-193.91 45.71-379.76 109-19.32 6.6 136.15-520.51 61.57-820 79.9 29 234.4-24.5 364.87-76.05-14.13 48.18 1.52 148.84 42.03 185.4-19.8 34.32-31.84 174.31-11.15 198.79-11.96 25.42-72.83 172.48-31.76 204.56-14.32 51.3-59.86 165.4-45.8 198.3z" fill="#363e44"/><path d="m2267.24 2563c-33.44-82 260.56-116 346.19-165.5 38-21.97 72.77-59.35 41.83-133.24-35.74 34.74-370.15 207.74-389.16 125.37-16.3-70.63 290.78-133.58 365.26-186.04 35.89-25.28 43.41-70.93 12.47-144.81-15.53 39.72-331.37 197.7-350.95 132.46s231.92-134.24 265.27-136.87c34.22-26.88 117.3-97.27 165.85-183.13-131.64 41.38-150.35-33.42-128.38-143.4-109.82-16.95-574 125.35-574 125.35 45.68 24.47 144 207.06 153.68 254.42-88.79 294.65-28.88 970.48-28.88 970.48 134.38-168.09 270.88-231.09 370.85-271.38 55.79-22.49 110.25-50.89 72.13-148.18-37.46 31.6-318.1 186.47-318.1 79.97 0-68 297.17-132.64 333.04-157.92s46.12-41.25 15.18-115.14c-30.4 25.45-323.73 167.56-352.28 97.56z" fill="#31383f"/><path d="m2264.3 2547.5c5.5-46.5 118.86-76.71 207.69-101.58 57.3-16.04 111.83-31.3 141.44-48.42 30.03-17.36 58.04-44.34 53.2-91.36-5.98 30.9-28.46 50.64-52.2 64.36-29.61 17.12-84.14 32.38-141.44 48.42-108.3 30.32-223.69 57.58-208.69 128.58z" fill="#000" fill-opacity=".3"/><path d="m2265.3 2384.5c3-48.5 124.91-86.53 216.05-118.52 63.07-22.14 122.46-42.98 150.01-62.39 22.85-16.09 34.2-40.44 31.45-75.07-3.61 20.76-14.08 36.54-30.45 48.07-27.55 19.41-86.94 40.25-150.01 62.39-37.54 13.17-233.55 58.52-217.05 145.52z" fill="#000" fill-opacity=".3"/><path d="m2292.3 2179.5c4-57.5 236.3-122.8 265.85-125.13 34.22-26.88 117.3-97.27 165.85-183.13-6.75 2.12-13.21 3.94-19.38 5.46-48.83 70.87-115.67 127.27-145.47 150.67-42.44 3.35-285.85 65.13-266.85 152.13z" fill="#000" fill-opacity=".3"/><path d="m2037.8 1848.5c-6.5 1.5-16.18 4.69-16.18 4.69 49.18 28.81 145.38 212.31 153.68 254.31 2.5-6.5 3.5-11.5 4.5-15-8.27-40.47-92.43-189.08-142-244z" fill="#000" fill-opacity=".3"/><path d="m2147.42 3051.09c134.38-168.09 270.88-231.09 370.85-271.38 38.03-15.32 75.43-33.4 83.33-74.16 5.87 60.5-38.78 82.8-84.33 101.16-99.97 40.29-236.47 103.29-370.85 271.38-1.12-13.09-1.62-23.72 1-27z" fill="#000" fill-opacity=".3"/><path d="m2270.8 2742c-3.5-52 150.63-98.51 241.3-127.57 44.79-14.36 81.1-26 92.24-33.85 24.89-17.54 37.45-30.6 32.46-61.65-4.34 13.76-15.3 23.26-31.46 34.65-11.14 7.85-47.45 19.49-92.25 33.85-51.48 16.5-269.29 57.57-242.29 154.57z" fill="#000" fill-opacity=".3"/><path d="m1450.71 2744c104.09 68 193.91 45.71 379.76 109 19.32 6.6-136.15-520.51-61.57-820-79.9 29-234.4-24.5-364.87-76.05 14.13 48.18-1.52 148.84-42.03 185.4 19.8 34.32 31.84 174.31 11.15 198.79 11.96 25.42 72.83 172.48 31.76 204.56 14.32 51.3 59.86 165.4 45.8 198.3z" fill="#363e44"/><path d="m1732.76 2562.56c33.44-82-260.56-116-346.19-165.5-38-21.96-72.77-59.35-41.83-133.24 35.74 34.74 370.15 207.74 389.16 125.37 16.3-70.63-290.78-133.57-365.26-186.04-35.89-25.28-43.41-70.93-12.47-144.81 15.53 39.72 331.37 197.7 350.95 132.46s-231.92-134.24-265.27-136.87c-34.22-26.88-117.3-97.27-165.85-183.13 131.64 41.39 150.36-33.42 128.38-143.4 109.82-16.95 574 125.35 574 125.35-45.68 24.47-144 207.06-153.68 254.42 88.79 294.65 28.88 970.48 28.88 970.48-134.38-168.09-270.88-231.09-370.85-271.38-55.79-22.48-110.25-50.89-72.13-148.18 37.47 31.6 318.1 186.47 318.1 79.97 0-68-297.17-132.64-333.04-157.92s-46.12-41.25-15.18-115.14c30.4 25.45 323.73 167.56 352.28 97.56z" fill="#31383f"/><path d="m1735.7 2547c-5.5-46.5-118.86-76.71-207.69-101.58-57.3-16.04-111.83-31.3-141.44-48.42-30.03-17.36-58.04-44.34-53.2-91.36 5.98 30.9 28.46 50.64 52.2 64.36 29.61 17.12 84.14 32.38 141.44 48.42 108.3 30.32 223.69 57.58 208.69 128.58z" fill="#000" fill-opacity=".3"/><path d="m1734.7 2384c-3-48.5-124.91-86.53-216.05-118.52-63.07-22.14-122.46-42.98-150.01-62.39-22.85-16.09-34.2-40.44-31.45-75.07 3.61 20.76 14.08 36.54 30.45 48.07 27.55 19.41 86.94 40.25 150.01 62.39 37.54 13.17 233.55 58.52 217.05 145.52z" fill="#000" fill-opacity=".3"/><path d="m1707.7 2179c-4-57.5-236.3-122.8-265.85-125.13-34.22-26.88-117.3-97.27-165.85-183.13 6.75 2.12 13.21 3.94 19.38 5.46 48.83 70.87 115.67 127.27 145.47 150.67 42.44 3.35 285.85 65.13 266.85 152.13z" fill="#000" fill-opacity=".3"/><path d="m1962.2 1848c6.5 1.5 16.18 4.69 16.18 4.69-42.46 22.74-143.18 203.31-153.68 254.31-2.5-6.5-3.5-11.5-4.5-15 8.27-40.47 92.43-189.08 142-244z" fill="#000" fill-opacity=".3"/><path d="m1852.58 3050.59c-134.38-168.09-270.88-231.09-370.85-271.38-38.03-15.32-75.43-33.4-83.33-74.16-5.87 60.5 38.78 82.8 84.33 101.16 99.97 40.29 236.47 103.29 370.85 271.38 1.12-13.09 1.62-23.72-1-27z" fill="#000" fill-opacity=".3"/><path d="m1729.2 2741.5c3.5-52-150.63-98.51-241.29-127.57-44.8-14.36-81.11-26-92.25-33.85-24.89-17.54-37.45-30.6-32.46-61.65 4.34 13.76 15.3 23.26 31.46 34.65 11.14 7.85 47.45 19.49 92.25 33.85 51.48 16.5 269.29 57.57 242.29 154.57z" fill="#000" fill-opacity=".3"/><path d="m2479.15 1708c-2.46 36.44 11.06 171.49 54.06 221.87-52.83 40.73-229.75 101.82-267.84 97.53s-135.15-120-136.37-171.49c0 0 260.49-147.23 350.15-147.91z" fill="#52bacc"/><path d="m2457 1737.83c-1.8 26.56 17 126.5 42.5 167.5-38.69 29.69-213.61 88.63-241.5 85.5s-106.61-91.96-107.5-129.5c0 0 240.84-123 306.5-123.5z" fill="#5fd3f8"/><path d="m1520.85 1708c2.46 36.44-11.06 171.49-54.06 221.87 52.83 40.73 229.75 101.82 267.84 97.53s135.15-120 136.37-171.49c0 0-260.49-147.23-350.15-147.91z" fill="#52bacc"/><path d="m1543 1737.83c1.8 26.56-17 126.5-42.5 167.5 38.69 29.69 213.61 88.63 241.5 85.5s106.61-91.96 107.5-129.5c0 0-240.84-123-306.5-123.5z" fill="#5fd3f8"/><path d="m2065.14 1909.54c16.4 33.82 70.15 161.15 81.66 185.11-9.74 27-42.52 31.69-54.93 32.46-36.89-20.74-71.3-32.46-85.48-41 0-27.11-4.66-173.92-1-182.42s59.75 5.85 59.75 5.85z" fill="#2c3744" stroke="#333" stroke-width="5"/><path d="m1931.2 1910.56c-15.73 34.06-66.92 162.19-78 186.33 10.28 26.9 43.15 31 55.57 31.62 35.8-21 70.64-33.61 84.65-42.32 0-29.19 1.18-174-2.65-182.41s-59.57 6.78-59.57 6.78z" fill="#2c3744" stroke="#333" stroke-width="5"/><path d="m2076.28 2131.9c-3.55-4.12-68.28-34.25-75.17-34.25-8 .06-72.11 30.3-75.58 34.48-.07 2.08 25.17 21 76.88 21 57.19-.02 73.98-19.13 73.87-21.23z" fill="#2c3744" stroke="#333" stroke-width="5"/><path d="m1994.5 2087.5c-14 8.73-49.88 19.99-85.68 41.01-12.42-.59-45.29-4.73-55.57-31.63 9.23-20.2 46.63-113.3 67.78-163.07 1.3-.65 2.88-1.37 4.76-2.17 1.9-.73 3.87-1.28 5.87-1.64-21.59 51.53-53.33 130.39-61.75 148.78 10.28 26.89 43.16 31 55.57 31.63 25.55-15 49.7-24.39 68.22-32.47.21 3.95.48 7.19.8 9.56z" fill="#000" fill-opacity=".3"/><path d="m2004.86 2086.05c14.16 8.48 50.74 20.48 86.91 40.87 12.4-.81 45.19-5.52 55-32.59-9.59-20-50.18-115-72.2-164.41-1.31-.63-7.4-1.4-10.05-1.88 22.48 51.14 56.53 130.26 65.27 148.5-9.81 27.07-42.61 31.78-55 32.59-25.81-14.56-50.64-24.89-69.29-32.63-.14 3.92-.37 7.17-.64 9.55z" fill="#000" fill-opacity=".3"/><path d="m2077.04 2131.52c.11 2.08-17.44 21.58-74.64 21.58-51.7 0-77.47-19.47-77.4-21.58 1.08-1.31 8.89-5.36 19.35-10.32 21.21 8.23 35.3 10.99 58.05 10.88 30.25 0 41.32-5.73 55.6-11.08 10.35 5.12 17.95 9.25 19.04 10.52z" fill="#000" fill-opacity=".3"/><path d="m2680.9 1533.8c-18.29 4.59-39.7-62.48-87.2-66.16-83.57-6.46-49.87 92.23-28.4 133.96 57.27 111.46 128.05 155.38 113.74 175.31-11.59 16.17-60-10.19-146-11.58-142.43-2.3-320.22 72.89-426.08 168.2-8.3 7.51-8.87 7.96-17.45 1.84-22.76-16.23-150.76-11.87-170.23 1.27-8.74 5.89-9.1 5.79-17.48-1.63-111.65-96.25-281.32-166.35-429.39-161.73-85.94 2.71-133.79 29.8-145.71 13.81-15.82-21.24 99.49-155.24 110.17-177.02 20.73-42.3 52.18-141.19-31.11-133.47-47.43 4.4-67.47 71.78-85.86 67.47-12.3-2.88-12.17-35-12.14-37.85 1.92-163.14 17.86-323.37 82.16-474.58 29.59-69.416 206.76-380.501 141.89-409.83-14.25-6.417-31.56-12.234-11.09-23.63 22.42-12.3 37.3-43.28 63-98.73 33.23-71.77 37.76-83.52 41.29-82.87 19.04 3.501-26.83 528.358-35.52 579.88-18.35 108.63-46.36 248.93 66.02 320.38 196.87 125.16 490.25 123.35 685.23-5.23 111.11-73.22 80.03-213.38 59.6-321.33-9.7-51.238-65.47-575.616-47.13-579.24 3.52-.71 8.29 11 42.93 82.22 26.78 55.05 42.28 85.8 64.94 97.76 20.76 10.976 3.56 17.142-10.58 23.8-64.08 30.21 119.18 338.934 150.09 407.75 67.24 150.06 86.49 310.06 91.64 473.28.09 2.79.86 34.88-11.33 37.95z" fill="#384049"/><path d="m1629.56 465.448c.26-29.855-1.04-48.223-4.55-48.868-3.53-.65-8.06 11.1-41.29 82.87-25.7 55.45-40.58 86.43-63 98.73-20.47 11.397-3.16 17.213 11.09 23.63 51.53 23.298-49.67 224.393-108.3 340.905-85.68 170.245-111.01 311.785-115.75 543.505-.06 2.85-.16 34.97 12.14 37.85 7.57 1.78 15.43-8.62 25.36-21.76 14.19-18.76 32.61-43.12 60.5-45.71 79.19-7.34 54.66 81.69 34.23 126.83 46.62-81.87 89.86-180.16 14.51-183.93-47.57-2.38-76.11 30.81-94.5 26.5-28.5-18 11.76-315.94 98.76-476.5 51.74-95.5 145.74-333.362 105.05-351.69-14.25-6.417-29.85-9.592-11.09-23.63 24.28-18.18 57.81-87.397 76.84-128.732z" fill="#000" fill-opacity=".25"/><path d="m2593.7 1467.64c27.93 2.16 46.84 26.25 61.4 44.79 10.2 12.99 18.26 23.26 25.8 21.37 12.19-3.07 11.42-35.16 11.33-37.95-5.99-189.88-30.73-367.35-126.5-541.539-62.95-114.501-166.15-315.485-115.23-339.491 14.14-6.658 31.41-12.962 10.58-23.8-20.72-10.778-40.35-47.326-58.58-84.02-24.08-48.487-44.46-97.975-49.29-95.96-3.21 1.335-4.26 19.284-3.32 49.48 20.15 42.067 59.85 109.34 82.99 126.66 18.75 14.038 3.15 17.214-11.09 23.63-40.7 18.328 60.3 258.19 112.05 353.69 87 160.56 137.25 458.5 108.75 476.5-18.39 4.31-46.93-28.88-94.5-26.5-75.35 3.77-32.11 102.06 14.51 183.93-23.1-50.93-47.61-136.87 31.1-130.79z" fill="#000" fill-opacity=".25"/><path d="m2656.58 1732.58c-23.95-2.81-65.05-15.31-123.54-16.25-142.43-2.31-320.22 72.89-426.08 168.2-8.3 7.5-8.87 7.96-17.45 1.84-22.76-16.23-150.76-11.87-170.23 1.27-8.74 5.89-9.1 5.79-17.48-1.63-111.65-96.25-281.32-166.36-429.39-161.73-65.03 2.05-108.24 18.05-130.59 18.8-12.69 20.84-19.91 37.58-15.12 44.01 11.92 15.99 59.77-11.1 145.71-13.81 148.07-4.62 317.74 65.48 429.39 161.73 8.38 7.42 8.74 7.52 17.48 1.63 19.47-13.14 147.47-17.5 170.23-1.27 8.58 6.12 9.15 5.66 17.45-1.84 105.86-95.31 283.65-170.51 426.08-168.2 86 1.39 134.41 27.75 146 11.58 6.33-8.82-4-22.34-22.46-44.33z" fill="#000" fill-opacity=".25"/><path d="m1539 1664.14c102.38-82.22 175.08-168.22 124.54-216.88s-98 57.09-110.34 77c0-176.26 135.8-195.76 196.07-746.78 89.23 208.52-32.77 462.52 132.57 607.1-.04.06-112.84 239.96-342.84 279.56z" fill="#405163"/><path d="m1663.54 1447.26c50.54 48.66-22.16 134.66-124.54 216.88 14.35-2.47 28.24-5.72 41.68-9.64 94.89-80.6 144.48-178.93 73.82-214.5 5.5 4 7.3 5.58 9.04 7.26z" fill="#000" fill-opacity=".3"/><path d="m1588.65 1466.64c24.65-124.53 126.92-196.72 182.5-621.381-5.31-22.982-12.41-45.637-21.88-67.779-60.27 551.02-196.07 570.52-196.07 746.78 5.59-9.03 18.41-35.69 35.45-57.62z" fill="#000" fill-opacity=".3"/><path d="m2461 1664.14c-102.38-82.22-175.08-168.22-124.54-216.88s98 57.09 110.34 77c0-176.26-135.8-195.76-196.07-746.78-89.23 208.52 32.77 462.52-132.57 607.1.04.06 112.84 239.96 342.84 279.56z" fill="#405163"/><path d="m2336.46 1447.26c-50.54 48.66 22.16 134.66 124.54 216.88-14.35-2.47-28.24-5.72-41.68-9.64-94.89-80.6-144.48-178.93-73.82-214.5-5.5 4-7.3 5.58-9.04 7.26z" fill="#000" fill-opacity=".3"/><path d="m2411.35 1466.64c-24.65-124.53-126.92-196.72-182.5-621.381 5.31-22.982 12.41-45.637 21.88-67.779 60.27 551.02 196.07 570.52 196.07 746.78-5.59-9.03-18.41-35.69-35.45-57.62z" fill="#000" fill-opacity=".3"/><path d="m2338 1666.1c-207.98-181.1-239.42-440.32-212-698.92-89 62.53-210.72 28.73-252 2.86 32.5 257.24-18.5 513.46-212 701.21 410.72-246.95 255.29-201.74 676-5.15z" fill="#384049"/><path d="m1876.1 987.679c1.61 14.471 2.95 28.931 4.02 43.371 4.68 2.86 10.3 5.8 16.45 8.84 17.18 8.49 83.17 246.55 98.22 250.93 0 0 11.45 4.4 16.77-.13 26.63-28.7 76.17-243.64 93.2-252.39 5.89-3.03 11.3-5.95 15.83-8.79.97-14.61 2.16-29.23 3.55-43.864-2.96-7.966-246.12-3.447-248.04 2.033z" fill="#000" fill-opacity=".25"/><path d="m2088.21 272.54c-17.71 12.34-42.07 32.67-56.46 87.12-37.48 141.842 25.22 289.833-2.21 429.79-4.51 23.442-14.44 45.504-29 64.43-15.04-18.711-25.56-40.645-30.73-64.09-31.09-139.232 27.46-288.836-13.65-429.7-15.84-54.28-40.73-74.32-58.77-86.46 40.87 179.806-53.01 336.395-48.37 513.92 2 76.78 12.45 134.83 58.9 175 33.69 29.16 73.64-34.21 93.07-71.26 20.41 36.82 62 99.73 94.94 70.19 45.37-40.74 54.31-98.91 54.24-175.7 0-177.74-98.17-332.306-61.96-513.24z" fill="#384049"/><path d="m2150.21 785.831c.07 76.78-8.87 134.95-54.25 175.68-32.91 29.55-74.53-33.36-95-70.18-19.42 37-59.37 100.42-93 71.26-46.46-40.21-56.94-98.26-58.92-175-4.64-177.515 89.2-334.132 48.33-513.92 8.41 5.496 16.17 11.934 23.11 19.19 30.02 227.639-48.49 296.256-44.95 448.86 1.62 71.19 10.31 125 48.79 162.3 36.17 35.044 76.23-50.1 76.23-50.1s41.46 87.336 79.48 49.1c37.58-37.76 45-91.7 44.92-162.9 0-154.471-90.45-246.621-55.03-452.56 5.67-5.52 11.8-10.539 18.32-15-36.2 180.897 61.74 335.544 61.97 513.27z" fill="#000" fill-opacity=".25"/><path d="m2111.56 901.22c1.39-28.49-66.92-46.71-80.29-61s-12.66-41.63-32.73-41.32c-20.08 0-18.82 27.36-31.91 41.81s-81 33.71-79 62.17-20.79 75.53-21.06 83.19 12.82 15.33 30 23.82 83.17 246.55 98.22 250.93c0 0 11.45 4.4 16.77-.13 26.63-28.7 76.17-243.64 93.2-252.39s30-16.61 29.54-24.27-24.14-54.33-22.74-82.81z" fill="#405163"/><path d="m2023.82 973.7c.85 16.3 48 7.35 60.11-3s10.87-45.88 8.07-53.21-69.11 38.28-68.18 56.21z" fill="#161922"/><path d="m1978.54 974c-.53 16.31-47.86 8.08-60.17-2.09s-11.78-45.7-9.13-53.08 69.87 37.28 69.3 55.17z" fill="#161922"/><path d="m2000.51 1076.93c11.22-.09 13.4-1.73 15.29-4s-11-60.27-15.29-64.88c-4.63 4.32-12.23 62-10.25 65.17s5.3 3.78 10.25 3.71z" fill="#161922"/><path d="m2104.74 1008.35c-17 8.74-66.57 223.68-93.2 252.37-5.32 4.54-16.76.14-16.76.14-15.06-4.39-81-242.44-98.24-250.93s-30.3-16.16-30-23.82c.1-2.9 3.46-11.48 7.45-22.57 5.43 4.1 13.3 8.31 22.29 12.75 17.2 8.49 83.18 246.55 98.23 250.93 0 0 11.45 4.41 16.77-.12 26.63-28.71 76.17-243.65 93.2-252.39 8.86-4.55 16.6-8.87 22-13 4.22 11 7.72 19.5 7.89 22.4.34 7.62-12.6 15.48-29.63 24.24z" fill="#000" fill-opacity=".3"/><path d="m2295.93 1713.33c0 11.44-50 26.36-111.59 48.49-48.51 17.32-97.9 36.74-142.71 62.33-22.13 12.52-29.47 19.11-37.67 19.77-2.13.43-4.29.68-6.47.75-8.21-.56-15.76-7.06-38-19.2-45.04-24.47-94.01-42.93-142.35-59.7-62.81-21.46-114.08-35.67-114.08-47.26 0-47.01 592.87-35.01 592.87-5.18z" fill="#000" fill-opacity=".15"/><path d="m2295.93 1700.33c2.27 11.21-50 26.36-111.59 48.49-48.51 17.32-97.9 36.74-142.71 62.33-22.13 12.52-29.47 19.11-37.67 19.77-2.13.43-4.29.68-6.47.75-8.21-.56-15.76-7.06-38-19.2-45.04-24.47-94.01-42.93-142.35-59.7-62.81-21.46-114.08-35.67-114.08-47.26 0-14.51 46.97-24.01 135.34-108.65 60.23-57.69 116.82-130.86 143.23-209.77 13.06-41 13.66-65.16 18.61-65.2 6.61-.06 12.47 32.25 23.38 61.53 30.23 80.2 71.43 153.24 134.66 210.34 86.22 77.85 135.38 95.36 137.65 106.57z" fill="#405163"/><path d="m2183.19 1748.83-1.72.61c-23.45 8.41-48.29 17.9-72 28.57-43.5 19.58-64.22 30.41-69 33.14-22.12 12.52-29.47 19.11-37.67 19.76-.74.17-1.51.3-2.26.4-2.22.31-4.22.37-4.22.37-.84-.06-1.68-.18-2.51-.36-7.39-1.61-15.52-8-35.47-18.85-4.86-2.64-25.79-13.19-69.71-32.11-23.26-10-47.75-18.93-70.87-27l-1.76-.62c2.22-2.21 4.93-4.87 8.08-7.92 40.19-39 150.06-141.48 167.7-183.95.77-1.8 1.39-3.66 1.86-5.56 1.22 3.58 2.85 7 4.87 10.2 24.77 41.23 124.29 129.5 175.68 175.29z" fill="#16649c"/><path d="m1993.64 1555.31c-.51 2.07-1.22 4.06-2.05 6.01v46c-28.09 39.68-67.53 77.89-102.57 111.49-5.37 5.16-9.98 9.58-13.47 13.01l-51.46 13.03c-3.15 3.05-5.86 5.71-8.08 7.92l1.76.62 63.37-16.04c36.11 13.13 78.1 32.62 112.68 49.74v44.23c.83.18 1.67.3 2.51.36 0 0 2-.06 4.22-.37v-43.94c45.4-20.78 77.85-37.87 117.65-52.76l63.27 14.83 1.72-.61-9.03-8-51.08-11.98c-41.64-37.14-85.08-81.35-124.76-124.49v-39.15c-1.93-3.11-3.5-6.43-4.68-9.9z" fill="#2481ba"/><path d="m2547.32 3105.78c144.11 103.81 362.54 10.67 551.6 152.71-106.68 84.76-355.96 38.24-484.82 53.45-40.56 4.79-74.11 37.99-114.93 38.08 43.98-76.89-83.67-10.03-120.36-13.43 57.65-76.11-39.03-1.74-99.69-7.97 39.28-68.61-90.91-18.13-134.53-11.41-7.08-67.73-132.67-9.28-181.25-2.65 5.75-10.63 25.1-57.9 9.71-81.53 2.75-39.4 4.78-68.33 7.25-103.74 1.96-27.93 19.67-60.42 45.32-89.06 116.44 68.14 335.38 90.97 521.7 65.55z" fill="#363e44" stroke="#1a2b3a" stroke-width="5"/><path d="m1996.82 3179.72-3.42 48.95c8.23 18.03 6.05 39.18 1.42 57.84 45.62-12.89 133.16-51.25 163.55 7.36 31.77-7.77 146.19-54.32 148.03 12.86 37.6-7.23 114.6-59.73 111.1 2.27 59-22.5 115.5-23.5 110.73 14.57 84.77-59.57 219.01-31.17 336.41-32.27 65.48-.62 138.79-2.46 198.35-33.41-82.75-52.79-170.84-63.39-258.27-70.15-91.26-7.06-185.92-9.64-262.45-61.11-92.71 11.94-192.69 12.26-284.38 1.32-86.57-10.33-167.2-30.88-227.51-62.26-18.18 23.3-28.84 46.63-30.13 64.99z" fill="#454f56"/><path d="m1773.96 3212.95 6.56-93.77s702.54 79.26 766.18 43.61c19.06 28.4 28.65 37.09 66.98 62.33-41.47 19.65-51.8 25.9-74.63 51.37-65.3-49.68-765.09-63.54-765.09-63.54z" fill="#0f253c" stroke="#091c2e" stroke-width="8"/><ellipse cx="1346.7" cy="3135.96" fill="#313c51" rx="30" ry="14.5" stroke="#1a2b3a" stroke-width="5" transform="matrix(.06975647 -.99756405 .99756405 .06975647 -1875.562002 4260.625995)"/><path d="m1356.51 3174.74c-7.71-.54-13.52-7.23-12.98-14.94l3.34-47.89c.54-7.71 7.23-13.53 14.95-12.99z" fill="#313c51" stroke="#1a2b3a" stroke-width="5"/><g fill="#9edef6"><path d="m2171.02 3212.9c-1.64 1.52-15.06.9-15.31-.77-.3-1.96 14.27-6.64 16.15-4.52 1.06 1.19.62 3.95-.84 5.29z"/><path d="m2241.22 3206.47c1.11-.48.65-6.36-2.59-11.05-5.8-8.46-17.69-9.77-26.66-13.15-7.62-2.88-7.49-7.04-9.71-8.18s-4.49.44-8.14 1.08c-3.56.62-7.31.91-7.34 1.32-.14 1.66 13.53 4.22 16.15 4.53 5.39.63 7.67 9.34 8.75 15.43.62 3.47-12.82 6.51-15.36 6.67-5.82.37-11.04-3.17-11.22-2.92-.54.8 3.97 7.2 10.53 8.21 3.15.48 14.65-2.04 19.79-6.26 3.05-2.51-.52-7.77 2.37-10.15 2.98-2.41 8.37.65 11.09 2.22 8.48 4.89 10.97 12.84 12.34 12.25z"/><path d="m2297.98 3200.69c1.16-.65-8.92-8.73-11.29-10.41-3.38-2.42-5.21-7.39-8.99-8.67-16.96-5.79-31.98 7.68-30.92 10.53.24.65 21.09-10.81 24.39-.09.54 1.77-5.3 4.37-7.01 5.54-5.84 3.99-9.15 7.54-8.97 7.75.27.35 10.66-9.23 14.43-6.36 2.4 1.83-.89 5.97 8.27 12.03 5.7 3.78 14.47-2.26 13.82-2.35-1.67-.22-15.65 2.09-13.54-7.42 2.8-11.77 18.58.14 19.81-.55z"/><path d="m2345.55 3190.49c.22 1.5 12.41.39 12.72 2.13.15 1-3.93 1.26-7.2 4.86-3.55 3.9-2.36 7.67-4.59 8.54-2.59 1.03-5.43-3.62-13.74-10.19-2.25-1.78-17.84-13.22-25.11-5.28-1.34 1.47 3.45 2.7 5.63 7.64 1.25 2.82.75 6.14 2.62 8.71 2.64 3.3 20.98 12.68 21.2 12.27.95-1.86-8.62-9.13-10.26-10.01-10.89-5.88-9.25-22.63 3.05-9.79 3.64 3.8 24.47 21.29 26.35 19.89 2.95-2.19-10.75-12.29 6.79-24.85 4.29-3.07 11.77-5.19 11.47-6.3-1.05-3.91-29.5-1.33-28.93 2.38z"/><path d="m2415.71 3192.26c.05-.54 4.76.24 13.24-2.65 4.35-1.48 6.67-4.78 7.21-4.34 1.1.9-6.49 7.54-8.85 18.83-1.44 6.91-.24 12.28-3.6 14.12-1.77.95-4-.05-5.92.28-6.32 1.08-9.54 9.1-16.23 1.4-6.11-7.02-16-8.04-24.7-8.93-1.74-.17-8.47-.59-8.68-2.42-.3-2.63 26.48-12.53 27.1-11.51.2.33-.91 1.29-2.5 2.33-14.56 9.55 4.02 9.02 9.86 14.77 4.02 3.98 11.96.03 15.94-2.4 1.91-1.16.74-3.88 2.61-7.95 5.9-12.83-5.58-10.13-5.48-11.53z"/><path d="m2487.69 3228.23c.17.43 13.15-.8 20.33-10.96 3.76-5.33 6.55-13.05.92-18.07-8.52-7.59-19.26 6.97-19.79 6.66s.4-2.06.35-5c-.07-2.79-1-6.77-2.86-7.18-3.58-.83-9.69 8.15-11.14 7.54-1.23-.51-.24-3.09-1.68-6.7-1.44-3.62-4.43-6.45-5.47-5.9s1.82 4.71.97 10.44c-.85 5.72-4.73 8.83-3.75 9.85 1.84 1.91 15.61-7.59 17.17-5.35 4.65 6.65-5.85 20.63-14.36 20.76-3.36.06-3.92-1.44-6.68-1.01-6.41 1.01-10.59 10.39-9.46 11.41.73.67 3.35-1.7 4.15-2.32 5.7-4.41 11.16-1.73 16.88-3.52 6.89-2.14 12.17-8.28 15.57-14.42 1.87-3.39 10.93-12.88 13.56-10.27 9.33 9.23-15.22 22.72-14.71 24.04z"/><path d="m2441.03 3225c-.89-1.35-4.36-1.48-5.39.37-1.04 1.85.82 4.68 2.43 4.77 1.9.1 4-3.59 2.96-5.14z"/><path d="m2446.38 3194.18c.19 1.66 3.35 3.48 5.95 2.44 3.3-1.31 3.43-6.29 2.08-7.38-1.83-1.42-8.38 2.34-8.03 4.94z"/><path d="m2376.1 3222.74c.03-1.61-7.91-8.01-8.73-7.38-1.1.85 2.5 10.35 4.53 10.91 1.64.44 4.21-1.64 4.2-3.53z"/><path d="m2394.99 3205.09c-.6-4.96 11.21-4.93 13.13-1.57 4.82 8.56-12.69 5.2-13.13 1.57z"/><path d="m2301.48 3214.43c.02-.63 2.12-.55 2.79-1.95.24-.47-.03-1.22.34-1.58 1.91-1.9 5.08 1.52 4.96 3.77-.21 4.14-8.1.5-8.09-.24z"/><path d="m2231.64 3182.63c1.7-.19 3.2-1.32 3.84-2.9 3.06-7.15-10.37-3.7-10.1-.46.15 1.5 4.66 3.47 6.26 3.36z"/><path d="m2172.07 3175.34c1.65-.51 2.76-2.16 2.59-3.89-1.11-4.9-14.1-2.17-13.49-.11.1.31 1.18-.04 2.57.05 4.4.26 5.85 4.45 8.33 3.95z"/></g><path d="m1705.82 3274.58 1.81 45.42 58.78-2.34-1.8-45.42z" fill="#26292e" stroke="#1a2b3a" stroke-width="3"/><path d="m1694.91 3202.41 3.81 79.27c.14 3.51 3.1 6.25 6.61 6.11l61.42-2.44c3.51-.14 6.24-3.1 6.1-6.61l-3.81-79.27c-.14-3.51-3.1-6.25-6.61-6.11l-61.42 2.44c-3.51.14-6.24 3.1-6.1 6.61z" fill="#2e3a48" stroke="#1a2b3a" stroke-width="3"/><path d="m1726.3 3340.99c15.09-.6 27.09-7 26.8-14.31-.29-7.3-12.76-12.73-27.85-12.13-15.1.6-27.1 7.01-26.81 14.31s12.76 12.73 27.86 12.13z" fill="#2e3a48" stroke="#1a2b3a" stroke-width="3"/><path d="m1723.63 3326.85c-17.45 5.72-25.47 5.5-28.68 14.39-9.5-9.32-17.24-20.9-17.79-19.52-1.76 4.46-1.74 22.38 8.93 38.83 5.56 8.56 14.07 14.28 17.96 25.17 0 0 8.72 14.47 13.02 18.54 4.3 4.06-.25 4.65 2.15 6.4 2.41 1.75 9 2.82 11.93.51 2.92-2.3 17.33 7.7 22.32 9.72 4.99 2.03 20.67 8.88 31.03-5.2-10-.24-15.14-3.65-16.11-5.37 1.44-1.08 1.85-3.12 2.08-4.01-.96-2.21-3.69-2.98-5.84-3.84 5.03-1.29 8.71-1.83 10.95-1.56-1.53-4.44-13.52-16.26-16.86-18.33-1.18-3.64 5.43-21.57 8.4-25.19s-2.85-20.44-6.65-23.8c-3.79-3.35-19.34-12.47-36.84-6.74zm10.43 54.42c1.84 8.31 3.53 14.24-3.85 19.33-4.24 2.92-16.67-10.16-16.54-14.81.08-4.07 4.21-14.79 6.71-16.54 2.49-1.74 11.84 3.71 13.68 12.02z" fill="#667991" stroke="#1a2b3a" stroke-width="3"/><path d="m1695.69 3341.81c-6.81-7.65-18.09-21.19-18.53-20.09-.58 1.47-.96 4.4-.84 8.26 2.78 3.33 16.14 17.88 19.7 21.37-1.15-5.09-.51-7.05-.33-9.54z" fill="#000" fill-opacity=".25"/><path d="m1733.5 3325.04c8.91 1.64 15.67 5.87 18 7.93 3.79 3.35 9.61 20.17 6.64 23.79s-9.57 21.55-8.4 25.19c3.35 2.07 15.11 12.48 16.64 16.93-2.24-.28-5.7 1.67-10.72 2.96 3.32 1.34 8.31 4.43 3.75 7.86.97 1.72 4.4 4.54 14.26 6.73-4.18 5.68-7.37 6.59-12.23 7.15 6.89 1.58 16.15 1.5 23.06-7.89-10-.24-15.14-3.65-16.11-5.37 1.44-1.08 1.85-3.12 2.08-4.01-.96-2.21-3.69-2.98-5.84-3.84 5.03-1.29 8.71-1.83 10.95-1.56-1.53-4.44-13.52-16.26-16.86-18.33-1.18-3.64 5.43-21.57 8.4-25.19s-2.85-20.44-6.65-23.8c-3.06-2.7-13.76-9.16-26.97-8.55z" fill="#000" fill-opacity=".25"/><path d="m1721.62 3048.67 8.11-44.73 57.89 10.49-8.11 44.73z" fill="#26292e" stroke="#1a2b3a" stroke-width="3"/><path d="m1700.77 3118.61 14.8-77.97c.63-3.46 3.94-5.75 7.4-5.12l60.48 10.96c3.46.63 5.75 3.94 5.12 7.39l-14.8 77.98c-.63 3.45-3.94 5.75-7.39 5.12l-60.49-10.97c-3.45-.62-5.75-3.93-5.12-7.39z" fill="#2e3a48" stroke="#1a2b3a" stroke-width="3"/><path d="m1751.14 2985.75c14.86 2.69 25.85 10.71 24.55 17.9s-14.41 10.83-29.27 8.14c-14.86-2.7-25.86-10.71-24.55-17.9 1.3-7.19 14.41-10.84 29.27-8.14z" fill="#2e3a48" stroke="#1a2b3a" stroke-width="3"/><path d="m1746.53 2999.38c-16.48-8.09-24.46-8.99-26.4-18.24-10.7 7.91-19.98 18.3-20.33 16.86-1.12-4.67 1.39-22.41 14.25-37.22 6.7-7.7 15.92-12.18 21.28-22.42 0 0 10.65-13.12 15.48-16.54 4.82-3.43.39-4.65 3.02-6.05 2.63-1.39 9.3-1.53 11.88 1.15 2.57 2.69 18.23-5.2 23.46-6.51 5.22-1.32 21.7-5.92 30 9.47-9.94-1.15-15.5 1.5-16.7 3.07 1.28 1.27 1.4 3.35 1.5 4.26-1.25 2.06-4.07 2.44-6.31 2.99 4.8 1.98 8.37 3.03 10.62 3.07-2.13 4.18-15.65 14.23-19.24 15.81-1.68 3.44 2.37 22.11 4.8 26.11 2.44 4-5.66 19.85-9.89 22.64-4.22 2.79-20.89 9.66-37.42 1.55zm17.9-52.43c2.98-7.98 5.47-13.62-1.12-19.69-3.8-3.48-17.92 7.74-18.44 12.37-.49 4.04 2.11 15.23 4.34 17.31 2.23 2.07 12.24-2.02 15.22-9.99z" fill="#667991" stroke="#1a2b3a" stroke-width="3"/><path d="m1720.94 2980.68c-7.81 6.63-20.86 18.46-21.14 17.32-.37-1.54-.35-4.5.32-8.31 3.21-2.9 18.47-15.45 22.48-18.42-1.85 4.89-1.49 6.92-1.66 9.41z" fill="#000" fill-opacity=".25"/><path d="m1756.05 3002.54c9.05-.38 16.33-3.62 18.93-5.34 4.22-2.79 12.33-18.64 9.89-22.64s-6.49-22.67-4.81-26.11c3.59-1.58 16.7-10.26 18.82-14.44-2.25-.04-5.4-2.45-10.2-4.43 3.48-.87 8.85-3.24 4.81-7.26 1.2-1.57 4.99-3.89 15.06-4.68-3.35-6.21-6.39-7.55-11.12-8.78 7.04-.61 16.21.76 21.74 11.02-9.94-1.15-15.5 1.5-16.7 3.07 1.28 1.27 1.4 3.35 1.5 4.26-1.25 2.06-4.07 2.44-6.31 2.99 4.8 1.98 8.37 3.03 10.62 3.07-2.13 4.18-15.65 14.23-19.24 15.81-1.68 3.44 2.37 22.11 4.8 26.11 2.44 4-5.66 19.85-9.89 22.64-3.4 2.25-14.91 7.15-27.9 4.71z" fill="#000" fill-opacity=".25"/><path d="m1365.93 3183.42c-7.71-.54-13.53-7.23-12.99-14.95l4.47-63.84c.54-7.71 7.23-13.53 14.94-12.99z" fill="#3f5776" stroke="#1a2b3a" stroke-width="5"/><path d="m1335.53 3119.25c2.21 5.59 5.55 9.21 9.51 9.58 1.58 4.04 5 7.21 9.31 8.39 1.84 5.02 6.49 8.75 12.17 9.15-.91 12.97-.06 29.57-.59 37.05-5.68-.4-10.33-4.13-12.17-9.15-4.3-1.18-7.72-4.35-9.31-8.4-7.91-.72-13.37-14.5-12.22-30.92.41-5.82 1.59-11.2 3.3-15.7z" fill="#000" fill-opacity=".25"/><path d="m1401.02 3184.87h90v378h-90z" fill="#3c3a39" stroke="#1a2b3a" stroke-width="5" transform="matrix(.06975647 -.99756405 .99756405 .06975647 -1873.822032 4360.311885)"/><path clip-rule="evenodd" d="m1403.53 3148.96-2.51 35.91 377.07 26.37 2.52-35.92z" fill="#000" fill-opacity=".25" fill-rule="evenodd"/><rect fill="#313c51" height="43" rx="21.5" stroke="#1a2b3a" stroke-width="5" transform="matrix(.06975647 -.99756405 .99756405 .06975647 -1855.99496 4421.329078)" width="126" x="1442.65" y="3205.82"/><path d="m1444.15 3184.38c-.82 11.84 8.11 22.12 19.95 22.94 11.85.83 22.12-8.1 22.95-19.94l2.86-40.9c-1.93 27.66-44.83 24.66-42.9-3z" fill="#000" fill-opacity=".25"/><path d="m1799.24 3109.47c51.61 25.66 66.69-21.9 75.82-37.8 9.14-15.91 7.79-79.08-2.42-94.4 7.95-24.95 24.93-67.45 61.31-73.91-23.29 86.76-2.04 111.8 9.05 142.98-14.47 17.96 2.63 48.31 6.14 55.57l-10.6 151.62c-4.48 6.7-25.64 34.37-13.82 54.17-15.32 29.33-39.84 51.17-28.86 140.33-35.12-11.46-46.02-55.91-50.42-81.72 12.24-13.75 22.37-76.12 15.54-93.14s-15.15-66.21-69.83-47.99c2.7-38.57 5.4-77.14 8.09-115.71z" fill="#363e44" stroke="#1a2b3a" stroke-width="5"/><path clip-rule="evenodd" d="m1810.08 3126.54c-1.94 27.75-3.88 55.5-5.82 83.25 79.69-10.49 80.99 114.2 53.88 159.33 2.21 11.73 5.73 25.73 11.78 38.18 3.29 6.77 7.17 12.76 11.75 17.64-2.69-45.05 7.84-79.32 29.64-117.71-7.11-20.22 4.22-41.5 15.48-57.81l10.15-145.08c-8.89-17.71-17.15-40.37-7.29-59.4-16.24-41.05-21.91-76.45-12.97-120.69-15.92 12.8-24.7 33.18-31.07 52 22.06 52.01-.17 171.18-75.53 150.29z" fill="#454f56" fill-rule="evenodd"/><path d="m1866.55 3370.47c1.59 7.88 3.77 16.46 6.86 24.67 1.57-32.18 13.1-61.41 29.24-88.9-5.47-21.12 4.73-42.42 16.32-59.55l9.83-140.73c-9.08-18.57-16.22-41.09-7.87-61.24-12.51-30.33-19.59-59.09-16.58-92.11-4.2 7.7-7.55 15.89-10.22 23.47 8.84 24.44 8.72 53.28 5.7 78.64-4.31 36.25-42.44 87.26-82.41 81.53-1.51 21.65-3.03 43.29-4.54 64.94 45.24-.13 71.12 51.97 70.27 92.2-.55 25.54-4.44 54.12-16.6 77.08z" fill="#091c2e"/><path clip-rule="evenodd" d="m1884.89 3329.56c3.7-8.22 7.88-16.25 12.43-24.11-4.79-22.16 5.67-43.8 16.75-60.44l9.65-138.07c-8.65-18.02-16-40.91-8.17-62.18-3.43-8.44-6.44-16.79-8.94-25.18 1.37 50.28-22.89 124.14-84.56 122.09-1.27 18.16-2.55 36.57-3.82 54.74 63.55 5.26 75.27 82.68 66.66 133.15z" fill="#0f253c" fill-rule="evenodd"/><path d="m1833.11 2996.55c-20.9 43.62-47.39 118.48-78.91 167.9 22.96 58.75 40.8 133.8 54.77 177.26 110.27-78.38 241-114.51 356.23-148.52-108.38-55.69-285.95-154.49-332.09-196.64z" fill="#363e44" stroke="#1a2b3a" stroke-width="5"/><path clip-rule="evenodd" d="m2127.9 3189.58c-98.04-51.52-201.45-103.06-289.65-170.65-21.87 49.44-40.33 100.63-68.48 147.01 14.27 37.86 26.79 82.23 37.34 119.61 3.43 12.16 6.66 23.59 9.67 33.8 98.11-65.21 210.06-99.96 311.12-129.77z" fill="#454f56" fill-rule="evenodd"/><path d="m3090.82 3255.41c1.4 1.01 2.79 2.05 4.18 3.09-1.24.99-2.5 1.96-3.79 2.91l-35.54-.93.42-5.99z" fill="#454f56"/><path d="m1381.63 3202.56c-11.56-.81-20.29-10.84-19.48-22.41l6-85.79c.81-11.57 10.84-20.3 22.41-19.49s20.3 10.85 19.49 22.41l-6 85.8c-.81 11.57-10.85 20.29-22.42 19.48z" fill="#313c51" stroke="#1a2b3a" stroke-width="5"/><path clip-rule="evenodd" d="m1362.15 3180.15c-.81 11.57 7.92 21.6 19.48 22.41 11.57.81 21.61-7.91 22.42-19.48l3.42-48.89c-.81 11.57-10.85 20.3-22.42 19.49s-20.29-10.85-19.48-22.42z" fill="#000" fill-opacity=".25" fill-rule="evenodd"/><g stroke="#1a2b3a"><g fill="#3f5776"><circle cx="1381.38" cy="3199.03" r="8.5" stroke-width="3" transform="matrix(.06975647 -.99756405 .99756405 .06975647 -1906.217521 4353.891976)"/><circle cx="1389.82" cy="3078.33" r="8.5" stroke-width="3" transform="matrix(.06975647 -.99756405 .99756405 .06975647 -1777.960285 4250.031023)"/><circle cx="1383.96" cy="3162.12" r="10.5" stroke-width="3" transform="matrix(.06975647 -.99756405 .99756405 .06975647 -1866.997404 4322.130402)"/><circle cx="1387.24" cy="3115.24" r="10.5" stroke-width="3" transform="matrix(.06975647 -.99756405 .99756405 .06975647 -1817.180403 4281.792596)"/></g><path d="m1715.87 3161.77c7.9-6.58 111.64-90.57 116.32-92.6s12.03-1.65 15.32-1.52c3.29.14 2.56 3.26 6.9 4.97 4.35 1.71 20.43.13 23.73-.71 3.3-.85 5.41-6.3 7.51-2.73s36.2 35.46 44.23 42.33c8.04 6.87 45.45 28.69 52 29.14 6.56.46 34.11-2.79 37.37-1.26 3.25 1.52 15.23 12.48 15.81 15.15s1.54 7.21-1.92 7.69c-3.46.49-25.26-1.18-20.38.34 4.88 1.53 30.47 2.67 32.77 4.28 2.3 1.6 8.61 12.3 4.83 12.83-3.38.47-9.07 1.53-16.17 1.1 5.35.55 10.62 1.73 15.7 3.5 3.62 1.16-4.51 10.59-7.07 11.77-2.57 1.18-27.97-2.12-33.04-1.46s16.67 2.79 20 3.86c3.32 1.08 1.54 5.35.49 7.88l-.01.03c-1.05 2.53-14.84 11.29-18.31 12.18s-29.96-7.08-36.52-7.77c-6.57-.69-47.29 14.32-56.46 19.69s-48.51 30.85-51.22 34-3.81-2.6-6.92-3.99-18.66-5.75-23.22-4.81c-4.56.93-4.39 4.13-7.67 3.7-3.27-.44-10.55-1.34-14.79-4.16-4.23-2.81-92.39-85.55-99.28-93.43z" fill="#667991" stroke-linejoin="round" stroke-width="5"/><path d="m1851.24 3081.26c2.31 8.38 39.47 69.54 54.87 74.47 15.4 4.94 10.97-18 6.8-25.64-1.93-3.54-31.96-34.47-36.76-37.73-2.65-1.79-18.32-11.6-18.06-2.42-1.74-2.31-6.85-8.68-6.85-8.68z" fill="#9edef6" stroke-linejoin="round" stroke-width="3"/><path d="m1839.95 3248.24c3.43-7.93 48.57-63.27 64.5-65.99 15.93-2.71 8.4 19.39 3.24 26.36-2.38 3.23-36.36 29.62-41.56 32.19-2.86 1.42-19.77 8.9-18.21-.15-2.04 2.01-7.97 7.59-7.97 7.59z" fill="#9edef6" stroke-linejoin="round" stroke-width="3"/><path d="m1993.44 3185.73c-5.7-.39-38.68-8.76-38.59-10.13s27.42-9.15 40.01-8.28c5.03.33 3.23 18.72-1.42 18.41z" fill="#9edef6" stroke-width="3"/></g><path d="m1863.76 3263.29c-1.84-2.43-3.75-3.22-6.6-4.1 26.09-18.46 74.9-55.23 108.64-52.87 4.48.31 8.99 3.39 13.22 4.43-41.03 6.15-80.79 29.94-111.27 53.71-1.66 1.92-2.71.53-3.99-1.17z" fill="#000" fill-opacity=".25"/><path d="m2011.95 3218.54c-1.44.37-6.85-.79-13.15-2.32 4.11-2.09 25.77-14.41 15.36-20.56 4.85.5 10.99 1.3 15.62 2.79 3.33 1.08 1.53 5.41.57 7.69l-.09.22c-1.05 2.53-14.84 11.29-18.31 12.18z" fill="#000" fill-opacity=".25"/><path d="m1982.37 3141.32c-3.5.9-7.52 2.48-11.18 2.22-23.44-1.64-75.17-48.17-97.44-70.94 3.16-.37 5.38-.75 7.76-2.96 1.56-1.45 2.85-2.65 4.14-.46 25.16 27.53 55.3 55.2 96.72 72.14z" fill="#000" fill-opacity=".25"/><path d="m2033.14 3162.23c3.46-.48 2.5-5.02 1.92-7.69s-12.56-13.63-15.81-15.16c-1.41-.65-7.34-.42-14.17.02 1.9 1.36 23.68 20.54 10.95 22.31 3.49.25 11.39 1.32 17.11.52z" fill="#000" fill-opacity=".25"/><path d="m2050.21 3179.73c3.78-.53-2.52-11.22-4.83-12.83-2.31-1.6-11.05-1.9-15.52-2.22 1.98 2.29 6.07 13.46 1.38 15.99 4.31 2.96 3.16 10.71-2.59 15.06 5.91.45 12.99.88 14.06.38 2.56-1.18 10.7-10.61 7.07-11.79-2.77-.95-5.57-2.05-8.41-2.94 2.97-.45 5.93-1.12 8.84-1.65z" fill="#000" fill-opacity=".25"/><path d="m1724.15 3307.73c-9.33.35 28.81-17.82 41.85-11.97 13.04 5.84 9.54 23.56 7.61 27.15-3.54 6.58-9.05 15.45-15.63 7.95-1.03-1.17-22.37-23.57-33.83-23.13z" fill="#1f1e1e"/><path d="m1674.46 3269.64c2.58-26.56 19.22-56.39 50.12-72.16 24.66-12.57 64.4-36.17 81.81-1.27 22 44.07-54.44 60.01-72.88 81.36-10.25 11.86-23.38 31-27.13 35.68-3.74 4.68-33.96-22.57-31.92-43.61z" fill="#1f1e1e"/><path d="m1740.17 3314.94c-1.11-.81-2.24-1.58-3.35-2.31 1.4-4.42 2.11-9.09 2.01-13.73 1.27-.45 2.57-.88 3.89-1.28.38 5.67-.59 11.73-2.55 17.32z" fill="#3f3f3f"/><path d="m1749.11 3322.25c-.94-.84-1.93-1.71-2.96-2.58 4.07-7.27 5.61-15.83 4.27-24.05 1.29-.26 2.56-.48 3.8-.65 1.74 12.33-.91 19.79-5.11 27.28z" fill="#3f3f3f"/><path d="m1757.25 3330.08c-.59-.62-1.52-1.57-2.7-2.73 8.1-8.73 10.49-21.68 6.06-32.72 1.7.08 3.26.34 4.6.81 4.53 15.44-.61 26.25-7.96 34.64z" fill="#3f3f3f"/><path d="m1773.72 3322.66c3.71-10.22 1.8-22.63-7.72-26.9-12.26-5.5-46.7 10.22-43.04 11.84 11.82-1.65 46.66-5.26 50.76 15.06z" fill="#000" fill-opacity=".5"/><g fill="#3f3f3f"><path d="m1721.13 3293.21c-20.24 2.61-38.16-9.95-46.07-28.29.39-2.43.88-4.88 1.5-7.33 6.21 21.17 26.03 35.75 48.02 31.06-1.16 1.52-2.32 3.05-3.45 4.56z"/><path d="m1732.41 3278.86c-.99 1.16-2 2.39-3.02 3.65-20.76-2.38-41.72-20.03-47.54-40.13.84-1.87 1.75-3.72 2.72-5.55 3.99 21.55 25.96 40.65 47.84 42.03z"/><path d="m1738.49 3272.91c-1.15.91-2.21 1.82-3.17 2.75-17.9-7.76-37.36-28.66-47.09-45.1.77-1.22 1.58-2.43 2.42-3.62 9.19 16.02 29.5 40.18 47.84 45.97z"/><path d="m1744.23 3268.83c-1.33.86-2.59 1.72-3.78 2.59-.22-21.2-22.57-45.65-43.69-52.26.93-1.07 1.89-2.12 2.89-3.16 22.71 7.57 42.37 28.23 44.58 52.83z"/><path d="m1751.39 3264.5c-1.5.86-2.96 1.71-4.36 2.57 5.1-24.61-11.2-53.87-35.02-61.87 1.27-.93 2.58-1.83 3.92-2.7 23.27 9.19 38.64 37.35 35.46 62z"/><path d="m1761.05 3259.17c-1.69.91-3.36 1.82-4.99 2.71 9.68-25.16-1.19-56.28-26.26-67.09 1.42-.74 2.88-1.49 4.37-2.26 23.91 11.97 34.19 41.38 26.88 66.64z"/><path d="m1772.49 3252.94c-1.91 1.07-3.83 2.12-5.74 3.16 12.65-23.93 7.41-60.65-20.21-69.59 1.69-.76 3.4-1.5 5.11-2.2 25.34 10.86 30.68 44.53 20.84 68.63z"/><path d="m1789.19 3242.64c-2.38 1.69-4.88 3.32-7.45 4.91 16.34-22.99 8.81-55.33-16.6-67.81 2-.5 3.98-.91 5.95-1.22 22.06 12.76 29.16 41.54 18.1 64.12z"/></g><path d="m1807.29 3198.25c-16.69-38.27-59.05-12.83-82.71-.76-30.9 15.76-47.54 45.59-50.12 72.15-1.14 11.78 7.83 25.51 16.61 34.49-26.71-48.68 70.6-137.87 116.22-105.88z" fill="#000" fill-opacity=".5"/><path d="m1674.46 3269.64c2.58-26.56 19.22-56.39 50.12-72.16 24.66-12.57 64.4-36.17 81.81-1.27 22 44.07-54.44 60.01-72.88 81.36-10.25 11.86-23.38 31-27.13 35.68-3.74 4.68-33.96-22.57-31.92-43.61z" stroke="#1a2b3a" stroke-width="3"/><path d="m1724.15 3307.73c-9.33.34 28.81-17.82 41.85-11.97 13.04 5.84 9.54 23.56 7.61 27.15-3.54 6.58-9.05 15.45-15.63 7.95-1.03-1.17-22.37-23.57-33.83-23.13z" stroke="#1a2b3a" stroke-width="3"/><path d="m1744.52 3016.36c-9.19-1.64 26.06 21.66 39.78 17.68 13.72-3.97 12.73-22 11.31-25.83-2.58-7-6.81-16.55-14.37-10.04-1.18 1.01-25.43 20.22-36.72 18.19z" fill="#1f1e1e"/><path d="m1690.02 3047.17c-1.14 26.65 11.18 58.51 39.58 78.42 22.68 15.89 58.75 44.79 80.84 12.65 27.92-40.57-45.56-67-60.85-90.71-8.49-13.17-18.84-33.96-21.89-39.11-3.06-5.15-36.78 17.63-37.68 38.75z" fill="#1f1e1e"/><path d="m1761.39 3011.45c-1.21.64-2.43 1.26-3.64 1.82.78 4.58.83 9.3.08 13.88 1.19.62 2.42 1.23 3.67 1.81 1.17-5.57 1.05-11.7-.11-17.51z" fill="#3f3f3f"/><path d="m1771.26 3005.46c-1.05.7-2.15 1.42-3.29 2.14 3.02 7.76 3.35 16.46.88 24.41 1.24.44 2.47.83 3.68 1.17 3.43-11.96 1.85-19.72-1.27-27.72z" fill="#3f3f3f"/><path d="m1780.42 2998.83c-.68.54-1.73 1.35-3.07 2.34 6.82 9.77 7.38 22.92 1.45 33.24 1.71.15 3.28.11 4.67-.17 6.64-14.65 3.06-26.08-3.05-35.41z" fill="#3f3f3f"/><path d="m1795.69 3008.47c2.26 10.65-1.37 22.67-11.39 25.57-12.9 3.74-44.82-16.62-40.97-17.71 11.48 3.28 45.47 11.7 52.36-7.86z" fill="#000" fill-opacity=".5"/><path d="m1739.51 3030.31c-19.68-5.39-39.17 4.55-49.55 21.61.04 2.46.19 4.95.46 7.47 9.09-20.1 30.75-31.78 51.87-24.08-.94-1.66-1.87-3.33-2.78-5z" fill="#3f3f3f"/><path d="m1748.68 3046.1c-.81-1.29-1.64-2.64-2.47-4.04-20.9-.52-44.11 14.04-52.67 33.13.57 1.96 1.21 3.92 1.92 5.87 6.95-20.78 31.37-36.64 53.22-34.96z" fill="#3f3f3f"/><path d="m1753.87 3052.84c-1.01-1.06-1.93-2.12-2.75-3.17-18.81 5.19-40.98 23.18-52.91 38.11.6 1.31 1.23 2.62 1.9 3.92 11.33-14.58 34.8-35.68 53.76-38.86z" fill="#3f3f3f"/><path d="m1758.99 3057.68c-1.19-1.04-2.32-2.07-3.38-3.09-3.17 20.95-28.7 42.06-50.54 45.67.78 1.19 1.58 2.36 2.42 3.53 23.55-4.34 45.89-22.06 51.5-46.11z" fill="#3f3f3f"/><path d="m1765.48 3062.96c-1.37-1.06-2.69-2.11-3.96-3.15 1.63 25.08-18.58 51.78-43.29 56.39 1.13 1.1 2.3 2.17 3.5 3.23 24.33-5.87 43.47-31.62 43.75-56.47z" fill="#3f3f3f"/><path d="m1774.31 3069.58c-1.55-1.13-3.07-2.26-4.56-3.38 6.08 26.27-9.02 55.58-35.35 62.79 1.31.93 2.65 1.88 4.02 2.84 25.34-8.52 39.61-36.22 35.89-62.25z" fill="#3f3f3f"/><path d="m1784.77 3077.35c-1.74-1.33-3.5-2.64-5.25-3.93 9.2 25.45-1.1 61.09-29.69 66.09 1.56.99 3.15 1.96 4.75 2.9 26.61-7.23 36.58-39.83 30.19-65.06z" fill="#3f3f3f"/><path d="m1799.87 3089.87c-2.12-2-4.37-3.97-6.7-5.9 12.99 25.04 1.04 56.02-25.86 64.84 1.9.77 3.81 1.46 5.72 2.03 23.61-9.56 34.65-37.07 26.84-60.97z" fill="#3f3f3f"/><path d="m1811.62 3136.35c-21.85 35.57-60.26 4.49-82.02-10.76-28.4-19.91-40.72-51.77-39.58-78.42.51-11.83 11.3-24.18 21.24-31.85-33.22 44.49 50.73 146.36 100.36 121.03z" fill="#000" fill-opacity=".5"/><path d="m1690.02 3047.17c-1.14 26.65 11.18 58.51 39.58 78.42 22.68 15.89 58.75 44.79 80.84 12.65 27.92-40.57-45.56-67-60.85-90.71-8.49-13.17-18.84-33.96-21.89-39.11-3.06-5.15-36.78 17.63-37.68 38.75z" stroke="#1a2b3a" stroke-width="3"/><path d="m1744.52 3016.36c-9.19-1.64 26.06 21.66 39.78 17.68 13.72-3.97 12.73-22 11.31-25.83-2.58-7-6.81-16.55-14.37-10.04-1.18 1.01-25.43 20.22-36.72 18.19z" stroke="#1a2b3a" stroke-width="3"/><path d="m1601.4 3259.89c56.82.05 92.99-68.11 58.59-115.27 15.91-45.21-18.09-95.39-66.66-96.55-56-1.34-88.37 58.5-82.5 109.13 5.48 47.31 37.52 102.65 90.57 102.69z" fill="#f7c394" stroke="#333" stroke-miterlimit="10" stroke-width="5"/><path d="m1510.83 3157.2c6.78 58.57 54.37 126.8 125.37 93.8-68.82-8.8-117-125.5-83.11-191.84-5.39 3.84-13.89 8.34-27.6 27.61-12.29 21.73-17.7 46.2-14.66 70.43z" fill="#000" fill-opacity=".1"/></svg>