<svg fill="none" height="4000" viewBox="0 0 4000 4000" width="4000" xmlns="http://www.w3.org/2000/svg"><path d="m2275.11 3290.64c-50.77-7.42-115.16-32.27-196.86-76-11.87-6.35-16.67-21.85-10.25-33.84 6.35-11.87 21.85-16.66 33.84-10.25 75.45 40.37 136.18 64.12 180.5 70.6 28.93 4.23 49.75 1 61.88-9.64 13.61-11.92 12.39-33 8.83-72.39-4.17-46.12-9.36-103.53 19.78-169.51 44-99.72 153.63-194.53 269.09-176.7 73.33 11.36 143.6 66.19 159.73 140.59 13.73 63.36-6.02 150.17-73.53 174.43-44.77 16-95.93-2.36-130.84-32.08-10.44-8.68-11.95-25-3.06-35.44 8.81-10.34 25.15-11.64 35.48-2.62.43.36 43.66 36.65 81.49 23.06 42.84-15.38 49.77-78.95 41.56-116.78-11.75-54.23-65.6-93.57-118.51-101.77-92.84-14.33-180.8 68.49-215.72 147.49-23.91 54.16-19.56 102.32-15.72 144.81 4 43.84 7.71 85.25-25.67 114.5-27.66 24.4-67.07 26.8-102.02 21.54z" fill="#3b7217" stroke="#333" stroke-miterlimit="10" stroke-width="5"/><path d="m2786.65 2965.53c11.06 51.02 1.18 114.55-37.82 152.08 51.41-33.7 65.07-107.56 52.82-164.08-16.13-74.41-86.39-129.24-159.73-140.6-66.26-10.23-131.78 18.56-181.54 60.82 114.12-80.75 293.29-60.36 326.27 91.78z" fill="#000" fill-opacity=".2"/><path d="m2717.62 3078.06c-27.03 31.45-75.59 15.26-102.89-8.23-3.14-2.68-6.9-4.54-10.94-5.41-4.03-.87-8.22-.73-12.19.41 3.97-7.3 11.63-12.23 19.93-12.9 6.6-.53 13.15 1.59 18.2 5.89 22.07 19.5 59.84 35.17 87.89 20.24z" fill="#000" fill-opacity=".2"/><path d="m2073.5 3173.5c3.5-3 15.5-9 23-5.5 6.98 3.26 15.34 7.39 24.73 12.03 49.42 24.41 127.47 62.97 183.77 62.97 50 0 54.5-25 47.5-91 .85 3.82 1.92 8.03 3.06 12.51 9.62 37.75 24.09 94.49-50.56 94.49-81.5 0-208.79-70.57-231.5-85.5z" fill="#000" fill-opacity=".2"/><path d="m1587 3147c36.5 0 65.66-32.58 62.04-68.42-5.42-63.52 18.62-132.19 65.95-198.39 43.06-60.25 89.21-93.25 53.71-132.19s-115.56 3.92-155.4 59.5c-65.71 91.92-97.19 189.11-88.63 283.68 3.19 31.47 25.83 55.82 62.33 55.82z" fill="#3b7217" stroke="#333" stroke-miterlimit="10" stroke-width="5"/><path d="m1553.09 3059.16c-.42-112.27 89.61-277.66 195.11-324.16-130-21-245 233.5-222.71 351.77 7.21-11.77 19.71-23.27 27.6-27.61z" fill="#000" fill-opacity=".15"/><path d="m1959.37 3446.51c5-87.08 27.4-154.43 47.17-206.81s42.42-144.7-42.56-166.02c-121.5-30.49-188.31 254.12-193.3 340.94-2.93 51.08 36.82 110.33 88.4 113.29 47.48 2.31 97.45-31.79 100.29-81.4z" fill="#3b7217" stroke="#333" stroke-miterlimit="10" stroke-width="5"/><path d="m1769.48 3414.5c51.5-7 148-7 188.5 34 .34-3.09 1.44-11.94 1.66-15.04-42.16-36.96-138.16-39.46-188.02-32.46-.26 3.3-1.86 10.13-2.14 13.5z" fill="#000" fill-opacity=".15"/><path d="m1785.48 3325c47.76 44.29 108.88 69.13 178 78.5.58-5.01 1.81-12.18 2.5-17-68.6-8.88-128.2-37.6-176-81-2 6-3.62 15.27-4.5 19.5z" fill="#000" fill-opacity=".15"/><path d="m2040.63 3446.51c-5-87.08-27.4-154.43-47.17-206.81s-42.42-144.7 42.56-166.02c121.5-30.49 188.31 254.12 193.3 340.94 2.93 51.08-36.82 110.33-88.4 113.29-47.48 2.31-97.45-31.79-100.29-81.4z" fill="#3b7217" stroke="#333" stroke-miterlimit="10" stroke-width="5"/><path d="m2230.52 3414.5c-51.5-7-148-7-188.5 34-.34-3.09-1.44-11.94-1.66-15.04 42.16-36.96 138.16-39.46 188.02-32.46.26 3.3 1.86 10.13 2.14 13.5z" fill="#000" fill-opacity=".15"/><path d="m2214.52 3325c-47.76 44.29-108.88 69.13-178 78.5-.58-5.01-1.81-12.18-2.5-17 68.6-8.88 128.2-37.6 176-81 2 6 3.62 15.27 4.5 19.5z" fill="#000" fill-opacity=".15"/><path d="m2413 3147c-36.5 0-65.66-32.58-62.04-68.42 5.42-63.52-18.62-132.19-65.95-198.39-43.06-60.25-89.21-93.25-53.71-132.19s115.56 3.92 155.4 59.5c65.71 91.92 97.19 189.11 88.63 283.68-3.19 31.47-25.83 55.82-62.33 55.82z" fill="#3b7217" stroke="#333" stroke-miterlimit="10" stroke-width="5"/><path d="m2446.91 3059.16c.42-112.27-89.61-277.66-195.11-324.16 130-21 245 233.5 222.71 351.77-7.21-11.77-19.71-23.27-27.6-27.61z" fill="#000" fill-opacity=".15"/><path d="m3133.19 1832.12c111.1 102 66.32 309.29-9.09 427.16-107.46 168-353.47 273.75-479.46 184.37-131.58-93.35-114.4-386.92 39.2-539.32 114.68-113.78 334.45-177.69 449.35-72.21z" fill="#6aa047" stroke="#333" stroke-miterlimit="10" stroke-width="5"/><path d="m3003.49 1952.22c66 68.19 30.1 196.68-21.65 267.88-73.75 101.45-232.17 158.69-307.94 97.86-79.14-63.53-57.39-247.22 44.75-337.18 76.26-67.16 216.64-99.08 284.84-28.56z" fill="#7bb256"/><path d="m3124.1 2259.28c-60.69 94.85-195.1 203.22-346.6 216.72 106.36-25 260.01-133.85 306.64-206.72 75.41-117.87 115.36-338.97 9.09-427.16-32.41-26.89-114.73-65.12-227.73-45.12 138-42.5 222.79-6.13 267.73 35.12 111.06 101.99 66.28 309.29-9.13 427.16z" fill="#000" fill-opacity=".1"/><path d="m866.818 1832.12c-111.1 102-66.32 309.29 9.09 427.16 107.46 168 353.472 273.75 479.462 184.37 131.58-93.35 114.4-386.92-39.2-539.32-114.68-113.78-334.452-177.69-449.352-72.21z" fill="#6aa047" stroke="#333" stroke-miterlimit="10" stroke-width="5"/><path d="m996.518 1952.22c-66 68.19-30.1 196.68 21.652 267.88 73.75 101.45 232.17 158.69 307.94 97.86 79.14-63.53 57.39-247.22-44.75-337.18-76.26-67.16-216.64-99.08-284.842-28.56z" fill="#7bb356"/><path d="m875.908 2259.28c60.69 94.85 195.102 203.22 346.602 216.72-106.36-25-260.019-133.85-306.642-206.72-75.41-117.87-115.36-338.97-9.09-427.16 32.409-26.89 114.732-65.12 227.732-45.12-138.002-42.5-222.792-6.13-267.732 35.12-111.06 101.99-66.28 309.29 9.13 427.16z" fill="#000" fill-opacity=".1"/><path d="m2000 2548c154 0 220 135 260 246s58 220 58 292c0 152-138.68 305.46-318 307-175.53 1.51-318-155-318-307 0-72 17.7-181.5 58-292 40-111 106-246 260-246z" fill="#3b7217" stroke="#333" stroke-miterlimit="10" stroke-width="5"/><path d="m2000 3393c-175.67 1.59-330-157-318-337 10 148 145.15 288.48 318 287s308-139 318-287c12 180-142.33 335.41-318 337z" fill="#000" fill-opacity=".15"/><path d="m2000 2672c104 0 160 68 174 128 34.49 147.82 64 274 4 350s-134.95 82-178 82c-47.55 0-118-6-178-82s-32.44-193.83 4-350c14-60 70-128 174-128z" fill="#6aa047" stroke="#333" stroke-miterlimit="10" stroke-width="5"/><path d="m2000 3232c-136 0-224-94-213-216 4 115 96 190 213 190s209-75 213-190c11 122-77 216-213 216z" fill="#000" fill-opacity=".1"/><path d="m2456.64 2931.88c-11.23 9.05-89.14 48.12-125.49 41.88-11.15-31.76-21.65-48.76-33.15-64.76 24 77 44.5 218.5-5 301-60.8 59.77-184 90-293 90s-232.2-30.23-293-90c-40-63-40-180.5-5-301-10 12-17.28 22.88-33.15 64.76-43.85 0-95.08-15.23-127.49-37.88 20.64-64.38 52.64-105.88 62.86-116.88 132.06 51.39 252.28 79.13 395.78 79.13s284.48-30 398.59-75c7.12 10.87 44.41 57.37 58.05 108.75z" fill="#0e45fe" stroke="#333" stroke-linecap="round" stroke-linejoin="round" stroke-width="5"/><path d="m1669 2974c-43 1-93.5-18-127-38 .5-5 6.5-19 8-21.5 22 20 76.84 42.96 118.04 40.41 5.96-12.91 13.96-34.91 33.96-47.91-4.86 7.78-26.5 45-33 67z" fill="#000" fill-opacity=".15"/><path d="m2457 2932c-33.5 20-82.5 43-125.5 42-6.5-22-28.14-59.22-33-67 17.36 11.29 25.62 29.83 33.96 47.91 41.2 2.55 96.04-23.41 118.04-43.41 2 4 5.5 15 6.5 20.5z" fill="#000" fill-opacity=".15"/><path d="m2320 3029.86c10.5 97.14-9.78 154.89-28.54 181.84-84.96 72.8-207.78 87.57-291.46 88.3-118.33 1-232.94-31.66-293.74-91.43-27.26-35.57-30.95-113.88-30.07-161.91.77 43.11 10.89 101.04 39.31 137.34 46.8 59.77 166.17 88.04 284.5 87 129.24-1.12 245.61-25.36 291.34-93.11 27.91-41.34 27.94-100.75 28.66-148.03z" fill="#000" fill-opacity=".15"/><path d="m2395 2818c-115.35 45.21-271 79-395 79s-259.34-26.43-395-79c-7.24 10.54-16.61 26.27-23 37 142 57 275 86 418 86s276-29 418-86c-6.15-10.7-15.93-26.36-23-37z" fill="#000" fill-opacity=".15"/><path d="m2267.76 936.82c398.16 129.18 699.66 403.12 698.24 910.18-1.09 388.75-350.07 990.81-966.43 996.18-594.62 5.19-966.64-596.22-965.57-996.18 1.32-488.44 432.13-990.94 966-1028.5 394.94-27.786 393.5 65.5 267.76 118.32z" fill="#3b7217" stroke="#333" stroke-linecap="round" stroke-linejoin="round" stroke-width="5"/><path d="m2338.5 857.24c-81.02-12.021-182.82-22-304.56-13.44-653.46 45.937-1126.939 771.2-864.58 1359.08 68.14-70.38 151.14-90.38 177.59-99.16 7.94 8.57 17.6 17.67 21.05 21.78-81.37 25.35-175.93 80.41-216.63 156.84-76.27-147.6-117-302.56-116.59-435.33 1.32-488.45 432.22-991 966.09-1028.57 88.45-6.217 163.54-5.148 226.63-.982 80.5 8.542 100 26.342 111 39.782z" fill="#000" fill-opacity=".15"/><path d="m2964.5 1847.07c-.36 127.74-38.12 278.51-110.54 423.57-74.96-102.64-209.23-143.64-222.96-143.64 4-5 16-19.7 20-24.5 23.5 5.5 128.62 27.91 187.28 106.2 59.3-132.15 86.52-255.16 86.84-370.86 1.47-524.24-353.62-784.84-657.36-901.02 398.16 129.18 698.16 403.18 696.74 910.25z" fill="#000" fill-opacity=".15"/><path d="m1725 1203.5c-297 0-665 628.5-363.5 918.5-575.499 180 0 779 638.5 779s1214-599 638.5-779c301.5-290-66.5-918.5-363.5-918.5-126.5 0-195.51 58.5-275 116.5-79.5-58-148.5-116.5-275-116.5z" fill="#6aa047" stroke="#333" stroke-width="5"/><path d="m2749.1 1817c-15.7-308.54-265-613.19-481.5-613.19-134.6 0-216.2 82.14-267.6 116.19-41.1-28.05-132.5-116.19-268.4-116.19-255.6 0-478.1 373.19-482.13 622.71-22.47-268.52 183.6-671.52 483.53-671.52 156 0 239 75 267 106 28-31 111-106 267-106 297.63 0 503.5 381.5 482.1 662z" fill="#000" fill-opacity=".15"/><path d="m1250.37 1807.39c-7.11 117.45 24.02 230.01 111.45 314.11-10.42 3.26-20.47 7.66-30.15 11.19 22.33-7.19 43.66-12.28 68.33-16.69-84.54-81.32-133.47-191.77-149.63-308.61z" fill="#000" fill-opacity=".1"/><path d="m1148.6 2266.67c-135.93 245.26 334.32 633.83 851.4 633.83s993.17-392.85 849.75-637.86c95.36 224.1-359.03 600.36-849.75 600.36-487.79 0-939.69-371.78-851.4-596.33z" fill="#000" fill-opacity=".1"/><path d="m2670.5 2133c-21.76-6.41-44.6-12.37-70.5-17 85.32-82.07 134.37-193.81 150.07-311.86 7.89 118.62-23.01 232.49-111.25 317.36 11.32 3.54 21.24 7.64 31.68 11.5z" fill="#000" fill-opacity=".1"/><path d="m2359.06 2685.11 25.38-8.07-249.25-155.98 281.26-63.52-11.57-18.88 5.76-19.11-15.22-13.98 7.46-25.37-18.44-19.07 12.23-23.65-407.14 92.43-346.03-216.55 3.84 26.81-27.63 20.32 7.42 17.22-23.43 9.76 3.91 17.75-23.16 10.29 240.38 151.79-215.32 48.89-64.63 17.34 21.67 16.24-5.17 33.91 17.42 6.92-9.66 23.47 15.31 9.79-9.1 23.65 393.94-88.98 344.24 217.39 5.16-21.53 17.6-9.44-.88-20.65 23.21-12.66z" fill="#000"/><path d="m1759.66 1403.06c154.89 18 266.48 208.75 250 376.77-16.38 167.34-162.69 342-329.88 323-151.8-17.3-250.26-186.22-253.5-328.16-4.31-190.16 160.84-391.67 333.38-371.61z" fill="#fff"/><path d="m1835.89 1427c-204.38-55.89-374.48 186.25-370.31 368.01 2.47 107.25 59.36 229.79 152.7 291.65-116.4-48.78-189.2-190.33-192-312-4.33-190.11 160.82-391.59 333.36-371.55 26.68 3.19 52.53 11.29 76.25 23.89z" fill="#000" fill-opacity=".05"/><path d="m1756.82 1955.43c84.09 0 152.26-68.17 152.26-152.26s-68.17-152.26-152.26-152.26-152.26 68.17-152.26 152.26 68.17 152.26 152.26 152.26z" fill="#000"/><path d="m1780.31 1780.96c22.37 0 40.51-18.14 40.51-40.52 0-22.37-18.14-40.51-40.51-40.51-22.38 0-40.52 18.14-40.52 40.51 0 22.38 18.14 40.52 40.52 40.52z" fill="#fff"/><path d="m1690.74 1763.64c11.7 0 21.19-9.49 21.19-21.2 0-11.7-9.49-21.19-21.19-21.19-11.71 0-21.2 9.49-21.2 21.19 0 11.71 9.49 21.2 21.2 21.2z" fill="#fff"/><path d="m1722.08 1710.44c9.87 0 17.88-8.01 17.88-17.88s-8.01-17.87-17.88-17.87-17.87 8-17.87 17.87 8 17.88 17.87 17.88z" fill="#fff"/><path d="m2234 1398.91c-154.54 20.68-262.79 213.36-243.4 381.08 19.3 167 168.63 339.1 335.47 317.13 151.47-19.94 247-190.55 247.73-332.52.98-190.16-167.66-388.73-339.8-365.69z" fill="#fff"/><path d="m2573.77 1764.6c-.66 123.27-72.75 268.13-190.88 317.21 95.29-61.62 152.08-188.08 152.66-297.55.96-183.58-181.09-431.24-385.95-355.18 26-15.6 54.29-26.14 84.37-30.17 172.17-23.04 340.81 175.53 339.8 365.69z" fill="#000" fill-opacity=".05"/><path d="m2243.18 1955.43c-84.09 0-152.26-68.17-152.26-152.26s68.17-152.26 152.26-152.26 152.26 68.17 152.26 152.26-68.17 152.26-152.26 152.26z" fill="#000"/><path d="m2219.69 1780.96c-22.37 0-40.51-18.14-40.51-40.52 0-22.37 18.14-40.51 40.51-40.51 22.38 0 40.52 18.14 40.52 40.51 0 22.38-18.14 40.52-40.52 40.52z" fill="#fff"/><path d="m2309.26 1763.64c-11.7 0-21.19-9.49-21.19-21.2 0-11.7 9.49-21.19 21.19-21.19 11.71 0 21.2 9.49 21.2 21.19 0 11.71-9.49 21.2-21.2 21.2z" fill="#fff"/><path d="m2277.92 1710.44c-9.87 0-17.88-8.01-17.88-17.88s8.01-17.87 17.88-17.87 17.88 8 17.88 17.87-8.01 17.88-17.88 17.88z" fill="#fff"/><path d="m1785 2099c0 76.35 98.85 169 216.26 168 108.22-.95 213.74-92.55 213.74-167.78 0-152.13-430-154.42-430-.22z" fill="#000" fill-opacity=".1"/><path d="m1782 2081c0 76.35 100.23 169 219.27 168 109.73-.95 216.73-92.55 216.73-167.78 0-60.53-126.24-113.77-216.73-113-84.02.78-219.27 41.16-219.27 112.78z" fill="#3b7217"/><path d="m1783.58 2067.77c41.76 54.75 124.68 100.94 217.85 100.22 86.21-.68 170.92-47.12 214.09-101.55 1.62 4.86 2.48 9.8 2.48 14.78 0 75.23-107 166.83-216.73 167.78-119.04 1-219.27-91.65-219.27-168 0-4.54.54-8.95 1.58-13.23z" fill="#000" fill-opacity=".2"/><g stroke-miterlimit="10" stroke-width="5"><g fill="#777"><path d="m1713.06 3354.78-49.76 5.88c-33.16 3.92-27.08 55.49 6.08 51.58l49.78-5.89c31.75-3.75 27.31-55.52-6.1-51.57zm.94 40.48-39.27 4.64c-19.07 2.25-22.44-26.23-3.36-28.49l39.26-4.63c19.08-2.26 22.44 26.22 3.37 28.48z" stroke="#333"/><path d="m1600.6 3372.78-49.21 9.45c-33.08 6.36-22.48 57.21 9.8 51l49.22-9.46c32.3-6.2 23.12-57.33-9.81-50.99zm3.85 40.3-38.82 7.46c-18.87 3.63-24.28-24.54-5.41-28.16l38.82-7.47c17.17-3.3 24.68 24.47 5.41 28.17z" stroke="#333"/><path d="m1491.24 3403.74-45.7 20.57c-30.44 13.7-9.18 61.08 21.31 47.36l45.7-20.57c29.18-13.14 9.62-61.27-21.31-47.36zm13.06 38.33-36.05 16.22c-17.52 7.89-29.29-18.27-11.78-26.15l36.06-16.23c17.51-7.88 29.28 18.27 11.77 26.16z" stroke="#333"/><path d="m1389.76 3442.44-49.65 6.77c-33.13 4.51-26.07 55.97 7 51.46l49.67-6.77c33.08-4.51 26.06-55.97-7.02-51.46zm1.66 40.46-39.18 5.33c-19.03 2.6-22.9-25.82-3.87-28.41l39.17-5.34c19.04-2.6 22.91 25.82 3.88 28.42z" stroke="#333"/><path d="m1761 3374.51h-38.77c-1.48 0-2.68 1.2-2.68 2.68v3.64c0 1.48 1.2 2.68 2.68 2.68h38.77c1.48 0 2.68-1.2 2.68-2.68v-3.64c0-1.48-1.2-2.68-2.68-2.68z" stroke="#333"/><path d="m1658.62 3383.97-46 6.23c-1.6.21-2.71 1.68-2.5 3.27l.43 3.15c.21 1.59 1.68 2.71 3.27 2.49l46.01-6.23c1.59-.21 2.71-1.68 2.5-3.27l-.43-3.15c-.22-1.59-1.68-2.71-3.28-2.49z" stroke="#333"/><path d="m1553.7 3404.53-44.01 14.79c-1.52.51-2.34 2.17-1.83 3.69l1.01 3.01c.51 1.52 2.16 2.34 3.69 1.83l44.01-14.8c1.52-.51 2.34-2.16 1.83-3.68l-1.01-3.01c-.52-1.53-2.17-2.35-3.69-1.83z" stroke="#333"/><path d="m1448.56 3445.54-46.96 15.78c-1.57.53-2.42 2.23-1.89 3.81l.96 2.83c.52 1.57 2.23 2.42 3.8 1.89l46.95-15.79c1.58-.53 2.42-2.23 1.89-3.8l-.95-2.83c-.53-1.58-2.23-2.42-3.8-1.89z" stroke="#333"/><path d="m1109.57 3556.45c200.75 0 363.49-162.75 363.49-363.5s-162.74-363.49-363.49-363.49c-200.749 0-363.49 162.74-363.49 363.49s162.741 363.5 363.49 363.5z" stroke="#333"/></g><path d="m1473.06 3192.95c0 200.75-162.74 363.49-363.49 363.49-154.839 0-287.059-96.81-339.439-233.21 290.519 177.82 645.899-135.56 528.879-440.56 104.39 63.87 174.05 178.94 174.05 310.28z" fill="#000" opacity=".1" stroke="#000"/><path d="m1473.06 3192.95c0 200.75-162.74 363.49-363.49 363.49-126.351 0-237.641-64.47-302.781-162.3 317.361 265.36 751.211-156.74 535.561-480.38 79.88 66.68 130.71 167 130.71 279.19z" fill="#000" opacity=".1" stroke="#000"/><path d="m1975.53 3407.66-206.92-43.38c-2.47-.52-4.88 1.06-5.4 3.53l-5.6 26.68c-.51 2.47 1.07 4.88 3.53 5.4l206.93 43.38c2.46.52 4.88-1.06 5.4-3.52l5.59-26.69c.52-2.46-1.06-4.88-3.53-5.4z" fill="#777" stroke="#333"/><path d="m1910 3556c32 0 63.09-23.6 66.7-56.14 9.11-82.21-94.35-89.68-150.67-90.92-57.1-1.25-154.03 9.56-171.02 72.27-14.85 54.79 36.49 74.79 72.99 74.79s49-12.15 92.98-12.15c38.41 0 57.02 12.15 89.02 12.15z" fill="#6aa047" stroke="#333"/></g><path d="m1909 3534c-32 0-50.61-12.15-89.02-12.15-43.98 0-56.48 12.15-92.98 12.15-28.39 0-65.75-12.1-73.97-43.26-6.73 47.6 40.67 65.26 74.97 65.26 36.5 0 49-12.15 92.98-12.15 38.41 0 57.02 12.15 89.02 12.15 42.86 0 73-34.15 65.91-80.26-2.97 33.46-34.04 58.26-66.91 58.26z" fill="#000" fill-opacity=".1"/><path d="m2090 3556c-32 0-63.09-23.6-66.7-56.14-9.11-82.21 94.35-89.68 150.67-90.92 57.1-1.25 154.03 9.56 171.02 72.27 14.85 54.79-36.49 74.79-72.99 74.79s-49-12.15-92.98-12.15c-38.42 0-57.02 12.15-89.02 12.15z" fill="#6aa047" stroke="#333" stroke-miterlimit="10" stroke-width="5"/><path d="m2091 3534c32 0 50.6-12.15 89.02-12.15 43.98 0 56.48 12.15 92.98 12.15 28.39 0 65.75-12.1 73.97-43.26 6.73 47.6-40.67 65.26-74.97 65.26-36.5 0-49-12.15-92.98-12.15-38.42 0-57.02 12.15-89.02 12.15-42.86 0-73-34.15-65.91-80.26 2.97 33.46 34.04 58.26 66.91 58.26z" fill="#000" fill-opacity=".1"/><path d="m2372.37 2939.25h-751.83v417.76h751.83z" fill="#efefef" stroke="#333" stroke-linecap="round" stroke-linejoin="round" stroke-width="5"/><path clip-rule="evenodd" d="m1808.45 3181.46c4.52 19.56 25.89 10.04 20.89-3.19-2.5-6.64-1.88-20.76-1.88-28.24 4.06-1.8 22.53-9.45 26.54-5.45 6.55 5.22 3.52 24.01 7.34 31.62 5.36 10.72 19.16 3.8 17.78-7.63-2.09-17.32-12.23-90.78-39.62-89.45-28.5 0-36.8 77.46-31.05 102.34zm32.37-80.55c5.66 1.05 12.88 19.3 9.41 22.77-2.44 2.45-17.95 5.98-20.7 3.77-3.2-3.19 4.77-27.74 11.29-26.54z" fill="#000" fill-rule="evenodd"/><path d="m1746.24 3083.31c-34.53 18.74 15.69 80.81 23.06 101.35-21.5 17.21-25.58-17.66-39.62-23.81-5.07-1.54-15.67 3.94-12.51 10.26 9.25 25.9 31.01 47.58 59.47 33.13 35.03-17.6-18.97-69.17-20.33-97.88-.31-7.7 4.52-8.55 11.01-4.14 7.62 5.19 13.04 12.94 20.33 18.54 6.45 3.87 18.8-1.55 15.44-10.07-7.21-18.23-39.01-36.59-56.85-27.38z" fill="#000"/><path d="m1968.43 3110.88c-5.77 27.76-14.6 63.51-23.25 89.12-5.57 16.5-26.18 13.19-32.18-1.79-8-19.94-25.21-62.88-30.21-87.9-1.57-7.89 5.83-15.37 13.85-10.75 16.67 9.6 21.86 82.28 32.27 82.28 8.59 0 16.45-62.27 19.57-75.67 3.44-14.79 22.72-11.57 19.95 4.71z" fill="#000"/><path d="m2026.88 3137.89c-5.75-3.42-25.12 2.53-26.92-3.39-2.13-7.04-1.66-21.83-1.88-30.02 8.45 0 17 .45 25.41-.47 8.8-2.01 10.68-18.73.56-19.1-11.02-1.38-23.43-1.41-34.45-.19-4.24.56-12.1 3.28-12.1 10.78 0 30.19 4 78 7.19 105.33.66 5.67 5.57 7.96 8.68 9.43 7.45 3.73 28.43 2.97 35.01-2.44 3.73-3.4 3.69-14.58-2.36-16-4.42-1.04-18.52 3.58-20.98-.38-2.9-5.07-6.35-29.11-3.39-34.07 2.33-4.66 18.89-.77 24.66-3.01 5.03-2.15 5.13-13.76.57-16.47z" fill="#000"/><path d="m2122.48 3079.36c17.52 7.14 25.02 50.35 45.26 50.35 20.99 0 18.54-33.22 30.02-44.42 6.29-6.46 14.23-.95 15.15 6.4 3 24.02.87 50.37 7.72 74.72 4.84 17.23-19.01 24.11-19.01 6.77 0-12.47-3.53-25.76-5.46-38.02-4.16 5.34-9.66 14.95-27.59 14.95-17 .4-28.18-13.28-37.72-25.49-1.91.01-1.13 62.49-1.13 70.4-5.18 4.86-17.52 7.48-18.72-1.52-3.96-29.84-2.5-82.5-.48-104.06.47-5.02 6.93-12.13 11.96-10.08z" fill="#000"/><path d="m2269.28 3136.41c-4.56-.63-20.45 2.59-21.17-1.91-1.13-7.04-1.67-21.83-1.88-30.02 8.44 0 17 .45 25.41-.47 8.79-2.01 10.68-18.75.56-19.1-11.02-.38-23.43-.41-34.45-.19-4.27.09-12.37 2.28-12.04 8.09 1.79 31.81 4.79 80.37 9.13 110.02.49 3.4 3.25 7.1 6.68 7.43 7.45.73 28.43.97 35.01-2.44 4.48-2.33 3.69-14.58-2.36-16-4.42-1.04-18.52 3.58-20.98-.38-2.89-5.08-3.35-29.11-3.39-34.07-.01-1.5 16.82-1.31 19.48-1.69 11.66-1.52 11.53-17.69 0-19.27z" fill="#000"/><path d="m1601.4 3259.89c56.81.05 92.98-68.11 58.59-115.27 15.91-45.21-18.09-95.39-66.66-96.55-56-1.34-88.37 58.5-82.5 109.13 5.48 47.31 37.52 102.65 90.57 102.69z" fill="#6aa047" stroke="#333" stroke-miterlimit="10" stroke-width="5"/><path d="m1510.83 3157.2c6.78 58.57 54.37 126.8 125.37 93.8-68.83-8.8-117-125.5-83.11-191.84-5.39 3.84-13.89 8.34-27.6 27.61-12.29 21.73-17.7 46.2-14.66 70.43z" fill="#000" fill-opacity=".1"/><path d="m2398.6 3259.89c-56.82.05-92.99-68.11-58.59-115.27-15.92-45.21 18.08-95.39 66.66-96.55 56-1.34 88.36 58.5 82.5 109.13-5.48 47.31-37.53 102.65-90.57 102.69z" fill="#6aa047" stroke="#333" stroke-miterlimit="10" stroke-width="5"/><path d="m2489.17 3157.2c-6.78 58.57-54.37 126.8-125.37 93.8 68.82-8.8 117-125.5 83.11-191.84 5.39 3.84 13.89 8.34 27.6 27.61 12.29 21.73 17.7 46.2 14.66 70.43z" fill="#000" fill-opacity=".1"/><path d="m1037.04 1781.43c3.73-.3 7.07-2.73 8.5-6.2 250.72-586.37 1247.96-620.73 1780.49-446.12-39.53-57.61-137.53-200.11-238.23-280.49-411.95-74.143-985.74-85.503-1379.84 238.71-.01 0-.01.01-.01.02-90.31 125.93-160.04 301.32-170.91 494.08z" fill="#000" fill-opacity=".2"/><g stroke="#333" stroke-width="5"><path d="m2803.21 1298.1c-518.16-235.2-1516.48-121.45-1756 458.66-2.95 7.23-14.29 6.51-15.95-1.46-31.651-152.86-8.33-350 49.67-555.05-43.98 98.44-152.782 322.45-208.931 319.08-124.455-7.48 47.87-446.3 102.48-538.01 181.331-304.301 514.501-459.084 860.041-458.9 435.16.25 807.27 303.18 982.44 762.8 3.07 8.1-5.6 16.59-13.75 12.88z" fill="#1d8cc4" stroke-linecap="round" stroke-linejoin="round"/><path d="m1077.3 1209.82c11.06-34.72 58.2-131.65 61.13-161.03" stroke-linecap="round" stroke-miterlimit="10"/><path d="m2718.61 1264.24c-152.42-53.59-335.11-81.32-523.73-80.88 51.83-303.755 594.27-228.559 523.73 80.88z" fill="#f2f2f2" stroke-miterlimit="10"/><path d="m1546.04 1136.85c73.43 0 132.96-52.26 132.96-116.71 0-64.46-59.53-116.713-132.96-116.713-73.44 0-132.97 52.253-132.97 116.713 0 64.45 59.53 116.71 132.97 116.71z" fill="#f2f2f2" stroke-miterlimit="10"/><path d="m1303.13 659.342c99.21-57.052 208.73-96.39 322.99-117.798 109.72 158.342-313.86 307.968-322.99 117.798z" fill="#f2f2f2" stroke-miterlimit="10"/><path d="m1127.07 790.285c112.21 46.941-55.92 270.265-152.59 191.035 41.86-70.255 93.3-134.708 152.59-191.035z" fill="#f2f2f2" stroke-miterlimit="10"/><path d="m843.051 1332.61c17.613-76.41 47.844-163.13 76.332-233.18 51.27 69.62 8.686 209.51-76.332 233.18z" fill="#f2f2f2" stroke-miterlimit="10"/><path d="m2026.79 1191.18c-71.86 6.54-143.54 17.2-213.72 32.12-39.31-131.29 201.52-166.98 213.72-32.12z" fill="#f2f2f2" stroke-miterlimit="10"/><path d="m2051.28 931.332c95.73 0 173.35-68.124 173.35-152.158 0-84.035-77.62-152.158-173.35-152.158-95.74 0-173.35 68.123-173.35 152.158 0 84.034 77.61 152.158 173.35 152.158z" fill="#f2f2f2" stroke-miterlimit="10"/><path d="m1443.89 1352.31c-93.45 48.68-180.07 110.13-253.27 186.17-118.02-52.45-93.11-212.37 5.37-274.32 89.56-56.34 230.03-26.51 247.9 88.15z" fill="#f2f2f2" stroke-miterlimit="10"/></g><path d="m1047.21 1756.76c239.52-580.11 1237.84-693.86 1756-458.66 8.81 4.02 16.47-5.76 13.3-14.06-163.83-428.063-519.51-774.54-1021.81-760.953 314.58 78.102 578.04 320.143 729.45 659.713-233.43-34.61-474.86-30.55-707.03 12.41-311.89 58.19-643.98 208.72-771.91 518.55-2.95 7.23-14.29 6.51-15.95-1.46-1.45-7.02-6.9-26.03-9.51-39.03 2.22 27.49 5.99 55.02 11.51 82.03 1.66 7.97 13 8.69 15.95 1.46z" fill="#000" fill-opacity=".2"/><path d="m1138.43 1048.79c-10.5 37.13-49.4 115.07-57.5 151.46-85.43 191.25-206.468 402.6-236.308 283.36-5.37-21.47-7.45-51.7-5.48-88.28 10.929 203.99 269.858-290.33 299.288-346.54z" fill="#000" fill-opacity=".2"/><path d="m992.539 1568.24c23.171-83.88-19.422-168.85-95.14-189.76-75.718-20.92-155.886 30.13-179.06 114.01-23.174 83.89 19.422 168.85 95.14 189.77 75.718 20.91 155.886-30.13 179.06-114.02z" fill="#f2f2f2" stroke="#333" stroke-miterlimit="10" stroke-width="4.75"/><path d="m992.541 1568.25c-23.17 83.89-103.34 134.94-179.06 114.02-46.2-12.77-80.06-49.36-94.18-95.02 122.919 76.94 248.271-75.29 212.29-193.73 53.65 33.51 80.359 104.5 60.95 174.73z" fill="#000" fill-opacity=".15"/></svg>