<svg xmlns="http://www.w3.org/2000/svg" xmlns:xlink="http://www.w3.org/1999/xlink" width="4000" height="4000" fill="none" xmlns:v="https://vecta.io/nano"><style><![CDATA[.B{stroke:#333}.C{stroke-width:5}.D{fill:#000}.E{stroke-miterlimit:10}.F{fill-opacity:.15}.G{fill-opacity:.1}.H{fill:#d7d7d7}.I{fill-opacity:.2}.J{fill:#fff}.K{fill:#f7c394}.L{stroke-linejoin:round}.M{fill:#ed431e}]]></style><path d="M2275.1 3290.64c-50.77-7.42-115.16-32.27-196.86-76-11.87-6.35-16.67-21.85-10.25-33.84 6.35-11.87 21.85-16.66 33.84-10.25 75.45 40.37 136.18 64.12 180.5 70.6 28.93 4.23 49.75 1 61.88-9.64 13.6-11.92 12.4-33 8.83-72.4-4.17-46.12-9.36-103.53 19.78-169.5 44-99.72 153.63-194.53 269.1-176.7 73.33 11.36 143.6 66.2 159.73 140.6 13.73 63.36-6.02 150.17-73.53 174.43-44.77 16-95.93-2.36-130.84-32.08-10.44-8.68-11.95-25-3.06-35.44 8.8-10.34 25.15-11.64 35.48-2.62.43.36 43.66 36.65 81.5 23.06 42.84-15.38 49.77-78.95 41.56-116.78-11.75-54.23-65.6-93.57-118.5-101.77-92.84-14.33-180.8 68.5-215.72 147.5-23.9 54.16-19.56 102.32-15.72 144.8 4 43.84 7.7 85.25-25.67 114.5-27.66 24.4-67.07 26.8-102.02 21.54z" class="B C E H"/><path d="M2786.65 2965.53c11.06 51.02 1.18 114.55-37.82 152.08 51.4-33.7 65.07-107.56 52.82-164.08-16.13-74.4-86.4-129.24-159.73-140.6-66.26-10.23-131.78 18.56-181.54 60.82 114.12-80.75 293.3-60.36 326.27 91.78zm-69.03 112.53c-27.03 31.45-75.6 15.26-102.9-8.23-3.14-2.68-6.9-4.54-10.94-5.4a25.037 25.037 0 0 0-12.19.41c3.97-7.3 11.63-12.23 19.93-12.9 6.6-.53 13.15 1.6 18.2 5.9 22.07 19.5 59.84 35.17 87.9 20.24zm-644.12 95.44c3.5-3 15.5-9 23-5.5 6.98 3.26 15.34 7.4 24.73 12.03 49.42 24.4 127.47 62.97 183.77 62.97 50 0 54.5-25 47.5-91 .85 3.82 1.92 8.03 3.06 12.5 9.62 37.75 24.1 94.5-50.56 94.5-81.5 0-208.8-70.57-231.5-85.5z" class="D I"/><path d="M1587 3147c36.5 0 65.66-32.58 62.04-68.42-5.42-63.52 18.62-132.2 65.95-198.4 43.06-60.25 89.2-93.25 53.7-132.2s-115.56 3.92-155.4 59.5c-65.7 91.92-97.2 189.1-88.63 283.68 3.2 31.47 25.83 55.82 62.33 55.82z" class="B C E H"/><path d="M1553.1 3059.16c-.42-112.27 89.6-277.66 195.1-324.16-130-21-245 233.5-222.7 351.77 7.2-11.77 19.7-23.27 27.6-27.6z" class="D F"/><path d="M1959.37 3446.5c5-87.08 27.4-154.43 47.17-206.8s42.42-144.7-42.56-166.02c-121.5-30.5-188.3 254.12-193.3 340.94-2.93 51.08 36.82 110.33 88.4 113.3 47.48 2.3 97.45-31.8 100.3-81.4z" class="B C E H"/><path d="M1769.48 3414.5c51.5-7 148-7 188.5 34l1.66-15.04c-42.16-36.96-138.16-39.46-188.02-32.46-.26 3.3-1.86 10.13-2.14 13.5zm16-89.5c47.76 44.3 108.88 69.13 178 78.5.58-5 1.8-12.18 2.5-17-68.6-8.88-128.2-37.6-176-81-2 6-3.62 15.27-4.5 19.5z" class="D F"/><path d="M2040.63 3446.5c-5-87.08-27.4-154.43-47.17-206.8s-42.42-144.7 42.56-166.02c121.5-30.5 188.3 254.12 193.3 340.94 2.93 51.08-36.82 110.33-88.4 113.3-47.48 2.3-97.45-31.8-100.3-81.4z" class="B C E H"/><path d="M2230.52 3414.5c-51.5-7-148-7-188.5 34l-1.66-15.04c42.16-36.96 138.16-39.46 188.02-32.46.26 3.3 1.86 10.13 2.14 13.5zm-16-89.5c-47.76 44.3-108.88 69.13-178 78.5-.58-5-1.8-12.18-2.5-17 68.6-8.88 128.2-37.6 176-81 2 6 3.62 15.27 4.5 19.5z" class="D F"/><path d="M2413 3147c-36.5 0-65.66-32.58-62.04-68.42 5.42-63.52-18.62-132.2-65.95-198.4-43.06-60.25-89.2-93.25-53.7-132.2s115.56 3.92 155.4 59.5c65.7 91.92 97.2 189.1 88.63 283.68-3.2 31.47-25.83 55.82-62.33 55.82z" class="B C E H"/><path d="M2446.9 3059.16c.42-112.27-89.6-277.66-195.1-324.16 130-21 245 233.5 222.7 351.77-7.2-11.77-19.7-23.27-27.6-27.6z" class="D F"/><path d="M3133.2 1832.12c111.1 102 66.32 309.3-9.1 427.16-107.46 168-353.47 273.75-479.46 184.37-131.58-93.35-114.4-386.92 39.2-539.32 114.68-113.78 334.45-177.7 449.35-72.2z" class="B C E K"/><path d="M3003.5 1952.22c66 68.2 30.1 196.68-21.65 267.88-73.75 101.45-232.17 158.7-307.94 97.86-79.14-63.53-57.4-247.22 44.75-337.18 76.26-67.16 216.64-99.08 284.84-28.56z" fill="#ffc9a1"/><path d="M3124.1 2259.28c-60.7 94.85-195.1 203.22-346.6 216.72 106.36-25 260-133.85 306.64-206.72 75.4-117.87 115.36-338.97 9.1-427.16-32.4-26.9-114.73-65.12-227.73-45.12 138-42.5 222.8-6.13 267.73 35.12 111.06 102 66.28 309.3-9.13 427.16z" class="D G"/><path d="M866.818 1832.12c-111.1 102-66.32 309.3 9.1 427.16 107.46 168 353.472 273.75 479.462 184.37 131.58-93.35 114.4-386.92-39.2-539.32-114.68-113.78-334.452-177.7-449.352-72.2z" class="B C E K"/><path d="M996.518 1952.22c-66 68.2-30.1 196.68 21.652 267.88 73.75 101.45 232.17 158.7 307.94 97.86 79.14-63.53 57.4-247.22-44.75-337.18-76.26-67.16-216.64-99.08-284.842-28.56z" fill="#ffc9a1"/><path d="M875.908 2259.28C936.598 2354.13 1071 2462.5 1222.5 2476c-106.36-25-260.02-133.85-306.642-206.72-75.4-117.87-115.36-338.97-9.1-427.16 32.41-26.9 114.732-65.12 227.732-45.12-138.002-42.5-222.792-6.13-267.732 35.12-111.06 102-66.28 309.3 9.13 427.16z" class="D G"/><path d="M2000 2548c154 0 220 135 260 246s58 220 58 292c0 152-138.68 305.46-318 307-175.53 1.5-318-155-318-307 0-72 17.7-181.5 58-292 40-111 106-246 260-246z" class="B C E H"/><path d="M2000 3393c-175.67 1.6-330-157-318-337 10 148 145.15 288.48 318 287s308-139 318-287c12 180-142.33 335.4-318 337z" class="D F"/><path d="M2000 2672c104 0 160 68 174 128 34.5 147.82 64 274 4 350s-134.95 82-178 82c-47.55 0-118-6-178-82s-32.44-193.83 4-350c14-60 70-128 174-128z" class="B C E K"/><g class="D"><path d="M2000 3232c-136 0-224-94-213-216 4 115 96 190 213 190s209-75 213-190c11 122-77 216-213 216z" class="G"/><path d="M2395 2818c-115.35 45.22-271 79-395 79s-259.34-26.43-395-79c-7.24 10.54-16.6 26.27-23 37 142 57 275 86 418 86s276-29 418-86c-6.15-10.7-15.93-26.36-23-37z" class="F"/></g><path d="M2500.32 839c42.32-35.85-124.32-76-146.52-139.5-26.8-76.5 395.6 127.1 331.57 261.08-5 10.5-55.43 94-417.6-23.77C2665.92 1066 2967.42 1339.94 2966 1847c-1.1 388.75-350.07 990.8-966.43 996.18-594.62 5.2-966.64-596.22-965.57-996.18 1.32-488.44 432.13-990.94 966-1028.5 319.4-22.45 465.3 50.1 500.32 20.5z" fill="#268833" class="B C L"/><path d="M2565.16 861.34c-29.66 65.16-211.8-40-531.22-17.54C1380.48 889.737 907 1615 1169.36 2202.88c68.14-70.38 151.14-90.38 177.6-99.16 7.94 8.57 17.6 17.67 21.05 21.78-81.37 25.35-175.93 80.4-216.63 156.84-76.27-147.6-117-302.56-116.6-435.33 1.32-488.45 432.22-991 966.1-1028.57 319.4-22.45 464.56 50.1 499.6 20.46 42.18-35.75-124.46-75.9-146.65-139.4-8.57-24.46 28.82-20.27 81.55 1.13-20-2.88-31 1.83-25.55 15.87 19.38 50.4 180.3 90.02 155.35 144.83zm399.34 985.73c-.36 127.74-38.12 278.5-110.54 423.57C2779 2168 2644.73 2127 2631 2127l20-24.5c23.5 5.5 128.62 27.9 187.28 106.2 59.3-132.15 86.52-255.16 86.84-370.86 1.47-524.24-353.62-784.84-657.36-901.02C2665.92 1066 2965.92 1340 2964.5 1847.07z" class="D F"/><path d="M1725 1203.5c-297 0-665 628.5-363.5 918.5-575.5 180 0 779 638.5 779s1214-599 638.5-779c301.5-290-66.5-918.5-363.5-918.5-126.5 0-195.5 58.5-275 116.5-79.5-58-148.5-116.5-275-116.5z" fill="#ffcd98" class="B C"/><g class="D"><path d="M2749.1 1817c-15.7-308.54-265-613.2-481.5-613.2-134.6 0-216.2 82.14-267.6 116.2-41.1-28.05-132.5-116.2-268.4-116.2-255.6 0-478.1 373.2-482.13 622.7C1227 1558 1433.07 1155 1733 1155c156 0 239 75 267 106 28-31 111-106 267-106 297.63 0 503.5 381.5 482.1 662z" class="F"/><path d="M1250.37 1807.4c-7.1 117.45 24.02 230 111.45 314.1-10.42 3.26-20.47 7.66-30.15 11.2 22.33-7.2 43.66-12.28 68.33-16.7-84.54-81.32-133.47-191.76-149.63-308.6zm-101.77 459.27c-135.92 245.26 334.32 633.83 851.4 633.83s993.17-392.85 849.75-637.86C2945.1 2486.74 2490.72 2863 2000 2863c-487.8 0-939.7-371.78-851.4-596.33zM2670.5 2133c-21.76-6.4-44.6-12.37-70.5-17 85.32-82.07 134.37-193.8 150.07-311.86 7.9 118.62-23 232.5-111.25 317.36 11.32 3.54 21.24 7.64 31.68 11.5z" class="G"/></g><path d="M1759.66 1403.06c154.9 18 266.48 208.75 250 376.77-16.38 167.34-162.7 342-329.88 323-151.8-17.3-250.26-186.22-253.5-328.16-4.3-190.16 160.84-391.67 333.38-371.6z" class="J"/><path d="M1947.73 1825.22c22.1-113.95-39.5-221.76-137.6-240.8s-195.55 57.9-217.66 171.87c-22.1 113.95 39.5 221.76 137.6 240.8 98.1 19.04 195.55-57.9 217.66-171.87z" fill="#313cc4" class="B C E"/><path d="M1781.2 1941.56c58.5 0 105.94-53.04 105.94-118.46s-47.43-118.46-105.94-118.46-105.94 53.04-105.94 118.46 47.43 118.46 105.94 118.46z" class="D"/><path d="M1874.9 1740.3c7.45-21.05-4.4-44.45-26.5-52.27-22.08-7.82-46.02 2.9-53.47 23.96s4.4 44.45 26.5 52.27c22.08 7.8 46.02-2.9 53.47-23.96z" class="B C E J"/><g class="D"><path d="M1835.9 1427c-204.38-55.9-374.47 186.25-370.3 368 2.47 107.25 59.36 229.8 152.7 291.65-116.4-48.78-189.2-190.33-192-312-4.33-190.1 160.82-391.6 333.36-371.55 26.68 3.2 52.53 11.3 76.25 23.9z" fill-opacity=".05"/><path d="M1863.62 1605.54c-112.84-32.07-212.74 65.3-233.15 170.44-16.75 86.35 14.07 169.22 72.35 213.35-81.88-32-130.23-129.93-110.25-232.9 22.12-114 119.58-190.9 217.68-171.85 18.92 3.67 37 10.77 53.37 20.95z" class="F"/></g><path d="M2234 1398.9c-154.54 20.68-262.8 213.36-243.4 381.08 19.3 167 168.63 339.1 335.47 317.13 151.47-19.94 247-190.55 247.73-332.52.98-190.16-167.66-388.73-339.8-365.7z" class="J"/><path d="M2273.74 1992.7c97.75-20.74 157.47-129.6 133.37-243.16-24.1-113.55-122.87-188.8-220.63-168.05-97.75 20.75-157.46 129.6-133.37 243.16 24.1 113.56 122.87 188.8 220.63 168.05z" fill="#313cc4" class="B C E"/><path d="M2221.84 1937.7c58.5-1.02 105-54.87 103.86-120.3-1.15-65.4-49.5-117.6-108-116.6-58.5 1.02-105 54.88-103.86 120.3 1.14 65.42 49.5 117.62 108 116.6z" class="D"/><path d="M2288.34 1764.4c21.95-8.2 33.4-31.8 25.58-52.72-7.8-20.92-31.94-31.23-53.88-23.03-21.95 8.2-33.4 31.8-25.6 52.73 7.82 20.9 31.94 31.22 53.9 23.02z" class="B C E J"/><g class="D"><path d="M2573.77 1764.6c-.66 123.27-72.75 268.13-190.88 317.2 95.3-61.62 152.08-188.08 152.66-297.55.96-183.58-181.1-431.24-385.95-355.18 26-15.6 54.3-26.14 84.37-30.17 172.17-23.04 340.8 175.53 339.8 365.7z" fill-opacity=".05"/><path d="M2295.1 1986.4c60.86-43.65 92.6-129.07 73.87-217.3-22.4-105.54-126.48-201.4-238.74-163.7 17.03-11.63 36.17-19.82 56.34-24.1 97.76-20.75 196.54 54.48 220.65 168 22.3 105.1-27.16 206.17-112.12 237.1z" class="F"/><path d="M1785 2099c0 76.35 98.85 169 216.26 168 108.22-.95 213.74-92.55 213.74-167.78 0-152.13-430-154.42-430-.22z" class="G"/></g><path d="M1782 2081c0 76.35 100.23 169 219.27 168 109.73-.95 216.73-92.55 216.73-167.78 0-60.53-126.24-113.77-216.73-113-84.02.78-219.27 41.16-219.27 112.78z" fill="#7f6145"/><path d="M1783.58 2067.77c41.76 54.75 124.68 100.94 217.85 100.22 86.2-.68 170.92-47.12 214.1-101.55 1.62 4.86 2.48 9.8 2.48 14.78 0 75.23-107 166.83-216.73 167.78-119.04 1-219.27-91.65-219.27-168 0-4.54.54-8.95 1.58-13.23z" class="D I"/><path d="M1601.4 3259.9c56.82.05 93-68.1 58.6-115.27 15.9-45.2-18.1-95.4-66.66-96.55-56-1.34-88.37 58.5-82.5 109.13 5.48 47.3 37.52 102.65 90.57 102.7z" class="B C E K"/><path d="M1510.83 3157.2c6.78 58.57 54.37 126.8 125.37 93.8-68.82-8.8-117-125.5-83.1-191.84-5.4 3.84-13.9 8.34-27.6 27.6-12.3 21.73-17.7 46.2-14.66 70.43z" class="D G"/><path d="M2398.6 3259.9c-56.82.05-93-68.1-58.6-115.27-15.92-45.2 18.08-95.4 66.66-96.55 56-1.34 88.36 58.5 82.5 109.13-5.48 47.3-37.52 102.65-90.57 102.7z" class="B C E K"/><path d="M2489.17 3157.2c-6.78 58.57-54.37 126.8-125.37 93.8 68.82-8.8 117-125.5 83.1-191.84 5.4 3.84 13.9 8.34 27.6 27.6 12.3 21.73 17.7 46.2 14.66 70.43z" class="D G"/><path d="M2000.4 2770.5c275 0 572-112.5 663.25-379.44 15.25-42.3-22.1-84.98-67.45-78.53-197.53 28.07-396.8 42.15-596.3 42.15s-398.78-14.1-596.3-42.15c-45.32-6.44-82.16 36-67.46 78.53C1428.4 2658 1725.4 2770.5 2000.4 2770.5z" fill="#3d0c0c"/><path d="M2578.2 2512.04c32.74-40.14 56-82.74 67.74-125.83 8.9-32.67-14.7-60.04-47.04-55.45-396.36 55.5-801.44 56.2-1197.8.01-32.4-4.56-55.98 22.77-47.08 55.44 11.74 43.1 34.97 85.7 67.74 125.83 383.1 52.47 773.36 52.94 1156.43 0zM2000.4 2752c198.55.34 414.2-65.72 553.93-212.94-367.46 48.34-741.25 48.3-1108.7.03 140.78 148.35 354.63 212.57 554.78 212.9z" class="J"/><path d="M2645.95 2386.22c-11.75 43.08-35 85.68-67.74 125.82l-88.92 11.23c42.55-59.77 72.34-124.18 92-190.06l17.54-2.44c32.43-4.6 56.02 22.77 47.12 55.45zm-1224.2 125.82l89.57 11.3c-42.7-59.7-72.52-124.15-92.1-190.05l-18.12-2.53c-32.4-4.55-55.98 22.77-47.08 55.45 11.74 43.1 34.97 85.68 67.74 125.82zm23.85 27c78.35 82.56 182.38 141.73 290.3 173.75-86.43-45.37-154.18-101.8-206.6-163.6l-83.7-10.14zM2266.36 2712c107.2-32.23 209.97-90.74 287.98-172.94l-82.92 10.07c-52.28 61.44-119.58 117.48-205.06 162.87z" class="D G"/><path d="M1910 3556c32 0 63.1-23.6 66.7-56.14 9.1-82.2-94.35-89.68-150.66-90.92-57.1-1.25-154.04 9.56-171.03 72.27-14.84 54.8 36.5 74.8 73 74.8s49-12.15 93-12.15c38.4 0 57 12.15 89 12.15z" fill="#cc341b" class="B C E"/><g class="M"><use xlink:href="#B"/><use xlink:href="#C"/><use xlink:href="#D"/><use xlink:href="#E"/></g><g class="B C L"><use xlink:href="#B"/><use xlink:href="#C"/><use xlink:href="#D"/><use xlink:href="#E"/></g><path d="M1909 3534c-32 0-50.6-12.15-89-12.15-44 0-56.5 12.15-93 12.15-28.38 0-65.75-12.1-73.97-43.26-6.72 47.6 40.68 65.26 74.97 65.26 36.5 0 49-12.15 93-12.15 38.4 0 57 12.15 89 12.15 42.87 0 73-34.15 65.9-80.26-2.96 33.46-34.03 58.26-66.9 58.26z" fill-opacity=".4" class="D"/><path d="M2090 3556c-32 0-63.1-23.6-66.7-56.14-9.1-82.2 94.35-89.68 150.67-90.92 57.1-1.25 154.03 9.56 171.02 72.27 14.85 54.8-36.5 74.8-73 74.8s-49-12.15-92.98-12.15c-38.42 0-57.02 12.15-89.02 12.15z" fill="#cc341b" class="B C E"/><g class="M"><use xlink:href="#F"/><use xlink:href="#G"/><use xlink:href="#H"/><use xlink:href="#I"/></g><g class="B C L"><use xlink:href="#F"/><use xlink:href="#G"/><use xlink:href="#H"/><use xlink:href="#I"/></g><g class="D"><path d="M2091 3534c32 0 50.6-12.15 89.02-12.15 43.98 0 56.48 12.15 92.98 12.15 28.4 0 65.75-12.1 73.97-43.26 6.73 47.6-40.67 65.26-74.97 65.26-36.5 0-49-12.15-92.98-12.15-38.4 0-57.02 12.15-89.02 12.15-42.86 0-73-34.15-65.9-80.26 2.97 33.46 34.04 58.26 66.9 58.26z" fill-opacity=".4"/><path d="M1874.8 2767.34c-.67 7.55-8.4 5.9-13.85 5-46.35-6.36-90.2-22.88-137.74-15.9-15.64 2.2-29.53 8.25-45.85 8.25-20.4 0-28.9 29.85-15.92 59.13 6.22 14 24.66 26.74 35.18 40.94 15.85 21.2 21.8 62.15 49.24 71.4 163.4 62.88 89.65 251.72-1.86 326.85-42.65-53.32-65.36-111.9-65.36-176.65 0-53.7 11.36-110.85 29.86-194.35-133.44 196-213.6 94.76-101.4-68.57-36.17-14-71.13-29.42-104.6-46-35.6-87.7 4.98-207.52 117.26-201.15 91.17 5.64 120.08 64.57 128 104 11.33 12 24.6 30.76 44.3 35.9 21.38 5.57 85.74 17 82.72 51.17z" class="I"/></g><g class="B C E"><path d="M1034.65 3297.5c17.9 97.62 174 140 341.68 114.6 220.4-33.35 460.88-174.68 434.34-371.1-5.94-44-49.8-81.2-112.82-102.46-17.34-5.84-25.64-16.84-33.64-31.56l-18.06 25.87-10-7.26-16.56 22.1-13.48-14.85-19.1 26.1-12.32-3.3-9.32 12.1-9-11.06-14.16 17.62-16.94-5.46-18.16 4.2-21.76-4.63c-102-5.98-492.17 103.16-450.7 329.1z" class="H"/><path d="M1485.32 2968.45l21.77 4.62 18.16-4.2 16.94 5.46 14.16-17.62 9 11.06 9.32-12.1L1587 2959l19.1-26.1 13.48 14.84 16.57-22.1 10 7.26 18-25.88c-14.66-38.53-41.44-47.4-52.8-73.2-13-29.3-4.5-59.13 15.9-59.13 50.2 0 72.15-27.2 73-57.64s-15.23-131.2-145-131.2c-81.85 0-119.22 80.2-119.22 139.42 0 84.73 66.96 98.7 49.28 243.15z" fill="#268833"/></g><path d="M1610.48 2682.46c-11.92 0-21.63-8.42-21.63-18.75s9.7-18.76 21.63-18.76 21.63 8.42 21.63 18.76-9.7 18.75-21.63 18.75z" class="D"/><path d="M1610.48 2647.45c10.57 0 19.13 7.28 19.13 16.26s-8.56 16.25-19.13 16.25-19.13-7.28-19.13-16.25 8.57-16.26 19.13-16.26zm0-5c-13.3 0-24.13 9.54-24.13 21.26s10.83 21.25 24.13 21.25 24.13-9.54 24.13-21.25-10.82-21.26-24.13-21.26z" fill="#333"/><g class="B E"><path d="M1742 2726.18c-29-7.55-44.06-44.62-59.5-46.22s6.9 32.6-3.4 49.6c-8 13.3-16 21-33.7 19.07-6.84-.75-5.6 5.45-.92 11.17s11.72 10.72 20.16 8.36c18.85-5.28 58.25-3.5 77.36.24 14.66 2.87 67 15.4 78.34 14.64 7.06-.47 7.94-17.88-13.7-33.45-13-9.34-36.87-16.18-64.63-23.42z" fill="#eba22c" class="C"/><path d="M1717.64 2726.35c-5.12 2.5-.84 19.38 12.9 16.4 9.56-2.07-6.06-19.75-12.9-16.4z" fill="#35200e" stroke-width="3"/></g><path d="M1436.04 2725.3c-2.58-54.3 37.37-139.42 119.22-139.42a234.08 234.08 0 0 1 14.51.45c-74.7 6.4-108.9 82.3-108.9 139 0 53.08 54.4 112 52.4 208.17 5.7-1 9.93-1.9 9.93-1.9l9.18 6.52 14.75-12.16 6.9 1 6.22-16.1 12.42-2.1 7.88-9.73 13.2-.4 13.14-11.42 21 2.92s9.64-8.25 18.73-15.3c3 4.02 5.3 8.53 7.6 12.96-10.22 7.15-26.34 21-26.34 21l-19.34-5.18s-62.17 45.6-65.27 50.1c-22.26-1.68-37.18-2.43-55.72-3.13 8.96-121.55-48.04-152.55-51.5-225.25z" class="D I"/><g class="J"><path opacity=".2" d="M1602.2 2673.95c-.1-.12-.18-.25-.25-.38-6.2-9.78 3.92-21.96 14.28-21.8-14.07-6.97-30.5 14.38-14.03 22.17z"/><path d="M1598.7 2668.53c2.66 0 4.82-2.16 4.82-4.82s-2.16-4.82-4.82-4.82-4.82 2.16-4.82 4.82 2.16 4.82 4.82 4.82z"/></g><g class="B C E"><path d="M1485.32 2968.4l21.77 4.62 18.16.47 16.94.8 14.16-17.62 9 11.06 9.32-12.1L1587 2959l19.1-26.1 13.48 14.84 16.57-22.1 10 7.26 18-25.88c-3.2-5.86-6.36-12.3-10-19.26-10.22 7.15-26.34 21-26.34 21l-19.34-5.18s-62.17 45.6-65.27 50.1c-5-1.06-39.4-2.5-55.7-3.13-.5 5.77-1.24 11.73-2.2 17.86z" fill="#e0ecf2"/><path d="M1544 2972.1c5.73 21.9 15.55 42.5 30.18 51.8 33.68 21.4 121.82-11.48 148.12 62.76 22 62.1 10 125 7.26 163.42 58.45-58.17 95-129.53 81.16-209.1-10.8-62.15-51.46-87.42-112.82-102.46-17.77-4.35-25.64-16.84-33.64-31.56l-18.06 25.87-10-7.26-16.56 22.1-13.48-14.85-19.16 26.1-12.32-3.3-9.32 12.1-9-11.06-12.36 15.43z" fill="#4a3632"/></g><path d="M1671.44 2972.56c-15 4.83-21.87 18.88-9.65 29.27 13.26 11.27 49.65 21.38 67.13 48.8 7.17 11.24 12.44 28.6 16.83 60.13 2 14 20.8 17.1 27.26 4.5 30.6-59.63 13.1-179.5-101.57-142.7z" fill="#543d39"/><g class="D"><path d="M1681.86 2717.54c-.01-6.3-1.56-13.13-2.93-19.22-1.1-4.87-5.85-20.65 4.5-18.16 2.3 12.33 6.08 26.1-1.58 37.38zm-17.24 50.63c-8.44 2.37-15.5-2.62-20.16-8.36-4.67-5.73-5.9-11.92.94-11.17 2.24.26 4.5.35 6.76.26 4.2 3.66 9.4 5.24 15.76 4.44 58.58-7.34 103.08 11.66 156.4 18.97 1.44 6.2-.53 10.52-4 10.75-8.5.55-40.08-6.35-61.5-11.05l-16.84-3.6c-19.1-3.74-58.5-5.53-77.36-.25z" class="I"/><path d="M1034.64 3297.5c17.92 97.6 174 140 341.68 114.58 181.74-27.5 377.14-128.42 425.2-273.1-75.34 111.26-239.7 187.7-394.18 211.06-129.65 19.64-392.6-5.07-338.13-194.78-29.7 40.74-44.5 88.14-34.58 142.25z" class="F"/></g><path d="M1656.58 3071.76c-.17-33.73-89.6-21.58-112.63-99.65-46.28-5.94-256.53-21-338.32 54.45 8-3.86 11.57-1.6 13-.54-14.3 9.34-62.87 40.4-109.5 82.42-42.3 38.1-63.3 86.7-117 97s-108.7 35.1-116.28 37.15c5.55 12.4 91.65 100.23 168.65 108.4s244.3-22.95 330.2-79.2 147.12-140.27 197-149.95c.5-14.25-4.62-30.7 13.62-32.37.83-6.9.55-15.75 1.93-22.38 14.94-.04 44.76-1.15 69.34 4.67z" fill="#c1c1c1" class="B C E"/><path d="M1531.52 3024.34c-23.87-3.23-133.68 11.38-187 67.35 6.37-14 18.45-30.15 26.75-38.88-24.32 10.12-92.64 52-122.35 54.62 8.74-10.5 9.18-12.24 14-15.74-15.73 5.25-149.88 105.32-180 145.08-27.94 7.77-68.45 19.28-91.9 41.87 37.48 30.7 96.98 45.86 195.27 30.7 11.5-2.56 126.2-70.77 153.07-80.15s85.27-29.44 132.6-70.36c-12.36 4.7-35 21.33-49.7 26 22.85-15.35 71.88-57.14 80.84-61h-21.3c15.2-4.93 62.4-34.15 71.07-38.28-3.62-1.63-8.44-.15-12.07-2.5 11.1-2.8 25.88-12.14 27.64-13.2 18.3-11.02-29.25-44.46-36.9-45.5z" fill="#ccc"/><path d="M1418.68 3390.74c-4.55-8.73-20-.1-34 1.86s-27.78 2.27-26.85 13.1 15.14 76.27 13 98.16-13 56.8-42.58 64.48c-4 1-4 7.6-1.16 10.44 1.82 1.85 6.63 2.4 12.4 1.53 8.78-1.35 20.12 2.05 27.27 2.38 61.74 2.82 127.17-.12 188.1-2.27 11.2-.43 20-3.76 20.18-10.77.25-8.23-3-14.6-27.08-15.22 12.4-.3 25.57-.77 25.44-12.28-.1-9.83-13.2-12.53-27.1-11.2-50.54 4.84-122.3 5.2-130.9 3.37-1.72-.37-10.4-6-10.55-12.43-.56-21.78 9.13-70.38 6.74-105.76-.6-10.55 15.4-9.33 7.07-25.38z" class="B C L M"/><path d="M1366.27 3395.65c-5.4 1.66-8.87 4.43-8.4 10 3.88 45.2 25.24 92.64 2 135.86 35.68-40.85 12.75-98.65 6.4-145.86zm-37.94 172.68c2.2-.58 4.35-1.32 6.44-2.22 2.44 3.74 9.3 1.96 12.98 2.25 65.25 5.14 137.47 3.78 201.74.92 5.44-.24 13.4-.6 13.28-7.04-.07-3.48-.53-6.76-9.72-7.63 10.3.7 22.02 2.94 22.02 15-.22 7-9 10.33-20.17 10.77-16.3.6-31.58 1.6-46.75 2.6-41.9 2.74-82.82 5.42-141.3-.37-2.07-.2-4.5-.6-7.12-1.04h0c-6.4-1.06-13.93-2.3-20.15-1.35-5.77.88-10.57.33-12.4-1.54-2.8-2.75-2.87-9.32 1.15-10.35zm245.17-26.2c-.1-9.07-11.23-12.07-23.86-11.43 17.6 1.03 15.38 23.3-1.76 23.7h.18c12.44-.27 25.57-.76 25.44-12.27z" class="D I"/><defs ><path id="B" d="M1842.5 3545.2c-15.46-40.24-21.12-95.04-16.7-136.25 13.07.28 26.13.86 39.14 2.1-3.6 45.05 5.6 102.85 26.9 143.65-16.5-2.33-30.66-7.16-49.35-9.5z"/><path id="C" d="M1770.54 3411.7c-19.33 2.42-39.1 6.63-56.8 13.45 2.14 41.72 15.2 92.83 36.62 129.17 17.2-2.64 30.3-7.67 51.78-9.64-18.87-38.74-33.2-91.14-31.6-132.98z"/><path id="D" d="M1966.68 3526.42c-6.75 9.84-16.34 17.74-27.28 22.9-20.33-36.65-27.4-87.16-26.05-129.52 13.58 4 26.23 9.46 36.64 16.98.85 29.9 6.26 61.86 16.7 89.65z"/><path id="E" d="M1655 3481.2c3.1-11.38 8.8-21.04 16.42-29.24 4.7 33.55 15.1 71.33 31.1 100.95-30.47-7.45-59.08-29.02-47.52-71.7z"/><path id="F" d="M2157.5 3545.2c15.47-40.24 21.13-95.04 16.7-136.25-13.06.28-26.12.86-39.13 2.1 3.6 45.05-5.62 102.85-26.9 143.65 16.48-2.33 30.65-7.16 49.34-9.5z"/><path id="G" d="M2229.45 3411.7c19.33 2.42 39.1 6.63 56.8 13.45-2.13 41.72-15.2 92.83-36.6 129.17-17.2-2.64-30.32-7.67-51.8-9.64 18.88-38.74 33.2-91.14 31.6-132.98z"/><path id="H" d="M2033.3 3526.42c6.76 9.84 16.34 17.74 27.3 22.9 20.32-36.65 27.4-87.16 26.04-129.52-13.57 4-26.23 9.46-36.64 16.98-.84 29.9-6.25 61.86-16.7 89.65z"/><path id="I" d="M2345 3481.2c-3.08-11.38-8.8-21.04-16.42-29.24-4.7 33.55-15.1 71.33-31.1 100.95 30.47-7.45 59.1-29.02 47.52-71.7z"/></defs></svg>