<svg fill="none" height="4000" viewBox="0 0 4000 4000" width="4000" xmlns="http://www.w3.org/2000/svg"><path d="m1804.42 3100.78 25.72-30.83c3.42-4.1 2.87-10.2-1.23-13.62l-291.32-243.07c-4.1-3.42-10.2-2.87-13.62 1.23l-25.72 30.83c-3.43 4.1-2.88 10.2 1.23 13.62l291.32 243.07c4.1 3.42 10.2 2.87 13.62-1.23z" fill="#1a1924"/><g fill="#2b2b3a"><path d="m1516.13 2853.52 28.6-34.28-5.18-4.31-28.59 34.27z"/><path d="m1530.27 2865.31 28.6-34.27-5.18-4.32-28.6 34.28z"/><path d="m1544.4 2877.11 28.6-34.27-5.18-4.32-28.6 34.27z"/><path d="m1558.55 2888.91 28.6-34.28-5.18-4.32-28.6 34.28z"/><path d="m1572.69 2900.69 28.6-34.28-5.18-4.32-28.6 34.28z"/><path d="m1586.82 2912.49 28.6-34.28-5.17-4.31-28.6 34.27z"/><path d="m1600.95 2924.28 28.6-34.28-5.17-4.32-28.6 34.28z"/><path d="m1615.1 2936.08 28.6-34.28-5.18-4.31-28.59 34.27z"/><path d="m1629.23 2947.87 28.6-34.28-5.17-4.32-28.6 34.28z"/><path d="m1643.37 2959.67 28.6-34.27-5.18-4.32-28.59 34.27z"/><path d="m1657.52 2971.45 28.6-34.27-5.18-4.32-28.6 34.28z"/></g><path d="m2195.58 3100.78-25.72-30.83c-3.42-4.1-2.87-10.2 1.23-13.62l291.32-243.07c4.1-3.42 10.2-2.87 13.62 1.23l25.73 30.83c3.42 4.1 2.87 10.2-1.23 13.62l-291.33 243.07c-4.1 3.42-10.2 2.87-13.62-1.23z" fill="#1a1924"/><g fill="#2b2b3a"><path d="m2483.87 2853.52-28.6-34.28 5.18-4.31 28.6 34.27z"/><path d="m2469.73 2865.31-28.6-34.27 5.18-4.32 28.6 34.28z"/><path d="m2455.6 2877.11-28.6-34.27 5.18-4.32 28.6 34.27z"/><path d="m2441.45 2888.91-28.6-34.28 5.18-4.32 28.6 34.28z"/><path d="m2427.31 2900.69-28.6-34.28 5.18-4.32 28.6 34.28z"/><path d="m2413.17 2912.49-28.59-34.28 5.17-4.31 28.6 34.27z"/><path d="m2399.05 2924.28-28.6-34.28 5.17-4.32 28.6 34.28z"/><path d="m2384.9 2936.08-28.6-34.28 5.17-4.31 28.6 34.27z"/><path d="m2370.77 2947.87-28.6-34.28 5.17-4.32 28.6 34.28z"/><path d="m2356.63 2959.67-28.6-34.27 5.17-4.32 28.6 34.27z"/><path d="m2342.48 2971.45-28.6-34.27 5.18-4.32 28.59 34.28z"/></g><path d="m2275.11 3290.64c-50.77-7.42-115.16-32.27-196.86-76-11.87-6.35-16.67-21.85-10.25-33.84 6.35-11.87 21.85-16.66 33.84-10.25 75.45 40.37 136.18 64.12 180.5 70.6 28.93 4.23 49.75 1 61.88-9.64 13.61-11.92 12.39-33 8.83-72.39-4.17-46.12-9.36-103.53 19.78-169.51 44-99.72 153.63-194.53 269.09-176.7 73.33 11.36 143.6 66.19 159.73 140.59 13.73 63.36-6.02 150.17-73.53 174.43-44.77 16-95.93-2.36-130.84-32.08-10.44-8.68-11.95-25-3.06-35.44 8.81-10.34 25.15-11.64 35.48-2.62.43.36 43.66 36.65 81.49 23.06 42.84-15.38 49.77-78.95 41.56-116.78-11.75-54.23-65.6-93.57-118.51-101.77-92.84-14.33-180.8 68.49-215.72 147.49-23.91 54.16-19.56 102.32-15.72 144.81 4 43.84 7.71 85.25-25.67 114.5-27.66 24.4-67.07 26.8-102.02 21.54z" fill="#b32645" stroke="#333" stroke-miterlimit="10" stroke-width="5"/><path d="m2786.65 2965.53c11.06 51.02 1.18 114.55-37.82 152.08 51.41-33.7 65.07-107.56 52.82-164.08-16.13-74.41-86.39-129.24-159.73-140.6-66.26-10.23-131.78 18.56-181.54 60.82 114.12-80.75 293.29-60.36 326.27 91.78z" fill="#000" fill-opacity=".2"/><path d="m2717.62 3078.06c-27.03 31.45-75.59 15.26-102.89-8.23-3.14-2.68-6.9-4.54-10.94-5.41-4.03-.87-8.22-.73-12.19.41 3.97-7.3 11.63-12.23 19.93-12.9 6.6-.53 13.15 1.59 18.2 5.89 22.07 19.5 59.84 35.17 87.89 20.24z" fill="#000" fill-opacity=".2"/><path d="m2073.5 3173.5c3.5-3 15.5-9 23-5.5 6.98 3.26 15.34 7.39 24.73 12.03 49.42 24.41 127.47 62.97 183.77 62.97 50 0 54.5-25 47.5-91 .85 3.82 1.92 8.03 3.06 12.51 9.62 37.75 24.09 94.49-50.56 94.49-81.5 0-208.79-70.57-231.5-85.5z" fill="#000" fill-opacity=".2"/><path d="m1959.37 3446.51c5-87.08 27.4-154.43 47.17-206.81s42.42-144.7-42.56-166.02c-121.5-30.49-188.31 254.12-193.3 340.94-2.93 51.08 36.82 110.33 88.4 113.29 47.48 2.31 97.45-31.79 100.29-81.4z" fill="#b32645" stroke="#333" stroke-miterlimit="10" stroke-width="5"/><path d="m1769.48 3414.5c51.5-7 148-7 188.5 34 .34-3.09 1.44-11.94 1.66-15.04-42.16-36.96-138.16-39.46-188.02-32.46-.26 3.3-1.86 10.13-2.14 13.5z" fill="#000" fill-opacity=".15"/><path d="m1785.48 3325c47.76 44.29 108.88 69.13 178 78.5.58-5.01 1.81-12.18 2.5-17-68.6-8.88-128.2-37.6-176-81-2 6-3.62 15.27-4.5 19.5z" fill="#000" fill-opacity=".15"/><path d="m2040.63 3446.51c-5-87.08-27.4-154.43-47.17-206.81s-42.42-144.7 42.56-166.02c121.5-30.49 188.31 254.12 193.3 340.94 2.93 51.08-36.82 110.33-88.4 113.29-47.48 2.31-97.45-31.79-100.29-81.4z" fill="#b32645" stroke="#333" stroke-miterlimit="10" stroke-width="5"/><path d="m2230.52 3414.5c-51.5-7-148-7-188.5 34-.34-3.09-1.44-11.94-1.66-15.04 42.16-36.96 138.16-39.46 188.02-32.46.26 3.3 1.86 10.13 2.14 13.5z" fill="#000" fill-opacity=".15"/><path d="m2214.52 3325c-47.76 44.29-108.88 69.13-178 78.5-.58-5.01-1.81-12.18-2.5-17 68.6-8.88 128.2-37.6 176-81 2 6 3.62 15.27 4.5 19.5z" fill="#000" fill-opacity=".15"/><path d="m2239.23 2741.1c-106.05-145.18-372.41-145.18-478.46 0-38.4-26.08-110.37 14.65-147.47 66.4-65.71 91.92-97.19 189.11-88.63 283.68 3.19 31.47 25.83 55.82 62.33 55.82s65.66-32.58 62.04-68.42c-5.29-61.96 17.45-128.82 62.5-193.5-20.31 77.36-29.54 148.92-29.54 200.92 0 152 142.47 308.51 318 307 179.32-1.54 318-155 318-307 0-52.14-9.44-123.69-29.84-201.35 45.24 64.82 68.1 131.84 62.8 193.93-3.62 35.84 25.54 68.42 62.04 68.42s59.14-24.35 62.33-55.82c8.56-94.57-22.92-191.76-88.63-283.68-37.1-51.75-109.07-92.48-147.47-66.4z" fill="#b32645" stroke="#333" stroke-miterlimit="10" stroke-width="5"/><path d="m1537.17 2961.7c122.56-.93 182.79-104.47 161.25-221.76-31.24 11.94-63.89 37.94-85.12 67.56-35.93 50.26-61.62 102.09-76.13 154.2z" fill="#35353d" stroke="#333" stroke-miterlimit="10" stroke-width="5"/><path d="m2462.83 2961.7c-122.57-.93-182.79-104.47-161.26-221.76 31.25 11.94 63.9 37.94 85.13 67.56 35.92 50.26 61.62 102.09 76.13 154.2z" fill="#35353d" stroke="#333" stroke-miterlimit="10" stroke-width="5"/><path d="m1553.09 3059.17c-.42-112.28 89.61-277.67 195.11-324.17-130-21-245 233.5-222.71 351.78 7.21-11.78 19.71-23.28 27.6-27.61z" fill="#000" fill-opacity=".15"/><path d="m2446.91 3059.17c.42-112.28-89.61-277.67-195.11-324.17 130-21 245 233.5 222.71 351.78-7.21-11.78-19.71-23.28-27.6-27.61z" fill="#000" fill-opacity=".15"/><path d="m1830.12 3341.92c151.11-113.11 249.95-331.84 264.03-357.01l-34.91-19.53c-71.51 127.79-142.09 265.98-262.63 351.5 10.61 9 21.8 17.38 33.51 25.04z" fill="#35353d" stroke="#333" stroke-miterlimit="10" stroke-width="5"/><path d="m2093.15 2986.91c-14.13 25.26-111.62 243.45-263.64 356.21-3.74-2.4-7.41-4.87-11-7.41 138.23-106 236.43-306.39 264.79-354.34z" fill="#000" fill-opacity=".3"/><path d="m1760.08 3280.85 60.79-142.29c6.76-15.85-.85-34.76-16.7-41.52l-120.56-51.53c-1.08 14.49-1.61 28.05-1.61 40.49 0 69.11 29.45 139.16 78.08 194.85z" fill="#35353d" stroke="#333" stroke-miterlimit="10" stroke-width="5"/><path d="m1689.74 2991.02 138.83 59.31c6.88 2.94 15.1 1.39 20.44-3.83 6.95-6.8 9.58-18.82 13.29-27.5 4-9.36-.48-20.53-9.84-24.54l-144.67-94.36c-8.26 29.64-13.58 60.5-18.05 90.92z" fill="#35353d" stroke="#333" stroke-linecap="round" stroke-linejoin="round" stroke-width="5"/><path d="m2239.92 3280.86-60.79-142.3c-6.76-15.85.85-34.76 16.7-41.52l120.56-51.53c1.08 14.49 1.61 28.05 1.61 40.49 0 69.11-29.46 139.16-78.08 194.86z" fill="#35353d" stroke="#333" stroke-miterlimit="10" stroke-width="5"/><path d="m2310.26 2991.02-138.83 59.31c-6.89 2.94-15.11 1.39-20.44-3.83-6.96-6.8-9.59-18.82-13.29-27.5-4-9.36.48-20.53 9.84-24.54l144.67-94.36c8.26 29.64 13.57 60.5 18.05 90.92z" fill="#35353d" stroke="#333" stroke-linecap="round" stroke-linejoin="round" stroke-width="5"/><path d="m2186.44 2823.5-35.07-20.25c-14.65-8.46-33.38-3.44-41.84 11.21l-66.83 115.74c-8.46 14.65-3.44 33.38 11.21 41.84l35.08 20.25c14.65 8.46 33.38 3.44 41.84-11.21l66.82-115.74c8.46-14.65 3.44-33.39-11.21-41.84z" fill="#35353d" stroke="#333" stroke-miterlimit="10" stroke-width="5"/><path d="m2197.66 2865.33-66.83 115.75c-8.34 14.45-27.39 19.55-41.84 11.21-15.23-8.81-39.83-16.95-47.65-34.14-2.64-5.82-3.4-12.32-2.17-18.59 9.15 14.91 31.38 22.35 45.82 30.69 14.45 8.34 33.5 3.24 41.84-11.21 21.19-36.71 50.67-90.54 70.37-125.15 5.88 9.5 6.06 21.77.46 31.44z" fill="#000" fill-opacity=".3"/><path d="m1731.43 3203.29 13-37.83c152.49 52.52 354.47 59.26 507.18 4.24l13.56 37.63c-161.45 58.24-372.76 51.39-533.74-4.04z" fill="#3d3d44" stroke="#333" stroke-miterlimit="10" stroke-width="5"/><path d="m2265.24 3207.33c-161.51 58.2-372.78 51.41-533.81-4.04l4.63-13.44c159.42 53.11 364.43 59.55 524.39 4.17z" fill="#000" fill-opacity=".3"/><path d="m2044.74 3187.01h-89.48c-9.98 0-18.07 8.09-18.07 18.07v36.74c0 9.98 8.09 18.07 18.07 18.07h89.48c9.98 0 18.07-8.09 18.07-18.07v-36.74c0-9.98-8.09-18.07-18.07-18.07z" fill="#34343a" stroke="#333" stroke-miterlimit="10" stroke-width="5"/><path d="m2062.81 3205.07v36.75c.01 9.73-8.23 18.07-18.06 18.07h-89.49c-8.06 0-15.33-5.55-17.44-13.33 24.68.33 63.56.33 92.93.33 9.73 0 18.07-8.24 18.06-18.07 0-12.98 0-29.32-.63-41.48 8.39 1.62 14.63 9.18 14.63 17.73z" fill="#000" fill-opacity=".3"/><path d="m2000 3393c-175.67 1.59-330-157-318-337 10 148 145.15 288.48 318 287s308-139 318-287c12 180-142.33 335.4-318 337z" fill="#000" fill-opacity=".15"/><path d="m2271.63 3144.42 25.29 11.48c12.31 5.58 17.76 20.08 12.17 32.39l-28.45 62.7c-5.58 12.3-20.09 17.75-32.39 12.17l-25.3-11.48c-12.31-5.59-17.76-20.09-12.17-32.4l28.45-62.69c5.59-12.31 20.09-17.76 32.4-12.17z" fill="#814739" stroke="#333" stroke-miterlimit="10" stroke-width="5"/><path d="m2208.75 3229.32c-.11 9.6 5.61 18.59 14.36 22.55 10.53 4.78 17.69 8.6 31.39 13.63 8 2.94 22-4 26.3-14.32l28.45-62.69c4.72-10.42 1.4-23.08-7.82-29.85-7.93 23.36-23.95 58.93-36.2 80.3-3.78 6.59-11.41 8.61-17.53 6.59-13.7-4.53-29.2-10.53-38.95-16.21z" fill="#000" fill-opacity=".2"/><path d="m1728.37 3144.41-25.3 11.48c-12.3 5.59-17.75 20.09-12.17 32.4l28.46 62.7c5.58 12.3 20.08 17.75 32.39 12.17l25.3-11.48c12.3-5.59 17.75-20.09 12.17-32.4l-28.46-62.7c-5.58-12.3-20.08-17.75-32.39-12.17z" fill="#814739" stroke="#333" stroke-miterlimit="10" stroke-width="5"/><path d="m1791.25 3229.32c.11 9.6-5.61 18.59-14.36 22.55-10.53 4.78-17.69 8.6-31.39 13.63-8 2.94-22-4-26.3-14.32l-28.45-62.69c-4.72-10.42-1.41-23.08 7.82-29.85 7.93 23.36 23.94 58.93 36.2 80.3 3.77 6.59 11.41 8.61 17.53 6.59 13.7-4.53 29.2-10.53 38.95-16.21z" fill="#000" fill-opacity=".2"/><path d="m1910 3556c32 0 63.09-23.6 66.7-56.14 9.11-82.21-94.35-89.68-150.67-90.92-57.1-1.25-154.03 9.56-171.02 72.27-14.85 54.79 36.49 74.79 72.99 74.79s49-12.15 92.98-12.15c38.41 0 57.02 12.15 89.02 12.15z" fill="#35353d" stroke="#333" stroke-miterlimit="10" stroke-width="5"/><path d="m1909 3534c-32 0-50.61-12.15-89.02-12.15-43.98 0-56.48 12.15-92.98 12.15-28.39 0-65.75-12.1-73.97-43.26-6.73 47.6 40.67 65.26 74.97 65.26 36.5 0 49-12.15 92.98-12.15 38.41 0 57.02 12.15 89.02 12.15 42.86 0 73-34.15 65.91-80.26-2.97 33.46-34.04 58.26-66.91 58.26z" fill="#000" fill-opacity=".4"/><path d="m2090 3556c-32 0-63.09-23.6-66.7-56.14-9.11-82.21 94.35-89.68 150.67-90.92 57.1-1.25 154.03 9.56 171.02 72.27 14.85 54.79-36.49 74.79-72.99 74.79s-49-12.15-92.98-12.15c-38.42 0-57.02 12.15-89.02 12.15z" fill="#35353d" stroke="#333" stroke-miterlimit="10" stroke-width="5"/><path d="m2091 3534c32 0 50.6-12.15 89.02-12.15 43.98 0 56.48 12.15 92.98 12.15 28.39 0 65.75-12.1 73.97-43.26 6.73 47.6-40.67 65.26-74.97 65.26-36.5 0-49-12.15-92.98-12.15-38.42 0-57.02 12.15-89.02 12.15-42.86 0-73-34.15-65.91-80.26 2.97 33.46 34.04 58.26 66.91 58.26z" fill="#000" fill-opacity=".4"/><path d="m2296.31 2941.25h-592.62c-31.91 0-57.78 25.87-57.78 57.78v267.15c0 31.91 25.87 57.78 57.78 57.78h592.62c31.91 0 57.78-25.87 57.78-57.78v-267.15c0-31.91-25.87-57.78-57.78-57.78z" fill="#643ba2" stroke="#333" stroke-miterlimit="10" stroke-width="5.27"/><path d="m2297.18 2941.25h-594.37c-31.43 0-56.9 26.26-56.9 58.66v265.38c0 32.4 25.47 58.66 56.9 58.66h594.37c31.43 0 56.9-26.26 56.9-58.66v-265.38c0-32.4-25.47-58.66-56.9-58.66zm39.25 324.09c0 22.37-17.59 40.51-39.3 40.51h-594.27c-21.7 0-39.3-18.14-39.3-40.51v-265.48c0-22.37 17.6-40.51 39.3-40.51h594.27c21.71 0 39.3 18.14 39.3 40.51z" fill="#000" fill-opacity=".15"/><path d="m2058.27 3045.73v55.47c-.01 15.07 18.43 23.38 29.71 13.38l11.68-9.18c3.58 9.39 5.74 19.26 6.4 29.29 29.3-1.55 29.75 33.21 17.49 52.41-6.96 10.39-17.24 18.11-29.16 21.89-9.45 21.56-49.41 46.87-89.39 48-45.69 1.32-90.29-28.64-97.9-48.64-10.6-3.53-21.25-11.16-27.65-20.8-12.74-19.26-12.48-53.97 17.09-52.57 4.1-50.8 43.92-92.9 86.14-100.26s-28.81-18 3.1-18.4c27.19-.32 52.27 11.68 72.49 29.41zm34.37 43.76-15.06 13.34c-1.33 1.19-3.62.21-3.62-1.63v-73.54c0-11.86 9.91-21.77 21.77-21.77h105.49c11.86 0 21.77 9.91 21.77 21.77v40.28c0 11.86-9.91 21.77-21.77 21.77h-105.49c-1.03 0-2.06-.07-3.09-.22z" fill="#3df291" stroke="#333" stroke-linecap="round" stroke-linejoin="round" stroke-width="5"/><path d="m1601.4 3259.89c56.81.05 92.98-68.11 58.59-115.27 15.91-45.21-18.09-95.39-66.66-96.55-56-1.34-88.37 58.5-82.5 109.13 5.48 47.31 37.52 102.65 90.57 102.69z" fill="#35353d" stroke="#333" stroke-miterlimit="10" stroke-width="5"/><path d="m1510.83 3157.2c6.78 58.57 54.37 126.8 125.37 93.8-68.83-8.8-117-125.5-83.11-191.84-5.39 3.84-13.89 8.34-27.6 27.61-12.29 21.73-17.7 46.2-14.66 70.43z" fill="#000" fill-opacity=".4"/><path d="m2398.6 3259.89c-56.82.05-92.99-68.11-58.59-115.27-15.92-45.21 18.08-95.39 66.66-96.55 56-1.34 88.36 58.5 82.5 109.13-5.48 47.31-37.53 102.65-90.57 102.69z" fill="#35353d" stroke="#333" stroke-miterlimit="10" stroke-width="5"/><path d="m2489.17 3157.2c-6.78 58.57-54.37 126.8-125.37 93.8 68.82-8.8 117-125.5 83.11-191.84 5.39 3.84 13.89 8.34 27.6 27.61 12.29 21.73 17.7 46.2 14.66 70.43z" fill="#000" fill-opacity=".4"/><path d="m3083.19 1832.12c111.1 102 66.32 309.29-9.09 427.16-107.46 168-353.47 273.75-479.46 184.37-131.58-93.35-114.4-386.92 39.2-539.32 114.68-113.78 334.45-177.69 449.35-72.21z" fill="#b32645" stroke="#333" stroke-miterlimit="10" stroke-width="5"/><path d="m3074.1 2259.28c-60.69 94.85-195.1 203.22-346.6 216.72 106.36-25 260.01-133.85 306.64-206.72 75.41-117.87 115.36-338.97 9.09-427.16-32.41-26.89-114.73-65.12-227.73-45.12 138-42.5 222.79-6.13 267.73 35.12 111.06 101.99 66.28 309.29-9.13 427.16z" fill="#000" fill-opacity=".15"/><path d="m916.818 1832.12c-111.1 102-66.32 309.29 9.09 427.16 107.462 168 353.472 273.75 479.462 184.37 131.58-93.35 114.4-386.92-39.2-539.32-114.68-113.78-334.45-177.69-449.352-72.21z" fill="#b32645" stroke="#333" stroke-miterlimit="10" stroke-width="5"/><path d="m925.908 2259.28c60.69 94.85 195.102 203.22 346.602 216.72-106.36-25-260.02-133.85-306.642-206.72-75.41-117.87-115.36-338.97-9.09-427.16 32.409-26.89 114.732-65.12 227.732-45.12-138-42.5-222.792-6.13-267.732 35.12-111.06 101.99-66.28 309.29 9.13 427.16z" fill="#000" fill-opacity=".15"/><path d="m2395 2818c-115.35 45.22-271 79-395 79s-259.34-26.43-395-79c-7.24 10.54-16.61 26.27-23 37 142 57 275 86 418 86s276-29 418-86c-6.15-10.7-15.93-26.36-23-37z" fill="#000" fill-opacity=".15"/><path d="m2000 818.5c-667.5 0-964.68 540.06-966 1028.5-.35 129.73 38.56 280.66 111.58 425.2-126.77 245.51 343.67 628.8 854.42 628.8 510.85 0 981.37-383.43 854.35-628.93 73.11-145.53 111.29-296.89 111.65-425.07 2.03-488.44-298.5-1028.5-966-1028.5z" fill="#b32645"/><path d="m1148.6 2266.67c-135.93 245.26 334.32 633.83 851.4 633.83s993.17-392.85 849.75-637.86c95.36 224.1-359.03 600.36-849.75 600.36-487.79 0-939.69-371.78-851.4-596.33z" fill="#000" fill-opacity=".1"/><path d="m1402 1013c44.5 55 94.35 107 96.27 127.27 6.23 65.77 131 1067.57 131 1177.7-32.08 160.12-96.27 268.03-189.77 430.53" stroke="#871a37" stroke-miterlimit="10" stroke-width="31"/><path clip-rule="evenodd" d="m1814.53 1259.83c72.67 77.17 156.47 430.17 156.47 562.67 0 157.4-252 517-340.5 517-266.5 0-403.5-293-403.5-666 0-114 195-527.44 261.96-555.57 74.04-31.1 261.89 74.28 325.57 141.9z" fill="#871a37" fill-rule="evenodd"/><path d="m1630.5 2295.5c-118 0-359.5-118.27-359.5-622 0-115.5 192.26-497.05 235-515s226.13 78.01 276.5 131.5c58.1 61.7 144.5 416.47 144.5 532.5 0 134.7-236.94 473-296.5 473z" fill="#35353d" stroke="#212126" stroke-width="30"/><path d="m1433.48 1554.75c-39.89 2.36-75 207.06-64.53 251.11s145.56 146.85 247.6 146.85 261.1-66.08 261.1-157.13-394.65-243.77-444.17-240.83z" fill="#24242b"/><path d="m1451.57 1773.15c-22.42 48.2 113.86 95.54 151.31 102 61 10.47 236.15-12.84 240.62-62.67 3.19-35.48-299.5-237.95-391.93-39.33z" fill="#f1eff0"/><path d="m2598 1013c-44.5 55-94.35 107-96.27 127.27-6.23 65.77-131 1067.57-131 1177.7 32.08 160.12 96.27 268.03 189.77 430.53" stroke="#871a37" stroke-miterlimit="10" stroke-width="31"/><path clip-rule="evenodd" d="m2185.47 1259.83c-72.67 77.17-156.47 430.17-156.47 562.67 0 157.4 252 517 340.5 517 266.5 0 403.5-293 403.5-666 0-114-195-527.44-261.96-555.57-74.04-31.1-261.89 74.28-325.57 141.9z" fill="#871a37" fill-rule="evenodd"/><path d="m2369.5 2295.5c118 0 359.5-118.27 359.5-622 0-115.5-192.26-497.05-235-515s-226.13 78.01-276.5 131.5c-58.1 61.7-144.5 416.47-144.5 532.5 0 134.7 236.94 473 296.5 473z" fill="#35353d" stroke="#212126" stroke-width="30"/><path d="m2566.52 1554.75c39.89 2.36 75 207.06 64.53 251.11s-145.56 146.85-247.6 146.85-261.1-66.08-261.1-157.13 394.65-243.77 444.17-240.83z" fill="#24242b"/><path d="m2548.43 1773.15c22.42 48.2-113.86 95.54-151.31 102-61 10.47-236.15-12.84-240.62-62.67-3.19-35.48 299.5-237.95 391.93-39.33z" fill="#f1eff0"/><path d="m2000 818.5c-667.5 0-964.68 540.06-966 1028.5-.35 129.73 38.56 280.66 111.58 425.2-126.77 245.51 343.67 628.8 854.42 628.8 510.85 0 981.37-383.43 854.35-628.93 73.11-145.53 111.29-296.89 111.65-425.07 2.03-488.44-298.5-1028.5-966-1028.5z" stroke="#333" stroke-width="5"/><path d="m1785 2099c0 76.35 98.85 169 216.26 168 108.22-.95 213.74-92.55 213.74-167.78 0-152.13-430-154.42-430-.22z" fill="#000" fill-opacity=".1"/><path d="m1782 2081c0 76.35 100.23 169 219.27 168 109.73-.95 216.73-92.55 216.73-167.78 0-60.53-126.24-113.77-216.73-113-84.02.78-219.27 41.16-219.27 112.78z" fill="#b32645"/><path d="m1783.58 2067.77c41.76 54.75 124.68 100.94 217.85 100.22 86.21-.68 170.92-47.12 214.09-101.55 1.62 4.86 2.48 9.8 2.48 14.78 0 75.23-107 166.83-216.73 167.78-119.04 1-219.27-91.65-219.27-168 0-4.54.54-8.95 1.58-13.23z" fill="#871a37"/></svg>