<svg xmlns="http://www.w3.org/2000/svg" xmlns:xlink="http://www.w3.org/1999/xlink" width="4000" height="4000" fill="none" xmlns:v="https://vecta.io/nano"><style><![CDATA[.B{fill:#000}.C{stroke-width:5}.D{stroke:#333}.E{stroke:#1a2b3a}.F{stroke-miterlimit:10}.G{fill-opacity:.25}.H{fill-opacity:.3}.I{fill:#7f6145}.J{fill-opacity:.1}.K{stroke-width:3}.L{fill-opacity:.15}.M{fill:#f7c394}.N{fill:#363e44}.O{fill-rule:evenodd}.P{fill:#405163}.Q{fill:#3f3f3f}.R{fill-opacity:.5}.S{fill-opacity:.2}.T{fill:#384049}.U{fill:#454f56}.V{fill:#313c51}.W{fill:#9edef6}.X{fill:#667991}]]></style><path d="M2115.1 3290.64c-34.95-5.26-21.7-53.72 7.23-49.5 48.8 7.14 129.85-9.4 150.7-62.03 63.45-160.12 193.23-393.34 368.87-366.2 73.33 11.36 143.6 66.2 159.73 140.6 13.73 63.36-6.02 150.17-73.53 174.43-44.77 16-95.93-2.36-130.84-32.08-10.44-8.68-11.95-25-3.06-35.44 8.8-10.34 25.15-11.64 35.48-2.62.43.36 43.66 36.65 81.5 23.06 42.84-15.38 49.77-78.95 41.56-116.78-11.75-54.23-65.6-93.57-118.5-101.77-142.57-22-262.04 213.6-305.24 328.2-34.94 92.68-134.42 112.1-213.9 100.14z" class="C D F I"/><path d="M2786.65 2965.53c11.06 51.02 1.18 114.55-37.82 152.08 51.4-33.7 65.07-107.56 52.82-164.08-16.13-74.4-86.4-129.24-159.73-140.6-66.26-10.23-128.92 12.57-182.42 59.57 114.12-80.75 294.17-59.1 327.15 93.03zm-69.03 112.53c-27.03 31.45-75.6 15.26-102.9-8.23-3.14-2.68-6.9-4.54-10.94-5.4a25.037 25.037 0 0 0-12.19.41c3.97-7.3 11.63-12.23 19.93-12.9 6.6-.53 13.15 1.6 18.2 5.9 22.07 19.5 59.84 35.17 87.9 20.24z" class="B S"/><path d="M1587 3147c36.5 0 65.66-32.58 62.04-68.42-5.42-63.52 18.62-132.2 65.95-198.4 43.06-60.24 89.2-93.25 53.7-132.2s-115.56 3.92-155.4 59.5c-65.7 91.92-97.2 189.1-88.63 283.68 3.2 31.47 25.83 55.82 62.33 55.82z" class="C D F I"/><path d="M1553.1 3059.16c-.42-112.27 89.6-277.66 195.1-324.16-130-21-245 233.5-222.7 351.77 7.2-11.77 19.7-23.27 27.6-27.6z" class="B L"/><path d="M1959.37 3446.5c5-87.08 27.4-154.43 47.17-206.8s42.42-144.7-42.56-166.02c-121.5-30.5-188.3 254.12-193.3 340.94-2.93 51.08 36.82 110.33 88.4 113.3 47.48 2.3 97.45-31.8 100.3-81.4z" class="C D F I"/><path d="M1769.48 3414.5c51.5-7 148-7 188.5 34l1.66-15.04c-42.16-36.96-138.16-39.46-188.02-32.46-.26 3.3-1.86 10.13-2.14 13.5zm16-89.5c47.76 44.3 108.88 69.13 178 78.5.58-5 1.8-12.18 2.5-17-68.6-8.88-128.2-37.6-176-81-2 6-3.62 15.27-4.5 19.5z" class="B L"/><path d="M2040.63 3446.5c-5-87.08-27.4-154.43-47.17-206.8s-42.42-144.7 42.56-166.02c121.5-30.5 188.3 254.12 193.3 340.94 2.93 51.08-36.82 110.33-88.4 113.3-47.48 2.3-97.45-31.8-100.3-81.4z" class="C D F I"/><path d="M2230.52 3414.5c-51.5-7-148-7-188.5 34l-1.66-15.04c42.16-36.96 138.16-39.46 188.02-32.46.26 3.3 1.86 10.13 2.14 13.5zm-16-89.5c-47.76 44.3-108.88 69.13-178 78.5-.58-5-1.8-12.18-2.5-17 68.6-8.88 128.2-37.6 176-81 2 6 3.62 15.27 4.5 19.5z" class="B L"/><path d="M2413 3147c-36.5 0-65.66-32.58-62.04-68.42 5.42-63.52-18.62-132.2-65.95-198.4-43.06-60.24-89.2-93.25-53.7-132.2s115.56 3.92 155.4 59.5c65.7 91.92 97.2 189.1 88.63 283.68-3.2 31.47-25.83 55.82-62.33 55.82z" class="C D F I"/><path d="M2446.9 3059.16c.42-112.27-89.6-277.66-195.1-324.16 130-21 245 233.5 222.7 351.77-7.2-11.77-19.7-23.27-27.6-27.6z" class="B L"/><path d="M2000 2548c154 0 220 135 260 246s58 220 58 292c0 152-138.68 305.46-318 307-175.53 1.5-318-155-318-307 0-72 17.7-181.5 58-292 40-111 106-246 260-246z" class="C D F I"/><path d="M2000 3393c-175.67 1.6-330-157-318-337 10 148 145.15 288.48 318 287s308-139 318-287c12 180-142.33 335.4-318 337z" class="B L"/><path d="M2000 2672c104 0 160 68 174 128 34.5 147.82 64 274 4 350s-134.95 82-178 82c-47.55 0-118-6-178-82s-32.44-193.83 4-350c14-60 70-128 174-128z" class="C D F M"/><g class="B"><path d="M2000 3232c-136 0-224-94-213-216 4 115 96 190 213 190s209-75 213-190c11 122-77 216-213 216z" class="J"/><path d="M1673.08 2952.6c-38.6-25.26-75.6-44.63-109.87-60.44 173.8-368.93 695-378.8 873.5-.13-34.27 15.75-71.3 35.05-109.94 60.25-10.04-22.6-23-45.26-38.62-67.64 7.4 28.2 13.37 55.6 17.96 81.58-58.35 40.72-109.9 95.42-171 171.86 0 0-7-79-12.67-194.78-74.52 10.87-171.6 10.3-246.28 1.34-5.66 114.8-12.6 193-12.6 193-60.72-75.95-111.88-130.45-169.9-171.1 4.55-25.95 10.47-53.33 17.86-81.48-15.56 22.35-28.46 44.95-38.46 67.53z" class="S"/></g><path d="M1461.5 2122c0 458 38 779 538.5 779s538.5-404.5 538.5-779h-1077z" fill="#ffcd98" class="C D"/><path d="M1461.72 2122c3.7 427.95 58.44 723 538.28 723 475.63 0 533.58-365.3 538.17-723h.33c0 374.5-38 779-538.5 779s-538.5-321-538.5-779h.22z" class="B J"/><path d="M1910 3556c32 0 63.1-23.6 66.7-56.14 9.1-82.2-94.35-89.68-150.67-90.92-57.1-1.25-154.03 9.56-171.02 72.27-14.85 54.8 36.5 74.8 73 74.8s49-12.15 92.98-12.15c38.4 0 57.02 12.15 89.02 12.15z" class="C D F M"/><path d="M1909 3534c-32 0-50.6-12.15-89.02-12.15-43.98 0-56.48 12.15-92.98 12.15-28.4 0-65.75-12.1-73.97-43.26-6.73 47.6 40.67 65.26 74.97 65.26 36.5 0 49-12.15 92.98-12.15 38.4 0 57.02 12.15 89.02 12.15 42.86 0 73-34.15 65.9-80.26-2.97 33.46-34.04 58.26-66.9 58.26z" class="B J"/><path d="M2090 3556c-32 0-63.1-23.6-66.7-56.14-9.1-82.2 94.35-89.68 150.67-90.92 57.1-1.25 154.03 9.56 171.02 72.27 14.85 54.8-36.5 74.8-73 74.8s-49-12.15-92.98-12.15c-38.42 0-57.02 12.15-89.02 12.15z" class="C D F M"/><g class="B"><path d="M2091 3534c32 0 50.6-12.15 89.02-12.15 43.98 0 56.48 12.15 92.98 12.15 28.4 0 65.75-12.1 73.97-43.26 6.73 47.6-40.67 65.26-74.97 65.26-36.5 0-49-12.15-92.98-12.15-38.42 0-57.02 12.15-89.02 12.15-42.86 0-73-34.15-65.9-80.26 2.97 33.46 34.04 58.26 66.9 58.26z" class="J"/><path d="M2311.83 3142.12C2122.5 3163 1880 3183.5 1752.2 3193.45c14.3 36.6 26.6 79.5 37.24 117.18 15.73 14.1 32.85 26.84 51.1 37.84 6.48-4 13.02-7.88 19.6-11.64-.73 6.85-1.83 14-3.2 20.87 14.18 7.46 28.96 13.88 44.26 19.13 6.46-16.06 14.86-27.4 21.5-40.13-5.94-9.95-3.55-21.9.87-32.16 17.6-8 35.36-15.38 53.2-22.27 1.15 23.95-11.08 53.2-15.46 61.28 48.6-6.62 174.18-65.07 181.26 2.65 8-1.23 18.95-3.94 31.22-7.12 70.66-47.03 121.14-119.67 138.02-196.96zm-419.67 272.68c-15.57-2.9-31.45-4.34-45.86-5.1 5.9 25.46 18.35 57.8 47.56 67.35-3.17-25.77-3.38-45.9-1.7-62.24z" class="G"/></g><path d="M2398.6 3259.9c-56.82.05-93-68.1-58.6-115.27-15.92-45.2 18.08-95.4 66.66-96.55 56-1.34 88.36 58.5 82.5 109.13-5.48 47.3-37.52 102.65-90.57 102.7z" class="C D F M"/><path d="M2489.17 3157.2c-6.78 58.57-54.37 126.8-125.37 93.8 68.82-8.8 117-125.5 83.1-191.84 5.4 3.84 13.9 8.34 27.6 27.6 12.3 21.73 17.7 46.2 14.66 70.43z" class="B J"/><path d="M2301.68 2535l1.57-16c-201.93 10.22-404.66 10.32-606.6.32l1.57 16.06c200.9 9.9 402.6 9.77 603.47-.38zm-15.76 106.36c.9-4.57 1.78-13.17 2.64-17.78-188.66 46.66-387.5 48.2-576.43 1.8l-.53-.12c.86 4.6 1.74 13.17 2.65 17.72 185.74 43.63 386.27 43.22 571.67-1.63zm22.68-241.76l-.1-17.6c-205.25 15.08-411.56 15.28-616.83.48l-.08 17.6c205.54 14.7 411.47 14.54 617-.5z" fill="#3d0c0c"/><path d="M2303.25 2519c3.62-39.9 5.24-79.94 5.24-120-205.56 10.6-411.52 10.7-617.1.35 0 40.03 1.63 80.05 5.26 119.92 201.94 10.04 404.66 9.94 606.6-.27zm-306.65 142.4c91.85.1 196.5-10.4 292.1-35.67 5.38-29.26 9.7-59.5 13-90.7-200.88 10.12-402.56 10.24-603.47.34 3.17 30.4 7.38 64.9 12.6 93.56 111.25 24.07 192.13 32.7 285.75 32.47z" fill="#fff"/><path d="M1753.44 2088c0 87.55 113.36 193.8 248 192.66 124.1-1.1 245.12-106.14 245.12-192.4 0-174.46-493.12-177.1-493.12-.25z" class="B J"/><path d="M1750 2067.34c0 87.56 114.94 193.8 251.46 192.66 125.84-1.08 248.54-106.13 248.54-192.4 0-69.42-144.77-200.47-248.54-199.6-96.36.9-251.46 117.2-251.46 199.33z" class="I"/><g class="B"><path d="M1751.8 2052.17c47.9 62.8 142.98 115.76 249.83 114.94 98.86-.8 196-54.04 245.52-116.46 1.86 5.57 2.84 11.23 2.84 16.95 0 86.27-122.7 191.32-248.54 192.4-136.52 1.15-251.46-105.1-251.46-192.66 0-5.2.62-10.25 1.8-15.17z" class="S"/><path d="M1970 1852.87c75 81 146.32 206.64 156 254-88.8 294.65-28 971-28 971 33.4-41.78 72.94-79.54 113.5-112.7 0-532.3 130.68-1283.67-241.5-1112.3z" class="H"/><path d="M2030 1852.87c-75 81-146.32 206.64-156 254 88.8 294.65 28 971 28 971-33.4-41.78-72.94-79.54-113.5-112.7 0-532.3-130.68-1283.67 241.5-1112.3z" class="H"/></g><path d="M2088.2 272.54c-17.7 12.34-42.07 32.67-56.46 87.12-39.36 148.936 36.25 313.84-11.6 460.654-10.14-28.814-30.7-29.16-41.46-2.886C1931.5 667 1999.25 507.723 1956.16 360.1c-15.84-54.28-40.73-74.32-58.77-86.46 40.87 179.806-53 336.395-48.37 513.92 1.6 60.7 8.45 109.7 34.22 147.42-6.17 23.092-16.48 45.962-16.67 51.1-.15 4.348 4 8.7 10.76 13.2 12.06 118.85 4.1 242.57-26.33 353.23-113.3-132.2-22-420-101.73-575.02-19.06 161.992-46.77 344.52-121.98 517.3-78.8-78.28-54.27-200.82-37.8-298.32 8.7-51.522 54.56-576.38 35.52-579.88-11-2.023-64 161.42-104.3 181.6-22.15 11.094.25 17.427 11.1 23.63 63.2 36.2-111.02 337.427-141.9 409.83-64.3 151.2-80.24 311.44-82.16 474.58-.03 2.85-.16 34.97 12.14 37.85 19.43 4.55 38.6-63.1 85.86-67.47 83.3-7.72 51.84 91.17 31.1 133.47-18.7 38.14-123.87 148.43-110.17 177.02 6.45 13.47 63.8-5.1 84.96-7.7 5.24 79.82-26.1 125.87-135.66 91.42 36.25 64.1 91.75 119.6 131.78 154.78-2.2 22.13-7.14 45.2-14.64 65.66-20.37-13.65-34.03-25.4-36.97-32.9-21.95 52.42-34 118.74 22.98 151.44 3.6 26.6 5.4 56 4.6 80.57-19.24-11.4-33.15-20.83-39-26.53-24.94 59.57-4.33 111.56 52.58 138.88 9.12 26.88 17.8 57.93 20.65 84.73-18.7-9.9-32.15-17.96-37.5-22.43-24.22 57.84-22.48 102.93 38.7 126 9.9 30.1 20.03 60.2 27.4 91.04-17.03-10.18-29.8-18.73-35.98-23.94-38.12 97.3 16.34 125.7 72.13 148.18 99.97 40.3 236.47 103.3 370.85 271.38 0 0 59.9-675.83-28.88-970.48 5.8-28.38 43.43-105.32 82.5-167.7 3.8 2.57 5.73 1.46 12.1-2.83 19.47-13.14 147.47-17.5 170.23-1.27.27.2.54.4.8.57 39.94 63.04 79.07 142.68 85 171.67-88.8 294.65-28.88 970.48-28.88 970.48C2280.8 2910 2417.3 2847 2517.27 2806.7c55.8-22.48 110.25-50.9 72.13-148.18-6.2 5.22-19 13.8-36.1 24 7.34-30.87 17.44-60.93 27.35-91.05 72.86-29.5 63.16-68.08 38.88-126.05-5.34 4.47-18.8 12.55-37.54 22.45 2.8-26.72 11.42-57.75 20.52-84.67 63-27.22 77.74-79.3 52.76-138.96-5.86 5.7-19.76 15.12-39 26.52-.85-24.5.95-53.9 4.52-80.53 59.2-33.75 45-99 23.04-151.47-5.33 7.72-16.55 19.2-36.84 32.8-7.53-20.43-12.5-43.48-14.73-65.6 40.03-35.2 95.5-90.66 131.74-154.74-114.06 35.86-143.35-15.52-134.83-101.43 18.7 2.64 81.18 19.2 89.87 7.1 14.3-19.93-56.47-63.85-113.74-175.3-21.47-41.73-55.17-140.42 28.4-133.96 47.5 3.68 68.9 70.75 87.2 66.16 12.2-3.07 11.42-35.16 11.33-37.95-6-189.88-29.23-368.35-126.5-541.54-63.98-113.926-166.15-315.485-115.23-339.49 14.14-6.657 31.86-13.875 10.58-23.8C2416 570 2366 408.512 2353.2 411.04c-18.34 3.624 37.43 528.002 47.13 579.24 18.25 96.44 45 218.58-28.72 295.74-75.3-161.8-97.64-331.69-120.9-508.54C2163 992.03 2272.6 1197.53 2146 1356c-29.1-111.57-33.5-237.4-22.98-358.065 7.15-4.8 11.56-9.387 11.28-13.905-.3-4.867-9.95-25.48-16.6-47.17 26.63-38.465 32.53-88.61 32.47-151.08 0-177.74-98.17-332.306-61.96-513.24z" stroke-width="10" class="D"/><path d="M2549.3 2744c-104.1 68-193.9 45.7-379.76 109-19.32 6.6 136.15-520.5 61.57-820 79.9 29 234.4-24.5 364.87-76.05-14.13 48.18 1.52 148.84 42.03 185.4-19.8 34.32-31.84 174.3-11.15 198.8-11.96 25.42-72.83 172.48-31.76 204.56-14.32 51.3-59.86 165.4-45.8 198.3z" class="N"/><path d="M2267.24 2563c-33.44-82 260.56-116 346.2-165.5 38-21.97 72.77-59.35 41.83-133.24-35.74 34.74-370.15 207.74-389.16 125.37-16.3-70.63 290.78-133.58 365.26-186.04 35.9-25.28 43.4-70.93 12.47-144.8-15.53 39.72-331.37 197.7-350.95 132.46s231.92-134.24 265.27-136.87c34.22-26.88 117.3-97.27 165.85-183.13-131.64 41.38-150.35-33.42-128.38-143.4-109.82-16.95-574 125.35-574 125.35 45.68 24.47 144 207.06 153.68 254.42-88.8 294.65-28.88 970.48-28.88 970.48C2280.8 2910 2417.3 2847 2517.27 2806.7c55.8-22.5 110.25-50.9 72.13-148.18-37.46 31.6-318.1 186.47-318.1 79.97 0-68 297.17-132.64 333.04-157.92s46.12-41.25 15.18-115.14c-30.4 25.45-323.73 167.56-352.28 97.56z" fill="#31383f"/><path d="M2264.3 2547.5c5.5-46.5 118.86-76.7 207.7-101.58 57.3-16.04 111.83-31.3 141.44-48.42 30.03-17.36 58.04-44.34 53.2-91.36-5.98 30.9-28.46 50.64-52.2 64.36-29.6 17.12-84.14 32.38-141.44 48.42-108.3 30.32-223.7 57.58-208.7 128.58zm1-163c3-48.5 124.9-86.53 216.05-118.52 63.07-22.14 122.46-42.98 150-62.4 22.85-16.1 34.2-40.44 31.45-75.07-3.6 20.76-14.08 36.54-30.45 48.07-27.55 19.4-86.94 40.25-150 62.4-37.54 13.17-233.55 58.52-217.05 145.52zm27-205c4-57.5 236.3-122.8 265.85-125.13 34.22-26.88 117.3-97.27 165.85-183.13-6.75 2.12-13.2 3.94-19.38 5.46-48.83 70.87-115.67 127.27-145.47 150.67-42.44 3.35-285.85 65.13-266.85 152.13zm-254.5-331c-6.5 1.5-16.18 4.7-16.18 4.7 49.18 28.8 145.38 212.3 153.68 254.3 2.5-6.5 3.5-11.5 4.5-15-8.27-40.47-92.43-189.08-142-244zm109.62 1202.6c134.38-168.1 270.88-231.1 370.85-271.4 38.03-15.32 75.43-33.4 83.33-74.16 5.87 60.5-38.78 82.8-84.33 101.16-99.97 40.3-236.47 103.3-370.85 271.38-1.12-13.1-1.62-23.72 1-27zM2270.8 2742c-3.5-52 150.63-98.5 241.3-127.57 44.8-14.36 81.1-26 92.24-33.85 24.9-17.54 37.45-30.6 32.46-61.65-4.34 13.76-15.3 23.26-31.46 34.65-11.14 7.85-47.45 19.5-92.25 33.85-51.48 16.5-269.3 57.57-242.3 154.57z" class="B H"/><path d="M1450.7 2744c104.1 68 193.9 45.7 379.76 109 19.32 6.6-136.15-520.5-61.57-820-79.9 29-234.4-24.5-364.87-76.05 14.13 48.18-1.52 148.84-42.03 185.4 19.8 34.32 31.84 174.3 11.15 198.8 11.96 25.42 72.83 172.48 31.76 204.56 14.32 51.3 59.86 165.4 45.8 198.3z" class="N"/><path d="M1732.76 2562.56c33.44-82-260.56-116-346.2-165.5-38-21.96-72.77-59.35-41.83-133.24 35.74 34.74 370.15 207.74 389.16 125.37 16.3-70.63-290.78-133.57-365.26-186.04-35.9-25.28-43.4-70.93-12.47-144.8 15.53 39.72 331.37 197.7 350.95 132.46s-231.92-134.24-265.27-136.87c-34.22-26.88-117.3-97.27-165.85-183.13 131.64 41.4 150.36-33.42 128.38-143.4 109.82-16.95 574 125.35 574 125.35-45.68 24.47-144 207.06-153.68 254.42 88.8 294.65 28.88 970.48 28.88 970.48-134.38-168.1-270.88-231.1-370.85-271.38-55.8-22.48-110.25-50.9-72.13-148.18 37.47 31.6 318.1 186.47 318.1 79.97 0-68-297.17-132.64-333.04-157.92s-46.12-41.25-15.18-115.14c30.4 25.45 323.73 167.56 352.28 97.56z" fill="#31383f"/><path d="M1735.7 2547c-5.5-46.5-118.86-76.7-207.7-101.58-57.3-16.04-111.83-31.3-141.44-48.42-30.03-17.36-58.04-44.34-53.2-91.36 5.98 30.9 28.46 50.64 52.2 64.36 29.6 17.12 84.14 32.38 141.44 48.42 108.3 30.32 223.7 57.58 208.7 128.58zm-1-163c-3-48.5-124.9-86.53-216.05-118.52-63.07-22.14-122.46-42.98-150-62.4-22.85-16.1-34.2-40.44-31.45-75.07 3.6 20.76 14.08 36.54 30.45 48.07 27.55 19.4 86.94 40.25 150 62.4 37.54 13.17 233.55 58.52 217.05 145.52zm-27-205c-4-57.5-236.3-122.8-265.85-125.13-34.22-26.88-117.3-97.27-165.85-183.13 6.75 2.12 13.2 3.94 19.38 5.46 48.83 70.87 115.67 127.27 145.47 150.67 42.44 3.35 285.85 65.13 266.85 152.13zm254.5-331c6.5 1.5 16.18 4.7 16.18 4.7-42.46 22.74-143.18 203.3-153.68 254.3-2.5-6.5-3.5-11.5-4.5-15 8.27-40.47 92.43-189.08 142-244zm-109.62 1202.6c-134.38-168.1-270.88-231.1-370.85-271.38-38.03-15.32-75.43-33.4-83.33-74.16-5.87 60.5 38.78 82.8 84.33 101.16 99.97 40.3 236.47 103.3 370.85 271.38 1.12-13.1 1.62-23.72-1-27zm-123.38-309.1c3.5-52-150.63-98.5-241.3-127.57-44.8-14.36-81.1-26-92.25-33.85-24.9-17.54-37.45-30.6-32.46-61.65 4.34 13.76 15.3 23.26 31.46 34.65 11.14 7.85 47.45 19.5 92.25 33.85 51.48 16.5 269.3 57.57 242.3 154.57z" class="B H"/><path d="M2479.15 1708c-2.46 36.44 11.06 171.5 54.06 221.87-52.83 40.73-229.75 101.82-267.84 97.53s-135.15-120-136.37-171.5c0 0 260.5-147.23 350.15-147.9z" fill="#52bacc"/><path d="M2457 1737.83c-1.8 26.56 17 126.5 42.5 167.5-38.7 29.7-213.6 88.63-241.5 85.5s-106.6-91.96-107.5-129.5c0 0 240.84-123 306.5-123.5z" fill="#5fd3f8"/><path d="M1520.85 1708c2.46 36.44-11.06 171.5-54.06 221.87 52.83 40.73 229.75 101.82 267.84 97.53s135.15-120 136.37-171.5c0 0-260.5-147.23-350.15-147.9z" fill="#52bacc"/><path d="M1543 1737.83c1.8 26.56-17 126.5-42.5 167.5 38.7 29.7 213.6 88.63 241.5 85.5s106.6-91.96 107.5-129.5c0 0-240.84-123-306.5-123.5z" fill="#5fd3f8"/><path d="M2065.14 1909.54c16.4 33.82 70.15 161.15 81.66 185.1-9.74 27-42.52 31.7-54.93 32.46-36.9-20.74-71.3-32.46-85.48-41 0-27.1-4.66-173.92-1-182.42s59.75 5.85 59.75 5.85zm-133.94 1.02c-15.73 34.06-66.92 162.2-78 186.33 10.28 26.9 43.15 31 55.57 31.62 35.8-21 70.64-33.6 84.65-42.32 0-29.2 1.18-174-2.65-182.4s-59.57 6.78-59.57 6.78zm145.08 221.34c-3.55-4.12-68.28-34.25-75.17-34.25-8 .06-72.1 30.3-75.58 34.48-.07 2.08 25.17 21 76.88 21 57.2-.02 73.98-19.13 73.87-21.23z" fill="#2c3744" class="C D"/><path d="M1994.5 2087.5c-14 8.73-49.88 20-85.68 41-12.42-.6-45.3-4.73-55.57-31.63 9.23-20.2 46.63-113.3 67.78-163.07 1.3-.65 2.88-1.37 4.76-2.17a32.379 32.379 0 0 1 5.87-1.64l-61.75 148.78c10.28 26.9 43.16 31 55.57 31.63 25.55-15 49.7-24.4 68.22-32.47.2 3.95.48 7.2.8 9.56zm10.36-1.45c14.16 8.48 50.74 20.48 86.9 40.87 12.4-.8 45.2-5.52 55-32.6-9.6-20-50.18-115-72.2-164.4-1.3-.63-7.4-1.4-10.05-1.88l65.27 148.5c-9.8 27.07-42.6 31.78-55 32.6-25.8-14.56-50.64-24.9-69.3-32.63-.14 3.92-.37 7.17-.64 9.55zm72.18 45.47c.1 2.08-17.44 21.58-74.64 21.58-51.7 0-77.47-19.47-77.4-21.58 1.08-1.3 8.9-5.36 19.35-10.32 21.2 8.23 35.3 11 58.05 10.88 30.25 0 41.32-5.73 55.6-11.08 10.35 5.12 17.95 9.25 19.04 10.52z" class="B H"/><path d="M2680.9 1533.8c-18.3 4.6-39.7-62.48-87.2-66.16-83.57-6.46-49.87 92.23-28.4 133.96 57.27 111.46 128.05 155.38 113.74 175.3-11.6 16.17-60-10.2-146-11.58-142.43-2.3-320.22 72.9-426.08 168.2-8.3 7.5-8.87 7.96-17.45 1.84-22.76-16.23-150.76-11.87-170.23 1.27-8.74 5.9-9.1 5.8-17.48-1.63-111.65-96.25-281.32-166.35-429.4-161.73-85.94 2.7-133.8 29.8-145.7 13.8-15.82-21.24 99.5-155.24 110.17-177.02 20.73-42.3 52.18-141.2-31.1-133.47-47.43 4.4-67.47 71.78-85.86 67.47-12.3-2.88-12.17-35-12.14-37.85 1.92-163.14 17.86-323.37 82.16-474.58 29.6-69.416 206.76-380.5 141.9-409.83-14.25-6.417-31.56-12.234-11.1-23.63 22.42-12.3 37.3-43.28 63-98.73 33.23-71.77 37.76-83.52 41.3-82.87 19.04 3.5-26.83 528.358-35.52 579.88-18.35 108.63-46.36 248.93 66.02 320.38 196.87 125.16 490.25 123.35 685.23-5.23 111.1-73.22 80.03-213.38 59.6-321.33-9.7-51.238-65.47-575.616-47.13-579.24 3.52-.7 8.3 11 42.93 82.22 26.78 55.05 42.28 85.8 64.94 97.76 20.76 10.976 3.56 17.142-10.58 23.8-64.08 30.2 119.18 338.934 150.1 407.75 67.24 150.06 86.5 310.06 91.64 473.28.1 2.8.86 34.88-11.33 37.95z" class="T"/><path d="M1629.56 465.448c.26-29.855-1.04-48.223-4.55-48.868-3.53-.65-8.06 11.1-41.3 82.87-25.7 55.45-40.58 86.43-63 98.73-20.47 11.397-3.16 17.213 11.1 23.63 51.53 23.298-49.67 224.393-108.3 340.905-85.68 170.245-111 311.785-115.75 543.505-.06 2.85-.16 34.97 12.14 37.85 7.57 1.78 15.43-8.62 25.36-21.76 14.2-18.76 32.6-43.12 60.5-45.7 79.2-7.34 54.66 81.7 34.23 126.83 46.62-81.87 89.86-180.16 14.5-183.93-47.57-2.38-76.1 30.8-94.5 26.5-28.5-18 11.76-315.94 98.76-476.5 51.74-95.5 145.74-333.362 105.05-351.7-14.25-6.417-29.85-9.592-11.1-23.63 24.28-18.18 57.8-87.397 76.84-128.732zM2593.7 1467.64c27.93 2.16 46.84 26.25 61.4 44.8 10.2 13 18.26 23.26 25.8 21.37 12.2-3.07 11.42-35.16 11.33-37.95-6-189.88-30.73-367.35-126.5-541.54-62.95-114.5-166.15-315.485-115.23-339.5 14.14-6.658 31.4-12.962 10.58-23.8-20.72-10.778-40.35-47.326-58.58-84.02-24.08-48.487-44.46-97.975-49.3-95.96-3.2 1.335-4.26 19.284-3.32 49.48 20.15 42.067 59.85 109.34 83 126.66 18.75 14.038 3.15 17.214-11.1 23.63-40.7 18.328 60.3 258.2 112.05 353.7 87 160.56 137.25 458.5 108.75 476.5-18.4 4.3-46.93-28.88-94.5-26.5-75.35 3.77-32.1 102.06 14.5 183.93-23.1-50.93-47.6-136.87 31.1-130.8zm62.88 264.94c-23.95-2.8-65.05-15.3-123.54-16.25-142.43-2.3-320.22 72.9-426.08 168.2-8.3 7.5-8.87 7.96-17.45 1.84-22.76-16.23-150.76-11.87-170.23 1.27-8.74 5.9-9.1 5.8-17.48-1.63-111.65-96.25-281.32-166.36-429.4-161.73-65.03 2.05-108.24 18.05-130.6 18.8-12.7 20.84-19.9 37.58-15.12 44 11.92 16 59.77-11.1 145.7-13.8 148.07-4.62 317.74 65.48 429.4 161.73 8.38 7.42 8.74 7.52 17.48 1.63 19.47-13.14 147.47-17.5 170.23-1.27 8.58 6.12 9.15 5.66 17.45-1.84 105.86-95.3 283.65-170.5 426.08-168.2 86 1.4 134.4 27.75 146 11.58 6.33-8.82-4-22.34-22.46-44.33z" class="B G"/><path d="M1539 1664.14c102.38-82.22 175.08-168.22 124.54-216.88s-98 57.1-110.34 77c0-176.26 135.8-195.76 196.07-746.78 89.23 208.52-32.77 462.52 132.57 607.1-.04.06-112.84 239.96-342.84 279.56z" class="P"/><path d="M1663.54 1447.26c50.54 48.66-22.16 134.66-124.54 216.88 14.35-2.47 28.24-5.72 41.68-9.64 94.9-80.6 144.48-178.93 73.82-214.5 5.5 4 7.3 5.58 9.04 7.26zm-74.9 19.38c24.65-124.53 126.92-196.72 182.5-621.38-5.3-22.982-12.4-45.637-21.88-67.78C1689 1328.5 1553.2 1348 1553.2 1524.26c5.6-9.03 18.4-35.7 35.45-57.62z" class="B H"/><path d="M2461 1664.14c-102.38-82.22-175.08-168.22-124.54-216.88s98 57.1 110.34 77c0-176.26-135.8-195.76-196.07-746.78-89.23 208.52 32.77 462.52-132.57 607.1.04.06 112.84 239.96 342.84 279.56z" class="P"/><path d="M2336.46 1447.26c-50.54 48.66 22.16 134.66 124.54 216.88-14.35-2.47-28.24-5.72-41.68-9.64-94.9-80.6-144.48-178.93-73.82-214.5-5.5 4-7.3 5.58-9.04 7.26zm74.9 19.38c-24.65-124.53-126.92-196.72-182.5-621.38 5.3-22.982 12.4-45.637 21.88-67.78C2311 1328.5 2446.8 1348 2446.8 1524.26c-5.6-9.03-18.4-35.7-35.45-57.62z" class="B H"/><path d="M2338 1666.1c-207.98-181.1-239.42-440.32-212-698.92-89 62.53-210.72 28.73-252 2.86 32.5 257.24-18.5 513.46-212 701.2 410.72-246.95 255.3-201.74 676-5.15z" class="T"/><path d="M1876.1 987.68c1.6 14.47 2.95 28.93 4.02 43.37 4.68 2.86 10.3 5.8 16.45 8.84 17.18 8.5 83.17 246.55 98.22 250.93 0 0 11.45 4.4 16.77-.13 26.63-28.7 76.17-243.64 93.2-252.4 5.9-3.03 11.3-5.95 15.83-8.8l3.55-43.864c-2.96-7.966-246.12-3.447-248.04 2.033z" class="B G"/><path d="M2088.2 272.54c-17.7 12.34-42.07 32.67-56.46 87.12-37.48 141.842 25.22 289.833-2.2 429.8a153.098 153.098 0 0 1-29 64.43c-15.04-18.71-25.56-40.645-30.73-64.1-31.1-139.232 27.46-288.836-13.65-429.7-15.84-54.28-40.73-74.32-58.77-86.46 40.87 179.806-53 336.395-48.37 513.92 2 76.78 12.45 134.83 58.9 175 33.7 29.16 73.64-34.2 93.07-71.26 20.4 36.82 62 99.73 94.94 70.2 45.37-40.74 54.3-98.9 54.24-175.7 0-177.74-98.17-332.306-61.96-513.24z" class="T"/><path d="M2150.2 785.83c.07 76.78-8.87 134.95-54.25 175.68-32.9 29.55-74.53-33.36-95-70.18-19.42 37-59.37 100.42-93 71.26-46.46-40.2-56.94-98.26-58.92-175-4.64-177.515 89.2-334.132 48.33-513.92 8.4 5.496 16.17 11.934 23.1 19.2 30.02 227.64-48.5 296.256-44.95 448.86 1.62 71.2 10.3 125 48.8 162.3 36.17 35.044 76.23-50.1 76.23-50.1s41.46 87.336 79.48 49.1c37.58-37.76 45-91.7 44.92-162.9 0-154.47-90.45-246.62-55.03-452.56 5.67-5.52 11.8-10.54 18.32-15-36.2 180.897 61.74 335.544 61.97 513.27z" class="B G"/><path d="M2111.56 901.22c1.4-28.5-66.92-46.7-80.3-61s-12.66-41.63-32.73-41.32c-20.08 0-18.82 27.36-31.9 41.8s-81 33.7-79 62.17-20.8 75.53-21.06 83.2 12.82 15.33 30 23.82 83.17 246.55 98.22 250.93c0 0 11.45 4.4 16.77-.13 26.63-28.7 76.17-243.64 93.2-252.4s30-16.6 29.54-24.27-24.14-54.33-22.74-82.8z" class="P"/><path d="M2023.82 973.7c.85 16.3 48 7.35 60.1-3s10.87-45.88 8.07-53.2-69.1 38.28-68.18 56.2zm-45.28.3c-.53 16.3-47.86 8.08-60.17-2.1s-11.78-45.7-9.13-53.08 69.87 37.28 69.3 55.17zm21.96 102.93c11.22-.1 13.4-1.73 15.3-4s-11-60.27-15.3-64.88c-4.63 4.32-12.23 62-10.25 65.17s5.3 3.78 10.25 3.7z" fill="#161922"/><g class="B"><path d="M2104.74 1008.35c-17 8.74-66.57 223.68-93.2 252.37-5.32 4.54-16.76.14-16.76.14-15.06-4.4-81-242.44-98.24-250.93s-30.3-16.16-30-23.82c.1-2.9 3.46-11.48 7.45-22.57 5.43 4.1 13.3 8.3 22.3 12.75 17.2 8.5 83.18 246.55 98.23 250.93 0 0 11.45 4.4 16.77-.12 26.63-28.7 76.17-243.65 93.2-252.4 8.86-4.55 16.6-8.87 22-13 4.22 11 7.72 19.5 7.9 22.4.34 7.62-12.6 15.48-29.63 24.24z" class="H"/><path d="M2295.93 1713.33c0 11.44-50 26.36-111.6 48.5-48.5 17.32-97.9 36.74-142.7 62.33-22.13 12.52-29.47 19.1-37.67 19.77-2.13.43-4.3.68-6.47.75-8.2-.56-15.76-7.06-38-19.2-45.04-24.47-94-42.93-142.35-59.7-62.8-21.46-114.08-35.67-114.08-47.26 0-47 592.87-35 592.87-5.18z" class="L"/></g><path d="M2295.93 1700.33c2.27 11.2-50 26.36-111.6 48.5-48.5 17.32-97.9 36.74-142.7 62.33-22.13 12.52-29.47 19.1-37.67 19.77-2.13.43-4.3.68-6.47.75-8.2-.56-15.76-7.06-38-19.2-45.04-24.47-94-42.93-142.35-59.7-62.8-21.46-114.08-35.67-114.08-47.26 0-14.5 46.97-24 135.34-108.65 60.23-57.7 116.82-130.86 143.23-209.77 13.06-41 13.66-65.16 18.6-65.2 6.6-.06 12.47 32.25 23.38 61.53 30.23 80.2 71.43 153.24 134.66 210.34 86.22 77.85 135.38 95.36 137.65 106.57z" class="P"/><path d="M2183.2 1748.83l-1.72.6c-23.45 8.4-48.3 17.9-72 28.57-43.5 19.58-64.22 30.4-69 33.14-22.12 12.52-29.47 19.1-37.67 19.76-.74.17-1.5.3-2.26.4-2.22.3-4.22.37-4.22.37-.84-.06-1.68-.18-2.5-.36-7.4-1.6-15.52-8-35.47-18.85-4.86-2.64-25.8-13.2-69.7-32.1-23.26-10-47.75-18.93-70.87-27l-1.76-.62 8.08-7.92c40.2-39 150.06-141.48 167.7-183.95.77-1.8 1.4-3.66 1.86-5.56 1.22 3.58 2.85 7 4.87 10.2 24.77 41.23 124.3 129.5 175.68 175.3l9 8.03z" fill="#16649c"/><path d="M1993.64 1555.3c-.5 2.07-1.22 4.06-2.05 6v46c-28.1 39.68-67.53 77.9-102.57 111.5l-13.47 13-51.46 13.03-8.08 7.92 1.76.62 63.37-16.04c36.1 13.13 78.1 32.62 112.68 49.74v44.23c.83.18 1.67.3 2.5.36 0 0 2-.06 4.22-.37v-43.94c45.4-20.78 77.85-37.87 117.65-52.76l63.27 14.83 1.72-.6-9.03-8-51.08-11.98c-41.64-37.14-85.08-81.35-124.76-124.5v-39.15a48.203 48.203 0 0 1-4.68-9.9z" fill="#2481ba"/><path d="M2547.32 3105.78c144.1 103.8 362.54 10.67 551.6 152.7-106.68 84.76-355.96 38.24-484.82 53.45-40.56 4.8-74.1 38-114.93 38.08 43.98-76.9-83.67-10.03-120.36-13.43 57.65-76.1-39.03-1.74-99.7-7.97 39.28-68.6-90.9-18.13-134.53-11.4-7.08-67.73-132.67-9.28-181.25-2.65 5.75-10.63 25.1-57.9 9.7-81.53l7.25-103.74c1.96-27.93 19.67-60.42 45.32-89.06 116.44 68.14 335.38 90.97 521.7 65.55z" class="C E N"/><path d="M1996.82 3179.72l-3.42 48.95c8.23 18.03 6.05 39.18 1.42 57.84 45.62-12.9 133.16-51.25 163.55 7.36 31.77-7.77 146.2-54.32 148.03 12.86 37.6-7.23 114.6-59.73 111.1 2.27 59-22.5 115.5-23.5 110.73 14.57 84.77-59.57 219-31.17 336.4-32.27 65.48-.62 138.8-2.46 198.35-33.4-82.75-52.8-170.84-63.4-258.27-70.15-91.26-7.06-185.92-9.64-262.45-61.1-92.7 11.94-192.7 12.26-284.38 1.32-86.57-10.33-167.2-30.88-227.5-62.26-18.18 23.3-28.84 46.63-30.13 65l-3.43 49.04z" class="U"/><path d="M1773.96 3212.95l6.56-93.77s702.54 79.26 766.18 43.6c19.06 28.4 28.65 37.1 66.98 62.33-41.47 19.65-51.8 25.9-74.63 51.37-65.3-49.68-765.1-63.54-765.1-63.54z" fill="#0f253c" stroke="#091c2e" stroke-width="8"/><g class="C E V"><ellipse cx="1346.7" cy="3135.96" rx="30" ry="14.5" transform="rotate(274 1346.7 3135.96)"/><path d="M1356.5 3174.74c-7.7-.54-13.52-7.23-12.98-14.94l3.34-47.9c.54-7.7 7.23-13.53 14.95-13l-5.3 75.82z"/></g><path d="M2171.02 3212.9c-1.64 1.52-15.06.9-15.3-.77-.3-1.96 14.27-6.64 16.15-4.52 1.06 1.2.62 3.95-.84 5.3zm70.2-6.43c1.1-.48.65-6.36-2.6-11.05-5.8-8.46-17.7-9.77-26.66-13.15-7.62-2.88-7.5-7.04-9.7-8.18s-4.5.44-8.14 1.08c-3.56.62-7.3.9-7.34 1.32-.14 1.66 13.53 4.22 16.15 4.53 5.4.63 7.67 9.34 8.75 15.43.62 3.47-12.82 6.5-15.36 6.67-5.82.37-11.04-3.17-11.22-2.92-.54.8 3.97 7.2 10.53 8.2 3.15.48 14.65-2.04 19.8-6.26 3.05-2.5-.52-7.77 2.37-10.15 2.98-2.4 8.37.65 11.1 2.22 8.48 4.9 10.97 12.84 12.34 12.25zm56.76-5.77c1.16-.65-8.92-8.73-11.3-10.4-3.38-2.42-5.2-7.4-9-8.67-16.96-5.8-31.98 7.68-30.92 10.53.24.65 21.1-10.8 24.4-.1.54 1.77-5.3 4.37-7 5.54-5.84 4-9.15 7.54-8.97 7.75.27.35 10.66-9.23 14.43-6.36 2.4 1.83-.9 5.97 8.27 12.03 5.7 3.78 14.47-2.26 13.82-2.35-1.67-.22-15.65 2.1-13.54-7.42 2.8-11.77 18.58.14 19.8-.55zm47.57-10.2c.22 1.5 12.4.4 12.72 2.13.15 1-3.93 1.26-7.2 4.86-3.55 3.9-2.36 7.67-4.6 8.54-2.6 1.03-5.43-3.62-13.74-10.2-2.25-1.78-17.84-13.22-25.1-5.28-1.34 1.47 3.45 2.7 5.63 7.64 1.25 2.82.75 6.14 2.62 8.7 2.64 3.3 20.98 12.68 21.2 12.27.95-1.86-8.62-9.13-10.26-10-10.9-5.88-9.25-22.63 3.05-9.8 3.64 3.8 24.47 21.3 26.35 19.9 2.95-2.2-10.75-12.3 6.8-24.85 4.3-3.07 11.77-5.2 11.47-6.3-1.05-3.9-29.5-1.33-28.93 2.38zm70.15 1.76c.05-.54 4.76.24 13.24-2.65 4.35-1.48 6.67-4.78 7.2-4.34 1.1.9-6.5 7.54-8.85 18.83-1.44 6.9-.24 12.28-3.6 14.12-1.77.95-4-.05-5.92.28-6.32 1.08-9.54 9.1-16.23 1.4-6.1-7.02-16-8.04-24.7-8.93-1.74-.17-8.47-.6-8.68-2.42-.3-2.63 26.48-12.53 27.1-11.5.2.33-.9 1.3-2.5 2.33-14.56 9.55 4.02 9.02 9.86 14.77 4.02 3.98 11.96.03 15.94-2.4 1.9-1.16.74-3.88 2.6-7.95 5.9-12.83-5.58-10.13-5.48-11.53zm72 35.97c.17.43 13.15-.8 20.33-10.96 3.76-5.33 6.55-13.05.92-18.07-8.52-7.6-19.26 6.97-19.8 6.66s.4-2.06.35-5c-.07-2.8-1-6.77-2.86-7.18-3.58-.83-9.7 8.15-11.14 7.54-1.23-.5-.24-3.1-1.68-6.7-1.44-3.62-4.43-6.45-5.47-5.9s1.82 4.7.97 10.44c-.85 5.72-4.73 8.83-3.75 9.85 1.84 1.9 15.6-7.6 17.17-5.35 4.65 6.65-5.85 20.63-14.36 20.76-3.36.06-3.92-1.44-6.68-1-6.4 1-10.6 10.4-9.46 11.4.73.67 3.35-1.7 4.15-2.32 5.7-4.4 11.16-1.73 16.88-3.52 6.9-2.14 12.17-8.28 15.57-14.42 1.87-3.4 10.93-12.88 13.56-10.27 9.33 9.23-15.22 22.72-14.7 24.04zm-46.67-3.23c-.9-1.35-4.36-1.48-5.4.37s.82 4.68 2.43 4.77c1.9.1 4-3.6 2.96-5.14zm5.35-30.82c.2 1.66 3.35 3.48 5.95 2.44 3.3-1.3 3.43-6.3 2.08-7.38-1.83-1.42-8.38 2.34-8.03 4.94zm-70.28 28.56c.03-1.6-7.9-8-8.73-7.38-1.1.85 2.5 10.35 4.53 10.9 1.64.44 4.2-1.64 4.2-3.53zm18.9-17.64c-.6-4.96 11.2-4.93 13.13-1.57 4.82 8.56-12.7 5.2-13.13 1.57zm-93.52 9.33c.02-.63 2.12-.55 2.8-1.95.24-.47-.03-1.22.34-1.58 1.9-1.9 5.08 1.52 4.96 3.77-.2 4.14-8.1.5-8.1-.24zm-69.84-31.8c1.7-.2 3.2-1.32 3.84-2.9 3.06-7.15-10.37-3.7-10.1-.46.15 1.5 4.66 3.47 6.26 3.36zm-59.57-7.3c1.65-.5 2.76-2.16 2.6-3.9-1.1-4.9-14.1-2.17-13.5-.1.1.3 1.18-.04 2.57.05 4.4.26 5.85 4.45 8.33 3.95z" class="W"/><g class="E K"><path d="M1705.82 3274.58l1.8 45.42 58.78-2.34-1.8-45.42-58.8 2.34z" fill="#26292e"/><path d="M1694.9 3202.4l3.8 79.27c.14 3.5 3.1 6.25 6.6 6.1l61.42-2.44c3.5-.14 6.24-3.1 6.1-6.6l-3.8-79.27c-.14-3.5-3.1-6.25-6.6-6.1l-61.42 2.44c-3.5.14-6.24 3.1-6.1 6.6zm31.4 138.6c15.1-.6 27.1-7 26.8-14.3s-12.76-12.73-27.85-12.13c-15.1.6-27.1 7-26.8 14.3s12.76 12.73 27.86 12.13z" fill="#2e3a48"/><path d="M1723.63 3326.85c-17.45 5.72-25.47 5.5-28.68 14.4-9.5-9.32-17.24-20.9-17.8-19.52-1.76 4.46-1.74 22.38 8.93 38.83 5.56 8.56 14.07 14.28 17.96 25.17 0 0 8.72 14.47 13.02 18.54 4.3 4.06-.25 4.65 2.15 6.4 2.4 1.75 9 2.82 11.93.5 2.92-2.3 17.33 7.7 22.32 9.72 5 2.03 20.67 8.88 31.03-5.2-10-.24-15.14-3.65-16.1-5.37 1.44-1.08 1.85-3.12 2.08-4-.96-2.2-3.7-2.98-5.84-3.84 5.03-1.3 8.7-1.83 10.95-1.56-1.53-4.44-13.52-16.26-16.86-18.33-1.18-3.64 5.43-21.57 8.4-25.2s-2.85-20.44-6.65-23.8c-3.8-3.35-19.34-12.47-36.84-6.74zm10.43 54.42c1.84 8.3 3.53 14.24-3.85 19.33-4.24 2.92-16.67-10.16-16.54-14.8.08-4.07 4.2-14.8 6.7-16.54 2.5-1.74 11.84 3.7 13.68 12.02z" class="X"/></g><path d="M1695.7 3341.8c-6.8-7.65-18.1-21.2-18.53-20.1-.58 1.47-.96 4.4-.84 8.26 2.78 3.33 16.14 17.88 19.7 21.37-1.15-5.1-.5-7.05-.33-9.54zm37.8-16.76c8.9 1.64 15.67 5.87 18 7.93 3.8 3.35 9.6 20.17 6.64 23.8s-9.57 21.55-8.4 25.2c3.35 2.07 15.1 12.48 16.64 16.93-2.24-.28-5.7 1.67-10.72 2.96 3.32 1.34 8.3 4.43 3.75 7.86.97 1.72 4.4 4.54 14.26 6.73-4.18 5.68-7.37 6.6-12.23 7.15 6.9 1.58 16.15 1.5 23.06-7.9-10-.24-15.14-3.65-16.1-5.37 1.44-1.08 1.85-3.12 2.08-4-.96-2.2-3.7-2.98-5.84-3.84 5.03-1.3 8.7-1.83 10.95-1.56-1.53-4.44-13.52-16.26-16.86-18.33-1.18-3.64 5.43-21.57 8.4-25.2s-2.85-20.44-6.65-23.8c-3.06-2.7-13.76-9.16-26.97-8.55z" class="B G"/><g class="E K"><path d="M1721.62 3048.67l8.1-44.73 57.9 10.5-8.1 44.73-57.9-10.5z" fill="#26292e"/><path d="M1700.77 3118.6l14.8-77.97c.63-3.46 3.94-5.75 7.4-5.12l60.48 10.96c3.46.63 5.75 3.94 5.12 7.4l-14.8 77.98c-.63 3.45-3.94 5.75-7.4 5.12l-60.5-10.97c-3.45-.62-5.75-3.93-5.12-7.4zm50.37-132.85c14.86 2.7 25.85 10.7 24.55 17.9s-14.4 10.83-29.27 8.14c-14.86-2.7-25.86-10.7-24.55-17.9 1.3-7.2 14.4-10.84 29.27-8.14z" fill="#2e3a48"/><path d="M1746.53 2999.38c-16.48-8.1-24.46-9-26.4-18.24-10.7 7.9-19.98 18.3-20.33 16.86-1.12-4.67 1.4-22.4 14.25-37.22 6.7-7.7 15.92-12.18 21.28-22.42 0 0 10.65-13.12 15.48-16.54 4.82-3.43.4-4.65 3.02-6.05 2.63-1.4 9.3-1.53 11.88 1.15 2.57 2.7 18.23-5.2 23.46-6.5 5.22-1.32 21.7-5.92 30 9.47-9.94-1.15-15.5 1.5-16.7 3.07 1.28 1.27 1.4 3.35 1.5 4.26-1.25 2.06-4.07 2.44-6.3 3 4.8 1.98 8.37 3.03 10.62 3.07-2.13 4.18-15.65 14.23-19.24 15.8-1.68 3.44 2.37 22.1 4.8 26.1 2.44 4-5.66 19.85-9.9 22.64-4.22 2.8-20.9 9.66-37.42 1.55zm17.9-52.43c2.98-7.98 5.47-13.62-1.12-19.7-3.8-3.48-17.92 7.74-18.44 12.37-.5 4.04 2.1 15.23 4.34 17.3 2.23 2.07 12.24-2.02 15.22-10z" class="X"/></g><path d="M1720.94 2980.68c-7.8 6.63-20.86 18.46-21.14 17.32-.37-1.54-.35-4.5.32-8.3 3.2-2.9 18.47-15.45 22.48-18.42-1.85 4.9-1.5 6.92-1.66 9.4zm35.1 21.86c9.05-.38 16.33-3.62 18.93-5.34 4.22-2.8 12.33-18.64 9.9-22.64s-6.5-22.67-4.8-26.1c3.6-1.58 16.7-10.26 18.82-14.44-2.25-.04-5.4-2.45-10.2-4.43 3.48-.87 8.85-3.24 4.8-7.26 1.2-1.57 5-3.9 15.06-4.68-3.35-6.2-6.4-7.55-11.12-8.78 7.04-.6 16.2.76 21.74 11.02-9.94-1.15-15.5 1.5-16.7 3.07 1.28 1.27 1.4 3.35 1.5 4.26-1.25 2.06-4.07 2.44-6.3 3 4.8 1.98 8.37 3.03 10.62 3.07-2.13 4.18-15.65 14.23-19.24 15.8-1.68 3.44 2.37 22.1 4.8 26.1 2.44 4-5.66 19.85-9.9 22.64-3.4 2.25-14.9 7.15-27.9 4.7z" class="B G"/><path d="M1365.93 3183.42c-7.7-.54-13.53-7.23-13-14.95l4.47-63.84c.54-7.7 7.23-13.53 14.94-13l-6.42 91.78z" fill="#3f5776" class="C E"/><path d="M1335.53 3119.25c2.2 5.6 5.55 9.2 9.5 9.58 1.58 4.04 5 7.2 9.3 8.4 1.84 5.02 6.5 8.75 12.17 9.15-.9 12.97-.06 29.57-.6 37.05-5.68-.4-10.33-4.13-12.17-9.15-4.3-1.18-7.72-4.35-9.3-8.4-7.9-.72-13.37-14.5-12.22-30.92.4-5.82 1.6-11.2 3.3-15.7z" class="B G"/><path transform="rotate(274 1401.02 3184.87)" fill="#3c3a39" d="M1401.02 3184.87h90v378h-90z" class="C E"/><path d="M1403.53 3148.96l-2.5 35.9 377.07 26.37 2.52-35.92-377.08-26.36z" class="B G O"/><rect x="1442.65" y="3205.82" width="126" height="43" rx="21.5" transform="rotate(274 1442.65 3205.82)" class="C E V"/><path d="M1444.15 3184.38c-.82 11.84 8.1 22.12 19.95 22.94 11.85.83 22.12-8.1 22.95-19.94l2.86-40.9c-1.93 27.66-44.83 24.66-42.9-3l-2.86 40.9z" class="B G"/><path d="M1799.24 3109.47c51.6 25.66 66.7-21.9 75.82-37.8 9.14-15.9 7.8-79.08-2.42-94.4 7.95-24.95 24.93-67.45 61.3-73.9-23.3 86.76-2.04 111.8 9.05 142.98-14.47 17.96 2.63 48.3 6.14 55.57l-10.6 151.62c-4.48 6.7-25.64 34.37-13.82 54.17-15.3 29.33-39.84 51.17-28.86 140.33-35.12-11.46-46.02-55.9-50.42-81.72 12.24-13.75 22.37-76.12 15.54-93.14s-15.15-66.2-69.83-48l8.1-115.7z" class="C E N"/><path d="M1810.08 3126.54l-5.82 83.25c79.7-10.5 81 114.2 53.88 159.33 2.2 11.73 5.73 25.73 11.78 38.18 3.3 6.77 7.17 12.76 11.75 17.64-2.7-45.05 7.84-79.32 29.64-117.7-7.1-20.22 4.22-41.5 15.48-57.8l10.15-145.08c-8.9-17.7-17.15-40.37-7.3-59.4-16.24-41.05-21.9-76.45-12.97-120.7-15.92 12.8-24.7 33.18-31.07 52 22.06 52-.17 171.18-75.53 150.3z" class="O U"/><path d="M1866.55 3370.47c1.6 7.88 3.77 16.46 6.86 24.67 1.57-32.18 13.1-61.4 29.24-88.9-5.47-21.12 4.73-42.42 16.32-59.55l9.83-140.73c-9.08-18.57-16.22-41.1-7.87-61.24-12.5-30.33-19.6-59.1-16.58-92.1-4.2 7.7-7.55 15.9-10.22 23.47 8.84 24.44 8.72 53.28 5.7 78.64-4.3 36.25-42.44 87.26-82.4 81.53l-4.54 64.94c45.24-.13 71.12 51.97 70.27 92.2-.55 25.54-4.44 54.12-16.6 77.08z" fill="#091c2e"/><path d="M1884.9 3329.56c3.7-8.22 7.88-16.25 12.43-24.1-4.8-22.16 5.67-43.8 16.75-60.44l9.65-138.07c-8.65-18.02-16-40.9-8.17-62.18-3.43-8.44-6.44-16.8-8.94-25.18 1.37 50.28-22.9 124.14-84.56 122.1l-3.82 54.74c63.55 5.26 75.27 82.68 66.66 133.15z" fill="#0f253c" class="O"/><path d="M1833.1 2996.55c-20.9 43.62-47.4 118.48-78.9 167.9 22.96 58.75 40.8 133.8 54.77 177.26 110.27-78.38 241-114.5 356.23-148.52-108.38-55.7-285.95-154.5-332.1-196.64z" class="C E N"/><g class="U"><path d="M2127.9 3189.58c-98.04-51.52-201.45-103.06-289.65-170.65-21.87 49.44-40.33 100.63-68.48 147 14.27 37.86 26.8 82.23 37.34 119.6l9.67 33.8c98.1-65.2 210.06-99.96 311.12-129.77z" class="O"/><path d="M3090.82 3255.4l4.18 3.1-3.8 2.9-35.54-.93.42-6 34.73.92z"/></g><path d="M1381.63 3202.56c-11.56-.8-20.3-10.84-19.48-22.4l6-85.8c.8-11.57 10.84-20.3 22.4-19.5s20.3 10.85 19.5 22.4l-6 85.8c-.8 11.57-10.85 20.3-22.42 19.48z" class="C E V"/><path d="M1362.15 3180.15c-.8 11.57 7.92 21.6 19.48 22.4 11.57.8 21.6-7.9 22.42-19.48l3.42-48.9c-.8 11.57-10.85 20.3-22.42 19.5s-20.3-10.85-19.48-22.42l-3.42 48.9z" class="B G O"/><g fill="#3f5776" class="E K"><circle cx="1381.38" cy="3199.03" r="8.5" transform="rotate(274 1381.38 3199.03)"/><circle cx="1389.82" cy="3078.33" r="8.5" transform="rotate(274 1389.82 3078.33)"/><circle cx="1383.96" cy="3162.12" r="10.5" transform="rotate(274 1383.96 3162.12)"/><circle cx="1387.24" cy="3115.24" r="10.5" transform="rotate(274 1387.24 3115.24)"/></g><path d="M1715.87 3161.77c7.9-6.58 111.64-90.57 116.32-92.6s12.03-1.65 15.32-1.52c3.3.14 2.56 3.26 6.9 4.97 4.35 1.7 20.43.13 23.73-.7 3.3-.85 5.4-6.3 7.5-2.73s36.2 35.46 44.23 42.33c8.04 6.87 45.45 28.7 52 29.14 6.56.46 34.1-2.8 37.37-1.26 3.25 1.52 15.23 12.48 15.8 15.15s1.54 7.2-1.92 7.7c-3.46.5-25.26-1.18-20.38.34 4.88 1.53 30.47 2.67 32.77 4.28 2.3 1.6 8.6 12.3 4.83 12.83-3.38.47-9.07 1.53-16.17 1.1 5.35.55 10.62 1.73 15.7 3.5 3.62 1.16-4.5 10.6-7.07 11.77-2.57 1.18-27.97-2.12-33.04-1.46s16.67 2.8 20 3.86c3.32 1.08 1.54 5.35.5 7.88l-.01.03c-1.05 2.53-14.84 11.3-18.3 12.18s-29.96-7.08-36.52-7.77c-6.57-.7-47.3 14.32-56.46 19.7s-48.5 30.85-51.22 34-3.8-2.6-6.92-4-18.66-5.75-23.22-4.8c-4.56.93-4.4 4.13-7.67 3.7-3.27-.44-10.55-1.34-14.8-4.16-4.23-2.8-92.4-85.55-99.28-93.43z" class="X"/><g class="E"><g stroke-linejoin="round"><path d="M1715.87 3161.77c7.9-6.58 111.64-90.57 116.32-92.6s12.03-1.65 15.32-1.52c3.3.14 2.56 3.26 6.9 4.97 4.35 1.7 20.43.13 23.73-.7 3.3-.85 5.4-6.3 7.5-2.73s36.2 35.46 44.23 42.33c8.04 6.87 45.45 28.7 52 29.14 6.56.46 34.1-2.8 37.37-1.26 3.25 1.52 15.23 12.48 15.8 15.15s1.54 7.2-1.92 7.7c-3.46.5-25.26-1.18-20.38.34 4.88 1.53 30.47 2.67 32.77 4.28 2.3 1.6 8.6 12.3 4.83 12.83-3.78.52-10.44 1.8-18.7.88a69.769 69.769 0 0 1 18.24 3.72c3.62 1.16-4.5 10.6-7.07 11.77-2.57 1.18-27.97-2.12-33.04-1.46s16.67 2.8 20 3.86c3.33 1.08 1.53 5.38.48 7.9s-14.84 11.3-18.3 12.18-29.96-7.08-36.52-7.77c-6.57-.7-47.3 14.32-56.46 19.7s-48.5 30.85-51.22 34-3.8-2.6-6.92-4-18.66-5.75-23.22-4.8c-4.56.93-4.4 4.13-7.67 3.7-3.27-.44-10.55-1.34-14.8-4.16-4.23-2.8-92.4-85.55-99.28-93.43z" class="C"/><path d="M1851.24 3081.26c2.3 8.38 39.47 69.54 54.87 74.47 15.4 4.94 10.97-18 6.8-25.64-1.93-3.54-31.96-34.47-36.76-37.73-2.65-1.8-18.32-11.6-18.06-2.42-1.74-2.3-6.85-8.68-6.85-8.68zm-11.3 166.98c3.43-7.93 48.57-63.27 64.5-66 15.93-2.7 8.4 19.4 3.24 26.36-2.38 3.23-36.36 29.62-41.56 32.2-2.86 1.42-19.77 8.9-18.2-.15l-7.97 7.6z" class="K W"/></g><path d="M1993.44 3185.73c-5.7-.4-38.68-8.76-38.6-10.13s27.42-9.15 40-8.28c5.03.33 3.23 18.72-1.42 18.4z" class="K W"/></g><path d="M1863.76 3263.3c-1.84-2.43-3.75-3.22-6.6-4.1 26.1-18.46 74.9-55.23 108.64-52.87 4.48.3 9 3.4 13.22 4.43-41.03 6.15-80.8 29.94-111.27 53.7-1.66 1.92-2.7.53-4-1.17zm148.2-44.76c-1.44.37-6.85-.8-13.15-2.32 4.1-2.1 25.77-14.4 15.36-20.56 4.85.5 11 1.3 15.62 2.8 3.33 1.08 1.53 5.4.57 7.7l-.1.22c-1.05 2.53-14.84 11.3-18.3 12.18zm-29.58-77.22c-3.5.9-7.52 2.48-11.18 2.22-23.44-1.64-75.17-48.17-97.44-70.94 3.16-.37 5.38-.75 7.76-2.96 1.56-1.45 2.85-2.65 4.14-.46 25.16 27.53 55.3 55.2 96.72 72.14zm50.77 20.9c3.46-.48 2.5-5.02 1.92-7.7s-12.56-13.63-15.8-15.16c-1.4-.65-7.34-.42-14.17.02 1.9 1.36 23.68 20.54 10.95 22.3 3.5.25 11.4 1.32 17.1.52zm17.06 17.5c3.78-.53-2.52-11.22-4.83-12.83-2.3-1.6-11.05-1.9-15.52-2.22 1.98 2.3 6.07 13.46 1.38 16 4.3 2.96 3.16 10.7-2.6 15.06 5.9.45 13 .88 14.06.38 2.56-1.18 10.7-10.6 7.07-11.8-2.77-.95-5.57-2.05-8.4-2.94 2.97-.45 5.93-1.12 8.84-1.65z" class="B G"/><g fill="#1f1e1e"><path d="M1724.15 3307.73c-9.33.35 28.8-17.82 41.85-11.97 13.04 5.84 9.54 23.56 7.6 27.15-3.54 6.58-9.05 15.45-15.63 7.95-1.03-1.17-22.37-23.57-33.83-23.13z"/><use xlink:href="#B"/></g><path d="M1740.17 3314.94l-3.35-2.3c1.4-4.42 2.1-9.1 2-13.73 1.27-.45 2.57-.88 3.9-1.28.38 5.67-.6 11.73-2.55 17.32zm8.93 7.3l-2.96-2.58c4.07-7.27 5.6-15.83 4.27-24.05 1.3-.26 2.56-.48 3.8-.65 1.74 12.33-.9 19.8-5.1 27.28zm8.15 7.83l-2.7-2.73c8.1-8.73 10.5-21.68 6.06-32.72 1.7.08 3.26.34 4.6.8 4.53 15.44-.6 26.25-7.96 34.64z" class="Q"/><path d="M1773.72 3322.66c3.7-10.22 1.8-22.63-7.72-26.9-12.26-5.5-46.7 10.22-43.04 11.84 11.82-1.65 46.66-5.26 50.76 15.06z" class="B R"/><path d="M1721.13 3293.2c-20.24 2.6-38.16-9.95-46.07-28.3.4-2.43.88-4.88 1.5-7.33 6.2 21.17 26.03 35.75 48.02 31.06l-3.45 4.56zm11.27-14.34l-3.02 3.65c-20.76-2.38-41.72-20.03-47.54-40.13.84-1.87 1.75-3.72 2.72-5.55 4 21.55 25.96 40.65 47.84 42.03zm6.1-5.96l-3.17 2.75c-17.9-7.76-37.36-28.66-47.1-45.1.77-1.22 1.58-2.43 2.42-3.62 9.2 16.02 29.5 40.18 47.84 45.97zm5.73-4.07l-3.78 2.6c-.22-21.2-22.57-45.65-43.7-52.26a85.025 85.025 0 0 1 2.89-3.16c22.7 7.57 42.37 28.23 44.58 52.83zm7.17-4.33l-4.36 2.57c5.1-24.6-11.2-53.87-35.02-61.87 1.27-.93 2.58-1.83 3.92-2.7 23.27 9.2 38.64 37.35 35.46 62zm9.65-5.33l-5 2.7c9.68-25.16-1.2-56.28-26.26-67.1l4.37-2.26c23.9 11.97 34.2 41.38 26.88 66.64zm11.45-6.23l-5.74 3.16c12.65-23.93 7.4-60.65-20.2-69.6l5.1-2.2c25.34 10.86 30.68 44.53 20.84 68.63zm16.7-10.3l-7.45 4.9c16.34-23 8.8-55.33-16.6-67.8 2-.5 3.98-.9 5.95-1.22 22.06 12.76 29.16 41.54 18.1 64.12z" class="Q"/><path d="M1807.3 3198.25c-16.7-38.27-59.05-12.83-82.7-.76-30.9 15.76-47.54 45.6-50.12 72.15-1.14 11.78 7.83 25.5 16.6 34.5-26.7-48.68 70.6-137.87 116.22-105.88z" class="B R"/><g class="E K"><use xlink:href="#B"/><path d="M1724.15 3307.73c-9.33.34 28.8-17.82 41.85-11.97 13.04 5.84 9.54 23.56 7.6 27.15-3.54 6.58-9.05 15.45-15.63 7.95-1.03-1.17-22.37-23.57-33.83-23.13z"/></g><g fill="#1f1e1e"><use xlink:href="#C"/><use xlink:href="#D"/></g><path d="M1761.4 3011.45l-3.64 1.82c.78 4.58.83 9.3.08 13.88 1.2.62 2.42 1.23 3.67 1.8 1.17-5.57 1.05-11.7-.1-17.5zm9.86-6l-3.3 2.14c3.02 7.76 3.35 16.46.88 24.4 1.24.44 2.47.83 3.68 1.17 3.43-11.96 1.85-19.72-1.27-27.72zm9.16-6.63l-3.07 2.34c6.82 9.77 7.38 22.92 1.45 33.24 1.7.15 3.28.1 4.67-.17 6.64-14.65 3.06-26.08-3.05-35.4z" class="Q"/><path d="M1795.7 3008.47c2.26 10.65-1.37 22.67-11.4 25.57-12.9 3.74-44.82-16.62-40.97-17.7 11.48 3.28 45.47 11.7 52.36-7.86z" class="B R"/><path d="M1739.5 3030.3c-19.68-5.4-39.17 4.55-49.55 21.6a82.697 82.697 0 0 0 .46 7.47c9.1-20.1 30.75-31.78 51.87-24.08l-2.78-5zm9.18 15.8l-2.47-4.04c-20.9-.52-44.1 14.04-52.67 33.13.57 1.96 1.2 3.92 1.92 5.87 6.95-20.78 31.37-36.64 53.22-34.96zm5.2 6.74l-2.75-3.17c-18.8 5.2-40.98 23.18-52.9 38.1.6 1.3 1.23 2.62 1.9 3.92 11.33-14.58 34.8-35.68 53.76-38.86zm5.13 4.84l-3.38-3.1c-3.17 20.95-28.7 42.06-50.54 45.67.78 1.2 1.58 2.36 2.42 3.53 23.55-4.34 45.9-22.06 51.5-46.1zm6.48 5.28l-3.96-3.15c1.63 25.08-18.58 51.78-43.3 56.4 1.13 1.1 2.3 2.17 3.5 3.23 24.33-5.87 43.47-31.62 43.75-56.47zm8.82 6.62l-4.56-3.38c6.08 26.27-9.02 55.58-35.35 62.8l4.02 2.84c25.34-8.52 39.6-36.22 35.9-62.25zm10.47 7.77l-5.25-3.93c9.2 25.45-1.1 61.1-29.7 66.1 1.56 1 3.15 1.96 4.75 2.9 26.6-7.23 36.58-39.83 30.2-65.06zm15.1 12.52l-6.7-5.9c13 25.04 1.04 56.02-25.86 64.84 1.9.77 3.8 1.46 5.72 2.03 23.6-9.56 34.65-37.07 26.84-60.97z" class="Q"/><path d="M1811.62 3136.35c-21.85 35.57-60.26 4.5-82.02-10.76-28.4-19.9-40.72-51.77-39.58-78.42.5-11.83 11.3-24.18 21.24-31.85-33.22 44.5 50.73 146.36 100.36 121.03z" class="B R"/><g class="E K"><use xlink:href="#D"/><use xlink:href="#C"/></g><path d="M1601.4 3259.9c56.82.05 93-68.1 58.6-115.27 15.9-45.2-18.1-95.4-66.66-96.55-56-1.34-88.37 58.5-82.5 109.13 5.48 47.3 37.52 102.65 90.57 102.7z" class="C D F M"/><path d="M1510.83 3157.2c6.78 58.57 54.37 126.8 125.37 93.8-68.82-8.8-117-125.5-83.1-191.84-5.4 3.84-13.9 8.34-27.6 27.6-12.3 21.73-17.7 46.2-14.66 70.43z" class="B J"/><defs ><path id="B" d="M1674.46 3269.64c2.58-26.56 19.22-56.4 50.12-72.16 24.66-12.57 64.4-36.17 81.8-1.27 22 44.07-54.44 60-72.88 81.36-10.25 11.86-23.38 31-27.13 35.68-3.74 4.68-33.96-22.57-31.92-43.6z"/><path id="C" d="M1744.52 3016.36c-9.2-1.64 26.06 21.66 39.78 17.68 13.72-3.97 12.73-22 11.3-25.83-2.58-7-6.8-16.55-14.37-10.04-1.18 1-25.43 20.22-36.72 18.2z"/><path id="D" d="M1690.02 3047.17c-1.14 26.65 11.18 58.5 39.58 78.42 22.68 15.9 58.75 44.8 80.84 12.65 27.92-40.57-45.56-67-60.85-90.7-8.5-13.17-18.84-33.96-21.9-39.1-3.06-5.15-36.78 17.63-37.68 38.75z"/></defs></svg>