<svg xmlns="http://www.w3.org/2000/svg" xmlns:xlink="http://www.w3.org/1999/xlink" width="4000" height="4000" fill="none" xmlns:v="https://vecta.io/nano"><style><![CDATA[.B{fill:#000}.C{stroke:#333}.D{stroke-miterlimit:10}.E{fill-opacity:.15}.F{stroke-width:3}.G{stroke-width:5}.H{fill-opacity:.1}.I{fill:#7f6145}.J{fill:#f7c394}.K{fill:#fff}.L{fill-opacity:.2}.M{fill:#ffa6c8}.N{fill:#b88731}.O{fill:#ffc9a1}.P{fill:#46ca39}.Q{fill-opacity:.05}.R{fill-rule:evenodd}.S{fill:#f4be33}.T{stroke-width:2.5}.U{fill:#2b221e}.V{stroke-linejoin:round}]]></style><path d="M2275.1 3290.64c-50.77-7.42-115.16-32.27-196.86-76-11.87-6.35-16.67-21.85-10.25-33.84 6.35-11.87 21.85-16.66 33.84-10.25 75.45 40.37 136.18 64.12 180.5 70.6 28.93 4.23 49.75 1 61.88-9.64 13.6-11.92 12.4-33 8.83-72.4-4.17-46.12-9.36-103.53 19.78-169.5 44-99.72 153.63-194.53 269.1-176.7 73.33 11.36 143.6 66.2 159.73 140.6 13.73 63.36-6.02 150.17-73.53 174.43-44.77 16-95.93-2.36-130.84-32.08-10.44-8.68-11.95-25-3.06-35.44 8.8-10.34 25.15-11.64 35.48-2.62.43.36 43.66 36.65 81.5 23.06 42.84-15.38 49.77-78.95 41.56-116.78-11.75-54.23-65.6-93.57-118.5-101.77-92.84-14.33-180.8 68.5-215.72 147.5-23.9 54.16-19.56 102.32-15.72 144.8 4 43.84 7.7 85.25-25.67 114.5-27.66 24.4-67.07 26.8-102.02 21.54z" class="C D G I"/><path d="M2786.65 2965.53c11.06 51.02 1.18 114.55-37.82 152.08 51.4-33.7 65.07-107.56 52.82-164.08-16.13-74.4-86.4-129.24-159.73-140.6-66.26-10.23-131.78 18.56-181.54 60.82 114.12-80.75 293.3-60.36 326.27 91.78zm-69.03 112.53c-27.03 31.45-75.6 15.26-102.9-8.23-3.14-2.68-6.9-4.54-10.94-5.4a25.037 25.037 0 0 0-12.19.41c3.97-7.3 11.63-12.23 19.93-12.9 6.6-.53 13.15 1.6 18.2 5.9 22.07 19.5 59.84 35.17 87.9 20.24zm-644.12 95.44c3.5-3 15.5-9 23-5.5 6.98 3.26 15.34 7.4 24.73 12.03 49.42 24.4 127.47 62.97 183.77 62.97 50 0 54.5-25 47.5-91 .85 3.82 1.92 8.03 3.06 12.5 9.62 37.75 24.1 94.5-50.56 94.5-81.5 0-208.8-70.57-231.5-85.5z" class="B L"/><path d="M1959.37 3446.5c5-87.08 27.4-154.43 47.17-206.8s42.42-144.7-42.56-166.02c-121.5-30.5-188.3 254.12-193.3 340.94-2.93 51.08 36.82 110.33 88.4 113.3 47.48 2.3 97.45-31.8 100.3-81.4z" class="C D G I"/><path d="M1769.48 3414.5c51.5-7 148-7 188.5 34l1.66-15.04c-42.16-36.96-138.16-39.46-188.02-32.46-.26 3.3-1.86 10.13-2.14 13.5zm16-89.5c47.76 44.3 108.88 69.13 178 78.5.58-5 1.8-12.18 2.5-17-68.6-8.88-128.2-37.6-176-81-2 6-3.62 15.27-4.5 19.5z" class="B E"/><path d="M2040.63 3446.5c-5-87.08-27.4-154.43-47.17-206.8s-42.42-144.7 42.56-166.02c121.5-30.5 188.3 254.12 193.3 340.94 2.93 51.08-36.82 110.33-88.4 113.3-47.48 2.3-97.45-31.8-100.3-81.4z" class="C D G I"/><path d="M2230.52 3414.5c-51.5-7-148-7-188.5 34l-1.66-15.04c42.16-36.96 138.16-39.46 188.02-32.46.26 3.3 1.86 10.13 2.14 13.5zm-16-89.5c-47.76 44.3-108.88 69.13-178 78.5-.58-5-1.8-12.18-2.5-17 68.6-8.88 128.2-37.6 176-81 2 6 3.62 15.27 4.5 19.5z" class="B E"/><path d="M2400 3153.5c-29-10.5-52.66-39.08-49.04-74.92 5.42-63.52-18.62-132.2-65.95-198.4-43.06-60.25-89.2-93.25-53.7-132.2s115.56 3.92 155.4 59.5c65.7 91.92 103.8 201 83.8 304-3.2 31.47-41.5 52.5-70.5 42z" class="C D G I"/><path d="M2443.5 3065c0-148.5-86.2-283.5-191.7-330 131.2-16.5 252.7 238 218.7 375-3-22.5-16.5-37.5-27-45z" class="B E"/><path d="M3133.2 1832.12c111.1 102 66.32 309.3-9.1 427.16-107.46 168-353.47 273.75-479.46 184.37-131.58-93.35-114.4-386.92 39.2-539.32 114.68-113.78 334.45-177.7 449.35-72.2z" class="C D G J"/><path d="M3003.5 1952.22c66 68.2 30.1 196.68-21.65 267.88-73.75 101.45-232.17 158.7-307.94 97.86-79.14-63.53-57.4-247.22 44.75-337.18 76.26-67.16 216.64-99.08 284.84-28.56z" class="O"/><path d="M3124.1 2259.28c-60.7 94.85-195.1 203.22-346.6 216.72 106.36-25 260-133.85 306.64-206.72 75.4-117.87 115.36-338.97 9.1-427.16-32.4-26.9-114.73-65.12-227.73-45.12 138-42.5 222.8-6.13 267.73 35.12 111.06 102 66.28 309.3-9.13 427.16z" class="B H"/><path d="M866.818 1832.12c-111.1 102-66.32 309.3 9.1 427.16 107.46 168 353.472 273.75 479.462 184.37 131.58-93.35 114.4-386.92-39.2-539.32-114.68-113.78-334.452-177.7-449.352-72.2z" class="C D G J"/><path d="M996.518 1952.22c-66 68.2-30.1 196.68 21.652 267.88 73.75 101.45 232.17 158.7 307.94 97.86 79.14-63.53 57.4-247.22-44.75-337.18-76.26-67.16-216.64-99.08-284.842-28.56z" class="O"/><path d="M875.908 2259.28C936.598 2354.13 1071 2462.5 1222.5 2476c-106.36-25-260.02-133.85-306.642-206.72-75.4-117.87-115.36-338.97-9.1-427.16 32.41-26.9 114.732-65.12 227.732-45.12-138.002-42.5-222.792-6.13-267.732 35.12-111.06 102-66.28 309.3 9.13 427.16z" class="B H"/><path d="M2000 2548c154 0 220 135 260 246s58 220 58 292c0 152-138.68 305.46-318 307-175.53 1.5-318-155-318-307 0-72 17.7-181.5 58-292 40-111 106-246 260-246z" class="C D G I"/><path d="M2000 3393c-175.67 1.6-330-157-318-337 10 148 145.15 288.48 318 287s308-139 318-287c12 180-142.33 335.4-318 337z" class="B E"/><path d="M2000 2672c104 0 160 68 174 128 34.5 147.82 64 274 4 350s-134.95 82-178 82c-47.55 0-118-6-178-82s-32.44-193.83 4-350c14-60 70-128 174-128z" class="C D G J"/><g class="B"><path d="M2000 3232c-136 0-224-94-213-216 4 115 96 190 213 190s209-75 213-190c11 122-77 216-213 216z" class="H"/><path d="M2395 2818c-115.35 45.22-271 79-395 79s-259.34-26.43-395-79c-7.24 10.54-16.6 26.27-23 37 142 57 275 86 418 86s276-29 418-86c-6.15-10.7-15.93-26.36-23-37z" class="E"/></g><path d="M2500.32 839c42.32-35.85-124.32-76-146.52-139.5-26.8-76.5 395.6 127.1 331.57 261.08-5 10.5-55.43 94-417.6-23.77C2665.92 1066 2967.42 1339.94 2966 1847c-1.1 388.75-350.07 990.8-966.43 996.18-594.62 5.2-966.64-596.22-965.57-996.18 1.32-488.44 432.13-990.94 966-1028.5 319.4-22.45 465.3 50.1 500.32 20.5z" class="C G I V"/><path d="M2565.16 861.34c-29.66 65.16-211.8-40-531.22-17.54C1380.48 889.737 907 1615 1169.36 2202.88c68.14-70.38 151.14-90.38 177.6-99.16 7.94 8.57 17.6 17.67 21.05 21.78-81.37 25.35-175.93 80.4-216.63 156.84-76.27-147.6-117-302.56-116.6-435.33 1.32-488.45 432.22-991 966.1-1028.57 319.4-22.45 464.56 50.1 499.6 20.46 42.18-35.75-124.46-75.9-146.65-139.4-8.57-24.46 28.82-20.27 81.55 1.13-20-2.88-31 1.83-25.55 15.87 19.38 50.4 180.3 90.02 155.35 144.83zm399.34 985.73c-.36 127.74-38.12 278.5-110.54 423.57C2779 2168 2644.73 2127 2631 2127l20-24.5c23.5 5.5 128.62 27.9 187.28 106.2 59.3-132.15 86.52-255.16 86.84-370.86 1.47-524.24-353.62-784.84-657.36-901.02C2665.92 1066 2965.92 1340 2964.5 1847.07z" class="B E"/><path d="M1725 1203.5c-297 0-665 628.5-363.5 918.5-575.5 180 0 779 638.5 779s1214-599 638.5-779c301.5-290-66.5-918.5-363.5-918.5-126.5 0-195.5 58.5-275 116.5-79.5-58-148.5-116.5-275-116.5z" fill="#ffcd98" class="C G"/><g class="B"><path d="M2749.1 1817c-15.7-308.54-265-613.2-481.5-613.2-134.6 0-216.2 82.14-267.6 116.2-41.1-28.05-132.5-116.2-268.4-116.2-255.6 0-478.1 373.2-482.13 622.7C1227 1558 1433.07 1155 1733 1155c156 0 239 75 267 106 28-31 111-106 267-106 297.63 0 503.5 381.5 482.1 662z" class="E"/><path d="M1250.37 1807.4c-7.1 117.45 24.02 230 111.45 314.1-10.42 3.26-20.47 7.66-30.15 11.2 22.33-7.2 43.66-12.28 68.33-16.7-84.54-81.32-133.47-191.77-149.63-308.6zm-101.77 459.27c-135.93 245.26 334.32 633.83 851.4 633.83s993.17-392.85 849.75-637.86C2945.1 2486.74 2490.72 2863 2000 2863c-487.8 0-939.7-371.78-851.4-596.33zM2670.5 2133c-21.76-6.4-44.6-12.37-70.5-17 85.32-82.07 134.37-193.8 150.07-311.86 7.9 118.62-23 232.5-111.25 317.36 11.32 3.54 21.24 7.64 31.68 11.5z" class="H"/></g><path d="M1759.66 1403.06c154.9 18 266.48 208.75 250 376.77-16.38 167.34-162.7 342-329.88 323-151.8-17.3-250.26-186.22-253.5-328.16-4.3-190.16 160.84-391.67 333.38-371.6z" class="K"/><path d="M1947.73 1825.22c22.1-113.95-39.5-221.76-137.6-240.8s-195.55 57.9-217.66 171.87c-22.1 113.95 39.5 221.76 137.6 240.8 98.1 19.04 195.55-57.9 217.66-171.87z" class="C D G P"/><path d="M1781.2 1941.56c58.5 0 105.94-53.04 105.94-118.46s-47.43-118.46-105.94-118.46-105.94 53.04-105.94 118.46 47.43 118.46 105.94 118.46z" class="B"/><path d="M1874.9 1740.3c7.45-21.05-4.4-44.45-26.5-52.27-22.08-7.82-46.02 2.9-53.47 23.96s4.4 44.45 26.5 52.27c22.08 7.8 46.02-2.9 53.47-23.96z" class="C D G K"/><g class="B"><path d="M1835.9 1427c-204.38-55.9-374.48 186.25-370.3 368 2.47 107.25 59.36 229.8 152.7 291.65-116.4-48.78-189.2-190.33-192-312-4.33-190.1 160.82-391.6 333.36-371.55 26.68 3.2 52.53 11.3 76.25 23.9z" class="Q"/><path d="M1863.62 1605.54c-112.85-32.07-212.74 65.3-233.15 170.44-16.75 86.35 14.07 169.22 72.35 213.35-81.88-32-130.23-129.93-110.25-232.9 22.12-114 119.58-190.9 217.68-171.85 18.92 3.67 37 10.77 53.37 20.95z" class="E"/></g><path d="M2234 1398.9c-154.54 20.68-262.8 213.36-243.4 381.08 19.3 167 168.63 339.1 335.47 317.13 151.47-19.94 247-190.55 247.73-332.52.98-190.16-167.66-388.73-339.8-365.7z" class="K"/><path d="M2273.74 1992.7c97.75-20.74 157.47-129.6 133.37-243.16-24.1-113.55-122.87-188.8-220.63-168.05-97.75 20.75-157.46 129.6-133.37 243.16 24.1 113.56 122.87 188.8 220.63 168.05z" class="C D G P"/><path d="M2221.84 1937.7c58.5-1.02 105-54.87 103.86-120.3-1.15-65.4-49.5-117.6-108-116.6-58.5 1.02-105 54.88-103.86 120.3 1.14 65.42 49.5 117.62 108 116.6z" class="B"/><path d="M2288.34 1764.4c21.94-8.2 33.4-31.8 25.58-52.72-7.8-20.92-31.94-31.23-53.9-23.03-21.94 8.2-33.4 31.8-25.58 52.73 7.82 20.9 31.94 31.22 53.9 23.02z" class="C D G K"/><g class="B"><path d="M2573.77 1764.6c-.66 123.27-72.75 268.13-190.88 317.2 95.3-61.62 152.08-188.08 152.66-297.55.96-183.58-181.1-431.24-385.95-355.18 26-15.6 54.3-26.14 84.37-30.17 172.17-23.04 340.8 175.53 339.8 365.7z" class="Q"/><path d="M2295.1 1986.4c60.86-43.65 92.6-129.07 73.87-217.3-22.4-105.54-126.48-201.4-238.74-163.7 17.03-11.63 36.17-19.82 56.34-24.1 97.76-20.75 196.54 54.48 220.65 168 22.3 105.1-27.16 206.17-112.12 237.1z" class="E"/><path d="M1785 2099c0 76.35 98.85 169 216.26 168 108.22-.95 213.74-92.55 213.74-167.78 0-152.13-430-154.42-430-.22z" class="H"/></g><path d="M1782 2081c0 76.35 100.23 169 219.27 168 109.73-.95 216.73-92.55 216.73-167.78 0-60.53-126.24-113.77-216.73-113-84.02.78-219.27 41.16-219.27 112.78z" class="I"/><path d="M1783.58 2067.77c41.76 54.75 124.68 100.94 217.85 100.22 86.2-.68 170.92-47.12 214.1-101.55 1.62 4.86 2.48 9.8 2.48 14.78 0 75.23-107 166.83-216.73 167.78-119.04 1-219.27-91.65-219.27-168 0-4.54.54-8.95 1.58-13.23z" class="B L"/><path d="M1910 3556c32 0 63.1-23.6 66.7-56.14 9.1-82.2-94.35-89.68-150.67-90.92-57.1-1.25-154.03 9.56-171.02 72.27-14.85 54.8 36.5 74.8 73 74.8s49-12.15 92.98-12.15c38.4 0 57.02 12.15 89.02 12.15z" class="C D G J"/><path d="M1909 3534c-32 0-50.6-12.15-89.02-12.15-43.98 0-56.48 12.15-92.98 12.15-28.4 0-65.75-12.1-73.97-43.26-6.73 47.6 40.67 65.26 74.97 65.26 36.5 0 49-12.15 92.98-12.15 38.4 0 57.02 12.15 89.02 12.15 42.86 0 73-34.15 65.9-80.26-2.97 33.46-34.04 58.26-66.9 58.26z" class="B H"/><path d="M2090 3556c-32 0-63.1-23.6-66.7-56.14-9.1-82.2 94.35-89.68 150.67-90.92 57.1-1.25 154.03 9.56 171.02 72.27 14.85 54.8-36.5 74.8-73 74.8s-49-12.15-92.98-12.15c-38.42 0-57.02 12.15-89.02 12.15z" class="C D G J"/><path d="M2091 3534c32 0 50.6-12.15 89.02-12.15 43.98 0 56.48 12.15 92.98 12.15 28.4 0 65.75-12.1 73.97-43.26 6.73 47.6-40.67 65.26-74.97 65.26-36.5 0-49-12.15-92.98-12.15-38.4 0-57.02 12.15-89.02 12.15-42.86 0-73-34.15-65.9-80.26 2.97 33.46 34.04 58.26 66.9 58.26z" class="B H"/><path d="M2000.4 2770.5c275 0 572-112.5 663.25-379.44 15.25-42.3-22.1-84.98-67.45-78.53-197.53 28.07-396.8 42.15-596.3 42.15s-398.78-14.1-596.3-42.15c-45.32-6.44-82.16 36-67.46 78.53C1428.4 2658 1725.4 2770.5 2000.4 2770.5z" fill="#3d0c0c"/><path d="M2578.2 2512.04c32.74-40.14 56-82.74 67.74-125.83 8.9-32.67-14.7-60.04-47.04-55.45-396.36 55.5-801.44 56.2-1197.8.01-32.4-4.56-55.98 22.77-47.08 55.44 11.74 43.1 34.97 85.7 67.74 125.83 383.1 52.47 773.36 52.94 1156.43 0zM2000.4 2752c198.56.34 414.2-65.72 553.93-212.94-367.46 48.34-741.25 48.3-1108.7.03 140.78 148.35 354.63 212.57 554.78 212.9z" class="K"/><g class="B"><path d="M2645.95 2386.22c-11.75 43.08-35 85.68-67.74 125.82l-88.92 11.23c42.55-59.77 72.34-124.18 92-190.06l17.54-2.44c32.43-4.6 56.02 22.77 47.12 55.45zm-1224.2 125.82l89.57 11.3c-42.7-59.7-72.52-124.15-92.1-190.05l-18.12-2.53c-32.4-4.55-55.98 22.77-47.08 55.45 11.74 43.1 34.97 85.68 67.74 125.82zm23.85 27c78.35 82.56 182.38 141.73 290.3 173.75-86.43-45.37-154.18-101.8-206.6-163.6l-83.7-10.14zM2266.36 2712c107.2-32.23 209.97-90.74 287.98-172.94l-82.92 10.07c-52.28 61.44-119.58 117.48-205.06 162.87z" class="H"/><path d="M1999.97 2825.94c-12.66-44.1-53.58-66.33-98.14-64.26-9.06-163.34-111.67-290.67-263.5-351 28.9 7.87 124.1 38.13 143.27-1.97 22.42-46.96-66.26-94.64-98.36-109.5-23.06-10.7-40.17-14.8-45.76-10.97-15.4 10.47 33.68 38.24 39.03 41.3 41.88 23.98 15.7 29.88-20.8 24.25-137.32-21.2-283.68-11.1-399.64 73.34-4.9-9.24-11.95-16-22.77-14-11.63-48.02-76.8-52.85-105.3-89.54-2.5 11.9-3.37 33.9-3.37 42.9 8.72 19.6 24.8 35.97 40.12 46.56-25.55 3.52-48.02 11.46-63.75 31.94 14 5.24 46 19.97 65.5 52.5 12-8 25.88-15.94 40.8-37.3 1.23 1.75 2.66 3.42 4.3 4.78-49.92 48.44 431.35 599.95 495.4 736.53 64.5-23 116.53-73.2 148.33-142.53 91.27-28.7 173.12-134.15 144.64-233.03zm-195.2 402.98c-27.3-22.9-59.34-27.2-88.76-14.52 3.5 9.6 6 14.52 9.5 20.84 21.58-8.5 44-4.13 64.32 12.24 17.38 14 31.46 59.2 12.9 72.52 4.8 6 10.8 11 17.66 16 29.65-27.32 13.76-82.48-15.6-107.08z" class="E"/></g><path d="M1574.9 3441.83c-22.13-3.23-50.2-14.06-85.8-33.12-5.17-2.77-7.26-9.53-4.46-14.75 2.76-5.18 9.52-7.26 14.74-4.47 32.9 17.6 59.36 27.95 78.67 30.77 12.6 1.85 21.68.44 26.97-4.2 5.93-5.2 5.4-14.38 3.85-31.55-1.82-20.1-4.08-45.12 8.62-73.88 19.18-43.46 66.96-84.78 117.28-77 31.96 4.95 62.58 28.85 69.6 61.27 6 27.62-2.62 65.46-32.04 76.03-19.52 6.97-41.8-1.03-57.03-13.98-4.55-3.8-5.2-10.9-1.33-15.45 3.84-4.5 10.96-5.07 15.46-1.14.2.15 19.03 15.97 35.52 10.05 18.67-6.7 21.7-34.4 18.1-50.9-5.12-23.63-28.6-40.78-51.65-44.35-40.46-6.25-78.8 29.85-94.02 64.28-10.42 23.6-8.52 44.6-6.85 63.1 1.75 19.1 3.36 37.16-11.2 49.9-12.05 10.64-29.23 11.68-44.46 9.4z" class="C D F I"/><path d="M1797.85 3300.14c4.8 22.24.5 49.92-16.5 66.28 22.4-14.7 28.36-46.88 23.02-71.5-7.03-32.43-37.65-56.33-69.6-61.28-28.88-4.46-57.44 8.1-79.12 26.5 49.73-35.2 127.82-26.3 142.2 40zm-30.1 49.04c-11.78 13.7-32.94 6.65-44.84-3.6-1.37-1.16-3-1.97-4.77-2.35s-3.58-.32-5.3.18c1.73-3.2 5.07-5.34 8.68-5.63 2.88-.23 5.73.7 7.93 2.57 9.62 8.5 26.08 15.33 38.3 8.82zm-280.73 41.6c1.53-1.3 6.76-3.93 10.03-2.4 3.04 1.42 6.68 3.22 10.77 5.24 21.54 10.64 55.56 27.45 80.1 27.45 21.8 0 23.75-10.9 20.7-39.66.37 1.66.84 3.5 1.33 5.45 4.2 16.45 10.5 41.18-22.03 41.18-35.52 0-91-30.76-100.9-37.26z" class="B L"/><path d="M1275 3379.23c15.9 0 28.62-14.2 27.04-29.82-2.36-27.7 8.1-57.6 28.74-86.47 18.77-26.25 38.88-40.64 23.4-57.6s-50.37 1.7-67.73 25.93c-28.64 40.06-42.36 82.42-38.63 123.64 1.4 13.72 11.26 24.33 27.17 24.33z" class="C D F I"/><path d="M1260.22 3340.95c-.18-48.94 39.06-121.02 85.04-141.28-56.66-9.16-106.78 101.76-97.07 153.3 3.14-5.13 8.6-10.14 12.03-12.03z" class="B E"/><path d="M1437.3 3509.76c2.18-37.95 11.94-67.3 20.56-90.13s18.5-63.06-18.55-72.36c-52.95-13.28-82.07 110.76-84.25 148.6-1.27 22.26 16.05 48.08 38.53 49.37 20.7 1 42.47-13.86 43.7-35.48z" class="C D F I"/><path d="M1354.53 3495.8c22.45-3.05 64.5-3.05 82.16 14.82l.72-6.55c-18.37-16.1-60.2-17.2-81.94-14.15-.12 1.44-.82 4.42-.94 5.88zm6.97-39c20.8 19.3 47.45 30.12 77.58 34.2.25-2.18.78-5.3 1.08-7.4-29.9-3.87-55.87-16.4-76.7-35.3-.87 2.6-1.58 6.65-1.96 8.5z" class="B E"/><path d="M1472.7 3509.76c-2.18-37.95-11.95-67.3-20.56-90.13-8.62-22.83-18.5-63.06 18.55-72.36 52.95-13.28 82.07 110.76 84.24 148.6 1.28 22.26-16.04 48.08-38.52 49.37-20.7 1-42.47-13.86-43.7-35.48z" class="C D F I"/><path d="M1555.46 3495.8c-22.44-3.05-64.5-3.05-82.15 14.82l-.72-6.55c18.37-16.1 60.2-17.2 81.94-14.15.12 1.44.82 4.42.93 5.88zm-6.96-39c-20.8 19.3-47.45 30.12-77.58 34.2-.25-2.18-.78-5.3-1.1-7.4 29.9-3.87 55.88-16.4 76.7-35.3.87 2.6 1.58 6.65 1.96 8.5z" class="B E"/><path d="M1635 3379.23c-15.9 0-28.62-14.2-27.04-29.82 2.36-27.7-8.12-57.6-28.75-86.47-18.76-26.25-38.88-40.64-23.4-57.6 15.47-16.97 50.36 1.7 67.72 25.93 28.64 40.06 42.36 82.42 38.63 123.64-1.4 13.72-11.25 24.33-27.16 24.33z" class="C D F I"/><path d="M1649.78 3340.95c.18-48.94-39.06-121.02-85.04-141.28 56.66-9.16 106.78 101.76 97.07 153.3-3.15-5.13-8.6-10.14-12.03-12.03z" class="B E"/><path d="M1948.88 2806.16c48.42 44.46 28.9 134.8-3.96 186.17-46.84 73.22-154.06 119.3-208.97 80.36-57.35-40.7-49.86-168.64 17.1-235.06 49.98-49.6 145.76-77.44 195.84-31.47z" class="C D F J"/><path d="M1892.35 2858.5c28.76 29.72 13.12 85.72-9.44 116.75-32.14 44.22-101.18 69.17-134.2 42.66-34.5-27.7-25-107.75 19.5-146.96 33.23-29.27 94.42-43.18 124.14-12.45z" class="O"/><path d="M1944.92 2992.33c-26.45 41.34-85.03 88.57-151.06 94.45 46.35-10.9 113.32-58.33 133.64-90.1 32.87-51.37 50.28-147.74 3.96-186.17-14.12-11.72-50-28.38-99.25-19.67 60.15-18.52 97.1-2.67 116.7 15.3 48.4 44.45 28.88 134.8-3.98 186.17z" class="B H"/><path d="M961.123 2806.16c-48.42 44.46-28.905 134.8 3.96 186.17 46.836 73.22 154.056 119.3 208.966 80.36 57.35-40.7 49.86-168.64-17.1-235.06-49.98-49.6-145.76-77.44-195.837-31.47z" class="C D F J"/><path d="M1017.65 2858.5c-28.764 29.72-13.12 85.72 9.44 116.75 32.14 44.22 101.18 69.17 134.2 42.66 34.5-27.7 25-107.75-19.5-146.96-33.23-29.27-94.42-43.18-124.14-12.45z" class="O"/><path d="M965.083 2992.33c26.45 41.34 85.027 88.57 151.057 94.45-46.35-10.9-113.32-58.33-133.64-90.1-32.866-51.37-50.278-147.74-3.962-186.17 14.125-11.72 50.003-28.38 99.253-19.67-60.15-18.52-97.1-2.67-116.686 15.3-48.403 44.45-28.887 134.8 3.98 186.17z" class="B H"/><path d="M1455 3118.16c67.12 0 95.88 58.84 113.32 107.22 17.43 48.38 25.27 95.88 25.27 127.26 0 66.25-60.44 133.13-138.6 133.8-76.5.66-138.6-67.55-138.6-133.8 0-31.38 7.7-79.1 25.27-127.26 17.44-48.38 46.2-107.22 113.32-107.22z" class="C D F I"/><path d="M1455 3486.44c-76.56.7-143.83-68.42-138.6-146.87 4.36 64.5 63.27 125.73 138.6 125.08 75.33-.64 134.24-60.58 138.6-125.08 5.23 78.45-62.03 146.18-138.6 146.87z" class="B E"/><path d="M1455 3172.2c45.33 0 69.73 29.63 75.83 55.78 15.04 64.43 27.9 119.42 1.75 152.55-26.15 33.12-58.82 35.73-77.58 35.73-20.72 0-51.43-2.6-77.58-35.73-26.15-33.13-14.14-84.48 1.74-152.55 6.1-26.15 30.5-55.78 75.84-55.78z" class="C D F J"/><g class="B"><path d="M1455 3416.27c-59.28 0-97.63-40.96-92.83-94.14 1.74 50.12 41.84 82.8 92.83 82.8s91.1-32.7 92.83-82.8c4.8 53.18-33.56 94.14-92.83 94.14z" class="H"/><path d="M1627.15 3235.84c-50.27 19.7-118.1 34.43-172.15 34.43s-113.03-11.52-172.16-34.43c-3.15 4.6-7.24 11.45-10.02 16.12 61.9 24.85 119.85 37.5 182.18 37.5 62.32 0 120.3-12.64 182.18-37.5-2.7-4.66-6.95-11.48-10.03-16.12z" class="E"/></g><path d="M1673.06 2373.33c18.44-15.63-54.2-33.13-63.86-60.8-11.68-33.34 172.4 55.4 144.5 113.8-2.18 4.58-24.16 40.97-182-10.36 173.53 56.3 304.93 175.7 304.3 396.7-.47 169.43-152.57 431.82-421.2 434.16-259.15 2.27-421.3-259.85-420.82-434.16.57-212.88 188.33-431.9 421-448.26 139.2-9.78 202.8 21.84 218.06 8.94z" class="C F I V"/><path d="M1701.3 2383.06c-12.92 28.4-92.3-17.43-231.52-7.64-284.8 20.02-491.155 336.1-376.8 592.33 29.7-30.67 65.87-39.4 77.4-43.22 3.46 3.74 7.67 7.7 9.17 9.5-35.46 11.05-76.67 35.05-94.4 68.36-33.24-64.33-51-131.86-50.8-189.73.57-212.88 188.37-431.9 421.05-448.28 139.2-9.8 202.47 21.83 217.74 8.9 18.38-15.58-54.25-33.08-63.92-60.75-3.73-10.66 12.56-8.83 35.54.5-8.7-1.25-13.5.8-11.13 6.92 8.44 21.96 78.58 39.23 67.7 63.12zm174.06 429.62c-.16 55.67-16.6 121.38-48.18 184.6-32.67-44.73-91.2-62.6-97.17-62.6l8.72-10.68c10.24 2.4 56.05 12.16 81.62 46.3 25.84-57.6 37.7-111.2 37.85-161.64.64-228.48-154.12-342.06-286.5-392.7 173.53 56.3 304.28 175.72 303.66 396.72z" class="B E"/><path d="M1335.15 2532.2c-129.45 0-289.83 273.92-158.43 400.3-250.822 78.45 0 339.5 278.28 339.5s529.1-261.06 278.28-339.5c131.4-126.4-28.98-400.3-158.43-400.3-55.13 0-85.2 25.5-119.85 50.77-34.65-25.28-64.72-50.77-119.85-50.77z" fill="#ffcd98" class="C F"/><g class="B"><path d="M1781.48 2799.57c-6.84-134.47-115.5-267.25-209.85-267.25-58.66 0-94.23 35.8-116.63 50.64-17.9-12.22-57.75-50.64-116.98-50.64-111.4 0-208.37 162.65-210.13 271.4-9.8-117.03 80.02-292.67 210.74-292.67 68 0 104.17 32.7 116.37 46.2 12.2-13.5 48.38-46.2 116.37-46.2 129.7 0 219.44 166.27 210.1 288.52z" class="E"/><path d="M1128.3 2795.38c-3.1 51.2 10.47 100.25 48.57 136.9-4.54 1.42-8.92 3.34-13.14 4.88 9.73-3.14 19.03-5.35 29.78-7.28-36.85-35.44-58.17-83.57-65.2-134.5zm-44.37 200.17c-59.24 106.9 145.7 276.24 371.07 276.24s432.86-171.2 370.35-278c41.56 97.68-156.48 261.66-370.35 261.66-212.6 0-409.55-162.03-371.07-259.9zm663.3-58.25c-9.5-2.8-19.44-5.4-30.73-7.4 37.2-35.76 58.56-84.47 65.4-135.9 3.44 51.7-10.02 101.32-48.48 138.3 4.93 1.54 9.26 3.33 13.8 5z" class="H"/></g><path d="M1350.25 2619.16c67.5 7.85 116.14 90.98 108.96 164.2-7.14 72.93-70.9 149.06-143.77 140.77-66.16-7.54-109.07-81.16-110.5-143.02-1.88-82.88 70.1-170.7 145.3-161.96z" class="K"/><path d="M1432.22 2803.15c9.63-49.66-17.22-96.65-59.97-104.94-42.76-8.3-85.23 25.24-94.87 74.9-9.63 49.67 17.22 96.66 59.97 104.95 42.76 8.3 85.23-25.24 94.87-74.9z" class="C D F P"/><path d="M1359.64 2853.86c25.5 0 46.17-23.12 46.17-51.63s-20.67-51.63-46.17-51.63-46.17 23.12-46.17 51.63 20.67 51.63 46.17 51.63z" class="B"/><path d="M1400.47 2766.15c3.25-9.18-1.92-19.38-11.55-22.78-9.62-3.4-20.06 1.26-23.3 10.44-3.24 9.17 1.93 19.37 11.55 22.78 9.63 3.4 20.06-1.27 23.3-10.44z" class="C D F K"/><g class="B"><path d="M1383.47 2629.6c-89.07-24.36-163.2 81.17-161.4 160.4 1.08 46.74 25.87 100.15 66.55 127.1-50.73-21.26-82.46-82.95-83.68-135.98-1.88-82.86 70.1-170.67 145.3-161.94a94.656 94.656 0 0 1 33.23 10.42z" class="Q"/><path d="M1395.56 2707.4c-49.18-13.98-92.72 28.46-101.6 74.28-7.3 37.64 6.13 73.75 31.53 93-35.7-13.95-56.76-56.63-48.05-101.5 9.64-49.7 52.1-83.2 94.87-74.9 8.24 1.6 16.13 4.7 23.26 9.13z" class="E"/></g><path d="M1556.98 2617.35c-67.35 9.02-114.53 93-106.08 166.1 8.4 72.78 73.5 147.8 146.2 138.22 66.02-8.7 107.65-83.05 107.97-144.93.43-82.87-73.07-169.42-148.1-159.38z" class="K"/><path d="M1574.3 2876.14c42.6-9.04 68.63-56.5 58.13-105.98-10.5-49.48-53.55-82.27-96.15-73.23-42.6 9.04-68.63 56.48-58.13 105.97s53.55 82.28 96.15 73.24z" class="C D F P"/><path d="M1551.7 2852.18c25.5-.45 45.76-23.92 45.26-52.43s-21.57-51.26-47.07-50.8c-25.5.44-45.76 23.9-45.26 52.42s21.57 51.26 47.07 50.82z" class="B"/><path d="M1580.67 2776.64c9.56-3.57 14.55-13.86 11.15-22.98-3.4-9.1-13.92-13.6-23.5-10.03-9.56 3.57-14.56 13.86-11.15 22.98 3.4 9.1 13.92 13.6 23.5 10.03z" class="C D F K"/><g class="B"><path d="M1705.07 2776.73c-.3 53.73-31.7 116.86-83.2 138.25 41.53-26.85 66.28-81.97 66.53-129.68.42-80-78.93-187.95-168.2-154.8 11.33-6.8 23.66-11.4 36.77-13.15 75.04-10.04 148.54 76.5 148.1 159.38z" class="Q"/><path d="M1583.6 2873.4c26.52-19.02 40.36-56.25 32.2-94.7-9.76-46-55.12-87.78-104.05-71.34 7.43-5.07 15.77-8.64 24.56-10.5 42.6-9.04 85.66 23.74 96.17 73.22 9.7 45.8-11.84 89.86-48.87 103.34z" class="E"/><path d="M1361.3 2922.48c0 33.27 43.1 73.65 94.26 73.22 47.16-.42 93.15-40.34 93.15-73.13 0-66.3-187.4-67.3-187.4-.1z" class="H"/></g><path d="M1360 2914.63c0 33.28 43.68 73.66 95.56 73.22 47.83-.4 94.46-40.34 94.46-73.12 0-26.38-55.02-49.6-94.46-49.25-36.62.34-95.56 17.94-95.56 49.15z" class="I"/><path d="M1360.68 2908.86c18.2 23.86 54.33 44 94.94 43.68 37.58-.3 74.5-20.53 93.3-44.26.7 2.12 1.08 4.27 1.08 6.45 0 32.78-46.63 72.7-94.46 73.12-51.88.44-95.56-39.94-95.56-73.22 0-1.98.23-3.9.7-5.77z" class="B L"/><path d="M1415.77 3557.48c13.95 0 27.5-10.28 29.07-24.46 3.97-35.84-41.12-39.1-65.66-39.63-24.9-.55-67.13 4.17-74.54 31.5-6.47 23.88 15.9 32.6 31.8 32.6s21.36-5.3 40.53-5.3c16.74 0 24.85 5.3 38.8 5.3z" class="C D F J"/><path d="M1415.34 3547.9c-13.95 0-22.06-5.3-38.8-5.3-19.17 0-24.6 5.3-40.52 5.3-12.38 0-28.66-5.28-32.24-18.86-2.93 20.75 17.73 28.44 32.67 28.44 15.9 0 21.36-5.3 40.53-5.3 16.74 0 24.85 5.3 38.8 5.3 18.68 0 31.8-14.88 28.72-34.98-1.3 14.6-14.83 25.4-29.16 25.4z" class="B H"/><path d="M1494.22 3557.48c-13.94 0-27.5-10.28-29.06-24.46-3.98-35.84 41.12-39.1 65.66-39.63 24.9-.55 67.13 4.17 74.54 31.5 6.47 23.88-15.9 32.6-31.8 32.6-15.9 0-21.36-5.3-40.53-5.3-16.74 0-24.85 5.3-38.8 5.3z" class="C D F J"/><path d="M1494.66 3547.9c13.94 0 22.05-5.3 38.8-5.3 19.17 0 24.62 5.3 40.53 5.3 12.37 0 28.66-5.28 32.24-18.86 2.93 20.75-17.73 28.44-32.68 28.44-15.9 0-21.35-5.3-40.52-5.3-16.74 0-24.85 5.3-38.8 5.3-18.68 0-31.8-14.88-28.72-34.98 1.3 14.6 14.83 25.4 29.16 25.4z" class="B H"/><path d="M1281.28 3428.43c24.76.02 40.52-29.7 25.53-50.24 6.94-19.7-7.88-41.58-29.05-42.08-24.4-.58-38.5 25.5-35.96 47.56 2.4 20.62 16.36 44.74 39.48 44.76z" class="C D F J"/><path d="M1241.8 3383.68c2.96 25.52 23.7 55.26 54.64 40.88-30-3.84-51-54.7-36.22-83.6-2.35 1.67-6.05 3.63-12.03 12.03-5.36 9.47-7.7 20.13-6.4 30.7z" class="B H"/><path d="M1628.72 3428.43c-24.76.02-40.52-29.7-25.53-50.24-6.94-19.7 7.88-41.58 29.05-42.08 24.4-.58 38.5 25.5 35.96 47.56-2.4 20.62-16.36 44.74-39.48 44.76z" class="C D F J"/><path d="M1668.2 3383.68c-2.96 25.52-23.7 55.26-54.65 40.88 30-3.84 51-54.7 36.23-83.6 2.35 1.67 6.05 3.63 12.03 12.03 5.35 9.47 7.7 20.13 6.4 30.7z" class="B H"/><path d="M1465.9 3183.36c61.4 0 111.2-32.37 111.2-72.3 0-39.92-49.8-72.3-111.2-72.3-61.42 0-111.2 32.37-111.2 72.3 0 39.93 49.78 72.3 111.2 72.3z" class="C D M T"/><path d="M1465.9 3071.06c24.08-.1 70.03 9.34 70.03 40 0 20-24.48 31.88-40.8 36.18-27 7.18-99.24 5.52-99.24-36.18 0-30.76 47.1-40.1 70.02-40zm0-15.77c-47.38 0-85.8 24.97-85.8 55.77 0 30.8 38.4 55.78 85.8 55.78s85.8-24.97 85.8-55.78c0-30.8-38.4-55.77-85.8-55.77z" fill="#ffcae5"/><path d="M1577.1 3111.07c0 39.92-49.8 72.3-111.2 72.3-57.5 0-104.8-28.38-110.6-64.77 17.03 25.74 56.38 43.76 102.2 43.76 42.54 0 119.65-23.3 110.6-79.82 5.77 8.4 8.9 18.34 9 28.54z" class="B L"/><path d="M1565.88 3133.97c15.44 31.02-13.2 65.02-39.67 78.06-26.66 13.5-70.5 15.47-86.2-15.43-15.43-31.03 13.2-65.03 39.67-78.07 26.66-13.5 70.48-15.5 86.2 15.44zm-98.37-39.9c-48.27 24.02-71.54 75.38-51.97 114.7 22.36 44.93 82.64 48.02 122.85 27.73 48.27-24.02 71.53-75.38 51.96-114.7-22.36-44.93-82.64-48.02-122.84-27.73z" class="C D M T"/><path d="M1597 3145.43c-4.6 53.06-58.76 90.36-109.28 90.7-37.8 0-75.36-24.02-78.83-63.6-3.9 48.97 36.14 76.2 78.83 76.2 54-.37 114.56-44.68 109.28-103.3zm-117.32-26.9c29.33-14.84 83.9-13.93 89.8 27.02 12.8-76.8-145.13-54.44-133.08 26.84 3.32-22.74 17.4-41.1 43.28-53.86z" class="B L"/><path d="M1463.17 3087.82l-13 8.88c-9 6.14-11.33 18.42-5.2 27.42l10.02 14.7c6.14 9 18.42 11.33 27.42 5.2l13.02-8.87c9-6.14 11.32-18.42 5.18-27.43l-10-14.7c-6.14-9-18.42-11.33-27.43-5.2z" fill="#f48eb8" class="C D T"/><g class="B"><path d="M1482.42 3143.98c-6.52 4.45-15.34 4.52-21.92.2-6.9-4.52-11-13.47-15.52-20.1-1.93-2.84-3.1-6.13-3.37-9.56-.27-3.42.36-6.86 1.82-9.97 3.57 7.63 9.76 18.02 17.07 22.8 4.34 2.85 9.75 3.87 14.84 2.8 9.1-1.9 22.68-10.93 26.84-19.8 2 4.25 2.4 9.07 1.18 13.6-2.7 9.9-13.1 14.65-20.94 20z" class="L"/><path d="M1298.66 3047c5.75-4.5 26.38 14.25 24.06 43.87-2.14 27.36-24.06 60.26-31.28 54.8-5.2-3.92 19.16-26.7 21.32-54.07 2.65-33.5-18.83-40.9-14.1-44.6zm334.8 0c-5.75-4.5-26.38 14.25-24.06 43.87 2.14 27.36 24.06 60.26 31.28 54.8 5.2-3.92-19.16-26.7-21.32-54.07-2.65-33.5 18.83-40.9 14.1-44.6z" class="E"/></g><path d="M1067.65 2494.42c-8.77-1.94-13.6-3-14.5-5.25-.27-.73-.14-1.57.34-2.18 23.8-35.6 62.46-61 106.67-55.9 27.98 3.7 31.54 24.12 17.17 45.9-34.2 47.07-69.13 26.47-109.67 17.43z" class="C F M"/><path d="M1063.28 2479.55c6.6 1.47 13.04 3.24 19.35 4.98 32.53 8.97 61.68 17 90.32-22.42 4.92-7.46 7.73-14.76 8.2-21.28 7.23 8.8 5.4 22.2-3.82 36.16-28.63 39.4-57.78 31.38-90.3 22.42-6.1-1.68-32.76-7.2-33.87-10.24-1.1-3.02 4.68-8.37 6.3-10.48l3.84.86z" class="B E"/><path d="M1181.36 2456.28c-55.2-2.8-95.8-69.16-91-118.15.17-1.74 2.22-1.25 3.08.01 25.78 37.98 75.7 40 103.42 83.65 9.25 14.57 2.74 35.48-15.5 34.5z" class="C F M"/><path d="M1092.08 2337.1c3.97 46.3 41.67 99.62 91.03 102.12 5.8.3 12.18-1.6 17.9-4.8.74 11.63-6.32 22.57-19.64 21.85-55.2-2.8-95.8-69.16-91-118.15.1-1.06.9-1.3 1.7-1.03z" class="B E"/><path d="M1171.8 2468.5c-1.92-8.27 7.34-14.48 11.05-17.05 6.42-4.45 18.6 5.58 22.1 10.8 14.97 22.45-24.85 42.1-33.15 6.24z" class="C F M"/><path d="M1171.8 2467.18c-.44-9.63 10.82-14.38 13.18-16.36 0 0 1.96.74 4.66 1.97-16.53 11.47-10.43 29.78 7.48 36.66-17.1 2.55-25-15.38-25.32-22.27z" class="B E"/><path d="M1183.72 2446.22c1.1-11.02 17.1-15.87 26.5-14.4 8.85 1.45 17.24 13.3 17 22.22-.65 24.52-45.78 14.77-43.5-7.8z" class="C F M"/><path d="M1218.06 2466.42c-13.95 5.34-35.8-4.93-34.2-21 .9-8.95 13.97-12.7 22.35-13.05-28.04 7.16-8.1 33.44 11.84 34.05zM1808 2575.9c-115.08 49.66-615.6 24.1-670.97-35.94 15.33-19.07 32.03-37 49.97-53.64 29.4-27.28 514.23-13.08 546.62 11.98 27.56 21.32 53.84 49.44 74.38 77.6zm-557.6-139.4c10.27-6.77 19.8-13.5 30.56-19.43 58.08 11.2 280.72 19.56 345.34 19.06 18.67 7.98 36.92 16.94 54.57 27 52.3 29.82-474.74 2.55-430.47-26.62z" class="B E"/><path d="M1798.37 2557.9c1.02 2.2-.12 4.9-2.36 5.73-114.8 43.07-588.57 31.76-649.17-37.37-9.12-10.4 106.55-107.5 123.04-103.2 49.24 12.8 326.14 19.85 368.58 19.85 29.96 0 141.5 75.45 159.9 115z" class="C D F M"/><path d="M1798.67 2560.58c-.3 1.38-1.32 2.54-2.65 3.04-114.8 43.07-581.22 31.76-648.3-36.95-10.8-11.06 86.64-91.22 117.05-102.16-20.05 12.05-108.74 85.77-102.17 95.16 39.94 57.1 501.8 78.94 636.07 40.9z" class="B E"/><path d="M1512.76 2555.28c-58.33 7.37-85.2-44.15-80.42-49.18 3.14-3.32 8.03-3.52 12.27-3.63 19.5-.53 47.1 22.3 52.7 22.2 10.84-.22 27.16-17.5 37.84-31.77 4.48-5.96 32.42-14.94 29.32.72-10.04 50.8-44.28 60.72-51.7 61.66zm-81.18-96.13c58.33-7.37 85.2 44.15 80.42 49.18-3.14 3.32-8.03 3.52-12.27 3.63-19.5.53-47.1-22.3-52.7-22.2-10.85.22-27.16 17.5-37.85 31.76-4.47 5.97-32.4 14.95-29.32-.7 10.05-50.8 44.3-60.73 51.72-61.66z" fill="#fbdd11" class="C F R"/><path d="M2298.5 3185.5c-41-16-69-36.75-97.3-72.8-3.83 7.78-13.88 9.14-21.64 9.14-16.4 0-32.33-12.9-44.64-22.5-17.56-13.73-33.4-30.07-42.4-43.7-11.78-17.9-7.56-29.43-1.95-48 2.17-9.3 2.25-16.63.22-21.84-4.94-12.63-12.56-8.82-23.83-8.52-21.74 0-48.8-24.13-55.98-43.9-7.8-21.52 10.92-48.14 33.88-48.14 30.16 0 58.36 29.4 61.65 57.57.75 6.45 8.96 8.25 14.43 8.22 18.22 0 29.48-18.7 46.9-18.7 31.7 0 94.27 38.92 103 71.08 2.17 7.97 3.95 19.23-3.32 25.24 14.7 6.74 38.68 18.44 48.97 27 1.95 42.95-4.2 88.65-18 129.87z" class="B H"/><use xlink:href="#B" class="S"/><path d="M2167.18 2986.14c-2.08-1.65-4.7-2.43-7.35-2.2 1.78-.93 3.8-1.32 5.8-1.13 2 .18 3.9.95 5.48 2.2l48.05 37.9-2.06 2.6-49.9-39.37zm69.84 32.94c1.4 1.12 1.67 3.23.55 4.65l-6.66 8.44 276.46 218.04-12.9 16.37-1.86-1.46 10.85-13.77L2227 3033.3l6.66-8.45c1.1-1.4.87-3.53-.55-4.64-1.7-1.34-3.5-3.35-5.52-4.18.86-1.1 2.22-1.64 3.6-1.25 2.17.6 4.13 2.93 5.85 4.3z" class="N"/><path d="M2157.52 3001.45c-5.83-4.6-4.94-14 1.65-17.43-8.7 1.3-11.95 12.92-4.9 18.5l49.92 39.36-6.66 8.45c-2.83 3.58 4.42 9.36 7.6 9.05.85-.08 1.63-.5 2.2-1.14-2.23-.5-4.28-2.97-6-4.32-1.4-1.1-1.67-3.24-.55-4.65l6.66-8.44-49.92-39.37zm58.05 49.37l1.77-2.23 274.97 216.87-1.76 2.23-274.98-216.87z" opacity=".5" class="K"/><path d="M2173.36 3104.4c17.98 11.44 33.96 4.1 37.65.57 12.46-10.2-8.8-42-14.6-50.88-11.1-16.76-12.85-26.85-13.66-31.52 4.77-4.64 5.96-12.07 2.9-17.97-3.07-5.9-9.83-9.2-16.37-7.97-6.55 1.23-11.65 6.74-12.37 13.36s3.08 13.1 9.2 15.7c.5 8.52 2.02 21.63 6.6 31.78-22.4-33.53-62.23-30.9-72.6-29.17 3.03 25.6 55.3 64.65 73.3 76.1z" class="S"/><path d="M2210.62 3107.5c3.88-3.5 5.02-10.66 4.3-14.3-2.92-14.4-8.17-27.43-16.22-39.74-11.1-16.76-12.84-26.85-13.66-31.5 5.28-5.15 6.07-13.8 1.76-19.82-3.9-5.47-11.16-7.76-17.5-5.52 6.53-1.2 13.28 2.08 16.34 8 3.06 5.9 1.86 13.3-2.9 17.95.8 4.66 2.57 14.76 13.66 31.52 8.1 12.36 12.93 25.13 15.86 39.57.78 3.94-.23 10.08-1.64 13.85z" class="N"/><path opacity=".5" d="M2163.56 3024.32c-5.78-5.34-6.5-14.5-1.63-20.7 4.88-6.18 13.95-7.6 20.5-3.24-6.37-5.83-16.98-5.03-22.35 1.78s-3.77 17.24 3.48 22.15zm10.98 34.6c-4.57-10.14-6.1-23.25-6.58-31.77-.64-.27-1.25-.58-1.83-.93.48 7.8 1.8 19.15 5.47 28.63 1 1.3 2 2.65 2.94 4.07z" class="K"/><path d="M2174.37 3059.12c-4.2-10.78-19.73-31.08-37.95-32.75 14 6.05 28.25 18.33 37.95 32.75z" class="N"/><path d="M2270 2980c15.32 14.82 13.14 32.35 10.57 36.76-6.9 14.23-41.14 1.87-52.9-2.35-18.88-6.87-29.1-6.23-33.83-5.93-3.46 5.82-10.74 8.72-17.27 6.88-5.88-1.66-10.3-6.84-11.02-12.92-1.1-9.33 6.9-17.77 16.37-17.02 4.37.34 8.48 2.62 11.08 6.14 8.4-1.5 21.5-3.1 32.44-1-37.83-14-50.45-43.56-45.45-63.56 25.62-3.03 74.68 38.17 90 53z" class="S"/><path d="M2282.9 3015.5c-5.4 12-28.6 8.02-36.33 6.5-17.8-3.46-34.2-12.3-52.77-11.14-7.9 13.27-29.97 6.62-28.3-9.4.77 14.85 21.03 19.35 28.36 7.03 18.56-1.18 34.97 7.68 52.78 11.13 25.37 4.93 32.87-1.1 36.27-4.1z" class="N"/><path opacity=".5" d="M2191.1 2989.4c-6.54-4.37-15.6-2.93-20.5 3.24-4.87 6.18-4.37 15 1.4 20.35-7.26-4.9-8.62-15-3.26-21.8 5.37-6.8 16-7.63 22.35-1.78zm36.2 2.62c-10.93-2.08-24.03-.5-32.43 1-.4-.55-.85-1.07-1.33-1.56 7.7-1.35 19.04-2.7 29.12-1.35 1.5.68 3.04 1.32 4.64 1.9z" class="K"/><path d="M2227.46 2991.82c-11.47-1.57-34.83-11.95-40.7-29.28 9.15 12.2 24.4 23.2 40.7 29.28z" class="N"/><path opacity=".2" d="M2049.03 2882.47c39.4 40.1 100.9 121.5 93.77 199.8-24.7-20.96-47.3-48.5-41.53-63.08 5.5-13.9 10.58-31.24 6.07-42.78-2-5.14-6.7-12.95-12.75-12.24-19.63 2.32-26.34 5.1-47.6-11.66s-29.84-37.4-13.3-58.36c4.77-6.05 9.9-9.8 15.33-11.67z" class="K"/><path d="M2096.94 2964.3c5.17 1.86 13.6-1.2 17.03-5.52 3.4-4.32 5.33-15.93 2.9-19.08-1.75 3.7-2.85 8.52-7.85 15.05-4.54 5.95-7.67 6.1-12.07 9.55z" class="N"/><g class="C"><g class="G"><use xlink:href="#B"/><path d="M2449.98 3320.1l95-120.45c2.08-2.64 6.02-3.1 8.66-1.02l6.8 5.35-102.64 130.14-6.78-5.36c-2.6-2.05-3.1-6.03-1.03-8.66z" fill="#453f31" class="D"/></g><path d="M2454.32 3334.32l104.86-132.97c2.7-3.43 7.8-4.03 11.23-1.33l67.42 53.16-114.77 145.54-67.4-53.16c-3.42-2.7-4.03-7.8-1.33-11.23v-.01z" stroke-width="4.9985" class="D U"/><g class="G D"><path d="M2523.68 3398.82l115.02-145.84c2.65-3.36 7.68-3.95 11.04-1.3l9.66 7.62-124.75 158.18-9.66-7.62c-3.36-2.65-3.96-7.68-1.3-11.04z" fill="#453f31"/><path d="M2533.95 3415.78l123.64-156.76c2.74-3.47 7.93-4.1 11.4-1.35l5.53 4.36c1.75 1.38 2.06 4 .67 5.75l-128.62 163.08c-1.38 1.75-4 2.06-5.75.68l-5.52-4.36c-3.47-2.73-4.06-7.97-1.35-11.4z" class="U"/></g></g><path d="M2573.06 3319.5c21.97-27.86 27.23-60.34 11.76-72.55-15.48-12.2-45.84.48-67.8 28.34-21.98 27.86-27.24 60.34-11.76 72.55 15.48 12.2 45.84-.48 67.8-28.34z" class="S"/><g class="U"><path d="M2558.42 3255.47l8.9 7.02 1.9-2.4-8.9-7.02 2.68-3.4-1.95-1.54-7.26 9.2 1.95 1.54 2.68-3.4zm-2.27 18.9l-1.1-2.12c1.54-.46 2.9-1.4 3.88-2.66.66-.75 1.44-2.3.4-3.1-1.53-1.23-4.45 2.27-5.7 2.9-2.03 1.08-4.5-.08-5.14-2.28-.5-1.8.2-3.7 1.36-5.1 1.08-1.38 2.6-2.6 4.34-2.94l1.1 2.12c-1.4.35-2.66 1.15-3.57 2.28-.7.8-1.27 2.3-.23 3.08 1.02.87 2.47-.53 3.2-1.16 1.03-.94 2.24-1.64 3.56-2.08 1.58-.37 3.17.6 3.86 2.03.9 1.9-.07 4.28-1.37 5.74-1.17 1.5-2.77 2.78-4.62 3.28z"/><path d="M2590.5 3268.05l-2.72 3.44-6.5-1.12c-.95-.17-1.85.25-2.4 1.02l-1.23 1.56 5.55 4.37-2.46 3.12-14.28-11.26 5.18-6.56c1.85-2.73 5.6-4.1 8.3-1.7 2.1 1.55 2.67 4.43 1.43 6.7.9-.6 2.03-.84 3.1-.62l6.05 1.03zm-12.85-4.1c-1.43-1.13-3.07-.35-4 1.03l-2.38 3.02 3.93 3.1 2.38-3c1.14-1.22 1.5-3 .06-4.14z" class="R"/><path d="M2556.97 3281.2l14.28 11.26 7.76-9.84-2.45-1.93-5.33 6.76-3.6-2.83 5.02-6.35-2.45-1.94-5.02 6.36-3.34-2.63 5.34-6.77-2.45-1.93-7.77 9.84zm-4.67 5.92l2.44-3.1 14.28 11.26-2.45 3.1-6-4.73-5.2 6.58 6 4.73-2.44 3.1-14.28-11.26 2.44-3.1 5.78 4.55 5.2-6.58-5.77-4.56zm-12.4 21l11.7 9.23 2.5-3.16-11.7-9.23 3.53-4.48-2.58-2.02-9.55 12.1 2.58 2.02 3.53-4.47z"/><path d="M2547.04 3323.15l-4.23-1.13-5.24 6.64 2.1 3.85-2.5 3.18-9.1-17.82 2-2.54 19.45 4.7-2.46 3.1zm-11.05 2.6l3.6-4.57-7.15-1.93 3.54 6.5z" class="R"/><path d="M2530.2 3344.52l-14.28-11.26 7.6-9.64 2.5 1.96-5.14 6.52 3.28 2.6 4.82-6.12 2.5 1.97-4.82 6.12 6 4.74-2.45 3.12zm-22.43-24.82l8.9 7 1.9-2.4-8.9-7 2.7-3.4-1.96-1.55-7.26 9.2 1.96 1.54 2.68-3.4zm9.43-15.97l1.86-2.35 10.85 8.56-1.86 2.35-4.55-3.6-3.95 5 4.56 3.6-1.86 2.36-10.85-8.56 1.86-2.36 4.38 3.46 3.95-5-4.4-3.46zm3.55-4.5l10.85 8.56 5.9-7.48-1.86-1.47-4.06 5.14-2.72-2.15 3.8-4.83-1.86-1.47-3.8 4.83-2.54-2 4.05-5.14-1.86-1.47-5.9 7.48z"/><path d="M2546.27 3283.08c.85.62 1.38 1.66 1.37 2.72-.06 1.26-.55 2.46-1.4 3.4l-4.06 5.15-10.86-8.56 3.95-5c1.24-1.75 3.84-3.05 5.72-1.46 1.1.84 1.52 2.32 1.07 3.62 1.25-.95 3-.9 4.2.12zm-8.67 3.87l1.78-2.27c.7-.75 1.17-2.1.14-2.8-.92-.85-2.14-.1-2.72.77l-1.8 2.26 2.6 2.05zm6.66-1.8c-.95-.9-2.2-.22-2.83.7l-2 2.54 2.77 2.2 2-2.54c.75-.8 1.13-2.2.06-2.9z" class="R"/><path d="M2539.7 3275.2l10.85 8.56 5.9-7.5-1.86-1.47-4.06 5.15-2.72-2.15 3.8-4.84-1.86-1.46-3.8 4.83-2.54-2 4.05-5.14-1.86-1.47-5.9 7.48z"/></g><path d="M2344.15 3248.2c-53.83-18.17-66.24-94.33-18.54-127.97-.58-47.93 47.72-84.56 94.1-70.08 53.47 16.68 64.94 83.74 43.15 129.82-20.36 43.06-68.45 85.2-118.7 68.23z" class="C D G J"/><path d="M2462.86 3179.96c-25.2 53.3-92.15 102.67-148.82 48.66 68 13.72 151.06-81.37 140.23-155.07 3.87 5.36 10.48 12.35 17.3 35 4.67 24.52 1.95 49.43-8.7 71.4z" class="B H"/><defs ><path id="B" d="M2461.22 3312.43c-10.35.23-11.35-16.7-12.4-23.64-2.2-14.4-4.05-33.53-16.18-43.1-16.6-13.1-40.87-14.26-58.12-27.87-12.7-10-24.4-21.2-36.86-31.48-4.38-3.62-24.36-13.1-41.98-21.46-17.6-8.34-34.2-16.22-40.27-20.35-10.8-7.34-31.5-29.16-41.57-42.42-2.74 9.72-14.95 10.66-23.36 10.4-18.6-.56-64.84-36.74-83.85-65.6-7.88-11.96-10.47-21.6-7.68-28.66 7.36-18.63 9.4-32.4 6.07-40.94-2-5.16-5.9-10.7-9.66-10.7-5.1 0-10.24 1.2-15.37 1.35-21.2 0-47.78-23.8-54.77-43.06-7.5-20.7 10.6-46.4 32.66-46.4 30.8 0 57.14 28.96 60.6 58.24.68 5.84 10.65 7.57 15.5 7.56 8.85 0 20.84-5.26 35.64-15.63 2.9-2.04 6.7-3.08 11.26-3.08 14.04 0 36.6 10.14 60.37 27.12 17 12.15 38.03 30.7 41.37 43 2.18 8.02 4.06 20.25-4.68 25.14 15.24 6.7 41.28 21.74 50.94 30.54 5.42 4.95 16.96 19.26 29.17 34.42 12.24 15.2 26.1 32.4 30.65 35.83 12.9 9.7 26.52 18.5 39.2 28.5 17.25 13.6 24.04 36.93 40.64 50.02 12.13 9.57 31.16 6.9 45.67 5.7 7.15-.6 17.15-2.52 23.25 2.3 14.55 11.48-19.6 51.75-27.48 61.62-3.44 4.38-34.06 42.67-48.76 42.67z"/></defs></svg>