<svg fill="none" height="4000" viewBox="0 0 4000 4000" width="4000" xmlns="http://www.w3.org/2000/svg"><path d="m2782.93 2648c151.2 31.92 321.54 41.98 440.43-16.54 108.49-53.43-103.79-356.4-156.55-428.28-49.63-67.62 99.53-63.77 89.56-118.36-7.58-41.52-303.84-53.27-306.75-7.17-1.72 27.87 90.54 66.25 77.42 122.59-11.04 47.36-385.5 396.8-144.11 447.76z" fill="#dbc66b" stroke="#333" stroke-miterlimit="10" stroke-width="5"/><path d="m3043.63 2457.35c6.51-6.87-30.15-77.17-109.83-67.11-10.17 1.28-56.92 14.81-70.62 84.14-4.23 21.37 33.93 9.11 40.03.98 14.6-19.45 36.88-43.05 51.69-43.35 7.63-.16 45.33 31.02 71.97 30.3 5.78-.16 12.47-.43 16.76-4.96z" fill="#99883d"/><path d="m2934.81 2454.31c-6.5 6.85 30.15 77.16 109.83 67.1 10.15-1.27 56.9-14.81 70.62-84.13 4.23-21.37-33.94-9.11-40.05-.98-14.59 19.44-36.86 43.04-51.68 43.34-7.63.15-45.33-31.01-71.96-30.3-5.79.16-12.48.43-16.76 4.97z" fill="#99883d"/><path d="m3043.63 2457.35c6.51-6.87-30.15-77.17-109.83-67.11-10.17 1.28-56.92 14.81-70.62 84.14-4.23 21.37 33.93 9.11 40.03.98 14.6-19.45 36.88-43.05 51.69-43.35 7.63-.16 45.33 31.02 71.97 30.3 5.78-.16 12.47-.43 16.76-4.96z" stroke="#231f20" stroke-miterlimit="10" stroke-width="2"/><path d="m2934.81 2454.31c-6.5 6.85 30.15 77.16 109.83 67.1 10.15-1.27 56.9-14.81 70.62-84.13 4.23-21.37-33.94-9.11-40.05-.98-14.59 19.44-36.86 43.04-51.68 43.34-7.63.15-45.33-31.01-71.96-30.3-5.79.16-12.48.43-16.76 4.97z" stroke="#231f20" stroke-miterlimit="10" stroke-width="2"/><path d="m1027.93 2821c151.2 31.92 321.54 41.98 440.43-16.54 108.49-53.43-103.79-356.4-156.55-428.28-49.63-67.62 99.53-63.77 89.56-118.36-7.58-41.52-303.84-53.27-306.75-7.17-1.72 27.87 90.54 66.25 77.42 122.59-11.04 47.36-385.501 396.8-144.11 447.76z" fill="#dbc66b" stroke="#333" stroke-miterlimit="10" stroke-width="5"/><path d="m1288.63 2630.35c6.51-6.87-30.15-77.17-109.83-67.11-10.17 1.28-56.92 14.81-70.62 84.14-4.23 21.37 33.93 9.11 40.03.98 14.6-19.45 36.88-43.05 51.69-43.35 7.63-.16 45.33 31.02 71.97 30.3 5.78-.16 12.47-.43 16.76-4.96z" fill="#99883d"/><path d="m1179.81 2627.31c-6.5 6.85 30.15 77.16 109.83 67.1 10.15-1.27 56.9-14.81 70.62-84.13 4.23-21.37-33.94-9.11-40.05-.98-14.59 19.44-36.86 43.04-51.68 43.34-7.63.15-45.33-31.01-71.96-30.3-5.79.16-12.48.43-16.76 4.97z" fill="#99883d"/><path d="m1288.63 2630.35c6.51-6.87-30.15-77.17-109.83-67.11-10.17 1.28-56.92 14.81-70.62 84.14-4.23 21.37 33.93 9.11 40.03.98 14.6-19.45 36.88-43.05 51.69-43.35 7.63-.16 45.33 31.02 71.97 30.3 5.78-.16 12.47-.43 16.76-4.96z" stroke="#231f20" stroke-miterlimit="10" stroke-width="2"/><path d="m1179.81 2627.31c-6.5 6.85 30.15 77.16 109.83 67.1 10.15-1.27 56.9-14.81 70.62-84.13 4.23-21.37-33.94-9.11-40.05-.98-14.59 19.44-36.86 43.04-51.68 43.34-7.63.15-45.33-31.01-71.96-30.3-5.79.16-12.48.43-16.76 4.97z" stroke="#231f20" stroke-miterlimit="10" stroke-width="2"/><path d="m2445.46 2967.33c176.49 37.26 375.31 49 514.08-19.3 126.63-62.37-121.14-416-182.73-499.9-57.93-78.93 116.17-74.44 104.54-138.15-8.85-48.47-354.65-62.18-358.05-8.37-2 32.53 105.68 77.33 90.37 143.09-12.88 55.28-449.96 463.15-168.21 522.63z" fill="#dbc66b" stroke="#333" stroke-miterlimit="10" stroke-width="5"/><path d="m2749.75 2744.8c7.6-8.01-35.19-90.07-128.19-78.33-11.87 1.49-66.44 17.29-82.43 98.21-4.94 24.94 39.61 10.63 46.73 1.14 17.04-22.7 43.04-50.24 60.33-50.59 8.91-.19 52.91 36.2 84 35.36 6.75-.19 14.56-.5 19.56-5.79z" fill="#99883d"/><path d="m2622.74 2741.25c-7.59 8 35.19 90.07 128.19 78.33 11.85-1.49 66.42-17.29 82.43-98.2 4.94-24.95-39.61-10.64-46.74-1.15-17.03 22.7-43.03 50.24-60.32 50.59-8.91.18-52.91-36.2-84-35.36-6.75.18-14.56.5-19.56 5.79z" fill="#99883d"/><path d="m2749.75 2744.8c7.6-8.01-35.19-90.07-128.19-78.33-11.87 1.49-66.44 17.29-82.43 98.21-4.94 24.94 39.61 10.63 46.73 1.14 17.04-22.7 43.04-50.24 60.33-50.59 8.91-.19 52.91 36.2 84 35.36 6.75-.19 14.56-.5 19.56-5.79z" stroke="#231f20" stroke-miterlimit="10" stroke-width="2"/><path d="m2622.74 2741.25c-7.59 8 35.19 90.07 128.19 78.33 11.85-1.49 66.42-17.29 82.43-98.2 4.94-24.95-39.61-10.64-46.74-1.15-17.03 22.7-43.03 50.24-60.32 50.59-8.91.18-52.91-36.2-84-35.36-6.75.18-14.56.5-19.56 5.79z" stroke="#231f20" stroke-miterlimit="10" stroke-width="2"/><path d="m594.458 2862.31c176.49 37.26 375.31 49 514.082-19.3 126.63-62.37-121.142-416-182.731-499.9-57.93-78.93 91.001-74.81 104.541-138.15 7.08-33.05-85.831-30.54-161.721-28.79-25.38.59-49.53-7.94-66.49-5.84-20.49 2.53-41.001 11.2-58.331 10.52-40-1.56-69.91-9.6-71.51 15.74-2 32.53 105.681 77.33 90.371 143.09-12.88 55.28-449.961 463.15-168.211 522.63z" fill="#dbc66b" stroke="#333" stroke-miterlimit="10" stroke-width="5"/><path d="m898.749 2639.78c7.6-8.01-35.19-90.07-128.19-78.33-11.87 1.49-66.44 17.29-82.43 98.21-4.94 24.94 39.61 10.63 46.73 1.14 17.04-22.7 43.04-50.24 60.33-50.59 8.91-.19 52.91 36.2 84 35.36 6.75-.19 14.56-.5 19.56-5.79z" fill="#99883d"/><path d="m771.739 2636.23c-7.59 8 35.19 90.07 128.19 78.33 11.85-1.49 66.42-17.29 82.43-98.2 4.94-24.95-39.61-10.64-46.74-1.15-17.03 22.7-43.03 50.24-60.32 50.59-8.91.18-52.91-36.2-84-35.36-6.75.18-14.56.5-19.56 5.79z" fill="#99883d"/><path d="m898.749 2639.78c7.6-8.01-35.19-90.07-128.19-78.33-11.87 1.49-66.44 17.29-82.43 98.21-4.94 24.94 39.61 10.63 46.73 1.14 17.04-22.7 43.04-50.24 60.33-50.59 8.91-.19 52.91 36.2 84 35.36 6.75-.19 14.56-.5 19.56-5.79z" stroke="#231f20" stroke-miterlimit="10" stroke-width="2"/><path d="m771.739 2636.23c-7.59 8 35.19 90.07 128.19 78.33 11.85-1.49 66.42-17.29 82.43-98.2 4.94-24.95-39.61-10.64-46.74-1.15-17.03 22.7-43.03 50.24-60.32 50.59-8.91.18-52.91-36.2-84-35.36-6.75.18-14.56.5-19.56 5.79z" stroke="#231f20" stroke-miterlimit="10" stroke-width="2"/><path d="m1108.56 2843.01c-138.771 68.34-337.581 56.55-514.081 19.3-61-12.87-87.5-42-91.61-80.29 128.775 70.87 441.136 56.57 561.671-2.59 100.52-49.51-34.91-282.58-125.831-418.55 76.901 107.32 288.911 423.48 169.851 482.13z" fill="#000" opacity=".13"/><path d="m924.759 2314.78c-56.167-.1-112.363 2.27-168.59 7.11-7.436.75-7.958-12.35-.55-13.05 56.174-4.87 112.37-7.26 168.59-7.16 7.42.11 8.021 13.2.55 13.1z" style="fill-rule:evenodd;clip-rule:evenodd;fill:#99883d;stroke:#231f20;stroke-width:2;stroke-miterlimit:10"/><path d="m924.758 2323.58c-56.007 5.7-112.301 8.09-168.589 7.17-7.188-.25-8.061-13.36-.55-13.13 56.287.94 112.58-1.43 168.589-7.1 7.556-.91 7.726 12.25.55 13.06z" style="fill-rule:evenodd;clip-rule:evenodd;fill:#99883d;stroke:#231f20;stroke-width:2;stroke-miterlimit:10"/><path d="m923.338 2333.76c-56.295.23-112.529 3.76-168.41 10.59-7.541 1.06-7.982-12.1-.82-13.07 55.893-6.85 112.14-10.4 168.45-10.65 7.129.1 8.533 13.26.78 13.13z" style="fill-rule:evenodd;clip-rule:evenodd;fill:#99883d;stroke:#231f20;stroke-width:2;stroke-miterlimit:10"/><path d="m925.738 2334.2c-31.745 2.29-86.19 15-117.17 34.78-8.344 3.36-9.959-6.98-.35-13.12 30.999-19.8 85.5-37.93 117.17-34.78 7.612.76 10.112 12.42.35 13.12z" style="fill-rule:evenodd;clip-rule:evenodd;fill:#99883d;stroke:#231f20;stroke-width:2;stroke-miterlimit:10"/><path d="m2950.46 2862.31c176.49 37.26 375.31 49 514.08-19.3 126.63-62.37-121.14-416-182.73-499.9-57.93-78.93 91-74.81 104.54-138.15 7.08-33.05-85.83-30.54-161.72-28.79-25.38.59-49.53-7.94-66.49-5.84-20.49 2.53-41 11.2-58.33 10.52-40-1.56-69.91-9.6-71.51 15.74-2 32.53 105.68 77.33 90.37 143.09-12.88 55.28-449.96 463.15-168.21 522.63z" fill="#dbc66b" stroke="#333" stroke-miterlimit="10" stroke-width="5"/><path d="m3254.75 2639.78c7.6-8.01-35.19-90.07-128.19-78.33-11.87 1.49-66.44 17.29-82.43 98.21-4.94 24.94 39.61 10.63 46.73 1.14 17.04-22.7 43.04-50.24 60.33-50.59 8.91-.19 52.91 36.2 84 35.36 6.75-.19 14.56-.5 19.56-5.79z" fill="#99883d"/><path d="m3127.74 2636.23c-7.59 8 35.19 90.07 128.19 78.33 11.85-1.49 66.42-17.29 82.43-98.2 4.94-24.95-39.61-10.64-46.74-1.15-17.03 22.7-43.03 50.24-60.32 50.59-8.91.18-52.91-36.2-84-35.36-6.75.18-14.56.5-19.56 5.79z" fill="#99883d"/><path d="m3254.75 2639.78c7.6-8.01-35.19-90.07-128.19-78.33-11.87 1.49-66.44 17.29-82.43 98.21-4.94 24.94 39.61 10.63 46.73 1.14 17.04-22.7 43.04-50.24 60.33-50.59 8.91-.19 52.91 36.2 84 35.36 6.75-.19 14.56-.5 19.56-5.79z" stroke="#231f20" stroke-miterlimit="10" stroke-width="2"/><path d="m3127.74 2636.23c-7.59 8 35.19 90.07 128.19 78.33 11.85-1.49 66.42-17.29 82.43-98.2 4.94-24.95-39.61-10.64-46.74-1.15-17.03 22.7-43.03 50.24-60.32 50.59-8.91.18-52.91-36.2-84-35.36-6.75.18-14.56.5-19.56 5.79z" stroke="#231f20" stroke-miterlimit="10" stroke-width="2"/><path d="m3464.56 2843.01c-138.77 68.34-337.58 56.55-514.08 19.3-61-12.87-87.5-42-91.61-80.29 128.77 70.87 441.13 56.57 561.67-2.59 100.52-49.51-34.91-282.58-125.83-418.55 76.9 107.32 288.91 423.48 169.85 482.13z" fill="#000" opacity=".13"/><path d="m3280.76 2311.78c-56.17-.1-112.36 2.27-168.59 7.11-7.44.75-7.96-12.35-.55-13.05 56.17-4.87 112.37-7.26 168.59-7.16 7.42.11 8.02 13.2.55 13.1z" style="fill-rule:evenodd;clip-rule:evenodd;fill:#99883d;stroke:#231f20;stroke-width:2;stroke-miterlimit:10"/><path d="m3280.76 2320.58c-56.01 5.7-112.3 8.09-168.59 7.17-7.19-.25-8.06-13.36-.55-13.13 56.28.94 112.58-1.43 168.59-7.1 7.55-.91 7.72 12.25.55 13.06z" style="fill-rule:evenodd;clip-rule:evenodd;fill:#99883d;stroke:#231f20;stroke-width:2;stroke-miterlimit:10"/><path d="m3279.34 2330.76c-56.3.23-112.53 3.76-168.41 10.59-7.55 1.06-7.99-12.1-.82-13.07 55.89-6.85 112.14-10.4 168.45-10.65 7.12.1 8.53 13.26.78 13.13z" style="fill-rule:evenodd;clip-rule:evenodd;fill:#99883d;stroke:#231f20;stroke-width:2;stroke-miterlimit:10"/><path d="m3281.74 2331.2c-31.75 2.29-86.19 15-117.17 34.78-8.35 3.36-9.96-6.98-.35-13.12 31-19.8 85.5-37.93 117.17-34.78 7.61.76 10.11 12.42.35 13.12z" style="fill-rule:evenodd;clip-rule:evenodd;fill:#99883d;stroke:#231f20;stroke-width:2;stroke-miterlimit:10"/><path d="m2630.46 3178.31c176.49 37.26 375.31 49 514.08-19.3 126.63-62.37-121.14-416-182.73-499.9-57.93-78.93 91-74.81 104.54-138.15 7.08-33.05-85.83-30.54-161.72-28.79-25.38.59-49.53-7.94-66.49-5.84-20.49 2.53-41 11.2-58.33 10.52-40-1.56-69.91-9.6-71.51 15.74-2 32.53 105.68 77.33 90.37 143.09-12.88 55.28-449.96 463.15-168.21 522.63z" fill="#dbc66b" stroke="#333" stroke-miterlimit="10" stroke-width="5"/><path d="m2934.75 2955.78c7.6-8.01-35.19-90.07-128.19-78.33-11.87 1.49-66.44 17.29-82.43 98.21-4.94 24.94 39.61 10.63 46.73 1.14 17.04-22.7 43.04-50.24 60.33-50.59 8.91-.19 52.91 36.2 84 35.36 6.75-.19 14.56-.5 19.56-5.79z" fill="#99883d"/><path d="m2807.74 2952.23c-7.59 8 35.19 90.07 128.19 78.33 11.85-1.49 66.42-17.29 82.43-98.2 4.94-24.95-39.61-10.64-46.74-1.15-17.03 22.7-43.03 50.24-60.32 50.59-8.91.18-52.91-36.2-84-35.36-6.75.18-14.56.5-19.56 5.79z" fill="#99883d"/><path d="m2934.75 2955.78c7.6-8.01-35.19-90.07-128.19-78.33-11.87 1.49-66.44 17.29-82.43 98.21-4.94 24.94 39.61 10.63 46.73 1.14 17.04-22.7 43.04-50.24 60.33-50.59 8.91-.19 52.91 36.2 84 35.36 6.75-.19 14.56-.5 19.56-5.79z" stroke="#231f20" stroke-miterlimit="10" stroke-width="2"/><path d="m2807.74 2952.23c-7.59 8 35.19 90.07 128.19 78.33 11.85-1.49 66.42-17.29 82.43-98.2 4.94-24.95-39.61-10.64-46.74-1.15-17.03 22.7-43.03 50.24-60.32 50.59-8.91.18-52.91-36.2-84-35.36-6.75.18-14.56.5-19.56 5.79z" stroke="#231f20" stroke-miterlimit="10" stroke-width="2"/><path d="m3144.56 3159.01c-138.77 68.34-337.58 56.55-514.08 19.3-61-12.87-87.5-42-91.61-80.29 128.77 70.87 441.13 56.57 561.67-2.59 100.52-49.51-34.91-282.58-125.83-418.55 76.9 107.32 288.91 423.48 169.85 482.13z" fill="#000" opacity=".13"/><path d="m2960.76 2628.78c-56.17-.1-112.36 2.27-168.59 7.11-7.44.75-7.96-12.35-.55-13.05 56.17-4.87 112.37-7.26 168.59-7.16 7.42.11 8.02 13.2.55 13.1z" style="fill-rule:evenodd;clip-rule:evenodd;fill:#99883d;stroke:#231f20;stroke-width:2;stroke-miterlimit:10"/><path d="m2960.76 2637.58c-56.01 5.7-112.3 8.09-168.59 7.17-7.19-.25-8.06-13.36-.55-13.13 56.28.94 112.58-1.43 168.59-7.1 7.55-.91 7.72 12.25.55 13.06z" style="fill-rule:evenodd;clip-rule:evenodd;fill:#99883d;stroke:#231f20;stroke-width:2;stroke-miterlimit:10"/><path d="m2959.34 2647.76c-56.3.23-112.53 3.76-168.41 10.59-7.55 1.06-7.99-12.1-.82-13.07 55.89-6.85 112.14-10.4 168.45-10.65 7.12.1 8.53 13.26.78 13.13z" style="fill-rule:evenodd;clip-rule:evenodd;fill:#99883d;stroke:#231f20;stroke-width:2;stroke-miterlimit:10"/><path d="m2961.74 2648.2c-31.75 2.29-86.19 15-117.17 34.78-8.35 3.36-9.96-6.98-.35-13.12 31-19.8 85.5-37.93 117.17-34.78 7.61.76 10.11 12.42.35 13.12z" style="fill-rule:evenodd;clip-rule:evenodd;fill:#99883d;stroke:#231f20;stroke-width:2;stroke-miterlimit:10"/><path d="m2736.43 3373.58c-99.11 20.92-182.91 35.53-283.31 35.39-106.81-.16-99.44-35.19-245.86-41.83-118.76-5.38-79.64-271.93 21.42-390.23 70-81.94 147.14-146.12 155.24-185.28 23-111.12-7.2-123.86-65.28-135.12-38.45-7.47-39.52-56.66 67.61-45.08 29.26 3.17 98.67 12.9 128.68-2.09 21.4-10.69 45.54 7.75 65.66 7 46.37-1.81 89.57 22.9 61.51 31.76-26.39 8.33-89.05 79.8-83.5 145.35 2.63 31.11 116.36 80.3 179.94 198.38 29.94 55.61 6.24 148.84 14.23 198.12 9.07 55.78 93.64 160.41-16.34 183.63z" fill="#dbc66b" stroke="#333" stroke-miterlimit="10" stroke-width="5"/><path d="m2545.62 3122.02c8.8-9.28-40.82-104.39-148.57-90.79-13.73 1.74-76.99 20.05-95.55 113.82-5.72 28.91 45.9 12.32 54.17 1.32 19.74-26.31 49.91-58.23 69.91-58.64 10.36-.2 61.36 42 97.36 41 7.83-.21 16.87-.58 22.68-6.71z" fill="#99883d"/><path d="m2398.44 3117.9c-8.8 9.28 40.82 104.39 148.57 90.79 13.73-1.73 76.99-20.04 95.55-113.8 5.72-28.91-45.91-12.32-54.17-1.32-19.75 26.31-49.91 58.22-69.91 58.63-10.37.19-61.37-42-97.37-41-7.83.21-16.86.58-22.67 6.7z" fill="#99883d"/><path d="m2545.62 3122.02c8.8-9.28-40.82-104.39-148.57-90.79-13.73 1.74-76.99 20.05-95.55 113.82-5.72 28.91 45.9 12.32 54.17 1.32 19.74-26.31 49.91-58.23 69.91-58.64 10.36-.2 61.36 42 97.36 41 7.83-.21 16.87-.58 22.68-6.71z" stroke="#231f20" stroke-miterlimit="10" stroke-width="2"/><path d="m2398.44 3117.9c-8.8 9.28 40.82 104.39 148.57 90.79 13.73-1.73 76.99-20.04 95.55-113.8 5.72-28.91-45.91-12.32-54.17-1.32-19.75 26.31-49.91 58.22-69.91 58.63-10.37.19-61.37-42-97.37-41-7.83.21-16.86.58-22.67 6.7z" stroke="#231f20" stroke-miterlimit="10" stroke-width="2"/><path d="m2374.36 2780.54c64.96-4.24 130.14-5.61 195.52-4.11 8.66.3 8.31-14.9-.31-15.18-65.33-1.52-130.51-.17-195.53 4.06-8.58.67-8.15 15.87.32 15.23z" style="fill-rule:evenodd;clip-rule:evenodd;fill:#99883d;stroke:#231f20;stroke-width:2;stroke-miterlimit:10"/><path d="m2374.25 2788.6c65.16 3.27 130.47 2.71 195.57-1.69 8.33-.69 8.82-15.95-.12-15.23-65.1 4.43-130.4 5.01-195.56 1.76-8.95-.6-8.28 14.64.11 15.16z" style="fill-rule:evenodd;clip-rule:evenodd;fill:#99883d;stroke:#231f20;stroke-width:2;stroke-miterlimit:10"/><path d="m2375.1 2804.42c65.04-5.11 130.33-6.39 195.53-3.83 8.79.5 8.15-14.76-.25-15.17-65.2-2.58-130.49-1.32-195.53 3.76-8.52.78-8.47 16.03.25 15.24z" style="fill-rule:evenodd;clip-rule:evenodd;fill:#99883d;stroke:#231f20;stroke-width:2;stroke-miterlimit:10"/><path d="m2375.57 2804.58c36.71-3.66 125.23 3.07 161.13 26 9.65 3.93 9.3-8.58.41-15.2-34.21-25.45-136.23-28.54-160.68-27.45-12.01.53-10.16 19.23-.86 16.65z" style="fill-rule:evenodd;clip-rule:evenodd;fill:#99883d;stroke:#231f20;stroke-width:2;stroke-miterlimit:10"/><path d="m2736.43 3373.58c-99.1 20.92-182.92 35.53-283.32 35.38-106.81-.15-99.43-35.18-245.86-41.82-39.35-1.79-61.38-32.25-69.54-76.49 188.03 10.1 328.05 46.99 521.87 6.08 97.34-20.54 19.28-369.67-34.97-437.64 36.92 31 81.82 73.09 113.92 132.71 29.94 55.6 6.24 148.84 14.23 198.12 9.07 55.81 93.66 160.44-16.33 183.66z" fill="#000" opacity=".13"/><path d="m1298.43 3096.58c-99.11 20.92-182.91 35.53-283.31 35.39-106.814-.16-99.444-35.19-245.864-41.83-118.76-5.38-79.64-271.93 21.42-390.23 70-81.94 147.14-146.12 155.24-185.28 23-111.12-7.2-123.86-65.28-135.12-38.45-7.47-39.52-56.66 67.61-45.08 29.26 3.17 98.674 12.9 128.684-2.09 21.4-10.69 45.54 7.75 65.66 7 46.37-1.81 89.57 22.9 61.51 31.76-26.39 8.33-89.05 79.8-83.5 145.35 2.63 31.11 116.36 80.3 179.94 198.38 29.94 55.61 6.24 148.84 14.23 198.12 9.07 55.78 93.64 160.41-16.34 183.63z" fill="#dbc66b" stroke="#333" stroke-miterlimit="10" stroke-width="5"/><path d="m1107.63 2845.02c8.8-9.28-40.82-104.39-148.574-90.79-13.73 1.74-76.99 20.05-95.55 113.82-5.72 28.91 45.9 12.32 54.17 1.32 19.74-26.31 49.91-58.23 69.91-58.64 10.36-.2 61.364 42 97.364 41 7.83-.21 16.87-.58 22.68-6.71z" fill="#99883d"/><path d="m960.445 2840.9c-8.8 9.28 40.825 104.39 148.575 90.79 13.73-1.73 76.99-20.04 95.55-113.8 5.72-28.91-45.91-12.32-54.17-1.32-19.75 26.31-49.91 58.22-69.91 58.63-10.37.19-61.37-42-97.375-41-7.83.21-16.86.58-22.67 6.7z" fill="#99883d"/><path d="m1107.63 2845.02c8.8-9.28-40.82-104.39-148.574-90.79-13.73 1.74-76.99 20.05-95.55 113.82-5.72 28.91 45.9 12.32 54.17 1.32 19.74-26.31 49.91-58.23 69.91-58.64 10.36-.2 61.364 42 97.364 41 7.83-.21 16.87-.58 22.68-6.71z" stroke="#231f20" stroke-miterlimit="10" stroke-width="2"/><path d="m960.445 2840.9c-8.8 9.28 40.825 104.39 148.575 90.79 13.73-1.73 76.99-20.04 95.55-113.8 5.72-28.91-45.91-12.32-54.17-1.32-19.75 26.31-49.91 58.22-69.91 58.63-10.37.19-61.37-42-97.375-41-7.83.21-16.86.58-22.67 6.7z" stroke="#231f20" stroke-miterlimit="10" stroke-width="2"/><path d="m936.367 2497.54c64.963-4.24 130.133-5.61 195.523-4.11 8.65.3 8.3-14.9-.31-15.18-65.34-1.52-130.51-.17-195.534 4.06-8.582.67-8.155 15.87.321 15.23z" style="fill-rule:evenodd;clip-rule:evenodd;fill:#99883d;stroke:#231f20;stroke-width:2;stroke-miterlimit:10"/><path d="m936.244 2505.6c65.166 3.27 130.466 2.71 195.566-1.69 8.34-.69 8.83-15.95-.12-15.23-65.09 4.43-130.39 5.01-195.556 1.76-8.945-.6-8.278 14.64.11 15.16z" style="fill-rule:evenodd;clip-rule:evenodd;fill:#99883d;stroke:#231f20;stroke-width:2;stroke-miterlimit:10"/><path d="m937.096 2521.42c65.044-5.11 130.334-6.39 195.534-3.83 8.79.5 8.15-14.76-.25-15.17-65.2-2.58-130.49-1.32-195.534 3.76-8.518.78-8.466 16.03.25 15.24z" style="fill-rule:evenodd;clip-rule:evenodd;fill:#99883d;stroke:#231f20;stroke-width:2;stroke-miterlimit:10"/><path d="m937.565 2521.58c36.71-3.66 125.235 3.07 161.135 26 9.65 3.93 9.3-8.58.41-15.2-34.21-25.45-136.234-28.54-160.684-27.45-12.008.53-10.152 19.23-.861 16.65z" style="fill-rule:evenodd;clip-rule:evenodd;fill:#99883d;stroke:#231f20;stroke-width:2;stroke-miterlimit:10"/><path d="m1298.43 3096.58c-99.1 20.92-182.92 35.53-283.32 35.38-106.805-.15-99.425-35.18-245.855-41.82-39.35-1.79-61.38-32.25-69.54-76.49 188.024 10.1 328.045 46.99 521.865 6.08 97.34-20.54 19.28-369.67-34.97-437.64 36.92 31 81.82 73.09 113.92 132.71 29.94 55.6 6.24 148.84 14.23 198.12 9.07 55.81 93.66 160.44-16.33 183.66z" fill="#000" opacity=".13"/><path d="m1725.72 3340.94c-196.29 41.43-368.43 49.56-529.17-6.44-112.26-39.11-79.64-271.93 21.42-390.23 70-81.94 147.14-146.12 155.24-185.28 23-111.12-15.41-111.69-65.28-135.12-109.63-51.51 354.27-106.98 323.46-8.41-8.09 25.9-89.05 79.8-83.5 145.35 2.63 31.11 130.59 51.61 194.17 169.69 29.94 55.61-7.99 177.53 0 226.81 9.07 55.78 93.64 160.41-16.34 183.63z" fill="#dbc66b" stroke="#333" stroke-miterlimit="10" stroke-width="5"/><path d="m1534.92 3089.38c8.8-9.28-40.82-104.39-148.57-90.79-13.73 1.74-76.99 20.05-95.55 113.82-5.72 28.91 45.9 12.32 54.17 1.32 19.74-26.31 49.91-58.23 69.91-58.64 10.36-.2 61.36 42 97.36 41 7.83-.21 16.87-.58 22.68-6.71z" fill="#99883d"/><path d="m1387.74 3085.26c-8.8 9.28 40.82 104.39 148.57 90.79 13.73-1.73 76.99-20.04 95.55-113.8 5.72-28.91-45.91-12.32-54.17-1.32-19.75 26.31-49.91 58.22-69.91 58.63-10.37.19-61.37-42-97.37-41-7.83.21-16.86.58-22.67 6.7z" fill="#99883d"/><path d="m1534.92 3089.38c8.8-9.28-40.82-104.39-148.57-90.79-13.73 1.74-76.99 20.05-95.55 113.82-5.72 28.91 45.9 12.32 54.17 1.32 19.74-26.31 49.91-58.23 69.91-58.64 10.36-.2 61.36 42 97.36 41 7.83-.21 16.87-.58 22.68-6.71z" stroke="#231f20" stroke-miterlimit="10" stroke-width="2"/><path d="m1387.74 3085.26c-8.8 9.28 40.82 104.39 148.57 90.79 13.73-1.73 76.99-20.04 95.55-113.8 5.72-28.91-45.91-12.32-54.17-1.32-19.75 26.31-49.91 58.22-69.91 58.63-10.37.19-61.37-42-97.37-41-7.83.21-16.86.58-22.67 6.7z" stroke="#231f20" stroke-miterlimit="10" stroke-width="2"/><path d="m1725.72 3340.94c-99.1 20.92-182.91 35.53-283.31 35.38-78.12-2.82-121.12-4.32-238.12-38.82-37.78-11.14-61-43.5-71.5-79.5 385.79 58.99 709.6 77.05 485.21-447 43 25 90.4 57.38 122.5 117 29.94 55.6-6.43 180 1.56 229.28 9.07 55.81 93.65 160.44-16.34 183.66z" fill="#000" opacity=".13"/><path d="m2275.11 3290.64c-50.77-7.42-115.16-32.27-196.86-76-11.87-6.35-16.67-21.85-10.25-33.84 6.35-11.87 21.85-16.66 33.84-10.25 75.45 40.37 136.18 64.12 180.5 70.6 28.93 4.23 49.75 1 61.88-9.64 13.61-11.92 12.39-33 8.83-72.39-4.17-46.12-9.36-103.53 19.78-169.51 44-99.72 153.63-194.53 269.09-176.7 73.33 11.36 143.6 66.19 159.73 140.59 13.73 63.36-6.02 150.17-73.53 174.43-44.77 16-95.93-2.36-130.84-32.08-10.44-8.68-11.95-25-3.06-35.44 8.81-10.34 25.15-11.64 35.48-2.62.43.36 43.66 36.65 81.49 23.06 42.84-15.38 49.77-78.95 41.56-116.78-11.75-54.23-65.6-93.57-118.51-101.77-92.84-14.33-180.8 68.49-215.72 147.49-23.91 54.16-19.56 102.32-15.72 144.81 4 43.84 7.71 85.25-25.67 114.5-27.66 24.4-67.07 26.8-102.02 21.54z" fill="#494542" stroke="#333" stroke-miterlimit="10" stroke-width="5"/><path d="m2786.65 2965.53c11.06 51.02 1.18 114.55-37.82 152.08 51.41-33.7 65.07-107.56 52.82-164.08-16.13-74.41-86.39-129.24-159.73-140.6-66.26-10.23-131.78 18.56-181.54 60.82 114.12-80.75 293.29-60.36 326.27 91.78z" fill="#000" fill-opacity=".4"/><path d="m2717.62 3078.06c-27.03 31.45-75.59 15.26-102.89-8.23-3.14-2.68-6.9-4.54-10.94-5.41-4.03-.87-8.22-.73-12.19.41 3.97-7.3 11.63-12.23 19.93-12.9 6.6-.53 13.15 1.59 18.2 5.89 22.07 19.5 59.84 35.17 87.89 20.24z" fill="#000" fill-opacity=".4"/><path d="m2073.5 3173.5c3.5-3 15.5-9 23-5.5 6.98 3.26 15.34 7.39 24.73 12.03 49.42 24.41 127.47 62.97 183.77 62.97 50 0 54.5-25 47.5-91 .85 3.82 1.92 8.03 3.06 12.51 9.62 37.75 24.09 94.49-50.56 94.49-81.5 0-208.79-70.57-231.5-85.5z" fill="#000" fill-opacity=".4"/><path d="m1587 3147c36.5 0 65.66-32.58 62.04-68.42-5.42-63.52 18.62-132.19 65.95-198.39 43.05-60.25 89.21-93.25 53.71-132.19s-115.57 3.92-155.4 59.5c-65.71 91.92-97.19 189.11-88.63 283.68 3.19 31.47 25.83 55.82 62.33 55.82z" fill="#494542" stroke="#333" stroke-miterlimit="10" stroke-width="5"/><path d="m1553.08 3059.16c-.41-112.27 89.62-277.66 195.12-324.16-130-21-245 233.5-222.72 351.77 7.22-11.77 19.72-23.27 27.6-27.61z" fill="#000" fill-opacity=".3"/><path d="m1959.37 3446.51c5-87.08 27.4-154.43 47.17-206.81s42.42-144.7-42.56-166.02c-121.5-30.49-188.31 254.12-193.3 340.94-2.93 51.08 36.82 110.33 88.4 113.29 47.48 2.31 97.45-31.79 100.29-81.4z" fill="#233e5e" stroke="#333" stroke-miterlimit="10" stroke-width="5"/><path d="m1769.48 3414.5c51.5-7 148-7 188.5 34 .34-3.09 1.44-11.94 1.66-15.04-42.16-36.96-138.16-39.46-188.02-32.46-.26 3.3-1.86 10.13-2.14 13.5z" fill="#000" fill-opacity=".2"/><path d="m1785.48 3325c47.76 44.29 108.88 69.13 178 78.5.58-5.01 1.81-12.18 2.5-17-68.6-8.88-128.2-37.6-176-81-2 6-3.62 15.27-4.5 19.5z" fill="#000" fill-opacity=".2"/><path d="m2040.63 3446.51c-5-87.08-27.4-154.43-47.17-206.81s-42.42-144.7 42.56-166.02c121.5-30.49 188.31 254.12 193.3 340.94 2.93 51.08-36.82 110.33-88.4 113.29-47.48 2.31-97.45-31.79-100.29-81.4z" fill="#233e5e" stroke="#333" stroke-miterlimit="10" stroke-width="5"/><path d="m2230.52 3414.5c-51.5-7-148-7-188.5 34-.34-3.09-1.44-11.94-1.66-15.04 42.16-36.96 138.16-39.46 188.02-32.46.26 3.3 1.86 10.13 2.14 13.5z" fill="#000" fill-opacity=".2"/><path d="m2214.52 3325c-47.76 44.29-108.88 69.13-178 78.5-.58-5.01-1.81-12.18-2.5-17 68.6-8.88 128.2-37.6 176-81 2 6 3.62 15.27 4.5 19.5z" fill="#000" fill-opacity=".2"/><path d="m2413 3147c-36.5 0-65.66-32.58-62.04-68.42 5.42-63.52-18.62-132.19-65.95-198.39-43.06-60.25-89.21-93.25-53.71-132.19s115.56 3.92 155.4 59.5c65.71 91.92 97.19 189.11 88.63 283.68-3.19 31.47-25.83 55.82-62.33 55.82z" fill="#494542" stroke="#333" stroke-miterlimit="10" stroke-width="5"/><path d="m2446.91 3059.16c.42-112.27-89.61-277.66-195.11-324.16 130-21 245 233.5 222.71 351.77-7.21-11.77-19.71-23.27-27.6-27.61z" fill="#000" fill-opacity=".3"/><path d="m3133.19 1832.12c111.1 102 66.32 309.29-9.09 427.16-107.46 168-353.47 273.75-479.46 184.37-131.58-93.35-114.4-386.92 39.2-539.32 114.68-113.78 334.45-177.69 449.35-72.21z" fill="#f7c394" stroke="#333" stroke-miterlimit="10" stroke-width="5"/><path d="m3003.49 1952.22c66 68.19 30.1 196.68-21.65 267.88-73.75 101.45-232.17 158.69-307.94 97.86-79.14-63.53-57.39-247.22 44.75-337.18 76.26-67.16 216.64-99.08 284.84-28.56z" fill="#ffc9a1"/><path d="m3124.1 2259.28c-60.69 94.85-195.1 203.22-346.6 216.72 106.36-25 260.01-133.85 306.64-206.72 75.41-117.87 115.36-338.97 9.09-427.16-32.41-26.89-114.73-65.12-227.73-45.12 138-42.5 222.79-6.13 267.73 35.12 111.06 101.99 66.28 309.29-9.13 427.16z" fill="#000" fill-opacity=".1"/><path d="m866.818 1832.12c-111.1 102-66.32 309.29 9.09 427.16 107.46 168 353.472 273.75 479.462 184.37 131.58-93.35 114.4-386.92-39.2-539.32-114.68-113.78-334.452-177.69-449.352-72.21z" fill="#f7c394" stroke="#333" stroke-miterlimit="10" stroke-width="5"/><path d="m996.518 1952.22c-66 68.19-30.1 196.68 21.652 267.88 73.75 101.45 232.17 158.69 307.94 97.86 79.14-63.53 57.39-247.22-44.75-337.18-76.26-67.16-216.64-99.08-284.842-28.56z" fill="#ffc9a1"/><path d="m875.908 2259.28c60.69 94.85 195.102 203.22 346.602 216.72-106.36-25-260.019-133.85-306.642-206.72-75.41-117.87-115.36-338.97-9.09-427.16 32.409-26.89 114.732-65.12 227.732-45.12-138.002-42.5-222.792-6.13-267.732 35.12-111.06 101.99-66.28 309.29 9.13 427.16z" fill="#000" fill-opacity=".1"/><path d="m2000 2548c154 0 220 135 260 246s58 220 58 292c0 152-138.68 305.46-318 307-175.53 1.51-318-155-318-307 0-72 17.7-181.5 58-292 40-111 106-246 260-246z" fill="#494542" stroke="#333" stroke-miterlimit="10" stroke-width="5"/><ellipse cx="2000" cy="2944.5" fill="#ffcd98" rx="88" ry="111.5"/><path d="m2220.79 3301.3c60.32-58.13 97.21-136.91 97.21-215.3 0-52.14-9.44-123.69-29.84-201.35 45.24 64.82 68.1 131.83 62.8 193.93-3.62 35.84 25.54 68.42 62.04 68.42s59.14-24.35 62.33-55.82c8.49-93.84-22.43-190.25-87.1-281.54-99 42.28-226.55 68.67-366.44 71.17l-21.79 114.19-21.79-114.19c-139.89-2.5-267.44-28.89-366.44-71.17-64.67 91.29-95.59 187.7-87.1 281.54 3.19 31.47 25.83 55.82 62.33 55.82s65.66-32.58 62.04-68.42c-5.29-61.96 17.46-128.82 62.5-193.5-20.31 77.36-29.54 148.92-29.54 200.92 0 77.91 37.43 157 97.55 215.39 143.44 39.57 297.82 39.54 441.24-.09z" fill="#feebff" stroke="#333" stroke-linecap="round" stroke-linejoin="round" stroke-width="5"/><path d="m2241.41 2834.14-132.15 159.15-90.61-93.19z" fill="#000" fill-opacity=".1"/><path d="m2243.24 2813.14-127.71 148.19-94.92-59.21z" style="fill:#feebff;stroke:#333;stroke-width:5;stroke-miterlimit:10;stroke-linecap:round;stroke-linejoin:round"/><path d="m1758.59 2834.14 132.15 159.15 90.61-93.19z" fill="#000" fill-opacity=".1"/><path d="m1756.76 2813.14 127.71 148.19 94.92-59.21z" style="fill:#feebff;stroke:#333;stroke-width:5;stroke-miterlimit:10;stroke-linecap:round;stroke-linejoin:round"/><path d="m2355 2822.5c61.5 84 115.5 198.5 83 319.5 73-18.5 26.5-198.5-1.42-250.26-14.98-27.77-29.3-56.94-48.57-82-11.65 4.97-20.59 8.24-33.01 12.76z" fill="#000" fill-opacity=".15"/><path d="m1644.5 2822.5c-58.83 82.24-114 195-82.5 319.5-73-18.5-26.5-198.5 1.42-250.26 14.98-27.77 29.3-56.94 48.57-82 11.65 4.97 20.09 8.24 32.51 12.76z" fill="#000" fill-opacity=".15"/><path d="m2307.42 3159.61c-35.6 124.28-157.26 232.1-307.42 233.39-145.44 1.25-268.18-105.98-305.99-229.25 208.63 65.46 438.94 53.4 613.41-4.14z" fill="#233e5e" stroke="#333" stroke-miterlimit="10" stroke-width="5"/><path d="m1695.89 3169.66c-6.29-19.06-10.56-38.54-12.57-58.1 182.76 65.1 450.81 63.42 633.78-4.22-1.65 19.61-5.54 39.12-11.45 58.2-194.17 66.56-442.74 59.64-609.76 4.12z" fill="#0c0c0b" stroke="#333" stroke-miterlimit="10" stroke-width="5"/><path d="m2072.52 3146h-145.04c-8 0-14.48 6.46-14.48 14.42v49.16c0 7.96 6.48 14.42 14.48 14.42h145.04c8 0 14.48-6.46 14.48-14.42v-49.16c0-7.96-6.48-14.42-14.48-14.42z" fill="#0c0c0b" stroke="#333" stroke-miterlimit="10" stroke-width="5"/><path d="m2000 3393c-175.67 1.59-330-157-318-337 10 148 145.15 288.48 318 287s308-139 318-287c12 180-142.33 335.41-318 337z" fill="#000" fill-opacity=".2"/><path d="m2395 2818c-115.35 45.22-271 79-395 79s-259.34-26.43-395-79c-7.24 10.54-16.61 26.27-23 37 142 57 275 86 418 86s276-29 418-86c-6.15-10.7-15.93-26.36-23-37z" fill="#000" fill-opacity=".15"/><path d="m2500.32 839c42.32-35.85-124.32-76-146.52-139.49-26.8-76.51 395.59 127.1 331.57 261.08-5 10.51-55.43 94-417.61-23.77 398.16 129.18 699.66 403.12 698.24 910.18-1.09 388.75-350.07 990.81-966.43 996.18-594.62 5.19-966.64-596.22-965.57-996.18 1.32-488.44 432.13-990.94 966-1028.5 319.41-22.45 465.29 50.1 500.32 20.5z" fill="#494542" stroke="#333" stroke-linecap="round" stroke-linejoin="round" stroke-width="5"/><path d="m2565.16 861.34c-29.66 65.16-211.81-40-531.22-17.54-653.46 45.937-1126.939 771.2-864.58 1359.08 68.14-70.38 151.14-90.38 177.59-99.16 7.94 8.57 17.6 17.67 21.05 21.78-81.37 25.35-175.93 80.41-216.63 156.84-76.27-147.6-117-302.56-116.59-435.33 1.32-488.45 432.22-991 966.09-1028.57 319.41-22.45 464.56 50.1 499.59 20.46 42.18-35.75-124.46-75.9-146.65-139.39-8.57-24.46 28.82-20.27 81.55 1.13-20-2.88-31 1.83-25.55 15.87 19.38 50.39 180.3 90.02 155.35 144.83z" fill="#000" fill-opacity=".14"/><path d="m2964.5 1847.07c-.36 127.74-38.12 278.51-110.54 423.57-74.96-102.64-209.23-143.64-222.96-143.64 4-5 16-19.7 20-24.5 23.5 5.5 128.62 27.91 187.28 106.2 59.3-132.15 86.52-255.16 86.84-370.86 1.47-524.24-353.62-784.84-657.36-901.02 398.16 129.18 698.16 403.18 696.74 910.25z" fill="#000" fill-opacity=".14"/><path d="m1725 1203.5c-297 0-665 628.5-363.5 918.5-575.499 180 0 779 638.5 779s1214-599 638.5-779c301.5-290-66.5-918.5-363.5-918.5-126.5 0-195.51 58.5-275 116.5-79.5-58-148.5-116.5-275-116.5z" fill="#ffcd98" stroke="#333" stroke-width="5"/><path d="m2749.1 1817c-15.7-308.54-265-613.19-481.5-613.19-134.6 0-216.2 82.14-267.6 116.19-41.1-28.05-132.5-116.19-268.4-116.19-255.6 0-478.1 373.19-482.13 622.71-22.47-268.52 183.6-671.52 483.53-671.52 156 0 239 75 267 106 28-31 111-106 267-106 297.63 0 503.5 381.5 482.1 662z" fill="#000" fill-opacity=".14"/><path d="m1148.6 2266.67c-135.93 245.26 334.32 633.83 851.4 633.83s993.17-392.85 849.75-637.86c95.36 224.1-359.03 600.36-849.75 600.36-487.79 0-939.69-371.78-851.4-596.33z" fill="#000" fill-opacity=".1"/><path d="m1250.37 1807.39c-7.11 117.45 24.02 230.01 111.45 314.11-10.42 3.26-20.47 7.66-30.15 11.19 22.33-7.19 43.66-12.28 68.33-16.69-84.54-81.32-133.47-191.77-149.63-308.61z" fill="#000" fill-opacity=".1"/><path d="m2670.5 2133c-21.76-6.41-44.6-12.37-70.5-17 85.32-82.07 134.37-193.81 150.07-311.86 7.89 118.62-23.01 232.49-111.25 317.36 11.32 3.54 21.24 7.64 31.68 11.5z" fill="#000" fill-opacity=".1"/><path d="m2000.41 2770.62c275 0 572-112.5 663.25-379.44 15.25-42.3-22.09-84.98-67.45-78.53-197.53 28.07-396.79 42.15-596.3 42.15s-398.78-14.09-596.31-42.15c-45.32-6.44-82.16 36.02-67.46 78.53 92.27 266.94 389.27 379.44 664.27 379.44z" fill="#3d0c0c"/><path d="m2578.21 2512.16c32.74-40.14 55.99-82.74 67.74-125.83 8.9-32.67-14.69-60.04-47.04-55.45-396.36 55.5-801.44 56.2-1197.79.01-32.4-4.56-55.98 22.77-47.08 55.44 11.74 43.1 34.97 85.69 67.74 125.83 383.09 52.47 773.36 52.94 1156.43 0z" fill="#fff"/><path d="m2000.41 2752.12c198.55.34 414.2-65.72 553.93-212.94-367.46 48.34-741.25 48.3-1108.71.03 140.78 148.35 354.63 212.57 554.78 212.91z" fill="#fff"/><path d="m2645.95 2386.34c-11.75 43.08-35 85.68-67.74 125.82-29.6 4.09-59.24 7.83-88.92 11.23 42.55-59.77 72.34-124.18 92-190.06l17.54-2.44c32.43-4.6 56.02 22.77 47.12 55.45z" fill="#000" fill-opacity=".1"/><path d="m2266.36 2712.12c107.21-32.23 209.97-90.74 287.98-172.94-27.6 3.63-55.25 7.05-82.92 10.07-52.28 61.44-119.58 117.48-205.06 162.87z" fill="#000" fill-opacity=".1"/><path d="m1421.75 2512.16c29.82 4.05 59.68 7.82 89.57 11.31-42.71-59.71-72.52-124.15-92.11-190.05-6.04-.83-12.08-1.67-18.12-2.53-32.4-4.55-55.98 22.77-47.08 55.45 11.74 43.09 34.97 85.68 67.74 125.82z" fill="#000" fill-opacity=".1"/><path d="m1445.61 2539.17c78.35 82.56 182.38 141.74 290.3 173.75-86.43-45.37-154.18-101.8-206.61-163.61-27.93-3.04-55.83-6.48-83.69-10.14z" fill="#000" fill-opacity=".1"/><path d="m1757.01 1444.59c134.63 18.02 228.92 185.87 212.03 331.97-16.81 145.48-146.89 295.4-292.23 276.26-131.95-17.37-215.17-165.99-215.81-289.66-.85-165.66 146.06-338.64 296.01-318.57z" fill="#fff"/><path d="m1722.39 1961.85c-85.15-18.07-137.17-112.91-116.18-211.82 20.99-98.92 107.04-164.46 192.19-146.39 85.16 18.07 137.18 112.9 116.19 211.82s-107.04 164.46-192.2 146.39z" fill="#2f4941" stroke="#333" stroke-miterlimit="10" stroke-width="5"/><path d="m1767.61 1913.95c-50.96-.89-91.47-47.8-90.47-104.79.99-56.98 43.11-102.45 94.07-101.56s91.47 47.8 90.47 104.78c-.99 56.99-43.11 102.46-94.07 101.57z" fill="#000"/><path d="m1709.68 1762.97c-19.12-7.14-29.1-27.7-22.29-45.93 6.81-18.22 27.83-27.2 46.94-20.05 19.12 7.14 29.1 27.7 22.29 45.93-6.81 18.22-27.83 27.2-46.94 20.05z" fill="#fff" stroke="#333" stroke-miterlimit="10" stroke-width="5"/><path d="m1461.03 1763.16c.57 107.38 63.37 233.57 166.28 276.32-83.01-53.67-132.48-163.84-132.99-259.2-.84-159.92 157.76-375.66 336.21-309.4-22.65-13.59-47.29-22.78-73.49-26.29-149.98-20.07-296.89 152.91-296.01 318.57z" fill="#000" fill-opacity=".05"/><path d="m1703.79 1956.37c-53.01-38.02-80.66-112.43-64.35-189.29 19.51-91.94 110.19-175.46 207.98-142.61-14.84-10.13-31.51-17.27-49.08-21-85.16-18.08-171.21 47.46-192.22 146.35-19.42 91.55 23.66 179.6 97.67 206.55z" fill="#000" fill-opacity=".15"/><path d="m2242.99 1444.59c-134.63 18.02-228.92 185.87-212.03 331.97 16.81 145.48 146.89 295.4 292.23 276.26 131.95-17.37 215.17-165.99 215.81-289.66.85-165.66-146.06-338.64-296.01-318.57z" fill="#fff"/><path d="m2277.61 1961.85c85.15-18.07 137.17-112.91 116.18-211.82-20.99-98.92-107.04-164.46-192.19-146.39-85.16 18.07-137.18 112.9-116.19 211.82s107.04 164.46 192.2 146.39z" fill="#2f4941" stroke="#333" stroke-miterlimit="10" stroke-width="5"/><path d="m2232.4 1913.95c50.96-.89 91.46-47.8 90.47-104.79-1-56.98-43.11-102.45-94.08-101.56-50.96.89-91.46 47.8-90.47 104.78 1 56.99 43.12 102.46 94.08 101.57z" fill="#000"/><path d="m2290.33 1762.97c19.11-7.14 29.09-27.7 22.28-45.92-6.81-18.23-27.82-27.2-46.94-20.06s-29.1 27.71-22.29 45.93 27.83 27.2 46.95 20.05z" fill="#fff" stroke="#333" stroke-miterlimit="10" stroke-width="5"/><path d="m2538.97 1763.16c-.58 107.38-63.37 233.57-166.28 276.32 83.01-53.67 132.48-163.84 132.99-259.2.83-159.92-157.76-375.66-336.22-309.4 22.65-13.59 47.3-22.78 73.5-26.29 149.98-20.07 296.89 152.91 296.01 318.57z" fill="#000" fill-opacity=".05"/><path d="m2296.2 1956.37c53.02-38.02 80.67-112.44 64.35-189.29-19.51-91.94-110.18-175.46-207.97-142.61 14.84-10.13 31.51-17.27 49.08-21 85.16-18.08 171.21 47.46 192.21 146.35 19.43 91.55-23.65 179.6-97.67 206.55z" fill="#000" fill-opacity=".15"/><path d="m2744.23 1617.56c-67.73-47.4-186.23-92.55-417.07-77.32-110.2 7.27-217.33 38.8-274.15 89.79-8.59 7.71-15.77 18.33-21.43 31.41-18.07-3.38-46.1-4.19-63.55 2-5.78-14-13.26-25.33-22.29-33.43-77.48-68.26-193.37-84.19-292.24-91.22-189.5-13.46-310 20.7-398 81.71-75 52-142.72 99.48-218.5 151 0 2 1 4 1.5 5.5l205.35-112.2c5.24 2.74 31 18.14 30.09 74.88-3.94 245.32 153.43 354.01 353.17 362.97 230.39 10.34 362.39-176.65 354.24-377.14 11.51-5.73 24.08-7.66 36.09 2.63-8.94 222.86 143.59 383.94 354.4 374.47 224.16-10.06 359.3-152.78 353.22-359.88 1.14-58.71 28-76.83 33.47-79.94l205.47 111.21c.5-.5 1.5-1.5 2.5-3-20-14.04-195.1-134.42-222.27-153.44zm-1115.9 455.16c-188.33-11.72-332.12-137.72-324.45-332.63 2.23-56.67 15.9-95.94 29.38-112.68 47.24-58.67 234.77-64.93 320.24-58.67 90.75 6.65 208 29.26 272.16 83.5 15.75 13.31 25.14 46.55 26.2 87.69 4.42 181.11-136.2 344.45-323.53 332.79zm743.51 1.73c-188.16 1.64-329.91-145.88-325.05-334.4 1.06-41.14 10.85-73.92 26.2-87.69 66.02-59.24 198.01-76.84 254.17-82.2 88.11-8.41 287.84-7.11 338.21 57.36 13.24 16.94 27.15 56 29.38 112.68 7.55 191.57-125.75 332.52-322.91 334.25z" fill="#000" fill-opacity=".1"/><path d="m1328.86 1597.13c-60.77 82.59-69.42 441.92 299.52 458.48 326.26 14.64 376.07-369 301-436.4-125.58-112.69-533.16-113.62-600.52-22.08z" fill="#9afff2" fill-opacity=".3"/><path d="m2670.48 1597.13c60.77 82.59 69.42 441.92-299.52 458.48-326.26 14.64-376.07-369-301-436.4 125.58-112.69 533.16-113.62 600.52-22.08z" fill="#9afff2" fill-opacity=".3"/><path d="m2744.23 1591.56c-67.73-47.4-186.23-92.55-417.07-77.32-110.2 7.27-217.33 38.8-274.15 89.79-8.59 7.71-15.77 18.33-21.43 31.41-18.07-3.38-46.1-4.19-63.55 2-5.78-14-13.26-25.33-22.29-33.43-77.48-68.26-193.37-84.19-292.24-91.22-189.5-13.46-310 20.7-398 81.71-75 52-155.86 106.06-231.64 157.58-15.82 11.1 1.65 34.82 16.86 24.81l203.13-138.09c5.24 2.74 31 18.14 30.09 74.88-3.94 245.32 153.43 354.01 353.17 362.97 230.39 10.34 362.39-176.65 354.24-377.14 11.51-5.73 24.08-7.66 36.09 2.63-8.94 222.86 143.59 383.94 354.4 374.47 224.16-10.06 359.3-152.78 353.22-359.88 1.14-58.71 28-76.83 33.47-79.94l203.09 138.06c16.14 10.62 31.76-14.35 16.86-24.81-20.01-14.04-207.08-139.46-234.25-158.48zm-1115.9 455.16c-188.33-11.72-332.12-137.72-324.45-332.63 2.23-56.67 15.9-95.94 29.38-112.68 47.24-58.67 234.77-64.93 320.24-58.67 90.75 6.65 208 29.26 272.16 83.5 15.75 13.31 25.14 46.55 26.2 87.69 4.42 181.11-136.2 344.45-323.53 332.79zm743.51 1.73c-188.16 1.64-329.91-145.88-325.05-334.4 1.06-41.14 10.85-73.92 26.2-87.69 66.02-59.24 198.01-76.84 254.17-82.2 88.11-8.41 287.84-7.11 338.21 57.36 13.24 16.94 27.15 56 29.38 112.68 7.55 191.57-125.75 332.52-322.91 334.25z" fill="#35241d"/><path d="m2424.58 1540.34c-32.79-.39-65.61 1-98.25 4.05-1.55-10-1.38-19.99.67-29.89 33-2.5 64.29-3.27 95.5-3 2.53 9.76 3.14 18.81 2.08 28.84z" fill="#8e6930"/><path d="m2494.99 1544c-11.61-1.1-23.25-1.95-34.89-2.53 0-10.01.04-19.01.33-29.02 11.71.57 22.86 1.03 34.07 2.05.29 10.04.61 19.46.49 29.5z" fill="#8e6930"/><path d="m2559 1522c-3.13 11-7.83 18.25-12.48 18.25-5.2 0-9.87-8.46-13.07-21.89 8.64 1.26 17.48 2.1 25.55 3.64z" fill="#8e6930"/><path d="m2677.36 1913.55c-5.74 9.88-12.01 19.44-18.79 28.64-8.4-5.46-16.3-11.66-23.6-18.53 5.1-6.95 9.9-14.18 14.4-21.69 9.65 3.05 19.01 6.92 27.99 11.58z" fill="#8e6930"/><path d="m1329.5 1860c-13.41-5.05-27.27-11.43-39.45-18.98-4.2-13.96-7.6-28.14-10.17-42.49 11.79 4.3 23.17 9.65 34 16h.06c3.74 15.52 9.63 30.65 15.56 45.47z" fill="#8e6930"/><path d="m1909.5 1577.5c-5 10.72-10.58 20.09-15.56 26.27-6.22-3.61-12.85-7.09-19.9-10.45.41-8.43 2.83-20.2 5.96-31.82 10.22 4.56 19.81 10.4 29.5 16z" fill="#8e6930"/><path d="m1243.77 1625.84-203.13 138.09c-7.41 5.02-18.11 2.11-21.94-5.93-4.7 12.5 9.99 27.02 21.94 18.91l203.13-138.09c5.07 2.65 27.27 17.15 29.89 69.43.43-26.88-2.6-68.11-29.89-82.41zm681.87-12.53c-61.64-55.29-178.65-76.45-270.14-83.35-85.77-6.47-286.64 4.56-326 58.04-26.83 36.45-26.62 89.96-25.86 133.9.34-30.4 3.87-88.56 29.6-120.42 47.26-58.52 236.48-64.99 322.26-58.52 91.03 6.87 201.5 27.71 270.14 83.35 23.4 18.97 25.36 63.69 26.2 88.9.72-32.59-.19-78.57-26.2-101.9zm56.2 101.93c-3.77 192.65-155.45 357.51-354.93 348.46-198.2-8.9-350.2-142.03-353.4-342.08 0 230.38 149.79 345.94 353.4 355.08 203.75 9.03 354.96-141.7 354.96-361.46zm-.69-28.68c.29 4.14.49 8.37.62 12.7 11.18-5.42 23.32-7.13 35 2.51 0-4.18.22-8.37.48-12.54-11.99-10.33-24.56-8.4-36.07-2.67zm416.85-159.4c-105.14 1.61-243.6 13.06-325.04 86.13-17.96 16.11-34.46 57.21-26.2 100.69 1.06-41.14 10.46-74.37 26.2-87.69 76.54-64.79 219.88-84.48 325.04-86.11 76.75-1.19 228.34 8.32 267.34 61.27 24.2 32.85 28.98 80.9 29.6 120.35 5.56-61.3-1.43-103.58-16.94-125.8-37-53-172.97-70.49-280-68.84zm326.93 194.45c-3.25 202.4-155.53 333.2-353.33 342.08-199.68 8.86-350.83-155.74-354.97-348.43-3.94 197.28 136.57 371.34 354.97 361.43s356.92-147.25 353.4-355.08zm258.42 34.39c-3.89 8.16-14.5 10.97-21.94 5.93l-203.09-138.06c-29.22 16.52-33.6 58.2-33.31 88.13 2.46-54.9 28-72.11 33.31-75.13l203.09 138.06c12.5 8.48 26.59-5.93 21.94-18.91z" fill="#000" opacity=".5"/><path d="m1785 2099c0 76.35 98.85 169 216.26 168 108.22-.95 213.74-92.55 213.74-167.78 0-152.13-430-154.42-430-.22z" fill="#000" fill-opacity=".1"/><path d="m1782 2081c0 76.35 100.23 169 219.27 168 109.73-.95 216.73-92.55 216.73-167.78 0-60.53-126.24-113.77-216.73-113-84.02.78-219.27 41.16-219.27 112.78z" fill="#7f6145"/><path d="m1783.58 2067.77c41.76 54.75 124.68 100.94 217.85 100.22 86.21-.68 170.92-47.12 214.09-101.55 1.62 4.86 2.48 9.8 2.48 14.78 0 75.23-107 166.83-216.73 167.78-119.04 1-219.27-91.65-219.27-168 0-4.54.54-8.95 1.58-13.23z" fill="#000" fill-opacity=".2"/><path d="m1910 3556c32 0 63.09-23.6 66.69-56.14 9.12-82.21-94.34-89.68-150.66-90.92-57.1-1.25-154.03 9.56-171.02 72.27-14.85 54.79 36.49 74.79 72.99 74.79s49-12.15 92.98-12.15c38.41 0 57.02 12.15 89.02 12.15z" fill="#f7c394" stroke="#333" stroke-miterlimit="10" stroke-width="5"/><path d="m1909 3534c-32 0-50.61-12.15-89.02-12.15-43.98 0-56.48 12.15-92.98 12.15-28.39 0-65.75-12.1-73.97-43.26-6.73 47.6 40.67 65.26 74.97 65.26 36.5 0 49-12.15 92.98-12.15 38.41 0 57.02 12.15 89.02 12.15 42.86 0 73-34.15 65.91-80.26-2.97 33.46-34.04 58.26-66.91 58.26z" fill="#000" fill-opacity=".1"/><path d="m2090 3556c-32 0-63.09-23.6-66.69-56.14-9.12-82.21 94.34-89.68 150.66-90.92 57.1-1.25 154.03 9.56 171.02 72.27 14.85 54.79-36.49 74.79-72.99 74.79s-49-12.15-92.98-12.15c-38.41 0-57.02 12.15-89.02 12.15z" fill="#f7c394" stroke="#333" stroke-miterlimit="10" stroke-width="5"/><path d="m2091 3534c32 0 50.61-12.15 89.02-12.15 43.98 0 56.48 12.15 92.98 12.15 28.39 0 65.75-12.1 73.97-43.26 6.73 47.6-40.67 65.26-74.97 65.26-36.5 0-49-12.15-92.98-12.15-38.41 0-57.02 12.15-89.02 12.15-42.86 0-73-34.15-65.91-80.26 2.97 33.46 34.04 58.26 66.91 58.26z" fill="#000" fill-opacity=".1"/><path d="m1483 3133c-11.05 0-20 8.95-20 20v69c0 13.56 20 30.49 20 11v-67c0-7.18 5.82-13 13-13h192c7.18 0 13 5.82 13 13v67c0 19.49 20 2.56 20-11v-69c0-11.05-8.95-20-20-20z" fill="#a8a8a8" stroke="#333" stroke-width="5"/><path d="m1465.09 3144.09c3.28-6.57 10.07-11.09 17.91-11.09h218c11.05 0 20 8.95 20 20v69c0 10.66-9 27.55-9 9v-69c0-15.5-4-20-20-20h-218c-3.2 0-6.23.75-8.91 2.09z" fill="#000" fill-opacity=".15"/><path d="m1601.4 3259.89c56.81.05 92.98-68.11 58.59-115.27 15.91-45.21-18.09-95.39-66.66-96.55-56-1.34-88.37 58.5-82.5 109.13 5.48 47.31 37.52 102.65 90.57 102.69z" fill="#f7c394" stroke="#333" stroke-miterlimit="10" stroke-width="5"/><path d="m1510.83 3157.2c6.78 58.57 54.37 126.8 125.37 93.8-68.83-8.8-117-125.5-83.11-191.84-5.39 3.84-13.89 8.34-27.6 27.61-12.29 21.73-17.7 46.2-14.66 70.43z" fill="#000" fill-opacity=".1"/><path d="m1366 3216.5c-12.43 0-22.5 10.07-22.5 22.5v256c0 12.43 10.07 22.5 22.5 22.5h452c12.43 0 22.5-10.07 22.5-22.5v-256c0-12.43-10.07-22.5-22.5-22.5z" fill="#ccc" stroke="#333" stroke-width="5"/><path d="m1366 3219c-11.05 0-20 8.95-20 20v36h50v-56z" fill="#848484"/><path d="m1366 3515c-11.05 0-20-8.95-20-20v-36h50v56z" fill="#848484"/><path d="m1838 3239c0-11.05-8.95-20-20-20h-30v56h50z" fill="#848484"/><path d="m1818 3515c11.05 0 20-8.95 20-20v-36h-50v56z" fill="#848484"/><path d="m1370 3255c0-6.63 5.37-12 12-12h420c6.63 0 12 5.37 12 12v224c0 6.63-5.37 12-12 12h-420c-6.63 0-12-5.37-12-12z" fill="#a8a8a8"/><path d="m1820 3295h-456v8h456z" fill="#ccc"/><path d="m1820 3415h-456v8h456z" fill="#ccc"/><path d="m1364 3311h456v8h-456z" fill="#ccc"/><path d="m1820 3431h-456v8h456z" fill="#ccc"/><g fill="#848484"><path d="m1455.89 3351.79h9.93v19.2c0 8.79-6.52 13.58-14.63 13.58-8.76 0-16.24-4.25-16.24-13.58v-19.2h9.93v19.66c0 3.34 2.15 5.61 5.52 5.61 3.35 0 5.49-2.28 5.49-5.61z"/><path d="m1472.37 3351.79h16.54c6.23 0 10.79 3.37 10.79 9.89 0 10.04-9.82 10.37-17.33 10.37v11.95h-10zm10 13.73c2.75 0 7.64.44 7.64-3.56 0-4.13-4.75-3.62-7.64-3.62z"/><path d="m1504.91 3351.79h26.67v6.88h-16.7v5.11h15.5v6.57h-15.5v6.35h17.19v7.3h-27.16z"/><path d="m1585.77 3373.34 9.47-.59c.42 3.13 2.26 5.47 5.65 5.47 1.97 0 4.43-.99 4.43-3.32 0-2.95-4.04-3.63-6.19-4.11-5.37-1.2-12.15-3.56-12.15-10.13 0-7.16 7.72-9.42 13.69-9.42 6.59 0 12.39 2.45 13.27 9.6l-9.38.55c-.46-2.65-2.18-4.15-4.88-4.15-1.55 0-3.5.67-3.5 2.52 0 1.87 2.74 2.3 4.07 2.57 6.13 1.33 14.74 3.3 14.74 11.19 0 7.88-7.54 11.03-14.26 11.03-7.61 0-14.25-2.86-14.96-11.21z"/><path d="m1620 3351.79h26.68v6.88h-16.7v5.11h15.49v6.57h-15.49v6.35h17.18v7.3h-27.16z"/><path d="m1673.99 3370.84 8.72 2.63c-1.76 7.36-7.32 11.1-14.59 11.1-10.19 0-16.74-6.75-16.74-16.74 0-9.95 6.23-16.59 16.28-16.59 7.08 0 12.46 3.15 14.74 10.02l-8.78 1.95c-.82-2.61-2.81-4.52-5.72-4.52-8.86 0-9.17 18.41-.35 18.41 3.85 0 5.69-2.78 6.44-6.26z"/><path d="m1687.7 3384v-32.21h16.59c5.99 0 12.48 1.55 12.48 8.94 0 4.73-3.25 8.02-7.78 9.05 6.14 2.05 7.72 9.03 10.39 14.22h-11.25c-2.48-4.6-3.97-13.07-10.43-13.07v13.07zm10-19.16c2.75 0 9.07.85 9.07-3.32 0-4.23-6.26-3.23-9.07-3.23z"/><path d="m1722.57 3351.79h26.68v6.88h-16.7v5.11h15.49v6.57h-15.49v6.35h17.18v7.3h-27.16z"/><path d="m1752.85 3351.79h30.25v7.95h-10.15v24.26h-9.95v-24.26h-10.15z"/><path d="m1537.54 3384v-32.21h16.59c5.99 0 12.48 1.55 12.48 8.94 0 4.73-3.25 8.02-7.78 9.05 6.13 2.05 7.72 9.03 10.39 14.22h-11.25c-2.48-4.6-3.97-13.07-10.43-13.07v13.07zm10-19.16c2.75 0 9.07.85 9.07-3.32 0-4.23-6.26-3.23-9.07-3.23z"/><path d="m1401 3373.34 9.47-.59c.42 3.13 2.27 5.47 5.65 5.47 1.97 0 4.44-.99 4.44-3.32 0-2.95-4.05-3.63-6.2-4.11-5.37-1.2-12.15-3.56-12.15-10.13 0-7.16 7.72-9.42 13.69-9.42 6.59 0 12.39 2.45 13.27 9.6l-9.38.55c-.46-2.65-2.18-4.15-4.88-4.15-1.55 0-3.49.67-3.49 2.52 0 1.87 2.73 2.3 4.06 2.57 6.13 1.33 14.74 3.3 14.74 11.19 0 7.88-7.54 11.03-14.26 11.03-7.61 0-14.25-2.86-14.96-11.21z"/></g><path d="m2398.6 3259.89c-56.82.05-92.99-68.11-58.59-115.27-15.92-45.21 18.08-95.39 66.66-96.55 56-1.34 88.36 58.5 82.5 109.13-5.48 47.31-37.53 102.65-90.57 102.69z" fill="#f7c394" stroke="#333" stroke-miterlimit="10" stroke-width="5"/><path d="m2489.17 3157.2c-6.78 58.57-54.37 126.8-125.37 93.8 68.82-8.8 117-125.5 83.11-191.84 5.39 3.84 13.89 8.34 27.6 27.61 12.29 21.73 17.7 46.2 14.66 70.43z" fill="#000" fill-opacity=".1"/><path d="m2489.73 1420.88c100.57 0 270.27-11.88 337.78-88.71-125.16-193.33-325.2-319.04-558.55-394.96 644.9 209.34 392.39-165.194-268.96-118.711-345.33 24.296-647.55 243.131-818.29 526.861 36.72 48.32 120 73.62 244.26 73.62 101.28 0 226.3-17 361.62-49 233.32 22.38 467.49 50.9 702.14 50.9z" fill="#000" fill-opacity=".2"/><path d="m2488.73 1372.88c-175.28 0-399.83-21.71-617-42.71-28.47-2.75-56.85-5.48-85.14-8.19-135.32 32-260.34 49-361.62 49-149.77 0-240-36.75-260.94-106.27-13.87-46-3.72-98 29.34-150.29 42.5-67.19 118.72-125.33 181.38-139.5-26.85-64-24.47-125.78 7-175 17.13-26.81 42.5-49 73.38-64.28 30.45-15 65.61-23 101.69-23 2.36 0 4.74 0 7.12.11-13.1-20.91-21.09-41.3-23.8-60.8-3.11-21.019.43-42.486 10.13-61.39 18-35.21 53.11-57.29 79.44-69.62 25.19-11.79 53.56-19.81 77.05-22-21.43-25.22-30.46-48.57-27.56-71.05 5.46-42.2 51.57-69.3 92.25-93.22 25.29-14.86 51.44-30.24 53.93-43.33 4.07-21.37-8.86-38.18-20.27-53-8.86-11.5-16.51-21.44-13.29-31.95 2.77-9.07 12.31-13.19 19.25-15.5 10.25-3.42 23.32-5.15 38.85-5.15 39.4 0 96.61 11.48 157 31.5 58.49 19.4 112 43.94 146.86 67.33 50.45 33.86 90.58 71.31 116.06 108.32 14.39 20.9 24 41.54 28.49 61.35 4.11 18 4.05 35.43-.16 51.92 36.57 1.88 72.76 13.31 105.31 33.34 32.07 19.841 59.38 46.49 80 78.06 28.21 43.2 39 89.21 29.54 123.21 30.49 3.44 57.49 12.78 80.37 27.84s41.23 35.43 54.62 60.65c15.72 29.58 23.82 64.33 23.42 100.5-.33 30.33-6.74 59.1-18.17 82.07 32.3 16.41 62.86 36.03 91.22 58.56 47.13 37.68 77.45 76.44 90.11 115.19 11.42 34.94 8.09 69.26-9.9 102-17.24 31.38-56 53.42-118.42 67.38-54.17 12.04-125.3 17.92-217.54 17.92z" fill="#714d2c"/><path d="m2287.33 513.82c-47 50.17-426.56 240.21-708.83 207.68-8.51-11.51-14.61-23.723-20.49-36.77 277 12.76 630.8-175.94 651.38-224.15 27.47-64.33-91.78-182.53-347.47-266.9 356.91 25.18 477.85 277.37 425.41 320.14z" fill="#000" fill-opacity=".15"/><path d="m2817.6 1283.67c-72.31 131.63-574.29 73.82-1031.56 30.22 105.83-18.3 216.9-42.51 320.91-66.89 274.54 5.82 533.51 17.93 594-27.8 55.68-42.13-7.46-152.76-49.46-199.35 106.61 53.04 223.97 158.51 166.11 263.82z" fill="#000" fill-opacity=".15"/><path d="m2642.19 1015.34c-41 48.6-332.59 216.45-856.15 298.55-278.47 66.08-527.42 71.25-598.45-20.76 252.91 36.87 1051.91-69.63 1374.6-327.79 47.88-38.303 31.3-149.52-20.68-211.14 128.21 34.55 142.87 188.56 100.68 261.14z" fill="#000" fill-opacity=".15"/><path d="m2503 747.5c-153.5 117.42-537.29 281.7-1116.9 233.35-6.6-14.115-11.88-28.811-15.78-43.9 526.93 24.28 986.47-175.25 1021.62-239.19s16.45-128-75.31-181.83c131.47 18.93 217.38 160.94 186.37 231.57z" fill="#000" fill-opacity=".15"/><path d="m1723 505.5c41.42 3.1 178.53-14.759 295.87-89.029-106.11 28.2-220.24 34.44-332 14.51-4.77 19.23 15.63 54.519 36.13 74.519z" fill="#000" fill-opacity=".15"/><path d="m2488.73 1372.88c-175.28 0-399.83-21.71-617-42.71-28.47-2.75-56.85-5.48-85.14-8.19-135.32 32-260.34 49-361.62 49-149.77 0-240-36.75-260.94-106.27-13.87-46-3.72-98 29.34-150.29 42.5-67.19 118.72-125.33 181.38-139.5-26.85-64-24.47-125.78 7-175 17.13-26.81 42.5-49 73.38-64.28 30.45-15 65.61-23 101.69-23 2.36 0 4.74 0 7.12.11-13.1-20.91-21.09-41.3-23.8-60.8-3.11-21.019.43-42.486 10.13-61.39 18-35.21 53.11-57.29 79.44-69.62 25.19-11.79 53.56-19.81 77.05-22-21.43-25.22-30.46-48.57-27.56-71.05 5.46-42.2 51.57-69.3 92.25-93.22 25.29-14.86 51.44-30.24 53.93-43.33 4.07-21.37-8.86-38.18-20.27-53-8.86-11.5-16.51-21.44-13.29-31.95 2.77-9.07 12.31-13.19 19.25-15.5 10.25-3.42 23.32-5.15 38.85-5.15 39.4 0 96.61 11.48 157 31.5 58.49 19.4 112 43.94 146.86 67.33 50.45 33.86 90.58 71.31 116.06 108.32 14.39 20.9 24 41.54 28.49 61.35 4.11 18 4.05 35.43-.16 51.92 36.57 1.88 72.76 13.31 105.31 33.34 32.07 19.841 59.38 46.49 80 78.06 28.21 43.2 39 89.21 29.54 123.21 30.49 3.44 57.49 12.78 80.37 27.84s41.23 35.43 54.62 60.65c15.72 29.58 23.82 64.33 23.42 100.5-.33 30.33-6.74 59.1-18.17 82.07 32.3 16.41 62.86 36.03 91.22 58.56 47.13 37.68 77.45 76.44 90.11 115.19 11.42 34.94 8.09 69.26-9.9 102-17.24 31.38-56 53.42-118.42 67.38-54.17 12.04-125.3 17.92-217.54 17.92z" stroke="#4d3117" stroke-width="16"/><path d="m1708 500.14c45.39 9.42 230.5-20.14 313-81.64" stroke="#4d3117" stroke-linecap="round" stroke-miterlimit="10" stroke-width="10"/><path d="m1782 1320c170.5-40 579.5-96 869.5-308" stroke="#4d3117" stroke-linecap="round" stroke-miterlimit="10" stroke-width="10"/><path d="m1373 977c121.61 12 731.3 63.87 1135.5-234" stroke="#4d3117" stroke-linecap="round" stroke-miterlimit="10" stroke-width="10"/><path d="m2296 504c-76.5 91.5-522.9 269.52-737 211" stroke="#4d3117" stroke-linecap="round" stroke-miterlimit="10" stroke-width="10"/><path d="m2338.74 643.325h-695.48c-27.62 0-54.94 5.795-80.18 17.009l-119.38 53.034c-12.94 5.751-8.72 38.768 7.36 33.868 48.78-14.861 99.07-36.459 149.55-44.414-6.11 80.565 42.69 232.798 187.11 232.798 146.99 0 203.41-141.728 197.17-234.174h12.37c-6.77 80.194 41.75 234.174 187 234.174 146.26 0 202.84-140.308 197.26-232.778 50.44 8.01 100.67 29.542 149.42 44.394 16.08 4.9 20.3-28.117 7.36-33.868l-119.38-53.034c-25.24-11.214-52.56-17.009-80.18-17.009z" fill="#000"/><path d="m2338.74 665.325h-695.48c-27.62 0-54.94 5.795-80.18 17.009l-115.08 64.666c70.5-9.5 136.91-19.705 152.61-22.178-6.11 80.565 42.69 232.798 187.11 232.798 146.99 0 203.41-141.728 197.17-234.174h12.37c-6.77 80.194 41.75 234.174 187 234.174 146.26 0 202.84-140.308 197.26-232.778 45.48 7.658 96.98 16.658 151.98 22.658l-114.58-65.166c-25.25-11.214-52.56-17.009-80.18-17.009z" fill="#000" fill-opacity=".2"/><path d="m2306.82 854.46c-111.85 90.942-272.19 0-272.19-138.908 52.82 93.108 166.18 148.735 272.19 138.908z" fill="#fff"/><path d="m1910.29 854.46c-111.86 90.942-272.2 0-272.2-138.908 52.83 93.108 166.18 148.735 272.2 138.908z" fill="#fff"/><path d="m1995.53 1169.77c91.3 0 189.9-37.35 220.2-125.97 5.06-14.05-7.34-28.22-22.39-26.07-65.58 9.31-131.74 13.99-197.97 13.99-66.24 0-132.4-4.68-197.98-13.99-15.04-2.14-27.27 11.95-22.39 26.07 30.63 88.62 129.23 125.97 220.53 125.97z" fill="#3d0c0c"/><path d="m1995.53 1163.63c49.85.08 102.93-12.44 145.92-39.68-89.28 5.81-209.8 7.64-291.47.47 42.9 27.01 95.51 39.12 145.55 39.21z" fill="#fff"/><path d="m2305.16 1177.65c-58.28-11.37-148.25-35.6-193.4-67.04-12.78-8.9-12.85-35.06 13.18-37.21 87.08-7.21 158.79-3.06 212.91-.07 28.31 38.11 40.71 116.3-32.69 104.32z" fill="#b34a31"/><path d="m2265.14 1070.09-2.16-.09c-17.26 27.02-24.76 61.18-20.75 92.96.59.18 1.17.34 1.83.5-4.17-31.95 3.5-66.32 21.08-93.37z" fill="#933b2a"/><path d="m2200.73 1069.67c-15.87 20.23-24.9 46.31-25.39 72.05.33.16 1.1.46 1.66.66.37-26.02 9.79-52.44 26.06-72.71z" fill="#933b2a"/><path d="m2151.34 1071.59c-10.53 15.8-16.76 32.48-18.83 51.37.53.25 1.11.58 1.66.83 2-19.23 8.37-36.33 19.25-52.29z" fill="#933b2a"/><path d="m2200.4 1072.99c-29.75 3.37-63.07 6.71-92.95 8.63.99-1.49 3.71-3.78 5.64-4.81 28.55-1.91 61.35-8.2 89.97-7.14-.18.22-2.1 2.49-2.66 3.32z" fill="#000" fill-opacity=".2"/><path d="m2110.77 1095.34c45.14 31.44 135.12 55.67 193.39 67.04 39.27 6.4 53.98-12.99 54.83-38.25 4.94 32-6.92 61.17-53.83 53.52-58.28-11.37-148.25-35.6-193.4-67.04-6.95-4.84-10.14-14.77-7.43-23.18 1.44 3.17 3.63 5.95 6.44 7.91z" fill="#000" fill-opacity=".2"/><path d="m2306.81 1179.07c-8.76-1.48-23-2.59-24.14-13.25-.25-2.3 2-4.41 1.73-6.87-.62-5.71-8.28-5.2-9.64-10.62-1.18-4.74 5.09-6.57 5.01-12.82-.1-7.54-8.91-9.82-8.23-16.44.47-4.6 4.85-4.7 5.92-10.15 1.32-6.8-3.28-9.35-1.31-12.55 2.53-4.13 9.79-3.11 12.73-7.5 2.26-3.39 3.03-5.23 4.93-9.92 5.45-13.44 43.1-4.89 51.51-2.14 4.39 36.7-28.93 68.49-38.51 102.26z" fill="#eaeaea"/><path d="m2322.08 1184.05c-12.53-2.12-35.16-4.43-34.37-20.43.32-6.4-4.68-11.38-6.04-16.8-1.18-4.75 2.1-4.73 2.05-9.08-.1-7.54-5.46-10.34-4.78-16.96.48-4.6 3.67-4.52 4.73-9.97 1.32-6.79-.5-8.67 1.47-11.87 2.53-4.13 11.18-6.24 14.86-10.02 3.78-3.88 1.41-5.85 3.31-10.55 1.81-4.48 7.7-2.32 12.7-4.13 4.63-1.67 11.55-3.69 16.69-3.58 5.98.13 21.12 2.05 24.9 4.99 4.39 36.7-25.94 74.63-35.52 108.4z" fill="#c1c1c1"/><path d="m2395.78 1152.01c14.94-41.67-10.29-80.01-49.96-80.01-4.99 0-5.57 2.3-9.63 3.02-5.22.92-8.47-2.19-12.12 1.46-3.98 3.98-8.67 1.67-12.92 5.02-2.15 1.71-2.22 6.11-5.03 9.92-2.48 3.38-6.47 1.46-7.9 3.84-1.78 2.96 1.72 6.21-1.1 8.25-7.93 5.73-9.14 9.45-6.57 17.17.99 2.98-1.81 5.93-2.31 8.73-.62 3.49 1.25 6.18 1.95 10.54.9 5.59-2.89 6.78-1.06 10.6 1.18 2.52 4.1 5.09 4.67 8.77.56 3.64-1.43 6.3 0 9.45 11.56 25.5 87.04 24.9 101.98-16.76z" fill="#181818"/><path d="m2197.5 1069.84c5.62-9.03 9.8-18.31 12.35-27.65 2.95-10.85-4.88-19.94-15.62-18.41-131.59 18.42-266.08 18.65-397.66 0-10.76-1.51-18.59 7.56-15.63 18.41 2.54 9.35 6.72 18.62 12.34 27.65 93.22 12.78 281.63 16.76 404.22 0z" fill="#fff"/><path d="m2167.11 1073.45c10.49-1.08 20.65-2.28 30.39-3.61 5.62-9.03 9.8-18.3 12.35-27.65 2.93-10.75-4.74-19.77-15.32-18.45-2.06.25-4.1.57-6.15.85-4.99 16.73-11.95 33.17-21.27 48.86z" fill="#000" fill-opacity=".1"/><path d="m1793.28 1069.84c9.28 1.27 19.5 2.46 30.51 3.54-9.31-15.65-16.25-32.06-21.22-48.76-3.18-.44-6.48-1.23-9.71-.94-8.76.78-14.52 8.96-11.92 18.51 2.54 9.35 6.72 18.62 12.34 27.65z" fill="#000" fill-opacity=".1"/><path d="m2083.83 1150.35c20.2-6.08 39.8-15.1 57.62-26.4-6.26.41-12.67.8-19.21 1.16-11.36 9.16-24.12 17.65-38.41 25.24z" fill="#000" fill-opacity=".1"/><path d="m1869.73 1125.94c11.25 8.96 23.87 17.26 37.99 24.67-20.24-6-39.88-14.94-57.74-26.19 6.36.56 12.95 1.06 19.75 1.52z" fill="#000" fill-opacity=".1"/><g fill="#b5482c"><path d="m2336.16 1172.04c2.37-.57 3.4-.05 3.87-.77.47-.71-.08-2.16-1.04-2.86-2.58-1.89-11.87 3.21-9.77 5.51.82 1.04 5.8-1.61 6.94-1.88z"/><path d="m2330.44 1129.6c1.84-1.59 3-1.61 3.08-2.46.09-.85-1.07-1.88-2.24-2.06-3.16-.49-9.06 8.3-6.13 9.38 1.2.55 4.4-4.09 5.29-4.86z"/><path d="m2347.5 1087.33c-2.36-.63-5.82-3.7-6.58-3.29-.76.4-.34 3.77.17 4.84 1.36 2.89 13.99 2.94 13.25-.08-.22-1.31-5.71-1.17-6.84-1.47z"/><path d="m2355.97 1170.92c1.24 2.09 1.05 3.23 1.87 3.47.83.24 4.19-4.5 4.58-5.62 1.05-3.02-8.7-6.61-10.29-3.92-.76 1.08 3.24 5.06 3.84 6.07z"/><path d="m2360.84 1143.97c2.43-.2 3.37.47 3.95-.17.57-.64.09-3.41-.76-4.24-2.26-2.26-13.41 2.16-11.69 4.76.65 1.15 7.33-.25 8.5-.35z"/><path d="m2354.01 1125.98c8.44 1.2 23.9-6.67 9.39-8.32-3.18-.37-11.43-3.09-12.21 4.93-.2 2.08 1.66 3.22 2.82 3.39z"/><path d="m2314.54 1156.3c-4.49 1.08-10.56 4.15-4.01 8.9 2.58 1.89 13-7.75 10.9-10.06-.81-1.04-5.76.89-6.89 1.16z"/><path d="m2305.52 1141.5c-1.63-1.81-1.67-2.97-2.52-3.04-.86-.07-1.86 1.11-2.02 2.29-.43 3.16 8.49 8.88 9.51 5.93.53-1.21-4.18-4.32-4.97-5.18z"/><path d="m2309.6 1109.13c1.21.31 6.44-2.64 6.19-3.96-.4-2.18-7.15-1.55-8.04.41-.58 1.3.49 3.19 1.85 3.55z"/><path d="m2384.17 1135.28c1.2.31 6.44-2.64 6.19-3.95-.41-2.19-7.15-1.56-8.04.41-.58 1.29.49 3.18 1.85 3.54z"/><path d="m2368.03 1095.6c1.2.31 10.76.18 10.51-1.14-.4-2.18-12.52-6.72-13.42-4.76-.57 1.3 1.55 5.54 2.91 5.9z"/><path d="m2376.88 1107.61c.36 1.19 11.29 11.81 12.29 10.9 1.65-1.48-8.1-14.6-10.24-14.33-1.41.18-2.46 2.08-2.05 3.43z"/><path d="m2328.71 1114.08c1.21.29 15.91-3.76 15.64-5.07-.45-2.17-16.71-.41-17.56 1.57-.55 1.3.56 3.17 1.92 3.5z"/><path d="m2321.19 1094.61c2.81-2.11 9.27-1.68 9.03-3-.41-2.18-12.33.2-12.8 2.3-.69 3.12 2.65 1.55 3.77.7z"/><path d="m2314.6 1128.39c1.42-3.5 2.06-5.17 1.28-6.47-10.13-9.42-7.2 21.1-1.28 6.47z"/><path d="m2373.47 1163.32c.83 1.73 1.68-3.45 2.61-5.67.58-1.38 4.14-4.86 3.47-5.8-3.6-5.03-7.6 8.31-6.08 11.47z"/><path d="m2334.91 1151.45c1.2.31 6.43-.63 6.18-1.95-.4-2.18-6.18-7-8.04-1.59-.58 1.29.5 3.18 1.86 3.54z"/></g></svg>