<svg fill="none" height="4000" viewBox="0 0 4000 4000" width="4000" xmlns="http://www.w3.org/2000/svg"><path d="m2275.11 3290.64c-50.77-7.42-115.16-32.27-196.86-76-11.87-6.35-16.67-21.85-10.25-33.84 6.35-11.87 21.85-16.66 33.84-10.25 75.45 40.37 136.18 64.12 180.5 70.6 28.93 4.23 49.75 1 61.88-9.64 13.61-11.92 12.39-33 8.83-72.39-4.17-46.12-9.36-103.53 19.78-169.51 44-99.72 153.63-194.53 269.09-176.7 73.33 11.36 143.6 66.19 159.73 140.59 13.73 63.36-6.02 150.17-73.53 174.43-44.77 16-95.93-2.36-130.84-32.08-10.44-8.68-11.95-25-3.06-35.44 8.81-10.34 25.15-11.64 35.48-2.62.43.36 43.66 36.65 81.49 23.06 42.84-15.38 49.77-78.95 41.56-116.78-11.75-54.23-65.6-93.57-118.51-101.77-92.84-14.33-180.8 68.49-215.72 147.49-23.91 54.16-19.56 102.32-15.72 144.81 4 43.84 7.71 85.25-25.67 114.5-27.66 24.4-67.07 26.8-102.02 21.54z" fill="#7f6145" stroke="#333" stroke-miterlimit="10" stroke-width="5"/><path d="m2786.65 2965.53c11.06 51.02 1.18 114.55-37.82 152.08 51.41-33.7 65.07-107.56 52.82-164.08-16.13-74.41-86.39-129.24-159.73-140.6-66.26-10.23-131.78 18.56-181.54 60.82 114.12-80.75 293.29-60.36 326.27 91.78z" fill="#000" fill-opacity=".2"/><path d="m2717.62 3078.06c-27.03 31.45-75.59 15.26-102.89-8.23-3.14-2.68-6.9-4.54-10.94-5.41-4.03-.87-8.22-.73-12.19.41 3.97-7.3 11.63-12.23 19.93-12.9 6.6-.53 13.15 1.59 18.2 5.89 22.07 19.5 59.84 35.17 87.89 20.24z" fill="#000" fill-opacity=".2"/><path d="m2073.5 3173.5c3.5-3 15.5-9 23-5.5 6.98 3.26 15.34 7.39 24.73 12.03 49.42 24.41 127.47 62.97 183.77 62.97 50 0 54.5-25 47.5-91 .85 3.82 1.92 8.03 3.06 12.51 9.62 37.75 24.09 94.49-50.56 94.49-81.5 0-208.79-70.57-231.5-85.5z" fill="#000" fill-opacity=".2"/><path d="m1587 3147c36.5 0 65.66-32.58 62.04-68.42-5.42-63.52 18.62-132.19 65.95-198.39 43.05-60.25 89.21-93.25 53.71-132.19s-115.57 3.92-155.4 59.5c-65.71 91.92-97.19 189.11-88.63 283.68 3.19 31.47 25.83 55.82 62.33 55.82z" fill="#7f6145" stroke="#333" stroke-miterlimit="10" stroke-width="5"/><path d="m1553.08 3059.16c-.41-112.27 89.62-277.66 195.12-324.16-130-21-245 233.5-222.72 351.77 7.22-11.77 19.72-23.27 27.6-27.61z" fill="#000" fill-opacity=".15"/><path d="m1959.37 3446.51c5-87.08 27.4-154.43 47.17-206.81s42.42-144.7-42.56-166.02c-121.5-30.49-188.31 254.12-193.3 340.94-2.93 51.08 36.82 110.33 88.4 113.29 47.48 2.31 97.45-31.79 100.29-81.4z" fill="#7f6145" stroke="#333" stroke-miterlimit="10" stroke-width="5"/><path d="m1769.48 3414.5c51.5-7 148-7 188.5 34 .34-3.09 1.44-11.94 1.66-15.04-42.16-36.96-138.16-39.46-188.02-32.46-.26 3.3-1.86 10.13-2.14 13.5z" fill="#000" fill-opacity=".15"/><path d="m1785.48 3325c47.76 44.29 108.88 69.13 178 78.5.58-5.01 1.81-12.18 2.5-17-68.6-8.88-128.2-37.6-176-81-2 6-3.62 15.27-4.5 19.5z" fill="#000" fill-opacity=".15"/><path d="m2040.63 3446.51c-5-87.08-27.4-154.43-47.17-206.81s-42.42-144.7 42.56-166.02c121.5-30.49 188.31 254.12 193.3 340.94 2.93 51.08-36.82 110.33-88.4 113.29-47.48 2.31-97.45-31.79-100.29-81.4z" fill="#7f6145" stroke="#333" stroke-miterlimit="10" stroke-width="5"/><path d="m2230.52 3414.5c-51.5-7-148-7-188.5 34-.34-3.09-1.44-11.94-1.66-15.04 42.16-36.96 138.16-39.46 188.02-32.46.26 3.3 1.86 10.13 2.14 13.5z" fill="#000" fill-opacity=".15"/><path d="m2214.52 3325c-47.76 44.29-108.88 69.13-178 78.5-.58-5.01-1.81-12.18-2.5-17 68.6-8.88 128.2-37.6 176-81 2 6 3.62 15.27 4.5 19.5z" fill="#000" fill-opacity=".15"/><path d="m2413 3147c-36.5 0-65.66-32.58-62.04-68.42 5.42-63.52-18.62-132.19-65.95-198.39-43.06-60.25-89.21-93.25-53.71-132.19s115.56 3.92 155.4 59.5c65.71 91.92 97.19 189.11 88.63 283.68-3.19 31.47-25.83 55.82-62.33 55.82z" fill="#7f6145" stroke="#333" stroke-miterlimit="10" stroke-width="5"/><path d="m2446.91 3059.16c.42-112.27-89.61-277.66-195.11-324.16 130-21 245 233.5 222.71 351.77-7.21-11.77-19.71-23.27-27.6-27.61z" fill="#000" fill-opacity=".15"/><path d="m3133.19 1832.12c111.1 102 66.32 309.29-9.09 427.16-107.46 168-353.47 273.75-479.46 184.37-131.58-93.35-114.4-386.92 39.2-539.32 114.68-113.78 334.45-177.69 449.35-72.21z" fill="#f7c394" stroke="#333" stroke-miterlimit="10" stroke-width="5"/><path d="m3003.49 1952.22c66 68.19 30.1 196.68-21.65 267.88-73.75 101.45-232.17 158.69-307.94 97.86-79.14-63.53-57.39-247.22 44.75-337.18 76.26-67.16 216.64-99.08 284.84-28.56z" fill="#ffc9a1"/><path d="m3124.1 2259.28c-60.69 94.85-195.1 203.22-346.6 216.72 106.36-25 260.01-133.85 306.64-206.72 75.41-117.87 115.36-338.97 9.09-427.16-32.41-26.89-114.73-65.12-227.73-45.12 138-42.5 222.79-6.13 267.73 35.12 111.06 101.99 66.28 309.29-9.13 427.16z" fill="#000" fill-opacity=".1"/><path d="m866.818 1832.12c-111.1 102-66.32 309.29 9.09 427.16 107.46 168 353.472 273.75 479.462 184.37 131.58-93.35 114.4-386.92-39.2-539.32-114.68-113.78-334.452-177.69-449.352-72.21z" fill="#f7c394" stroke="#333" stroke-miterlimit="10" stroke-width="5"/><path d="m996.518 1952.22c-66 68.19-30.1 196.68 21.652 267.88 73.75 101.45 232.17 158.69 307.94 97.86 79.14-63.53 57.39-247.22-44.75-337.18-76.26-67.16-216.64-99.08-284.842-28.56z" fill="#ffc9a1"/><path d="m875.908 2259.28c60.69 94.85 195.102 203.22 346.602 216.72-106.36-25-260.019-133.85-306.642-206.72-75.41-117.87-115.36-338.97-9.09-427.16 32.409-26.89 114.732-65.12 227.732-45.12-138.002-42.5-222.792-6.13-267.732 35.12-111.06 101.99-66.28 309.29 9.13 427.16z" fill="#000" fill-opacity=".1"/><path d="m2000 2548c154 0 220 135 260 246s58 220 58 292c0 152-138.68 305.46-318 307-175.53 1.51-318-155-318-307 0-72 17.7-181.5 58-292 40-111 106-246 260-246z" fill="#7f6145" stroke="#333" stroke-miterlimit="10" stroke-width="5"/><path d="m2000 3393c-175.67 1.59-330-157-318-337 10 148 145.15 288.48 318 287s308-139 318-287c12 180-142.33 335.41-318 337z" fill="#000" fill-opacity=".15"/><path d="m2000 2672c104 0 160 68 174 128 34.49 147.82 64 274 4 350s-134.95 82-178 82c-47.55 0-118-6-178-82s-32.44-193.83 4-350c14-60 70-128 174-128z" fill="#f7c394" stroke="#333" stroke-miterlimit="10" stroke-width="5"/><path d="m2000 3232c-136 0-224-94-213-216 4 115 96 190 213 190s209-75 213-190c11 122-77 216-213 216z" fill="#000" fill-opacity=".1"/><path d="m1905.79 3024.1c-21.35-28.14-30.29-70.05-13.88-126.12 39.06 101.19 178.53 101.37 217.52.02 16.4 56.06 7.46 97.97-13.89 126.1-22.31 29.4-58.51 44.21-94.87 44.2-36.37 0-72.57-14.8-94.88-44.2z" fill="#d6d6d6" stroke="#333" stroke-width="5"/><path d="m1661.72 3350.49c-5.06-6.48-2.39-15.26 3.7-23.47 12.47-16.81 17.29-33.7 19.85-69.53 2.81-39.43-2.69-96.95-6.71-138.95-6.22-64.95-.76-128.41 16.58-191.24-26.64 46.18-42.33 101.46-46.14 154.7-63-62-113.4-18.63-132 36.54-12-103.54 29.89-215.84 85.27-296.92 255.62 98.95 543.28 100.75 798.73-.62 52.55 79.75 90.5 164.5 76.5 280-32.09-51.22-93.48-58.62-131-7.96 2-62.04-10.53-112.23-37.64-162.53 14.02 67.07 21.52 130.74 10.12 199.38-5.46 42.27-11.55 84.88-8.52 127.6 2.7 37.86 5.61 53.17 17.49 69.18 6.3 8.49 7.54 16.68 3.69 24.34-22.62 44.99-257.59 56.61-323.01 56.61 11.11-148.99-39.59-364.61 75.07-485.03-47.86 0-95.73-.1-143.59-.42 70 149.05 76.79 324.32 58.17 485.45-67.14-.88-294.78-3.62-336.56-57.13z" fill="#f9eb3d" stroke="#333" stroke-linecap="round" stroke-linejoin="round" stroke-width="5"/><g fill="#000" fill-opacity=".15"><path d="m2299.64 3318.28c-12.68-17.05-19.37-48.84-22-85.74-4.17-58.48 28.11-188.37 22.11-321.93 20.09 36.39 29.51 141.18 20.09 210.6-5.68 41.94-13.3 98.08-10.56 136.46 2.63 36.9 7.68 53.79 20.33 70.84 39.69 53.49-163.61 77.49-320.61 77.49l1-27.5c102.5 0 316.48-24.08 289.64-60.22z"/><path d="m1719.4 3232.54c-2.66 36.9-9.35 68.69-22 85.74-32.69 44.05 201.1 60.22 303.6 60.22l-3 28.5c-159.5 2-375.85-22.5-333.57-79.49 12.65-17.05 18.7-32.94 21.33-69.84 5.73-80.45-18.33-160.17-7.17-240.74 7.37-53.21 5.88-69.92 28.88-106.32-6.02 133.56 16.1 263.45 11.93 321.93z"/><path d="m1633.08 2833.02c-31.18 50.62-75.33 144.98-75.33 227.92-18.55 11.83-32.66 33.6-40.75 57.6-12-103.54 29.89-215.84 85.27-296.92 10.22 3.96 20.49 7.76 30.81 11.4z"/><path d="m2368.4 2824.61c33.6 46.89 92.1 148.39 81.1 247.39 12 6 21 15 27 31.5 17-102-18-198-79.5-289.5-10.32 3.7-18.19 7.22-28.6 10.61z"/></g><path d="m1529.19 3056.71c-1.5-19.38 22.46-32.09 36.1-19.43 9.25-15.08 27.25-13.29 35.91-.42 15.8-13.86 37.8-3.36 36.4 15.06 27.11-6.29 31.07 29.6 16.9 46.58-24-65-108.04-53.59-139.5 17.5-19.5-17.5-13.48-57.81 14.19-59.29z" fill="#f9eb3d" stroke="#333" stroke-width="5"/><path d="m2470.33 3056.71c1.51-19.38-22.45-32.09-36.1-19.43-9.24-15.08-27.24-13.29-35.91-.42-15.79-13.86-37.79-3.36-36.4 15.06-27.1-6.29-31.06 29.6-16.89 46.58 24-65 105.51-54.09 136.97 17 19-22.5 16.01-57.31-11.67-58.79z" fill="#f9eb3d" stroke="#333" stroke-width="5"/><path d="m1985 3407.55c0-72.05 0-145.86 0-220.24 0-73.74-24-183.31-53.3-245.01-19.64-28.12 19.86-31.71 29.3-9.26 5.43 12.92 32.55 93.02 39 111.41 9.63-23.49 35.17-100.49 41.99-111.41 12.51-20.04 39.22-6.72 25.3 16.33-13.68 24.74-48.59 100-52.29 237.46-1.97 74.12 0 145.67 0 220.89-10 .13-20-.07-30-.17z" fill="#fff" stroke="#333" stroke-linecap="round" stroke-linejoin="round" stroke-width="5"/><path d="m1985 3187.31v220.24h13v-220.24c0-73.74-24.69-185.11-54-246.81-4 0-10 0-13.5 0 29.31 61.7 54.5 173.07 54.5 246.81z" fill="#000" fill-opacity=".15"/><path d="m1994 3062.5c1.5 2 5.5 4.5 10 6.5 14.14-34.48 36-119.5 59.97-144.27-6.49-3.28-15.91-1.41-21.98 8.31-16.99 35.96-33 88.45-47.99 129.46z" fill="#000" fill-opacity=".15"/><path d="m1986.49 3160.42c-8.43-.01-15.48-7.06-15.49-15.49v-90.28c.01-8.43 7.06-15.48 15.49-15.49h24.57c8.43.01 15.48 7.06 15.49 15.49v90.28c-.01 8.43-7.06 15.48-15.49 15.49zm-1.37-52c-.54 0-1 .46-1 1v28.58c0 .54.46 1 1 1h27.74c.54 0 1-.46 1-1v-28.58c0-.54-.46-1-1-1z" fill="#fff" stroke="#333" stroke-width="5"/><path d="m1991.76 3139c2.61 4.96 7.83 8.41 13.73 8.42h20.85c-1.22 7.29-7.69 12.99-15.28 13h-24.57c-8.43-.01-15.48-7.06-15.49-15.49v-90.28c.01-8.43 7.06-15.48 15.49-15.49h3.72c0 22.34-.21 47.08-.21 69.26h-4.88c-.54 0-1 .46-1 1v28.58c0 .54.46 1 1 1z" fill="#000" fill-opacity=".15"/><path d="m2395 2818c7.07 10.64 16.84 26.3 23 37-28.48 11.43-56.59 21.73-84.49 30.9-64.81 87.25-215.78 105.12-333.51 105.12-119.63 0-274.45-17.48-337.08-106.29-26.73-8.88-53.66-18.79-80.92-29.73 6.38-10.73 15.76-26.46 23-37 193.25 74.88 597.7 75.38 790 0z" fill="#000" fill-opacity=".15"/><path d="m2267.76 936.819c398.16 129.181 699.66 403.121 698.24 910.181-1.09 388.75-350.07 990.81-966.43 996.18-594.62 5.19-966.64-596.22-965.57-996.18 1.32-488.44 432.13-990.941 966-1028.501 533.3-37.484 934.21 335.031 267.76 118.32z" fill="#f9eb3d" stroke="#333" stroke-linecap="round" stroke-linejoin="round" stroke-width="5"/><path d="m2431 872.498c-90.07-15.35-223.24-40.921-397.06-28.699-653.46 45.938-1126.939 771.201-864.58 1359.081 68.14-70.38 151.14-90.38 177.59-99.16 7.94 8.57 17.6 17.67 21.05 21.78-81.37 25.35-175.93 80.41-216.63 156.84-76.27-147.6-117-302.56-116.59-435.33 1.32-488.45 432.22-991.001 966.09-1028.571 29.14-2.048 56.83-2.939 83.13-2.939 149.5 0 275.5 33.5 347 56.998z" fill="#000" fill-opacity=".15"/><path d="m2964.5 1847.07c-.36 127.74-38.12 278.51-110.54 423.57-74.96-102.64-209.23-143.64-222.96-143.64 4-5 16-19.7 20-24.5 23.5 5.5 128.62 27.91 187.28 106.2 59.3-132.15 86.52-255.16 86.84-370.86 1.47-524.24-353.62-784.84-657.36-901.021 398.16 129.181 698.16 403.181 696.74 910.251z" fill="#000" fill-opacity=".15"/><path d="m1725 1203.5c-297 0-665 628.5-363.5 918.5-575.499 180 0 779 638.5 779s1214-599 638.5-779c301.5-290-66.5-918.5-363.5-918.5-126.5 0-195.51 58.5-275 116.5-79.5-58-148.5-116.5-275-116.5z" fill="#ffcd98" stroke="#333" stroke-width="5"/><g fill="#000"><path d="m2749.1 1817c-15.7-308.54-265-613.19-481.5-613.19-134.6 0-216.2 82.14-267.6 116.19-41.1-28.05-132.5-116.19-268.4-116.19-255.6 0-478.1 373.19-482.13 622.71-22.47-268.52 183.6-671.52 483.53-671.52 156 0 239 75 267 106 28-31 111-106 267-106 297.63 0 503.5 381.5 482.1 662z" fill-opacity=".15"/><path d="m1250.37 1807.39c-7.11 117.45 24.02 230.01 111.45 314.11-10.42 3.26-20.47 7.66-30.15 11.19 22.33-7.19 43.66-12.28 68.33-16.69-84.54-81.32-133.47-191.77-149.63-308.61z" fill-opacity=".1"/><path d="m1148.6 2266.67c-135.93 245.26 334.32 633.83 851.4 633.83s993.17-392.85 849.75-637.86c95.36 224.1-359.03 600.36-849.75 600.36-487.79 0-939.69-371.78-851.4-596.33z" fill-opacity=".1"/><path d="m2670.5 2133c-21.76-6.41-44.6-12.37-70.5-17 85.32-82.07 134.37-193.81 150.07-311.86 7.89 118.62-23.01 232.49-111.25 317.36 11.32 3.54 21.24 7.64 31.68 11.5z" fill-opacity=".1"/></g><path d="m1910 3556c32 0 63.09-23.6 66.69-56.14 9.12-82.21-94.34-89.68-150.66-90.92-57.1-1.25-154.03 9.56-171.02 72.27-14.85 54.79 36.49 74.79 72.99 74.79s49-12.15 92.98-12.15c38.41 0 57.02 12.15 89.02 12.15z" fill="#f7c394" stroke="#333" stroke-miterlimit="10" stroke-width="5"/><path d="m1909 3534c-32 0-50.61-12.15-89.02-12.15-43.98 0-56.48 12.15-92.98 12.15-28.39 0-65.75-12.1-73.97-43.26-6.73 47.6 40.67 65.26 74.97 65.26 36.5 0 49-12.15 92.98-12.15 38.41 0 57.02 12.15 89.02 12.15 42.86 0 73-34.15 65.91-80.26-2.97 33.46-34.04 58.26-66.91 58.26z" fill="#000" fill-opacity=".1"/><path d="m2090 3556c-32 0-63.09-23.6-66.69-56.14-9.12-82.21 94.34-89.68 150.66-90.92 57.1-1.25 154.03 9.56 171.02 72.27 14.85 54.79-36.49 74.79-72.99 74.79s-49-12.15-92.98-12.15c-38.41 0-57.02 12.15-89.02 12.15z" fill="#f7c394" stroke="#333" stroke-miterlimit="10" stroke-width="5"/><path d="m2091 3534c32 0 50.61-12.15 89.02-12.15 43.98 0 56.48 12.15 92.98 12.15 28.39 0 65.75-12.1 73.97-43.26 6.73 47.6-40.67 65.26-74.97 65.26-36.5 0-49-12.15-92.98-12.15-38.41 0-57.02 12.15-89.02 12.15-42.86 0-73-34.15-65.91-80.26 2.97 33.46 34.04 58.26 66.91 58.26z" fill="#000" fill-opacity=".1"/><path d="m1601.4 3259.89c56.81.05 92.98-68.11 58.59-115.27 15.91-45.21-18.09-95.39-66.66-96.55-56-1.34-88.37 58.5-82.5 109.13 5.48 47.31 37.52 102.65 90.57 102.69z" fill="#4b72d1" stroke="#333" stroke-miterlimit="10" stroke-width="5"/><path d="m1510.83 3157.2c6.78 58.57 54.37 126.8 125.37 93.8-68.83-8.8-117-125.5-83.11-191.84-5.39 3.84-13.89 8.34-27.6 27.61-12.29 21.73-17.7 46.2-14.66 70.43z" fill="#000" fill-opacity=".15"/><path d="m2398.6 3259.89c-56.82.05-92.99-68.11-58.59-115.27-15.92-45.21 18.08-95.39 66.66-96.55 56-1.34 88.36 58.5 82.5 109.13-5.48 47.31-37.53 102.65-90.57 102.69z" fill="#4b72d1" stroke="#333" stroke-miterlimit="10" stroke-width="5"/><path d="m2489.17 3157.2c-6.78 58.57-54.37 126.8-125.37 93.8 68.82-8.8 117-125.5 83.11-191.84 5.39 3.84 13.89 8.34 27.6 27.61 12.29 21.73 17.7 46.2 14.66 70.43z" fill="#000" fill-opacity=".15"/><path d="m2962.83 1778.94c-622.83-558.94-1302.83-558.94-1925.41 1.89 1.04-21.51 2.79-43.36 5.25-65.55 518-547 1400.85-567.43 1919.52 2.96.54 20.04.76 40.27.64 60.7z" fill="#000" fill-opacity=".15"/><path d="m2962.83 1778.94c-514.83-602.94-1410.83-602.94-1925.41 1.89 5.45-113.06 30.66-236.41 75.12-358 489.15-492.42 1349.99-453.782 1822.53 46.13 19.15 97.04 28.49 200.87 27.76 309.98z" fill="#4f4f4f" stroke="#333" stroke-miterlimit="10" stroke-width="5"/><path d="m2962.1 1715.42c.6 20.08 2.51 44.62 2.4 65.08-507.5-595-1393.56-614.99-1927.5-.5 1.1-21.59 3.49-45.56 6.02-67.81 547.99-596.58 1410.51-586.93 1919.08 3.23z" fill="#000" fill-opacity=".15"/><path d="m2779.66 1077.3c-362.17-279.15-928.4-339.034-1344.61-143.3 387.55-346.653 1048.32-301.672 1344.61 143.3z" fill="#736c3b" stroke="#333" stroke-miterlimit="10" stroke-width="5"/><path d="m2935.07 1469c-579.07-502-1291.07-502-1843.45 15.73 53-188.6 151-355.62 289.29-498.63 286.18-295.875 1221.29-219.957 1429.72 141.17 61.01 105.73 100.53 222.3 124.44 341.73z" fill="#4f4927" stroke="#333" stroke-miterlimit="10" stroke-width="5"/><path d="m2984.89 1219.16c-151.38-131.76-270.3-296.687-347.49-481.94-8.08-19.41 6.76-48.19 29.1-57.33l60.5-24.77c16.23-6.64 103 50 235.65 204.28 115.59 134.54 139.84 287.35 128.41 300.65l-42.62 49.6c-15.7 18.35-47.69 23.35-63.55 9.51z" fill="#f41655" stroke="#333" stroke-miterlimit="10" stroke-width="5"/><path d="m3091.09 1160.05c-14.22 16.56-28.43 33.09-42.62 49.6-15.72 18.31-47.72 23.31-63.58 9.51-151.39-131.76-270.31-296.691-347.49-481.95-8.08-19.4 6.76-48.18 29.1-57.31l11.75-4.81c75.62 146.799 178.44 277.894 303 386.31 15.86 13.8 47.85 8.8 63.58-9.5l20-23.23c27.6 69.93 32.83 123.73 26.26 131.38z" fill="#000" fill-opacity=".2"/><path d="m2975 1309.36c-193.04-142.4-343.05-335.308-433.51-557.48l53.7-52.38c91.17 228.28 245.02 426.13 443.81 570.72z" fill="#736c3b" stroke="#333" stroke-miterlimit="10" stroke-width="5"/><path d="m2541.48 751.88c90.46 222.173 240.48 415.08 433.52 557.48l64-39.14c-7.22-5.25-14.38-10.58-21.48-16l-41.09 25.14c-187.01-137.98-333.74-323.435-425-537.17z" fill="#000" fill-opacity=".2"/><path d="m2891.23 1335.22c-172.28-133.76-308.25-308.61-395.45-508.53-3.49-8-2.1-18.54 3.33-26 8.96-12.267 17.94-24.543 26.93-36.83 90.46 222.172 240.47 415.08 433.51 557.48-14.12 5.69-28.23 11.36-42.33 17-8.54 3.49-19.09 2.24-25.99-3.12z" fill="#736c3b" stroke="#333" stroke-miterlimit="10" stroke-width="5"/><path d="m3033 1285.21c-215.65-150.56-358.43-333.21-451.22-579.27-2.05-6.123-.48-13.052 4-17.7l35.62-34.74c5.28-5.15 12.08-3.63 14.61 3.18 93.08 250.25 238.47 436.2 458.08 588.06 6 4.14 5.76 11.1-.52 14.94l-42.45 26c-5.6 3.2-12.69 3.01-18.12-.47z" fill="#423809" stroke="#333" stroke-miterlimit="10" stroke-width="5"/><path d="m2959.16 1331.22c-198.2-144.38-351.67-341.723-442.77-569.38-.8-2.208-.42-4.728 1-6.6l14.4-18.7c2.13-2.74 5.42-2.42 6.63.65 91.55 231.986 247.73 432.84 450 578.74 2.68 1.93 2.18 5.21-1 6.58l-21.66 9.36c-2.15.9-4.67.65-6.6-.65z" fill="#2d2d2d" stroke="#333" stroke-miterlimit="10" stroke-width="5"/><path d="m2516.39 761.84c91.1 227.66 244.57 425.01 442.77 569.39 1.95 1.31 4.49 1.55 6.65.63l21.67-9.35c3.19-1.38 3.68-4.66 1-6.59l-5.73-4.15-10.19 4.4c-2.16.91-4.7.67-6.64-.64-197.89-144.14-351.18-341.094-442.33-568.31l-6.18 8c-1.43 1.873-1.82 4.404-1.02 6.62z" fill="#000" fill-opacity=".3"/><path d="m2495.78 826.69c87.2 199.93 223.17 374.78 395.45 508.54 6.9 5.35 17.45 6.6 26 3.18 14.1-5.67 28.21-11.34 42.33-17-4.39-3.24-8.76-6.51-13.11-9.81l-18.28 7.35c-8.54 3.42-19.09 2.17-26-3.19-172.28-133.76-308.25-308.61-395.45-508.53-1.96-4.747-2.44-9.974-1.39-15-2.07 2.85-4.14 5.68-6.22 8.53-5.43 7.4-6.82 17.93-3.33 25.93z" fill="#000" fill-opacity=".2"/><path d="m2581.78 705.94c92.79 246.1 235.57 428.71 451.24 579.27 5.43 3.49 12.54 3.66 18.14.44l42.45-26c6.28-3.85 6.49-10.82.51-15-5.01-3.46-9.98-6.94-14.91-10.44-10.93 6.24-21.86 12.47-32.79 18.7-5.7 3.04-12.8 2.65-18.13-1-206.66-154-342.45-336.53-427.95-577.93l-14.53 14.17c-4.52 4.661-6.1 11.635-4.03 17.79z" fill="#000" fill-opacity=".3"/><path d="m1091.62 1484.73c552.38-517.73 1264.38-517.73 1843.45-15.73-6.11-30.54-13.25-60.9-21.5-90.93-.17-.61-.34-1.19-.5-1.77-231.33-232.87-534.42-358.32-864.21-368.51-380.73-11.772-645.99 144.91-925.49 380.41-.08.2-.15.41-.23.61-11.84 31.32-22.35 63.3-31.52 95.92z" fill="#000" fill-opacity=".15"/><path d="m1075.28 1212.55c156.82-125.24 282.6-284.996 367.55-466.82 8.9-19.051-4.71-48.433-26.65-58.509l-59.4-27.306c-15.93-7.32-105.02 45.601-244.07 194.135-121.175 129.533-151.864 281.18-141.006 294.95l40.486 51.36c14.91 19 46.66 25.35 63.09 12.19z" fill="#f41655" stroke="#333" stroke-miterlimit="10" stroke-width="5"/><path d="m971.672 1149c13.508 17.15 27.003 34.27 40.488 51.36 14.93 18.96 46.69 25.31 63.12 12.19 156.82-125.24 282.61-284.999 367.55-466.83 8.9-19.041-4.71-48.423-26.65-58.489l-11.53-5.303c-81.76 143.471-190.04 270.102-319.07 373.152-16.42 13.12-48.17 6.77-63.12-12.18l-19-24.05c-30.528 68.7-38.028 122.23-31.788 130.15z" fill="#000" fill-opacity=".2"/><path d="m1081.35 1303.09c198.89-134.12 356.92-320.509 456.69-538.658l-51.44-54.604c-100.73 224.221-262.81 415.392-467.54 551.452z" fill="#736c3b" stroke="#333" stroke-miterlimit="10" stroke-width="5"/><path d="m1538.05 764.432c-99.78 218.15-257.81 404.538-456.7 538.658l-62.29-41.81c7.44-4.94 14.81-9.97 22.14-15.08l39.99 26.85c192.67-129.95 347.11-309.034 447.33-518.72z" fill="#000" fill-opacity=".2"/><path d="m1163.95 1332.46c177.78-126.35 321.02-295.3 416.59-491.353 3.83-7.845 2.89-18.435-2.22-26.118-8.44-12.634-16.89-25.279-25.35-37.935-99.77 218.149-257.8 404.536-456.69 538.656 13.86 6.28 27.72 12.54 41.57 18.77 8.39 3.85 18.98 3.05 26.1-2.02z" fill="#736c3b" stroke="#333" stroke-miterlimit="10" stroke-width="5"/><path d="m1024.42 1276.51c221.83-141.31 372.2-317.764 475.31-559.681 2.31-6.031 1.03-13.02-3.25-17.853l-34.12-36.215c-5.06-5.368-11.91-4.137-14.73 2.56-103.58 246.091-256.7 425.729-482.531 568.169-6.169 3.88-6.224 10.85-.112 14.95l41.313 27.77c5.46 3.43 12.55 3.55 18.12.3z" fill="#423809" stroke="#333" stroke-miterlimit="10" stroke-width="5"/><path d="m1096.25 1325.6c204.13-135.87 365.8-326.554 466.45-550.156.89-2.172.61-4.706-.72-6.636l-13.6-19.292c-2.01-2.828-5.31-2.647-6.65.369-101.28 227.908-265.81 421.985-474.06 559.195-2.76 1.82-2.4 5.12.72 6.62l21.24 10.27c2.11.98 4.64.84 6.62-.37z" fill="#2d2d2d" stroke="#333" stroke-miterlimit="10" stroke-width="5"/><path d="m1562.7 775.444c-100.65 223.605-262.32 414.296-466.45 550.166-2 1.22-4.55 1.36-6.67.34l-21.25-10.25c-3.13-1.52-3.48-4.82-.72-6.63l5.9-3.9 9.99 4.82c2.12 1.01 4.66.87 6.66-.36 203.81-135.64 365.29-325.938 465.96-549.098l5.84 8.254c1.35 1.932 1.63 4.477.74 6.658z" fill="#000" fill-opacity=".3"/><path d="m1580.55 841.107c-95.58 196.063-238.82 365.013-416.6 491.363-7.12 5.06-17.71 5.86-26.11 2.08-13.85-6.26-27.71-12.52-41.57-18.77 4.52-3.05 9.03-6.14 13.51-9.25l17.95 8.12c8.39 3.78 18.98 2.97 26.11-2.09 177.79-126.36 321.03-295.3 416.6-491.358 2.16-4.66 2.86-9.861 2.02-14.928 1.95 2.935 3.9 5.85 5.86 8.786 5.11 7.623 6.05 18.202 2.23 26.047z" fill="#000" fill-opacity=".2"/><path d="m1499.73 716.829c-103.11 241.958-253.48 418.371-475.33 559.671-5.57 3.26-12.68 3.13-18.14-.32l-41.311-27.77c-6.112-4.12-6.027-11.09.124-15.01 5.149-3.25 10.262-6.51 15.339-9.8 10.653 6.69 21.308 13.38 31.968 20.07 5.57 3.28 12.68 3.18 18.16-.24 212.98-145.12 356.37-321.747 452-559.317l13.92 14.772c4.32 4.848 5.6 11.882 3.27 17.944z" fill="#000" fill-opacity=".3"/><path d="m2136.85 2257.75c-48.3 0-89.89 17.44-136.85 17.44s-88.55-17.44-136.85-17.44c-93.9 0-256.26-17.11-256.26 316.63 0 291.47 87.21 371.64 393.11 371.64s393.11-89.08 393.11-371.64c0-321.98-162.36-316.63-256.26-316.63zm61.3 380.78c-138 0 24.63-143.86-198.15-143.86s-60.16 143.86-198.15 143.86c-101.53 0-94.24-232.46-31.83-222.6 66.88 10.56 165.85-11.26 230-11.26s163.1 21.82 230 11.26c62.37-9.86 69.66 222.6-31.87 222.6z" fill="#7f6145" stroke="#333" stroke-miterlimit="10" stroke-width="5"/><path d="m2198.15 2638.53c50.56 0 74.12-60.12 77.35-116.77 7.5 64.24-18.64 143.86-77.35 143.86-137.99 0 24.63-143.86-198.15-143.86s-60.15 143.86-198.15 143.86c-58.71 0-86.35-72.62-77.85-141.26 3.24 56.65 27.29 114.17 77.85 114.17 139.65 0-27.85-143.86 198.15-143.86 222.78 0 60.15 143.86 198.15 143.86z" fill="#000" fill-opacity=".15"/><path d="m2136.85 2257.75c93.9 0 256.26-5.35 256.26 316.63-42.11-256.88-108.83-289.5-256.26-289.5-48.3 0-89.89 17.44-136.85 17.44s-88.55-17.44-136.85-17.44c-141.1 0-246.26 97.57-246.26 239.48 0 291.47 77.21 371.64 383.11 371.64 230.77 0 347.08-50.68 385.37-196.91-27.07 184.85-130.04 246.91-385.37 246.91-321 0-393.11-97.47-393.11-371.62 0-229.38 66.61-316.7 225.12-316.7 96.99 0 117.51 17.51 167.99 17.51 46.96 0 88.55-17.44 136.85-17.44z" fill="#000" fill-opacity=".15"/><path d="m1708.92 1564.05c117.01 13.59 201.31 157.7 188.86 284.63-12.37 126.42-122.9 258.37-249.21 244.01-114.68-13.07-189.06-140.68-191.51-247.91-3.25-143.66 121.51-295.89 251.86-280.73z" fill="#fff"/><path d="m1850.99 1882.97c16.7-86.08-29.84-167.53-103.95-181.91s-147.73 43.75-164.43 129.84 29.84 167.53 103.95 181.91 147.73-43.75 164.43-129.84z" fill="#566859" stroke="#333" stroke-miterlimit="10" stroke-width="5"/><path d="m1725.19 1970.86c44.2 0 80.03-40.07 80.03-89.49 0-49.43-35.83-89.49-80.03-89.49s-80.03 40.06-80.03 89.49c0 49.42 35.83 89.49 80.03 89.49z" fill="#000"/><path d="m1795.97 1818.82c5.63-15.9-3.33-33.58-20.02-39.48-16.68-5.91-34.77 2.19-40.4 18.1-5.63 15.9 3.34 33.58 20.02 39.48 16.69 5.91 34.77-2.2 40.4-18.1z" fill="#fff" stroke="#333" stroke-miterlimit="10" stroke-width="5"/><path d="m1766.51 1582.13c-154.41-42.22-282.91 140.71-279.76 278.02 1.87 81.02 44.85 173.59 115.36 220.33-87.93-36.85-142.93-143.79-145.05-235.71-3.27-143.62 121.5-295.83 251.84-280.69 20.15 2.41 39.68 8.53 57.61 18.05z" fill="#000" fill-opacity=".05"/><path d="m1787.45 1717.01c-85.25-24.23-160.72 49.33-176.13 128.76-12.66 65.23 10.63 127.84 54.66 161.18-61.86-24.18-98.39-98.16-83.29-175.94 16.71-86.12 90.33-144.21 164.44-129.83 14.3 2.78 27.96 8.14 40.32 15.83z" fill="#000" fill-opacity=".15"/><path d="m2291.08 1564.05c-117.01 13.59-201.31 157.7-188.86 284.63 12.37 126.42 122.9 258.37 249.21 244.01 114.68-13.07 189.06-140.68 191.51-247.91 3.25-143.66-121.51-295.89-251.86-280.73z" fill="#fff"/><path d="m2149.01 1882.97c-16.7-86.08 29.84-167.53 103.95-181.91s147.73 43.75 164.43 129.84-29.84 167.53-103.95 181.91-147.73-43.75-164.43-129.84z" fill="#566859" stroke="#333" stroke-miterlimit="10" stroke-width="5"/><path d="m2274.81 1970.86c-44.2 0-80.03-40.07-80.03-89.49 0-49.43 35.83-89.49 80.03-89.49s80.03 40.06 80.03 89.49c0 49.42-35.83 89.49-80.03 89.49z" fill="#000"/><path d="m2204.03 1818.82c-5.63-15.9 3.33-33.58 20.02-39.48 16.68-5.91 34.77 2.19 40.4 18.1 5.63 15.9-3.34 33.58-20.02 39.48-16.69 5.91-34.77-2.2-40.4-18.1z" fill="#fff" stroke="#333" stroke-miterlimit="10" stroke-width="5"/><path d="m2233.5 1582.13c154.4-42.22 282.9 140.71 279.75 278.02-1.87 81.02-44.84 173.59-115.36 220.33 87.94-36.85 142.93-143.79 145.05-235.71 3.27-143.62-121.49-295.83-251.84-280.69-20.15 2.41-39.68 8.53-57.6 18.05z" fill="#000" fill-opacity=".05"/><path d="m2212.55 1717.01c85.25-24.23 160.72 49.33 176.13 128.76 12.66 65.23-10.63 127.84-54.66 161.18 61.86-24.18 98.39-98.16 83.29-175.94-16.71-86.12-90.33-144.21-164.44-129.83-14.3 2.78-27.96 8.14-40.32 15.83z" fill="#000" fill-opacity=".15"/><path d="m1945 1665.55 9 28.37c25.28-8.69 61-14.52 92 1.47l9-26.66c-41.44-21.33-81.73-12.91-110-3.18z" fill="#cec467"/><path d="m1949.02 1664.21 4.98 15.71c25.28-8.69 61-14.52 92 1.47l4.95-14.65c1.35.63 2.7 1.29 4.05 1.99l-9 26.66c-31-15.99-66.72-10.16-92-1.47l-9-28.37c1.32-.45 2.66-.9 4.02-1.34z" fill="#000" fill-opacity=".2"/><path d="m2966.08 1756.54c-74-46.61-158-90.63-270.38-97-19.29-1.1-21 28.9-1.71 30 105.59 6 185.49 48 256.1 92.48 16.16 9.9 32.42-15.12 15.99-25.48z" fill="#cec467"/><path d="m2972.24 1764.23c-3.15 8.92-14.25 12.66-22.14 7.69-70.61-44.46-150.51-86.44-256.1-92.48-5.72-.33-10.87-4.02-13.03-9.32-2.52 9.17 3.38 18.78 13.03 19.32 105.59 6 185.49 48 256.1 92.48 4.76 3 10.2 2.72 14.6.42 5.93-3.48 9.93-11.36 7.54-18.11z" fill="#000" opacity=".2"/><path d="m2045.94 1712.81c-.86 138.69 77.88 373.49 285.06 396.19s474.69-95.99 375.5-404c-76.66-238.06-659.22-208-660.56 7.81z" fill="#8df7ff" opacity=".5"/><path clip-rule="evenodd" d="m2716.93 1697.02c23.57 79.52 24.86 147.66 9.34 204.85-45.96 169.36-240.41 234.51-399.79 217.05-194.48-21.31-297.53-232.63-297.53-410.11-.01-144.01 213.74-175.82 319.38-178.33 123.82-2.94 326.42 24.24 368.6 166.54zm-659.98 11.79c0 162.95 92.69 362.56 272.58 382.27 145.37 15.93 327.43-40.74 369.72-196.54 13.89-51.2 13.24-113.96-9.17-189.56-38.01-128.24-231.52-149.11-341.09-146.51-87.67 2.08-292.05 25.78-292.04 150.34z" fill="#cec467" fill-rule="evenodd"/><path d="m2736.47 1815.2c-.5 26.32-4.01 50.87-10.2 73.67-45.96 169.35-240.41 234.51-399.79 217.05-191.45-20.98-294.29-226.08-297.46-401.77-.05 1.54-.07 3.09-.07 4.66 0 177.48 103.05 388.8 297.53 410.11 159.38 17.46 353.83-47.69 399.79-217.05 7.2-26.52 10.78-55.39 10.2-86.67z" fill="#000" fill-opacity=".2"/><path d="m2057.03 1704.42c-.06-2.88-.08-5.75-.08-8.61-.01-124.56 204.37-148.26 292.04-150.34 109.57-2.6 303.08 18.27 341.09 146.51 13.53 45.66 19.13 86.63 18.38 123.2-.66-33.21-6.43-69.88-18.38-110.2-38.01-128.24-231.52-149.11-341.09-146.51-86.63 2.06-287.21 25.22-291.96 145.95z" fill="#000" fill-opacity=".2"/><path d="m1033.92 1756.27c74-46.61 158-90.63 270.38-97 19.29-1.1 21 28.9 1.71 30-105.59 6-185.49 48-256.1 92.48-16.15 9.9-32.42-15.13-15.99-25.48z" fill="#cec467"/><path d="m1027.76 1763.96c3.16 8.92 14.25 12.66 22.14 7.69 70.61-44.46 150.51-86.44 256.1-92.48 5.73-.33 10.88-4.02 13.04-9.33 2.52 9.18-3.39 18.78-13.04 19.33-105.59 6-185.49 48-256.1 92.48-4.75 2.99-10.2 2.71-14.6.42-5.93-3.49-9.92-11.37-7.54-18.11z" fill="#000" opacity=".2"/><path d="m1954.06 1712.54c.86 138.69-77.88 373.49-285.06 396.19s-474.69-95.99-375.5-404c76.66-238.06 659.23-208 660.56 7.81z" fill="#8df7ff" opacity=".5"/><path clip-rule="evenodd" d="m1283.08 1696.75c-23.57 79.52-24.86 147.66-9.34 204.85 45.96 169.35 240.4 234.51 399.79 217.04 194.48-21.31 297.53-232.63 297.53-410.1 0-144.01-213.75-175.83-319.38-178.33-123.82-2.94-326.43 24.24-368.6 166.54zm659.98 11.79c0 162.95-92.69 362.56-272.58 382.27-145.37 15.93-327.44-40.74-369.72-196.55-13.9-51.19-13.24-113.95 9.16-189.56 38.01-128.24 231.53-149.1 341.09-146.5 87.68 2.08 292.05 25.78 292.05 150.34z" fill="#cec467" fill-rule="evenodd"/><path d="m1263.54 1814.93c.49 26.31 4.01 50.86 10.2 73.67 45.96 169.35 240.4 234.51 399.79 217.04 191.44-20.97 294.29-226.07 297.46-401.76.05 1.54.07 3.09.07 4.66 0 177.47-103.05 388.79-297.53 410.1-159.39 17.47-353.83-47.69-399.79-217.04-7.2-26.52-10.78-55.4-10.2-86.67z" fill="#000" fill-opacity=".2"/><path d="m1942.98 1704.15c.05-2.88.08-5.75.08-8.61 0-124.56-204.37-148.26-292.05-150.34-109.56-2.6-303.08 18.26-341.09 146.5-13.53 45.66-19.13 86.64-18.38 123.21.67-33.21 6.43-69.88 18.38-110.21 38.01-128.24 231.53-149.1 341.09-146.5 86.64 2.06 287.22 25.22 291.97 145.95z" fill="#000" fill-opacity=".2"/><path d="m1785 2079c0 76.35 98.85 169 216.26 168 108.22-.95 213.74-92.55 213.74-167.78 0-152.13-430-154.42-430-.22z" fill="#000" fill-opacity=".1"/><path d="m1782 2061c0 76.35 100.23 169 219.27 168 109.73-.95 216.73-92.55 216.73-167.78 0-60.53-126.24-113.77-216.73-113-84.02.78-219.27 41.16-219.27 112.78z" fill="#7f6145"/><path d="m1783.58 2047.77c41.76 54.75 124.68 100.94 217.85 100.22 86.21-.68 170.92-47.12 214.09-101.55 1.62 4.86 2.48 9.8 2.48 14.78 0 75.23-107 166.83-216.73 167.78-119.04 1-219.27-91.65-219.27-168 0-4.54.54-8.95 1.58-13.23z" fill="#000" fill-opacity=".2"/></svg>