<svg xmlns="http://www.w3.org/2000/svg" xmlns:xlink="http://www.w3.org/1999/xlink" width="4000" height="4000" fill="none" xmlns:v="https://vecta.io/nano"><style><![CDATA[.B{fill:#000}.C{stroke:#000}.D{stroke-width:5}.E{stroke-miterlimit:10}.F{fill-opacity:.4}.G{fill-opacity:.1}.H{fill:#333232}.I{fill:#f7c394}.J{stroke-linejoin:round}.K{fill-opacity:.15}.L{stroke-linecap:round}.M{fill-rule:evenodd}]]></style><path d="M2275.1 3290.64c-50.77-7.42-115.16-32.27-196.86-76-11.87-6.35-16.66-21.85-10.25-33.84 6.35-11.87 21.85-16.66 33.84-10.25 75.45 40.37 136.18 64.12 180.5 70.6 28.93 4.23 49.75 1 61.88-9.64 13.6-11.92 12.4-33 8.83-72.4-4.17-46.12-9.36-103.53 19.78-169.5 44-99.72 153.63-194.53 269.1-176.7 73.33 11.36 143.6 66.2 159.73 140.6 13.73 63.36-6.02 150.17-73.53 174.43-44.77 16-95.92-2.36-130.84-32.08-10.44-8.68-11.95-25-3.06-35.44 8.8-10.34 25.15-11.64 35.48-2.62.43.36 43.66 36.65 81.5 23.06 42.84-15.38 49.77-78.95 41.56-116.78-11.75-54.23-65.6-93.57-118.5-101.77-92.84-14.33-180.8 68.5-215.72 147.5-23.9 54.16-19.56 102.32-15.72 144.8 4 43.84 7.7 85.25-25.67 114.5-27.66 24.4-67.07 26.8-102.02 21.54z" class="C D E H"/><path d="M2786.65 2965.53c11.06 51.02 1.18 114.55-37.82 152.08 51.4-33.7 65.07-107.56 52.82-164.08-16.13-74.4-86.4-129.24-159.73-140.6-66.26-10.23-131.78 18.56-181.54 60.82 114.12-80.75 293.3-60.36 326.27 91.78zm-69.03 112.53c-27.03 31.45-75.6 15.26-102.9-8.23-3.14-2.68-6.9-4.54-10.94-5.4a25.037 25.037 0 0 0-12.19.41c3.98-7.3 11.64-12.23 19.93-12.9 6.6-.53 13.15 1.6 18.2 5.9 22.07 19.5 59.84 35.17 87.9 20.24zm-644.12 95.44c3.5-3 15.5-9 23-5.5 6.98 3.26 15.34 7.4 24.73 12.03 49.42 24.4 127.47 62.97 183.77 62.97 50 0 54.5-25 47.5-91 .85 3.82 1.92 8.03 3.06 12.5 9.62 37.75 24.1 94.5-50.56 94.5-81.5 0-208.8-70.57-231.5-85.5z" class="B F"/><path d="M1587 3147c36.5 0 65.66-32.58 62.04-68.42-5.42-63.52 18.62-132.2 65.95-198.4 43.06-60.25 89.2-93.25 53.7-132.2s-115.56 3.92-155.4 59.5c-65.7 91.92-97.2 189.1-88.63 283.68 3.2 31.47 25.83 55.82 62.33 55.82z" class="C D E H"/><path d="M1553.1 3059.16c-.42-112.27 89.6-277.66 195.1-324.16-130-21-245 233.5-222.7 351.77 7.2-11.77 19.7-23.27 27.6-27.6z" class="B F"/><path d="M1959.37 3446.5c5-87.08 27.4-154.43 47.17-206.8s42.42-144.7-42.56-166.02c-121.5-30.5-188.3 254.12-193.3 340.94-2.93 51.08 36.82 110.33 88.4 113.3 47.48 2.3 97.45-31.8 100.3-81.4z" class="C D E H"/><path d="M1769.48 3414.5c51.5-7 148-7 188.5 34l1.66-15.04c-42.16-36.96-138.16-39.46-188.02-32.46-.26 3.3-1.86 10.13-2.14 13.5zm16-89.5c47.76 44.3 108.88 69.13 178 78.5.58-5 1.8-12.18 2.5-17-68.6-8.88-128.2-37.6-176-81-2 6-3.62 15.27-4.5 19.5z" class="B F"/><path d="M2040.63 3446.5c-5-87.08-27.4-154.43-47.17-206.8s-42.42-144.7 42.56-166.02c121.5-30.5 188.3 254.12 193.3 340.94 2.93 51.08-36.82 110.33-88.4 113.3-47.48 2.3-97.45-31.8-100.3-81.4z" class="C D E H"/><path d="M2230.52 3414.5c-51.5-7-148-7-188.5 34l-1.66-15.04c42.16-36.96 138.16-39.46 188.02-32.46.26 3.3 1.86 10.13 2.14 13.5zm-16-89.5c-47.76 44.3-108.88 69.13-178 78.5-.58-5-1.8-12.18-2.5-17 68.6-8.88 128.2-37.6 176-81 2 6 3.62 15.27 4.5 19.5z" class="B F"/><path d="M2413 3147c-36.5 0-65.66-32.58-62.04-68.42 5.42-63.52-18.62-132.2-65.95-198.4-43.06-60.25-89.2-93.25-53.7-132.2s115.56 3.92 155.4 59.5c65.7 91.92 97.2 189.1 88.63 283.68-3.2 31.47-25.83 55.82-62.33 55.82z" class="C D E H"/><path d="M2446.9 3059.16c.42-112.27-89.6-277.66-195.1-324.16 130-21 245 233.5 222.7 351.77-7.2-11.77-19.7-23.27-27.6-27.6z" class="B F"/><path d="M3133.2 1832.12c111.1 102 66.32 309.3-9.1 427.16-107.46 168-353.47 273.75-479.46 184.37-131.58-93.35-114.4-386.92 39.2-539.32 114.68-113.78 334.45-177.7 449.35-72.2z" class="C D E I"/><path d="M3003.5 1952.22c66 68.2 30.1 196.68-21.65 267.88-73.75 101.45-232.17 158.7-307.94 97.86-79.14-63.53-57.4-247.22 44.75-337.18 76.26-67.16 216.64-99.08 284.84-28.56z" fill="#ffc9a1"/><path d="M3124.1 2259.28c-60.7 94.85-195.1 203.22-346.6 216.72 106.36-25 260-133.85 306.64-206.72 75.4-117.87 115.36-338.97 9.1-427.16-32.4-26.9-114.73-65.12-227.73-45.12 138-42.5 222.8-6.13 267.73 35.12 111.06 102 66.28 309.3-9.13 427.16z" class="B G"/><path d="M866.818 1832.12c-111.1 102-66.32 309.3 9.1 427.16 107.46 168 353.472 273.75 479.462 184.37 131.58-93.35 114.4-386.92-39.2-539.32-114.68-113.78-334.452-177.7-449.352-72.2z" class="C D E I"/><path d="M996.518 1952.22c-66 68.2-30.1 196.68 21.652 267.88 73.75 101.45 232.17 158.7 307.94 97.86 79.14-63.53 57.4-247.22-44.75-337.18-76.26-67.16-216.64-99.08-284.842-28.56z" fill="#ffc9a1"/><path d="M875.908 2259.28C936.598 2354.13 1071 2462.5 1222.5 2476c-106.36-25-260.02-133.85-306.642-206.72-75.4-117.87-115.36-338.97-9.1-427.16 32.41-26.9 114.732-65.12 227.732-45.12-138.002-42.5-222.792-6.13-267.732 35.12-111.06 102-66.28 309.3 9.13 427.16z" class="B G"/><path d="M2000 2548c154 0 220 135 260 246s58 220 58 292c0 152-138.68 305.46-318 307-175.53 1.5-318-155-318-307 0-72 17.7-181.5 58-292 40-111 106-246 260-246z" class="C D E H"/><path d="M2000 3393c-175.67 1.6-330-157-318-337 10 148 145.15 288.48 318 287s308-139 318-287c12 180-142.33 335.4-318 337z" class="B F"/><path d="M2000 2672c104 0 160 68 174 128 34.5 147.82 64 274 4 350s-134.95 82-178 82c-47.55 0-118-6-178-82s-32.44-193.83 4-350c14-60 70-128 174-128z" class="C D E I"/><path d="M2000 3232c-136 0-224-94-213-216 4 115 96 190 213 190s209-75 213-190c11 122-77 216-213 216z" class="B G"/><use xlink:href="#B" class="H"/><use xlink:href="#B" class="C D E J L"/><path d="M2352.6 3063.67c4.35-74.83-26.14-130.6-32.15-145.47 25.95 74.2.55 168.8 3.55 236.8 2.4 54.4 52.14 150.96 47.32 189.5s-291.32 28.9-319 21c-22.82-6.5-26.27-34.47-31.57-48.5l.01 51.1c.75 16.58 14.96 29.98 31.56 29.76 168.85-2.23 324.3 10.87 343.94-33.54 12.33-27.88-12.85-39.26-24.94-110.08-11.7-68.6-24.5-91.5-18.72-190.57z" class="B F"/><use xlink:href="#C" class="H"/><use xlink:href="#C" class="C D E J L"/><path d="M1647.4 3063.67c-4.35-74.83 26.14-130.6 32.15-145.47-25.95 74.2-.55 168.8-3.55 236.8-2.4 54.4-52.15 150.96-47.33 189.5 4.83 38.54 291.33 28.9 319 21 22.83-6.5 26.28-34.47 31.57-48.5v51.1c-.76 16.58-14.97 29.98-31.57 29.76-168.84-2.23-324.3 10.87-343.94-33.54-12.33-27.88 12.85-39.26 24.94-110.08 11.72-68.6 24.5-91.5 18.73-190.57z" class="B F"/><path d="M2099.24 2995.5c-10.5 18.5-63.24 113-76.74 132 2-106.5 15-258.5 36.24-299.5 5.06-9.77 163.5 11 162 19.5s-22.5 61.5-36 70.5-82.5-4.5-85.5 5 30 40.5 27 47-12.53 0-27 25.5z" class="C D"/><path d="M2097.5 2972c3.56-4 10.78-6.64 9.74-10-3.74-12-32.74-26-20.24-48.5 9.17-16.5 74-1.5 87.5-10.5 12.9-8.6 29.9-49.44 32.93-61.13 8.5 2.1 13.58 4.08 13.3 5.63-1.5 8.5-22.5 61.5-36 70.5s-82.5-4.5-85.5 5 30 40.5 27 47c-1.03 2.22-2.8 2.92-5.3 3.9-14.72 5.8-21.44 21.1-28.76 34.1-18.02 32-58.16 103.27-69.7 119.5l.78-28.95c19.8-33.13 40.27-88.45 74.22-126.55zm-195 0c-3.57-4-10.8-6.64-9.74-10 3.74-12 32.74-26 20.24-48.5-9.17-16.5-74-1.5-87.5-10.5-12.9-8.6-29.9-49.44-32.93-61.13-8.5 2.1-13.58 4.08-13.3 5.63 1.5 8.5 22.5 61.5 36 70.5s82.5-4.5 85.5 5-30 40.5-27 47c1.02 2.22 2.8 2.92 5.3 3.9 14.72 5.8 21.44 21.1 28.76 34.1 18.02 32 58.16 103.27 69.7 119.5l-.78-28.95c-19.8-33.13-40.28-88.45-74.22-126.55z" fill-opacity=".2" class="B"/><g class="C"><path d="M1900.76 2995.5c10.5 18.5 63.24 113 76.74 132-2-106.5-15-258.5-36.24-299.5-5.06-9.77-163.5 11-162 19.5s22.5 61.5 36 70.5 82.5-4.5 85.5 5-30 40.5-27 47 12.53 0 27 25.5z" class="D"/><g stroke-width="7"><circle cx="1948" cy="3164" r="10"/><circle cx="1945" cy="3220" r="10"/><circle cx="1940" cy="3280" r="10"/></g></g><path d="M2395 2818c-115.35 45.22-271 79-395 79s-259.34-26.43-395-79c-7.24 10.54-16.6 26.27-23 37 142 57 275 86 418 86s276-29 418-86c-6.15-10.7-15.93-26.36-23-37z" class="B K"/><path d="M2267.76 936.82C2665.92 1066 2967.42 1339.94 2966 1847c-1.1 388.75-350.07 990.8-966.43 996.18-594.62 5.2-966.64-596.22-965.57-996.18 1.32-488.44 432.13-990.94 966-1028.5 577.8-40.6 805.2 293.08 267.76 118.32z" class="C D H J"/><path d="M2033.94 843.8C1380.48 889.737 907 1615 1169.36 2202.88c68.14-70.38 151.14-90.38 177.6-99.16 7.94 8.57 17.6 17.67 21.05 21.78-81.37 25.35-175.93 80.4-216.63 156.84-76.27-147.6-117-302.56-116.6-435.33 1.32-488.45 432.22-991 966.1-1028.57 105.63-7.433 135.13 18.185 33.07 25.36zm930.56 1003.27c-.36 127.74-38.12 278.5-110.54 423.57C2779 2168 2644.73 2127 2631 2127l20-24.5c23.5 5.5 128.62 27.9 187.28 106.2 59.3-132.15 86.52-255.16 86.84-370.86 1.47-524.24-353.62-784.84-657.36-901.02C2665.92 1066 2965.92 1340 2964.5 1847.07z" class="B F"/><path d="M1725 1203.5c-297 0-665 628.5-363.5 918.5-575.5 180 0 779 638.5 779s1214-599 638.5-779c301.5-290-66.5-918.5-363.5-918.5-126.5 0-195.5 58.5-275 116.5-79.5-58-148.5-116.5-275-116.5z" fill="#ffcd98" class="C D"/><g class="B"><path d="M2749.1 1817c-15.7-308.54-265-613.2-481.5-613.2-134.6 0-216.2 82.14-267.6 116.2-41.1-28.05-132.5-116.2-268.4-116.2-255.6 0-478.1 373.2-482.13 622.7C1227 1558 1433.07 1155 1733 1155c156 0 239 75 267 106 28-31 111-106 267-106 297.63 0 503.5 381.5 482.1 662z" class="F"/><path d="M1250.37 1807.4c-7.1 117.45 24.02 230 111.45 314.1-10.42 3.26-20.47 7.66-30.15 11.2 22.33-7.2 43.66-12.28 68.33-16.7-84.54-81.32-133.47-191.76-149.63-308.6zm-101.77 459.27c-135.92 245.26 334.32 633.83 851.4 633.83s993.17-392.85 849.75-637.86C2945.1 2486.74 2490.72 2863 2000 2863c-487.8 0-939.7-371.78-851.4-596.33zM2670.5 2133c-21.76-6.4-44.6-12.37-70.5-17 85.32-82.07 134.37-193.8 150.07-311.86 7.9 118.62-23 232.5-111.25 317.36 11.32 3.54 21.24 7.64 31.68 11.5z" class="G"/></g><circle cx="1888.01" cy="3096.34" r="122" transform="rotate(78.3604 1888.01 3096.34)" fill="#77fff1" fill-opacity=".75"/><path d="M1937.7 3193.65c49.03-48.14 61.2-166.46-13.4-198.7 85.47 25.8 96.4 155.75 13.4 198.7z" fill="#fff" fill-opacity=".75"/><path d="M1919.93 3214.1c-63.36 9.1-123.63-32.64-136.72-96.17-13.08-63.52 25.8-125.68 87.58-142.37-2.46.35-4.93.78-7.4 1.3-66 13.6-108.47 78.1-94.88 144.1 13.6 66 78.1 108.47 144.1 94.88 2.46-.5 4.9-1.1 7.3-1.74z" class="B G"/><use xlink:href="#D" fill="#fbdd11"/><path d="M1707.6 3167.2l-13.32-64.64-5.88 1.2 13.32 64.64 5.88-1.2zm-23.5 4.84l-13.3-64.64-5.88 1.2 13.3 64.64 5.88-1.2zm-36.83-59.8l13.3 64.64-5.87 1.22-13.32-64.65 5.88-1.2zm-10.2 69.5l-13.32-64.65-5.87 1.2 13.3 64.65 5.88-1.2zm-36.82-59.8l13.3 64.64-5.88 1.2-13.3-64.64 5.88-1.2zm-10.2 69.47l-13.3-64.64-5.88 1.2 13.32 64.64 5.87-1.2zm-36.82-59.8l13.32 64.64-5.88 1.2-13.3-64.64 5.87-1.2zm-10.2 69.5l-13.3-64.65-5.88 1.2 13.32 64.65 5.87-1.2zm-36.82-59.8l13.32 64.65-5.88 1.2-13.32-64.65 5.88-1.2zm-10.2 69.48l-13.32-64.64-5.87 1.2 13.3 64.64 5.88-1.2z" fill="#d8b400"/><path d="M1735.5 3109.38l4.23 20.57-21.55 4.44c-9.9-5.13-20.57-13.12-32.3-10.7l-181.7 37.42c-11.36 2.34-18.67 13.45-16.33 24.8l5.33 25.88c-8.1-1.54-14.9-7.82-16.66-16.4l-5.64-27.43c-2.34-11.36 4.97-22.46 16.33-24.8l194.42-40.05c11.74-2.42 22.4 5.57 32.32 10.7l21.55-4.44z" class="B F"/><use xlink:href="#D" class="C D"/><use xlink:href="#E" fill="#666" class="M"/><path d="M1924.97 3251c-84.27 14.66-165.52-40.22-182.9-124.58-17.38-84.37 35.56-166.9 118.77-186.73l-4.92.93c-86 17.72-141.37 101.8-123.65 187.8s101.8 141.37 187.8 123.65c1.64-.33 3.27-.7 4.88-1.08zm-7.47-36.27l4.92-.9c66-13.6 108.47-78.1 94.88-144.1-13.6-66-78.1-108.47-144.1-94.87-1.64.33-3.26.7-4.87 1.1 64.25-10.56 125.93 31.44 139.18 95.8 13.26 64.35-26.8 127.3-90 143z" fill-opacity=".3" class="B"/><path d="M1851.05 2941.7c84.28-14.67 165.52 40.2 182.9 124.58s-35.56 166.9-118.77 186.73l4.9-.94c86-17.7 141.37-101.8 123.65-187.8-17.7-86-101.8-141.37-187.8-123.66-1.64.34-3.26.7-4.88 1.1zm56.65 275.05c-64.25 10.55-125.93-31.44-139.2-95.8s26.8-127.3 90-143a141.297 141.297 0 0 0-4.92.9c-66 13.6-108.47 78.1-94.87 144.1s78.1 108.47 144.1 94.87c1.64-.34 3.27-.7 4.88-1.1z" fill-opacity=".25" fill="#fff"/><g class="C D"><use xlink:href="#E"/><path d="M1910 3556c32 0 63.1-23.6 66.7-56.14 9.1-82.2-94.35-89.68-150.67-90.92-57.1-1.25-154.03 9.56-171.02 72.27-14.85 54.8 36.5 74.8 73 74.8s49-12.15 92.98-12.15c38.4 0 57.02 12.15 89.02 12.15z" class="E I"/></g><path d="M1909 3534c-32 0-50.6-12.15-89.02-12.15-43.98 0-56.48 12.15-92.98 12.15-28.4 0-65.75-12.1-73.97-43.26-6.73 47.6 40.67 65.26 74.97 65.26 36.5 0 49-12.15 92.98-12.15 38.4 0 57.02 12.15 89.02 12.15 42.86 0 73-34.15 65.9-80.26-2.97 33.46-34.04 58.26-66.9 58.26z" class="B G"/><path d="M2090 3556c-32 0-63.1-23.6-66.7-56.14-9.1-82.2 94.35-89.68 150.67-90.92 57.1-1.25 154.03 9.56 171.02 72.27 14.85 54.8-36.5 74.8-73 74.8s-49-12.15-92.98-12.15c-38.42 0-57.02 12.15-89.02 12.15z" class="C D E I"/><path d="M2091 3534c32 0 50.6-12.15 89.02-12.15 43.98 0 56.48 12.15 92.98 12.15 28.4 0 65.75-12.1 73.97-43.26 6.73 47.6-40.67 65.26-74.97 65.26-36.5 0-49-12.15-92.98-12.15-38.4 0-57.02 12.15-89.02 12.15-42.86 0-73-34.15-65.9-80.26 2.97 33.46 34.04 58.26 66.9 58.26z" class="B G"/><path d="M1601.4 3259.9c56.82.05 93-68.1 58.6-115.27 15.9-45.2-18.1-95.4-66.66-96.55-56-1.34-88.37 58.5-82.5 109.13 5.48 47.3 37.52 102.65 90.57 102.7z" class="C D E I"/><path d="M1510.83 3157.2c6.78 58.57 54.37 126.8 125.37 93.8-68.82-8.8-117-125.5-83.1-191.84-5.4 3.84-13.9 8.34-27.6 27.6-12.3 21.73-17.7 46.2-14.66 70.43z" class="B G"/><path d="M2398.6 3259.9c-56.82.05-93-68.1-58.6-115.27-15.92-45.2 18.08-95.4 66.66-96.55 56-1.34 88.36 58.5 82.5 109.13-5.48 47.3-37.52 102.65-90.57 102.7z" class="C D E I"/><g class="B"><path d="M2489.17 3157.2c-6.78 58.57-54.37 126.8-125.37 93.8 68.82-8.8 117-125.5 83.1-191.84 5.4 3.84 13.9 8.34 27.6 27.6 12.3 21.73 17.7 46.2 14.66 70.43z" class="G"/><path d="M2588.3 2324.5c20.82 14.6 25.74 49 7.48 67.58-3.93 4-12.73 1.04-11.63-5.2 3.17-18.04-.65-37.13-6.2-54.42-1.9-5.94 4.77-11.64 10.32-7.9l.03-.05zm-1183.33 141c-17.65 18.3-15.9 53.03 5.55 67.77 4.62 3.17 12.7-1.4 10.43-7.33-6.56-17.1-6.45-36.57-4.3-54.6.74-6.2-6.9-10.52-11.64-5.8l-.04-.04z" class="K"/></g><path d="M2538.22 2317.78c22.7 23.9 25.4 64.16 6.86 91.24-5.66 8.57-18.32 2.1-16.17-7.46 2.17-9.74 3.62-19.74 3.56-29.74-197.17 30.25-395.1 55.62-593.28 78.1l-467.1 47.13c1.45 10.84 4.7 21.38 8.8 31.5 3.46 8.92-8.2 16.44-14.9 9.6-22.68-23.7-26.45-63.9-8-91.14 5.92-8.52 17.26-1.9 16.3 7.24-1.57 7.9-2.7 15.92-3.06 23.97 152.3-26.13 310.03-43.7 464.42-61.73l594.96-63.8c-1.65-8.75-4.4-17.14-7.4-25.5-3.22-8.9 8.38-16.18 15-9.4h.01z" fill="#634b37"/><path d="M2616.25 1600.5h-1232.5c-48.96 0-97.36 10.27-142.1 30.14l-211.56 94c-7.33 3.26-12 10.58-11.88 18.6l.38 23.55c.2 12.63 12.45 21.55 24.54 17.87l237.87-72.47c8.9-2.7 17.98-4.8 27.15-6.24-10.8 142.78 75.66 412.56 331.6 412.56 260.5 0 360.48-251.17 349.43-415h21.9c-12 142.12 74 415 331.4 415 259.2 0 359.47-248.65 349.6-412.53 9.1 1.45 18.08 3.52 26.92 6.2l237.87 72.47c12.1 3.68 24.33-5.24 24.54-17.87l.38-23.55c.13-8.02-4.55-15.34-11.88-18.6l-211.56-94c-44.73-19.87-93.14-30.14-142.1-30.14z" class="B M"/><path d="M2559.7 1974.67c-198.23 161.17-482.38 0-482.38-246.17 93.62 165 294.5 263.6 482.38 246.17zm-702.74 0c-198.23 161.17-482.38 0-482.38-246.17 93.62 165 294.5 263.6 482.38 246.17z" fill="#fff"/><path d="M1785 2099c0 76.35 98.85 169 216.26 168 108.22-.95 213.74-92.55 213.74-167.78 0-152.13-430-154.42-430-.22z" class="B G"/><path d="M1782 2081c0 76.35 100.23 169 219.27 168 109.73-.95 216.73-92.55 216.73-167.78 0-60.53-126.24-113.77-216.73-113-84.02.78-219.27 41.16-219.27 112.78z" fill="#7f6145"/><g class="B"><path d="M1783.58 2067.77c41.76 54.75 124.68 100.94 217.85 100.22 86.2-.68 170.92-47.12 214.1-101.55 1.62 4.86 2.48 9.8 2.48 14.78 0 75.23-107 166.83-216.73 167.78-119.04 1-219.27-91.65-219.27-168 0-4.54.54-8.95 1.58-13.23z" fill-opacity=".2"/><path d="M2875.44 1419.5c-15.28 3.2-30.98 3.8-46.46 1.83-71.47-8.92-143-16.3-214.63-22.13-412.55-33.68-827.67-16.38-1235.98 51.5-72.6 12.08-144.9 25.75-216.96 41a136.271 136.271 0 0 1-53.27.89c39.63-96.2 94.12-188.04 160.63-271.28 463.44-83.9 938.5-104.52 1407.53-62.46 82 71.98 149.88 158.2 199.14 260.63z" class="K"/></g><g class="C E"><path d="M2828.98 1371.33c-554.7-69.2-1120.68-45.5-1667.57 70.4-57.45 12.15-112.3-12.44-122.8-56.37l-18.66-79.02c-10.56-43.9 29.73-91.1 90.34-103.93 573.35-121.55 1166.9-146.45 1748.5-74 61.96 7.7 106.8 51.44 100.18 96.1l-11.6 80.36c-6.63 44.68-59.6 73.76-118.37 66.46z" fill="#232323" stroke-width="10.6302"/><path d="M2696.9 1110.75c-474.24-44.4-952.3-24.44-1421.18 59.33 58.06-131.13 121.6-261.266 190.6-390.4 46.28-87.197 149.88-149.574 268.7-159.168 180.1-14.694 360.77-20.914 542.04-18.66 62.88.77 120.5 28.762 150.1 72.3 97.7 143.253 187.62 288.787 269.75 436.597z" fill="#111" stroke-width="7.2629"/></g><path d="M2828.98 1371.33c-554.7-69.15-1120.7-45.44-1667.56 70.4-57.46 12.15-112.3-12.44-122.82-56.37l-18.66-79.02c-2.96-12.7-1.95-26.02 2.9-38.13l17 72.07c10.52 43.92 65.36 68.52 122.82 56.37 546.82-115.9 1112.87-139.48 1667.56-70.4 58.76 7.3 111.74-21.78 118.38-66.46l8.73-60.5c2.28 8.2 2.82 16.8 1.6 25.23l-11.6 80.35c-6.64 44.7-59.62 73.77-118.38 66.47z" class="B"/><defs ><path id="B" d="M2320.45 2918.2c6 14.88 36.5 70.64 32.15 145.47-5.77 99.06 7 121.96 18.72 190.57 12.1 70.82 37.27 82.2 24.94 110.08-19.64 44.4-175.1 31.3-343.94 33.54-16.6.22-30.8-13.18-31.56-29.76 0-370.1-4.26-659.1 181.74-679.1"/><path id="C" d="M1679.54 2918.2c-6 14.88-36.5 70.64-32.14 145.47 5.76 99.06-7.02 121.96-18.73 190.57-12.1 70.82-37.27 82.2-24.94 110.08 19.65 44.4 175.1 31.3 343.94 33.54 16.6.22 30.8-13.18 31.56-29.76 0-370.1 4.26-659.1-181.74-679.1"/><path id="D" d="M1743.17 3146.6l-7.66-37.22-21.55 4.44c-9.92-5.13-20.58-13.12-32.32-10.7l-194.42 40.05c-11.36 2.34-18.67 13.44-16.33 24.8l5.64 27.43c2.34 11.36 13.45 18.67 24.8 16.33l195.2-40.2c10.97-2.26 17.9-12.74 25.07-20.48l21.55-4.44z"/><path id="E" d="M1732.28 3128.42c17.72 86 101.8 141.37 187.8 123.65 86-17.7 141.37-101.8 123.65-187.8-17.7-86-101.8-141.37-187.8-123.66-86 17.72-141.37 101.8-123.65 187.8zm36.24-7.46c13.6 66 78.1 108.47 144.1 94.88 66-13.6 108.47-78.12 94.87-144.1-13.6-66-78.1-108.47-144.1-94.88-66 13.6-108.47 78.1-94.88 144.1z"/></defs></svg>