<svg fill="none" height="4000" viewBox="0 0 4000 4000" width="4000" xmlns="http://www.w3.org/2000/svg"><path d="m2275.11 3290.64c-50.77-7.42-115.16-32.27-196.86-76-11.87-6.35-16.66-21.85-10.25-33.84 6.35-11.87 21.85-16.66 33.84-10.25 75.45 40.37 136.18 64.12 180.5 70.6 28.93 4.23 49.75 1 61.88-9.64 13.61-11.92 12.39-33 8.83-72.39-4.17-46.12-9.36-103.53 19.78-169.51 44-99.72 153.63-194.53 269.09-176.7 73.33 11.36 143.6 66.19 159.73 140.59 13.73 63.36-6.02 150.17-73.53 174.43-44.77 16-95.92-2.36-130.84-32.08-10.44-8.68-11.95-25-3.06-35.44 8.81-10.34 25.15-11.64 35.48-2.62.43.36 43.66 36.65 81.49 23.06 42.84-15.38 49.77-78.95 41.56-116.78-11.75-54.23-65.6-93.57-118.51-101.77-92.84-14.33-180.8 68.49-215.72 147.49-23.91 54.16-19.56 102.32-15.72 144.81 4 43.84 7.71 85.25-25.67 114.5-27.66 24.4-67.07 26.8-102.02 21.54z" fill="#333232" stroke="#000" stroke-miterlimit="10" stroke-width="5"/><path d="m2786.65 2965.53c11.06 51.02 1.18 114.55-37.82 152.08 51.41-33.7 65.07-107.56 52.82-164.08-16.13-74.41-86.39-129.24-159.73-140.6-66.26-10.23-131.78 18.56-181.54 60.82 114.12-80.75 293.29-60.36 326.27 91.78z" fill="#000" fill-opacity=".4"/><path d="m2717.62 3078.06c-27.03 31.45-75.59 15.26-102.89-8.23-3.14-2.68-6.9-4.54-10.94-5.41-4.03-.87-8.22-.73-12.19.41 3.98-7.3 11.64-12.23 19.93-12.9 6.6-.53 13.15 1.59 18.2 5.89 22.07 19.5 59.84 35.17 87.89 20.24z" fill="#000" fill-opacity=".4"/><path d="m2073.5 3173.5c3.5-3 15.5-9 23-5.5 6.98 3.26 15.34 7.39 24.73 12.03 49.42 24.41 127.47 62.97 183.77 62.97 50 0 54.5-25 47.5-91 .85 3.82 1.92 8.03 3.06 12.51 9.62 37.75 24.09 94.49-50.56 94.49-81.5 0-208.79-70.57-231.5-85.5z" fill="#000" fill-opacity=".4"/><path d="m1587 3147c36.5 0 65.66-32.58 62.04-68.42-5.42-63.52 18.62-132.19 65.95-198.39 43.06-60.25 89.21-93.25 53.71-132.19s-115.56 3.92-155.4 59.5c-65.71 91.92-97.19 189.11-88.63 283.68 3.19 31.47 25.83 55.82 62.33 55.82z" fill="#333232" stroke="#000" stroke-miterlimit="10" stroke-width="5"/><path d="m1553.09 3059.16c-.42-112.27 89.61-277.66 195.11-324.16-130-21-245 233.5-222.71 351.77 7.21-11.77 19.71-23.27 27.6-27.61z" fill="#000" fill-opacity=".4"/><path d="m1959.37 3446.51c5-87.08 27.4-154.43 47.17-206.81s42.42-144.7-42.56-166.02c-121.5-30.49-188.31 254.12-193.3 340.94-2.93 51.08 36.82 110.33 88.4 113.29 47.48 2.31 97.45-31.79 100.29-81.4z" fill="#333232" stroke="#000" stroke-miterlimit="10" stroke-width="5"/><path d="m1769.48 3414.5c51.5-7 148-7 188.5 34 .34-3.09 1.44-11.94 1.66-15.04-42.16-36.96-138.16-39.46-188.02-32.46-.26 3.3-1.86 10.13-2.14 13.5z" fill="#000" fill-opacity=".4"/><path d="m1785.48 3325c47.76 44.29 108.88 69.13 178 78.5.58-5.01 1.81-12.18 2.5-17-68.6-8.88-128.2-37.6-176-81-2 6-3.62 15.27-4.5 19.5z" fill="#000" fill-opacity=".4"/><path d="m2040.63 3446.51c-5-87.08-27.4-154.43-47.17-206.81s-42.42-144.7 42.56-166.02c121.5-30.49 188.31 254.12 193.3 340.94 2.93 51.08-36.82 110.33-88.4 113.29-47.48 2.31-97.45-31.79-100.29-81.4z" fill="#333232" stroke="#000" stroke-miterlimit="10" stroke-width="5"/><path d="m2230.52 3414.5c-51.5-7-148-7-188.5 34-.34-3.09-1.44-11.94-1.66-15.04 42.16-36.96 138.16-39.46 188.02-32.46.26 3.3 1.86 10.13 2.14 13.5z" fill="#000" fill-opacity=".4"/><path d="m2214.52 3325c-47.76 44.29-108.88 69.13-178 78.5-.58-5.01-1.81-12.18-2.5-17 68.6-8.88 128.2-37.6 176-81 2 6 3.62 15.27 4.5 19.5z" fill="#000" fill-opacity=".4"/><path d="m2413 3147c-36.5 0-65.66-32.58-62.04-68.42 5.42-63.52-18.62-132.19-65.95-198.39-43.06-60.25-89.21-93.25-53.71-132.19s115.56 3.92 155.4 59.5c65.71 91.92 97.19 189.11 88.63 283.68-3.19 31.47-25.83 55.82-62.33 55.82z" fill="#333232" stroke="#000" stroke-miterlimit="10" stroke-width="5"/><path d="m2446.91 3059.16c.42-112.27-89.61-277.66-195.11-324.16 130-21 245 233.5 222.71 351.77-7.21-11.77-19.71-23.27-27.6-27.61z" fill="#000" fill-opacity=".4"/><path d="m3133.19 1832.12c111.1 102 66.32 309.29-9.09 427.16-107.46 168-353.47 273.75-479.46 184.37-131.58-93.35-114.4-386.92 39.2-539.32 114.68-113.78 334.45-177.69 449.35-72.21z" fill="#f7c394" stroke="#000" stroke-miterlimit="10" stroke-width="5"/><path d="m3003.49 1952.22c66 68.19 30.1 196.68-21.65 267.88-73.75 101.45-232.17 158.69-307.94 97.86-79.14-63.53-57.39-247.22 44.75-337.18 76.26-67.16 216.64-99.08 284.84-28.56z" fill="#ffc9a1"/><path d="m3124.1 2259.28c-60.69 94.85-195.1 203.22-346.6 216.72 106.36-25 260.01-133.85 306.64-206.72 75.41-117.87 115.36-338.97 9.09-427.16-32.41-26.89-114.73-65.12-227.73-45.12 138-42.5 222.79-6.13 267.73 35.12 111.06 101.99 66.28 309.29-9.13 427.16z" fill="#000" fill-opacity=".1"/><path d="m866.818 1832.12c-111.1 102-66.32 309.29 9.09 427.16 107.46 168 353.472 273.75 479.462 184.37 131.58-93.35 114.4-386.92-39.2-539.32-114.68-113.78-334.452-177.69-449.352-72.21z" fill="#f7c394" stroke="#000" stroke-miterlimit="10" stroke-width="5"/><path d="m996.518 1952.22c-66 68.19-30.1 196.68 21.652 267.88 73.75 101.45 232.17 158.69 307.94 97.86 79.14-63.53 57.39-247.22-44.75-337.18-76.26-67.16-216.64-99.08-284.842-28.56z" fill="#ffc9a1"/><path d="m875.908 2259.28c60.69 94.85 195.102 203.22 346.602 216.72-106.36-25-260.019-133.85-306.642-206.72-75.41-117.87-115.36-338.97-9.09-427.16 32.409-26.89 114.732-65.12 227.732-45.12-138.002-42.5-222.792-6.13-267.732 35.12-111.06 101.99-66.28 309.29 9.13 427.16z" fill="#000" fill-opacity=".1"/><path d="m2000 2548c154 0 220 135 260 246s58 220 58 292c0 152-138.68 305.46-318 307-175.53 1.51-318-155-318-307 0-72 17.7-181.5 58-292 40-111 106-246 260-246z" fill="#333232" stroke="#000" stroke-miterlimit="10" stroke-width="5"/><path d="m2000 3393c-175.67 1.59-330-157-318-337 10 148 145.15 288.48 318 287s308-139 318-287c12 180-142.33 335.41-318 337z" fill="#000" fill-opacity=".4"/><path d="m2000 2672c104 0 160 68 174 128 34.49 147.82 64 274 4 350s-134.95 82-178 82c-47.55 0-118-6-178-82s-32.44-193.83 4-350c14-60 70-128 174-128z" fill="#f7c394" stroke="#000" stroke-miterlimit="10" stroke-width="5"/><path d="m2000 3232c-136 0-224-94-213-216 4 115 96 190 213 190s209-75 213-190c11 122-77 216-213 216z" fill="#000" fill-opacity=".1"/><path d="m2320.45 2918.2c6.01 14.88 36.5 70.64 32.15 145.47-5.77 99.06 7.01 121.96 18.72 190.57 12.1 70.82 37.27 82.2 24.94 110.08-19.64 44.41-175.09 31.31-343.94 33.54-16.6.22-30.8-13.18-31.56-29.76 0-370.1-4.26-659.1 181.74-679.1" fill="#333232"/><path d="m2320.45 2918.2c6.01 14.88 36.5 70.64 32.15 145.47-5.77 99.06 7.01 121.96 18.72 190.57 12.1 70.82 37.27 82.2 24.94 110.08-19.64 44.41-175.09 31.31-343.94 33.54-16.6.22-30.8-13.18-31.56-29.76 0-370.1-4.26-659.1 181.74-679.1" stroke="#000" stroke-linecap="round" stroke-linejoin="round" stroke-miterlimit="10" stroke-width="5"/><path d="m2352.6 3063.67c4.35-74.83-26.14-130.59-32.15-145.47 25.95 74.21.55 168.8 3.55 236.8 2.4 54.4 52.14 150.96 47.32 189.5s-291.32 28.9-319 21c-22.82-6.51-26.27-34.47-31.57-48.5 0 13.91.01 36.94.01 51.1.75 16.58 14.96 29.98 31.56 29.76 168.85-2.23 324.3 10.87 343.94-33.54 12.33-27.88-12.85-39.26-24.94-110.08-11.71-68.61-24.49-91.51-18.72-190.57z" fill="#000" fill-opacity=".4"/><path d="m1679.54 2918.2c-6.01 14.88-36.49 70.64-32.14 145.47 5.76 99.06-7.02 121.96-18.73 190.57-12.09 70.82-37.27 82.2-24.94 110.08 19.65 44.41 175.1 31.31 343.94 33.54 16.6.22 30.81-13.18 31.56-29.76 0-370.1 4.26-659.1-181.74-679.1" fill="#333232"/><path d="m1679.54 2918.2c-6.01 14.88-36.49 70.64-32.14 145.47 5.76 99.06-7.02 121.96-18.73 190.57-12.09 70.82-37.27 82.2-24.94 110.08 19.65 44.41 175.1 31.31 343.94 33.54 16.6.22 30.81-13.18 31.56-29.76 0-370.1 4.26-659.1-181.74-679.1" stroke="#000" stroke-linecap="round" stroke-linejoin="round" stroke-miterlimit="10" stroke-width="5"/><path d="m1647.4 3063.67c-4.35-74.83 26.14-130.59 32.15-145.47-25.95 74.21-.55 168.8-3.55 236.8-2.4 54.4-52.15 150.96-47.33 189.5 4.83 38.54 291.33 28.9 319 21 22.83-6.51 26.28-34.47 31.57-48.5v51.1c-.76 16.58-14.97 29.98-31.57 29.76-168.84-2.23-324.29 10.87-343.94-33.54-12.33-27.88 12.85-39.26 24.94-110.08 11.72-68.61 24.49-91.51 18.73-190.57z" fill="#000" fill-opacity=".4"/><path d="m2099.24 2995.5c-10.5 18.5-63.24 113-76.74 132 2-106.5 15-258.5 36.24-299.5 5.06-9.77 163.5 11 162 19.5s-22.5 61.5-36 70.5-82.5-4.5-85.5 5 30 40.5 27 47-12.53 0-27 25.5z" stroke="#000" stroke-width="5"/><path d="m2097.5 2972c3.56-4 10.78-6.64 9.74-10-3.74-12-32.74-26-20.24-48.5 9.17-16.5 74-1.5 87.5-10.5 12.91-8.61 29.91-49.44 32.93-61.13 8.51 2.11 13.58 4.08 13.31 5.63-1.5 8.5-22.5 61.5-36 70.5s-82.5-4.5-85.5 5 30 40.5 27 47c-1.03 2.22-2.81 2.92-5.29 3.9-14.72 5.81-21.44 21.09-28.76 34.1-18.02 31.99-58.16 103.27-69.69 119.5.17-9.34.43-19.02.78-28.95 19.79-33.13 40.27-88.45 74.22-126.55z" fill="#000" fill-opacity=".2"/><path d="m1902.5 2972c-3.57-4-10.79-6.64-9.74-10 3.74-12 32.74-26 20.24-48.5-9.17-16.5-74-1.5-87.5-10.5-12.91-8.61-29.91-49.44-32.93-61.13-8.51 2.11-13.58 4.08-13.31 5.63 1.5 8.5 22.5 61.5 36 70.5s82.5-4.5 85.5 5-30 40.5-27 47c1.02 2.22 2.81 2.92 5.29 3.9 14.72 5.81 21.44 21.09 28.76 34.1 18.02 31.99 58.16 103.27 69.69 119.5-.18-9.34-.44-19.02-.78-28.95-19.79-33.13-40.28-88.45-74.22-126.55z" fill="#000" fill-opacity=".2"/><g stroke="#000"><path d="m1900.76 2995.5c10.5 18.5 63.24 113 76.74 132-2-106.5-15-258.5-36.24-299.5-5.06-9.77-163.5 11-162 19.5s22.5 61.5 36 70.5 82.5-4.5 85.5 5-30 40.5-27 47 12.53 0 27 25.5z" stroke-width="5"/><circle cx="1948" cy="3164" r="10" stroke-width="7"/><circle cx="1945" cy="3220" r="10" stroke-width="7"/><circle cx="1940" cy="3280" r="10" stroke-width="7"/></g><path d="m2395 2818c-115.35 45.22-271 79-395 79s-259.34-26.43-395-79c-7.24 10.54-16.61 26.27-23 37 142 57 275 86 418 86s276-29 418-86c-6.15-10.7-15.93-26.36-23-37z" fill="#000" fill-opacity=".15"/><path d="m2267.76 936.82c398.16 129.18 699.66 403.12 698.24 910.18-1.09 388.75-350.07 990.81-966.43 996.18-594.62 5.19-966.64-596.22-965.57-996.18 1.32-488.44 432.13-990.941 966-1028.501 577.79-40.61 805.19 293.081 267.76 118.321z" fill="#333232" stroke="#000" stroke-linecap="round" stroke-linejoin="round" stroke-width="5"/><path d="m2033.94 843.8c-653.46 45.937-1126.94 771.2-864.58 1359.08 68.14-70.38 151.14-90.38 177.59-99.16 7.94 8.57 17.6 17.67 21.05 21.78-81.37 25.35-175.93 80.41-216.63 156.84-76.27-147.6-117-302.56-116.59-435.33 1.32-488.45 432.22-991 966.09-1028.57 105.63-7.433 135.13 18.185 33.07 25.36z" fill="#000" fill-opacity=".4"/><path d="m2964.5 1847.07c-.36 127.74-38.12 278.51-110.54 423.57-74.96-102.64-209.23-143.64-222.96-143.64 4-5 16-19.7 20-24.5 23.5 5.5 128.62 27.91 187.28 106.2 59.3-132.15 86.52-255.16 86.84-370.86 1.47-524.24-353.62-784.84-657.36-901.02 398.16 129.18 698.16 403.18 696.74 910.25z" fill="#000" fill-opacity=".4"/><path d="m1725 1203.5c-297 0-665 628.5-363.5 918.5-575.5 180 0 779 638.5 779s1214-599 638.5-779c301.5-290-66.5-918.5-363.5-918.5-126.5 0-195.51 58.5-275 116.5-79.5-58-148.5-116.5-275-116.5z" fill="#ffcd98" stroke="#000" stroke-width="5"/><path d="m2749.1 1817c-15.7-308.54-265-613.19-481.5-613.19-134.6 0-216.2 82.14-267.6 116.19-41.1-28.05-132.5-116.19-268.4-116.19-255.6 0-478.1 373.19-482.13 622.71-22.47-268.52 183.6-671.52 483.53-671.52 156 0 239 75 267 106 28-31 111-106 267-106 297.63 0 503.5 381.5 482.1 662z" fill="#000" fill-opacity=".4"/><path d="m1250.37 1807.39c-7.11 117.45 24.02 230.01 111.45 314.11-10.42 3.26-20.47 7.66-30.15 11.19 22.33-7.19 43.66-12.28 68.33-16.69-84.54-81.32-133.47-191.76-149.63-308.61z" fill="#000" fill-opacity=".1"/><path d="m2670.5 2133c-21.76-6.41-44.6-12.37-70.5-17 85.32-82.07 134.37-193.81 150.07-311.86 7.89 118.62-23.01 232.49-111.25 317.36 11.32 3.54 21.24 7.64 31.68 11.5z" fill="#000" fill-opacity=".1"/><path d="m1148.6 2266.67c-135.92 245.26 334.32 633.83 851.4 633.83s993.17-392.85 849.75-637.86c95.36 224.11-359.03 600.36-849.75 600.36-487.79 0-939.69-371.78-851.4-596.33z" fill="#000" fill-opacity=".1"/><circle cx="1888.01" cy="3096.34" fill="#77fff1" fill-opacity=".75" r="122" transform="matrix(.20175491 .97943604 -.97943604 .20175491 4539.761708 622.453173)"/><path d="m1937.69 3193.65c49.03-48.14 61.21-166.46-13.4-198.71 85.47 25.79 96.41 155.75 13.4 198.71z" fill="#fff" fill-opacity=".75"/><path d="m1919.93 3214.1c-63.36 9.09-123.63-32.64-136.72-96.17-13.08-63.52 25.79-125.68 87.58-142.37-2.46.35-4.93.78-7.39 1.29-66 13.6-108.47 78.11-94.88 144.11 13.59 65.99 78.11 108.47 144.11 94.88 2.46-.51 4.9-1.09 7.3-1.74z" fill="#000" fill-opacity=".1"/><path d="m1743.17 3146.6-7.66-37.22-21.55 4.44c-9.92-5.13-20.58-13.12-32.32-10.7l-194.42 40.05c-11.36 2.34-18.67 13.44-16.33 24.8l5.64 27.43c2.34 11.36 13.45 18.67 24.81 16.33l195.21-40.21c10.97-2.26 17.9-12.74 25.07-20.48z" fill="#fbdd11"/><g fill="#d8b400"><path d="m1707.6 3167.2-13.32-64.64-5.88 1.21 13.32 64.64z"/><path d="m1684.09 3172.04-13.31-64.64-5.88 1.21 13.31 64.64z"/><path d="m1647.27 3112.24 13.31 64.64-5.87 1.22-13.32-64.65z"/><path d="m1637.08 3181.73-13.32-64.65-5.87 1.21 13.31 64.65z"/><path d="m1600.26 3121.93 13.31 64.64-5.88 1.21-13.31-64.64z"/><path d="m1590.06 3191.41-13.31-64.64-5.88 1.21 13.32 64.64z"/><path d="m1553.24 3131.61 13.32 64.64-5.88 1.21-13.31-64.64z"/><path d="m1543.05 3201.1-13.31-64.65-5.88 1.21 13.32 64.65z"/><path d="m1506.23 3141.29 13.32 64.65-5.88 1.21-13.32-64.65z"/><path d="m1496.04 3210.78-13.32-64.64-5.87 1.21 13.31 64.64z"/></g><path d="m1735.51 3109.38 4.23 20.57-21.55 4.44c-9.91-5.13-20.57-13.12-32.31-10.7l-181.69 37.42c-11.36 2.34-18.67 13.45-16.33 24.81l5.33 25.88c-8.11-1.54-14.89-7.82-16.66-16.4l-5.64-27.43c-2.34-11.36 4.97-22.46 16.33-24.8l194.42-40.05c11.74-2.42 22.4 5.57 32.32 10.7z" fill="#000" fill-opacity=".4"/><path d="m1743.17 3146.6-7.66-37.22-21.55 4.44c-9.92-5.13-20.58-13.12-32.32-10.7l-194.42 40.05c-11.36 2.34-18.67 13.44-16.33 24.8l5.64 27.43c2.34 11.36 13.45 18.67 24.81 16.33l195.21-40.21c10.97-2.26 17.9-12.74 25.07-20.48z" stroke="#000" stroke-width="5"/><path clip-rule="evenodd" d="m1732.28 3128.42c17.72 86.01 101.8 141.37 187.81 123.65 86.01-17.71 141.37-101.8 123.65-187.8-17.71-86.01-101.8-141.37-187.81-123.66-86 17.72-141.37 101.81-123.65 187.81zm36.24-7.46c13.59 65.99 78.11 108.47 144.11 94.88 65.99-13.6 108.47-78.12 94.87-144.11-13.59-65.99-78.11-108.47-144.1-94.88-66 13.6-108.47 78.11-94.88 144.11z" fill="#666" fill-rule="evenodd"/><path d="m1924.97 3250.99c-84.27 14.66-165.52-40.22-182.89-124.58-17.38-84.37 35.56-166.89 118.77-186.73-1.64.29-3.28.6-4.92.93-86 17.72-141.37 101.81-123.65 187.81 17.72 86.01 101.8 141.37 187.81 123.65 1.64-.33 3.27-.69 4.88-1.08z" fill="#000" fill-opacity=".3"/><path d="m1917.5 3214.73c1.64-.27 3.28-.57 4.92-.91 65.99-13.6 108.47-78.11 94.88-144.11-13.6-65.99-78.11-108.47-144.11-94.87-1.64.33-3.26.7-4.87 1.1 64.25-10.56 125.93 31.44 139.18 95.79 13.26 64.35-26.8 127.3-90 143z" fill="#000" fill-opacity=".3"/><path d="m1851.05 2941.7c84.28-14.67 165.52 40.21 182.9 124.58s-35.56 166.89-118.77 186.73c1.63-.29 3.27-.6 4.91-.94 86.01-17.71 141.37-101.8 123.65-187.8-17.71-86.01-101.8-141.37-187.81-123.66-1.64.34-3.26.7-4.88 1.09z" fill="#fff" fill-opacity=".25"/><path d="m1907.71 3216.75c-64.25 10.55-125.93-31.44-139.19-95.79s26.81-127.31 90-143c-1.64.27-3.28.57-4.92.91-65.99 13.59-108.47 78.11-94.87 144.11 13.59 65.99 78.11 108.47 144.1 94.87 1.64-.34 3.27-.7 4.88-1.1z" fill="#fff" fill-opacity=".25"/><path clip-rule="evenodd" d="m1732.28 3128.42c17.72 86.01 101.8 141.37 187.81 123.65 86.01-17.71 141.37-101.8 123.65-187.8-17.71-86.01-101.8-141.37-187.81-123.66-86 17.72-141.37 101.81-123.65 187.81zm36.24-7.46c13.59 65.99 78.11 108.47 144.11 94.88 65.99-13.6 108.47-78.12 94.87-144.11-13.59-65.99-78.11-108.47-144.1-94.88-66 13.6-108.47 78.11-94.88 144.11z" fill-rule="evenodd" stroke="#000" stroke-width="5"/><path d="m1910 3556c32 0 63.09-23.6 66.7-56.14 9.11-82.21-94.35-89.68-150.67-90.92-57.1-1.25-154.03 9.56-171.02 72.27-14.85 54.79 36.49 74.79 72.99 74.79s49-12.15 92.98-12.15c38.41 0 57.02 12.15 89.02 12.15z" fill="#f7c394" stroke="#000" stroke-miterlimit="10" stroke-width="5"/><path d="m1909 3534c-32 0-50.61-12.15-89.02-12.15-43.98 0-56.48 12.15-92.98 12.15-28.39 0-65.75-12.1-73.97-43.26-6.73 47.6 40.67 65.26 74.97 65.26 36.5 0 49-12.15 92.98-12.15 38.41 0 57.02 12.15 89.02 12.15 42.86 0 73-34.15 65.91-80.26-2.97 33.46-34.04 58.26-66.91 58.26z" fill="#000" fill-opacity=".1"/><path d="m2090 3556c-32 0-63.09-23.6-66.7-56.14-9.11-82.21 94.35-89.68 150.67-90.92 57.1-1.25 154.03 9.56 171.02 72.27 14.85 54.79-36.49 74.79-72.99 74.79s-49-12.15-92.98-12.15c-38.42 0-57.02 12.15-89.02 12.15z" fill="#f7c394" stroke="#000" stroke-miterlimit="10" stroke-width="5"/><path d="m2091 3534c32 0 50.61-12.15 89.02-12.15 43.98 0 56.48 12.15 92.98 12.15 28.39 0 65.75-12.1 73.97-43.26 6.73 47.6-40.67 65.26-74.97 65.26-36.5 0-49-12.15-92.98-12.15-38.41 0-57.02 12.15-89.02 12.15-42.86 0-73-34.15-65.91-80.26 2.97 33.46 34.04 58.26 66.91 58.26z" fill="#000" fill-opacity=".1"/><path d="m1601.4 3259.89c56.82.05 92.99-68.11 58.59-115.27 15.91-45.21-18.09-95.39-66.66-96.55-56-1.34-88.37 58.5-82.5 109.13 5.48 47.31 37.52 102.65 90.57 102.69z" fill="#f7c394" stroke="#000" stroke-miterlimit="10" stroke-width="5"/><path d="m1510.83 3157.2c6.78 58.57 54.37 126.8 125.37 93.8-68.82-8.8-117-125.5-83.11-191.84-5.39 3.84-13.89 8.34-27.6 27.61-12.29 21.73-17.7 46.2-14.66 70.43z" fill="#000" fill-opacity=".1"/><path d="m2398.6 3259.89c-56.82.05-92.99-68.11-58.59-115.27-15.92-45.21 18.08-95.39 66.66-96.55 56-1.34 88.36 58.5 82.5 109.13-5.48 47.31-37.52 102.65-90.57 102.69z" fill="#f7c394" stroke="#000" stroke-miterlimit="10" stroke-width="5"/><path d="m2489.17 3157.2c-6.78 58.57-54.37 126.8-125.37 93.8 68.82-8.8 117-125.5 83.11-191.84 5.39 3.84 13.89 8.34 27.6 27.61 12.29 21.73 17.7 46.2 14.66 70.43z" fill="#000" fill-opacity=".1"/><path d="m2588.29 2324.51c20.82 14.6 25.74 49.01 7.48 67.58-3.93 4-12.73 1.04-11.63-5.2 3.17-18.04-.65-37.13-6.2-54.42-1.91-5.94 4.77-11.64 10.32-7.91z" fill="#000" fill-opacity=".15"/><path d="m1404.97 2465.51c-17.65 18.31-15.91 53.03 5.55 67.77 4.62 3.17 12.7-1.41 10.43-7.33-6.56-17.1-6.45-36.57-4.3-54.6.74-6.19-6.91-10.52-11.64-5.8z" fill="#000" fill-opacity=".15"/><path d="m2538.22 2317.78c22.69 23.9 25.4 64.16 6.86 91.24-5.66 8.57-18.32 2.1-16.17-7.46 2.17-9.74 3.62-19.74 3.56-29.74-197.17 30.25-395.09 55.62-593.28 78.09-152.66 16.72-323.07 36.59-467.09 47.13 1.45 10.84 4.71 21.38 8.81 31.49 3.46 8.92-8.2 16.44-14.9 9.61-22.68-23.69-26.45-63.89-8.01-91.14 5.92-8.52 17.26-1.91 16.3 7.24-1.57 7.9-2.71 15.92-3.06 23.97 152.31-26.13 310.03-43.7 464.42-61.73 198.32-21.6 396.68-41.82 594.96-63.79-1.65-8.75-4.41-17.14-7.41-25.5-3.22-8.91 8.38-16.18 15-9.41z" fill="#634b37"/><path clip-rule="evenodd" d="m2616.25 1600.5h-1232.5c-48.96 0-97.36 10.27-142.1 30.14l-211.56 93.99c-7.33 3.26-12.01 10.58-11.88 18.6l.38 23.55c.21 12.63 12.45 21.55 24.54 17.87l237.87-72.47c8.91-2.71 17.98-4.8 27.15-6.24-10.81 142.78 75.66 412.56 331.6 412.56 260.5 0 360.48-251.17 349.43-415h21.9c-11.99 142.12 74.01 415 331.41 415 259.19 0 359.47-248.65 349.59-412.53 9.09 1.45 18.08 3.52 26.92 6.21l237.87 72.47c12.09 3.68 24.33-5.24 24.54-17.87l.38-23.55c.13-8.02-4.55-15.34-11.88-18.6l-211.56-93.99c-44.73-19.87-93.14-30.14-142.1-30.14z" fill="#000" fill-rule="evenodd"/><path d="m2559.7 1974.67c-198.23 161.17-482.38 0-482.38-246.17 93.62 165 294.51 263.59 482.38 246.17z" fill="#fff"/><path d="m1856.96 1974.67c-198.23 161.17-482.38 0-482.38-246.17 93.62 165 294.51 263.59 482.38 246.17z" fill="#fff"/><path d="m1785 2099c0 76.35 98.85 169 216.26 168 108.22-.95 213.74-92.55 213.74-167.78 0-152.13-430-154.42-430-.22z" fill="#000" fill-opacity=".1"/><path d="m1782 2081c0 76.35 100.23 169 219.27 168 109.73-.95 216.73-92.55 216.73-167.78 0-60.53-126.24-113.77-216.73-113-84.02.78-219.27 41.16-219.27 112.78z" fill="#7f6145"/><path d="m1783.58 2067.77c41.76 54.75 124.68 100.94 217.85 100.22 86.21-.68 170.92-47.12 214.09-101.55 1.62 4.86 2.48 9.8 2.48 14.78 0 75.23-107 166.83-216.73 167.78-119.04 1-219.27-91.65-219.27-168 0-4.54.54-8.95 1.58-13.23z" fill="#000" fill-opacity=".2"/><path d="m2875.44 1419.5c-15.28 3.19-30.98 3.81-46.46 1.83-71.47-8.92-143.01-16.3-214.63-22.13-412.55-33.68-827.67-16.38-1235.98 51.51-72.59 12.08-144.91 25.75-216.96 41.01-17.53 3.8-35.63 4.1-53.27.89 39.63-96.21 94.12-188.04 160.63-271.28 463.44-83.9 938.49-104.52 1407.53-62.46 81.99 71.98 149.88 158.2 199.14 260.63z" fill="#000" fill-opacity=".15"/><path d="m2828.98 1371.33c-554.69-69.21-1120.68-45.49-1667.57 70.39-57.45 12.15-112.29-12.44-122.81-56.37-6.21-26.35-12.43-52.69-18.66-79.02-10.56-43.89 29.73-91.11 90.34-103.93 573.35-121.55 1166.89-146.45 1748.49-73.99 61.96 7.71 106.79 51.44 100.18 96.1-3.85 26.79-7.72 53.57-11.6 80.36-6.63 44.68-59.61 73.76-118.37 66.46z" fill="#232323" stroke="#000" stroke-miterlimit="10" stroke-width="10.6302"/><path d="m2696.91 1110.75c-474.24-44.4-952.3-24.44-1421.18 59.33 58.06-131.13 121.6-261.266 190.6-390.399 46.28-87.197 149.88-149.574 268.69-159.168 180.09-14.694 360.77-20.914 542.04-18.66 62.88.769 120.51 28.762 150.1 72.3 97.71 143.253 187.62 288.787 269.75 436.597z" fill="#111" stroke="#000" stroke-miterlimit="10" stroke-width="7.2629"/><path d="m2828.98 1371.33c-554.71-69.15-1120.71-45.44-1667.56 70.39-57.46 12.15-112.3-12.44-122.82-56.37-6.21-26.35-12.43-52.69-18.66-79.02-2.96-12.71-1.95-26.02 2.91-38.13 5.67 24.02 11.34 48.04 17.01 72.07 10.52 43.92 65.36 68.52 122.82 56.37 546.82-115.9 1112.87-139.48 1667.56-70.4 58.76 7.3 111.74-21.78 118.38-66.46 2.91-20.17 5.82-40.34 8.73-60.5 2.28 8.21 2.82 16.8 1.6 25.23-3.86 26.78-7.72 53.57-11.59 80.35-6.64 44.69-59.62 73.77-118.38 66.47z" fill="#000"/></svg>