<svg xmlns="http://www.w3.org/2000/svg" width="4000" height="4000" fill="none" xmlns:v="https://vecta.io/nano"><style><![CDATA[.B{fill:#000}.C{stroke-width:5}.D{stroke-miterlimit:10}.E{stroke:#333}.F{fill-opacity:.15}.G{fill-opacity:.1}.H{fill:#002790}.I{fill:#1c1c1c}.J{fill:#f7c394}.K{fill:#282828}.L{fill-opacity:.7}.M{stroke-linejoin:round}.N{fill:#fc5b20}.O{fill-opacity:.2}]]></style><path d="M2275.1 3290.64c-50.77-7.42-115.16-32.27-196.86-76-11.87-6.35-16.67-21.85-10.25-33.84 6.35-11.87 21.85-16.66 33.84-10.25 75.45 40.37 136.18 64.12 180.5 70.6 28.93 4.23 49.75 1 61.88-9.64 13.6-11.92 12.4-33 8.83-72.4-4.17-46.12-9.36-103.53 19.78-169.5 44-99.72 153.63-194.53 269.1-176.7 73.33 11.36 143.6 66.2 159.73 140.6 13.73 63.36-6.02 150.17-73.53 174.43-44.77 16-95.93-2.36-130.84-32.08-10.44-8.68-11.95-25-3.06-35.44 8.8-10.34 25.15-11.64 35.48-2.62.43.36 43.66 36.65 81.5 23.06 42.84-15.38 49.77-78.95 41.56-116.78-11.75-54.23-65.6-93.57-118.5-101.77-92.84-14.33-180.8 68.5-215.72 147.5-23.9 54.16-19.56 102.32-15.72 144.8 4 43.84 7.7 85.25-25.67 114.5-27.66 24.4-67.07 26.8-102.02 21.54z" class="C D E K"/><path d="M2786.65 2965.53c11.06 51.02 1.18 114.55-37.82 152.08 51.4-33.7 65.07-107.56 52.82-164.08-16.13-74.4-86.4-129.24-159.73-140.6-66.26-10.23-131.78 18.56-181.54 60.82 114.12-80.75 293.3-60.36 326.27 91.78zm-69.03 112.53c-27.03 31.45-75.6 15.26-102.9-8.23-3.14-2.68-6.9-4.54-10.94-5.4a25.037 25.037 0 0 0-12.19.41c3.97-7.3 11.63-12.23 19.93-12.9 6.6-.53 13.15 1.6 18.2 5.9 22.07 19.5 59.84 35.17 87.9 20.24zm-644.12 95.44c3.5-3 15.5-9 23-5.5 6.98 3.26 15.34 7.4 24.73 12.03 49.42 24.4 127.47 62.97 183.77 62.97 50 0 54.5-25 47.5-91 .85 3.82 1.92 8.03 3.06 12.5 9.62 37.75 24.1 94.5-50.56 94.5-81.5 0-208.8-70.57-231.5-85.5z" class="B L"/><path d="M1587 3147c36.5 0 65.66-32.58 62.04-68.42-5.42-63.52 18.62-132.2 65.95-198.4 43.05-60.25 89.2-93.25 53.7-132.2s-115.57 3.92-155.4 59.5c-65.7 91.92-97.2 189.1-88.63 283.68 3.2 31.47 25.83 55.82 62.33 55.82z" class="C D E K"/><path d="M1553.08 3059.16c-.4-112.27 89.62-277.66 195.12-324.16-130-21-245 233.5-222.72 351.77 7.22-11.77 19.72-23.27 27.6-27.6z" class="B L"/><path d="M1959.37 3446.5c5-87.08 27.4-154.43 47.17-206.8s42.42-144.7-42.56-166.02c-121.5-30.5-188.3 254.12-193.3 340.94-2.93 51.08 36.82 110.33 88.4 113.3 47.48 2.3 97.45-31.8 100.3-81.4z" class="C D E N"/><path d="M1769.48 3414.5c51.5-7 148-7 188.5 34l1.66-15.04c-42.16-36.96-138.16-39.46-188.02-32.46-.26 3.3-1.86 10.13-2.14 13.5zm16-89.5c47.76 44.3 108.88 69.13 178 78.5.58-5 1.8-12.18 2.5-17-68.6-8.88-128.2-37.6-176-81-2 6-3.62 15.27-4.5 19.5z" class="B F"/><path d="M2040.63 3446.5c-5-87.08-27.4-154.43-47.17-206.8s-42.42-144.7 42.56-166.02c121.5-30.5 188.3 254.12 193.3 340.94 2.93 51.08-36.82 110.33-88.4 113.3-47.48 2.3-97.45-31.8-100.3-81.4z" class="C D E N"/><path d="M2230.52 3414.5c-51.5-7-148-7-188.5 34l-1.66-15.04c42.16-36.96 138.16-39.46 188.02-32.46.26 3.3 1.86 10.13 2.14 13.5zm-16-89.5c-47.76 44.3-108.88 69.13-178 78.5-.58-5-1.8-12.18-2.5-17 68.6-8.88 128.2-37.6 176-81 2 6 3.62 15.27 4.5 19.5z" class="B F"/><path d="M2413 3147c-36.5 0-65.66-32.58-62.04-68.42 5.42-63.52-18.62-132.2-65.95-198.4-43.06-60.25-89.2-93.25-53.7-132.2s115.56 3.92 155.4 59.5c65.7 91.92 97.2 189.1 88.63 283.68-3.2 31.47-25.83 55.82-62.33 55.82z" class="C D E K"/><path d="M2446.9 3059.16c.42-112.27-89.6-277.66-195.1-324.16 130-21 245 233.5 222.7 351.77-7.2-11.77-19.7-23.27-27.6-27.6z" class="B L"/><path d="M3495.66 2013.68l-393.52 171.12 193.6 78.42-689.55 49.67-1945.68 17.37c360.38-327.44 354.08-346.77-160.8-447.65 71.02-147.47 487.8-381.1 560.8-400.6-8.45-4.84-250.6-126.03-619.57-144.23 300.5 14.82 436.77 39.36 632.56 128.63 7.34-211.1-102.6-392.9-511.8-540.02C981.3 510.03 1627.26 724.27 1709.5 791.8c78.55-203.395-11.92-407.66-181.5-535.05 0 0 938-161.72 949.55 640.48 66.83-184.612 88.12-385.03 73.18-580.32 22.3 71.462 25.78 440.025-68.93 623.64 141 40.57 314.33 167.84 381.98 295.1 130.08-12.78 260.2-34 387.12-65.08l-286.4 286.7 588.75 110.24-297.35 351.34 306.2-50.02-320.36 68.77 253.9 76.1z" class="I"/><path d="M886.18 2124.7l69.316 74.92-271.198 115.12L886.18 2124.7zm2330.62-149.24l9.8-37.86 213.07 64.38-222.87-26.52z" fill="#333"/><path d="M3133.2 1832.12c111.1 102 66.32 309.3-9.1 427.16-107.46 168-353.47 273.75-479.46 184.37-131.58-93.35-114.4-386.92 39.2-539.32 114.68-113.78 334.45-177.7 449.35-72.2z" class="C D E J"/><path d="M3003.5 1952.22c66 68.2 30.1 196.68-21.65 267.88-73.75 101.45-232.17 158.7-307.94 97.86-79.14-63.53-57.4-247.22 44.75-337.18 76.26-67.16 216.64-99.08 284.84-28.56z" fill="#ffc9a1"/><path d="M3124.1 2259.28c-60.7 94.85-195.1 203.22-346.6 216.72 106.36-25 260-133.85 306.64-206.72 75.4-117.87 115.36-338.97 9.1-427.16-32.4-26.9-114.73-65.12-227.73-45.12 138-42.5 222.8-6.13 267.73 35.12 111.06 102 66.28 309.3-9.13 427.16z" class="B G"/><path d="M866.818 1832.12c-111.1 102-66.32 309.3 9.1 427.16 107.46 168 353.472 273.75 479.462 184.37 131.58-93.35 114.4-386.92-39.2-539.32-114.68-113.78-334.452-177.7-449.352-72.2z" class="C D E J"/><path d="M996.518 1952.22c-66 68.2-30.1 196.68 21.652 267.88 73.75 101.45 232.17 158.7 307.94 97.86 79.14-63.53 57.4-247.22-44.75-337.18-76.26-67.16-216.64-99.08-284.842-28.56z" fill="#ffc9a1"/><path d="M875.908 2259.28C936.598 2354.13 1071 2462.5 1222.5 2476c-106.36-25-260.02-133.85-306.642-206.72-75.4-117.87-115.36-338.97-9.1-427.16 32.41-26.9 114.732-65.12 227.732-45.12-138.002-42.5-222.792-6.13-267.732 35.12-111.06 102-66.28 309.3 9.13 427.16z" class="B G"/><path d="M2000 2548c154 0 220 135 260 246s58 220 58 292c0 152-138.68 305.46-318 307-175.53 1.5-318-155-318-307 0-72 17.7-181.5 58-292 40-111 106-246 260-246z" class="C D E K"/><path d="M2000 3393c-175.67 1.6-330-157-318-337 10 148 145.15 288.48 318 287s308-139 318-287c12 180-142.33 335.4-318 337z" class="B L"/><path d="M2000 2672c104 0 160 68 174 128 34.5 147.82 64 274 4 350s-134.95 82-178 82c-47.55 0-118-6-178-82s-32.44-193.83 4-350c14-60 70-128 174-128z" class="C D E J"/><path d="M2000 3232c-136 0-224-94-213-216 4 115 96 190 213 190s209-75 213-190c11 122-77 216-213 216z" class="B G"/><g class="C E"><path d="M2329 2962.5c31-9 83.5-52.5 104-82.5 12 13 20.5 35 25.5 53-23.5 21.5-80 56.5-118.5 66-4.5-16.5-7.5-25.5-11-36.5zm-657.5 0c-31-9-83.5-52.5-104-82.5-14.5 22-19.5 37.5-25.5 53 23.5 21.5 80 56.5 118.5 66 4.5-16.5 7.5-25.5 11-36.5z" class="H M"/><path d="M1927 2969c19.5 10 129.26 10.8 146 0 13-8.38 37.7-44.83 56.24-78.74 97.33-11.7 189.86-35.78 269.35-67.13 7.12 10.87 26.9 37.87 39.9 57.37-11 19-74.5 83-111.35 93.26C2316 2942 2309.5 2925 2298 2909c24 77 36.62 218.84-10 303-60.8 109.77-179 181-288 181s-227.2-69.23-288-179c-36.16-65.28-45-184.5-10-305-10 12-22 37-30.15 64.76-40.35-28.76-89.35-64.76-111.5-91.26 13.64-24.5 33.64-52.5 43.86-63.5 90.75 35.32 175.9 59.46 266.88 71.1 18.4 34.55 42.74 72.14 55.9 78.9z" class="M N"/><path fill-rule="evenodd" d="M2172 2829c-33-33-306.5-37.5-344 0 0 55.3-2.03 120.47 30.5 153 60 60 108.5 101 141.5 101s93-41 141-95.5c30.23-34.32 31-98.34 31-158.5zm-245 140c19.5 10 129.26 10.8 146 0 22.5-14.5 80-113 80-137s-306-19.5-306 0 57.03 125.22 80 137z" class="H"/></g><path d="M2000 3393c-175.67 1.6-334-158.5-319-337 10 148 146.15 288.48 319 287s309-139 319-287c14 179-143.33 335.4-319 337zm-328-420.5c-40-24-89.5-65.5-111-89.5 2-5 6.5-12.5 8-15 20.5 22.5 65 59 99 81.5 5.96-12.9 14-29.5 34-42.5-4.86 7.78-24 41.5-30 65.5zm766-92c-9 14.5-62.5 75.5-111.5 93-6.5-22-23.14-58.72-28-66.5 17.36 11.3 20.62 29.34 28.96 47.4 35.04-13.9 87.04-68.9 100.04-90.4 3.5 5 7.5 11 10.5 16.5z" class="B F"/><g stroke="#000" class="C D H"><path d="M2305 3134.1c-198.22 76.05-416.58 76.05-614.8 0-7.55-2.88-12.7-11.1-14.3-22.66-1.4-10.05-.56-15.24 7.2-12.16 203.62 80.8 427.4 80.8 631.02 0 7.75-3.08 11.83 2.36 9.2 12.16-2.6 9.62-10.76 19.77-18.3 22.66z"/><path d="M2301.4 3164.8c-193.1 71.72-410.5 73.72-603.6 2-7.36-2.72-15.25-12.26-17.7-21.3-2.5-9.2 1.54-14.3 9.1-11.4 198.22 76.05 422.58 74.05 620.8-2 7.55-2.9 11.58 2.2 9.1 11.4-2.45 9.05-10.34 18.6-17.7 21.3z"/><path d="M2294.32 3195.34c-188.23 67.78-400.2 69.78-588.42 2-7.17-2.57-14.82-11.57-17.14-20.1-2.36-8.65 1.63-13.44 9-10.7 193.12 71.75 411.6 69.75 604.72-2 7.36-2.74 11.35 2.05 9 10.7-2.33 8.52-9.97 17.52-17.14 20.1z"/></g><path d="M2285.6 3222.37c-183.55 64.12-388.4 68.12-571.97 4-7-2.43-14.4-10.92-16.6-18.95-2.23-8.16 1.7-12.67 8.88-10.08 188.22 67.78 399.2 63.78 587.42-4 7.17-2.6 11.1 1.92 8.88 10.08-2.2 8.02-9.6 16.52-16.6 18.95z" stroke="#000" stroke-width="4.013" class="D H"/><path d="M2308.63 3133.57C2194 3197.65 2019 3240.5 1822.5 3256c-37.15-7.68-73.2-17.58-109-30.1-7-2.44-15.4-10.94-17.6-18.97-1.47-5.37-.3-13.35 7.47-11.93 197.35 35.8 425.25-24.1 610.76-97.72 10.9-4.33 12.35 7.9 10.48 14.82-2.3 8.5-9.03 17.6-15.97 21.47z" stroke="#000" class="C D H"/><path d="M2395 2818c-115.35 45.22-271 79-395 79s-260.34-26.43-396-79c-7.24 10.54-17.6 26.27-24 37 142 57 277 86 420 86s279-29 421-86c-6.15-10.7-18.93-26.36-26-37z" class="B F"/><path d="M2267.76 936.82C2665.92 1066 2967.42 1339.94 2966 1847c-1.1 388.75-350.07 990.8-966.43 996.18-594.62 5.2-966.64-596.22-965.57-996.18 1.32-488.44 432.13-990.94 966-1028.5 190.17-13.365 239 73.5 267.76 118.32z" class="I"/><path d="M1725 1203.5c-297 0-665 628.5-363.5 918.5-575.498 180 0 779 638.5 779s1214-599 638.5-779c301.5-290-66.5-918.5-363.5-918.5h-550z" fill="#ffcd98" class="C E"/><path d="M1250.38 1807.4c-7.12 117.45 24 230 111.45 314.1-10.43 3.26-20.48 7.66-30.15 11.2 22.32-7.2 43.66-12.28 68.32-16.7-84.54-81.32-133.46-191.76-149.62-308.6zm-101.78 459.27c-135.92 245.26 334.32 633.83 851.4 633.83 517.1 0 993.17-392.85 849.76-637.86C2945.1 2486.75 2490.72 2863 2000 2863c-487.8 0-939.68-371.78-851.4-596.33zM2670.5 2133c-21.76-6.4-44.6-12.37-70.5-17 85.33-82.07 134.37-193.8 150.07-311.86 7.9 118.62-23 232.5-111.24 317.36 11.32 3.54 21.24 7.64 31.67 11.5z" class="B G"/><path d="M1759.66 1403.06c154.9 18 266.48 208.75 250 376.77-16.38 167.34-162.7 342-329.88 323-151.8-17.3-250.26-186.22-253.5-328.16-4.3-190.16 160.84-391.67 333.38-371.6z" fill="#fff"/><path d="M1947.73 1825.22c22.1-113.95-39.5-221.76-137.6-240.8s-195.55 57.9-217.66 171.87c-22.1 113.95 39.5 221.76 137.6 240.8 98.1 19.04 195.55-57.9 217.66-171.87z" fill="#4f4f4f" class="C D E"/><path d="M1781.2 1941.56c58.5 0 105.94-53.04 105.94-118.46s-47.43-118.46-105.94-118.46-105.94 53.04-105.94 118.46 47.43 118.46 105.94 118.46z" class="B"/><path d="M1874.9 1740.3c7.45-21.05-4.42-44.45-26.5-52.27-22.1-7.82-46.03 2.9-53.48 23.96s4.4 44.45 26.5 52.27c22.08 7.8 46.03-2.9 53.48-23.96z" fill="#fff" class="C D E"/><g class="B"><path d="M1835.9 1427c-204.38-55.9-374.48 186.25-370.3 368 2.47 107.25 59.36 229.8 152.7 291.65-116.4-48.78-189.2-190.33-192-312-4.33-190.1 160.82-391.6 333.36-371.55 26.68 3.2 52.53 11.3 76.25 23.9z" fill-opacity=".05"/><path d="M1863.62 1605.54c-112.85-32.07-212.74 65.3-233.15 170.44-16.75 86.35 14.07 169.22 72.35 213.35-81.88-32-130.23-129.93-110.25-232.9 22.12-114 119.58-190.9 217.68-171.85 18.92 3.67 37 10.77 53.37 20.95z" class="F"/></g><path d="M2234 1398.9c-154.54 20.68-262.8 213.36-243.4 381.08 19.3 167 168.63 339.1 335.47 317.13 151.47-19.94 247-190.55 247.73-332.52.98-190.16-167.66-388.73-339.8-365.7z" fill="#fff"/><path d="M2273.74 1992.7c97.75-20.74 157.46-129.6 133.37-243.16-24.1-113.55-122.87-188.8-220.63-168.05-97.75 20.75-157.47 129.6-133.37 243.16 24.1 113.56 122.87 188.8 220.63 168.05z" fill="#4f4f4f" class="C D E"/><path d="M2221.84 1937.7c58.5-1.02 105-54.87 103.85-120.3-1.14-65.4-49.5-117.6-108-116.6s-105 54.88-103.86 120.3c1.15 65.42 49.5 117.62 108 116.6z" class="B"/><path d="M2288.34 1764.4c21.94-8.2 33.4-31.8 25.58-52.72-7.82-20.92-31.94-31.23-53.9-23.03-21.94 8.2-33.4 31.8-25.58 52.73 7.8 20.9 31.94 31.22 53.9 23.02z" fill="#fff" class="C D E"/><g class="B"><path d="M2573.77 1764.6c-.66 123.27-72.75 268.13-190.88 317.2 95.3-61.62 152.08-188.08 152.66-297.55.96-183.58-181.1-431.24-385.95-355.18 26-15.6 54.3-26.14 84.37-30.17 172.17-23.04 340.8 175.53 339.8 365.7z" fill-opacity=".05"/><path d="M2295.1 1986.4c60.86-43.65 92.6-129.07 73.87-217.3-22.4-105.54-126.5-201.4-238.74-163.7 17.03-11.63 36.17-19.82 56.34-24.1 97.76-20.75 196.54 54.48 220.65 168 22.3 105.1-27.16 206.17-112.12 237.1z" class="F"/></g><path d="M2077.04 1501.93l465.64-152.56c3.46-1.13 6.66-2.94 9.43-5.3 2.76-2.37 5.03-5.26 6.67-8.5 1.65-3.25 2.64-6.78 2.9-10.4a27.547 27.547 0 0 0-1.3-10.74l-16.54-50.5c-1.2-3.7-3.2-7.1-5.8-9.98-2.6-2.9-5.8-5.2-9.37-6.76a27.649 27.649 0 0 0-11.3-2.35c-3.9.02-7.74.86-11.3 2.46L2057 1450.33c-6.22 2.82-11.2 7.83-13.94 14.1-2.76 6.25-3.1 13.3-.98 19.8 1.14 3.46 2.94 6.66 5.3 9.42s5.26 5.03 8.5 6.67c3.25 1.65 6.8 2.64 10.42 2.9 3.63.28 7.27-.16 10.73-1.3z" class="I"/><path d="M2058.36 1498.7c-4.48-1.94-8.3-5.15-11-9.22s-4.14-8.84-4.17-13.72a25.19 25.19 0 0 1 3.97-13.78c2.64-4.1 6.4-7.37 10.85-9.38l449.1-203.05c3.05-1.38 6.33-2.14 9.68-2.24a25.328 25.328 0 0 1 9.78 1.68c3.12 1.2 5.97 3 8.4 5.33 2.4 2.3 4.34 5.08 5.67 8.15-5.33-.56-10.7.3-15.58 2.52l-449.1 203.05c-5.8 2.6-10.6 6.98-13.76 12.48a30.076 30.076 0 0 0-3.84 18.18z" fill="#333"/><path d="M1922.96 1501.93l-465.64-152.56c-3.46-1.13-6.66-2.94-9.42-5.3-2.77-2.37-5.03-5.26-6.68-8.5-1.64-3.25-2.63-6.78-2.9-10.4a27.547 27.547 0 0 1 1.3-10.74l16.54-50.5c1.2-3.7 3.2-7.1 5.8-9.98a27.764 27.764 0 0 1 9.37-6.76c3.56-1.57 7.4-2.37 11.3-2.35 3.9.02 7.73.86 11.28 2.46l449.1 203.05c6.23 2.82 11.2 7.83 13.95 14.1a27.724 27.724 0 0 1 .97 19.8c-1.13 3.46-2.94 6.66-5.3 9.42s-5.26 5.03-8.5 6.67c-3.24 1.65-6.78 2.64-10.4 2.9-3.63.28-7.28-.16-10.74-1.3z" class="I"/><path d="M1941.65 1498.7c4.47-1.94 8.3-5.15 10.98-9.22s4.14-8.84 4.18-13.72c.03-4.88-1.35-9.67-3.98-13.78s-6.4-7.37-10.85-9.38l-449.1-203.05c-3.04-1.38-6.33-2.14-9.67-2.24s-6.67.48-9.8 1.68-5.97 3-8.38 5.33a25.175 25.175 0 0 0-5.67 8.15c5.32-.56 10.7.3 15.57 2.52l449.1 203.05a30.194 30.194 0 0 1 13.77 12.48c3.16 5.5 4.5 11.87 3.84 18.18zM528.5 1855c139.5-145 349.5-285.5 545.35-364.65-9.85 45.15-13.35 75.65-18.35 118.15-180.95 52.18-375.886 132.36-527 246.5zm1086.84-901.353C1369 773.5 869.5 830 586 918.5c269.056-255.34 794-290 1117-111-24 51.5-58.5 108.5-87.66 146.147zm1195.1 355.273C2732.72 1179.95 2541 1027 2352 1007.5c-15.5-540.5-361.34-700.046-778.77-744.605C2197.5 227.5 2455.5 461.5 2467.3 948.462 2622.94 993.385 2785 1111.5 2854 1247.5c29.33-2.9 69.28-7.64 98.5-11.5-46.38 25.5-95.38 47.97-142.07 72.92z" fill="#333"/><path d="M2832.66 1545.72c-49.77 61.82-150.15 126.95-313.77 137.22 37.44-45.76 100.4-122.84 94.13-161.05-50.6 69.57-235.2 164.44-276.46 159.57 57.3-105.24 154.9-297.22 124.7-354.12-30.5 56.2-118.27 152.83-263.62 196.9 59.4-147.72 21.33-317.6 20.17-316.2-34.05 40.5-251.14 321.42-271.98 336.43-3.62 2.6 226.04-339.6 224.8-339.14-258.1 92.43-425.34 331.04-485.93 416.44-75.33-110.8-89.9-236.13-86.7-298.75-62.63 19.27-178.7 117.75-162.78 408.98-35.33-20.88-91.53-73.87-136.48-126.85-1.6 35.32 24.6 193 46.36 262.5-132.42-80.75-194.64-290.8-222.06-319.03 0 0 59.04-589.16 831.9-580.21s927.5 515.5 877.72 577.32z" class="I"/><path d="M1423.12 1699.3c-77.2-206.25-6.53-465.77 201.4-570.76-22.02 53.95-28.6 122.6-30.02 182.95-140.5 49-174.3 249.53-171.38 387.8zm267.48-99.08c36.6-206.36 153.36-344.46 318.4-467.46 56 3.74 125 33.24 163 59.74-181 55.5-380 242-481.4 407.72zm528.18-87.92c75.32-67.88 155.8-160.94 136.82-270.22 29 6.2 62.04 35.2 97.74 84.62-49.57 87.88-138.84 146.8-234.56 185.6zm127.72 164.2c64.5-49.24 216.5-186.56 235.93-263.7 38.74 14.42 52.12 36.5 62.58 56.84-56.77 98.13-187.5 170.36-298.5 206.86zm1132.02-118.17l-605.86-30.26c11.5-28.6 26.1-55.84 38.1-84.2 79.05 19.12 404.82 83.1 567.77 114.47z" fill="#333"/><path d="M1785 2099c0 76.35 98.85 169 216.26 168 108.22-.95 213.74-92.55 213.74-167.78 0-152.13-430-154.42-430-.22z" class="B G"/><path d="M1782 2081c0 76.35 100.23 169 219.27 168 109.73-.95 216.73-92.55 216.73-167.78 0-60.53-126.24-113.77-216.73-113-84.02.78-219.27 41.16-219.27 112.78z" fill="#7f6145"/><path d="M1783.58 2067.77c41.76 54.75 124.68 100.94 217.85 100.22 86.2-.68 170.92-47.12 214.1-101.55 1.62 4.86 2.48 9.8 2.48 14.78 0 75.23-107 166.83-216.73 167.78-119.04 1-219.27-91.65-219.27-168 0-4.54.54-8.95 1.58-13.23z" class="B O"/><g class="C D E"><path d="M1910 3556c32 0 63.1-23.6 66.7-56.14 9.1-82.2-94.35-89.68-150.66-90.92-57.1-1.25-154.04 9.56-171.03 72.27-14.84 54.8 36.5 74.8 73 74.8s49-12.15 93-12.15c38.4 0 57 12.15 89 12.15z" class="H"/><path d="M1971.58 3517.9c-13.7 9.5-31.1 15.1-48.78 15.1-17.3 0-31.13-2.76-45.6-5.65-15.85-3.17-32.47-6.5-55.22-6.5-26.07 0-42.38 3.33-57.92 6.5-14.16 2.88-27.7 5.64-47.4 5.64-19.88 0-43.65-4.62-61.1-15.5 10.6 27.64 45.55 38.5 72.44 38.5 17.4 0 29.35-2.76 41.85-5.65 13.73-3.17 28.12-6.5 51.14-6.5 20.08 0 34.75 3.32 48.75 6.5 12.77 2.9 25 5.66 40.26 5.66 25.7 0 50.84-15.23 61.6-38.1zm-314.53-43.03c43.03-31.55 122.8-37.74 174.66-36.78 40.2.75 100.75 3.78 139.9 24.27-21.5-47.2-99.4-52.4-145.6-53.42-55.13-1.2-147.37 8.83-168.98 65.93z" fill="#fdce35" class="M"/></g><path d="M1909 3534c-32 0-50.6-12.15-89-12.15-44 0-56.5 12.15-93 12.15-28.38 0-65.75-12.1-73.97-43.26-6.72 47.6 40.68 65.26 74.97 65.26 36.5 0 49-12.15 93-12.15 38.4 0 57 12.15 89 12.15 42.87 0 73-34.15 65.9-80.26-2.96 33.46-34.03 58.26-66.9 58.26z" class="B O"/><g class="C D E"><path d="M2090 3556c-32 0-63.1-23.6-66.7-56.14-9.12-82.2 94.34-89.68 150.66-90.92 57.1-1.25 154.03 9.56 171.02 72.27 14.85 54.8-36.5 74.8-73 74.8s-49-12.15-92.98-12.15c-38.4 0-57.02 12.15-89.02 12.15z" class="H"/><path d="M2028.4 3517.9c13.7 9.5 31.1 15.1 48.78 15.1 17.3 0 31.14-2.76 45.6-5.65 15.86-3.17 32.47-6.5 55.22-6.5 26.07 0 42.38 3.33 57.93 6.5 14.16 2.88 27.7 5.64 47.4 5.64 19.88 0 43.64-4.62 61.1-15.5-10.6 27.64-45.54 38.5-72.44 38.5-17.4 0-29.34-2.76-41.85-5.65-13.72-3.17-28.12-6.5-51.13-6.5-20.08 0-34.75 3.32-48.75 6.5-12.78 2.9-25 5.66-40.27 5.66-25.7 0-50.83-15.23-61.6-38.1zm314.54-43.03c-43.03-31.55-122.78-37.74-174.65-36.78-40.2.75-100.75 3.78-139.9 24.27 21.5-47.2 99.4-52.4 145.6-53.42 55.12-1.2 147.36 8.83 168.97 65.93z" fill="#fdce35" class="M"/></g><path d="M2091 3534c32 0 50.6-12.15 89.02-12.15 43.98 0 56.48 12.15 92.98 12.15 28.4 0 65.75-12.1 73.97-43.26 6.73 47.6-40.67 65.26-74.97 65.26-36.5 0-49-12.15-92.98-12.15-38.4 0-57.02 12.15-89.02 12.15-42.86 0-73-34.15-65.9-80.26 2.97 33.46 34.04 58.26 66.9 58.26z" class="B O"/><path d="M1601.4 3259.9c56.8.05 92.98-68.1 58.6-115.27 15.9-45.2-18.1-95.4-66.66-96.55-56-1.34-88.37 58.5-82.5 109.13 5.48 47.3 37.52 102.65 90.57 102.7z" class="C D E J"/><path d="M1510.83 3157.2c6.78 58.57 54.37 126.8 125.37 93.8-68.83-8.8-117-125.5-83.1-191.84-5.4 3.84-13.9 8.34-27.6 27.6-12.3 21.73-17.7 46.2-14.66 70.43z" class="B G"/><path d="M2398.6 3259.9c-56.82.05-93-68.1-58.6-115.27-15.92-45.2 18.08-95.4 66.66-96.55 56-1.34 88.36 58.5 82.5 109.13-5.48 47.3-37.53 102.65-90.57 102.7z" class="C D E J"/><path d="M2489.17 3157.2c-6.78 58.57-54.37 126.8-125.37 93.8 68.82-8.8 117-125.5 83.1-191.84 5.4 3.84 13.9 8.34 27.6 27.6 12.3 21.73 17.7 46.2 14.66 70.43z" class="B G"/><path d="M1636.73 2665.36c-70.6 7.3-136.73-48.03-136.73-119.03 0-112.45 81.7-211.66 194.07-216.06 230.3-9.03 381.3-9.03 611.85 0 112.4 4.4 194.08 103.62 194.08 216.06 0 71-64.84 122.57-135.73 119.03-118.1-5.88-565.45-16.74-727.54 0z" fill="#3d0c0c"/><path d="M1631 2645c-61.84 6.38-111-42.9-111-105 0-98.37 78.6-184.34 177-189 201.7-9.65 404.06-9.65 606 0 98.4 4.66 177 90.64 177 189 0 62.1-48.94 108.6-111 105-103.45-6.02-596.02-14.65-738 0z" fill="#fff"/><path d="M2486.58 2508.06c-326.7-25.3-647.86-25.25-974.54.18v-17.03c326.68-25.43 647.85-25.5 974.54-.18v17.03z" fill="#3d0c0c"/><path d="M1700.92 2330l-6.85.27c-112.38 4.4-194.07 103.6-194.07 216.06 0 71 66.12 126.33 136.73 119.03 162.1-16.74 609.44-5.88 727.54 0 70.9 3.54 135.73-48.03 135.73-119.03 0-112.44-81.7-211.66-194.08-216.06l-18.62-.72c104.37 64.34 198.37 296.35 26.48 288.2-218.97-10.4-407.85-9.7-627.26 1.48-126.57 6.44-78.2-231.37 14.4-289.24z" class="B F"/></svg>