<svg xmlns="http://www.w3.org/2000/svg" xmlns:xlink="http://www.w3.org/1999/xlink" width="4000" height="4000" fill="none" xmlns:v="https://vecta.io/nano"><style><![CDATA[.B{stroke:#333}.C{fill:#000}.D{stroke-width:5}.E{stroke-miterlimit:10}.F{fill-opacity:.15}.G{stroke-width:2}.H{fill-opacity:.2}.I{fill:#c5d56e}.J{fill:#231f20}.K{fill:#f6c358}.L{fill:#fcd462}.M{fill:#95bf4c}.N{opacity:.15}.O{stroke-linejoin:round}.P{stroke-linecap:round}.Q{fill-opacity:.1}.R{fill:#f48020}.S{stroke:#c95c1b}]]></style><path d="M2275.1 3290.64c-50.77-7.42-115.16-32.27-196.86-76-11.87-6.35-16.67-21.85-10.25-33.84 6.35-11.87 21.85-16.66 33.84-10.25 75.45 40.37 136.18 64.12 180.5 70.6 28.93 4.23 49.75 1 61.88-9.64 13.6-11.92 12.4-33 8.83-72.4-4.17-46.12-9.36-103.53 19.78-169.5 44-99.72 153.63-194.53 269.1-176.7 73.33 11.36 143.6 66.2 159.73 140.6 13.73 63.36-6.02 150.17-73.53 174.43-44.77 16-95.93-2.36-130.84-32.08-10.44-8.68-11.95-25-3.06-35.44 8.8-10.34 25.15-11.64 35.48-2.62.43.36 43.66 36.65 81.5 23.06 42.84-15.38 49.77-78.95 41.56-116.78-11.75-54.23-65.6-93.57-118.5-101.77-92.84-14.33-180.8 68.5-215.72 147.5-23.9 54.16-19.56 102.32-15.72 144.8 4 43.84 7.7 85.25-25.67 114.5-27.66 24.4-67.07 26.8-102.02 21.54z" class="B D E I"/><path d="M2786.65 2965.53c11.06 51.02 1.18 114.55-37.82 152.08 51.4-33.7 65.07-107.56 52.82-164.08-16.13-74.4-86.4-129.24-159.73-140.6-66.26-10.23-131.78 18.56-181.54 60.82 114.12-80.75 293.3-60.36 326.27 91.78zm-69.03 112.53c-27.03 31.45-75.6 15.26-102.9-8.23-3.14-2.68-6.9-4.54-10.94-5.4a25.037 25.037 0 0 0-12.19.41c3.97-7.3 11.63-12.23 19.93-12.9 6.6-.53 13.15 1.6 18.2 5.9 22.07 19.5 59.84 35.17 87.9 20.24zm-644.12 95.44c3.5-3 15.5-9 23-5.5 6.98 3.26 15.34 7.4 24.73 12.03 49.42 24.4 127.47 62.97 183.77 62.97 50 0 54.5-25 47.5-91 .85 3.82 1.92 8.03 3.06 12.5 9.62 37.75 24.1 94.5-50.56 94.5-81.5 0-208.8-70.57-231.5-85.5z" class="C F"/><path d="M1959.37 3446.5c5-87.08 27.4-154.43 47.17-206.8s42.42-144.7-42.56-166.02c-121.5-30.5-188.3 254.12-193.3 340.94-2.93 51.08 36.82 110.33 88.4 113.3 47.48 2.3 97.45-31.8 100.3-81.4z" fill="#a67d59" class="B D E"/><path d="M1769.48 3414.5c51.5-7 148-7 188.5 34l1.66-15.04c-42.16-36.96-138.16-39.46-188.02-32.46-.26 3.3-1.86 10.13-2.14 13.5zm16-89.5c47.76 44.3 108.88 69.13 178 78.5.58-5 1.8-12.18 2.5-17-68.6-8.88-128.2-37.6-176-81-2 6-3.62 15.27-4.5 19.5z" class="C F"/><path d="M2040.63 3446.5c-5-87.08-27.4-154.43-47.17-206.8s-42.42-144.7 42.56-166.02c121.5-30.5 188.3 254.12 193.3 340.94 2.93 51.08-36.82 110.33-88.4 113.3-47.48 2.3-97.45-31.8-100.3-81.4z" fill="#a67d59" class="B D E"/><path d="M2230.52 3414.5c-51.5-7-148-7-188.5 34l-1.66-15.04c42.16-36.96 138.16-39.46 188.02-32.46.26 3.3 1.86 10.13 2.14 13.5zm-16-89.5c-47.76 44.3-108.88 69.13-178 78.5-.58-5-1.8-12.18-2.5-17 68.6-8.88 128.2-37.6 176-81 2 6 3.62 15.27 4.5 19.5z" class="C F"/><path d="M3133.2 1832.12c111.1 102 66.32 309.3-9.1 427.16-107.46 168-353.47 273.75-479.46 184.37-131.58-93.35-114.4-386.92 39.2-539.32 114.68-113.78 334.45-177.7 449.35-72.2z" class="B D E I"/><path d="M3003.5 1952.22c66 68.2 30.1 196.68-21.65 267.88-73.75 101.45-232.17 158.7-307.94 97.86-79.14-63.53-57.4-247.22 44.75-337.18 76.26-67.16 216.64-99.08 284.84-28.56z" fill="#dbe092"/><path d="M3124.1 2259.28c-60.7 94.85-195.1 203.22-346.6 216.72 106.36-25 260-133.85 306.64-206.72 75.4-117.87 115.36-338.97 9.1-427.16-32.4-26.9-114.73-65.12-227.73-45.12 138-42.5 222.8-6.13 267.73 35.12 111.06 102 66.28 309.3-9.13 427.16z" class="C F"/><path d="M3000.77 2645.12c-23.93.05-44.7-21.34-63.7-34.15-51.67-35-123.14-24.33-181.97-25.12 27.06-67.68 54.87-135.78 95.03-196.96 48.85.46 103.13 19.2 146.8-11.44 18.04-12.65 41.3-17.76 62.55-10.8 51.46 16.85 41.48 98.14 33.7 143.35-8.57 49.9-28.2 135.12-92.44 135.12z" fill="#ced7e2" class="B D"/><path opacity=".2" d="M2755 2588c58.5-3.62 131.85-11.15 183 23.5 27.9 18.8 45.94 33.33 58 34 81.5 4.5 99.5-128.78 103-184-10.06 44.48-37.78 117.35-93.92 110.8-12-1.4-28.7-14.6-56.6-33.4-43.66-29.58-109.36-24-160.04-25.13L2755 2588z" class="C"/><path d="M866.818 1832.12c-111.1 102-66.32 309.3 9.1 427.16 107.46 168 353.472 273.75 479.462 184.37 131.58-93.35 114.4-386.92-39.2-539.32-114.68-113.78-334.452-177.7-449.352-72.2z" class="B D E I"/><path d="M996.518 1952.22c-66 68.2-30.1 196.68 21.652 267.88 73.75 101.45 232.17 158.7 307.94 97.86 79.14-63.53 57.4-247.22-44.75-337.18-76.26-67.16-216.64-99.08-284.842-28.56z" fill="#dbe092"/><path d="M875.908 2259.28C936.598 2354.13 1071 2462.5 1222.5 2476c-106.36-25-260.02-133.85-306.642-206.72-75.4-117.87-115.36-338.97-9.1-427.16 32.41-26.9 114.732-65.12 227.732-45.12-138.002-42.5-222.792-6.13-267.732 35.12-111.06 102-66.28 309.3 9.13 427.16z" class="C F"/><path d="M999.224 2645.12c23.926.05 44.696-21.34 63.686-34.15 51.67-35 123.15-24.33 181.98-25.12-27.06-67.68-54.87-135.78-95.03-196.96-48.85.46-103.14 19.2-146.8-11.44-18.046-12.65-41.31-17.76-62.553-10.8-51.465 16.85-41.48 98.14-33.712 143.35 8.573 49.9 28.196 135.12 92.44 135.12z" fill="#ced7e2" class="B D"/><path opacity=".2" d="M1245 2588c-58.5-3.62-131.85-11.15-183 23.5-27.9 18.8-45.94 33.33-58 34-81.503 4.5-99.498-128.78-103.003-184 10.056 44.48 37.777 117.35 93.92 110.8 12.002-1.4 28.702-14.6 56.602-33.4 43.66-29.58 109.36-24 160.04-25.13L1245 2588z" class="C"/><path d="M2239.23 2741.1c-41.87-96.8-109.17-193.1-239.23-193.1-130.07 0-197.36 96.3-239.23 193.1-38.4-26.08-110.38 14.65-147.47 66.4-65.7 91.92-97.2 189.1-88.63 283.68 3.2 31.47 25.83 55.82 62.33 55.82s65.66-32.58 62.04-68.42c-5.3-61.96 17.45-128.82 62.5-193.5C1691.23 2962.44 1682 3034 1682 3086c0 152 142.47 308.5 318 307 179.32-1.54 318-155 318-307 0-52.14-9.44-123.7-29.84-201.35 45.24 64.82 68.1 131.84 62.8 193.93-3.62 35.84 25.54 68.42 62.04 68.42s59.14-24.35 62.33-55.82c8.56-94.57-22.92-191.76-88.63-283.68-37.1-51.75-109.07-92.48-147.47-66.4z" fill="#603192" class="B D E O"/><path d="M2000 3393c-175.67 1.6-330-157-318-337 10 148 145.15 288.48 318 287s308-139 318-287c12 180-142.33 335.4-318 337z" class="C H"/><path d="M2000 2672c104 0 160 68 174 128 34.5 147.82 64 274 4 350s-134.95 82-178 82c-47.55 0-118-6-178-82s-32.44-193.83 4-350c14-60 70-128 174-128z" fill="#ffc10e" class="B D E"/><path d="M2446.9 3059.16c.42-112.27-89.6-277.66-195.1-324.16 130-21 245 233.5 222.7 351.77-7.2-11.77-19.7-23.27-27.6-27.6zm-893.8 0c-.42-112.27 89.6-277.66 195.1-324.16-130-21-245 233.5-222.7 351.77 7.2-11.77 19.7-23.27 27.6-27.6z" class="C H"/><path d="M1787.38 3012.76c1.04-20.95 3.73-43.22 7.6-66.8 131.76 23.62 277.87 25.82 410.17 2.6 3.6 22.97 6.1 44.92 6.97 65.7-135.84 23.26-289.2 21.66-424.75-1.5zm28.47 128.86c-14.2-20.88-22.5-44.66-26.35-71.3 133.96 21.5 285.96 22.7 420.07 2.33-3.97 26.23-12.2 49.7-26.12 69.95-116.55 13.42-250.6 13.4-367.6-.98z" fill="#f7941d" class="B D E"/><path d="M2467 2962.82c1.84 5.46 2.46 8.08-.15 11.5-9.26 11.86-25.8 18.8-39.68 23.62-1.9.66-4.08-.44-4.68-2.4-11.7-38.46-25.1-73.9-45.8-108.35-.63-1.04-.24-2.44.82-3 15.66-8.55 31.3-17.17 45.16-28.5 1.33-1.06 1.77.85 2.82 2.48 20.2 31.42 30.6 69.37 41.5 104.64z" fill="#dc9734" stroke="#4f3716" class="D E"/><path d="M2457 2968.5c3 4.5 7.5 10.5 5.5 23M2424 2973c-6.5 4-16 8.5-19.5 17m27.5-5c-6.5 7.5-10 18-10 23.5m-.5-51c-8.5-3-21.5-1-24.5 2.5m14.02-31.5c-5.5.5-18 12.5-19.5 16.5m11-29c-8.5-1.5-18-1.5-24.5 2.5m11.5-30.5c-6.5 4-15 13.5-16.5 19.42m24-28.92c-8-5.5-15.5-10.5-23-11m36.48 3.5c-3.5-9-9-18-14.5-21m50 125c3 4.5 4 15 4 27" stroke="#231f20" stroke-width="6" class="O P"/><path d="M1531.68 2962.82c-1.83 5.46-2.45 8.08.16 11.5 9.25 11.86 25.78 18.8 39.67 23.62 1.9.66 4.1-.44 4.68-2.4 11.7-38.46 25.1-73.9 45.8-108.35.62-1.04.23-2.44-.82-3-15.66-8.55-31.3-17.17-45.16-28.5-1.34-1.06-1.78.85-2.83 2.48-20.2 31.42-30.6 69.37-41.5 104.64z" fill="#dc9734" stroke="#4f3716" class="D E"/><path d="M1541.66 2968.5c-3 4.5-7.5 10.5-5.5 23m38.5-18.5c6.5 4 16 8.5 19.5 17m-27.5-5c6.5 7.5 10 18 10 23.5m.5-51c8.5-3 21.5-1 24.5 2.5m-14-31.5c5.5.5 18 12.5 19.5 16.5m-11-29c8.5-1.5 18-1.5 24.5 2.5m-11.5-30.5c6.5 4 15 13.5 16.5 19.42m-24-28.92c8-5.5 15.5-10.5 23-11m-36.5 3.5c3.5-9 9-18 14.5-21m-50 125c-3 4.5-4 15-4 27" stroke="#231f20" stroke-width="6" class="O P"/><path d="M2827.5 2299.5c-477 193-1235 224-1650.5 17.5-84-109-140-298.5-140-470 0-358 1.18-617.36-73.08-920.958-20.442-83.57-3.2-161.12 51.25-230.493C1232.53 418.616 1665.9 391 2000 391s768.83 16.234 980 268c53.8 64.132 73.93 136.983 59.86 216.53-56.17 317.65-76.85 506.84-76.85 971.47 0 187.37-62.22 311.5-135.5 452.5z" fill="#20243a" class="B D"/><path d="M2395 2818c-115.35 45.2-271 79-395 79s-259.34-26.43-395-79c-7.24 10.54-16.6 26.27-23 37 142 57 275 86 418 86s276-29 418-86c-6.15-10.7-15.93-26.36-23-37z" class="C H"/><path d="M1361.5 2122c-575.5 180 0 779 638.5 779s1214-599 638.5-779c147.5-167 80.73-336.32 57-590-19.55-209 60.5-283 60.5-537 0-233-388.94-356-756-356-408.18 0-756 127-756 356 0 205.5 78.5 328 60.5 537-17.14 199.03-90.5 423 57 590z" class="B D I"/><path d="M1148.6 2266.67c-135.93 245.26 334.32 633.83 851.4 633.83s993.17-392.85 849.75-637.86C2945.1 2486.74 2490.72 2863 2000 2863c-487.8 0-939.7-371.78-851.4-596.33z" class="C F"/><path d="M1759.66 1403.06c154.9 18 266.48 208.75 250 376.77-16.38 167.34-162.7 342-329.88 323-151.8-17.3-250.26-186.22-253.5-328.16-4.3-190.16 160.84-391.67 333.38-371.6z" fill="#fff"/><path d="M1947.73 1825.22c22.1-113.95-39.5-221.76-137.6-240.8-98.1-19.04-195.55 57.9-217.66 171.87-22.1 113.95 39.5 221.76 137.6 240.8 98.1 19.04 195.55-57.9 217.66-171.87z" fill="#dee33c" class="B D E"/><path d="M1781.2 1941.56c58.5 0 105.94-53.04 105.94-118.46s-47.43-118.46-105.94-118.46-105.94 53.04-105.94 118.46 47.43 118.46 105.94 118.46z" class="C"/><path d="M1874.9 1740.3c7.45-21.05-4.4-44.45-26.5-52.27-22.08-7.82-46.02 2.9-53.47 23.96s4.4 44.45 26.5 52.27c22.08 7.8 46.02-2.9 53.47-23.96z" fill="#fff" class="B D E"/><g class="C"><path d="M1835.9 1427c-204.38-55.9-374.48 186.25-370.3 368 2.47 107.25 59.36 229.8 152.7 291.65-116.4-48.78-189.2-190.33-192-312-4.33-190.1 160.82-391.6 333.36-371.55 26.68 3.2 52.53 11.3 76.25 23.9z" fill-opacity=".05"/><path d="M1863.62 1605.54c-112.85-32.07-212.74 65.3-233.15 170.44-16.75 86.35 14.07 169.22 72.35 213.35-81.88-32-130.23-129.93-110.25-232.9 22.12-114 119.58-190.9 217.68-171.85 18.92 3.67 37 10.77 53.37 20.95z" class="F"/></g><path d="M2234 1398.9c-154.54 20.68-262.8 213.36-243.4 381.08 19.3 167 168.63 339.1 335.47 317.13 151.47-19.94 247-190.55 247.73-332.52.98-190.16-167.66-388.73-339.8-365.7z" fill="#fff"/><path d="M2273.74 1992.7c97.75-20.74 157.47-129.6 133.37-243.16-24.1-113.55-122.87-188.8-220.63-168.05-97.75 20.75-157.46 129.6-133.37 243.16 24.1 113.55 122.87 188.8 220.63 168.05z" fill="#dee33c" class="B D E"/><path d="M2221.84 1937.7c58.5-1.02 105-54.87 103.86-120.3-1.15-65.4-49.5-117.6-108-116.6-58.5 1.02-105 54.88-103.86 120.3s49.5 117.62 108 116.6z" class="C"/><path d="M2288.34 1764.4c21.94-8.2 33.4-31.8 25.58-52.72-7.8-20.92-31.94-31.23-53.9-23.03-21.94 8.2-33.4 31.8-25.58 52.73 7.82 20.9 31.94 31.22 53.9 23.02z" fill="#fff" class="B D E"/><g class="C"><path d="M2573.77 1764.6c-.66 123.27-72.75 268.13-190.88 317.2 95.3-61.62 152.08-188.08 152.66-297.55.96-183.58-181.1-431.24-385.95-355.18 26-15.6 54.3-26.14 84.37-30.17 172.17-23.04 340.8 175.53 339.8 365.7z" fill-opacity=".05"/><path d="M2295.1 1986.4c60.86-43.65 92.6-129.07 73.87-217.3-22.4-105.54-126.5-201.4-238.74-163.7 17.03-11.63 36.17-19.82 56.34-24.1 97.76-20.75 196.54 54.48 220.65 168 22.3 105.1-27.16 206.17-112.12 237.1z" class="F"/><path d="M2250.42 2150c73.34 9.23 155.14-5.77 218.6-43.36 53.68-30.68 82.45-89.67 99.37-146.83v-.06c1.72-5.67 10.16-4.6 10.77 1 7.95 73.54-29.56 145.04-93.03 182.07-67.5 39.12-165.82 48.54-237.5 12.88-3.72-2-.44-5.98 1.77-5.7zm-500.84 0c-73.35 9.23-155.14-5.77-218.6-43.36-53.7-30.68-82.45-89.67-99.37-146.83v-.06c-1.72-5.67-10.16-4.6-10.77 1-7.96 73.54 29.56 145.04 93.03 182.07 67.5 39.12 165.8 48.54 237.5 12.88 3.72-2 .43-5.98-1.77-5.7z" class="Q"/><path d="M2706.5 1624c-14.25-119.5-1394.67-132.5-1413 0-52.76 381.4 215.5 168 706.5 168s754.9 238 706.5-168z" fill-opacity=".25"/></g><path d="M2695.5 1532c-24.85-208.44 60.5-283 60.5-537 0-233-388.94-356-756-356-408.18 0-756 127-756 356 0 205.5 84.4 329.3 60.5 537-44 382.5 204.5 168 695.5 168s743.9 238 695.5-168z" class="B D I"/><path d="M2585 1213c7-2.5 24-11.5 31.5-17.5-23.18 107-57.02 195.17-41 329.5 10.63 89.14 47 235-91.5 235 215.5 42 228-51.5 211.5-228-10.27-109.88 4.33-182.16 23.77-263.27 11.88-49.6 22.85-102.56 31.45-168.73C2836.5 439.5 782 543.5 1410.28 1183.53c1.98-69.1 2.4-156.4 40.08-216.78 49.25 75.41 106.02 158.1 179.06 212.09-1.06-88.48 4.37-187.172 46.08-266.738 52.46 74.856 103.45 151.878 161 222.938 56.26-77.92 92.92-177.402 103.67-272.527 41.63 61.24 87.43 123.107 119.2 190.157l.1-.27c18.8-50.5 39.3-105.565 74.54-147.07 24 83.895 53.68 174.37 104.6 245.96 23.34-78.88 67.45-191.675 139.1-241.112 52.4 81.1 75.47 178.132 58.5 273.802 77.22-61.1 163.74-185.552 174.5-286.445 62.98 85.518 5.8 227.965-25.7 315.465z" class="C F"/><path d="M2553.5 1195c32-105 84.14-218.767 12.2-316.465-10.77 100.893-97.28 225.335-174.5 286.445 16.98-95.67-6.1-192.692-58.5-273.802-71.64 49.438-115.75 162.232-139.1 241.112-50.9-71.6-80.6-162.064-104.6-245.958-35.3 41.577-55.8 96.77-74.64 147.338-31.76-67.05-77.56-128.916-119.2-190.157-10.75 95.125-47.4 194.607-103.67 272.527-57.56-71.06-108.55-148.082-161-222.937-41.7 79.565-47.14 178.257-46.08 266.737-73.04-54-129.8-136.68-179.06-212.1-37.7 60.4-38.1 147.67-40.08 216.78C364.977 227.618 3821.5 379 2553.5 1195z" fill="#20243a"/><path d="M1244.5 1027.74c29.17 42.72 69 88.3 120.78 136.8 1.98-69.1 2.4-156.4 40.08-216.78 49.25 75.41 106.02 158.1 179.06 212.09-1.06-88.48 4.37-187.172 46.08-266.738 52.46 74.856 103.45 151.878 161 222.938 56.26-77.92 92.92-177.402 103.67-272.527 41.63 61.24 87.43 123.108 119.2 190.157 18.83-50.568 39.35-105.76 74.64-147.34 24 83.895 53.68 174.37 104.6 245.96 23.34-78.88 67.45-191.674 139.1-241.112 52.4 81.1 75.47 178.132 58.5 273.802 77.22-61.1 163.74-185.552 174.5-286.445 71.95 97.698 19.8 211.465-12.2 316.465 89.97-57.9 156.15-112.45 201.83-163.5" class="B D O P"/><path d="M1448.72 1570.17c177.14-159.88 455.07-347.54 705.9-320.53 2.94.34 2.76 4.7-.02 5h-.02c-257.5 27.27-482.2 198.77-702.94 319.6l-.02.01c-2.58 1.43-4.97-2.2-2.9-4.07h0z" fill="#b0101b"/><g class="C H"><use xlink:href="#B"/><use xlink:href="#C"/><use xlink:href="#D"/><path d="M1788.57 1449.6c-34.16-42.9-67.12-108.8-55.47-165.4.3-1.38 2.3-1.4 2.67-.1 16.54 54.67 44.94 107.97 56.1 163.95l.01.01c.36 1.82-2.1 3.07-3.32 1.56h0zm-178.87-85.43c-6.46 57.43 32.37 120.06 70.3 159.67v.01c1.35 1.38 3.68-.08 3.15-1.86v-.01c-16.23-54.72-49.37-105.22-70.8-158.15-.5-1.25-2.48-1.05-2.65.34zm-77.72 62.4c-6.46 57.42 32.37 120.06 70.3 159.67h0c1.35 1.4 3.68-.07 3.15-1.85h0c-16.23-54.73-49.37-105.23-70.82-158.16-.5-1.24-2.47-1.04-2.64.35z"/></g><g fill="#333"><use xlink:href="#B" x="-9"/><use xlink:href="#C" x="-9"/><use xlink:href="#D" x="-9"/><path d="M1779.57 1449.6c-34.16-42.9-67.12-108.8-55.46-165.4.3-1.38 2.28-1.4 2.66-.1 16.54 54.67 44.94 107.97 56.1 163.95l.01.01c.36 1.82-2.1 3.06-3.3 1.56h-.01zm-178.87-85.43c-6.45 57.43 32.38 120.06 70.3 159.67v.01c1.35 1.38 3.68-.08 3.15-1.86v-.01c-16.23-54.73-49.37-105.22-70.8-158.16-.5-1.24-2.48-1.04-2.65.35zm-77.72 62.4c-6.46 57.42 32.38 120.06 70.3 159.67h0c1.35 1.4 3.68-.07 3.15-1.85h0c-16.23-54.73-49.37-105.23-70.8-158.16-.5-1.24-2.48-1.04-2.65.35z"/></g><path d="M1785 2099c0 76.35 98.85 169 216.26 168 108.22-.95 213.74-92.55 213.74-167.78 0-152.13-430-154.42-430-.22z" class="C Q"/><path d="M1782 2081c0 76.35 100.23 169 219.27 168 109.73-.95 216.73-92.55 216.73-167.78 0-60.53-126.24-113.77-216.73-113-84.02.78-219.27 41.16-219.27 112.78z" fill="#7f6145"/><path d="M1783.58 2067.77c41.76 54.75 124.68 100.94 217.85 100.22 86.2-.68 170.92-47.12 214.1-101.55 1.62 4.86 2.48 9.8 2.48 14.78 0 75.23-107 166.83-216.73 167.78-119.04 1-219.27-91.65-219.27-168 0-4.54.54-8.95 1.58-13.23z" class="C H"/><path d="M1910 3556c32 0 63.1-23.6 66.7-56.14 9.1-82.2-94.35-89.68-150.67-90.92-57.1-1.25-154.03 9.56-171.02 72.27-14.85 54.8 36.5 74.8 73 74.8s49-12.15 92.98-12.15c38.4 0 57.02 12.15 89.02 12.15z" fill="#46546e" class="B D E"/><path d="M1909 3534c-32 0-50.6-12.15-89.02-12.15-43.98 0-56.48 12.15-92.98 12.15-28.4 0-65.75-12.1-73.97-43.26-6.73 47.6 40.67 65.26 74.97 65.26 36.5 0 49-12.15 92.98-12.15 38.4 0 57.02 12.15 89.02 12.15 42.86 0 73-34.15 65.9-80.26-2.97 33.46-34.04 58.26-66.9 58.26z" fill-opacity=".3" class="C"/><path d="M2090 3556c-32 0-63.1-23.6-66.7-56.14-9.1-82.2 94.35-89.68 150.67-90.92 57.1-1.25 154.03 9.56 171.02 72.27 14.85 54.8-36.5 74.8-73 74.8s-49-12.15-92.98-12.15c-38.42 0-57.02 12.15-89.02 12.15z" fill="#46546e" class="B D E"/><path d="M2091 3534c32 0 50.6-12.15 89.02-12.15 43.98 0 56.48 12.15 92.98 12.15 28.4 0 65.75-12.1 73.97-43.26 6.73 47.6-40.67 65.26-74.97 65.26-36.5 0-49-12.15-92.98-12.15-38.4 0-57.02 12.15-89.02 12.15-42.86 0-73-34.15-65.9-80.26 2.97 33.46 34.04 58.26 66.9 58.26z" fill-opacity=".3" class="C"/><path d="M1600.4 3467.1c-11.02-.37-13.08-14.8-5.96-21.43 23.8-21.94 107.58-108.26 49.05-187.9l16.9-14.95c117.9 27.12 45.02 229.8-59.98 224.27z" class="B G K"/><path d="M1655.03 3248.2c132.78 77.6-61.73 199.94-59.33 197.7 27.6-25.67 106.1-106.72 49.28-188.23l10.05-9.47z" class="L"/><path d="M1660.37 3242.8l-16.9 14.95c-5.9-8.22-13.62-14.96-22.57-19.67-2.2-1.16-2.58-4.34-.65-5.97 1.94-1.57 3.68-3.37 5.2-5.36 1.23-1.8 3.88-2.05 5.44-.58 5.25 5.02 15.66 13.4 29.48 16.63z" class="B G M"/><path d="M1623.7 3228.88c-3.7 4.2 17.88 11.23 30.26 19.64l6.42-5.7c-13.82-3.25-24.23-11.6-29.48-16.64-1.57-1.46-4.2-1.2-5.45.58-.5.78-1.08 1.5-1.75 2.13z" class="J N"/><path d="M1596.55 3467.1c11.03-.37 13.08-14.8 5.96-21.43-23.78-21.94-107.57-108.26-49.05-187.9l-16.9-14.95c-117.9 27.12-45.02 229.8 59.98 224.27z" class="B G K"/><path d="M1541.9 3248.2c-132.78 77.6 61.73 199.94 59.33 197.7-27.58-25.67-106.1-106.72-49.28-188.23l-10.05-9.47z" class="L"/><path d="M1536.57 3242.8l16.9 14.95c5.9-8.22 13.62-14.96 22.57-19.67 2.2-1.16 2.58-4.34.65-5.97-1.94-1.57-3.68-3.37-5.2-5.36-1.23-1.8-3.87-2.05-5.44-.58-5.25 5.02-15.66 13.4-29.48 16.63z" class="B G M"/><path d="M1573.25 3228.88c3.7 4.2-17.88 11.23-30.26 19.64l-6.42-5.7c13.82-3.25 24.23-11.6 29.48-16.64 1.57-1.46 4.2-1.2 5.45.58.5.78 1.08 1.5 1.75 2.13z" class="J N"/><path d="M1667.87 3476.7c10.93-1.46 11.55-16.03 3.8-21.92-25.84-19.47-117.75-97.1-67.38-182.12l-18.3-13.2c-114.65 38.65-22.08 233.14 81.86 217.25z" class="B G K"/><path d="M1591.86 3264.28c-124.46 90.34 81.2 192.85 78.58 190.87-29.98-22.82-116.12-95.7-67.64-182.44l-10.94-8.43z" class="L"/><path d="M1586 3259.43l18.3 13.2c5.05-8.76 12.07-16.23 20.5-21.8 2.07-1.37 2.14-4.58.06-6-2.1-1.37-4-3-5.7-4.82-1.4-1.66-4.06-1.65-5.47-.04-4.73 5.52-14.27 14.88-27.7 19.47z" class="B G M"/><path d="M1621.14 3241.95c4.08 3.8-16.7 12.94-28.17 22.53l-6.96-5.05c13.43-4.6 22.97-13.95 27.7-19.47 1.4-1.6 4.06-1.6 5.47.04.56.73 1.22 1.4 1.96 1.95z" class="J N"/><path d="M1724.37 3485.87c11.03-.42 13-14.87 5.87-21.46-23.9-21.82-108.1-107.75-49.94-187.66l-16.96-14.87c-117.78 27.68-43.94 230.03 61.03 224z" class="B G K"/><path d="M1668.7 3267.24c-132.4 78.23 62.68 199.65 60.26 197.43-27.7-25.54-106.6-106.22-50.16-188l-10.1-9.43z" class="L"/><path d="M1663.34 3261.87l16.96 14.87c5.85-8.25 13.55-15.03 22.48-19.78 2.2-1.17 2.56-4.36.62-5.98a30.559 30.559 0 0 1-5.21-5.33c-1.25-1.78-3.9-2.03-5.45-.56-5.22 5.05-15.6 13.47-29.4 16.78z" class="B G M"/><path d="M1699.96 3247.77c3.7 4.17-17.84 11.32-30.17 19.78l-6.45-5.68c13.8-3.3 24.18-11.73 29.4-16.78 1.55-1.47 4.2-1.22 5.44.56.5.78 1.1 1.5 1.77 2.12z" class="J N"/><path d="M1464.47 3471.9c-11-1-12.2-15.54-4.73-21.74 25-20.54 113.57-101.95 59.68-184.8l17.72-13.96c116.17 33.8 31.85 232-72.67 220.5z" class="B G K"/><path d="M1531.5 3256.47c128.14 85.05-73.03 196.1-70.5 194 29-24.05 112-100.5 59.92-185.1l10.58-8.9z" class="L"/><path d="M1537.14 3251.38l-17.72 13.97c-5.4-8.55-12.74-15.72-21.4-20.93-2.12-1.28-2.33-4.48-.3-6 2.03-1.46 3.87-3.16 5.5-5.06 1.33-1.7 3.98-1.82 5.46-.26 4.95 5.3 14.87 14.26 28.5 18.28z" class="B G M"/><path d="M1501.3 3235.4c-3.92 3.97 17.2 12.23 29.1 21.33l6.74-5.33c-13.6-4.03-23.53-12.98-28.5-18.3-1.48-1.55-4.13-1.44-5.47.26-.53.76-1.16 1.44-1.87 2.03z" class="J N"/><path d="M1707.24 3483.93c10.88-1.82 11.02-16.4 3.1-22.03-26.46-18.63-120.85-93.2-73.3-179.83l-18.7-12.6c-113.33 42.36-14.46 233.73 88.9 214.46z" class="B G K"/><path d="M1624.34 3274.1c-121.44 94.36 87.44 190.1 84.77 188.2-30.7-21.82-119.18-91.87-73.56-180.13l-11.2-8.07z" class="L"/><path d="M1618.34 3269.45l18.7 12.6c4.76-8.92 11.54-16.6 19.8-22.46 2.02-1.43 2-4.64-.14-6-2.13-1.3-4.1-2.85-5.84-4.63-1.46-1.6-4.12-1.52-5.47.14-4.55 5.67-13.77 15.34-27.05 20.36z" class="B G M"/><path d="M1652.88 3250.83c4.2 3.67-16.26 13.5-27.42 23.44l-7.12-4.8c13.27-5.03 22.5-14.7 27.05-20.37 1.36-1.65 4-1.74 5.47-.14.6.72 1.27 1.35 2.02 1.88z" class="J N"/><g class="C"><path d="M1699 3182.5l-5.5-17c57.24 9.66 75.5 68.1 71.5 121-5.62-6.2-12-14.5-17-20-.74-38.12-21-79.5-49-84z" class="H"/><path d="M1805.36 3409.03c-6.57 52.95-38.34 101.5-93.47 114.68 0 0-14.28 12.28-32.33 20.27-19.78-11.32-33.07-31.3-24.55-62.77 15.07-55.64 93.07-70.42 150.35-72.18z" class="F"/></g><use xlink:href="#E" stroke-width="10" class="B"/><use xlink:href="#E" stroke-width="3" class="R S"/><path d="M1733.5 3281l-9.12-.8c7.64-87.12-32.64-109.97-63.48-117.42v-8.8c31.33 5.6 82.87 30.08 72.6 127z" class="C F"/><use xlink:href="#F" stroke-width="10" class="B"/><use xlink:href="#F" stroke-width="3" class="R S"/><path d="M1530 3171.1c-19.4 5.36-55.13 26.2-59.7 106.42l-8.3-.25c3.27-95.82 53.26-110.9 68-112.77v6.6z" class="C F"/><use xlink:href="#G" stroke-width="12" class="B"/><path d="M1536.77 3533.73c-28.24 3.75-55.72-11.5-74.28-31.78-97.05-44.52-77.37-187.9 2.44-238.62 61.3 62.57 199.58 64.64 268.05 10.34 42.3 46.43 61.92 118.42 32.6 177.6-13.8 27.75-41.97 51.8-72.26 58.94-24.06 20.82-55.74 28.04-86.9 25.73-20.73 11.88-48.85 6.73-69.66-2.2z" class="R"/><path d="M1498.32 3288.7c-55.58 31.4-83.76 159.6-41.26 208.1l6.8 3.47c-35.36-57.27-13.26-170.24 41.14-207.77l-6.68-3.8zm192.5 8.66l-6.55 2.23c54.87 55.46 50.04 147.5 7.96 208.68l10.68-3.28c36.58-61 47.36-149.03-12.1-207.63zm-84.9 236.24l6.47.35c37.1-48.44 66.56-152.95 16.7-223.07l-7.06.58c38.5 54.2 31.98 151.05-16.1 222.14zm-63.77-.2l-6.73-1.76c-42.9-60.4-23.38-170.92 20.7-223.56l6.28.73c-38.4 48.7-59.37 162.7-20.25 224.6z" fill="#de6f1d"/><path d="M1487.45 3367.3l43.9-33.9 24.68 43.27c-22.33-.1-47.26-2.42-68.58-9.38zm66.67 47.53c4.92-4.73 28.1-27.63 35.38-35.83l30.84 37.02c-27.87.73-66.22-1.2-66.22-1.2zM1647 3338c-5.28 5.83-26.57 32.38-32.67 38.67 22.34 3.64 50 2.62 71.67-4.17-11-11-23-21-39-34.5zm-136.05 148.97c-11.66-9.74-39.62-48.45-47.18-62.66 16.3 10.64 32.1 22.32 50.1 29.96 7.92-4 21.67-14.03 21.67-14.03 4.38 5.47 25.32 21.22 25.32 21.22 7.1-3.73 29.42-19.12 29.42-19.12 4.47 4.37 22.23 17.2 22.23 17.2 5.28-5.2 22.04-19.5 22.04-19.5 4.46 4.37 20.86 17.12 20.86 17.12 22.86-10.38 49.37-31.33 49.37-31.33-18.28 26.15-33.78 45.27-51.37 63.94-10.75-5.83-22.6-11.38-22.6-11.38-8.57 6.46-26.5 16.85-26.5 16.85-6.28-6.47-20.58-18.22-20.58-18.22-6.47 3.47-28.42 16.4-28.42 16.4-5.47-6.38-20.04-22.32-20.04-22.32-5.74 4.2-24.32 15.85-24.32 15.85z" fill="#fbb655"/><path d="M1487.63 3370.3l42.9-33.88c8.02 14.52 17.26 28.42 24.7 43.27-22.34-.1-46.27-2.42-67.6-9.4zm67.5 47.18c4.92-4.74 27.15-26.96 34.43-35.16 10.28 11.82 20.1 24.03 29.8 36.34-27.87.73-64.22-1.18-64.22-1.18zm61.68-38.08c22.33 3.64 68.58-3.83 68.58-3.83s-21.37-21.57-37.6-33.97c-5.3 5.83-24.87 31.52-30.97 37.8zm-105.76 111.03c-11.66-9.74-39.62-48.45-47.18-62.66 16.34 10.62 32.06 22.4 50.1 30.05 7.92-4 21.68-14.02 21.68-14.02 4.37 5.46 25.32 21.22 25.32 21.22 7.1-3.73 29.42-19.13 29.42-19.13 4.46 4.37 22.22 17.22 22.22 17.22 5.3-5.2 22.05-19.5 22.05-19.5 4.46 4.37 20.86 17.12 20.86 17.12 22.86-10.38 49.36-31.33 49.36-31.33s-32.2 45.93-51.37 63.94c-10.75-5.83-22.6-11.4-22.6-11.4-8.56 6.38-26.5 16.76-26.5 16.76-6.28-6.46-20.58-18.2-20.58-18.2-6.47 3.46-28.42 16.4-28.42 16.4-5.47-6.38-20.04-22.32-20.04-22.32-5.74 4.1-24.32 15.85-24.32 15.85z" class="J"/><use xlink:href="#G" class="D S"/><path d="M1713.5 3507c59-53.7 33.73-165.34-10.2-219.58 10.6-4.76 22-11.93 29.7-18.42 65.5 62 76.47 193.92-19.5 238zM1485 3274.5c-58.53 54.28-81.53 150.85-40.5 222-80.5-51.5-60.5-193 21.5-238.5 5.47 5.62 12.77 11.73 19 16.5z" class="C F"/><path d="M1601.4 3259.9c56.82.05 93-68.1 58.6-115.27 15.9-45.2-18.1-95.4-66.66-96.55-56-1.34-88.37 58.5-82.5 109.13 5.48 47.3 37.52 102.65 90.57 102.7z" class="B D E I"/><path d="M1510.83 3157.2c6.78 58.57 54.37 126.8 125.37 93.8-68.82-8.8-117-125.5-83.1-191.84-5.4 3.84-13.9 8.34-27.6 27.6-12.3 21.73-17.7 46.2-14.66 70.43z" class="C F"/><path d="M2398.6 3259.9c-56.82.05-93-68.1-58.6-115.27-15.92-45.2 18.08-95.4 66.66-96.55 56-1.34 88.36 58.5 82.5 109.13-5.48 47.3-37.53 102.65-90.57 102.7z" class="B D E I"/><g class="C"><path d="M2489.17 3157.2c-6.78 58.57-54.37 126.8-125.37 93.8 68.82-8.8 117-125.5 83.1-191.84 5.4 3.84 13.9 8.34 27.6 27.6 12.3 21.73 17.7 46.2 14.66 70.43z" class="F"/><path d="M1571.35 2356.28c134.34 14.65 159.6 175.8 299 176.6 61.93-.03 120.55-21.5 181.47-29.47 63.16-8.48 125.16 12.53 188.1 7.12 93.83-7.84 123.1-104.38 146.58-183.52.73 96.82-35.93 206.67-141.57 223.18-61.92 9.48-124.42-8.6-186.55.28-63.03 9-124.9 30.4-189.25 26.97-155.92-7.87-196.13-173.12-297.78-221.15z" class="Q"/></g><path d="M1654.88 2334.1h0c22.74-4.26 16.9-39.5-6-36.17l-.1.01c-80.45 11.58-122.96 88.56-127.93 163.37-.44 5.95 8.33 7.63 10.1 1.93l.01-.03c10-31.84 22.07-64.35 45.74-88.75 30.33 17 57.05 41.75 75.02 71.56 55.9 93.17 114.22 163.8 231.86 157.84 76.04-3.45 147.28-41.54 223.93-36.72 106.92 6.84 222.4 24 270.86-96.8 16.35-41.03 21.37-86.4 20.53-130.3 33.36 9.2 55.94 37.26 68.84 68.17 2.34 5.5 10.9 2.95 9.86-2.92-14.17-81-99.7-124.96-174.18-93.2-20.92 8.92-9.38 41.8 12.5 34.47 21.75-7.33 44.6-12.17 67.63-9.5-6.46 41.12-14.87 83-33.9 120.4-47.8 94.02-150.27 79.42-239.9 73.88-76.9-4.45-150.92 23.75-227.54 24.93-101.1 1.07-144.32-55.33-203.27-129.16-22.94-28.83-54.94-51.9-89.92-63.85 18.96-15.36 42.02-24.66 65.87-29.14z" fill="#333"/><defs ><path id="B" d="M2075.1 1181.55c-31.3 48.58-24.33 121.94-7.94 174.28v.01c.6 1.84 3.33 1.56 3.65-.26v-.02c9.77-56.23 2.52-116.2 6.82-173.15.1-1.33-1.76-2.03-2.53-.86z"/><path id="C" d="M1978.43 1370.1c-21.6-50.4-35.9-122.7-9.68-174.2.65-1.25 2.57-.74 2.6.6 1.47 57.1 14.73 116.02 10.68 172.96v.01c-.13 1.85-2.82 2.4-3.6.63h0z"/><path id="D" d="M1862.9 1232.48c-22.2 53.35-2.36 124.33 23.03 172.94v.01c.9 1.7 3.55.95 3.54-.9v-.02c-.33-57.08-18.08-114.8-23.93-171.62-.13-1.34-2.1-1.7-2.64-.4z"/><path id="E" d="M1716.4 3282.93c4.08-44.32-4.48-101.58-56.14-112.3l2.4-13.45c58.05 11.72 73.4 69.32 68.15 121.9l-14.4 3.83z"/><path id="F" d="M1465.6 3275.6c3.7-87.55 45.76-103.57 62.02-106.46l1.72 13.56c-39.7 7.6-48.7 60.48-50.1 93.36l-13.65-.46z"/><path id="G" d="M1536.77 3533.73c-28.24 3.75-55.72-11.5-74.28-31.78-97.05-44.52-77.38-187.9 2.44-238.62 61.3 62.57 199.57 64.64 268.05 10.34 42.3 46.43 61.92 118.42 32.6 177.6-13.8 27.75-41.97 51.8-72.26 58.94-24.06 20.82-55.74 28.04-86.9 25.73-20.73 11.88-48.85 6.73-69.66-2.2z"/></defs></svg>