<svg fill="none" height="4000" viewBox="0 0 4000 4000" width="4000" xmlns="http://www.w3.org/2000/svg"><g stroke="#333" stroke-width="5"><path d="m2014.5 3490.5c-1.5-31.5-1.5-64.5 15-83.5-4-4 .68-9.27 4.5-8 29.5 9.83 107.5 9.5 181-13 119.5 84.5 203 82 220 97 18.31 16.15-419 39-420.5 7.5z" fill="#5050d8"/><path d="m2216.5 3368c16-7 61 24 57.5 35.5-9 12-83.38 2.73-71-8 15-13 8-25.09 13.5-27.5z" fill="#3b3bbc"/><path d="m2239.5 3387c29.93 14.48 118.3 57.57 103 68.5-42 30-155.3-34.43-158.5-43.5-3-8.5 9.7-14.74 18.5-19.5 9.71-5.26 21.5-13 37-5.5z" fill="#3b3bbc"/><path d="m2012.72 3543.07c-.72-12.67-1.51-32.28-.22-42.57 95.5 16 367 13.5 430-15.5 9 5.5 17 27.5 11.5 45-54.16 49.23-364.32 30.36-428.77 25.86-6.88-.48-12.12-5.91-12.51-12.79z" fill="#e6e6e6"/></g><path d="m2013.85 3500.72c.13 7.83.5 15.97.87 22.35.39 6.88 5.63 12.31 12.51 12.79 64.18 4.48 372.05 23.22 428.08-25.25.89 6.4.64 13.18-1.31 19.39-54.16 49.23-364.32 30.36-428.77 25.86-6.88-.48-12.12-5.91-12.51-12.79-.72-12.67-1.51-32.28-.22-42.57.45.08.9.15 1.35.22z" fill="#000" fill-opacity=".15"/><g stroke="#333" stroke-width="5"><path d="m2015 3492c-3.5.5-5.5 5-2.5 8.5 95.5 16 367 13.5 430-15.5 1.5-3.5-2.5-8.68-6.5-7.5-106.5 31.5-340.5 22-421 14.5z" fill="#999"/><path d="m1985.51 3490.5c1.5-31.5 1.5-64.5-15-83.5 4-4-.68-9.27-4.5-8-29.5 9.83-107.5 9.5-181-13-119.5 84.5-203 82-220 97-18.31 16.15 419 39 420.5 7.5z" fill="#5050d8"/><path d="m1783.51 3368c-16-7-61 24-57.5 35.5 9 12 83.37 2.73 71-8-15-13-8-25.09-13.5-27.5z" fill="#3b3bbc"/><path d="m1760.51 3387c-29.93 14.48-118.3 57.57-103.01 68.5 42.01 30 155.31-34.43 158.51-43.5 3-8.5-9.7-14.74-18.5-19.5-9.71-5.26-21.5-13-37-5.5z" fill="#3b3bbc"/><path d="m1987.29 3543.07c.72-12.67 1.5-32.28.22-42.57-95.5 16-367 13.5-430-15.5-9 5.5-17 27.5-11.5 45 54.15 49.23 364.32 30.36 428.77 25.86 6.87-.48 12.12-5.91 12.51-12.79z" fill="#e6e6e6"/></g><path clip-rule="evenodd" d="m1986.15 3500.72c-.12 7.83-.5 15.97-.86 22.35-.39 6.88-5.64 12.31-12.51 12.79-64.18 4.48-372.05 23.22-428.09-25.25-.89 6.4-.64 13.18 1.32 19.39 54.15 49.23 364.32 30.36 428.77 25.86 6.87-.48 12.12-5.91 12.51-12.79.72-12.67 1.5-32.28.22-42.57-.45.08-.9.15-1.36.22z" fill="#000" fill-opacity=".15" fill-rule="evenodd"/><path d="m1985.01 3492c3.5.5 5.5 5 2.5 8.5-95.5 16-367 13.5-430-15.5-1.5-3.5 2.5-8.68 6.5-7.5 106.5 31.5 340.5 22 421 14.5z" fill="#999" stroke="#333" stroke-width="5"/></svg>