<svg xmlns="http://www.w3.org/2000/svg" width="4000" height="4000" fill="none" xmlns:v="https://vecta.io/nano"><path d="M2018 3408c0-23.2 18.8-42 42-42h93c55.5 0 74 33.5 74 33.5h30c37.32 0 128.54 24.62 125.84 138.4-.4 16.83-16.95 28.74-33.77 27.88-64.47-3.3-196.1.85-272.53 3.78-31.93 1.23-58.54-24.28-58.54-56.23V3408z" fill="#fff" stroke="#333" stroke-width="5"/><path fill-rule="evenodd" d="M2018 3481.33v32c0 31.95 26.6 57.46 58.54 56.23 76.43-2.93 208.06-7.08 272.53-3.78 16.82.86 33.36-11.05 33.77-27.88.2-9-.16-17.43-1.05-25.34-3.92 13.2-18.22 21.96-32.72 21.22-64.47-3.3-196.1.85-272.53 3.78-31.93 1.23-58.54-24.28-58.54-56.23z" fill="#000" fill-opacity=".1"/><path d="M1982 3408c0-23.2-18.8-42-42-42h-93c-55.5 0-74 33.5-74 33.5h-30c-37.32 0-128.54 24.62-125.84 138.4.4 16.83 16.95 28.74 33.77 27.88 64.47-3.3 196.1.85 272.53 3.78 31.93 1.23 58.54-24.28 58.54-56.23V3408z" fill="#fff" stroke="#333" stroke-width="5"/><path fill-rule="evenodd" d="M1982 3481.33v32c0 31.95-26.6 57.46-58.54 56.23-76.43-2.93-208.06-7.08-272.53-3.78-16.82.86-33.36-11.05-33.77-27.88-.2-9 .16-17.43 1.05-25.34 3.92 13.2 18.22 21.96 32.72 21.22 64.47-3.3 196.1.85 272.53 3.78 31.93 1.23 58.54-24.28 58.54-56.23z" fill="#000" fill-opacity=".1"/></svg>