<svg xmlns="http://www.w3.org/2000/svg" width="4000" height="4000" fill="none" xmlns:v="https://vecta.io/nano"><g stroke="#333" stroke-width="5"><path d="M2014.5 3490.5c-1.5-31.5-1.5-64.5 15-83.5-4-4 .68-9.27 4.5-8 29.5 9.83 107.5 9.5 181-13 119.5 84.5 203 82 220 97 18.3 16.15-419 39-420.5 7.5z" fill="#24409b"/><g fill="#1d3875"><path d="M2216.5 3368c16-7 61 24 57.5 35.5-9 12-83.38 2.73-71-8 15-13 8-25.1 13.5-27.5z"/><path d="M2239.5 3387c29.93 14.48 118.3 57.57 103 68.5-42 30-155.3-34.43-158.5-43.5-3-8.5 9.7-14.74 18.5-19.5 9.7-5.26 21.5-13 37-5.5z"/></g><path d="M2012.72 3543.07c-.72-12.67-1.5-32.28-.22-42.57 95.5 16 367 13.5 430-15.5 9 5.5 17 27.5 11.5 45-54.16 49.23-364.32 30.36-428.77 25.86-6.88-.48-12.12-5.9-12.5-12.8z" fill="#e6e6e6"/></g><path d="M2013.85 3500.72c.13 7.83.5 15.97.87 22.35.4 6.88 5.63 12.3 12.5 12.8 64.18 4.48 372.05 23.22 428.08-25.25.9 6.4.64 13.18-1.3 19.4-54.16 49.23-364.32 30.36-428.77 25.86-6.88-.48-12.12-5.9-12.5-12.8-.72-12.67-1.5-32.28-.22-42.57l1.35.22z" fill="#000" fill-opacity=".15"/><g stroke="#333" stroke-width="5"><path d="M2015 3492c-3.5.5-5.5 5-2.5 8.5 95.5 16 367 13.5 430-15.5 1.5-3.5-2.5-8.68-6.5-7.5-106.5 31.5-340.5 22-421 14.5z" fill="#999"/><path d="M1985.5 3490.5c1.5-31.5 1.5-64.5-15-83.5 4-4-.68-9.27-4.5-8-29.5 9.83-107.5 9.5-181-13-119.5 84.5-203 82-220 97-18.3 16.15 419 39 420.5 7.5z" fill="#24409b"/><g fill="#1d3875"><path d="M1783.5 3368c-16-7-61 24-57.5 35.5 9 12 83.37 2.73 71-8-15-13-8-25.1-13.5-27.5z"/><path d="M1760.5 3387c-29.93 14.48-118.3 57.57-103 68.5 42 30 155.3-34.43 158.5-43.5 3-8.5-9.7-14.74-18.5-19.5-9.7-5.26-21.5-13-37-5.5z"/></g><path d="M1987.3 3543.07c.72-12.67 1.5-32.28.22-42.57-95.5 16-367 13.5-430-15.5-9 5.5-17 27.5-11.5 45 54.15 49.23 364.32 30.36 428.77 25.86 6.87-.48 12.12-5.9 12.5-12.8z" fill="#e6e6e6"/></g><path fill-rule="evenodd" d="M1986.15 3500.72c-.12 7.83-.5 15.97-.86 22.35-.4 6.88-5.64 12.3-12.5 12.8-64.18 4.48-372.05 23.22-428.1-25.25-.9 6.4-.64 13.18 1.32 19.4 54.15 49.23 364.32 30.36 428.77 25.86 6.87-.48 12.12-5.9 12.5-12.8.72-12.67 1.5-32.28.22-42.57-.45.08-.9.15-1.36.22z" fill="#000" fill-opacity=".15"/><path d="M1985 3492c3.5.5 5.5 5 2.5 8.5-95.5 16-367 13.5-430-15.5-1.5-3.5 2.5-8.68 6.5-7.5 106.5 31.5 340.5 22 421 14.5z" fill="#999" stroke="#333" stroke-width="5"/></svg>