<svg xmlns="http://www.w3.org/2000/svg" xmlns:xlink="http://www.w3.org/1999/xlink" width="4000" height="4000" fill="none" xmlns:v="https://vecta.io/nano"><path d="M1910 3556c32 0 63.1-23.6 66.7-56.14 9.1-82.2-94.35-89.68-150.66-90.92-57.1-1.25-154.04 9.56-171.03 72.27-14.84 54.8 36.5 74.8 73 74.8s49-12.15 93-12.15c38.4 0 57 12.15 89 12.15z" fill="#62ffaa" stroke="#333" stroke-width="5" stroke-miterlimit="10"/><g fill="#f2f2f2"><use xlink:href="#B"/><use xlink:href="#C"/><use xlink:href="#D"/><use xlink:href="#E"/></g><g stroke="#333" stroke-width="5" stroke-linejoin="round"><use xlink:href="#B"/><use xlink:href="#C"/><use xlink:href="#D"/><use xlink:href="#E"/></g><path d="M1909 3534c-32 0-50.6-12.15-89-12.15-44 0-56.5 12.15-93 12.15-28.38 0-65.75-12.1-73.97-43.26-6.72 47.6 40.68 65.26 74.97 65.26 36.5 0 49-12.15 93-12.15 38.4 0 57 12.15 89 12.15 42.87 0 73-34.15 65.9-80.26-2.96 33.46-34.03 58.26-66.9 58.26z" fill="#000" fill-opacity=".4"/><path d="M2090 3556c-32 0-63.1-23.6-66.7-56.14-9.1-82.2 94.35-89.68 150.67-90.92 57.1-1.25 154.03 9.56 171.02 72.27 14.85 54.8-36.5 74.8-73 74.8s-49-12.15-92.98-12.15c-38.42 0-57.02 12.15-89.02 12.15z" fill="#62ffaa" stroke="#333" stroke-width="5" stroke-miterlimit="10"/><g fill="#f2f2f2"><use xlink:href="#F"/><use xlink:href="#G"/><use xlink:href="#H"/><use xlink:href="#I"/></g><g stroke="#333" stroke-width="5" stroke-linejoin="round"><use xlink:href="#F"/><use xlink:href="#G"/><use xlink:href="#H"/><use xlink:href="#I"/></g><path d="M2091 3534c32 0 50.6-12.15 89.02-12.15 43.98 0 56.48 12.15 92.98 12.15 28.4 0 65.75-12.1 73.97-43.26 6.73 47.6-40.67 65.26-74.97 65.26-36.5 0-49-12.15-92.98-12.15-38.4 0-57.02 12.15-89.02 12.15-42.86 0-73-34.15-65.9-80.26 2.97 33.46 34.04 58.26 66.9 58.26z" fill="#000" fill-opacity=".4"/><defs ><path id="B" d="M1842.5 3545.2c-15.46-40.24-21.12-95.04-16.7-136.25 13.07.28 26.13.86 39.14 2.1-3.6 45.05 5.6 102.85 26.9 143.65-16.5-2.33-30.66-7.16-49.35-9.5z"/><path id="C" d="M1770.54 3411.7c-19.33 2.42-39.1 6.63-56.8 13.45 2.14 41.72 15.2 92.83 36.62 129.17 17.2-2.64 30.3-7.67 51.78-9.64-18.87-38.74-33.2-91.14-31.6-132.98z"/><path id="D" d="M1966.68 3526.42c-6.75 9.84-16.34 17.74-27.28 22.9-20.33-36.65-27.4-87.16-26.05-129.52 13.58 4 26.23 9.46 36.64 16.98.85 29.9 6.26 61.86 16.7 89.65z"/><path id="E" d="M1655 3481.2c3.1-11.38 8.8-21.04 16.42-29.24 4.7 33.55 15.1 71.33 31.1 100.95-30.47-7.45-59.08-29.02-47.52-71.7z"/><path id="F" d="M2157.5 3545.2c15.47-40.24 21.13-95.04 16.7-136.25-13.06.28-26.12.86-39.13 2.1 3.6 45.05-5.62 102.85-26.9 143.65 16.48-2.33 30.65-7.16 49.34-9.5z"/><path id="G" d="M2229.45 3411.7c19.33 2.42 39.1 6.63 56.8 13.45-2.13 41.72-15.2 92.83-36.6 129.17-17.2-2.64-30.32-7.67-51.8-9.64 18.88-38.74 33.2-91.14 31.6-132.98z"/><path id="H" d="M2033.3 3526.42c6.76 9.84 16.34 17.74 27.3 22.9 20.32-36.65 27.4-87.16 26.04-129.52-13.57 4-26.23 9.46-36.64 16.98-.84 29.9-6.25 61.86-16.7 89.65z"/><path id="I" d="M2345 3481.2c-3.08-11.38-8.8-21.04-16.42-29.24-4.7 33.55-15.1 71.33-31.1 100.95 30.47-7.45 59.1-29.02 47.52-71.7z"/></defs></svg>