<svg fill="none" height="4000" viewBox="0 0 4000 4000" width="4000" xmlns="http://www.w3.org/2000/svg"><path d="m2090 3556c-32 0-63.09-23.6-66.7-56.14-9.11-82.21 94.35-89.68 150.67-90.92 57.1-1.25 154.03 9.56 171.02 72.27 14.85 54.79-36.49 74.79-72.99 74.79s-49-12.15-92.98-12.15c-38.42 0-57.02 12.15-89.02 12.15z" fill="#fff" stroke="#333" stroke-miterlimit="10" stroke-width="5"/><g fill="#333"><path d="m2325.36 3540.89c-6.49 4.48-13.92 7.87-21.66 10.3-76.94-25.9-167.45-26.44-244.98-2.79-6.55-3.32-12.57-7.64-17.72-12.78 84.01-33.94 201.06-32.59 284.36 5.27z"/><path d="m2334.55 3533.06c-86.76-46.69-213.35-48.09-301.02-6.32-3.11-4.46-5.63-9.33-7.43-14.52 83.59-52.11 234.24-50.61 317.18 8.03-2.21 4.8-5.18 9.06-8.73 12.81z"/><path d="m2346.79 3509.08c-85.94-57.34-236.56-58.84-323.38-8.32-.75-5.91-.9-11.94-.35-17.88 84.4-52.67 244.76-49.15 324.05 8.89.79 6.29.63 12.05-.32 17.31z"/><path d="m2343.15 3475.43c-86.85-54.19-226.69-57.17-316.96-7.55 3.99-11.74 9.21-19.12 18.56-26.63 82.05-33.13 197.38-32.24 278.4 5.68 9.84 8.28 15.51 16.33 20 28.5z"/></g><path d="m2091 3534c32 0 50.61-12.15 89.02-12.15 43.98 0 56.48 12.15 92.98 12.15 28.39 0 65.75-12.1 73.97-43.26 6.73 47.6-40.67 65.26-74.97 65.26-36.5 0-49-12.15-92.98-12.15-38.41 0-57.02 12.15-89.02 12.15-42.86 0-73-34.15-65.91-80.26 2.97 33.46 34.04 58.26 66.91 58.26z" fill="#000" fill-opacity=".5"/><path d="m1910 3556c32 0 63.09-23.6 66.7-56.14 9.11-82.21-94.35-89.68-150.67-90.92-57.1-1.25-154.03 9.56-171.02 72.27-14.84 54.79 36.49 74.79 72.99 74.79s49-12.15 92.98-12.15c38.42 0 57.02 12.15 89.02 12.15z" fill="#fff" stroke="#333" stroke-miterlimit="10" stroke-width="5"/><g fill="#333"><path d="m1674.64 3540.89c6.49 4.48 13.92 7.87 21.66 10.3 76.94-25.9 167.45-26.44 244.98-2.79 6.55-3.32 12.57-7.64 17.72-12.78-84.01-33.94-201.06-32.59-284.36 5.27z"/><path d="m1665.45 3533.06c86.76-46.69 213.35-48.09 301.02-6.32 3.11-4.46 5.63-9.33 7.43-14.52-83.59-52.11-234.24-50.61-317.18 8.03 2.21 4.8 5.18 9.06 8.73 12.81z"/><path d="m1653.21 3509.08c85.94-57.34 236.56-58.84 323.38-8.32.75-5.91.9-11.94.35-17.88-84.4-52.67-244.76-49.15-324.05 8.89-.79 6.29-.63 12.05.32 17.31z"/><path d="m1656.85 3475.43c86.85-54.19 226.69-57.17 316.96-7.55-3.99-11.74-9.21-19.12-18.56-26.63-82.05-33.13-197.38-32.24-278.4 5.68-9.84 8.28-15.51 16.33-20 28.5z"/></g><path d="m1909 3534c-32 0-50.61-12.15-89.02-12.15-43.98 0-56.48 12.15-92.98 12.15-28.39 0-65.75-12.1-73.97-43.26-6.73 47.6 40.67 65.26 74.97 65.26 36.5 0 49-12.15 92.98-12.15 38.41 0 57.02 12.15 89.02 12.15 42.86 0 73-34.15 65.91-80.26-2.97 33.46-34.04 58.26-66.91 58.26z" fill="#000" fill-opacity=".5"/></svg>