<svg xmlns="http://www.w3.org/2000/svg" width="4000" height="4000" fill="none" xmlns:v="https://vecta.io/nano"><path d="M2090 3556c-32 0-63.1-23.6-66.7-56.14-9.1-82.2 94.35-89.68 150.67-90.92 57.1-1.25 154.03 9.56 171.02 72.27 14.85 54.8-36.5 74.8-73 74.8s-49-12.15-92.98-12.15c-38.42 0-57.02 12.15-89.02 12.15z" fill="#fff" stroke="#333" stroke-width="5" stroke-miterlimit="10"/><path d="M2325.36 3540.9c-6.5 4.48-13.92 7.87-21.66 10.3-76.94-25.9-167.45-26.44-244.98-2.8-6.55-3.32-12.57-7.64-17.72-12.78 84-33.94 201.06-32.6 284.36 5.27zm9.2-7.84c-86.76-46.7-213.35-48.1-301.02-6.32-3.1-4.46-5.63-9.33-7.43-14.52 83.6-52.1 234.24-50.6 317.18 8.03-2.2 4.8-5.18 9.06-8.73 12.8zm12.25-23.98c-85.94-57.34-236.56-58.84-323.38-8.32-.75-5.9-.9-11.94-.35-17.88 84.4-52.67 244.76-49.15 324.05 8.9.8 6.3.63 12.05-.32 17.3zm-3.65-33.65c-86.85-54.2-226.7-57.17-316.96-7.55 4-11.74 9.2-19.12 18.56-26.63 82.05-33.13 197.38-32.24 278.4 5.68 9.84 8.28 15.5 16.33 20 28.5z" fill="#333"/><path d="M2091 3534c32 0 50.6-12.15 89.02-12.15 43.98 0 56.48 12.15 92.98 12.15 28.4 0 65.75-12.1 73.97-43.26 6.73 47.6-40.67 65.26-74.97 65.26-36.5 0-49-12.15-92.98-12.15-38.4 0-57.02 12.15-89.02 12.15-42.86 0-73-34.15-65.9-80.26 2.97 33.46 34.04 58.26 66.9 58.26z" fill="#000" fill-opacity=".5"/><path d="M1910 3556c32 0 63.1-23.6 66.7-56.14 9.1-82.2-94.35-89.68-150.67-90.92-57.1-1.25-154.03 9.56-171.02 72.27-14.84 54.8 36.5 74.8 73 74.8s49-12.15 92.98-12.15c38.42 0 57.02 12.15 89.02 12.15z" fill="#fff" stroke="#333" stroke-width="5" stroke-miterlimit="10"/><path d="M1674.64 3540.9c6.5 4.48 13.92 7.87 21.66 10.3 76.94-25.9 167.45-26.44 244.98-2.8 6.55-3.32 12.57-7.64 17.72-12.78-84-33.94-201.06-32.6-284.36 5.27zm-9.2-7.84c86.76-46.7 213.35-48.1 301.02-6.32 3.1-4.46 5.63-9.33 7.43-14.52-83.6-52.1-234.24-50.6-317.18 8.03 2.2 4.8 5.18 9.06 8.73 12.8zm-12.25-23.98c85.94-57.34 236.56-58.84 323.38-8.32.75-5.9.9-11.94.35-17.88-84.4-52.67-244.76-49.15-324.05 8.9-.8 6.3-.63 12.05.32 17.3zm3.65-33.65c86.85-54.2 226.7-57.17 316.96-7.55-4-11.74-9.2-19.12-18.56-26.63-82.05-33.13-197.38-32.24-278.4 5.68-9.84 8.28-15.5 16.33-20 28.5z" fill="#333"/><path d="M1909 3534c-32 0-50.6-12.15-89.02-12.15-43.98 0-56.48 12.15-92.98 12.15-28.4 0-65.75-12.1-73.97-43.26-6.73 47.6 40.67 65.26 74.97 65.26 36.5 0 49-12.15 92.98-12.15 38.4 0 57.02 12.15 89.02 12.15 42.86 0 73-34.15 65.9-80.26-2.97 33.46-34.04 58.26-66.9 58.26z" fill="#000" fill-opacity=".5"/></svg>