<svg fill="none" height="4000" viewBox="0 0 4000 4000" width="4000" xmlns="http://www.w3.org/2000/svg"><path d="m1909.99 3556c32 0 63.09-23.6 66.7-56.14 9.11-82.21-94.35-89.68-150.66-90.92-57.11-1.25-154.04 9.56-171.03 72.27-14.84 54.79 36.49 74.79 72.99 74.79s49-12.15 92.99-12.15c38.41 0 57.01 12.15 89.01 12.15z" fill="#62ffaa" stroke="#333" stroke-miterlimit="10" stroke-width="5"/><g fill="#f2f2f2"><path d="m1842.5 3545.19c-15.46-40.24-21.12-95.04-16.7-136.25 13.07.28 26.13.86 39.14 2.11-3.6 45.05 5.61 102.85 26.91 143.65-16.49-2.33-30.66-7.16-49.35-9.51z"/><path d="m1770.54 3411.7c-19.33 2.42-39.1 6.63-56.81 13.45 2.14 41.72 15.21 92.83 36.62 129.17 17.19-2.64 30.31-7.67 51.78-9.64-18.87-38.74-33.19-91.14-31.59-132.98z"/><path d="m1966.68 3526.42c-6.75 9.84-16.34 17.74-27.28 22.89-20.33-36.65-27.4-87.16-26.05-129.52 13.58 3.99 26.23 9.46 36.64 16.98.85 29.91 6.26 61.86 16.69 89.65z"/><path d="m1655 3481.21c3.09-11.38 8.8-21.04 16.42-29.24 4.71 33.55 15.1 71.33 31.1 100.95-30.47-7.45-59.08-29.02-47.52-71.71z"/></g><g stroke="#333" stroke-linecap="round" stroke-linejoin="round" stroke-width="5"><path d="m1842.5 3545.19c-15.46-40.24-21.12-95.04-16.7-136.25 13.07.28 26.13.86 39.14 2.11-3.6 45.05 5.61 102.85 26.91 143.65-16.49-2.33-30.66-7.16-49.35-9.51z"/><path d="m1770.54 3411.7c-19.33 2.42-39.1 6.63-56.81 13.45 2.14 41.72 15.21 92.83 36.62 129.17 17.19-2.64 30.31-7.67 51.78-9.64-18.87-38.74-33.19-91.14-31.59-132.98z"/><path d="m1966.68 3526.42c-6.75 9.84-16.34 17.74-27.28 22.89-20.33-36.65-27.4-87.16-26.05-129.52 13.58 3.99 26.23 9.46 36.64 16.98.85 29.91 6.26 61.86 16.69 89.65z"/><path d="m1655 3481.21c3.09-11.38 8.8-21.04 16.42-29.24 4.71 33.55 15.1 71.33 31.1 100.95-30.47-7.45-59.08-29.02-47.52-71.71z"/></g><path d="m1908.99 3534c-32 0-50.6-12.15-89.01-12.15-43.99 0-56.49 12.15-92.99 12.15-28.38 0-65.75-12.1-73.97-43.26-6.72 47.6 40.68 65.26 74.97 65.26 36.5 0 49-12.15 92.99-12.15 38.41 0 57.01 12.15 89.01 12.15 42.87 0 73-34.15 65.91-80.26-2.96 33.46-34.03 58.26-66.91 58.26z" fill="#000" fill-opacity=".4"/><path d="m2090 3556c-32 0-63.09-23.6-66.7-56.14-9.11-82.21 94.35-89.68 150.67-90.92 57.1-1.25 154.03 9.56 171.02 72.27 14.85 54.79-36.49 74.79-72.99 74.79s-49-12.15-92.98-12.15c-38.42 0-57.02 12.15-89.02 12.15z" fill="#62ffaa" stroke="#333" stroke-miterlimit="10" stroke-width="5"/><g fill="#f2f2f2"><path d="m2157.49 3545.19c15.47-40.24 21.13-95.04 16.7-136.25-13.06.28-26.12.86-39.13 2.11 3.59 45.05-5.62 102.85-26.91 143.65 16.48-2.33 30.65-7.16 49.34-9.51z"/><path d="m2229.45 3411.7c19.33 2.42 39.11 6.63 56.81 13.45-2.13 41.72-15.21 92.83-36.61 129.17-17.2-2.64-30.32-7.67-51.79-9.64 18.88-38.74 33.2-91.14 31.59-132.98z"/><path d="m2033.31 3526.42c6.76 9.84 16.34 17.74 27.29 22.89 20.32-36.65 27.4-87.16 26.04-129.52-13.57 3.99-26.23 9.46-36.64 16.98-.84 29.91-6.25 61.86-16.69 89.65z"/><path d="m2344.99 3481.21c-3.08-11.38-8.79-21.04-16.42-29.24-4.7 33.55-15.1 71.33-31.1 100.95 30.47-7.45 59.09-29.02 47.52-71.71z"/></g><g stroke="#333" stroke-linecap="round" stroke-linejoin="round" stroke-width="5"><path d="m2157.49 3545.19c15.47-40.24 21.13-95.04 16.7-136.25-13.06.28-26.12.86-39.13 2.11 3.59 45.05-5.62 102.85-26.91 143.65 16.48-2.33 30.65-7.16 49.34-9.51z"/><path d="m2229.45 3411.7c19.33 2.42 39.11 6.63 56.81 13.45-2.13 41.72-15.21 92.83-36.61 129.17-17.2-2.64-30.32-7.67-51.79-9.64 18.88-38.74 33.2-91.14 31.59-132.98z"/><path d="m2033.31 3526.42c6.76 9.84 16.34 17.74 27.29 22.89 20.32-36.65 27.4-87.16 26.04-129.52-13.57 3.99-26.23 9.46-36.64 16.98-.84 29.91-6.25 61.86-16.69 89.65z"/><path d="m2344.99 3481.21c-3.08-11.38-8.79-21.04-16.42-29.24-4.7 33.55-15.1 71.33-31.1 100.95 30.47-7.45 59.09-29.02 47.52-71.71z"/></g><path d="m2091 3534c32 0 50.61-12.15 89.02-12.15 43.98 0 56.48 12.15 92.98 12.15 28.39 0 65.75-12.1 73.97-43.26 6.73 47.6-40.67 65.26-74.97 65.26-36.5 0-49-12.15-92.98-12.15-38.41 0-57.02 12.15-89.02 12.15-42.86 0-73-34.15-65.91-80.26 2.97 33.46 34.04 58.26 66.91 58.26z" fill="#000" fill-opacity=".4"/></svg>