<svg fill="none" height="4000" viewBox="0 0 4000 4000" width="4000" xmlns="http://www.w3.org/2000/svg"><path d="m2555.5 2872c-5 4.5-16.5 13-29.5 21 7-28.5-3-50-18.5-58 4.5-3 19.5-10.5 37.5-13 108.5-46 253.2 41.18 260.5 148.5 12.74 187.39-133.5 169-148.5 160.5-21-21-24.5-43.5-8.5-63.5 46 33 117 17 105.5-97-5.63-55.86-91-138.5-198.5-98.5z" fill="#62ffaa" stroke="#333" stroke-linecap="round" stroke-linejoin="round" stroke-width="5"/><g fill="#fff"><path d="m2623.77 2810.04c-13.15-1.07-26.35-.76-39.34 1.08 8.96 9.71 19.53 27.99 9.1 51.47 10.86-1.33 21.39-1.47 31.51-.58 9.26-13.72 12.71-37.74-1.27-51.97z"/><path d="m2687 2881.69c-9.46-5.46-19.74-10.07-30.71-13.5 15.56-14.75 17.04-34.53 11.52-49.47 11.7 3.66 23.11 8.32 34.04 13.86 5.55 20.78-3.14 39.33-14.85 49.11z"/><path d="m2725.75 2913.27c-5.12-5.78-10.85-11.35-17.14-16.55 17.36-7.53 24.57-26.9 21.81-46.86 9.71 6.91 18.78 14.56 27.03 22.83-2.23 21.72-18.72 34.55-31.7 40.58z"/><path d="m2750.99 2956.14c-2.37-7.6-5.97-15.44-10.68-23.19 12.07-3.85 30.25-14.76 36.63-37.44 7.29 10.08 13.41 20.77 18.1 31.91-7.2 11.1-23.57 24.97-44.05 28.72z"/><path d="m2754.84 3006.34c.5-7.44.54-15.48.07-24.16 14.52-.92 36.95-6.02 49.27-23.24.61 3.82 1.06 7.68 1.32 11.56.62 9.16.87 17.84.76 26.04-11.22 6.81-31.17 12.01-51.42 9.8z"/><path d="m2742.12 3053.41c3.64-6.3 6.65-13.7 8.87-22.27 13.19 2.28 35.63 3.21 53.35-6.16-1.3 10.16-3.23 19.42-5.69 27.86-15.13 5.21-34.52 7.92-56.53.57z"/><path d="m2701.89 3081.97c7.42-1.15 14.55-3.74 21.06-7.93 12.99 8.17 37.03 14.95 63.26 8.45-9.06 15.7-20.5 27.03-32.82 35.09-20.83-4.31-43.45-14.08-51.5-35.61z"/><path d="m2713.33 3133.48c-26.98 5.22-50.75.68-56.33-2.48-21-21-24.5-43.5-8.5-63.5 7.67 5.5 16.03 9.64 24.59 12.19-3.77 16.1-1.84 35.38 40.24 53.79z"/><path d="m2555.78 2871.9c3.22-20.23-3.82-37.91-11.37-49.82-17.74 2.58-32.46 9.95-36.91 12.92 15.5 8 25.5 29.5 18.5 58 13-8 24.5-16.5 29.5-21 .09-.04.19-.07.28-.1z"/></g><g stroke="#333" stroke-linecap="round" stroke-linejoin="round" stroke-width="5"><path d="m2623.77 2810.04c-13.15-1.07-26.35-.76-39.34 1.08 8.96 9.71 19.53 27.99 9.1 51.47 10.86-1.33 21.39-1.47 31.51-.58 9.26-13.72 12.71-37.74-1.27-51.97z"/><path d="m2687 2881.69c-9.46-5.46-19.74-10.07-30.71-13.5 15.56-14.75 17.04-34.53 11.52-49.47 11.7 3.66 23.11 8.32 34.04 13.86 5.55 20.78-3.14 39.33-14.85 49.11z"/><path d="m2725.75 2913.27c-5.12-5.78-10.85-11.35-17.14-16.55 17.36-7.53 24.57-26.9 21.81-46.86 9.71 6.91 18.78 14.56 27.03 22.83-2.23 21.72-18.72 34.55-31.7 40.58z"/><path d="m2750.99 2956.14c-2.37-7.6-5.97-15.44-10.68-23.19 12.07-3.85 30.25-14.76 36.63-37.44 7.29 10.08 13.41 20.77 18.1 31.91-7.2 11.1-23.57 24.97-44.05 28.72z"/><path d="m2754.84 3006.34c.5-7.44.54-15.48.07-24.16 14.52-.92 36.95-6.02 49.27-23.24.61 3.82 1.06 7.68 1.32 11.56.62 9.16.87 17.84.76 26.04-11.22 6.81-31.17 12.01-51.42 9.8z"/><path d="m2742.12 3053.41c3.64-6.3 6.65-13.7 8.87-22.27 13.19 2.28 35.63 3.21 53.35-6.16-1.3 10.16-3.23 19.42-5.69 27.86-15.13 5.21-34.52 7.92-56.53.57z"/><path d="m2701.89 3081.97c7.42-1.15 14.55-3.74 21.06-7.93 12.99 8.17 37.03 14.95 63.26 8.45-9.06 15.7-20.5 27.03-32.82 35.09-20.83-4.31-43.45-14.08-51.5-35.61z"/><path d="m2713.33 3133.48c-26.98 5.22-50.75.68-56.33-2.48-21-21-24.5-43.5-8.5-63.5 7.67 5.5 16.03 9.64 24.59 12.19-3.77 16.1-1.84 35.38 40.24 53.79z"/><path d="m2555.78 2871.9c3.22-20.23-3.82-37.91-11.37-49.82-17.74 2.58-32.46 9.95-36.91 12.92 15.5 8 25.5 29.5 18.5 58 13-8 24.5-16.5 29.5-21 .09-.04.19-.07.28-.1z"/></g><path d="m2786.65 2965.53c11.06 51.02-1.65 116.97-36.65 154.47 54-33 64.9-109.95 52.65-166.47-16.13-74.41-87.39-130.24-160.73-141.6-32.98-5.09-66.16-1.52-96.92 9.57-13 2-27 7-37.5 13 3 2.5 6.5 4.5 10 9.05 109.15-41.03 241.29-6.52 269.15 121.98z" fill="#000" fill-opacity=".3"/><path d="m2717.5 3076.5c-20.15 23.44-52.15 21.97-78.5 9.18 2-7.18 5-14.18 9.5-17.68 21.65 12.9 47.11 20.15 69 8.5z" fill="#000" fill-opacity=".3"/></svg>