<svg xmlns="http://www.w3.org/2000/svg" width="4000" height="4000" fill="none" xmlns:v="https://vecta.io/nano"><path d="M2976.23 1736.4c-121.06-54.2-253.46-96.24-388.2-137.05l-58.77-17.7c-115.67-34.78-232.13-69.8-343.95-111.88-261.52-98.43-497.12-235.32-636.6-497.434-3.16-5.928-9.2-7.875-15.52-7.51-6.28.36-13.3 2.98-19.48 6.763-6.2 3.786-11.85 8.896-15.28 14.498s-4.83 12.07-1.65 18.064c133.88 267.74 378.8 410.52 649.7 513.15 118.14 44.75 241.32 81.9 362.46 118.45l53.12 16.05c138.08 41.88 272.12 84.3 391.7 137.8 8.37 3.75 16.13 3.26 22.48.01 6.3-3.2 11-9 13.63-15.6 5.24-13.07 2.6-30.35-13.64-37.62z" fill="#1a1a1a" stroke="#333" stroke-width="5" stroke-linejoin="round"/><path d="M1510.07 977.13c-9.37 7.302-15.57 17.4-11.07 25.87 191.65 383.3 611.7 510 1010.66 630.34 156.67 47.26 310.08 93.53 445.13 153.98 22 9.84 37.9-12.43 34.6-30.76-6.22 5.16-14.8 7.14-24.6 2.76-135.05-60.45-288.46-106.72-445.13-153.98-398.2-120.1-817.45-246.57-1009.6-628.2z" fill="#000"/><path d="M2228.5 1369.45h0c-157.64 30.07-260.02 152.3-260.02 308.77 0 130.88 59.82 254.18 141.35 338.2 81.43 83.93 185.13 129.25 272.97 102.75 85.74-25.86 142.28-97.37 178.28-175.63 36-78.3 51.67-163.77 55.4-218.38 5.3-77.3-19.56-179.87-81.8-256.3-62.36-76.6-162.16-126.86-306.2-99.4z" fill="#1a1a1a" stroke="#333" stroke-width="5" stroke-miterlimit="10"/><path d="M2586.75 1868.48c-224.9 310.9-590.47-113.18-540.72-395.92-47.88 54.16-75.04 125.36-75.04 205.66 0 260.28 238 490.78 411.1 438.57 111.23-33.55 173.14-144.95 204.66-248.3z" fill="#000" fill-opacity=".85"/></svg>