<svg fill="none" height="4000" viewBox="0 0 4000 4000" width="4000" xmlns="http://www.w3.org/2000/svg"><path d="m2976.23 1736.4c-121.06-54.19-253.46-96.24-388.21-137.05-19.55-5.92-39.15-11.81-58.77-17.71-115.67-34.78-232.13-69.8-343.95-111.88-261.52-98.43-497.12-235.32-636.59-497.434-3.16-5.928-9.21-7.875-15.52-7.511-6.28.361-13.29 2.98-19.48 6.763-6.2 3.786-11.85 8.896-15.28 14.498-3.43 5.599-4.83 12.071-1.65 18.064 133.88 267.74 378.8 410.52 649.71 513.15 118.14 44.75 241.32 81.91 362.46 118.45 17.75 5.36 35.47 10.7 53.12 16.05 138.08 41.88 272.12 84.29 391.69 137.81 8.37 3.75 16.13 3.26 22.48.01 6.29-3.21 10.99-9.01 13.63-15.59 5.24-13.07 2.61-30.35-13.64-37.62z" fill="#1a1a1a" stroke="#333" stroke-linecap="round" stroke-linejoin="round" stroke-width="5"/><path d="m1510.07 977.13c-9.37 7.302-15.57 17.41-11.07 25.87 191.65 383.3 611.71 510 1010.66 630.34 156.67 47.26 310.08 93.53 445.13 153.98 21.99 9.84 37.9-12.43 34.59-30.76-6.22 5.16-14.8 7.14-24.59 2.76-135.05-60.45-288.46-106.72-445.13-153.98-398.21-120.11-817.45-246.57-1009.59-628.21z" fill="#000"/><path d="m2228.51 1369.45c-157.64 30.07-260.02 152.3-260.02 308.77 0 130.88 59.82 254.18 141.35 338.21 81.43 83.93 185.13 129.25 272.97 102.75 85.74-25.86 142.28-97.37 178.28-175.63 36.01-78.3 51.67-163.77 55.4-218.38 5.29-77.31-19.56-179.87-81.79-256.31-62.36-76.61-162.16-126.86-306.19-99.41z" fill="#1a1a1a" stroke="#333" stroke-miterlimit="10" stroke-width="5"/><path d="m2586.75 1868.48c-224.91 310.91-590.47-113.18-540.72-395.92-47.88 54.16-75.04 125.36-75.04 205.66 0 260.28 238.01 490.78 411.1 438.57 111.23-33.55 173.14-144.95 204.66-248.31z" fill="#000" fill-opacity=".85"/></svg>