<svg xmlns="http://www.w3.org/2000/svg" width="4000" height="4000" fill="none" xmlns:v="https://vecta.io/nano"><path d="M2378 2112c207.1 0 375-167.9 375-375s-167.9-375-375-375-375 167.9-375 375 167.9 375 375 375zm-756 0c207.1 0 375-167.9 375-375s-167.9-375-375-375-375 167.9-375 375 167.9 375 375 375z" fill-opacity=".5" fill="#00f3ff" stroke="#333" stroke-width="35"/><path d="M2954.5 1777.5c-56.5-29.5-113-17.5-169.5-13.5-56.82 4.02-61.24-92.5-2-92.5 39.5 0 162 41 191 85.5 9.43 14.47-5.05 28.04-19.5 20.5zm-1909 0c56.5-29.5 113-17.5 169.5-13.5 56.82 4.02 61.24-92.5 2-92.5-39.5 0-162 41-191 85.5-9.43 14.47 5.05 28.04 19.5 20.5z" fill="#333"/></svg>