<svg fill="none" height="4000" viewBox="0 0 4000 4000" width="4000" xmlns="http://www.w3.org/2000/svg"><path d="m2378 2112c207.11 0 375-167.89 375-375s-167.89-375-375-375-375 167.89-375 375 167.89 375 375 375z" fill="#0f0" fill-opacity=".5" stroke="#333" stroke-width="35"/><path d="m1622 2112c207.11 0 375-167.89 375-375s-167.89-375-375-375-375 167.89-375 375 167.89 375 375 375z" fill="#0f0" fill-opacity=".5" stroke="#333" stroke-width="35"/><g fill="#333"><path d="m2954.5 1777.5c-56.5-29.5-113-17.5-169.5-13.5-56.82 4.02-61.24-92.5-2-92.5 39.5 0 162 41 191 85.5 9.43 14.47-5.05 28.04-19.5 20.5z"/><path d="m1045.5 1777.5c56.5-29.5 113-17.5 169.5-13.5 56.82 4.02 61.24-92.5 2-92.5-39.5 0-162 41-191 85.5-9.43 14.47 5.05 28.04 19.5 20.5z"/></g></svg>