<svg fill="none" height="4000" viewBox="0 0 4000 4000" width="4000" xmlns="http://www.w3.org/2000/svg"><ellipse cx="2269.5" cy="1730.5" fill="#aefffd" fill-opacity=".4" rx="300.5" ry="322.5"/><g clip-rule="evenodd" fill-rule="evenodd"><path d="m2885.98 1802.54c38.05 13.36 77.21.48 87.48-28.77 10.26-29.24-12.25-63.78-50.3-77.13-38.04-13.36-77.2-.48-87.47 28.77-10.27 29.24 12.25 63.77 50.29 77.13zm11.22-28.9c19.74 6.93 39.5 1.84 44.14-11.36 4.63-13.21-7.61-29.53-27.34-36.46-19.74-6.93-39.5-1.84-44.14 11.36-4.63 13.21 7.61 29.54 27.34 36.46z" fill="#f7ca4d" stroke="#333" stroke-width="5"/><path d="m2973.52 1761.4c-10.27 29.25-49.43 42.13-87.47 28.77-29.32-10.29-49.41-33.15-52.39-56.48-3.92 27.2 17.82 56.74 52.32 68.85 38.04 13.36 77.2.48 87.47-28.77 2.36-6.71 2.99-13.7 2.1-20.65-.4 2.8-1.07 5.56-2.03 8.28zm-103.56-24.5c4.82-12.99 24.44-17.96 44.03-11.08 13.96 4.9 24.17 14.5 27.31 24.37.03-.09.07-.19.1-.28 4.64-13.21-7.6-29.53-27.34-36.46s-39.49-1.84-44.13 11.36c-1.36 3.87-1.27 8.01.03 12.09z" fill="#000" fill-opacity=".15"/><path d="m2784.01 1781.18c40.17 3.51 74.92-18.68 77.61-49.56 2.7-30.88-27.68-58.75-67.84-62.26-40.17-3.5-74.92 18.69-77.61 49.56-2.7 30.88 27.68 58.75 67.84 62.26zm3.71-30.78c20.84 1.82 38.72-8.01 39.94-21.95 1.21-13.95-14.69-26.73-35.53-28.55-20.84-1.81-38.72 8.02-39.94 21.96-1.21 13.95 14.69 26.72 35.53 28.54z" fill="#f7ca4d" stroke="#333" stroke-width="5"/><path d="m2858.62 1719.62c-2.69 30.88-37.44 53.07-77.61 49.56-30.94-2.7-56.08-19.87-64.76-41.73 2.96 27.33 31.34 50.55 67.76 53.73 40.17 3.51 74.92-18.68 77.61-49.56.62-7.09-.5-14.01-3.09-20.52.31 2.8.34 5.65.09 8.52zm-106.4 1.94c1.45-13.78 19.22-23.46 39.91-21.65 14.74 1.28 27.01 8.05 32.5 16.83.01-.09.02-.19.03-.29 1.21-13.95-14.69-26.73-35.53-28.55-20.84-1.81-38.72 8.02-39.94 21.96-.35 4.08.76 8.07 3.03 11.7z" fill="#000" fill-opacity=".15"/><path d="m2668.14 1775.24c40.16 3.5 74.91-18.69 77.6-49.56 2.7-30.88-27.68-58.75-67.84-62.26-40.17-3.51-74.92 18.68-77.61 49.56-2.7 30.88 27.68 58.75 67.85 62.26zm3.7-30.78c20.84 1.82 38.72-8.01 39.94-21.96 1.21-13.94-14.69-26.72-35.53-28.54s-38.72 8.01-39.93 21.96c-1.22 13.94 14.68 26.72 35.52 28.54z" fill="#f7ca4d" stroke="#333" stroke-width="5"/><path d="m2742.74 1713.68c-2.69 30.87-37.44 53.06-77.6 49.56-30.95-2.71-56.09-19.87-64.76-41.74 2.95 27.33 31.33 50.56 67.76 53.74 40.16 3.5 74.91-18.69 77.6-49.56.62-7.09-.5-14.02-3.08-20.53.3 2.81.33 5.65.08 8.53zm-106.4 1.94c1.45-13.79 19.22-23.47 39.91-21.66 14.74 1.29 27.01 8.06 32.5 16.84.01-.1.02-.2.03-.3 1.21-13.94-14.69-26.72-35.53-28.54s-38.72 8.01-39.94 21.96c-.35 4.08.76 8.06 3.03 11.7z" fill="#000" fill-opacity=".15"/><path d="m2269.5 2107c193.58 0 350.5-168.56 350.5-376.5s-156.92-376.5-350.5-376.5-350.5 168.56-350.5 376.5 156.92 376.5 350.5 376.5zm0-81c152.15 0 275.5-132.3 275.5-295.5s-123.35-295.5-275.5-295.5-275.5 132.3-275.5 295.5 123.35 295.5 275.5 295.5z" fill="#f7ca4d"/></g><path d="m2617.5 1730.5c0 206.73-155.97 374-348 374v5c195.12 0 353-169.86 353-379zm-348-374c192.03 0 348 167.27 348 374h5c0-209.14-157.88-379-353-379zm-348 374c0-206.73 155.97-374 348-374v-5c-195.12 0-353 169.86-353 379zm348 374c-192.03 0-348-167.27-348-374h-5c0 209.14 157.88 379 353 379zm273-374c0 161.99-122.39 293-273 293v5c153.7 0 278-133.59 278-298zm-273-293c150.61 0 273 131.01 273 293h5c0-164.41-124.3-298-278-298zm-273 293c0-161.99 122.39-293 273-293v-5c-153.7 0-278 133.59-278 298zm273 293c-150.61 0-273-131.01-273-293h-5c0 164.41 124.3 298 278 298z" fill="#333"/><path clip-rule="evenodd" d="m2046.48 1440.04c56.91-42.88 126.23-68.04 201.02-68.04 193.58 0 350.5 168.56 350.5 376.5 0 116.93-49.62 221.41-127.48 290.46 90.39-68.09 149.48-180.86 149.48-308.46 0-207.94-156.92-376.5-350.5-376.5-84.72 0-162.42 32.29-223.02 86.04zm378.75 534.25c-44.3 32.62-97.94 51.71-155.73 51.71-152.15 0-275.5-132.3-275.5-295.5 0-90.55 37.97-171.59 97.77-225.79-72.33 53.25-119.77 142.58-119.77 243.79 0 163.2 123.35 295.5 275.5 295.5 67.73 0 129.75-26.22 177.73-69.71z" fill="#000" fill-opacity=".15" fill-rule="evenodd"/></svg>