<svg fill="none" height="4000" viewBox="0 0 4000 4000" width="4000" xmlns="http://www.w3.org/2000/svg"><g clip-rule="evenodd" fill="#333" fill-rule="evenodd"><path d="m2231.56 1562.88c-153.76 24.26-309.16 22.65-463.02.01-12.76-1.87-9.84-21.66 2.92-19.78 151.85 22.34 305.22 23.96 456.98.01 12.74-2.01 15.86 17.75 3.12 19.76z"/><path d="m1923 1647.3c48.59-19.25 105.41-19.25 154.01 0 2.99-7.3 4.49-11.3 7.36-18.6-53.29-21.1-115.45-21.1-168.74 0 2.37 6.3 4.37 11.3 7.37 18.6z"/><path d="m2637.67 1699.28c108.17-25.93 247.69-6.77 338.42 62.78 10.23 7.85-1.94 23.72-12.17 15.88-85.06-65.21-218.1-84.02-321.59-59.22-12.54 3.01-17.2-16.44-4.66-19.44z"/><path d="m1362.33 1699.28c-108.16-25.93-247.69-6.77-338.41 62.78-10.24 7.85 1.93 23.72 12.16 15.88 85.06-65.21 218.1-84.02 321.59-59.22 12.54 3.01 17.2-16.44 4.66-19.44z"/></g><path d="m2029 1718.81c.79 90.62 51.37 202.08 124.48 290.81 73.04 88.64 169.8 156.04 264 156.38 93.95.34 160.15-45.94 202.48-111.78 42.2-65.65 60.73-150.74 60.04-228.89-.61-70.09-15.75-122.75-40.49-162.21-24.75-39.48-58.89-65.39-96.88-82.32-73.76-32.88-162.51-32.07-226.36-31.49-1.66.01-3.31.03-4.93.04l.04 5-.04-5c-106.58.93-177.27 23.04-221.35 55.2-44.25 32.29-61.34 74.46-60.99 114.26zm0 0 5-.04z" fill="#fff992" stroke="#333" stroke-miterlimit="10" stroke-width="10"/><path d="m2402.5 2093c195.79.7 273.65-214.69 254.86-380.83 10.9 31.21 17.25 68.54 17.64 113.2 1.36 154.89-73.52 336.29-257.5 335.63-174.33-.63-361.22-237.17-381.66-413.54 51.72 163.54 214.01 344.99 366.66 345.54z" fill="#000" fill-opacity=".1"/><path d="m1970.99 1718.81c-.78 90.62-51.36 202.08-124.48 290.81-73.04 88.64-169.79 156.04-264 156.38-93.94.34-160.15-45.94-202.47-111.78-42.2-65.65-60.73-150.74-60.04-228.89.61-70.09 15.75-122.75 40.48-162.21 24.76-39.48 58.9-65.39 96.89-82.32 73.75-32.88 162.51-32.07 226.36-31.49 1.66.01 3.3.03 4.93.04l-.04 5 .04-5c106.58.93 177.26 23.04 221.34 55.2 44.25 32.29 61.34 74.46 60.99 114.26zm0 0-5-.04z" fill="#fff992" stroke="#333" stroke-miterlimit="10" stroke-width="10"/><path d="m1597.5 2093c-195.8.7-273.65-214.69-254.86-380.83-10.91 31.21-17.25 68.54-17.64 113.2-1.36 154.89 73.52 336.29 257.5 335.63 174.32-.63 361.21-237.17 381.66-413.54-51.72 163.54-214.01 344.99-366.66 345.54z" fill="#000" fill-opacity=".1"/></svg>