<svg xmlns="http://www.w3.org/2000/svg" width="4000" height="4000" fill="none" xmlns:v="https://vecta.io/nano"><path d="M2616.25 1600.5h-1232.5c-48.96 0-97.36 10.27-142.1 30.14l-211.56 94c-22.94 10.2-15.46 68.7 13.04 60.02 86.45-26.34 175.57-64.6 265.02-78.7-10.8 142.78 75.66 412.56 331.6 412.56 260.5 0 360.48-251.17 349.43-415h21.9c-12 142.12 74 415 331.4 415 259.2 0 359.47-248.65 349.6-412.53 89.38 14.2 178.4 52.36 264.8 78.68 28.5 8.68 35.98-49.83 13.04-60.02l-211.56-94c-44.73-19.87-93.14-30.14-142.1-30.14z" fill="#000"/><path d="M1856.96 1974.67c-198.23 161.17-482.38 0-482.38-246.17 93.62 165 294.5 263.6 482.38 246.17zm702.74 0c-198.23 161.17-482.38 0-482.38-246.17 93.62 165 294.5 263.6 482.38 246.17z" fill="#fff"/></svg>