<svg xmlns="http://www.w3.org/2000/svg" width="4000" height="4000" fill="none" xmlns:v="https://vecta.io/nano"><path d="M2231.56 1562.88c-153.76 24.26-309.16 22.65-463.02.01-12.76-1.87-9.84-21.66 2.92-19.78 151.85 22.34 305.22 23.96 456.98.01 12.74-2 15.86 17.75 3.12 19.76zM1923 1647.3c48.6-19.25 105.4-19.25 154 0l7.36-18.6c-53.3-21.1-115.45-21.1-168.74 0 2.37 6.3 4.37 11.3 7.37 18.6zm714.67 51.98c108.16-25.93 247.7-6.77 338.4 62.78 10.24 7.85-1.93 23.72-12.16 15.88-85.06-65.2-218.1-84.02-321.6-59.22-12.54 3-17.2-16.44-4.66-19.44zm-1275.34 0c-108.16-25.93-247.7-6.77-338.4 62.78-10.24 7.85 1.93 23.72 12.16 15.88 85.06-65.2 218.1-84.02 321.6-59.22 12.54 3 17.2-16.44 4.66-19.44z" fill-rule="evenodd" fill="#b99e78"/><path d="M2029 1718.8c.8 90.62 51.37 202.08 124.48 290.8 73.04 88.64 169.8 156.04 264 156.38 93.95.34 160.15-45.94 202.48-111.78 42.2-65.65 60.73-150.74 60.04-228.9-.6-70.1-15.75-122.75-40.5-162.2-24.75-39.48-58.9-65.4-96.88-82.32-73.76-32.88-162.5-32.07-226.36-31.5l-4.93.04.04 5-.04-5c-106.58.93-177.27 23.04-221.35 55.2-44.25 32.3-61.34 74.46-61 114.26zm0 0l5-.04-5 .04z" fill="#92ff92" stroke="#b99e78" stroke-width="10" stroke-miterlimit="10"/><path d="M2402.5 2093c195.8.7 273.65-214.7 254.86-380.83 10.9 31.2 17.25 68.54 17.64 113.2 1.36 154.9-73.52 336.3-257.5 335.63-174.33-.63-361.22-237.17-381.66-413.54 51.72 163.54 214 345 366.66 345.54z" fill="#000" fill-opacity=".1"/><path d="M1971 1718.8c-.78 90.62-51.36 202.08-124.48 290.8-73.04 88.64-169.8 156.04-264 156.38-93.94.34-160.15-45.94-202.47-111.78-42.2-65.65-60.73-150.74-60.04-228.9.6-70.1 15.75-122.75 40.48-162.2 24.76-39.48 58.9-65.4 96.9-82.32 73.75-32.88 162.5-32.07 226.36-31.5l4.93.04-.04 5 .04-5c106.58.93 177.26 23.04 221.34 55.2 44.25 32.3 61.34 74.46 61 114.26zm0 0l-5-.04 5 .04z" fill="#92ff92" stroke="#b99e78" stroke-width="10" stroke-miterlimit="10"/><path d="M1597.5 2093c-195.8.7-273.64-214.7-254.85-380.83-10.9 31.2-17.25 68.54-17.65 113.2-1.36 154.9 73.52 336.3 257.5 335.63 174.33-.63 361.22-237.17 381.67-413.54-51.72 163.54-214 345-366.67 345.54z" fill="#000" fill-opacity=".1"/></svg>