<svg fill="none" height="4000" viewBox="0 0 4000 4000" width="4000" xmlns="http://www.w3.org/2000/svg"><path d="m2616.25 1600.5h-1232.5c-48.96 0-97.36 10.27-142.1 30.14l-211.56 93.99c-22.94 10.19-15.46 68.7 13.04 60.02 86.45-26.34 175.57-64.61 265.02-78.71-10.81 142.78 75.66 412.56 331.6 412.56 260.5 0 360.48-251.17 349.43-415h21.9c-11.99 142.12 74.01 415 331.41 415 259.19 0 359.47-248.65 349.59-412.53 89.38 14.2 178.39 52.36 264.79 78.68 28.5 8.68 35.98-49.83 13.04-60.02l-211.56-93.99c-44.73-19.87-93.14-30.14-142.1-30.14z" fill="#000"/><g fill="#fff"><path d="m1856.96 1974.67c-198.23 161.17-482.38 0-482.38-246.17 93.62 165 294.51 263.59 482.38 246.17z"/><path d="m2559.7 1974.67c-198.23 161.17-482.38 0-482.38-246.17 93.62 165 294.51 263.59 482.38 246.17z"/></g></svg>