<svg xmlns="http://www.w3.org/2000/svg" width="40" height="40" fill="none" xmlns:v="https://vecta.io/nano"><path d="M36 4H4.0028l-.0003 31.9977H36V4zm-5.7596 8.2274l-1.632 1.564c-.144.108-.212.284-.184.456v11.5072c-.028.176.04.352.184.456l1.6 1.564v.348H22.177v-.332l1.652-1.604c.164-.164.164-.212.164-.456V16.419l-4.5996 11.6632h-.62L13.4216 16.419v7.8195c-.048.328.068.66.3.896l2.1518 2.6038v.348H9.762v-.348l2.1518-2.6038c.1134-.117.1977-.259.2464-.4147s.06-.3204.0336-.4812v-9.0394c.028-.252-.068-.496-.26-.668l-1.912-2.304v-.348h5.9396l4.5837 10.0593 4.0357-10.0513h5.6596v.34z" fill="#000"/></svg>