<svg xmlns="http://www.w3.org/2000/svg" width="40" height="40" fill="none" xmlns:v="https://vecta.io/nano"><path d="M20.002 3.25C10.6083 3.2462 3 10.8507 3 20.2367 3 27.659 7.7595 33.968 14.3878 36.2852c.8926.224.756-.4102.756-.8433V32.498c-5.1545.604-5.3634-2.807-5.709-3.3768-.699-1.1927-2.3513-1.4966-1.8574-2.0664 1.1737-.604 2.3702.152 3.7567 2.1993 1.0028 1.4852 2.96 1.2345 3.9504.9876.2165-.8926.68-1.6903 1.318-2.3094-5.3407-.9572-7.5665-4.2163-7.5665-8.0907 0-1.8803.619-3.6086 1.8347-5.0026-.775-2.298.0722-4.2657.186-4.5582 2.207-.1975 4.5012 1.5802 4.6797 1.7207 1.2535-.338 2.6855-.5165 4.2885-.5165 1.6105 0 3.0464.186 4.3112.528.4293-.3266 2.5564-1.8536 4.6076-1.6675.11.2925.9382 2.2145.209 4.4822 1.2307 1.3978 1.8574 3.1413 1.8574 5.0254 0 3.882-2.241 7.145-7.597 8.087.4588.451.823.989 1.0715 1.5826s.3762 1.2306.3757 1.874v4.2732c.0304.342 0 .68.5698.68C32.157 34.082 37 27.7273 37 20.2405 37 10.8507 29.388 3.25 20.002 3.25z" fill="#000"/></svg>