<svg xmlns="http://www.w3.org/2000/svg" width="40" height="40" fill="none" xmlns:v="https://vecta.io/nano"><path d="M19.9956 11.5338c-4.685 0-8.466 3.781-8.466 8.466s3.78 8.466 8.466 8.466 8.466-3.78 8.466-8.466-3.78-8.466-8.466-8.466zm0 13.968c-3.0298 0-5.5023-2.4725-5.5023-5.5022s2.4725-5.5022 5.5023-5.5022 5.5022 2.4725 5.5022 5.5022-2.4725 5.5022-5.5022 5.5022zm8.8126-16.288a1.975 1.975 0 0 0 0 3.9543c1.094 0 1.9772-.8792 1.9772-1.977.0003-.2598-.0506-.517-.1498-.757s-.245-.458-.4286-.6417a1.974 1.974 0 0 0-.6417-.4285 1.975 1.975 0 0 0-.7571-.1498zm7.7 10.7857c0-2.2785.0206-4.5364-.1074-6.8107-.128-2.6418-.7306-4.9863-2.6623-6.918s-4.2763-2.5344-6.918-2.6624c-2.2785-.128-4.5363-.1073-6.8107-.1073s-4.5364-.0206-6.8107.1073c-2.6418.128-4.9863.7306-6.918 2.6624s-2.5344 4.2763-2.6624 6.918c-.128 2.2785-.1073 4.5363-.1073 6.8107s-.0206 4.5363.1073 6.8107c.128 2.6418.7306 4.9863 2.6624 6.918s4.2763 2.5344 6.918 2.6623c2.2785.128 4.5363.1074 6.8107.1074s4.5363.0206 6.8107-.1074c2.6418-.128 4.9863-.7306 6.918-2.6623s2.5344-4.2763 2.6623-6.918c.132-2.2744.1074-4.5322.1074-6.8107zm-3.6324 9.733c-.3014.7513-.6646 1.3126-1.2466 1.8905s-1.1392.9453-1.8905 1.2466c-2.1712.8627-7.3267.6687-9.733.6687s-7.566.194-9.7373-.6646c-.7513-.3013-1.3126-.6645-1.8905-1.2465s-.9453-1.1393-1.2466-1.8905c-.8586-2.1753-.6646-7.331-.6646-9.7373s-.194-7.566.6646-9.7373c.3013-.7512.6646-1.3126 1.2466-1.8905s1.1392-.9453 1.8905-1.2466c2.1712-.8586 7.3308-.6646 9.7373-.6646s7.566-.194 9.7372.6646c.7513.3013 1.3127.6646 1.8905 1.2466s.9453 1.1392 1.2466 1.8905c.8586 2.1712.6646 7.3308.6646 9.7373s.194 7.562-.6687 9.733z" fill="#000"/></svg>