<svg xmlns="http://www.w3.org/2000/svg" width="20" height="20" fill="none" xmlns:v="https://vecta.io/nano"><path d="M18.5 4.64c-.625.27-1.305.464-2.006.54.727-.432 1.272-1.115 1.532-1.92a6.88 6.88 0 0 1-2.21.842c-.326-.348-.72-.626-1.158-.816S13.747 3 13.27 3c-1.93 0-3.483 1.565-3.483 3.485a4 4 0 0 0 .086.799 9.9 9.9 0 0 1-7.183-3.647 3.46 3.46 0 0 0-.474 1.759c0 1.21.615 2.276 1.553 2.903-.553-.022-1.092-.174-1.575-.443V7.9c0 1.694 1.197 3.097 2.793 3.42a3.69 3.69 0 0 1-.917.118 4.64 4.64 0 0 1-.658-.053 3.49 3.49 0 0 0 3.257 2.417 6.98 6.98 0 0 1-4.325 1.489 7.12 7.12 0 0 1-.842-.043c1.545.99 3.377 1.563 5.35 1.563 6.407 0 9.913-5.308 9.913-9.915 0-.15 0-.302-.01-.454.678-.496 1.273-1.11 1.747-1.802z" fill="#000"/></svg>