<svg width="24" height="24" viewBox="0 0 24 24" fill="none" xmlns="http://www.w3.org/2000/svg">
<path fill-rule="evenodd" clip-rule="evenodd" d="M6.5 6.5C6.5 6.22386 6.72386 6 7 6H20C20.2761 6 20.5 6.22386 20.5 6.5V7.5C20.5 7.77614 20.2761 8 20 8H7C6.72386 8 6.5 7.77614 6.5 7.5V6.5ZM2.5 11.5C2.5 11.2239 2.72386 11 3 11H20C20.2761 11 20.5 11.2239 20.5 11.5V12.5C20.5 12.7761 20.2761 13 20 13H3C2.72386 13 2.5 12.7761 2.5 12.5V11.5ZM7 16C6.72386 16 6.5 16.2239 6.5 16.5V17.5C6.5 17.7761 6.72386 18 7 18H20C20.2761 18 20.5 17.7761 20.5 17.5V16.5C20.5 16.2239 20.2761 16 20 16H7Z" fill="black"/>
</svg>
