<svg xmlns="http://www.w3.org/2000/svg" width="40" height="40" fill="none" xmlns:v="https://vecta.io/nano"><path d="M20 37c-9.3888 0-17-7.6112-17-17S10.6112 3 20 3s17 7.6112 17 17-7.6112 17-17 17zm10.9043-17.0813c.0156-1.3422-1.0522-2.444-2.3874-2.4633a2.357 2.357 0 0 0-1.6627.7038c-1.8796-1.322-4.1056-2.0564-6.399-2.1113l1.0956-5.3136 3.56.7882c.0703.9262.8617 1.6276 1.7846 1.5814s1.6412-.823 1.6195-1.7518-.7753-1.6708-1.6993-1.6735c-.657.006-1.2513.3926-1.5262.9923l-3.973-.8973a.404.404 0 0 0-.3115.0633.384.384 0 0 0-.1751.2815l-1.2146 5.9295c-2.3272.0337-4.5906.7692-6.497 2.1113-.4394-.447-1.0375-.7003-1.6627-.7038-1.3346.0193-2.4014 1.1217-2.384 2.4633-.0103.96.5364 1.8403 1.4002 2.252-.0397.2478-.0596.4985-.0595.7495 0 3.8146 4.2846 6.9183 9.567 6.9183s9.567-3.0826 9.567-6.9183a4.925 4.925 0 0 0-.0595-.7495c.863-.4155 1.4136-1.2903 1.4177-2.252zM14.508 21.6782c.025-.94.799-1.6844 1.7343-1.6678s1.6826.788 1.6745 1.7283-.7685 1.6986-1.704 1.699c-.953-.0154-1.7145-.8015-1.7048-1.7594zm9.5284 4.6907c-1.1727 1.2176-3.4025 1.2915-4.05 1.2915s-2.895-.102-4.05-1.2985c-.1743-.1803-.1743-.4673 0-.6475a.426.426 0 0 1 .6266 0c.742.7706 2.3103 1.0346 3.4235 1.0346s2.699-.264 3.4235-1.0346a.426.426 0 0 1 .6266 0 .502.502 0 0 1 0 .6545zm-.3116-2.8996c-.712.02-1.365-.3957-1.6515-1.0513s-.15-1.4204.3475-1.9338 1.253-.6733 1.913-.404 1.092.9137 1.0923 1.6297c.0098.9566-.7498 1.7422-1.7013 1.7595z" fill="#000"/></svg>