<svg xmlns="http://www.w3.org/2000/svg" width="40" height="40" fill="none" xmlns:v="https://vecta.io/nano"><path d="M37 9.281c-1.2503.5394-2.61.9275-4.0125 1.0787a6.95 6.95 0 0 0 3.0645-3.8409c-1.3654.8123-2.8612 1.3818-4.421 1.6835-.652-.697-1.4404-1.2522-2.3163-1.631S27.494 5.998 26.5397 6c-3.8613 0-6.9667 3.13-6.9667 6.9708 0 .5394.0654 1.0787.1716 1.5977C13.963 14.266 8.8063 11.504 5.378 7.275c-.6246 1.067-.952 2.2818-.948 3.518 0 2.419 1.23 4.5518 3.1054 5.8062a7.028 7.028 0 0 1-3.1503-.8866v.0858c0 3.3873 2.3944 6.1944 5.5856 6.84a7.38 7.38 0 0 1-1.8346.237c-.4535 0-.8826-.045-1.3157-.1062.8826 2.762 3.4527 4.7684 6.5132 4.8338-2.3944 1.8754-5.3936 2.9787-8.65 2.9787-.5843 0-1.1237-.0204-1.6834-.0858 3.089 1.9817 6.7542 3.1258 10.7014 3.1258 12.8138 0 19.8255-10.6156 19.8255-19.8296 0-.3024 0-.6047-.0205-.907C34.863 11.892 36.052 10.6622 37 9.281z" fill="#000"/></svg>