<svg xmlns="http://www.w3.org/2000/svg" width="40" height="40" fill="none" xmlns:v="https://vecta.io/nano"><path fill-rule="evenodd" d="M37 20c0 9.3925-7.6075 17-17 17S3 29.3925 3 20 10.6075 3 20 3s17 7.6075 17 17zm-20.2423 3.139l-.3456 4.1474v.1416c.425 0 .6092-.1983.85-.425l2.0433-1.9848 4.2467 3.1323c.7792.425 1.3458.2125 1.5442-.7225l2.7908-13.1466c.2833-1.1475-.4392-1.6575-1.2-1.3175L10.3204 19.282c-1.119.4533-1.105 1.0767-.1983 1.3458l4.2075 1.3175 9.7325-6.134c.4533-.2834.8783-.1275.5383.184l-7.905 7.0975.0623.046z" fill="#000"/></svg>