<svg xmlns="http://www.w3.org/2000/svg" width="20" height="20" fill="none" xmlns:v="https://vecta.io/nano"><path d="M10 1.625c-4.697-.002-8.5 3.8-8.5 8.493 0 3.71 2.38 6.866 5.694 8.024.446.112.378-.205.378-.422V16.25c-2.577.302-2.682-1.404-2.855-1.688-.35-.596-1.176-.748-.93-1.033.587-.302 1.185.076 1.878 1.1.5.743 1.48.617 1.975.494.108-.446.34-.845.66-1.155-2.67-.48-3.783-2.108-3.783-4.045 0-.94.3-1.804.917-2.5-.387-1.15.036-2.133.093-2.28 1.103-.1 2.25.8 2.34.86.627-.17 1.343-.258 2.144-.258s1.523.093 2.156.264c.215-.163 1.278-.927 2.304-.834.055.146.47 1.107.104 2.24a3.74 3.74 0 0 1 .929 2.513c0 1.94-1.12 3.572-3.798 4.043.23.226.412.495.536.79s.188.615.188.937v2.137c.015.17 0 .34.285.34 3.364-1.134 5.785-4.31 5.785-8.055 0-4.695-3.806-8.495-8.5-8.495h0z" fill="#000"/></svg>