<svg xmlns="http://www.w3.org/2000/svg" width="20" height="20" fill="none" xmlns:v="https://vecta.io/nano"><path d="M18 2H2v16h16V2zm-2.88 4.114l-.816.782c-.072.054-.106.142-.092.228v5.754c-.014.088.02.176.092.228l.8.782v.174H11.09v-.166l.826-.802c.082-.082.082-.106.082-.228V8.2l-2.3 5.832h-.3L6.71 8.2v3.9c-.024.164.034.33.15.448l1.076 1.302v.174H4.88v-.174l1.076-1.302a.52.52 0 0 0 .14-.448V7.6c.014-.126-.034-.248-.13-.334L5.01 6.114V5.94h2.97l2.292 5.03L12.3 5.944h2.83v.17z" fill="#000"/></svg>