<svg xmlns="http://www.w3.org/2000/svg" width="40" height="40" fill="none" xmlns:v="https://vecta.io/nano"><path d="M28.3305 32.6667l-1.9778-2.475c3.9256-1.1306 5.4238-3.636 5.4238-3.636-6.7075 4.504-16.684 4.744-23.3732-.0305 0 0 1.4384 2.4444 5.244 3.6055l-2.0077 2.536C5.017 32.4528 2.5 28.0223 2.5 28.0223c0-9.8388 4.315-17.8137 4.315-17.8137 4.315-3.3 8.4203-3.2084 8.4203-3.2084l.2997.3667c-5.3938 1.589-7.88 4.0028-7.88 4.0028 7.4114-4.1222 16.7572-4.133 24.1524 0 0 0-2.3673-2.2917-7.4615-3.8806l.4196-.489s4.1053-.0917 8.4203 3.2084c0 0 4.315 7.975 4.315 17.8137 0 0-2.547 4.4305-9.1695 4.6444zm-13.934-14.2693c-1.708 0-3.0565 1.5277-3.0565 3.3916s1.3784 3.3916 3.0565 3.3916c1.708 0 3.0565-1.5277 3.0565-3.3916.03-1.864-1.3484-3.3916-3.0565-3.3916zm10.9375 0c-1.708 0-3.0565 1.5277-3.0565 3.3916s1.3784 3.3916 3.0565 3.3916c1.708 0 3.0565-1.5277 3.0565-3.3916s-1.3484-3.3916-3.0565-3.3916z" fill="#000"/></svg>