<svg xmlns="http://www.w3.org/2000/svg" width="4000" height="4000" fill="none" xmlns:v="https://vecta.io/nano"><style><![CDATA[.B{stroke:#333}.C{stroke-width:5}.D{fill:#4cbf4b}.E{fill-opacity:.15}]]></style><path d="M1114.02 1115.27c-20.06-4.45-31.1-6.9-33.17-12-.62-1.67-.32-3.6.78-5 54.42-81.36 142.75-139.406 243.77-127.74 63.95 8.467 72.08 55.1 39.26 104.9-78.16 107.57-158 60.5-250.64 39.84z" class="B C D"/><path d="M1354.66 1041.43c11.24-17.05 17.68-33.74 18.7-48.646 16.54 20.106 12.33 50.726-8.7 82.646-65.45 90.07-132.07 71.72-206.4 51.24-14.36-3.96-77.4-17.3-77.4-23.4 0-6.77 10.7-19.14 14.4-23.96 96.88 22.13 188.5 59.7 259.4-37.88z" fill="#000" class="E"/><path d="M1373.9 1028.1c-126.15-6.4-218.98-158.057-207.95-270.03.4-3.974 5.07-2.855 7.04.03 58.92 86.8 173.02 91.4 236.36 191.18 21.13 33.28 6.25 81.08-35.45 78.82z" class="B C D"/><path d="M1169.84 755.725c9.1 105.786 95.25 227.662 208.05 233.375 13.25.718 27.82-3.616 40.87-10.93 1.7 26.57-14.44 51.58-44.87 49.93-126.15-6.4-218.98-158.057-207.95-270.03.24-2.42 2.07-2.95 3.9-2.345z" fill="#000" class="E"/><path d="M1352 1056c-4.37-18.9 16.8-33.08 25.27-38.96 14.67-10.18 42.5 12.74 50.5 24.7 34.2 51.3-56.8 96.22-75.77 14.26z" class="B C D"/><path d="M1352 1053c-1-22 24.74-32.85 30.12-37.4 0 0 4.48 1.7 10.65 4.5-37.76 26.22-23.82 68.06 17.1 83.8-39.87 5.6-57.15-35.16-57.87-50.9z" fill="#000" class="E"/><path d="M1379.28 1005.1c2.53-25.18 39.07-36.268 60.6-32.92 20.2 3.313 39.4 30.4 38.85 50.77-1.48 56.05-104.62 33.77-99.44-17.85z" class="B C D"/><path d="M1457.75 1051.27c-31.88 12.2-79.5-11.27-75.85-48 2.06-20.45 29.65-29 48.8-29.8-64.1 16.344-18.5 76.42 27.06 77.8zM2806 1301.5c-263 113.5-1406.87 55.1-1533.43-82.14 35.04-43.58 73.2-84.55 114.2-122.58 67.22-62.36 1175.22-29.9 1249.24 27.36 62.98 48.73 123.04 113 169.98 177.36zM1531.67 982.9c23.46-15.46 45.23-30.83 69.83-44.4 132.74 25.63 641.56 44.7 789.24 43.56 42.67 18.24 84.4 38.72 124.7 61.7 119.55 68.14-1084.95 5.83-983.78-60.85z" fill="#000" class="E"/><path d="M2784 1260.32c2.32 5.02-.28 11.18-5.4 13.08-262.35 98.43-1345.1 72.6-1483.6-85.4-20.85-23.78 243.5-245.654 281.2-235.86 112.52 29.238 745.36 45.35 842.35 45.35 68.46 0 323.4 172.45 365.46 262.83z" stroke-miterlimit="10" class="B C D"/><path d="M2784.67 1266.47c-.7 3.16-3.03 5.8-6.06 6.93-262.37 98.43-1328.32 72.6-1481.6-84.44-24.67-25.28 198-208.46 267.5-233.46-45.8 27.536-248.5 196-233.5 217.46 91.28 130.5 1146.83 180.42 1453.66 93.5z" fill="#000" class="E"/><path fill-rule="evenodd" d="M2131.25 1254.36c-133.3 16.83-194.67-100.92-183.8-112.4 7.2-7.58 18.37-8.04 28.06-8.3 44.56-1.2 107.65 51 120.44 50.74 24.78-.5 62.06-40.02 86.48-72.6 10.23-13.62 74.1-34.15 67 1.65-22.96 116.1-101.2 138.77-118.2 140.92zm-185.5-219.72c133.3-16.83 194.67 100.92 183.78 112.4-7.2 7.58-18.36 8.04-28.05 8.3-44.56 1.2-107.65-51-120.44-50.74-24.78.5-62.06 40.02-86.5 72.6-10.22 13.62-74.1 34.15-67-1.64 22.96-116.1 101.2-138.78 118.2-140.93z" fill="#fbdd11" class="B C"/></svg>