<svg width="4000" height="4000" viewBox="0 0 4000 4000" fill="none" xmlns="http://www.w3.org/2000/svg"><path d="M1114.02 1115.27c-20.06-4.45-31.11-6.9-33.17-12a5.23 5.23 0 01.78-5c54.42-81.36 142.75-139.4 243.77-127.74 63.95 8.47 72.08 55.11 39.26 104.9-78.16 107.57-157.99 60.5-250.64 39.84z" fill="#4CBF4B" stroke="#333" stroke-width="5"/><path d="M1354.66 1041.43c11.24-17.05 17.68-33.74 18.71-48.65 16.54 20.11 12.33 50.73-8.71 82.65-65.45 90.07-132.07 71.72-206.4 51.24-14.36-3.96-77.41-17.29-77.41-23.4 0-6.77 10.69-19.14 14.41-23.96 96.88 22.13 188.5 59.69 259.4-37.88z" fill="#000" fill-opacity=".15"/><path d="M1373.89 1028.1c-126.15-6.39-218.98-158.06-207.95-270.03.39-3.97 5.07-2.86 7.04.03 58.92 86.8 173.02 91.4 236.36 191.18 21.13 33.28 6.25 81.08-35.45 78.82z" fill="#4CBF4B" stroke="#333" stroke-width="5"/><path d="M1169.84 755.73c9.09 105.78 95.25 227.66 208.05 233.37 13.25.72 27.82-3.62 40.87-10.93 1.71 26.57-14.44 51.58-44.87 49.93-126.15-6.39-218.98-158.06-207.95-270.03.24-2.42 2.07-2.95 3.9-2.35z" fill="#000" fill-opacity=".15"/><path d="M1352 1056c-4.37-18.9 16.79-33.08 25.27-38.96 14.67-10.18 42.5 12.74 50.5 24.7 34.2 51.3-56.8 96.22-75.77 14.26z" fill="#4CBF4B" stroke="#333" stroke-width="5"/><path d="M1352 1053c-1-22 24.74-32.85 30.12-37.39 0 0 4.48 1.69 10.65 4.51-37.76 26.22-23.82 68.06 17.1 83.79-39.87 5.59-57.15-35.16-57.87-50.91z" fill="#000" fill-opacity=".15"/><path d="M1379.28 1005.1c2.53-25.18 39.07-36.27 60.59-32.92 20.21 3.31 39.39 30.39 38.85 50.77-1.48 56.05-104.62 33.77-99.44-17.85z" fill="#4CBF4B" stroke="#333" stroke-width="5"/><path d="M1457.75 1051.27c-31.88 12.2-79.5-11.27-75.85-48 2.06-20.45 29.65-29 48.79-29.81-64.09 16.34-18.51 76.42 27.06 77.81zM2806 1301.5c-263 113.5-1406.87 55.09-1533.43-82.14a1150.43 1150.43 0 01114.21-122.58c67.22-62.36 1175.22-29.91 1249.24 27.36 62.98 48.73 123.04 113 169.98 177.36z" fill="#000" fill-opacity=".15"/><path d="M1531.67 982.91c23.46-15.46 45.23-30.83 69.83-44.41 132.74 25.63 641.56 44.71 789.24 43.56a1220.74 1220.74 0 01124.71 61.7c119.55 68.14-1084.95 5.83-983.78-60.85z" fill="#000" fill-opacity=".15"/><path d="M2784 1260.32a9.78 9.78 0 01-5.41 13.08C2516.24 1371.83 1433.5 1346 1295 1188c-20.85-23.78 243.5-245.65 281.19-235.86 112.52 29.24 745.36 45.35 842.35 45.35 68.46 0 323.39 172.45 365.46 262.83z" fill="#4CBF4B" stroke="#333" stroke-width="5" stroke-miterlimit="10"/><path d="M2784.67 1266.47a9.74 9.74 0 01-6.06 6.93c-262.37 98.43-1328.32 72.6-1481.6-84.44-24.67-25.28 197.99-208.46 267.49-233.46-45.81 27.54-248.5 196-233.49 217.46 91.28 130.5 1146.83 180.42 1453.66 93.51z" fill="#000" fill-opacity=".15"/><path fill-rule="evenodd" clip-rule="evenodd" d="M2131.25 1254.36c-133.29 16.83-194.67-100.92-183.79-112.41 7.19-7.58 18.37-8.04 28.06-8.3 44.56-1.21 107.65 51 120.44 50.74 24.78-.51 62.06-40.02 86.48-72.6 10.23-13.62 74.1-34.15 67.01 1.65-22.96 116.1-101.21 138.77-118.2 140.92zm-185.5-219.72c133.29-16.83 194.67 100.92 183.78 112.41-7.19 7.58-18.36 8.04-28.05 8.3-44.56 1.21-107.65-51-120.44-50.74-24.78.51-62.06 40.02-86.49 72.6-10.22 13.62-74.09 34.15-67-1.64 22.96-116.11 101.21-138.78 118.2-140.93z" fill="#FBDD11" stroke="#333" stroke-width="5"/></svg>