<svg width="4000" height="4000" viewBox="0 0 4000 4000" fill="none" xmlns="http://www.w3.org/2000/svg"><path d="M2962.61 1775c-1.85-.15-3.63-.81-5.13-1.9-1.5-1.09-2.66-2.58-3.37-4.3-218.06-510-974.77-575.76-1453.18-507.32-131 18.73-241.06 47.53-313.56 80-1 .45-2.06.74-3.15.87a1151.267 1151.267 0 01172.15-218.75c379.48-68.1 1044.53-117.29 1486.28 234.62 68.11 115.01 110.72 252.78 119.96 416.78z" fill="#000" fill-opacity=".15"/><path d="M2613.81 241c.2 20.372-3.93 40.555-12.12 59.209a143.648 143.648 0 01-35.39 48.991c-38.34-37-76.5-59.62-113.09-63.76-25.82-2.92-64.66 4.21-113 20.08a144.184 144.184 0 01-14.57-62.364 144.08 144.08 0 0113.89-62.518 143.985 143.985 0 0139.62-50.322 144.05 144.05 0 0157.5-28.185 144.123 144.123 0 0164.05-.479 144.089 144.089 0 0198.28 77.044A144.062 144.062 0 012613.81 241z" fill="#F2F2F2" stroke="#333" stroke-width="5" stroke-miterlimit="10"/><path d="M1209.19 1310.47c-8.09 3.68-16.89-4.57-13.75-12.88C1396.1 771.06 2266.12 264.26 2453.21 285.44c264.15 29.9 609.58 1021.67 520.72 1450.45-2 9.81-15.48 11.12-19.38 1.89-274.4-649.59-1412.12-578.49-1745.36-427.31z" fill="#62FFAA" stroke="#333" stroke-width="5" stroke-miterlimit="10"/><path d="M2954.56 1737.75c-274.39-649.59-1412.12-578.46-1745.37-427.27-8.1 3.69-16.92-4.58-13.75-12.9 43.69-114.64 119.12-228.34 212.32-335.87 405.68-96.39 1255.32-54.34 1565.33 426 24.52 159.35 23 241.26.84 348.22-2.03 9.75-15.48 11.07-19.37 1.82zM2864.09 914c-298.36-227.2-767.38-287.91-1118.33-265.83C1891.5 536 2042.13 442.55 2169.33 378.54c170.81 16.59 352 53.83 509.71 118.4C2745.84 609.16 2811.33 756 2864.09 914z" fill="#F2F2F2" stroke="#333" stroke-width="5" stroke-miterlimit="10"/><path d="M2954.56 1737.75c-274.39-649.59-1412.12-578.46-1745.37-427.27-8.1 3.69-16.92-4.58-13.75-12.9 43.69-114.64 119.12-228.34 212.32-335.87 405.68-96.39 1255.32-54.34 1565.33 426 24.52 159.35 23 241.26.84 348.22-2.03 9.75-15.48 11.07-19.37 1.82zM2864.09 914c-298.36-227.2-767.38-287.91-1118.33-265.83C1891.5 536 2042.13 442.55 2169.33 378.54c170.81 16.59 352 53.83 509.71 118.4C2745.84 609.16 2811.33 756 2864.09 914z" fill="#F2F2F2" stroke="#333" stroke-width="5" stroke-miterlimit="10"/><path d="M2613.81 241c.2 20.372-3.93 40.555-12.12 59.209a143.648 143.648 0 01-35.39 48.991c-22-21.23-43.93-37.73-65.55-48.71a144.152 144.152 0 0020.9-53.308 144.238 144.238 0 00-1.51-57.238A144.157 144.157 0 002454.37 99c4.67-.5 9.37-.77 14.11-.81a144.07 144.07 0 01102.24 41.308A144.033 144.033 0 012613.81 241z" fill="#000" fill-opacity=".1"/><path d="M2683.61 1418.42c118 78.73 213.43 183.22 270.94 319.36 3.9 9.23 17.38 7.92 19.38-1.89 88.86-428.78-256.57-1420.55-520.72-1450.45-16.75-1.896-38.98.44-65.71 6.645C2683.61 424 2692.05 1158.45 2683.61 1418.42z" fill="#000" fill-opacity=".1"/></svg>