<svg fill="none" height="4000" viewBox="0 0 4000 4000" width="4000" xmlns="http://www.w3.org/2000/svg"><path d="m2000 636.821c-864.5 0-1097.5 409.179-1200.5 668.179 66-354 223.4-531.282 503.5-668.179 95.48-46.664 168-99.321 325-136.321s233.95-13.5 372-13.5c188.57 0 360.54 23.471 513.5 68.199 116.14 33.96 188 28.444 332 117.301 50.99 31.462 125.48 108.141 200.44 212.5 57.03 79.388 134.15 132.5 194.06 263.5s81 321.18 81 477.5c-139.5-485.5-456.5-989.179-1321-989.179z" fill="#179917"/><path d="m2985 936.999c130.5 89.501 266.92 354.431 302.7 451.501 29.3 79.5 63.04 312.35 0 385.5-127.2-588.5-427.5-1037.18-1255-1037.18s-1142.701 438.68-1245.7 697.68c-6-162 65.499-323.5 184.999-489.001 119.501-165.5 254.701-180.179 365.701-220.179s170.5-120 351.5-153 349.5-1 462.5 16.5 328-10.5 496.5 77 206.3 181.679 336.8 271.179z" fill="#efe800"/><path d="m2954.5 1025c130.5 89.5 306.85 312.91 333 413 46.5 178 40 301.5 0 436-11-347.5-458-1060.5-1285.5-1060.5s-1151.5 306.67-1207.499 928c-102.001-265 38.499-552 157.999-717.5s234.65-160.454 341.5-210.5c174-81.5 272-136 453-169s310 5 423 22.5 299.5 4 468 91.5 186 177 316.5 266.5z" fill="#d80000"/><path d="m2952.5 1115c130.5 89.5 318.25 331.93 342.5 432.5 30.5 126.5 40 481.5-203 761.5 160-799-264.5-1405.5-1092-1405.5s-1245.999 372-1199.999 1256c-188-564.5 31-880 150.5-1045.5 119.499-165.5 243.499-182 354.499-222s170.5-120 351.5-153 349.5-1 462.5 16.5 328-10.5 496.5 77 206.5 193 337 282.5z" fill="#000"/><path d="m3231.5 1983.5c-10.5 121-83.5 261.5-136.5 323 160-799-267.5-1283-1095-1283s-1242.562 741-1151.5 1221c-225-304-17.5-845 102-1010.5s243.5-182 354.5-222 170.5-120 351.5-153 349.5-1 462.5 16.5 328-10.5 496.5 77 214 215 344.5 304.5 281 280.5 295 383-13 222.5-23.5 343.5z" fill="#179917"/><path d="m3130.67 1616.54c-49.23-146.5-166.67-243.43-277.67-340.04-108.23-94.16-218.24-235.76-365.47-270.65-76.78-18.2-160.67.17-238.62-6.37-83.54-7-162.73-32.84-245.06-46.35-183.77-30.16-347.6 6.76-508.11 96.85-131.7 73.92-293.9 44.49-403.74 153.54-40.7 40.42-89 107.48-127 176.98s-35.5 113.5-72 192.5-66.999 119.5-83.999 199-17.501 216-17.501 265c.001 49 26.335 175.69 77.001 242.5 33.258 37.29 29.78 43.66 69.5 71.5-188.5-234.5 192.499-1219 1061.999-1219s1199.5 600.5 1022 1243c105.26-74 139-162 139-239s-11.55-119.75-8.5-167c8.92-135.53 22.5-220.63-21.83-352.46z" fill="#efe800"/><path d="m3095 2016c0 90.91 18.26 225.93-26.09 308.86-29.64 55.42-88.41 87.14-141.41 106.64 226.5-618.5-216.5-1203.79-927.5-1203.79s-1126.123 654.56-928 1196.79c-21.71 10.33-100.17-45.13-117-55-67.73-39.73-98.03-202.84-96.5-248 4.7-138.84 53.681-253.01 100.811-382.92 46.539-128.27 79.879-307 179.649-405.24 78.34-77.16 203.59-85.44 300.72-130.18 139.41-64.22 254-156.08 412.44-159.15 170.4-3.31 329.21 61.67 498.73 59.18 172.67-2.55 240 106.5 376.92 195.23 130 84.24 228.2 143.82 290.66 293 54.29 129.58 89.62 283.51 76.57 424.58z" fill="#d80000"/><path d="m3033.63 2174.28c-4 142-14.04 238.84-164.63 284.72 50.91-116.14 50.02-289.02 52.55-415.89 3-151.49-64.3-278.4-143.39-404-139.15-221-458-302.64-706.44-305.2-141.28-1.46-300.42-23.53-435.26 28.81-134.09 52.06-258.24 167.21-352 274-175 199.17-247.94 573.07-153.46 822.28-147.549-49-158.663-99.53-169-258.5-10.877-167.28 37.18-324.24 95.5-467.5 115.08-282.68 338.79-500.47 709.35-557.96 183.11-28.42 364.51 35 545.41 53.46 167.63 17.12 316.69 81.44 449.68 188.07 215.47 172.75 278.98 495.86 271.69 757.71z" fill="#1a1a1a"/><path d="m806.62 1269.17c69.828-330.292 225.89-500.15 496.38-632.349 95.48-46.664 168-99.321 325-136.321s233.95-13.5 372-13.5c188.57 0 360.54 23.471 513.5 68.199 116.14 33.96 188 28.444 332 117.301 50.99 31.462 125.48 108.141 200.44 212.5 63.57 88.495 148.54 152.36 194.56 253 49.51 108.25 72 267.42 78.5 404 25.93 248.38-51.93 528.7-197.32 730.85-63.94 88.92-158.9 160.75-258.68 191.15 50.91-116.14 56.02-294.02 58.55-420.89 3-151.49-64.3-278.4-143.39-404-139.15-221-458-302.64-706.44-305.2-141.28-1.46-300.42-23.53-435.26 28.81-134.09 52.06-258.24 167.21-352 274-175 199.17-242.94 578.07-148.46 827.28-118.2-39.25-225.393-113.69-297-227.5-46.917-74.57-60.76-157.41-85.389-246.91-56.772-206.3-32.803-379.21 7.035-515.74 19.939-68.33 28.204-138.15 45.974-204.68z" stroke="#333" stroke-linecap="round" stroke-linejoin="round" stroke-width="20"/><g fill="#000" fill-opacity=".4"><path d="m993.985 1277.43c-19.685 95.97-35.918 194.45-63.339 288.42-84.216 288.62-55.623 695.57 198.084 895.69-115.32-39.87-219.593-113.57-289.73-225.04-37.281-59.25-53.678-123.73-71.198-192.61-4.529-17.81-9.132-35.91-14.191-54.3-56.772-206.3-32.803-379.21 7.035-515.74 10.788-36.97 18.158-74.37 25.466-111.46 6.199-31.45 12.352-62.68 20.508-93.22 69.828-330.292 225.89-500.15 496.38-632.35 22.05-10.779 42.88-21.878 63.81-33.03 55.24-29.43 111.16-59.228 192.12-84.491-105.42 75.272-192.12 173.201-296.93 230.701-240 131.659-214.72 267.6-268.015 527.43z"/><path d="m2967 964.5c185.5 139.5 154.58 403.02 185.5 577.5 47.5 268-16.5 667.5-285.2 920.66 98.2-31.13 191.36-102.17 254.38-189.81 145.39-202.16 223.25-482.47 197.32-730.85-6.5-136.58-28.99-295.75-78.5-404-28.68-62.71-72.47-111.14-116.79-160.145-26.81-29.645-53.81-59.501-77.77-92.856-74.96-104.358-149.45-181.038-200.44-212.5-104.48-64.47-170.98-79.26-243.98-95.493-27.61-6.141-56.15-12.487-88.02-21.808 364.5 133.302 325.06 312.713 453.5 409.302z"/></g></svg>