<svg fill="none" height="4000" viewBox="0 0 4000 4000" width="4000" xmlns="http://www.w3.org/2000/svg"><path d="m2962.61 1775c-1.85-.15-3.63-.81-5.13-1.9s-2.66-2.58-3.37-4.3c-218.06-510-974.77-575.76-1453.18-507.32-131 18.73-241.06 47.53-313.56 80-1 .45-2.06.74-3.15.87 48.32-79.61 106.13-153.06 172.15-218.75 379.48-68.1 1044.53-117.29 1486.28 234.62 68.11 115.01 110.72 252.78 119.96 416.78z" fill="#000" fill-opacity=".15"/><g stroke="#333" stroke-miterlimit="10" stroke-width="5"><path d="m2613.81 241c.2 20.372-3.93 40.555-12.12 59.209s-20.25 35.354-35.39 48.991c-38.34-37-76.5-59.62-113.09-63.76-25.82-2.92-64.66 4.21-113 20.08-9.47-19.432-14.45-40.746-14.57-62.364s4.63-42.985 13.89-62.518c9.26-19.534 22.8-36.732 39.62-50.322 16.81-13.59 36.46-23.223 57.5-28.185 21.05-4.9619 42.93-5.1257 64.05-.479 21.11 4.646 40.91 13.984 57.92 27.321s30.81 30.331 40.36 49.723c9.56 19.393 14.62 40.687 14.83 62.304z" fill="#f2f2f2"/><path d="m1209.19 1310.47c-8.09 3.68-16.89-4.57-13.75-12.88 200.66-526.53 1070.68-1033.33 1257.77-1012.15 264.15 29.9 609.58 1021.67 520.72 1450.45-2 9.81-15.48 11.12-19.38 1.89-274.4-649.59-1412.12-578.49-1745.36-427.31z" fill="#62ffaa"/><g fill="#f2f2f2"><path d="m2954.56 1737.75c-274.39-649.59-1412.12-578.46-1745.37-427.27-1.84.84-3.88 1.11-5.88.78-1.99-.32-3.84-1.24-5.32-2.62-1.47-1.38-2.5-3.17-2.96-5.14-.45-1.97-.31-4.03.41-5.92 43.69-114.64 119.12-228.34 212.32-335.87 405.68-96.39 1255.32-54.34 1565.33 426 24.52 159.35 23 241.26.84 348.22-2.03 9.75-15.48 11.07-19.37 1.82z"/><path d="m2864.09 914c-298.36-227.2-767.38-287.91-1118.33-265.83 145.74-112.17 296.37-205.62 423.57-269.63 170.81 16.59 352 53.83 509.71 118.4 66.8 112.22 132.29 259.06 185.05 417.06z"/><path d="m2954.56 1737.75c-274.39-649.59-1412.12-578.46-1745.37-427.27-1.84.84-3.88 1.11-5.88.78-1.99-.32-3.84-1.24-5.32-2.62-1.47-1.38-2.5-3.17-2.96-5.14-.45-1.97-.31-4.03.41-5.92 43.69-114.64 119.12-228.34 212.32-335.87 405.68-96.39 1255.32-54.34 1565.33 426 24.52 159.35 23 241.26.84 348.22-2.03 9.75-15.48 11.07-19.37 1.82z"/><path d="m2864.09 914c-298.36-227.2-767.38-287.91-1118.33-265.83 145.74-112.17 296.37-205.62 423.57-269.63 170.81 16.59 352 53.83 509.71 118.4 66.8 112.22 132.29 259.06 185.05 417.06z"/></g></g><path d="m2613.81 241c.2 20.372-3.93 40.555-12.12 59.209s-20.25 35.354-35.39 48.991c-22-21.23-43.93-37.73-65.55-48.71 10.46-16.194 17.57-34.321 20.9-53.308 3.33-18.988 2.81-38.451-1.51-57.238-4.33-18.786-12.37-36.514-23.67-52.135s-25.61-28.818-42.1-38.809c4.67-.5 9.37-.77 14.11-.81 38.21-.3329 74.99 14.526 102.24 41.308 27.26 26.781 42.76 63.293 43.09 101.502z" fill="#000" fill-opacity=".1"/><path clip-rule="evenodd" d="m2333.96 1214.63c-118.8-4.37-155.57-115.88-144.42-124.35 7.36-5.59 17.19-4.39 25.68-3.23 39.09 5.32 86.71 59.89 97.92 61.49 21.71 3.1 59.91-26.04 85.89-50.96 10.87-10.43 69.58-19.21 58.28 11.01-36.65 98.01-108.21 106.6-123.35 106.04zm-130.58-218.213c118.79 4.373 155.56 115.883 144.41 124.353-7.36 5.59-17.18 4.39-25.68 3.23-39.08-5.32-86.71-59.89-97.91-61.49-21.71-3.1-59.91 26.04-85.9 50.96-10.87 10.43-69.57 19.21-58.27-11.01 36.64-98.01 108.21-106.601 123.35-106.043z" fill="#fbdd11" fill-rule="evenodd" stroke="#333" stroke-width="5.15191"/><path d="m2683.61 1418.42c118 78.73 213.43 183.22 270.94 319.36 3.9 9.23 17.38 7.92 19.38-1.89 88.86-428.78-256.57-1420.55-520.72-1450.45-16.75-1.896-38.98.44-65.71 6.645 296.11 131.915 304.55 866.365 296.11 1126.335z" fill="#000" fill-opacity=".1"/></svg>