<svg xmlns="http://www.w3.org/2000/svg" xmlns:xlink="http://www.w3.org/1999/xlink" width="4000" height="4000" fill="none" xmlns:v="https://vecta.io/nano"><path d="M2962.6 1775c-1.85-.15-3.63-.8-5.13-1.9s-2.66-2.58-3.37-4.3c-218.06-510-974.77-575.76-1453.18-507.32-131 18.73-241.06 47.53-313.56 80-1 .45-2.06.74-3.15.87 48.32-79.6 106.13-153.06 172.15-218.75 379.48-68.1 1044.53-117.3 1486.28 234.62 68.1 115 110.72 252.78 119.96 416.78z" fill="#000" fill-opacity=".15"/><g stroke="#333" stroke-width="5" stroke-miterlimit="10"><path d="M2613.8 241c.2 20.372-3.93 40.555-12.12 59.21s-20.25 35.354-35.4 48.99c-38.34-37-76.5-59.62-113.1-63.76-25.82-2.92-64.66 4.2-113 20.08-9.47-19.432-14.45-40.746-14.57-62.364s4.63-42.985 13.9-62.518 22.8-36.732 39.62-50.322a144.05 144.05 0 0 1 57.5-28.185c21.05-4.962 42.93-5.1257 64.05-.48 21.1 4.646 40.9 13.984 57.92 27.32s30.8 30.33 40.36 49.723c9.56 19.393 14.62 40.687 14.83 62.304z" fill="#f2f2f2"/><path d="M1209.2 1310.47c-8.1 3.68-16.9-4.57-13.75-12.88C1396.1 771.06 2266.12 264.26 2453.2 285.44c264.15 29.9 609.58 1021.67 520.72 1450.45-2 9.8-15.48 11.12-19.38 1.9-274.4-649.6-1412.12-578.5-1745.36-427.3z" fill="#62ffaa"/><g fill="#f2f2f2"><use xlink:href="#B"/><use xlink:href="#C"/><use xlink:href="#B"/><use xlink:href="#C"/></g></g><g fill="#000"><path d="M2613.8 241c.2 20.372-3.93 40.555-12.12 59.21s-20.25 35.354-35.4 48.99c-22-21.23-43.93-37.73-65.55-48.7 10.46-16.194 17.57-34.32 20.9-53.308s2.8-38.45-1.5-57.238c-4.33-18.786-12.37-36.514-23.67-52.135s-25.6-28.818-42.1-38.81c4.67-.5 9.37-.77 14.1-.8 38.2-.333 75 14.526 102.24 41.308 27.26 26.78 42.76 63.293 43.1 101.502z" fill-opacity=".1"/><path d="M2683.6 1418.42c118 78.73 213.43 183.22 270.94 319.36 3.9 9.23 17.38 7.92 19.38-1.9 88.86-428.78-256.57-1420.55-520.72-1450.45-16.75-1.896-38.98.44-65.7 6.645C2683.6 424 2692.05 1158.45 2683.6 1418.42z" fill-opacity=".1"/></g><defs ><path id="B" d="M2954.56 1737.75c-274.4-649.6-1412.12-578.46-1745.37-427.27-8.1 3.7-16.92-4.58-13.75-12.9 43.7-114.64 119.12-228.34 212.32-335.87 405.68-96.4 1255.32-54.34 1565.33 426 24.52 159.35 23 241.26.84 348.22-2.03 9.75-15.48 11.07-19.37 1.82z"/><path id="C" d="M2864.1 914c-298.36-227.2-767.38-287.9-1118.33-265.83C1891.5 536 2042.13 442.55 2169.33 378.54c170.8 16.6 352 53.83 509.7 118.4C2745.84 609.16 2811.33 756 2864.1 914z"/></defs></svg>