<svg xmlns="http://www.w3.org/2000/svg" width="4000" height="4000" fill="none" xmlns:v="https://vecta.io/nano"><path d="M2000 636.82C1135.5 636.82 902.5 1046 799.5 1305c66-354 223.4-531.282 503.5-668.18 95.48-46.664 168-99.32 325-136.32s233.95-13.5 372-13.5c188.57 0 360.54 23.47 513.5 68.2 116.14 33.96 188 28.444 332 117.3 51 31.462 125.48 108.14 200.44 212.5 57.03 79.388 134.15 132.5 194.06 263.5s81 321.18 81 477.5c-139.5-485.5-456.5-989.18-1321-989.18z" fill="#179917"/><path d="M2985 937c130.5 89.5 266.92 354.43 302.7 451.5 29.3 79.5 63.04 312.35 0 385.5-127.2-588.5-427.5-1037.18-1255-1037.18S890 1175.5 787 1434.5c-6-162 65.5-323.5 185-489s254.7-180.18 365.7-220.18 170.5-120 351.5-153 349.5-1 462.5 16.5 328-10.5 496.5 77S2854.5 847.5 2985 937z" fill="#efe800"/><path d="M2954.5 1025c130.5 89.5 306.85 312.9 333 413 46.5 178 40 301.5 0 436-11-347.5-458-1060.5-1285.5-1060.5s-1151.5 306.67-1207.5 928c-102-265 38.5-552 158-717.5s234.65-160.454 341.5-210.5c174-81.5 272-136 453-169s310 5 423 22.5 299.5 4 468 91.5 186 177 316.5 266.5z" fill="#d80000"/><path d="M2952.5 1115c130.5 89.5 318.25 331.93 342.5 432.5 30.5 126.5 40 481.5-203 761.5 160-799-264.5-1405.5-1092-1405.5s-1246 372-1200 1256c-188-564.5 31-880 150.5-1045.5S1194 932 1305 892s170.5-120 351.5-153 349.5-1 462.5 16.5 328-10.5 496.5 77 206.5 193 337 282.5z" fill="#000"/><path d="M3231.5 1983.5c-10.5 121-83.5 261.5-136.5 323 160-799-267.5-1283-1095-1283s-1242.562 741-1151.5 1221c-225-304-17.5-845 102-1010.5s243.5-182 354.5-222 170.5-120 351.5-153 349.5-1 462.5 16.5 328-10.5 496.5 77 214 215 344.5 304.5 281 280.5 295 383-13 222.5-23.5 343.5z" fill="#179917"/><path d="M3130.67 1616.54C3081.44 1470.04 2964 1373.1 2853 1276.5c-108.23-94.16-218.24-235.76-365.47-270.65-76.78-18.2-160.67.17-238.62-6.37-83.54-7-162.73-32.84-245.06-46.35-183.77-30.16-347.6 6.76-508.1 96.85-131.7 73.92-293.9 44.5-403.74 153.54-40.7 40.42-89 107.48-127 176.98S929.5 1494 893 1573s-67 119.5-84 199-17.5 216-17.5 265 26.335 175.7 77 242.5c33.258 37.3 29.78 43.66 69.5 71.5-188.5-234.5 192.5-1219 1062-1219s1199.5 600.5 1022 1243c105.26-74 139-162 139-239s-11.55-119.75-8.5-167c8.92-135.53 22.5-220.63-21.83-352.46z" fill="#efe800"/><path d="M3095 2016c0 90.9 18.26 225.93-26.1 308.86-29.64 55.42-88.4 87.14-141.4 106.64C3154 1813 2711 1227.7 2000 1227.7s-1126.123 654.56-928 1196.8c-21.7 10.33-100.17-45.13-117-55-67.73-39.73-98.03-202.84-96.5-248 4.7-138.84 53.68-253 100.81-382.92 46.54-128.27 79.88-307 179.65-405.24 78.34-77.16 203.6-85.44 300.72-130.18 139.4-64.22 254-156.08 412.44-159.15 170.4-3.3 329.2 61.67 498.73 59.18 172.67-2.55 240 106.5 376.92 195.23 130 84.24 228.2 143.82 290.66 293 54.3 129.58 89.62 283.5 76.57 424.58z" fill="#d80000"/><path d="M3033.63 2174.28c-4 142-14.04 238.84-164.63 284.72 50.9-116.14 50.02-289.02 52.55-415.9 3-151.5-64.3-278.4-143.4-404-139.15-221-458-302.64-706.44-305.2-141.28-1.46-300.42-23.53-435.26 28.8-134.1 52.06-258.24 167.2-352 274-175 199.17-247.94 573.07-153.46 822.28-147.55-49-158.663-99.53-169-258.5-10.877-167.28 37.18-324.24 95.5-467.5 115.08-282.68 338.8-500.47 709.35-557.96 183.1-28.42 364.5 35 545.4 53.46 167.63 17.12 316.7 81.44 449.68 188.07 215.47 172.75 278.98 495.86 271.7 757.7z" fill="#1a1a1a"/><path d="M806.62 1269.17c69.828-330.292 225.9-500.15 496.38-632.35 95.48-46.664 168-99.32 325-136.32s233.95-13.5 372-13.5c188.57 0 360.54 23.47 513.5 68.2 116.14 33.96 188 28.444 332 117.3 51 31.462 125.48 108.14 200.44 212.5 63.57 88.495 148.54 152.36 194.56 253 49.5 108.25 72 267.42 78.5 404 25.93 248.38-51.93 528.7-197.32 730.85-63.94 88.92-158.9 160.75-258.68 191.15 50.9-116.14 56.02-294.02 58.55-420.9 3-151.5-64.3-278.4-143.4-404-139.15-221-458-302.64-706.44-305.2-141.28-1.46-300.42-23.53-435.26 28.8-134.1 52.06-258.24 167.2-352 274-175 199.17-242.94 578.07-148.46 827.28-118.2-39.25-225.393-113.7-297-227.5-46.917-74.57-60.76-157.4-85.39-246.9-56.772-206.3-32.803-379.2 7.035-515.74 19.94-68.33 28.204-138.15 45.974-204.68z" stroke="#333" stroke-width="20" stroke-linejoin="round"/><path d="M993.985 1277.43c-19.685 95.97-35.918 194.45-63.34 288.42-84.216 288.62-55.623 695.57 198.084 895.7-115.32-39.87-219.593-113.57-289.73-225.04-37.28-59.25-53.678-123.73-71.198-192.6l-14.2-54.3c-56.772-206.3-32.803-379.2 7.035-515.74 10.788-36.97 18.158-74.37 25.466-111.46 6.2-31.45 12.352-62.68 20.508-93.22 69.828-330.292 225.9-500.15 496.38-632.35 22.05-10.78 42.88-21.878 63.8-33.03 55.24-29.43 111.16-59.228 192.12-84.5C1453.5 594.57 1366.8 692.5 1262 750c-240 131.66-214.72 267.6-268.015 527.43zM2967 964.5c185.5 139.5 154.58 403.02 185.5 577.5 47.5 268-16.5 667.5-285.2 920.66 98.2-31.13 191.36-102.17 254.38-189.8C3267.08 2070.7 3344.93 1790.4 3319 1542c-6.5-136.58-29-295.75-78.5-404-28.68-62.7-72.47-111.14-116.8-160.145-26.8-29.645-53.8-59.5-77.77-92.856-74.96-104.358-149.45-181.038-200.44-212.5-104.48-64.47-170.98-79.26-243.98-95.493-27.6-6.14-56.15-12.487-88.02-21.808C2878 688.5 2838.56 867.9 2967 964.5z" fill-opacity=".4" fill="#000"/></svg>