<svg xmlns="http://www.w3.org/2000/svg" width="4000" height="4000" fill="none" xmlns:v="https://vecta.io/nano"><path d="M1123.5 1458.5c310-722 1665.87-587.756 1819.5 161-771-322.5-1266-288-1819.5-161z" fill="#000" fill-opacity=".15"/><circle cx="2216" cy="476" r="190.5" fill="#ccc" stroke="#333" stroke-width="5"/><path d="M2136 589c106.6 0 193-86.41 193-193 0-32.707-8.14-63.513-22.5-90.506C2367.48 337.928 2409 402.116 2409 476c0 106.59-86.4 193-193 193-73.9 0-138.07-41.517-170.5-102.494 27 14.358 57.8 22.494 90.5 22.494z" fill="#000" fill-opacity=".1"/><path d="M2925.5 1335c-72-439-270.5-751.646-780.5-791-641.5-49.5-925 446.5-942.5 629.5 468.5-106.5 1213.5-75 1723 161.5z" fill="#999" stroke="#333" stroke-width="5"/><path d="M2145 544c510 39.354 708.5 352 780.5 791-81.7-37.92-169.46-70.58-261.16-98.23-91.9-384.248-299.34-648.977-749.84-686.083l-2.1-.17c71.6-10.158 149.06-12.962 232.6-6.516z" fill="#000" fill-opacity=".1"/><g stroke="#333" stroke-width="5"><path d="M2976.5 1252.5c-121.5-91.72-415-218.5-896.5-258-278.78-22.87-844 18-926.5 82.5s-115.5 352.18 18.5 322c166.5-37.5 458.5-91 868.5-68.5 308.06 16.9 744.5 161.3 852 221.5s205.5-207.78 84-299.5z" fill="#666"/><path fill-rule="evenodd" d="M2187.86 1285.73c-130.03.67-175.33-119.5-163.53-129.27 7.78-6.45 18.58-5.58 27.9-4.7 42.97 4.02 97.5 61.47 109.83 62.7 23.87 2.4 64.28-31.2 91.53-59.64 11.4-11.9 75.15-24.18 64.2 9.37-35.55 108.8-113.36 121.46-129.93 121.54zm-152.72-232.5c130.03-.66 175.33 119.5 163.53 129.28-7.8 6.44-18.58 5.58-27.9 4.7-42.97-4.02-97.5-61.48-109.84-62.72-23.86-2.4-64.27 31.2-91.53 59.64-11.4 11.9-75.15 24.18-64.18-9.36 35.54-108.8 113.36-121.46 129.93-121.55z" fill="#fbdd11"/></g><path d="M1081.47 1280.03c13.8 30.4 38.4 47.56 76.53 38.97 166.5-37.5 458.5-91 868.5-68.5 308.05 16.9 744.5 161.3 852 221.5 70.95 39.73 137.75-63.48 140.06-164.63 48.14 113.54-35.6 295.3-126.06 244.63-107.5-60.2-543.94-204.6-852-221.5-410-22.5-702 31-868.5 68.5-65.08 14.66-90.77-45.66-90.53-118.97z" fill="#000" fill-opacity=".15"/></svg>