<svg fill="none" height="4000" viewBox="0 0 4000 4000" width="4000" xmlns="http://www.w3.org/2000/svg"><path d="m1123.5 1458.5c310-722 1665.87-587.756 1819.5 161-771-322.5-1266-288-1819.5-161z" fill="#000" fill-opacity=".15"/><circle cx="2216" cy="476" fill="#ccc" r="190.5" stroke="#333" stroke-width="5"/><path d="m2136 589c106.59 0 193-86.409 193-193 0-32.707-8.14-63.513-22.5-90.506 60.98 32.434 102.5 96.622 102.5 170.506 0 106.591-86.41 193-193 193-73.89 0-138.07-41.517-170.51-102.494 27 14.358 57.8 22.494 90.51 22.494z" fill="#000" fill-opacity=".1"/><path d="m2925.5 1335c-72-439-270.5-751.646-780.5-791-641.5-49.501-925 446.5-942.5 629.5 468.5-106.5 1213.5-75 1723 161.5z" fill="#999" stroke="#333" stroke-width="5"/><path d="m2144.99 544c510.01 39.354 708.51 352 780.51 791-81.7-37.92-169.46-70.58-261.16-98.23-91.89-384.248-299.34-648.977-749.84-686.083-.7-.058-1.4-.115-2.1-.171 71.6-10.158 149.06-12.962 232.59-6.516z" fill="#000" fill-opacity=".1"/><path d="m2976.5 1252.5c-121.5-91.72-415-218.5-896.5-258-278.78-22.87-844 18-926.5 82.5s-115.5 352.18 18.5 322c166.5-37.5 458.5-91 868.5-68.5 308.06 16.91 744.5 161.3 852 221.5s205.5-207.78 84-299.5z" fill="#666" stroke="#333" stroke-width="5"/><path d="m1081.47 1280.03c13.8 30.41 38.4 47.56 76.53 38.97 166.5-37.5 458.5-91 868.5-68.5 308.05 16.9 744.5 161.3 852 221.5 70.95 39.73 137.75-63.48 140.06-164.63 48.14 113.54-35.59 295.29-126.06 244.63-107.5-60.2-543.94-204.59-852-221.5-410-22.5-702 31-868.5 68.5-65.08 14.66-90.77-45.66-90.53-118.97z" fill="#000" fill-opacity=".15"/></svg>