<svg width="4000" height="4000" viewBox="0 0 4000 4000" fill="none" xmlns="http://www.w3.org/2000/svg"><path d="M2962.61 1775a10.04 10.04 0 01-8.5-6.2c-218.06-510-974.77-575.76-1453.18-507.32-131 18.73-241.06 47.53-313.56 80-1 .45-2.06.74-3.15.87a1151.27 1151.27 0 01172.15-218.75c379.48-68.1 1044.53-117.29 1486.28 234.62 68.11 115.01 110.72 252.78 119.96 416.78z" fill="#000" fill-opacity=".15"/><path d="M2613.81 241a143.77 143.77 0 01-47.51 108.2c-38.34-37-76.5-59.62-113.09-63.76-25.82-2.92-64.66 4.21-113 20.08a144.18 144.18 0 01-.68-124.88 144.05 144.05 0 01219.09-51.66A144.09 144.09 0 012613.81 241z" fill="#F2F2F2" stroke="#333" stroke-width="5" stroke-miterlimit="10"/><path d="M1209.19 1310.47c-8.09 3.68-16.89-4.57-13.75-12.88C1396.1 771.06 2266.12 264.26 2453.21 285.44c264.15 29.9 609.58 1021.67 520.72 1450.45-2 9.81-15.48 11.12-19.38 1.89-274.4-649.59-1412.12-578.49-1745.36-427.31z" fill="#62FFAA" stroke="#333" stroke-width="5" stroke-miterlimit="10"/><path d="M2954.56 1737.75c-274.39-649.59-1412.12-578.46-1745.37-427.27a10.15 10.15 0 01-11.2-1.84 10.25 10.25 0 01-2.55-11.06c43.69-114.64 119.12-228.34 212.32-335.87 405.68-96.39 1255.32-54.34 1565.33 426 24.52 159.35 23 241.26.84 348.22-2.03 9.75-15.48 11.07-19.37 1.82zM2864.09 914c-298.36-227.2-767.38-287.91-1118.33-265.83C1891.5 536 2042.13 442.55 2169.33 378.54c170.81 16.59 352 53.83 509.71 118.4C2745.84 609.16 2811.33 756 2864.09 914z" fill="#F2F2F2" stroke="#333" stroke-width="5" stroke-miterlimit="10"/><path d="M2954.56 1737.75c-274.39-649.59-1412.12-578.46-1745.37-427.27a10.15 10.15 0 01-11.2-1.84 10.25 10.25 0 01-2.55-11.06c43.69-114.64 119.12-228.34 212.32-335.87 405.68-96.39 1255.32-54.34 1565.33 426 24.52 159.35 23 241.26.84 348.22-2.03 9.75-15.48 11.07-19.37 1.82zM2864.09 914c-298.36-227.2-767.38-287.91-1118.33-265.83C1891.5 536 2042.13 442.55 2169.33 378.54c170.81 16.59 352 53.83 509.71 118.4C2745.84 609.16 2811.33 756 2864.09 914z" fill="#F2F2F2" stroke="#333" stroke-width="5" stroke-miterlimit="10"/><path d="M2613.81 241a143.77 143.77 0 01-47.51 108.2c-22-21.23-43.93-37.73-65.55-48.71A144.15 144.15 0 002454.37 99a144.07 144.07 0 01159.44 142z" fill="#000" fill-opacity=".1"/><path fill-rule="evenodd" clip-rule="evenodd" d="M2333.96 1214.63c-118.8-4.37-155.57-115.88-144.42-124.35 7.36-5.59 17.19-4.39 25.68-3.23 39.09 5.32 86.71 59.89 97.92 61.49 21.71 3.1 59.91-26.04 85.89-50.96 10.87-10.43 69.58-19.21 58.28 11.01-36.65 98.01-108.21 106.6-123.35 106.04zm-130.58-218.21c118.79 4.37 155.56 115.88 144.41 124.35-7.36 5.59-17.18 4.39-25.68 3.23-39.08-5.32-86.71-59.89-97.91-61.49-21.71-3.1-59.91 26.04-85.9 50.96-10.87 10.43-69.57 19.21-58.27-11.01 36.64-98.01 108.21-106.6 123.35-106.04z" fill="#FBDD11" stroke="#333" stroke-width="5.15"/><path d="M2683.61 1418.42c118 78.73 213.43 183.22 270.94 319.36 3.9 9.23 17.38 7.92 19.38-1.89 88.86-428.78-256.57-1420.55-520.72-1450.45-16.75-1.9-38.98.44-65.71 6.64 296.11 131.92 304.55 866.37 296.11 1126.34z" fill="#000" fill-opacity=".1"/></svg>