<svg fill="none" height="4000" viewBox="0 0 4000 4000" width="4000" xmlns="http://www.w3.org/2000/svg"><path d="m1256.5 1165c-87.5 192 1187 438.5 1643.5 302.5 154-1048-1456.5-1108-1643.5-302.5z" fill="#fff" stroke="#333" stroke-linejoin="round" stroke-width="5"/><path clip-rule="evenodd" d="m2694.51 1501.44c78.46-5.9 148.38-16.92 205.49-33.94 90.96-619.026-433.7-893.343-916.99-848.197 409.55 41.738 781.3 330.317 711.5 882.137z" fill="#000" fill-opacity=".1" fill-rule="evenodd"/><path d="m1256.5 1165c-87.5 192 1187 438.5 1643.5 302.5-953 816.5-2815.0002 0-1643.5-302.5z" fill="#333" stroke="#333" stroke-linejoin="round" stroke-width="5"/><g clip-rule="evenodd" fill-rule="evenodd"><path d="m1135.85 1679.81c.88.23 1.77.46 2.65.69 402.78 104.44 1014.85 69.93 1420.02-173.85 133.95-.82 253.06-12.81 341.48-39.15-533.8 457.34-1352.8 402.34-1764.15 212.31z" fill="#000" fill-opacity=".3"/><path d="m1276.73 1232.43c-192.66 60.27-381.014 136.05-379.653 255.84-56.418-116.8 35.645-239.67 359.423-323.27-10.02 21.98-2.19 44.68 20.23 67.43z" fill="#000" fill-opacity=".3"/><path d="m1994.32 1242.11c-162.51-5.99-212.81-158.53-197.56-170.12 10.07-7.64 23.51-6 35.13-4.42 53.47 7.28 118.62 81.93 133.95 84.13 29.7 4.24 81.95-35.63 117.49-69.72 14.88-14.27 95.18-26.28 79.72 15.06-50.12 134.08-148.02 145.83-168.73 145.07zm-178.64-298.521c162.51 5.984 212.81 158.531 197.56 170.111-10.07 7.65-23.51 6-35.13 4.42-53.47-7.27-118.61-81.93-133.95-84.12-29.7-4.24-81.95 35.62-117.5 69.72-14.87 14.26-95.17 26.27-79.71-15.06 50.12-134.082 148.02-145.833 168.73-145.071z" fill="#fbdd11" stroke="#333" stroke-width="5"/></g></svg>