<svg fill="none" height="4000" viewBox="0 0 4000 4000" width="4000" xmlns="http://www.w3.org/2000/svg"><path d="m1256.5 1165c-87.5 192 1187 438.5 1643.5 302.5 154-1048-1456.5-1108-1643.5-302.5z" fill="#fff" stroke="#333" stroke-linejoin="round" stroke-width="5"/><path clip-rule="evenodd" d="m2694.51 1501.44c78.46-5.9 148.38-16.92 205.49-33.94 90.96-619.026-433.7-893.343-916.99-848.197 409.55 41.738 781.3 330.317 711.5 882.137z" fill="#000" fill-opacity=".1" fill-rule="evenodd"/><path d="m1256.5 1165c-87.5 192 1187 438.5 1643.5 302.5-953 816.5-2814.9983 0-1643.5-302.5z" fill="#333" stroke="#333" stroke-linejoin="round" stroke-width="5"/><path clip-rule="evenodd" d="m1135.85 1679.81c.88.23 1.76.46 2.65.69 402.77 104.44 1014.85 69.93 1420.02-173.85 133.95-.82 253.06-12.81 341.48-39.15-533.81 457.34-1352.8 402.34-1764.15 212.31z" fill="#000" fill-opacity=".3" fill-rule="evenodd"/><path clip-rule="evenodd" d="m1276.73 1232.43c-192.66 60.27-381.011 136.05-379.65 255.84-56.419-116.8 35.645-239.67 359.42-323.27-10.02 21.98-2.18 44.68 20.23 67.43z" fill="#000" fill-opacity=".3" fill-rule="evenodd"/><path d="m1941.26 1074.51c11.56 85.18 62.19 165.98 161.56 208.01 17.36 7.34 12.03 32.44-4.47 34.44-367.97 44.55-413.97-530.949-47.97-547.939 17.89-.831 26.91 23.653 11.41 32.94-57.48 34.453-97.22 94.254-114.07 161.074 4.76 5.6 7.47 12.913 6.66 20.516-.95 8.837-6.58 16.559-14.08 21.189-.71 6.73-1.2 13.49-1.45 20.27 5.03 1 17.53 8 18.03 21.5.52 14.01-7 21.5-15.62 28z" stroke="#000" stroke-width="12"/><path d="m2102.82 1282.52c-99.37-42.03-150-122.83-161.56-208.01 8.62-6.5 16.14-13.99 15.62-28-.5-13.5-13-20.5-18.03-21.5 3.32-90.35 48.1-178.187 122.94-223.049 15.5-9.287 6.48-33.771-11.41-32.94-366 16.99-320 592.489 47.97 547.939 16.5-2 21.83-27.1 4.47-34.44z" fill="#fbdd11"/><path d="m2045.66 812.618c5.21-3.777 10.59-7.335 16.13-10.657 15.49-9.287 6.47-33.771-11.41-32.94-50.23 2.331-92.7 15.181-127.64 35.504 29.15-13.659 63.46-22.172 103.14-24.014 15.28-.71 30.36 16.301 19.78 32.107z" fill="#000" fill-opacity=".1"/><path d="m1852.78 866.662c-92.88 169.798 2.85 444.248 256.42 420.288 9.1 10 3.14 28.32-10.85 30.01-276.75 33.51-371.38-283.73-245.57-450.298z" fill="#000" fill-opacity=".1"/><path d="m1889.21 1086.12c40.5-2 61.72-21.66 58.5-40-4.33-24.61-26.5-7.5-48.5-6.5s-56.5-35.5-73.51 1.5c-8.23 17.93 23.01 47 63.51 45z" fill="#997f11"/><g stroke="#000" stroke-width="1.5"><path d="m1836.03 972.641c-1.64 16.193 11.57 30.649 27.44 31.929 15.16 1.04 31-11.192 32.67-26.559 1.56-16.208-11.57-30.591-27.44-31.89-15.51-.977-31.03 10.66-32.67 26.52z" fill="#e3f6cf"/><path d="m1899.99 908.34c-27.74-.972-68.61 15.67-56.98 28.66 6.51 6.49 22.37-13.94 54.57-13.94 27.32 0 37.98 29.155 48.97 19.02 9.83-9.069-13.17-32.569-46.56-33.74z" fill="#a5bed4"/><path d="m1832.38 1064.51c3 3.5 6.82 7.13 11 9.5 5.61-6.08 10.5-13.2 19.55-14.32 3.21-.38 14.06.55 15.13-3.79.63-2.63-5.3-6.66-10.42-8.41-7.42-2.41-16.34-1.32-22.93 2.86-5.41 3.58-8.55 8.86-12.33 14.16z" fill="#9b221d"/><path d="m1929.1 1075.98c-9.78 5.49-23.2 9.32-39.9 10.14-16.74.83-31.9-3.65-43.34-10.46 2.12-2.91 6.56-8.76 8.4-7.9 1.86.88.51 6.83.34 8.4 1.67-2.19 3.48-7.94 6.59-7.94 3.01.21 3.46 9.95 3.91 11.92 1.62-2.16 4.27-7.92 7.57-7.62 3.65.32 3.81 5.93 4.43 8.46 1.97-2.5 5.28-10.04 9.06-9.55 2.71.35 3.72 6.35 4.5 8.93 2.08-2.63 5.22-9.16 8.53-8.89 2.69.22 4.33 7.02 4.76 9.68.93-2.58 1.38-8.35 4.27-9.15 3.97-1.07 7.08 3.54 8.38 6.43.39-2.97 1.2-6.4 4.14-7.49 2.58-.96 5.93 2.84 8.36 5.04z" fill="#fff"/><path d="m1853.23 1025.01c.48 3.27 2.62 8.78 5.98 8.96 2.29.1 4.14-1.3 5.21-3.11.03 2.8.68 7.17 3.73 8.09 2.39.74 5.17-1.6 6.63-3.36-.02 3.14-.36 9.61 3.48 10.78 3.72 1.15 6.14-3.35 8.21-5.46-.53 3.04 1.17 9.89 4.7 10.52 2.67.46 5.33-2.51 6.54-4.65 1.25 2.14 3.05 5.56 5.9 5.35 4.04-.36 5.44-6.16 5.83-9.53 2.29 1.74 5.97 4.47 8.9 3.16 2.52-1.1 3.24-4.92 3.91-7.37v-.03c1.81 1.11 4.45 2.72 6.72 1.71 1.88-.83 3.01-4.23 3.72-7.1-4.14.3-8.88 1.57-13.94 2.92-6.2 1.65-12.88 3.43-19.54 3.73-7.21.33-15.75-3.36-24.58-7.18-7.13-3.08-14.45-6.24-21.4-7.43z" fill="#fff"/></g><path d="m1878.52 975.121c-.15-.481-.61-.848-1.11-.893-.02-.304-.15-.591-.36-.809-.31-.319-.78-.445-1.22-.381-.23-.327-.63-.527-1.03-.527s-.79.2-1.03.527c-.42-.162-.92-.08-1.27.208-.26.216-.42.536-.45.872.23.313.31.733.2 1.107s-.4.686-.77.823c-.29.878.05 1.868.8 2.396.76.528 1.81.496 2.53-.076.4 0 .77.004 1.1-.25.48.161 1.06-.219 1.41-.515.31-.26.8-.764.75-1.205.41-.299.6-.794.45-1.277z" fill="#000"/><g stroke="#000" stroke-width="1.5"><g stroke-linecap="round"><path d="m1907.38 999.011c-1.5 4.999-2 9.499-2 14.999s2.5 15-5.5 19c-5 2.5-12-20-12-21.5" stroke-linejoin="round"/><path d="m1911.38 1017.01c6.5 2.5 15 5 26-2"/><path d="m1837.88 1001.51c.5 7 12.5 17.5 32.5 12.5"/><path d="m1838.38 1017.51c-23 8.5-37 44 1 63"/><path d="m1926.38 1024.51c33.5-7 54 49-19 63"/></g><path d="m1896.37 978.411c-1.61 15.665 11.16 29.519 26.48 30.819 14.82 1.11 29.92-10.683 31.53-25.679 1.64-15.48-11.28-29.761-26.48-30.82-15.02-.664-29.96 10.217-31.53 25.68z" fill="#e3f6cf"/></g><path d="m1938.92 981.294c-.15-.481-.61-.848-1.11-.893-.02-.304-.15-.591-.36-.809-.31-.319-.78-.445-1.22-.381-.24-.327-.63-.527-1.03-.527s-.8.2-1.03.527c-.42-.162-.92-.08-1.27.208-.26.216-.42.536-.45.872.23.313.31.732.2 1.107-.12.374-.41.686-.77.823-.29.878.05 1.868.8 2.396.76.528 1.8.496 2.53-.076.39 0 .77.004 1.1-.25.48.161 1.06-.219 1.41-.515.31-.26.79-.764.75-1.205.41-.299.6-.794.45-1.277z" fill="#000"/><path d="m1889.21 1086.12c40.5-2 61.72-21.66 58.5-40-4.33-24.61-26.5-7.5-48.5-6.5s-56.5-35.5-73.51 1.5c-8.23 17.93 23.01 47 63.51 45z" stroke="#000" stroke-width="1.5"/></svg>