<svg xmlns="http://www.w3.org/2000/svg" width="4000" height="4000" fill="none" xmlns:v="https://vecta.io/nano"><path d="M1256.5 1165c-87.5 192 1187 438.5 1643.5 302.5 154-1048-1456.5-1108-1643.5-302.5z" fill="#fff" stroke="#333" stroke-width="5" stroke-linejoin="round"/><path fill-rule="evenodd" d="M2694.5 1501.44c78.46-5.9 148.38-16.92 205.5-33.94 90.96-619.026-433.7-893.343-917-848.197 409.55 41.738 781.3 330.317 711.5 882.137z" fill="#000" fill-opacity=".1"/><path d="M1256.5 1165c-87.5 192 1187 438.5 1643.5 302.5-953 816.5-2814.9983 0-1643.5-302.5z" fill="#333" stroke="#333" stroke-width="5" stroke-linejoin="round"/><g fill="#000"><path d="M1135.85 1679.8l2.65.7c402.77 104.44 1014.85 69.93 1420.02-173.85 133.95-.82 253.06-12.8 341.48-39.15-533.8 457.34-1352.8 402.34-1764.15 212.3z" fill-opacity=".3"/><path fill-rule="evenodd" d="M1276.73 1232.43c-192.66 60.27-381.01 136.05-379.65 255.84-56.42-116.8 35.645-239.67 359.42-323.27-10.02 21.98-2.18 44.68 20.23 67.43z" fill-opacity=".3"/></g><path d="M2048 846.5c-88-22.5-239-10.5-316.5 25.5-6.5 115.5 13 331.5 44 423 90 32 236 59.5 396 67-59.5-124.5-99-323.5-123.5-515.5z" fill="#fbdd11" stroke="#333" stroke-width="24"/><g fill="#333"><path d="M1859.5 970.332c-5.72-11.753-11.6-14.222-25.85-8.748-27.8 10.53-67.9 11.605-91.16 32.177-.85-6.7 0-12.55 0-19.878 15.93-27.504 43.35-32.174 66.3-33.517 21.8-1.273 40.87-11.3 60.47-19.524 2.84 5.97.48 10.2-2.2 14.704-6.56 11-12.3 21.767-.06 33.455 3.84 3.678.9 6.863-4.64 4.883l-.01-.014v.013c1.88 7.377 5.6 14.57 2.44 22.408 5.85-2.426 12.4-4.872 14.68 4.36l12.12 56.06c-6.65-3.77-8.03-8.82-9.34-13.6-.78-2.85-1.53-5.6-3.35-7.95-5.1 4.23-2.12 13.9-11 16.8-3.5-18.57-13.34-35.82-3.75-55.024-5 3.844-7.7 10.754-16.8 12.464.32-12.703 32.83-31.676-8.32-34.645 7.94-9 14.4-5.384 20.48-4.403zm186.6-29.038c-32.7 2.504-66.98-.528-98.64 9.107-2 .6-3.7 1.132-6.56-1.505-7.3-6.73-8.46-6.1-11.65 2.618-2.5 6.694-10.86 1.642-14.63 11.005-.54-16.513-6.02-28.626-3-43.008 1.77-8.322 5.82-10.6 10.25-8.25 26.37 14.226 53.1 5.217 79.68 2.56 29.35-2.933 31.46-1.768 44.54 27.474zm-159.35 124.056c-14.98 10.82-14.1 25.13-11.87 39.22 2.26 13.85 9.4 10.73 15.73 7.97 4.38-1.9 8.37-3.65 10.07.53 7.25 17.9 13.57 10.16 20.42-.1 6.05-9.04 24.88 4.9 25.44-12.15.46-8.86-2.97-17.67-9.28-23.9-3.7 9.8-14.9-.98-20.7 8.5-8.44 13.8-17.68 12.03-24.62-3-2.26-4.9-3.2-10.43-5.2-17.08z"/><path fill-rule="evenodd" d="M1952.1 1149.2c14.23-1.32 20.58 13.27 33.13 16.3 4.42 1.06 1 7.7-2.28 10.9-4.14 3.96-9.3 3.63-14.34 3.3h-.01c-27.65-1.8-55.82 2.15-81.1 13.87-4.18 1.95-9.83 6.4-13-.42-2.5-5.2-1.68-11.56 2.03-15.98 19.8-24.05 47.7-26.07 75.58-27.97zm-61.85 34.5c26.86-9.34 52.2-12.64 82.28-14.08-23.44-22.52-45.25-4.6-65.32-6.44-9.26-.92-14.22 7.77-16.96 20.46v.06z"/><path d="M1976.82 1219.86c-22.37 9.55-45.3 11.2-71.02 10.2 10.07 18.3 20.98 27.96 40.53 21.7 16.08-5.2 23.66-17.67 30.5-31.9zm-135.06-240c11.24-5.173 16.44 9.615 3.84 13.9l-46.5 15.67c-12.94 4.64-18.96-4.42-28.38-13.055 25-6.17 49.2-6.526 71.03-16.524zm138.3-12.12c-9.3-1.174-18.85-2.274-28.15-.453-7.38 1.52-9.04 11.167-.3 11.522 20.67.797 40.86 9.116 61.9 4.04 9.13-2.184 11.96-10.508.6-11.875l-34.06-3.234z"/></g></svg>