<svg xmlns="http://www.w3.org/2000/svg" width="4000" height="4000" fill="none" xmlns:v="https://vecta.io/nano"><path d="M1256.5 1165c-87.5 192 1187 438.5 1643.5 302.5 154-1048-1456.5-1108-1643.5-302.5z" fill="#fbdd11"/><path d="M1256.5 1165c-87.5 192 1187 438.5 1643.5 302.5-953 816.5-2814.9983 0-1643.5-302.5z" fill="#352f01"/><path d="M1135.85 1679.8l2.65.7c402.77 104.44 1014.85 69.93 1420.02-173.85 133.95-.82 253.06-12.8 341.48-39.15-533.8 457.34-1352.8 402.34-1764.15 212.3zm140.88-447.37c-192.66 60.27-381 136.05-379.65 255.84-56.42-116.8 35.645-239.67 359.42-323.27-10.02 21.98-2.18 44.68 20.23 67.43z" fill-opacity=".4" fill-rule="evenodd" fill="#000"/><g fill="#352f01"><path d="M2527 1507.5h69.5c-187.6-268.5-238.68-583.032-338-881l-57-7c86 275.97 150.7 621.4 325.5 888zm-636.63-673.637c-12.65-21.226-24.15-24.945-50.14-12.4-50.75 24.216-115.97 29.702-156.55 72.105 18.98 181.442 62.43 366.252 120.56 531.922l-69.28-15c-67.92-200.08-109.78-454.653-122.46-684.5 19.95-11.644 43.54-21.436 56.5-27.5 1.73 42.976 7.92 107.345 9.72 155.24 25.68-54.297 68.22-62.137 111.28-68.3 40.92-5.84 75.28-27.746 110.95-46.3 6.3 10.8 2.52 19.126-1.83 28.032-10.63 21.746-19.78 42.926 5.18 62.998 7.82 6.318 2.77 12.78-7.98 9.926l-.02-.025v.026c4.73 13.6 12.86 26.55 8.15 41.802 10.66-5.5 22.65-11.132 28.37 5.896l31.72 103.626c-13.13-6.056-16.53-15.335-19.76-24.15-1.92-5.234-3.77-10.304-7.57-14.44-8.94 8.774-1.8 26.527-18.1 33.36-9.5-34.414-30.8-65.338-15.76-103.014-8.85 8.03-12.85 21.472-29.7 26.114-1.42-23.962 56.9-64.816-21.18-63.908 13.55-18.177 26.32-12.412 37.93-11.523zm347.28-84.135c-61.26 9.876-126.4 9.582-184.56 32.72-3.7 1.466-6.83 2.717-12.63-1.797-14.82-11.52-16.9-10.167-21.55 6.77-3.66 12.997-20.2 4.804-25.83 23.027-3.64-31.003-15.9-52.943-12.45-80.5 2.03-15.947 9.3-20.892 18.03-17.152 51.98 22.62 100.93 1.438 150.65-7.762 54.88-10.155 59.05-8.297 88.34 44.695zm-280.9 258.722c-26.55 22.74-22.64 49.54-16.18 75.72 6.45 25.73 19.42 18.73 30.92 12.53 7.95-4.3 15.2-8.2 19.08-.6 16.5 32.58 27.2 17 38.5-3.38 9.98-17.98 47.68 5.32 46.05-26.9-.55-16.75-8.4-32.8-21.3-43.5-5.4 19-28.26.5-37.68 19.27-13.74 27.32-31.44 25.44-46.9-1.8-5.04-8.9-7.7-19.12-12.5-31.34z"/><path fill-rule="evenodd" d="M2093.24 1156c26.64-4.73 40.9 21.74 65.06 25.45 8.5 1.3 3.1 14.36-2.6 20.9-7.16 8.1-16.95 8.3-26.5 8.47h-.01c-52.43 1-104.93 12.86-150.74 38.9-7.6 4.34-17.53 13.6-24.6 1.27-5.5-9.4-5-21.5 1.3-30.4 33.5-48.4 85.8-56.63 138.08-64.6zm-111.17 74.7c49.17-21.82 96.46-32.04 152.94-39.48-47.77-38.7-86.06-1.5-124.2-1.82-17.6-.27-25.6 16.86-28.73 41.2v.1z"/><path d="M2151.03 1285.15c-40.67 21.5-83.63 28.2-132.3 30.4 21.87 32.86 43.98 49.33 79.85 34.46 29.5-12.32 41.83-37 52.45-64.87zM1858.4 854.587c20.38-11.515 32.52 15.506 9.43 25.583l-85.18 36.837c-23.66 10.774-36.44-5.324-55.58-20.093 46.2-15.566 91.73-20.056 131.33-42.327zm258.9-44.662c-17.74-.74-35.9-1.305-53.15 3.593-13.68 4.025-15.3 22.452 1.28 21.738 39.1-1.762 78.48 10.713 117.35-2.167 16.86-5.552 20.88-21.67-.74-22.452-21.58-.532-43.17.1-64.74-.712zm269.64-152.057C2446.12 984 2566 1239.64 2707.45 1500.42c26.1-2.18 51.22-4.95 75.18-8.34-140.1-256.27-257.84-500.427-319.35-807.53-24.9-9.963-50.4-18.856-76.34-26.683zM1464.6 825.506c21.45-18.465 44.08-35.733 67.72-51.798 7.6 199.454 17.08 418.152 85.7 607.332-28.17-7.7-55.26-15.6-81.04-23.7-48.76-171.35-63.13-354.55-72.4-531.834zM2908.1 1393.5c-1.7 24.1-4.4 48.76-8.1 74-9.1 2.7-18.52 5.27-28.25 7.68-118.3-224-218.22-448.93-274.85-722.87 30.32 19.115 59.12 40.238 86.07 63.382 52 211.9 131.22 395.25 225.13 577.8zm-1592.07-385.68c20.3-37.318 44.2-72.026 71.13-104.105-5.76 137.245 1.74 276.455 30.62 411.005-29.56-12.2-55.83-24.64-78.26-37.18-14.85-89.03-21.9-179.52-23.5-269.72z"/></g><path fill-rule="evenodd" d="M2694.5 1501.44c78.46-5.9 148.38-16.92 205.5-33.94 90.96-619.025-433.7-893.343-917-848.197 409.55 41.74 781.3 330.318 711.5 882.137z" fill="#000" fill-opacity=".4"/><g stroke="#333" stroke-width="8" stroke-linejoin="round"><path d="M1256.5 1165c-87.5 192 1187 438.5 1643.5 302.5 154-1048-1456.5-1108-1643.5-302.5z"/><path d="M1256.5 1165c-87.5 192 1187 438.5 1643.5 302.5-953 816.5-2814.9983 0-1643.5-302.5z"/></g></svg>