<svg fill="none" height="4000" viewBox="0 0 4000 4000" width="4000" xmlns="http://www.w3.org/2000/svg"><path d="m1256.5 1165c-87.5 192 1187 438.5 1643.5 302.5 154-1048-1456.5-1108-1643.5-302.5z" fill="#fff" stroke="#333" stroke-linejoin="round" stroke-width="5"/><path clip-rule="evenodd" d="m2694.51 1501.44c78.46-5.9 148.38-16.92 205.49-33.94 90.96-619.026-433.7-893.343-916.99-848.197 409.55 41.738 781.3 330.317 711.5 882.137z" fill="#000" fill-opacity=".1" fill-rule="evenodd"/><path d="m1256.5 1165c-87.5 192 1187 438.5 1643.5 302.5-953 816.5-2814.9983 0-1643.5-302.5z" fill="#333" stroke="#333" stroke-linejoin="round" stroke-width="5"/><path d="m1135.85 1679.81c.88.23 1.76.46 2.65.69 402.77 104.44 1014.85 69.93 1420.02-173.85 133.95-.82 253.06-12.81 341.48-39.15-533.81 457.34-1352.8 402.34-1764.15 212.31z" fill="#000" fill-opacity=".3"/><path clip-rule="evenodd" d="m1276.73 1232.43c-192.66 60.27-381.011 136.05-379.65 255.84-56.419-116.8 35.645-239.67 359.42-323.27-10.02 21.98-2.18 44.68 20.23 67.43z" fill="#000" fill-opacity=".3" fill-rule="evenodd"/><path d="m2048 846.5c-88-22.5-239-10.5-316.5 25.5-6.5 115.5 13 331.5 44 423 90 32 236 59.5 396 67-59.5-124.5-99-323.5-123.5-515.5z" fill="#fbdd11" stroke="#333" stroke-width="24"/><g fill="#333"><path d="m1859.51 970.332c-5.72-11.753-11.61-14.222-25.85-8.748-27.8 10.53-67.91 11.605-91.16 32.177-.85-6.7 0-12.549 0-19.878 15.93-27.504 43.35-32.174 66.3-33.517 21.8-1.273 40.87-11.309 60.47-19.524 2.84 5.969.48 10.199-2.2 14.704-6.56 11-12.31 21.767-.06 33.455 3.84 3.678.89 6.863-4.64 4.883l-.01-.014v.013c1.88 7.377 5.59 14.571 2.44 22.408 5.85-2.426 12.41-4.872 14.68 4.359 4.29 18.63 8.12 37.37 12.12 56.06-6.65-3.77-8.03-8.82-9.34-13.61-.78-2.85-1.53-5.6-3.35-7.95-5.1 4.23-2.12 13.91-11.01 16.79-3.49-18.57-13.34-35.82-3.75-55.024-5.01 3.844-7.71 10.754-16.8 12.464.32-12.703 32.83-31.676-8.32-34.645 7.94-8.989 14.4-5.384 20.48-4.403z"/><path d="m2046.11 941.294c-32.69 2.504-66.98-.528-98.64 9.107-2 .611-3.71 1.132-6.56-1.505-7.3-6.73-8.46-6.109-11.65 2.618-2.5 6.694-10.86 1.642-14.63 11.005-.54-16.513-6.02-28.626-2.99-43.008 1.77-8.322 5.82-10.609 10.25-8.251 26.37 14.226 53.09 5.217 79.68 2.56 29.35-2.933 31.46-1.768 44.54 27.474z"/><path d="m1886.75 1065.35c-14.98 10.82-14.11 25.13-11.87 39.22 2.26 13.85 9.4 10.73 15.73 7.97 4.38-1.91 8.37-3.65 10.07.53 7.25 17.91 13.57 10.16 20.42-.09 6.05-9.04 24.88 4.91 25.44-12.15.46-8.86-2.97-17.67-9.28-23.89-3.69 9.79-14.91-.98-20.7 8.5-8.44 13.81-17.68 12.03-24.62-3.01-2.26-4.91-3.21-10.43-5.19-17.08z"/><path clip-rule="evenodd" d="m1952.1 1149.19c14.23-1.32 20.58 13.27 33.13 16.3 4.42 1.06 1.01 7.71-2.28 10.9-4.14 3.96-9.3 3.63-14.34 3.3h-.01c-27.65-1.79-55.82 2.15-81.1 13.87-4.18 1.95-9.83 6.4-13.01-.42-2.49-5.21-1.68-11.56 2.03-15.98 19.79-24.05 47.69-26.07 75.58-27.97zm-61.85 34.5c26.86-9.34 52.21-12.64 82.28-14.08-23.44-22.52-45.25-4.59-65.32-6.44-9.26-.92-14.22 7.77-16.96 20.46z" fill-rule="evenodd"/><path d="m1976.82 1219.86c-22.37 9.55-45.29 11.19-71.02 10.2 10.07 18.3 20.98 27.96 40.53 21.71 16.08-5.2 23.66-17.67 30.49-31.91z"/><path d="m1841.76 979.851c11.24-5.173 16.44 9.615 3.84 13.91-15.5 5.216-31.1 10.139-46.49 15.669-12.94 4.64-18.96-4.42-28.38-13.055 25.01-6.169 49.19-6.526 71.03-16.524z"/><path d="m1980.07 967.729c-9.31-1.174-18.85-2.274-28.15-.453-7.38 1.519-9.04 11.167-.29 11.522 20.67.797 40.86 9.116 61.89 4.04 9.13-2.184 11.96-10.508.61-11.875-11.34-1.233-22.74-1.848-34.06-3.234z"/></g></svg>