<svg xmlns="http://www.w3.org/2000/svg" width="4000" height="4000" fill="none" xmlns:v="https://vecta.io/nano"><path d="M1256.5 1165c-87.5 192 1187 438.5 1643.5 302.5 154-1048-1456.5-1108-1643.5-302.5z" fill="#fff" stroke="#333" stroke-width="5" stroke-linejoin="round"/><path fill-rule="evenodd" d="M2694.5 1501.44c78.46-5.9 148.38-16.92 205.5-33.94 90.96-619.026-433.7-893.343-917-848.197 409.55 41.738 781.3 330.317 711.5 882.137z" fill="#000" fill-opacity=".1"/><path d="M1256.5 1165c-87.5 192 1187 438.5 1643.5 302.5-953 816.5-2815.0002 0-1643.5-302.5z" fill="#333" stroke="#333" stroke-width="5" stroke-linejoin="round"/><path d="M1135.85 1679.8l2.65.7c402.78 104.44 1014.85 69.93 1420.02-173.85 133.95-.82 253.06-12.8 341.48-39.15-533.8 457.34-1352.8 402.34-1764.15 212.3zm140.88-447.37c-192.66 60.27-381.013 136.05-379.652 255.84-56.42-116.8 35.645-239.67 359.422-323.27-10.02 21.98-2.18 44.68 20.23 67.43z" fill-opacity=".3" fill-rule="evenodd" fill="#000"/><g stroke-miterlimit="10"><path d="M2014.4 1326.38c-73.74 3.6-370.76-68.83-390.06-128.14s83.84-326.72 161.65-354.5c86.9-31 358.65 56.15 374.82 115.08s-72.67 363.96-146.4 367.55z" fill="#00c600" stroke="#333" stroke-width="5"/><path d="M2055.6 1072.1c-7.15 11.8-22.4 14.67-41.86 10.78-21.22-4.23-41.12-14.1-59.62-25.08 7.54-20.82 22.7-28.36 34.43-28.34 22.37.1 61.88 19.8 67.05 42.64zm-166.67-29.93c-24.58-9-69.93-47.17-76.82-73.7 43.9 9.04 76.98 21.32 113.27 34.46 20.34 42.9-1.1 52.08-36.45 39.25z" fill="#f2f2f2" stroke="#000" stroke-width="2"/></g><path d="M1882.08 1039.27c-17.34-8.25-35.14-23.62-48.44-38.25 3.03-8.902 8.75-16.87 16.24-22.56l46.7 14.6c4.38 16.48-2.1 34.87-14.5 46.22z" fill="#000"/><g stroke-miterlimit="10" stroke="#000"><path d="M2013.5 1174.5c.86 9.26-2.1 70.1-124.56 17.17s-148.45-125.68-142.3-138 32.35 13.67 53.13 28 126.06 82 177.23 85.46 58-22.13 60.8-28.86c-.8 18.73-9.3 26.23-24.3 36.23z" fill="#944400" stroke-width="2.5"/><path d="M1735.1 1044c4.78-4.8 26.64-5.14 35.06-.78m-15.82-18.76c3.8.4 14.53 3.1 17.68 6.4m180.92-16.53c3.7-10.23.9-44.28-48.93-67.1-55.73-25.52-106.76-22.38-118.54 10.16l26.64 11.06" stroke-width="1.5"/><path d="M1799.14 963.17c9.5-8.4 76.4-35.7 126.24 39.73" stroke-width="2"/><g stroke-width="1.5"><path d="M1893.27 942.65c25 9.57 68 66.4 52.14 96.45m-24.4 7.7c5.64.34 15 2.42 19.76 5.88-16.26 29.83-80.54 27.1-101.7 21.57"/><path d="M1810.74 996.23c4.1 19.87 50.2 62.23 116.82 69.74m65.9 23.63c-3.66 2.7-18.42 7.65-40.78-12.75"/><path d="M1965.4 1086.4c1.88 6.5 10.93 29 16 33.44m74.2-47.74c3.55 11.73-22.27 49.26-54.32 37"/><path d="M2009.93 1095.55c9.57 4.4 19.57 9.43 36.32-.65"/></g><path d="M2032.7 1106.3c3.1 4.3 9.3 15.7 5.1 32" stroke-width="1.3884"/><path d="M1972.76 1033.85c14.23-16.8 85.46-16.72 82.83 38.24" stroke-width="2"/><g stroke-width="1.5"><path d="M2055.17 1061.8c9.17-2.84 48.44-46.66-51-60.76"/><path d="M1978.45 1021.43c10.46-16 67.18-8.36 92 18.1"/></g><path d="M1762.58 1070.56c15.4 19.48 182.5 149.28 250.92 103.94" stroke-width="2.5"/></g><path d="M2013.73 1082.87c-14-2.8-30.12-9-47-18 .8-14.26 8.65-29.06 21.8-35.42 10.47.04 21.2 3.23 30.46 7.55 7.54 13.82 4.1 33.84-5.27 45.87z" fill="#000"/><path d="M2008.95 1070.1c5.4 0 9.78-4.38 9.78-9.78s-4.38-9.78-9.78-9.78-9.78 4.38-9.78 9.78 4.38 9.78 9.78 9.78zm-17.65-19.6c3.92 0 7.1-3.18 7.1-7.1s-3.18-7.1-7.1-7.1-7.1 3.18-7.1 7.1 3.18 7.1 7.1 7.1zm-6.16 16.2c3.53 0 6.4-2.87 6.4-6.4s-2.87-6.4-6.4-6.4-6.4 2.87-6.4 6.4 2.87 6.4 6.4 6.4zm-105.9-45.4c5.6 0 10.13-4.54 10.13-10.13s-4.54-10.13-10.13-10.13c-5.6 0-10.13 4.54-10.13 10.13s4.53 10.13 10.13 10.13zm-22.83-23.82c3 0 5.42-2.427 5.42-5.42s-2.43-5.42-5.42-5.42-5.42 2.427-5.42 5.42 2.43 5.42 5.42 5.42zm-1.58 15.72c3.66 0 6.63-2.97 6.63-6.63s-2.97-6.63-6.63-6.63-6.63 2.97-6.63 6.63 2.97 6.63 6.63 6.63z" stroke-miterlimit="10" fill="#f2f2f2" stroke="#000" stroke-width=".6942"/></svg>