<svg fill="none" height="4000" viewBox="0 0 4000 4000" width="4000" xmlns="http://www.w3.org/2000/svg"><path d="m1256.5 1165c-87.5 192 1187 438.5 1643.5 302.5 154-1048-1456.5-1108-1643.5-302.5z" fill="#fff" stroke="#333" stroke-linejoin="round" stroke-width="5"/><path clip-rule="evenodd" d="m2694.51 1501.44c78.46-5.9 148.38-16.92 205.49-33.94 90.96-619.026-433.7-893.343-916.99-848.197 409.55 41.738 781.3 330.317 711.5 882.137z" fill="#000" fill-opacity=".1" fill-rule="evenodd"/><path d="m1256.5 1165c-87.5 192 1187 438.5 1643.5 302.5-953 816.5-2815.0002 0-1643.5-302.5z" fill="#333" stroke="#333" stroke-linejoin="round" stroke-width="5"/><g fill="#000"><path clip-rule="evenodd" d="m1135.85 1679.81c.88.23 1.77.46 2.65.69 402.78 104.44 1014.85 69.93 1420.02-173.85 133.95-.82 253.06-12.81 341.48-39.15-533.8 457.34-1352.8 402.34-1764.15 212.31z" fill-opacity=".3" fill-rule="evenodd"/><path clip-rule="evenodd" d="m1276.73 1232.43c-192.66 60.27-381.013 136.05-379.652 255.84-56.419-116.8 35.645-239.67 359.422-323.27-10.02 21.98-2.18 44.68 20.23 67.43z" fill-opacity=".3" fill-rule="evenodd"/><path d="m1870.05 811.67c115.15-21.98 311.98 65.44 259.51 204.92-.38 1-.78 2.07-1.2 3.2-12.64 33.62-46.61 124.03-62.04 133.91-27.35 84.44-89.44 189.43-190.3 177.3-47.51-5.73-87.78-36.31-114-74.85-55.59-81.71-34.94-193.54-22.39-284.08 4.42-73.54 56.42-146.27 130.42-160.4z"/></g><path d="m1730.29 1137.06c-16.29-6.56-17.91-48.44-17.91-72.5s6.34-52 21.4-58.19c23.52-9.62 21.87 35.75 27 47.74 11.4 26.58 14.87 9.64 23.94-5.4 10.88-18 31.86-49.43 52-57.27 27.73-10.811 46.94-3.347 73.28-5.44 22-1.747 57.5-59 133.57 4.14 22.91 19.02 26.15 53.18 26.17 82.43 0 53.79-16.17 101.33-39.84 149.09-17.64 35.6-35.9 54.84-66.4 76.34s-42.92 20.13-71.29 21.72c-30.4 1.7-74.59-15.56-96.22-36.73-67.49-66.06-52.49-101.49-65.7-145.93z" fill="#765c02"/><path d="m1895.11 835.41c17.46-.2 34-13.89 52.6-12.81 10.78.62 85.75 32.72 48.08 39.66-58.9 10.859 62.94 9.093 21.24 38.54-16.14 11.38-32-12.18-48.77-12.69-24.73-.74-49.44 33-75.44 22.16-20.84-8.7-12.24-22.13-40.32-11.29-22.81 8.82-39.42 15.17-64.11 13.18s-22.45-7.024-12.39-29.66c17.38-39.11 108.89-87.087 119.11-47.09z" fill="#755902"/><path d="m2005.38 1097.66c14.55 6.2 43.94 5.84 48.13 25.11 4.69 21.55-23.38 28.16-39.45 27.34-15.21-.78-42.43-8.11-45.68-25.59-3.71-19.98 19.53-33.42 37-26.86z" fill="#362901"/><path d="m2107.83 923.6c.61 3.475.39 7.045-.64 10.42 2.14-1-53.08 8.07-61.69-1.52s16.35-19 14.89-30.27c-2.21-16.6-14.22-9.55-18.23-14.55-10.16-12.68 12.84-14.28 22.61-11.21 18.23 5.74 34.33 31.4 43.06 47.13z" fill="#705701"/><path d="m2002.91 884.97c8.86.76 35.3 4.6 6.3 13.78-13 4.11-25.95-8.76-39.71-7.75-1.2.09-44.05 15.63-42.16 9.17 2.12-7.2 12.85-8.51 17.17-13.36 14.76-16.473 24.36-4.761 58.4-1.84z" fill="#9f7c00"/><path d="m1981 848.35c8.33 3.834 50 6.59 30.48 34.02-7.24 10.173-11.98-5.37-33.88-7.68s-44.1-3.19-47.6-19.75 30.86-15.829 51-6.59z" fill="#503e02"/><path d="m2025.43 846.76c3.91 1.7 17.18 19.87 9.57 23-13 5.35-23.11-28.38-9.57-23z" fill="#9a7700"/><path d="m2048.68 1129.64c-8.22 37.3-92.14 4.61-74-22.51 12.25-18.34 82.11.96 74 22.51z" fill="#000"/><path d="m2055.24 1089.61c9.17-18.28-8.24-33.11-6.74-48.11s14-34-15.7-56.05c-28.89-21.45-79.05-21.595-106.57 3.93-25.84 23.96-82.28-30.38-138.39 63.23-7.93 13.23-6.12 17.3-21.74 19.44-39.7 5.44-6.44-18.46-12.84-38.64-1.54-4.83-10.16-22.09-17.39-19.2-5.75 2.3 9.86 14.71 7.74 21.3-1.62 5.11-16.33 6.31-20 12.44-7.42 12.41 1.9 37.56 1.29 51.11-.36 8.51-4.31 16.7-1 25.12 2.98 7.59 8.88 7.03 12.31 12.14 10.87 16.15 7.11 21.72 9.87 41.64 2.4 17.27 13.2 37.02 29.25 45.2 9.37 4.78 25.65.92 33.47 6.48 18.06 12.85-7.8 17.07-9.46 28.15-5.35 36.36 94.71 68.74 117.44 53.87 19.84-12.97-1.56-16.95-13.25-24.42-18.07-11.57-21.2-16.58-13.54-33.33 16.72-36.46-33.99-19.91-41.54-33.11-3.21-18.7 48.62 8.35 57.62 5.63 36.17-10.91-17.58-30.48-11.26-46.48 3.66-9.19 33.83 10.63 37.66 12 16.09 5.76 26.98-1.5 41.78 1.59 23.84 4.99 25.49 17.83 51.19.41 4.8-3.28 34.31-30.34 20.62-38.28-2.95-1.71-26.56 10.83-41.06 4.83s-26.35 3.68-30.75-4.83c-22.5-43.5-2.09-63.91 20.36-67.01 18.03-2.49 50.14 21.96 60.63.95z" fill="#cea000"/><path d="m1786.17 879.8c7.39-23.72 32.93-32.13 54-39.26 7.2-2.44 42.66-17.59 45.28-6.74 2.41 9.94-23.87 19.85-30.24 24.61-3.66 2.73-23 6.23-15.82 15.61 4.88 6.4 16.68.19 21.56-2.41 4.35-2.32 37-32.46 25.84-3.55-3.88 10.07-26.21 14.72-34.76 18.35-17.93 7.59-83.63 40.59-65.86-6.61z" fill="#c69a00"/><path d="m1849.14 866.29c1.53-2.56 20.78-16.51 23.64-13.76 8.22 7.87-29.34 28.36-23.64 13.76z" fill="#8c6d00"/><path d="m2097.56 926.59c-4.48-1.27-37.95-4.74-38.57-6.47s16.93-13.45 16.74-21.16c0-1.59-22.85-19.06-2.17-12.86 12.51 3.75 31.76 43.41 24 40.49z" fill="#c29700"/><path d="m1963.58 1186.38c-24.07 1.55-22.91 8.61-45.38-4-11.25-6.32-36.81-17.08-25.06 7 4.75 9.75 25.59 11.08 21 25.49-4.74 14.89-27.57 4-37.23 1.72-6.9-1.64-29.83-10.45-33.2-2.33-6.37 15.37 39.5 15.42 43.29 24.68 6.17 15-11.22 11.41-11.4 27.79-.21 19.48 31.37 25.82 42.61 36.9 4.07 19.87-94.21-5.13-108.54-35.04-5.32-16.53 18.8-22.33 12.54-37.21-6.06-14.4-43.79-12.17-57-24.42-25.06-23.21-5.94-34.12-15.38-57.92-3.64-9.16-10-5.83-15-11.93-8.84-10.77-8.36-16.3-8.28-29.93.08-11.84-8.07-48-2-56.91 5.31-7.83 26.1-9.18 25.79 1.76-20.34 21.97 12.36 43.05 36.54 9.85 17.17-23.45 25-43.09 56-52.49 34.39-10.316 56.89-3.29 79.4-11.93 21.54-8.27 34.16-23.26 61.18-23.92 23.32-.57 52.55 10.61 61.79 34.52 5.77 14.92-3.06 34.9-2.63 52.42.56 23.06-.83 28.25-25.79 27.85-22.89-.37-43.4-6.77-53.75 19.93-9.27 23.87 3.21 53.31.5 78.12z" fill="#ffc800"/><path d="m1899 1183c6.5-15 19.47 14.88 29.82 19.41 8.16 3.58 28.82-6.49 34.71 1.93 5.27 7.53-14 19.87-14.2 31.71-.19 10.69 19.48.62 7.72 16.86-6.46 8.91-22.52 3.11-30.35.34-11.56-4.09-43.2-17.2-44.69-26.67 17-2.71 49.36 23.58 45.56-5.49-.88-6.74-28.57-30.09-28.57-38.09z" fill="#5a4502"/><path d="m1930.1 1108.2c-31.02 15.64-45.47 2.11-69.43-16.26-17-13-35.22-29.12-.42-38.5 59.75-16.1 127.75 25.56 69.85 54.76z" fill="#cc9f00"/><path d="m1985.37 1161.8c5.4 1.08 38.13 15.7 49.29 13.37-4.66 7.83-26.15 22.21-34.24 21-17.05-2.52-16.63-34.96-15.05-34.37z" fill="#fec700"/><path d="m1928.47 1253.84c-4.36-.93-41.54-19.4-40.2-23.4.16-.47 46.67 7.53 49.19 8.28 26.59 7.91 14.2 23.85-8.99 15.12z" fill="#352a01"/><path d="m1964 1208.49c-5.92 29.09-44.06 20.7-35.59 1.6 2.21-4.97 38.77-9.76 35.59-1.6z" fill="#2c2203"/><path d="m1908.35 1191.28c-6.08-1.75-8.63-4.99-7.64-9.72 5.29-5.41 18.1 13.65 7.64 9.72z" fill="#2c2203"/><path d="m1910.54 1239c-.07 0 44.41 5.92 44.1 9.33-.97 10.67-45.54.78-44.1-9.33z" fill="#191302"/><path d="m1955 1212.61c-3.35 6.2-26.17 26.08-23.08 4.45 1.68-11.96 23.49-5.52 23.08-4.45z" fill="#010100"/><path d="m1904.63 1057.52c13.58-.5 35.09 5 39.92 20 10.68 33.06-34.39 35.65-51.53 24.44-9.49-6.25-48.26-17.83-45.43-31.53 2.02-9.84 49.03-12.62 57.04-12.91z" fill="#8e6e00"/><path d="m1941.32 1089c-6.64 17.46-79.28 3.89-84.33-11.13-3.98-11.84 39.43-17.6 45.9-17.77 14.03-1.91 46.01 8.72 38.43 28.9z" fill="#352902"/><path d="m1931.05 1085.9c-6.59 14.53-63.67-.76-62.79-7.92.75-6.11 76.92-23.27 62.79 7.92z" fill="#000"/></svg>