<svg fill="none" height="4000" viewBox="0 0 4000 4000" width="4000" xmlns="http://www.w3.org/2000/svg"><path d="m2617 1372c-323.5-103-742.5-98-886.5-98-8-12.5-13.5-28-16-47.5 57-19.5 864.5 48 902.5 80z" fill="#000" fill-opacity=".2"/><g stroke="#333" stroke-linecap="round" stroke-miterlimit="10" stroke-width="5"><path d="m2656.43 1372.21c-17.35-10.75-46.18-21.85-82.46-32.64-186.98-55.61-389.97-78.04-584.23-84.84-119.22-3.76-107.22-160.46-1-157.39 179.88 5.68 362.55 22.16 537.56 66.15 79.15 19.9 144.55 44 178.38 70.27 95.91 74.53-48.21 138.24-48.25 138.45z" fill="#808080"/><path d="m2379.72 1236.17c14.79 0 26.78-11.99 26.78-26.78s-11.99-26.78-26.78-26.78-26.78 11.99-26.78 26.78 11.99 26.78 26.78 26.78z" fill="#4d4d4d"/><path d="m2498.72 1256.13c14.79 0 26.78-11.99 26.78-26.78s-11.99-26.78-26.78-26.78-26.78 11.99-26.78 26.78 11.99 26.78 26.78 26.78z" fill="#4d4d4d"/></g><path d="m2379.72 1226.93c9.78 0 17.71-7.93 17.71-17.71s-7.93-17.71-17.71-17.71-17.71 7.93-17.71 17.71 7.93 17.71 17.71 17.71z" fill="#333"/><path d="m2498.72 1247.22c9.78 0 17.71-7.93 17.71-17.71s-7.93-17.71-17.71-17.71-17.71 7.93-17.71 17.71 7.93 17.71 17.71 17.71z" fill="#333"/><g stroke="#333" stroke-linecap="round" stroke-miterlimit="10" stroke-width="5"><path d="m1170.72 1370.28c-74.57 131.1-119.22 250.72-134 408.13-38.796-2.16-76.22 2.59-111.57 16.03 55.001-166.67 145.85-296.44 242.26-437.95 1.11 4.59 2.23 9.19 3.31 13.79z" fill="#808080"/><g fill="#4d4d4d"><path d="m2120.85 1209.8c14.79 0 26.78-11.99 26.78-26.78s-11.99-26.78-26.78-26.78-26.78 11.99-26.78 26.78 11.99 26.78 26.78 26.78z"/><path d="m2242.33 1216.85c14.79 0 26.78-11.99 26.78-26.78s-11.99-26.78-26.78-26.78-26.78 11.99-26.78 26.78 11.99 26.78 26.78 26.78z"/><path d="m1997.61 1202.56c14.79 0 26.78-11.99 26.78-26.78s-11.99-26.78-26.78-26.78-26.78 11.99-26.78 26.78 11.99 26.78 26.78 26.78z"/></g></g><path d="m2718.26 1329c-24 26.33-61.81 43.09-61.83 43.22-17.35-10.75-46.18-21.85-82.46-32.64-66.21-19.69-157.25-38.33-248.72-51.84-141.53-21.74-284.1-31.2-335.51-33-98-3.09-107.33-109.5-48.57-145.58-34.63 44.9-16.2 124.91 68.57 127.58 51.41 1.75 194 11.21 335.51 33 91.47 13.51 182.51 32.15 248.72 51.84 36.28 10.79 65.11 21.89 82.46 32.64 14.74-7.01 28.75-15.46 41.83-25.22z" fill="#000" fill-opacity=".15"/><path d="m2260.7 1116.42c-138.13-15.86-277.67-23.89-416.71-20.26-132.85 3.5-256.17 20-311.45 51.23-105.69 59.77 6.79 117.11 6.79 117.37 19.79-8.57 115.22-10.52 229.6-9.31 191.42 2 435.94 13 467.94 16.54 118.49 13.59 129.37-143.19 23.83-155.57zm-425.68 81.64c-8.92-5.96-13.49-16.99-11.39-27.51 3.25-16.34 21.3-25.83 36.52-19.52 17.39 7.2 21.87 30.52 8.69 43.69-8.93 8.94-23.34 10.34-33.82 3.34zm147.7 0c-13.86-9.25-15.72-29.57-4.07-41.22 7.58-7.58 19.29-9.91 29.2-5.81 17.39 7.2 21.87 30.52 8.7 43.69-8.94 8.94-23.34 10.34-33.83 3.34zm123.24 7.24c-8.91-5.95-13.49-16.98-11.4-27.5 3.21-16.16 21.13-25.91 36.53-19.53 17.09 7.08 22 30.38 8.7 43.69-8.94 8.94-23.34 10.34-33.83 3.34zm121.49 6.99c-8.9-5.95-13.47-16.98-11.37-27.49 3.21-16.15 21.12-25.89 36.51-19.51 13.47 5.58 20.01 21.67 14.5 35-6.34 15.37-25.78 21.27-39.64 12z" fill="#808080" stroke="#333" stroke-linecap="round" stroke-miterlimit="10" stroke-width="5"/><path d="m2926.13 1553.16c-26.56-25.71-119.63-103.1-326.37-159.93-7.24-2-12.87-8.08-14.31-15.46-40.43-207.12-79.45-375.44-364.77-399.21-285.32-23.767-405.6 102.75-465.2 308.4-2.62 9-11.15 14.3-20.54 14.36-246.13 1.55-539.88 132.16-622.26 180.45 8.56-20.16 17.77-40.1 27.63-59.83 96.57-53.26 350.48-165.49 582-166.94 9.39-.06 17.92-5.33 20.54-14.36 59.6-205.65 176.08-328.245 487.79-308.08 313.38 20.273 326.02 180.52 369.36 402.9 1.44 7.38 7.07 13.46 14.31 15.46 137.4 37.77 229.25 79.38 279.29 109.32 12.61 30.33 23.47 61.35 32.53 92.92z" fill="#000" fill-opacity=".2"/><path d="m1997.61 1193.49c9.78 0 17.71-7.93 17.71-17.71s-7.93-17.71-17.71-17.71-17.71 7.93-17.71 17.71 7.93 17.71 17.71 17.71z" fill="#333"/><path d="m2120.85 1200.73c9.78 0 17.71-7.93 17.71-17.71s-7.93-17.71-17.71-17.71-17.71 7.93-17.71 17.71 7.93 17.71 17.71 17.71z" fill="#333"/><path d="m2242.33 1207.78c9.78 0 17.71-7.93 17.71-17.71s-7.93-17.71-17.71-17.71-17.71 7.93-17.71 17.71 7.93 17.71 17.71 17.71z" fill="#333"/><path d="m2307.55 1136.27c27.2 49.47-2.74 125.35-86.7 115.72-32-3.59-276.52-14.5-467.94-16.54-114.38-1.21-209.81.74-229.6 9.31-10.96-6.05-21.16-13.38-30.38-21.84 13.5 24.87 46.38 41.7 46.38 41.84 19.79-8.57 115.22-10.52 229.6-9.31 191.42 2 435.94 13 467.94 16.54 96.48 11.06 121.62-90.78 70.7-135.72z" fill="#000" fill-opacity=".15"/><path d="m2919.09 1526.71s-53.25-81.67-304.7-150.79c-7.24-2-12.87-8.08-14.31-15.46-40.43-207.12-79.95-378.79-369.4-402.9-311.28-25.93-428.19 102.43-487.79 308.08-2.62 9-11.15 14.3-20.54 14.36-254.85 1.6-536.76 137.37-606.22 181-5.69 3.58-13.35-2.33-10.9-8.88 11.77-31.45 29.5-67.65 39.33-119.2 53.09-278.35 352.22-772.14 976.29-755.08 583.47 16 798.24 482.71 798.24 948.87z" fill="#f2f2f2" stroke="#333" stroke-linecap="round" stroke-miterlimit="10" stroke-width="5"/><path d="m2919.09 1526.71s-31.09-40.21-96.2-72.26c-35.82-421.46-260.54-812-792-826.56-177.95-4.86-329.49 31.81-456.42 93.18 143.35-90.61 324.3-149.25 546.42-143.18 583.43 15.95 798.2 482.67 798.2 948.82z" fill="#000" fill-opacity=".1"/></svg>