<svg xmlns="http://www.w3.org/2000/svg" width="4000" height="4000" fill="none" xmlns:v="https://vecta.io/nano"><path d="M1256.5 1165c-87.5 192 1187 438.5 1643.5 302.5 154-1048-1456.5-1108-1643.5-302.5z" fill="#fff" stroke="#333" stroke-width="5" stroke-linejoin="round"/><path fill-rule="evenodd" d="M2694.5 1501.44c78.46-5.9 148.38-16.92 205.5-33.94 90.96-619.026-433.7-893.343-917-848.197 409.55 41.738 781.3 330.317 711.5 882.137z" fill="#000" fill-opacity=".1"/><path d="M1256.5 1165c-87.5 192 1187 438.5 1643.5 302.5-953 816.5-2814.9983 0-1643.5-302.5z" fill="#333" stroke="#333" stroke-width="5" stroke-linejoin="round"/><path d="M1135.85 1679.8l2.65.7c402.77 104.44 1014.85 69.93 1420.02-173.85 133.95-.82 253.06-12.8 341.48-39.15-533.8 457.34-1352.8 402.34-1764.15 212.3zm140.88-447.37c-192.66 60.27-381 136.05-379.65 255.84-56.42-116.8 35.645-239.67 359.42-323.27-10.02 21.98-2.18 44.68 20.23 67.43z" fill-opacity=".3" fill-rule="evenodd" fill="#000"/><path d="M1965.5 858c1.4-50-28.5-71.5-61.5-75.5-52.4-6.352-70 50.5-86 78.5s-17 41.47-17 45.5c0 8 7.64 14.273 10.5 20 4 8 8 25 8 36s-11.5 14.5-19 32c-2.12 4.95 143.5.5 141-21.5s33-43.5 35-53-8-21.5-10-30.5c-1-4.5-1.5-13.5-1-31.5z" fill="#be7352"/><path d="M1916.16 844.2c19.92 3.12 28.62 22.5 26.33 39.95-1 7.75-9.1 32.4-19.77 32.37-12.9 0-3.4-23.18-3.25-32.17.08-4.87.28-10.9-1.18-15.52-1.25-3.9-7.6-2.65-7.28-11.18.12-2.944 3-3.16 3-6.16s-4.25-9.06 2.16-7.3z" fill="#d37f5c"/><path d="M2117.78 1201.5c180 17 107-246 102-265.5-23.5 29-68.28 22.5-88.78 15 5.5 22 1.5 57.5-1.72 73.5-89.5-15.5-136 15-179-29-22.5 15.5-34.28 11.5-97.28 2.5-30.15-4.307-48.72-9-50.72-3.5-4.66 12.83-5.57 22.06-17 30-18 12.5-113 67-130 76-21.98 11.64-16.5 42.5-37 72.5-20.97 30.7-44.1 40.63-41 53 6.5 26 421.5 146 476.5 117.5 26.65-13.8 23.5-145.83 64-142z" fill="#291816"/><path d="M1760.5 1214.5c3 45-10 67-26 60.5-45.5-18.5-1.5-210.5 5.5-223.5 4-2.5 37.7-20.9 50.5-33 9-8.5 6.5-22 15.5-33.5 52 14.5 81.5 13 137-1.5 1.5 8 9.43 15.348 10 16-34.5 16-195.5 170-192.5 215z" fill="#614c3c"/><path d="M2206.5 860.5c8.5 10.5 9 62 12 76.5-15.5 47-90.5 21.5-90.5 14.5 0-3.5 0-12-10-24.5s-17-21-17-44.5c0-24.187 14-39 24-41 10.8-2.157 14 3.5 18.5 3.5s9.5-3 19.5-2.5 35 7.5 43.5 18z" fill="#be7352"/><path d="M2050.5 874.5c-5.47 1.152-5.53-33.13 8-25.5 11.7 6.602 84.56 20.193 139.5 34.5 36.6 9.532 64.7 20.103 63.5 26.5-1.2 6.455-30.55 3.154-67-4-59.56-11.688-138.1-32.74-144-31.5z" fill="#4c404d"/><path d="M1766.5 1151.5c3-27 7-94.5 2-103-12.17 27.5-40.83 92.42-46.5 134-6 44 4.5 75.5 13.5 92.5-8-30.5 28-96.5 31-123.5z" fill="#291816"/><path d="M1832.5 1000.5l-4 11c1.5 0 3 0 4 .5-16.04 21.43-10.38 53.17-14.5 64-3.77 9.92-14.77 37.42-31.5 33-8-33.5 21.1-87.3 46-108.5z" fill="#564040"/><g fill="#b1a085"><path d="M1941.5 974c-18.5 6-75.05 15.02-75.5 20-.5 5.5 9.78 29.78 14.5 31.5 5.5 2 81-19 71.5-29-7.85-8.266-9.5-13.5-10.5-22.5z"/><path d="M1811 983c18.5 6 55.05 6.02 55.5 11 .5 5.5-19.5 23.27-27 26-5.5 2-44.37-2.25-42.5-13.5 1-6 4-13 14-23.5z"/></g><path d="M1889.6 874.46c-6.6-5.96-29.26-2.57-30.54.25 8-17.47 48.8-3.47 43.22 10.62-.74 1.87-11.6-9.89-12.68-10.87z" fill="#d48e74"/><path d="M2038.5 838c-11-2.5-24.16 4-26 15.5-2 12.5 10 18 15.5 19.5s16.5 1.5 21.5 1.5h0c4.03 0 11-24.5 5-27.5-5-2.5-5-6.5-16-9z" fill="#7c7b71"/><path d="M1827.76 875.083c3-13.52 6.24-42.44 25.8-43.07 16.27-.53 5.32 15.37-.37 24.48-4.76 7.62-9.24 11-11 20.27-1.1 5.75 3.73 19.64-1.28 24.12-12.04 10.74-15.7-17.42-13.16-25.8z" fill="#d37f5c"/><path d="M1894.3 908.8c-8.94-2.28-29.53 2.38-35.68-6.78-4.42-6.6 2.55-23.2 9.17-27.13 14.86-8.8 20 6.84 28.13 15.5 3 3.22 11.9 5.33 12.34 10.08.75 8.65-7.25 9.82-13.96 8.33z" fill="#5f0f0c"/><path d="M1932.92 862.652c-.56-3.885-13.36-15-16.83-8.82-1.64 2.9 19.56 27.72 16.83 8.82zm-93.68-14c.56-3.885 13.36-15 16.83-8.82 1.64 2.9-19.56 27.72-16.83 8.82z" fill="#f49875"/><path d="M1892.5 832c0 3.038-3.96 7-7 7s-5.5-2.462-5.5-5.5 2.46-5.5 5.5-5.5 7 .962 7 4z" fill="#d78464"/><path d="M1900 844c0 2-2.46 4-5.5 4s-5-2.5-5-4.5 1.96-3.5 5-3.5 5.5.962 5.5 4zm-21.5-4c0 1.5-2.46 4-5.5 4s-4-2-4-4 .96-4 4-4 5.5 2.5 5.5 4z" fill="#711107"/><path d="M1925.68 812c3.32 1.42 28.4 11.1 21.77 17-1.45-.5-48.03-6.96-21.77-17z" fill="#833f1d"/><path d="M1855 800c3.5 1.58 12.7-.25 13 6-4.32-1.7-30.32 16.62-30 16.5 4.1-10.2 10.5-18.5 17-22.5z" fill="#c4c4c4"/><path d="M1855 800c3.5 1.58 12.7-.25 13 6-4.32-1.7-30.32 16.62-30 16.5 4.1-10.2 10.5-18.5 17-22.5z" fill="#833f1d"/><path d="M1856 816.784l-5.22-.45c-6.5-4.3 30.06-13.73 26.66-.67-1.1 4.12-18.64 1.33-21.44 1.12z" fill="#cd9a84"/><path d="M1883.06 797.766c6.83-3.62 41.94 2.234 38.23 8.35-1.64 2.7-19.13 10.484-24.3 9.884s-21.95-13.104-13.94-18.234zm-18.16 115.318c4.1-6.084 20.12 9.67 21 15.72 1 7-5.5 2.94-6.2 7.32-.65 4.2 2.82 6.28 1.35 11.14-2.57 8.48-12.13 17.55-22.06 7.34-8.54-8.77-.3-32.3 5.9-41.52z" fill="#e48a63"/><path d="M2114.25 915.145c-1.57-16.68 4.46-8.73 11.32-4.52 8.7 5.287 22.67 17.002 32.73 18.7 5.9 1 11.37-5.12 17.92-4 1.85.3 20.6 9.8 18.53 12.6-18.53 14.7-77.68-13.3-80.5-22.77z" fill="#7c493a"/><path d="M2037.5 848c-1 2-4.5 4.5-6.5 4-2.5-.625-1.6-5.666-1-7.5 1-3 4.7-4.437 6-4 3 1 2.36 5.77 1.5 7.5z" fill="#a89383"/><path d="M2036.5 846.5c-1 2-2.5 3.5-4.5 3-1.34-.335-1.47-2.625-1-4.5.5-2 2.62-3 4-3s2.36 2.77 1.5 4.5z" fill="#e5d5c5"/><path d="M1951 991.5c10.6 32.5-64 33.5-111.5 96.5-15.4 20.44-35.5 39.5-54 56.5-22.86 21-28.5 44-39.5 39-21.7-9.87 42-74 65.5-110s132-105 139.5-82z" fill="#fdecdd"/><path d="M2158 903c-54.95-10.795-57-14.5-49-44 16-9 100.46 7.012 101 19.5 1 23 4 35.5-52 24.5z" fill="#be7352"/><path d="M2128.25 844.14c13.5-2.5 7.43 29.66-2.05 29-13.1-.9-5.8-27.554 2.05-29z" fill="#dc8d65"/><path d="M2141.53 866.75c2.44-14.8 16.62-23.43 16.72-2.7.1 22.24-23.2 21.66-16.72 2.7z" fill="#da8e6a"/><path d="M2167.1 875.54c-.23-9.45 10.47-31.37 15.83-11.8 3 11-15.43 29.75-15.83 11.8zm34.83 1.1c-.22 9.6-14.33 5.54-13.67-4.46 1-15.02 15.5-9.78 13.67 4.46z" fill="#d58b6a"/><path d="M1904 781.5c74 8 56 61 62.5 108 3.07 22.18 16.64 26.624-1.68 44.725-26.45 26.125-29.82 46.792-12.03 63.76 42.3 40.346 88.73 11.316 176.5 26.516 23.22-90.275-28.24-94-28.24-139.413-27.16-6.412-47.64-11.197-50.54-10.587-13.46 2.835-41.02-2.098-38-21 1.84-11.5 15-18 26-15.5 7.75 1.76 13.24 7.187 20 11 5.32 3 23.27 7.444 46.43 12.743C2114.5 829 2136.5 846.105 2143.5 845c36.56-5.774 74.5 2 70.03 42.756 28.7 8.294 49 16.787 47.97 22.244-.96 5.142-19.78 4.093-45.82-.163 19.82 92.663 74.62 307.953-97.9 291.663-40.5-3.83-37.35 128.2-64 142-55 28.5-470-91.5-476.5-117.5-3.1-12.37 20.03-22.3 41-53 20.5-30 15.02-60.86 37-72.5 17-9 121.77-70.18 134.22-86.5 14.5-19 30-39.333 30-51.5 0-21.633-17-39.5-18.5-56-1.92-21.08 15.9-42.613 25.02-60.938 14.57-29.28 33.97-68.82 77.98-64.062z" stroke="#000" stroke-width="8" stroke-linejoin="round"/></svg>