<svg fill="none" height="4000" viewBox="0 0 4000 4000" width="4000" xmlns="http://www.w3.org/2000/svg"><path d="m1256.5 1165c-87.5 192 1187 438.5 1643.5 302.5 154-1048-1456.5-1108-1643.5-302.5z" fill="#fff" stroke="#333" stroke-linejoin="round" stroke-width="5"/><path clip-rule="evenodd" d="m2694.51 1501.44c78.46-5.9 148.38-16.92 205.49-33.94 90.96-619.026-433.7-893.343-916.99-848.197 409.55 41.738 781.3 330.317 711.5 882.137z" fill="#000" fill-opacity=".1" fill-rule="evenodd"/><path d="m1256.5 1165c-87.5 192 1187 438.5 1643.5 302.5-953 816.5-2815.0002 0-1643.5-302.5z" fill="#333" stroke="#333" stroke-linejoin="round" stroke-width="5"/><path clip-rule="evenodd" d="m1135.85 1679.81c.88.23 1.77.46 2.65.69 402.78 104.44 1014.85 69.93 1420.02-173.85 133.95-.82 253.06-12.81 341.48-39.15-533.8 457.34-1352.8 402.34-1764.15 212.31z" fill="#000" fill-opacity=".3" fill-rule="evenodd"/><path clip-rule="evenodd" d="m1276.73 1232.43c-192.66 60.27-381.013 136.05-379.652 255.84-56.419-116.8 35.645-239.67 359.422-323.27-10.02 21.98-2.18 44.68 20.23 67.43z" fill="#000" fill-opacity=".3" fill-rule="evenodd"/><path d="m1982.44 1295.62c-123.73-22.29-246.38-59.98-281.61-189.25-33.91-124.407 93.88-280.504 218.89-255.657 73.43 14.595 97.74 49.879 108.8 61.779 24.94-17.578 68.26-35.425 143.65-15.223 134.26 35.973 64.76 258.801 57.27 350.681-1.77 21.74-44.61 84.14-247 47.67z" style="fill:#558a3a;stroke:#000;stroke-width:6;stroke-miterlimit:10;stroke-linecap:round;stroke-linejoin:round"/><path d="m1802.47 992.36c14.31 3.659 29.31 3.629 43.6-.086 27.75-8.223 100.68-58.081 162.77-30.811" stroke="#000" stroke-linecap="round" stroke-linejoin="round" stroke-miterlimit="10" stroke-width="6"/><path d="m1897.44 1103.3c109.57 39.66 280.76 121.35 383.16 19.29 53.79-53.72 47.66-132.78-24.18-154.666-71.83-21.885-145.8 9.236-164.39 17.912" fill="#558a3a"/><path d="m1897.44 1103.3c109.57 39.66 280.76 121.35 383.16 19.29 53.79-53.72 47.66-132.78-24.18-154.666-71.83-21.885-145.8 9.236-164.39 17.912" stroke="#000" stroke-linecap="round" stroke-linejoin="round" stroke-miterlimit="10" stroke-width="6"/><path d="m1830.32 917.957c31.16-20.77 124.16-45.236 178.48 18.704" stroke="#000" stroke-linecap="round" stroke-linejoin="round" stroke-miterlimit="10" stroke-width="6"/><path d="m2250.5 1112.49c-27.15-2.3-85.11 1.54-110.45-3.36-29.64-5.72-44.98-16.11-58.4-26.75-24.89-19.52-16.42-33.94-15.42-37.64 1.54-5.78 12.04-7.02 22.93-8.01 10.9-1 75.48-37.823 129.74-35.61 54.26 2.21 114.29 32.84 102.81 75.68-5.09 19.01-9.08 40.96-71.21 35.69z" fill="#fff" stroke="#000" stroke-miterlimit="10" stroke-width="6.54228"/><path d="m2250.68 1111.82c-25.45-3.7-51.3-2.23-76.27-2.75-14.65-33.27-26.48-92.83 41.58-95.49 27.42-1.07 71.86 29.55 34.69 98.24z" fill="#000"/><g fill="#fff"><path d="m2222.21 1077.49c8.41 2.25 17.05-2.74 19.31-11.15 2.25-8.41-2.74-17.06-11.15-19.31-8.41-2.26-17.06 2.73-19.31 11.15-2.25 8.41 2.74 17.05 11.15 19.31z"/><path d="m2203.59 1043.99c4.45 1.19 9.02-1.45 10.21-5.9 1.2-4.45-1.44-9.02-5.89-10.21s-9.02 1.45-10.22 5.89c-1.19 4.45 1.45 9.03 5.9 10.22z"/><path d="m2191.3 1065.18c3.15.84 6.39-1.02 7.23-4.17s-1.03-6.38-4.17-7.23c-3.15-.84-6.38 1.03-7.23 4.17-.84 3.15 1.03 6.39 4.17 7.23z"/><path d="m2195.14 1081.11c1.8.49 3.65-.58 4.14-2.39.48-1.8-.59-3.65-2.39-4.13-1.8-.49-3.66.58-4.14 2.39-.48 1.8.59 3.65 2.39 4.13z"/></g><path d="m2058.38 949.06c22.35-14.304 98.4-16.688 137.61 11.446" stroke="#000" stroke-linecap="round" stroke-linejoin="round" stroke-miterlimit="10" stroke-width="6"/><path d="m2099.69 1050.71c-4.86 18.13-29.76 39.97-72.65 46.1-51.52 6.59-110.99-8.02-152.2-40.53-24.92-19.53-31.61-33.93-30.61-37.66 1.54-5.75 13.17-1.6 23.93-3.63 28.89-5.45 74.49-42.198 128.75-39.984 54.26 2.213 114.25 32.864 102.78 75.704z" fill="#fff" stroke="#000" stroke-miterlimit="10" stroke-width="6.54228"/><path d="m2026.94 1096.78c-26.91 3.45-54.84 1.52-80.89-6.24-15.08-32.91-29.7-99.677 40.39-98.213 67.82 1.416 59.4 70.403 40.5 104.453z" fill="#000"/><path d="m2243.74 1205.76c-1.03.33 9.59 13.95 1.66 25.43-5.59 8.08-16.12 10.89-25.23 12.7-53.37 9.82-184.86-23.28-319.64-60.67-31.21-8.66-144.36-47.36-121.87-98.8 18.89-43.2 92.19-.99 120.07 9.1 142.37 51.53 248.34 78.09 315.27 65.57 20.48-3.56 38.11-12.47 54.15-25.46 16.69 29.74 10.26 61.22-24.41 72.13z" fill="#a85b2d" stroke="#000" stroke-linecap="round" stroke-linejoin="round" stroke-width="6"/><path d="m1839.56 1111.89c127.56 55.38 270.79 100 404.18 93.87" stroke="#000" stroke-linecap="round" stroke-linejoin="round" stroke-miterlimit="10" stroke-width="6"/><g fill="#fff"><path d="m2004.83 1061.91c8.41 2.25 17.06-2.74 19.31-11.15s-2.74-17.06-11.15-19.31c-8.41-2.26-17.06 2.74-19.31 11.15s2.74 17.05 11.15 19.31z"/><path d="m1973.67 1027.77c5.85 1.57 11.86-1.91 13.43-7.76s-1.9-11.86-7.75-13.43-11.87 1.91-13.44 7.76c-1.56 5.85 1.91 11.86 7.76 13.43z"/><path d="m1968.44 1050.18c4.04 1.09 8.18-1.31 9.26-5.34 1.08-4.04-1.31-8.18-5.34-9.26-4.04-1.08-8.18 1.31-9.27 5.34-1.08 4.04 1.32 8.18 5.35 9.26z"/><path d="m1977.33 1072.97c3.53.95 7.16-1.15 8.11-4.68.95-3.54-1.15-7.17-4.68-8.12-3.54-.94-7.17 1.15-8.12 4.69-.94 3.53 1.15 7.16 4.69 8.11z"/></g><path d="m1832.84 1252.99c-76.31-35.22-112.51-79.18-131.96-146.61-35.58-123.318 92.23-283.485 223.34-255.573-99.27 3.937-205.16 160.493-182.24 248.753 14.69 56.55 56.11 117.77 90.86 153.43z" fill="#000" fill-opacity=".15"/></svg>