<svg xmlns="http://www.w3.org/2000/svg" xmlns:xlink="http://www.w3.org/1999/xlink" width="4000" height="4000" fill="none" xmlns:v="https://vecta.io/nano"><style><![CDATA[.B{stroke-linejoin:round}.C{stroke:#000}.D{stroke-miterlimit:10}.E{stroke-width:6}.F{stroke-linecap:round}.G{fill-rule:evenodd}.H{stroke-width:6.5423}]]></style><path d="M1256.5 1165c-87.5 192 1187 438.5 1643.5 302.5 154-1048-1456.5-1108-1643.5-302.5z" fill="#fff" stroke="#333" stroke-width="5" class="B"/><path d="M2694.5 1501.44c78.46-5.9 148.38-16.92 205.5-33.94 90.96-619.026-433.7-893.343-917-848.197 409.55 41.738 781.3 330.317 711.5 882.137z" fill="#000" fill-opacity=".1" class="G"/><path d="M1256.5 1165c-87.5 192 1187 438.5 1643.5 302.5-953 816.5-2815.0002 0-1643.5-302.5z" fill="#333" stroke="#333" stroke-width="5" class="B"/><path d="M1135.85 1679.8l2.65.7c402.78 104.44 1014.85 69.93 1420.02-173.85 133.95-.82 253.06-12.8 341.48-39.15-533.8 457.34-1352.8 402.34-1764.15 212.3zm140.88-447.37c-192.66 60.27-381.013 136.05-379.652 255.84-56.42-116.8 35.645-239.67 359.422-323.27-10.02 21.98-2.18 44.68 20.23 67.43z" fill-opacity=".3" fill="#000" class="G"/><g class="B C D E"><path d="M1982.44 1295.62c-123.73-22.3-246.38-59.98-281.6-189.25-33.9-124.407 93.88-280.504 218.9-255.657 73.43 14.595 97.74 49.88 108.8 61.78 24.94-17.578 68.26-35.425 143.65-15.223 134.26 35.973 64.76 258.8 57.27 350.68-1.77 21.74-44.6 84.14-247 47.67z" fill="#fbdd11"/><path d="M1802.47 992.36c14.3 3.66 29.3 3.63 43.6-.086 27.75-8.223 100.68-58.08 162.77-30.81" class="F"/></g><use xlink:href="#B" fill="#fbdd11"/><g class="B C D E F"><use xlink:href="#B"/><path d="M1830.32 917.957c31.16-20.77 124.16-45.236 178.48 18.704"/></g><path d="M2250.5 1112.5c-27.15-2.3-85.1 1.54-110.45-3.36-29.64-5.72-44.98-16.1-58.4-26.75-24.9-19.52-16.42-33.94-15.42-37.64 1.54-5.78 12.04-7.02 22.93-8 10.9-1 75.48-37.823 129.74-35.6s114.3 32.84 102.8 75.68c-5.1 19-9.08 40.96-71.2 35.7z" fill="#fff" class="C D H"/><path d="M2250.68 1111.82c-25.45-3.7-51.3-2.23-76.27-2.75-14.65-33.27-26.48-92.83 41.58-95.5 27.42-1.07 71.86 29.55 34.7 98.24z" fill="#000"/><path d="M2222.2 1077.5c8.4 2.25 17.05-2.74 19.3-11.15 2.25-8.4-2.74-17.06-11.15-19.3-8.4-2.26-17.06 2.73-19.3 11.15-2.25 8.4 2.74 17.05 11.15 19.3zm-18.6-33.5c4.45 1.2 9.02-1.45 10.2-5.9 1.2-4.45-1.44-9.02-5.9-10.2s-9.02 1.45-10.22 5.9 1.45 9.03 5.9 10.22zm-12.3 21.18c3.15.84 6.4-1.02 7.23-4.17s-1.03-6.38-4.17-7.23c-3.15-.84-6.38 1.03-7.23 4.17-.84 3.15 1.03 6.4 4.17 7.23zm3.84 15.92c1.8.5 3.65-.58 4.14-2.4.48-1.8-.6-3.65-2.4-4.13-1.8-.5-3.66.58-4.14 2.4-.48 1.8.6 3.65 2.4 4.13z" fill="#fff"/><g class="C D"><path d="M2058.38 949.06c22.35-14.304 98.4-16.688 137.6 11.446" class="B E F"/><path d="M2099.7 1050.7c-4.86 18.13-29.76 39.97-72.65 46.1-51.52 6.6-111-8.02-152.2-40.53-24.92-19.53-31.6-33.93-30.6-37.66 1.54-5.75 13.17-1.6 23.93-3.63 28.9-5.45 74.5-42.198 128.75-39.984s114.25 32.864 102.78 75.704z" fill="#fff" class="H"/></g><path d="M2026.94 1096.78c-26.9 3.45-54.84 1.52-80.9-6.24-15.08-32.9-29.7-99.677 40.4-98.213 67.82 1.416 59.4 70.403 40.5 104.453z" fill="#000"/><g class="B C E"><path d="M2243.74 1205.76c-1.03.33 9.6 13.95 1.66 25.43-5.6 8.08-16.12 10.9-25.23 12.7-53.37 9.82-184.86-23.28-319.64-60.67-31.2-8.66-144.36-47.36-121.87-98.8 18.9-43.2 92.2-1 120.07 9.1 142.37 51.53 248.34 78.1 315.27 65.57 20.48-3.56 38.1-12.47 54.15-25.46 16.7 29.74 10.26 61.22-24.4 72.13z" fill="#a85b2d"/><path d="M1839.56 1111.9c127.56 55.38 270.8 100 404.18 93.87" class="D F"/></g><path d="M2004.83 1061.9c8.4 2.25 17.06-2.74 19.3-11.15s-2.74-17.06-11.15-19.3c-8.4-2.26-17.06 2.74-19.3 11.15s2.74 17.05 11.15 19.3zm-31.16-34.13c5.85 1.57 11.86-1.9 13.43-7.76s-1.9-11.86-7.75-13.43-11.87 1.9-13.44 7.76c-1.56 5.85 1.9 11.86 7.76 13.43zm-5.23 22.4c4.04 1.1 8.18-1.3 9.26-5.34s-1.3-8.18-5.34-9.26-8.18 1.3-9.27 5.34c-1.08 4.04 1.32 8.18 5.35 9.26zm8.9 22.8c3.53.95 7.16-1.15 8.1-4.68.95-3.54-1.15-7.17-4.68-8.12-3.54-.94-7.17 1.15-8.12 4.7-.94 3.53 1.15 7.16 4.7 8.1z" fill="#fff"/><path d="M1832.84 1253c-76.3-35.22-112.5-79.18-131.96-146.6-35.58-123.318 92.23-283.485 223.34-255.573-99.27 3.937-205.16 160.493-182.24 248.753 14.7 56.55 56.1 117.77 90.86 153.43z" fill="#000" fill-opacity=".15"/><defs ><path id="B" d="M1897.44 1103.3c109.57 39.66 280.76 121.35 383.16 19.3 53.8-53.72 47.66-132.78-24.18-154.666-71.83-21.885-145.8 9.236-164.4 17.912"/></defs></svg>