<svg xmlns="http://www.w3.org/2000/svg" width="4000" height="4000" fill="none" xmlns:v="https://vecta.io/nano"><path d="M1256.5 1165c-87.5 192 1187 438.5 1643.5 302.5 154-1048-1456.5-1108-1643.5-302.5z" fill="#fff" stroke="#333" stroke-width="5" stroke-linejoin="round"/><path fill-rule="evenodd" d="M2694.5 1501.44c78.46-5.9 148.38-16.92 205.5-33.94 90.96-619.026-433.7-893.343-917-848.197 409.55 41.738 781.3 330.317 711.5 882.137z" fill="#000" fill-opacity=".1"/><path d="M1256.5 1165c-87.5 192 1187 438.5 1643.5 302.5-953 816.5-2815.0002 0-1643.5-302.5z" fill="#333" stroke="#333" stroke-width="5" stroke-linejoin="round"/><path d="M1135.85 1679.8l2.65.7c402.78 104.44 1014.85 69.93 1420.02-173.85 133.95-.82 253.06-12.8 341.48-39.15-533.8 457.34-1352.8 402.34-1764.15 212.3zm140.88-447.37c-192.66 60.27-381.013 136.05-379.652 255.84-56.42-116.8 35.645-239.67 359.422-323.27-10.02 21.98-2.18 44.68 20.23 67.43z" fill-opacity=".3" fill-rule="evenodd" fill="#000"/><path d="M1870.05 811.67c115.15-21.98 311.98 65.44 259.5 204.92l-1.2 3.2c-12.64 33.62-46.6 124.03-62.04 133.9-27.35 84.44-89.44 189.43-190.3 177.3-47.5-5.73-87.78-36.3-114-74.85-55.6-81.7-34.94-193.54-22.4-284.08 4.42-73.54 56.42-146.27 130.42-160.4z" fill="#000"/><path d="M1730.3 1137.06c-16.3-6.56-17.9-48.44-17.9-72.5s6.34-52 21.4-58.2c23.52-9.62 21.87 35.75 27 47.74 11.4 26.58 14.87 9.64 23.94-5.4 10.88-18 31.86-49.43 52-57.27 27.73-10.81 46.94-3.347 73.28-5.44 22-1.747 57.5-59 133.57 4.14 22.9 19.02 26.15 53.18 26.17 82.43 0 53.8-16.17 101.33-39.84 149.1-17.64 35.6-35.9 54.84-66.4 76.34s-42.92 20.13-71.3 21.72c-30.4 1.7-74.6-15.56-96.22-36.73-67.5-66.06-52.5-101.5-65.7-145.93z" fill="#765c02"/><path d="M1895.1 835.4c17.46-.2 34-13.9 52.6-12.8 10.78.62 85.75 32.72 48.08 39.66-58.9 10.86 62.94 9.093 21.24 38.54-16.14 11.38-32-12.18-48.77-12.7-24.73-.74-49.44 33-75.44 22.16-20.84-8.7-12.24-22.13-40.32-11.3-22.8 8.82-39.42 15.17-64.1 13.18s-22.45-7.024-12.4-29.66c17.38-39.1 108.9-87.087 119.1-47.1z" fill="#755902"/><path d="M2005.38 1097.66c14.55 6.2 43.94 5.84 48.13 25.1 4.7 21.55-23.38 28.16-39.45 27.34-15.2-.78-42.43-8.1-45.68-25.6-3.7-19.98 19.53-33.42 37-26.86z" fill="#362901"/><path d="M2107.83 923.6c.6 3.475.4 7.045-.64 10.42 2.14-1-53.08 8.07-61.7-1.52s16.35-19 14.9-30.27c-2.2-16.6-14.22-9.55-18.23-14.55-10.16-12.68 12.84-14.28 22.6-11.2 18.23 5.74 34.33 31.4 43.06 47.13z" fill="#705701"/><path d="M2002.9 884.97c8.86.76 35.3 4.6 6.3 13.78-13 4.1-25.95-8.76-39.7-7.75-1.2.1-44.05 15.63-42.16 9.17 2.12-7.2 12.85-8.5 17.17-13.36 14.76-16.473 24.36-4.76 58.4-1.84z" fill="#9f7c00"/><path d="M1981 848.35c8.33 3.834 50 6.6 30.48 34.02-7.24 10.173-11.98-5.37-33.88-7.68s-44.1-3.2-47.6-19.75 30.86-15.83 51-6.6z" fill="#503e02"/><path d="M2025.43 846.76c3.9 1.7 17.18 19.87 9.57 23-13 5.35-23.1-28.38-9.57-23z" fill="#9a7700"/><path d="M2048.68 1129.64c-8.22 37.3-92.14 4.6-74-22.5 12.25-18.34 82.1.96 74 22.5z" fill="#000"/><path d="M2055.24 1089.6c9.17-18.28-8.24-33.1-6.74-48.1s14-34-15.7-56.05c-28.9-21.45-79.05-21.595-106.57 3.93-25.84 23.96-82.28-30.38-138.4 63.23-7.93 13.23-6.12 17.3-21.74 19.44-39.7 5.44-6.44-18.46-12.84-38.64-1.54-4.83-10.16-22.1-17.4-19.2-5.75 2.3 9.86 14.7 7.74 21.3-1.62 5.1-16.33 6.3-20 12.44-7.42 12.4 1.9 37.56 1.3 51.1-.36 8.5-4.3 16.7-1 25.12 2.98 7.6 8.88 7.03 12.3 12.14 10.87 16.15 7.1 21.72 9.87 41.64 2.4 17.27 13.2 37.02 29.25 45.2 9.37 4.78 25.65.92 33.47 6.48 18.06 12.85-7.8 17.07-9.46 28.15-5.35 36.36 94.7 68.74 117.44 53.87 19.84-12.97-1.56-16.95-13.25-24.42-18.07-11.57-21.2-16.58-13.54-33.33 16.72-36.46-34-19.9-41.54-33.1-3.2-18.7 48.62 8.35 57.62 5.63 36.17-10.9-17.58-30.48-11.26-46.48 3.66-9.2 33.83 10.63 37.66 12 16.1 5.76 26.98-1.5 41.78 1.6 23.84 5 25.5 17.83 51.2.4 4.8-3.28 34.3-30.34 20.62-38.28-2.95-1.7-26.56 10.83-41.06 4.83s-26.35 3.68-30.75-4.83c-22.5-43.5-2.1-63.9 20.36-67 18.03-2.5 50.14 21.96 60.63.95z" fill="#cea000"/><path d="M1786.17 879.8c7.4-23.72 32.93-32.13 54-39.26 7.2-2.44 42.66-17.6 45.28-6.74 2.4 9.94-23.87 19.85-30.24 24.6-3.66 2.73-23 6.23-15.82 15.6 4.88 6.4 16.68.2 21.56-2.4 4.35-2.32 37-32.46 25.84-3.55-3.88 10.07-26.2 14.72-34.76 18.35-17.93 7.6-83.63 40.6-65.86-6.6z" fill="#c69a00"/><path d="M1849.14 866.3c1.53-2.56 20.78-16.5 23.64-13.76 8.22 7.87-29.34 28.36-23.64 13.76z" fill="#8c6d00"/><path d="M2097.56 926.6c-4.48-1.27-37.95-4.74-38.57-6.47s16.93-13.45 16.74-21.16c0-1.6-22.85-19.06-2.17-12.86 12.5 3.75 31.76 43.4 24 40.5z" fill="#c29700"/><path d="M1963.58 1186.38c-24.07 1.55-22.9 8.6-45.38-4-11.25-6.32-36.8-17.08-25.06 7 4.75 9.75 25.6 11.08 21 25.5-4.74 14.9-27.57 4-37.23 1.72-6.9-1.64-29.83-10.45-33.2-2.33-6.37 15.37 39.5 15.42 43.3 24.68 6.17 15-11.22 11.4-11.4 27.8-.2 19.48 31.37 25.82 42.6 36.9 4.07 19.87-94.2-5.13-108.54-35.04-5.32-16.53 18.8-22.33 12.54-37.2-6.06-14.4-43.8-12.17-57-24.42-25.06-23.2-5.94-34.12-15.38-57.92-3.64-9.16-10-5.83-15-11.93-8.84-10.77-8.36-16.3-8.28-29.93.08-11.84-8.07-48-2-56.9 5.3-7.83 26.1-9.18 25.8 1.76-20.34 21.97 12.36 43.05 36.54 9.85 17.17-23.45 25-43.1 56-52.5 34.4-10.316 56.9-3.3 79.4-11.93 21.54-8.27 34.16-23.26 61.18-23.92 23.32-.57 52.55 10.6 61.8 34.52 5.77 14.92-3.06 34.9-2.63 52.42.56 23.06-.83 28.25-25.8 27.85-22.9-.37-43.4-6.77-53.75 19.93-9.27 23.87 3.2 53.3.5 78.12z" fill="#ffc800"/><path d="M1899 1183c6.5-15 19.47 14.88 29.82 19.4 8.16 3.58 28.82-6.5 34.7 1.93 5.27 7.53-14 19.87-14.2 31.7-.2 10.7 19.48.62 7.72 16.86-6.46 8.9-22.52 3.1-30.35.34-11.56-4.1-43.2-17.2-44.7-26.67 17-2.7 49.36 23.58 45.56-5.5-.88-6.74-28.57-30.1-28.57-38.1z" fill="#5a4502"/><path d="M1930.1 1108.2c-31.02 15.64-45.47 2.1-69.43-16.26-17-13-35.22-29.12-.42-38.5 59.75-16.1 127.75 25.56 69.85 54.76z" fill="#cc9f00"/><path d="M1985.37 1161.8c5.4 1.08 38.13 15.7 49.3 13.37-4.66 7.83-26.15 22.2-34.24 21-17.05-2.52-16.63-34.96-15.05-34.37z" fill="#fec700"/><path d="M1928.47 1253.84c-4.36-.93-41.54-19.4-40.2-23.4.16-.47 46.67 7.53 49.2 8.28 26.6 7.9 14.2 23.85-9 15.12z" fill="#352a01"/><path d="M1964 1208.5c-5.92 29.1-44.06 20.7-35.6 1.6 2.2-4.97 38.77-9.76 35.6-1.6zm-55.65-17.22c-6.08-1.75-8.63-5-7.64-9.72 5.3-5.4 18.1 13.65 7.64 9.72z" fill="#2c2203"/><path d="M1910.54 1239c-.07 0 44.4 5.92 44.1 9.33-.97 10.67-45.54.78-44.1-9.33z" fill="#191302"/><path d="M1955 1212.6c-3.35 6.2-26.17 26.08-23.08 4.45 1.68-11.96 23.5-5.52 23.08-4.45z" fill="#010100"/><path d="M1904.63 1057.52c13.58-.5 35.1 5 39.92 20 10.68 33.06-34.4 35.65-51.53 24.44-9.5-6.25-48.26-17.83-45.43-31.53 2.02-9.84 49.03-12.62 57.04-12.9z" fill="#8e6e00"/><path d="M1941.32 1089c-6.64 17.46-79.28 3.9-84.33-11.13-3.98-11.84 39.43-17.6 45.9-17.77 14.03-1.9 46 8.72 38.43 28.9z" fill="#352902"/><path d="M1931.05 1085.9c-6.6 14.53-63.67-.76-62.8-7.92.75-6.1 76.92-23.27 62.8 7.92z" fill="#000"/></svg>