<svg fill="none" height="4000" viewBox="0 0 4000 4000" width="4000" xmlns="http://www.w3.org/2000/svg"><path d="m1256.5 1165c-87.5 192 1187 438.5 1643.5 302.5 154-1048-1456.5-1108-1643.5-302.5z" fill="#fff" stroke="#333" stroke-linejoin="round" stroke-width="5"/><path clip-rule="evenodd" d="m2694.51 1501.44c78.46-5.9 148.38-16.92 205.49-33.94 90.96-619.026-433.7-893.343-916.99-848.197 409.55 41.738 781.3 330.317 711.5 882.137z" fill="#000" fill-opacity=".1" fill-rule="evenodd"/><path d="m1256.5 1165c-87.5 192 1187 438.5 1643.5 302.5-953 816.5-2815.0002 0-1643.5-302.5z" fill="#333" stroke="#333" stroke-linejoin="round" stroke-width="5"/><path clip-rule="evenodd" d="m1135.85 1679.81c.88.23 1.77.46 2.65.69 402.78 104.44 1014.85 69.93 1420.02-173.85 133.95-.82 253.06-12.81 341.48-39.15-533.8 457.34-1352.8 402.34-1764.15 212.31z" fill="#000" fill-opacity=".3" fill-rule="evenodd"/><path clip-rule="evenodd" d="m1276.73 1232.43c-192.66 60.27-381.013 136.05-379.652 255.84-56.419-116.8 35.645-239.67 359.422-323.27-10.02 21.98-2.18 44.68 20.23 67.43z" fill="#000" fill-opacity=".3" fill-rule="evenodd"/><path d="m2014.41 1326.38c-73.74 3.59-370.76-68.83-390.06-128.14s83.84-326.72 161.65-354.49c86.9-31 358.65 56.15 374.82 115.08s-72.67 363.96-146.41 367.55z" fill="#00c600" stroke="#333" stroke-miterlimit="10" stroke-width="5"/><path d="m2055.59 1072.09c-7.15 11.81-22.39 14.67-41.86 10.78-21.22-4.23-41.12-14.09-59.62-25.08 7.54-20.82 22.69-28.36 34.43-28.34 22.37.09 61.88 19.8 67.05 42.64z" fill="#f2f2f2" stroke="#000" stroke-miterlimit="10" stroke-width="2"/><path d="m1888.93 1042.17c-24.58-8.99-69.93-47.17-76.82-73.71 43.89 9.04 76.98 21.319 113.27 34.46 20.34 42.89-1.1 52.08-36.45 39.25z" fill="#f2f2f2" stroke="#000" stroke-miterlimit="10" stroke-width="2"/><path d="m1882.08 1039.27c-17.34-8.25-35.14-23.62-48.44-38.25 3.03-8.902 8.75-16.871 16.24-22.56 14.44 4.28 31.12 9.47 46.7 14.59 4.38 16.48-2.09 34.87-14.5 46.22z" fill="#000"/><g stroke="#000" stroke-miterlimit="10"><path d="m2013.5 1174.5c.86 9.26-2.09 70.09-124.56 17.17s-148.45-125.68-142.3-138 32.35 13.67 53.13 28 126.06 82 177.23 85.46 58-22.13 60.81-28.86c-.81 18.73-9.31 26.23-24.31 36.23z" fill="#944400" stroke-width="2.5"/><path d="m1735.09 1044c4.78-4.79 26.64-5.14 35.06-.78" stroke-width="1.5"/><path d="m1754.34 1024.46c3.79.41 14.53 3.09 17.68 6.4" stroke-width="1.5"/><path d="m1952.94 1014.33c3.7-10.23.9-44.28-48.93-67.09-55.73-25.52-106.76-22.38-118.54 10.16 13.63 5.87 26.64 11.06 26.64 11.06" stroke-width="1.5"/><path d="m1799.14 963.17c9.5-8.39 76.4-35.7 126.24 39.73" stroke-width="2"/><g stroke-width="1.5"><path d="m1893.27 942.65c25 9.57 68 66.4 52.14 96.45"/><path d="m1921 1046.79c5.64.34 15 2.42 19.76 5.88-16.26 29.83-80.54 27.1-101.69 21.57"/><path d="m1810.74 996.23c4.11 19.87 50.19 62.23 116.82 69.74"/><path d="m1993.47 1089.59c-3.66 2.7-18.42 7.65-40.78-12.75"/><path d="m1965.4 1086.4c1.88 6.5 10.93 29 16 33.44"/><path d="m2055.59 1072.09c3.55 11.73-22.27 49.26-54.32 37"/><path d="m2009.93 1095.55c9.57 4.41 19.57 9.43 36.32-.65"/></g><path d="m2032.71 1106.31c3.11 4.3 9.29 15.69 5.1 32" stroke-width="1.38841"/><path d="m1972.76 1033.85c14.23-16.79 85.46-16.72 82.83 38.24" stroke-width="2"/><path d="m2055.17 1061.79c9.17-2.84 48.44-46.66-51-60.76" stroke-width="1.5"/><path d="m1978.45 1021.43c10.46-16 67.18-8.36 92 18.1" stroke-width="1.5"/><path d="m1762.58 1070.56c15.41 19.48 182.5 149.28 250.92 103.94" stroke-width="2.5"/></g><path d="m2013.73 1082.87c-14-2.79-30.12-9-47-18 .79-14.26 8.65-29.06 21.81-35.42 10.47.04 21.21 3.23 30.46 7.55 7.54 13.82 4.11 33.84-5.27 45.87z" fill="#000"/><g stroke-miterlimit="10"><path d="m2008.95 1070.11c5.4 0 9.78-4.38 9.78-9.78s-4.38-9.78-9.78-9.78-9.78 4.38-9.78 9.78 4.38 9.78 9.78 9.78z" fill="#f2f2f2" stroke="#000" stroke-width=".694206"/><path d="m1991.29 1050.5c3.92 0 7.1-3.18 7.1-7.1s-3.18-7.1-7.1-7.1-7.1 3.18-7.1 7.1 3.18 7.1 7.1 7.1z" fill="#f2f2f2" stroke="#000" stroke-width=".694206"/><path d="m1985.14 1066.69c3.53 0 6.4-2.87 6.4-6.4s-2.87-6.4-6.4-6.4-6.4 2.87-6.4 6.4 2.87 6.4 6.4 6.4z" fill="#f2f2f2" stroke="#000" stroke-width=".694206"/><path d="m1879.23 1021.3c5.59 0 10.13-4.54 10.13-10.13s-4.54-10.13-10.13-10.13c-5.6 0-10.13 4.54-10.13 10.13s4.53 10.13 10.13 10.13z" fill="#f2f2f2" stroke="#000" stroke-width=".694206"/><path d="m1856.4 997.48c2.99 0 5.42-2.427 5.42-5.42s-2.43-5.42-5.42-5.42-5.42 2.427-5.42 5.42 2.43 5.42 5.42 5.42z" fill="#f2f2f2" stroke="#000" stroke-width=".694206"/><path d="m1854.82 1013.19c3.66 0 6.63-2.97 6.63-6.63s-2.97-6.63-6.63-6.63-6.63 2.97-6.63 6.63 2.97 6.63 6.63 6.63z" fill="#f2f2f2" stroke="#000" stroke-width=".694206"/></g></svg>