<svg fill="none" height="4000" viewBox="0 0 4000 4000" width="4000" xmlns="http://www.w3.org/2000/svg"><path d="m1256.5 1165c-87.5 192 1187 438.5 1643.5 302.5 154-1048-1456.5-1108-1643.5-302.5z" fill="#fff" stroke="#333" stroke-linejoin="round" stroke-width="5"/><path clip-rule="evenodd" d="m2694.51 1501.44c78.46-5.9 148.38-16.92 205.49-33.94 90.96-619.026-433.7-893.343-916.99-848.197 409.55 41.738 781.3 330.317 711.5 882.137z" fill="#000" fill-opacity=".1" fill-rule="evenodd"/><path d="m1256.5 1165c-87.5 192 1187 438.5 1643.5 302.5-953 816.5-2814.9983 0-1643.5-302.5z" fill="#333" stroke="#333" stroke-linejoin="round" stroke-width="5"/><path d="m1135.85 1679.81c.88.23 1.76.46 2.65.69 402.77 104.44 1014.85 69.93 1420.02-173.85 133.95-.82 253.06-12.81 341.48-39.15-533.81 457.34-1352.8 402.34-1764.15 212.31z" fill="#000" fill-opacity=".3"/><path clip-rule="evenodd" d="m1276.73 1232.43c-192.66 60.27-381.011 136.05-379.65 255.84-56.419-116.8 35.645-239.67 359.42-323.27-10.02 21.98-2.18 44.68 20.23 67.43z" fill="#000" fill-opacity=".3" fill-rule="evenodd"/><path d="m1859.43 920.192c38.55 2.668 78.83 10.24 115.97 22.454l54.99-12.586c12.13-2.98 24.8 4.935 27.55 16.988 2.5 10.913-3.76 22.119-13.8 26.173 35 20.772 61.79 47.309 73.3 79.219 22.59 62.65 24 179.54-25.2 211.17-44.65 28.69-125.62 30.59-206.45 11.21-2.8 12.37-10.2 23.54-25.74 25.32-11.91 1.35-12.03-4.48-12.15-10.22-.11-5.55-.22-11.01-10.93-9.86-6.59.71-11.29 2.94-15.82 5.09-10.46 4.96-20.04 9.51-49.94-6.09-46.74-24.37-31.15-46.92-21.4-59.96-42.73-26.86-76.82-60.86-93.15-100.62-13.52-32.88 1.03-144.244 59-177.23.04-6.925 3.17-13.781 9.02-18.16l66.32-47.19c9.15-6.491 22.06-5.187 29.73 3z" stroke="#333" stroke-width="20"/><path d="m1719.67 939.13c101.08-49.592 355.01-5.296 397.77 113.31 22.59 62.65 24 179.54-25.2 211.17-99.24 63.78-377.95-4.85-435.58-145.13-13.82-33.63 1.71-149.33 63.01-179.35z" fill="#f7cc58"/><path d="m1757.36 1137.79c19.91-4.65 54.27 31 47.54 63.64 33.8-6.52 179.82-36 185.6-5.26s-37.76 41-107.61 44.21c6.48 10.1 10.07 56-22.84 59.76-23.4 2.65-1.28-22.42-23.08-20.08s-22.91 21.35-65.76-1c-58.58-30.54-19.25-58.22-16.22-67.91s6.65-18.26.24-27.41-20.17-40.74 2.13-45.95z" fill="#e89026"/><path d="m1868.5 1003.95c6.25-39.022-14.87-74.852-47.18-80.028-32.32-5.175-63.58 22.265-69.83 61.289-6.25 39.019 14.88 74.859 47.19 80.029 32.31 5.18 63.57-22.26 69.82-61.29z" fill="#e1e8ed"/><path d="m2014.56 1044.2c6.36-39.73-15.15-76.209-48.04-81.478-32.9-5.269-64.72 22.666-71.08 62.398-6.37 39.72 15.14 76.2 48.03 81.47 32.9 5.27 64.72-22.67 71.09-62.39z" fill="#e1e8ed"/><path d="m1910.78 978.086c-1.27-11.328 6.4-22.118 17.51-24.656l102.1-23.37c12.13-2.98 24.8 4.935 27.56 16.988 2.78 12.175-5.33 24.717-17.43 27.282l-102.1 23.37c-13.04 3-26.17-6.381-27.64-19.614z" fill="#5e460c"/><path d="m1924.13 1078.37c11.76 0 21.29-9.53 21.29-21.29s-9.53-21.29-21.29-21.29-21.29 9.53-21.29 21.29 9.53 21.29 21.29 21.29z" fill="#2a2f33"/><path d="m1779.67 1036.27c11.55 0 20.91-9.36 20.91-20.91s-9.36-20.91-20.91-20.91-20.91 9.36-20.91 20.91 9.36 20.91 20.91 20.91z" fill="#2a2f33"/><g fill="#5e460c"><path d="m1835.05 960.52-33.86-36.12-50.19 35.69c-10.08 6.803-24.17 4.249-31.21-5.658-7.05-9.908-4.84-24.054 4.89-31.342l66.32-47.19c9.15-6.491 22.06-5.187 29.73 3l47.42 50.59c9.5 10.145 7.38 26.948-4.11 34.498-9.76 6.416-20.89 5.182-28.99-3.468z"/><path d="m2072.08 1199.82-276-77c-11.94-3.51-19.05-16.34-15.71-28.32s16.07-19.28 28.1-16.1l276 77c10.96 3.06 18.18 14.06 16.64 25.33-1.86 13.61-15.96 22.72-29.03 19.09z"/></g></svg>