<svg xmlns="http://www.w3.org/2000/svg" xmlns:xlink="http://www.w3.org/1999/xlink" width="4000" height="4000" fill="none" xmlns:v="https://vecta.io/nano"><g stroke="#333" stroke-width="5" stroke-miterlimit="10"><path d="M1090.74 932.83c53.75 66.75 147.1 174.85 218.67 240.53 24.85-89.7 186.7-206 286.85-247.77s486.93-141.1 519.5-139.24c-1.83-35.7-37-308.27-37-308.27s-131.56 22.1-269.2 66c-98.86 31.53-208.4 85.25-239.32 99.07-73.98 33.05-533.24 222.94-479.5 289.68z" fill="#ffdf8f"/><path d="M2012.56 48.32c-7.82 3.5677-14.48 9.2577-19.23 16.423-4.74 7.1654-7.38 15.5187-7.62 24.1-.23 8.5914 1.95 17.076 6.3 24.5s10.7 13.458 18.3 17.447c7.2 78.7 17.68 299.8-85.53 347-74.16 33.92-111 4.34-132.57-31.1 9.07-6.6 15.48-16.2 18.07-27.12s1.2-22.385-3.95-32.35-13.67-17.76-24.06-21.973c-10.4-4.213-21.95-4.567-32.58-.996s-19.63 10.83-25.36 20.462a46.911 46.911 0 0 0-5.92 32.048c1.92 11.046 7.73 21.04 16.38 28.172a46.912 46.912 0 0 0 30.78 10.706c-2.17 52.87-19.35 101.35-78 128.18-65.78 30.08-151.5-60.06-201.9-118 8.8-6.744 14.82-16.477 16.93-27.36a45.35 45.35 0 0 0-5.48-31.705c-5.64-9.544-14.58-16.7-25.13-20.092a45.329 45.329 0 0 0-32.13 1.637c-10.15 4.455-18.32 12.473-22.96 22.54s-5.44 21.486-2.23 32.098c3.2 10.612 10.18 19.683 19.62 25.498s20.68 7.973 31.6 6.064c16.65 77.17 20.24 197-40.58 224.86-57.93 26.5-121 3.14-159.92-23.1 7.9-7.965 12.58-18.574 13.13-29.78.54-11.207-3.08-22.22-10.16-30.92a45.442 45.442 0 0 0-28.24-16.188c-11.1-1.724-22.42.716-31.8 6.85-9.4 6.134-16.2 15.528-19.08 26.372s-1.64 22.372 3.47 32.36 13.73 17.733 24.2 21.74c10.5 4.007 22.08 3.995 32.55-.036 8.6 39.55 1.86 91.57-57.8 118.86-78 35.68-143.46-5.23-320.8-155.27 5.232-9.82 6.805-21.178 4.437-32.05s-8.52-20.548-17.362-27.302a46.921 46.921 0 0 0-30.907-9.571 46.924 46.924 0 0 0-29.754 12.709 46.947 46.947 0 0 0-14.453 28.947 46.925 46.925 0 0 0 7.72 31.421c6.218 9.226 15.512 15.944 26.223 18.952a46.925 46.925 0 0 0 32.256-2.527c1.878-.897 3.704-1.898 5.47-3 63.26 64.84 364.33 411.95 364.33 411.95s91.3-101.75 415.26-250c306.08-140 469-146.38 469-146.38l-64.76-547.8c6.55-.92 12.82-3.237 18.38-6.797 5.57-3.56 10.3-8.278 13.9-13.833s5.92-11.816 6.87-18.358c.94-6.5417.46-13.2-1.4-19.5504a46.141 46.141 0 0 0-9.41-17.193c-4.34-4.9883-9.7-8.9836-15.72-11.714s-12.55-4.1315-19.16-4.1082a46.018 46.018 0 0 0-19.14 4.2435l-.05.04zm-641.28 829.13l-56.22-35.9 10.76-65.83 55.4 35.87-9.94 65.85zM1612.73 767l-56.2-35.9 10.72-65.84 55.44 35.88-9.96 65.86zM1855 656.16l-56.23-35.9 10.75-65.83 55.4 35.87-9.93 65.87zm-545.6 517.2c238.14-213.14 513.8-329.76 809.1-358.54l-10.8-106.16c-317.55 59.325-616.55 192.968-872.55 390l74.25 74.7z" fill="#f7ca4d"/></g><path opacity=".08" d="M2118.5 814.8c-295.3 28.8-571 145.4-809.1 358.55l-74.26-74.68 11.82-9 53.7 53c238.14-213.2 502.23-325.68 797.52-354.5-2.12-20.35-3.9-55.7-6-76.55l15.52-3 10.8 106.2z" fill="#000" stroke="#000" stroke-width="5" stroke-miterlimit="10"/><g fill="#ffe8b6"><path d="M1220 665.84c14.78 0 26.77-11.986 26.77-26.77s-12-26.77-26.77-26.77-26.77 11.985-26.77 26.77 12 26.77 26.77 26.77z"/><use xlink:href="#B"/><use xlink:href="#B" x="304.82" y="-22.88"/><path d="M2020.1 106.94c14.78 0 26.77-11.985 26.77-26.7696s-12-26.77-26.77-26.77-26.77 11.9853-26.77 26.77 12 26.7696 26.77 26.7696zM817.2 644.3c14.785 0 26.77-11.986 26.77-26.77s-11.985-26.77-26.77-26.77-26.77 11.985-26.77 26.77 11.985 26.77 26.77 26.77z"/></g><path opacity=".08" d="M2038.25 135.63c-18.15 7.55 44.4 520.53 44.4 520.53s-153.9 2-460 142c-324 148.2-406.76 248.65-406.76 248.65s-325.05-385.4-361.46-379c63.26 64.84 364.33 411.95 364.33 411.95s91.3-101.75 415.26-250c306.08-140 469-146.4 469-146.4l-64.78-547.74z" fill="#000" stroke="#000" stroke-width="5" stroke-linejoin="round"/><defs ><path id="B" d="M1447.33 447.53c14.78 0 26.77-11.985 26.77-26.77s-12-26.77-26.77-26.77-26.77 11.986-26.77 26.77 12 26.77 26.77 26.77z"/></defs></svg>