<svg fill="none" height="4000" viewBox="0 0 4000 4000" width="4000" xmlns="http://www.w3.org/2000/svg"><path d="m1090.74 932.83c53.75 66.75 147.11 174.85 218.67 240.53 24.85-89.71 186.71-206 286.85-247.77s486.93-141.11 519.5-139.24c-1.83-35.7-37-308.27-37-308.27s-131.56 22.1-269.2 66c-98.86 31.53-208.41 85.25-239.32 99.07-73.98 33.05-533.24 222.94-479.5 289.68z" fill="#ffdf8f" stroke="#333" stroke-miterlimit="10" stroke-width="5"/><path d="m2012.05 48.2837c-7.82 3.5677-14.48 9.2577-19.23 16.4231-4.74 7.1655-7.38 15.5187-7.62 24.1102-.23 8.5914 1.95 17.076 6.3 24.49 4.34 7.413 10.69 13.458 18.3 17.447 7.2 78.7 17.68 299.79-85.53 347-74.16 33.92-111 4.34-132.57-31.11 9.07-6.59 15.48-16.21 18.07-27.119s1.19-22.385-3.95-32.35-13.68-17.76-24.07-21.973-21.94-4.567-32.57-.996-19.63 10.83-25.37 20.462-7.84 21.001-5.92 32.047c1.92 11.047 7.74 21.041 16.39 28.173s19.57 10.93 30.78 10.706c-2.17 52.87-19.35 101.35-78 128.18-65.78 30.08-151.51-60.06-201.9-118 8.8-6.744 14.82-16.477 16.93-27.36s.16-22.162-5.48-31.706c-5.64-9.543-14.58-16.691-25.13-20.091s-21.98-2.818-32.13 1.637c-10.16 4.454-18.32 12.473-22.96 22.54-4.65 10.067-5.44 21.486-2.23 32.098 3.2 10.612 10.18 19.683 19.62 25.498 9.44 5.816 20.68 7.973 31.6 6.064 16.65 77.17 20.24 197-40.58 224.86-57.93 26.51-121 3.14-159.92-23.1 7.9-7.966 12.58-18.574 13.12-29.781.55-11.208-3.07-22.221-10.16-30.919-7.09-8.697-17.14-14.464-28.23-16.188s-22.42.715-31.82 6.849c-9.39 6.134-16.19 15.529-19.07 26.373s-1.65 22.371 3.46 32.361c5.12 9.989 13.74 17.733 24.22 21.741 10.48 4.007 22.08 3.995 32.55-.036 8.59 39.55 1.86 91.57-57.81 118.86-78 35.68-143.46-5.23-320.812-155.27 5.232-9.819 6.805-21.178 4.438-32.049-2.368-10.871-8.522-20.548-17.363-27.302-8.842-6.754-19.796-10.146-30.907-9.571-11.111.574-21.656 5.079-29.754 12.709-8.097 7.63-13.22 17.89-14.453 28.947-1.233 11.058 1.503 22.194 7.721 31.42 6.217 9.227 15.511 15.944 26.222 18.953 10.712 3.009 22.144 2.113 32.256-2.527 1.878-.897 3.705-1.899 5.47-3 63.26 64.84 364.332 411.946 364.332 411.946s91.29-101.746 415.26-249.996c306.08-140 469-146.38 469-146.38l-64.76-547.8c6.54-.919 12.81-3.237 18.38-6.797s10.31-8.278 13.89-13.833 5.92-11.816 6.87-18.3581c.94-6.5417.46-13.2099-1.4-19.5505-1.87-6.3406-5.08-12.2047-9.42-17.1929-4.33-4.9883-9.69-8.9837-15.71-11.714s-12.56-4.1316-19.17-4.1082c-6.61.0233-13.13 1.4707-19.13 4.2434zm-641.28 829.1303-56.22-35.89 10.76-65.83 55.4 35.87zm241.45-110.45-56.2-35.9 10.72-65.84 55.44 35.88zm242.27-110.84-56.23-35.91 10.75-65.83 55.41 35.87z" fill="#f7ca4d" stroke="#333" stroke-miterlimit="10" stroke-width="5"/><path d="m1309.41 1173.36c238.14-213.14 513.81-329.76 809.11-358.54-3.63-34.82-7.23-71.53-10.81-106.16-317.55 59.325-616.55 192.968-872.55 390 24.68 24.81 49.43 49.71 74.25 74.7z" fill="#f7ca4d" stroke="#333" stroke-miterlimit="10" stroke-width="5"/><path d="m2118.51 814.81c-295.29 28.79-571 145.41-809.1 358.55-24.82-25-49.57-49.89-74.26-74.68 3.93-3.03 7.87-6.03 11.82-9 14.12 14.2 39.54 38.7 53.71 53 238.14-213.2 502.23-325.68 797.52-354.51-2.12-20.35-3.91-55.7-6-76.55 5.17-1.007 10.35-2.007 15.52-3 3.57 34.67 7.17 71.38 10.79 106.19z" fill="#000" opacity=".08" stroke="#000" stroke-miterlimit="10" stroke-width="5"/><g fill="#ffe8b6"><path d="m1220 665.84c14.78 0 26.77-11.986 26.77-26.77 0-14.785-11.99-26.77-26.77-26.77s-26.77 11.985-26.77 26.77c0 14.784 11.99 26.77 26.77 26.77z"/><path d="m1447.33 447.53c14.78 0 26.77-11.985 26.77-26.77 0-14.784-11.99-26.77-26.77-26.77s-26.77 11.986-26.77 26.77c0 14.785 11.99 26.77 26.77 26.77z"/><path d="m1752.15 424.649c14.78 0 26.77-11.985 26.77-26.77 0-14.784-11.99-26.77-26.77-26.77s-26.77 11.986-26.77 26.77c0 14.785 11.99 26.77 26.77 26.77z"/><path d="m2020.1 106.939c14.78 0 26.77-11.9849 26.77-26.7696s-11.99-26.77-26.77-26.77-26.77 11.9853-26.77 26.77 11.99 26.7696 26.77 26.7696z"/><path d="m817.21 644.3c14.785 0 26.77-11.986 26.77-26.77 0-14.785-11.985-26.77-26.77-26.77s-26.77 11.985-26.77 26.77c0 14.784 11.985 26.77 26.77 26.77z"/></g><path d="m2038.25 135.63c-18.15 7.55 44.41 520.53 44.41 520.53s-153.89 2-460 142c-324 148.21-406.76 248.65-406.76 248.65s-325.05-385.39-361.46-379c63.26 64.84 364.33 411.95 364.33 411.95s91.29-101.75 415.26-250c306.08-140 469-146.39 469-146.39z" style="opacity:.08;fill:#000;stroke:#000;stroke-width:5;stroke-linecap:round;stroke-linejoin:round"/></svg>