<svg fill="none" height="4000" viewBox="0 0 4000 4000" width="4000" xmlns="http://www.w3.org/2000/svg"><path d="m2831 1337c-382.5 155.5-1115.5 70-1440-247 491.2-444.546 1090.47-282.57 1440 247z" fill="#000" fill-opacity=".15"/><g stroke="#333" stroke-miterlimit="10" stroke-width="5"><path d="m2202 915.5c487.05 71.071 827.73-67.38 827.73 123.92 0 346.67-570.23 346.08-857.11 318.77s-857.18-204.69-857.18-510.07c0-287.12 399.51-3.69 886.56 67.38z" fill="#232323"/><path d="m2877 450c32.28 189.224-112 269.5-159.93 633.73-18.33 139.27-448.23 96.76-582.52 76.38-115.05-17.45-534.17-80-517.55-235.11 44.1-411.5-40.59-474.958 44.1-621.9 64.9-112.6 317.9-102.6 655.4-55.6s542.5 96.999 560.5 202.5z" fill="#1a1a1a"/><path d="m2752.3 906.539c-120.26 76.385-474.88 50.188-598.66 30.355-100.6-16.11-414.6-91.491-523.66-200.555-1.38 53.528-5.15 115.61-12.98 188.661-16.52 154.14 397.3 216.88 515.36 234.78l2.19.33c134.29 20.38 564.19 62.89 582.52-76.38 8.97-68.15 21.31-126.352 35.23-177.191z" fill="#4d4d4d"/></g><path d="m2687.34 428.223c-10.79-70.85-88.74-119.362-222.12-158.2 248.45 41.514 396.6 91.012 411.78 179.977 16.35 95.823-12.58 163.707-51.35 254.674-37.79 88.67-84.92 199.271-108.58 379.056-8.17 62.06-98.06 88.02-207.1 95.94 9.54-11.86 15.61-25.56 17.46-41.34 47.92-408.126 192.19-498.077 159.91-710.107z" fill="#000" fill-opacity=".3"/></svg>