<svg xmlns="http://www.w3.org/2000/svg" width="4000" height="4000" fill="none" xmlns:v="https://vecta.io/nano"><path d="M2207.53 712.322c-112.05 16.7-355.08 64.408-609.8 187.814-184.52 89.393-363 228.334-441.67 293.054-25.57 21.03-34.3 55.9-22.77 86.9l8.75 23.53c14.68 39.47 64.77 52.58 97.9 26.6 90.68-71.1 265.32-197.5 477.7-299.14 200.1-95.748 435.8-146.022 544.44-165.637 31.4-5.668 51.1-37.913 41-68.18l-10.38-31.143c-12.1-36.33-47.3-59.465-85.2-53.817z" fill="#000" fill-opacity=".15"/><g stroke="#333" stroke-width="5"><path d="M1226.14 799.633L1209.5 1120l925-402.5-289.56-222.298c-56.2-43.14-131.72-51.435-195.94-21.516l-296.07 137.938c-73.8 34.38-122.57 106.706-126.8 188.01z" fill="#111"/><path d="M2225.46 676.617c-122 19.116-381.62 72.045-652.96 203.883-189.78 92.208-373.17 232.44-462.34 304.94-32.2 26.17-37.25 72.7-12.6 106.08l19.23 26.05c19.84 26.9 58.9 30.85 84.7 9.63 80.35-66.1 258.4-201 501.5-317.7 215.65-103.51 458.95-153.44 569.53-172.238 32.45-5.518 54.44-36.992 47.45-69.162l-6.4-29.456c-8.9-40.923-46.73-68.5-88.1-62.027z" fill="#232323"/></g><path fill-rule="evenodd" d="M1082.3 1251.17l.25.35 19.23 26.05c19.85 26.9 58.9 30.85 84.7 9.62 80.34-66.1 258.4-201 501.5-317.7 215.65-103.512 458.94-153.44 569.52-172.24 32.46-5.517 54.45-36.99 47.46-69.16l-4.08-18.767c5.94 8.58 10.32 18.478 12.67 29.31l6.4 29.456c7 32.17-15 63.644-47.45 69.16-110.58 18.798-353.88 68.727-569.53 172.24-243.1 116.7-421.16 251.6-501.5 317.7-25.8 21.23-64.86 17.27-84.7-9.62l-19.23-26.05c-9.03-12.24-14.08-26.23-15.26-40.35z" fill="#000" fill-opacity=".85"/></svg>