<svg fill="none" height="4000" viewBox="0 0 4000 4000" width="4000" xmlns="http://www.w3.org/2000/svg"><path d="m2207.53 712.322c-112.05 16.71-355.08 64.408-609.8 187.814-184.52 89.393-363.01 228.334-441.67 293.054-25.57 21.03-34.31 55.89-22.77 86.91l8.75 23.53c14.68 39.47 64.77 52.58 97.91 26.61 90.68-71.09 265.32-197.5 477.7-299.14 200.1-95.748 435.8-146.022 544.44-165.637 31.4-5.668 51.1-37.913 41.01-68.181l-10.38-31.143c-12.1-36.329-47.31-59.465-85.19-53.817z" fill="#000" fill-opacity=".15"/><path d="m1226.14 799.633-16.64 320.367 925-402.5-289.56-222.298c-56.19-43.141-131.72-51.435-195.94-21.516l-296.07 137.938c-73.79 34.381-122.57 106.706-126.79 188.009z" fill="#111" stroke="#333" stroke-width="5"/><path d="m2225.46 676.617c-121.99 19.116-381.62 72.045-652.96 203.883-189.78 92.208-373.17 232.44-462.34 304.94-32.2 26.17-37.25 72.69-12.6 106.08l19.23 26.05c19.84 26.89 58.9 30.85 84.7 9.63 80.35-66.11 258.4-201.01 501.51-317.7 215.65-103.511 458.95-153.441 569.53-172.238 32.45-5.518 54.44-36.992 47.45-69.162l-6.41-29.456c-8.89-40.923-46.73-68.51-88.11-62.027z" fill="#232323" stroke="#333" stroke-width="5"/><path clip-rule="evenodd" d="m1082.3 1251.17c.09.12.17.23.25.35l19.23 26.05c19.85 26.89 58.9 30.85 84.71 9.62 80.34-66.1 258.4-201 501.51-317.69 215.65-103.512 458.94-153.441 569.52-172.239 32.46-5.517 54.45-36.991 47.46-69.161l-4.08-18.767c5.94 8.579 10.32 18.478 12.67 29.311l6.41 29.456c6.99 32.17-15 63.644-47.45 69.161-110.58 18.798-353.88 68.727-569.53 172.239-243.11 116.69-421.16 251.59-501.51 317.69-25.8 21.23-64.86 17.27-84.7-9.62l-19.23-26.05c-9.03-12.24-14.08-26.23-15.26-40.35z" fill="#000" fill-opacity=".85" fill-rule="evenodd"/></svg>