<svg xmlns="http://www.w3.org/2000/svg" width="4000" height="4000" fill="none" xmlns:v="https://vecta.io/nano"><style><![CDATA[.B{fill-rule:evenodd}.C{fill:#000}.D{stroke:#333}.E{stroke-width:5}.F{fill-opacity:.15}.G{fill:#ff9901}]]></style><path d="M2921.64 1538.03c-96.3-314.46-345.68-501.22-653.88-601.21 294.74-38.82 0-137.106-267.03-118.32-415.45 29.23-768.54 340.05-905.37 706.67 344.46-168.6 522.13-243.17 944.14-219.1 430.5 24.58 642.65 47.24 882.14 231.95z" class="B C F"/><path d="M2513.5 760c-191.43 50.196 18.5 296.5 18.5 296.5L1564 888s-222.5-768.5 642.5-751c551.9 11.166 976.5 849.5 805.5 900-199.76 59-109.5-379-498.5-277z" fill="#035883" class="D E"/><path d="M2433.2 859.197c-47.4 45.05-19.65 122.496 14.53 182.633l84.26 14.67s-93.3-109.454-98.8-197.303zm592.07 171.533C3019.85 811.964 2645.7 217.39 2181.5 208c-379.13-7.67-549.35 135.66-620.94 299.097C1612.72 316.764 1773.12 128.232 2206.5 137c536.02 10.845 951.98 801.99 818.78 893.73z" fill-opacity=".2" class="B C"/><path d="M3150.5 1088.5c0 64.45-56.24 117-126 117s-126-52.55-126-117 56.24-117 126-117 126 52.55 126 117z" class="D E G"/><path d="M3123.22 1165c-9.24 1.97-18.85 3-28.72 3-70.97 0-128.5-53.5-128.5-119.5 0-29.1 11.2-55.777 29.78-76.504-57.14 12.132-99.78 59.684-99.78 116.504 0 66 57.53 119.5 128.5 119.5 39.67 0 75.15-16.72 98.72-43z" class="B C F"/><path d="M2704.5 1355.5c-111.04-44.62-353-79.5-848-125.5 92.54-539.573 302-1034.42 736-1049C3143 162.508 3400 776 3221 857.5c-131.64 59.936-207-339-442-203.5-80.2 46.24-112.4 187.5 59.5 487.5 94.17 164.34 109.5 376 83.5 380.5s-49.5-99-217.5-166.5z" fill="#ffff02" class="D E"/><path d="M2533.7 186.064l1.8-.064c543.66-18.262 801.07 579.856 634.97 673.22 16.18 6.103 32.85 6.333 50.53-1.72 179-81.5-78-694.992-628.5-676.5-20.08.675-39.67 2.377-58.8 5.064zm297.5 445.503c-32.34-3.526-68.36 3.88-109.2 27.433-80.2 46.24-112.4 187.5 59.5 487.5 66.88 116.7 94 257.3 94.78 330.58 5.54 6.63 10.38 12.76 14.7 18.23 13.8 17.48 22.27 28.2 31.02 26.7 26-4.5 10.67-216.16-83.5-380.5-171.9-300-139.7-441.26-59.5-487.5 18.34-10.576 35.7-17.896 52.2-22.433z" class="B C F"/><path d="M3379.5 896.5c0 59.225-58.2 108-131 108s-131-48.775-131-108 58.2-108 131-108 131 48.775 131 108z" class="D E G"/><path d="M3355.73 962.337c-10.93 2.39-22.4 3.666-34.23 3.666-73.73 0-133.5-49.473-133.5-110.5 0-24.67 9.77-47.45 26.27-65.837-57.14 12.51-99.27 55.6-99.27 106.835 0 61.027 59.77 110.5 133.5 110.5 43.93 0 82.9-17.56 107.23-44.663z" class="B C F"/><path d="M1569.1 1286.1c290.5-61 651.4-16.6 774-4.5 101.4 10-242.5-542.996-342.5-697.495-177.02-273.5-360.97-378.397-665-383-594.347-9-742.09 628.368-594.348 691 140.35 59.5 167.35-394 558.348-243 120 46.343 164.65 202.5 36 426.996-94.17 164.34-263.32 360.03-236.5 421 16.5 37.5 319.97-179.5 470-211z" fill="#a81d24" class="D E"/><path d="M2312.64 1278.5c-144.34-14.9-474.2-48.95-743.55 7.6-76.9 16.15-194.08 81.02-292.3 135.38-93.4 51.7-169.65 93.9-177.7 75.62-17.7-40.23 49.93-139.1 125.04-248.94 38.72-56.62 79.43-116.15 111.46-172.06 128.65-224.495 84-380.653-36-426.996-40.1-15.5-76.4-24.62-109.35-28.593 50.8-6.748 111.2.343 184.35 28.593 120 46.343 164.65 202.5 36 426.996-42.44 74.07-92.93 140.78-134.1 195.16-50.17 66.3-86.47 114.24-77.4 134.84 6.73 15.28 43.3-5.5 99.7-37.53 82.04-46.6 206.05-117.04 341.2-135.06 235.9-31.45 542.14-14.46 717.48-.25 8.05 31.95 4.82 50.24-14.4 48.34l-30.45-3.1zM803.488 884.747c-121.96-91.12 22.36-658.94 559.252-682.962l-27.15-.69c-594.347-9-742.09 628.368-594.347 691 23.11 9.798 43.15 5.685 62.245-7.348z" fill-opacity=".2" class="B C"/><path d="M874.5 947.5c0 59.23-58.188 108-131 108s-131-48.77-131-108 58.187-108 131-108 131 48.775 131 108z" class="D E G"/><path d="M727.403 837.795C661.263 844.374 610 890.982 610 947.5c0 61.03 59.77 110.5 133.5 110.5 37.737 0 71.816-12.96 96.097-33.8-5.277.53-10.65.8-16.097.8-73.73 0-133.5-49.473-133.5-110.5 0-29.792 14.244-56.83 37.403-76.704z" class="B C F"/></svg>