<svg fill="none" height="4000" viewBox="0 0 4000 4000" width="4000" xmlns="http://www.w3.org/2000/svg"><path clip-rule="evenodd" d="m2921.64 1538.03c-96.3-314.46-345.68-501.22-653.88-601.211 294.74-38.819 0-137.106-267.03-118.32-415.45 29.229-768.54 340.051-905.37 706.671 344.46-168.6 522.13-243.17 944.14-219.09 430.5 24.58 642.65 47.24 882.14 231.95z" fill="#000" fill-opacity=".15" fill-rule="evenodd"/><path d="m2513.5 760c-191.43 50.196 18.5 296.5 18.5 296.5l-968-168.5s-222.5-768.5 642.5-751.001c551.89 11.166 976.5 849.501 805.5 900.001-199.76 58.99-109.5-379-498.5-277z" fill="#035883" stroke="#333" stroke-width="5"/><path d="m3025.28 1030.73c-5.43-218.766-379.58-813.339-843.78-822.731-379.13-7.67-549.35 135.661-620.94 299.097 52.16-190.332 212.56-378.864 645.94-370.097 536.02 10.845 951.98 801.989 818.78 893.731z" fill="#000" fill-opacity=".2"/><path d="m3150.5 1088.5c0 64.45-56.24 117-126 117s-126-52.55-126-117 56.24-117 126-117 126 52.55 126 117z" fill="#ff9901" stroke="#333" stroke-width="5"/><path clip-rule="evenodd" d="m3123.22 1165c-9.24 1.97-18.85 3-28.72 3-70.97 0-128.5-53.5-128.5-119.5 0-29.1 11.19-55.777 29.78-76.504-57.14 12.132-99.78 59.684-99.78 116.504 0 66 57.53 119.5 128.5 119.5 39.67 0 75.15-16.72 98.72-43z" fill="#000" fill-opacity=".15" fill-rule="evenodd"/><path d="m2704.5 1355.5c-111.04-44.62-353-79.5-848-125.5 92.54-539.573 302-1034.421 736-1049 550.5-18.492 807.5 595 628.5 676.5-131.64 59.936-207-339-442-203.5-80.19 46.239-112.41 187.5 59.5 487.5 94.17 164.34 109.5 376 83.5 380.5s-49.5-99-217.5-166.5z" fill="#ffff02" stroke="#333" stroke-width="5"/><path d="m2533.7 186.064c.6-.022 1.2-.044 1.8-.064 543.66-18.262 801.07 579.856 634.97 673.219 16.18 6.103 32.85 6.333 50.53-1.719 179-81.5-78-694.992-628.5-676.5-20.08.675-39.67 2.377-58.8 5.064z" fill="#000" fill-opacity=".15"/><path d="m2831.21 631.567c-32.34-3.526-68.36 3.879-109.21 27.432-80.19 46.239-112.41 187.501 59.5 487.501 66.88 116.71 93.99 257.29 94.78 330.58 5.54 6.63 10.38 12.76 14.7 18.23 13.8 17.48 22.27 28.2 31.02 26.69 26-4.5 10.67-216.17-83.5-380.5-171.91-300-139.69-441.262-59.5-487.501 18.34-10.576 35.71-17.896 52.21-22.432z" fill="#000" fill-opacity=".15"/><path d="m3379.5 896.5c0 59.225-58.19 108-131 108s-131-48.775-131-108 58.19-108 131-108 131 48.775 131 108z" fill="#ff9901" stroke="#333" stroke-width="5"/><path clip-rule="evenodd" d="m3355.73 962.337c-10.93 2.391-22.4 3.666-34.23 3.666-73.73 0-133.5-49.473-133.5-110.5 0-24.669 9.77-47.449 26.27-65.837-57.14 12.511-99.27 55.601-99.27 106.835 0 61.027 59.77 110.499 133.5 110.499 43.93 0 82.9-17.56 107.23-44.663z" fill="#000" fill-opacity=".15" fill-rule="evenodd"/><path d="m1569.09 1286.09c290.5-61 651.41-16.59 774-4.5 101.41 10.01-242.5-542.996-342.5-697.495-177.02-273.5-360.97-378.397-665-383.001-594.347-8.999-742.091 628.368-594.348 691.001 140.351 59.5 167.351-394.001 558.348-243.001 120 46.343 164.65 202.501 36 426.996-94.17 164.34-263.32 360.03-236.5 421 16.5 37.5 319.97-179.49 470-211z" fill="#a81d24" stroke="#333" stroke-width="5"/><path d="m2312.64 1278.49c-144.34-14.9-474.2-48.95-743.55 7.6-76.89 16.15-194.09 81.02-292.3 135.38-93.41 51.71-169.65 93.9-177.7 75.62-17.7-40.23 49.93-139.11 125.04-248.94 38.72-56.62 79.43-116.15 111.46-172.06 128.65-224.496 84-380.653-36-426.996-40.11-15.491-76.39-24.619-109.35-28.593 50.79-6.749 111.2.343 184.35 28.593 120 46.343 164.65 202.5 36 426.996-42.44 74.07-92.93 140.78-134.09 195.16-50.17 66.29-86.47 114.24-77.41 134.84 6.73 15.28 43.29-5.49 99.7-37.53 82.04-46.6 206.04-117.04 341.21-135.06 235.9-31.45 542.14-14.46 717.48-.25 8.05 31.95 4.82 50.24-14.39 48.34-8.92-.88-19.12-1.93-30.45-3.1z" fill="#000" fill-opacity=".2"/><path d="m803.488 884.747c-121.959-91.119 22.361-658.939 559.252-682.962-8.94-.322-17.99-.552-27.15-.691-594.347-8.999-742.091 628.368-594.347 691.001 23.111 9.798 43.149 5.685 62.245-7.348z" fill="#000" fill-opacity=".2"/><path d="m874.5 947.5c0 59.23-58.188 108-131 108-72.813 0-131-48.77-131-108 0-59.225 58.187-108 131-108 72.812 0 131 48.775 131 108z" fill="#ff9901" stroke="#333" stroke-width="5"/><path clip-rule="evenodd" d="m727.403 837.795c-66.14 6.579-117.403 53.187-117.403 109.705 0 61.03 59.77 110.5 133.5 110.5 37.737 0 71.816-12.96 96.097-33.8-5.277.53-10.649.8-16.097.8-73.73 0-133.5-49.473-133.5-110.501 0-29.792 14.244-56.831 37.403-76.704z" fill="#000" fill-opacity=".15" fill-rule="evenodd"/></svg>