<svg fill="none" height="4000" viewBox="0 0 4000 4000" width="4000" xmlns="http://www.w3.org/2000/svg"><path d="m2853.29 1376.74c-373.29 123.76-1102.29 11.76-1448.76-298.36 566.69-502.269 1122.53-287.668 1448.76 298.36z" fill="#000" fill-opacity=".15"/><path d="m2820.67 1119.44c-411.17 0-1002.4-159.921-1250.12-261.53 163.95-338.91 424.38-679.639 619.19-642.24 80.66 15.47 81.76 87.83 163.76 100.33s117.5-59.582 198.35-46.05c152.65 25.55 188.15 541.05 268.82 849.49z" fill="#290c0d" stroke="#333" stroke-miterlimit="10" stroke-width="5"/><path d="m2820.67 1119.44c-400.67-10.44-1002.57-159.992-1250.12-261.53 14.45-34.91 29.45-64.91 44.95-96.41 1103 231 1117 264 828.5-464.5 53.5-29.5 71.41-30.897 107.88-27.08 153.62 16.08 207.09 657.588 268.79 849.52z" fill="#000" fill-opacity=".3"/><path d="m3412.5 1015.86c-292.72 306.59-792.83 451.73-1312.2 338.1-542.9-118.76-953.3-464.09-1072.02-893.16-12.42-44.93 51.31-68.1 71.32-26 79.25 166.82 230.28 318 433.5 380.26 418.39 128.233 870.93 211.07 1300.85 291.96 186.81 35.28 380.81-31.41 529.22-146.11 36.21-28.02 80.93 21.86 49.33 54.95z" fill="#290c0d" stroke="#333" stroke-miterlimit="10" stroke-width="5"/><path d="m2799.6 1124.58c-422.14-16.08-838.15-106.34-1229-266.65-22.91-9.431-46.84-27.297-34.48-55.91 8.39-19.25 31.58-28.074 50.69-20.15 385.58 159.685 799.09 246.97 1215.64 266.28 21.23.8 38 18.36 37.53 39.48s-20.53 37.77-40.38 36.95z" fill="#ab8c74" stroke="#333" stroke-miterlimit="10" stroke-width="5"/><g fill="#000"><path d="m2834 1107c-7.45 11.42-20.8 18.15-34.4 17.58-422.14-16.08-838.15-106.34-1229-266.65-21.67-8.865-47.1-24.93-34.33-56.22 4.1 9.452 11.74 16.926 21.27 20.83 393.43 163.627 816.37 255.83 1242.09 272.04 15.73.66 30.92-8.48 37.28-22.97 4.96 11.52 3.96 24.83-2.91 35.39z" fill-opacity=".2"/><path d="m3412.5 1015.86c-292.73 306.6-792.83 451.73-1312.2 338.11-542.9-118.76-953.33-464.1-1072-893.17-6.28-22.7 6.89-39.85 24-45.82 123.73 422.49 531.07 761.54 1068 879 510.64 111.71 1002.65-26.7 1297.25-322.78 8.01 12.92 8.61 30.36-5.05 44.66z" fill-opacity=".3"/></g></svg>