<svg xmlns="http://www.w3.org/2000/svg" xmlns:xlink="http://www.w3.org/1999/xlink" width="4000" height="4000" fill="none" xmlns:v="https://vecta.io/nano"><style><![CDATA[.B{fill-opacity:.15}.C{stroke:#333}.D{stroke-width:5}.E{stroke-miterlimit:10}.F{fill:#bfbfbf}]]></style><path d="M2955 1694c-546-386.5-1417-347.3-1881-105.5 4-18 17-52.5 22.5-71 294.65-159.42 635.6-218.17 965.5-210 363.5 9 710.65 175 884 319.5 2 19.5 9 51.5 9 67z" fill="#000" class="B"/><path d="M2462.26 970.78c192.54-103.24 298.74-304.54 290.08-509.1-.87-20.53 26.22-28.78 37-11.3 163.54 266.228 67.76 626.44-208.46 774.54-32.38-82.43-95.38-206.43-118.62-254.15z" class="C D E F"/><path d="M2580.9 1224.93c-46.9-9.93-94.9-35.93-124.66-59.88 289.44-103.34 439.64-435.433 327-721.04 207.26 318 0 705.5-202.35 780.92z" fill="#000" class="B"/><path d="M1676.1 948.78c-192.54-103.24-298.74-304.54-290.08-509.1.87-20.53-26.22-28.78-37-11.3-163.54 266.228-67.75 626.44 208.46 774.54 32.38-82.43 95.38-206.43 118.62-254.15z" class="C D E F"/><path d="M1557.47 1202.93c46.9-9.93 94.9-35.93 124.66-59.88-289.44-103.34-439.64-435.433-327-721.04-207.26 318 0 705.5 202.35 780.92z" fill="#000" class="B"/><path d="M2957.75 1612.3c-346.98-355.82-1474.2-400.32-1874.33-107.15-16.18-558.15 456.8-914.93 951.8-918.93 494.38-4 978.72 398.3 922.54 1026.08z" fill="#e2e2e2" class="C D E"/><path d="M2017.06 586.52l-52.45 634.37c-211.1 0-672.13 51.75-875.57 151.33a889.418 889.418 0 0 1 5.3-38.31c260.52-118.25 567.16-137.67 849.2-139.37 3.06.08 5.75-2.24 6.12-5.28l48.13-602.06 19.28-.68zm944.8 900.36c-201.5-160.26-636.35-232.85-851.37-249.88 14.52-209.47 51.78-545.382 59.5-641.85l18.22 2.75-48.28 603.86c-.13 3.23 2.5 6.03 5.72 6.1 331.9 21.26 632.24 109.32 814.7 243.1.7 11.87 1.2 23.84 1.5 35.9z" fill="#000" class="B"/><g class="C D E"><path d="M2971.16 1619.53c-1.4 15.6-21.48 23-34 12.57-173.34-144.5-522.66-254.44-910.66-264.1-208.5-5.2-632.5.23-925.77 158.77-13.43 7.26-30.3-1.53-30.73-15.93-1.3-42.98.37-86 5-128.76.23-1.9 1.44-3.6 3.16-4.42 264.42-134.5 591.16-154.57 882.4-155.33 3.06.1 5.76-2.24 6.13-5.28l50.6-632.86c.36-2.994 2.98-5.31 6-5.3 47.33-.934 94.7 1.657 141.64 7.9 3.04.3 5.4 3.014 5.25 6.07l-50.24 628.33c-.13 3.23 2.5 6.03 5.73 6.1 352.78 22.6 669.9 120.67 847.74 268.9.65.53 1.17 1.2 1.54 1.94s.58 1.57.6 2.4c.66 39.7-.8 79.42-4.4 118.97z" class="F"/><g fill="#e2e2e2"><use xlink:href="#B"/><use xlink:href="#B" x="-13.27" y="135.73"/><use xlink:href="#B" x="-23.97" y="271.45"/><use xlink:href="#B" x="-33.27" y="393.68"/><use xlink:href="#B" x="-44.67" y="515.9"/></g></g><path d="M2971.16 1619.53c-1.4 15.6-21.48 23-34 12.57-173.34-144.5-498.66-245.1-874.16-262.6-253.85-11.83-662.96-.7-962.27 157.26-13.5 7.13-30.3-1.53-30.73-15.92-.5-17.3-.54-34.4-.13-51.32 0 16.17 14.36 29.85 30.86 20.93C1395.38 1321.03 1733.1 1320.83 2063 1329c363.5 9 700.8 112.28 874.16 256.77 12.56 10.47 32.64 3 34-12.57 2.23-24.94 3.63-49.53 4.2-73.78 1.65 35.58-.98 84.55-4.2 120.1z" fill="#000" class="B"/><defs ><path id="B" d="M2090.57 709.9c26.32 0 47.66-19.77 47.66-44.16s-21.34-44.16-47.66-44.16-47.66 19.77-47.66 44.16 21.34 44.16 47.66 44.16z"/></defs></svg>