<svg fill="none" height="4000" viewBox="0 0 4000 4000" width="4000" xmlns="http://www.w3.org/2000/svg"><path d="m2955 1694c-546-386.5-1417-347.31-1881-105.5 4-18 17-52.5 22.5-71 294.65-159.42 635.6-218.17 965.5-210 363.5 9 710.65 175.01 884 319.5 2 19.5 9 51.5 9 67z" fill="#000" fill-opacity=".15"/><path d="m2462.26 970.78c192.54-103.24 298.74-304.54 290.08-509.1-.87-20.53 26.22-28.78 37-11.29 163.54 266.228 67.76 626.44-208.46 774.54-32.38-82.43-95.38-206.43-118.62-254.15z" fill="#bfbfbf" stroke="#333" stroke-miterlimit="10" stroke-width="5"/><path d="m2580.89 1224.93c-46.89-9.93-94.89-35.93-124.66-59.88 289.44-103.34 439.64-435.433 327.01-721.04 207.26 317.99 0 705.49-202.35 780.92z" fill="#000" fill-opacity=".15"/><path d="m1676.1 948.78c-192.54-103.24-298.74-304.54-290.08-509.1.87-20.53-26.22-28.78-37-11.29-163.54 266.228-67.75 626.44 208.46 774.54 32.38-82.43 95.38-206.43 118.62-254.15z" fill="#bfbfbf" stroke="#333" stroke-miterlimit="10" stroke-width="5"/><path d="m1557.47 1202.93c46.89-9.93 94.89-35.93 124.66-59.88-289.44-103.34-439.64-435.433-327.01-721.04-207.26 317.99 0 705.49 202.35 780.92z" fill="#000" fill-opacity=".15"/><path d="m2957.75 1612.3c-346.98-355.82-1474.21-400.32-1874.33-107.15-16.18-558.15 456.79-914.93 951.79-918.93 494.38-4 978.72 398.29 922.54 1026.08z" fill="#e2e2e2" stroke="#333" stroke-miterlimit="10" stroke-width="5"/><path d="m2017.06 586.52c-8.31 103.926-38.06 561.98-52.45 634.37-211.11 0-672.13 51.75-875.57 151.33 1.5-12.9 3.27-25.67 5.3-38.31 260.52-118.25 567.16-137.67 849.19-139.37 3.06.08 5.75-2.24 6.12-5.28l48.13-602.06c6.42-.293 12.85-.52 19.28-.68z" fill="#000" fill-opacity=".15"/><path d="m2961.87 1486.88c-201.49-160.26-636.35-232.85-851.37-249.88 14.52-209.47 51.78-545.382 59.5-641.85 6.08.847 12.15 1.763 18.22 2.75l-48.28 603.86c-.13 3.23 2.49 6.03 5.72 6.11 331.9 21.26 632.24 109.32 814.71 243.1.69 11.87 1.19 23.84 1.5 35.91z" fill="#000" fill-opacity=".15"/><g stroke="#333" stroke-miterlimit="10" stroke-width="5"><path d="m2971.16 1619.53c-1.4 15.6-21.48 23-34 12.57-173.34-144.49-522.66-254.44-910.66-264.1-208.5-5.19-632.5.23-925.77 158.77-13.43 7.26-30.31-1.53-30.73-15.93-1.3-42.98.37-86.01 5-128.76.23-1.9 1.44-3.59 3.16-4.42 264.42-134.5 591.16-154.57 882.4-155.33 3.06.09 5.76-2.24 6.13-5.28l50.6-632.86c.36-2.994 2.98-5.311 6-5.29 47.33-.934 94.71 1.657 141.64 7.91 3.04.301 5.39 3.014 5.25 6.07l-50.24 628.33c-.13 3.23 2.5 6.03 5.73 6.11 352.78 22.6 669.91 120.67 847.74 268.9.65.53 1.17 1.19 1.54 1.94s.58 1.57.6 2.4c.66 39.71-.8 79.42-4.39 118.97z" fill="#bfbfbf"/><g fill="#e2e2e2"><path d="m2090.57 709.89c26.32 0 47.66-19.771 47.66-44.16s-21.34-44.16-47.66-44.16-47.66 19.771-47.66 44.16 21.34 44.16 47.66 44.16z"/><path d="m2077.3 845.63c26.32 0 47.66-19.771 47.66-44.16s-21.34-44.16-47.66-44.16-47.66 19.771-47.66 44.16 21.34 44.16 47.66 44.16z"/><path d="m2066.59 981.35c26.32 0 47.66-19.771 47.66-44.16s-21.34-44.16-47.66-44.16-47.66 19.771-47.66 44.16 21.34 44.16 47.66 44.16z"/><path d="m2057.29 1103.58c26.32 0 47.66-19.77 47.66-44.16s-21.34-44.16-47.66-44.16-47.66 19.77-47.66 44.16 21.34 44.16 47.66 44.16z"/><path d="m2045.9 1225.81c26.32 0 47.66-19.77 47.66-44.16s-21.34-44.16-47.66-44.16-47.66 19.77-47.66 44.16 21.34 44.16 47.66 44.16z"/></g></g><path d="m2971.16 1619.53c-1.4 15.6-21.48 23-34 12.57-173.34-144.49-498.66-245.1-874.16-262.6-253.85-11.83-662.96-.7-962.27 157.26-13.51 7.13-30.31-1.53-30.73-15.92-.5-17.3-.54-34.41-.13-51.32 0 16.17 14.36 29.85 30.86 20.93 294.65-159.42 632.37-159.62 962.27-151.45 363.5 9 700.81 112.28 874.16 256.77 12.56 10.47 32.64 3 34-12.57 2.23-24.94 3.63-49.53 4.19-73.78 1.65 35.58-.98 84.55-4.19 120.11z" fill="#000" fill-opacity=".15"/></svg>