<svg fill="none" height="4000" viewBox="0 0 4000 4000" width="4000" xmlns="http://www.w3.org/2000/svg"><path d="m2477.82 3358.22c-180.35 9.04-222.2-123.16-226.11-205.68-5.57-117.52 71.29-226.13 206.26-226.13 14.53 0 20.36 18.6 8 26.21-62.51 38.26-103.48 108.98-103.48 182.39 0 71.59 46.75 174.93 121.15 196.26 15.36 4.41 8.7 26.22-5.82 26.95z" fill="#fbdd11" stroke="#333" stroke-width="10"/><path d="m2477.82 3358.22c-180.35 9.04-222.2-123.16-226.11-205.68-5.57-117.52 71.29-226.13 206.26-226.13 14.53 0 20.36 18.6 8 26.21-62.51 38.26-103.48 108.98-103.48 182.39 0 71.59 46.75 174.93 121.15 196.26 15.36 4.41 8.7 26.22-5.82 26.95z" fill="#fbdd11"/><path d="m2332.86 2966.26c32.86-24.87 74.97-39.85 125.11-39.85 14.53 0 20.36 18.6 8 26.21-4.85 2.96-9.59 6.12-14.19 9.46 7.39-9.45-.93-23.44-16.54-24.51-21.45-1.47-47.09-5.38-102.38 28.69z" fill="#000" fill-opacity=".15"/><path d="m2251.71 3152.54c3.91 82.52 45.76 214.72 226.11 205.68.09-.01.18-.01.28-.02 12.18-.84 18.69-16.55 10.99-23.93-172.68 10.06-265.06-176.19-199.79-321.93-26.82 39.56-40.02 89.03-37.59 140.2z" fill="#000" fill-opacity=".15"/><path d="m2398.6 3259.89c-56.82.05-92.99-68.11-58.59-115.27-15.92-45.21 18.08-95.39 66.66-96.55 56-1.34 88.36 58.5 82.5 109.13-5.48 47.31-37.53 102.65-90.57 102.69z" fill="#f7c394" stroke="#333" stroke-miterlimit="10" stroke-width="5"/><path d="m2489.17 3157.2c-6.78 58.57-54.37 126.8-125.37 93.8 68.82-8.8 117-125.5 83.11-191.84 5.39 3.84 13.89 8.34 27.6 27.61 12.29 21.73 17.7 46.2 14.66 70.43z" fill="#000" fill-opacity=".1"/><path d="m1522.18 3358.22c180.34 9.04 222.2-123.16 226.11-205.68 5.57-117.52-71.29-226.13-206.26-226.13-14.54 0-20.36 18.6-8 26.21 62.51 38.26 103.48 108.98 103.48 182.39 0 71.59-46.75 174.93-121.15 196.26-15.37 4.41-8.7 26.22 5.82 26.95z" fill="#fbdd11" stroke="#333" stroke-width="10"/><path d="m1522.18 3358.22c180.34 9.04 222.2-123.16 226.11-205.68 5.57-117.52-71.29-226.13-206.26-226.13-14.54 0-20.36 18.6-8 26.21 62.51 38.26 103.48 108.98 103.48 182.39 0 71.59-46.75 174.93-121.15 196.26-15.37 4.41-8.7 26.22 5.82 26.95z" fill="#fbdd11"/><path d="m1667.13 2966.26c-32.85-24.87-74.97-39.85-125.1-39.85-14.54 0-20.36 18.6-8 26.21 4.84 2.96 9.59 6.12 14.19 9.46-7.39-9.45.93-23.44 16.54-24.51 21.44-1.47 47.09-5.38 102.37 28.69z" fill="#000" fill-opacity=".15"/><path d="m1748.29 3152.54c-3.91 82.52-45.77 214.72-226.11 205.68-.1-.01-.19-.01-.28-.02-12.18-.84-18.69-16.55-10.99-23.93 172.68 10.06 265.06-176.19 199.78-321.93 26.82 39.56 40.02 89.03 37.6 140.2z" fill="#000" fill-opacity=".15"/><path d="m1601.4 3259.89c56.81.05 92.98-68.11 58.59-115.27 15.91-45.21-18.09-95.39-66.66-96.55-56-1.34-88.37 58.5-82.5 109.13 5.48 47.31 37.52 102.65 90.57 102.69z" fill="#f7c394" stroke="#333" stroke-miterlimit="10" stroke-width="5"/><path d="m1510.83 3157.2c6.78 58.57 54.37 126.8 125.37 93.8-68.83-8.8-117-125.5-83.11-191.84-5.39 3.84-13.89 8.34-27.6 27.61-12.29 21.73-17.7 46.2-14.66 70.43z" fill="#000" fill-opacity=".1"/></svg>