<svg xmlns="http://www.w3.org/2000/svg" xmlns:xlink="http://www.w3.org/1999/xlink" width="4000" height="4000" fill="none" xmlns:v="https://vecta.io/nano"><g fill="#fbdd11"><use xlink:href="#B" stroke="#333" stroke-width="10"/><use xlink:href="#B"/></g><path d="M2251.7 3152.54c3.9 82.52 45.76 214.72 226.1 205.68.1-.01.18-.01.28-.02 12.18-.84 18.7-16.55 11-23.93-172.68 10.06-265.06-176.2-199.8-321.93-26.82 39.56-40.02 89.03-37.6 140.2zm81.16-186.28c32.86-24.87 74.97-39.85 125.1-39.85 14.53 0 20.36 18.6 8 26.2a213.229 213.229 0 0 0-14.19 9.46c7.4-9.45-.93-23.44-16.54-24.5-21.45-1.47-47.1-5.38-102.38 28.7z" fill-opacity=".15" fill="#000"/><path d="M2398.6 3259.9c-56.82.05-93-68.1-58.6-115.27-15.92-45.2 18.08-95.4 66.66-96.55 56-1.34 88.36 58.5 82.5 109.13-5.48 47.3-37.53 102.65-90.57 102.7z" fill="#f7c394" stroke="#333" stroke-width="5" stroke-miterlimit="10"/><path d="M2489.17 3157.2c-6.78 58.57-54.37 126.8-125.37 93.8 68.82-8.8 117-125.5 83.1-191.84 5.4 3.84 13.9 8.34 27.6 27.6 12.3 21.73 17.7 46.2 14.66 70.43z" fill="#000" fill-opacity=".1"/><defs ><path id="B" d="M2477.82 3358.22c-180.35 9.04-222.2-123.16-226.1-205.68-5.57-117.52 71.3-226.13 206.26-226.13 14.53 0 20.36 18.6 8 26.2-62.5 38.26-103.48 108.98-103.48 182.4 0 71.6 46.75 174.93 121.15 196.26 15.36 4.4 8.7 26.22-5.82 26.95z"/></defs></svg>