<svg xmlns="http://www.w3.org/2000/svg" width="4000" height="4000" fill="none" xmlns:v="https://vecta.io/nano"><path d="M2464.66 2950.5C2401.43 2989.2 2360 3060.7 2360 3135c0 36.27 11.82 80.42 33 118.2 21.16 37.75 51.9 69.54 89.97 80.46 3.22.93 5.1 2.68 6.06 4.67 1 2.04 1.17 4.58.5 7.17-1.34 5.26-5.87 9.9-11.82 10.2-89.46 4.5-144.2-26.03-177.13-67.56-33.05-41.67-44.4-94.76-46.35-135.74-5.52-116.4 70.5-223.5 203.76-223.5 6.07 0 10.26 3.83 11.7 8.5 1.42 4.63.1 9.95-5 13.1zm0 0l1.3 2.13m-1.3-2.13l1.3 2.13m0 0c-62.5 38.26-103.48 108.98-103.48 182.4 0 71.6 46.75 174.93 121.15 196.26l-17.67-378.65z" fill="#fbdd11" stroke="#333" stroke-width="5"/><path d="M2251.7 3152.54c3.9 82.52 45.76 214.72 226.1 205.68.1-.01.18-.01.28-.02 12.18-.84 18.7-16.55 11-23.93-172.68 10.06-265.06-176.2-199.8-321.93-26.82 39.56-40.02 89.03-37.6 140.2zm81.16-186.28c32.86-24.86 74.97-39.85 125.1-39.85 14.53 0 20.36 18.6 8 26.2-4.85 2.97-9.6 6.12-14.2 9.46 7.4-9.45-.93-23.44-16.54-24.5-21.45-1.47-47.1-5.38-102.38 28.7z" fill-opacity=".15" fill="#000"/><path d="M2398.6 3259.9c-56.82.05-93-68.1-58.6-115.27-15.92-45.2 18.08-95.4 66.66-96.55 56-1.34 88.36 58.5 82.5 109.13-5.48 47.3-37.53 102.65-90.57 102.7z" fill="#f7c394" stroke="#333" stroke-width="5" stroke-miterlimit="10"/><path d="M2489.17 3157.2c-6.78 58.57-54.37 126.8-125.37 93.8 68.82-8.8 117-125.5 83.1-191.84 5.4 3.84 13.9 8.34 27.6 27.6 12.3 21.73 17.7 46.2 14.66 70.43z" fill="#000" fill-opacity=".1"/></svg>