<svg xmlns="http://www.w3.org/2000/svg" xmlns:xlink="http://www.w3.org/1999/xlink" width="4000" height="4000" fill="none" xmlns:v="https://vecta.io/nano"><path d="M1864.82 2863.3c-19.7 1.82-61.66 101.06 11.18 162 15.66 8.7 83.88-36.27 99.07-50.22 1.17 8.58 16.26-1.07 24.93-1.07s23.85 9.95 24.94 1.08c15.2 13.96 83.4 58.92 99.06 50.2 72.84-60.94 30.9-160.18 11.18-162-54.82-5.07-87.87 42.7-135.18 42.7s-80.37-47.78-135.18-42.7z" fill="#000" fill-opacity=".15"/><use xlink:href="#B" fill="#2a292e"/><path d="M2165.2 2916.38c-5.53 20.52-17.6 41.1-39.63 58.5-16.16 8.5-85.42-34.3-103.37-49.16l-.2 26.02c2.84 6.98 84.66 63.18 102 53.54 31.27-26.15 41.38-59.37 41.2-88.9z" fill="#000" fill-opacity=".85"/><use xlink:href="#B" stroke="#999" stroke-width="5" stroke-miterlimit="10"/><use xlink:href="#C" fill="#2a292e"/><path d="M1835.82 2901.14c3 25.34 14.6 52 41.18 73.75 15.9 8.65 84.95-35.8 100.82-49.92l.18 26.78c-2.84 6.98-84.66 63.18-102 53.54-36.8-30.77-44.3-71.32-40.18-104.15z" fill="#000" fill-opacity=".85"/><use xlink:href="#C" stroke="#999" stroke-width="5" stroke-miterlimit="10"/><use xlink:href="#D" fill="#2a292e"/><path d="M1975 2923.63V2954c.07 10.4 16 0 25 0s25 10.72 25 0v-30c0 10.72-16 0-25 0-5.5 0-24.96 10.4-25-.37z" fill="#000" fill-opacity=".85"/><use xlink:href="#D" stroke="#999" stroke-width="5" stroke-miterlimit="10"/><defs ><path id="B" d="M2135.18 2843.3c19.7 1.82 61.66 101.06-11.18 162-17.34 9.64-99.16-46.56-102-53.54.46-9.3 0-47.1 0-62.93 10.3-16.3 72.67-49.28 113.18-45.53z"/><path id="C" d="M1864.82 2843.3c-19.7 1.82-61.66 101.06 11.18 162 17.34 9.64 99.16-46.56 102-53.54-.46-9.3 0-47.1 0-62.93-10.3-16.3-72.67-49.28-113.18-45.53z"/><path id="D" d="M2000 2886c9 0 25-10 25 1 .2 5 0 62.4 0 67 0 10.72-16 0-25 0s-24.93 10.4-25 0v-67c0-11 16-1 25-1z"/></defs></svg>