<svg fill="none" height="4000" viewBox="0 0 4000 4000" width="4000" xmlns="http://www.w3.org/2000/svg"><path d="m1864.82 2863.29c-19.71 1.82-61.66 101.06 11.18 162 15.66 8.71 83.88-36.27 99.07-50.22 1.17 8.58 16.26-1.07 24.93-1.07s23.85 9.95 24.94 1.08c15.21 13.96 83.41 58.92 99.06 50.21 72.84-60.94 30.89-160.18 11.18-162-54.82-5.07-87.87 42.71-135.18 42.71s-80.37-47.78-135.18-42.71z" fill="#000" fill-opacity=".15"/><path d="m2135.18 2843.29c19.71 1.82 61.66 101.06-11.18 162-17.34 9.64-99.16-46.56-102-53.54.46-9.31 0-47.1 0-62.93 10.29-16.31 72.67-49.28 113.18-45.53z" fill="#2a292e"/><path d="m2165.19 2916.38c-5.53 20.52-17.61 41.09-39.63 58.51-16.16 8.5-85.42-34.29-103.37-49.16.04 11.43.02 21.74-.19 26.02 2.84 6.98 84.66 63.18 102 53.54 31.27-26.15 41.38-59.37 41.19-88.91z" fill="#000" fill-opacity=".85"/><path d="m2135.18 2843.29c19.71 1.82 61.66 101.06-11.18 162-17.34 9.64-99.16-46.56-102-53.54.46-9.31 0-47.1 0-62.93 10.29-16.31 72.67-49.28 113.18-45.53z" stroke="#999" stroke-miterlimit="10" stroke-width="5"/><path d="m1864.82 2843.29c-19.71 1.82-61.66 101.06 11.18 162 17.34 9.64 99.16-46.56 102-53.54-.46-9.31 0-47.1 0-62.93-10.29-16.31-72.67-49.28-113.18-45.53z" fill="#2a292e"/><path d="m1835.82 2901.14c3 25.34 14.59 51.99 41.18 73.75 15.89 8.65 84.95-35.8 100.82-49.92-.05 11.73-.04 22.41.18 26.78-2.84 6.98-84.66 63.18-102 53.54-36.79-30.77-44.3-71.32-40.18-104.15z" fill="#000" fill-opacity=".85"/><path d="m1864.82 2843.29c-19.71 1.82-61.66 101.06 11.18 162 17.34 9.64 99.16-46.56 102-53.54-.46-9.31 0-47.1 0-62.93-10.29-16.31-72.67-49.28-113.18-45.53z" stroke="#999" stroke-miterlimit="10" stroke-width="5"/><path d="m2000 2886c9 0 25-10 25 1 .21 5 0 62.39 0 67 0 10.72-16 0-25 0s-24.93 10.41-25 0c-.03-4.33.03-62.71 0-67 0-11 16-1 25-1z" fill="#2a292e"/><path d="m1975 2923.63c-.01 14.57-.01 28.35 0 30.37.07 10.41 16 0 25 0s25 10.72 25 0c0-10 0-20 0-30 0 10.72-16 0-25 0-5.5 0-24.96 10.41-25-.37z" fill="#000" fill-opacity=".85"/><path d="m2000 2886c9 0 25-10 25 1 .21 5 0 62.39 0 67 0 10.72-16 0-25 0s-24.93 10.41-25 0c-.03-4.33.03-62.71 0-67 0-11 16-1 25-1z" stroke="#999" stroke-miterlimit="10" stroke-width="5"/></svg>