<svg xmlns="http://www.w3.org/2000/svg" width="4000" height="4000" fill="none" xmlns:v="https://vecta.io/nano"><style><![CDATA[.B{fill:#2a292e}.C{stroke-width:5}.D{stroke-miterlimit:10}.E{fill-rule:evenodd}.F{fill-opacity:.85}]]></style><path d="M1864.82 2863.3c-19.7 1.82-61.66 101.06 11.18 162 15.66 8.7 83.88-36.27 99.07-50.22 1.17 8.58 16.26-1.07 24.93-1.07s23.85 9.95 24.94 1.08c15.2 13.96 83.4 58.92 99.06 50.2 72.84-60.94 30.9-160.18 11.18-162-54.82-5.07-87.87 42.7-135.18 42.7s-80.37-47.78-135.18-42.7z" fill="#000" fill-opacity=".15"/><path d="M2125.42 3007.36l-.2.12c-2.9 1.62-6.8 1.7-10.85 1.04-4.16-.67-8.97-2.17-14.13-4.22-10.34-4.1-22.4-10.5-33.95-17.4-11.55-6.9-22.65-14.3-31.06-20.46-4.2-3.07-7.75-5.85-10.36-8.1-1.3-1.12-2.4-2.13-3.24-3-.75-.78-1.56-1.72-1.94-2.64l-.2-.52.02-.55c.32-6.4.2-26.54.1-43.57l-.1-19.24v-.72l.4-.6c2.87-4.55 9.07-9.9 17.04-15.26 8.07-5.42 18.22-11.02 29.3-15.97 22.08-9.88 48.27-17.4 69.17-15.45l-10 166.55zm0 0l.18-.15m-.18.15l.18-.15m0 0c37.22-31.14 45.1-72.1 41.18-105.38m-41.18 105.38l41.18-105.38m0 0c-1.96-16.62-6.86-31.4-12.58-42.2m12.58 42.2l-12.58-42.2m0 0c-2.86-5.4-5.95-9.87-9.05-13.1m9.05 13.1l-9.05-13.1m0 0c-3.02-3.15-6.37-5.43-9.74-5.74l9.74 5.74z" stroke="#999" class="B C D"/><path d="M2165.2 2916.38c-5.53 20.52-17.6 41.1-39.63 58.5-16.16 8.5-85.42-34.3-103.37-49.16l-.2 26.02c2.84 6.98 84.66 63.18 102 53.54 31.27-26.15 41.38-59.37 41.2-88.9z" fill="#000" class="E F"/><path d="M1874.58 3007.36l.2.12c2.9 1.62 6.8 1.7 10.85 1.04 4.16-.67 8.97-2.17 14.13-4.22 10.34-4.1 22.4-10.5 33.95-17.4 11.55-6.9 22.65-14.3 31.06-20.46 4.2-3.07 7.75-5.85 10.36-8.1 1.3-1.12 2.4-2.13 3.24-3 .75-.78 1.56-1.72 1.94-2.64l.2-.52-.02-.55c-.32-6.4-.2-26.54-.1-43.57l.1-19.24v-.72l-.4-.6c-2.87-4.55-9.07-9.9-17.04-15.26-8.07-5.42-18.22-11.02-29.3-15.97-22.08-9.88-48.27-17.4-69.17-15.45l10 166.55zm0 0l-.18-.15m.18.15l-.18-.15m0 0c-37.22-31.14-45.1-72.1-41.18-105.38m41.18 105.38l-41.18-105.38m0 0c1.96-16.62 6.86-31.4 12.58-42.2m-12.58 42.2l12.58-42.2m0 0c2.86-5.4 5.95-9.87 9.05-13.1m-9.05 13.1l9.05-13.1m0 0c3.02-3.15 6.37-5.43 9.74-5.74l-9.74 5.74z" stroke="#999" class="B C D"/><path d="M1835.82 2901.14c3 25.34 14.6 52 41.18 73.75 15.9 8.65 84.95-35.8 100.82-49.92l.18 26.78c-2.84 6.98-84.66 63.18-102 53.54-36.8-30.77-44.3-71.32-40.18-104.15z" fill="#000" class="E F"/><path d="M1972.5 2887v67.02c.01 1.6.33 3.1 1.13 4.33.83 1.28 2.03 2.05 3.33 2.44 2.37.7 5.27.18 7.8-.46l5.33-1.57 2.9-.9c2.76-.8 5.13-1.36 7-1.36 1.84 0 4.22.56 6.98 1.4l2.9.92 5.35 1.62c2.55.66 5.46 1.2 7.85.47 1.32-.4 2.5-1.2 3.33-2.5.78-1.26 1.08-2.77 1.08-4.4l.02-7.57-.02-59.48c-.01-1.64-.3-3.15-1.05-4.4-.77-1.33-1.92-2.2-3.22-2.68-2.4-.9-5.32-.5-7.9.07l-5.85 1.57-2.45.7c-2.77.77-5.17 1.3-7.04 1.3s-4.27-.53-7.04-1.3l-2.46-.7-5.84-1.57c-2.57-.56-5.5-.96-7.9-.07-1.3.48-2.45 1.35-3.22 2.68-.75 1.28-1.05 2.8-1.05 4.46z" stroke="#999" class="B C D"/><path d="M1975 2886.78v.58-.58zm0 36.85V2954c.05 6.85 6.96 4.68 14.25 2.4 3.78-1.18 7.67-2.4 10.75-2.4s6.97 1.25 10.77 2.47c7.3 2.35 14.23 4.58 14.23-2.47l.02-7.74.05-52.73-.05 22.73-.02 7.74c0 7.05-6.93 4.82-14.23 2.47-3.8-1.22-7.7-2.47-10.77-2.47s-6.97 1.22-10.75 2.4c-7.3 2.28-14.2 4.45-14.25-2.4v-.37z" fill="#000" class="E F"/></svg>