<svg fill="none" height="4000" viewBox="0 0 4000 4000" width="4000" xmlns="http://www.w3.org/2000/svg"><path d="m2198.64 3323.38-397.57 3.32c-28.04-21.87-47.25-41.99-68.58-72.07l-.13-232.66c-.13-14.46 8.62-27.36 21.5-33.51l-9.86-133.46c10.15 2.62 20.34 5.05 30.56 7.4l8.91 122.79 8.69-.08-.29-35.12 82.88-.71.3 35.07 352.54-3.07 8.91-119.15c10.42-2.45 20.81-5.03 31.16-7.77l-10.53 133.5c9.5 6.68 15.32 17.79 15.42 29.4l2.68 220c-21.72 35.75-42.86 59.34-76.59 86.12z" fill="#000" fill-opacity=".15"/><g stroke="#333" stroke-width="5"><g stroke-miterlimit="10"><path d="m1800.61 3046.8-28 2.34-16.61-189.14c9.59 2.31 19.21 4.53 28.8 6.61z" fill="#e6e6e6"/><path d="m1882.07 2957.26-78.2.68.29 33.14 78.2-.68z" fill="#4f4f4f"/><path d="m2254.26 2860.58-14.72 171.92-28-2.29 13.33-162.7c9.83-2.16 19.62-4.48 29.39-6.93z" fill="#e6e6e6"/></g><rect fill="#919191" height="320" rx="30" width="509" x="1749" y="2990"/><path d="m1749 3077h509v32h-509z" fill="#eaeaea"/><path d="m2060.74 3278.94c71.13 0 128.8-57.67 128.8-128.8s-57.67-128.8-128.8-128.8-128.8 57.67-128.8 128.8 57.67 128.8 128.8 128.8z" fill="#4f4f4f" stroke-miterlimit="10"/><path d="m2060.74 3244.42c52.07 0 94.28-42.21 94.28-94.28s-42.21-94.28-94.28-94.28-94.28 42.21-94.28 94.28 42.21 94.28 94.28 94.28z" fill="#cffffe" stroke-miterlimit="10"/><path d="m2060.74 3194.29c24.38 0 44.15-19.77 44.15-44.15s-19.77-44.15-44.15-44.15-44.15 19.77-44.15 44.15 19.77 44.15 44.15 44.15z" fill="#ebfffe" stroke-miterlimit="10"/></g></svg>