<svg xmlns="http://www.w3.org/2000/svg" width="4000" height="4000" fill="none" xmlns:v="https://vecta.io/nano"><path d="M2198.64 3323.38l-397.57 3.32c-28.04-21.87-47.25-42-68.58-72.07l-.13-232.66c-.13-14.46 8.62-27.36 21.5-33.5L1744 2855l30.56 7.4 8.9 122.8 8.7-.08-.3-35.12 82.88-.7.3 35.07 352.54-3.07 8.9-119.15 31.16-7.77-10.53 133.5c9.5 6.68 15.32 17.8 15.42 29.4l2.68 220c-21.72 35.75-42.86 59.34-76.6 86.12z" fill="#000" fill-opacity=".15"/><g stroke="#333" stroke-width="5"><g stroke-miterlimit="10"><path d="M1800.6 3046.8l-28 2.34L1756 2860l28.8 6.6 15.8 180.2z" fill="#e6e6e6"/><path d="M1882.07 2957.26l-78.2.68.3 33.14 78.2-.68-.3-33.14z" fill="#4f4f4f"/><path d="M2254.26 2860.58l-14.72 171.92-28-2.3 13.33-162.7c9.83-2.16 19.62-4.48 29.4-6.93z" fill="#e6e6e6"/></g><rect x="1749" y="2990" width="509" height="320" rx="30" fill="#919191"/><path fill="#eaeaea" d="M1749 3077h509v32h-509z"/><g stroke-miterlimit="10"><path d="M2060.74 3278.94c71.13 0 128.8-57.67 128.8-128.8s-57.67-128.8-128.8-128.8-128.8 57.67-128.8 128.8 57.67 128.8 128.8 128.8z" fill="#4f4f4f"/><path d="M2060.74 3244.42c52.07 0 94.28-42.2 94.28-94.28s-42.2-94.28-94.28-94.28-94.28 42.2-94.28 94.28 42.2 94.28 94.28 94.28z" fill="#cffffe"/><path d="M2060.74 3194.3c24.38 0 44.15-19.77 44.15-44.15s-19.77-44.15-44.15-44.15-44.15 19.77-44.15 44.15 19.77 44.15 44.15 44.15z" fill="#ebfffe"/></g></g></svg>