<svg fill="none" height="4000" viewBox="0 0 4000 4000" width="4000" xmlns="http://www.w3.org/2000/svg"><path d="m2512.6 3163.24c-268.42-65.84-530.81-160.81-790.42-254.18-48.67-17.5-195.98-83.16-221.08 40.89s150.03 125.62 189.67 131.18c55.37 7.77 716.85 75.78 816.43 117.52 18.8-14.65 5.4-35.41 5.4-35.41z" fill="#cb831f" stroke="#333" stroke-miterlimit="10" stroke-width="5"/><path d="m2544.89 3190.66c4.56-20.98-.33-39.85-10.93-42.16-10.6-2.3-22.89 12.84-27.45 33.82-4.56 20.97.34 39.85 10.94 42.15s22.88-12.83 27.44-33.81z" fill="#cb831f" stroke="#333" stroke-miterlimit="10" stroke-width="5"/><path d="m2516 3224.5c-7.68-2.31-11.56-12.67-11.56-27-218.95-58.67-655.94-92-893.94-127.5-62.57-9.33-132-45-106.88-134.22 2.47 85.87 152.17 111.52 190.91 116.35 49.75 6.2 657.47 73.87 809.91 133.76-1 14.09 32.56 33.78 41.65-13.93 2.91 18.04-10.09 58.54-30.09 52.54z" fill="#000" fill-opacity=".3"/><path d="m1601.4 3259.89c56.81.05 92.98-68.11 58.59-115.27 15.91-45.21-18.09-95.39-66.66-96.55-56-1.34-88.37 58.5-82.5 109.13 5.48 47.31 37.52 102.65 90.57 102.69z" fill="#f7c394" stroke="#333" stroke-miterlimit="10" stroke-width="5"/><path d="m1510.83 3157.2c6.78 58.57 54.37 126.8 125.37 93.8-68.83-8.8-117-125.5-83.11-191.84-5.39 3.84-13.89 8.34-27.6 27.61-12.29 21.73-17.7 46.2-14.66 70.43z" fill="#000" fill-opacity=".1"/><path d="m2398.6 3259.89c-56.82.05-92.99-68.11-58.59-115.27-15.92-45.21 18.08-95.39 66.66-96.55 56-1.34 88.36 58.5 82.5 109.13-5.48 47.31-37.53 102.65-90.57 102.69z" fill="#f7c394" stroke="#333" stroke-miterlimit="10" stroke-width="5"/><path d="m2489.17 3157.2c-6.78 58.57-54.37 126.8-125.37 93.8 68.82-8.8 117-125.5 83.11-191.84 5.39 3.84 13.89 8.34 27.6 27.61 12.29 21.73 17.7 46.2 14.66 70.43z" fill="#000" fill-opacity=".1"/></svg>