<svg xmlns="http://www.w3.org/2000/svg" width="4000" height="4000" fill="none" xmlns:v="https://vecta.io/nano"><style><![CDATA[.B{fill-rule:evenodd}.C{fill:#252a28}.D{fill:#161719}.E{fill:#a5a5a5}.F{fill:#292c31}.G{fill:#191c1b}.H{stroke-miterlimit:10}]]></style><path d="M2110.07 2735.42l148.74 17.13c5.26.67 9.18 5.7 8.5 11l-17.2 144.32c-1.86 14.36-17.68 17.64-29.8 16.28-30.24-2.17-112.1-10.92-175.9-18.02l1.5 1.4 299.47 33.36c1.64 6.6 2.3 10.18 4.14 18.1.72 3.1 1 7 5 7.5 3.97.5 4.8-.52 5.5-6l2.12-17.74 10.4 1.15c1.97 6.6 2.97 14.6 4.47 20.1s9 8 10 1l2.46-19.2 10.25 1.15c2.3 8.05 2.45 13.46 4.8 22.05 1.5 5.5 9.28 6.5 10 0l2.3-20.16 10.08 1.12c.6 1.84 4.03 18.66 5.1 23.54 1 4.5 8.5 4.74 9 1.5 1.5-9.5 2.54-18 3.12-23.1l9.95 1.1c1.93 5.5 3.13 15.37 4.8 22.5 1.04 4.42 2.6 5.22 5.12 5.5 4.5.5 4.98-4.8 5.5-9l1.97-17.06 10.57 1.18c1.96 8.88 3.68 16.22 4.96 23.88 1 6 9.56 5.23 9.9 1.66l2.7-23.58 9.6 1.08c1.3 5.34 3.83 16 5.3 23.34 1.5 7.5 9.14 6.08 9.5 2.5l2.94-23.8c5.06.3 9.72 1.24 11.56 6.3 1.36-2.26 3.8-3.15 6.58-2.78l68.93 9.15c5.5.73 9.78 8.5 10.88 13.35 6.28 1.1 38.28 21.38 62.18 45.6 21.14 1.2 59.1 4 83.47 3.7 5.55-20.67 12.96-34.26 19.35-33.44l239.62 31c5.4.7 10.1 4.4 12.1 9.48 14.73 38.34 11.13 86.4-15.18 119.07-3.25 4.05-8.5 6.16-13.66 5.48l-240.13-31c14.58 1.87 49.77 6.37-.06-.07-4.3-.56-7.4-7.58-9-18.67l-19.98-2.58c-2.2-.33-2.03-3.7-2.1-5.44-10.37-1.1-38.67-5.68-48.18-8.53-.57 3.18-.5 6.53-1.84 9.53-2.73 6.17-2.8 14.17-2.8 19.52-1.18 14.15-4.03 36.15-9.18 50.65-.9 2.5-5 6.5-13.05 5.96-.01 6.15-.25 12.24-.77 18.23-56.1-5.3-112-13.1-167.86-20.33l-17.8 24.85c-63-11.98-123.8-19.08-187.24-26.88l-19.3-2.37-1.06-4.1-21.56-2.6 1.02 4-26.72-3.3-1-3.9-21.62-2.6 1 3.88-25.37-3.1-1-3.84-21.63-2.6.98 3.8-26.72-3.27-.97-3.74-21.6-2.6.95 3.7-96.8-11.8h-.04l-6.72-.82-.93-3.56-21.6-2.6.92 3.55-26.7-3.22-.93-3.56-21.57-2.6.92 3.57-58.83-6.68c-7.27 15.38-36 21.94-55.17 26.32-13.7 3.13-29.14 4.84-40.9-4.94-9.77-8.13-50.54-12-50.54-12-27.5 18.05-28.08 19.04-29.56 50.4-2.7 9.3-14.88 6.37-22.2 11.75-6.7 4.8-45.86 50.77-47.36 56.25-4.1 11.37-4.72 21.64.63 32.8 3.62 20.95-10.94 21.5-27.57 22.03-3.6-.46-96.84-49.78-100.07-53.04-2.83-3.5-1.22-18.3.8-25 8.2-6.33 11.2-7.76 12.48-10.13 2.64-4.92 1.63-12.87 2.37-18.3 2.12-7.2 40.62-58.37 83.44-73.88 18.15-6.32 34.7-40.18 30.8-63.96-4.68-18.2-15.94-36.15-30.72-47.7-5.05-1.6-9.35-.82-11.82-3.05-4.8-4.32-5.48-12.75-10.76-21.3-.68-1.1-8.02-4.5-16.28-7.92-9.37 1.05-18.98-1.63-26.43-7.43-18.36 7.58-138.57 61.23-145.33 66.45-7.24 5.6-109.03 101.35-111.03 101.9l-33-3.5c-1.44 2.87-13.24 12.25-15.18 13.3-1.6.86-18.97-2.5-27.6-5.56-3.7 5.46-9.94 9.04-17.02 9.03-15.67-.02-25.43-17.77-17.57-30.95-4.08-4.46-8.18-10.05-11.36-14.4-6.03-8.22-11.78-7.4-21.4-10.4-5.02-1.57-7.57-6.44-6.98-11.66l30.22-268.2c.84-7.5 7.46-12.97 14.97-12.2l74.86 8.45c12.5-45.84 27.06-134.52 355.87-80.66-2.3-10.1.76-23.82 17.4-29 21.38-6.65 30.52 7.03 33.6 15.54 3.8 10.6 1.4 17.9-5 24l8.57 1.26c1.05-4.55 2.4-8.96 4.05-13.08 1.4-3.58 5.2-5.8 9-5.3l27.1 3.5c4.27-14.6 11.13-27.97 20.7-38.44 6.9-7.55 17.3-11.35 27.46-10.03l290.28 33.4c.15-.75.44-1.32.86-1.68 3.4-2.84 61.9 4.84 67 7.48.54.28 1.4 1.08 2.55 2.3zm-106.8 152.77l-40.2-4.8c1.96 1.37 3.6 2.47 4.55 2.78 2.82.93 28.67 3.1 35.65 2.03zm-73.1-8.74l-197.25-23.57c-10.17-1.3-19.27-7.62-24.04-16.7-5.7-10.92-9.58-23.7-11.55-37.18l-30.83-4c-5.83-.72-8.86-7.7-9-13l-38.5-5.5c0 1-2.2 2.7-4.82 2.44-56.4-5.78-307.65-57.8-322.3 50.04 4.74 4.2 9.6 17.44 11.96 18.6l56.67 7.1c-2.03-.73-7-1.7-7-3.2 54.5-28.5 209.5 4.5 329.73 14.6l3.42-4.82 3.18.37 268.92 30.52c-4.03-2.9-12.18-9.58-14.28-10.4-2.57-1-10.6-.68-12.35-1.02-1.32-.26-2.02-2.6-1.96-4.3zm827.04 215.8l-10.77-1.4c-1.87-.2-2.47 1.98-2.96 3.35-9.32-1.42-26.15-4.75-35.3-6.84 1.8-1.36 3.38-2.9 4.47-4.65 14.84 3.25 29.82 5.85 44.56 9.53zm-989.47 37.57c-21.64-17.32-9.43-50.67 15.53-57.34 2.33-.33 14 .7 26.97 2.04-3.64 18-9.9 43.16-12.32 52.68-.58 2.27.76 4.66 3 5.34 4.5 1.33 17.06 2.3 18.53-4.58l11.6-51.2 18.37 2.13c21.98 4.1 20.6 39.85 7.44 52.1-10.72 10.93-26.96 14.64-41.6 15.78-19.65 2.2-31.1-2.23-47.5-16.95zm-554.2-16.3l26.68-137.4c.44-1.86 2.6-2.84 4.28-2l115.9 61.27c2.8 1.48 3.32 5.4 1.1 7.58l-83.34 81.87-64.64-11.3zm247.83-121.9c-71.36-15.12-119.36-20.12-187.98-31.16-5.27-.7-7.06 6.42-2.8 8.58l107.23 58.16c24.2-11.2 55.7-24.2 83.55-35.58z" fill="#ff6a6a" stroke="#333" stroke-width="10" class="B"/><path d="M1616.9 2776.8l58.7 7.8 3.3-24.95-58.7-7.8-3.32 24.96z" fill="#695624"/><path d="M1618.4 2765.46l-1.76 13.64 42.45 5.5 1.76-13.64-42.45-5.5z" fill="#5b4920"/><path d="M1250.56 2826.38c8.84.97 31.4 4.5 41.25 6.06 14-108.44 265.9-56.28 322.37-50.5 10.55 1.07 12.47-33.08 5.5-34.28-342.3-58.53-356.44 32.37-369.12 78.72z" class="D"/><path d="M1291.8 2832.44c14.02-108.44 265.9-56.27 322.37-50.5 4.8.5 7.83-6.34 9.02-14-.97.8-2.2 1.17-3.46 1.06-59.27-5.94-324.17-59.55-339.73 61.15 3.43.9 7.35 1.78 11.8 2.28z" fill="#09090a"/><path d="M1834.35 3065.2l-14.9 65.76c-1.47 6.87-14.02 5.9-18.53 4.58-2.24-.68-3.58-3.07-3-5.34 3.37-13.32 14.3-57.27 15.03-69.4.83-14.32 21.4 4.4 21.4 4.4z" fill="#c1c1c1"/><path d="M1800.05 3135.2c4.76 2.93 17.92 2.32 19.4-4.25l14.9-65.75c-10.03-9.13-25.16-15.07-9.75-1.26l-14.9 65.75c-.82 3.8-6.4 5.2-9.64 5.5z" class="E"/><path d="M2447.92 3198.03l-531.04-64.06-19.7-98.02 537.1 65.1 13.66 97z" class="D"/><path d="M1130.58 3098.05c-.6 5.22 1.96 10.1 6.98 11.66 9.62 3.02 15.37 2.2 21.4 10.4 3.86 5.28 9.08 12.4 13.95 17.08-4.1 25.1 17.15 26.03 28.27 18.42 3.8.85 30.54 6.7 32.48 5.66s12.58-9.7 14.02-12.57c9.3 1.2 23.83 2.46 33 3.5 2-.56 103.8-96.32 111.03-101.9s144.58-66.72 147.63-67.34c3.05-.6 38.86 13.72 40.4 16.24 1.56 2.53 8.54 20.2 10.25 21.26 1.72 1.07 6.83 1.36 12.33 3.1 14.78 11.54 26.04 29.48 30.72 47.7 3.9 23.78-12.65 57.64-30.8 63.96-42.82 15.5-81.32 66.7-83.44 73.88-1.65 12.08-1 15.73-2.37 18.3-1.27 2.37-4.28 3.8-12.48 10.13-2 6.7-3.6 21.5-.8 25 3.23 3.26 96.48 52.58 100.07 53.04 16.63-.54 31.2-1.08 27.57-22.03-5.35-11.17-4.73-21.44-.63-32.8 1.5-5.48 40.67-51.45 47.35-56.25 7.34-5.38 19.5-2.46 22.22-11.75 1.48-31.37 2.05-32.36 29.56-50.4 0 0 40.77 3.86 50.54 12 11.77 9.78 27.2 8.07 40.9 4.94 19.18-4.38 47.9-10.94 55.17-26.32.42-.2 22.93 2.4 58.83 6.68l-18.13-69.92c-3.57-13.77 15.38-21.48 19-7.4l20.7 79.92 26.7 3.22-18.6-71.8c-3.26-12.6 16.33-17.67 19.6-5.08l20.6 79.5 103.57 12.62-19.95-76.97c-3.26-12.63 16.36-17.7 19.62-5.07l21.94 84.7 26.72 3.27-19.83-76.64c-3.3-12.4 16.57-17.93 19.6-5.08l21.88 84.38 25.37 3.1-19.75-76.32c-3.2-12.4 16.6-17.93 19.6-5.07l21.77 84.03 26.72 3.3-19.68-76.03c-3.26-12.6 16.34-17.67 19.6-5.07l21.68 83.8 183.1 22.57 3.5 4.1 19.92 2.58 17.8-24.84 167.86 20.32c5.17-59.3-16.96-127.4-25.87-185.06l-1335.98-170.05c-2.76-1.35-8.92-19.16-14.32-19.85l-113.74-13.07c-7.5-.77-14.13 4.7-14.97 12.2l-30.22 268.2zm652.68-22.58c-24.96 6.67-37.17 40.02-15.53 57.34 16.4 14.72 27.86 19.14 47.5 16.95 14.65-1.14 30.9-4.85 41.6-15.78 13.15-12.24 14.54-48-7.44-52.1-9.15-1.1-60.95-7.15-66.15-6.42zm-543.05-96.36l-26.68 137.4c12.8 2.45 45.45 7.76 64.64 11.3l83.34-81.87c2.2-2.18 1.68-6.1-1.1-7.58l-115.9-61.27c-1.68-.84-3.84.14-4.28 2zm221.15 15.5c-11.36 4.38-67.36 27.88-83.55 35.58l-107.23-58.16c-4.26-2.16-2.47-9.28 2.8-8.58l133.26 18.2c21.7 5.6 38.4 9 54.72 12.97z" class="B F"/><path d="M2785.5 3138.75l227.27 29.34c5.15.68 10.4-1.43 13.66-5.48 7.24-9 18.96-27.4 22.64-55.85 2.83-21.37.27-43.1-7.46-63.22-2-5.08-6.7-8.77-12.1-9.48l-226.7-29.33s15.87 5.9 7.7 69.1c-8.18 63.2-25.02 64.93-25.02 64.93z" fill="#262827"/><g fill="#b8a98a"><path d="M2798 3072.2c4.78-36.98 1.15-67.94-8.12-69.14-9.26-1.2-20.64 27.82-25.42 64.8s-1.15 67.94 8.1 69.14c9.27 1.2 20.65-27.82 25.43-64.8z"/><path d="M2673.9 3032.28c14.8-.1 94.3 7.23 114.7 2.87 2.65 17.62-4.28 60.05-10.28 67.4-15.8-9.78-82.17-17.28-84.96-23.24s-19.45-47.03-19.45-47.03z"/></g><path d="M2683.6 3056.16l9.7 23.14c2.84 6 69.2 13.47 85.02 23.25 2.57-3.15 5.32-12.76 7.4-24.1-23.06-8.46-83.55-16.54-102.13-22.28z" fill="#a89a80"/><path d="M2749.3 3097.88c-6-.08-43.87-7.7-47.24-9.12-3.36-1.42-11.6 9-11.9 11.5-.33 2.5 47.36 10.13 54.35 10.32s4.8-12.7 4.8-12.7z" class="C"/><path d="M2690.16 3100.26c-.33 2.48 47.37 10.12 54.35 10.3 4.54.13 5.2-5.3 5.13-9.1-.7 1.9-2 3.3-4.37 3.25-6.12-.16-43.42-6.07-52.4-9.18-1.5 2.02-2.6 3.83-2.7 4.7z" class="G"/><path d="M2541.14 2994.32l68.93 9.16c3.74.5 7.18-2.14 7.67-5.88l2.14-16.06c.5-3.74-2.14-7.17-5.87-7.67l-68.93-9.15c-3.74-.5-7.18 2.13-7.67 5.87l-2.14 16.06c-.5 3.74 2.13 7.18 5.87 7.67z" class="E"/><path d="M2536.64 2971.4l-2.03 20.1c-2.3 17.82 81.17 22.25 82.65 10.7l2.03-20.1c-.47 3.65-3.97 6.38-7.66 5.9l-69.06-8.92c-3.7-.47-6.4-4-5.93-7.66z" fill="#939393"/><path d="M2558.65 2997.05l6.95.9c1.3.17 2.48-.74 2.64-2.04l2.83-21.88c.17-1.3-.74-2.47-2.04-2.64l-6.95-.9c-1.3-.16-2.47.75-2.64 2.04l-2.83 21.88c-.17 1.3.75 2.48 2.04 2.64z" class="F"/><path d="M2174.96 3020.15c2 1.63 17.97 25.78 20.9 26.15l362.68 43.53c3.54 1.45 29.93 87.56 35.1 88.22l71.8 9.3c10.55 1.16 12.85-3.23 14.16-5.47 1.4-2.37 9.34-43.05 9.07-51.05.02-5.5-2.24-12.86 1.75-17.65 3.16-4.3 1.8-10.38 3.97-15 .9-1.9 19.15-6.7 19.73-16.97l-539.17-61.05z" fill="#d8d8d8"/><path d="M2633.22 3123.5l55.5 7.35c.03-7.9.23-12.44 2.8-19.65l-56.24-5.82c-11.47-1.05-13.75 16.63-2.07 18.12z" fill="#c4c4c4"/><path d="M1354.34 2855.5c38.98 13.76 68.5 26.2 92.18 62.4 2.48 4.67 9.12 8.88 12.4 9.3 61.5 7.97 86.9 11.08 136.13 24.34 5.68 1.53 577.86 66.97 579.84 68.6l539.2 61.12c2.1-37.83-78.82-92.23-89.2-94.05-1.25-5.43-1.16-6.53-7.47-6.57-.86-.1-.8 15.27-2.74 15.56-14.65-.67-63.6-2.16-75.18-11.37 1.54-22.93-5.1-22.57-12.56-23.65l-2.75 24c-.36 3.58-4.5 5.35-6.82 5.05-6.46-.73-7-29.3-8.17-31.07l-9.6-1.08-2.7 23.58c-.34 3.57-4.85 4.25-7.18 3.95-4.48-.5-6.5-27.7-7.68-29.5l-10.57-1.18-2.64 23.1c-.36 3.57-4.18 5.3-6.5 5-4.97-.56-7.1-28.2-8.26-30.02l-9.95-1.1-2.58 22.6c-.34 3.58-4.97 3.65-7.3 3.34-4.97-.56-6.2-26.04-7.35-27.88l-10.08-1.12-2.54 22.14c-.36 3.57-4.98 3.6-7.3 3.3-6.24-2.72-6.08-25.47-7.26-27.32l-10.25-1.15-2.48 21.65c-.35 3.58-4.76 2.38-7.08 2.07-4.9-1.87-6.2-23.74-7.37-25.6l-10.4-1.15-2.42 21.16c-.35 3.58-4.95 3.5-7.28 3.2-5.3-2.1-5.9-24.35-7.06-26.22l-299.47-33.36-3.82-3.56-355.42-39.7-3.42 4.82c-15.15 2.25-297.3-46.32-328.9-13.6z" fill="#e9e9e9"/><path d="M2666.7 3052.28c5.75.01 10.42-4.65 10.43-10.4.01-5.76-4.65-10.43-10.4-10.44-5.76-.01-10.43 4.65-10.44 10.4 0 5.75 4.65 10.42 10.4 10.43zm-28.98-5.72c5.75.01 10.42-4.65 10.43-10.4s-4.65-10.42-10.4-10.43c-5.76-.01-10.43 4.65-10.44 10.4-.01 5.76 4.65 10.43 10.4 10.44zm10.88 23.2c5.76.01 10.43-4.65 10.44-10.4.01-5.76-4.65-10.43-10.4-10.44-5.75 0-10.42 4.65-10.43 10.4s4.65 10.43 10.4 10.43z" fill="#d6d6d6"/><path d="M2594.18 3091.04c4.7 0 8.5-3.8 8.5-8.48.01-4.7-3.8-8.5-8.47-8.5-4.7-.01-8.5 3.78-8.5 8.47 0 4.7 3.8 8.5 8.48 8.5zm-352.62-42.64c4.7.01 8.5-3.8 8.5-8.48 0-4.7-3.8-8.5-8.48-8.5s-8.5 3.8-8.5 8.48c-.01 4.7 3.78 8.5 8.47 8.5z" class="C"/><path d="M2284.02 3049.35l275.74 31.33 10.32-15.74-297.95-33.77 11.9 18.18z" class="E"/><path d="M1684.17 2962.26l490.8 57.88-21.12-28.74-450.34-51.67-19.33 22.53z" fill="#bfbfbf"/><path d="M2785.5 3138.7l227.28 29.38c5.15.67 10.4-1.44 13.67-5.48 6.67-8.27 17.16-24.6 21.63-49.4l-238.75-30.87c-8.52 54.9-23.83 56.36-23.83 56.36z" fill="#181919"/><path d="M2457.5 3205l2.55 2.6 19.92 2.58 17.8-24.85 59.2 7.67 107.23 13.86c1.2.15 2.27-.8 2.26-2l-.1-11.83-173.56-22.36-16.67 23.24-19.9-2.58-3.5-4.1-184.03-22.7 4.82 16.42 184 24.04zm-205.65-26.74l-26.72-3.3-4.8-16.4 27.3 3.36 4.22 16.34zm-48.3-5.96l-25.37-3.1-4.8-16.4 25.94 3.15 4.22 16.35zm-47-5.74l-26.73-3.27-4.8-16.42 27.3 3.33 4.23 16.36zm-48.34-5.92l-103.57-12.62-4.8-16.45 104.15 12.67v.06l4.23 16.34zm-125.13-15.24l-26.7-3.22-4.82-16.45 27.3 3.28v.06l4.22 16.33z" fill="#191b1e"/><path d="M2743.6 3115.77l30.14 3.9c.72.1 1.47-.24 1.9-.83 4-5.74 4.97-13.25 2.56-19.82-.26-.68-.9-1.2-1.62-1.28l-30.14-3.9c-.8-.1-1.63.35-2 1.07-2.6 5.32-3.65 13.5-2.5 19.3.17.8.85 1.44 1.66 1.56z" class="C"/><path d="M2741.87 3114.2c.17.82.86 1.46 1.7 1.56l30.14 3.9c.72.1 1.47-.24 1.9-.83 2.74-3.93 4.2-8.8 3.85-13.6-.66 2.04-1.6 3.98-2.84 5.75-.42.6-1.17.92-1.9.83l-30.14-3.9c-.84-.1-1.53-.75-1.7-1.57-.3-1.94-.37-3.9-.2-5.87-1.27 4.55-1.55 7.06-.82 13.72z" class="G"/><path d="M2772.63 3137.1l12.86 1.65s16.86-1.65 25.03-64.85c8.16-63.2-7.7-69.1-7.7-69.1l-12.86-1.67c9.27 1.2 12.9 32.16 8.12 69.15-4.78 37-16.17 66-25.44 64.8z" fill="#9b8e78"/><path d="M1361.12 2857.95l-6.78-2.45c-6.84-2.7 31.46-14.68 80.7-11.87 49.25 2.8 248.2 25.6 248.2 25.6l3.42-4.82 355.5 39.62 3.82 3.56 299.47 33.36 4.78 22.8c.64 3.1 8.07 4.27 9.37.97l-.8 7.05c-.43 3.82-8.82 3.4-9.56-.22l-4.8-22.8-299.47-33.37-3.82-3.56-355.46-39.66-3.4 4.8-248.2-25.58c-32.14-1.86-59.64 2.47-72.95 6.58zm1147.18 109l-5.2-.54-4.3-.47.9-7.86 9.6 1.08 5.43 25.8c.68 3.3 8 4.42 9.36.97l-.8 7.05c-.45 3.97-8.77 3.56-9.57-.22l-5.4-25.8zm17.82 2.05l3.7.4c2.67.34 11.05 3.08 8.72 23.22-.5 4 32 8.23 38.4 9.06s34.83 2.6 36.8 2.3c1.1-.15 2.2-9.38 1.85-9.32-10.35 1.7-65.8-1.77-75.3-11.4 2.07-18.38-6.8-21.28-9.46-21.63l-3.83-.43-.9 7.8zm95.26 19.9c1.36.18 2.58 6.12 2.58 6.12 9.67 1.7 80.56 49 88.5 86.06l1.7.2c2.1-37.83-78.82-92.24-89.2-94.05 0 0-1.2-5.94-2.57-6.12-1.62-.22-3.27-.25-4.9-.45-.48-.08-.88 6.7-.97 7.8 1.62.2 3.25.24 4.86.44zm-150.73-26.1l10.45 1.18 5.3 25.3c.8 3.85 9.08 4.56 9.56.22l.8-7c-1.26 3.23-8.64 2.56-9.37-.96l-5.3-25.32-10.57-1.18-.9 7.75zm-17.52-1.95l-9.82-1.1.88-7.76 9.95 1.1 5.2 24.8c.67 3.3 8 4.4 9.35.97l-.8 7c-.42 3.98-8.77 3.56-9.56-.22l-5.2-24.8zm-37.13-4.15l10 1.12 5.1 24.32c.75 3.62 9.14 4.04 9.56.22l.8-7.05c-1.35 3.45-8.68 2.34-9.37-.97L2427 2950l-10.08-1.12-.93 7.8zm-17.22-1.9l-10.14-1.13.9-7.76 10.25 1.15 4.97 23.8c.63 3.1 8.07 4.27 9.36.97l-.82 7c-.46 4.16-8.87 3.1-9.55-.22l-4.97-23.8zm-37.48-4.18l10.3 1.13 4.9 23.32c.74 3.63 9.15 4.05 9.56.22l.84-7.5c-1.3 3.28-8.62 2.06-9.26-1.05l-5-22.74-10.4-1.15-.9 7.76z" fill="#bfbfbf"/><g fill="#191b1e"><path d="M1203.65 3114.9c2.92.83 5.9 1.17 9.88 1.62l26.66-137.4c.44-1.86 2.6-2.84 4.28-2l-9.25-5.15c-1.7-.85-3.9.2-4.27 2.1l-27.3 140.83zm-58.08-19.14l32.06-277.9c-10.32-1.17-15.84 3.2-16.83 12l-30.22 268.2c-.6 5.22 1.96 10.08 6.98 11.66 9.57 3 15.38 2.26 21.4 10.47 16.82 22.95 30.3 37.38 74.04 42.3 1.94-1.04 13.24-10.85 14.68-13.73 2.28.3 31.04 4.04 33 3.5 1-.28 28.26-25.6 55.56-50.95l55.47-50.96c7.24-5.58 144.58-66.72 147.63-67.34 3.05-.63 38.86 13.72 40.4 16.24 1.56 2.53 8.53 20.18 10.25 21.26s6.83 1.36 12.33 3.1c15.98 12.93 29.38 33.17 31.45 54.04 18.26-39.4-34.83-66.5-52-93.95-1.57-2.5-37.4-16.86-40.42-16.24-3.03.6-140.38 61.73-147.63 67.34-3.47 2.7-28.7 26.12-54.23 49.84l-56.8 52.07c-1.98.52-30.73-3.2-33-3.5-1.4 2.87-12.02 11.54-14.02 12.58-35.62.9-57.66-17.95-74.65-41.1-5.04-6.88-7.55-6.52-15.46-8.93zm556.95 71.17c-1.24-20.3 9.6-27.47 25.1-37.73 3.1-2.06 3.65-2.35 7.32-2 7.27.68 23.77 2.23 33.87 6.6 16.58 14 27 18.14 46.4 15.97 21.72-1.7 46.46-10.3 51.03-34.16.4-.13 32 3.82 64.26 7.66l4.23 16.33-58.83-6.7c-8.57 18.15-47.05 24.03-64.43 28.52-9.57 1.56-23.53-.38-31.65-7.14-9.77-8.12-50.53-11.98-50.53-11.98-8.6 6.27-24.84 15.14-26.77 24.63zm-73.72 98.42v.1h.02c-.01-.04-.01-.07-.02-.1z"/><path d="M1628.8 3265.35c.54-9.47 40.1-53.5 48.7-60.9 4.62-2.26 8.5-3.37 11.72-4.3 8.45-2.42 12.1-3.47 11.4-20.45-5.9 8.14-21.05 9.22-28.95 17.37-17.86 18.4-46.23 47.67-42.85 68.26zm-25.6 50.2c-3.6-.47-96.84-49.78-100.07-53.04h.02c-2.78-3.25-1.1-17.6.5-24.2-.07 3.95.27 7.38 1.48 8.62 3.23 3.24 96.5 52.57 100.08 53.03 6.95-.1 22.55-.9 25.55-6.44 3.65 20.87-10.98 21.55-27.57 22.03zm-334-344.5c-.05.03-23.1-16.5-23.1-16.5l.02-.04c-4.2-2.4-2.03-9.06 2.77-8.55L1485 2983c-8.5 3.5-15.5 7.5-23.43 11.48-65.57-13.5-122.1-21-188.24-30.95-4.06-.53-6.76 4.36-4.14 7.5z"/></g><path d="M1187.9 3165.47c11.3.02 20.5-9.14 20.5-20.45s-9.14-20.5-20.45-20.5c-11.3-.01-20.5 9.14-20.5 20.45s9.14 20.5 20.45 20.5z" fill="#000"/><path d="M1189.14 3142.7l-.72 5.6 13.9 7.2c1.7-2.3 2.8-5 3.22-7.84.43-2.83.17-5.73-.75-8.44l-15.64 3.48zm-17.97 8.34l15.02-3.36.72-5.62-13.64-7.03c-3.08 4.6-4.06 10.54-2.1 16z" fill="#414744"/><path d="M1187.9 3150.9c3.26.01 5.9-2.63 5.9-5.9.01-3.26-2.63-5.9-5.9-5.9-3.26 0-5.9 2.64-5.9 5.9 0 3.26 2.63 5.9 5.9 5.9z" fill="#121413"/><path d="M1559.3 2991.5c20.08.03 36.4-16.23 36.42-36.3.03-20.1-16.23-36.4-36.32-36.43-20.08-.03-36.4 16.23-36.42 36.32s16.23 36.4 36.32 36.42z" fill="#000"/><path d="M1561.53 2951.06l-1.3 10 24.66 12.75c6.04-8.27 7.7-19.22 4.4-28.9l-27.76 6.16zm-31.9 14.82l26.66-5.97 1.3-10-24.16-12.43c-5.45 8.13-7.28 18.66-3.8 28.4z" fill="#414744"/><path d="M1559.34 2965.6c5.8.01 10.48-4.67 10.5-10.45s-4.67-10.48-10.46-10.5c-5.78 0-10.47 4.68-10.48 10.46s4.67 10.48 10.45 10.48z" fill="#121413"/><path d="M1659.1 2790.57c.46 3.84 3.56 6.95 7.4 7.43l31.17 4.05c5.7-18.27 18.56-43 4.55-59.55l-28.1-3.63c-3.8-.5-7.6 1.73-9 5.3-5.6 14.03-7.82 31.4-6.03 46.4z" fill="#695624"/><path d="M1656.52 2730.7c-3.06-8.52-11.23-20.9-32.6-14.24-18.37 5.7-20.2 21.82-16.54 31.98 6.15 17.08 23.74 21.33 39.4 10.84 9.18-6.15 14.33-15.88 9.76-28.58z" class="F"/><path d="M1636.27 2750.86c10.78-3.88 17.13-13.66 14.18-21.84s-14.07-11.66-24.85-7.78c-10.77 3.88-17.12 13.66-14.18 21.84 2.95 8.17 14.07 11.66 24.85 7.78z" class="D"/><path d="M1608.45 2750.94c7.68 30.05 66.4 9 46.86-22.9 4.36 11.57-2.22 19.93-10.92 25.44-11.4 7.24-29.93 6.7-35.94-2.54z" fill="#202226"/><path d="M1666.5 2798l34.75 4.66c-.83-6.6-.43-13.5-.24-20.16l-32-3.98c-9.6-1.2-8.13-14.26-7.67-21.14-2.02 10.27-9.43 38.8 5.17 40.62z" fill="#5b4920"/><path d="M1732.9 2855.88l506.17 60.5c5.3.7 10.32-3.18 11-8.5l17.2-144.32c.7-5.3-3.23-10.34-8.5-11l-509.42-58.64c-10.15-1.32-20.55 2.48-27.46 10.03-30.53 33.4-33.45 96.2-13.06 135.24 4.77 9.08 13.87 15.4 24.04 16.7z" class="C"/><path d="M1732.9 2855.88c-10.17-1.3-19.27-7.62-24.04-16.7-15.43-29.54-16.9-66.87-7.14-98.5.33 23.8 7.57 64.58 37.16 68.43l506.16 60.47c4.22.54 8.42-1.78 10.2-5.64l-5.24 43.92c-.67 5.26-5.7 9.2-11 8.5l-506.1-60.48z" class="G"/><path d="M1932.12 2883.74c1.76.34 9.78.01 12.35 1.02 2.57 1 14.23 10.83 16.25 11.65 1.8.72 207.43 24 259.58 27.75 15 1.7 28.1-2.98 29.62-16.4-5.05-.93-28.63.9-34.1-1.18s-52.62-95.94-67.83-119.1c-11.97-18.23-36.25-52.17-40.47-54.36-5.1-2.64-63.6-10.32-67-7.48-8.1 6.83 35.65 86.1 30.66 109.44-3.77 17.72-61.07 51.9-67.73 53.07s-33-1.05-35.85-2-12.12-9.07-17.06-9.97c-4.93-.9-19.28.62-20.07 1.9-.8 1.26-.12 5.32 1.64 5.66zm168.26-126.9l-26.42-2.46c-1.72-.15-3.3-1.13-4.2-2.6l-8.24-13.4c-1.34-2.18.53-5.02 3-4.75l24.85 2.78a11.149 11.149 0 0 1 7.04 3.6l8 8.78c2.9 3.2.15 8.43-4 8.05zm26.05 45.2l-34.72-2.2c-2-.12-3.84-1.35-4.72-3.16l-9.04-18.58c-2.57-5.3 1.62-11.6 7.5-11.3l27.7 1.46c4.48.25 8.65 2.74 11 6.57l9.4 15.37c3.23 5.27-.95 12.23-7.12 11.86zm-79.04 85.17c43.54-27.83 45.67-55.8 44.94-61.04-.82-5.78 3.18-11 9-10.68l33.35 2.14c8.08.6 15.27 5.96 18.13 13.54 10.67 27.68 33.1 58.13 41.42 68.9 1.15 1.5-.06 3.82-2 3.66-19.58-1.5-90.9-7.2-144.3-13.92-1.3-.18-1.62-1.95-.55-2.6z" fill="#000"/><g fill="#221f23"><path d="M2136.65 2957.4l13.92 1.57-.5 4.47-4.47-.5-1.73 15.4-4.97-.56 1.73-15.4-4.47-.5.5-4.47zm19.98 10.3l.9-7.95-4.97-.56-2.24 19.88 4.97.56.9-7.95 7.95.9-.9 7.95 4.97.56 2.24-19.87-4.97-.56-.9 7.95-7.95-.9zm418.63 66.24l-2.9-4.8-5.96-.67 5.9 10.2-1 8.97 4.97.56 1.04-9.2 7.83-8.43-5.97-.67-3.9 4.04zm-90.9-5.16l-2.5 8.77-4.97-.56 5-17.55 4.97.56 2.82 10.67 5.13-9.77 4.96.56.97 18.22-4.97-.56-.48-9.1-4.5 8.55-3.97-.45-2.47-9.33z"/><path d="M2533.55 3025.26l4.94 18.67-4.97-.56-.82-3.1-7.62-.86-1.5 2.85-4.97-.56 8.97-17.1 5.96.67zm-3.56 4.78l-2.92 5.56 4.53.5-1.6-6.07z" class="B"/><path d="M2547.43 3044.94l1.15-10.16 7.8 11.17 4.97.56 2-17.9-4.97-.56-1.2 10.74-7.73-11.74-4.97-.56-2 17.88 4.96.56zm-369.78-67.34l.33-2.98 6.22.7.5-4.47-6.2-.7.4-3.48 6.2.7.5-4.47-11.18-1.26-2.24 19.87 10.93 1.23.5-4.47-5.96-.67z"/><path d="M2520.5 3029.33c.6-5.42-4.8-6.58-8.77-7.03l-4.96-.56-2.08 18.4 4.97.56.68-5.97c6.37.65 9.6-.42 10.16-5.4zm-4.96-.56c.18-1.66-.97-2.63-3.95-2.96l-.56 4.97c2.98.33 4.24.3 4.5-2zm-53.18 7.6c5.76.65 10.94-3.27 11.55-8.76.62-5.5-3.55-10.46-9.3-11.1s-10.94 3.27-11.55 8.76c-.62 5.5 3.55 10.46 9.3 11.1zm.56-4.97c3.02.34 5.72-1.6 6.03-4.35.3-2.74-1.9-5.24-4.9-5.58s-5.72 1.6-6.03 4.35c-.3 2.74 1.9 5.24 4.9 5.58z" class="B"/><path d="M2448.2 3014.64c1.22.14 2.37.45 3.42.9l-.58 5.18c-.88-1.17-2.22-2-3.78-2.16-3.02-.34-5.74 1.83-6.08 4.85s1.83 5.74 4.85 6.08c1.56.18 3.05-.32 4.16-1.27l-.47 4.2c-.1 1-3.48 1.62-4.7 1.48-4.48-.5-9.5-5.07-8.88-10.56.62-5.48 6.02-9.38 12.05-8.7zm-130.03-33.78l9.93 1.12-4.25 37.77-9.94-1.12 4.26-37.77zm28.83 3.24l15.15 26.3 2.73-24.27 9.94 1.12-4.26 37.76-9.93-1.12-15.15-26.3-2.74 24.27-9.94-1.12 4.26-37.76 9.94 1.12z"/><path d="M2291.34 2977.84l-9.94-1.12-4.25 37.76 9.93 1.12 1.55-13.76 8.4 14.88 9.94 1.12-9.53-16.9c4.6-.62 8.75-3.03 9.57-10.26 1.12-9.94-7.7-11.94-15.66-12.84zm-1.5 7.38l-1.06 9.44c.07.01.17.02.28.04 1.7.22 7.65 1.02 8.2-3.86.55-4.86-4.93-5.38-7.02-5.58-.15-.01-.28-.03-.4-.04z" class="B"/><path d="M2246.23 3012c11.52 1.3 21.87-6.54 23.1-17.52 1.23-10.97-7.1-20.93-18.63-22.22-11.53-1.3-21.87 6.54-23.1 17.52-1.24 10.97 7.1 20.93 18.63 22.22z"/><path d="M2205.88 2968.2l-9.94-1.12-4.25 37.76 9.93 1.12c9.44 1.07 18.5 1.08 19.62-8.86.78-6.95-4.46-9.56-6.4-10.28.1-.08.2-.15.3-.23l.38-.28c1.62-1.2 3.7-2.72 4.25-7.5.95-8.44-7.94-9.95-13.9-10.62zm-1.04 7.43c3.18.36 6.16.7 5.7 4.67-.4 3.58-3.22 3.2-5.74 2.9-.16-.03-.33-.05-.5-.07-.1-.01-.2-.02-.32-.04l.84-7.45zm-1.62 14.4l-.84 7.45 1.3.2c2.93.46 7.3 1.15 7.74-2.7.46-4.08-4.1-4.54-7.3-4.86h-.04l-.84-.1z" class="B"/><path d="M2422.15 3009.2c-.57 14.02-11.16 20.88-21.84 19.68-10.98-1.24-18.93-10.65-17.7-21.62 1.24-10.98 11.14-18.87 22.1-17.64 7.6.86 13.7 5.85 16.35 12.48l-9.3 2.4c-1.3-3.76-4.3-6.03-8-6.44-5.5-.62-10 3.78-10.73 10.36-.74 6.6 2.7 11.63 8.18 12.25 4 .45 8.3-1.33 8.75-5.3l-8.05-.9.84-7.46 19.38 2.2z"/></g><path d="M1601.4 3259.9c56.82.05 93-68.1 58.6-115.27 15.9-45.2-18.1-95.4-66.66-96.55-56-1.33-88.37 58.5-82.5 109.13 5.48 47.32 37.52 102.65 90.57 102.7z" fill="#f7c394" stroke="#333" stroke-width="5" class="H"/><path d="M1510.83 3157.2c6.78 58.56 54.37 126.8 125.37 93.8-68.82-8.8-117-125.5-83.1-191.84-5.4 3.83-13.9 8.33-27.6 27.6-12.3 21.72-17.7 46.2-14.66 70.43z" fill="#000" fill-opacity=".1"/><path d="M2307.34 3278.07c-28.72-49.03 11.87-114.65 69.94-108.75 31-36.56 91.48-32.53 117 8.82 29.4 47.67-5.9 105.8-52.58 126.3-43.6 19.14-107.55 19.4-134.36-26.37z" fill="#f7c394" stroke="#333" stroke-width="5" class="H"/><path d="M2441.7 3304.44c-53.98 23.7-136.9 17.05-144.25-60.9 42.33 54.96 167.4 37.66 207.56-25.07-.6 6.6-.2 16.2-9.9 37.76-12.55 21.57-30.95 38.6-53.4 48.2z" fill="#000" fill-opacity=".1"/></svg>