<svg fill="none" height="4000" viewBox="0 0 4000 4000" width="4000" xmlns="http://www.w3.org/2000/svg"><path clip-rule="evenodd" d="m2110.07 2735.42 148.74 17.13c5.26.67 9.18 5.71 8.49 11.01l-17.21 144.32c-1.86 14.36-17.68 17.64-29.79 16.28-30.24-2.17-112.11-10.92-175.9-18.02l1.49 1.39s162.59 18.1 299.47 33.36c1.64 6.61 2.31 10.18 4.14 18.11.72 3.11 1 7 5 7.5 3.97.5 4.79-.52 5.5-6 .91-7.01 1.65-13.68 2.12-17.74 3.47.37 6.94.76 10.41 1.15 1.97 6.59 2.97 14.59 4.47 20.09s9 8 10 1c1.14-7.98 1.56-11.3 2.46-19.2l10.25 1.15c2.29 8.05 2.45 13.46 4.79 22.05 1.5 5.5 9.28 6.5 10 0 1-9 1.69-14.79 2.31-20.16l10.08 1.12c.61 1.84 4.03 18.66 5.11 23.54 1 4.5 8.49 4.74 9 1.5 1.5-9.5 2.54-18 3.12-23.1l9.95 1.1c1.93 5.5 3.13 15.37 4.81 22.5 1.04 4.42 2.61 5.22 5.12 5.5 4.5.5 4.98-4.81 5.5-9s1.97-17.06 1.97-17.06l10.57 1.18c1.96 8.88 3.68 16.22 4.96 23.88 1 6 9.56 5.23 9.9 1.66l2.7-23.58c3.45.38 6.67.74 9.6 1.08 1.3 5.34 3.83 15.99 5.3 23.34 1.5 7.5 9.14 6.08 9.5 2.5l2.94-23.81c5.06.31 9.72 1.24 11.56 6.31 1.36-2.26 3.79-3.15 6.58-2.78l68.93 9.15c5.49.73 9.78 8.5 10.88 13.35 6.28 1.1 38.28 21.38 62.18 45.6 21.14 1.21 59.1 4 83.47 3.69 5.55-20.67 12.96-34.26 19.35-33.44 79.86 10.37 159.75 20.66 239.62 30.99 5.4.71 10.11 4.4 12.1 9.48 14.73 38.34 11.13 86.41-15.18 119.07-3.25 4.05-8.51 6.16-13.66 5.48-80.09-10.34-160.5-20.73-240.13-31 14.58 1.87 49.77 6.37-.06-.07-4.31-.56-7.41-7.58-9-18.67l-19.98-2.58c-2.21-.33-2.03-3.7-2.1-5.44-10.37-1.11-38.67-5.68-48.18-8.53-.57 3.18-.51 6.53-1.84 9.53-2.73 6.17-2.8 14.17-2.8 19.52-1.18 14.15-4.03 36.15-9.18 50.65-.89 2.5-5 6.5-13.05 5.96-.01 6.15-.25 12.24-.77 18.23-56.09-5.29-111.99-13.1-167.86-20.33l-17.79 24.85c-63-11.98-123.8-19.08-187.24-26.88l-19.29-2.37-1.06-4.1-21.56-2.6c.42 1.66.77 3.01 1.02 3.99l-26.72-3.3-1.01-3.91-21.62-2.61 1 3.88-25.37-3.1-1-3.84-21.63-2.61.98 3.79-26.72-3.27-.97-3.74-21.59-2.61c.39 1.53.71 2.77.95 3.69-32.17-3.97-64.34-7.87-96.51-11.76l-.3-.04h-.04l-6.72-.82-.93-3.56-21.59-2.6c.37 1.44.69 2.64.92 3.55l-26.7-3.22-.93-3.56-21.57-2.6c.37 1.45.68 2.66.92 3.57-35.9-4.28-58.41-6.87-58.83-6.68-7.27 15.38-35.99 21.94-55.17 26.32-13.71 3.13-29.14 4.84-40.91-4.94-9.77-8.13-50.54-11.99-50.54-11.99-27.51 18.05-28.08 19.04-29.56 50.41-2.71 9.29-14.88 6.37-22.21 11.75-6.69 4.8-45.86 50.77-47.36 56.25-4.1 11.37-4.72 21.64.63 32.81 3.62 20.95-10.94 21.49-27.57 22.03-3.59-.46-96.84-49.78-100.07-53.04-2.83-3.49-1.22-18.3.79-25 8.2-6.33 11.21-7.76 12.48-10.13 2.64-4.92 1.63-12.87 2.37-18.29 2.12-7.19 40.62-58.37 83.44-73.88 18.15-6.32 34.69-40.18 30.8-63.96-4.68-18.21-15.94-36.15-30.72-47.69-5.05-1.6-9.35-.82-11.82-3.05-4.8-4.32-5.48-12.75-10.76-21.31-.68-1.11-8.02-4.51-16.28-7.92-9.37 1.05-18.98-1.63-26.43-7.43-18.36 7.58-138.57 61.23-145.33 66.45-7.24 5.59-109.03 101.35-111.03 101.91-10.99-1.24-22.02-2.07-32.99-3.49-1.44 2.87-13.24 12.25-15.18 13.29-1.61.86-18.97-2.5-27.59-5.56-3.69 5.46-9.94 9.04-17.02 9.03-15.67-.02-25.43-17.77-17.57-30.95-4.08-4.46-8.18-10.05-11.36-14.4-6.03-8.22-11.78-7.39-21.4-10.41-5.02-1.57-7.57-6.44-6.98-11.66l30.22-268.19c.84-7.51 7.46-12.97 14.97-12.2 19.34 1.99 49.85 5.51 74.86 8.45 12.51-45.84 27.06-134.52 355.87-80.66-2.3-10.09.76-23.82 17.41-28.99 21.38-6.65 30.52 7.03 33.59 15.54 3.81 10.59 1.41 17.89-5 24l8.57 1.26c1.05-4.55 2.4-8.96 4.05-13.08 1.41-3.58 5.19-5.8 9-5.31l27.11 3.51c4.27-14.61 11.13-27.97 20.7-38.44 6.91-7.55 17.31-11.35 27.46-10.03l290.28 33.41c.15-.75.44-1.32.86-1.68 3.4-2.84 61.9 4.84 66.99 7.48.54.28 1.41 1.08 2.55 2.3zm-106.81 152.77-40.2-4.81c1.96 1.37 3.61 2.47 4.55 2.78 2.82.93 28.67 3.11 35.65 2.03zm-73.1-8.74-197.25-23.57c-10.17-1.3-19.27-7.62-24.04-16.7-5.71-10.92-9.58-23.7-11.55-37.18l-30.83-4c-5.83-.72-8.86-7.69-8.99-13l-38.5-5.5c0 1-2.19 2.71-4.82 2.44-56.39-5.78-307.65-57.79-322.31 50.04 4.74 4.21 9.6 17.44 11.96 18.6 17.77 2.23 36.7 4.6 56.67 7.11-2.03-.73-7-1.69-7-3.19 54.5-28.5 209.5 4.5 329.73 14.59l3.42-4.82 3.18.37c89.62 10.4 179.23 20.79 268.92 30.52-4.03-2.89-12.18-9.58-14.28-10.4-2.57-1.01-10.59-.68-12.35-1.02-1.32-.26-2.02-2.6-1.96-4.29zm827.04 215.79-10.77-1.39c-1.87-.21-2.47 1.98-2.96 3.35-9.32-1.42-26.15-4.75-35.3-6.84 1.79-1.36 3.38-2.9 4.47-4.65 14.84 3.25 29.82 5.85 44.56 9.53zm-989.47 37.57c-21.64-17.32-9.43-50.67 15.53-57.34 2.33-.33 13.99.7 26.97 2.04-3.64 18.01-9.91 43.16-12.32 52.68-.58 2.27.76 4.66 3 5.34 4.51 1.33 17.06 2.29 18.53-4.58l11.6-51.19c8.48.95 15.51 1.78 18.37 2.13 21.98 4.1 20.59 39.85 7.44 52.09-10.72 10.93-26.96 14.64-41.61 15.78-19.65 2.19-31.11-2.23-47.51-16.95zm-554.2-16.29 26.68-137.41c.44-1.86 2.6-2.84 4.28-2l115.91 61.27c2.79 1.48 3.32 5.4 1.11 7.58l-83.34 81.87c-21.51-3.98-43.16-7.2-64.64-11.31zm247.83-121.9c-71.36-15.12-119.36-20.12-187.98-31.16-5.27-.7-7.06 6.42-2.8 8.58l107.23 58.16c24.19-11.2 55.69-24.2 83.55-35.58z" fill="#ff6a6a" fill-rule="evenodd" stroke="#333" stroke-width="10"/><path d="m1616.9 2776.79 58.7 7.79 3.31-24.95-58.69-7.8z" fill="#695624"/><path d="m1618.4 2765.46-1.76 13.64 42.45 5.49 1.76-13.64z" fill="#5b4920"/><path d="m1250.56 2826.38c8.84.97 31.39 4.5 41.25 6.06 14.01-108.44 265.9-56.28 322.37-50.5 10.55 1.07 12.47-33.08 5.5-34.28-342.29-58.53-356.44 32.37-369.12 78.72z" fill="#161719"/><path d="m1291.81 2832.44c14.02-108.44 265.89-56.27 322.37-50.5 4.81.49 7.83-6.34 9.02-13.99-.97.79-2.21 1.17-3.46 1.06-59.27-5.94-324.17-59.55-339.73 61.15 3.43.89 7.35 1.78 11.8 2.28z" fill="#09090a"/><path d="m1834.35 3065.19-14.91 65.76c-1.47 6.87-14.02 5.91-18.53 4.58-2.24-.68-3.58-3.07-3-5.34 3.37-13.32 14.3-57.27 15.03-69.39.83-14.32 21.41 4.39 21.41 4.39z" fill="#c1c1c1"/><path d="m1800.05 3135.2c4.76 2.93 17.92 2.32 19.39-4.25l14.9-65.75c-10.03-9.13-25.16-15.07-9.75-1.26l-14.9 65.75c-.82 3.79-6.41 5.2-9.64 5.51z" fill="#a5a5a5"/><path d="m2447.92 3198.03-531.04-64.06-19.71-98.02 537.09 65.09z" fill="#161719"/><path clip-rule="evenodd" d="m1130.58 3098.05c-.59 5.22 1.96 10.09 6.98 11.66 9.62 3.02 15.37 2.19 21.4 10.41 3.86 5.28 9.08 12.39 13.95 17.08-4.09 25.1 17.15 26.03 28.27 18.42 3.79.85 30.54 6.7 32.48 5.66s12.58-9.7 14.02-12.57c9.29 1.2 23.83 2.46 32.99 3.49 2-.56 103.79-96.32 111.03-101.91s144.58-66.72 147.63-67.34c3.05-.61 38.86 13.72 40.41 16.24 1.56 2.53 8.54 20.19 10.25 21.26 1.72 1.07 6.83 1.36 12.33 3.1 14.78 11.54 26.04 29.48 30.72 47.69 3.89 23.78-12.65 57.64-30.8 63.96-42.82 15.51-81.32 66.69-83.44 73.88-1.65 12.08-.99 15.73-2.37 18.29-1.27 2.37-4.28 3.8-12.48 10.13-2.01 6.7-3.61 21.51-.79 25 3.23 3.26 96.48 52.58 100.07 53.04 16.63-.54 31.19-1.08 27.57-22.03-5.35-11.17-4.73-21.44-.63-32.81 1.5-5.48 40.67-51.45 47.35-56.25 7.34-5.38 19.51-2.46 22.22-11.75 1.48-31.37 2.05-32.36 29.56-50.41 0 0 40.77 3.86 50.54 11.99 11.77 9.78 27.2 8.07 40.91 4.94 19.18-4.38 47.9-10.94 55.17-26.32.42-.19 22.93 2.4 58.83 6.68-2.59-10.01-14.28-55.07-18.13-69.92-3.57-13.77 15.38-21.48 19.01-7.41l20.7 79.92 26.7 3.22c-2.74-10.62-15.58-60.16-18.59-71.8-3.26-12.6 16.33-17.67 19.59-5.08l20.6 79.49c34.52 4.18 69.05 8.36 103.57 12.62-2.71-10.48-16.91-65.3-19.95-76.97-3.26-12.63 16.36-17.7 19.62-5.07l21.94 84.7 26.72 3.27-19.83-76.64c-3.31-12.39 16.57-17.93 19.6-5.08l21.88 84.38 25.37 3.1-19.75-76.32c-3.21-12.4 16.59-17.93 19.61-5.07l21.77 84.03 26.72 3.3c-2.7-10.52-16.65-64.34-19.68-76.03-3.26-12.6 16.34-17.67 19.6-5.07l21.68 83.81c74.91 9.21 142.83 17.55 183.1 22.57l3.51 4.1 19.92 2.58 17.79-24.84c57.42 7.42 111.98 15.05 167.86 20.32 5.17-59.29-16.96-127.41-25.87-185.06-323.73-42.67-1016.96-130.06-1335.98-170.05-2.76-1.35-8.92-19.16-14.32-19.85-15.21-1.83-80.74-9.68-113.74-13.07-7.51-.77-14.13 4.69-14.97 12.2zm652.68-22.58c-24.96 6.67-37.17 40.02-15.53 57.34 16.4 14.72 27.86 19.14 47.51 16.95 14.65-1.14 30.89-4.85 41.61-15.78 13.15-12.24 14.54-47.99-7.44-52.09-9.15-1.11-60.95-7.15-66.15-6.42zm-543.05-96.36-26.68 137.41c12.81 2.45 45.45 7.76 64.64 11.31l83.34-81.87c2.21-2.18 1.68-6.1-1.11-7.58l-115.91-61.27c-1.68-.84-3.84.14-4.28 2zm221.15 15.51c-11.36 4.38-67.36 27.88-83.55 35.58l-107.23-58.16c-4.26-2.16-2.47-9.28 2.8-8.58l133.26 18.19c21.71 5.61 38.4 9 54.72 12.97z" fill="#292c31" fill-rule="evenodd"/><path d="m2785.5 3138.75 227.27 29.34c5.15.68 10.41-1.43 13.66-5.48 7.24-8.99 18.96-27.4 22.64-55.85 2.83-21.37.27-43.1-7.46-63.22-1.99-5.08-6.7-8.77-12.1-9.48l-226.69-29.33s15.87 5.9 7.7 69.09c-8.18 63.19-25.02 64.93-25.02 64.93z" fill="#262827"/><path d="m2798.01 3072.21c4.78-36.98 1.15-67.94-8.12-69.14-9.26-1.19-20.64 27.82-25.42 64.81s-1.15 67.94 8.11 69.14c9.27 1.2 20.65-27.82 25.43-64.81z" fill="#b8a98a"/><path d="m2673.9 3032.28c14.81-.09 94.3 7.23 114.69 2.87 2.65 17.62-4.28 60.05-10.28 67.4-15.8-9.78-82.17-17.28-84.96-23.24s-19.45-47.03-19.45-47.03z" fill="#b8a98a"/><path d="m2683.59 3056.16c4.2 10.2 8.4 20.4 9.71 23.14 2.84 6 69.21 13.47 85.02 23.25 2.57-3.15 5.32-12.76 7.4-24.11-23.06-8.46-83.55-16.54-102.13-22.28z" fill="#a89a80"/><path d="m2749.31 3097.88c-6-.08-43.87-7.69-47.24-9.12-3.36-1.42-11.59 8.99-11.91 11.5-.33 2.51 47.36 10.13 54.35 10.32s4.8-12.7 4.8-12.7z" fill="#252a28"/><path d="m2690.16 3100.26c-.33 2.48 47.37 10.12 54.35 10.31 4.54.13 5.21-5.29 5.13-9.09-.71 1.91-2.01 3.31-4.37 3.25-6.12-.16-43.42-6.07-52.41-9.18-1.5 2.02-2.59 3.83-2.7 4.71z" fill="#191c1b"/><path d="m2541.14 2994.32 68.93 9.16c3.74.49 7.18-2.14 7.67-5.88l2.14-16.06c.49-3.74-2.14-7.17-5.87-7.67l-68.93-9.15c-3.74-.5-7.18 2.13-7.67 5.87l-2.14 16.06c-.49 3.74 2.13 7.18 5.87 7.67z" fill="#a5a5a5"/><path d="m2536.64 2971.41-2.03 20.1c-2.29 17.82 81.17 22.25 82.65 10.69l2.03-20.11c-.47 3.65-3.97 6.38-7.66 5.9l-69.06-8.92c-3.7-.47-6.4-4-5.93-7.66z" fill="#939393"/><path d="m2558.65 2997.05 6.95.9c1.29.17 2.48-.74 2.64-2.04l2.83-21.88c.17-1.29-.74-2.47-2.04-2.64l-6.95-.9c-1.29-.16-2.47.75-2.64 2.04l-2.83 21.88c-.17 1.29.75 2.48 2.04 2.64z" fill="#292c31"/><path d="m2174.96 3020.15c2 1.63 17.97 25.78 20.9 26.15 2.93.38 359.14 42.09 362.68 43.53 3.54 1.45 29.93 87.56 35.11 88.22l71.8 9.29c10.55 1.16 12.85-3.23 14.16-5.47 1.39-2.37 9.34-43.05 9.07-51.05.02-5.5-2.24-12.86 1.75-17.65 3.16-4.31 1.81-10.38 3.97-15 .91-1.9 19.15-6.71 19.73-16.97z" fill="#d8d8d8"/><path d="m2633.22 3123.5 55.5 7.35c.03-7.9.23-12.44 2.81-19.65l-56.24-5.82c-11.47-1.05-13.75 16.63-2.07 18.12z" fill="#c4c4c4"/><path d="m1354.34 2855.5c38.98 13.76 68.49 26.19 92.18 62.41 2.48 4.67 9.12 8.88 12.4 9.31 61.51 7.97 86.89 11.08 136.13 24.34 5.68 1.53 577.86 66.97 579.84 68.59l539.21 61.12c2.11-37.83-78.82-92.23-89.21-94.05-1.25-5.43-1.16-6.53-7.47-6.57-.86-.11-.8 15.27-2.74 15.56-14.65-.67-63.6-2.16-75.18-11.37 1.54-22.93-5.1-22.57-12.56-23.65l-2.75 23.99c-.36 3.58-4.49 5.35-6.82 5.05-6.46-.73-6.99-29.29-8.17-31.07-2.93-.34-6.15-.7-9.6-1.08l-2.7 23.58c-.34 3.57-4.85 4.25-7.18 3.95-4.48-.51-6.51-27.69-7.68-29.49l-10.57-1.18-2.64 23.09c-.36 3.57-4.18 5.3-6.5 4.99-4.97-.56-7.09-28.2-8.26-30.02l-9.95-1.1-2.58 22.6c-.34 3.58-4.97 3.65-7.3 3.34-4.97-.56-6.19-26.04-7.35-27.88l-10.08-1.12-2.54 22.14c-.36 3.57-4.98 3.59-7.3 3.29-6.24-2.72-6.08-25.47-7.26-27.32l-10.25-1.15-2.48 21.65c-.35 3.58-4.76 2.38-7.08 2.07-4.89-1.87-6.2-23.74-7.37-25.61-3.43-.38-6.91-.78-10.41-1.15l-2.42 21.16c-.35 3.58-4.95 3.5-7.28 3.19-5.29-2.1-5.9-24.35-7.06-26.22-136.88-15.26-299.47-33.36-299.47-33.36l-3.82-3.56c-118.59-12.21-236.99-25.96-355.42-39.7l-3.42 4.82c-15.15 2.25-297.3-46.32-328.89-13.59z" fill="#e9e9e9"/><path d="m2666.7 3052.28c5.75.01 10.42-4.65 10.43-10.4.01-5.76-4.65-10.43-10.4-10.44-5.76-.01-10.43 4.65-10.44 10.41 0 5.75 4.65 10.42 10.41 10.43z" fill="#d6d6d6"/><path d="m2637.72 3046.56c5.75.01 10.42-4.65 10.43-10.41.01-5.75-4.65-10.42-10.4-10.43-5.76-.01-10.43 4.65-10.44 10.4-.01 5.76 4.65 10.43 10.41 10.44z" fill="#d6d6d6"/><path d="m2648.59 3069.75c5.76.01 10.43-4.65 10.44-10.4.01-5.76-4.65-10.43-10.41-10.44-5.75 0-10.42 4.65-10.43 10.41-.01 5.75 4.65 10.43 10.4 10.43z" fill="#d6d6d6"/><path d="m2594.18 3091.04c4.69 0 8.5-3.79 8.5-8.48.01-4.69-3.79-8.5-8.47-8.5-4.69-.01-8.5 3.78-8.51 8.47 0 4.69 3.79 8.5 8.48 8.51z" fill="#252a28"/><path d="m2241.56 3048.41c4.69.01 8.5-3.79 8.51-8.48 0-4.69-3.79-8.49-8.48-8.5s-8.5 3.79-8.5 8.48c-.01 4.69 3.78 8.49 8.47 8.5z" fill="#252a28"/><path d="m2284.02 3049.35 275.74 31.33 10.32-15.74-297.95-33.77z" fill="#a5a5a5"/><path d="m1684.17 2962.26 490.79 57.88-21.12-28.74-450.34-51.67z" fill="#bfbfbf"/><path d="m2785.49 3138.71 227.28 29.38c5.15.67 10.41-1.44 13.67-5.48 6.67-8.27 17.16-24.6 21.63-49.39l-238.75-30.87c-8.52 54.89-23.83 56.36-23.83 56.36z" fill="#181919"/><path d="m2457.5 3205 2.55 2.59 19.92 2.58 17.79-24.85c19.67 2.55 39.39 5.1 59.21 7.67 35.39 4.58 71.07 9.2 107.23 13.86 1.2.15 2.27-.79 2.26-2l-.1-11.83-173.56-22.36-16.67 23.24-19.91-2.58-3.51-4.09c-61.17-7.62-122.7-15.16-184.03-22.69l4.82 16.42c61 7.5 113.5 14.54 184 24.04z" fill="#191b1e"/><path d="m2251.85 3178.26-26.72-3.3-4.8-16.4c8.87 1.09 18.63 2.28 27.3 3.36z" fill="#191b1e"/><path d="m2203.54 3172.31-25.37-3.09-4.79-16.41 25.94 3.15z" fill="#191b1e"/><path d="m2156.54 3166.56-26.73-3.27-4.79-16.42 27.29 3.33z" fill="#191b1e"/><path d="m2108.21 3160.64c-36.58-4.52-71.97-8.79-103.57-12.62l-4.81-16.45c31.48 3.81 67.66 8.22 104.15 12.67v.06z" fill="#191b1e"/><path d="m1983.07 3145.4-26.7-3.22-4.82-16.45 27.3 3.28v.06z" fill="#191b1e"/><path d="m2743.6 3115.77 30.14 3.9c.72.09 1.47-.24 1.89-.83 4-5.74 4.97-13.25 2.56-19.82-.26-.68-.9-1.19-1.62-1.28l-30.14-3.89c-.81-.09-1.63.35-2 1.07-2.59 5.32-3.65 13.5-2.49 19.29.17.8.85 1.44 1.66 1.56z" fill="#252a28"/><path d="m2741.87 3114.21c.17.82.86 1.46 1.7 1.56l30.14 3.91c.72.09 1.47-.24 1.89-.83 2.74-3.93 4.19-8.81 3.85-13.6-.66 2.04-1.61 3.98-2.84 5.75-.42.6-1.17.92-1.89.83l-30.14-3.9c-.84-.1-1.53-.75-1.7-1.57-.31-1.94-.37-3.91-.19-5.87-1.27 4.55-1.55 7.06-.82 13.72z" fill="#191c1b"/><path d="m2772.63 3137.09 12.86 1.65s16.86-1.65 25.03-64.85c8.16-63.2-7.71-69.09-7.71-69.09l-12.86-1.67c9.27 1.2 12.89 32.16 8.12 69.15-4.78 37-16.17 66.01-25.44 64.81z" fill="#9b8e78"/><path d="m1361.12 2857.95c-3.02-1.18-5.38-1.92-6.78-2.45-6.84-2.7 31.46-14.68 80.7-11.87 49.25 2.81 248.21 25.59 248.21 25.59l3.42-4.82c118.45 13.74 236.88 27.41 355.49 39.62l3.82 3.56s162.59 18.1 299.47 33.36l4.78 22.81c.64 3.1 8.07 4.27 9.37.97l-.81 7.05c-.43 3.82-8.82 3.4-9.56-.22l-4.79-22.81-299.47-33.37-3.82-3.56c-118.61-12.2-237.02-25.92-355.46-39.66l-3.41 4.8s-198.98-22.76-248.21-25.58c-32.14-1.86-59.64 2.47-72.95 6.58z" fill="#bfbfbf"/><path d="m2508.31 2966.95c-1.64-.16-3.37-.34-5.19-.54-1.39-.15-2.83-.31-4.31-.47l.89-7.86c3.21.35 6.41.71 9.61 1.08l5.43 25.8c.68 3.31 8.01 4.42 9.36.97l-.81 7.05c-.45 3.97-8.77 3.56-9.57-.22z" fill="#bfbfbf"/><path d="m2526.12 2969 3.71.41c2.67.34 11.05 3.08 8.72 23.22-.51 4 31.99 8.23 38.4 9.06s34.83 2.6 36.79 2.29c1.09-.15 2.21-9.38 1.85-9.32-10.35 1.71-65.81-1.77-75.29-11.41 2.07-18.38-6.79-21.28-9.46-21.63l-3.83-.43z" fill="#bfbfbf"/><path d="m2621.38 2988.9c1.36.18 2.58 6.12 2.58 6.12 9.67 1.69 80.56 49.01 88.5 86.06l1.71.2c2.11-37.83-78.82-92.24-89.21-94.05 0 0-1.19-5.94-2.57-6.12-1.62-.22-3.27-.25-4.9-.45-.48-.08-.88 6.71-.97 7.8 1.62.2 3.25.24 4.86.44z" fill="#bfbfbf"/><path d="m2470.65 2962.79 10.45 1.18 5.31 25.31c.8 3.85 9.08 4.56 9.56.22l.81-7c-1.26 3.23-8.64 2.56-9.37-.96l-5.3-25.32-10.57-1.18z" fill="#bfbfbf"/><path d="m2453.13 2960.85-9.82-1.1.88-7.76 9.95 1.1 5.2 24.81c.67 3.31 8 4.4 9.35.97l-.81 7c-.42 3.98-8.77 3.56-9.56-.22z" fill="#bfbfbf"/><path d="m2415.99 2956.69 10 1.12 5.1 24.32c.75 3.62 9.14 4.04 9.56.22l.81-7.05c-1.35 3.45-8.68 2.34-9.37-.97l-5.09-24.32-10.08-1.12z" fill="#bfbfbf"/><path d="m2398.78 2954.79-10.14-1.13.9-7.76 10.25 1.15 4.97 23.8c.63 3.1 8.07 4.27 9.36.97l-.82 7c-.46 4.16-8.87 3.11-9.55-.22z" fill="#bfbfbf"/><path d="m2361.3 2950.62c3.43.37 6.86.75 10.29 1.13l4.89 23.32c.74 3.63 9.15 4.05 9.56.22l.84-7.49c-1.29 3.28-8.62 2.06-9.26-1.05l-5-22.74c-3.47-.39-6.94-.78-10.41-1.15z" fill="#bfbfbf"/><path d="m1203.65 3114.9c2.92.83 5.9 1.17 9.88 1.62l26.66-137.41c.44-1.86 2.6-2.84 4.28-2l-9.25-5.15c-1.71-.85-3.9.21-4.27 2.11z" fill="#191b1e"/><path d="m1145.57 3095.76 32.06-277.9c-10.32-1.17-15.84 3.21-16.83 12l-30.22 268.19c-.59 5.22 1.96 10.08 6.98 11.66 9.57 3 15.38 2.26 21.4 10.47 16.82 22.95 30.3 37.38 74.04 42.31 1.94-1.04 13.24-10.85 14.68-13.73 2.28.3 31.04 4.04 32.99 3.5 1-.28 28.26-25.6 55.56-50.95 25.95-24.1 51.94-48.24 55.47-50.96 7.24-5.58 144.58-66.72 147.63-67.34 3.05-.63 38.86 13.72 40.41 16.24 1.56 2.53 8.53 20.18 10.25 21.26s6.83 1.36 12.33 3.1c15.98 12.93 29.38 33.17 31.45 54.04 18.26-39.39-34.83-66.5-52.01-93.95-1.57-2.51-37.39-16.86-40.42-16.24-3.03.61-140.38 61.73-147.63 67.34-3.47 2.69-28.7 26.12-54.23 49.84-27.7 25.73-55.76 51.8-56.79 52.07-1.98.52-30.73-3.2-32.99-3.5-1.41 2.87-12.02 11.54-14.02 12.58-35.62.91-57.66-17.95-74.65-41.1-5.04-6.88-7.55-6.52-15.46-8.93z" fill="#191b1e"/><path d="m1702.52 3166.93c-1.24-20.3 9.59-27.47 25.09-37.73 3.11-2.06 3.65-2.35 7.32-2 7.27.68 23.77 2.23 33.87 6.59 16.58 14.01 26.99 18.14 46.41 15.97 21.72-1.69 46.46-10.3 51.03-34.16.4-.13 32.01 3.82 64.26 7.66l4.23 16.33c-35.9-4.28-58.41-6.87-58.83-6.69-8.57 18.15-47.05 24.03-64.43 28.52-9.57 1.56-23.53-.38-31.65-7.14-9.77-8.12-50.53-11.98-50.53-11.98-8.61 6.27-24.84 15.14-26.77 24.63z" fill="#191b1e"/><path d="m1628.81 3265.35v.1h.02c-.01-.04-.01-.07-.02-.1z" fill="#191b1e"/><path d="m1628.81 3265.35c.54-9.47 40.1-53.49 48.69-60.89 4.62-2.26 8.51-3.37 11.72-4.29 8.45-2.42 12.11-3.47 11.39-20.45-5.91 8.14-21.05 9.22-28.95 17.37-17.86 18.41-46.23 47.67-42.85 68.26z" fill="#191b1e"/><path d="m1603.21 3315.55c-3.59-.47-96.84-49.78-100.07-53.04h.02c-2.78-3.25-1.09-17.59.51-24.2-.07 3.95.27 7.38 1.48 8.62 3.23 3.24 96.49 52.57 100.08 53.03 6.95-.09 22.55-.91 25.55-6.44 3.65 20.87-10.98 21.55-27.57 22.03z" fill="#191b1e"/><path d="m1269.19 2971.05c-.05.03-23.09-16.5-23.09-16.5l.02-.04c-4.19-2.41-2.03-9.06 2.77-8.55 0 0 230.61 34.04 236.11 37.05-8.5 3.49-15.5 7.49-23.43 11.48-65.57-13.49-122.09-20.99-188.24-30.95-4.06-.53-6.76 4.36-4.14 7.51z" fill="#191b1e"/><path d="m1187.89 3165.47c11.31.02 20.49-9.14 20.51-20.45s-9.14-20.49-20.45-20.51c-11.31-.01-20.49 9.14-20.51 20.45s9.14 20.5 20.45 20.51z" fill="#000"/><path d="m1189.14 3142.71-.72 5.61 13.89 7.19c1.69-2.31 2.79-5 3.22-7.84.43-2.83.17-5.73-.75-8.44z" fill="#414744"/><path d="m1171.17 3151.04 15.02-3.36.72-5.62-13.64-7.03c-3.08 4.59-4.06 10.54-2.1 16.01z" fill="#414744"/><path d="m1187.91 3150.89c3.26.01 5.91-2.63 5.91-5.89.01-3.26-2.63-5.9-5.89-5.91-3.26 0-5.9 2.64-5.91 5.89 0 3.26 2.63 5.91 5.89 5.91z" fill="#121413"/><path d="m1559.31 2991.49c20.08.03 36.39-16.23 36.42-36.31.03-20.09-16.23-36.4-36.32-36.43-20.08-.03-36.39 16.23-36.42 36.32s16.23 36.39 36.32 36.42z" fill="#000"/><path d="m1561.53 2951.06-1.29 10 24.66 12.75c6.04-8.27 7.7-19.22 4.39-28.91z" fill="#414744"/><path d="m1529.62 2965.88 26.66-5.97 1.3-10-24.16-12.43c-5.45 8.13-7.28 18.66-3.8 28.4z" fill="#414744"/><path d="m1559.34 2965.59c5.79.01 10.48-4.67 10.49-10.45s-4.67-10.48-10.46-10.49c-5.78 0-10.47 4.68-10.48 10.46s4.67 10.48 10.45 10.48z" fill="#121413"/><path d="m1659.09 2790.57c.46 3.84 3.56 6.95 7.4 7.43l31.17 4.05c5.71-18.27 18.56-42.99 4.55-59.55l-28.09-3.63c-3.81-.49-7.59 1.73-9 5.31-5.61 14.03-7.82 31.4-6.03 46.39z" fill="#695624"/><path d="m1656.52 2730.7c-3.06-8.52-11.23-20.89-32.61-14.24-18.37 5.71-20.2 21.82-16.54 31.98 6.15 17.08 23.74 21.33 39.39 10.84 9.18-6.15 14.33-15.88 9.76-28.58z" fill="#292c31"/><path d="m1636.27 2750.86c10.78-3.88 17.13-13.66 14.18-21.84s-14.07-11.66-24.85-7.78c-10.77 3.88-17.12 13.66-14.18 21.84 2.95 8.17 14.07 11.66 24.85 7.78z" fill="#161719"/><path d="m1608.45 2750.94c7.68 30.05 66.41 8.99 46.86-22.9 4.36 11.57-2.22 19.93-10.92 25.44-11.4 7.24-29.93 6.69-35.94-2.54z" fill="#202226"/><path d="m1666.49 2798 34.75 4.66c-.83-6.61-.43-13.5-.24-20.16l-32.01-3.98c-9.59-1.19-8.13-14.26-7.67-21.14-2.02 10.27-9.43 38.81 5.17 40.62z" fill="#5b4920"/><path d="m1732.91 2855.88 506.17 60.49c5.31.69 10.32-3.18 11.01-8.49l17.21-144.32c.69-5.3-3.23-10.34-8.49-11.01l-509.42-58.64c-10.15-1.32-20.55 2.48-27.46 10.03-30.53 33.41-33.45 96.21-13.06 135.24 4.77 9.08 13.87 15.4 24.04 16.7z" fill="#252a28"/><path d="m1732.91 2855.88c-10.17-1.3-19.27-7.62-24.04-16.7-15.43-29.54-16.89-66.87-7.14-98.49.33 23.79 7.57 64.58 37.16 68.43l506.16 60.47c4.22.54 8.42-1.78 10.2-5.64l-5.24 43.92c-.67 5.26-5.71 9.19-11.01 8.49z" fill="#191c1b"/><path d="m1932.12 2883.74c1.76.34 9.78.01 12.35 1.02 2.57 1 14.23 10.83 16.25 11.65 1.79.72 207.43 24 259.58 27.75 15.01 1.69 28.11-2.98 29.62-16.4-5.05-.93-28.63.91-34.1-1.18s-52.62-95.94-67.83-119.1c-11.97-18.23-36.25-52.17-40.47-54.36-5.09-2.64-63.59-10.32-66.99-7.48-8.09 6.83 35.65 86.11 30.66 109.44-3.77 17.72-61.07 51.91-67.73 53.07s-33-1.05-35.85-1.99-12.12-9.07-17.06-9.97c-4.93-.89-19.28.62-20.07 1.89-.79 1.26-.12 5.32 1.64 5.66zm168.26-126.9-26.42-2.46c-1.72-.15-3.31-1.13-4.21-2.61l-8.24-13.39c-1.34-2.18.53-5.02 3-4.75l24.85 2.78c2.71.3 5.21 1.58 7.04 3.6l7.99 8.78c2.91 3.21.15 8.43-4.01 8.05zm26.05 45.21-34.72-2.21c-2.01-.12-3.84-1.35-4.72-3.16l-9.04-18.58c-2.57-5.29 1.62-11.61 7.49-11.31l27.71 1.46c4.48.25 8.65 2.74 10.99 6.57l9.41 15.37c3.23 5.27-.95 12.23-7.12 11.86zm-79.04 85.17c43.54-27.83 45.67-55.81 44.94-61.04-.82-5.78 3.18-10.99 9.01-10.68l33.35 2.14c8.08.59 15.27 5.96 18.13 13.54 10.67 27.68 33.11 58.13 41.42 68.91 1.15 1.5-.06 3.82-2.01 3.66-19.58-1.51-90.9-7.2-144.29-13.92-1.29-.18-1.62-1.95-.55-2.61z" fill="#000"/><g fill="#221f23"><path d="m2136.65 2957.39 13.92 1.57-.51 4.47-4.47-.5-1.73 15.4-4.97-.56 1.73-15.4-4.47-.51z"/><path d="m2156.63 2967.69.89-7.95-4.97-.56-2.24 19.88 4.97.56.9-7.95 7.95.89-.9 7.95 4.97.56 2.24-19.87-4.97-.56-.89 7.95z"/><path d="m2575.26 3033.94-2.9-4.81-5.96-.67 5.89 10.2-1.01 8.97 4.97.56 1.04-9.19 7.83-8.43-5.97-.67z"/><path d="m2484.35 3028.78-2.5 8.77-4.97-.56 5-17.55 4.97.56 2.82 10.67 5.13-9.77 4.96.56.97 18.22-4.97-.56-.48-9.11-4.49 8.55-3.97-.45z"/><path clip-rule="evenodd" d="m2533.55 3025.26 4.94 18.67-4.97-.56-.82-3.11-7.62-.86-1.49 2.85-4.97-.56 8.97-17.1zm-3.56 4.78-2.92 5.56 4.53.51z" fill-rule="evenodd"/><path d="m2547.43 3044.94 1.15-10.16 7.8 11.17 4.97.56 2.01-17.89-4.97-.56-1.21 10.74-7.73-11.74-4.97-.56-2.01 17.88z"/><path d="m2177.65 2977.61.33-2.98 6.22.7.5-4.47-6.21-.7.39-3.48 6.21.7.51-4.47-11.18-1.26-2.24 19.87 10.93 1.23.5-4.47z"/><path clip-rule="evenodd" d="m2520.51 3029.33c.61-5.42-4.79-6.58-8.77-7.03l-4.96-.56-2.08 18.39 4.97.56.68-5.97c6.37.65 9.6-.42 10.16-5.39zm-4.96-.56c.18-1.66-.97-2.63-3.95-2.96-.17 1.49-.45 3.97-.56 4.97 2.98.33 4.24.31 4.51-2.01z" fill-rule="evenodd"/><path clip-rule="evenodd" d="m2462.36 3036.36c5.76.65 10.94-3.27 11.55-8.76.62-5.49-3.55-10.46-9.31-11.11s-10.94 3.27-11.55 8.76c-.62 5.49 3.55 10.46 9.31 11.11zm.56-4.97c3.02.34 5.72-1.61 6.03-4.35.3-2.74-1.89-5.24-4.91-5.58s-5.72 1.6-6.03 4.35c-.3 2.74 1.89 5.24 4.91 5.58z" fill-rule="evenodd"/><path d="m2448.2 3014.64c1.22.14 2.37.45 3.42.9l-.58 5.18c-.88-1.17-2.22-1.99-3.78-2.16-3.02-.34-5.74 1.83-6.08 4.85s1.83 5.74 4.85 6.08c1.56.18 3.05-.32 4.16-1.27l-.47 4.2c-.11.99-3.48 1.62-4.69 1.48-4.48-.5-9.5-5.07-8.88-10.56.62-5.48 6.02-9.38 12.05-8.7z"/><path d="m2318.17 2980.86 9.93 1.12-4.25 37.77-9.94-1.12z"/><path d="m2346.99 2984.11 15.15 26.29 2.73-24.27 9.94 1.12-4.26 37.76-9.93-1.12-15.15-26.29-2.74 24.27-9.94-1.12 4.26-37.76z"/><path clip-rule="evenodd" d="m2291.34 2977.84-9.94-1.12-4.25 37.76 9.93 1.12 1.55-13.76 8.39 14.88 9.94 1.12-9.53-16.9c4.59-.62 8.75-3.03 9.57-10.26 1.12-9.94-7.71-11.94-15.66-12.84zm-1.49 7.38-1.06 9.44c.07.01.17.02.28.04 1.69.22 7.65 1.02 8.2-3.86.55-4.86-4.93-5.38-7.02-5.58-.15-.01-.28-.03-.4-.04z" fill-rule="evenodd"/><path d="m2246.23 3012c11.52 1.3 21.87-6.54 23.11-17.52 1.23-10.97-7.11-20.93-18.63-22.22-11.53-1.3-21.87 6.54-23.11 17.52-1.24 10.97 7.1 20.93 18.63 22.22z"/><path clip-rule="evenodd" d="m2205.88 2968.21-9.94-1.12-4.25 37.76 9.93 1.12c9.44 1.07 18.5 1.08 19.62-8.86.78-6.95-4.46-9.56-6.39-10.28.1-.08.2-.15.3-.23.12-.09.25-.18.38-.28 1.62-1.19 3.71-2.72 4.25-7.49.95-8.44-7.94-9.95-13.9-10.62zm-1.04 7.43c3.18.36 6.16.7 5.71 4.67-.4 3.58-3.22 3.21-5.74 2.89-.16-.03-.33-.05-.49-.07-.11-.01-.21-.02-.32-.04.28-2.48.56-4.96.84-7.45zm-1.62 14.41c-.28 2.48-.56 4.97-.84 7.45.37.05.81.11 1.29.19 2.93.46 7.31 1.15 7.74-2.69.46-4.08-4.1-4.54-7.31-4.86h-.04c-.29-.03-.58-.06-.84-.09z" fill-rule="evenodd"/><path d="m2422.15 3009.19c-.57 14.02-11.16 20.88-21.84 19.68-10.98-1.24-18.93-10.65-17.69-21.62 1.24-10.98 11.14-18.87 22.11-17.64 7.59.86 13.71 5.85 16.35 12.48l-9.31 2.41c-1.31-3.76-4.31-6.03-7.99-6.44-5.49-.62-9.99 3.78-10.73 10.36-.74 6.59 2.69 11.63 8.18 12.25 4.01.45 8.3-1.33 8.75-5.31l-8.05-.9.84-7.46z"/></g><path d="m1601.4 3259.89c56.82.05 92.99-68.1 58.59-115.27 15.91-45.21-18.09-95.39-66.66-96.55-56-1.33-88.37 58.51-82.5 109.13 5.48 47.32 37.52 102.65 90.57 102.69z" fill="#f7c394" stroke="#333" stroke-miterlimit="10" stroke-width="5"/><path d="m1510.83 3157.21c6.78 58.56 54.37 126.79 125.37 93.8-68.82-8.81-117-125.51-83.11-191.84-5.39 3.83-13.89 8.33-27.6 27.61-12.29 21.72-17.7 46.2-14.66 70.43z" fill="#000" fill-opacity=".1"/><path d="m2307.34 3278.07c-28.72-49.03 11.87-114.65 69.94-108.75 31-36.56 91.48-32.53 117 8.82 29.41 47.67-5.91 105.81-52.58 126.3-43.61 19.14-107.55 19.4-134.36-26.37z" fill="#f7c394" stroke="#333" stroke-miterlimit="10" stroke-width="5"/><path d="m2441.7 3304.44c-53.98 23.7-136.91 17.05-144.25-60.89 42.33 54.96 167.39 37.66 207.56-25.07-.59 6.59-.19 16.2-9.91 37.76-12.55 21.57-30.95 38.59-53.4 48.2z" fill="#000" fill-opacity=".1"/></svg>