<svg fill="none" height="4000" viewBox="0 0 4000 4000" width="4000" xmlns="http://www.w3.org/2000/svg"><path d="m1661.57 3141.33c9.93-34.5 1.95-53.38-7.25-68.47 39.29-27.33-33.11-36.39-80.35-29.62-47.23 6.78-96.69 31.22-55.56 43.42-15.91 54.67-9.56 96.63 11.45 129.29 26.41 41.07 69.39 59.24 111.19 32.29 50.1-32.29 32.95-85.74 20.52-106.91z" fill="#fff" stroke="#333" stroke-width="5"/><path d="m1639.5 3249c-42 27.67-84.62 5.86-109.64-33.05-21.01-32.66-25.86-82.45-12.45-129.29-36.99-10.97 1.07-31.86 42.47-40.87-18.45 9.56-24.19 20.96-.01 28.13-36.72 60.98-2.55 178.91 79.63 175.08z" fill="#000" fill-opacity=".15"/><path d="m2338.43 3141.33c-9.93-34.5-1.95-53.38 7.25-68.47-39.29-27.33 33.11-36.39 80.35-29.62 47.23 6.78 96.69 31.22 55.56 43.42 15.91 54.67 9.56 96.63-11.45 129.29-26.41 41.07-69.39 59.24-111.19 32.29-50.1-32.29-32.95-85.74-20.52-106.91z" fill="#fff" stroke="#333" stroke-width="5"/><path d="m2360.5 3249c42 27.67 84.62 5.86 109.64-33.05 21.01-32.66 25.86-82.45 12.45-129.29 37-10.97-1.07-31.86-42.47-40.87 18.45 9.56 24.19 20.96.01 28.13 36.72 60.98 2.55 178.91-79.63 175.08z" fill="#000" fill-opacity=".15"/></svg>