<svg fill="none" height="4000" viewBox="0 0 4000 4000" width="4000" xmlns="http://www.w3.org/2000/svg"><path d="m2391.09 3009.45c2.87-2.43 4.2-7 3.06-11.69-1.49-6.15-6.67-10.16-11.56-8.97-4.9 1.19-7.65 7.13-6.16 13.28 1.18 4.85 4.66 8.38 8.48 9.06l-59.73 16.21c2.96-2.4 4.35-7.04 3.19-11.8-1.49-6.14-6.67-10.16-11.56-8.97-4.9 1.19-7.66 7.13-6.16 13.28 1.19 4.92 4.76 8.48 8.65 9.09l-12.5 3.39c-10.57 2.87-17.92 12.43-18.58 22.97l-383.14 89.6c-23.54-40.06-61.41-70.01-99.27-70.74-35.83-.71-54.69 16.58-101.83 29.86-78.8 22.19-102.76-27.23-164.7-13.08-68.87 15.72-143.01 115.23-118.18 216.29 21.26 86.5 107.74 144.52 174.37 137.87 70.69-7.09 84.57-83.51 178.15-95 51.84-6.37 71.29 14.17 103.57-4.48 34.48-19.91 50.77-65.52 51.96-108.48l387.82-90.69c4.57 2.24 9.82 3.14 15.1 2.26l14.13-2.34c-.96 2.32-1.2 5.17-.5 8.06 1.5 6.15 6.68 10.17 11.57 8.98s7.65-7.14 6.16-13.28c-.59-2.42-1.75-4.51-3.24-6.08l48.95-8.12c-1.05 2.37-1.33 5.32-.61 8.32 1.5 6.15 6.68 10.17 11.57 8.98s7.65-7.14 6.16-13.28c-.62-2.53-1.85-4.7-3.44-6.29l33.53-5.56c14.18-2.35 23.73-16.67 20.46-30.67l-18.5-79.13c-3.22-13.71-17.63-22.31-31.22-18.62z" stroke="#333" stroke-width="10"/><path d="m1926.91 3203.71c8.47 50.09-6 116.67-49.72 141.91-32.28 18.65-51.73-1.89-103.57 4.48-93.58 11.49-107.46 87.91-178.15 95-66.63 6.65-153.11-51.37-174.37-137.87-24.83-101.06 49.31-200.57 118.18-216.29 61.94-14.15 85.9 35.27 164.7 13.08 47.14-13.28 66-30.57 101.83-29.86 54.99 1.06 109.99 63.75 121.1 129.55z" fill="#d39f52"/><path d="m1926.92 3203.71c8.45 50.09-6 116.67-49.73 141.91-32.28 18.64-51.73-1.89-103.57 4.48-93.58 11.5-107.46 87.91-178.15 95-66.62 6.63-153.11-51.38-174.37-137.88-.73-3-1.37-5.93-1.93-8.89 24.49 82 107.64 136.22 172.18 129.79 70.68-7 84.56-83.46 178.14-94.95 51.84-6.37 71.29 14.16 103.57-4.48 47.34-27.34 58.01-95.18 49.28-144.45 1.91 6.39 3.44 12.89 4.58 19.47z" fill="#c18f4d"/><path d="m2322.21 3028.82c4.9-1.19 7.65-7.13 6.16-13.28-1.49-6.14-6.67-10.16-11.56-8.97-4.9 1.19-7.66 7.13-6.16 13.28 1.49 6.14 6.67 10.16 11.56 8.97z" fill="#444"/><path d="m2387.99 3011.04c4.9-1.19 7.66-7.14 6.16-13.28-1.49-6.15-6.67-10.16-11.56-8.97-4.9 1.19-7.65 7.13-6.16 13.28 1.49 6.14 6.67 10.16 11.56 8.97z" fill="#444"/><path d="m1774.4 3274.56c29.92-7.27 48.75-35.49 42.05-63.02-6.69-27.54-36.37-43.97-66.29-36.7-29.92 7.28-48.74 35.49-42.05 63.03 6.69 27.53 36.37 43.96 66.29 36.69z" fill="#55473b"/><path d="m1573.38 3314.51 13.78-3.35c4.03-.98 6.51-5.05 5.53-9.08l-17.45-71.78c-.98-4.04-5.04-6.51-9.08-5.53l-13.78 3.35c-4.03.98-6.51 5.04-5.53 9.08l17.45 71.78c.98 4.03 5.04 6.51 9.08 5.53z" fill="#6b594b"/><path d="m1907.49 3153.3 419.58-98.11 19.71 84.29-419.57 98.11z" fill="#c18f4d"/><path d="m1887.11 3149.1 416.65-97.43 19.72 84.29-416.71 97.45c-1.71.39-3.54-.3-4.56-1.74l-23.56-33.45c-.64-.91-.91-2.02-.76-3.12l5.89-42.35c.24-1.77 1.59-3.24 3.33-3.65z" fill="#806a4a"/><path d="m2306.8 3032.33 120.29-32.65c13.59-3.69 28 4.91 31.22 18.62l18.5 79.13c3.27 14-6.28 28.32-20.46 30.67l-124.28 20.61c-13.11 2.17-26.01-6.58-28.82-19.57l-14.52-67.09c-2.8-12.96 5.27-26.25 18.07-29.72z" fill="#d39f52"/><path d="m2328.14 3059.49c3.03 0 5.49-2.46 5.49-5.49s-2.46-5.49-5.49-5.49-5.49 2.46-5.49 5.49 2.46 5.49 5.49 5.49z" fill="#e6e6e6"/><path d="m2393.73 3041.36c3.03 0 5.49-2.46 5.49-5.49s-2.46-5.49-5.49-5.49-5.49 2.46-5.49 5.49 2.46 5.49 5.49 5.49z" fill="#e6e6e6"/><path d="m2328.03 3053.9-45.19 14.15-720.08 171.98" stroke="#e5c89e" stroke-miterlimit="10" stroke-width="1.74661"/><path d="m1567.37 3257.13 718.06-173.18 108.31-48.19" stroke="#e5c89e" stroke-miterlimit="10" stroke-width="1.74661"/><path d="m2344.14 3125.35c3.03 0 5.49-2.46 5.49-5.49s-2.46-5.49-5.49-5.49-5.49 2.46-5.49 5.49 2.46 5.49 5.49 5.49z" fill="#e6e6e6"/><path d="m2410.75 3111.35c3.03 0 5.49-2.46 5.49-5.49s-2.46-5.49-5.49-5.49-5.49 2.46-5.49 5.49 2.46 5.49 5.49 5.49z" fill="#e6e6e6"/><path d="m2344.09 3120-48.7-.33-718.69 177.74" stroke="#e5c89e" stroke-miterlimit="10" stroke-width="1.74661"/><path d="m1572.26 3277.14 718.13-172.78 120.41 1.58" stroke="#e5c89e" stroke-miterlimit="10" stroke-width="1.74661"/><path d="m2476.81 3097.43c3.27 14-6.28 28.32-20.46 30.67l-124.28 20.61c-11.65 1.93-20.57-3.21-26.07-11.71-2.42-3.73-2.92-8.65-3.9-13.18 4.07 11.35 16.01 18.38 27.91 16.41l124.27-20.62c14.18-2.34 20.47-15.61 20.47-30.61.75 3 1.14 4.5 2.06 8.43z" fill="#b48240"/><path d="m2357.27 3163.41c4.89-1.19 7.65-7.14 6.16-13.28-1.5-6.15-6.67-10.17-11.57-8.98-4.89 1.19-7.65 7.14-6.16 13.28 1.5 6.15 6.68 10.17 11.57 8.98z" fill="#444"/><path d="m2420.1 3153.23c4.89-1.19 7.65-7.14 6.16-13.28-1.5-6.15-6.67-10.17-11.57-8.98-4.89 1.19-7.65 7.14-6.16 13.28 1.5 6.15 6.68 10.17 11.57 8.98z" fill="#444"/><g stroke-miterlimit="10"><g stroke="#e5c89e" stroke-width="1.74661"><path d="m1915.6 3142.3 19.75 84.29"/><path d="m1946.94 3135.11 19.81 84.27"/><path d="m1980.56 3127.4 19.76 84.29"/><path d="m2011.63 3120.07 19.75 84.28"/><path d="m2042.7 3112.73 19.75 84.29"/><path d="m2073.77 3105.4 19.75 84.28"/><path d="m2104.83 3098.06 19.76 84.29"/><path d="m2135.9 3090.72 19.75 84.29"/><path d="m2166.97 3083.39 19.75 84.29"/><path d="m2198.17 3076.36 19.72 84.29"/><path d="m2229.2 3069.11 19.78 84.27"/><path d="m2260.28 3061.84 19.66 84.3"/></g><path d="m1601.4 3259.89c56.81.05 92.98-68.11 58.59-115.27 15.91-45.21-18.09-95.39-66.66-96.55-56-1.34-88.37 58.5-82.5 109.13 5.48 47.31 37.52 102.65 90.57 102.69z" fill="#f7c394" stroke="#333" stroke-width="5"/></g><path d="m1510.83 3157.2c6.78 58.57 54.37 126.8 125.37 93.8-68.83-8.8-117-125.5-83.11-191.84-5.39 3.84-13.89 8.34-27.6 27.61-12.29 21.73-17.7 46.2-14.66 70.43z" fill="#000" fill-opacity=".1"/></svg>