<svg xmlns="http://www.w3.org/2000/svg" xmlns:xlink="http://www.w3.org/1999/xlink" width="4000" height="4000" fill="none" xmlns:v="https://vecta.io/nano"><style><![CDATA[.B{stroke-miterlimit:10}.C{stroke:#e5c89e}.D{stroke-width:1.7466}]]></style><path d="M2391.1 3009.45c2.87-2.43 4.2-7 3.06-11.7-1.5-6.15-6.67-10.16-11.56-8.97-4.9 1.2-7.65 7.13-6.16 13.28 1.18 4.85 4.66 8.38 8.48 9.06l-59.73 16.2c2.96-2.4 4.35-7.04 3.2-11.8-1.5-6.14-6.67-10.16-11.56-8.97-4.9 1.2-7.66 7.13-6.16 13.28 1.2 4.92 4.76 8.48 8.65 9.1l-12.5 3.4c-10.57 2.87-17.92 12.43-18.58 22.97l-383.14 89.6c-23.54-40.06-61.4-70-99.27-70.74-35.83-.7-54.7 16.58-101.83 29.86-78.8 22.2-102.76-27.23-164.7-13.08-68.87 15.72-143 115.23-118.18 216.3 21.26 86.5 107.74 144.52 174.37 137.87 70.7-7.1 84.57-83.5 178.15-95 51.84-6.37 71.3 14.17 103.57-4.48 34.48-19.9 50.77-65.52 51.96-108.48l387.82-90.7c4.57 2.24 9.82 3.14 15.1 2.26l14.13-2.34c-.96 2.32-1.2 5.17-.5 8.06 1.5 6.15 6.68 10.17 11.57 8.98s7.65-7.14 6.16-13.28c-.6-2.42-1.75-4.5-3.24-6.08l48.95-8.12c-1.05 2.37-1.33 5.32-.6 8.32 1.5 6.15 6.68 10.17 11.57 8.98s7.65-7.14 6.16-13.28c-.62-2.53-1.85-4.7-3.44-6.3l33.53-5.56c14.18-2.35 23.73-16.67 20.46-30.67l-18.5-79.13c-3.22-13.7-17.63-22.3-31.22-18.62l-36 9.77z" stroke="#333" stroke-width="10"/><path d="M1926.9 3203.7c8.47 50.1-6 116.67-49.72 141.9-32.28 18.65-51.73-1.9-103.57 4.48-93.58 11.5-107.46 87.9-178.15 95-66.63 6.65-153.1-51.37-174.37-137.87-24.83-101.06 49.3-200.57 118.18-216.3 61.94-14.15 85.9 35.27 164.7 13.08 47.14-13.28 66-30.57 101.83-29.86 55 1.06 110 63.75 121.1 129.55z" fill="#d39f52"/><path d="M1926.92 3203.7c8.45 50.1-6 116.67-49.73 141.9-32.28 18.64-51.73-1.9-103.57 4.48-93.58 11.5-107.46 87.9-178.15 95-66.62 6.63-153.1-51.38-174.37-137.88-.73-3-1.37-5.93-1.93-8.9 24.5 82 107.64 136.22 172.18 129.8 70.68-7 84.56-83.46 178.14-94.95 51.84-6.37 71.3 14.16 103.57-4.48 47.34-27.34 58-95.18 49.28-144.45 1.9 6.4 3.44 12.9 4.58 19.47z" fill="#c18f4d"/><path d="M2322.2 3028.82c4.9-1.2 7.65-7.13 6.16-13.28-1.5-6.14-6.67-10.16-11.56-8.97-4.9 1.2-7.66 7.13-6.16 13.28 1.5 6.14 6.67 10.16 11.56 8.97zm65.8-17.78c4.9-1.2 7.66-7.14 6.16-13.28-1.5-6.15-6.67-10.16-11.56-8.97-4.9 1.2-7.65 7.13-6.16 13.28 1.5 6.14 6.67 10.16 11.56 8.97z" fill="#444"/><path d="M1774.4 3274.56c29.92-7.27 48.75-35.5 42.05-63.02-6.7-27.54-36.37-43.97-66.3-36.7-29.92 7.28-48.74 35.5-42.05 63.03 6.7 27.53 36.37 43.96 66.3 36.7z" fill="#55473b"/><path d="M1573.38 3314.5l13.78-3.35c4.03-.98 6.5-5.05 5.53-9.08l-17.45-71.78c-.98-4.04-5.04-6.5-9.08-5.53l-13.78 3.35c-4.03.98-6.5 5.04-5.53 9.08l17.45 71.78c.98 4.03 5.04 6.5 9.08 5.53z" fill="#6b594b"/><path d="M1907.5 3153.3l419.58-98.1 19.7 84.3-419.57 98.1-19.72-84.3z" fill="#c18f4d"/><path d="M1887.1 3149.1l416.65-97.43 19.72 84.3-416.7 97.45c-1.7.4-3.54-.3-4.56-1.74l-23.56-33.45c-.64-.9-.9-2.02-.76-3.12l5.9-42.35c.24-1.77 1.6-3.24 3.33-3.65z" fill="#806a4a"/><path d="M2306.8 3032.33l120.3-32.65c13.6-3.7 28 4.9 31.22 18.62l18.5 79.13c3.27 14-6.28 28.32-20.46 30.67l-124.28 20.6c-13.1 2.17-26-6.58-28.82-19.57l-14.52-67.1c-2.8-12.96 5.27-26.25 18.07-29.72z" fill="#d39f52"/><g fill="#e6e6e6"><use xlink:href="#B"/><use xlink:href="#B" x="65.59" y="-18.14"/></g><path d="M2328.03 3053.9l-45.2 14.15-720.08 171.98m4.62 17.1l718.06-173.18 108.3-48.2" class="B C D"/><g fill="#e6e6e6"><use xlink:href="#B" x="16" y="65.85"/><use xlink:href="#B" x="82.61" y="51.85"/></g><path d="M2344.1 3120l-48.7-.33-718.7 177.74m-4.44-20.27l718.13-172.78 120.4 1.58" class="B C D"/><path d="M2476.8 3097.43c3.27 14-6.28 28.32-20.46 30.67l-124.28 20.6c-11.65 1.93-20.57-3.2-26.07-11.7-2.42-3.73-2.92-8.65-3.9-13.18 4.07 11.35 16 18.38 27.9 16.4l124.27-20.62c14.18-2.34 20.47-15.6 20.47-30.6l2.06 8.43z" fill="#b48240"/><g fill="#444"><use xlink:href="#C"/><use xlink:href="#C" x="62.83" y="-10.17"/></g><path d="M1915.6 3142.3l19.75 84.3m11.6-91.5l19.8 84.27m13.82-91.97l19.76 84.3m11.3-91.63l19.75 84.28m11.32-91.62l19.75 84.3m11.32-91.63l19.75 84.28m11.3-91.62l19.76 84.3m11.3-91.64l19.75 84.3m11.32-91.62l19.75 84.3m11.45-91.34l19.72 84.3m11.3-91.56l19.78 84.27m11.3-91.53l19.66 84.3" class="B C D"/><path d="M1601.4 3259.9c56.8.05 92.98-68.1 58.6-115.27 15.9-45.2-18.1-95.4-66.66-96.55-56-1.34-88.37 58.5-82.5 109.13 5.48 47.3 37.52 102.65 90.57 102.7z" fill="#f7c394" stroke="#333" stroke-width="5" class="B"/><path d="M1510.83 3157.2c6.78 58.57 54.37 126.8 125.37 93.8-68.83-8.8-117-125.5-83.1-191.84-5.4 3.84-13.9 8.34-27.6 27.6-12.3 21.73-17.7 46.2-14.66 70.43z" fill="#000" fill-opacity=".1"/><defs ><path id="B" d="M2328.14 3059.5c3.03 0 5.5-2.46 5.5-5.5s-2.46-5.5-5.5-5.5-5.5 2.46-5.5 5.5 2.46 5.5 5.5 5.5z"/><path id="C" d="M2357.27 3163.4c4.9-1.2 7.65-7.14 6.16-13.28-1.5-6.15-6.67-10.17-11.57-8.98-4.9 1.2-7.65 7.14-6.16 13.28 1.5 6.15 6.68 10.17 11.57 8.98z"/></defs></svg>