<svg fill="none" height="4000" viewBox="0 0 4000 4000" width="4000" xmlns="http://www.w3.org/2000/svg"><circle cx="2161" cy="3016" fill="#c4c4c4" r="100" stroke="#333" stroke-width="5"/><path d="m2259.55 3036.38c-8.11-69.14-87.32-122.5-154.25-103.75 69.2-48.63 170.7 13.37 154.25 103.75z" fill="#000" fill-opacity=".3"/><path d="m2224.09 3086.21c-73.59 52.79-175.59-17.21-149.23-106.09-1.61 73.94 80.29 130.67 149.23 106.09z" fill="#fff"/><g stroke="#333" stroke-width="5"><path d="m2461.11 3260.66 37.38-58.21c23.82 18.09 75.01 61.15 55.57 86.62s-71.34-16.64-92.95-28.41z" fill="#1a1a1a"/><path d="m2470.24 3271.25c-4.88-2-209.59-112.35-243.38-131.18-3.53-1.97-6.21-5.18-7.53-9l-3.37-9.7 61.5-94.13 14.2.79c3.52.2 6.88 1.52 9.59 3.76 22.4 18.58 205.35 171.74 208.85 176.05 11.75 14.47-21.06 71.21-39.86 63.41z" fill="#1a1a1a"/><path d="m2103.98 3103.39-8.51-5.64c-3.73-2.36-3.91-7.71-.49-10.43 49.92-42.29 86.75-97.94 106.19-160.41 1.11-4.28 6.17-6.05 9.73-3.62l8.48 5.61c3.44 2.46 5 6.94 3.84 11-19.69 63.39-57.03 119.86-107.65 162.8-3.38 2.71-7.88 3.03-11.59.69z" fill="#fff"/><path d="m2205.72 3125.15c-5.87.05-22.87-3.62-24.05-11.15-.21-1.36-.09-4 3.09-6.38 36.83-25.23 66.28-60.48 73.68-105.8 0-2.96 3.51-6.12 6.32-6.12 6.98 0 12.75 11.83 15.09 17.1 2.06 4.64 4.09 12.08 2.34 16.93-12.19 33.93-37.75 69.36-66.69 92.46-2.86 2.01-6.28 2.93-9.78 2.96z" fill="#fff"/><path d="m2369.98 3266.24c-59.44-11.02-84-89.35-38.85-131.98-7.84-50.39 37.49-96.26 88.52-88.02 58.84 9.51 81.05 78.4 65.06 130.22-14.95 48.42-59.24 100.06-114.73 89.78z" fill="#f7c394" stroke-miterlimit="10"/></g><path d="m2484.71 3176.46c-18.5 59.93-81.56 122.04-149.4 73.71 73.7 4.18 146.81-108.5 124.28-184.48 4.89 5.06 12.9 11.42 23.49 34.25 8.63 25.11 9.52 51.76 1.63 76.52z" fill="#000" fill-opacity=".1"/></svg>