<svg xmlns="http://www.w3.org/2000/svg" width="4000" height="4000" fill="none" xmlns:v="https://vecta.io/nano"><circle cx="2161" cy="3016" r="100" fill="#c4c4c4" stroke="#333" stroke-width="5"/><path d="M2259.55 3036.38c-8.1-69.14-87.32-122.5-154.25-103.75 69.2-48.63 170.7 13.37 154.25 103.75z" fill="#000" fill-opacity=".3"/><path d="M2224.1 3086.2c-73.6 52.8-175.6-17.2-149.23-106.1-1.6 73.94 80.3 130.67 149.23 106.1z" fill="#fff"/><g stroke="#333" stroke-width="5"><g fill="#1a1a1a"><path d="M2461.1 3260.66l37.38-58.2c23.82 18.1 75 61.15 55.57 86.62s-71.34-16.64-92.95-28.4z"/><path d="M2470.24 3271.25c-4.88-2-209.6-112.35-243.38-131.18-3.53-1.97-6.2-5.18-7.53-9l-3.37-9.7 61.5-94.13 14.2.8c3.52.2 6.88 1.52 9.6 3.76l208.85 176.05c11.75 14.47-21.06 71.2-39.86 63.4z"/></g><path d="M2103.98 3103.4l-8.5-5.64c-3.73-2.36-3.9-7.7-.5-10.43 49.92-42.3 86.75-97.94 106.2-160.4 1.1-4.28 6.17-6.05 9.73-3.62l8.48 5.6c3.44 2.46 5 6.94 3.84 11a349.394 349.394 0 0 1-107.65 162.8c-3.38 2.7-7.88 3.03-11.6.7zm101.74 21.75c-5.87.05-22.87-3.62-24.05-11.15-.2-1.36-.1-4 3.1-6.38 36.83-25.23 66.28-60.48 73.68-105.8 0-2.96 3.5-6.12 6.32-6.12 6.98 0 12.75 11.83 15.1 17.1 2.06 4.64 4.1 12.08 2.34 16.93-12.2 33.93-37.75 69.36-66.7 92.46-2.86 2-6.28 2.93-9.78 2.96z" fill="#fff"/><path d="M2369.98 3266.24c-59.44-11.02-84-89.35-38.85-131.98-7.84-50.4 37.5-96.26 88.52-88.02 58.84 9.5 81.05 78.4 65.06 130.22-14.95 48.42-59.24 100.06-114.73 89.78z" fill="#f7c394" stroke-miterlimit="10"/></g><path d="M2484.7 3176.46c-18.5 59.93-81.56 122.04-149.4 73.7 73.7 4.18 146.8-108.5 124.28-184.48 4.9 5.06 12.9 11.42 23.5 34.25 8.63 25.1 9.52 51.76 1.63 76.52z" fill="#000" fill-opacity=".1"/></svg>