<svg fill="none" height="4000" viewBox="0 0 4000 4000" width="4000" xmlns="http://www.w3.org/2000/svg"><g clip-rule="evenodd" fill-rule="evenodd"><path d="m2169 2893.5c0 9.09 3.32 17.41 8.82 23.8-17.95 2.29-31.82 17.63-31.82 36.2 0 10.92 4.79 20.72 12.39 27.4-16.26 3.69-28.39 18.23-28.39 35.6 0 20.16 16.34 36.5 36.5 36.5s36.5-16.34 36.5-36.5c0-10.92-4.79-20.72-12.39-27.4 16.26-3.69 28.39-18.23 28.39-35.6 0-9.09-3.32-17.41-8.82-23.8 17.95-2.29 31.82-17.63 31.82-36.2 0-20.16-16.34-36.5-36.5-36.5s-36.5 16.34-36.5 36.5zm36.5 19.5c-10.77 0-19.5-8.73-19.5-19.5s8.73-19.5 19.5-19.5 19.5 8.73 19.5 19.5-8.73 19.5-19.5 19.5zm-23 60c-10.77 0-19.5-8.73-19.5-19.5s8.73-19.5 19.5-19.5 19.5 8.73 19.5 19.5-8.73 19.5-19.5 19.5zm-35.5 43.5c0 10.77 8.73 19.5 19.5 19.5s19.5-8.73 19.5-19.5-8.73-19.5-19.5-19.5-19.5 8.73-19.5 19.5z" fill="#000" fill-opacity=".2"/><path d="m1831 2893.5c0 9.09-3.32 17.41-8.82 23.8 17.95 2.29 31.82 17.63 31.82 36.2 0 10.92-4.79 20.72-12.39 27.4 16.26 3.69 28.39 18.23 28.39 35.6 0 20.16-16.34 36.5-36.5 36.5s-36.5-16.34-36.5-36.5c0-10.92 4.79-20.72 12.39-27.4-16.26-3.69-28.39-18.23-28.39-35.6 0-9.09 3.32-17.41 8.82-23.8-17.95-2.29-31.82-17.63-31.82-36.2 0-20.16 16.34-36.5 36.5-36.5s36.5 16.34 36.5 36.5zm-36.5 19.5c10.77 0 19.5-8.73 19.5-19.5s-8.73-19.5-19.5-19.5-19.5 8.73-19.5 19.5 8.73 19.5 19.5 19.5zm23 60c10.77 0 19.5-8.73 19.5-19.5s-8.73-19.5-19.5-19.5-19.5 8.73-19.5 19.5 8.73 19.5 19.5 19.5zm35.5 43.5c0 10.77-8.73 19.5-19.5 19.5s-19.5-8.73-19.5-19.5 8.73-19.5 19.5-19.5 19.5 8.73 19.5 19.5z" fill="#000" fill-opacity=".2"/><path d="m2193.5 2925c-20.16 0-36.5-16.34-36.5-36.5s16.34-36.5 36.5-36.5 36.5 16.34 36.5 36.5-16.34 36.5-36.5 36.5zm0-17c-10.77 0-19.5-8.73-19.5-19.5s8.73-19.5 19.5-19.5 19.5 8.73 19.5 19.5-8.73 19.5-19.5 19.5z" fill="#ffe600" stroke="#333" stroke-width="5"/><path d="m2170.5 2985c-20.16 0-36.5-16.34-36.5-36.5s16.34-36.5 36.5-36.5 36.5 16.34 36.5 36.5-16.34 36.5-36.5 36.5zm0-17c-10.77 0-19.5-8.73-19.5-19.5s8.73-19.5 19.5-19.5 19.5 8.73 19.5 19.5-8.73 19.5-19.5 19.5z" fill="#ffe600" stroke="#333" stroke-width="5"/><path d="m2154.5 3048c-20.16 0-36.5-16.34-36.5-36.5s16.34-36.5 36.5-36.5 36.5 16.34 36.5 36.5-16.34 36.5-36.5 36.5zm0-17c-10.77 0-19.5-8.73-19.5-19.5s8.73-19.5 19.5-19.5 19.5 8.73 19.5 19.5-8.73 19.5-19.5 19.5z" fill="#ffe600" stroke="#333" stroke-width="5"/><path d="m1806.5 2925c20.16 0 36.5-16.34 36.5-36.5s-16.34-36.5-36.5-36.5-36.5 16.34-36.5 36.5 16.34 36.5 36.5 36.5zm0-17c10.77 0 19.5-8.73 19.5-19.5s-8.73-19.5-19.5-19.5-19.5 8.73-19.5 19.5 8.73 19.5 19.5 19.5z" fill="#ffe600" stroke="#333" stroke-width="5"/><path d="m1829.5 2985c20.16 0 36.5-16.34 36.5-36.5s-16.34-36.5-36.5-36.5-36.5 16.34-36.5 36.5 16.34 36.5 36.5 36.5zm0-17c10.77 0 19.5-8.73 19.5-19.5s-8.73-19.5-19.5-19.5-19.5 8.73-19.5 19.5 8.73 19.5 19.5 19.5z" fill="#ffe600" stroke="#333" stroke-width="5"/><path d="m1845.5 3048c20.16 0 36.5-16.34 36.5-36.5s-16.34-36.5-36.5-36.5-36.5 16.34-36.5 36.5 16.34 36.5 36.5 36.5zm0-17c10.77 0 19.5-8.73 19.5-19.5s-8.73-19.5-19.5-19.5-19.5 8.73-19.5 19.5 8.73 19.5 19.5 19.5z" fill="#ffe600" stroke="#333" stroke-width="5"/></g><rect fill="#000" fill-opacity=".2" height="199" rx="58" width="554" x="1723" y="3022"/><path d="m2036.35 3171.5h-42.97c21.19-11.84 33.55-34.55 33.55-59.12 0-23.86-12.31-46.23-32.74-57.88h52.02c-10.53 7.13-17.39 18.69-17.39 32.3 0 21.16 16.21 32.2 33.22 37.7l.02.01c.62.19 1.28.4 1.96.61 4.94 1.51 11.41 3.5 16.22 6.55 2.71 1.73 4.58 3.6 5.43 5.63.78 1.88.84 4.27-.88 7.49-1.75 3.28-4.35 5.07-7.46 5.85-3.2.81-7.03.56-11.05-.5-8.11-2.13-16.08-7.31-19.62-11.67-.45-.55-1.12-.89-1.83-.92s-1.4.24-1.9.74l-19.49 19.84c-.94.96-.95 2.51-.02 3.48 3.8 3.96 8.19 7.25 12.93 9.89zm94.1 0h-27.61c11.32-7.72 18.15-20.44 18.15-34.93 0-7.83-2.19-13.95-5.89-18.86-3.67-4.86-8.71-8.38-14.18-11.23-4.91-2.56-10.33-4.66-15.57-6.69-.57-.22-1.13-.44-1.7-.66-5.81-2.26-11.33-4.5-16.04-7.32-3.89-2.52-5.29-7.54-2.75-11.23 3.65-5.1 9.88-6.55 16.63-5.33 6.77 1.23 13.39 5.09 16.94 9.62.45.57 1.12.92 1.85.95.72.03 1.43-.25 1.93-.78l18.97-20.01c.46-.48.7-1.14.68-1.81s-.32-1.3-.81-1.75c-2.9-2.66-6.05-4.98-9.45-6.97h28.66c-10.66 7.16-17.34 18.68-17.34 32.3 0 21.16 16.21 32.2 33.22 37.7l.02.01c1.35.42 2.8.83 4.3 1.25 3.74 1.04 7.81 2.18 11.44 3.92 5.02 2.41 8.09 5.47 8.09 10.02 0 5.23-1.88 7.91-4.39 9.32-2.73 1.54-6.74 1.87-11.45 1.1-4.64-.75-9.59-2.52-13.88-4.72-4.34-2.23-7.76-4.77-9.51-6.93-.45-.55-1.11-.89-1.82-.92-.72-.03-1.41.24-1.91.74l-19.48 19.84c-.95.96-.96 2.51-.02 3.48 3.79 3.96 8.18 7.25 12.92 9.89zm75.26-117h10.29c6.35 0 11.5 5.15 11.5 11.5v94c0 6.35-5.15 11.5-11.5 11.5h-19.06c11.33-7.72 18.15-20.44 18.15-34.93 0-17.06-12.11-29.41-26.86-34.71-2.37-.91-5.42-1.67-8.52-2.45-.26-.06-.52-.13-.78-.19-3.46-.87-7.04-1.79-10.29-3.01-6.69-2.52-10.79-5.81-10.79-11.15 0-3.56 1.76-5.9 4.49-7.47 2.85-1.65 6.68-2.38 10.23-2.38 7.32 0 15.45 3.92 19.96 9.66.45.57 1.13.92 1.85.95.73.03 1.43-.25 1.93-.78l18.97-20.01c.46-.48.71-1.14.68-1.81-.02-.67-.31-1.3-.81-1.75-2.9-2.66-6.05-4.98-9.44-6.97zm-417.71-36c-28.44 0-51.5 23.06-51.5 51.5v86c0 28.44 23.06 51.5 51.5 51.5h424c28.44 0 51.5-23.06 51.5-51.5v-86c0-28.44-23.06-51.5-51.5-51.5zm-15.5 47.5c0-6.35 5.15-11.5 11.5-11.5h2.5v117h-2.5c-6.35 0-11.5-5.15-11.5-11.5zm91.94-11.5h55.83c-20.65 11.68-32.5 33.86-32.5 57.88 0 24.27 12.6 47.29 33.49 59.12h-55.65c12.43-5.92 21.94-16.81 21.94-32.85 0-13.51-8.65-24.75-20.71-29.38 9.51-5.25 15.66-14.55 15.66-26.3 0-10.06-4.07-17.87-10.5-23.44-2.27-1.96-4.82-3.63-7.56-5.03zm125.65 57.88c0 19.26-13.69 35.78-32.83 35.78-19.52 0-32.64-16.88-32.64-35.78 0-18.95 13.79-35.08 32.64-35.08 19.2 0 32.83 16.41 32.83 35.08zm-141.3-25.4c0 4.06-1.76 6.63-4.39 8.31-2.77 1.76-6.64 2.58-10.68 2.58h-13.51v-20.4h12.12c3.91 0 8.21.47 11.45 1.98 1.58.74 2.82 1.68 3.65 2.84.82 1.14 1.36 2.64 1.36 4.69zm4 48.89c0 4.58-2.25 7.47-5.66 9.36-3.56 1.96-8.31 2.76-12.72 2.76h-14.2v-23.19h14.03c4.55 0 9.35.52 12.94 2.23 1.76.84 3.13 1.92 4.07 3.29.93 1.35 1.54 3.13 1.54 5.55z" fill="#ffe600" stroke="#333" stroke-linecap="round" stroke-linejoin="round" stroke-width="5"/><path d="m2261 3080.11v75.89c0 27.06-21.94 49-49 49h-424c-19.6 0-36.51-11.5-44.34-28.13l31.63-5.91c2.39 1.9 5.42 3.04 8.71 3.04h5v-5.61l93.79-17.54c-5.48 13.74-20.13 21.5-35.38 23.15h85.55c-14.1-4.75-25.38-14.32-32.79-26.4l33.73-6.31c5.97 5.76 13.95 9.37 23.36 9.37 13.95 0 25.08-8.07 30.89-19.52l35.21-6.58c-3.99 22.55-19.05 41.78-41.79 49.44h66.77c-8.66-2.82-16.78-7.52-23.11-14.12l19.48-19.83c7.87 9.67 33.86 21.72 42.29 5.91 7.52-14.1-11.79-20.03-22.27-23.24-3.58-1.1-7.1-2.35-10.49-3.94l47.67-8.92c9.52 5.45 16.58 13.07 16.58 26.71 0 17.1-10.07 31.54-25.93 37.43h49.89c-8.67-2.82-16.79-7.52-23.12-14.12l19.49-19.83c8.26 10.16 43.67 23.39 43.67-.35 0-10.39-12.53-13.89-21.58-16.42-11.54-3.22-23.48-8.46-30.34-18.78l35.49-6.63c7.13 3.03 16.11 4.33 21.3 6.33 14.09 5.06 25.23 16.66 25.23 32.37 0 17.1-10.06 31.54-25.93 37.43h29.34c7.73 0 14-6.27 14-14v-74.09z" fill="#000" fill-opacity=".1"/></svg>