<svg xmlns="http://www.w3.org/2000/svg" width="4000" height="4000" fill="none" xmlns:v="https://vecta.io/nano"><g fill="#5252cc" stroke="#333" stroke-width="5"><path d="M1967 2957h66l38.74 290.53c.8 6-1.16 12.02-5.3 16.4l-51.92 54.76c-7.88 8.32-21.14 8.32-29.03 0l-51.9-54.76c-4.16-4.38-6.1-10.4-5.3-16.4L1967 2957z"/><path d="M1937 2894h126l-30 63h-66l-30-63z"/></g><g fill="#f26d6d"><path d="M1975.27 3307.9l-41.3-43.55 123.54-123.54 9.98 74.87-92.22 92.22zm-39.32-118.03l13.06-97.9 90-90 9.98 74.87-113.03 113.03zm75.5-232.87l-51.3 51.3 6.84-51.3h44.45z" stroke="#333" stroke-width="5" stroke-linejoin="round"/><path d="M1951.32 2924.07l14.36-30.07h58.73l-30.08 63H1967l-15.68-32.93z" stroke="#333" stroke-width="5"/></g><path d="M1937 2894h30.5l27.97 63-36.2 271.53c-.8 6 1.15 12.02 5.3 16.4l51.9 54.76c2.95 3.1 6.63 5.05 10.5 5.84l-12.48 13.16c-7.88 8.32-21.14 8.32-29.03 0l-51.9-54.76c-4.16-4.38-6.1-10.4-5.3-16.4L1967 2957l-30-63z" fill="#000" fill-opacity=".3"/></svg>