<svg fill="none" height="4000" viewBox="0 0 4000 4000" width="4000" xmlns="http://www.w3.org/2000/svg"><g stroke="#333" stroke-width="5"><path d="m1967 2957h66l38.74 290.53c.79 5.99-1.16 12.02-5.31 16.4l-51.92 54.76c-7.88 8.32-21.14 8.32-29.03 0l-51.91-54.76c-4.16-4.38-6.11-10.41-5.31-16.4z" fill="#5252cc"/><path d="m1937 2894h126l-30 63h-66z" fill="#5252cc"/><g fill="#5bdd9c"><path d="m1975.27 3307.91-41.3-43.55 123.54-123.54 9.98 74.87z" stroke-linecap="round" stroke-linejoin="round"/><path d="m1935.95 3189.87 13.06-97.91 89.99-89.99 9.98 74.87z" stroke-linecap="round" stroke-linejoin="round"/><path d="m2011.45 2957-51.29 51.29 6.84-51.29z" stroke-linecap="round" stroke-linejoin="round"/><path d="m1951.32 2924.07 14.36-30.07h58.73l-30.08 63h-27.33z"/></g></g><path d="m1937 2894h30.5l27.97 63-36.21 271.53c-.8 5.99 1.15 12.02 5.31 16.4l51.91 54.76c2.95 3.1 6.63 5.05 10.51 5.84l-12.48 13.16c-7.88 8.32-21.14 8.32-29.03 0l-51.91-54.76c-4.16-4.38-6.11-10.41-5.31-16.4l38.74-290.53z" fill="#000" fill-opacity=".3"/></svg>