<svg fill="none" height="4000" viewBox="0 0 4000 4000" width="4000" xmlns="http://www.w3.org/2000/svg"><path d="m2258.89 2779.73c-4.54.99-7.48 5.2-7.18 9.84l3.42 52.95c.12 1.73.77 3.3 1.8 4.55 4.79 21.26-17.66 76.49 1.73 102.99-5.29 4.04-6.91 9.97-1.23 14.38-5.23 8.01-19.45 25.5-44.75 27.14-5.51.35-9.69 5.11-9.33 10.62l1.74 26.94c.31 4.83 4 8.64 8.62 9.27l16.37 252.81c-4.6 3.07-7.47 8.44-7.09 14.35l1.61 24.94c.58 8.82 8.19 15.51 17.01 14.94l163.65-10.6c8.82-.57 15.51-8.18 14.93-17l-1.61-24.95c-.38-5.91-3.93-10.86-8.88-13.31l-16.37-252.81c4.5-1.22 7.66-5.47 7.35-10.3l-1.74-26.94c-.36-5.52-5.12-9.69-10.63-9.34-25.3 1.64-41.66-13.86-47.88-21.13 5.07-5.11 2.7-10.79-3.07-14.1 15.81-28.79-13.57-80.66-11.56-102.36.85-1.37 1.3-3.01 1.18-4.74l-3.42-52.96c-.3-4.63-3.77-8.42-8.4-8.82-18.76-1.61-37.87-.38-56.27 3.64z" fill="#eab342"/><path d="m2394.25 3040.95-179.63 11.63 15 231.51 179.62-11.63z" fill="#1e1e1e"/><path d="m2214.62 3052.58 37.92-2.46 15 231.52-37.92 2.45z" fill="#fff" fill-opacity=".15"/><path d="m2341.89 2918.99c-1.79-27.57-17.58-60.28-16.09-76.38.85-1.37 1.3-3.01 1.18-4.74l-3.42-52.96c-.3-4.63-3.77-8.42-8.4-8.82-18.76-1.61-37.87-.38-56.27 3.64-4.54.99-7.48 5.2-7.18 9.84l3.43 52.95c.11 1.73.76 3.3 1.79 4.55 3.55 15.77-7.89 50.25-6.11 77.82 30.04-5.7 60.54-7.68 91.07-5.9z" fill="#1e1e1e"/><path d="m2276.93 2776.71 4.15 64.13c.11 1.73.77 3.3 1.79 4.55 3.46 15.34-7.27 48.37-6.22 75.53-8.64 1.02-17.25 2.34-25.83 3.97-1.78-27.57 9.66-62.05 6.11-77.82-1.03-1.25-1.68-2.82-1.79-4.55l-3.43-52.95c-.3-4.64 2.64-8.85 7.18-9.84 5.95-1.3 11.98-2.31 18.04-3.02z" fill="#fff" fill-opacity=".15"/><path d="m2374.33 3336.85 30.93-2c8.82-.57 15.51-8.18 14.94-17l-1.62-24.95c-.38-5.91-3.93-10.86-8.88-13.31l-16.37-252.81c4.5-1.22 7.66-5.47 7.35-10.3l-1.74-26.94c-.36-5.52-5.12-9.69-10.63-9.34-25.3 1.64-41.66-13.86-47.88-21.13 5.07-5.11 2.7-10.79-3.07-14.1 15.81-28.79-13.57-80.66-11.56-102.36.85-1.37 1.3-3.01 1.18-4.74l-3.42-52.96c-.3-4.63-3.83-9.42-8.46-9.82-6.75-.58-15.3-1.1-31.1-.58 5.82.13 8.32 7.77 8.62 12.41l3.43 52.95c.11 1.74-.34 3.37-1.19 4.74-2.01 21.7 27.37 73.58 11.57 102.36 5.76 3.32 8.14 8.99 3.07 14.1 6.22 7.27 22.57 22.77 47.88 21.14 5.51-.36 10.26 3.82 10.62 9.33l1.75 26.94c.31 4.83-2.86 9.08-7.35 10.3l16.37 252.81c4.95 2.45 8.49 7.4 8.87 13.31l1.62 24.95c.57 8.82-6.11 16.43-14.93 17z" fill="#000" fill-opacity=".3"/><path d="m2326.98 2837.87c.12 1.73-.33 3.37-1.18 4.74-2.01 21.7 27.37 73.57 11.56 102.36 5.77 3.31 8.14 8.99 3.07 14.1 6.22 7.27 22.58 22.77 47.88 21.13 5.51-.35 10.27 3.82 10.63 9.34l1.74 26.94c.31 4.83-2.85 9.08-7.35 10.3l16.37 252.81c4.95 2.45 8.5 7.4 8.88 13.31l1.61 24.95c.58 8.82-6.11 16.43-14.93 17l-163.65 10.6c-8.82.57-16.43-6.12-17.01-14.94l-1.61-24.94c-.38-5.91 2.49-11.28 7.09-14.35l-16.37-252.81c-4.62-.63-8.31-4.44-8.62-9.27l-1.74-26.94c-.36-5.51 3.82-10.27 9.33-10.62 25.3-1.64 39.52-19.13 44.75-27.14-5.68-4.41-4.06-10.34 1.23-14.38-19.39-26.5 3.06-81.73-1.73-102.99-1.03-1.25-1.68-2.82-1.8-4.55l-3.42-52.95c-.3-4.64 2.64-8.85 7.18-9.84 18.4-4.02 37.51-5.25 56.27-3.64 4.63.4 8.1 4.19 8.4 8.82z" stroke="#333" stroke-width="5"/><path d="m2398.6 3259.89c-56.82.05-92.99-68.11-58.59-115.27-15.92-45.21 18.08-95.39 66.66-96.55 56-1.34 88.36 58.5 82.5 109.13-5.48 47.31-37.53 102.65-90.57 102.69z" fill="#f7c394" stroke="#333" stroke-miterlimit="10" stroke-width="5"/><path d="m2489.17 3157.2c-6.78 58.57-54.37 126.8-125.37 93.8 68.82-8.8 117-125.5 83.11-191.84 5.39 3.84 13.89 8.34 27.6 27.61 12.29 21.73 17.7 46.2 14.66 70.43z" fill="#000" fill-opacity=".1"/></svg>