<svg xmlns="http://www.w3.org/2000/svg" width="4000" height="4000" fill="none" xmlns:v="https://vecta.io/nano"><path d="M2258.9 2779.73c-4.54 1-7.48 5.2-7.18 9.84l3.42 52.95c.12 1.73.77 3.3 1.8 4.55 4.8 21.26-17.66 76.5 1.73 103-5.3 4.04-6.9 9.97-1.23 14.38-5.23 8-19.45 25.5-44.75 27.14-5.5.35-9.7 5.1-9.33 10.62l1.74 26.94c.3 4.83 4 8.64 8.62 9.27l16.37 252.8c-4.6 3.07-7.47 8.44-7.1 14.35l1.6 24.94c.58 8.82 8.2 15.5 17 14.94l163.65-10.6c8.82-.57 15.5-8.18 14.93-17l-1.6-24.95c-.38-5.9-3.93-10.86-8.88-13.3l-16.37-252.8c4.5-1.22 7.66-5.47 7.35-10.3l-1.74-26.94c-.36-5.52-5.12-9.7-10.63-9.34-25.3 1.64-41.66-13.86-47.88-21.13 5.07-5.1 2.7-10.8-3.07-14.1 15.8-28.8-13.57-80.66-11.56-102.36.85-1.37 1.3-3 1.18-4.74l-3.42-52.96c-.3-4.63-3.77-8.42-8.4-8.82-18.76-1.6-37.87-.38-56.27 3.64z" fill="#eab342"/><path d="M2394.25 3040.95l-179.63 11.63 15 231.5 179.62-11.63-15-231.5z" fill="#1e1e1e"/><path d="M2214.62 3052.58l37.92-2.46 15 231.52-37.92 2.45-15-231.5z" fill="#fff" fill-opacity=".15"/><path d="M2341.9 2919c-1.8-27.57-17.58-60.28-16.1-76.38.85-1.37 1.3-3 1.18-4.74l-3.42-52.96c-.3-4.63-3.77-8.42-8.4-8.82-18.76-1.6-37.87-.38-56.27 3.64-4.54 1-7.48 5.2-7.18 9.84l3.43 52.95c.1 1.73.76 3.3 1.8 4.55 3.55 15.77-7.9 50.25-6.1 77.82 30.04-5.7 60.54-7.68 91.07-5.9z" fill="#1e1e1e"/><path d="M2276.93 2776.7l4.15 64.13c.1 1.73.77 3.3 1.8 4.55 3.46 15.34-7.27 48.37-6.22 75.53-8.64 1.02-17.25 2.34-25.83 3.97-1.78-27.57 9.66-62.05 6.1-77.82-1.03-1.25-1.68-2.82-1.8-4.55l-3.43-52.95c-.3-4.64 2.64-8.85 7.18-9.84 5.95-1.3 11.98-2.3 18.04-3.02z" fill="#fff" fill-opacity=".15"/><path d="M2374.33 3336.85l30.93-2c8.82-.57 15.5-8.18 14.94-17l-1.62-24.95c-.38-5.9-3.93-10.86-8.88-13.3l-16.37-252.8c4.5-1.22 7.66-5.47 7.35-10.3l-1.74-26.94c-.36-5.52-5.12-9.7-10.63-9.34-25.3 1.64-41.66-13.86-47.88-21.13 5.07-5.1 2.7-10.8-3.07-14.1 15.8-28.8-13.57-80.66-11.56-102.36.85-1.37 1.3-3 1.18-4.74l-3.42-52.96c-.3-4.63-3.83-9.42-8.46-9.82-6.75-.58-15.3-1.1-31.1-.58 5.82.13 8.32 7.77 8.62 12.4l3.43 52.95c.1 1.74-.34 3.37-1.2 4.74-2 21.7 27.37 73.58 11.57 102.36 5.76 3.32 8.14 9 3.07 14.1 6.22 7.27 22.57 22.77 47.88 21.14 5.5-.36 10.26 3.82 10.62 9.33l1.75 26.94c.3 4.83-2.86 9.08-7.35 10.3l16.37 252.8c4.95 2.45 8.5 7.4 8.87 13.3l1.62 24.95c.57 8.82-6.1 16.43-14.93 17z" fill="#000" fill-opacity=".3"/><g stroke="#333" stroke-width="5"><path d="M2326.98 2837.87c.12 1.73-.33 3.37-1.18 4.74-2 21.7 27.37 73.57 11.56 102.36 5.77 3.3 8.14 9 3.07 14.1 6.22 7.27 22.58 22.77 47.88 21.13 5.5-.35 10.27 3.82 10.63 9.34l1.74 26.94c.3 4.83-2.85 9.08-7.35 10.3l16.37 252.8c4.95 2.45 8.5 7.4 8.88 13.3l1.6 24.95c.58 8.82-6.1 16.43-14.93 17l-163.65 10.6c-8.82.57-16.43-6.12-17-14.94l-1.6-24.94c-.38-5.9 2.5-11.28 7.1-14.35l-16.37-252.8c-4.62-.63-8.3-4.44-8.62-9.27l-1.74-26.94c-.36-5.5 3.82-10.27 9.33-10.62 25.3-1.64 39.52-19.13 44.75-27.14-5.68-4.4-4.06-10.34 1.23-14.38-19.4-26.5 3.06-81.73-1.73-103-1.03-1.25-1.68-2.82-1.8-4.55l-3.42-52.95c-.3-4.64 2.64-8.85 7.18-9.84 18.4-4.02 37.5-5.25 56.27-3.64 4.63.4 8.1 4.2 8.4 8.82l3.42 52.96zm0 0z"/><path d="M2398.6 3259.9c-56.82.05-93-68.1-58.6-115.27-15.92-45.2 18.08-95.4 66.66-96.55 56-1.34 88.36 58.5 82.5 109.13-5.48 47.3-37.53 102.65-90.57 102.7z" fill="#f7c394" stroke-miterlimit="10"/></g><path d="M2489.17 3157.2c-6.78 58.57-54.37 126.8-125.37 93.8 68.82-8.8 117-125.5 83.1-191.84 5.4 3.84 13.9 8.34 27.6 27.6 12.3 21.73 17.7 46.2 14.66 70.43z" fill="#000" fill-opacity=".1"/></svg>