<svg xmlns="http://www.w3.org/2000/svg" width="4001" height="4000" fill="none" xmlns:v="https://vecta.io/nano"><path fill-rule="evenodd" d="M2088.43 261.433c-41.5 207.41 157.63 490.34 29.5 675.43 5.64 18.416 26.18 47.077 5.33 61.076-10.7 122.62-7.12 244.68 23.32 357.78 122.5-147.84 20.82-382.976 104.38-578.235 29.77 272.135 77.95 414.625 119.1 510.375 131.12-133.04-80.95-771.193-16.63-876.814 10.4-2.098 78.86 164.668 107.87 179.98 20.76 10.976 3.56 17.14-10.58 23.8-64.08 30.21 119.2 338.933 150.1 407.754 21.94 48.97 158.67 491.5 80.3 511.23-18.3 4.6-39.7-62.48-87.2-66.16-83.57-6.46-49.86 92.22-28.4 133.96 50.38 98.04 193.25 192.08 23.88 168.2-8.5 85.9 20.77 137.28 134.83 101.42-36.24 64.1-91.72 119.56-131.75 154.75 3.77 37.2 27.03 95.58 51.58 32.8 21.98 52.47 33.98 118.8-23.05 151.48-6.1 45.46-16.33 103.4 34.48 54 25 59.67 4.23 111.68-52.77 138.97-13.27 39.22-39.33 109.4 17.03 62.2 24.28 58 22.38 103-38.9 126.06l-.2.64c-12.95 39.35-49.82 116 8.98 66.4 50.26 128.26-87.8 149.4-173.44 194.1 8.86 15.22 16.8 30.54 23.77 45.93 57.5-59.7 125.47-97.5 202.18-85.67 73.34 11.36 143.6 66.2 159.73 140.6 28.33 130.72-94.1 236.2-204.37 142.35-25.02-20.8 7.92-59.46 32.42-38.06 75.64 63.33 141.2-10.06 123.05-93.72-11.75-54.23-65.6-93.58-118.5-101.77-64.12-9.9-123.56 32.3-173.5 92.17 13.5 45.22 18.6 90.7 14.7 135.6 3.96 7 7.15 14.53 9.52 22.35 21.06-1.64 41.9-3.85 62.37-6.64 144.1 103.8 362.54 10.67 551.6 152.7-106.68 84.76-355.97 38.24-484.82 53.45-40.56 4.8-74.1 38-114.93 38.08 43.98-76.9-83.67-10.03-120.36-13.43 57.64-76.1-39.03-1.74-99.7-7.97 27.47-47.98-44.25-39.6-67.54-18.77 10 40.96 15.88 77.96 17.55 101.8 50.28 6.26 103.67 24.53 115.86 69.55 28.1 103.7-116.96 62.64-165.97 62.64-38.4 0-57.02 12.15-89.02 12.15-56.52 0-89.96-70-49.47-111.14-1.14-18.95-3.1-36.97-5.68-54.1-22.84 2.75-46.83 3-69.76.45-2.55 17-4.5 34.86-5.62 53.65 40.5 41.12 7.06 111.14-49.47 111.14-32 0-50.6-12.15-89-12.15-23.02 0-37.4 3.33-51.14 6.5-48.8 11.28-134.1 1.94-114.84-69.14 10.08-37.2 48.26-56.12 89.58-65.12-29.62-6.6-79.7-63.2-67.43-94.37.55-1.38 8.3 10.2 17.8 19.52 2.82-7.83 3.62-18.62 12.62-22.8-.6-15.1-35.78-21.34-33.1-48.82 1.6-16.57 8.7-34.42 21.3-49.33l-.72-14.87-23.97-1.68c-7.85 30.63-34.9 56.17-69.68 56.14-39.8-.03-67.77-31.18-81.58-66.72l-33.3-2.33c-5.44 23.03-40.14 20.6-42.33-2.96l-40.37-2.82c-9.37 42.72-53.82 9.38-59.36-19.18-20.1-1.83-15.97-60.84 4.18-59.86 6.92-17.13 51.36-61.58 61.46-10.74l40.37 2.82c5.45-23.02 40.14-20.6 42.33 2.96l25.62 1.8c1.78-4.4 3.83-8.7 6.15-12.78-6.9-78.98 14.13-159.78 59.66-237.78-85.67-44.76-223.9-65.9-173.63-194.2 58.53 49.36 21.88-26.73 8.98-65.95l-.38-1.15c-61.2-23.06-62.94-68.15-38.72-126 56.36 47.18 30.12-23.18 16.84-62.3-56.9-27.32-77.52-79.3-52.58-138.87 50.84 49.4 40.55-8.6 34.4-54.04-56.98-32.7-44.93-99.03-22.98-151.44 24.58 62.87 47.88 4.55 51.62-32.77-40.04-35.18-95.54-90.67-131.8-154.77 109.56 34.44 140.9-11.6 135.66-91.42-165.98 27.57-17.63-81.86 25.2-169.3 20.73-42.3 52.2-141.2-31.1-133.47-47.43 4.4-67.47 71.78-85.86 67.47-12.3-2.88-12.17-35-12.14-37.85 1.92-163.15 17.86-323.38 82.16-474.58 29.6-69.42 206.77-380.505 141.9-409.834-14.25-6.416-31.56-12.235-11.1-23.63 28.2-15.476 92.85-183.707 104.3-181.6 80.55 116.747-134.5 746.944 2.18 878.154 41.8-95.8 91.6-238.53 122.08-517.255 82.97 193.89-16.68 427.095 101.84 575.105 31.8-112.3 38.5-232.4 26.22-353.312-20.65-13.758 1-45.874 5.9-64.304-127.2-186.147 61.37-464.727 14.15-672.45 154.55 118.957 12.24 393.204 81.3 554.91 10.77-26.272 31.62-20.508 41.46 2.887 69.18-163.05-85.87-436.138 68.07-558.886zM1663.66 3113l20.2 1.4c-7.07-62 4.7-127.16 17.85-187.46l-11.14-8.4c-30.54 53.52-45.4 107.68-41.42 158.6 7.82 10.4 12.96 22.8 14.52 35.85zm101.74 173.57c7.04 13.43 18.16 24.54-3.45 48.5 14.67 21.1-11.73 37.15 10.64 60.9 2.67-23.03 8.06-53.36 16.08-86.23-8.14-7.36-15.9-15.1-23.27-23.16zm544.66-367.7l-11.38 8.58c12.56 57.56 18.83 110.04 19.48 151.42 9.47-18.8 19.66-37.67 30.53-56.22-5.72-34.15-18.88-69.1-38.63-103.78z" fill="#31383f" stroke="#333" stroke-width="5"/></svg>