<svg xmlns="http://www.w3.org/2000/svg" width="210" height="360" fill="none" xmlns:v="https://vecta.io/nano"><path fill-rule="evenodd" d="M112.94 23.5288c-3.736 18.667 14.186 44.1307 2.653 60.7887.51 1.6575 2.357 4.237.48 5.497-.963 11.0356-.64 22.0216 2.1 32.1996 11.024-13.305 1.875-34.467 9.395-52.0405 2.678 24.4918 7.015 37.3155 10.72 45.9345 11.8-11.974-7.285-69.408-1.496-78.914.936-.1888 7.097 14.82 9.708 16.1982 1.868.988.32 1.5427-.952 2.142-5.767 2.7188 10.727 30.504 13.508 36.6975 1.975 4.4074 14.28 44.2343 7.228 46.0103-1.646.413-3.573-5.623-7.848-5.954-7.52-.58-4.488 8.3-2.556 12.056 4.534 8.825 17.392 17.288 2.15 15.14-.766 7.732 1.87 12.356 12.135 9.13-3.262 5.768-8.255 10.76-11.858 13.927.34 3.347 2.433 8.602 4.643 2.95 1.977 4.723 3.058 10.692-2.075 13.634-.55 4.1-1.47 9.305 3.103 4.86 2.25 5.37.38 10.05-4.75 12.506-1.194 3.53-3.54 9.845 1.533 5.6 2.185 5.218 2.014 9.27-3.5 11.345l-.02.058c-1.165 3.54-4.483 10.438.81 5.975 4.523 11.543-7.9 13.445-15.6 17.47.798 1.37 1.512 2.748 2.14 4.133 5.176-5.373 11.293-8.776 18.197-7.7 6.6 1.022 12.924 5.957 14.376 12.653 2.55 11.766-8.47 21.258-18.394 12.812-2.25-1.87.713-5.35 2.918-3.425 6.808 5.7 12.71-.905 11.075-8.435-1.058-4.88-5.904-8.422-10.666-9.16-5.77-.89-11.12 2.908-15.615 8.296 1.214 4.07 1.674 8.164 1.32 12.204.357.63.644 1.308.857 2.01 1.896-.147 3.772-.345 5.614-.597 12.97 9.343 32.628.96 49.643 13.744-9.6 7.63-32.036 3.44-43.633 4.81-3.65.43-6.67 3.42-10.344 3.427 3.96-6.92-7.53-.903-10.832-1.21 5.188-6.85-3.513-.157-8.972-.717 2.472-4.318-3.983-3.564-6.08-1.7.9 3.687 1.43 7.017 1.58 9.163 4.525.564 9.33 2.208 10.428 6.26 2.53 9.333-10.526 5.64-14.937 5.64-3.457 0-5.132 1.093-8.012 1.093-5.087 0-8.097-6.3-4.453-10.003a54.545 54.545 0 0 0-.511-4.868c-2.055.247-4.214.27-6.278.04-.23 1.53-.404 3.137-.506 4.828 3.645 3.7.635 10.003-4.452 10.003-2.8798 0-4.5547-1.093-8.0115-1.093-2.0715 0-3.367.3-4.6022.584-4.393 1.016-12.0687.175-10.3353-6.223.9066-3.346 4.3428-5.05 8.0615-5.86-2.666-.594-7.173-5.687-6.0684-8.494.0492-.124.7462.92 1.601 1.757.2542-.705.3262-1.676 1.136-2.05-.054-1.358-3.22-1.92-2.98-4.393.145-1.492.7828-3.098 1.9178-4.44l-.0644-1.34-2.1575-.15c-.7065 2.757-3.1407 5.056-6.2715 5.053-3.5814-.003-6.0992-2.806-7.3418-6.005l-2.997-.21c-.4896 2.073-3.6133 1.854-3.8097-.266l-3.6335-.255C50.5 290.5 46.5 287.5 46 284.93c-1.8082-.165-1.437-5.475.3765-5.387C47 278 51 274 51.9088 278.575l3.6336.254c.5-2.072 3.6128-1.853 3.8096.267l2.3057.16a9.658 9.658 0 0 1 .5535-1.15c-.62-7.108 1.2712-14.38 5.3694-21.4-7.7107-4.028-20.1517-5.93-15.6268-17.478 5.2673 4.442 1.9695-2.406.808-5.935l-.0342-.104c-5.5074-2.076-5.6644-6.134-3.4846-11.34 5.073 4.247 2.7105-2.085 1.5158-5.607-5.122-2.46-6.977-7.138-4.7324-12.5 4.5756 4.448 3.6495-.774 3.097-4.863-5.128-2.943-4.044-8.912-2.0683-13.63 2.2125 5.66 4.3096.4 4.6456-2.95-3.6035-3.167-8.5984-8.16-11.861-13.93 9.8605 3.1 12.6812-1.044 12.2096-8.227-14.938 2.48-1.5872-7.368 2.2686-15.238 1.8658-3.807 4.697-12.708-2.8-12.013-4.2687.396-6.0723 6.46-7.7274 6.073-1.107-.26-1.0953-3.15-1.0926-3.407.173-14.683 1.608-29.103 7.3944-42.712 2.6638-6.2474 18.61-34.245 12.77-36.8847-1.282-.5774-2.8398-1.101-.998-2.1267 2.5387-1.3928 8.3564-16.5336 9.386-16.344C78.5 48 59.1446 104.718 71.447 116.527c3.7607-8.623 8.2438-21.4684 10.9876-46.5535 7.4672 17.45-1.502 38.4385 9.1654 51.7595 2.8617-10.107 3.4642-20.917 2.36-31.798-1.8592-1.2383.0883-4.1287.5313-5.7873-11.4474-16.7533 5.5238-41.8255 1.2742-60.5207 13.9096 10.7062 1.1012 35.3884 7.3156 49.942.97-2.3646 2.846-1.8458 3.73.2597 6.226-14.6745-7.7277-39.2523 6.127-50.2997zM74.7098 280.17l1.8168.127c-.636-5.58.4226-11.445 1.6062-16.87l-1.0027-.756c-2.7486 4.817-4.086 9.692-3.7273 14.273.7037.936 1.166 2.052 1.307 3.227zm9.1564 15.62c.6338 1.21 1.6338 2.21-.31 4.365 1.321 1.9-1.0552 3.344.9576 5.48.241-2.073.7255-4.802 1.4475-7.76a30.811 30.811 0 0 1-2.0941-2.085zm49.0188-33.093l-1.024.772c1.13 5.18 1.695 9.904 1.754 13.628.852-1.69 1.77-3.4 2.747-5.06-.515-3.073-1.7-6.22-3.477-9.34z" fill="#31383f"/></svg>