<svg xmlns="http://www.w3.org/2000/svg" xmlns:xlink="http://www.w3.org/1999/xlink" width="210" height="360" fill="none" xmlns:v="https://vecta.io/nano"><style><![CDATA[.B{fill:#000}.C{stroke-width:.45}.D{stroke:#333}.E{stroke:#1a2b3a}.F{fill-opacity:.25}.G{stroke-miterlimit:10}.H{fill-opacity:.3}.I{fill:#7f6145}.J{fill-opacity:.1}.K{stroke-width:.27}.L{fill-opacity:.15}.M{fill:#f7c394}.N{fill:#363e44}.O{fill-rule:evenodd}.P{fill:#405163}.Q{fill:#3f3f3f}.R{fill-opacity:.5}.S{fill-opacity:.2}.T{fill:#384049}.U{fill:#454f56}.V{fill:#313c51}.W{fill:#9edef6}.X{fill:#667991}]]></style><path d="M115.36 296.158c-3.145-.474-1.953-4.835.65-4.454 4.393.642 11.687-.846 13.564-5.583 5.7-14.41 17.39-35.4 33.198-32.96 6.6 1.022 12.924 5.957 14.376 12.653 1.235 5.703-.542 13.516-6.618 15.7-4.03 1.44-8.633-.213-11.776-2.887-.94-.78-1.075-2.25-.275-3.2.793-.93 2.264-1.047 3.193-.235.04.032 3.93 3.298 7.334 2.075 3.856-1.384 4.48-7.106 3.74-10.5-1.058-4.88-5.904-8.422-10.666-9.16-12.832-1.98-23.584 19.224-27.472 29.538-3.144 8.34-12.097 10.1-19.25 9.013z" class="C D G I"/><path d="M175.797 266.897c.995 4.593.106 10.3-3.404 13.688 4.627-3.033 5.856-9.68 4.754-14.768-1.452-6.696-7.775-11.632-14.376-12.654-5.963-.92-11.602 1.132-16.417 5.362 10.27-7.268 26.474-5.32 29.443 8.372zm-6.213 10.128c-2.432 2.83-6.803 1.374-9.26-.74a2.258 2.258 0 0 0-.984-.487 2.268 2.268 0 0 0-1.098.037c.358-.656 1.048-1.1 1.794-1.16a2.25 2.25 0 0 1 1.638.529c1.986 1.756 5.386 3.166 7.9 1.822z" class="B S"/><path d="M67.8307 283.23c3.285 0 5.9094-2.932 5.5837-6.158-.4878-5.716 1.6758-11.897 5.9355-17.855 3.875-5.422 8.029-8.393 4.8338-11.897s-10.4006.353-13.986 5.355c-5.914 8.273-8.747 17.02-7.9767 25.53.2874 2.833 2.3246 5.024 5.6096 5.024z" class="C D G I"/><path d="M64.7784 275.325c-.0373-10.105 8.065-25 17.56-29.175-11.7-1.9-22.05 21.015-20.044 31.66.65-1.06 1.774-2.095 2.484-2.485z" class="B L"/><path d="M101.344 310.186c.45-7.837 2.466-13.9 4.246-18.613s3.817-13.023-3.83-14.942c-10.9347-2.743-16.9478 22.87-17.3968 30.685-.264 4.597 3.3137 9.93 7.956 10.196 4.273.208 8.7698-2.86 9.0258-7.326z" class="C D G I"/><path d="M84.2533 307.305c4.635-.63 13.32-.63 16.9647 3.06l.15-1.353c-3.7947-3.327-12.4347-3.552-16.922-2.922-.024.297-.168.912-.1926 1.215zm1.4407-8.055c4.2984 3.986 9.7992 6.222 16.02 7.065.052-.45.163-1.096.225-1.53-6.174-.8-11.538-3.384-15.84-7.3-.18.54-.3258 1.374-.405 1.755z" class="B L"/><path d="M108.656 310.186c-.45-7.837-2.466-13.9-4.246-18.613s-3.817-13.023 3.83-14.942c10.935-2.743 16.948 22.87 17.397 30.685.264 4.597-3.314 9.93-7.956 10.196-4.273.208-8.77-2.86-9.026-7.326z" class="C D G I"/><path d="M125.747 307.305c-4.635-.63-13.32-.63-16.965 3.06l-.15-1.353c3.795-3.327 12.435-3.552 16.922-2.922.024.297.168.912.193 1.215zm-1.44-8.055c-4.298 3.986-9.8 6.222-16.02 7.065-.052-.45-.163-1.096-.225-1.53 6.174-.8 11.538-3.384 15.84-7.3.18.54.326 1.374.405 1.755z" class="B L"/><path d="M142.17 283.23c-3.285 0-5.91-2.932-5.583-6.158.487-5.716-1.676-11.897-5.936-17.855-3.875-5.422-8.03-8.393-4.834-11.897s10.4.353 13.986 5.355c5.914 8.273 8.747 17.02 7.977 25.53-.287 2.833-2.325 5.024-5.6 5.024z" class="C D G I"/><path d="M145.222 275.325c.037-10.105-8.065-25-17.56-29.175 11.7-1.9 22.05 21.015 20.044 31.66-.65-1.06-1.774-2.095-2.484-2.485z" class="B L"/><path d="M105 229.32c13.86 0 19.8 12.15 23.4 22.14s5.22 19.8 5.22 26.28c0 13.68-12.48 27.49-28.62 27.63-15.798.136-28.62-13.95-28.62-27.63 0-6.48 1.593-16.336 5.22-26.28 3.6-10 9.54-22.14 23.4-22.14z" class="C D G I"/><path d="M105 305.37c-15.8105.143-29.7-14.13-28.62-30.33.9 13.32 13.0635 25.963 28.62 25.83s27.72-12.5 28.62-25.83c1.08 16.2-12.8 30.186-28.62 30.33z" class="B L"/><path d="M105 240.48c9.36 0 14.4 6.12 15.66 11.52 3.104 13.304 5.76 24.66.36 31.5s-12.145 7.38-16.02 7.38c-4.28 0-10.6198-.54-16.0198-7.38s-2.9195-17.445.36-31.5c1.26-5.4 6.3-11.52 15.6598-11.52z" class="C D G M"/><g class="B"><path d="M105 290.88c-12.2402 0-20.16-8.46-19.17-19.44.36 10.35 8.64 17.1 19.17 17.1s18.8-6.75 19.17-17.1c1 10.98-6.93 19.44-19.17 19.44z" class="J"/><path d="M75.5766 265.734c-3.4744-2.273-6.8032-4.016-9.8876-5.44 15.64-33.203 62.55-34.092 78.616-.012-3.085 1.418-6.416 3.155-9.895 5.423-.904-2.036-2.07-4.074-3.476-6.088.667 2.54 1.204 5.005 1.617 7.342-5.25 3.665-9.89 8.588-15.4 15.468 0 0-.63-7.11-1.14-17.53-6.706.978-15.443.927-22.1652.12-.5088 10.332-1.1327 17.37-1.1327 17.37-5.465-6.835-10.069-11.74-15.2908-15.398.409-2.335.9422-4.8 1.6072-7.333-1.4006 2.01-2.5616 4.046-3.462 6.077z" class="S"/></g><path d="M56.5352 190.98c0 41.22 3.42 70.1 48.4648 70.1s48.465-36.405 48.465-70.1H56.5352z" fill="#ffcd98" class="C D"/><path d="M56.5553 190.98c.333 38.516 5.2592 65.07 48.4447 65.07 42.807 0 48.022-32.877 48.435-65.07h.03c0 33.705-3.42 70.1-48.465 70.1s-48.4648-28.9-48.4648-70.1h.02z" class="B J"/><path d="M96.9007 320.04c2.88 0 5.6783-2.124 6.0023-5.052.82-7.4-8.491-8.072-13.5593-8.183-5.1393-.113-13.863.86-15.392 6.504-1.336 4.93 3.284 6.73 6.569 6.73s4.4-1.093 8.3685-1.093c3.457 0 5.1315 1.093 8.0115 1.093z" class="C D G M"/><path d="M96.8097 318.06c-2.88 0-4.5544-1.094-8.0115-1.094-3.9585 0-5.0835 1.094-8.3685 1.094-2.555 0-5.9177-1.09-6.6574-3.893-.6053 4.284 3.6605 5.873 6.7474 5.873 3.285 0 4.4-1.093 8.3685-1.093 3.457 0 5.1316 1.093 8.0115 1.093 3.8573 0 6.5703-3.074 5.9313-7.224-.267 3.012-3.0626 5.244-6.0213 5.244z" class="B J"/><path d="M113.1 320.04c-2.88 0-5.678-2.124-6.003-5.052-.82-7.4 8.492-8.072 13.56-8.183 5.14-.113 13.863.86 15.392 6.504 1.336 4.93-3.284 6.73-6.57 6.73s-4.4-1.093-8.37-1.093c-3.457 0-5.13 1.093-8.01 1.093z" class="C D G M"/><g class="B"><path d="M113.19 318.06c2.88 0 4.555-1.094 8.012-1.094 3.958 0 5.083 1.094 8.368 1.094 2.555 0 5.918-1.09 6.657-3.893.606 4.284-3.66 5.873-6.747 5.873-3.285 0-4.4-1.093-8.368-1.093-3.457 0-5.132 1.093-8.012 1.093-3.857 0-6.57-3.074-5.932-7.224.267 3.012 3.063 5.244 6.022 5.244z" class="J"/><path d="M133.064 282.8c-17.04 1.88-38.8646 3.724-50.3667 4.62 1.2868 3.293 2.3952 7.155 3.352 10.546 1.4155 1.27 2.9557 2.415 4.5996 3.405.5832-.36 1.1713-.7 1.7638-1.047a21.295 21.295 0 0 1-.288 1.878c1.276.67 2.6068 1.25 3.9833 1.72.5818-1.444 1.3373-2.464 1.9363-3.6-.535-.896-.3197-1.97.078-2.895 1.5833-.72 3.1828-1.384 4.7888-2.003.103 2.155-.998 4.788-1.392 5.515 4.373-.597 15.676-5.857 16.314.238.72-.1 1.705-.355 2.8-.64 6.36-4.232 10.903-10.77 12.422-17.726zm-37.7705 24.54c-1.4014-.26-2.83-.4-4.1275-.46.5305 2.292 1.652 5.203 4.28 6.06-.2856-2.318-.3044-4.13-.1535-5.6z" class="F"/></g><path d="M140.875 293.4c-5.114.004-8.37-6.13-5.273-10.375-1.433-4.07 1.627-8.585 6-8.69 5.04-.12 7.953 5.265 7.425 9.822-.493 4.258-3.377 9.238-8.15 9.242z" class="C D G M"/><path d="M149.026 284.148c-.61 5.27-4.894 11.412-11.284 8.442 6.194-.793 10.53-11.295 7.48-17.266.485.346 1.25.75 2.484 2.485 1.106 1.956 1.593 4.158 1.32 6.34z" class="B J"/><path d="M132.15 228.15l.142-1.44c-18.174.92-36.4197.93-54.5952.03l.1412 1.445a545.687 545.687 0 0 0 54.312-.034zm-1.416 9.572l.237-1.6c-16.98 4.2-34.876 4.338-51.8784.163l-.0477-.01c.0774.414.157 1.186.2385 1.595 16.717 3.926 34.7646 3.9 51.4506-.147zm2.04-21.758l-.008-1.584c-18.472 1.357-37.0402 1.375-55.5147.043l-.0072 1.585c18.4986 1.324 37.033 1.3 55.53-.044z" fill="#3d0c0c"/><path d="M132.293 226.7c.326-3.592.472-7.195.472-10.8a546.092 546.092 0 0 1-55.5384.031c0 3.603.1465 7.204.4734 10.793 18.1746.904 36.42.895 54.593-.024zm-27.598 12.826c8.266.01 17.685-.936 26.3-3.2.484-2.633.874-5.354 1.17-8.163-18.08.9-36.2308.922-54.3127.03.2856 2.735.664 5.842 1.135 8.42 10.0125 2.167 17.292 2.944 25.7178 2.923z" fill="#fff"/><path d="M82.8096 187.918c0 7.88 10.2024 17.443 22.3204 17.34 11.17-.098 22.06-9.552 22.06-17.317 0-15.7-44.3804-15.938-44.3804-.023z" class="B J"/><path d="M82.5 186.06c0 7.88 10.3448 17.442 22.63 17.34 11.326-.098 22.37-9.552 22.37-17.317 0-6.247-13.03-18.042-22.37-17.962-8.6717.08-22.63 10.548-22.63 17.94z" class="I"/><g class="B"><path d="M82.663 184.696c4.3096 5.65 12.868 10.418 22.485 10.343 8.897-.07 17.64-4.863 22.096-10.48.168.502.256 1.01.256 1.526 0 7.764-11.043 17.218-22.37 17.316-12.2862.104-22.63-9.46-22.63-17.34a5.777 5.777 0 0 1 .1631-1.365z" class="S"/><path d="M102.3 166.76c6.75 7.3 13.17 18.597 14.04 22.86-7.99 26.518-2.52 87.4-2.52 87.4 3.006-3.76 6.565-7.16 10.215-10.143 0-47.907 11.762-115.53-21.735-100.107z" class="H"/><path d="M107.7 166.76c-6.75 7.3-13.1692 18.597-14.0404 22.86 7.9914 26.518 2.52 87.4 2.52 87.4-3.0064-3.76-6.5648-7.16-10.215-10.143.0001-47.907-11.7616-115.53 21.7354-100.107z" class="H"/></g><path d="M112.94 24.529c-1.594 1.1106-3.786 2.9403-5.08 7.8408-3.543 13.4042 3.262 28.2456-1.046 41.4588-.912-2.5932-2.76-2.6244-3.73-.2597-4.2462-13.5385 1.85-27.8735-2.026-41.1604-1.426-4.8852-3.666-6.6888-5.2897-7.7814 3.6784 16.1825-4.7717 30.2755-4.3533 46.2528.1423 5.464.76 9.874 3.0792 13.2678-.555 2.0782-1.4834 4.1365-1.4997 4.6-.0138.3912.3598.7828.9682 1.188 1.0856 10.6972.368 21.8312-2.37 31.7902-10.1973-11.897-1.98-37.7995-9.1557-51.7513C80.7187 84.553 78.2248 100.98 71.4555 116.53c-7.0907-7.046-4.884-18.0742-3.402-26.849.782-4.637 4.91-51.874 3.1968-52.1892-.9906-.182-5.7606 14.5278-9.386 16.344-1.9932.9984.023 1.5683.998 2.1267 5.6874 3.257-9.9917 30.3684-12.77 36.8847-5.7865 13.609-7.2214 28.029-7.3944 42.712-.0027.257-.0144 3.148 1.0926 3.407 1.749.4 3.4743-5.678 7.7274-6.073 7.497-.694 4.6656 8.206 2.8 12.013-1.6817 3.432-11.148 13.358-9.9153 15.932.5806 1.212 5.7423-.46 7.647-.694.4716 7.184-2.35 11.328-12.2096 8.228 3.2624 5.77 8.2572 10.762 11.8607 13.93-.1992 1.992-.643 4.068-1.3178 5.9-1.8332-1.23-3.0633-2.285-3.3276-2.96-1.9755 4.718-3.06 10.687 2.068 13.63.3234 2.394.4873 5.04.4138 7.25-1.7312-1.026-2.9827-1.874-3.5106-2.388-2.2446 5.36-.3897 10.04 4.7322 12.5.8207 2.42 1.6017 5.215 1.859 7.626-1.6833-.9-2.894-1.616-3.3745-2.018-2.1797 5.205-2.023 9.263 3.4843 11.34.8913 2.708 1.8022 5.418 2.4652 8.193-1.5332-.916-2.683-1.686-3.2387-2.154-3.4308 8.756 1.4706 11.312 6.4917 13.336 8.9973 3.626 21.2823 9.296 33.3765 24.424 0 0 5.392-60.825-2.5992-87.343.522-2.554 3.91-9.48 7.4245-15.093.3425.23.5152.13 1.0874-.255 1.7528-1.183 13.2733-1.575 15.3203-.114.025.017.05.034.072.05 3.595 5.674 7.117 12.842 7.65 15.45-7.99 26.52-2.6 87.344-2.6 87.344 12.094-15.13 24.38-20.8 33.376-24.425 5.02-2.023 9.923-4.58 6.492-13.336-.557.47-1.71 1.242-3.25 2.16.66-2.778 1.57-5.484 2.462-8.194 6.557-2.655 5.683-6.127 3.5-11.345-.48.403-1.694 1.13-3.38 2.02.25-2.406 1.028-5.198 1.847-7.62 5.67-2.45 6.997-7.137 4.748-12.506-.527.513-1.778 1.36-3.51 2.387-.076-2.205.085-4.85.407-7.248 5.33-3.038 4.05-8.91 2.074-13.632-.48.694-1.5 1.727-3.316 2.953-.678-1.84-1.124-3.913-1.326-5.905 3.603-3.167 8.596-8.16 11.857-13.927-10.266 3.227-12.9-1.397-12.135-9.13 1.683.238 7.307 1.727 8.088.64 1.288-1.793-5.082-5.746-10.237-15.778-1.93-3.755-4.965-12.637 2.556-12.056 4.275.33 6.202 6.368 7.848 5.954 1.098-.276 1.028-3.164 1.02-3.415-.538-17.09-2.63-33.152-11.384-48.7386-5.76-10.2533-14.954-28.3936-10.372-30.554 1.273-.5992 2.868-1.2488.953-2.142-4.057-1.8918-8.557-16.4258-9.71-16.1982-1.65.326 3.37 47.5202 4.242 52.1316 1.643 8.6797 4.05 19.6723-2.585 26.6173-6.775-14.562-8.787-29.8528-10.88-45.7693-7.896 19.3095 1.968 37.8043-9.426 52.0663-2.62-10.04-3.016-21.366-2.068-32.2254.644-.432 1.04-.8448 1.015-1.2514-.026-.438-.896-2.2933-1.495-4.2455 2.397-3.4618 2.93-7.975 2.924-13.597 0-15.9966-8.836-29.9076-5.577-46.1916z" stroke-width=".9" class="D"/><path d="M154.435 246.96c-9.368 6.12-17.452 4.114-34.178 9.8-1.74.594 12.253-46.846 5.54-73.8 7.19 2.6 21.096-2.205 32.838-6.844-1.272 4.336.137 13.395 3.783 16.686-1.782 3.09-2.866 15.688-1.004 17.89-1.076 2.288-6.554 15.523-2.858 18.4-1.29 4.617-5.387 14.886-4.122 17.847z" class="N"/><path d="M129.05 230.67c-3.01-7.38 23.45-10.44 31.157-14.895 3.42-1.977 6.55-5.34 3.765-11.99-3.217 3.126-33.314 18.696-35.024 11.283-1.467-6.357 26.17-12.022 32.873-16.744 3.23-2.275 3.907-6.383 1.122-13.033-1.397 3.575-29.823 17.793-31.585 11.922s20.873-12.082 23.874-12.318c3.08-2.42 10.557-8.755 14.927-16.482-11.848 3.724-13.532-3.008-11.555-12.906-9.883-1.526-51.66 11.28-51.66 11.28 4.112 2.203 12.96 18.636 13.832 22.898-7.992 26.52-2.6 87.343-2.6 87.343 12.095-15.128 24.38-20.798 33.377-24.424 5.02-2.023 9.922-4.58 6.492-13.336-3.372 2.844-28.63 16.782-28.63 7.197 0-6.12 26.745-11.937 29.973-14.213s4.15-3.712 1.366-10.362c-2.736 2.3-29.136 15.08-31.705 8.78z" fill="#31383f"/><path d="M128.785 229.275c.495-4.185 10.697-6.904 18.693-9.142 5.156-1.443 10.064-2.817 12.73-4.358 2.702-1.562 5.223-4 4.788-8.222-.538 2.78-2.562 4.557-4.698 5.793-2.665 1.54-7.573 2.914-12.73 4.357-9.747 2.73-20.132 5.182-18.782 11.572zm.1-14.67c.27-4.365 11.242-7.788 19.445-10.667 5.676-1.992 11.02-3.868 13.5-5.614 2.057-1.45 3.078-3.64 2.83-6.756-.325 1.868-1.267 3.288-2.74 4.326-2.48 1.746-7.824 3.622-13.5 5.615-3.38 1.185-21.02 5.266-19.535 13.096zm2.43-18.45c.36-5.175 21.267-11.05 23.927-11.26 3.08-2.42 10.557-8.755 14.926-16.482-.608.2-1.2.355-1.744.492-4.395 6.378-10.4 11.453-13.092 13.56-3.82.3-25.727 5.86-24.017 13.7zm-22.905-29.8c-.585.135-1.456.423-1.456.423 4.426 2.592 13.084 19.107 13.83 22.887.225-.585.315-1.035.405-1.35-.744-3.642-8.32-17.017-12.78-21.96zm9.866 108.235c12.094-15.128 24.38-20.798 33.376-24.425 3.423-1.38 6.8-3.006 7.5-6.674.53 5.445-3.5 7.452-7.6 9.104-8.997 3.627-21.282 9.297-33.376 24.425-.1-1.18-.146-2.135.1-2.43zm11.104-27.82c-.315-4.68 13.557-8.866 21.717-11.48 4.03-1.292 7.3-2.34 8.302-3.046 2.24-1.58 3.37-2.755 2.92-5.55-.4 1.24-1.377 2.094-2.83 3.12-1.003.706-4.27 1.754-8.302 3.046-4.634 1.485-24.237 5.18-21.807 13.9z" class="B H"/><path d="M55.562 246.96c9.368 6.12 17.452 4.114 34.1784 9.8 1.74.594-12.2534-46.846-5.5412-73.8-7.191 2.6-21.096-2.205-32.8384-6.844 1.272 4.336-.137 13.395-3.7827 16.686 1.782 3.09 2.8656 15.688 1.0035 17.89 1.0764 2.288 6.5547 15.523 2.8584 18.4 1.2888 4.617 5.3874 14.886 4.122 17.847z" class="N"/><path d="M80.9487 230.63c3.0096-7.38-23.4504-10.44-31.157-14.895-3.42-1.977-6.5493-5.342-3.7647-11.992 3.2166 3.127 33.3136 18.697 35.0244 11.284 1.467-6.357-26.17-12.022-32.8734-16.744-3.23-2.275-3.907-6.384-1.1223-13.033 1.3977 3.575 29.8233 17.793 31.5855 11.922s-20.8728-12.082-23.8743-12.32c-3.0798-2.42-10.557-8.754-14.9265-16.48 11.8474 3.724 13.532-3.008 11.5542-12.906 9.8838-1.526 51.6605 11.28 51.6605 11.28-4.1117 2.202-12.9605 18.635-13.8317 22.898 7.991 26.518 2.5992 87.343 2.5992 87.343-12.0942-15.128-24.3792-20.798-33.3765-24.424-5.021-2.024-9.9225-4.58-6.4917-13.336 3.372 2.844 28.63 16.782 28.63 7.197 0-6.12-26.7453-11.938-29.9736-14.213s-4.1508-3.712-1.3662-10.362c2.7363 2.3 29.136 15.08 31.7052 8.78z" fill="#31383f"/><path d="M81.2118 229.23c-.495-4.185-10.697-6.904-18.6924-9.142-5.1562-1.443-10.064-2.817-12.7292-4.358-2.7026-1.562-5.2236-4-4.7883-8.223.5385 2.78 2.5617 4.558 4.6983 5.793 2.665 1.54 7.573 2.915 12.7292 4.358 9.747 2.728 20.1324 5.182 18.7824 11.572zm-.1-14.67c-.27-4.365-11.2415-7.788-19.4444-10.667-5.6763-1.992-11.02-3.868-13.5-5.615-2.0562-1.448-3.0777-3.64-2.8304-6.756.3245 1.87 1.2667 3.288 2.7404 4.326 2.4798 1.747 7.8246 3.623 13.5 5.615 3.3784 1.186 21.0194 5.267 19.5344 13.097zm-2.43-18.46c-.36-5.175-21.2667-11.052-23.9264-11.262-3.0798-2.42-10.557-8.754-14.9265-16.48.6078.2 1.19.354 1.7442.5 4.395 6.38 10.4106 11.454 13.0923 13.56 3.8194.3 25.7264 5.86 24.0164 13.7zm22.9052-29.78c.585.135 1.456.422 1.456.422-3.8212 2.047-12.8862 18.298-13.8312 22.888-.225-.585-.315-1.035-.405-1.35.7445-3.642 8.32-17.017 12.7802-21.96zM91.73 274.553c-12.094-15.128-24.38-20.798-33.3764-24.423-3.4223-1.38-6.8-3.006-7.4997-6.675-.5287 5.446 3.4906 7.453 7.5897 9.105 8.9973 3.626 21.2823 9.296 33.3765 24.424.1007-1.178.1457-2.135-.1-2.43zm-11.1042-27.818c.315-4.68-13.5565-8.866-21.7165-11.482-4.0312-1.292-7.2998-2.34-8.302-3.046-2.2405-1.58-3.3703-2.754-2.9213-5.548.4 1.238 1.3766 2.093 2.8313 3.118 1.0022.707 4.2708 1.754 8.302 3.047 4.634 1.485 24.2364 5.18 21.8064 13.9z" class="B H"/><path d="M148.122 153.72c-.22 3.28.996 15.434 4.866 19.97-4.755 3.665-20.678 9.163-24.106 8.777s-12.163-10.8-12.273-15.434c0 0 23.444-13.25 31.513-13.312z" fill="#52bacc"/><path d="M146.13 156.405c-.162 2.39 1.53 11.385 3.825 15.075-3.482 2.672-19.225 7.976-21.735 7.695s-9.595-8.277-9.675-11.655c0 0 21.676-11.07 27.585-11.115z" fill="#5fd3f8"/><path d="M61.8752 153.72c.2214 3.28-.9954 15.434-4.8654 19.97 4.7547 3.665 20.6775 9.163 24.1056 8.777s12.1635-10.8 12.2733-15.434c0 0-23.444-13.25-31.5135-13.312z" fill="#52bacc"/><path d="M63.868 156.405c.162 2.39-1.53 11.385-3.825 15.075 3.4818 2.672 19.2246 7.976 21.735 7.695s9.5946-8.277 9.675-11.655c0 0-21.676-11.07-27.585-11.115z" fill="#5fd3f8"/><path d="M110.862 171.86c1.476 3.044 6.314 14.504 7.35 16.66-.877 2.43-3.827 2.852-4.944 2.92-3.32-1.866-6.417-2.92-7.693-3.7 0-2.44-.42-15.652-.1-16.417s5.377.526 5.377.526zm-12.0544.092c-1.4157 3.066-6.0228 14.597-7.02 16.77.9252 2.42 3.8835 2.8 5.0013 2.846 3.222-1.9 6.357-3.025 7.618-3.8 0-2.627.107-15.66-.238-16.417s-5.3614.6-5.3614.6zm13.0574 19.92c-.32-.37-6.145-3.083-6.765-3.083-.72.005-6.4903 2.727-6.8026 3.103-.0063.187 2.2656 1.9 6.9196 1.9 5.147-.002 6.658-1.72 6.648-1.9z" fill="#2c3744" class="C D"/><path d="M104.504 187.875c-1.26.786-4.5 1.8-7.7112 3.7-1.1178-.053-4.076-.425-5.0013-2.846.8307-1.818 4.1967-10.197 6.1002-14.677.117-.058.2592-.123.4284-.195a2.91 2.91 0 0 1 .5283-.148l-5.5575 13.4c.9252 2.42 3.8844 2.8 5.0013 2.846 2.2998-1.35 4.4728-2.195 6.1398-2.922.02.356.043.647.072.86zm.932-.13c1.274.763 4.567 1.843 7.822 3.678 1.116-.073 4.067-.496 4.95-2.933-.863-1.8-4.516-10.35-6.498-14.797-.118-.056-.666-.126-.905-.17l5.875 13.365c-.883 2.436-3.835 2.86-4.95 2.933-2.323-1.3-4.558-2.24-6.236-2.936-.013.352-.034.645-.058.86zm6.497 4.092c.01.187-1.57 1.942-6.718 1.942-4.653 0-6.9723-1.752-6.966-1.942.0972-.118.8-.482 1.7415-.93 1.9085.74 3.1775 1 5.2245.98 2.723 0 3.72-.516 5.004-.998l1.714.947z" class="B H"/><path d="M166.28 138.042c-1.646.413-3.573-5.624-7.848-5.955-7.52-.58-4.488 8.3-2.556 12.057 5.154 10.03 11.524 13.984 10.236 15.777-1.043 1.456-5.4-.917-13.14-1.042-12.818-.207-28.82 6.56-38.347 15.138-.746.676-.798.717-1.57.166-2.048-1.46-13.5682-1.068-15.321.114-.7863.53-.8182.52-1.5732-.147-10.048-8.662-25.3183-14.97-38.645-14.555-7.7346.244-12.041 2.682-13.114 1.243-1.4237-1.912 8.9548-13.972 9.9153-15.932 1.8658-3.807 4.697-12.707-2.8-12.012-4.2687.396-6.0723 6.46-7.7274 6.072-1.107-.26-1.0953-3.15-1.0926-3.407.173-14.683 1.608-29.103 7.3944-42.712 2.6638-6.2474 18.61-34.245 12.77-36.8847-1.2823-.5775-2.84-1.1-.998-2.1267 2.0178-1.107 3.357-3.8952 5.67-8.8857 2.9907-6.4593 3.3984-7.5168 3.716-7.4583 1.7142.315-2.4147 47.5523-3.1968 52.1892-1.6512 9.7767-4.1725 22.404 5.9418 28.834 17.7188 11.264 44.1234 11.1 61.6704-.47 10-6.6 7.204-19.2036 5.364-28.9193-.872-4.6114-5.892-51.8054-4.24-52.1316.316-.064.746 1 3.863 7.3998 2.4 4.9545 3.805 7.722 5.845 8.7984 1.868.988.32 1.5428-.952 2.142-5.767 2.719 10.727 30.504 13.508 36.6975 6.052 13.5052 7.785 27.9062 8.247 42.5952.008.25.078 3.14-1.02 3.416z" class="T"/><path d="M71.66 41.8904c.0236-2.687-.0938-4.34-.4098-4.3982s-.7254 1-3.716 7.4583c-2.313 4.9905-3.6523 7.7787-5.67 8.8857-1.842 1.0257-.284 1.5492.9982 2.1267 4.6382 2.097-4.47 20.1954-9.747 30.6814-7.7 15.3227-9.9905 28.0607-10.4175 48.9157-.0052.256-.0143 3.147 1.0927 3.406.6818.16 1.39-.775 2.283-1.958 1.2764-1.688 2.9342-3.88 5.4443-4.114 7.128-.66 4.9193 7.352 3.08 11.415 4.1958-7.37 8.0875-16.215 1.306-16.554-4.2817-.214-6.85 2.773-8.505 2.385-2.565-1.62 1.058-28.435 8.888-42.885 4.657-8.595 13.117-30.0026 9.4545-31.652-1.2823-.5775-2.686-.8632-.998-2.1267 2.1857-1.6362 5.2037-7.8657 6.916-11.5858zm86.773 90.1976c2.514.194 4.216 2.362 5.526 4.03.918 1.17 1.644 2.093 2.322 1.923 1.097-.276 1.028-3.164 1.02-3.415-.538-17.1-2.765-33.062-11.384-48.74-5.666-10.305-14.954-28.3936-10.37-30.5542 1.273-.5992 2.827-1.1665.952-2.142-1.865-.97-3.63-4.2593-5.272-7.5618-2.167-4.3638-4-8.8178-4.436-8.6364-.288.1202-.383 1.7356-.3 4.4532 1.814 3.786 5.387 9.8406 7.47 11.3995 1.688 1.2634.284 1.5492-.998 2.1267-3.663 1.6495 5.427 23.237 10.084 31.832 7.83 14.45 12.353 41.265 9.788 42.885-1.655.388-4.223-2.6-8.505-2.385-6.78.34-2.9 9.185 1.306 16.554-2.08-4.584-4.285-12.32 2.8-11.77zm5.66 23.844c-2.156-.253-5.855-1.377-11.12-1.463-12.818-.207-28.82 6.56-38.347 15.138-.747.676-.798.717-1.57.166-2.048-1.46-13.5675-1.068-15.3204.114-.7862.53-.818.52-1.5732-.146-10.048-8.662-25.3183-14.972-38.645-14.556-5.852.185-9.7414 1.625-11.753 1.692-1.142 1.876-1.7917 3.383-1.36 3.96 1.0728 1.44 5.3793-1 13.114-1.243 13.3268-.416 28.597 5.894 38.645 14.556.755.668.787.677 1.5732.146 1.753-1.182 13.2724-1.575 15.3204-.114.773.55.824.5 1.57-.165 9.528-8.578 25.53-15.346 38.347-15.138 7.74.125 12.097 2.497 13.14 1.042.57-.794-.36-2-2.02-4z" class="B F"/><path d="M63.5098 149.773c9.2142-7.4 15.7572-15.14 11.2086-19.52s-8.82 5.138-9.9306 6.93c0-15.864 12.222-17.62 17.6463-67.2106C90.4648 88.74 79.4848 111.6 94.3654 124.612c-.0036.006-10.1556 21.597-30.8556 25.16z" class="P"/><path d="M74.7184 130.254c4.5486 4.38-1.9944 12.12-11.2086 19.52 1.2912-.223 2.5415-.515 3.7508-.868 8.5402-7.254 13.0032-16.104 6.6442-19.305.495.36.6566.502.8136.654zm-6.74 1.744C70.197 120.8 79.4007 114.293 84.403 76.0734c-.4778-2.0683-1.1162-4.1073-1.97-6.1-5.4243 49.5916-17.6463 51.3466-17.6463 67.2106.5034-.813 1.6565-3.213 3.1906-5.186z" class="B H"/><path d="M146.49 149.773c-9.214-7.4-15.757-15.14-11.21-19.52s8.82 5.138 9.93 6.93c0-15.863-12.222-17.618-17.646-67.21-8.03 18.7667 2.95 41.627-11.932 54.639.004.005 10.156 21.596 30.856 25.16z" class="P"/><path d="M135.28 130.254c-4.548 4.38 1.995 12.12 11.2 19.52a34.068 34.068 0 0 1-3.751-.868c-8.54-7.254-13.003-16.104-6.644-19.305-.495.36-.657.502-.814.654zm6.74 1.744c-2.218-11.208-11.422-17.705-16.424-55.9246.477-2.0683 1.116-4.1073 1.97-6.1C133 119.565 145.212 121.32 145.212 137.184c-.504-.813-1.657-3.213-3.2-5.186z" class="B H"/><path d="M135.42 149.95c-18.72-16.3-21.548-39.628-19.08-62.9026-8 5.6277-18.9652 2.5857-22.6804.2574 2.925 23.1522-1.665 46.2112-19.08 63.1092 36.9654-22.226 22.9764-18.157 60.8404-.464z" class="T"/><path d="M93.8477 88.8914l.3618 3.9032c.421.258.9274.5222 1.481.7958 1.5462.764 7.4854 22.1896 8.8394 22.5836 0 0 1.03.396 1.5-.012 2.396-2.583 6.855-21.9272 8.388-22.7147.53-.2724 1.016-.535 1.424-.791l.32-3.948c-.267-.717-22.1514-.3103-22.3243.183z" class="B F"/><path d="M112.94 24.5288c-1.594 1.1106-3.787 2.9403-5.082 7.8408-3.373 12.7658 2.27 26.085-.2 38.681-.406 2.1098-1.3 4.0954-2.6 5.7987-1.354-1.684-2.3-3.658-2.765-5.768-2.7987-12.531 2.47-25.9952-1.23-38.673-1.4254-4.8852-3.6655-6.6888-5.289-7.7814 3.6783 16.1826-4.7717 30.2756-4.3533 46.2528.18 6.9102 1.1205 12.1347 5.3 15.75 3.032 2.6244 6.6274-3.079 8.3764-6.4134 1.837 3.3138 5.58 8.9757 8.544 6.317 4.084-3.6666 4.888-8.902 4.882-15.813 0-15.9966-8.836-29.9075-5.576-46.1916z" class="T"/><path d="M118.518 70.725c.007 6.9102-.798 12.1455-4.882 15.8112-2.962 2.6595-6.708-3.0024-8.55-6.3162-1.748 3.33-5.3435 9.0378-8.3702 6.4134-4.1814-3.619-5.1246-8.8434-5.3028-15.75-.4182-15.9763 8.0277-30.0718 4.3497-46.2528.7568.4946 1.4546 1.074 2.08 1.727 2.7014 20.4875-4.364 26.663-4.0455 40.3974.1458 6.407.928 11.25 4.391 14.607 3.2548 3.154 6.8608-4.51 6.8608-4.51s3.73 7.8603 7.153 4.42c3.382-3.3984 4.05-8.253 4.043-14.66 0-13.9023-8.14-22.196-4.953-40.7304a12.316 12.316 0 0 1 1.649-1.35c-3.26 16.2808 5.556 30.199 5.577 46.1943z" class="B F"/><path d="M115.04 81.11c.125-2.564-6.023-4.204-7.226-5.5s-1.14-3.7467-2.946-3.7188c-1.807 0-1.693 2.4624-2.872 3.763s-7.2895 3.034-7.1095 5.5953-1.871 6.7977-1.8954 7.487 1.1538 1.3797 2.7 2.1438 7.485 22.1898 8.84 22.5838c0 0 1.03.396 1.51-.012 2.397-2.583 6.855-21.9274 8.388-22.715s2.7-1.495 2.66-2.1843-2.173-4.8897-2.047-7.453z" class="P"/><path d="M107.144 87.633c.076 1.467 4.32.6615 5.4-.27s.978-4.1292.726-4.79-6.22 3.4452-6.136 5.06zm-4.074.027c-.048 1.468-4.3078.7272-5.4157-.188s-1.0602-4.113-.8217-4.7772S103.12 86.05 103.07 87.66zm1.976 9.264c1-.008 1.206-.1557 1.376-.36s-1-5.4243-1.376-5.8392c-.416.3888-1.1 5.58-.922 5.8653s.477.3402.922.334z" fill="#161922"/><g class="B"><path d="M114.426 90.7516c-1.53.7866-5.99 20.1314-8.388 22.7134-.48.408-1.508.012-1.508.012-1.356-.395-7.2902-21.819-8.8418-22.5832s-2.727-1.4544-2.7-2.1438c.01-.26.3114-1.0332.6705-2.0313.4887.37 1.197.748 2.006 1.1475 1.548.764 7.4862 22.1898 8.8412 22.5838 0 0 1.03.397 1.51-.01 2.397-2.584 6.855-21.9284 8.388-22.715.797-.4095 1.494-.7983 1.98-1.17.38 1 .695 1.755.7 2.016.03.6858-1.134 1.3932-2.667 2.1816z" class="H"/><path d="M131.634 154.2c0 1.03-4.5 2.372-10.043 4.364-4.367 1.56-8.812 3.306-12.844 5.6-1.992 1.126-2.653 1.72-3.39 1.78a3.436 3.436 0 0 1-.582.067c-.74-.05-1.418-.635-3.42-1.728-4.0533-2.202-8.461-3.863-12.8114-5.373-5.653-1.93-10.2672-3.2-10.2672-4.253 0-4.23 53.3586-3.15 53.3586-.466z" class="L"/></g><path d="M131.634 153.03c.204 1.01-4.5 2.372-10.043 4.364-4.367 1.56-8.812 3.306-12.844 5.6-1.992 1.126-2.653 1.72-3.39 1.78a3.436 3.436 0 0 1-.582.067c-.74-.05-1.418-.635-3.42-1.728-4.0533-2.2-8.461-3.863-12.8114-5.373-5.653-1.93-10.2672-3.2-10.2672-4.253 0-1.306 4.2273-2.16 12.1806-9.778 5.4206-5.192 10.513-11.778 12.89-18.88 1.175-3.7 1.23-5.864 1.675-5.868.594-.005 1.122 2.903 2.104 5.538 2.72 7.218 6.428 13.792 12.12 18.93 7.76 7.006 12.184 8.582 12.39 9.59z" class="P"/><path d="M121.487 157.395l-.155.055-6.48 2.572-6.2 2.982c-1.99 1.127-2.653 1.72-3.39 1.78l-.203.036-.38.033a1.734 1.734 0 0 1-.226-.033c-.665-.144-1.396-.72-3.192-1.696-.437-.238-2.321-1.187-6.274-2.9l-6.3783-2.43-.1583-.056.727-.713c3.617-3.5 13.5054-12.733 15.0934-16.555a3.26 3.26 0 0 0 .167-.5c.1.322.257.63.438.918 2.23 3.7 11.186 11.655 15.812 15.776l.8.722z" fill="#16649c"/><path d="M104.426 139.978c-.045.186-.11.366-.184.54v4.14c-2.528 3.57-6.078 7-9.2318 10.034l-1.2122 1.17-4.6313 1.173-.7272.713.1584.055 5.7033-1.443c3.2494 1.18 7.0298 2.935 10.1408 4.477v3.98a1.734 1.734 0 0 0 .226.033s.18-.006.38-.034v-3.954c4.086-1.87 7.007-3.41 10.588-4.75l5.695 1.335.155-.055-.813-.72-4.597-1.078c-3.748-3.343-7.657-7.322-11.23-11.204v-3.524c-.173-.28-.315-.58-.42-.89z" fill="#2481ba"/><path d="M153.98 280.86c13.306 8.662 32.82 2.216 50.29 14.037-9.428 6.218-32.098 1.63-43.713 2.33-3.657.22-6.605 2.686-10.297 2.537 3.778-5.84-7.594-1.102-10.922-1.508 5.016-5.728-3.534-.285-9.037-1.003 3.374-5.212-8.27-1.763-12.198-1.405-.817-5.32-12.025-1.23-16.402-.898.493-.808 2.12-4.428.666-6.334l.386-8.08c.104-2.175 1.62-4.647 3.867-6.787 10.71 5.77 30.572 8.388 47.36 7.112z" class="C E N"/><path d="M104.44 284.61l-.182 3.744c.8 1.414.65 3.03.278 4.444 4.09-.82 11.9-3.435 14.797 1.177 2.85-.478 13.068-3.62 13.41 1.54 3.38-.414 10.2-4.155 10.044.6 5.273-1.505 10.375-1.37 10.043 1.533 7.505-4.254 19.708-1.572 30.313-1.217 5.914.198 12.534.33 17.835-1.82-7.614-4.362-15.6-5.504-23.518-6.35-8.265-.883-16.824-1.436-23.874-5.672-8.345.57-17.378.22-25.69-.963-7.85-1.117-15.188-2.996-20.72-5.63-1.582 1.72-2.485 3.47-2.553 4.875l-.182 3.75z" class="U"/><path d="M84.6308 287.365l.3478-6.81s63.5534 8.275 69.1994 5.903c1.792 2.138 2.68 2.805 6.2 4.78-3.688 1.285-4.603 1.704-6.596 3.48-6.016-3.853-69.1522-7.352-69.1522-7.352z" fill="#0f253c" stroke="#091c2e" stroke-width=".72"/><g class="C E V"><ellipse rx="2.6362" ry="1.3829" transform="matrix(.0442496 -.998744 .993231 .109618 46.2031 282.236)"/><path d="M47.2472 285.726c-.7832-.082-1.392-.706-1.36-1.394l.1996-4.27c.032-.688.693-1.18 1.4763-1.098l-.316 6.763z"/></g><g class="W"><path d="M120.4 288.4c-.144.105-1.355.012-1.382-.1-.032-.144 1.27-.433 1.445-.272.098.1.065.3-.063.383zm6.314-.22c.1-.032.043-.462-.26-.815-.545-.637-1.62-.775-2.44-1.054-.694-.236-.694-.54-.897-.63s-.403.016-.73.05l-.66.07c-.007.12 1.232.356 1.47.387.488.065.716.708.83 1.156.064.255-1.14.43-1.368.432-.523.006-1.004-.27-1.02-.253-.047.057.377.54.97.636.285.047 1.316-.096 1.768-.386.268-.172-.067-.568.187-.73.262-.166.756.077 1.006.2.777.386 1.023.975 1.144.937zm5.104-.22c.103-.043-.828-.668-1.045-.8-.312-.188-.5-.557-.833-.664-1.545-.482-2.865.446-2.76.658.023.048 1.874-.713 2.198.08.054.13-.466.3-.617.38-.516.27-.806.518-.788.533.024.027.937-.635 1.284-.412.22.142-.065.432.777.907.524.295 1.3-.114 1.24-.123-.15-.022-1.405.097-1.24-.6.22-.848 1.675.076 1.785.03zm4.262-.574c.024.1 1.12.073 1.152.2.016.074-.35.078-.637.33-.3.272-.192.55-.392.606-.23.066-.5-.283-1.264-.8-.208-.138-1.644-1.027-2.278-.474-.118.102.317.2.527.576.12.2.084.45.26.645.247.25 1.925 1 1.943.97.08-.132-.8-.695-.95-.765-.997-.468-.893-1.683.25-.704.34.3 2.262 1.64 2.428 1.544.26-.15-1-.934.548-1.787.38-.2 1.048-.336 1.018-.42-.105-.288-2.664-.202-2.602.07zm6.332.38c.002-.04.43.034 1.186-.146.4-.093.6-.325.64-.3.102.07-.565.526-.75 1.34-.1.5.01.894-.288 1.016-.157.064-.36-.018-.533 0-.567.056-.837.63-1.46.045-.57-.534-1.463-.644-2.25-.74-.157-.02-.764-.073-.788-.207-.034-.193 2.356-.82 2.414-.742.018.024-.08.1-.22.16-1.288.644.386.67.927 1.1.374.304 1.08.045 1.432-.118.17-.078.056-.28.214-.57.5-.915-.53-.758-.523-.86zm6.583 2.878c.017.03 1.184-.012 1.805-.727.325-.375.557-.928.036-1.314-.788-.584-1.718.44-1.767.415s.03-.148.018-.363c-.013-.204-.107-.497-.276-.534-.325-.073-.852.56-.985.5-.112-.04-.03-.225-.17-.494s-.416-.486-.508-.45.176.35.114.765-.403.627-.312.704c.17.146 1.387-.497 1.534-.328.437.5-.474 1.483-1.24 1.462-.303-.008-.357-.12-.605-.097-.575.05-.928.72-.824.798.068.05.298-.113.368-.155.503-.3 1.003-.086 1.514-.196.615-.132 1.076-.56 1.366-.996.16-.24.953-.9 1.197-.7.864.706-1.314 1.603-1.265 1.7zm-4.215-.403c-.084-.1-.397-.123-.486.008s.087.344.232.356c.172.014.352-.247.254-.364zm.402-2.227c.02.122.3.266.543.2.294-.084.292-.447.168-.53-.168-.1-.75.14-.7.33z"/><path d="M138.9 289.846c-.002-.118-.734-.613-.807-.57-.097.057.253.763.438.8.148.038.375-.104.37-.242zm1.656-1.22c-.067-.364.998-.32 1.18-.068.457.642-1.13.334-1.18.068zm-8.406.348c0-.046.2-.032.247-.132.02-.033-.006-.088.026-.114.167-.132.462.13.457.293-.008.3-.73.007-.73-.047zm-6.38-2.566c.153-.008.285-.085.34-.198.257-.5-.945-.306-.912-.07.017.1.43.27.573.267zm-5.392-.743c.148-.032.244-.148.224-.275-.113-.36-1.278-.208-1.217-.056.01.023.107.001.232.013.397.035.54.345.76.318z"/></g><g class="E K"><path d="M78.3506 294.644l.3518 3.656 5.4488.357-.3518-3.657-5.4488-.356z" fill="#26292e"/><path d="M77.2204 288.1l.6853 6.615c.0276.292.3176.547.6477.57l5.7775.386c.33.022.5754-.197.5478-.5l-.6853-6.614c-.0276-.293-.3176-.548-.6478-.57l-5.7774-.386c-.3302-.022-.5754.198-.5478.5zm3.2002 12.387c1.3808.086 2.455-.3 2.4-.843s-1.2204-1.068-2.6012-1.154-2.455.292-2.3992.843 1.2205 1.07 2.6013 1.154z" fill="#2e3a48"/><path d="M79.9193 299.794c-1.599.3-2.3464.207-2.6083.892l-1.7337-1.736c-.1453.343-.0708 1.785.988 3.21.552.74 1.3666 1.28 1.7723 2.192 0 0 .8695 1.246 1.286 1.614s-.0044.372.2264.535.848.31 1.1108.152 1.643.78 2.1153 1 1.9582.907 2.8642-.13c-.9306-.113-1.4228-.435-1.5197-.582.1297-.074.1595-.234.177-.303-.098-.188-.3555-.275-.5583-.364.4622-.058.8023-.067 1.0112-.024-.1596-.37-1.3226-1.435-1.6416-1.632-.1244-.305.4168-1.686.6784-1.95s-.348-1.672-.7145-1.977-1.85-1.184-3.4536-.886zm1.1913 4.478c.2046.686.3853 1.18-.2795 1.52-.3832.195-1.5918-.973-1.5985-1.347-.009-.327.3315-1.15.5564-1.268s1.116.408 1.3216 1.094z" class="X"/></g><path d="M77.3816 300.74l-1.8043-1.8c-.048.113-.072.345-.0446.657l1.9188 1.903c-.1274-.42-.076-.572-.07-.77zm3.448-1c.8356.214 1.48.617 1.7058.805.3666.305.9762 1.713.7146 1.977s-.803 1.645-.6785 1.95c.32.197 1.4558 1.145 1.6155 1.517-.2-.043-.523.082-.985.14.3146.138.7913.434.3812.667.097.147.4275.407 1.3533.674-.3656.42-.66.462-1.1088.462.6472.192 1.5087.27 2.1126-.42-.9306-.113-1.4228-.435-1.5197-.582.1297-.074.1595-.234.177-.303-.098-.188-.3555-.275-.5583-.364.4622-.058.8023-.067 1.0112-.024-.1596-.37-1.3226-1.435-1.6416-1.632-.1244-.305.4168-1.686.6784-1.95s-.348-1.672-.7145-1.977c-.2956-.247-1.3176-.866-2.5433-.94z" class="B F"/><g class="E K"><path d="M79.9214 273.906l.5716-3.5 5.4175 1.377-.5716 3.51-5.4175-1.376z" fill="#26292e"/><path d="M78.018 280.027l1.0743-6.328c.0448-.28.3472-.44.6754-.355l5.7443 1.5c.3283.085.558.38.5132.662l-1.0742 6.328c-.045.28-.3473.44-.6755.355l-5.7443-1.5c-.3283-.085-.558-.38-.5132-.662zm4.5365-11.097c1.373.33 2.4124 1.03 2.3217 1.558s-1.2772.7-2.65.358-2.4123-1.03-2.3216-1.558 1.277-.7 2.65-.358z" fill="#2e3a48"/><path d="M82.3322 269.396c-1.5653-.805-2.31-.95-2.5286-1.714-.9632.537-1.784 1.288-1.8224 1.168-.123-.386.0384-1.8 1.1737-2.863.5918-.558 1.4312-.833 1.8884-1.607 0 0 .9368-.957 1.3716-1.188s.0182-.37.2568-.46.8586-.037 1.109.203 1.6745-.25 2.155-.306 1.9943-.275 2.8284 1.04c-.9284-.185-1.4354-.023-1.5403.092.124.114.1437.283.157.357-.1084.154-.3687.158-.575.182.4542.204.7905.32 1 .345-.1808.318-1.3972 1-1.725 1.094-.1418.262.31 1.803.553 2.147s-.4463 1.545-.8278 1.73-1.904.583-3.474-.223zm1.4522-4.055c.2444-.614.4532-1.045-.1843-1.595-.3675-.315-1.6354.457-1.6648.825-.029.32.2582 1.246.4738 1.433s1.13-.05 1.3753-.663z" class="X"/></g><path d="M79.8767 267.653l-1.8955 1.197c-.0406-.127-.0502-.365-.0043-.665.2873-.204 1.655-1.073 2.016-1.274-.1517.376-.1.543-.1162.742zm3.3537 2.087c.8406.053 1.5042-.14 1.7383-.254.3815-.186 1.0708-1.386.8278-1.73s-.695-1.885-.5532-2.147c.328-.093 1.5113-.67 1.692-.987-.2095-.025-.5127-.248-.967-.452.32-.037.8-.178.418-.54.105-.115.448-.267 1.38-.237-.3365-.53-.6246-.667-1.07-.8.6526.016 1.5105.212 2.0665 1.1-.9284-.185-1.4354-.023-1.5403.092.124.114.1437.283.157.357-.1084.154-.3687.158-.575.182.4542.204.7905.32 1 .345-.1808.318-1.3972 1-1.725 1.094-.1418.262.3 1.803.553 2.147s-.4463 1.545-.8278 1.73c-.3077.15-1.3574.437-2.5757.12z" class="B F"/><path d="M48.1215 286.507c-.798-.082-1.4182-.707-1.3854-1.396l.271-5.704c.0327-.69.706-1.18 1.504-1.1l-.3898 8.2z" fill="#3f5776" class="C E"/><path d="M45.0575 280.742c.2225.5.546.832.918.88.1598.362.4897.655.8968.777.1865.45.6332.797 1.1674.856-.05 1.135.074 2.597.045 3.25-.5342-.06-.9808-.406-1.1674-.855-.407-.123-.737-.415-.8967-.777-.7442-.098-1.294-1.332-1.2307-2.77.0225-.51.12-.977.2675-1.364z" class="B F"/><path transform="matrix(.0478469 -.998294 .993457 .101354 51.0913 285.525)" fill="#3c3a39" d="M0 0h6.9794v34.3933H0z" class="C E"/><path d="M51.322 278.557l-.2308 6.056 34.2714 4.398.1237-3.245-34.169-4.385.107-2.81-.1025-.013z" class="B F O"/><rect width="11.1447" height="4.1803" rx="1.935" transform="matrix(.0448136 -.998674 .993274 .108236 54.8389 288.341)" class="C E V"/><path d="M54.9212 286.478c-.0455 1.033.816 1.97 1.9244 2.093s2.0436-.615 2.089-1.647l.157-3.566c-.1062 2.41-4.1197 1.966-4.0135-.446l-.157 3.566z" class="B F"/><path d="M86.186 279.6c5.1344 2.51 6.4792-1.662 7.33-3.04s.54-7.015-.504-8.425c.7087-2.19 2.2546-5.903 5.804-6.32-2.0387 7.633.1158 9.957 1.29 12.784-1.3676 1.538.395 4.317.76 4.98l-.61 13.468c-.4204.578-2.4174 2.953-1.2018 4.77-1.4196 2.548-3.7632 4.387-2.4342 12.382-3.4772-1.174-4.6724-5.183-5.1763-7.503 1.1613-1.172 1.9785-6.688 1.2606-8.235s-1.6724-5.967-6.9838-4.58l.4665-10.28z" class="C E N"/><path d="M87.255 281.164l-.338 7.404c7.84-.588 8.323 10.543 5.774 14.453.2522 1.056.639 2.32 1.2725 3.458.3442.618.7437 1.17 1.2103 1.625-.394-4.032.5492-7.044 2.5926-10.375-.7602-1.835.2986-3.685 1.3647-5.09l.589-12.9c-.928-1.62-1.8083-3.678-.8886-5.333-1.7207-3.734-2.3808-6.918-1.6243-10.826-1.5358 1.073-2.345 2.853-2.9207 4.505 2.327 4.737.47 15.274-7.0317 13.08z" class="O U"/><path d="M93.5268 303.18c.1797.71.419 1.485.748 2.232.0636-2.865 1.1203-5.424 2.6374-7.807-.6003-1.908.3476-3.766 1.444-5.244l.572-12.517c-.951-1.697-1.7207-3.738-.9527-5.5-1.323-2.76-2.1047-5.36-1.9013-8.292-.3937.67-.7013 1.385-.944 2.05.944 2.22 1.0138 4.793.788 7.043-.3228 3.216-3.9482 7.603-7.9157 6.917l-.264 5.777c4.472.185 7.1796 4.947 7.2093 8.534.019 2.277-.2845 4.81-1.421 6.807z" fill="#091c2e"/><path d="M95.1868 299.56c.3355-.715.719-1.41 1.1383-2.1-.5266-1.992.428-3.87 1.4565-5.303l.5507-12.24c-.89-1.64-1.667-3.708-.967-5.566l-.9375-2.28c.2733 4.48-1.874 10.943-7.8635 10.493l-.2183 4.852c6.1814.744 7.5353 7.68 6.841 12.132z" fill="#0f253c" class="O"/><path d="M89.2534 269.95c-1.8055 3.65-4.042 9.952-6.809 14.055 2.2657 5.13 4.1047 11.633 5.5038 15.415 9.9293-6.254 21.8507-8.803 32.3527-11.235-10.1-5.225-26.694-14.43-31.0476-18.235z" class="C E N"/><g class="U"><path d="M116.887 287.758c-9.15-4.823-18.7906-9.67-27.0772-15.83-1.879 4.144-3.44 8.452-5.906 12.308 1.4125 3.303 2.681 7.157 3.7498 10.404l.9778 2.936c8.8462-5.177 19.0447-7.686 28.2557-9.818z" class="O"/><path d="M203.17 293.08l.385.25-.334.207-3.212-.203.022-.454 3.14.2z"/></g><path d="M49.4953 288.14c-1.1227-.122-1.9955-1.052-1.9495-2.077l.3418-7.602c.046-1.025.9936-1.757 2.1163-1.635s1.9955 1.052 1.9494 2.078l-.3417 7.6c-.046 1.025-.9936 1.757-2.1163 1.635z" class="C E V"/><path d="M47.518 285.87c-.0308 1.004.892 1.97 2.0613 2.156s2.142-.477 2.173-1.48l.1138-3.71c-.344.596-1.107.93-1.9793.8-1.1692-.186-2.092-1.15-2.0613-2.155l.1147-3.737c-.117.203-.1857.436-.1935.69l-.2286 7.445z" class="B F O"/><g fill="#3f5776" class="E K"><ellipse rx=".7305" ry=".7897" transform="matrix(.0440726 -.998766 .993217 .110059 49.3238 287.913)"/><ellipse rx=".7305" ry=".7897" transform="matrix(.0440718 -.998766 .993217 .110061 50.0836 277.049)"/><ellipse rx=".9024" ry=".9755" transform="matrix(.0440723 -.998766 .993217 .11006 49.5565 284.591)"/><ellipse rx=".9024" ry=".9755" transform="matrix(.044073 -.998766 .993217 .110058 49.8514 280.371)"/></g><path d="M79.0717 283.16c.7007-.44 9.9083-6.024 10.3308-6.14s1.1005-.023 1.4035.017.2482.274.655.444 1.88.19 2.18.152.472-.44.6795-.145 3.4716 3.057 4.2383 3.66 4.2953 2.614 4.8993 2.707 3.127.083 3.432.23 1.452 1.098 1.516 1.31.17.57-.146.578-2.33-.312-1.874-.152 2.814.473 3.032.617.84 1.026.495 1.034c-.31.007-.828.04-1.483-.056a8.144 8.144 0 0 1 1.458.407c.338.122-.372.78-.603.85s-2.58-.41-3.045-.402 1.544.36 1.855.473.163.427.077.614l-.001.001c-.087.187-1.32.743-1.636.782s-2.784-.81-3.39-.92-4.2932.693-5.115 1.028-4.34 1.96-4.576 2.18-.3608-.234-.6528-.37-1.7395-.607-2.1552-.575-.3875.28-.6903.22-.9764-.196-1.3772-.45-8.8404-7.42-9.5058-8.09z" class="X"/><g class="E"><g stroke-linejoin="round"><path d="M79.0717 283.16c.7007-.44 9.9083-6.024 10.3308-6.14s1.1005-.023 1.4035.017.2482.274.655.444 1.88.19 2.18.152.472-.44.6795-.145 3.4716 3.057 4.2383 3.66 4.2953 2.614 4.8993 2.707 3.127.083 3.432.23 1.452 1.098 1.516 1.31.17.57-.146.578-2.33-.312-1.874-.152 2.814.473 3.032.617.84 1.026.495 1.034-.953.047-1.717-.095c.573.086 1.143.237 1.692.446.338.122-.372.78-.603.85s-2.58-.41-3.045-.402 1.544.36 1.855.473.162.43.076.615-1.32.743-1.636.782-2.784-.81-3.39-.92-4.2932.693-5.115 1.028-4.34 1.96-4.576 2.18-.3608-.234-.6528-.37-1.7395-.607-2.1552-.575-.3875.28-.6903.22-.9764-.196-1.3772-.45-8.8404-7.42-9.5058-8.09z" class="C"/><path d="M91.48 277.313c.24.708 3.8038 6.064 5.2013 6.6s.912-1.374.5097-2.038c-.1866-.308-2.995-3.12-3.438-3.432-.244-.172-1.6853-1.12-1.626-.366l-.647-.775zm-.7398 14.387c.276-.608 4.1058-4.653 5.522-4.726s.828 1.638.393 2.152c-.2.238-3.1423 2.054-3.5983 2.214-.2515.088-1.7366.536-1.632-.18l-.6846.54z" class="K W"/></g><path d="M104.443 286.682c-.513-.074-3.506-.946-3.503-1.043s2.426-.436 3.56-.27c.453.065.363 1.375-.056 1.314z" class="K W"/></g><g class="B F"><path d="M92.7585 292.125c-.1823-.218-.3642-.3-.6348-.4 2.37-1.277 6.7953-3.85 9.9663-3.34.422.068.856.363 1.257.488-3.82.124-7.4495 1.712-10.2097 3.385-.1475.143-.252.018-.3788-.133zm13.7065-2.305c-.133.017-.645-.13-1.24-.313.376-.134 2.356-.946 1.355-1.55.457.085 1.036.208 1.476.375.317.12.165.46.085.638l-.008.017c-.088.198-1.345.8-1.667.832zm-3.085-6.632c-.324.042-.695.135-1.04.08-2.204-.353-7.2403-4.665-9.4196-6.747.294-.001.5008-.012.7148-.17.1405-.105.2565-.192.386 0 2.47 2.5 5.4074 5.06 9.358 6.84zm4.842 2.195c.323-.007.214-.4.15-.615s-1.233-1.24-1.544-1.395c-.134-.067-.7-.103-1.327-.13.184.13 2.303 1.912 1.117 1.94.328.053 1.072.215 1.605.202z"/><path d="M109.894 286.983c.352-.008-.282-.947-.505-1.1s-1.044-.26-1.464-.328c.195.207.624 1.165.195 1.33.415.283.34.9-.182 1.215l1.32.162c.236-.073.96-.774.615-.904l-.8-.32.823-.053z"/></g><g fill="#1f1e1e"><use xlink:href="#B"/><use xlink:href="#C"/></g><path d="M81.577 298.2l-.3253-.224a2.931 2.931 0 0 0 .1328-1.121l.3617-.07c.06.474-.0072.968-.1692 1.414zm.874.694l-.3-.243c.3537-.564.4636-1.26.3035-1.955l.3556-.018c.2146 1.04-.0037 1.634-.37 2.216zm.8002.73l-.2668-.253c.7287-.647.9005-1.7.4366-2.66.1613.024.3088.06.437.112.4918 1.326.0516 2.174-.6067 2.8z" class="Q"/><path d="M84.7376 299.03c.2994-.738.0742-1.7-.8164-2.096-1.146-.522-4.241.36-3.899.515 1.0773-.02 4.257.013 4.7153 1.58z" class="B R"/><g class="Q"><path d="M80.0867 295.787c-1.8845.02-3.614-1.18-4.43-2.756a5.61 5.61 0 0 1 .1097-.586c.6687 1.792 2.5847 3.176 4.6247 3l-.3045.34z"/><path d="M81.0842 294.72l-.2673.27c-1.9542-.394-3.9898-2.04-4.617-3.74l.232-.428c.462 1.802 2.598 3.577 4.6523 3.898z"/><path d="M81.629 294.29c-.104.064-.1995.13-.2853.196-1.7085-.806-3.6162-2.704-4.5952-4.143l.212-.273c.9268 1.4 2.9277 3.572 4.6686 4.22z"/><path d="M82.1502 294l-.3435.176c-.1074-1.738-2.301-3.954-4.3062-4.697l.2577-.23c2.1586.837 4.084 2.716 4.392 4.752z"/><path d="M82.8027 293.724l-.3976.17c.377-1.967-1.2693-4.52-3.5338-5.402l.356-.184c2.2177.975 3.7726 3.428 3.5753 5.417z"/><path d="M83.6857 293.38l-.4558.175c.803-1.97-.3426-4.622-2.7347-5.746l.4003-.143c2.288 1.208 3.37 3.715 2.7902 5.714zm1.0463-.402l-.5252.204c1.0867-1.84.445-4.897-2.178-5.892l.4698-.132c2.4177 1.13 3.0553 3.94 2.2333 5.82zm1.5215-.685l-.678.33c1.4362-1.727.6-4.448-1.832-5.7l.552-.044c2.118 1.256 2.9014 3.68 1.9582 5.424z"/></g><path d="M87.7267 288.826c-1.7206-3.297-5.585-1.616-7.7527-.852-2.83.998-4.2666 3.285-4.3994 5.438-.059.955.8384 2.167 1.6975 2.987-2.702-4.247 6.049-10.63 10.4546-7.573z" class="B R"/><g class="E K"><use xlink:href="#C"/><use xlink:href="#B"/></g><g fill="#1f1e1e"><use xlink:href="#D"/><use xlink:href="#E"/></g><path d="M83.4585 270.956l-.3356.116c.0922.388.1167.78.0648 1.153l.3542.186c.0867-.45.0505-.96-.0834-1.455zm.9065-.402l-.3016.146c.3166.674.384 1.4.184 2.035l.35.133c.2745-.96.0936-1.62-.2336-2.314zm.835-.462l-.2793.164c.683.878.7906 1.975.2742 2.775.16.03.3093.04.4392.03.566-1.153.1805-2.136-.434-2.97z" class="Q"/><path d="M86.6103 271.164c.2494.823-.0343 1.697-.942 1.828-1.168.17-4.1768-1.646-3.828-1.695 1.0654.348 4.2163 1.28 4.77-.133z" class="B R"/><g class="Q"><path d="M81.2923 273.148c-1.865-.63-3.6494-.001-4.552 1.297l.0736.616c.7696-1.56 2.7498-2.3 4.7595-1.477l-.28-.436zm.9237 1.38l-.2484-.354c-1.9588-.242-4.0732.73-4.7962 2.2l.204.5c.5656-1.635 2.787-2.702 4.8405-2.356z"/><path d="M82.73 275.13l-.2708-.286c-1.74.246-3.743 1.508-4.7987 2.617l.1934.34c1.0017-1.086 3.1133-2.59 4.876-2.67z"/><path d="M83.2292 275.575l-.3296-.286c-.2104 1.687-2.5156 3.172-4.5457 3.26l.2414.312c2.1876-.13 4.2068-1.37 4.634-3.286z"/><path d="M83.8582 276.07l-.3836-.296c.2555 2.07-1.5277 4.065-3.823 4.207l.3415.297c2.2546-.248 3.9413-2.175 3.865-4.208z"/><path d="M84.712 276.696l-.44-.32c.6772 2.2-.6162 4.465-3.0524 4.805l.3878.27c2.3383-.456 3.56-2.6 3.1055-4.756zm1.012.734l-.508-.37c.966 2.172.1473 4.993-2.5097 5.13l.4574.283c2.462-.34 3.2616-2.914 2.5602-5.042zm1.4657 1.17l-.6516-.547c1.3187 2.175.3265 4.598-2.1566 5.064l.544.22c2.1726-.558 3.0937-2.706 2.264-4.738z"/></g><path d="M88.482 282.43c-1.9012 2.708-5.6272-.207-7.7283-1.664-2.7427-1.904-4.0282-4.634-4.031-6.808-.001-.965.96-1.875 1.86-2.41-2.93 3.33 5.3535 12.484 9.8993 10.88z" class="B R"/><g class="E K"><use xlink:href="#E"/><use xlink:href="#D"/></g><path d="M69.1253 293.4c5.1136.004 8.369-6.13 5.273-10.375 1.4325-4.07-1.6276-8.585-5.9992-8.69-5.0402-.12-7.953 5.265-7.4252 9.822.4933 4.258 3.3772 9.238 8.1513 9.242z" class="C D G M"/><path d="M60.9745 284.148c.6105 5.27 4.8934 11.412 11.2833 8.442-6.194-.793-10.53-11.295-7.48-17.266-.485.346-1.25.75-2.484 2.485-1.106 1.956-1.5925 4.158-1.3194 6.34z" class="B J"/><defs ><path id="B" d="M80.087 297.527c-.862-.058 2.5946-1.144 3.825-.56s.9784 1.95.8143 2.217c-.3004.488-.7747 1.14-1.4143.485-.0998-.102-2.166-2.07-3.225-2.14z"/><path id="C" d="M75.541 293.435c.133-2.16 1.5716-4.453 4.4055-5.454 2.2624-.798 5.894-2.36 7.6705.678 2.245 3.834-4.8613 4.414-6.5035 5.993-.9124.878-2.0664 2.326-2.3983 2.675s-3.2794-2.18-3.1742-3.892z"/><path id="D" d="M81.951 271.217c-.857-.214 2.499 1.953 3.7532 1.765s1.0886-1.624.9424-1.94c-.2676-.578-.6973-1.372-1.3708-.927-.105.07-2.2718 1.365-3.3248 1.1z"/><path id="E" d="M76.7227 273.892c.0027 2.18 1.3 4.92 4.0364 6.828 2.1927 1.523 5.6957 4.245 7.6365 1.813 2.4524-3.07-4.55-5.945-6.082-8.04-.851-1.164-1.9072-2.973-2.215-3.426s-3.378 1.098-3.376 2.826z"/></defs></svg>