<svg fill="none" height="134" viewBox="0 0 216 134" width="216" xmlns="http://www.w3.org/2000/svg"><path d="m75.804 108.3c-1.6247-.237-3.6851-1.032-6.2995-2.432-.38-.203-.5333-.699-.328-1.083.2032-.38.6992-.533 1.0828-.328 2.4144 1.292 4.3578 2.052 5.776 2.26.9258.135 1.592.032 1.9802-.309.4355-.381.3965-1.056.2826-2.316-.1335-1.476-.2996-3.313.6329-5.4247 1.4079-3.1909 4.9161-6.225 8.6109-5.6544 2.3466.3634 4.5951 2.118 5.1113 4.4989.4394 2.0275-.1925 4.8052-2.3529 5.5822-1.4327.511-3.0696-.076-4.1869-1.027-.3342-.278-.3824-.8-.0978-1.134.2818-.331.8047-.373 1.1352-.084.0138.012 1.3972 1.173 2.6077.738 1.371-.492 1.5926-2.5264 1.3299-3.7369-.3759-1.7353-2.0991-2.9944-3.7923-3.2567-2.9709-.4587-5.7857 2.1916-6.903 4.7197-.7651 1.7329-.6259 3.2739-.503 4.6339.128 1.403.2467 2.728-.8215 3.664-.8853.781-2.1463.858-3.2646.689z" fill="#7f6145" stroke="#333" stroke-miterlimit="10" stroke-width=".159845"/><path d="m92.1733 97.8968c.3539 1.6328.0378 3.6652-1.2102 4.8662 1.645-1.078 2.0822-3.4414 1.6902-5.2502-.5162-2.381-2.7644-4.1357-5.1113-4.4992-2.1203-.3274-4.217.5939-5.8093 1.9463 3.6518-2.584 9.3851-1.9315 10.4406 2.9369z" fill="#000" fill-opacity=".2"/><path d="m89.9644 101.498c-.8649 1.006-2.4189.488-3.2925-.264-.1006-.085-.2208-.145-.35-.173-.1291-.028-.2632-.023-.3902.013.1272-.233.3724-.391.6377-.412.2114-.017.421.051.5825.188.7062.624 1.9149 1.126 2.8125.648z" fill="#000" fill-opacity=".2"/><path d="m69.3525 104.552c.112-.096.496-.288.736-.176.2234.104.4908.236.7914.385 1.5815.781 4.079 2.015 5.8806 2.015 1.6 0 1.744-.8 1.52-2.912.0272.122.0615.257.098.4.3079 1.208.7707 3.024-1.618 3.024-2.608 0-6.6811-2.258-7.408-2.736z" fill="#000" fill-opacity=".2"/><path d="m53.7841 103.704c1.168 0 2.1011-1.043 1.9853-2.19-.1735-2.0322.5958-4.2296 2.1104-6.348 1.3778-1.9279 2.8547-2.9842 1.7187-4.2301-1.136-1.246-3.698.1255-4.9728 1.904-2.1027 2.9414-3.1101 6.0515-2.8362 9.0781.1022 1.007.8266 1.786 1.9946 1.786z" fill="#7f6145" stroke="#333" stroke-miterlimit="10" stroke-width=".159845"/><path d="m52.6988 100.893c-.0132-3.5927 2.8676-8.8851 6.2436-10.3731-4.16-.672-7.84 7.472-7.1268 11.2571.2308-.377.6308-.745.8832-.884z" fill="#000" fill-opacity=".15"/><path d="m65.6997 113.288c.16-2.786.8768-4.942 1.5094-6.618.6327-1.676 1.3573-4.63-1.3619-5.312-3.888-.976-6.026 8.132-6.1856 10.91-.0939 1.634 1.1782 3.53 2.8288 3.625 1.5193.074 3.1182-1.017 3.2093-2.605z" fill="#7f6145" stroke="#333" stroke-miterlimit="10" stroke-width=".159845"/><path d="m59.6229 112.264c1.648-.224 4.736-.224 6.032 1.088.0106-.099.0461-.382.0531-.481-1.3491-1.183-4.4211-1.263-6.0166-1.039-.0086.105-.0598.324-.0685.432z" fill="#000" fill-opacity=".15"/><path d="m60.1351 109.4c1.5283 1.417 3.4842 2.212 5.696 2.512.0186-.16.0578-.39.08-.544-2.1952-.284-4.1024-1.203-5.632-2.592-.064.192-.1158.489-.144.624z" fill="#000" fill-opacity=".15"/><path d="m68.3003 113.288c-.16-2.786-.8768-4.942-1.5094-6.618-.6327-1.676-1.3573-4.63 1.3619-5.312 3.888-.976 6.026 8.132 6.1856 10.91.0938 1.634-1.1782 3.53-2.8288 3.625-1.5193.074-3.1182-1.017-3.2093-2.605z" fill="#7f6145" stroke="#333" stroke-miterlimit="10" stroke-width=".159845"/><path d="m74.3771 112.264c-1.648-.224-4.736-.224-6.032 1.088-.0106-.099-.0461-.382-.0531-.481 1.3491-1.183 4.4211-1.263 6.0166-1.039.0086.105.0598.324.0685.432z" fill="#000" fill-opacity=".15"/><path d="m73.8649 109.4c-1.5283 1.417-3.4842 2.212-5.696 2.512-.0186-.16-.0578-.39-.08-.544 2.1952-.284 4.1024-1.203 5.632-2.592.064.192.1158.489.144.624z" fill="#000" fill-opacity=".15"/><path d="m80.2159 103.704c-1.168 0-2.1011-1.043-1.9853-2.19.1735-2.0322-.5958-4.2296-2.1104-6.348-1.3778-1.9279-2.8547-2.9842-1.7187-4.2301 1.136-1.246 3.698.1255 4.9728 1.904 2.1027 2.9414 3.1101 6.0515 2.8362 9.0781-.1022 1.007-.8266 1.786-1.9946 1.786z" fill="#7f6145" stroke="#333" stroke-miterlimit="10" stroke-width=".159845"/><path d="m81.3012 100.893c.0132-3.5927-2.8676-8.8851-6.2436-10.3731 4.16-.672 7.84 7.472 7.1268 11.2571-.2308-.377-.6308-.745-.8832-.884z" fill="#000" fill-opacity=".15"/><path d="m103.262 61.6289c3.555 3.264 2.122 9.8973-.291 13.6691-3.4388 5.376-11.3112 8.76-15.3428 5.8998-4.2106-2.9872-3.6608-12.3814 1.2544-17.2582 3.6697-3.641 10.7024-5.6861 14.3794-2.3107z" fill="#f7c394" stroke="#333" stroke-miterlimit="10" stroke-width=".159845"/><path d="m99.1112 65.471c2.1118 2.1821.9628 6.2938-.6928 8.5722-2.36 3.2464-7.4295 5.078-9.8541 3.1315-2.5325-2.033-1.8365-7.9111 1.432-10.7898 2.4403-2.1491 6.9325-3.1705 9.1149-.9139z" fill="#ffc9a1"/><path d="m102.97 75.2969c-1.942 3.0352-6.2431 6.503-11.0911 6.935 3.4036-.8 8.3201-4.2832 9.8121-6.615 2.413-3.7719 3.692-10.8471.291-13.6691-1.037-.8606-3.6711-2.0839-7.2871-1.4439 4.416-1.36 7.1291-.1961 8.5671 1.1239 3.554 3.2636 2.121 9.8972-.292 13.6691z" fill="#000" fill-opacity=".1"/><path d="m30.7382 61.6291c-3.5552 3.264-2.1222 9.8973.2909 13.6692 3.4387 5.376 11.3111 8.76 15.3427 5.8998 4.2106-2.9872 3.6608-12.3814-1.2544-17.2582-3.6697-3.641-10.7024-5.6861-14.3792-2.3108z" fill="#f7c394" stroke="#333" stroke-miterlimit="10" stroke-width=".159845"/><path d="m34.8888 65.471c-2.112 2.1821-.9632 6.2938.6928 8.5722 2.36 3.2464 7.4295 5.078 9.8541 3.1315 2.5325-2.033 1.8365-7.9111-1.432-10.7898-2.4403-2.1491-6.9325-3.1705-9.1149-.9139z" fill="#ffc9a1"/><path d="m31.0299 75.2969c1.9421 3.0352 6.2432 6.503 11.0912 6.935-3.4036-.8-8.3205-4.2832-9.8125-6.615-2.4131-3.7719-3.6915-10.8471-.2909-13.6691 1.0371-.8606 3.6714-2.0839 7.2874-1.4439-4.416-1.36-7.1293-.1961-8.5674 1.1239-3.5539 3.2636-2.1209 9.8972.2922 13.6691z" fill="#000" fill-opacity=".1"/><path d="m67.0012 84.5361c4.928 0 7.04 4.32 8.32 7.872s1.856 7.04 1.856 9.3439c0 4.864-4.4378 9.775-10.176 9.824-5.617.048-10.176-4.96-10.176-9.824 0-2.3039.5664-5.808 1.856-9.3439 1.28-3.552 3.392-7.872 8.32-7.872z" fill="#7f6145" stroke="#333" stroke-miterlimit="10" stroke-width=".159845"/><path d="m67.0007 111.576c-5.6215.051-10.56-5.024-10.176-10.784.32 4.736 4.6448 9.231 10.176 9.184s9.856-4.448 10.176-9.184c.384 5.76-4.5545 10.733-10.176 10.784z" fill="#000" fill-opacity=".15"/><path d="m66.9997 88.5042c3.328 0 5.12 2.176 5.568 4.096 1.1037 4.7302 2.048 8.7678.128 11.1998s-4.3184 2.624-5.696 2.624c-1.5216 0-3.776-.192-5.696-2.624s-1.0381-6.2025.128-11.1998c.448-1.92 2.24-4.096 5.568-4.096z" fill="#f7c394" stroke="#333" stroke-miterlimit="10" stroke-width=".159845"/><path d="m67.0009 106.424c-4.352 0-7.168-3.008-6.816-6.9118.128 3.6798 3.072 6.0798 6.816 6.0798s6.688-2.4 6.816-6.0798c.352 3.9038-2.464 6.9118-6.816 6.9118z" fill="#000" fill-opacity=".1"/><path d="m63.9837 99.7711c-.6834-.9005-.9693-2.2418-.4443-4.036 1.25 3.2381 5.7131 3.2439 6.9608.0005.5249 1.7941.239 3.1354-.4444 4.0357-.7139.9407-1.8723 1.4147-3.036 1.4147s-2.3221-.474-3.0361-1.4149z" fill="#d6d6d6" stroke="#333" stroke-width=".159845"/><path d="m56.1745 110.215c-.1618-.207-.0764-.488.1184-.751.3991-.538.5533-1.078.6352-2.225.09-1.261-.086-3.102-.2147-4.446-.199-2.078-.0243-4.1092.5306-6.1197-.8523 1.4778-1.3545 3.2466-1.4764 4.9507-2.0161-1.9843-3.6288-.596-4.224 1.169-.3841-3.3133.9565-6.9068 2.7285-9.5014 8.1801 3.1664 17.3851 3.2241 25.5594-.0199 1.6817 2.5522 2.896 5.264 2.448 8.9603-1.0266-1.639-2.9911-1.876-4.192-.255.064-1.9853-.3369-3.5915-1.2045-5.201.4486 2.1462.6889 4.184.3239 6.38-.1746 1.353-.3697 2.716-.2727 4.083.0864 1.212.1795 1.702.5597 2.214.2016.272.2413.534.1181.779-.7236 1.44-8.2428 1.812-10.3363 1.812.3556-4.768-1.2669-11.668 2.4022-15.5214-1.5316 0-3.0632-.0032-4.5949-.0134 2.2402 4.7698 2.4573 10.3778 1.8615 15.5348-2.1486-.029-9.433-.116-10.77-1.829z" fill="#f9eb3d" stroke="#333" stroke-linecap="round" stroke-linejoin="round" stroke-width=".159845"/><g fill="#000"><path d="m76.5866 109.185c-.4057-.546-.6198-1.563-.704-2.744-.1334-1.871.8995-6.028.7075-10.3016.643 1.1645.9442 4.5176.643 6.7396-.182 1.342-.4256 3.138-.338 4.366.0842 1.181.2458 1.722.6506 2.267 1.2699 1.712-5.2355 2.48-10.2596 2.48l.032-.88c3.2801 0 10.1274-.771 9.2685-1.927z" fill-opacity=".15"/><path d="m58.0198 106.441c-.0851 1.181-.2992 2.198-.704 2.744-1.0462 1.41 6.4352 1.927 9.7152 1.927l-.096.912c-5.104.064-12.0273-.72-10.6743-2.544.4048-.545.5984-1.054.6826-2.235.1835-2.574-.5866-5.125-.2294-7.7034.2358-1.7028.1881-2.2374.9241-3.4022-.1926 4.2736.5152 8.4306.3818 10.3016z" fill-opacity=".15"/><path d="m55.2583 93.6567c-.9979 1.6197-2.4106 4.6392-2.4106 7.2933-.5936.378-1.0452 1.075-1.3041 1.843-.3841-3.3131.9565-6.9066 2.7285-9.5013.3272.1267.6559.2483.9862.365z" fill-opacity=".15"/><path d="m78.7881 93.3873c1.075 1.5005 2.947 4.7485 2.595 7.9167.384.192.672.48.864 1.008.544-3.2642-.576-6.3362-2.544-9.2641-.3302.1185-.582.2309-.915.3394z" fill-opacity=".15"/></g><path d="m51.9333 100.815c-.048-.621.7186-1.0273 1.1552-.622.2957-.4826.8719-.4253 1.1491-.014.5054-.4431 1.2094-.107 1.1648.482.8675-.201.9941.947.5407 1.491-.7681-2.08-3.4572-1.715-4.464.56-.624-.56-.4315-1.85.4542-1.897z" fill="#f9eb3d" stroke="#333" stroke-width=".159845"/><path d="m82.0499 100.815c.048-.621-.7185-1.0273-1.1552-.622-.2957-.4826-.8718-.4253-1.1491-.014-.5054-.4431-1.2094-.107-1.1648.482-.8675-.201-.9941.947-.5406 1.491.768-2.08 3.3762-1.731 4.383.544.608-.72.5124-1.834-.3733-1.881z" fill="#f9eb3d" stroke="#333" stroke-width=".159845"/><path d="m66.5193 112.042c0-2.306 0-4.668 0-7.048 0-2.36-.768-5.8659-1.7057-7.8403-.6286-.8997.6355-1.0149.9377-.2963.1738.4134 1.0415 2.9767 1.248 3.5656.3081-.7522 1.1255-3.2162 1.3436-3.5656.4004-.6413 1.2551-.215.8096.5226-.4378.7916-1.5548 3.2-1.6732 7.599-.0631 2.371 0 4.661 0 7.068-.32.004-.6401-.002-.96-.005z" fill="#fff" stroke="#333" stroke-linecap="round" stroke-linejoin="round" stroke-width=".159845"/><path d="m66.5194 104.994v7.047h.416v-7.047c0-2.36-.7904-5.9238-1.728-7.8982-.1281 0-.32 0-.432 0 .9376 1.9744 1.744 5.5382 1.744 7.8982z" fill="#000" fill-opacity=".15"/><path d="m66.8074 101c.048.064.176.144.32.208.4523-1.104 1.152-3.8242 1.919-4.6168-.2078-.1051-.5091-.0453-.7034.2659-.5436 1.1507-1.0559 2.8303-1.5356 4.1429z" fill="#000" fill-opacity=".15"/><path d="m66.566 104.133c-.2699 0-.4953-.226-.4957-.495v-2.889c.0004-.27.2259-.496.4957-.496h.7862c.2699 0 .4954.226.4957.496v2.889c-.0003.269-.2258.495-.4957.495zm-.0438-1.664c-.0175 0-.032.015-.032.032v.915c0 .017.0145.032.032.032h.8876c.0175 0 .032-.015.032-.032v-.915c0-.017-.0145-.032-.032-.032z" fill="#fff" stroke="#333" stroke-width=".159845"/><path d="m66.7356 103.448c.0835.159.2506.269.4394.269h.6672c-.0393.233-.2462.416-.489.416h-.7862c-.2699 0-.4954-.226-.4957-.495v-2.889c.0003-.27.2258-.496.4957-.496h.119c0 .715-.0067 1.507-.0067 2.216h-.1562c-.0174 0-.032.015-.032.032v.915c0 .017.0146.032.032.032z" fill="#000" fill-opacity=".15"/><path d="m79.64 93.1758c.2264.3405.5391.8416.736 1.184-.9111.3657-1.8107.6954-2.7036.9889-2.0737 2.7919-6.905 3.3637-10.6724 3.3637-3.8281 0-8.7821-.5593-10.7865-3.4014-.8554-.2839-1.7171-.601-2.5895-.9512.2044-.3433.5043-.8467.736-1.184 6.184 2.3961 19.1265 2.4121 25.28 0z" fill="#000" fill-opacity=".15"/><path d="m75.5683 32.9793c12.7411 4.1337 22.3891 12.8998 22.3437 29.1257-.0349 12.44-11.2023 31.706-30.9258 31.8778-19.0278.1661-30.9325-19.079-30.8982-31.8778.0422-15.63 13.8281-31.7101 30.912-32.912 17.0656-1.1995 29.8947 10.721 8.5683 3.7863z" fill="#f9eb3d" stroke="#333" stroke-linecap="round" stroke-linejoin="round" stroke-width=".159845"/><path d="m80.7924 30.9199c-2.8822-.4912-7.1437-1.3095-12.7059-.9184-20.9108 1.47-36.0621 24.6784-27.6666 43.4906 2.1805-2.2522 4.8365-2.8922 5.6829-3.1731.2541.2742.5632.5654.6736.6969-2.6037.8113-5.6297 2.573-6.9321 5.0189-2.4407-4.7232-3.744-9.6819-3.7309-13.9306.0422-15.6304 13.831-31.712 30.9149-32.9142.9326-.0655 1.8186-.0941 2.6601-.0941 4.784 0 8.816 1.072 11.104 1.824z" fill="#000" fill-opacity=".15"/><path d="m97.865 62.106c-.0115 4.0877-1.2198 8.9123-3.5373 13.5543-2.3987-3.2845-6.6953-4.5965-7.1347-4.5965.128-.16.512-.6304.64-.784.752.176 4.1159.8931 5.993 3.3984 1.8976-4.2288 2.7686-8.1651 2.7789-11.8675.047-16.7756-11.3159-25.1149-21.0356-28.8327 12.7412 4.1338 22.3412 12.9018 22.2957 29.128z" fill="#000" fill-opacity=".15"/><path d="m58.2006 41.512c-9.504 0-21.28 20.112-11.632 29.392-18.416 5.76 0 24.928 20.432 24.928s38.8484-19.168 20.432-24.928c9.648-9.28-2.128-29.392-11.632-29.392-4.048 0-6.2563 1.872-8.8 3.728-2.544-1.856-4.752-3.728-8.8-3.728z" fill="#ffcd98" stroke="#333" stroke-width=".159845"/><path d="m90.9714 61.144c-.5024-9.8733-8.48-19.6221-15.408-19.6221-4.3072 0-6.9184 2.6285-8.5632 3.7181-1.3152-.8976-4.24-3.7181-8.5888-3.7181-8.1792 0-15.2992 11.9421-15.4282 19.9267-.719-8.5926 5.8752-21.4886 15.473-21.4886 4.992 0 7.648 2.4 8.544 3.392.896-.992 3.552-3.392 8.544-3.392 9.524 0 16.112 12.208 15.4272 21.184z" fill="#000" fill-opacity=".15"/><path d="m43.0127 60.8363c-.2276 3.7584.7686 7.3605 3.5665 10.0516-.3337.1044-.6552.2451-.9649.3581.7145-.2301 1.3972-.393 2.1865-.5341-2.7053-2.6021-4.2709-6.1365-4.7881-9.8756z" fill="#000" fill-opacity=".1"/><path d="m39.756 75.5333c-4.3496 7.8484 10.6982 20.2826 27.2448 20.2826 16.5467 0 31.7815-12.5712 27.1921-20.4115 3.0515 7.1713-11.4891 19.2115-27.1921 19.2115-15.6093 0-30.0699-11.8969-27.2448-19.0826z" fill="#000" fill-opacity=".1"/><path d="m88.4568 71.2559c-.6964-.2051-1.4271-.3959-2.256-.544 2.7304-2.6262 4.2998-6.202 4.8022-9.9795.2524 3.7958-.7362 7.4396-3.5599 10.1555.3623.1133.6797.2446 1.0137.368z" fill="#000" fill-opacity=".1"/><path d="m64.1197 116.792c1.0239 0 2.0188-.755 2.1342-1.797.2916-2.63-3.0191-2.869-4.8212-2.909-1.8273-.04-4.929.306-5.4727 2.312-.4751 1.754 1.1677 2.394 2.3357 2.394s1.568-.389 2.9754-.389c1.2292 0 1.8246.389 2.8486.389z" fill="#f7c394" stroke="#333" stroke-miterlimit="10" stroke-width=".159845"/><path d="m64.0877 116.088c-1.024 0-1.6194-.389-2.8486-.389-1.4074 0-1.8074.389-2.9754.389-.9085 0-2.1041-.387-2.3671-1.384-.2153 1.523 1.3015 2.088 2.3991 2.088 1.168 0 1.568-.389 2.9754-.389 1.2292 0 1.8246.389 2.8486.389 1.3715 0 2.3359-1.093 2.109-2.569-.0949 1.071-1.0891 1.865-2.141 1.865z" fill="#000" fill-opacity=".1"/><path d="m69.8799 116.792c-1.024 0-2.0189-.755-2.1343-1.797-.2916-2.63 3.0191-2.869 4.8212-2.909 1.8273-.04 4.9291.306 5.4727 2.312.4751 1.754-1.1676 2.394-2.3356 2.394s-1.568-.389-2.9755-.389c-1.2292 0-1.8246.389-2.8485.389z" fill="#f7c394" stroke="#333" stroke-miterlimit="10" stroke-width=".159845"/><path d="m69.9125 116.088c1.0239 0 1.6193-.389 2.8485-.389 1.4075 0 1.8075.389 2.9755.389.9084 0 2.104-.387 2.367-1.384.2153 1.523-1.3015 2.088-2.399 2.088-1.168 0-1.568-.389-2.9755-.389-1.2292 0-1.8246.389-2.8485.389-1.3716 0-2.336-1.093-2.1091-2.569.0949 1.071 1.0891 1.865 2.1411 1.865z" fill="#000" fill-opacity=".1"/><path d="m54.2448 107.316c1.8181.002 2.9756-2.179 1.8749-3.688.5093-1.447-.5788-3.053-2.1331-3.09-1.7921-.043-2.8277 1.872-2.6401 3.492.1754 1.514 1.2008 3.285 2.8983 3.286z" fill="#4b72d1" stroke="#333" stroke-miterlimit="10" stroke-width=".159845"/><path d="m51.3465 104.03c.2171 1.874 1.7399 4.058 4.0119 3.002-2.2023-.282-3.744-4.016-2.6595-6.139-.1725.123-.4445.267-.8832.884-.3933.695-.5662 1.478-.4692 2.253z" fill="#000" fill-opacity=".15"/><path d="m79.7552 107.316c-1.8181.002-2.9756-2.179-1.8749-3.688-.5093-1.447.5788-3.053 2.1331-3.09 1.7921-.043 2.8277 1.872 2.6401 3.492-.1754 1.514-1.2008 3.285-2.8983 3.286z" fill="#4b72d1" stroke="#333" stroke-miterlimit="10" stroke-width=".159845"/><path d="m82.6525 104.03c-.2171 1.874-1.7399 4.058-4.0119 3.002 2.2023-.282 3.744-4.016 2.6596-6.139.1724.123.4444.267.8831.884.3933.695.5663 1.478.4692 2.253z" fill="#000" fill-opacity=".15"/><path d="m97.8104 59.9261c-19.9306-17.8861-41.6906-17.8861-61.6131.0605.033-.6885.089-1.3877.168-2.0976 16.576-17.5039 44.8272-18.1579 61.4246.0947.0173.6413.0241 1.2887.0205 1.9424z" fill="#000" fill-opacity=".15"/><path d="m97.8104 59.926c-16.4746-19.2941-45.1466-19.2941-61.6131.0605.1744-3.6179.9811-7.5651 2.4038-11.456 15.6527-15.7575 43.1998-14.521 58.321 1.4761.6128 3.1053.9116 6.4279.8883 9.9194z" fill="#4f4f4f" stroke="#333" stroke-miterlimit="10" stroke-width=".159845"/><path d="m97.7879 57.8935c.0192.6423.0803 1.4277.0767 2.0824-16.24-19.04-44.594-19.6796-61.68-.016.0352-.6909.1115-1.4581.1926-2.17 17.5356-19.0905 45.1363-18.7817 61.4107.1036z" fill="#000" fill-opacity=".15"/><path d="m91.9494 37.4736c-11.5894-8.9328-29.7088-10.8491-43.0275-4.5856 12.4017-11.0929 33.5462-9.6535 43.0275 4.5856z" fill="#736c3b" stroke="#333" stroke-miterlimit="10" stroke-width=".159845"/><path d="m96.923 50.0081c-18.5303-16.064-41.3143-16.064-58.9904.5033 1.696-6.0352 4.832-11.3798 9.2573-15.9561 9.1576-9.468 39.0813-7.0387 45.751 4.5174 1.9523 3.3834 3.217 7.1136 3.9821 10.9354z" fill="#4f4927" stroke="#333" stroke-miterlimit="10" stroke-width=".159845"/><path d="m98.5162 42.0131c-4.8443-4.2162-8.6496-9.494-11.1197-15.4221-.2585-.6211.2164-1.542.9312-1.8345l1.936-.7927c.5194-.2124 3.296 1.6 7.5408 6.537 3.6985 4.3053 4.4745 9.1952 4.1095 9.6208l-1.364 1.5872c-.503.5872-1.5263.7472-2.0338.3043z" fill="#f41655" stroke="#333" stroke-miterlimit="10" stroke-width=".159845"/><path d="m101.915 40.1217c-.455.53-.91 1.059-1.364 1.5872-.503.586-1.5273.746-2.0348.3044-4.8444-4.2162-8.6499-9.4941-11.1197-15.4224-.2585-.6208.2164-1.5418.9312-1.834l.376-.1539c2.4199 4.6976 5.7102 8.8926 9.696 12.3619.5076.4416 1.5312.2816 2.0343-.304l.64-.7433c.883 2.2377 1.051 3.9593.841 4.2041z" fill="#000" fill-opacity=".2"/><path d="m98.2004 44.8996c-6.1773-4.5569-10.9775-10.7299-13.8723-17.8394l1.7184-1.6762c2.9174 7.305 7.8407 13.6362 14.2015 18.2631z" fill="#736c3b" stroke="#333" stroke-miterlimit="10" stroke-width=".159845"/><path d="m84.3271 27.0601c2.8949 7.1095 7.6953 13.2825 13.8727 17.8393l2.0482-1.2524c-.231-.1679-.4604-.3386-.6876-.512l-1.3148.8044c-5.9844-4.4153-10.6798-10.3499-13.6001-17.1894z" fill="#000" fill-opacity=".2"/><path d="m95.5193 45.7271c-5.5131-4.2803-9.864-9.8754-12.6544-16.2729-.1117-.256-.0672-.5933.1066-.832.2867-.3926.5739-.7854.8617-1.1786 2.8948 7.1095 7.695 13.2825 13.8723 17.8394-.4518.1821-.9033.3635-1.3545.544-.2733.1116-.6109.0716-.8317-.0999z" fill="#736c3b" stroke="#333" stroke-miterlimit="10" stroke-width=".159845"/><path d="m100.056 44.1268c-6.9005-4.8179-11.4695-10.6627-14.4387-18.5366-.0656-.196-.0155-.4177.128-.5664l1.1398-1.1117c.169-.1648.3866-.1162.4675.1018 2.9786 8.008 7.6311 13.9584 14.6584 18.8179.192.1325.184.3552-.016.4781l-1.359.832c-.179.1023-.406.0964-.58-.0151z" fill="#423809" stroke="#333" stroke-miterlimit="10" stroke-width=".159845"/><path d="m97.6935 45.5991c-6.3424-4.62-11.2533-10.9351-14.1687-18.2202-.0255-.0706-.0133-.1513.032-.2112l.4609-.5984c.0681-.0877.1734-.0774.2121.0208 2.9297 7.4236 7.9273 13.851 14.4 18.5197.0858.0618.0698.1667-.032.2106l-.6931.2995c-.0688.0287-.1493.0208-.2112-.0208z" fill="#2d2d2d" stroke="#333" stroke-miterlimit="10" stroke-width=".159845"/><path d="m83.5248 27.379c2.9153 7.2851 7.8262 13.6003 14.1686 18.2205.0624.0419.1437.0496.2128.0201l.6935-.2992c.1021-.0441.1177-.1491.032-.2109l-.1834-.1328-.3261.1408c-.0691.0293-.1502.0215-.2124-.0204-6.3324-4.6125-11.2378-10.9151-14.1546-18.186l-.1978.256c-.0457.06-.0582.141-.0326.2119z" fill="#000" fill-opacity=".3"/><path d="m82.8649 29.454c2.7904 6.3977 7.1413 11.9929 12.6544 16.2733.2208.1712.5584.2112.832.1018.4512-.1816.9027-.3629 1.3546-.544-.1406-.1037-.2805-.2083-.4196-.3139l-.5849.2352c-.2733.1094-.6109.0694-.832-.1021-5.5131-4.2803-9.8641-9.8754-12.6544-16.273-.0627-.1519-.0782-.3191-.0445-.48-.0662.0912-.1325.1818-.199.273-.1738.2368-.2183.5737-.1066.8297z" fill="#000" fill-opacity=".2"/><path d="m85.6176 25.5901c2.9693 7.8752 7.5383 13.7187 14.4394 18.5366.174.1116.402.1171.581.0141l1.358-.832c.201-.1232.208-.3462.017-.48-.161-.1107-.32-.2221-.478-.3341-.349.1997-.699.3992-1.049.5984-.182.0973-.409.0848-.58-.032-6.6132-4.928-10.9584-10.7689-13.6944-18.4937l-.465.4534c-.1447.1492-.1953.3723-.129.5693z" fill="#000" fill-opacity=".3"/><path d="m37.9326 50.5114c17.6761-16.5673 40.4601-16.5673 58.9904-.5033-.1957-.9774-.424-1.9488-.6882-2.9099-.0054-.0192-.0107-.0381-.0158-.0565-7.4025-7.4519-17.1014-11.4663-27.6547-11.7923-12.1835-.3767-20.6716 4.6369-29.6157 12.1731-.0024.0064-.0049.013-.0074.0195-.3788 1.0022-.7152 2.0255-1.0086 3.0694z" fill="#000" fill-opacity=".15"/><path d="m37.4097 41.8016c5.0182-4.0077 9.0433-9.1199 11.7617-14.9382.2846-.6097-.1509-1.5499-.8528-1.8723l-1.9008-.8738c-.5099-.2343-3.3607 1.4592-7.8104 6.2123-3.8776 4.1451-4.8596 8.9978-4.5122 9.4385l1.2956 1.6434c.4771.6079 1.4931.8111 2.0189.3901z" fill="#f41655" stroke="#333" stroke-miterlimit="10" stroke-width=".159845"/><path d="m34.0942 39.7681c.4322.5487.8641 1.0965 1.2955 1.6434.4778.6067 1.4942.8099 2.0199.3901 5.0184-4.0076 9.0435-9.1199 11.7617-14.9385.2846-.6093-.1509-1.5495-.8528-1.8716l-.3692-.1697c-2.6162 4.5911-6.081 8.6432-10.2099 11.9409-.5257.4198-1.5417.2166-2.0199-.3897l-.608-.7698c-.977 2.1985-1.217 3.9114-1.0173 4.1649z" fill="#000" fill-opacity=".2"/><path d="m37.6036 44.6988c6.3644-4.2916 11.4214-10.2561 14.6141-17.2369l-1.646-1.7473c-3.2236 7.1751-8.4102 13.2925-14.9613 17.6463z" fill="#736c3b" stroke="#333" stroke-miterlimit="10" stroke-width=".159845"/><path d="m52.217 27.4619c-3.1928 6.9808-8.2499 12.9453-14.6144 17.237l-1.9932-1.338c.2379-.158.474-.3188.7084-.4825l1.2797.8594c6.1656-4.1584 11.1077-9.8892 14.3145-16.5991z" fill="#000" fill-opacity=".2"/><path d="m40.2466 45.6389c5.689-4.0434 10.2727-9.4496 13.331-15.7235.1224-.251.0922-.5899-.0713-.8357-.2699-.4043-.5402-.809-.8111-1.214-3.1928 6.9808-8.2497 12.9453-14.6141 17.237.4437.2011.8871.4013 1.3303.6007.2683.1232.6073.0975.8352-.0645z" fill="#736c3b" stroke="#333" stroke-miterlimit="10" stroke-width=".159845"/><path d="m35.7819 43.8483c7.0984-4.5219 11.9103-10.1683 15.2098-17.9097.0738-.193.0331-.4166-.1039-.5713l-1.0918-1.1588c-.1619-.1718-.3813-.1324-.4714.0819-3.3145 7.8749-8.2144 13.6233-15.441 18.1814-.1975.1242-.1992.347-.0036.4783l1.322.8887c.1747.1098.4017.1135.5799.0095z" fill="#423809" stroke="#333" stroke-miterlimit="10" stroke-width=".159845"/><path d="m38.0808 45.4191c6.5321-4.3477 11.7056-10.4496 14.9263-17.6048.0285-.0695.0197-.1506-.023-.2124l-.4351-.6174c-.0644-.0904-.17-.0847-.2129.0119-3.2409 7.293-8.5058 13.5034-15.1701 17.8943-.0882.0581-.0767.1636.0231.2117l.6799.3286c.0675.0316.1483.0271.2118-.0119z" fill="#2d2d2d" stroke="#333" stroke-miterlimit="10" stroke-width=".159845"/><path d="m53.0072 27.8143c-3.2207 7.1554-8.3942 13.2574-14.9263 17.6052-.0641.0393-.1456.0435-.2135.0112l-.6801-.3283c-.1002-.0484-.1114-.154-.0231-.212l.1888-.125.3198.1545c.0679.0321.1492.0278.2132-.0115 6.5217-4.3406 11.6892-10.4301 14.9107-17.5712l.1868.2641c.0432.0618.0522.1432.0237.213z" fill="#000" fill-opacity=".3"/><path d="m53.5771 29.9154c-3.0584 6.274-7.642 11.6803-13.3311 15.7238-.2279.1617-.5668.1874-.8356.0665-.4431-.2005-.8865-.4007-1.3303-.6008.1448-.0976.289-.1963.4324-.2959l.5745.2597c.2684.1209.6074.0952.8356-.0668 5.689-4.0434 10.2727-9.4496 13.331-15.7234.0691-.1492.0916-.3156.0647-.4777.0624.0939.1247.1872.1874.2811.1636.2439.1938.5825.0714.8335z" fill="#000" fill-opacity=".2"/><path d="m50.9916 25.9385c-3.2996 7.7426-8.1115 13.3878-15.2105 17.9096-.1785.1042-.4059.1001-.5805-.0104l-1.322-.8887c-.1956-.1316-.1929-.3547.004-.4803.1647-.1038.3283-.2084.4908-.3136.3409.2143.6819.4284 1.023.6422.1782.1049.4056.102.581-.0074 6.8156-4.644 11.4039-10.2961 14.464-17.8983l.4454.4727c.1383.1551.1794.3802.1048.5742z" fill="#000" fill-opacity=".3"/><path d="m71.3786 75.2479c-1.5456 0-2.8764.5581-4.3792.5581-1.5027 0-2.8336-.5581-4.3792-.5581-3.0048 0-8.2003-.5475-8.2003 10.1322 0 9.327 2.7907 11.8924 12.5795 11.8924s12.5796-2.8505 12.5796-11.8924c0-10.3034-5.1956-10.1322-8.2004-10.1322zm1.9616 12.185c-4.416 0 .7882-4.6036-6.3408-4.6036-7.1289 0-1.9251 4.6036-6.3408 4.6036-3.2489 0-3.0156-7.4388-1.0185-7.1232 2.1401.3379 5.3072-.3604 7.36-.3604s5.2192.6983 7.36.3604c1.9958-.3156 2.2291 7.1232-1.0199 7.1232z" fill="#7f6145" stroke="#333" stroke-miterlimit="10" stroke-width=".159845"/><path d="m73.3402 87.4341c1.618 0 2.3719-1.9239 2.4752-3.7367.24 2.0557-.5964 4.6035-2.4752 4.6035-4.4156 0 .7882-4.6035-6.3408-4.6035-7.1289 0-1.9248 4.6035-6.3408 4.6035-1.8787 0-2.7632-2.3238-2.4912-4.5203.1037 1.8128.8733 3.6535 2.4912 3.6535 4.4688 0-.8912-4.6036 6.3408-4.6036 7.129 0 1.9248 4.6036 6.3408 4.6036z" fill="#000" fill-opacity=".15"/><path d="m71.3786 75.2491c3.0049 0 8.2004-.1712 8.2004 10.1322-1.3476-8.2202-3.4825-9.264-8.2004-9.264-1.5456 0-2.8764.558-4.3792.558-1.5027 0-2.8336-.558-4.3792-.558-4.5152 0-7.8803 3.1221-7.8803 7.6633 0 9.327 2.4707 11.8925 12.2595 11.8925 7.3847 0 11.1066-1.6218 12.3319-6.3011-.8663 5.9152-4.1613 7.9011-12.3319 7.9011-10.272 0-12.5795-3.1192-12.5795-11.8918 0-7.3402 2.1315-10.1345 7.2037-10.1345 3.1038 0 3.7604.5604 5.3758.5604 1.5028 0 2.8336-.5581 4.3792-.5581z" fill="#000" fill-opacity=".15"/><path d="m57.6863 53.0496c3.7444.4351 6.4421 5.0464 6.0437 9.1083-.396 4.0453-3.933 8.2677-7.9747 7.8084-3.6697-.4183-6.05-4.5018-6.1283-7.9332-.1042-4.597 3.8882-9.4685 8.0593-8.9835z" fill="#fff"/><path d="m62.232 63.2553c.5345-2.7548-.9548-5.361-3.3263-5.8212-2.3716-.4601-4.7274 1.4001-5.2619 4.1549s.9548 5.361 3.3263 5.8212c2.3716.4601 4.7274-1.4001 5.2619-4.1549z" fill="#566859" stroke="#333" stroke-miterlimit="10" stroke-width=".159845"/><path d="m58.2056 66.0675c1.4144 0 2.5611-1.2821 2.5611-2.8637s-1.1467-2.8637-2.5611-2.8637-2.5611 1.2821-2.5611 2.8637 1.1467 2.8637 2.5611 2.8637z" fill="#000"/><path d="m60.4706 61.2025c.1801-.5089-.1067-1.0746-.6406-1.2636-.5339-.1889-1.1127.0704-1.2928.5793-.1801.5088.1067 1.0745.6406 1.2635s1.1127-.0704 1.2928-.5792z" fill="#fff" stroke="#333" stroke-miterlimit="10" stroke-width=".159845"/><path d="m59.5282 53.629c-4.9409-1.3512-9.0529 4.5026-8.9521 8.8965.0597 2.5927 1.435 5.5551 3.6915 7.0505-2.814-1.1792-4.5739-4.6011-4.6416-7.5424-.1046-4.5959 3.8878-9.4666 8.0589-8.9821.6448.0771 1.2698.2729 1.8433.5775z" fill="#000" fill-opacity=".05"/><path d="m60.1974 57.9444c-2.7281-.7753-5.143 1.5784-5.6363 4.1203-.405 2.0875.3401 4.0908 1.749 5.1576-1.9794-.7736-3.1483-3.141-2.6653-5.63.5348-2.7559 2.8908-4.6147 5.2624-4.1544.4573.0888.8946.2604 1.2902.5065z" fill="#000" fill-opacity=".15"/><path d="m76.3151 53.0496c-3.7444.4351-6.4421 5.0464-6.0437 9.1083.396 4.0453 3.933 8.2677 7.9748 7.8084 3.6697-.4183 6.0499-4.5018 6.1282-7.9332.1042-4.597-3.8882-9.4685-8.0593-8.9835z" fill="#fff"/><path d="m71.7688 63.2553c-.5345-2.7548.9548-5.361 3.3263-5.8212 2.3716-.4601 4.7274 1.4001 5.2619 4.1549s-.9548 5.361-3.3263 5.8212c-2.3716.4601-4.7274-1.4001-5.2619-4.1549z" fill="#566859" stroke="#333" stroke-miterlimit="10" stroke-width=".159845"/><path d="m75.7935 66.0675c-1.4145 0-2.5611-1.2821-2.5611-2.8637s1.1466-2.8637 2.5611-2.8637c1.4144 0 2.561 1.2821 2.561 2.8637s-1.1466 2.8637-2.561 2.8637z" fill="#000"/><path d="m73.5294 61.2025c-.1801-.5089.1067-1.0746.6406-1.2636.5339-.1889 1.1127.0704 1.2928.5793.1801.5088-.1067 1.0745-.6406 1.2635s-1.1127-.0704-1.2928-.5792z" fill="#fff" stroke="#333" stroke-miterlimit="10" stroke-width=".159845"/><path d="m74.4727 53.6283c4.9409-1.3513 9.0528 4.5026 8.9521 8.8965-.0598 2.5927-1.435 5.5551-3.6915 7.0505 2.8139-1.1792 4.5738-4.6011 4.6415-7.5425.1047-4.5958-3.8877-9.4665-8.0588-8.9821-.6448.0771-1.2698.2729-1.8433.5776z" fill="#000" fill-opacity=".05"/><path d="m73.8018 57.9444c2.728-.7753 5.143 1.5784 5.6363 4.1203.4049 2.0875-.3402 4.0908-1.7491 5.1576 1.9795-.7736 3.1483-3.141 2.6653-5.63-.5348-2.7559-2.8908-4.6147-5.2623-4.1544-.4574.0888-.8946.2604-1.2902.5065z" fill="#000" fill-opacity=".15"/><path d="m65.2402 56.2976.288.9078c.809-.2781 1.952-.4646 2.944.0471l.288-.8532c-1.326-.6825-2.6153-.4131-3.52-.1017z" fill="#cec467"/><path d="m65.3687 56.2546.1595.5029c.809-.2781 1.952-.4646 2.944.047l.1583-.4689c.0432.0203.0865.0415.1297.0638l-.288.8531c-.992-.5117-2.135-.3251-2.944-.047l-.288-.9078c.042-.0145.0849-.0289.1285-.0431z" fill="#000" fill-opacity=".2"/><path d="m97.9139 59.2092c-2.368-1.4915-5.0561-2.9002-8.6522-3.104-.6172-.0352-.6719.9248-.0547.96 3.3788.192 5.9357 1.536 8.1952 2.9593.517.3169 1.0375-.4839.5117-.8153z" fill="#cec467"/><path d="m98.1118 59.4554c-.101.2856-.4559.4053-.7085.2461-2.2595-1.4227-4.8163-2.7661-8.1952-2.9594-.1831-.0105-.3479-.1285-.417-.2983-.0806.2936.1083.601.417.6183 3.3789.192 5.9357 1.536 8.1952 2.9594.1522.0959.3265.087.4672.0134.1899-.1115.3177-.3635.2413-.5795z" fill="#000" opacity=".2"/><path d="m68.4699 57.8099c-.0275 4.438 2.4922 11.9516 9.122 12.678 6.6297.7264 15.19-3.0716 12.016-12.928-2.4532-7.6179-21.0951-6.656-21.138.25z" fill="#8df7ff" opacity=".5"/><path clip-rule="evenodd" d="m89.9422 57.3047c.7542 2.5446.7956 4.7252.299 6.5551-1.4708 5.4194-7.6931 7.5043-12.7933 6.9455-6.2235-.6819-9.5211-7.4441-9.5211-13.1234-.0001-4.6082 6.8399-5.6263 10.2203-5.7066 3.9621-.094 10.4455.7757 11.7951 5.3294zm-21.1194.3772c0 5.2144 2.9661 11.602 8.7227 12.2328 4.6518.5096 10.4778-1.3037 11.831-6.2895.4446-1.6383.4237-3.6466-.2934-6.0659-1.2162-4.1038-7.4088-4.7714-10.9148-4.6882-2.8056.0666-9.3456.825-9.3455 4.8108z" fill="#cec467" fill-rule="evenodd"/><path d="m90.5675 61.0864c-.0158.8421-.1283 1.6276-.3263 2.3573-1.4708 5.4194-7.6931 7.5043-12.7933 6.9455-6.1263-.6712-9.4174-7.2343-9.5187-12.8565-.0016.0493-.0024.099-.0024.1491 0 5.6793 3.2976 12.4416 9.5211 13.1234 5.1002.5589 11.3225-1.5261 12.7933-6.9455.2303-.8486.3449-1.7726.3263-2.7733z" fill="#000" fill-opacity=".2"/><path d="m68.8255 57.5414c-.0018-.0922-.0027-.1841-.0027-.2756-.0001-3.9858 6.5399-4.7442 9.3455-4.8108 3.506-.0832 9.6986.5844 10.9148 4.6882.4331 1.4611.6122 2.7723.5882 3.9425-.0213-1.0627-.2057-2.2361-.5882-3.5265-1.2162-4.1037-7.4088-4.7714-10.9148-4.6882-2.7724.0658-9.191.8071-9.3428 4.6704z" fill="#000" fill-opacity=".2"/><path d="m36.0863 59.2004c2.368-1.4915 5.056-2.9002 8.6522-3.104.6172-.0352.6719.9248.0547.96-3.3789.192-5.9357 1.536-8.1952 2.9594-.517.3168-1.0375-.484-.5117-.8154z" fill="#cec467"/><path d="m35.8887 59.4466c.1009.2856.4559.4053.7084.2461 2.2596-1.4227 4.8164-2.7661 8.1952-2.9593.1831-.0106.348-.1285.4171-.2983.0806.2935-.1083.6009-.4171.6183-3.3788.192-5.9356 1.536-8.1952 2.9593-.1521.0959-.3264.087-.4672.0134-.1898-.1115-.3176-.3635-.2412-.5795z" fill="#000" opacity=".2"/><path d="m65.5304 57.8011c.0275 4.4381-2.4922 11.9516-9.1219 12.678-6.6298.7264-15.1901-3.0716-12.016-12.9279 2.4531-7.618 21.095-6.656 21.1379.2499z" fill="#8df7ff" opacity=".5"/><path clip-rule="evenodd" d="m44.0579 57.2959c-.7541 2.5446-.7956 4.7252-.2989 6.5551 1.4707 5.4194 7.693 7.5044 12.7933 6.9455 6.2235-.6819 9.5211-7.4441 9.5211-13.1234 0-4.6082-6.84-5.6263-10.2203-5.7065-3.9622-.0941-10.4455.7756-11.7952 5.3293zm21.1195.3772c0 5.2144-2.9662 11.602-8.7227 12.2328-4.6519.5097-10.4779-1.3037-11.831-6.2895-.4446-1.6383-.4237-3.6465.2933-6.0659 1.2163-4.1038 7.4088-4.7714 10.9148-4.6882 2.8057.0666 9.3456.825 9.3456 4.8108z" fill="#cec467" fill-rule="evenodd"/><path d="m43.4326 61.0779c.0158.8421.1283 1.6275.3264 2.3573 1.4707 5.4194 7.693 7.5043 12.7933 6.9455 6.1263-.6713 9.4173-7.2343 9.5187-12.8565.0016.0493.0024.099.0024.1491 0 5.6793-3.2976 12.4415-9.5211 13.1234-5.1003.5588-11.3226-1.5261-12.7933-6.9455-.2303-.8486-.3449-1.7726-.3264-2.7733z" fill="#000" fill-opacity=".2"/><path d="m65.1746 57.5329c.0019-.0922.0028-.1841.0028-.2756 0-3.9859-6.5399-4.7442-9.3456-4.8108-3.506-.0833-9.6985.5844-10.9148 4.6882-.433 1.4611-.6122 2.7722-.5882 3.9425.0214-1.0627.2058-2.2362.5882-3.5265 1.2163-4.1038 7.4088-4.7715 10.9148-4.6882 2.7724.0658 9.191.8071 9.3428 4.6704z" fill="#000" fill-opacity=".2"/><path d="m60.1201 69.528c0 2.4432 3.1632 5.408 6.9202 5.376 3.4631-.0304 6.8398-2.9616 6.8398-5.369 0-4.868-13.76-4.9416-13.76-.007z" fill="#000" fill-opacity=".1"/><path d="m60.0234 68.952c0 2.4432 3.2074 5.408 7.0168 5.376 3.5114-.0304 6.9352-2.9616 6.9352-5.369 0-1.9369-4.0396-3.6406-6.9352-3.616-2.6888.025-7.0168 1.3172-7.0168 3.609z" fill="#7f6145"/><path d="m60.074 68.5287c1.3362 1.7519 3.9896 3.2301 6.9712 3.207 2.7587-.0219 5.4693-1.5079 6.8509-3.2496.0519.1555.0793.3134.0793.4729 0 2.4074-3.4238 5.3386-6.9352 5.369-3.8094.032-7.0168-2.9328-7.0168-5.376 0-.1451.0174-.2863.0506-.4233z" fill="#000" fill-opacity=".2"/><rect height="128" rx="8" stroke="#000" stroke-width="2" width="128" x="3" y="3"/><path d="m141.234 66.9069 8.762-5.0587c.594-.3429 1.306.2035 1.129.866l-3.422 12.7689c-.177.6625-1.067.7797-1.41.1857z" fill="#000"/><path d="m198.832 74.3142c-15.397 19.246-28.482-4.2341-52.007-5.8152" stroke="#000" stroke-linecap="round" stroke-linejoin="round" stroke-width="2.30952"/><path d="m196.14 62.3859c.328.6241.632 1.2564.911 1.8969.279.6241.419 1.3303.419 2.1186 0 .4106-.074.7965-.222 1.1578-.131.3614-.32.6816-.566.9608-.247.2792-.542.5009-.887.6651-.345.1643-.715.2464-1.109.2464-.345 0-.665-.1396-.961-.4188-.279-.2628-.435-.5666-.468-.9115.066-.1314.123-.2299.173-.2956.065-.0493.197-.0985.394-.1478.197.1971.394.2956.591.2956.279 0 .526-.1232.739-.3695.214-.2464.32-.5584.32-.9361 0-.1314-.008-.2136-.024-.2464-.181-.739-.411-1.4042-.69-1.9954-.279-.6077-.558-1.1743-.838-1.6998-.262-.5256-.492-1.0183-.689-1.4781-.197-.4763-.296-.9526-.296-1.4289 0-.3941.033-.7965.099-1.2071.065-.427.18-.8211.344-1.1824.165-.3614.378-.657.641-.8869.279-.2299.632-.3449 1.059-.3449.05 0 .091.0082.123.0246h.148c.165 0 .304.0904.419.271.115.1643.197.3121.246.4435 0 .1313-.049.2381-.147.3202-.083.0657-.165.1396-.247.2217-.197.2628-.345.5584-.443.8869-.082.312-.123.6323-.123.9607v.5913c0 .1149.041.2792.123.4927s.172.4434.271.6898c.115.2299.222.4516.32.6651.115.1971.205.3449.271.4434zm4.247 4.385c-.197-.2956-.369-.6405-.517-1.0346-.148-.3942-.279-.7966-.394-1.2072-.099-.427-.181-.8375-.247-1.2317-.065-.3942-.106-.739-.123-1.0347-.049-.5419-.18-1.0921-.394-1.6505-.197-.5584-.296-1.1086-.296-1.6505 0-.2792.124-.4435.37-.4927.246-.0657.476-.0986.69-.0986.065 0 .156.0164.271.0493.131.0164.254.0575.369.1232.132.0492.247.1149.345.197.115.0822.189.1807.222.2957 0 .3284.033.7062.098 1.1332.066.427.14.854.222 1.281.099.4106.189.8047.271 1.1825.082.3613.14.6569.172.8868.28-.3449.534-.8129.764-1.4042.247-.6076.493-1.1989.739-1.7737.263-.5912.542-1.1086.838-1.552.312-.4434.681-.6898 1.108-.739.345 0 .616.0246.813.0739.197.0328.345.0903.444.1724.098.0821.164.1889.197.3203s.066.2874.098.468c-.279.3121-.525.6159-.739.9115-.197.2792-.386.5666-.566.8622-.181.2957-.353.6077-.518.9362-.164.3284-.344.6815-.542 1.0593-.032.0821-.073.1724-.123.271-.033.0821-.074.1642-.123.2463-.23.3121-.419.6898-.567 1.1332-.131.427-.287.8458-.468 1.2564-.164.4106-.369.7719-.615 1.0839-.247.3121-.592.4927-1.035.542zm11.44-8.0063c.082-.0329.156-.0575.222-.0739.082-.0165.164-.0411.246-.0739.148.0328.304.0574.468.0739.181.0164.386.0575.616.1231.033.3778.074.7391.123 1.084.066.3449.099.7226.099 1.1332 0 1.166.033 2.3896.098 3.6706.083 1.281.124 2.7427.124 4.385 0 .7883-.058 1.5684-.173 2.3403-.115.7883-.369 1.5274-.763 2.2172-.132.1478-.255.3284-.37.5419-.115.23-.271.4517-.468.6652-.197.2299-.452.427-.764.5912-.295.1807-.69.2956-1.182.3449-.247-.0821-.452-.156-.616-.2217-.164-.0493-.287-.2464-.37-.5912.132-.2957.337-.5502.616-.7637.296-.1971.591-.4845.887-.8622.296-.3778.55-.928.764-1.6506.23-.7062.345-1.7244.345-3.0547 0-.3613 0-.7144 0-1.0593 0-.3285-.009-.657-.025-.9854-.016-.3285-.041-.6652-.074-1.01-.016-.3449-.049-.7227-.098-1.1333-.165.3449-.345.6734-.542.9854-.181.2957-.411.5666-.69.813-.263.2463-.583.4598-.961.6405-.361.1642-.796.2792-1.306.3449-.229-.115-.468-.2464-.714-.3942-.23-.1478-.443-.3202-.64-.5173-.198-.1971-.362-.4188-.493-.6651-.115-.2464-.173-.5256-.173-.8376 0-.0986.009-.1725.025-.2217.115-.3942.304-.9444.567-1.6506.262-.7062.591-1.4042.985-2.094.394-.7062.862-1.3138 1.404-1.8229.542-.5092 1.158-.7637 1.848-.7637.131 0 .263.0164.394.0492.131.0329.263.074.394.1232zm-3.35 6.6021c.246-.0328.493-.1806.739-.4434.263-.2628.509-.5994.739-1.01.246-.427.476-.9033.69-1.4288.213-.542.41-1.1086.591-1.6999.016-.1806.041-.3531.074-.5173.049-.1806.074-.3613.074-.542-.263.0165-.485.0739-.665.1725-.181.0985-.345.2217-.493.3695-.131.1478-.255.3121-.37.4927-.115.1642-.238.3285-.369.4927-.131.2792-.287.5748-.468.8869-.164.2956-.329.5994-.493.9115-.148.312-.279.624-.394.9361-.099.312-.148.6159-.148.9115 0 .2627.164.4188.493.468z" fill="#000"/></svg>