<svg fill="none" height="134" viewBox="0 0 216 134" width="216" xmlns="http://www.w3.org/2000/svg"><path d="m85.658 25.7225c-.5427-1.0573 1.5925-1.947 2.1131-.6077 4.2206-4.513 18.0669 10.9353 12.7369 16.6289 1.511.8934.8 2.8507-.7324 2.183l-1.505.9204c.832.6134-.3672.9097-.858.546-.4541.1828-1.0328.5635-1.5436.4801 1.3899 4.4806 1.9846 9.3538 1.9886 14.045 4.6504-.2438 7.6684 3.0993 7.5384 7.6612-.188 6.5624-4.881 12.3884-11.1425 14.2238-2.5107 5.6888-8.8189 9.4509-14.3653 11.5967.4466.6883.8527 1.4021 1.2123 2.1396 1.7175-1.7167 4.0322-2.8576 6.4251-2.4881 2.4631.3814 4.7667 2.2709 5.1719 4.8006.642 3.965-3.0929 7.248-6.6017 4.262-.8013-.666.2537-1.905 1.0384-1.219 2.4226 2.029 4.5226-.322 3.9412-3.0021-.3763-1.7368-2.1011-2.997-3.7958-3.2595-2.0941-.3234-4.1107.8966-5.511 2.5303.4044 1.213.6236 2.498.5932 3.7773.5289.258.5614 1.063.1416 1.671.5961 1.966-.75 5.131-3.1449 4.725-.5641.701-1.4494 1.026-2.3295 1.08.0987.565.9199 1.376.5363 1.91-.3328.555-1.6863.948-3.3308 1.22.0295.23.0662.457.103.686 1.6006.204 3.2898.791 3.6778 2.223.4755 1.755-1.1687 2.396-2.3378 2.396s-1.5694-.389-2.9782-.389c-.9812 0-1.9066.404-2.8838.389-1.0218-.013-1.9878-.754-2.1035-1.798-.0713-.644.0888-1.292.5516-1.762-.0251-.417-.0626-.819-.1103-1.208-.7924.023-1.5823.014-2.3751-.003-.0479.389-.0855.793-.1106 1.211.4101.416.6379.985.5517 1.762-.1165 1.052-1.0945 1.792-2.123 1.798-.9715.003-1.8884-.389-2.8642-.389-1.0403 0-2.0222.413-3.0589.388-1.3546-.034-2.6555-.924-2.2571-2.395.3879-1.431 2.077-2.019 3.6775-2.223.0331-.206.0688-.411.0944-.618-.9623-.156-3.6785-.395-3.6421-1.612-.0312-.826.7721-1.773.8393-2.712.2554-3.585-.6711-6.999.3161-10.5759-.7002 1.2141-1.1643 2.6244-1.3757 4.0339.3755.204.4216.837.1894 1.276.2153.507.2571 1.091.0601 1.651 1.075 1.474-.0745 3.693-1.8766 3.692-2.1695-.002-3.3035-2.784-2.8029-4.643-.4657-.463-.4278-1.353.0537-1.711.1607-2.7153 1.2858-5.4613 2.7022-7.5725-5.6266-2.1568-11.9479-5.8902-14.4714-11.6376-5.4446-1.5948-9.7232-6.2962-10.8604-11.8484-1.0314-5.0341 1.5889-10.36 7.3009-10.0347.404-4.8478 1.4933-9.6866 3.4405-14.1568-.4345-.0729-.8639-.3588-1.2611-.538-.4387.2971-1.5864-.0751-.8329-.583l-1.4647-.9832c-1.5997.7566-2.3115-1.9124-.6396-2.2122-4.8961-5.6953 9.2993-20.8826 13.4287-16.0755.7553-1.6724 2.6933 0 2.0855.6965l1.2303 1.306c.3893-.8516 1.1569.1377.7118.7267.2659.3978.7305.8616.7819 1.3596l.0002.0022c8.9143-5.1095 20.3283-5.2598 29.1838-.3844.0286-.529.5529-1.0056.8469-1.4075-.474-.5148.2378-1.2266.7418-.696zm-8.7709 81.0995c.3543-.015.7964-.081 1.0669-.336-.6089-.773-.7542-1.911-.0982-2.81-.1951-.554-.1561-1.132.0536-1.636-.2301-.419-.202-1.025.1304-1.259-.108-1.4419-.5016-2.7015-1.1817-3.9631.7068 3.3811-.0565 6.6041.029 10.0041z" style="fill-rule:evenodd;clip-rule:evenodd;fill:#f9eb3d;stroke:#333;stroke-width:.2;stroke-miterlimit:10"/><rect height="128" rx="8" stroke="#000" stroke-width="2" width="128" x="3" y="3"/><path d="m141.234 66.9067 8.762-5.0587c.594-.3429 1.306.2035 1.129.8659l-3.422 12.769c-.177.6625-1.067.7796-1.41.1857z" fill="#000"/><path d="m198.832 74.3137c-15.397 19.246-28.482-4.2341-52.007-5.8152" stroke="#000" stroke-linecap="round" stroke-linejoin="round" stroke-width="2.30952"/><rect fill="#000" height="11" rx="5.5" width="23" x="192" y="57"/></svg>