<svg fill="none" height="250" viewBox="0 0 177 250" width="177" xmlns="http://www.w3.org/2000/svg"><rect fill="#fffabb" height="170" rx="8" width="170" x="4" y="3"/><path d="m113.781 33.0891c-.721-1.4041 2.115-2.5858 2.806-.8071 5.606-5.9938 23.995 14.5234 16.917 22.0853 2.007 1.1865 1.061 3.7861-.973 2.8993l-1.999 1.2224c1.105.8147-.488 1.2081-1.14.7252-.603.2428-1.371.7484-2.05.6376 1.846 5.9508 2.636 12.423 2.641 18.6535 6.176-.3238 10.185 4.1162 10.012 10.175-.249 8.7157-6.482 16.4537-14.798 18.8907-3.335 7.556-11.713 12.552-19.079 15.402.593.914 1.132 1.862 1.61 2.842 2.281-2.28 5.355-3.795 8.533-3.305 3.271.507 6.331 3.016 6.869 6.376.853 5.267-4.108 9.626-8.768 5.66-1.064-.884.337-2.529 1.379-1.619 3.218 2.695 6.007-.428 5.235-3.986-.5-2.307-2.791-3.981-5.042-4.33-2.781-.429-5.459 1.191-7.319 3.361.537 1.611.828 3.318.788 5.017.702.342.745 1.412.188 2.22.792 2.61-.996 6.814-4.177 6.274-.749.932-1.925 1.363-3.094 1.435.131.75 1.222 1.827.713 2.536-.443.737-2.24 1.259-4.4242 1.621.0392.305.088.607.1368.911 2.1254.271 4.3694 1.051 4.8844 2.953.632 2.331-1.552 3.181-3.105 3.181-1.5523 0-2.0841-.516-3.9551-.516-1.3032 0-2.5322.537-3.83.516-1.3572-.017-2.64-1.001-2.7937-2.388-.0947-.854.1178-1.715.7325-2.339-.0333-.554-.0831-1.089-.1465-1.605-1.0523.031-2.1014.018-3.1544-.005-.0636.518-.1136 1.054-.1469 1.609.5447.553.8472 1.308.7328 2.34-.1548 1.397-1.4536 2.381-2.8197 2.388-1.2903.005-2.508-.516-3.804-.516-1.3816 0-2.6857.549-4.0626.515-1.799-.044-3.5268-1.227-2.9977-3.18.5152-1.902 2.7585-2.682 4.8842-2.953.044-.274.0913-.546.1254-.821-1.2781-.208-4.8855-.524-4.8371-2.14-.0416-1.098 1.0254-2.355 1.1146-3.603.3393-4.761-.8913-9.296.4198-14.046-.9299 1.613-1.5463 3.486-1.827 5.358.4987.27.5598 1.111.2515 1.694.2859.674.3415 1.449.0798 2.193 1.4277 1.957-.0989 4.905-2.4923 4.903-2.8814-.002-4.3876-3.697-3.7227-6.166-.6185-.614-.5682-1.797.0714-2.273.2134-3.606 1.7077-7.253 3.5887-10.057-7.4728-2.864-15.8683-7.823-19.2197-15.456-7.2311-2.118-12.9137-8.3619-14.424-15.7359-1.3698-6.6859 2.1102-13.7594 9.6966-13.3274.5365-6.4385 1.9832-12.8649 4.5694-18.8019-.5772-.0969-1.1475-.4766-1.675-.7146-.5826.3946-2.1069-.0997-1.1061-.7742l-1.9454-1.3059c-2.1246 1.0049-3.0699-2.5399-.8495-2.938-6.5026-7.5642 12.3507-27.7348 17.835-21.3503 1.0032-2.2212 3.5771 0 2.7699.925l1.634 1.7346c.5169-1.1311 1.5365.1828.9453.9651.3532.5283.9702 1.1443 1.0385 1.8057l.0003.0029c11.8393-6.7861 26.9985-6.9856 38.7597-.5105.038-.7026.734-1.3356 1.125-1.8693-.63-.6838.316-1.6291.985-.9244zm-11.649 107.7099c.47-.02 1.058-.107 1.417-.446-.809-1.027-1.002-2.538-.131-3.732-.259-.736-.207-1.503.072-2.172-.306-.557-.269-1.362.173-1.673-.144-1.915-.666-3.588-1.57-5.263.939 4.491-.075 8.771.039 13.286z" style="fill-rule:evenodd;clip-rule:evenodd;fill:#f9eb3d;stroke:#333;stroke-width:.2;stroke-miterlimit:10"/><rect height="170" rx="8" stroke="#000" stroke-width="2" width="170" x="4" y="3"/><path d="m17.8118 180.075 3.4014 12.695c.2306.86-.6944 1.57-1.4659 1.124l-14.87104-8.585c-.77154-.446-.61936-1.602.24118-1.832z" fill="#000"/><path d="m36.2469 236.382c-37.24702 0-31.24683-39.882-22.2466-49.382" stroke="#000" stroke-linecap="round" stroke-linejoin="round" stroke-width="3"/><g fill="#000"><rect height="11" rx="5.5" width="125" x="27" y="204"/><rect height="10" rx="5" width="87" x="45" y="231"/></g></svg>