<svg fill="none" height="176" viewBox="0 0 540 176" width="540" xmlns="http://www.w3.org/2000/svg" xmlns:xlink="http://www.w3.org/1999/xlink"><clipPath id="a"><path d="m0 0h540v176h-540z"/></clipPath><g clip-path="url(#a)"><rect fill="#fffabb" height="170" rx="8" width="170" x="185" y="3"/><path d="m281.693 142.852c-2.158-.315-4.894-1.371-8.366-3.23-.505-.27-.709-.928-.436-1.438.27-.505.929-.708 1.438-.436 3.207 1.716 5.788 2.725 7.671 3.001 1.23.18 2.115.042 2.63-.41.579-.506.527-1.402.376-3.076-.178-1.96-.398-4.4.84-7.205 1.87-4.238 6.529-8.267 11.437-7.509 3.116.482 6.103 2.813 6.788 5.975.584 2.693-.256 6.382-3.125 7.413-1.903.68-4.077-.1-5.561-1.363-.443-.369-.507-1.063-.129-1.507.374-.439 1.068-.494 1.507-.111.019.015 1.856 1.558 3.464.98 1.82-.654 2.115-3.355 1.766-4.963-.499-2.305-2.788-3.977-5.037-4.325-3.945-.609-7.684 2.91-9.168 6.268-1.016 2.302-.831 4.349-.668 6.155.17 1.863.328 3.623-1.091 4.866-1.176 1.037-2.851 1.139-4.336.915z" fill="#7f6145" stroke="#333" stroke-miterlimit="10" stroke-width=".2125"/><path d="m303.433 129.035c.47 2.169.05 4.868-1.607 6.463 2.184-1.432 2.765-4.571 2.244-6.973-.685-3.162-3.671-5.493-6.788-5.975-2.816-.435-5.601.788-7.716 2.584 4.851-3.431 12.465-2.565 13.867 3.901z" fill="#000" fill-opacity=".2"/><path d="m300.499 133.818c-1.149 1.336-3.212.648-4.373-.35-.133-.114-.293-.193-.465-.23-.171-.037-.349-.031-.518.017.169-.31.495-.52.847-.548.281-.022.559.068.774.25.938.829 2.543 1.495 3.735.861z" fill="#000" fill-opacity=".2"/><path d="m273.124 137.874c.149-.128.659-.383.978-.234.296.138.651.314 1.051.511 2.1 1.038 5.417 2.677 7.81 2.677 2.125 0 2.316-1.063 2.019-3.868.036.162.081.341.13.532.409 1.604 1.023 4.016-2.149 4.016-3.464 0-8.874-3-9.839-3.634z" fill="#000" fill-opacity=".2"/><path d="m252.448 136.747c1.551 0 2.79-1.384 2.636-2.908-.23-2.699.792-5.618 2.803-8.431 1.83-2.561 3.792-3.963 2.283-5.618s-4.912.167-6.605 2.529c-2.792 3.906-4.13 8.037-3.766 12.056.135 1.338 1.097 2.372 2.649 2.372z" fill="#7f6145" stroke="#333" stroke-miterlimit="10" stroke-width=".2125"/><path d="m251.007 133.014c-.018-4.771 3.808-11.8 8.292-13.777-5.525-.892-10.413 9.924-9.465 14.951.306-.501.837-.989 1.173-1.174z" fill="#000" fill-opacity=".15"/><path d="m268.273 149.477c.213-3.701 1.165-6.564 2.005-8.79s1.803-6.149-1.809-7.056c-5.164-1.295-8.003 10.801-8.215 14.49-.125 2.171 1.565 4.689 3.757 4.815 2.018.098 4.141-1.351 4.262-3.459z" fill="#7f6145" stroke="#333" stroke-miterlimit="10" stroke-width=".2125"/><path d="m260.202 148.116c2.189-.297 6.29-.297 8.012 1.445.014-.131.061-.507.07-.639-1.792-1.571-5.872-1.677-7.991-1.38-.011.141-.079.431-.091.574z" fill="#000" fill-opacity=".15"/><path d="m260.883 144.313c2.03 1.882 4.628 2.938 7.565 3.336.025-.213.077-.518.107-.723-2.916-.377-5.449-1.598-7.48-3.442-.085.255-.154.649-.192.829z" fill="#000" fill-opacity=".15"/><path d="m271.727 149.477c-.213-3.701-1.165-6.564-2.005-8.79s-1.803-6.149 1.809-7.056c5.164-1.295 8.003 10.801 8.215 14.49.125 2.171-1.565 4.689-3.757 4.815-2.018.098-4.141-1.351-4.262-3.459z" fill="#7f6145" stroke="#333" stroke-miterlimit="10" stroke-width=".2125"/><path d="m279.798 148.116c-2.189-.297-6.29-.297-8.012 1.445-.014-.131-.061-.507-.07-.639 1.792-1.571 5.872-1.677 7.991-1.38.011.141.079.431.091.574z" fill="#000" fill-opacity=".15"/><path d="m279.117 144.313c-2.03 1.882-4.628 2.938-7.565 3.336-.025-.213-.077-.518-.107-.723 2.916-.377 5.449-1.598 7.48-3.442.085.255.154.649.192.829z" fill="#000" fill-opacity=".15"/><path d="m287.552 136.747c-1.551 0-2.79-1.384-2.636-2.908.23-2.699-.792-5.618-2.803-8.431-1.83-2.561-3.792-3.963-2.283-5.618s4.912.167 6.605 2.529c2.792 3.906 4.13 8.037 3.766 12.056-.135 1.338-1.097 2.372-2.649 2.372z" fill="#7f6145" stroke="#333" stroke-miterlimit="10" stroke-width=".2125"/><path d="m288.993 133.014c.018-4.771-3.808-11.8-8.292-13.777 5.525-.892 10.413 9.924 9.465 14.951-.306-.501-.837-.989-1.173-1.174z" fill="#000" fill-opacity=".15"/><path d="m318.16 80.8655c4.722 4.335 2.819 13.1448-.386 18.1543-4.567 7.1402-15.022 11.6342-20.377 7.8352-5.592-3.967-4.862-16.4436 1.666-22.9206 4.874-4.8357 14.214-7.5518 19.097-3.0689z" fill="#f7c394" stroke="#333" stroke-miterlimit="10" stroke-width=".2125"/><path d="m312.649 85.9693c2.805 2.898 1.279 8.3589-.92 11.3849-3.135 4.3118-9.868 6.7438-13.088 4.1588-3.363-2.6998-2.439-10.5066 1.902-14.3299 3.241-2.8543 9.207-4.2109 12.106-1.2138z" fill="#ffc9a1"/><path d="m317.774 99.0192c-2.579 4.0308-8.291 8.6368-14.73 9.2108 4.52-1.063 11.051-5.689 13.032-8.7858 3.205-5.0094 4.903-14.4062.386-18.1543-1.377-1.143-4.876-2.7676-9.678-1.9176 5.865-1.8062 9.468-.2605 11.378 1.4926 4.72 4.3346 2.817 13.1449-.388 18.1543z" fill="#000" fill-opacity=".1"/><path d="m221.84 80.8655c-4.722 4.335-2.819 13.1448.386 18.1543 4.567 7.1402 15.022 11.6342 20.377 7.8352 5.592-3.967 4.862-16.4436-1.666-22.9206-4.874-4.8357-14.214-7.5518-19.097-3.0689z" fill="#f7c394" stroke="#333" stroke-miterlimit="10" stroke-width=".2125"/><path d="m227.351 85.9693c-2.805 2.898-1.279 8.3589.92 11.3849 3.135 4.3118 9.868 6.7438 13.088 4.1588 3.363-2.6998 2.439-10.5066-1.902-14.3299-3.241-2.8543-9.207-4.2109-12.106-1.2138z" fill="#ffc9a1"/><path d="m222.226 99.0192c2.579 4.0308 8.291 8.6368 14.73 9.2108-4.52-1.063-11.051-5.689-13.032-8.7858-3.205-5.0094-4.903-14.4062-.386-18.1543 1.377-1.143 4.876-2.7676 9.678-1.9176-5.865-1.8062-9.468-.2605-11.378 1.4926-4.72 4.3346-2.817 13.1449.388 18.1543z" fill="#000" fill-opacity=".1"/><path d="m269.999 111.29c6.545 0 9.35 5.738 11.05 10.455 1.7 4.718 2.465 9.35 2.465 12.41 0 6.46-5.894 12.982-13.515 13.048-7.46.064-13.515-6.588-13.515-13.048 0-3.06.753-7.714 2.465-12.41 1.7-4.717 4.505-10.455 11.05-10.455z" fill="#7f6145" stroke="#333" stroke-miterlimit="10" stroke-width=".2125"/><path d="m270.001 147.202c-7.466.068-14.025-6.672-13.515-14.322.425 6.29 6.169 12.26 13.515 12.197s13.09-5.907 13.515-12.197c.51 7.65-6.049 14.255-13.515 14.322z" fill="#000" fill-opacity=".15"/><path d="m270 116.56c4.42 0 6.8 2.89 7.395 5.44 1.466 6.282 2.72 11.645.17 14.875s-5.736 3.485-7.565 3.485c-2.021 0-5.015-.255-7.565-3.485s-1.379-8.238.17-14.875c.595-2.55 2.975-5.44 7.395-5.44z" fill="#f7c394" stroke="#333" stroke-miterlimit="10" stroke-width=".2125"/><path d="m270.001 140.36c-5.78 0-9.52-3.995-9.052-9.18.17 4.887 4.079 8.075 9.052 8.075s8.882-3.188 9.053-8.075c.467 5.185-3.273 9.18-9.053 9.18z" fill="#000" fill-opacity=".1"/><path d="m265.995 131.524c-.908-1.196-1.288-2.977-.59-5.36 1.66 4.301 7.587 4.308 9.244.001.697 2.382.318 4.164-.59 5.359-.948 1.25-2.487 1.879-4.032 1.879-1.546 0-3.084-.63-4.032-1.879z" fill="#d6d6d6" stroke="#333" stroke-width=".2125"/><path d="m255.623 145.396c-.215-.276-.102-.649.157-.998.53-.714.735-1.432.844-2.955.119-1.676-.114-4.12-.285-5.905-.265-2.76-.033-5.458.704-8.128-1.132 1.963-1.799 4.312-1.961 6.575-2.677-2.635-4.819-.792-5.61 1.553-.51-4.401 1.271-9.173 3.624-12.619 10.865 4.205 23.09 4.282 33.946-.027 2.234 3.39 3.847 6.992 3.252 11.9-1.364-2.177-3.973-2.491-5.568-.338.085-2.637-.447-4.77-1.6-6.907.596 2.85.915 5.556.431 8.473-.232 1.797-.491 3.607-.363 5.423.115 1.609.239 2.26.744 2.94.267.361.32.709.157 1.035-.961 1.912-10.948 2.406-13.728 2.406.472-6.332-1.683-15.496 3.19-20.614-2.034 0-4.068-.004-6.102-.018 2.975 6.335 3.263 13.783 2.472 20.632-2.854-.038-12.528-.154-14.304-2.428z" fill="#f9eb3d" stroke="#333" stroke-linecap="round" stroke-linejoin="round" stroke-width=".2125"/><g fill="#000"><path d="m282.733 144.027c-.539-.725-.823-2.076-.935-3.644-.177-2.485 1.195-8.006.94-13.682.854 1.546 1.254 6 .854 8.951-.242 1.782-.566 4.168-.449 5.799.112 1.568.326 2.286.864 3.011 1.686 2.273-6.954 3.293-13.626 3.293l.042-1.169c4.357 0 13.451-1.023 12.31-2.559z" fill-opacity=".15"/><path d="m258.074 140.383c-.113 1.568-.397 2.919-.935 3.644-1.389 1.872 8.547 2.559 12.903 2.559l-.127 1.211c-6.779.085-15.974-.956-14.177-3.378.538-.724.795-1.4.907-2.968.243-3.419-.779-6.807-.305-10.231.313-2.262.25-2.972 1.227-4.519-.256 5.676.684 11.197.507 13.682z" fill-opacity=".15"/><path d="m254.406 123.404c-1.325 2.151-3.201 6.161-3.201 9.686-.789.503-1.389 1.428-1.733 2.448-.51-4.4 1.271-9.173 3.624-12.619.435.168.871.33 1.31.485z" fill-opacity=".15"/><path d="m285.656 123.046c1.428 1.993 3.914 6.306 3.447 10.514.51.255.892.637 1.147 1.339.723-4.335-.765-8.415-3.379-12.304-.438.157-.772.307-1.215.451z" fill-opacity=".15"/></g><path d="m249.99 132.91c-.064-.823.954-1.364 1.534-.826.393-.64 1.158-.564 1.527-.017.671-.589 1.606-.143 1.547.64 1.152-.268 1.32 1.258.718 1.979-1.02-2.762-4.592-2.277-5.929.744-.829-.744-.573-2.457.603-2.52z" fill="#f9eb3d" stroke="#333" stroke-width=".2125"/><path d="m289.989 132.91c.064-.823-.954-1.364-1.534-.826-.393-.64-1.158-.564-1.526-.017-.672-.589-1.607-.143-1.547.64-1.153-.268-1.321 1.258-.718 1.979 1.02-2.762 4.484-2.299 5.821.723.807-.956.68-2.436-.496-2.499z" fill="#f9eb3d" stroke="#333" stroke-width=".2125"/><path d="m269.362 147.821c0-3.062 0-6.199 0-9.36 0-3.134-1.02-7.791-2.265-10.413-.835-1.195.844-1.348 1.245-.394.231.55 1.384 3.954 1.658 4.735.409-.998 1.495-4.271 1.784-4.735.532-.851 1.667-.285 1.075.694-.581 1.052-2.065 4.25-2.222 10.093-.083 3.149 0 6.19 0 9.387-.425.006-.85-.003-1.275-.007z" fill="#fff" stroke="#333" stroke-linecap="round" stroke-linejoin="round" stroke-width=".2125"/><path d="m269.362 138.461v9.36h.553v-9.36c0-3.135-1.05-7.868-2.295-10.49-.17 0-.425 0-.574 0 1.245 2.622 2.316 7.355 2.316 10.49z" fill="#000" fill-opacity=".15"/><path d="m269.745 133.156c.063.085.233.191.425.276.6-1.465 1.53-5.078 2.548-6.131-.276-.14-.676-.06-.934.353-.722 1.528-1.402 3.759-2.039 5.502z" fill="#000" fill-opacity=".15"/><path d="m269.425 137.318c-.358-.001-.658-.3-.658-.658v-3.837c0-.359.3-.658.658-.659h1.044c.359.001.658.3.658.659v3.837c0 .358-.299.657-.658.658zm-.058-2.21c-.023 0-.043.019-.043.042v1.215c0 .023.02.043.043.043h1.179c.023 0 .042-.02.042-.043v-1.215c0-.023-.019-.042-.042-.042z" fill="#fff" stroke="#333" stroke-width=".2125"/><path d="m269.65 136.408c.111.21.333.357.583.357h.887c-.053.31-.327.552-.65.553h-1.044c-.358-.001-.658-.3-.658-.658v-3.837c0-.359.3-.658.658-.659h.158c0 .95-.009 2.001-.009 2.944h-.207c-.023 0-.043.019-.043.042v1.215c0 .023.02.043.043.043z" fill="#000" fill-opacity=".15"/><path d="m286.787 122.765c.3.452.716 1.118.977 1.572-1.21.486-2.404.924-3.59 1.314-2.755 3.708-9.171 4.467-14.175 4.467-5.084 0-11.663-.743-14.325-4.517-1.137-.377-2.281-.799-3.44-1.264.272-.455.67-1.124.978-1.572 8.213 3.182 25.402 3.204 33.575 0z" fill="#000" fill-opacity=".15"/><path d="m281.38 42.8146c16.922 5.4902 29.736 17.1327 29.675 38.6827-.046 16.5219-14.878 42.1097-41.073 42.3377-25.271.221-41.082-25.3394-41.037-42.3377.057-20.7587 18.366-42.115 41.055-43.7113 22.666-1.593 39.704 14.2388 11.38 5.0286z" fill="#f9eb3d" stroke="#333" stroke-linecap="round" stroke-linejoin="round" stroke-width=".2125"/><path d="m288.317 40.0811c-3.828-.6524-9.488-1.7391-16.875-1.2197-27.772 1.9523-47.895 32.776-36.745 57.7609 2.896-2.9911 6.424-3.8411 7.548-4.2143.337.3642.748.751.895.9257-3.459 1.0774-7.477 3.4172-9.207 6.6657-3.242-6.273-4.973-12.8588-4.955-18.5016.056-20.7591 18.369-42.1175 41.058-43.7142 1.239-.087 2.416-.1249 3.534-.1249 6.353 0 11.708 1.4237 14.747 2.4224z" fill="#000" fill-opacity=".15"/><path d="m310.992 81.5003c-.015 5.429-1.62 11.8367-4.698 18.0018-3.185-4.3622-8.892-6.1047-9.475-6.1047.17-.2125.68-.8373.85-1.0413.998.2338 5.466 1.1862 7.959 4.5135 2.52-5.6164 3.677-10.8443 3.691-15.7616.062-22.28-15.029-33.3557-27.938-38.2933 16.922 5.4901 29.672 17.1351 29.611 38.6856z" fill="#000" fill-opacity=".15"/><path d="m258.313 54.1487c-12.623 0-28.263 26.7112-15.449 39.0362-24.459 7.6501 0 33.1071 27.136 33.1071s51.595-25.457 27.136-33.1071c12.814-12.325-2.826-39.0362-15.448-39.0362-5.377 0-8.309 2.4862-11.688 4.9512-3.379-2.465-6.311-4.9512-11.687-4.9512z" fill="#ffcd98" stroke="#333" stroke-width=".2125"/><path d="m301.837 80.2224c-.668-13.1129-11.263-26.0606-20.464-26.0606-5.721 0-9.189 3.491-11.373 4.9381-1.747-1.1921-5.631-4.9381-11.407-4.9381-10.863 0-20.319 15.8606-20.491 26.4652-.955-11.4121 7.803-28.5396 20.55-28.5396 6.63 0 10.158 3.1875 11.348 4.505 1.19-1.3175 4.717-4.505 11.347-4.505 12.65 0 21.399 16.2138 20.49 28.135z" fill="#000" fill-opacity=".15"/><path d="m238.142 79.814c-.302 4.9916 1.021 9.7756 4.737 13.3498-.444.1386-.871.3255-1.282.4755.949-.3055 1.856-.5219 2.904-.7093-3.593-3.4559-5.672-8.15-6.359-13.116z" fill="#000" fill-opacity=".1"/><path d="m233.817 99.3335c-5.777 10.4235 14.208 26.9375 36.184 26.9375s42.21-16.696 36.115-27.1088c4.052 9.5248-15.259 25.5158-36.115 25.5158-20.731 0-39.937-15.801-36.184-25.3445z" fill="#000" fill-opacity=".1"/><path d="m298.497 93.6525c-.925-.2724-1.895-.5257-2.996-.7225 3.626-3.4879 5.711-8.237 6.378-13.254.335 5.0414-.978 9.8807-4.728 13.4878.481.1505.903.3248 1.346.4887z" fill="#000" fill-opacity=".1"/><path d="m266.175 154.13c1.36 0 2.681-1.003 2.835-2.386.387-3.494-4.01-3.812-6.403-3.864-2.427-.053-6.547.406-7.269 3.071-.631 2.329 1.551 3.179 3.102 3.179s2.083-.516 3.952-.516c1.632 0 2.423.516 3.783.516z" fill="#f7c394" stroke="#333" stroke-miterlimit="10" stroke-width=".2125"/><path d="m266.132 153.195c-1.36 0-2.151-.516-3.783-.516-1.87 0-2.401.516-3.952.516-1.207 0-2.795-.514-3.144-1.839-.286 2.023 1.729 2.774 3.186 2.774 1.551 0 2.083-.516 3.952-.516 1.633 0 2.423.516 3.783.516 1.822 0 3.103-1.451 2.801-3.411-.126 1.422-1.446 2.476-2.843 2.476z" fill="#000" fill-opacity=".1"/><path d="m273.824 154.13c-1.36 0-2.681-1.003-2.834-2.386-.388-3.494 4.01-3.812 6.403-3.864 2.427-.053 6.546.406 7.268 3.071.631 2.329-1.55 3.179-3.102 3.179-1.551 0-2.082-.516-3.951-.516-1.633 0-2.424.516-3.784.516z" fill="#f7c394" stroke="#333" stroke-miterlimit="10" stroke-width=".2125"/><path d="m273.868 153.195c1.36 0 2.151-.516 3.783-.516 1.87 0 2.401.516 3.952.516 1.207 0 2.794-.514 3.144-1.839.286 2.023-1.729 2.774-3.186 2.774-1.552 0-2.083-.516-3.952-.516-1.633 0-2.423.516-3.783.516-1.822 0-3.103-1.451-2.802-3.411.127 1.422 1.447 2.476 2.844 2.476z" fill="#000" fill-opacity=".1"/><path d="m253.059 141.545c2.415.002 3.952-2.894 2.49-4.899.677-1.921-.768-4.054-2.833-4.103-2.38-.057-3.755 2.486-3.506 4.638.233 2.011 1.595 4.363 3.849 4.364z" fill="#4b72d1" stroke="#333" stroke-miterlimit="10" stroke-width=".2125"/><path d="m249.21 137.181c.288 2.489 2.311 5.389 5.328 3.987-2.925-.375-4.972-5.334-3.532-8.154-.229.163-.59.355-1.173 1.174-.522.923-.752 1.963-.623 2.993z" fill="#000" fill-opacity=".15"/><path d="m286.941 141.545c-2.415.002-3.952-2.894-2.49-4.899-.677-1.921.768-4.054 2.833-4.103 2.38-.057 3.755 2.486 3.506 4.638-.233 2.011-1.595 4.363-3.849 4.364z" fill="#4b72d1" stroke="#333" stroke-miterlimit="10" stroke-width=".2125"/><path d="m290.789 137.181c-.288 2.489-2.311 5.389-5.328 3.987 2.925-.375 4.972-5.334 3.532-8.154.229.163.59.355 1.173 1.174.522.923.752 1.963.623 2.993z" fill="#000" fill-opacity=".15"/><path d="m310.92 78.6049c-26.471-23.7549-55.371-23.7549-81.83.0804.044-.9143.118-1.843.223-2.7859 22.015-23.2473 59.536-24.1159 81.58.1258.023.8517.032 1.7116.027 2.5797z" fill="#000" fill-opacity=".15"/><path d="m310.92 78.605c-21.881-25.625-59.961-25.625-81.83.0803.231-4.8051 1.303-10.0474 3.192-15.215 20.789-20.9279 57.375-19.2857 77.458 1.9605.814 4.1242 1.211 8.537 1.18 13.1742z" fill="#4f4f4f" stroke="#333" stroke-miterlimit="10" stroke-width=".2125"/><path d="m310.89 75.9054c.026.8532.107 1.8962.102 2.7658-21.569-25.2875-59.226-26.1371-81.919-.0213.047-.9176.148-1.9365.256-2.8821 23.29-25.3545 59.947-24.9444 81.561.1376z" fill="#000" fill-opacity=".15"/><path d="m303.135 48.7852c-15.392-11.8639-39.457-14.4089-57.146-6.0902 16.471-14.7328 44.554-12.8211 57.146 6.0902z" fill="#736c3b" stroke="#333" stroke-miterlimit="10" stroke-width=".2125"/><path d="m309.74 65.4326c-24.61-21.335-54.87-21.335-78.346.6686 2.252-8.0155 6.417-15.1139 12.294-21.1918 12.163-12.5747 51.905-9.3482 60.763 5.9997 2.593 4.4935 4.273 9.4478 5.289 14.5235z" fill="#4f4927" stroke="#333" stroke-miterlimit="10" stroke-width=".2125"/><path d="m311.857 54.8145c-6.434-5.5997-11.488-12.6092-14.768-20.4824-.344-.825.287-2.0481 1.237-2.4366l2.571-1.0527c.69-.2822 4.377 2.125 10.015 8.6819 4.913 5.718 5.943 12.2124 5.457 12.7776l-1.811 2.108c-.667.7799-2.027.9924-2.701.4042z" fill="#f41655" stroke="#333" stroke-miterlimit="10" stroke-width=".2125"/><path d="m316.371 52.3022c-.605.7038-1.208 1.4065-1.812 2.108-.668.7782-2.028.9907-2.702.4042-6.434-5.5996-11.488-12.6094-14.768-20.4829-.344-.8245.287-2.0476 1.237-2.4357l.499-.2044c3.214 6.239 7.584 11.8105 12.878 16.4182.674.5865 2.033.374 2.702-.4038l.85-.9872c1.173 2.972 1.395 5.2585 1.116 5.5836z" fill="#000" fill-opacity=".2"/><path d="m311.438 58.6478c-8.204-6.0521-14.58-14.2506-18.424-23.6929l2.282-2.2261c3.875 9.7018 10.413 18.1105 18.862 24.2556z" fill="#736c3b" stroke="#333" stroke-miterlimit="10" stroke-width=".2125"/><path d="m293.012 34.9548c3.844 9.4423 10.22 17.6408 18.424 23.6929l2.72-1.6635c-.307-.2229-.611-.4496-.913-.68l-1.746 1.0685c-7.948-5.8641-14.184-13.746-18.062-22.8297z" fill="#000" fill-opacity=".2"/><path d="m307.877 59.7469c-7.322-5.6847-13.101-13.1158-16.806-21.6125-.149-.34-.09-.788.141-1.105.381-.5213.762-1.0431 1.145-1.5653 3.844 9.4423 10.219 17.6408 18.424 23.6929-.6.242-1.2.4828-1.799.7225-.363.1483-.812.0952-1.105-.1326z" fill="#736c3b" stroke="#333" stroke-miterlimit="10" stroke-width=".2125"/><path d="m313.902 57.6216c-9.165-6.3988-15.233-14.1615-19.177-24.619-.087-.2602-.02-.5547.17-.7523l1.514-1.4764c.224-.2189.513-.1543.621.1351 3.956 10.6357 10.135 18.5385 19.468 24.9926.255.1759.245.4718-.022.635l-1.804 1.105c-.238.1359-.539.128-.77-.02z" fill="#423809" stroke="#333" stroke-miterlimit="10" stroke-width=".2125"/><path d="m310.764 59.577c-8.424-6.136-14.946-14.5232-18.818-24.1987-.034-.0938-.018-.2009.043-.2805l.612-.7947c.09-.1165.23-.1029.281.0276 3.891 9.8594 10.529 18.3958 19.125 24.5964.114.0821.093.2215-.042.2797l-.921.3978c-.091.0381-.198.0276-.28-.0276z" fill="#2d2d2d" stroke="#333" stroke-miterlimit="10" stroke-width=".2125"/><path d="m291.946 35.3784c3.872 9.6756 10.394 18.063 18.818 24.1991.083.0557.191.0659.282.0268l.921-.3974c.136-.0586.157-.198.043-.2801l-.244-.1763-.433.187c-.091.0388-.199.0284-.282-.0272-8.41-6.126-14.925-14.4965-18.799-24.1532l-.263.34c-.06.0796-.077.1871-.043.2813z" fill="#000" fill-opacity=".3"/><path d="m291.071 38.1345c3.705 8.4968 9.484 15.928 16.806 21.6129.293.2274.742.2805 1.105.1352.599-.2411 1.199-.482 1.799-.7225-.187-.1377-.372-.2767-.557-.417l-.777.3124c-.363.1454-.811.0922-1.105-.1356-7.322-5.6847-13.101-13.1158-16.807-21.6125-.083-.2017-.103-.4239-.059-.6375-.088.1211-.176.2414-.264.3625-.231.3145-.29.7621-.141 1.1021z" fill="#000" fill-opacity=".2"/><path d="m294.726 33.0026c3.943 10.4592 10.011 18.2202 19.177 24.619.231.1482.533.1555.771.0187l1.804-1.105c.267-.1637.276-.4599.022-.6375-.213-.1471-.424-.295-.634-.4437-.464.2652-.928.5301-1.393.7947-.242.1292-.544.1126-.771-.0425-8.783-6.545-14.554-14.3025-18.187-24.562l-.618.6022c-.192.1981-.259.4945-.171.7561z" fill="#000" fill-opacity=".3"/><path d="m231.394 66.101c23.476-22.0035 53.736-22.0035 78.346-.6685-.26-1.2981-.563-2.5882-.914-3.8647-.007-.0255-.014-.0506-.021-.075-9.831-9.897-22.713-15.2286-36.729-15.6617-16.181-.5003-27.454 6.1584-39.333 16.1674-.003.0086-.007.0172-.01.026-.503 1.331-.95 2.6901-1.339 4.0765z" fill="#000" fill-opacity=".15"/><path d="m230.699 54.5332c6.665-5.3226 12.011-12.1122 15.621-19.8397.378-.8097-.2-2.0584-1.132-2.4867l-2.525-1.1605c-.677-.3111-4.463 1.9381-10.373 8.2508-5.15 5.5051-6.454 11.9502-5.993 12.5355l1.721 2.1826c.634.8074 1.983 1.0772 2.681.518z" fill="#f41655" stroke="#333" stroke-miterlimit="10" stroke-width=".2125"/><path d="m226.296 51.8325c.574.7288 1.148 1.4563 1.721 2.1827.634.8058 1.984 1.0756 2.682.5181 6.665-5.3226 12.011-12.1124 15.621-19.8402.378-.8093-.2-2.058-1.132-2.4858l-.49-.2254c-3.475 6.0976-8.077 11.4793-13.561 15.8591-.698.5575-2.047.2877-2.682-.5176l-.808-1.0223c-1.297 2.9197-1.616 5.1948-1.351 5.5314z" fill="#000" fill-opacity=".2"/><path d="m230.958 58.3812c8.453-5.6999 15.169-13.6215 19.409-22.8928l-2.186-2.3207c-4.281 9.5294-11.17 17.6541-19.87 23.4365z" fill="#736c3b" stroke="#333" stroke-miterlimit="10" stroke-width=".2125"/><path d="m250.367 35.4884c-4.241 9.2714-10.957 17.193-19.41 22.8928l-2.647-1.777c.316-.2098.629-.4234.94-.6407l1.7 1.1413c8.189-5.5228 14.752-13.1341 19.012-22.0457z" fill="#000" fill-opacity=".2"/><path d="m234.468 59.6298c7.556-5.3701 13.643-12.5502 17.705-20.8826.163-.3335.123-.7835-.095-1.11-.358-.537-.717-1.0744-1.077-1.6123-4.24 9.2713-10.956 17.193-19.409 22.8928.589.2671 1.178.5331 1.767.7979.356.1636.806.1294 1.109-.0858z" fill="#736c3b" stroke="#333" stroke-miterlimit="10" stroke-width=".2125"/><path d="m228.538 57.2517c9.427-6.0057 15.818-13.5048 20.2-23.7863.098-.2563.044-.5533-.138-.7587l-1.45-1.5392c-.215-.2281-.506-.1758-.626.1088-4.402 10.4589-10.91 18.0935-20.508 24.1472-.262.165-.264.4609-.004.6353l1.756 1.1803c.232.1458.533.1507.77.0126z" fill="#423809" stroke="#333" stroke-miterlimit="10" stroke-width=".2125"/><path d="m231.591 59.338c8.675-5.7744 15.546-13.8784 19.824-23.3815.038-.0923.026-.2-.031-.282l-.578-.82c-.085-.1201-.225-.1125-.282.0157-4.305 9.6861-11.297 17.9343-20.148 23.766-.117.0771-.102.2173.031.2811l.903.4364c.089.042.197.036.281-.0157z" fill="#2d2d2d" stroke="#333" stroke-miterlimit="10" stroke-width=".2125"/><path d="m251.416 35.9565c-4.278 9.5032-11.149 17.6074-19.824 23.3819-.085.0521-.194.0578-.284.0148l-.903-.436c-.133-.0643-.148-.2045-.031-.2816l.251-.1659.425.2051c.09.0427.198.0369.283-.0152 8.662-5.7649 15.525-13.8526 19.803-23.3368l.248.3508c.058.0821.07.1902.032.2829z" fill="#000" fill-opacity=".3"/><path d="m252.173 38.7472c-4.062 8.3326-10.15 15.5129-17.706 20.8831-.302.2148-.752.2489-1.109.0884-.589-.2663-1.178-.5322-1.767-.7979.192-.1297.384-.2607.574-.393l.763.3449c.357.1606.807.1264 1.11-.0887 7.556-5.3702 13.643-12.5503 17.705-20.8827.092-.1981.122-.4191.086-.6345.083.1248.166.2487.249.3734.217.324.257.7736.095 1.107z" fill="#000" fill-opacity=".2"/><path d="m248.738 33.4654c-4.382 10.2832-10.773 17.7806-20.201 23.7862-.237.1383-.539.1328-.771-.0139l-1.756-1.1803c-.26-.1748-.256-.4711.005-.6379.219-.1379.437-.2767.652-.4165.453.2846.906.5689 1.359.853.237.1393.539.1355.772-.0099 9.052-6.1678 15.145-13.6744 19.21-23.7711l.591.6277c.184.2061.238.505.139.7627z" fill="#000" fill-opacity=".3"/><path d="m275.815 98.9545c-2.052 0-3.82.7412-5.816.7412s-3.763-.7412-5.816-.7412c-3.991 0-10.891-.7271-10.891 13.4565 0 12.388 3.706 15.795 16.707 15.795s16.707-3.786 16.707-15.795c0-13.6838-6.9-13.4565-10.891-13.4565zm2.606 16.1835c-5.865 0 1.046-6.114-8.422-6.114s-2.557 6.114-8.421 6.114c-4.315 0-4.005-9.88-1.353-9.461 2.842.449 7.049-.478 9.775-.478s6.932.927 9.775.478c2.651-.419 2.961 9.461-1.354 9.461z" fill="#7f6145" stroke="#333" stroke-miterlimit="10" stroke-width=".2125"/><path d="m278.421 115.138c2.148 0 3.15-2.555 3.287-4.963.319 2.731-.792 6.114-3.287 6.114-5.865 0 1.046-6.114-8.422-6.114s-2.556 6.114-8.421 6.114c-2.495 0-3.67-3.086-3.309-6.003.138 2.407 1.16 4.852 3.309 4.852 5.935 0-1.184-6.114 8.421-6.114 9.468 0 2.557 6.114 8.422 6.114z" fill="#000" fill-opacity=".15"/><path d="m275.815 98.9549c3.991 0 10.891-.2274 10.891 13.4571-1.789-10.918-4.625-12.304-10.891-12.304-2.052 0-3.82.741-5.816.741s-3.763-.741-5.816-.741c-5.997 0-10.466 4.147-10.466 10.178 0 12.387 3.281 15.795 16.282 15.795 9.808 0 14.751-2.154 16.378-8.369-1.15 7.856-5.526 10.494-16.378 10.494-13.642 0-16.707-4.143-16.707-15.794 0-9.749 2.831-13.4601 9.567-13.4601 4.123 0 4.995.7442 7.14.7442 1.996 0 3.764-.7412 5.816-.7412z" fill="#000" fill-opacity=".15"/><path d="m257.63 69.4719c4.973.578 8.556 6.7024 8.027 12.097-.526 5.3727-5.223 10.9805-10.591 10.3705-4.874-.5554-8.035-5.9789-8.14-10.5362-.138-6.1055 5.165-12.5753 10.704-11.9313z" fill="#fff"/><path d="m263.668 83.0264c.71-3.6587-1.268-7.1201-4.418-7.7312s-6.279 1.8595-6.989 5.5182c-.709 3.6587 1.269 7.1201 4.418 7.7312 3.15.6111 6.279-1.8595 6.989-5.5182z" fill="#566859" stroke="#333" stroke-miterlimit="10" stroke-width=".2125"/><path d="m258.32 86.7616c1.879 0 3.402-1.7029 3.402-3.8034 0-2.1006-1.523-3.8034-3.402-3.8034-1.878 0-3.401 1.7028-3.401 3.8034 0 2.1005 1.523 3.8034 3.401 3.8034z" fill="#000"/><path d="m261.329 80.2999c.239-.6758-.142-1.4271-.851-1.6781s-1.478.0935-1.717.7693.142 1.4271.851 1.6781 1.478-.0935 1.717-.7693z" fill="#fff" stroke="#333" stroke-miterlimit="10" stroke-width=".2125"/><path d="m260.077 70.2409c-6.562-1.7946-12.023 5.9799-11.89 11.8156.08 3.4435 1.906 7.3779 4.903 9.364-3.737-1.5662-6.075-6.1109-6.164-10.0174-.139-6.1038 5.163-12.5727 10.703-11.9293.856.1024 1.686.3625 2.448.7671z" fill="#000" fill-opacity=".05"/><path d="m260.966 75.9729c-3.623-1.0297-6.83 2.0964-7.486 5.4723-.537 2.7724.452 5.4331 2.323 6.85-2.629-1.0275-4.181-4.1717-3.539-7.4774.71-3.6602 3.839-6.1289 6.989-5.5176.607.1179 1.188.3459 1.713.6727z" fill="#000" fill-opacity=".15"/><path d="m282.372 69.4719c-4.974.578-8.556 6.7024-8.027 12.097.526 5.3727 5.223 10.9805 10.591 10.3705 4.874-.5554 8.035-5.9789 8.139-10.5362.139-6.1055-5.164-12.5753-10.703-11.9313z" fill="#fff"/><path d="m276.333 83.0264c-.71-3.6587 1.268-7.1201 4.418-7.7312 3.149-.6111 6.278 1.8595 6.988 5.5182s-1.268 7.1201-4.418 7.7312-6.278-1.8595-6.988-5.5182z" fill="#566859" stroke="#333" stroke-miterlimit="10" stroke-width=".2125"/><path d="m281.679 86.7616c-1.879 0-3.402-1.7029-3.402-3.8034 0-2.1006 1.523-3.8034 3.402-3.8034 1.878 0 3.401 1.7028 3.401 3.8034 0 2.1005-1.523 3.8034-3.401 3.8034z" fill="#000"/><path d="m278.671 80.2999c-.239-.6758.142-1.4271.851-1.6781s1.478.0935 1.717.7693-.142 1.4271-.851 1.6781-1.478-.0935-1.717-.7693z" fill="#fff" stroke="#333" stroke-miterlimit="10" stroke-width=".2125"/><path d="m279.924 70.2406c6.562-1.7946 12.023 5.98 11.889 11.8157-.079 3.4434-1.906 7.3778-4.902 9.364 3.737-1.5662 6.074-6.111 6.164-10.0174.139-6.1038-5.163-12.5727-10.703-11.9293-.856.1023-1.686.3624-2.448.767z" fill="#000" fill-opacity=".05"/><path d="m279.033 75.9729c3.623-1.0297 6.831 2.0964 7.486 5.4723.538 2.7724-.452 5.4331-2.323 6.85 2.629-1.0275 4.181-4.1717 3.54-7.4774-.71-3.6602-3.84-6.1289-6.989-5.5176-.608.1179-1.188.3459-1.714.6727z" fill="#000" fill-opacity=".15"/><path d="m267.663 73.7859.383 1.2057c1.074-.3693 2.592-.6171 3.91.0625l.382-1.1331c-1.761-.9065-3.473-.5487-4.675-.1351z" fill="#cec467"/><path d="m267.834 73.729.212.6679c1.074-.3694 2.592-.6171 3.91.0624l.21-.6228c.057.027.115.0552.172.0848l-.382 1.133c-1.318-.6795-2.836-.4318-3.91-.0624l-.383-1.2058c.056-.0192.113-.0383.171-.0571z" fill="#000" fill-opacity=".2"/><path d="m311.058 77.6531c-3.145-1.981-6.715-3.8518-11.492-4.1225-.819-.0468-.892 1.2282-.072 1.275 4.487.255 7.883 2.0399 10.884 3.9303.687.4209 1.378-.6427.68-1.0828z" fill="#cec467"/><path d="m311.321 77.98c-.134.3793-.606.5382-.941.3268-3.001-1.8895-6.397-3.6737-10.884-3.9304-.244-.014-.463-.1707-.554-.3962-.107.3898.144.7981.554.8212 4.487.255 7.883 2.04 10.884 3.9304.202.1273.433.1155.62.0178.252-.1481.422-.4828.321-.7696z" fill="#000" opacity=".2"/><path d="m271.952 75.7946c-.036 5.8944 3.31 15.8734 12.115 16.8381 8.806.9648 20.175-4.0796 15.959-17.17-3.258-10.1175-28.017-8.84-28.074.3319z" fill="#8df7ff" opacity=".5"/><path clip-rule="evenodd" d="m300.47 75.1234c1.001 3.3796 1.056 6.2756.397 8.7061-1.954 7.1976-10.218 9.9666-16.991 9.2244-8.266-.9056-12.646-9.8867-12.646-17.4295 0-6.1203 9.085-7.4724 13.574-7.579 5.263-.1249 13.873 1.0302 15.666 7.078zm-28.05.501c0 6.9254 3.94 15.4089 11.585 16.2466 6.179.677 13.916-1.7314 15.713-8.3532.591-2.1759.563-4.843-.389-8.0562-1.616-5.4504-9.84-6.3371-14.496-6.2266-3.727.0885-12.413 1.0957-12.413 6.3894z" fill="#cec467" fill-rule="evenodd"/><path d="m301.3 80.1463c-.021 1.1184-.17 2.1617-.433 3.1308-1.954 7.1976-10.218 9.9667-16.991 9.2245-8.137-.8915-12.508-9.6081-12.642-17.075-.002.0654-.004.1315-.004.198 0 7.5429 4.38 16.5239 12.646 17.4295 6.773.7422 15.037-2.0268 16.991-9.2244.306-1.1271.458-2.3543.433-3.6834z" fill="#000" fill-opacity=".2"/><path d="m272.424 75.4381c-.002-.1224-.004-.2445-.004-.366 0-5.2937 8.686-6.3009 12.413-6.3894 4.656-.1105 12.88.7762 14.496 6.2265.575 1.9406.813 3.6819.781 5.2362-.028-1.4114-.273-2.9699-.781-4.6836-1.616-5.4503-9.84-6.3371-14.496-6.2265-3.683.0874-12.207 1.0719-12.409 6.2028z" fill="#000" fill-opacity=".2"/><path d="m228.942 77.6413c3.145-1.9809 6.715-3.8517 11.492-4.1225.819-.0467.892 1.2283.072 1.275-4.487.255-7.883 2.04-10.884 3.9304-.687.4208-1.378-.6427-.68-1.0829z" fill="#cec467"/><path d="m228.68 77.9683c.134.3793.606.5382.941.3268 3.001-1.8896 6.397-3.6737 10.884-3.9304.244-.014.463-.1707.554-.3962.107.3898-.144.7981-.554.8212-4.487.255-7.883 2.04-10.884 3.9304-.202.1273-.433.1155-.62.0178-.252-.1481-.422-.4828-.321-.7696z" fill="#000" opacity=".2"/><path d="m268.049 75.7829c.036 5.8944-3.31 15.8733-12.115 16.8381-8.806.9647-20.175-4.0796-15.959-17.17 3.258-10.1176 28.017-8.84 28.074.3319z" fill="#8df7ff" opacity=".5"/><path clip-rule="evenodd" d="m239.53 75.1119c-1.001 3.3796-1.056 6.2757-.397 8.7061 1.954 7.1976 10.218 9.9666 16.991 9.2245 8.266-.9057 12.646-9.8867 12.646-17.4296 0-6.1203-9.085-7.4724-13.574-7.579-5.262-.1249-13.873 1.0302-15.666 7.078zm28.05.501c0 6.9254-3.94 15.409-11.585 16.2467-6.178.6769-13.916-1.7314-15.713-8.3533-.591-2.1759-.563-4.843.389-8.0562 1.616-5.4503 9.84-6.3371 14.497-6.2265 3.726.0884 12.412 1.0956 12.412 6.3893z" fill="#cec467" fill-rule="evenodd"/><path d="m238.7 80.1348c.021 1.1184.17 2.1617.433 3.1309 1.954 7.1976 10.218 9.9666 16.991 9.2244 8.137-.8914 12.508-9.608 12.642-17.075.003.0655.004.1315.004.198 0 7.5429-4.38 16.5239-12.646 17.4296-6.773.7422-15.037-2.0269-16.991-9.2245-.306-1.1271-.458-2.3543-.433-3.6834z" fill="#000" fill-opacity=".2"/><path d="m267.576 75.4266c.002-.1224.004-.2444.004-.366 0-5.2937-8.686-6.3009-12.412-6.3893-4.657-.1106-12.881.7762-14.497 6.2265-.575 1.9405-.813 3.6819-.781 5.2361.028-1.4114.273-2.9698.781-4.6836 1.616-5.4503 9.84-6.3371 14.497-6.2265 3.682.0874 12.206 1.0719 12.408 6.2028z" fill="#000" fill-opacity=".2"/><path d="m260.862 91.3578c0 3.2448 4.201 7.1825 9.191 7.14 4.6-.0404 9.084-3.9334 9.084-7.1307 0-6.4653-18.275-6.563-18.275-.0093z" fill="#000" fill-opacity=".1"/><path d="m260.734 90.5926c0 3.2448 4.26 7.1825 9.319 7.14 4.664-.0404 9.211-3.9334 9.211-7.1307 0-2.5725-5.365-4.8352-9.211-4.8025-3.57.0332-9.319 1.7493-9.319 4.7932z" fill="#7f6145"/><path d="m260.802 90.0305c1.774 2.3267 5.298 4.2899 9.258 4.2593 3.664-.0291 7.264-2.0027 9.099-4.3159.069.2065.105.4163.105.6281 0 3.1973-4.547 7.0903-9.211 7.1307-5.059.0425-9.319-3.8952-9.319-7.14 0-.1928.023-.3802.068-.5622z" fill="#000" fill-opacity=".2"/><rect height="170" rx="8" stroke="#000" stroke-width="2" width="170" x="185" y="3"/><path d="m364.625 89.3256 11.381-6.571c.772-.4455 1.697.2642 1.466 1.1248l-4.444 16.5866c-.231.86-1.386 1.013-1.832.241z" fill="#000"/><path d="m435.335 105.5c-30.5 22.5-38-14.3313-62.461-14.3313" stroke="#000" stroke-linecap="round" stroke-linejoin="round" stroke-width="3"/><path d="m412.729 73.848c0-.336.144-.576.432-.72.512-.272.864-.56 1.056-.864.944-1.52 1.416-3.136 1.416-4.848 0-.992-.192-1.872-.576-2.64-.192-.384-.584-.6-1.176-.648-.864-.064-1.344-.112-1.44-.144-.672-.256-1.008-.568-1.008-.936.048-1.792.72-4.296 2.016-7.512.096-.24.328-.36.696-.36.512 0 .816.184.912.552.208.08.392.12.552.12.336 0 .792-.104 1.368-.312.672-.224 1.144-.336 1.416-.336.4 0 .76.136 1.08.408.128.224.192.424.192.6 0 .128-.008.208-.024.24-.512.432-1.336.784-2.472 1.056-1.328.304-2.208.584-2.64.84-.608 1.536-.968 2.808-1.08 3.816 2.384.704 3.696 1.768 3.936 3.192.064.352.104.704.12 1.056.032.352.048.704.048 1.056 0 2.912-.848 5.288-2.544 7.128-.288.32-.568.48-.84.48-.112 0-.232-.04-.36-.12-.112-.064-.224-.12-.336-.168-.096-.048-.2-.096-.312-.144-.272-.16-.416-.376-.432-.648zm10.047-4.08c0 .336-.144.504-.432.504-.976 0-1.512-.216-1.608-.648-.112-.448-.192-.928-.24-1.44-.048-.528-.072-1.096-.072-1.704 0-.8.072-2.032.216-3.696.144-1.648.216-2.88.216-3.696 0-.512-.04-1-.12-1.464-.08-.48-.12-.928-.12-1.344 0-.112.048-.232.144-.36.096-.144.208-.24.336-.288.272-.08.472-.12.6-.12.864 0 1.32.936 1.368 2.808v.6c0 1.072-.048 2.456-.144 4.152-.064 1.12-.112 2.08-.144 2.88-.032.784-.048 1.408-.048 1.872v.96c.016.304.032.6.048.888zm2.096-.84c.176-.448.424-.992.744-1.632.336-.656.736-1.416 1.2-2.28.48-.88.888-1.64 1.224-2.28.336-.656.592-1.192.768-1.608.112-.256.224-.504.336-.744.112-.256.232-.512.36-.768.256-.576.384-1.088.384-1.536 0-.672-.168-1.008-.504-1.008-.208 0-.44.224-.696.672-.128.224-.256.44-.384.648-.112.192-.224.392-.336.6-.032.128-.048.2-.048.216 0 .08.04.232.12.456.096.224.144.4.144.528 0 .16-.064.312-.192.456-.128.128-.28.192-.456.192-.208 0-.64-.304-1.296-.912-.208-.192-.312-.448-.312-.768 0-.384.144-.84.432-1.368.688-1.296 1.744-2.128 3.168-2.496.16-.048.328-.072.504-.072.736 0 1.216.336 1.44 1.008.144.464.216.952.216 1.464 0 .8-.192 1.712-.576 2.736-.192.432-.384.864-.576 1.296s-.376.864-.552 1.296c-.112.24-.272.56-.48.96-.192.384-.44.848-.744 1.392-.56.928-.944 1.728-1.152 2.4.128.016.368.024.72.024h1.44c.864 0 1.576.072 2.136.216.448.112.672.424.672.936 0 .112-.024.216-.072.312-.128.288-.504.472-1.128.552-.272.032-.568.056-.888.072s-.664.024-1.032.024c-.256 0-.48-.008-.672-.024-.192 0-.368 0-.528 0s-.296 0-.408 0c-.096.016-.176.024-.24.024-.24.016-.432.024-.576.024-.144.016-.248.024-.312.024-.976 0-1.592-.344-1.848-1.032zm8.799-8.736c.064-.08.128-.16.192-.24.064-.096.16-.144.288-.144.288.032.568.112.84.24.288.128.536.368.744.72.176.32.32.592.432.816.112.208.216.408.312.6.112.176.224.344.336.504s.248.336.408.528c.064-.128.176-.312.336-.552.176-.256.36-.504.552-.744s.368-.456.528-.648.264-.296.312-.312c.192-.24.4-.472.624-.696.24-.224.528-.336.864-.336.304 0 .584.064.84.192.272.112.408.312.408.6 0 .096-.016.192-.048.288-.288.368-.592.72-.912 1.056-.32.32-.616.6-.888.84-.08.144-.2.312-.36.504s-.32.384-.48.576-.304.368-.432.528c-.112.16-.168.28-.168.36 0 .048.072.16.216.336.16.176.336.376.528.6.192.208.376.416.552.624s.288.368.336.48c.176.256.36.512.552.768.208.24.312.512.312.816 0 .128-.056.248-.168.36s-.232.208-.36.288c-.096 0-.184.008-.264.024-.064.016-.136.024-.216.024s-.16-.008-.24-.024-.176-.056-.288-.12c-.096-.096-.24-.264-.432-.504-.192-.256-.392-.512-.6-.768-.192-.272-.384-.52-.576-.744-.176-.224-.296-.352-.36-.384-.144.192-.288.408-.432.648s-.288.48-.432.72c-.128.24-.248.472-.36.696s-.2.416-.264.576c-.096.272-.24.552-.432.84-.176.304-.408.456-.696.456-.176 0-.344-.056-.504-.168-.24-.208-.4-.408-.48-.6-.064-.192-.112-.416-.144-.672 0-.032-.008-.056-.024-.072 0-.016 0-.04 0-.072.176-.464.4-.888.672-1.272.288-.4.552-.832.792-1.296.128-.24.288-.472.48-.696.208-.24.32-.504.336-.792-.176-.352-.336-.656-.48-.912-.128-.256-.256-.496-.384-.72s-.264-.448-.408-.672c-.128-.24-.272-.504-.432-.792-.112-.208-.256-.392-.432-.552s-.272-.36-.288-.6zm10.136 13.656c0-.336.144-.576.432-.72.512-.272.864-.56 1.056-.864.944-1.52 1.416-3.136 1.416-4.848 0-.992-.192-1.872-.576-2.64-.192-.384-.584-.6-1.176-.648-.864-.064-1.344-.112-1.44-.144-.672-.256-1.008-.568-1.008-.936.048-1.792.72-4.296 2.016-7.512.096-.24.328-.36.696-.36.512 0 .816.184.912.552.208.08.392.12.552.12.336 0 .792-.104 1.368-.312.672-.224 1.144-.336 1.416-.336.4 0 .76.136 1.08.408.128.224.192.424.192.6 0 .128-.008.208-.024.24-.512.432-1.336.784-2.472 1.056-1.328.304-2.208.584-2.64.84-.608 1.536-.968 2.808-1.08 3.816 2.384.704 3.696 1.768 3.936 3.192.064.352.104.704.12 1.056.032.352.048.704.048 1.056 0 2.912-.848 5.288-2.544 7.128-.288.32-.568.48-.84.48-.112 0-.232-.04-.36-.12-.112-.064-.224-.12-.336-.168-.096-.048-.2-.096-.312-.144-.272-.16-.416-.376-.432-.648zm10.047-4.08c0 .336-.144.504-.432.504-.976 0-1.512-.216-1.608-.648-.112-.448-.192-.928-.24-1.44-.048-.528-.072-1.096-.072-1.704 0-.8.072-2.032.216-3.696.144-1.648.216-2.88.216-3.696 0-.512-.04-1-.12-1.464-.08-.48-.12-.928-.12-1.344 0-.112.048-.232.144-.36.096-.144.208-.24.336-.288.272-.08.472-.12.6-.12.864 0 1.32.936 1.368 2.808v.6c0 1.072-.048 2.456-.144 4.152-.064 1.12-.112 2.08-.144 2.88-.032.784-.048 1.408-.048 1.872v.96c.016.304.032.6.048.888zm2.096-.84c.176-.448.424-.992.744-1.632.336-.656.736-1.416 1.2-2.28.48-.88.888-1.64 1.224-2.28.336-.656.592-1.192.768-1.608.112-.256.224-.504.336-.744.112-.256.232-.512.36-.768.256-.576.384-1.088.384-1.536 0-.672-.168-1.008-.504-1.008-.208 0-.44.224-.696.672-.128.224-.256.44-.384.648-.112.192-.224.392-.336.6-.032.128-.048.2-.048.216 0 .08.04.232.12.456.096.224.144.4.144.528 0 .16-.064.312-.192.456-.128.128-.28.192-.456.192-.208 0-.64-.304-1.296-.912-.208-.192-.312-.448-.312-.768 0-.384.144-.84.432-1.368.688-1.296 1.744-2.128 3.168-2.496.16-.048.328-.072.504-.072.736 0 1.216.336 1.44 1.008.144.464.216.952.216 1.464 0 .8-.192 1.712-.576 2.736-.192.432-.384.864-.576 1.296s-.376.864-.552 1.296c-.112.24-.272.56-.48.96-.192.384-.44.848-.744 1.392-.56.928-.944 1.728-1.152 2.4.128.016.368.024.72.024h1.44c.864 0 1.576.072 2.136.216.448.112.672.424.672.936 0 .112-.024.216-.072.312-.128.288-.504.472-1.128.552-.272.032-.568.056-.888.072s-.664.024-1.032.024c-.256 0-.48-.008-.672-.024-.192 0-.368 0-.528 0s-.296 0-.408 0c-.096.016-.176.024-.24.024-.24.016-.432.024-.576.024-.144.016-.248.024-.312.024-.976 0-1.592-.344-1.848-1.032zm17.704 3.792c0 .464.024.888.072 1.272.064.4.096.768.096 1.104 0 .144-.024.32-.072.528-.032.208-.096.408-.192.6s-.224.352-.384.48-.368.192-.624.192c-.24 0-.48-.104-.72-.312-.224-.192-.336-.416-.336-.672 0-.08 0-.176 0-.288.016-.096.032-.2.048-.312-.016-.272-.024-.544-.024-.816s0-.544 0-.816c0-.832.008-1.672.024-2.52.016-.832.024-1.704.024-2.616 0-.672-.008-1.344-.024-2.016-.016-.688-.024-1.44-.024-2.256 0-.672-.032-1.32-.096-1.944-.048-.64-.072-1.296-.072-1.968 0-.288.056-.504.168-.648.128-.144.4-.216.816-.216.448 0 .744.104.888.312.16.208.288.464.384.768.128-.048.28-.104.456-.168.192-.064.352-.096.48-.096h.168c.432 0 .76.04.984.12.224.064.448.16.672.288l.072.048c.016 0 .024.008.024.024h.048c.304.16.584.384.84.672.272.288.504.608.696.96s.344.72.456 1.104.168.752.168 1.104c0 .432-.096.896-.288 1.392-.176.496-.448.952-.816 1.368s-.84.76-1.416 1.032c-.56.272-1.224.408-1.992.408-.064 0-.136 0-.216 0s-.16-.016-.24-.048c-.032.064-.048.152-.048.264v.816zm2.04-6.168c.528-.544.792-1.208.792-1.992 0-.288-.048-.568-.144-.84-.08-.288-.208-.552-.384-.792-.16-.24-.36-.44-.6-.6-.224-.16-.488-.264-.792-.312l-.312.12c-.096.032-.216.096-.36.192-.128.08-.208.136-.24.168-.016.016-.032.032-.048.048 0 .016-.016.032-.048.048-.032.032-.048.184-.048.456 0 .304.008.664.024 1.08.032.4.048.68.048.84v.816c0 .352.016.672.048.96s.112.432.24.432c.24 0 .456-.016.648-.048.208-.048.44-.136.696-.264zm6.721-.96c.224-.224.4-.512.528-.864.144-.352.28-.688.408-1.008l.048-.144c.096-.256.24-.568.432-.936.192-.384.416-.744.672-1.08.256-.352.536-.648.84-.888s.616-.36.936-.36c.272.08.472.208.6.384.144.176.248.376.312.6.08.208.144.432.192.672.064.224.144.44.24.648.208.464.36.96.456 1.488.112.528.2 1.064.264 1.608.08.544.168 1.08.264 1.608s.24 1.016.432 1.464c-.032.256-.176.44-.432.552-.24.128-.456.192-.648.192-.288 0-.512-.112-.672-.336-.16-.208-.288-.464-.384-.768-.08-.32-.144-.648-.192-.984-.032-.336-.08-.616-.144-.84-.08-.272-.144-.576-.192-.912-.048-.352-.104-.704-.168-1.056s-.144-.68-.24-.984c-.08-.304-.2-.552-.36-.744-.272.432-.496.84-.672 1.224-.16.368-.312.728-.456 1.08-.128.336-.256.672-.384 1.008-.128.32-.288.648-.48.984-.256.464-.488.824-.696 1.08s-.4.448-.576.576c-.176.112-.344.176-.504.192-.16.032-.312.048-.456.048-.16 0-.36-.08-.6-.24-.224-.16-.336-.352-.336-.576 0-1.008 0-1.944 0-2.808.016-.864.024-1.776.024-2.736 0-.272-.008-.544-.024-.816-.016-.288-.024-.568-.024-.84 0-.192.032-.376.096-.552.08-.192.208-.328.384-.408h.288c.096-.016.184-.024.264-.024.208 0 .368.064.48.192.128.112.216.256.264.432.064.176.104.36.12.552s.024.352.024.48c0 .176.016.344.048.504.048.16.072.328.072.504 0 .592-.008 1.096-.024 1.512s-.024.816-.024 1.2zm13.099-4.824c.08-.032.152-.056.216-.072.08-.016.16-.04.24-.072.144.032.296.056.456.072.176.016.376.056.6.12.032.368.072.72.12 1.056.064.336.096.704.096 1.104 0 1.136.032 2.328.096 3.576.08 1.248.12 2.672.12 4.272 0 .768-.056 1.528-.168 2.28-.112.768-.36 1.488-.744 2.16-.128.144-.248.32-.36.528-.112.224-.264.44-.456.648-.192.224-.44.416-.744.576-.288.176-.672.288-1.152.336-.24-.08-.44-.152-.6-.216-.16-.048-.28-.24-.36-.576.128-.288.328-.536.6-.744.288-.192.576-.472.864-.84s.536-.904.744-1.608c.224-.688.336-1.68.336-2.976 0-.352 0-.696 0-1.032 0-.32-.008-.64-.024-.96s-.04-.648-.072-.984c-.016-.336-.048-.704-.096-1.104-.16.336-.336.656-.528.96-.176.288-.4.552-.672.792-.256.24-.568.448-.936.624-.352.16-.776.272-1.272.336-.224-.112-.456-.24-.696-.384-.224-.144-.432-.312-.624-.504s-.352-.408-.48-.648c-.112-.24-.168-.512-.168-.816 0-.096.008-.168.024-.216.112-.384.296-.92.552-1.608s.576-1.368.96-2.04c.384-.688.84-1.28 1.368-1.776s1.128-.744 1.8-.744c.128 0 .256.016.384.048s.256.072.384.12zm-3.264 6.432c.24-.032.48-.176.72-.432.256-.256.496-.584.72-.984.24-.416.464-.88.672-1.392.208-.528.4-1.08.576-1.656.016-.176.04-.344.072-.504.048-.176.072-.352.072-.528-.256.016-.472.072-.648.168s-.336.216-.48.36c-.128.144-.248.304-.36.48-.112.16-.232.32-.36.48-.128.272-.28.56-.456.864-.16.288-.32.584-.48.888-.144.304-.272.608-.384.912-.096.304-.144.6-.144.888 0 .256.16.408.48.456zm13.582-1.08c0-.32-.056-.624-.168-.912-.096-.288-.144-.592-.144-.912 0-.448-.04-.888-.12-1.32s-.12-.864-.12-1.296c0-.304.024-.592.072-.864.064-.288.264-.432.6-.432.576 0 .936.128 1.08.384.16.256.24.56.24.912 0 .432.04.84.12 1.224.08.368.144.816.192 1.344.016.224.032.44.048.648.016.192.048.384.096.576.112-.096.208-.232.288-.408.096-.176.184-.36.264-.552.08-.208.152-.4.216-.576.08-.192.16-.352.24-.48.128-.176.24-.376.336-.6s.2-.44.312-.648.232-.392.36-.552.28-.264.456-.312c.128.048.272.096.432.144.16.032.304.088.432.168.144.064.256.16.336.288.096.128.144.304.144.528 0 .72.088 1.424.264 2.112.176.672.352 1.264.528 1.776.288-.48.536-1.016.744-1.608.208-.608.392-1.192.552-1.752s.296-1.072.408-1.536c.128-.48.248-.832.36-1.056.08-.128.224-.232.432-.312.224-.08.408-.12.552-.12.24 0 .448.104.624.312.176.192.264.376.264.552 0 .112-.04.312-.12.6-.064.288-.152.608-.264.96s-.24.728-.384 1.128c-.128.4-.256.776-.384 1.128s-.248.664-.36.936c-.096.256-.168.432-.216.528-.16.336-.304.68-.432 1.032-.112.352-.248.672-.408.96s-.352.52-.576.696-.528.264-.912.264-.688-.136-.912-.408-.416-.608-.576-1.008c-.16-.416-.304-.856-.432-1.32s-.288-.88-.48-1.248c-.112.192-.232.424-.36.696s-.256.552-.384.84c-.128.272-.264.544-.408.816-.128.256-.264.472-.408.648-.096.096-.16.2-.192.312-.032.096-.08.184-.144.264-.048.08-.128.152-.24.216-.096.048-.264.072-.504.072-.336 0-.592-.096-.768-.288s-.312-.424-.408-.696c-.08-.288-.128-.592-.144-.912s-.024-.6-.024-.84zm12.381-11.208c.08-.08.224-.12.432-.12.16 0 .32.032.48.096.176.048.336.128.48.24.144.096.256.208.336.336.096.128.144.264.144.408 0 .304-.08.512-.24.624-.144.096-.352.144-.624.144-.176 0-.36-.024-.552-.072-.176-.064-.336-.136-.48-.216s-.264-.16-.36-.24c-.08-.096-.12-.184-.12-.264 0-.192.016-.36.048-.504.048-.144.2-.288.456-.432zm2.112 13.512c0 .128-.032.256-.096.384s-.184.28-.36.456c-.272 0-.528-.024-.768-.072-.224-.048-.424-.144-.6-.288-.16-.144-.288-.352-.384-.624s-.144-.64-.144-1.104c0-.272-.032-.544-.096-.816-.048-.272-.072-.544-.072-.816 0-.816-.048-1.592-.144-2.328s-.144-1.512-.144-2.328c0-.336.136-.592.408-.768.16-.048.312-.08.456-.096.144-.032.304-.064.48-.096.224.064.392.16.504.288.112.112.216.224.312.336-.016.16-.032.32-.048.48v.504c0 .608.032 1.256.096 1.944s.136 1.344.216 1.968.152 1.192.216 1.704c.08.512.136.904.168 1.176zm3.424-14.688c0-.192.024-.4.072-.624.128-.064.232-.112.312-.144.08-.048.184-.072.312-.072.272 0 .488.048.648.144.176.096.304.216.384.36.096.144.16.312.192.504.032.176.048.352.048.528 0 .336.008.632.024.888.016.24.024.48.024.72 0 .256-.008.512-.024.768v.744c0 .176-.008.36-.024.552v.6c0 .096.008.184.024.264s.088.12.216.12c.416 0 .776-.064 1.08-.192.32-.144.688-.216 1.104-.216.224 0 .376.088.456.264s.12.352.12.528c0 .208-.048.376-.144.504-.096.112-.216.2-.36.264s-.304.12-.48.168c-.16.032-.32.072-.48.12-.144.064-.32.128-.528.192-.192.048-.376.112-.552.192s-.328.184-.456.312-.192.288-.192.48v.312c.016.096.024.192.024.288s-.008.2-.024.312v.312c0 .72.048 1.472.144 2.256.112.768.232 1.512.36 2.232.048.224.104.448.168.672s.096.432.096.624c0 .272-.072.472-.216.6s-.304.216-.48.264c-.16.032-.256.048-.288.048-.224 0-.432-.08-.624-.24-.176-.144-.328-.328-.456-.552-.08-.224-.152-.528-.216-.912-.048-.384-.08-.736-.096-1.056-.048-.784-.08-1.56-.096-2.328-.016-.784-.032-1.568-.048-2.352 0-.064-.008-.12-.024-.168 0-.064-.016-.128-.048-.192-.288.048-.528.12-.72.216s-.416.144-.672.144c-.32 0-.592-.104-.816-.312s-.392-.376-.504-.504c0-.176.04-.4.12-.672.208-.08.4-.136.576-.168s.344-.064.504-.096c.176-.032.352-.072.528-.12s.368-.128.576-.24c.256 0 .4-.096.432-.288.048-.208.072-.384.072-.528 0-.288-.008-.528-.024-.72 0-.208 0-.496 0-.864 0-.24-.008-.48-.024-.72 0-.256 0-.504 0-.744zm6.099 12.096c0-.912-.024-1.856-.072-2.832-.032-.976-.048-1.944-.048-2.904 0-.576.008-1.176.024-1.8.016-.64.04-1.256.072-1.848s.08-1.152.144-1.68c.08-.544.176-1.008.288-1.392.272-.08.504-.12.696-.12.336 0 .584.128.744.384.16.24.24.52.24.84 0 .4-.032.76-.096 1.08-.064.304-.104.632-.12.984-.032.704-.064 1.36-.096 1.968-.016.592-.032 1.168-.048 1.728 0 .56-.008 1.112-.024 1.656v1.632c.176-.432.376-.848.6-1.248s.456-.752.696-1.056c.256-.32.52-.568.792-.744.288-.192.568-.288.84-.288.432.032.784.192 1.056.48.288.272.512.6.672.984s.272.776.336 1.176.096.728.096.984c.064.256.104.552.12.888.032.32.064.616.096.888.064.528.176 1.072.336 1.632.16.544.256 1.048.288 1.512-.048.16-.152.304-.312.432s-.304.192-.432.192c-.4 0-.72-.192-.96-.576s-.424-.824-.552-1.32c-.128-.512-.216-1.024-.264-1.536-.032-.512-.048-.888-.048-1.128 0-.192-.024-.432-.072-.72-.032-.288-.08-.56-.144-.816-.048-.272-.104-.496-.168-.672-.064-.192-.128-.288-.192-.288-.192.064-.376.216-.552.456s-.344.536-.504.888c-.144.336-.28.696-.408 1.08s-.24.752-.336 1.104c-.08.352-.152.664-.216.936-.048.272-.08.456-.096.552v.12c0 .032-.008.056-.024.072v.048.096c-.016.176-.04.352-.072.528-.016.176-.048.344-.096.504-.048.144-.112.264-.192.36s-.176.144-.288.144c-.416 0-.744-.088-.984-.264-.224-.176-.392-.4-.504-.672-.112-.288-.176-.6-.192-.936-.016-.352-.024-.704-.024-1.056zm-97.431 21.8v.264.504.504c.016.16.024.264.024.312.144-.288.304-.576.48-.864.192-.288.496-.696.912-1.224.032-.032.104-.096.216-.192s.256-.2.432-.312c.192-.112.4-.208.624-.288.24-.08.488-.12.744-.12.48 0 .864.136 1.152.408.304.256.536.576.696.96.176.384.296.8.36 1.248s.096.848.096 1.2c0 .192-.016.464-.048.816s-.096.728-.192 1.128-.232.8-.408 1.2c-.16.384-.376.704-.648.96-.368.336-.8.592-1.296.768s-.944.264-1.344.264-.8-.032-1.2-.096c-.384-.064-.76-.152-1.128-.264-.096-.048-.192-.136-.288-.264-.08-.144-.168-.304-.264-.48-.08-.176-.152-.36-.216-.552s-.12-.376-.168-.552c-.048-.048-.096-.2-.144-.456-.048-.272-.096-.584-.144-.936-.032-.368-.064-.744-.096-1.128-.016-.4-.024-.752-.024-1.056 0-1.344.024-2.68.072-4.008.048-1.344.168-2.8.36-4.368 0-.304.016-.6.048-.888s.096-.592.192-.912c.08-.24.256-.384.528-.432.288-.064.528-.096.72-.096.144 0 .28.032.408.096s.208.176.24.336c-.08 1.024-.192 1.992-.336 2.904s-.232 1.88-.264 2.904zm1.224 2.88c-.08.24-.16.464-.24.672-.064.192-.128.392-.192.6-.048.208-.096.432-.144.672-.032.224-.056.48-.072.768.176.192.344.304.504.336s.368.048.624.048c.4-.048.72-.2.96-.456.256-.256.456-.568.6-.936s.24-.76.288-1.176c.048-.432.072-.832.072-1.2 0-.144-.008-.312-.024-.504 0-.192-.024-.376-.072-.552-.032-.176-.08-.328-.144-.456s-.144-.192-.24-.192-.24.08-.432.24c-.176.16-.36.36-.552.6-.192.224-.376.464-.552.72-.16.256-.272.48-.336.672zm14.531 4.056c.048.128.096.264.144.408.048.128.072.256.072.384s-.04.232-.12.312c-.064.08-.152.144-.264.192-.096.048-.2.08-.312.096-.112.032-.216.048-.312.048-.32 0-.584-.184-.792-.552-.208-.352-.376-.792-.504-1.32-.128-.544-.24-1.112-.336-1.704-.08-.608-.16-1.152-.24-1.632-.048.336-.208.76-.48 1.272-.256.512-.584 1.008-.984 1.488-.4.464-.84.864-1.32 1.2s-.96.504-1.44.504c-.384 0-.704-.08-.96-.24-.24-.144-.424-.328-.552-.552s-.216-.472-.264-.744c-.048-.288-.072-.552-.072-.792 0-.528.128-1.176.384-1.944.272-.784.632-1.544 1.08-2.28.464-.736.992-1.36 1.584-1.872.608-.528 1.248-.792 1.92-.792.144 0 .304.024.48.072.192.048.384.112.576.192.192.064.376.152.552.264.176.096.328.192.456.288.272.224.456.528.552.912s.168.784.216 1.2c.112.8.2 1.528.264 2.184.064.64.184 1.32.36 2.04l.144.888zm-6.768-1.248v.048c.016 0 .024.008.024.024.208-.016.448-.152.72-.408.272-.272.544-.592.816-.96s.52-.752.744-1.152c.24-.416.416-.784.528-1.104.064-.144.136-.304.216-.48.096-.176.184-.352.264-.528.096-.192.168-.368.216-.528.064-.16.096-.296.096-.408-.08-.032-.152-.064-.216-.096s-.136-.048-.216-.048c-.352 0-.664.136-.936.408s-.512.576-.72.912c-.192.336-.352.664-.48.984-.128.304-.216.496-.264.576-.224.4-.416.832-.576 1.296-.144.464-.216.912-.216 1.344zm12.779.432c.192 0 .344.064.456.192.128.128.192.288.192.48 0 .16-.048.288-.144.384-.08.096-.192.168-.336.216s-.312.08-.504.096c-.176.032-.352.056-.528.072-.272-.08-.536-.152-.792-.216-.24-.064-.488-.184-.744-.36-.4-.336-.792-.696-1.176-1.08-.368-.384-.656-.824-.864-1.32-.08-.096-.152-.224-.216-.384-.048-.16-.096-.32-.144-.48-.032-.176-.056-.336-.072-.48-.016-.16-.024-.288-.024-.384 0-.32.032-.656.096-1.008.08-.352.192-.696.336-1.032s.32-.64.528-.912c.208-.288.456-.528.744-.72l.912-.408c.224-.064.448-.136.672-.216s.464-.12.72-.12c.368.032.624.104.768.216.144.096.264.328.36.696-.016.08-.064.192-.144.336s-.2.24-.36.288c-.176.08-.352.128-.528.144-.16.016-.32.064-.48.144-.272.128-.488.256-.648.384s-.288.24-.384.336c-.112.112-.192.224-.24.336-.128.176-.208.376-.24.6s-.048.424-.048.6c0 .336.048.672.144 1.008.112.336.248.656.408.96.16.288.336.544.528.768.208.208.4.36.576.456.272.272.56.408.864.408zm4.612-1.416c0 .432.024.864.072 1.296.064.416.096.848.096 1.296 0 .352-.12.616-.36.792-.224.176-.488.264-.792.264-.272 0-.48-.04-.624-.12-.144-.064-.256-.16-.336-.288-.064-.112-.104-.248-.12-.408-.016-.144-.024-.304-.024-.48 0-.576 0-1.184 0-1.824.016-.64.024-1.28.024-1.92 0-.656 0-1.296 0-1.92.016-.624.024-1.216.024-1.776 0-1.056-.032-2.096-.096-3.12-.048-1.04-.072-2.136-.072-3.288 0-.176.04-.368.12-.576.16-.176.336-.304.528-.384.208-.096.424-.168.648-.216.416.064.704.224.864.48.176.24.264.608.264 1.104 0 1.84-.024 3.44-.072 4.8-.032 1.36-.072 2.6-.12 3.72.32-.272.632-.56.936-.864.32-.304.6-.624.84-.96.08-.224.184-.448.312-.672.128-.24.28-.448.456-.624.192-.192.392-.344.6-.456.224-.128.464-.192.72-.192.064.032.144.064.24.096.112.032.208.072.288.12s.152.112.216.192c.064.064.096.16.096.288 0 .176-.112.448-.336.816s-.488.76-.792 1.176-.616.824-.936 1.224c-.32.384-.584.696-.792.936.32.512.704.952 1.152 1.32s.88.696 1.296.984c.416.272.768.512 1.056.72s.432.4.432.576c0 .208-.056.376-.168.504-.096.128-.216.224-.36.288s-.296.104-.456.12c-.16.032-.296.048-.408.048-.224 0-.52-.136-.888-.408s-.76-.592-1.176-.96c-.4-.368-.808-.744-1.224-1.128s-.792-.688-1.128-.912zm11.828-5.568c.08-.032.152-.056.216-.072.08-.016.16-.04.24-.072.144.032.296.056.456.072.176.016.376.056.6.12.032.368.072.72.12 1.056.064.336.096.704.096 1.104 0 1.136.032 2.328.096 3.576.08 1.248.12 2.672.12 4.272 0 .768-.056 1.528-.168 2.28-.112.768-.36 1.488-.744 2.16-.128.144-.248.32-.36.528-.112.224-.264.44-.456.648-.192.224-.44.416-.744.576-.288.176-.672.288-1.152.336-.24-.08-.44-.152-.6-.216-.16-.048-.28-.24-.36-.576.128-.288.328-.536.6-.744.288-.192.576-.472.864-.84s.536-.904.744-1.608c.224-.688.336-1.68.336-2.976 0-.352 0-.696 0-1.032 0-.32-.008-.64-.024-.96s-.04-.648-.072-.984c-.016-.336-.048-.704-.096-1.104-.16.336-.336.656-.528.96-.176.288-.4.552-.672.792-.256.24-.568.448-.936.624-.352.16-.776.272-1.272.336-.224-.112-.456-.24-.696-.384-.224-.144-.432-.312-.624-.504s-.352-.408-.48-.648c-.112-.24-.168-.512-.168-.816 0-.096.008-.168.024-.216.112-.384.296-.92.552-1.608s.576-1.368.96-2.04c.384-.688.84-1.28 1.368-1.776s1.128-.744 1.8-.744c.128 0 .256.016.384.048s.256.072.384.12zm-3.264 6.432c.24-.032.48-.176.72-.432.256-.256.496-.584.72-.984.24-.416.464-.88.672-1.392.208-.528.4-1.08.576-1.656.016-.176.04-.344.072-.504.048-.176.072-.352.072-.528-.256.016-.472.072-.648.168s-.336.216-.48.36c-.128.144-.248.304-.36.48-.112.16-.232.32-.36.48-.128.272-.28.56-.456.864-.16.288-.32.584-.48.888-.144.304-.272.608-.384.912-.096.304-.144.6-.144.888 0 .256.16.408.48.456zm7.439 1.464c.032-.08.048-.224.048-.432.016-.224.024-.496.024-.816 0-.304-.008-.632-.024-.984 0-.352-.008-.672-.024-.96 0-.304-.008-.56-.024-.768 0-.224 0-.352 0-.384v-.792c0-.352-.016-.704-.048-1.056-.016-.352-.032-.704-.048-1.056v-.096c0-.144-.032-.28-.096-.408-.064-.144-.096-.296-.096-.456.064-.208.152-.368.264-.48s.312-.168.6-.168c.272 0 .488.056.648.168.16.096.28.224.36.384.08.144.128.312.144.504.032.192.056.376.072.552l.072 1.272c.16-.128.328-.312.504-.552.176-.256.36-.528.552-.816s.392-.568.6-.84.424-.496.648-.672c.128-.064.288-.096.48-.096.384 0 .688.072.912.216.24.144.424.376.552.696-.032.144-.12.312-.264.504-.144.176-.312.368-.504.576-.176.192-.368.4-.576.624-.192.208-.36.416-.504.624-.24.256-.48.568-.72.936s-.456.744-.648 1.128-.352.752-.48 1.104c-.128.336-.192.608-.192.816v.552c.016.224.024.4.024.528 0 .192-.016.392-.048.6-.032.192-.096.368-.192.528-.096.176-.224.312-.384.408-.16.112-.368.168-.624.168-.304 0-.552-.096-.744-.288-.176-.176-.264-.4-.264-.672zm9.457.48c-.272 0-.52-.072-.744-.216-.208-.16-.432-.312-.672-.456-.528-.304-.936-.704-1.224-1.2s-.432-1.104-.432-1.824c0-.352.056-.768.168-1.248.128-.496.24-.952.336-1.368.048-.176.16-.416.336-.72.176-.32.392-.624.648-.912.272-.304.576-.568.912-.792s.68-.336 1.032-.336c.144 0 .288.048.432.144.224.144.456.264.696.36l.72.288c.256.096.504.2.744.312s.464.256.672.432c.176.144.312.32.408.528s.192.408.288.6c.08.16.128.328.144.504.016.16.024.328.024.504v.456c-.016.496-.12.96-.312 1.392-.176.416-.392.824-.648 1.224-.128.208-.296.448-.504.72s-.44.528-.696.768-.528.448-.816.624c-.272.16-.552.24-.84.24-.08 0-.168-.008-.264-.024-.08 0-.168 0-.264 0zm2.352-5.736c0-.464-.168-.8-.504-1.008s-.704-.312-1.104-.312c-.32 0-.592.128-.816.384-.224.24-.416.544-.576.912-.16.352-.28.736-.36 1.152-.064.4-.096.752-.096 1.056 0 .064.008.192.024.384.032.192.08.392.144.6s.152.392.264.552c.128.16.288.24.48.24.176 0 .336-.024.48-.072.144-.064.304-.136.48-.216.256-.16.48-.376.672-.648s.344-.568.456-.888c.128-.32.224-.656.288-1.008.08-.352.136-.688.168-1.008zm3.68-1.128c0-.432.016-.848.048-1.248s.112-.792.24-1.176c.016-.032.056-.064.12-.096.08-.048.168-.088.264-.12.048-.016.096-.032.144-.048.064-.016.136-.032.216-.048.256.032.512.128.768.288s.384.392.384.696c0 .256-.024.488-.072.696-.048.192-.072.424-.072.696 0 .464-.024.824-.072 1.08-.032.256-.048.496-.048.72 0 .768.024 1.48.072 2.136.048.64.088 1.128.12 1.464.256-.032.536-.248.84-.648.32-.416.632-.912.936-1.488s.584-1.184.84-1.824.464-1.208.624-1.704c.064-.208.088-.416.072-.624 0-.208.024-.392.072-.552.048-.176.152-.32.312-.432.176-.112.464-.168.864-.168.016 0 .032.008.048.024h.048c.128 0 .28.064.456.192s.304.256.384.384c0 .944-.032 1.688-.096 2.232-.048.528-.072.984-.072 1.368 0 .768.048 1.432.144 1.992.112.544.288.984.528 1.32.096.112.184.224.264.336.08.096.152.216.216.36-.032.16-.088.288-.168.384-.064.08-.144.144-.24.192-.096.032-.2.056-.312.072s-.224.04-.336.072c-.352-.08-.64-.224-.864-.432-.208-.208-.384-.456-.528-.744-.128-.304-.224-.632-.288-.984-.064-.368-.12-.744-.168-1.128l-.096.192c-.128.272-.304.632-.528 1.08-.208.448-.456.888-.744 1.32-.288.416-.624.776-1.008 1.08-.368.32-.768.48-1.2.48-.464 0-.84-.096-1.128-.288-.272-.176-.488-.472-.648-.888-.144-.416-.248-.952-.312-1.608-.048-.656-.072-1.464-.072-2.424.032-.224.048-.448.048-.672s0-.448 0-.672zm11.933 3.312c.224-.224.4-.512.528-.864.144-.352.28-.688.408-1.008l.048-.144c.096-.256.24-.568.432-.936.192-.384.416-.744.672-1.08.256-.352.536-.648.84-.888s.616-.36.936-.36c.272.08.472.208.6.384.144.176.248.376.312.6.08.208.144.432.192.672.064.224.144.44.24.648.208.464.36.96.456 1.488.112.528.2 1.064.264 1.608.08.544.168 1.08.264 1.608s.24 1.016.432 1.464c-.032.256-.176.44-.432.552-.24.128-.456.192-.648.192-.288 0-.512-.112-.672-.336-.16-.208-.288-.464-.384-.768-.08-.32-.144-.648-.192-.984-.032-.336-.08-.616-.144-.84-.08-.272-.144-.576-.192-.912-.048-.352-.104-.704-.168-1.056s-.144-.68-.24-.984c-.08-.304-.2-.552-.36-.744-.272.432-.496.84-.672 1.224-.16.368-.312.728-.456 1.08-.128.336-.256.672-.384 1.008-.128.32-.288.648-.48.984-.256.464-.488.824-.696 1.08s-.4.448-.576.576c-.176.112-.344.176-.504.192-.16.032-.312.048-.456.048-.16 0-.36-.08-.6-.24-.224-.16-.336-.352-.336-.576 0-1.008 0-1.944 0-2.808.016-.864.024-1.776.024-2.736 0-.272-.008-.544-.024-.816-.016-.288-.024-.568-.024-.84 0-.192.032-.376.096-.552.08-.192.208-.328.384-.408h.288c.096-.016.184-.024.264-.024.208 0 .368.064.48.192.128.112.216.256.264.432.064.176.104.36.12.552s.024.352.024.48c0 .176.016.344.048.504.048.16.072.328.072.504 0 .592-.008 1.096-.024 1.512s-.024.816-.024 1.2zm15.307-1.08c0 .064.024.216.072.456.064.24.136.496.216.768.096.272.184.536.264.792s.144.432.192.528c.096.176.168.36.216.552s.112.384.192.576c0 .32-.08.544-.24.672s-.32.192-.48.192c-.032 0-.136 0-.312 0-.16 0-.256-.008-.288-.024-.16-.064-.312-.136-.456-.216s-.296-.304-.456-.672c-.08-.112-.16-.312-.24-.6-.08-.304-.16-.624-.24-.96-.064-.336-.136-.648-.216-.936-.064-.304-.128-.52-.192-.648-.128.656-.32 1.248-.576 1.776-.256.512-.552.952-.888 1.32s-.688.648-1.056.84-.728.288-1.08.288c-.8 0-1.384-.264-1.752-.792-.368-.544-.552-1.216-.552-2.016 0-.464.064-.976.192-1.536.144-.56.336-1.112.576-1.656.256-.544.56-1.056.912-1.536s.736-.864 1.152-1.152c.064-.032.176-.112.336-.24s.4-.192.72-.192c.224 0 .44.032.648.096.224.064.44.128.648.192 0-.56-.024-1.112-.072-1.656s-.072-1.072-.072-1.584c0-.048-.008-.248-.024-.6 0-.368 0-.792 0-1.272 0-.16 0-.32 0-.48 0-.176-.008-.352-.024-.528.032-.128.04-.264.024-.408-.016-.16.032-.296.144-.408.128-.16.288-.272.48-.336.208-.08.408-.12.6-.12.288 0 .512.112.672.336.16.208.24.44.24.696 0 .544-.024 1.064-.072 1.56-.032.48-.048 1.016-.048 1.608 0 .368.024.808.072 1.32.048.496.096.952.144 1.368.032.336.064.704.096 1.104s.072.808.12 1.224c.048.4.104.792.168 1.176s.144.728.24 1.032zm-5.712 2.88c.336 0 .624-.12.864-.36s.448-.528.624-.864.328-.688.456-1.056.256-.688.384-.96c.064-.24.136-.48.216-.72s.12-.496.12-.768c0-.048-.032-.072-.096-.072-.048-.016-.112-.024-.192-.024-.08-.016-.16-.032-.24-.048s-.136-.064-.168-.144c0-.08 0-.16 0-.24.016-.08.024-.16.024-.24-.048 0-.096 0-.144 0-.032-.016-.08-.024-.144-.024-.224.336-.48.664-.768.984-.272.304-.48.672-.624 1.104-.096.288-.184.544-.264.768-.064.208-.12.408-.168.6-.032.192-.064.392-.096.6-.016.192-.024.408-.024.648 0 .128.032.264.096.408s.112.28.144.408z" fill="#000"/></g></svg>