<svg fill="none" height="176" viewBox="0 0 540 176" width="540" xmlns="http://www.w3.org/2000/svg"><rect fill="#fffabb" height="170" rx="8" width="170" x="185" y="3"/><path d="m294.781 33.0891c-.721-1.4041 2.115-2.5858 2.806-.8071 5.606-5.9938 23.995 14.5234 16.917 22.0853 2.007 1.1865 1.061 3.7861-.973 2.8993l-1.999 1.2224c1.105.8147-.488 1.2081-1.14.7252-.603.2428-1.371.7484-2.05.6376 1.846 5.9508 2.636 12.423 2.641 18.6535 6.176-.3238 10.185 4.1162 10.012 10.175-.249 8.7157-6.482 16.4537-14.798 18.8907-3.335 7.556-11.713 12.552-19.079 15.402.593.914 1.132 1.862 1.61 2.842 2.281-2.28 5.355-3.795 8.533-3.305 3.271.507 6.331 3.016 6.869 6.376.853 5.267-4.108 9.626-8.768 5.66-1.064-.884.337-2.529 1.379-1.619 3.218 2.695 6.007-.428 5.235-3.986-.5-2.307-2.791-3.981-5.042-4.33-2.781-.429-5.459 1.191-7.319 3.361.537 1.611.828 3.318.788 5.017.702.342.745 1.412.188 2.22.792 2.61-.996 6.814-4.177 6.274-.749.932-1.925 1.363-3.094 1.435.131.75 1.222 1.827.713 2.536-.443.737-2.24 1.259-4.424 1.621.039.305.088.607.137.911 2.125.271 4.369 1.051 4.884 2.953.632 2.331-1.552 3.181-3.105 3.181-1.552 0-2.084-.516-3.955-.516-1.303 0-2.532.537-3.83.516-1.357-.017-2.64-1.001-2.794-2.388-.095-.854.118-1.715.733-2.339-.034-.554-.083-1.089-.147-1.605-1.052.031-2.101.018-3.154-.005-.064.518-.114 1.054-.147 1.609.545.553.847 1.308.733 2.34-.155 1.397-1.454 2.381-2.82 2.388-1.29.005-2.508-.516-3.804-.516-1.382 0-2.686.549-4.063.515-1.799-.044-3.526-1.227-2.997-3.18.515-1.902 2.758-2.682 4.884-2.953.044-.274.091-.546.125-.821-1.278-.208-4.885-.524-4.837-2.14-.041-1.098 1.026-2.355 1.115-3.603.339-4.761-.891-9.296.42-14.046-.93 1.613-1.547 3.486-1.827 5.358.498.27.559 1.111.251 1.694.286.674.342 1.449.08 2.193 1.428 1.957-.099 4.905-2.492 4.903-2.882-.002-4.388-3.697-3.723-6.166-.619-.614-.568-1.797.071-2.273.214-3.606 1.708-7.253 3.589-10.057-7.473-2.864-15.868-7.823-19.22-15.456-7.231-2.118-12.913-8.3619-14.424-15.7359-1.369-6.6859 2.111-13.7594 9.697-13.3274.536-6.4385 1.983-12.8649 4.569-18.8019-.577-.0969-1.147-.4766-1.675-.7146-.582.3946-2.107-.0997-1.106-.7742l-1.945-1.3059c-2.125 1.0049-3.07-2.5399-.85-2.938-6.502-7.5642 12.351-27.7348 17.835-21.3503 1.003-2.2212 3.577 0 2.77.925l1.634 1.7346c.517-1.1311 1.537.1828.945.9651.354.5283.971 1.1443 1.039 1.8057v.0029c11.84-6.7861 26.999-6.9856 38.76-.5105.038-.7026.734-1.3356 1.125-1.8693-.63-.6838.316-1.6291.985-.9244zm-11.649 107.7099c.47-.02 1.058-.107 1.417-.446-.809-1.027-1.002-2.538-.131-3.732-.259-.736-.207-1.503.072-2.172-.306-.557-.269-1.362.173-1.673-.144-1.915-.666-3.588-1.57-5.263.939 4.491-.075 8.771.039 13.286z" style="fill-rule:evenodd;clip-rule:evenodd;fill:#f9eb3d;stroke:#333;stroke-width:.2;stroke-miterlimit:10"/><rect height="170" rx="8" stroke="#000" stroke-width="2" width="170" x="185" y="3"/><path d="m364.625 89.3256 11.381-6.571c.772-.4455 1.697.2642 1.466 1.1248l-4.444 16.5866c-.231.86-1.386 1.013-1.832.241z" fill="#000"/><path d="m435.335 105.5c-30.5 22.5-38-14.3313-62.461-14.3313" stroke="#000" stroke-linecap="round" stroke-linejoin="round" stroke-width="3"/><g fill="#000"><rect height="10" rx="5" width="126" x="411" y="59"/><rect height="10" rx="5" width="90" x="429" y="86"/></g></svg>