<svg xmlns="http://www.w3.org/2000/svg" width="432" height="262" fill="none" xmlns:v="https://vecta.io/nano"><g stroke="#e4e5e9" stroke-width="2"><rect x="1" y="5" width="430" height="256" rx="11" fill="#e4e5e9"/><rect x="1" y="1" width="430" height="256" rx="11" fill="#fff"/></g><rect x="107" y="172" width="122" height="14" rx="7" fill="#343a40"/><g fill="#6c757d"><rect x="107" y="196" width="142" height="12" rx="6"/><rect x="21" y="85" width="190" height="14" rx="7"/><rect x="21" y="110" width="190" height="14" rx="7"/><rect x="107" y="220" width="146" height="12" rx="6"/></g><rect x="21" y="134" width="148" height="19" rx="4" fill="#53a451"/><rect x="173" y="134" width="78" height="19" rx="4" fill="#4ca0b5"/><g fill="#343a40"><rect x="82" y="31" width="303" height="13" rx="6.5"/><rect x="82" y="52" width="303" height="13" rx="6.5"/></g><circle cx="397.5" cy="58.5" r="7.5" fill="#6c757d"/><path d="M61.843 28.423c-1.5485-2.787-3.872-9.367-7.7672-9.4147-3.3535-.0417-6.696.0734-10.0278.3452-5.1043.4122-6.7344 6.1867-8.4968 10.167-5.0513 0-6.5513 3.9795-2.7227 5.0818-.4364.928-2.5594 5.4335-1.956 6.173-7.9523-.0726-2.646 12.1818 2.3164 12.6383 1.12 2.5562 4.3198 5.18 8.378 6.7314-1.055 1.595-1.555 3.2662-1.4125 4.896-.8562 1.5114-.1602 3.9375 1.926 3.0376-.2238 1.3093-.6893 1.52-.4612 2.0354.44.9946 3.1438.133 3.092.8757-.93.116-1.9177.454-2.1433 1.2867-.2746 1.0137.675 1.3837 1.3503 1.3837s.9065-.2248 1.7202-.2248c.7106 0 1.0548.2248 1.6468.2248 1.0458 0 1.6644-1.2956.915-2.0563.0202-.3363.0544-.6566.0993-.9618.1393-.0902 1.16-.0904 1.3008.0001.045.3052.079.6257.0993.962-.7488.761-.13 2.056.9155 2.056.592 0 .9362-.2248 1.6468-.2248.8137 0 1.045.2248 1.7202.2248s1.625-.37 1.3503-1.3837c-.2256-.8328-1.2135-1.171-2.1437-1.2867-.052-.7426 2.652.1188 3.092-.8757.3142-.71-.6827-1.316-.1727-1.95 1.5756.2675 2.2903-1.9708 1.6375-3.123.077-.8822-.034-1.7766-.3196-2.6644.811-.9876 2.0104-1.7426 3.2575-1.55.979.1516 1.975.8795 2.1924 1.8827.336 1.5477-.877 2.906-2.2763 1.734-.4533-.396-1.0627.3195-.6.704 2.0398 1.736 4.305-.215 3.781-2.6335-.2984-1.3765-1.5984-2.3908-2.955-2.601-1.413-.2183-2.7787.4754-3.777 1.504-.2-.4277-.438-.8522-.7153-1.2715 4.0586-1.5515 7.2577-4.1755 8.3786-6.732 4.9614.543 10.2676-12.71 2.3158-12.638.8403-1.0298-1.6668-6.3645-2.3176-7.5125 4.79-2.263 1.79-5.263-2.867-4.84z" fill="#333232"/><rect x="24" y="169" width="65" height="65" rx="3" fill="#343a40"/></svg>