<svg xmlns="http://www.w3.org/2000/svg" width="376" height="211" fill="none" xmlns:v="https://vecta.io/nano"><g stroke="#e4e5e9" stroke-width="2"><rect x="1" y="5" width="374" height="205" rx="11" fill="#e4e5e9"/><rect x="1" y="1" width="374" height="205" rx="11" fill="#fff"/></g><g fill="#343a40"><rect x="24" y="89" width="325" height="12" rx="6"/><rect x="45" y="66" width="71" height="12" rx="6"/><rect x="24" y="111" width="325" height="12" rx="6"/><rect x="218" y="168" width="134" height="10" rx="5"/></g><path d="M334.04 24.423c-1.548-2.787-3.872-9.367-7.767-9.4147-3.354-.0417-6.696.0734-10.028.3452-5.104.4122-6.734 6.1867-8.497 10.167-5.05 0-6.55 3.9795-2.722 5.0818-.437.928-2.56 5.4335-1.956 6.173-7.953-.0726-2.646 12.1818 2.316 12.6383 1.12 2.5562 4.32 5.18 8.378 6.7314-1.055 1.595-1.555 3.2662-1.412 4.896-.856 1.5114-.16 3.9375 1.926 3.0376-.224 1.3093-.7 1.52-.462 2.0354.44.9946 3.144.133 3.092.8757-.93.116-1.917.454-2.143 1.2867-.275 1.0137.675 1.3837 1.35 1.3837s.907-.2248 1.72-.2248c.7 0 1.054.2248 1.646.2248 1.046 0 1.665-1.2956.916-2.0563a11.108 11.108 0 0 1 .099-.9618c.14-.0902 1.16-.0904 1.3.0001.045.3052.08.6257.1.962-.75.761-.13 2.056.915 2.056.592 0 .937-.2248 1.647-.2248.814 0 1.045.2248 1.72.2248s1.625-.37 1.35-1.3837c-.226-.8328-1.214-1.171-2.144-1.2867-.052-.7426 2.652.1188 3.092-.8757.314-.71-.683-1.316-.173-1.95 1.576.2675 2.29-1.9708 1.638-3.123.077-.8822-.034-1.7766-.32-2.6644.81-.9876 2.01-1.7426 3.258-1.55.98.1516 1.975.8795 2.192 1.8827.336 1.5477-.877 2.906-2.276 1.734-.454-.396-1.063.3195-.6.704 2.04 1.736 4.305-.215 3.78-2.6335-.3-1.3765-1.6-2.3908-2.955-2.601-1.413-.2183-2.78.4754-3.777 1.504-.2-.4277-.438-.8522-.716-1.2715 4.06-1.5515 7.258-4.1755 8.38-6.732 4.96.543 10.268-12.71 2.316-12.638.84-1.0298-1.667-6.3645-2.318-7.5125 4.8-2.263 1.8-5.263-2.867-4.84z" fill="#333232"/><rect x="24" y="139" width="325" height="12" rx="6" fill="#6c757d"/><g fill="#dc3545"><rect x="24" y="166" width="99" height="12" rx="6"/><rect x="74" y="25" width="44" height="12" rx="6"/></g><rect x="24" y="25" width="46" height="12" rx="6" fill="#343a40"/><rect x="24" y="66" width="17" height="12" rx="6" fill="#6c757d"/></svg>