<svg xmlns="http://www.w3.org/2000/svg" xmlns:xlink="http://www.w3.org/1999/xlink" width="376" height="211" fill="none" xmlns:v="https://vecta.io/nano"><style><![CDATA[.B{fill:#000}.C{stroke:#000}.D{stroke-width:.0925}.E{stroke-miterlimit:10}.F{fill-opacity:.4}.G{fill-opacity:.1}.H{fill:#333232}.I{fill:#f7c394}.J{fill:#343a40}.K{stroke-linejoin:round}.L{fill-opacity:.15}.M{stroke-linecap:round}.N{fill-rule:evenodd}]]></style><g stroke="#e4e5e9" stroke-width="2"><rect x="1" y="5" width="374" height="205" rx="11" fill="#e4e5e9"/><rect x="1" y="1" width="374" height="205" rx="11" fill="#fff"/></g><path d="M33.0562 97.609c0 .642-.0775 1.2423-.2325 1.8013-.155.5533-.3818 1.0348-.6806 1.4438s-.6696.73-1.1123.963c-.4372.233-.9408.35-1.5108.35-.5755 0-1.0763-.102-1.5024-.307-.4206-.205-.7803-.498-1.079-.88l-.0747 1.02h-1.4112V89.25h1.5357v4.7314c.2933-.3652.6474-.6446 1.0625-.8383s.8992-.2906 1.4526-.2906c.5755 0 1.0847.1135 1.5274.3404s.8134.5423 1.1123.9463.5257.888.6806 1.4526c.155.559.2325 1.1732.2325 1.8428v.1743zm-1.5357-.1743c0-.4372-.0443-.8522-.1328-1.245-.083-.3985-.2186-.747-.4067-1.046-.1882-.3044-.4345-.545-.7388-.7222s-.678-.2656-1.1206-.2656c-.2656 0-.509.036-.7305.108-.2213.0664-.4206.1632-.5976.2905-.1716.1217-.3265.2684-.465.44-.1328.166-.2462.3487-.3403.548v3.9263c.0996.1992.2158.3846.3486.5557.1384.166.296.313.4732.44s.3763.227.5976.3c.2214.067.465.1.7305.1.4206 0 .7803-.086 1.079-.258.3043-.177.5506-.415.7388-.7134.1936-.2988.3348-.6447.4233-1.0376.094-.393.141-.808.141-1.245v-.1743zM41.5562 102c-.061-.116-.1107-.26-.1495-.432l-.0747-.547c-.155.154-.3292.3-.523.44-.1882.14-.3985.26-.631.366-.227.105-.4704.188-.7304.25s-.5368.09-.83.09c-.476 0-.9076-.07-1.295-.208-.382-.138-.7084-.323-.9795-.556-.2657-.238-.4732-.517-.6226-.838-.144-.327-.2158-.678-.2158-1.0542 0-.4925.0968-.9242.2905-1.295.1992-.3707.4787-.678.8384-.9213.3597-.249.7913-.4345 1.295-.5562.509-.1217 1.0763-.1826 1.7017-.1826h1.6767v-.7056c0-.271-.0498-.5146-.1494-.7304s-.2407-.3985-.4233-.548c-.1826-.155-.4068-.274-.6724-.357-.26-.083-.5534-.1245-.88-.1245-.3043 0-.5783.0387-.8217.1162-.238.0774-.44.1798-.606.307s-.296.2795-.39.4565c-.0886.1716-.133.3514-.133.5396h-1.544c.0055-.3265.0885-.6475.25-.963.166-.3154.4012-.5977.7056-.8467.31-.2545.6834-.4593 1.1206-.6142.4427-.155.9435-.2325 1.5024-.2325.5092 0 .9823.0637 1.4195.19.437.1217.8134.31 1.129.5644.321.25.5727.5617.7553.938s.274.8162.274 1.3198v4.1753c0 .3.0276.617.083.955.0553.332.1328.622.2324.87V102h-1.602zm-2.7144-1.17c.2988 0 .5783-.04.8384-.117s.4953-.18.7055-.307c.216-.127.4012-.27.5562-.4314.155-.166.2767-.3376.3652-.5146v-1.818h-1.4277c-.8965 0-1.5938.1328-2.0918.3984s-.747.6835-.747 1.2534c0 .2214.036.4262.108.6143.0775.1878.19.3518.3404.4898s.3375.238.5644.315.4898.117.7886.117zm8.4004-7.8114l.108 1.328c.3265-.465.7277-.8273 1.2036-1.0874.476-.2656 1.0072-.4012 1.5938-.4068.4703 0 .8964.0664 1.2783.1993.3874.1328.7166.3403.9878.6225s.4787.642.6225 1.079c.1494.4317.2242.9463.2242 1.544V102h-1.5357v-5.6694c0-.3985-.0443-.736-.1328-1.0127s-.2214-.5008-.3984-.6724c-.1716-.1715-.3846-.296-.6392-.3735-.25-.0775-.5368-.1162-.8633-.1162-.5146 0-.9684.13-1.3613.39-.3874.2546-.6973.592-.9297 1.0127V102h-1.5356v-8.9814h1.378zm16.286 10.2344h-7.6118V102h7.6118v1.253zM71.2646 102H69.73V91.873l-3.1626 1.2037v-1.403L71.14 89.914h.1245V102zm9.0562-1.08c.2767 0 .545-.044.8052-.133.2656-.088.5008-.2.7055-.365.2048-.16.368-.346.4898-.5563a1.412 1.412 0 0 0 .1992-.6973h1.4526c-.0055.3985-.1106.7803-.3154 1.1456-.1992.36-.4676.678-.8052.955-.3375.27-.725.49-1.162.655s-.8937.24-1.3696.24c-.6807 0-1.2756-.122-1.7847-.365s-.9352-.57-1.2783-.98c-.3376-.415-.592-.8907-.7637-1.4274-.1715-.5424-.2573-1.1124-.2573-1.7v-.3486c0-.5922.0858-1.1594.2573-1.7017s.426-1.0182.7637-1.4277c.343-.415.7692-.7443 1.2783-.9878s1.104-.3653 1.7847-.3653c.5313 0 1.0182.0858 1.461.2574.4483.166.833.3956 1.1538.689.3265.2878.581.631.7637 1.0293s.274.8246.274 1.2783h-1.4526c-.0055-.271-.0664-.5257-.1826-.7636-.1107-.2435-.263-.4566-.4566-.6392s-.426-.3265-.6972-.4316c-.2656-.1052-.5534-.1577-.8633-.1577-.476 0-.877.0968-1.2036.2905a2.291 2.291 0 0 0-.7803.7471c-.1992.3043-.343.6474-.4316 1.0293-.083.3818-.1245.7664-.1245 1.1538v.3486c0 .393.0415.783.1245 1.1704.0885.3818.2296.7277.4233 1.0376.1992.3044.4593.5534.7803.7474.3265.188.7305.282 1.212.282zm12.2686-8.0685l.4482.0166c.155.0056.3016.0194.44.0415.144.0166.274.0388.3902.0665.1217.0276.2213.058.2988.0913l-.2075 1.5024c-.2988-.0664-.5838-.1134-.855-.141-.2656-.0332-.545-.0498-.8384-.0498-.7194 0-1.3032.1632-1.7514.4897-.4427.3265-.7692.783-.9795 1.3697V102h-1.544v-8.9814h1.46l.0747 1.4277c.3652-.4925.8024-.88 1.3115-1.162.5146-.2878 1.0985-.4317 1.7515-.4317zm8.2926 9.3135c-.63 0-1.212-.108-1.7433-.324-.5257-.216-.9768-.517-1.353-.904s-.6696-.847-.8798-1.3784-.3155-1.1096-.3155-1.735v-.3486c0-.725.1162-1.3724.3487-1.9424.2324-.5755.5395-1.0597.9214-1.4526.3873-.3985.8245-.7028 1.3115-.913.4925-.2103.996-.3155 1.511-.3155.647 0 1.212.1135 1.693.3404.487.2213.89.5312 1.212.9297.32.393.56.8577.714 1.3945s.24 1.1178.24 1.7432v.689h-6.416c.0166.4095.094.794.2324 1.1538.144.3597.3376.6752.581.946.25.266.545.476.888.63s.7224.233 1.1374.233c.548 0 1.035-.11 1.46-.332s.78-.515 1.062-.8803l.938.7303c-.15.227-.337.446-.564.656-.222.205-.48.387-.772.548s-.625.288-.996.382c-.37.1-.775.15-1.212.15zm-.2-8.0517c-.3 0-.604.058-.8803.1743-.2767.1107-.5257.2767-.747.498-.2214.2158-.4095.4842-.5645.8052-.1494.3154-.2545.6807-.3154 1.0957h4.8312v-.1162c-.017-.2988-.075-.595-.174-.8882s-.236-.556-.424-.7886-.426-.4205-.714-.5644c-.282-.144-.62-.2158-1.012-.2158zm10.41 8.0517c-.63 0-1.212-.108-1.743-.324s-.977-.517-1.353-.904-.67-.847-.88-1.3784-.316-1.1096-.316-1.735v-.3486c0-.725.117-1.3724.35-1.9424.232-.5755.54-1.0597.92-1.4526.388-.3985.825-.7028 1.312-.913s.996-.3155 1.51-.3155c.647 0 1.21.1135 1.693.3404.487.2213.89.5312 1.212.9297.32.393.56.8577.714 1.3945s.24 1.1178.24 1.7432v.689h-6.416c.017.4095.094.794.232 1.1538.144.3597.338.6752.58.946.25.266.545.476.89.63s.722.233 1.137.233c.548 0 1.035-.11 1.46-.332s.78-.515 1.062-.8803l.938.7303c-.15.227-.337.446-.564.656-.222.205-.48.387-.772.548s-.626.288-.996.382c-.37.1-.775.15-1.212.15zm-.2-8.0517c-.3 0-.604.058-.88.1743-.277.1107-.526.2767-.747.498-.222.2158-.4.4842-.565.8052-.15.3154-.254.6807-.315 1.0957h4.83v-.1162c-.017-.2988-.075-.595-.175-.8882-.094-.2933-.235-.556-.423-.7886s-.426-.4205-.714-.5644c-.282-.144-.62-.2158-1.012-.2158zm14.02 3.4946c0 .642-.078 1.2423-.233 1.8013-.155.5533-.382 1.0348-.68 1.4438s-.67.73-1.113.963c-.437.233-.938.35-1.502.35-.548 0-1.032-.09-1.453-.266-.415-.177-.772-.43-1.07-.763v4.316h-1.535V93.0186h1.403l.074.9794c.3-.3707.66-.653 1.08-.8466.426-.1993.92-.299 1.478-.299.575 0 1.084.1135 1.527.3404a3.16 3.16 0 0 1 1.113.9463c.298.404.525.888.68 1.4526.155.559.233 1.1732.233 1.8428v.1743zm-1.536-.1743c0-.4372-.05-.8522-.15-1.245-.095-.3985-.244-.747-.45-1.046-.2-.3044-.453-.545-.763-.7222s-.68-.2656-1.113-.2656c-.492 0-.907.1162-1.245.3486-.332.227-.597.5202-.797.88V99.71c.2.354.465.645.797.872.332.22.753.332 1.262.332.426 0 .794-.09 1.104-.266.3-.183.564-.426.764-.7305s.345-.6558.44-1.0542.15-.8162.15-1.2534v-.1743zm4.408-4.416h4.6v7.6534h2.93V102h-7.52v-1.328h3.054v-6.317h-3.054v-1.3364zm2.855-2.3575c0-.2545.075-.4676.224-.639.155-.177.388-.2657.698-.2657.304 0 .534.0886.688.2657.155.1715.233.3846.233.639 0 .249-.078.4566-.233.6226s-.384.25-.688.25c-.3 0-.543-.083-.698-.25-.15-.166-.224-.3735-.224-.6226zm14.55 2.4073c-.005.603-.168 1.14-.49 1.6103s-.75.8384-1.287 1.104c.3.1328.59.2988.838.498.255.1936.47.4178.648.6723s.32.5313.415.83c.1.2988.15.617.15.9546 0 .5478-.102 1.0348-.307 1.4612-.2.426-.473.786-.822 1.08-.343.288-.747.51-1.21.664-.465.15-.963.224-1.495.224-.542 0-1.048-.075-1.52-.224-.465-.15-.87-.368-1.22-.656-.343-.293-.614-.653-.813-1.08s-.3-.9158-.3-1.4692c0-.3376.047-.6558.14-.9546.094-.3044.23-.581.407-.83.177-.2545.4-.4814.64-.6806s.528-.3653.838-.498c-.265-.1328-.506-.2905-.722-.473-.216-.1882-.398-.3957-.548-.6226-.15-.2324-.265-.4842-.348-.7554s-.125-.556-.125-.855c0-.5258.09-.9934.266-1.403.177-.415.42-.7636.73-1.046.316-.2822.69-.498 1.12-.6474.437-.1494.913-.2242 1.427-.2242s.983.0748 1.42.2242.816.3652 1.137.6474.573.631.755 1.046c.183.4095.274.877.274 1.403zm-1.26 5.6362c0-.3376-.058-.6475-.175-.9297-.1-.2822-.268-.523-.473-.7222-.205-.2047-.45-.3624-.74-.473-.282-.1107-.592-.166-.93-.166-.35 0-.664.0553-.947.166s-.522.2684-.722.473c-.2.1993-.354.44-.465.7222-.105.2822-.157.592-.157.9297 0 .3486.052.6613.157.938.11.271.266.5004.465.6894s.44.332.722.43c.288.1.61.15.963.15.338 0 .648-.05.93-.15s.523-.243.722-.43c.205-.19.363-.4183.473-.6894.117-.2767.175-.5894.175-.938zm-.283-5.6113c0-.3044-.052-.584-.157-.8384s-.24-.4732-.424-.6558c-.177-.188-.4-.332-.64-.4316-.25-.1052-.523-.1577-.822-.1577s-.57.0498-.813.1494c-.243.094-.454.2324-.63.415s-.315.404-.415.664c-.094.2545-.14.5395-.14.855s.047.6004.14.855c.1.249.238.465.415.6475.183.177.396.3154.64.415.25.094.523.1412.822.1412.293 0 .565-.047.814-.1412.25-.0996.462-.238.64-.415.182-.1826.323-.4012.423-.6558s.15-.5367.15-.8466zm5.97 7.5457c.548 0 1.03-.047 1.444-.14.415-.1.775-.238 1.08-.415.3-.1776.567-.385.772-.623a3.303 3.303 0 0 0 .498-.7969c.133-.2933.23-.6004.29-.9214.06-.3265.1-.6585.116-.996a3.657 3.657 0 0 1-.457.4732c-.17.1438-.365.271-.58.3818s-.456.1992-.722.2656c-.26.061-.545.0913-.855.0913-.597 0-1.115-.1162-1.552-.3486-.432-.238-.79-.548-1.07-.9297s-.5-.8135-.622-1.295-.2-.9657-.2-1.4527c0-.57.078-1.1067.233-1.6103.16-.509.395-.9518.705-1.328.316-.382.706-.6835 1.17-.9048.47-.227 1.015-.3404 1.635-.3404.465 0 .883.0665 1.253.1993.377.1272.706.307.988.5395.288.227.534.498.74.8135.205.31.37.6475.498 1.0127.133.3597.23.7388.29 1.1372a7.853 7.853 0 0 1 .091 1.187v.5562l-.075 1.5854c-.05.5368-.15 1.057-.3 1.5606-.144.5035-.348.9794-.614 1.4277-.266.443-.61.83-1.038 1.162s-.943.595-1.552.79-1.33.3-2.166.3h-.158v-1.37h.158zm1.834-3.9515c.26 0 .512-.0415.756-.1245.25-.0886.475-.2103.68-.3652a2.906 2.906 0 0 0 .556-.5562c.166-.2158.296-.4538.39-.714v-.498c0-.5368-.064-1.0155-.19-1.436-.122-.4206-.29-.7748-.507-1.0625-.2-.2933-.456-.5175-.74-.6724-.276-.155-.572-.2324-.888-.2324-.36 0-.678.072-.954.2158s-.512.343-.706.5976c-.188.249-.332.548-.43.8965-.1.343-.15.714-.15 1.1123a4.148 4.148 0 0 0 .133 1.0459c.088.3376.22.6392.398.9048.183.2656.4.4815.68.6475.277.1605.6.2407.97.2407zm7.43-3.669l.042.8466c.183-.3154.42-.5617.714-.7387.3-.177.658-.2684 1.08-.274.824 0 1.375.32 1.652.963.177-.2877.41-.5174.697-.689.293-.177.647-.2684 1.062-.274.66 0 1.165.202 1.52.606s.53 1.0155.53 1.8345V102h-1.46v-6.7236c0-.7526-.346-1.1262-1.038-1.1206-.182 0-.34.025-.473.0747s-.243.119-.332.2075c-.088.083-.158.1826-.207.2988a1.268 1.268 0 0 0-.1.3486V102h-1.46v-6.732c0-.3597-.08-.6364-.24-.83s-.415-.2878-.763-.2822c-.32 0-.57.0636-.747.191s-.308.296-.39.5063V102h-1.46v-8.9814h1.378zm17.083 4.5903c0 .642-.077 1.2423-.232 1.8013-.155.5533-.382 1.0348-.68 1.4438s-.67.73-1.112.963c-.437.233-.938.35-1.502.35-.548 0-1.032-.09-1.453-.266-.415-.177-.772-.43-1.07-.763v4.316h-1.536V93.0186h1.403l.075.9794c.3-.3707.66-.653 1.08-.8466.426-.1993.92-.299 1.478-.299.575 0 1.084.1135 1.527.3404s.813.5423 1.112.9463.526.888.68 1.4526c.155.559.232 1.1732.232 1.8428v.1743zm-1.535-.1743c0-.4372-.05-.8522-.15-1.245-.094-.3985-.243-.747-.448-1.046-.2-.3044-.454-.545-.764-.7222s-.68-.2656-1.112-.2656c-.492 0-.907.1162-1.245.3486-.332.227-.598.5202-.797.88V99.71c.2.354.465.645.797.872.332.22.753.332 1.262.332.426 0 .794-.09 1.104-.266.3-.183.564-.426.763-.7305s.346-.6558.44-1.0542c.1-.3984.15-.8162.15-1.2534v-.1743zm10.392.5063h1.685v1.2534h-1.685V102h-1.535v-2.8057h-5.512v-.9047l5.412-8.3755h1.635v8.0268zm-5.345 0h3.8V91.956l-.25.4648-3.56 5.52zm16.767-4.8725c-.005.603-.17 1.14-.5 1.6103s-.75.8384-1.286 1.104c.3.1328.59.2988.838.498.255.1936.47.4178.648.6723.182.2546.32.5313.415.83s.15.617.15.9546c0 .5478-.102 1.0348-.307 1.4612-.2.426-.473.786-.822 1.08-.343.288-.747.51-1.212.664-.465.15-.963.224-1.494.224-.542 0-1.048-.075-1.52-.224-.465-.15-.87-.368-1.22-.656-.343-.293-.614-.653-.814-1.08s-.298-.9158-.298-1.4692c0-.3376.047-.6558.14-.9546.094-.3044.23-.581.406-.83.178-.2545.39-.4814.64-.6806s.528-.3653.838-.498c-.266-.1328-.506-.2905-.722-.473-.216-.1882-.4-.3957-.548-.6226-.15-.2324-.266-.4842-.35-.7554s-.124-.556-.124-.855c0-.5258.088-.9934.265-1.403.178-.415.42-.7636.73-1.046s.69-.498 1.12-.6474.913-.2242 1.427-.2242c.51 0 .983.0748 1.42.2242s.816.3652 1.137.6474.573.631.755 1.046c.183.4095.274.877.274 1.403zm-1.262 5.6362c0-.3376-.058-.6475-.174-.9297s-.268-.523-.473-.7222c-.205-.2047-.45-.3624-.74-.473-.282-.1107-.592-.166-.93-.166-.35 0-.664.0553-.947.166s-.523.2684-.722.473c-.2.1993-.354.44-.465.7222-.105.2822-.157.592-.157.9297 0 .3486.052.6613.157.938.11.271.266.5004.465.6894s.44.332.722.43c.288.1.61.15.963.15.338 0 .648-.05.93-.15s.523-.243.722-.43c.205-.19.362-.4183.473-.6894.116-.2767.174-.5894.174-.938zm-.282-5.6113c0-.3044-.052-.584-.157-.8384-.1-.2546-.24-.4732-.424-.6558-.177-.188-.4-.332-.64-.4316-.25-.1052-.523-.1577-.822-.1577s-.57.0498-.813.1494c-.244.094-.454.2324-.63.415s-.315.404-.415.664c-.094.2545-.14.5395-.14.855s.047.6004.14.855c.1.249.238.465.415.6475.183.177.396.3154.64.415.25.094.523.1412.822.1412.293 0 .564-.047.813-.1412.25-.0996.462-.238.64-.415.182-.1826.323-.4012.423-.6558s.15-.5367.15-.8466zm5.678 5.6528l.183 1.287.224-1.287 1.436-5.7275h.988l1.427 5.7275.24 1.411.224-1.411.996-5.7275h1.362l-1.9 8.9814h-1.212l-1.402-5.5034-.233-1.3945-.224 1.3945L201.09 102h-1.212l-1.91-8.9814h1.36l1.046 5.7275zm11.538-.938l-1.13 1.0874V102h-1.544V89.25h1.544v7.8027l1.005-1.079 2.946-2.955h1.868l-3.636 3.7436L217.16 102h-1.95l-3.295-4.192zm10.824 1.0044l.4 1.0874 2.74-6.8813h1.718l-4.557 10.3674c-.105.233-.24.48-.407.74-.16.26-.357.5-.59.722s-.504.407-.813.556-.667.224-1.07.224a1.97 1.97 0 0 1-.241-.016 2.415 2.415 0 0 1-.266-.033l-.25-.042-.19-.04.25-1.254c.04 0 .092.003.158.01l.208.016.207.008.158.01c.2 0 .4-.058.573-.175s.332-.254.465-.415.254-.326.348-.498l.233-.423.614-1.195-3.868-8.5584h1.718l2.465 5.794zm6.624-1.378c0-.6696.08-1.284.24-1.8428.166-.5645.404-1.0487.714-1.4526s.686-.7194 1.13-.9463.943-.3404 1.502-.3404 1.038.0996 1.453.299c.42.1937.777.476 1.07.8466l.074-.9794h1.395v8.7904c0 .592-.094 1.118-.282 1.577-.183.46-.443.85-.78 1.17-.332.32-.73.564-1.195.73s-.98.25-1.544.25c-.232 0-.498-.028-.797-.083s-.603-.135-.913-.257c-.304-.116-.6-.274-.888-.473-.282-.2-.526-.446-.73-.74l.796-.922c.19.227.382.418.582.573.2.16.4.288.605.382s.4.16.615.2a2.844 2.844 0 0 0 .614.067c.365 0 .694-.053.988-.158s.542-.26.747-.465c.2-.2.37-.448.48-.747s.166-.642.166-1.03v-.772c-.3.343-.653.606-1.062.788-.404.177-.875.266-1.41.266-.548 0-1.043-.116-1.486-.35s-.82-.553-1.13-.963c-.304-.41-.54-.8905-.706-1.4438-.166-.56-.25-1.1594-.25-1.8013v-.1743zm1.536.1743c0 .4372.044.8522.133 1.245s.238.7388.43 1.0376c.2.2984.45.5364.756.7134.304.172.67.258 1.095.258.266 0 .504-.03.714-.092.216-.066.407-.157.573-.273a2.199 2.199 0 0 0 .457-.415 2.965 2.965 0 0 0 .348-.5317V95.434c-.1-.1882-.216-.3597-.348-.5147s-.285-.2877-.457-.3984c-.17-.1162-.362-.2048-.573-.2656-.2-.0664-.442-.0996-.697-.0996-.432 0-.802.0885-1.112.2656s-.556.4178-.756.7222c-.193.2988-.337.6474-.43 1.046-.09.393-.133.808-.133 1.245v.1743zm9.504-1.6685l.606-6.0263h6.2v1.494h-4.906l-.34 3.2207c.238-.1383.523-.26.855-.3652s.717-.1577 1.154-.1577c.56 0 1.06.0968 1.502.2905s.82.4676 1.13.8218c.3.3486.548.772.714 1.27s.25 1.0514.25 1.66c0 .5756-.078 1.1096-.232 1.602s-.39.9185-.706 1.2785c-.3.354-.703.633-1.18.838-.476.2-1.035.3-1.677.3-.492 0-.957-.07-1.394-.208s-.827-.345-1.17-.622c-.338-.277-.617-.625-.84-1.046-.216-.4205-.35-.9103-.407-1.4692h1.46c.094.6862.346 1.2062.756 1.5602s.946.532 1.593.532c.366 0 .69-.064.972-.19.282-.133.517-.32.705-.556.194-.244.338-.5345.432-.872.1-.3375.15-.7138.15-1.129 0-.3763-.055-.7277-.166-1.0542-.105-.3265-.26-.6087-.465-.8466-.204-.2435-.456-.4344-.755-.5728s-.642-.2075-1.03-.2075c-.255 0-.476.0194-.664.058-.183.0332-.35.083-.498.1494a2.452 2.452 0 0 0-.424.2407l-.398.3238-1.23-.3155zM252.354 102v-7.7944h-2.473v-1.187h2.473v-.631c0-.5755.084-1.079.25-1.5107.17-.4372.41-.8025.713-1.0958.3-.2932.68-.5146 1.113-.664s.913-.224 1.444-.224c.365 0 .72.0304 1.063.0913l1.07.2324-.182 1.27c-.227-.0775-.493-.144-.797-.1992-.3-.061-.62-.0913-.963-.0913-.72.0055-1.262.188-1.627.5478-.36.3597-.54.9076-.54 1.6436v.631h3.462v1.187h-3.462V102h-1.544zm10.61-4.192l-1.13 1.0874V102H260.3V89.25h1.544v7.8027l1.004-1.079 2.947-2.955h1.868l-3.636 3.7436L268.21 102h-1.95l-3.295-4.192zm11.156-6.9643v2.1748h3.42v1.187h-3.42v4.8808c0 .3487.044.6364.133.8633s.2.4093.365.5483c.155.132.332.226.53.282.205.055.42.083.648.083l.515-.025.514-.075.473-.083.366-.083.215 1.088c-.127.077-.282.146-.464.207a5.434 5.434 0 0 1-.598.141 6.3 6.3 0 0 1-.689.1l-.714.033c-.398 0-.772-.055-1.12-.166-.343-.116-.64-.296-.896-.54s-.457-.567-.606-.954c-.144-.393-.216-.8662-.216-1.4196v-4.8808h-2.357v-1.187h2.357v-2.1748h1.544zm6.292 6.5908c0-.6696.08-1.284.24-1.8428.166-.5645.404-1.0487.714-1.4526s.686-.7194 1.13-.9463.943-.3404 1.502-.3404c.553 0 1.038.0996 1.453.299.42.1937.777.476 1.07.8466l.074-.9794H288v8.7904c0 .592-.094 1.118-.282 1.577s-.443.85-.78 1.17c-.332.32-.73.564-1.195.73s-.98.25-1.544.25c-.232 0-.498-.028-.797-.083s-.603-.135-.913-.257c-.304-.116-.6-.274-.888-.473-.282-.2-.526-.446-.73-.74l.797-.922c.188.227.382.418.58.573.2.16.402.288.606.382s.4.16.615.2a2.844 2.844 0 0 0 .614.067c.365 0 .694-.053.988-.158s.542-.26.747-.465c.2-.2.37-.448.48-.747s.166-.642.166-1.03v-.772c-.3.343-.653.606-1.062.788-.404.177-.875.266-1.412.266-.547 0-1.043-.116-1.485-.35s-.82-.553-1.13-.963-.54-.8905-.706-1.4438c-.166-.56-.25-1.1594-.25-1.8013v-.1743zm1.536.1743c0 .4372.044.8522.133 1.245s.238.7388.43 1.0376c.2.2984.45.5364.756.7134.304.172.67.258 1.095.258.266 0 .504-.03.714-.092.216-.066.407-.157.573-.273s.324-.255.456-.415.25-.338.35-.5317V95.434c-.1-.1882-.216-.3597-.35-.5147s-.285-.2877-.456-.3984c-.172-.1162-.363-.2048-.573-.2656-.2-.0664-.443-.0996-.697-.0996-.432 0-.803.0885-1.112.2656s-.557.4178-.756.7222c-.193.2988-.337.6474-.43 1.046-.09.393-.133.808-.133 1.245v.1743zM296.805 102c-.06-.116-.11-.26-.15-.432l-.075-.547c-.155.154-.33.3-.523.44-.188.14-.398.26-.63.366-.227.105-.47.188-.73.25s-.537.09-.83.09c-.476 0-.908-.07-1.295-.208s-.71-.323-.98-.556c-.265-.238-.473-.517-.622-.838-.144-.327-.216-.678-.216-1.0542 0-.4925.097-.9242.3-1.295.2-.3707.48-.678.84-.9213.36-.249.79-.4345 1.295-.5562s1.076-.1826 1.7-.1826h1.677v-.7056c0-.271-.05-.5146-.15-.7304s-.24-.3985-.424-.548c-.182-.155-.406-.274-.672-.357-.26-.083-.553-.1245-.88-.1245-.304 0-.578.0387-.822.1162-.238.0774-.44.1798-.606.307s-.296.2795-.4.4565c-.088.1716-.133.3514-.133.5396h-1.543c.005-.3265.088-.6475.25-.963s.4-.5977.705-.8467c.3-.2545.684-.4593 1.12-.6142s.943-.2325 1.502-.2325c.51 0 .982.0637 1.42.19.437.1217.813.31 1.128.5644.32.25.573.5617.756.938s.274.8162.274 1.3198v4.1753c0 .3.027.617.083.955.055.332.133.622.232.87V102h-1.602zm-2.714-1.17c.3 0 .578-.04.838-.117s.495-.18.706-.307.4-.27.556-.4314c.155-.166.277-.3376.365-.5146v-1.818h-1.428c-.896 0-1.593.1328-2.09.3984s-.747.6835-.747 1.2534c0 .2214.036.4262.107.6143.078.1878.19.3518.34.4898s.337.238.564.315.5.117.79.117zm14.6-3.221c0 .642-.078 1.2423-.233 1.8013-.154.5533-.38 1.0348-.68 1.4438s-.67.73-1.112.963-.938.35-1.503.35c-.548 0-1.032-.09-1.453-.266-.415-.177-.772-.43-1.07-.763v4.316h-1.536V93.0186h1.403l.075.9794c.298-.3707.658-.653 1.08-.8466.426-.1993.918-.299 1.477-.299.576 0 1.085.1135 1.528.3404s.813.5423 1.112.9463.526.888.68 1.4526c.155.559.233 1.1732.233 1.8428v.1743zm-1.536-.1743c0-.4372-.05-.8522-.15-1.245-.094-.3985-.244-.747-.448-1.046-.2-.3044-.454-.545-.764-.7222s-.68-.2656-1.112-.2656c-.493 0-.908.1162-1.245.3486-.333.227-.598.5202-.797.88V99.71c.2.354.464.645.797.872.332.22.752.332 1.26.332.426 0 .794-.09 1.104-.266.3-.183.565-.426.764-.7305s.346-.6558.44-1.0542.15-.8162.15-1.2534v-.1743zm5.82 3.2044c.548 0 1.03-.047 1.444-.14.415-.1.775-.238 1.08-.415s.567-.385.772-.623a3.366 3.366 0 0 0 .498-.7969c.132-.2933.23-.6004.3-.9214a7.299 7.299 0 0 0 .116-.9961c-.133.166-.285.3237-.456.4732-.172.1438-.365.271-.58.3818s-.457.1992-.722.2656c-.26.061-.546.0913-.855.0913-.598 0-1.116-.1162-1.553-.3486-.43-.238-.788-.548-1.07-.9297s-.5-.8135-.623-1.295-.2-.9657-.2-1.4527c0-.57.077-1.1067.232-1.6103.16-.509.396-.9518.706-1.328.315-.382.705-.6835 1.17-.9048.47-.227 1.016-.3404 1.635-.3404.465 0 .883.0665 1.254.1993.376.1272.705.307.988.5395.287.227.534.498.738.8135.205.31.37.6475.498 1.0127.133.3597.23.7388.29 1.1372.06.393.09.7886.09 1.187v.5562l-.074 1.5854c-.05.5368-.15 1.057-.3 1.5606s-.35.9794-.615 1.4277c-.265.443-.61.83-1.037 1.162s-.944.595-1.552.79-1.33.3-2.167.3h-.158v-1.37h.158zm1.835-3.9515c.26 0 .51-.0415.755-.1245.25-.0886.476-.2103.68-.3652a2.964 2.964 0 0 0 .556-.5562c.166-.2158.296-.4538.4-.714v-.498c0-.5368-.064-1.0155-.19-1.436-.122-.4206-.29-.7748-.506-1.0625-.21-.2933-.457-.5175-.74-.6724-.277-.155-.573-.2324-.888-.2324-.36 0-.678.072-.955.2158s-.512.343-.705.5976c-.19.249-.333.548-.432.8965-.1.343-.15.714-.15 1.1123a4.194 4.194 0 0 0 .133 1.0459c.09.3376.222.6392.4.9048s.41.4815.68.6475c.277.1605.6.2407.972.2407zm7.76-3.669h4.532v9.0394c0 .576-.08 1.085-.24 1.527-.155.443-.384.814-.69 1.113-.298.304-.666.534-1.104.69-.43.16-.924.24-1.477.24-.316 0-.612-.01-.888-.033-.272-.016-.56-.052-.864-.108l.108-1.26c.094.016.213.03.357.04l.432.033.423.017.324.008c.288 0 .56-.04.813-.116s.476-.196.664-.374.335-.412.44-.705c.11-.288.166-.645.166-1.07v-7.703h-2.996v-1.3364zm2.78-2.3658c0-.25.074-.4593.224-.6308.15-.177.38-.2657.69-.2657s.542.0886.697.2657c.155.1715.232.3818.232.6308s-.077.4593-.232.631c-.155.166-.387.25-.697.25s-.54-.083-.69-.25c-.15-.1716-.224-.3818-.224-.631zm12.052-.747v1.378h-.133c-.51 0-.965.0526-1.37.1577s-.75.25-1.054.4316-.568.4013-.79.6558c-.216.25-.396.523-.54.8218s-.255.6115-.332.938-.128.6585-.15.996c.144-.1716.3-.3293.498-.4732a3.273 3.273 0 0 1 .606-.3818c.22-.1107.457-.1965.706-.2573.254-.0664.52-.0996.797-.0996.603 0 1.123.1162 1.56.3486.437.227.797.5285 1.08.9048s.5.8024.623 1.2783.2.96.2 1.4526c0 .5645-.08 1.0957-.24 1.5938-.155.498-.4.935-.705 1.311-.316.37-.71.664-1.18.88-.465.216-1.004.324-1.62.324-.437 0-.838-.064-1.203-.19s-.684-.3-.97-.515-.54-.48-.756-.78a4.787 4.787 0 0 1-.539-.9627 5.776 5.776 0 0 1-.316-1.0708 5.823 5.823 0 0 1-.108-1.1123v-.7222a13.797 13.797 0 0 1 .1-1.6601c.072-.56.19-1.093.357-1.602s.4-.985.672-1.4277c.282-.4483.637-.8356 1.063-1.162s.943-.584 1.535-.772 1.284-.2822 2.075-.2822h.133zm-2.008 5.4453a2.327 2.327 0 0 0-.756.1245c-.243.083-.47.1992-.68.3486s-.395.3293-.556.5396a2.707 2.707 0 0 0-.382.6972v.5147c0 .5312.064 1.0044.19 1.4194.128.4095.3.7554.515 1.038s.465.498.747.647c.282.144.578.216.888.216.36 0 .678-.07.955-.208s.51-.33.697-.572c.194-.2438.338-.5343.432-.872.1-.343.15-.7138.15-1.1123 0-.354-.044-.6972-.133-1.0293-.088-.3375-.224-.6364-.406-.8964s-.413-.4677-.69-.6226-.6-.2324-.97-.2324zM346.934 102h-1.536V91.873l-3.163 1.2037v-1.403l4.574-1.7597h.125V102zm-315.8285 9.906v1.378h-.1328c-.5092 0-.9657.052-1.3697.157-.3984.106-.7498.25-1.0542.432s-.5672.4-.7885.656c-.216.25-.3957.523-.5396.822a4.574 4.574 0 0 0-.332.938c-.0775.326-.1273.658-.1494.996.1438-.172.31-.33.498-.473a3.247 3.247 0 0 1 .606-.382c.2213-.11.4565-.197.7055-.258.2546-.066.5202-.1.797-.1.6032 0 1.1234.116 1.5605.348.4372.227.797.53 1.0792.905s.4897.803.6225 1.278a5.386 5.386 0 0 1 .1992 1.453c0 .565-.0802 1.096-.2407 1.594-.155.498-.39.935-.7056 1.31-.3154.37-.7083.664-1.1787.88-.4648.216-1.0044.324-1.6186.324-.4372 0-.8384-.064-1.2036-.19-.3597-.127-.6835-.3-.9712-.515a3.728 3.728 0 0 1-.7554-.78c-.2158-.3-.3957-.62-.5395-.963-.1384-.343-.2435-.7-.3155-1.07s-.108-.74-.108-1.112v-.722c0-.553.0332-1.107.0996-1.66.072-.56.191-1.093.357-1.602s.39-.985.6723-1.428.6364-.836 1.0625-1.162c.4317-.327.9435-.584 1.5357-.772s1.2838-.282 2.0752-.282h.1328zm-2.0088 5.445a2.326 2.326 0 0 0-.7554.125 2.651 2.651 0 0 0-.6807.348c-.2102.15-.3956.33-.556.54s-.2878.442-.3818.697v.515c0 .53.0636 1.004.191 1.42.1273.4.2988.755.5146 1.038s.465.498.747.647c.2822.144.5783.216.8882.216.3597 0 .678-.07.9546-.208a1.999 1.999 0 0 0 .6972-.572c.1937-.244.3376-.534.4317-.872.0996-.343.1494-.714.1494-1.112 0-.354-.0443-.697-.1328-1.03-.0886-.338-.224-.637-.4068-.897a2.066 2.066 0 0 0-.6889-.623c-.2767-.154-.6005-.232-.9712-.232zm7.1054.59l.606-6.026h6.2007v1.494H38.103l-.3403 3.22c.238-.138.523-.26.855-.365s.7166-.158 1.1538-.158c.559 0 1.0597.097 1.5024.3s.82.468 1.129.822c.31.35.548.772.714 1.27s.25 1.052.25 1.66c0 .576-.0775 1.1-.2324 1.602s-.39.92-.7056 1.28c-.31.354-.7028.633-1.1787.838-.476.2-1.0348.3-1.6767.3-.4925 0-.9574-.07-1.3946-.208s-.8273-.345-1.1704-.622c-.3375-.277-.617-.625-.8384-1.046-.2158-.42-.3514-.9-.4067-1.47h1.461c.094.686.346 1.206.7554 1.56.415.355.9463.532 1.5938.532.3652 0 .689-.064.9712-.19.2822-.133.5174-.32.7055-.556.1937-.244.3376-.534.4317-.872.0996-.338.1494-.714.1494-1.13 0-.376-.0554-.728-.166-1.054-.1052-.327-.26-.61-.465-.847s-.4565-.434-.7554-.573-.642-.207-1.0292-.207c-.2546 0-.476.02-.664.058-.1826.033-.3486.083-.498.15s-.2905.147-.4233.24l-.3984.324-1.2286-.316zm9.3716 1.495c0-.67.083-1.284.249-1.843.1715-.565.4122-1.05.722-1.453.3155-.404.6945-.72 1.1372-.946s.938-.34 1.486-.34c.5368 0 1.0044.09 1.4028.273.404.178.7526.438 1.046.78v-4.657h1.5356V124h-1.411l-.0664-.946c-.2988.365-.6558.642-1.0708.83s-.8992.282-1.4526.282c-.5424 0-1.035-.116-1.4776-.35-.437-.232-.8107-.553-1.1206-.963s-.5506-.9-.722-1.444-.2574-1.16-.2574-1.8v-.174zm1.5357.174c0 .437.047.852.141 1.245s.238.74.4316 1.038c.1992.298.45.536.7554.713.3044.172.6696.258 1.0957.258.26 0 .4953-.03.7056-.092s.4012-.146.5727-.257.3238-.252.4566-.407a2.906 2.906 0 0 0 .3486-.531v-4.167c-.1992-.365-.4676-.664-.8052-.896-.3375-.238-.758-.357-1.2617-.357-.4316 0-.8024.088-1.1123.265-.3044.177-.5562.418-.7554.723-.1937.298-.3375.647-.4316 1.045s-.141.808-.141 1.246v.174zm16.4023-4.54c-.0055.604-.1688 1.14-.4897 1.61s-.75.838-1.2866 1.104c.3098.133.5893.3.8383.498.2546.193.4704.418.6475.672a2.92 2.92 0 0 1 .415.83c.0996.3.1494.617.1494.955 0 .548-.1023 1.035-.307 1.46-.1992.426-.473.786-.8218 1.08-.343.288-.747.51-1.212.664-.4648.15-.963.224-1.494.224-.5423 0-1.0487-.075-1.519-.224-.4648-.15-.8715-.368-1.2202-.656-.343-.293-.6142-.653-.8135-1.08s-.2988-.916-.2988-1.47c0-.338.047-.656.141-.955.094-.304.2297-.58.4068-.83.177-.254.39-.48.639-.68s.5285-.365.8384-.498a3.567 3.567 0 0 1-.7222-.473c-.2158-.188-.3984-.395-.5478-.622-.1494-.233-.2656-.485-.3486-.756s-.1246-.556-.1246-.855c0-.525.0886-.993.2657-1.402.177-.416.4205-.764.7304-1.046.3155-.283.69-.498 1.1206-.648.4372-.15.913-.224 1.4278-.224.509 0 .9822.075 1.4194.224s.8163.365 1.1372.648.5728.63.7554 1.046c.1826.41.274.877.274 1.402zm-1.2617 5.637c0-.338-.058-.648-.1743-.93-.1107-.282-.2684-.523-.4732-.722-.2047-.205-.45-.363-.7387-.473-.2823-.11-.5922-.166-.9297-.166-.3487 0-.664.055-.9463.166s-.523.268-.7222.473c-.1992.2-.354.44-.4648.722-.1052.282-.1577.592-.1577.93 0 .348.0525.66.1577.938.1107.27.2656.5.4648.69s.44.332.7222.43c.2878.1.6087.15.963.15.3375 0 .6474-.05.9297-.15s.523-.243.722-.43c.2048-.19.3625-.418.4732-.69.1162-.277.1743-.6.1743-.938zm-.2822-5.612c0-.304-.0526-.584-.1577-.838-.0997-.255-.2408-.473-.4234-.656-.177-.188-.39-.332-.639-.432-.249-.105-.523-.157-.8218-.157s-.57.05-.8135.15c-.2435.094-.4538.233-.631.415s-.3154.404-.415.664c-.094.255-.141.54-.141.855s.047.6.141.855c.0996.25.238.465.415.648.1827.177.3957.315.6392.415.25.094.523.14.8218.14.2933 0 .5644-.047.8135-.14.25-.1.462-.238.639-.415.1826-.183.3238-.402.4234-.656s.1494-.537.1494-.847zm7.62 5.72l.3984 1.088 2.7393-6.88h1.7182l-4.557 10.367c-.105.233-.2407.48-.4067.74-.1605.26-.357.5-.5894.722s-.5036.407-.8135.556-.6668.224-1.0708.224c-.072 0-.152-.005-.2407-.016a2.408 2.408 0 0 1-.2656-.033l-.25-.042-.191-.04.25-1.254c.0387 0 .0913.003.1577.01l.2075.016.2075.008.1578.01c.2102 0 .4012-.058.5727-.175.177-.116.332-.254.4648-.415.1384-.16.2546-.326.3487-.498l.2324-.423.6143-1.195-3.8682-8.558h1.7183l2.4653 5.793zm8.75 1.935h5.7193V124H76.378v-1.13l5.3623-6.582h-5.2876v-1.27h7.3047v1.087l-5.4204 6.64zm14.0283-10.84v1.378h-.1328c-.509 0-.9656.052-1.3696.157-.3984.106-.7498.25-1.0542.432s-.5672.4-.7886.656a3.694 3.694 0 0 0-.5395.822c-.144.298-.2546.61-.332.938s-.1272.658-.1494.996a3.061 3.061 0 0 1 .4981-.473c.188-.15.39-.277.606-.382a3.344 3.344 0 0 1 .7056-.258c.2546-.066.5202-.1.797-.1.6032 0 1.1233.116 1.5605.348.4372.227.797.53 1.079.905s.4898.803.6226 1.278a5.386 5.386 0 0 1 .1992 1.453c0 .565-.0802 1.096-.2407 1.594-.155.498-.3902.935-.7056 1.31-.3154.37-.7083.664-1.1787.88-.4648.216-1.0044.324-1.6187.324-.437 0-.8383-.064-1.2036-.19-.3597-.127-.6834-.3-.9712-.515a3.73 3.73 0 0 1-.7553-.78 4.833 4.833 0 0 1-.5396-.963 5.816 5.816 0 0 1-.3154-1.071c-.072-.37-.108-.74-.108-1.112v-.722c0-.553.0332-1.107.0996-1.66.072-.56.191-1.093.357-1.602s.3902-.985.6724-1.428.6364-.836 1.0625-1.162c.4316-.327.9435-.584 1.5356-.772s1.284-.282 2.0752-.282h.1328zm-2.0088 5.445c-.26 0-.5118.042-.7553.125a2.651 2.651 0 0 0-.6807.348 2.565 2.565 0 0 0-.5561.54c-.1605.2-.2878.442-.382.697v.515c0 .53.0637 1.004.191 1.42.1273.4.299.755.5147 1.038s.4648.498.747.647c.2822.144.5782.216.888.216.3597 0 .678-.07.9546-.208s.509-.33.6973-.572c.1937-.244.3376-.534.4316-.872.0996-.343.1495-.714.1495-1.112 0-.354-.0443-.697-.133-1.03-.0885-.338-.224-.637-.4067-.897s-.4123-.468-.69-.623-.6004-.232-.9712-.232zm6.2754 2.084c0-.67.0803-1.284.2408-1.843.166-.565.404-1.05.7138-1.453s.6862-.72 1.129-.946.9436-.34 1.5027-.34c.553 0 1.037.1 1.452.298.42.194.778.476 1.07.847l.075-.98h1.394v8.8c0 .592-.094 1.118-.282 1.577-.182.46-.442.85-.78 1.17-.332.32-.73.564-1.195.73s-.98.25-1.544.25c-.233 0-.4984-.028-.7972-.083s-.6032-.135-.913-.257c-.3043-.116-.6004-.274-.8882-.473-.2822-.2-.5257-.446-.7304-.74l.797-.922c.188.227.3818.418.58.573.1992.16.4012.288.606.382s.4095.16.6142.2c.2048.045.4098.067.6138.067.366 0 .695-.053.988-.158s.543-.26.747-.465c.21-.2.37-.448.482-.747s.166-.642.166-1.03v-.772c-.3.343-.653.606-1.063.788-.404.177-.874.266-1.41.266-.5477 0-1.043-.116-1.4857-.35s-.82-.553-1.129-.963c-.3043-.41-.5395-.9-.7055-1.444s-.249-1.16-.249-1.8v-.174zm1.5357.174c0 .437.0443.852.1328 1.245.094.393.238.74.4316 1.038.1993.298.45.536.7554.713.3044.172.6697.258 1.0957.258.266 0 .504-.03.714-.092.216-.066.407-.157.573-.273a2.219 2.219 0 0 0 .456-.415c.133-.16.25-.338.35-.532v-4.117c-.1-.188-.216-.36-.35-.515s-.285-.287-.456-.398a2.031 2.031 0 0 0-.573-.266c-.2-.066-.443-.1-.697-.1-.432 0-.8028.088-1.1127.265-.3044.177-.556.418-.7554.723-.1937.298-.3375.647-.4316 1.045-.0885.393-.1328.808-.1328 1.246v.174zM112.104 124h-1.535v-10.127l-3.163 1.204v-1.403l4.574-1.76h.124V124zm7.52 0v-7.794h-2.474v-1.187h2.474v-.63c0-.576.083-1.08.25-1.51.172-.437.4-.802.714-1.096.3-.293.68-.514 1.112-.664s.913-.224 1.445-.224c.365 0 .72.03 1.062.09l1.07.233-.183 1.27c-.227-.078-.492-.144-.797-.2-.298-.06-.62-.092-.963-.092-.72.006-1.26.188-1.627.548-.36.36-.54.908-.54 1.644v.63h3.46v1.187h-3.46V124h-1.544zm15.53-4.39c0 .642-.078 1.242-.233 1.8s-.38 1.035-.68 1.444-.67.73-1.113.963c-.437.233-.94.35-1.5.35-.576 0-1.077-.102-1.503-.307-.42-.205-.78-.498-1.08-.88l-.075 1.02h-1.41v-12.75h1.536v4.73c.293-.365.647-.644 1.062-.838s.9-.3 1.453-.3c.576 0 1.085.113 1.527.34s.814.542 1.113.946.525.888.68 1.453c.155.56.233 1.173.233 1.843v.174zm-1.536-.174c0-.438-.044-.853-.133-1.246-.083-.398-.218-.747-.406-1.045-.19-.305-.435-.546-.74-.723s-.678-.265-1.12-.265c-.265 0-.51.036-.73.108-.222.066-.42.163-.598.3-.17.122-.326.27-.465.44-.133.166-.246.35-.34.548v3.926c.1.2.216.385.35.556a2.534 2.534 0 0 0 .473.44c.177.128.376.227.597.3.222.067.465.1.73.1.42 0 .78-.086 1.08-.258.304-.177.55-.415.74-.713s.334-.645.423-1.038.14-.808.14-1.245v-.174zm8.102 4.73c-.63 0-1.212-.108-1.743-.324s-.977-.517-1.354-.904-.67-.847-.88-1.378-.316-1.1-.316-1.735v-.35c0-.725.116-1.372.35-1.942.232-.576.54-1.06.92-1.453.388-.398.825-.703 1.312-.913s.996-.315 1.5-.315c.648 0 1.212.113 1.694.34.487.22.89.53 1.212.93.32.392.56.857.714 1.394s.24 1.118.24 1.743v.69h-6.416c.016.4.094.794.232 1.154.144.36.338.675.58.946.25.266.545.476.888.63s.723.233 1.138.233c.548 0 1.035-.11 1.46-.332s.78-.515 1.062-.88l.938.73c-.15.227-.337.446-.564.656-.222.205-.48.387-.772.548s-.626.288-.996.382c-.37.1-.775.15-1.212.15zm-.2-8.052c-.31 0-.603.058-.88.175-.277.1-.526.276-.747.498-.222.215-.4.484-.565.805-.15.315-.255.68-.315 1.096h4.83v-.117c-.017-.3-.075-.595-.175-.888-.094-.293-.235-.556-.423-.788s-.426-.42-.714-.565c-.282-.144-.62-.216-1.013-.216zm7 1.826l.606-6.026h6.2v1.494h-4.905l-.34 3.22c.238-.138.523-.26.855-.365s.717-.158 1.154-.158c.56 0 1.06.097 1.502.3s.82.468 1.13.822c.3.35.548.772.714 1.27s.25 1.052.25 1.66c0 .576-.077 1.1-.232 1.602s-.4.92-.706 1.28c-.3.354-.702.633-1.178.838-.476.2-1.035.3-1.677.3-.493 0-.958-.07-1.395-.208s-.827-.345-1.17-.622-.617-.625-.838-1.046-.352-.9-.407-1.47h1.46c.094.686.346 1.206.755 1.56.415.355.946.532 1.594.532.365 0 .69-.064.97-.19.282-.133.517-.32.706-.556.193-.244.337-.534.43-.872.1-.338.15-.714.15-1.13 0-.376-.056-.728-.166-1.054s-.26-.61-.465-.847-.457-.434-.756-.573-.642-.207-1.03-.207c-.254 0-.476.02-.664.058-.183.033-.35.083-.498.15s-.29.147-.423.24l-.4.324-1.228-.316zm17.24 1.67c0 .642-.077 1.242-.232 1.8s-.382 1.035-.68 1.444a3.186 3.186 0 0 1-1.112.963c-.437.233-.938.35-1.502.35-.548 0-1.032-.09-1.453-.266-.415-.177-.772-.43-1.07-.763v4.316h-1.535V115.02h1.402l.075.98c.3-.37.66-.653 1.08-.847.426-.2.92-.298 1.478-.298.575 0 1.084.113 1.527.34s.814.542 1.112.946.526.888.68 1.453c.155.56.232 1.173.232 1.843v.174zm-1.535-.174c0-.438-.05-.853-.15-1.246-.094-.398-.243-.747-.448-1.045-.2-.305-.454-.546-.764-.723s-.68-.265-1.112-.265c-.492 0-.907.116-1.245.348-.332.227-.598.52-.797.88v4.325c.2.354.465.645.797.872.332.22.753.332 1.262.332.426 0 .794-.09 1.104-.266.3-.183.564-.426.763-.73s.346-.656.44-1.055c.1-.398.15-.816.15-1.253v-.174zm5.545-4.416l.108 1.328c.326-.465.727-.828 1.203-1.088s1.007-.4 1.594-.406c.47 0 .896.066 1.278.2.388.133.717.34.988.622s.48.642.623 1.08.224.947.224 1.544V124h-1.536v-5.67c0-.4-.044-.736-.133-1.013s-.22-.5-.398-.672-.385-.297-.64-.374-.537-.116-.864-.116c-.514 0-.968.13-1.36.4-.387.254-.697.592-.93 1.013V124h-1.535v-8.98h1.378zm12.8 9.147c-.63 0-1.212-.108-1.744-.324-.525-.216-.976-.517-1.353-.904s-.67-.847-.88-1.378-.315-1.1-.315-1.735v-.35c0-.725.116-1.372.35-1.942.232-.576.54-1.06.92-1.453s.825-.703 1.312-.913.996-.315 1.5-.315c.648 0 1.212.113 1.694.34.487.22.89.53 1.212.93.32.392.558.857.713 1.394.16.537.24 1.118.24 1.743v.69h-6.416c.016.4.094.794.232 1.154.144.36.338.675.58.946.25.266.545.476.888.63s.722.233 1.138.233c.547 0 1.034-.11 1.46-.332s.78-.515 1.063-.88l.938.73c-.15.227-.338.446-.564.656-.222.205-.48.387-.772.548s-.626.288-.997.382c-.37.1-.774.15-1.21.15zm-.2-8.052c-.3 0-.603.058-.88.175-.276.1-.525.276-.747.498-.22.215-.41.484-.564.805-.15.315-.255.68-.316 1.096h4.832v-.117c-.017-.3-.075-.595-.175-.888-.094-.293-.235-.556-.423-.788s-.426-.42-.714-.565c-.282-.144-.62-.216-1.013-.216zm6.682-1.095h4.59v7.653h2.93V124h-7.52v-1.328h3.055v-6.317h-3.055v-1.336zm2.856-2.358c0-.254.075-.467.224-.64.155-.177.387-.266.697-.266s.534.09.69.266c.155.172.233.385.233.64 0 .25-.078.457-.233.623s-.384.25-.69.25-.542-.083-.697-.25c-.15-.166-.224-.374-.224-.623zm8.492 2.358l.108 1.328c.326-.465.727-.828 1.203-1.088s1.007-.4 1.594-.406c.47 0 .896.066 1.278.2.388.133.717.34.988.622s.48.642.623 1.08.224.947.224 1.544V124h-1.536v-5.67c0-.4-.044-.736-.133-1.013s-.22-.5-.398-.672c-.172-.172-.385-.297-.64-.374s-.537-.116-.864-.116c-.514 0-.968.13-1.36.4-.387.254-.697.592-.93 1.013V124h-1.535v-8.98h1.378zm10.674 7.728h5.72V124h-7.68v-1.13l5.363-6.582h-5.288v-1.27h7.305v1.087l-5.42 6.64zm10.16-5.53h1.095c.388 0 .728-.052 1.02-.157.3-.106.548-.25.747-.432a1.772 1.772 0 0 0 .465-.656c.105-.254.158-.534.158-.838 0-.703-.18-1.232-.54-1.586-.36-.36-.885-.54-1.577-.54-.326 0-.625.05-.896.15-.266.094-.496.233-.69.415-.188.183-.335.4-.44.656s-.158.54-.158.855h-1.544c0-.46.09-.89.266-1.295.182-.41.437-.764.763-1.062.327-.305.717-.543 1.17-.714.46-.177.968-.266 1.527-.266.543 0 1.038.075 1.486.224s.833.36 1.154.648.57.644.747 1.07.266.92.266 1.478c0 .232-.036.473-.108.722s-.183.493-.332.73c-.15.232-.344.453-.58.664-.233.204-.512.376-.84.514.393.128.72.294.98.498s.476.435.63.69.27.523.332.806.1.56.1.838c0 .564-.097 1.065-.3 1.502s-.462.808-.806 1.113c-.343.298-.75.528-1.22.69-.465.155-.968.232-1.51.232-.53 0-1.032-.075-1.502-.224s-.87-.368-1.212-.656-.617-.64-.822-1.054c-.2-.415-.298-.888-.298-1.42h1.535c0 .316.053.604.158.864.11.26.266.48.465.664s.44.324.722.423c.288.1.606.15.954.15s.665-.045.947-.133c.282-.094.523-.235.722-.424s.35-.42.456-.697c.11-.282.167-.614.167-.996 0-.376-.064-.7-.19-.97-.122-.277-.296-.506-.523-.69-.222-.183-.493-.318-.814-.407-.315-.088-.664-.133-1.046-.133h-1.095v-1.245zm16.028 2.39c0 .642-.077 1.242-.232 1.8s-.382 1.035-.68 1.444-.67.73-1.112.963c-.437.233-.94.35-1.51.35s-1.076-.102-1.502-.307-.78-.498-1.08-.88l-.075 1.02h-1.41v-12.75h1.536v4.73c.293-.365.647-.644 1.062-.838s.9-.3 1.453-.3c.575 0 1.084.113 1.527.34a3.157 3.157 0 0 1 1.112.946c.3.404.526.888.68 1.453.155.56.232 1.173.232 1.843v.174zm-1.535-.174c0-.438-.045-.853-.133-1.246-.083-.398-.22-.747-.407-1.045-.188-.305-.434-.546-.74-.723s-.677-.265-1.12-.265c-.266 0-.51.036-.73.108-.22.066-.42.163-.597.3s-.327.27-.465.44c-.133.166-.246.35-.34.548v3.926c.1.2.215.385.348.556a2.534 2.534 0 0 0 .473.44c.177.128.377.227.598.3.22.067.465.1.73.1.42 0 .78-.086 1.08-.258.304-.177.55-.415.738-.713.194-.3.335-.645.424-1.038s.14-.808.14-1.245v-.174zm7.437 1.377l.4 1.088 2.74-6.88h1.718l-4.557 10.367c-.105.233-.24.48-.407.74-.16.26-.357.5-.59.722s-.504.407-.814.556-.666.224-1.07.224a1.97 1.97 0 0 1-.241-.016 2.415 2.415 0 0 1-.266-.033l-.25-.042-.19-.04.25-1.254c.04 0 .092.003.158.01l.208.016.207.008.158.01c.2 0 .4-.058.573-.175.177-.116.332-.254.464-.415.14-.16.255-.326.35-.498l.233-.423.614-1.195-3.868-8.558h1.718l2.465 5.793zm8.558 1.827c.548 0 1.03-.047 1.445-.14.415-.1.774-.238 1.08-.415s.567-.385.772-.623c.204-.244.37-.51.498-.797a4.046 4.046 0 0 0 .29-.921 7.48 7.48 0 0 0 .117-.996c-.133.166-.285.323-.457.473-.172.144-.365.27-.58.382s-.457.2-.722.265-.545.092-.855.092c-.598 0-1.115-.117-1.552-.35-.432-.238-.79-.548-1.07-.93s-.5-.813-.623-1.295-.2-.965-.2-1.452c0-.57.077-1.107.232-1.61.16-.51.396-.952.706-1.328.315-.382.706-.683 1.17-.905.47-.227 1.016-.34 1.636-.34.464 0 .882.066 1.253.2.376.128.706.307.988.54.288.227.534.498.74.813s.37.648.498 1.013c.132.36.23.74.3 1.137s.09.79.09 1.187v.556l-.074 1.586c-.05.537-.15 1.057-.3 1.56a6.068 6.068 0 0 1-.614 1.428c-.266.443-.612.83-1.038 1.162s-.943.595-1.552.79-1.33.3-2.167.3h-.157v-1.37h.157zm1.835-3.95c.26 0 .512-.042.755-.125.25-.09.476-.2.68-.365a2.957 2.957 0 0 0 .556-.556c.166-.216.296-.454.4-.714v-.498c0-.537-.064-1.016-.19-1.436s-.3-.775-.506-1.063c-.2-.293-.457-.517-.74-.672s-.573-.233-.888-.233c-.36 0-.678.072-.955.216a2.085 2.085 0 0 0-.705.598c-.188.25-.332.548-.432.896-.1.343-.15.714-.15 1.113a4.155 4.155 0 0 0 .133 1.046c.088.337.22.64.398.904.183.266.41.482.68.648.276.16.6.24.97.24zm6.292.738c0-.647.094-1.248.282-1.8.188-.56.457-1.043.805-1.453.354-.41.783-.73 1.287-.963s1.07-.356 1.7-.356c.637 0 1.207.12 1.7.356.5.233.938.554 1.287.963s.625.894.814 1.453c.188.553.282 1.154.282 1.8v.183c0 .647-.094 1.248-.282 1.8s-.46 1.035-.814 1.444-.775.73-1.278.963-1.07.35-1.702.35c-.636 0-1.21-.116-1.718-.35s-.933-.553-1.287-.963c-.348-.41-.617-.9-.805-1.444s-.282-1.154-.282-1.8v-.183zm1.535.183c0 .443.053.866.158 1.27.105.398.263.75.473 1.054.216.304.485.545.805.722s.695.266 1.12.266c.42 0 .79-.09 1.104-.266.32-.177.587-.418.797-.722.216-.304.376-.656.48-1.054.106-.404.158-.827.158-1.27v-.183c0-.437-.055-.855-.166-1.253-.105-.404-.266-.758-.48-1.063s-.476-.545-.797-.722c-.316-.182-.686-.274-1.113-.274s-.796.092-1.112.274c-.315.177-.58.418-.797.722-.2.305-.368.66-.473 1.063-.105.398-.158.816-.158 1.253v.183zm9.654-1.67l.606-6.026h6.2v1.494h-4.906l-.34 3.22c.238-.138.523-.26.855-.365s.716-.158 1.154-.158c.56 0 1.06.097 1.502.3s.82.468 1.13.822c.3.35.548.772.714 1.27s.25 1.052.25 1.66c0 .576-.078 1.1-.233 1.602s-.4.92-.705 1.28c-.3.354-.703.633-1.18.838-.476.2-1.035.3-1.677.3-.492 0-.957-.07-1.394-.208s-.827-.345-1.17-.622c-.337-.277-.617-.625-.838-1.046s-.35-.9-.407-1.47h1.46c.094.686.346 1.206.756 1.56.415.355.946.532 1.593.532.366 0 .69-.064.972-.19.282-.133.517-.32.705-.556.194-.244.338-.534.432-.872s.15-.714.15-1.13c0-.376-.055-.728-.166-1.054-.105-.327-.26-.61-.465-.847s-.456-.434-.755-.573-.642-.207-1.03-.207c-.255 0-.476.02-.664.058-.183.033-.35.083-.498.15s-.29.147-.424.24l-.398.324-1.23-.316zm15.888 2h1.685v1.253h-1.685V124h-1.536v-2.806h-5.51v-.904l5.412-8.376h1.635v8.027zm-5.346 0h3.8v-5.985l-.25.465-3.56 5.52zm11.62 4.06v-7.794h-2.473v-1.187h2.473v-.63c0-.576.083-1.08.25-1.51.172-.437.4-.802.714-1.096.3-.293.68-.514 1.113-.664s.913-.224 1.444-.224c.365 0 .72.03 1.062.09l1.07.233-.182 1.27c-.227-.078-.493-.144-.797-.2-.3-.06-.62-.092-.963-.092-.72.006-1.262.188-1.627.548s-.54.908-.54 1.644v.63h3.462v1.187h-3.462V124h-1.544zm13.746-1.237c-.298.443-.672.79-1.12 1.038-.448.243-.966.365-1.552.365-.47 0-.897-.072-1.28-.216-.382-.15-.708-.38-.98-.69s-.482-.703-.63-1.178c-.144-.482-.216-1.057-.216-1.727v-5.337h1.536v5.354c0 .487.038.89.116 1.21s.194.58.35.772.343.32.564.4c.227.077.487.116.78.116.626 0 1.13-.127 1.51-.382s.675-.597.863-1.03v-6.44h1.544V124h-1.394l-.092-1.237zm4.1-3.328c0-.67.08-1.284.24-1.843.16-.565.395-1.05.705-1.453s.69-.72 1.138-.946.968-.34 1.543-.34c.532 0 1 .09 1.403.273.4.178.764.438 1.063.78l.066-.888h1.41v12.434h-1.535v-4.266c-.3.315-.648.558-1.046.73-.4.166-.858.25-1.378.25-.57 0-1.08-.116-1.527-.35s-.82-.553-1.13-.963-.548-.9-.714-1.444-.24-1.16-.24-1.8v-.174zm1.536.174c0 .437.047.855.14 1.253s.25.75.448 1.055.45.547.755.73c.3.177.678.266 1.104.266.493 0 .905-.11 1.237-.332s.603-.5.814-.864v-4.432c-.105-.172-.227-.327-.366-.465-.132-.144-.285-.27-.456-.374s-.35-.185-.556-.24c-.2-.06-.418-.092-.656-.092-.426 0-.794.092-1.104.274s-.567.43-.772.74c-.2.304-.35.656-.448 1.054s-.14.816-.14 1.254v.174zm14.617-7.703v1.378h-.132c-.5 0-.966.052-1.37.157s-.75.25-1.054.432-.568.4-.79.656a3.657 3.657 0 0 0-.539.822c-.144.298-.255.61-.332.938s-.128.658-.15.996c.144-.172.3-.33.498-.473.188-.15.4-.277.606-.382.22-.11.457-.197.706-.258.254-.066.52-.1.797-.1.603 0 1.123.116 1.56.348.437.227.797.53 1.08.905s.5.803.623 1.278.2.96.2 1.453c0 .565-.08 1.096-.24 1.594-.155.498-.4.935-.705 1.31-.316.37-.71.664-1.18.88s-1.004.324-1.62.324c-.437 0-.838-.064-1.203-.19s-.684-.3-.97-.515-.54-.48-.756-.78-.396-.62-.54-.963-.244-.7-.316-1.07-.108-.74-.108-1.112v-.722c0-.553.033-1.107.1-1.66.072-.56.19-1.093.357-1.602s.4-.985.672-1.428.637-.836 1.063-1.162.943-.584 1.535-.772 1.284-.282 2.076-.282h.132zm-2.008 5.445c-.26 0-.512.042-.756.125a2.65 2.65 0 0 0-.68.348 2.567 2.567 0 0 0-.557.54c-.16.2-.287.442-.38.697v.515c0 .53.063 1.004.2 1.42.128.4.3.755.515 1.038s.465.498.747.647c.282.144.578.216.888.216.36 0 .678-.07.955-.208s.51-.33.697-.572c.194-.244.338-.534.432-.872.1-.343.15-.714.15-1.112 0-.354-.044-.697-.133-1.03-.088-.338-.224-.637-.406-.897a2.077 2.077 0 0 0-.689-.623c-.277-.154-.6-.232-.97-.232zm8.35-.133h1.096c.387 0 .728-.052 1.02-.157.3-.106.548-.25.747-.432a1.772 1.772 0 0 0 .465-.656c.105-.254.157-.534.157-.838 0-.703-.18-1.232-.54-1.586-.36-.36-.886-.54-1.577-.54-.327 0-.626.05-.897.15-.265.094-.495.233-.69.415-.188.183-.334.4-.44.656s-.157.54-.157.855h-1.544c0-.46.088-.89.265-1.295.183-.41.438-.764.764-1.062.327-.305.717-.543 1.17-.714.46-.177.97-.266 1.528-.266.542 0 1.037.075 1.486.224s.832.36 1.153.648.57.644.747 1.07.266.92.266 1.478c0 .232-.036.473-.108.722s-.182.493-.332.73c-.15.232-.343.453-.58.664-.232.204-.512.376-.838.514.393.128.72.294.98.498.266.205.476.435.63.69.16.255.27.523.332.806.067.282.1.56.1.838 0 .564-.097 1.065-.29 1.502s-.462.808-.805 1.113c-.343.298-.75.528-1.22.69-.465.155-.97.232-1.51.232-.53 0-1.032-.075-1.502-.224-.465-.15-.87-.368-1.212-.656s-.617-.64-.822-1.054c-.2-.415-.3-.888-.3-1.42h1.536c0 .316.052.604.157.864.11.26.266.48.465.664s.44.324.722.423c.288.1.606.15.955.15s.664-.045.946-.133c.283-.094.523-.235.723-.424s.35-.42.456-.697c.11-.282.166-.614.166-.996 0-.376-.064-.7-.19-.97-.122-.277-.296-.506-.523-.69-.22-.183-.492-.318-.813-.407-.316-.088-.664-.133-1.046-.133h-1.096v-1.245zm9.123-2.2l.04.846c.183-.315.42-.56.714-.74.3-.177.66-.268 1.08-.273.825 0 1.375.32 1.652.962a2.042 2.042 0 0 1 .697-.689c.294-.177.648-.268 1.063-.273.658 0 1.165.202 1.52.605s.53 1.016.53 1.835V124h-1.46v-6.724c0-.752-.346-1.126-1.037-1.12-.183 0-.34.025-.474.074s-.243.12-.332.208c-.088.083-.157.183-.207.3a1.264 1.264 0 0 0-.1.348V124h-1.46v-6.732c0-.36-.08-.636-.24-.83s-.415-.288-.764-.282c-.32 0-.57.063-.747.19s-.307.296-.4.506V124h-1.46v-8.98h1.378z" class="J"/><path d="M326.09 64.8768c-.94-.1373-2.13-.597-3.642-1.406-.22-.1176-.308-.4043-.2-.626s.405-.3083.627-.1896c1.395.7468 2.52 1.1862 3.34 1.306.535.0783.92.0185 1.145-.1783.25-.2206.23-.6105.163-1.3393-.077-.8532-.173-1.9153.366-3.136.814-1.8448 2.842-3.599 4.978-3.269 1.357.2 2.657 1.2244 2.955 2.601.254 1.172-.11 2.7782-1.36 3.227-.83.296-1.775-.0437-2.42-.5935-.193-.1605-.22-.4625-.056-.6556s.465-.2153.656-.0485c.008.0067.808.678 1.507.4267.793-.2846.92-1.4606.77-2.1605-.217-1.0032-1.213-1.731-2.192-1.8827-1.718-.2652-3.345 1.267-3.99 2.7285-.442 1.002-.362 1.893-.29 2.68.074.811.143 1.5772-.475 2.1183-.51.4513-1.24.4958-1.887.3985z" class="C D E H"/><path d="M335.553 58.8622c.204.944.02 2.1192-.7 2.8135.95-.6234 1.204-1.9898.977-3.0355-.298-1.3766-1.598-2.4-2.955-2.6-1.226-.1893-2.438.3433-3.358 1.1252 2.1-1.494 5.425-1.1166 6.036 1.698zm-1.277 2.0818c-.5.5818-1.4.2824-1.904-.1522a.462.462 0 0 0-.202-.1c-.074-.016-.152-.0136-.226.0076a.467.467 0 0 1 .37-.2386.464.464 0 0 1 .337.109c.408.3608 1.107.6507 1.626.3744zm-11.916 1.7657c.065-.0555.287-.1665.426-.1018l.457.2225c.915.4517 2.36 1.165 3.4 1.165.925 0 1.008-.4625.88-1.6835l.057.2314c.178.6984.445 1.748-.936 1.748-1.508 0-3.862-1.3056-4.283-1.5817z" class="B F"/><path d="M313.36 62.2192c.676 0 1.215-.6026 1.148-1.2657-.1-1.175.345-2.4455 1.22-3.6702.797-1.1146 1.65-1.7252.994-2.4456s-2.138.0726-2.875 1.1008c-1.216 1.7005-1.798 3.4985-1.64 5.248.06.5822.478 1.0326 1.153 1.0326z" class="C D E H"/><path d="M312.732 60.5946c-.008-2.077 1.658-5.1367 3.61-5.997-2.405-.3885-4.532 4.3197-4.12 6.5078.134-.2178.365-.4306.51-.5108z" class="B F"/><path d="M320.248 67.7605c.093-1.61.507-2.857.873-3.826s.784-2.677-.788-3.0714c-2.247-.564-3.483 4.7013-3.576 6.3074-.054.945.68 2.041 1.636 2.096.878.0427 1.802-.5882 1.855-1.506z" class="C D E H"/><path d="M316.735 67.1685c.953-.1295 2.738-.1295 3.487.63l.03-.2783c-.78-.6837-2.556-.73-3.478-.6005-.005.06-.035.1875-.04.2498zm.295-1.656c.883.8193 2.014 1.28 3.293 1.4522l.046-.3145c-1.27-.1643-2.372-.6956-3.256-1.4985-.037.1-.067.2824-.083.3608z" class="B F"/><path d="M321.75 67.7605c-.092-1.61-.506-2.857-.872-3.826s-.785-2.677.787-3.0714c2.248-.564 3.484 4.7013 3.576 6.3074.055.945-.68 2.041-1.635 2.096-.878.0427-1.803-.5882-1.856-1.506z" class="C D E H"/><path d="M325.265 67.1685c-.953-.1295-2.738-.1295-3.488.63l-.03-.2783c.78-.6837 2.556-.73 3.478-.6005.005.06.034.1875.04.2498zm-.295-1.656c-.884.8193-2.015 1.28-3.293 1.4522l-.047-.3145c1.27-.1643 2.372-.6956 3.256-1.4985.037.1.067.2824.084.3608z" class="B F"/><path d="M328.64 62.2192c-.675 0-1.214-.6026-1.148-1.2657.1-1.175-.344-2.4455-1.22-3.6702-.796-1.1146-1.65-1.7252-.993-2.4456s2.138.0726 2.875 1.1008c1.215 1.7005 1.798 3.4985 1.64 5.248-.06.5822-.478 1.0326-1.153 1.0326z" class="C D E H"/><path d="M329.268 60.5946c.007-2.077-1.658-5.1367-3.6-5.997 2.405-.3885 4.533 4.3197 4.12 6.5078-.133-.2178-.364-.4306-.5-.5108z" class="B F"/><path d="M341.963 37.8935c2.056 1.887 1.227 5.722-.168 7.9025-1.988 3.108-6.54 5.0643-8.87 3.4108-2.434-1.727-2.116-7.158.725-9.9774 2.122-2.105 6.188-3.2873 8.313-1.336z" class="C D E I"/><path d="M339.564 40.116c1.22 1.2615.557 3.6386-.4 4.9558-1.365 1.8768-4.295 2.9357-5.697 1.8104-1.464-1.1753-1.062-4.5736.828-6.2378 1.4-1.2425 4.007-1.833 5.27-.5284z" fill="#ffc9a1"/><path d="M341.795 45.7965c-1.123 1.7547-3.61 3.7595-6.412 4.0093 1.967-.4625 4.8-2.4763 5.673-3.8243 1.395-2.1806 2.134-6.27.168-7.9025-.6-.4975-2.123-1.2047-4.213-.8347 2.553-.7863 4.12-.1134 4.953.6497 2.054 1.8868 1.226 5.722-.17 7.9025z" class="B G"/><path d="M300.036 37.8935c-2.056 1.887-1.227 5.722.168 7.9025 1.988 3.108 6.54 5.0643 8.87 3.4108 2.434-1.727 2.116-7.158-.725-9.9774-2.122-2.105-6.188-3.2873-8.313-1.336z" class="C D E I"/><path d="M302.435 40.116c-1.22 1.2615-.557 3.6386.4 4.9558 1.365 1.8768 4.296 2.9357 5.697 1.8104 1.464-1.1753 1.062-4.5736-.828-6.2378-1.4-1.2425-4.007-1.833-5.27-.5284z" fill="#ffc9a1"/><path d="M300.204 45.7965c1.123 1.7547 3.61 3.7595 6.412 4.0093-1.967-.4625-4.8-2.4763-5.673-3.8243-1.395-2.1806-2.134-6.27-.168-7.9025.6-.4975 2.123-1.2047 4.213-.8347-2.553-.7863-4.12-.1134-4.953.6497-2.054 1.8868-1.226 5.722.17 7.9025z" class="B G"/><path d="M321 51.138c2.85 0 4.07 2.4975 4.8 4.55s1.073 4.07 1.073 5.402c0 2.812-2.566 5.651-5.883 5.6795-3.248.028-5.883-2.8675-5.883-5.6795 0-1.332.327-3.3578 1.073-5.402.74-2.0535 1.96-4.55 4.8-4.55z" class="C D E H"/><path d="M321 66.7704c-3.25.0295-6.105-2.9045-5.883-6.2345.185 2.738 2.685 5.337 5.883 5.3095s5.698-2.5715 5.883-5.3095c.222 3.33-2.633 6.205-5.883 6.2345z" class="B F"/><path d="M321 53.432c1.924 0 2.96 1.258 3.22 2.368.638 2.7347 1.184 5.07.074 6.475s-2.496 1.517-3.293 1.517c-.88 0-2.183-.11-3.293-1.517s-.6-3.586.074-6.475c.26-1.1 1.295-2.368 3.22-2.368z" class="C D E I"/><path d="M321 63.792c-2.516 0-4.144-1.74-3.94-3.996.074 2.1275 1.776 3.515 3.94 3.515s3.866-1.3875 3.94-3.515c.204 2.257-1.424 3.996-3.94 3.996z" class="B G"/><use xlink:href="#B" class="H"/><use xlink:href="#B" class="C D E K M"/><path d="M327.523 60.6776c.08-1.3842-.484-2.4157-.595-2.69.48 1.3727.01 3.1227.066 4.3807.044 1.0064.965 2.7927.875 3.5058s-5.39.5346-5.9.3885c-.422-.1206-.486-.6377-.584-.8973v.9454a.583.583 0 0 0 .584.5504c3.123-.041 6 .2012 6.363-.6204.228-.5157-.238-.7263-.462-2.0365-.216-1.2693-.453-1.693-.346-3.5256z" class="B F"/><use xlink:href="#C" class="H"/><use xlink:href="#C" class="C D E K M"/><path d="M314.477 60.6776c-.08-1.3842.483-2.4157.594-2.69-.48 1.3727-.01 3.1227-.065 4.3807-.045 1.0064-.965 2.7927-.876 3.5058s5.4.5346 5.902.3885c.422-.1206.486-.6377.584-.8973v.9454a.583.583 0 0 1-.584.5504c-3.124-.041-6 .2012-6.363-.6204-.228-.5157.237-.7263.46-2.0365.217-1.2693.453-1.693.347-3.5256z" class="B F"/><path d="M322.836 59.4166l-1.42 2.442c.037-1.9703.278-4.7823.67-5.5408.094-.1807 3.025.2035 2.997.3608s-.416 1.1377-.666 1.3042-1.526-.0832-1.58.0925.555.7493.5.8695-.232 0-.5.4718z" class="C D"/><path d="M322.804 58.982c.065-.074.2-.1228.18-.185-.07-.222-.606-.48-.375-.8972.17-.3053 1.37-.0278 1.62-.1943.24-.1592.553-.9146.6-1.13.158.04.25.0754.246.1042-.027.1572-.416 1.1377-.666 1.3042s-1.526-.0832-1.58.0925.555.7493.5.8695c-.02.04-.052.054-.098.0722-.272.1074-.396.3902-.532.6307l-1.3 2.21.014-.5357c.366-.6127.746-1.6363 1.374-2.34zm-3.608 0c-.066-.074-.2-.1228-.18-.185.07-.222.606-.48.375-.8972-.17-.3053-1.37-.0278-1.62-.1943-.24-.1592-.553-.9146-.6-1.13-.157.04-.25.0754-.246.1042.027.1572.416 1.1377.666 1.3042s1.526-.0832 1.58.0925-.555.7493-.5.8695c.02.04.052.054.098.0722.272.1074.396.3902.532.6307l1.3 2.21-.014-.5357c-.366-.6127-.745-1.6363-1.373-2.34z" fill-opacity=".2" class="B"/><g class="C"><path d="M319.163 59.4166l1.42 2.442c-.037-1.9703-.277-4.7823-.67-5.5408-.094-.1807-3.025.2035-2.997.3608s.416 1.1377.666 1.3042 1.526-.0832 1.58.0925-.555.7493-.5.8695.232 0 .5.4718z" class="D"/><g stroke-width=".1295"><circle cx="320.038" cy="62.5341" r=".185"/><circle cx="319.982" cy="63.57" r=".185"/><circle cx="319.89" cy="64.6801" r=".185"/></g></g><path d="M328.308 56.133c-2.134.8364-5.014 1.4615-7.308 1.4615s-4.798-.489-7.307-1.4615l-.426.6845c2.627 1.0545 5.088 1.59 7.733 1.59s5.106-.5365 7.733-1.59l-.425-.6845z" class="B L"/><path d="M325.954 21.3313c7.365 2.39 12.943 7.4578 12.917 16.8384-.02 7.1918-6.476 18.33-17.88 18.4293-11 .096-17.883-11.03-17.863-18.4293.024-9.0362 7.994-18.3324 17.87-19.0273 10.69-.7513 14.896 5.422 4.954 2.189z" class="C D H K"/><path d="M321.628 19.6c-12.1.8498-20.85 14.2672-15.995 25.143 1.26-1.302 2.796-1.672 3.285-1.8345.147.1586.326.327.4.403-1.506.47-3.255 1.4875-4.008 2.9015-1.4-2.7306-2.164-5.5974-2.157-8.0536.025-9.0363 7.996-18.3335 17.873-19.0286 1.954-.1375 2.5.3365.612.4692zm17.215 18.5607c-.006 2.3632-.705 5.1524-2.045 7.836-1.386-1.8988-3.87-2.6573-4.124-2.6573l.37-.4533c.434.1018 2.38.5164 3.464 1.9647 1.097-2.4447 1.6-4.7204 1.607-6.86.027-9.6984-6.542-14.5195-12.16-16.6688 7.366 2.3898 12.916 7.4588 12.9 16.8396z" class="B F"/><path d="M315.913 26.2646c-5.495 0-12.303 11.6273-6.725 16.9923-10.647 3.33 0 14.4115 11.812 14.4115s22.46-11.0815 11.812-14.4115c5.578-5.365-1.23-16.9923-6.724-16.9923-2.34 0-3.617 1.0823-5.088 2.1553-1.47-1.073-2.747-2.1553-5.087-2.1553z" fill="#ffcd98" class="C D"/><g class="B"><path d="M334.858 37.6144c-.3-5.708-4.902-11.344-8.908-11.344-2.5 0-4 1.5196-4.95 2.1495-.76-.519-2.452-2.1495-4.966-2.1495-4.728 0-8.845 6.904-8.92 11.5202-.416-4.9677 3.397-12.4232 8.945-12.4232 2.886 0 4.422 1.3875 4.94 1.96.518-.5735 2.053-1.96 4.94-1.96 5.506 0 9.315 7.0578 8.92 12.247z" class="F"/><path d="M307.132 37.4367c-.132 2.173.444 4.2553 2.06 5.81-.192.0604-.378.1417-.557.207.413-.133.807-.2272 1.264-.3088-1.564-1.5044-2.47-3.5477-2.768-5.7094zm-1.882 8.4968c-2.515 4.5373 6.185 11.7258 15.75 11.7258s18.373-7.2677 15.72-11.8004c1.764 4.146-6.642 11.1067-15.72 11.1067-9.024 0-17.384-6.878-15.75-11.032zm28.154-2.473l-1.304-.3145c1.578-1.5183 2.486-3.5855 2.776-5.7694.146 2.1945-.426 4.3-2.058 5.87l.586.2128z" class="G"/></g><circle cx="318.928" cy="61.2824" r="2.257" transform="rotate(78.3604 318.928 61.2824)" fill="#77fff1" fill-opacity=".75"/><path d="M319.847 63.0827c.907-.8907 1.132-3.0795-.248-3.6762 1.58.477 1.784 2.8814.248 3.6762z" fill="#fff" fill-opacity=".75"/><path d="M319.518 63.4608c-1.172.1682-2.287-.604-2.53-1.779s.477-2.3252 1.62-2.634l-.136.024c-1.22.2515-2.007 1.445-1.756 2.666s1.445 2.0068 2.666 1.7553l.135-.032z" class="B G"/><use xlink:href="#D" fill="#fbdd11"/><path d="M315.6 62.593l-.246-1.196-.1.0224.246 1.196.1-.0224zm-.445.0897l-.246-1.196-.1.0224.247 1.196.108-.0224zm-.68-1.1063l.246 1.196-.108.0224-.247-1.196.1-.0224zm-.19 1.2854l-.246-1.1958-.1.0223.247 1.196.108-.0224zm-.68-1.1063l.247 1.196-.1.0224-.246-1.196.108-.0224zm-.188 1.2845l-.247-1.196-.108.0224.246 1.196.1-.0224zm-.68-1.1053l.246 1.196-.1.0224-.246-1.196.1-.0224zm-.19 1.2855l-.246-1.196-.1.0224.246 1.196.1-.0224zm-.68-1.1064l.246 1.196-.1.0224-.246-1.196.1-.0224zm-.19 1.2855l-.246-1.196-.1.0224.247 1.196.108-.0224z" fill="#d8b400"/><path d="M316.106 61.5236l.08.3805-.4.082c-.183-.0948-.38-.2427-.598-.198l-3.36.6924a.389.389 0 0 0-.302.4589l.1.4787a.39.39 0 0 1-.309-.3034l-.104-.5073a.389.389 0 0 1 .302-.4589l3.597-.741c.217-.0448.414.103.598.198l.398-.082z" class="B F"/><use xlink:href="#D" class="C D"/><use xlink:href="#E" fill="#666" class="N"/><path d="M319.612 64.1436c-1.56.2713-3.063-.744-3.384-2.3048s.658-3.0875 2.197-3.4544l-.1.0172c-1.6.3278-2.615 1.8834-2.287 3.4745s1.883 2.6153 3.474 2.2875l.1-.02zm-.14-.671l.1-.0168a2.259 2.259 0 0 0 1.756-2.666c-.25-1.22-1.446-2.0067-2.666-1.7552l-.1.0205c1.2-.1953 2.33.5815 2.575 1.772s-.496 2.355-1.665 2.6454z" fill-opacity=".3" class="B"/><path d="M318.244 58.4214c1.56-.2713 3.062.744 3.384 2.3048s-.658 3.0874-2.198 3.4544l.1-.0173c1.6-.3277 2.616-1.8833 2.288-3.4744s-1.884-2.6153-3.475-2.2876l-.1.02zm1.048 5.0884c-1.188.1953-2.33-.5816-2.575-1.772s.496-2.355 1.665-2.6455l-.1.017c-1.22.2515-2.006 1.445-1.755 2.666s1.445 2.0067 2.666 1.7552l.1-.0204z" fill-opacity=".25" fill="#fff"/><g class="C D"><use xlink:href="#E"/><path d="M319.335 69.786c.592 0 1.167-.4366 1.234-1.0386.168-1.52-1.746-1.6592-2.788-1.682-1.056-.0232-2.85.177-3.164 1.337-.274 1.0137.675 1.3838 1.35 1.3838s.906-.2248 1.72-.2248c.71 0 1.055.2248 1.647.2248z" class="E I"/></g><path d="M319.316 69.379c-.592 0-.936-.2248-1.647-.2248-.813 0-1.045.2248-1.72.2248-.525 0-1.216-.2238-1.368-.8002-.125.8805.752 1.2072 1.387 1.2072.675 0 .906-.2248 1.72-.2248.71 0 1.055.2248 1.647.2248.793 0 1.35-.6318 1.22-1.4848-.055.62-.63 1.0778-1.238 1.0778z" class="B G"/><path d="M322.665 69.786c-.592 0-1.167-.4366-1.234-1.0386-.17-1.52 1.745-1.6592 2.787-1.682 1.057-.0232 2.85.177 3.164 1.337.275 1.0137-.675 1.3838-1.35 1.3838s-.907-.2248-1.72-.2248c-.71 0-1.055.2248-1.647.2248z" class="C D E I"/><path d="M322.683 69.379c.592 0 .936-.2248 1.647-.2248.814 0 1.045.2248 1.72.2248.525 0 1.217-.2238 1.37-.8002.124.8805-.753 1.2072-1.387 1.2072-.676 0-.907-.2248-1.72-.2248-.71 0-1.055.2248-1.647.2248-.793 0-1.35-.6318-1.22-1.4848.055.62.63 1.0778 1.238 1.0778z" class="B G"/><path d="M313.625 64.308c1.052.001 1.72-1.26 1.084-2.1324.295-.8365-.334-1.7648-1.233-1.7863-1.036-.0247-1.635 1.0823-1.526 2.02.1.8753.694 1.899 1.675 1.8997z" class="C D E I"/><path d="M311.95 62.408c.125 1.0834 1.006 2.3457 2.32 1.7353-1.273-.163-2.164-2.3218-1.537-3.549-.1.07-.257.1542-.51.5108-.227.402-.327.8547-.27 1.303z" class="B G"/><path d="M328.374 64.308c-1.05.001-1.72-1.26-1.084-2.1324-.294-.8365.335-1.7648 1.233-1.7863 1.036-.0247 1.635 1.0823 1.527 2.02-.102.8753-.695 1.899-1.676 1.8997z" class="C D E I"/><g class="B"><path d="M330.05 62.408c-.125 1.0834-1.006 2.3457-2.32 1.7353 1.273-.163 2.164-2.3218 1.538-3.549.1.07.256.1542.5.5108.227.402.327.8547.27 1.303z" class="G"/><path d="M331.883 47.0035c.385.2702.476.9068.14 1.2503-.073.074-.236.0193-.216-.0963.06-.3336-.012-.6868-.114-1.0067-.036-.1.088-.2154.2-.1464v-.001zM310 49.612c-.326.3387-.294.98.103 1.2537.086.0587.235-.026.193-.1355-.12-.3164-.12-.6766-.08-1.0102.014-.1146-.127-.1945-.215-.1072L310 49.612z" class="L"/></g><path d="M330.957 46.8788c.42.442.47 1.187.127 1.688-.105.1585-.34.039-.3-.138s.067-.365.066-.55c-3.648.5596-7.3 1.029-10.976 1.4446l-8.64.872c.027.2005.087.3955.163.5826.064.165-.152.3042-.276.1777-.42-.4382-.49-1.182-.148-1.686.11-.1576.32-.0355.3.134-.03.146-.05.2945-.056.4434 2.817-.4835 5.735-.8084 8.592-1.142l11.006-1.18c-.03-.1618-.08-.317-.137-.4717-.06-.165.155-.2994.278-.174h0z" fill="#634b37"/><path d="M332.4 33.609h-22.8c-.906 0-1.8.2-2.63.5577l-3.914 1.7387a.372.372 0 0 0-.22.3441l.008.4357a.351.351 0 0 0 .453.3306l4.4-1.3407a3.736 3.736 0 0 1 .502-.1154c-.2 2.6413 1.4 7.6324 6.135 7.6324 4.82 0 6.67-4.6467 6.464-7.6776h.406c-.222 2.6292 1.37 7.6776 6.13 7.6776 4.795 0 6.65-4.6 6.467-7.6318.168.0267.335.065.498.1148l4.4 1.3407a.352.352 0 0 0 .454-.3306l.007-.4357a.372.372 0 0 0-.22-.3441l-3.914-1.7387c-.828-.3677-1.723-.5577-2.63-.5577z" class="B N"/><path d="M331.354 40.5314c-3.667 2.9816-8.924 0-8.924-4.554 1.732 3.0526 5.45 4.8763 8.924 4.554zm-13 0c-3.668 2.9816-8.924 0-8.924-4.554 1.732 3.0526 5.448 4.8763 8.924 4.554z" fill="#fff"/><path d="M317.022 42.8314c0 1.4125 1.83 3.1265 4 3.108 2.002-.0176 3.954-1.7122 3.954-3.104 0-2.8143-7.955-2.857-7.955-.004z" class="B G"/><path d="M316.967 42.4987c0 1.4125 1.854 3.1265 4.056 3.108 2.03-.0176 4-1.7122 4-3.104 0-1.1198-2.336-2.1048-4-2.0905-1.554.0144-4.056.7614-4.056 2.0864z" fill="#7f6145"/><g class="B"><path d="M316.996 42.2536c.773 1.0128 2.307 1.8674 4.03 1.854 1.595-.0127 3.162-.8718 3.96-1.8787.03.09.046.1812.046.2734 0 1.3918-1.98 3.0864-4 3.104-2.202.0185-4.056-1.6956-4.056-3.108a1.047 1.047 0 0 1 .029-.2448z" fill-opacity=".2"/><path d="M337.196 30.261a2.602 2.602 0 0 1-.86.0339l-3.97-.4094c-7.632-.6232-15.31-.303-22.865.953a93.29 93.29 0 0 0-4.014.7587 2.521 2.521 0 0 1-.986.0164c.734-1.7798 1.742-3.4787 2.972-5.0186 8.574-1.5522 17.362-1.9336 26.04-1.1555 1.517 1.3316 2.773 2.9267 3.685 4.8216z" class="L"/></g><g class="C E"><path d="M336.336 29.3697c-10.262-1.2803-20.732-.8416-30.85 1.3022-1.063.2248-2.077-.2302-2.272-1.043l-.345-1.4618c-.195-.812.55-1.6854 1.67-1.9227 10.607-2.2486 21.588-2.7093 32.347-1.3688 1.147.1426 1.976.9516 1.854 1.778l-.215 1.4866c-.123.8266-1.103 1.3647-2.2 1.2296z" fill="#232323" stroke-width=".1967"/><path d="M333.893 24.55c-8.773-.8214-17.618-.4523-26.292 1.0975 1.074-2.426 2.25-4.8334 3.526-7.2224.856-1.613 2.773-2.767 4.97-2.9446 3.332-.2718 6.674-.387 10.028-.3452 1.163.0142 2.23.532 2.776 1.3375 1.808 2.6502 3.472 5.3426 4.99 8.0772z" fill="#111" stroke-width=".1344"/></g><path d="M336.336 29.3694c-10.262-1.279-20.733-.8406-30.85 1.3024-1.063.2247-2.077-.2303-2.272-1.043l-.345-1.462c-.055-.235-.036-.4813.054-.7053l.315 1.3332c.194.8127 1.21 1.2677 2.272 1.043 10.116-2.1443 20.588-2.5805 30.85-1.3024 1.087.135 2.067-.403 2.2-1.2296l.16-1.1193c.042.152.052.311.03.467l-.215 1.4865c-.122.8266-1.103 1.3646-2.2 1.2295z" class="B"/><path d="M25.0918 150v-9.242h2.7485c.381.004.7533.055 1.1172.152s.6877.24.9712.438.51.453.6792.762.2518.68.2476 1.11c-.0043.24-.0445.46-.1206.66a1.82 1.82 0 0 1-.3047.539c-.127.157-.2772.295-.4507.413s-.3576.22-.5523.305c.2455.072.4698.175.673.31a2.077 2.077 0 0 1 .5332.482c.148.186.2624.398.3428.635s.127.493.127.768c.0043.432-.0783.812-.2475 1.143s-.3957.607-.6792.83-.6115.39-.984.508a3.851 3.851 0 0 1-1.1426.184h-2.958zm1.1807-4.323v3.326h1.81c.2455-.004.4782-.044.6983-.12.22-.08.4147-.19.584-.33s.3025-.31.4-.514.1523-.434.1523-.692c.0042-.263-.0402-.495-.1333-.7s-.2137-.374-.3745-.514-.349-.254-.565-.33-.4486-.118-.6983-.127h-1.8725zm0-.977h1.6377a2.414 2.414 0 0 0 .6474-.102c.2116-.068.4-.163.565-.286s.2983-.28.4-.463.1523-.393.1523-.635c0-.258-.0508-.478-.1523-.66s-.2307-.33-.4-.444c-.165-.12-.3576-.205-.5777-.26a2.895 2.895 0 0 0-.6665-.089h-1.606v2.94zm8.0107.114h.838c.2962 0 .5565-.04.7808-.12s.419-.2.5712-.33.275-.307.3555-.5.1206-.41.1206-.64c0-.538-.1375-.942-.4126-1.213s-.677-.412-1.206-.412c-.2497 0-.4782.038-.6856.114s-.3787.178-.5268.317-.256.307-.3365.502-.1206.412-.1206.654h-1.1806c0-.352.0677-.682.203-.99s.3343-.584.584-.812.548-.415.895-.546.7406-.203 1.168-.203c.4147 0 .7934.057 1.1362.17s.637.275.8823.495.436.493.5713.82.203.703.203 1.13c0 .178-.0275.362-.0825.552s-.1396.377-.254.56-.2624.347-.4443.508c-.1778.156-.3915.288-.641.393.3004.098.55.225.75.38s.364.332.4824.527.2074.4.254.616.0762.43.0762.64c0 .43-.074.814-.2222 1.15s-.3533.618-.6157.85-.5734.404-.933.527-.7406.178-1.1553.178c-.4062 0-.7892-.057-1.149-.17s-.6644-.282-.9268-.502-.4718-.49-.6284-.806-.2285-.68-.2285-1.086h1.1743c0 .242.0402.462.1206.66s.203.368.3555.507.3364.248.5522.324.4634.114.73.114.5078-.033.7236-.1.4-.18.5523-.324.2687-.32.349-.533.127-.47.127-.762-.0487-.535-.146-.742-.2264-.388-.4-.527-.3767-.244-.622-.31-.5078-.102-.7998-.102h-.838v-.952zM40.707 150v-9.242h2.7486c.3808.004.7532.055 1.1172.152s.6876.24.971.438.5.453.6792.762.2518.68.2476 1.11c-.0042.24-.0444.46-.1206.66s-.1735.38-.3047.54a2.079 2.079 0 0 1-.4507.413 3.401 3.401 0 0 1-.5522.305c.2454.072.4697.175.6728.31a2.077 2.077 0 0 1 .5332.482c.148.186.2624.398.3428.635s.127.493.127.768c.0042.432-.0783.812-.2476 1.143s-.3957.607-.6792.83-.6115.39-.984.508-.75.18-1.1426.184h-2.958zm1.1807-4.323v3.326h1.809c.2454-.004.4782-.044.6982-.12.22-.08.4147-.19.584-.33a1.498 1.498 0 0 0 .3999-.514c.1016-.204.1523-.434.1523-.692.0043-.263-.0402-.495-.1333-.7s-.2137-.374-.3745-.514-.349-.254-.565-.33-.4486-.118-.6982-.127h-1.8726zm0-.977h1.6377c.22-.005.436-.038.6475-.102s.4-.163.565-.286.2983-.28.4-.463.1523-.393.1523-.635c0-.258-.0507-.478-.1523-.66s-.2306-.33-.4-.444c-.165-.12-.3576-.205-.5776-.26a2.896 2.896 0 0 0-.6665-.089h-1.606v2.94zM52.336 150h-1.1743v-7.744l-2.4184.92v-1.072l3.4975-1.346h.0952V150zm3.9864 0v-9.242h2.7485c.381.004.7533.055 1.1172.152s.6877.24.9712.438.51.453.6792.762.2518.68.2475 1.11c-.0042.24-.0444.46-.1206.66s-.1735.38-.3047.54-.277.295-.4506.413-.3576.22-.5523.305c.2455.072.4697.175.673.31.2073.13.385.292.5332.482s.2623.398.3427.635.127.493.127.768c.0042.432-.0783.812-.2476 1.143s-.3956.607-.6792.83-.6115.39-.9838.508-.749.18-1.1426.184h-2.958zm1.1806-4.323v3.326h1.809c.2455-.004.4782-.044.6983-.12.22-.08.4147-.19.584-.33a1.498 1.498 0 0 0 .3999-.514c.1016-.204.1524-.434.1524-.692.0042-.263-.0402-.495-.1333-.7s-.2137-.374-.3745-.514-.349-.254-.565-.33-.4485-.118-.6982-.127H57.503zm0-.977h1.6377a2.414 2.414 0 0 0 .6475-.102c.2116-.068.4-.163.565-.286s.2984-.28.4-.463.1524-.393.1524-.635c0-.258-.0508-.478-.1524-.66s-.2306-.33-.4-.444c-.165-.12-.3576-.205-.5776-.26a2.895 2.895 0 0 0-.6665-.089h-1.606v2.94zm11.4004 2.196h1.2886v.958h-1.2886V150H67.73v-2.146h-4.2148v-.69l4.1386-6.405h1.2505v6.138zm-4.088 0H67.73v-4.577l-.1904.356-2.7232 4.22zm12.9873-5.478L73.975 150h-1.2314l3.815-8.214h-5.002v-1.028h6.246v.66zm7.757 5.046c0 .59-.0677 1.11-.2032 1.568s-.33.836-.584 1.15-.565.544-.933.705-.7893.24-1.2632.24-.8908-.08-1.2632-.24-.6813-.396-.9395-.705-.457-.696-.5966-1.15-.2032-.98-.2032-1.568V144.3c0-.588.0677-1.11.2032-1.562s.33-.842.584-1.155.5713-.55.9395-.71.7935-.247 1.2632-.247.895.082 1.2632.247.6855.398.9394.71.455.698.5903 1.155.2032.974.2032 1.562v2.164zm-4.8052-.235l3.599-2.76c-.0677-.613-.2475-1.08-.5395-1.396s-.7046-.483-1.2505-.483c-.618 0-1.075.2-1.371.63s-.438 1.022-.438 1.822v2.19zm3.6245-1.637l-3.5928 2.748c.072.597.256 1.052.5523 1.365s.7088.47 1.2378.47c.622 0 1.077-.212 1.3647-.635s.438-1.033.438-1.828v-2.12zM93.234 150h-6.0557v-.844l3.028-3.364.6792-.8c.182-.233.328-.447.438-.64.11-.2.1884-.386.235-.56a2.147 2.147 0 0 0 .0698-.546c0-.228-.038-.442-.1142-.64s-.18-.38-.3238-.527-.31-.264-.514-.35-.4253-.133-.6792-.133c-.309 0-.5777.044-.8062.133s-.4126.216-.565.38-.2603.357-.3364.6-.108.493-.108.78h-1.1807c0-.39.0677-.755.203-1.098s.33-.65.584-.908.5713-.463.9395-.616.7955-.228 1.2695-.228c.436 0 .8273.065 1.1743.197s.6475.304.8887.533.4253.5.5522.812.1968.654.1968 1.022c0 .275-.0466.548-.1397.82s-.22.53-.3808.794-.3407.522-.5523.78l-.66.762-2.482 2.692h4.64V150zm7.281-4.082h-3.847V150H95.48v-9.242h5.675v1.003h-4.488v3.16h3.847v.996zm7.75-.2h-3.86v3.275h4.5V150h-5.675v-9.242h5.618v1.003h-4.443v2.97h3.86v.997zm8.41-2.558c-.004.46-.13.872-.375 1.23s-.573.64-.984.845c.237.1.45.228.64.38.195.15.36.32.496.515a2.243 2.243 0 0 1 .317.634c.076.23.114.472.114.73 0 .42-.078.792-.235 1.118s-.36.6-.628.825-.57.39-.927.508-.736.17-1.142.17c-.415 0-.802-.057-1.162-.17-.355-.115-.666-.282-.933-.502s-.47-.5-.622-.825-.23-.7-.23-1.124c0-.258.036-.5.108-.73s.176-.444.31-.634.3-.37.49-.52.404-.28.64-.38a2.727 2.727 0 0 1-.552-.362c-.165-.143-.305-.302-.42-.476s-.203-.37-.267-.577a2.244 2.244 0 0 1-.095-.654c0-.402.068-.76.203-1.073s.322-.584.56-.8.527-.38.857-.495.698-.17 1.092-.17.75.057 1.085.17.624.28.87.495.438.483.577.8.2.67.2 1.073zm-.965 4.3c0-.258-.044-.495-.133-.71s-.206-.4-.362-.552c-.157-.157-.345-.277-.565-.362s-.453-.127-.71-.127c-.267 0-.508.042-.724.127s-.4.205-.552.362c-.152.152-.27.336-.355.552s-.12.453-.12.71c0 .267.04.506.12.717s.203.383.355.527.336.254.552.33.466.114.737.114c.258 0 .495-.038.71-.114s.4-.186.552-.33.277-.32.362-.527.133-.45.133-.717zm-.216-4.29c0-.233-.04-.446-.12-.64s-.185-.362-.324-.502-.3-.254-.49-.33-.4-.12-.628-.12-.436.038-.622.114a1.34 1.34 0 0 0-.483.317c-.135.14-.24.31-.317.508s-.108.413-.108.654.036.46.108.654.182.355.317.495c.14.135.303.24.49.317s.4.108.628.108.432-.036.622-.108.354-.182.49-.317.248-.307.324-.502.114-.4.114-.647zm7.11 6.81h-1.174v-7.744l-2.418.92v-1.072l3.497-1.346h.095V150zm9.14-4.082h-3.847V150h-1.187v-9.242h5.675v1.003h-4.488v3.16h3.847v.996zm7.75-.2h-3.86v3.275h4.5V150h-5.675v-9.242h5.618v1.003h-4.444v2.97h3.86v.997zm7.864.2h-3.846V150h-1.187v-9.242H148v1.003h-4.487v3.16h3.846v.996zm2.546 4.082v-9.242h2.14c.643.008 1.217.118 1.72.33.508.207.935.5 1.282.876s.618.82.8 1.346.282 1.098.286 1.732v.68c-.004.634-.1 1.214-.286 1.74-.182.52-.448.97-.8 1.346s-.774.664-1.282.876c-.503.207-1.077.313-1.72.317h-2.14zm1.193-8.277v7.32h.946c.5-.005.93-.09 1.295-.26s.664-.408.9-.704.42-.646.533-1.048.18-.838.184-1.307v-.692c-.004-.47-.065-.904-.184-1.3-.118-.403-.296-.75-.533-1.04-.237-.297-.537-.53-.9-.7s-.796-.258-1.295-.266h-.946zm12.72 5.497c-.055.427-.165.82-.33 1.18s-.38.663-.648.92-.575.453-.94.596-.762.2-1.206.2c-.38 0-.728-.053-1.04-.16s-.586-.26-.832-.45-.45-.415-.628-.673-.32-.54-.438-.845-.2-.624-.26-.958-.085-.673-.09-1.016v-1.288c.004-.343.034-.682.09-1.016s.146-.654.26-.958.264-.586.438-.845.387-.488.628-.68.523-.338.832-.444.656-.165 1.04-.165c.46 0 .874.072 1.238.216.364.14.677.34.94.603s.472.57.628.933.267.766.318 1.206h-1.174c-.04-.28-.104-.54-.197-.78s-.218-.453-.375-.635-.35-.323-.577-.425-.49-.16-.8-.16c-.28 0-.527.047-.743.14s-.396.212-.552.368-.282.34-.387.546-.184.427-.248.66-.1.472-.14.718l-.038.704v1.3c0 .23.013.466.038.71s.077.48.14.718c.064.232.146.452.248.66a2.11 2.11 0 0 0 .387.552c.156.157.34.28.552.375.212.088.46.133.743.133.31 0 .575-.05.8-.146s.42-.233.577-.406.282-.386.375-.623.158-.5.197-.78h1.174zm7.674-5.802L167.667 150h-1.232l3.815-8.214h-5.002v-1.028h6.246v.66zm7.624 8.582h-6.056v-.844l3.028-3.364.68-.8c.182-.233.328-.447.438-.64.1-.2.188-.386.235-.56a2.174 2.174 0 0 0 .07-.546c0-.228-.038-.442-.115-.64-.07-.203-.18-.38-.323-.527s-.31-.264-.514-.35-.426-.133-.68-.133c-.31 0-.577.044-.806.133s-.412.216-.565.38c-.148.16-.26.357-.336.6s-.108.493-.108.78h-1.18c0-.39.068-.755.203-1.098s.33-.65.584-.908c.26-.258.572-.463.94-.616s.795-.228 1.27-.228c.436 0 .828.065 1.175.197s.647.304.888.533.426.5.553.812.196.654.196 1.022c0 .275-.046.548-.14.82s-.22.53-.38.794-.34.522-.552.78l-.66.762-2.48 2.692h4.64V150zm2.558-4.634l.463-4.608h4.742v1.142h-3.752l-.26 2.463c.182-.106.4-.2.654-.28s.548-.12.882-.12c.428 0 .81.074 1.15.223s.627.357.863.628.42.6.546.97.19.804.19 1.27c0 .44-.06.848-.178 1.225s-.298.702-.54.977-.538.485-.902.64-.79.23-1.282.23c-.377 0-.732-.053-1.066-.16s-.633-.264-.895-.476-.472-.478-.642-.8-.268-.696-.31-1.123h1.118c.07.525.264.922.577 1.193.318.27.724.406 1.22.406.28 0 .527-.048.743-.146a1.48 1.48 0 0 0 .539-.425c.148-.186.258-.408.33-.666s.114-.546.114-.864c0-.287-.042-.556-.126-.806s-.2-.465-.356-.647-.35-.332-.578-.438-.5-.16-.787-.16c-.194 0-.364.015-.507.045-.14.025-.267.063-.38.114a1.843 1.843 0 0 0-.324.184l-.305.247-.94-.24zm11.8 2.24h-3.085l-.743 2.393h-1.174l2.984-9.242h.983l2.933 9.242h-1.168l-.73-2.393zm-2.768-1.022h2.457l-1.22-4.012-1.238 4.012zm7.427 2.374c.42 0 .787-.036 1.105-.108s.592-.182.825-.317.434-.294.6-.476.284-.4.38-.6.176-.46.222-.704.076-.504.09-.762c-.1.127-.218.247-.35.362s-.28.207-.444.292-.35.152-.553.203c-.198.046-.416.07-.653.07-.457 0-.853-.09-1.187-.267s-.603-.42-.82-.71-.375-.622-.476-1-.153-.74-.153-1.11c0-.436.06-.846.178-1.23.123-.4.303-.728.54-1.016s.54-.523.895-.692.776-.26 1.25-.26c.356 0 .675.05.96.152s.54.235.755.413.408.38.565.622.284.495.38.774.175.565.222.87.07.603.07.908v.425l-.057 1.212a6.209 6.209 0 0 1-.229 1.194c-.1.385-.266.75-.47 1.09s-.467.635-.793.89-.722.455-1.187.603-1.018.222-1.657.222h-.12v-1.047h.12zm1.403-3.02c.2 0 .392-.032.578-.096a1.914 1.914 0 0 0 .52-.279 2.256 2.256 0 0 0 .426-.425 2.037 2.037 0 0 0 .298-.546v-.38c0-.41-.05-.777-.146-1.098s-.222-.593-.387-.813-.35-.395-.565-.514-.438-.178-.68-.178c-.276 0-.52.055-.73.165s-.392.263-.54.457-.254.42-.33.686-.114.546-.114.85a3.217 3.217 0 0 0 .101.799c.068.26.17.49.305.692s.313.368.52.495c.212.123.46.185.743.185zm5.02 4.062v-9.242h2.14c.643.008 1.217.118 1.72.33s.936.5 1.283.876.618.82.8 1.346c.187.52.282 1.098.286 1.732v.68c-.004.634-.1 1.214-.286 1.74-.18.52-.448.97-.8 1.346s-.775.664-1.283.876-1.077.313-1.72.317h-2.14zm1.193-8.277v7.32h.946c.5-.005.93-.09 1.295-.26s.665-.408.902-.704.418-.646.533-1.048.18-.838.184-1.307v-.692c-.004-.47-.066-.904-.184-1.3-.12-.403-.296-.75-.533-1.04-.237-.297-.538-.53-.902-.7s-.795-.258-1.295-.266h-.946zm11.82 4.005h-3.86v3.275h4.5V150h-5.675v-9.242h5.618v1.003h-4.444v2.97h3.86v.997zm8.39 4.272h-6.055v-.844l3.028-3.364.68-.8c.182-.233.328-.447.438-.64.1-.2.188-.386.235-.56s.07-.36.07-.546c0-.228-.038-.442-.114-.64s-.18-.38-.324-.527-.31-.264-.514-.35-.425-.133-.68-.133c-.31 0-.578.044-.806.133s-.413.216-.565.38-.26.357-.336.6-.108.493-.108.78h-1.18c0-.39.068-.755.203-1.098s.33-.65.584-.908.57-.463.94-.616.795-.228 1.27-.228c.436 0 .827.065 1.174.197s.648.304.89.533.425.5.552.812.197.654.197 1.022c0 .275-.046.548-.14.82s-.22.53-.38.794-.34.522-.553.78l-.66.762-2.482 2.692h4.64V150zm3.403-1.04c.42 0 .787-.036 1.104-.108s.593-.182.825-.317c.237-.136.434-.294.59-.476s.283-.4.38-.6.175-.46.222-.704a5.827 5.827 0 0 0 .089-.762c-.102.127-.218.247-.35.362s-.28.207-.445.292-.35.152-.552.203-.417.07-.654.07c-.457 0-.853-.09-1.187-.267s-.603-.42-.82-.71-.374-.622-.476-1-.152-.74-.152-1.11c0-.436.06-.846.178-1.23s.302-.728.54-1.016.54-.523.895-.692.777-.26 1.25-.26c.355 0 .675.05.958.152.288.098.54.235.756.413s.408.38.564.622.284.495.38.774.176.565.222.87.07.603.07.908v.425l-.057 1.212c-.038.41-.114.81-.228 1.194s-.267.75-.47 1.09-.468.635-.794.89-.72.455-1.187.603-1.017.222-1.656.222h-.12v-1.047h.12zm1.403-3.02a1.764 1.764 0 0 0 .577-.096c.19-.067.364-.16.52-.28a2.251 2.251 0 0 0 .425-.425c.127-.165.226-.347.298-.546v-.38c0-.41-.048-.777-.146-1.098-.093-.322-.222-.593-.387-.813s-.35-.395-.565-.514c-.21-.118-.438-.178-.68-.178-.275 0-.518.055-.73.165s-.39.263-.54.457c-.143.19-.253.42-.33.686s-.114.546-.114.85c0 .27.034.537.102.8s.17.49.304.692c.14.203.314.368.52.495s.46.185.743.185zm6.512-1.124h.838c.296 0 .557-.04.78-.12s.42-.2.57-.33.275-.307.356-.5.12-.41.12-.64c0-.538-.137-.942-.412-1.213s-.677-.412-1.206-.412c-.25 0-.48.038-.686.114s-.38.178-.527.317-.256.307-.336.502-.12.412-.12.654h-1.18c0-.352.067-.682.203-.99s.334-.584.584-.812.548-.415.895-.546.74-.203 1.168-.203c.414 0 .793.057 1.136.17s.637.275.882.495.436.493.57.82.204.703.204 1.13c0 .178-.028.362-.083.552s-.14.377-.254.56-.262.347-.444.508c-.178.156-.392.288-.64.393.3.098.55.225.75.38s.364.332.482.527.208.4.254.616a2.777 2.777 0 0 1 .076.641c0 .43-.074.814-.222 1.15s-.353.618-.616.85-.573.404-.933.527-.74.178-1.155.178c-.406 0-.79-.057-1.15-.17s-.664-.282-.927-.502-.472-.49-.628-.806-.23-.68-.23-1.086h1.175c0 .242.04.462.12.66s.203.368.356.507.336.248.552.324.463.114.73.114.508-.033.724-.1.4-.18.552-.324.27-.32.35-.533.127-.47.127-.762-.05-.535-.146-.742-.226-.388-.4-.527c-.17-.14-.377-.244-.622-.31s-.508-.102-.8-.102h-.838v-.952zM247.526 150h-1.174v-7.744l-2.418.92v-1.072l3.497-1.346h.095V150zm8.76-3.104h1.29v.958h-1.29V150h-1.174v-2.146h-4.215v-.69l4.14-6.405h1.25v6.138zm-4.088 0h2.914v-4.577l-.19.356-2.723 4.22zm12.22-1.168h-3.86v3.275h4.5V150h-5.675v-9.242H265v1.003h-4.443v2.97h3.86v.997zm7.135 1.88h-3.085l-.742 2.393h-1.175l2.984-9.242h.984L273.45 150h-1.168l-.73-2.393zm-2.767-1.022h2.456l-1.22-4.012-1.237 4.012zm10.924.31h1.29v.958h-1.29V150h-1.174v-2.146h-4.215v-.69l4.138-6.405h1.25v6.138zm-4.088 0h2.914v-4.577l-.19.356-2.723 4.22zm11.464-6.145v1.054h-.102c-.39 0-.738.04-1.047.12s-.573.2-.806.33-.434.307-.603.5-.303.4-.413.63-.194.467-.254.717a4.64 4.64 0 0 0-.114.762c.1-.13.237-.252.38-.362a2.507 2.507 0 0 1 .463-.292c.17-.085.35-.15.54-.197s.398-.076.61-.076c.462 0 .86.09 1.194.267.334.173.61.404.825.69s.374.614.476.978a4.135 4.135 0 0 1 .152 1.111c0 .432-.06.838-.184 1.22s-.298.715-.54 1.003-.542.507-.902.672-.768.248-1.238.248c-.334 0-.64-.05-.92-.146s-.523-.23-.743-.394-.412-.368-.577-.596a3.695 3.695 0 0 1-.413-.737 4.429 4.429 0 0 1-.241-.818 4.47 4.47 0 0 1-.083-.851v-.552c0-.423.026-.847.077-1.27s.146-.836.273-1.225a4.746 4.746 0 0 1 .514-1.092 3.363 3.363 0 0 1 .812-.888c.33-.25.722-.447 1.174-.59s.982-.216 1.587-.216h.102zm-1.536 4.165c-.2 0-.392.03-.578.095a1.997 1.997 0 0 0-.52.266 1.984 1.984 0 0 0-.426.413 2.057 2.057 0 0 0-.292.533v.394c0 .406.05.768.146 1.085s.23.578.394.794.355.38.57.495a1.476 1.476 0 0 0 .679.165c.276 0 .52-.053.73-.16a1.534 1.534 0 0 0 .534-.438c.148-.186.258-.408.33-.666s.114-.546.114-.85a3.028 3.028 0 0 0-.102-.787c-.067-.258-.17-.487-.31-.686s-.315-.357-.526-.476-.46-.177-.743-.177zm5.433.45l.464-4.608h4.742v1.142h-3.752l-.26 2.463c.182-.106.4-.2.654-.28s.548-.12.882-.12c.427 0 .8.074 1.15.223s.626.357.863.628.42.6.546.97.2.804.2 1.27c0 .44-.06.848-.177 1.225s-.3.702-.54.977-.537.485-.9.64-.792.23-1.282.23c-.377 0-.733-.053-1.067-.16s-.632-.264-.895-.476-.472-.478-.64-.8-.27-.696-.31-1.123h1.117c.072.525.265.922.578 1.193s.723.406 1.22.406c.28 0 .526-.048.742-.146s.396-.243.54-.425.258-.408.33-.666.114-.546.114-.864c0-.287-.042-.556-.127-.806-.08-.25-.2-.465-.355-.647s-.35-.332-.578-.438-.49-.16-.787-.16c-.195 0-.364.015-.508.045-.14.025-.266.063-.38.114a1.871 1.871 0 0 0-.323.184l-.305.247-.94-.24zm11.718-4.615v1.054h-.1c-.4 0-.74.04-1.048.12-.304.08-.573.2-.806.33s-.434.307-.603.5a2.872 2.872 0 0 0-.413.629c-.1.228-.194.467-.253.717s-.098.504-.115.762c.1-.13.237-.252.38-.362s.3-.212.464-.292c.17-.085.35-.15.54-.197s.398-.076.61-.076c.462 0 .86.09 1.194.267.334.173.61.404.825.69s.375.614.476.978.152.734.152 1.11c0 .432-.06.838-.184 1.22s-.298.715-.54 1.003-.542.507-.902.672c-.355.165-.768.248-1.237.248-.335 0-.64-.05-.92-.146s-.522-.23-.742-.394-.413-.368-.578-.596a3.695 3.695 0 0 1-.413-.737c-.105-.262-.186-.535-.24-.818s-.082-.568-.082-.85v-.552a10.608 10.608 0 0 1 .076-1.27c.055-.427.146-.836.273-1.225s.298-.753.514-1.092a3.397 3.397 0 0 1 .812-.888c.33-.25.722-.447 1.175-.59s.98-.216 1.587-.216h.1zm-1.536 4.165a1.769 1.769 0 0 0-.578.095 2.013 2.013 0 0 0-.52.266 1.957 1.957 0 0 0-.425.413c-.123.16-.22.338-.292.533v.394c0 .406.048.768.146 1.085s.228.578.393.794.356.38.57.495a1.48 1.48 0 0 0 .68.165c.275 0 .518-.053.73-.16a1.54 1.54 0 0 0 .533-.438c.148-.186.258-.408.33-.666s.114-.546.114-.85a3.071 3.071 0 0 0-.101-.787c-.068-.258-.172-.487-.31-.686s-.316-.357-.527-.476-.46-.177-.743-.177zm8.823 5.084h-1.174v-7.744l-2.418.92v-1.072l3.497-1.346h.095V150zm9.852-8.582L316.01 150h-1.23l3.815-8.214h-5.002v-1.028h6.246v.66zm1.834 8.582v-9.242h2.14c.644.008 1.217.118 1.72.33s.935.5 1.282.876.618.82.8 1.346.28 1.098.285 1.732v.68c-.004.634-.1 1.214-.285 1.74-.182.52-.45.97-.8 1.346s-.774.664-1.282.876-1.077.313-1.72.317h-2.14zm1.194-8.277v7.32h.945c.5-.005.93-.09 1.295-.26s.665-.408.902-.704.42-.646.533-1.048.18-.838.184-1.307v-.692c-.004-.47-.066-.904-.184-1.3-.118-.403-.296-.75-.533-1.04-.237-.297-.538-.53-.902-.7s-.795-.258-1.295-.266h-.945zm8.78 7.515c0-.127.02-.245.057-.355s.1-.205.177-.286.172-.15.286-.197.248-.07.4-.07.286.023.4.07.216.113.292.197.14.176.178.286.063.228.063.355-.02.24-.063.35a.773.773 0 0 1-.178.28c-.076.08-.174.14-.292.184s-.248.07-.4.07-.286-.024-.4-.07-.21-.104-.286-.184-.135-.174-.177-.28-.057-.226-.057-.35zm7.807 0c0-.127.02-.245.057-.355s.102-.205.178-.286.17-.15.286-.197.247-.07.4-.07.285.023.4.07.216.113.292.197.14.176.178.286a.986.986 0 0 1 .064.355c0 .123-.022.24-.064.35s-.097.2-.178.28-.173.14-.292.184-.247.07-.4.07-.286-.024-.4-.07-.2-.104-.286-.184a.897.897 0 0 1-.178-.28c-.038-.1-.057-.226-.057-.35zm7.808 0c0-.127.02-.245.057-.355s.1-.205.178-.286.17-.15.285-.197.248-.07.4-.07.286.023.4.07.216.113.292.197.14.176.178.286.063.228.063.355-.02.24-.063.35-.098.2-.178.28-.173.14-.292.184-.248.07-.4.07-.285-.024-.4-.07-.21-.104-.285-.184-.136-.174-.178-.28-.057-.226-.057-.35z" fill="#6c757d"/><path d="M29.32 37.204c-.9407 0-1.853-.1247-2.737-.374-.8727-.2607-1.5753-.595-2.108-1.003l.935-2.074c.5.374 1.1163.6743 1.82.9s1.4053.34 2.108.34c.782 0 1.36-.1133 1.734-.34.374-.238.56-.5497.56-.935 0-.2833-.1133-.5157-.34-.697-.2153-.1927-.4987-.3457-.85-.46-.34-.1133-.8047-.238-1.394-.374l-2.227-.646c-.578-.2153-1.0767-.56-1.496-1.037-.408-.476-.612-1.1107-.612-1.904 0-.6913.187-1.3147.56-1.87.374-.5667.935-1.0143 1.683-1.343.7593-.3287 1.683-.493 2.77-.493.7593 0 1.5017.0907 2.227.272s1.36.442 1.904.782L33 28.04c-1.0993-.6233-2.1987-.935-3.298-.935-.7707 0-1.343.1247-1.717.374-.3627.2493-.544.578-.544.986s.2097.714.63.918c.4307.1927 1.0823.3853 1.955.578l2.227.646a3.621 3.621 0 0 1 1.479 1.02c.4193.4647.63 1.0937.63 1.887 0 .68-.1927 1.3033-.578 1.87-.374.5553-.9407.9973-1.7 1.326s-1.683.493-2.77.493zm12.6428-.646c-.2606.1927-.5836.34-.97.442-.374.0907-.7706.136-1.2.136-1.088 0-1.9323-.2777-2.533-.833-.5893-.5553-.884-1.3713-.884-2.448v-3.757h-1.41v-2.04h1.41V25.83h2.652v2.227h2.278v2.04h-2.278v3.723c0 .3853.0964.6857.29.9.204.204.4874.306.85.306.4194 0 .7764-.1133 1.07-.34l.714 1.87zm5.1777-8.84c1.4167 0 2.5047.34 3.264 1.02.7593.6687 1.14 1.683 1.14 3.043V37h-2.482v-1.14c-.4987.85-1.428 1.275-2.788 1.275-.7027 0-1.3147-.12-1.836-.357-.5-.238-.9-.5667-1.173-.986s-.408-.8953-.408-1.428c0-.85.3173-1.5187.952-2.006.646-.4873 1.6377-.73 2.975-.73h2.108c0-.578-.1757-1.02-.527-1.326-.3513-.3173-.8783-.476-1.58-.476-.4873 0-.97.0793-1.445.238-.4647.1473-.8613.3513-1.2.612l-.952-1.853c.4987-.3513 1.0937-.6233 1.785-.816.7027-.1927 1.4223-.29 2.16-.29zm-.204 7.633c.4533 0 .8557-.102 1.207-.306.3513-.2153.6007-.527.748-.935v-.935h-1.82c-1.088 0-1.632.357-1.632 1.07 0 .34.1303.612.39.816.272.1927.6403.29 1.105.29zm12.9062 1.207c-.2607.1927-.5837.34-.97.442-.374.0907-.7707.136-1.2.136-1.088 0-1.9323-.2777-2.533-.833-.5893-.5553-.884-1.3713-.884-2.448v-3.757h-1.41v-2.04h1.41V25.83h2.652v2.227h2.278v2.04h-2.278v3.723c0 .3853.0963.6857.29.9.204.204.4873.306.85.306.4193 0 .7763-.1133 1.07-.34l.714 1.87zm10.1655-4.097c0 .034-.017.272-.05.714h-6.92c.1246.5667.4193 1.0143.884 1.343s1.0426.493 1.734.493c.476 0 .8953-.068 1.258-.204.374-.1473.7196-.374 1.037-.68l1.41 1.53c-.8614.986-2.1194 1.48-3.774 1.48-1.0314 0-1.9437-.1983-2.737-.595-.7934-.408-1.4054-.97-1.836-1.683s-.646-1.5243-.646-2.43c0-.8953.2096-1.7.63-2.414.4306-.7253 1.0143-1.2863 1.75-1.683.748-.408 1.58-.612 2.5-.612.8953 0 1.7056.1927 2.43.578s1.292.9407 1.7 1.666c.4193.714.63 1.547.63 2.5zm-4.743-2.737c-.6007 0-1.105.17-1.513.5s-.6574.8047-.748 1.394h4.505c-.0907-.578-.34-1.037-.748-1.377-.408-.3513-.9067-.527-1.496-.527z" class="J"/><path d="M79.6662 37.136c-.7593 0-1.5016-.0907-2.227-.272-.7253-.1927-1.3033-.4307-1.734-.714l.884-1.904c.408.2607.9.476 1.48.646.578.1587 1.1447.238 1.7.238 1.122 0 1.683-.2777 1.683-.833 0-.2607-.153-.4477-.46-.56s-.7763-.2097-1.41-.29c-.748-.1133-1.3656-.2437-1.853-.39s-.9123-.408-1.275-.782c-.3513-.374-.527-.9067-.527-1.598 0-.578.1644-1.088.493-1.53.34-.4533.8274-.8047 1.462-1.054.646-.2493 1.4054-.374 2.278-.374.646 0 1.2864.0737 1.92.22.646.136 1.1787.3287 1.598.578l-.884 1.887c-.8046-.4533-1.683-.68-2.635-.68-.5666 0-.9916.0793-1.275.238s-.425.3627-.425.612c0 .2833.153.4817.46.595s.7934.22 1.462.323c.748.1247 1.36.2607 1.836.408.476.136.8897.39 1.24.765s.527.8953.527 1.564c0 .5667-.17 1.07-.5 1.513s-.8386.7877-1.496 1.037c-.646.238-1.4166.357-2.312.357zm14.9133-4.675c0 .034-.017.272-.05.714h-6.92c.1247.5667.4193 1.0143.884 1.343s1.0427.493 1.734.493c.476 0 .8953-.068 1.258-.204.374-.1473.7197-.374 1.037-.68l1.41 1.53c-.8613.986-2.1193 1.48-3.774 1.48-1.0313 0-1.9437-.1983-2.737-.595-.7933-.408-1.4053-.97-1.836-1.683s-.646-1.5243-.646-2.43c0-.8953.2097-1.7.63-2.414.4307-.7253 1.0143-1.2863 1.75-1.683.748-.408 1.58-.612 2.5-.612.8953 0 1.7057.1927 2.43.578s1.292.9407 1.7 1.666c.4193.714.63 1.547.63 2.5zm-4.743-2.737c-.6007 0-1.105.17-1.513.5s-.6573.8047-.748 1.394h4.505c-.0907-.578-.34-1.037-.748-1.377-.408-.3513-.9067-.527-1.496-.527zm12.0675-2.006c1.133 0 2.046.34 2.737 1.02.703.68 1.054 1.6887 1.054 3.026V37h-2.652v-4.828c0-.7253-.16-1.2637-.476-1.615-.317-.3627-.776-.544-1.377-.544-.67 0-1.2012.2097-1.598.63-.3967.408-.595 1.02-.595 1.836V37h-2.652v-9.146h2.533v1.07c.3513-.3853.7877-.68 1.309-.884.52-.2153 1.094-.323 1.717-.323zm15.61-3.332V37h-2.533v-1.054c-.658.7933-1.6 1.2-2.856 1.2-.862 0-1.644-.1927-2.346-.578-.692-.3853-1.236-.935-1.632-1.65s-.595-1.5413-.595-2.482.198-1.768.595-2.482.94-1.2637 1.632-1.65c.702-.3853 1.484-.578 2.346-.578 1.167 0 2.08.3683 2.737 1.105v-4.437h2.652zm-4.93 10.574c.668 0 1.224-.2267 1.666-.68.442-.4647.663-1.0823.663-1.853s-.22-1.3827-.663-1.836c-.442-.4647-.998-.697-1.666-.697-.68 0-1.24.2323-1.683.697-.442.4533-.663 1.0653-.663 1.836s.22 1.3883.663 1.853c.442.4533 1.003.68 1.683.68z" fill="#dc3545"/><path d="M30.392 77.456c-.2267.204-.5.3627-.85.476-.3287.102-.6743.153-1.037.153-.8387 0-1.4847-.2267-1.938-.68s-.68-1.0937-.68-1.92v-5.406H24.29v-1.02h1.598v-1.955h1.207v1.955h2.72v1.02h-2.72v5.338c0 .5327.1303.9407.39 1.224.272.272.6573.408 1.156.408.2493 0 .4873-.0397.714-.12.238-.0793.442-.1927.612-.34l.425.867zm5.5368.63c-.8613 0-1.6376-.1927-2.33-.578-.6913-.3967-1.2353-.9407-1.632-1.632s-.595-1.4733-.595-2.346.1984-1.6547.595-2.346.9407-1.2297 1.632-1.615 1.4677-.578 2.33-.578 1.6377.1927 2.33.578 1.2297.9237 1.615 1.615c.3967.6913.595 1.4733.595 2.346s-.1983 1.6547-.595 2.346c-.3853.6913-.9236 1.2353-1.615 1.632-.6913.3853-1.4676.578-2.33.578zm0-1.07c.6347 0 1.2014-.1417 1.7-.425.5-.2947.9067-.7083 1.2-1.24s.425-1.14.425-1.82-.1416-1.2863-.425-1.82-.68-.9407-1.2-1.224c-.4986-.2947-1.0653-.442-1.7-.442s-1.207.1473-1.717.442c-.4986.2833-.8953.6913-1.2 1.224-.2833.5327-.425 1.14-.425 1.82s.1417 1.2863.425 1.82c.2947.5327.6914.9463 1.2 1.24.5.2833 1.0824.425 1.717.425z" fill="#6c757d"/><path d="M52.8042 78.204c-1.2126 0-2.312-.2607-3.298-.782-.9746-.5327-1.7453-1.2637-2.312-2.193-.5553-.9407-.833-2.0003-.833-3.18s.2777-2.2327.833-3.162c.5667-.9407 1.3374-1.6717 2.312-2.193.986-.5327 2.09-.8 3.315-.8 1.0314 0 1.9607.1813 2.788.544.8387.3627 1.5414.884 2.108 1.564l-1.768 1.632c-.8046-.9293-1.802-1.394-2.992-1.394-.7366 0-1.394.1643-1.972.493-.578.3173-1.0313.765-1.36 1.343-.3173.578-.476 1.2353-.476 1.972s.1587 1.394.476 1.972c.3287.578.782 1.0313 1.36 1.36.578.3173 1.2354.476 1.972.476 1.2 0 2.1874-.4703 2.992-1.41l1.768 1.632c-.5666.6913-1.2693 1.2183-2.108 1.58s-1.7736.544-2.805.544zm9.1188-8.143c.3173-.442.7423-.7763 1.275-1.003.544-.2267 1.1673-.34 1.87-.34v2.448l-.595-.034c-.7593 0-1.3543.2153-1.785.646-.4307.4193-.646 1.054-.646 1.904V78H59.4v-9.146h2.533v1.207zm13.598 3.4c0 .034-.017.272-.05.714h-6.92c.1247.5667.4193 1.0143.884 1.343s1.0427.493 1.734.493c.476 0 .8953-.068 1.258-.204.374-.1473.7197-.374 1.037-.68l1.41 1.53c-.8613.986-2.1193 1.48-3.774 1.48-1.0313 0-1.9437-.1983-2.737-.595-.7933-.408-1.4053-.97-1.836-1.683s-.646-1.5243-.646-2.43c0-.8953.2097-1.7.63-2.414.4307-.7253 1.0143-1.2863 1.75-1.683.748-.408 1.58-.612 2.5-.612.8953 0 1.7057.1927 2.43.578s1.292.9407 1.7 1.666c.4193.714.63 1.547.63 2.5zm-4.743-2.737c-.6007 0-1.105.17-1.513.5s-.6573.8047-.748 1.394h4.505c-.0907-.578-.34-1.037-.748-1.377-.408-.3513-.9067-.527-1.496-.527zm15.4676 2.737c0 .034-.017.272-.05.714h-6.92c.1247.5667.4193 1.0143.884 1.343s1.0427.493 1.734.493c.476 0 .8953-.068 1.258-.204.374-.1473.7197-.374 1.037-.68l1.41 1.53c-.8613.986-2.1193 1.48-3.774 1.48-1.0313 0-1.9437-.1983-2.737-.595-.7933-.408-1.4053-.97-1.836-1.683s-.646-1.5243-.646-2.43c0-.8953.2097-1.7.63-2.414.4307-.7253 1.0143-1.2863 1.75-1.683.748-.408 1.58-.612 2.5-.612.8953 0 1.7057.1927 2.43.578s1.292.9407 1.7 1.666c.4193.714.63 1.547.63 2.5zm-4.743-2.737c-.6007 0-1.105.17-1.513.5s-.6573.8047-.748 1.394h4.505c-.0907-.578-.34-1.037-.748-1.377-.408-.3513-.9067-.527-1.496-.527zm11.9146-2.006c.85 0 1.6207.1983 2.312.595.7027.3853 1.2523.935 1.65 1.65.3967.7027.595 1.5243.595 2.465s-.1983 1.768-.595 2.482c-.3967.7027-.9463 1.2523-1.65 1.65-.6913.3853-1.462.578-2.312.578-1.1673 0-2.0853-.3683-2.754-1.105v4.267h-2.652V68.854h2.533v1.054c.6573-.7933 1.615-1.2 2.873-1.2zm-.46 7.242c.68 0 1.2353-.2267 1.666-.68.442-.4647.663-1.0823.663-1.853s-.22-1.3827-.663-1.836c-.4307-.4647-.986-.697-1.666-.697s-1.24.2323-1.683.697c-.4307.4533-.646 1.0653-.646 1.836s.2153 1.3883.646 1.853c.442.4533 1.003.68 1.683.68zm15.749-2.5c0 .034-.017.272-.05.714h-6.92c.125.5667.42 1.0143.884 1.343s1.043.493 1.734.493c.476 0 .896-.068 1.258-.204.374-.1473.72-.374 1.037-.68l1.41 1.53c-.86.986-2.12 1.48-3.774 1.48-1.03 0-1.943-.1983-2.737-.595-.793-.408-1.405-.97-1.8356-1.683s-.646-1.5243-.646-2.43c0-.8953.2097-1.7.63-2.414.4306-.7253 1.0146-1.2863 1.7506-1.683.748-.408 1.58-.612 2.5-.612.896 0 1.706.1927 2.43.578s1.292.9407 1.7 1.666c.42.714.63 1.547.63 2.5zm-4.743-2.737c-.6 0-1.105.17-1.513.5s-.657.8047-.748 1.394h4.505c-.1-.578-.34-1.037-.748-1.377-.408-.3513-.906-.527-1.496-.527zm9.042-.663c.317-.442.742-.7763 1.275-1.003.544-.2267 1.167-.34 1.87-.34v2.448l-.595-.034c-.76 0-1.354.2153-1.785.646-.43.4193-.646 1.054-.646 1.904V78h-2.652v-9.146h2.533v1.207zm9.034 2.805h4.454v1.054h-4.454v-1.054z" class="J"/><path d="M24.97 172.628h4.573v1.41H24.97v-1.41zm9.745-6.528V178H33.03v-10.42h-2.686v-1.48h4.37zm9.88 5.66c.68.26 1.2013.635 1.564 1.122s.544 1.07.544 1.75c0 .714-.1927 1.337-.578 1.87-.3854.52-.935.924-1.65 1.207s-1.5527.425-2.516.425c-.952 0-1.785-.142-2.5-.425-.7027-.283-1.2467-.686-1.632-1.207-.3854-.533-.578-1.156-.578-1.87 0-.68.1756-1.264.527-1.75.3626-.487.884-.86 1.564-1.122-.544-.26-.9577-.606-1.24-1.037s-.425-.94-.425-1.53c0-.657.1756-1.23.527-1.717.3626-.487.867-.86 1.513-1.122s1.394-.39 2.244-.39c.8613 0 1.615.13 2.26.39.6573.26 1.1616.635 1.513 1.122.3626.487.544 1.06.544 1.717 0 .578-.1474 1.088-.442 1.53-.2834.43-.697.776-1.24 1.037zm-2.635-4.42c-.8047 0-1.4394.176-1.904.527-.4647.34-.697.805-.697 1.394s.2266 1.054.68 1.394c.4646.34 1.105.5 1.92.5.8273 0 1.4733-.17 1.938-.5.476-.34.714-.805.714-1.394s-.2437-1.054-.73-1.394c-.476-.35-1.1164-.527-1.92-.527zm0 9.418c.9406 0 1.683-.193 2.227-.578.544-.397.816-.93.816-1.598 0-.657-.272-1.173-.816-1.547-.544-.385-1.2864-.578-2.227-.578s-1.6774.193-2.2.578c-.5327.374-.8.9-.8 1.547 0 .67.2663 1.2.8 1.598.5326.385 1.2693.578 2.2.578zm7.6044-.986c.3174 0 .578.113.782.34.2154.215.323.487.323.816a1.785 1.785 0 0 1-.068.493c-.034.16-.1076.402-.22.73l-.8 2.363h-1.07l.63-2.533c-.2153-.08-.39-.2-.527-.39-.1246-.193-.187-.414-.187-.663 0-.34.1077-.618.323-.833s.4874-.323.816-.323zm7.6474-4.998c.782 0 1.48.147 2.09.442.6233.295 1.1106.72 1.462 1.275.3513.544.527 1.173.527 1.887 0 .748-.187 1.405-.56 1.972-.3627.567-.867 1.01-1.513 1.326-.6347.306-1.3487.46-2.142.46-1.598 0-2.8334-.516-3.706-1.547-.8614-1.03-1.292-2.493-1.292-4.386 0-1.326.2323-2.454.697-3.383.476-.94 1.1333-1.65 1.972-2.125.85-.487 1.836-.73 2.958-.73.578 0 1.122.062 1.632.187.5.113.952.283 1.326.5l-.646 1.326c-.5667-.374-1.326-.56-2.278-.56-1.2354 0-2.2044.385-2.907 1.156-.7027.76-1.054 1.87-1.054 3.332l.017.425c.34-.5.8046-.895 1.394-1.156.6006-.272 1.275-.408 2.023-.408zm-.204 5.984c.782 0 1.4166-.2 1.904-.63s.73-.98.73-1.683-.2494-1.258-.748-1.666c-.4874-.42-1.1447-.63-1.972-.63-.5327 0-1.0087.102-1.428.306-.408.204-.73.482-.97.833-.2267.35-.34.742-.34 1.173 0 .42.1076.805.323 1.156.2266.34.5496.618.97.833.4306.204.9406.306 1.53.306zm15.9152-1.683h-2.26V178h-1.65v-2.924h-6.613v-1.2l6.086-7.786h1.836l-5.83 7.514h4.573v-2.584h1.598v2.584h2.26v1.462zm4.2764-8.976V178h-1.683v-10.42h-2.686v-1.48h4.37zm16.1444 5.73c.6913.193 1.2353.544 1.632 1.054.3967.5.595 1.133.595 1.904 0 1.03-.39 1.825-1.173 2.38-.7707.555-1.8983.833-3.383.833h-5.678v-11.9h5.338c1.36 0 2.4083.272 3.145.816.748.544 1.122 1.298 1.122 2.26 0 .623-.1473 1.162-.442 1.615-.2833.453-.6687.8-1.156 1.037zm-6.307-4.352v3.808h3.485c.8727 0 1.5413-.16 2.006-.476.476-.33.714-.805.714-1.428s-.238-1.094-.714-1.41c-.4647-.33-1.1333-.493-2.006-.493h-3.485zm3.9 9.146c.9633 0 1.6887-.16 2.176-.476s.73-.816.73-1.496c0-1.326-.97-1.99-2.907-1.99h-3.9v3.96h3.9zm14.8382-1.598H99.46L98.15 178H96.4l5.39-11.9h1.683l5.406 11.9h-1.785l-1.31-2.975zm-.595-1.36l-2.567-5.83-2.567 5.83h5.134zm15.698-7.565V178h-1.394l-7.14-8.874V178h-1.7v-11.9h1.394l7.14 8.874V166.1h1.7z" fill="#dc3545"/><path d="M228.006 178l-.013-6.63-3.29 5.525h-.598l-3.29-5.486V178h-1.248v-9.1h1.066l3.796 6.396 3.744-6.396h1.066l.013 9.1h-1.248zm6.306-6.955c.953 0 1.68.234 2.184.702.51.468.767 1.166.767 2.093V178h-1.183v-.9c-.208.32-.507.568-.897.74-.38.165-.836.247-1.365.247-.77 0-1.39-.186-1.86-.56-.46-.373-.69-.862-.69-1.47s.22-1.092.663-1.456c.442-.373 1.144-.56 2.106-.56h1.976v-.247c0-.537-.156-.95-.468-1.235s-.77-.43-1.378-.43c-.407 0-.806.07-1.196.208-.4.13-.72.308-.988.533l-.52-.936c.355-.286.78-.503 1.274-.65.494-.156 1.018-.234 1.573-.234zm-.286 6.07c.477 0 .888-.104 1.235-.312.347-.217.598-.52.754-.9v-.962h-1.924c-1.057 0-1.586.355-1.586 1.066 0 .347.134.62.403.82s.64.3 1.118.3zm11.517-6.006l-3.34 7.58c-.295.702-.642 1.196-1.04 1.482-.4.286-.863.43-1.417.43-.338 0-.668-.056-.988-.17-.312-.104-.572-.26-.78-.468l.533-.936c.355.338.767.507 1.235.507.303 0 .554-.082.754-.247.208-.156.394-.43.56-.82l.22-.48-3.042-6.877h1.3l2.405 5.512 2.38-5.512h1.222zm10.493 5.76V178h-6.54v-.884l3.705-3.575c.45-.433.754-.806.9-1.118.156-.32.234-.64.234-.962 0-.477-.17-.845-.507-1.105-.33-.27-.806-.403-1.43-.403-1.006 0-1.78.33-2.327.988l-.884-.767c.355-.433.82-.77 1.39-1.014.58-.243 1.226-.364 1.937-.364.953 0 1.71.23 2.275.69.563.45.845 1.066.845 1.846 0 .485-.104.945-.312 1.378s-.603.927-1.183 1.482l-2.782 2.678h4.667zm3.89-7.97v9.1h-1.287v-7.97h-2.054v-1.13h3.34zm2.862 7.397c.243 0 .442.087.598.26.165.165.247.373.247.624 0 .13-.017.256-.052.377-.026.12-.082.308-.17.56l-.61 1.807h-.82l.48-1.937c-.165-.06-.3-.16-.403-.3-.095-.147-.143-.316-.143-.507 0-.26.082-.472.247-.637s.373-.247.624-.247zm11.962.572V178h-6.54v-.884l3.705-3.575c.45-.433.754-.806.9-1.118.156-.32.234-.64.234-.962 0-.477-.17-.845-.507-1.105-.33-.27-.806-.403-1.43-.403-1.006 0-1.78.33-2.327.988l-.884-.767c.355-.433.82-.77 1.39-1.014.58-.243 1.226-.364 1.937-.364.953 0 1.71.23 2.275.69.563.45.845 1.066.845 1.846 0 .485-.104.945-.312 1.378s-.603.927-1.183 1.482l-2.782 2.678h4.667zm4.748 1.235c-.72 0-1.36-.182-1.924-.546-.554-.373-.992-.9-1.313-1.612s-.48-1.534-.48-2.496.16-1.794.48-2.496.76-1.235 1.313-1.6c.564-.373 1.205-.56 1.924-.56.71 0 1.344.186 1.898.56.564.364 1.006.897 1.326 1.6s.48 1.534.48 2.496-.16 1.794-.48 2.496-.762 1.24-1.326 1.612c-.554.364-1.187.546-1.898.546zm0-1.157c.728 0 1.31-.3 1.742-.897.442-.598.663-1.465.663-2.6s-.22-2.002-.663-2.6c-.433-.598-1.014-.897-1.742-.897-.736 0-1.326.3-1.768.897-.433.598-.65 1.465-.65 2.6s.217 2.002.65 2.6c.442.598 1.032.897 1.768.897zm11.31-.078V178h-6.54v-.884l3.705-3.575c.45-.433.754-.806.9-1.118.156-.32.234-.64.234-.962 0-.477-.17-.845-.507-1.105-.33-.27-.806-.403-1.43-.403-1.005 0-1.78.33-2.327.988l-.884-.767c.355-.433.82-.77 1.39-1.014.58-.243 1.226-.364 1.937-.364.953 0 1.712.23 2.275.69.563.45.845 1.066.845 1.846 0 .485-.104.945-.312 1.378s-.602.927-1.183 1.482l-2.782 2.678h4.667zm4.75 1.235c-.72 0-1.36-.182-1.924-.546-.555-.373-.992-.9-1.313-1.612s-.48-1.534-.48-2.496.16-1.794.48-2.496.758-1.235 1.313-1.6c.563-.373 1.205-.56 1.924-.56.71 0 1.343.186 1.898.56.563.364 1.005.897 1.326 1.6s.48 1.534.48 2.496-.16 1.794-.48 2.496-.763 1.24-1.326 1.612c-.555.364-1.187.546-1.898.546zm0-1.157c.728 0 1.31-.3 1.742-.897.442-.598.663-1.465.663-2.6s-.22-2.002-.663-2.6c-.433-.598-1.014-.897-1.742-.897-.737 0-1.326.3-1.768.897-.433.598-.65 1.465-.65 2.6s.217 2.002.65 2.6c.442.598 1.03.897 1.768.897zm11.265-8.047v9.1h-1.287v-7.97h-2.054v-1.13h3.34zm5.916 3.575c.598 0 1.13.113 1.6.338.477.225.85.55 1.118.975.27.416.403.897.403 1.443 0 .572-.143 1.075-.43 1.508-.277.433-.663.77-1.157 1.014-.485.234-1.03.35-1.638.35-1.222 0-2.166-.394-2.834-1.183-.658-.79-.988-1.907-.988-3.354 0-1.014.178-1.876.533-2.587.364-.72.867-1.26 1.508-1.625.65-.373 1.404-.56 2.262-.56.442 0 .858.048 1.248.143.4.087.728.217 1.014.4l-.494 1.014c-.433-.286-1.014-.43-1.742-.43-.944 0-1.685.295-2.223.884-.537.58-.806 1.43-.806 2.548l.013.325c.26-.4.616-.685 1.066-.884.46-.208.975-.312 1.547-.312zm-.156 4.576c.598 0 1.084-.16 1.456-.48s.56-.75.56-1.287-.2-.962-.572-1.274c-.372-.32-.875-.48-1.508-.48-.407 0-.77.078-1.092.234-.312.156-.56.368-.74.637-.173.27-.26.568-.26.897 0 .32.083.615.247.884.174.26.42.472.74.637.33.156.72.234 1.17.234zm5.112-4.225c-.243 0-.45-.082-.624-.247-.173-.173-.26-.4-.26-.65 0-.25.087-.46.26-.624.173-.173.38-.26.624-.26s.446.082.61.247.247.377.247.637-.087.477-.26.65c-.165.165-.364.247-.598.247zm0 5.252c-.243 0-.45-.082-.624-.247-.173-.173-.26-.4-.26-.65 0-.25.087-.46.26-.624.173-.173.38-.26.624-.26s.446.082.61.247.247.377.247.637-.087.477-.26.65c-.165.165-.364.247-.598.247zm4.908-9.178v9.1h-1.287v-7.97h-2.054v-1.13h3.34zm7.555 4.33c.52.2.918.485 1.196.858s.416.82.416 1.34c0 .546-.148 1.023-.442 1.43-.295.4-.715.706-1.26.923s-1.188.325-1.924.325c-.728 0-1.365-.108-1.91-.325-.538-.217-.954-.524-1.248-.923-.295-.407-.442-.884-.442-1.43 0-.52.134-.966.403-1.34.277-.373.676-.66 1.196-.858-.416-.2-.733-.464-.95-.793s-.325-.72-.325-1.17c0-.503.134-.94.403-1.313.277-.373.663-.66 1.157-.858s1.066-.3 1.716-.3c.658 0 1.235.1 1.73.3.502.2.888.485 1.157.858.277.373.416.8.416 1.313 0 .442-.113.832-.338 1.17-.217.33-.533.594-.95.793zm-2.015-3.38c-.616 0-1.1.134-1.456.403-.356.26-.533.615-.533 1.066s.173.806.52 1.066c.355.26.845.4 1.47.4.632 0 1.126-.13 1.482-.4.364-.26.546-.615.546-1.066s-.187-.806-.56-1.066c-.364-.27-.854-.403-1.47-.403zm0 7.202c.72 0 1.287-.147 1.703-.442.416-.303.624-.71.624-1.222 0-.503-.208-.897-.624-1.183-.416-.295-.984-.442-1.703-.442s-1.283.147-1.7.442c-.408.286-.61.68-.61 1.183 0 .51.203.92.61 1.222.407.295.97.442 1.7.442zm5.675-4.225c-.243 0-.45-.082-.624-.247-.173-.173-.26-.4-.26-.65 0-.25.087-.46.26-.624.173-.173.38-.26.624-.26s.446.082.61.247.247.377.247.637-.087.477-.26.65c-.165.165-.364.247-.598.247zm0 5.252c-.243 0-.45-.082-.624-.247-.173-.173-.26-.4-.26-.65 0-.25.087-.46.26-.624.173-.173.38-.26.624-.26s.446.082.61.247.247.377.247.637-.087.477-.26.65c-.165.165-.364.247-.598.247zm10.004-2.314h-1.73V178h-1.26v-2.236h-5.057v-.9l4.654-5.954h1.404l-4.46 5.746h3.497v-1.976h1.222v1.976h1.73v1.118zm4.706-3.29c.598 0 1.13.113 1.6.338.476.225.85.55 1.118.975.268.416.403.897.403 1.443 0 .572-.143 1.075-.43 1.508-.278.433-.663.77-1.157 1.014-.486.234-1.032.35-1.638.35-1.222 0-2.167-.394-2.834-1.183-.66-.79-.988-1.907-.988-3.354 0-1.014.177-1.876.533-2.587.364-.72.866-1.26 1.508-1.625.65-.373 1.404-.56 2.262-.56.442 0 .858.048 1.248.143.4.087.728.217 1.014.4l-.494 1.014c-.434-.286-1.014-.43-1.742-.43-.945 0-1.686.295-2.223.884-.538.58-.806 1.43-.806 2.548l.013.325c.26-.4.615-.685 1.066-.884.46-.208.975-.312 1.547-.312zm-.156 4.576c.598 0 1.083-.16 1.456-.48s.56-.75.56-1.287-.19-.962-.572-1.274c-.373-.32-.876-.48-1.508-.48-.408 0-.772.078-1.092.234-.312.156-.56.368-.74.637-.174.27-.26.568-.26.897 0 .32.082.615.247.884.173.26.42.472.74.637.33.156.72.234 1.17.234z" class="J"/><defs ><path id="B" d="M326.928 57.9868c.11.2753.675 1.307.595 2.691-.107 1.8327.13 2.2563.346 3.5255.224 1.3103.7 1.521.462 2.0366-.364.8215-3.24.5793-6.363.6204a.583.583 0 0 1-.584-.5505c0-6.8468-.08-12.1933 3.362-12.5633"/><path id="C" d="M315.07 57.9868c-.11.2753-.675 1.307-.594 2.691.106 1.8327-.13 2.2563-.347 3.5255-.224 1.3103-.69 1.521-.46 2.0366.363.8215 3.24.5793 6.363.6204a.583.583 0 0 0 .584-.5505c0-6.8468.078-12.1933-3.363-12.5633"/><path id="D" d="M316.248 62.2122l-.142-.6886-.398.082c-.184-.0948-.38-.2427-.598-.198l-3.597.741a.389.389 0 0 0-.302.4589l.104.5073c.044.2102.25.3454.46.3022l3.612-.744c.203-.0418.33-.2357.464-.3788l.398-.082z"/><path id="E" d="M316.047 61.8758c.328 1.591 1.883 2.6153 3.474 2.2875s2.616-1.8833 2.288-3.4744-1.884-2.6153-3.475-2.2876-2.615 1.8834-2.287 3.4745zm.67-.138c.252 1.221 1.445 2.0067 2.666 1.7552s2.007-1.445 1.755-2.666-1.445-2.0067-2.666-1.7553-2.006 1.445-1.755 2.666z"/></defs></svg>