<svg xmlns="http://www.w3.org/2000/svg" xmlns:xlink="http://www.w3.org/1999/xlink" width="400" height="400" fill="none" xmlns:v="https://vecta.io/nano"><style><![CDATA[.B{stroke-miterlimit:10}.C{stroke:#333}.D{stroke-width:.5}.E{fill:#000}.F{fill:#35353d}.G{fill:#b32645}.H{fill-opacity:.15}.I{fill-opacity:.3}.J{fill-opacity:.4}.K{fill-rule:evenodd}.L{fill-opacity:.2}.M{stroke-linejoin:round}]]></style><path d="M180.442 310.078l2.572-3.083c.342-.4.287-1.02-.123-1.362l-29.132-24.307c-.4-.342-1.02-.287-1.362.123l-2.572 3.083c-.343.4-.287 1.02.123 1.362L179.08 310.2c.4.342 1.02.287 1.362-.123z" fill="#1a1924"/><path d="M151.613 285.352l2.86-3.428-.517-.432-2.86 3.428.517.432zm1.414 1.18l2.86-3.428-.518-.432-2.86 3.428.518.432zm1.413 1.178l2.86-3.427-.518-.432-2.86 3.427.518.432zm1.415 1.18l2.86-3.428-.518-.432-2.86 3.428.518.432zm1.415 1.18l2.86-3.428-.518-.432-2.86 3.428.518.432zm1.413 1.18l2.86-3.428-.517-.43-2.86 3.427.518.432zm1.412 1.178l2.86-3.428-.518-.432-2.86 3.428.517.432zm1.405 1.18l2.86-3.428-.518-.43-2.86 3.427.518.432zm1.423 1.18l2.86-3.428-.517-.432-2.86 3.428.517.432zm1.414 1.18l2.86-3.427-.518-.432-2.86 3.428.518.43zm1.415 1.178l2.86-3.427-.518-.432-2.86 3.428.518.43z" fill="#2b2b3a"/><path d="M219.558 310.078l-2.572-3.083c-.342-.4-.287-1.02.123-1.362l29.132-24.307c.4-.342 1.02-.287 1.362.123l2.572 3.083c.343.4.288 1.02-.123 1.362L220.92 310.2c-.4.342-1.02.287-1.362-.123z" fill="#1a1924"/><path d="M248.386 285.352l-2.86-3.428.517-.432 2.86 3.428-.517.432zm-1.414 1.18l-2.86-3.428.518-.432 2.86 3.428-.518.432zm-1.412 1.178l-2.86-3.427.518-.432 2.86 3.427-.518.432zm-1.415 1.18l-2.86-3.428.517-.432 2.86 3.428-.517.432zm-1.415 1.18l-2.86-3.428.517-.432 2.86 3.428-.518.432zm-1.414 1.18l-2.86-3.428.517-.43 2.86 3.427-.518.432zm-1.412 1.178l-2.86-3.428.517-.432 2.86 3.428-.517.432zm-1.414 1.18l-2.86-3.428.517-.43 2.86 3.427-.517.432zm-1.414 1.18l-2.86-3.428.517-.432 2.86 3.428-.517.432zm-1.414 1.18l-2.86-3.428.518-.43 2.86 3.427-.518.432zm-1.415 1.178l-2.86-3.427.518-.432 2.86 3.428-.518.43z" fill="#2b2b3a"/><path d="M227.51 329.064c-5.077-.742-11.516-3.227-19.686-7.6-1.187-.635-1.666-2.185-1.025-3.384.635-1.187 2.185-1.666 3.384-1.025 7.545 4.037 13.618 6.412 18.05 7.06 2.893.423 4.975.1 6.188-.964 1.36-1.192 1.24-3.3.883-7.24-.417-4.612-.936-10.353 1.978-16.95 4.4-9.972 15.363-19.453 26.91-17.67 7.333 1.136 14.36 6.62 15.973 14.06 1.373 6.336-.602 15.018-7.353 17.443-4.477 1.6-9.592-.236-13.084-3.208-1.044-.867-1.195-2.5-.306-3.544.88-1.034 2.515-1.164 3.548-.262.043.036 4.366 3.665 8.15 2.306 4.284-1.538 4.977-7.895 4.156-11.678-1.175-5.423-6.56-9.357-11.85-10.177-9.284-1.433-18.08 6.85-21.572 14.75-2.39 5.416-1.956 10.232-1.572 14.48.4 4.384.77 8.525-2.567 11.45-2.766 2.44-6.707 2.68-10.202 2.154z" class="B C D G"/><path d="M278.666 296.553c1.105 5.102.118 11.455-3.782 15.208 5.14-3.37 6.506-10.756 5.282-16.408-1.614-7.44-8.64-12.924-15.973-14.06-6.626-1.023-13.178 1.856-18.154 6.082 11.412-8.075 29.328-6.036 32.627 9.178zm-6.903 11.253c-2.703 3.144-7.56 1.526-10.3-.823-.315-.268-.7-.454-1.094-.54a2.503 2.503 0 0 0-1.219.041c.397-.73 1.163-1.224 1.992-1.3a2.499 2.499 0 0 1 1.82.59c2.206 1.95 5.984 3.517 8.8 2.024zm-64.413 9.544c.35-.3 1.55-.9 2.3-.55l2.473 1.203c4.942 2.44 12.747 6.297 18.377 6.297 5 0 5.45-2.5 4.75-9.1.084.382.192.803.306 1.25.962 3.775 2.408 9.45-5.056 9.45-8.15 0-20.88-7.057-23.15-8.55z" class="E L"/><path d="M195.937 344.65c.5-8.708 2.74-15.443 4.718-20.68s4.24-14.47-4.257-16.602c-12.15-3.05-18.83 25.412-19.33 34.094-.293 5.108 3.682 11.033 8.84 11.33 4.747.23 9.744-3.18 10.028-8.14z" class="B C D G"/><path d="M176.947 341.45c5.15-.7 14.8-.7 18.85 3.4l.166-1.504c-4.216-3.696-13.816-3.946-18.802-3.246-.026.33-.186 1.014-.214 1.35zm1.6-8.95c4.776 4.43 10.888 6.913 17.8 7.85.058-.5.18-1.218.25-1.7-6.86-.888-12.82-3.76-17.6-8.1-.2.6-.362 1.527-.45 1.95z" class="E H"/><path d="M204.063 344.65c-.5-8.708-2.74-15.443-4.718-20.68s-4.24-14.47 4.257-16.602c12.15-3.05 18.83 25.412 19.33 34.094.293 5.108-3.682 11.033-8.84 11.33-4.747.23-9.744-3.18-10.028-8.14z" class="B C D G"/><path d="M223.053 341.45c-5.15-.7-14.8-.7-18.85 3.4l-.166-1.504c4.216-3.696 13.816-3.946 18.802-3.246.026.33.186 1.014.214 1.35zm-1.6-8.95c-4.776 4.43-10.888 6.913-17.8 7.85-.058-.5-.18-1.218-.25-1.7 6.86-.888 12.82-3.76 17.6-8.1.2.6.362 1.527.45 1.95z" class="E H"/><g class="B C D"><path d="M223.924 274.1c-10.606-14.518-37.24-14.518-47.847 0-3.84-2.608-11.037 1.465-14.746 6.64-6.57 9.192-9.72 18.91-8.863 28.368.32 3.147 2.582 5.582 6.232 5.582s6.566-3.258 6.205-6.842c-.53-6.196 1.745-12.882 6.25-19.35-2.03 7.736-2.954 14.892-2.954 20.092 0 15.2 14.247 30.85 31.8 30.7 17.932-.154 31.8-15.5 31.8-30.7 0-5.214-.944-12.37-2.984-20.135 4.524 6.482 6.81 13.183 6.28 19.393-.362 3.584 2.554 6.842 6.204 6.842s5.913-2.435 6.233-5.582c.856-9.457-2.292-19.176-8.863-28.368-3.7-5.175-10.908-9.248-14.747-6.64z" class="G"/><path d="M153.717 296.17c12.256-.093 18.28-10.447 16.125-22.176-3.124 1.194-6.4 3.794-8.512 6.756-3.593 5.026-6.162 10.2-7.613 15.42zm92.566 0c-12.257-.093-18.28-10.447-16.125-22.176 3.124 1.194 6.4 3.794 8.512 6.756 3.593 5.026 6.162 10.2 7.613 15.42z" class="F"/></g><path d="M155.3 305.917c-.042-11.228 8.96-27.767 19.5-32.417-13-2.1-24.5 23.35-22.27 35.178.72-1.178 1.97-2.328 2.76-2.76zm89.38 0c.042-11.228-8.96-27.767-19.5-32.417 13-2.1 24.5 23.35 22.27 35.178-.72-1.178-1.97-2.328-2.76-2.76z" class="E H"/><path d="M183.012 334.192c15.11-11.31 24.995-33.184 26.403-35.7l-3.49-1.953c-7.15 12.78-14.21 26.598-26.263 35.15 1.06.9 2.18 1.738 3.35 2.504z" class="B C D F"/><path d="M209.315 298.69c-1.413 2.526-11.162 24.345-26.364 35.62a29.334 29.334 0 0 1-1.1-.741c13.823-10.6 23.643-30.64 26.48-35.434l.985.554z" class="E I"/><g class="C D F"><path d="M176.007 328.085l6.08-14.23c.675-1.586-.085-3.476-1.67-4.152l-12.056-5.153-.16 4.05c0 6.91 2.945 13.915 7.807 19.485z" class="B"/><path d="M168.974 299.102l13.883 5.93c.688.294 1.5.14 2.043-.383.696-.68.96-1.882 1.33-2.75.4-.936-.048-2.053-.984-2.454L170.78 290c-.826 2.964-1.358 6.05-1.805 9.092z" class="M"/><path d="M223.992 328.086l-6.08-14.23c-.676-1.585.085-3.476 1.67-4.152l12.056-5.153.16 4.05c0 6.91-2.945 13.916-7.808 19.486z" class="B"/><path d="M231.026 299.102l-13.883 5.93c-.69.294-1.51.14-2.044-.383-.696-.68-.96-1.882-1.33-2.75-.4-.936.048-2.053.984-2.454L229.22 290c.826 2.964 1.357 6.05 1.805 9.092z" class="M"/><path d="M218.644 282.35l-3.507-2.025c-1.465-.845-3.338-.343-4.184 1.122l-6.683 11.574c-.845 1.465-.344 3.338 1.122 4.184l3.507 2.025c1.465.846 3.338.344 4.184-1.12l6.683-11.574c.845-1.465.343-3.34-1.122-4.185z" class="B"/></g><path d="M219.766 286.533l-6.683 11.575c-.834 1.445-2.74 1.955-4.184 1.12-1.523-.88-3.983-1.694-4.765-3.414a3.07 3.07 0 0 1-.217-1.859c.915 1.49 3.138 2.235 4.582 3.07s3.35.324 4.184-1.12l7.037-12.515c.588.95.606 2.177.046 3.144z" class="E I"/><path d="M173.143 320.33l1.3-3.783c15.25 5.252 35.447 5.927 50.718.424l1.356 3.763c-16.145 5.824-37.276 5.14-53.374-.404z" fill="#3d3d44" class="B C D"/><path d="M226.524 320.733c-16.15 5.82-37.278 5.14-53.38-.404l.463-1.344c15.942 5.31 36.443 5.955 52.44.417l.48 1.33z" class="E I"/><path d="M204.474 318.7h-8.948c-.998 0-1.807.81-1.807 1.807v3.674c0 .998.81 1.807 1.807 1.807h8.948c.998 0 1.807-.81 1.807-1.807v-3.674c0-.998-.81-1.807-1.807-1.807z" fill="#34343a" class="B C D"/><g class="E"><path d="M206.28 320.507v3.675c0 .973-.824 1.807-1.806 1.807h-8.95c-.806 0-1.533-.555-1.744-1.333l9.293.033c.973 0 1.806-.824 1.806-1.807l-.063-4.148c.84.162 1.463.918 1.463 1.773z" class="I"/><path d="M200 339.3c-17.567.16-33-15.7-31.8-33.7 1 14.8 14.515 28.848 31.8 28.7s30.8-13.9 31.8-28.7c1.2 18-14.233 33.54-31.8 33.7z" class="H"/></g><path d="M227.163 314.442l2.53 1.148c1.23.558 1.776 2.008 1.217 3.24l-2.845 6.27a2.449 2.449 0 0 1-3.24 1.217l-2.53-1.148c-1.23-.56-1.776-2.01-1.217-3.24l2.845-6.27c.56-1.23 2.01-1.776 3.24-1.217z" fill="#814739" class="B C D"/><path d="M220.875 322.932c-.012.96.56 1.86 1.436 2.255l3.14 1.363c.8.294 2.2-.4 2.63-1.432l2.845-6.27c.472-1.042.14-2.308-.782-2.985-.793 2.336-2.395 5.893-3.62 8.03-.378.66-1.14.86-1.754.66-1.37-.453-2.92-1.053-3.894-1.62z" class="E L"/><path d="M172.837 314.442l-2.53 1.148c-1.23.558-1.776 2.008-1.217 3.24l2.845 6.27a2.449 2.449 0 0 0 3.24 1.217l2.53-1.148c1.23-.56 1.776-2.01 1.217-3.24l-2.845-6.27c-.558-1.23-2.01-1.776-3.24-1.217z" fill="#814739" class="B C D"/><path d="M179.125 322.932c.01.96-.562 1.86-1.436 2.255l-3.14 1.363c-.8.294-2.2-.4-2.63-1.432l-2.845-6.27c-.473-1.042-.14-2.308.782-2.985.793 2.336 2.394 5.893 3.62 8.03.378.66 1.142.86 1.754.66 1.37-.453 2.92-1.053 3.895-1.62z" class="E L"/><path d="M191 355.6c3.2 0 6.31-2.36 6.67-5.614.912-8.22-9.434-8.968-15.066-9.092-5.7-.125-15.403.956-17.102 7.227-1.485 5.48 3.65 7.48 7.3 7.48s4.9-1.215 9.298-1.215c3.84 0 5.702 1.215 8.902 1.215z" class="B C D F"/><path d="M190.9 353.4c-3.2 0-5.06-1.215-8.902-1.215-4.398 0-5.648 1.215-9.298 1.215-2.84 0-6.575-1.2-7.397-4.326-.673 4.76 4.067 6.526 7.497 6.526 3.65 0 4.9-1.215 9.298-1.215 3.84 0 5.702 1.215 8.902 1.215 4.286 0 7.3-3.415 6.59-8.026-.297 3.346-3.404 5.826-6.69 5.826z" class="E J"/><path d="M209 355.6c-3.2 0-6.31-2.36-6.67-5.614-.91-8.22 9.435-8.968 15.067-9.092 5.7-.125 15.403.956 17.102 7.227 1.484 5.48-3.65 7.48-7.3 7.48s-4.9-1.215-9.298-1.215c-3.842 0-5.702 1.215-8.902 1.215z" class="B C D F"/><path d="M209.1 353.4c3.2 0 5.06-1.215 8.902-1.215 4.398 0 5.648 1.215 9.298 1.215 2.84 0 6.575-1.2 7.397-4.326.673 4.76-4.067 6.526-7.497 6.526-3.65 0-4.9-1.215-9.298-1.215-3.842 0-5.702 1.215-8.902 1.215-4.286 0-7.3-3.415-6.59-8.026.297 3.346 3.404 5.826 6.69 5.826z" class="E J"/><path d="M308.32 183.213c11.1 10.2 6.632 30.93-.91 42.716-10.746 16.8-35.347 27.375-47.946 18.437-13.158-9.335-11.44-38.692 3.92-53.932 11.468-11.378 33.445-17.77 44.935-7.22z" class="B C D G"/><path d="M307.4 225.928c-6.07 9.485-19.5 20.322-34.66 21.672 10.636-2.5 26.002-13.385 30.664-20.672 7.54-11.787 11.536-33.897.91-42.716-3.24-2.7-11.473-6.512-22.773-4.512 13.8-4.25 22.28-.613 26.773 3.512 11.106 10.2 6.628 30.93-.913 42.716z" class="E H"/><path d="M91.682 183.213c-11.1 10.2-6.632 30.93.91 42.716 10.746 16.8 35.347 27.375 47.946 18.437 13.158-9.335 11.44-38.692-3.92-53.932-11.468-11.378-33.445-17.77-44.935-7.22z" class="B C D G"/><path d="M92.6 225.928c6.07 9.485 19.5 20.322 34.66 21.672-10.636-2.5-26.002-13.385-30.664-20.672-7.54-11.787-11.536-33.897-.9-42.716 3.24-2.7 11.473-6.512 22.773-4.512-13.8-4.25-22.28-.613-26.773 3.512-11.106 10.2-6.628 30.93.913 42.716zM239.5 281.8c-11.534 4.522-27.1 7.9-39.5 7.9s-25.934-2.643-39.5-7.9c-.724 1.054-1.66 2.627-2.3 3.7 14.2 5.7 27.5 8.6 41.8 8.6s27.6-2.9 41.8-8.6c-.615-1.07-1.592-2.636-2.3-3.7z" class="E H"/><use xlink:href="#B" class="G"/><path d="M114.86 226.667c-13.592 24.526 33.432 63.383 85.14 63.383s99.318-39.285 84.976-63.786c9.536 22.4-35.904 60.036-84.976 60.036-48.778 0-93.968-37.178-85.14-59.633z" fill-opacity=".1" class="E"/><path d="M140.2 101.3c4.45 5.5 9.435 10.7 9.627 12.727.623 6.577 13.1 106.757 13.1 117.77-3.208 16.012-9.627 26.803-18.977 43.053" stroke="#871a37" stroke-width="3.1" class="B"/><path d="M181.454 125.984C188.72 133.7 197.1 169 197.1 182.25c0 15.74-25.2 51.7-34.05 51.7-26.65 0-40.35-29.3-40.35-66.6 0-11.4 19.5-52.744 26.196-55.557 7.404-3.11 26.19 7.428 32.557 14.19z" fill="#871a37" class="K"/><path d="M163.05 229.55c-11.8 0-35.95-11.827-35.95-62.2 0-11.55 19.226-49.705 23.5-51.5s22.613 7.8 27.65 13.15c5.8 6.17 14.45 41.647 14.45 53.25 0 13.47-23.694 47.3-29.65 47.3z" stroke="#212126" stroke-width="3" class="F"/><path d="M143.35 155.475c-3.99.236-7.5 20.706-6.453 25.11s14.556 14.685 24.76 14.685 26.1-6.608 26.1-15.713-39.465-24.377-44.417-24.083z" fill="#24242b"/><path d="M145.158 177.315c-2.242 4.82 11.386 9.554 15.13 10.2 6.1 1.047 23.615-1.284 24.062-6.267.32-3.548-29.95-23.795-39.193-3.933z" fill="#f1eff0"/><path d="M259.8 101.3c-4.45 5.5-9.435 10.7-9.627 12.727-.623 6.577-13.1 106.757-13.1 117.77 3.208 16.012 9.627 26.803 18.977 43.053" stroke="#871a37" stroke-width="3.1" class="B"/><path d="M218.548 125.984C211.28 133.7 202.9 169 202.9 182.25c0 15.74 25.2 51.7 34.05 51.7 26.65 0 40.35-29.3 40.35-66.6 0-11.4-19.5-52.744-26.196-55.557-7.404-3.11-26.19 7.428-32.557 14.19z" fill="#871a37" class="K"/><path d="M236.95 229.55c11.8 0 35.95-11.827 35.95-62.2 0-11.55-19.226-49.705-23.5-51.5s-22.613 7.8-27.65 13.15c-5.8 6.17-14.45 41.647-14.45 53.25 0 13.47 23.694 47.3 29.65 47.3z" stroke="#212126" stroke-width="3" class="F"/><path d="M256.653 155.475c3.99.236 7.5 20.706 6.453 25.11s-14.556 14.685-24.76 14.685-26.1-6.608-26.1-15.713 39.465-24.377 44.417-24.083z" fill="#24242b"/><path d="M254.844 177.315c2.242 4.82-11.386 9.554-15.13 10.2-6.1 1.047-23.615-1.284-24.062-6.267-.32-3.548 29.95-23.795 39.193-3.933z" fill="#f1eff0"/><use xlink:href="#B" class="C D"/><rect x="118" y="253.5" width="164" height="70" rx="8" fill="#c4c5cc"/><rect x="118" y="253.5" width="164" height="65" rx="8" fill="#f2f3fa"/><rect x="118" y="253.5" width="164" height="70" rx="8" class="C D"/><path d="M151.9 303.96c9.775 0 17.7-7.935 17.7-17.7s-7.935-17.7-17.7-17.7c-9.832 0-17.7 7.935-17.7 17.7s7.878 17.7 17.7 17.7zm0-8.625c-5.232 0-9.142-3.852-9.142-9.085s3.9-9.085 9.142-9.085c5.175 0 9.085 3.853 9.085 9.085s-3.9 9.085-9.085 9.085zm39.262 8.625c9.775 0 17.7-7.935 17.7-17.7s-7.935-17.7-17.7-17.7c-9.832 0-17.7 7.935-17.7 17.7s7.878 17.7 17.7 17.7zm0-8.625c-5.232 0-9.142-3.852-9.142-9.085s3.9-9.085 9.142-9.085c5.175 0 9.085 3.853 9.085 9.085s-3.9 9.085-9.085 9.085zM229.274 269H213.92v34.5h8.798v-13.512h6.555c5.98 0 10.58-4.37 10.58-10.35 0-5.865-4.6-10.637-10.58-10.637zm-1.438 13.858h-5.117v-6.21h5.117c2.07 0 3.565 1.266 3.565 3.048 0 1.84-1.495 3.163-3.565 3.163zm26.375 21.102c6.612 0 12.305-3.852 12.305-10.465 0-13.1-15.64-9.832-15.64-15.065 0-1.495 1.15-2.185 2.53-2.185 1.725 0 3.622 1.035 5.462 3l5.75-5.578c-2.702-3.162-6.785-5.117-11.097-5.117-5.463 0-11.5 3.163-11.5 10.522 0 11.96 15.697 9.086 15.697 14.318 0 1.38-1.15 2.357-3.392 2.357-3 0-5.405-1.61-6.613-4.197l-7.187 4.485c2.3 4.37 7.36 7.935 13.685 7.935z" fill="#333"/><use xlink:href="#C" class="B C D F"/><use xlink:href="#D" class="E J K"/><use xlink:href="#C" x="70" class="B C D F"/><use xlink:href="#D" x="70" class="E J K"/><defs ><path id="B" d="M200 81.85c-66.75 0-96.468 54.006-96.6 102.85-.035 12.973 3.856 28.066 11.158 42.52C101.88 251.77 148.925 290.1 200 290.1c51.085 0 98.137-38.343 85.435-62.893 7.31-14.553 11.13-29.69 11.165-42.507.203-48.844-29.85-102.85-96.6-102.85z"/><path id="C" d="M165.86 316c-5.11 0-11.018 3.048-9.662 9.246 1.01 4.617 16.702 4.05 17.6 0 1-4.455-1.925-9.246-7.948-9.246z"/><path id="D" d="M156.183 325.182c4.612 2.027 14.653 1.007 15.374-2.21.444-1.978.114-4.022-.917-5.683 2.705 1.725 3.848 4.918 3.167 7.956-.908 4.05-16.6 4.618-17.6 0-.005-.02-.01-.043-.014-.064z"/></defs></svg>