<svg xmlns="http://www.w3.org/2000/svg" width="342" height="908" fill="none" xmlns:v="https://vecta.io/nano"><style><![CDATA[.B{fill:#000}.C{stroke:#333}.D{stroke-width:.5599}.E{stroke-miterlimit:10}.F{fill-opacity:.15}.G{fill-opacity:.1}.H{fill:#c66aff}.I{fill:#f7c394}.J{fill:#fff}.K{fill:#32ea7b}.L{stroke-width:1.6856}]]></style><g clip-path="url(#A)"><g class="B"><path d="M20.299 26.83c-1.2778 0-2.3842-.4363-3.3192-1.309v1.0284H14.993V10.6327l1.9868-.9584v6.0306c.374-.4208.8493-.7558 1.426-1.005s1.1843-.374 1.8232-.374c1.5427 0 2.7737.56 3.693 1.683.9194 1.1064 1.379 2.6258 1.379 4.558 0 2.0102-.444 3.5607-1.3324 4.6515-.8726 1.0752-2.096 1.6128-3.6697 1.6128zm-.304-1.8465c1.0752 0 1.8855-.3896 2.431-1.1688.56-.779.8415-1.862.8415-3.25 0-1.4336-.2805-2.5244-.8415-3.2724-.5454-.7635-1.3557-1.1453-2.431-1.1453-.6856 0-1.3012.1714-1.8466.5142-.5298.3273-.9193.6935-1.1687 1.0986v5.5865c.3117.5142.7324.9194 1.2622 1.2154.53.2805 1.1142.4208 1.753.4208zM33.3936 26.83c-1.2934 0-2.3296-.3428-3.1088-1.0284-.779-.7013-1.1687-1.6986-1.1687-2.992s.4363-2.275 1.31-2.9452c.8882-.67 1.98-1.005 3.2724-1.005 1.1843 0 2.2595.257 3.2256.7714v-.9116c0-1.7765-.8415-2.6647-2.5244-2.6647-1.231 0-2.4933.4207-3.7866 1.2622l-.5844-1.6596c1.4336-.8882 2.953-1.3323 4.558-1.3323.5142 0 .9973.0623 1.4492.187.452.109.896.3117 1.3323.6077.452.2805.8025.7168 1.052 1.31.265.592.3973 1.309.3973 2.1504v7.9706H36.923V25.452c-.9973.9194-2.1738 1.379-3.5295 1.379zm.257-1.7297c1.2466 0 2.3374-.5454 3.2724-1.6362v-2.057c-.9194-.56-1.9167-.8415-2.992-.8415-.8415 0-1.5427.1948-2.1037.5844-.56.374-.8415.9272-.8415 1.6596 0 .6856.2338 1.2388.7013 1.6595s1.122.631 1.9634.631zM49.036 14.3258c1.4492 0 2.5478.4285 3.2958 1.2856s1.122 2.2205 1.122 4.0905v6.8486h-1.9868v-7.1057c0-1.1376-.257-1.9713-.7713-2.501-.4987-.5298-1.1687-.7947-2.0102-.7947-1.9635 0-2.9452 1.083-2.9452 3.25v7.1525h-1.9868V14.6063h1.87v1.4258c.7168-1.1375 1.8543-1.7063 3.4126-1.7063zm7.695 16.362v-1.94h12.5286v1.94H56.73zm21.6962-6.0773h4.0204v1.94H72.35v-1.94h4.067V12.8532l-3.5762 1.192v-1.94l5.5864-1.9868v14.492zm13 2.2205c-1.5894 0-2.844-.56-3.7632-1.683s-1.379-2.649-1.379-4.5814.4597-3.4516 1.379-4.558c.935-1.122 2.1816-1.683 3.7398-1.683 1.2778 0 2.353.374 3.2257 1.122v-4.815l1.9868-.9584v16.8762h-1.9868v-.9817c-.7792.8415-1.8466 1.2622-3.2023 1.2622zm.257-1.8465c1.3402 0 2.322-.5454 2.9452-1.6362v-5.6566c-.6857-1.0285-1.6752-1.5427-2.9685-1.5427-1.0753 0-1.9012.3818-2.4777 1.1453s-.865 1.8544-.865 3.2724c0 1.2778.304 2.3375.9116 3.179.6078.826 1.426 1.239 2.4543 1.239zm9.6817 1.566V10.6093l1.987-.935v6.2176c.748-1.044 1.847-1.566 3.296-1.566s2.548.4285 3.296 1.2856 1.122 2.2205 1.122 4.0905v6.8486h-1.987v-7.1057c0-1.1376-.257-1.9713-.772-2.501-.498-.5298-1.168-.7947-2-.7947-1.963 0-2.945 1.083-2.945 3.25v7.1525h-1.987zm21.44-14.8426c-.685 0-1.16.1324-1.426.3973-.25.2494-.373.6156-.373 1.0986v1.4025h3.46v1.7764h-3.46v8.3914h3.178v1.7764h-7.7V24.774h2.525v-8.3914h-2.525v-1.7764h2.525v-1.753c0-1.0596.327-1.8154.98-2.2673s1.49-.6778 2.5-.6778c.95 0 1.824.187 2.618.561v1.7297c-.7-.3272-1.472-.4908-2.314-.4908zm11.412 15.123c-1.293 0-2.33-.3428-3.11-1.0284-.78-.7013-1.17-1.6986-1.17-2.992s.437-2.275 1.31-2.9452c.89-.67 1.98-1.005 3.273-1.005 1.184 0 2.26.257 3.225.7714v-.9116c0-1.7765-.84-2.6647-2.524-2.6647-1.23 0-2.493.4207-3.787 1.2622l-.584-1.6596c1.434-.8882 2.953-1.3323 4.558-1.3323.514 0 .997.0623 1.45.187.452.109.896.3117 1.333.6077.45.2805.802.7168 1.05 1.31.265.592.398 1.309.398 2.1504v7.9706h-1.894V25.452c-.997.9194-2.173 1.379-3.53 1.379zm.257-1.7297c1.247 0 2.337-.5454 3.272-1.6362v-2.057c-.92-.56-1.916-.8415-2.99-.8415-.842 0-1.543.1948-2.104.5844-.56.374-.842.9272-.842 1.6596 0 .6856.234 1.2388.702 1.6595s1.122.631 1.963.631zM149.93 26.83c-1.277 0-2.384-.4363-3.32-1.309v1.0284h-1.987V10.6327l1.987-.9584v6.0306c.374-.4208.85-.7558 1.426-1.005s1.184-.374 1.823-.374c1.543 0 2.774.56 3.693 1.683.92 1.1064 1.38 2.6258 1.38 4.558 0 2.0102-.444 3.5607-1.332 4.6515-.873 1.0752-2.096 1.6128-3.67 1.6128zm-.304-1.8465c1.076 0 1.886-.3896 2.43-1.1688.56-.779.842-1.862.842-3.25 0-1.4336-.28-2.5244-.842-3.2724-.545-.7635-1.355-1.1453-2.43-1.1453-.685 0-1.3.1714-1.846.5142-.53.3273-.92.6935-1.17 1.0986v5.5865c.312.5142.733.9194 1.262 1.2154.53.2805 1.115.4208 1.753.4208zm17.21 1.566l-3.693-7.2694-2.127 2.1738v5.0956h-1.987V10.6327l1.987-.9584v9.5133l4.347-4.5813h2.338l-3.156 3.2256 4.465 8.7186h-2.174zm12.463.2805c-2.026 0-3.038-.9973-3.038-2.992v-7.4564h-2.735v-1.7764h2.735V10.656l1.986-.9817v4.932h4.02v1.7764h-4.02v6.8253c0 .5922.117 1.044.35 1.3557.25.296.71.444 1.38.444.732 0 1.465-.218 2.197-.6544l-.233 1.94c-.686.3584-1.567.5376-2.642.5376zm13.843 0c-1.278 0-2.384-.4363-3.32-1.309v1.0284h-1.987V10.6327l1.987-.9584v6.0306c.374-.4208.85-.7558 1.425-1.005s1.185-.374 1.824-.374c1.542 0 2.773.56 3.693 1.683.92 1.1064 1.38 2.6258 1.38 4.558 0 2.0102-.444 3.5607-1.333 4.6515-.872 1.0752-2.095 1.6128-3.67 1.6128zm-.304-1.8465c1.075 0 1.885-.3896 2.43-1.1688.56-.779.84-1.862.84-3.25 0-1.4336-.28-2.5244-.84-3.2724-.546-.7635-1.356-1.1453-2.43-1.1453-.686 0-1.3.1714-1.847.5142-.53.3273-.92.6935-1.168 1.0986v5.5865c.31.5142.732.9194 1.262 1.2154.53.2805 1.114.4208 1.753.4208zM206.61 26.83c-1.075 0-2.04-.1948-2.898-.5843s-1.504-.8493-1.94-1.379l1.145-1.496c1.106 1.0753 2.338 1.613 3.693 1.613 1.044 0 1.9-.3507 2.57-1.052.686-.7168 1.03-1.5972 1.03-2.6413 0-1.013-.273-1.8465-.818-2.5-.53-.6545-1.255-.9817-2.174-.9817-1.2 0-2.22.483-3.062 1.4492l-1.777-.6545 1.1-8.4147h7.9v1.87h-6.17l-.748 5.002c.826-.7792 1.846-1.1687 3.062-1.1687 1.418 0 2.563.4986 3.436 1.496.888.9973 1.332 2.2673 1.332 3.8s-.522 2.8673-1.566 3.9737-2.415 1.6595-4.114 1.6595zm11.973 0v-1.7063c1.48-.3584 2.78-1.1142 3.903-2.2673 1.122-1.1687 1.808-2.4855 2.057-3.9502-.78.9505-1.98 1.4258-3.6 1.4258-1.403 0-2.587-.483-3.553-1.4492-.95-.9817-1.426-2.1816-1.426-3.5997 0-1.5427.53-2.8204 1.59-3.8333 1.06-1.0285 2.377-1.5427 3.95-1.5427 1.76 0 3.1.5843 4.02 1.753s1.38 2.696 1.38 4.5814c0 1.6985-.335 3.2958-1.005 4.7917-.655 1.4804-1.62 2.7426-2.898 3.7866-1.278 1.0285-2.75 1.6986-4.418 2.0102zm2.828-8.2277c1.03 0 1.87-.3195 2.524-.9584.655-.6544.982-1.488.982-2.5 0-.966-.335-1.7687-1.005-2.4075-.67-.6545-1.504-.9818-2.5-.9818-1.044 0-1.885.3273-2.524.9818-.64.6388-.96 1.4414-.96 2.4075 0 1.0285.312 1.862.935 2.5.64.639 1.488.9584 2.548.9584zm15.455 6.0072h4.02v1.94h-10.098v-1.94h4.067V12.8532l-3.576 1.192v-1.94l5.586-1.9868v14.492zM250.31 26.83c-1.73 0-3.063-.5843-3.997-1.753-.935-1.1843-1.403-2.7115-1.403-4.5814 0-2.462.787-4.6982 2.36-6.7084s3.623-3.3036 6.147-3.88v1.7063c-1.418.3896-2.71 1.161-3.88 2.314-1.153 1.1376-1.878 2.3842-2.174 3.74.78-.8882 1.9-1.3323 3.366-1.3323 1.387 0 2.54.5064 3.46 1.5193s1.38 2.205 1.38 3.5763c0 1.5427-.507 2.8283-1.52 3.8567s-2.26 1.5427-3.74 1.5427zm-.047-1.8465c.98 0 1.784-.3117 2.407-.935.624-.639.935-1.4492.935-2.431 0-1.0285-.304-1.8622-.91-2.501-.608-.6545-1.418-.9817-2.43-.9817-.982 0-1.792.3272-2.43.9817-.623.6545-.935 1.4882-.935 2.501 0 .966.32 1.7686.958 2.4075s1.442.9584 2.408.9584zm18.447.1636c-1.013 1.122-2.37 1.683-4.067 1.683s-3.054-.5532-4.067-1.6595-1.52-2.6335-1.52-4.5814c0-1.9323.507-3.4594 1.52-4.5814s2.368-1.683 4.067-1.683c1.714 0 3.07.5532 4.067 1.6596 1.013 1.1064 1.52 2.6335 1.52 4.5813 0 1.9323-.506 3.4594-1.52 4.5814zm-4.067-.1636c1.122 0 1.994-.3896 2.618-1.1688.623-.7947.935-1.8777.935-3.25 0-1.3868-.304-2.47-.912-3.25s-1.488-1.1687-2.64-1.1687-2.034.3896-2.64 1.1687c-.608.7636-.912 1.8544-.912 3.2724 0 1.3713.304 2.4465.912 3.2256.623.7792 1.503 1.1688 2.64 1.1688zm11.622 6.1006l1.8-4.8618-4.418-11.617h2.033l2.922 8.0875.374 1.192.117-.374.164-.444.117-.374 2.968-8.0875h2.08l-6.147 16.4788h-2zm21.252-5.937c-1.013 1.122-2.37 1.683-4.067 1.683s-3.054-.5532-4.067-1.6595-1.52-2.6335-1.52-4.5814c0-1.9323.507-3.4594 1.52-4.5814s2.368-1.683 4.067-1.683c1.714 0 3.07.5532 4.067 1.6596 1.013 1.1064 1.52 2.6335 1.52 4.5813 0 1.9323-.506 3.4594-1.52 4.5814zm-4.067-.1636c1.122 0 1.994-.3896 2.618-1.1688.623-.7947.935-1.8777.935-3.25 0-1.3868-.304-2.47-.912-3.25s-1.488-1.1687-2.64-1.1687-2.034.3896-2.64 1.1687c-.608.7636-.912 1.8544-.912 3.2724 0 1.3713.304 2.4465.912 3.2256.623.7792 1.503 1.1688 2.64 1.1688zm18.377.444c-1.03.935-2.353 1.4024-3.974 1.4024s-2.953-.4675-3.997-1.4024c-1.028-.9506-1.542-2.1427-1.542-3.5763 0-.9817.264-1.862.794-2.6413.546-.7947 1.247-1.3557 2.104-1.683-.67-.296-1.2-.748-1.59-1.3557s-.585-1.2778-.585-2.0102c0-1.1843.452-2.1894 1.356-3.0153.92-.826 2.072-1.2388 3.46-1.2388s2.532.413 3.436 1.2388c.92.826 1.38 1.83 1.38 3.0153 0 .7324-.194 1.4024-.584 2.0102s-.927 1.0596-1.613 1.3557c.873.3428 1.574.9038 2.104 1.683.545.7792.818 1.6596.818 2.6413 0 1.4336-.522 2.6257-1.566 3.5763zM305.82 16.15c.514.452 1.192.6778 2.033.6778s1.52-.226 2.034-.6778c.514-.4675.77-1.0596.77-1.7765 0-.7947-.265-1.4336-.795-1.9166-.53-.4987-1.2-.748-2-.748-.826 0-1.503.2493-2.033.748-.515.483-.772 1.122-.772 1.9166 0 .717.257 1.31.772 1.7765zm2.033 8.8588c1.013 0 1.847-.3038 2.5-.9116s.982-1.418.982-2.431c0-.9194-.327-1.6985-.982-2.3374-.654-.6545-1.488-.9817-2.5-.9817-1.028 0-1.87.3272-2.524.9817-.64.639-.958 1.418-.958 2.3374 0 1.0285.32 1.8466.958 2.4543.654.5922 1.496.8882 2.524.8882zm14.848-10.682c1.45 0 2.548.4285 3.296 1.2856s1.122 2.2205 1.122 4.0905v6.8486h-1.987v-7.1057c0-1.1376-.257-1.9713-.772-2.501-.498-.5298-1.168-.7947-2-.7947-1.963 0-2.945 1.083-2.945 3.25v7.1525h-1.987V14.6063h1.87v1.4258c.717-1.1375 1.855-1.7063 3.413-1.7063zM20.299 63.83c-1.2778 0-2.3842-.4363-3.3192-1.309v1.0284H14.993V47.6327l1.9868-.9584v6.0306c.374-.4208.8493-.7558 1.426-1.005s1.1843-.374 1.8232-.374c1.5427 0 2.7737.56 3.693 1.683.9194 1.1064 1.379 2.6258 1.379 4.558 0 2.0102-.444 3.5607-1.3324 4.6515-.8726 1.0752-2.096 1.6128-3.6697 1.6128zm-.304-1.8465c1.0752 0 1.8855-.3896 2.431-1.1688.56-.779.8415-1.862.8415-3.25 0-1.4336-.2805-2.5244-.8415-3.2724-.5454-.7635-1.3557-1.1453-2.431-1.1453-.6856 0-1.3012.1714-1.8466.5142-.5298.3273-.9193.6935-1.1687 1.0986v5.5865c.3117.5142.7324.9194 1.2622 1.2154.53.2805 1.1142.4208 1.753.4208zM33.8377 63.83c-1.5115 0-2.6413-.4285-3.3893-1.2856-.7324-.8726-1.0986-2.275-1.0986-4.2073v-6.7318H31.36v6.989c0 1.1687.2416 2.0258.7246 2.5712.4987.5298 1.16.7947 1.9868.7947 1.948 0 2.9218-1.1064 2.9218-3.3192v-7.0356h2.0336v11.9442h-2.0336v-1.1687c-.748.9662-1.7998 1.4492-3.1555 1.4492zm17.863-12.5052c.9973 0 1.7297.3272 2.197.9817.483.6545.7246 1.7063.7246 3.1555v8.0875h-1.94v-7.316c0-1.0908-.0935-1.87-.2805-2.3374s-.56-.7013-1.122-.7013c-.5765 0-1.005.2883-1.2856.865s-.4207 1.34-.4207 2.2907v7.1992h-1.94V56.024c0-.9038-.0935-1.5972-.2804-2.0803-.1715-.4986-.522-.748-1.052-.748-.5766 0-1.0207.296-1.3323.8883-.3117.5765-.4675 1.3323-.4675 2.2673v7.1992h-1.94V51.6063h1.8232V53.15c.4675-1.2155 1.239-1.8232 2.314-1.8232.592 0 1.0908.1792 1.496.5376s.6857.787.8415 1.2856c.67-1.2155 1.5583-1.8232 2.6647-1.8232zm13.4918-2.618c-.6856 0-1.161.1324-1.4258.3973-.2493.2494-.374.6156-.374 1.0986v1.4025h3.4594v1.7764h-3.4594v8.3914h3.179v1.7764h-7.69V61.774h2.5244v-8.3914h-2.5244v-1.7764h2.5244v-1.753c0-1.0596.3272-1.8154.9817-2.2673s1.4882-.6778 2.501-.6778c.9505 0 1.8232.187 2.618.561v1.7297c-.7012-.3272-1.4726-.4908-2.314-.4908zm6.7 14.8426L76.3 57.3797l-4.1372-5.7734h2.2206l2.431 3.3893.5843.8882c.0156-.0312.0935-.1558.2338-.374l.3506-.5142 2.431-3.3893h2.2206l-4.1373 5.7734 4.4178 6.1708h-2.2206L77.983 59.764l-.3506-.491-.2338-.3973-.3038.444-.2805.444-2.7114 3.7866h-2.2206zm20.434.2805c-1.2778 0-2.384-.4363-3.319-1.309v1.0284h-1.9868V47.6327l1.9868-.9584v6.0306c.374-.4208.8493-.7558 1.4258-1.005s1.1843-.374 1.8232-.374c1.5427 0 2.7738.56 3.693 1.683.9194 1.1064 1.379 2.6258 1.379 4.558 0 2.0102-.444 3.5607-1.3323 4.6515-.8726 1.0752-2.096 1.6128-3.6698 1.6128zm-.3038-1.8465c1.0752 0 1.8855-.3896 2.431-1.1688.56-.779.8415-1.862.8415-3.25 0-1.4336-.2805-2.5244-.8415-3.2724-.5454-.7635-1.3557-1.1453-2.431-1.1453-.6857 0-1.3012.1714-1.8466.5142-.5298.3273-.9194.6935-1.1687 1.0986v5.5865c.3116.5142.7324.9194 1.2622 1.2154.5298.2805 1.1142.4208 1.753.4208zM105.832 63.83c-1.6 0-2.844-.56-3.764-1.683s-1.38-2.649-1.38-4.5814.46-3.4516 1.38-4.558c.935-1.122 2.182-1.683 3.74-1.683 1.278 0 2.353.374 3.226 1.122v-4.815l1.987-.9584v16.8762h-1.987v-.9817c-.78.8415-1.847 1.2622-3.202 1.2622zm.257-1.8465c1.34 0 2.322-.5454 2.945-1.6362v-5.6566c-.686-1.0285-1.675-1.5427-2.97-1.5427-1.075 0-1.9.3818-2.477 1.1453s-.865 1.8544-.865 3.2724c0 1.2778.304 2.3375.912 3.179.607.826 1.425 1.239 2.454 1.239zm14.6 1.8465c-1.73 0-3.062-.5843-3.997-1.753-.935-1.1843-1.402-2.7115-1.402-4.5814 0-2.462.787-4.6982 2.36-6.7084s3.623-3.3036 6.147-3.88v1.7063c-1.418.3896-2.71 1.161-3.88 2.314-1.153 1.1376-1.878 2.3842-2.174 3.74.78-.8882 1.9-1.3323 3.366-1.3323 1.387 0 2.54.5064 3.46 1.5193s1.38 2.205 1.38 3.5763c0 1.5427-.506 2.8283-1.52 3.8567s-2.26 1.5427-3.74 1.5427zm-.046-1.8465c.98 0 1.784-.3117 2.407-.935.623-.639.935-1.4492.935-2.431 0-1.0285-.304-1.8622-.912-2.501-.607-.6545-1.418-.9817-2.43-.9817-.982 0-1.793.3272-2.43.9817-.624.6545-.935 1.4882-.935 2.501 0 .966.32 1.7686.958 2.4075s1.44.9584 2.408.9584zM134.64 63.83c-1.6 0-2.844-.56-3.764-1.683s-1.38-2.649-1.38-4.5814.46-3.4516 1.38-4.558c.935-1.122 2.182-1.683 3.74-1.683 1.278 0 2.353.374 3.226 1.122v-4.815l1.987-.9584v16.8762h-1.987v-.9817c-.78.8415-1.847 1.2622-3.202 1.2622zm.257-1.8465c1.34 0 2.322-.5454 2.945-1.6362v-5.6566c-.686-1.0285-1.675-1.5427-2.97-1.5427-1.075 0-1.9.3818-2.477 1.1453s-.865 1.8544-.865 3.2724c0 1.2778.304 2.3375.91 3.179.608.826 1.426 1.239 2.455 1.239zm13.655 6.4746l-.98-1.5894c1.745-.109 2.945-.4208 3.6-.935.67-.4986 1.005-1.2 1.005-2.1037v-1.4492c-.7.9662-1.776 1.4492-3.225 1.4492-1.434 0-2.626-.5454-3.577-1.6362s-1.425-2.6335-1.425-4.628c0-1.9167.467-3.436 1.402-4.558s2.166-1.683 3.693-1.683c1.34 0 2.384.4285 3.132 1.2856v-1.005h1.987V63.013c0 1.87-.49 3.218-1.473 4.0438-.966.826-2.345 1.2934-4.137 1.4024zm.818-6.4746c.56 0 1.09-.148 1.6-.444.514-.3117.92-.7402 1.215-1.2856v-5.493c-.296-.4986-.71-.8882-1.24-1.1687-.514-.296-1.036-.444-1.566-.444-1.106 0-1.948.3818-2.524 1.1453-.577.748-.865 1.8388-.865 3.2724 0 1.3713.312 2.4543.935 3.25.623.7792 1.44 1.1688 2.454 1.1688zm18.424.444c-1.028.935-2.353 1.4024-3.973 1.4024s-2.953-.4675-3.997-1.4024c-1.03-.9506-1.543-2.1427-1.543-3.5763 0-.9817.265-1.862.795-2.6413.545-.7947 1.246-1.3557 2.103-1.683-.67-.296-1.2-.748-1.59-1.3557s-.585-1.2778-.585-2.0102c0-1.1843.452-2.1894 1.356-3.0153.92-.826 2.073-1.2388 3.46-1.2388s2.532.413 3.436 1.2388c.92.826 1.38 1.83 1.38 3.0153 0 .7324-.195 1.4024-.585 2.0102s-.927 1.0596-1.613 1.3557c.873.3428 1.574.9038 2.104 1.683.546.7792.818 1.6596.818 2.6413 0 1.4336-.522 2.6257-1.566 3.5763zm-6.007-9.2796c.514.452 1.192.6778 2.034.6778s1.52-.226 2.033-.6778c.514-.4675.77-1.0596.77-1.7765 0-.7947-.264-1.4336-.794-1.9166-.53-.4987-1.2-.748-2-.748-.826 0-1.504.2493-2.034.748-.514.483-.77 1.122-.77 1.9166 0 .717.257 1.31.77 1.7765zm2.034 8.8588c1.012 0 1.846-.3038 2.5-.9116s.98-1.418.98-2.431c0-.9194-.327-1.6985-.98-2.3374-.655-.6545-1.49-.9817-2.5-.9817-1.03 0-1.87.3272-2.525.9817-.64.639-.958 1.418-.958 2.3374 0 1.0285.32 1.8466.958 2.4543.655.5922 1.496.8882 2.525.8882zm19.64-4.9553c0 .5142-.024.9505-.07 1.31h-8.345c.156 1.153.53 2.057 1.122 2.7114.608.639 1.395.9583 2.36.9583 1.013 0 1.94-.3428 2.78-1.0285l1.122 1.31c-1.122 1.013-2.446 1.5193-3.973 1.5193-1.668 0-3-.592-3.997-1.7764-.982-1.1843-1.473-2.6803-1.473-4.488 0-1.9478.49-3.475 1.473-4.5813.997-1.1064 2.33-1.6596 3.997-1.6596 1.465 0 2.664.483 3.6 1.4492s1.403 2.392 1.403 4.2775zm-8.462-.4207h6.475c-.03-1.2623-.343-2.166-.935-2.7115s-1.286-.818-2.08-.818c-1.06 0-1.886.3117-2.478.935-.576.6233-.904 1.4882-.982 2.5946zM192.58 63.83c-.873 0-1.707-.187-2.5-.56-.78-.3895-1.434-.9038-1.964-1.5427l1.356-1.192c.95 1.044 2.034 1.566 3.25 1.566.67 0 1.223-.1324 1.66-.3973.436-.2805.654-.67.654-1.1687 0-.296-.078-.56-.234-.7948-.14-.2337-.39-.452-.748-.6544-.342-.2026-.64-.3585-.888-.4675-.25-.1247-.64-.2883-1.17-.491l-1.496-.6545c-.358-.187-.74-.4285-1.145-.7246-.39-.296-.678-.631-.865-1.005-.17-.374-.257-.8103-.257-1.309 0-.935.4-1.683 1.17-2.244.795-.5765 1.8-.8648 3.015-.8648 1.714 0 3.11.6155 4.184 1.8466l-1.332 1.0986c-.873-.8104-1.84-1.2155-2.9-1.2155-.7 0-1.262.1247-1.683.374-.405.2493-.607.5843-.607 1.005 0 .452.2.818.63 1.0986.436.2805 1.098.592 1.987.935l.187.0702 1.168.4908c.25.0935.592.265 1.03.5143.452.2493.78.4908.982.7246s.39.5454.56.935c.17.374.257.7948.257 1.2622 0 1.044-.4 1.87-1.17 2.4777-.764.5922-1.808.8882-3.132.8882zm14.076 0c-1.59 0-2.844-.56-3.763-1.683s-1.38-2.649-1.38-4.5814.46-3.4516 1.38-4.558c.935-1.122 2.18-1.683 3.74-1.683 1.277 0 2.353.374 3.225 1.122v-4.815l1.987-.9584v16.8762h-1.987v-.9817c-.78.8415-1.846 1.2622-3.202 1.2622zm.257-1.8465c1.34 0 2.322-.5454 2.945-1.6362v-5.6566c-.685-1.0285-1.675-1.5427-2.968-1.5427-1.075 0-1.9.3818-2.478 1.1453s-.865 1.8544-.865 3.2724c0 1.2778.304 2.3375.912 3.179.608.826 1.426 1.239 2.454 1.239zm10.897 1.566l-2.99-11.9442h1.94l1.8 7.7602.187.9818.187-1.052 1.707-7.69h1.59l1.73 7.7135.2 1.0986c.03-.3273.102-.6934.21-1.0986l1.73-7.7135h1.94l-2.992 11.9442h-1.706l-1.683-7.4096-.257-1.2622-.234 1.2154-1.636 7.4564h-1.73zm19.102.2805c-2.026 0-3.04-.9973-3.04-2.992v-7.4564h-2.734v-1.7764h2.734V47.656l1.987-.9817v4.932h4.02v1.7764h-4.02v6.8253c0 .5922.117 1.044.35 1.3557.25.296.71.444 1.38.444.732 0 1.465-.218 2.197-.6544l-.234 1.94c-.685.3584-1.566.5376-2.64.5376zm16.344-.2805l-3.693-7.2694-2.128 2.1738v5.0956h-1.986V47.6327l1.986-.9584v9.5133l4.348-4.5813h2.338l-3.156 3.2256 4.464 8.7186h-2.173zm11.014.2805c-1.6 0-2.844-.56-3.763-1.683s-1.38-2.649-1.38-4.5814.46-3.4516 1.38-4.558c.935-1.122 2.18-1.683 3.74-1.683 1.277 0 2.353.374 3.225 1.122v-4.815l1.987-.9584v16.8762h-1.987v-.9817c-.78.8415-1.846 1.2622-3.202 1.2622zm.257-1.8465c1.34 0 2.322-.5454 2.945-1.6362v-5.6566c-.685-1.0285-1.675-1.5427-2.968-1.5427-1.076 0-1.9.3818-2.478 1.1453s-.865 1.8544-.865 3.2724c0 1.2778.304 2.3375.912 3.179.607.826 1.426 1.239 2.454 1.239zm13.726 1.8465c-1.294 0-2.33-.3428-3.11-1.0284-.78-.7013-1.17-1.6986-1.17-2.992s.436-2.275 1.31-2.9452c.888-.67 1.98-1.005 3.272-1.005 1.185 0 2.26.257 3.226.7714v-.9116c0-1.7765-.84-2.6647-2.524-2.6647-1.23 0-2.494.4207-3.787 1.2622l-.584-1.6596c1.433-.8882 2.953-1.3323 4.558-1.3323.514 0 .997.0623 1.45.187.452.109.896.3117 1.332.6077.452.2805.803.7168 1.052 1.31.265.592.397 1.309.397 2.1504v7.9706h-1.893V62.452c-.997.9194-2.174 1.379-3.53 1.379zm.257-1.7297c1.246 0 2.337-.5454 3.272-1.6362v-2.057c-.92-.56-1.917-.8415-2.992-.8415-.84 0-1.542.1948-2.103.5844-.56.374-.842.9272-.842 1.6596 0 .6856.234 1.2388.7 1.6595s1.122.631 1.964.631zm14.52 1.7297c-1.075 0-2.04-.1948-2.898-.5843s-1.504-.8493-1.94-1.379l1.145-1.496c1.106 1.0753 2.337 1.613 3.693 1.613 1.044 0 1.9-.3507 2.57-1.052.686-.7168 1.03-1.5972 1.03-2.6413 0-1.013-.273-1.8465-.818-2.5-.53-.6545-1.255-.9817-2.174-.9817-1.2 0-2.22.483-3.062 1.4492l-1.777-.6545 1.1-8.4147h7.9v1.87h-6.17l-.748 5.002c.826-.7792 1.846-1.1687 3.062-1.1687 1.418 0 2.563.4986 3.436 1.496.888.9973 1.332 2.2673 1.332 3.8s-.522 2.8673-1.566 3.9737-2.415 1.6595-4.114 1.6595zm10.033 4.441V51.6063h1.986v1.0285c.904-.8727 1.972-1.31 3.203-1.31 1.605 0 2.867.56 3.786 1.683.935 1.122 1.403 2.6413 1.403 4.558 0 1.948-.476 3.4828-1.426 4.6048-.95 1.1063-2.182 1.6595-3.693 1.6595-1.372 0-2.462-.4675-3.273-1.4024v4.8852l-1.986.9583zm5.002-6.2876c1.06 0 1.877-.3818 2.454-1.1454.592-.7635.888-1.8543.888-3.2724 0-1.3557-.304-2.431-.91-3.2256-.593-.7947-1.426-1.192-2.5-1.192-1.325 0-2.307.5454-2.946 1.6362v5.5864c.795 1.0753 1.8 1.613 3.016 1.613zm17.138-10.6587c1.106 0 1.98.187 2.618.56v4.1372h-1.987v-2.7114c-.156-.0156-.397-.0234-.725-.0234-1.215 0-2.244.296-3.085.8883-.826.592-1.24 1.4258-1.24 2.5v5.0956h3.483v1.7764h-8.017V61.774h2.5v-8.3914h-2.5v-1.7764h4.394v2.0803c.405-.7168 1.036-1.2856 1.893-1.7063.873-.4363 1.76-.6545 2.665-.6545zM28.672 100.55l4.4177-6.1713-4.1372-5.7734h2.2205l2.43 3.3893.5843.8882c.0156-.0312.0935-.1558.2338-.374l.3506-.5142 2.431-3.3893h2.2205l-4.1372 5.7734 4.4177 6.1713H37.484l-2.7114-3.787-.3506-.491-.2338-.3973-.3038.444-.2805.444-2.7115 3.787H28.672zm23.987-1.403c-1.013 1.122-2.3686 1.683-4.067 1.683s-3.0542-.553-4.067-1.6595-1.5194-2.6335-1.5194-4.5814c0-1.9323.5065-3.4594 1.5194-4.5814s2.3686-1.683 4.067-1.683c1.714 0 3.0698.5532 4.067 1.6596 1.013 1.1064 1.5193 2.6335 1.5193 4.5813 0 1.9323-.5064 3.4594-1.5193 4.5814zm-4.067-.1636c1.122 0 1.9946-.3896 2.618-1.1688.6233-.7947.935-1.8777.935-3.25 0-1.3868-.304-2.47-.9116-3.25S49.745 90.15 48.5918 90.15s-2.0336.3896-2.6413 1.1687c-.6077.7636-.9116 1.8544-.9116 3.2724 0 1.3713.304 2.4465.9116 3.2256.6233.7792 1.5037 1.1688 2.6413 1.1688zm18.4706.1636c-1.013 1.122-2.3686 1.683-4.067 1.683s-3.0543-.553-4.0672-1.6595-1.5193-2.6335-1.5193-4.5814c0-1.9323.5065-3.4594 1.5193-4.5814s2.3686-1.683 4.0672-1.683c1.714 0 3.0698.5532 4.067 1.6596 1.013 1.1064 1.5193 2.6335 1.5193 4.5813 0 1.9323-.5064 3.4594-1.5193 4.5814zm-4.067-.1636c1.122 0 1.9946-.3896 2.618-1.1688.6233-.7947.935-1.8777.935-3.25 0-1.3868-.3038-2.47-.9115-3.25S64.1484 90.15 62.9953 90.15s-2.0336.3896-2.6413 1.1687c-.6078.7636-.9116 1.8544-.9116 3.2724 0 1.3713.3038 2.4465.9116 3.2256.6233.7792 1.5037 1.1688 2.6413 1.1688zm19.6393-4.932c0 .5142-.0234.9505-.0702 1.31h-8.3446c.156 1.153.5298 2.057 1.122 2.7114.6077.639 1.3947.9583 2.3608.9583 1.013 0 1.94-.3428 2.7815-1.0285l1.122 1.31c-1.122 1.0133-2.4465 1.5193-3.9736 1.5193-1.6674 0-2.9997-.592-3.997-1.7764-.9817-1.1843-1.4726-2.6803-1.4726-4.488 0-1.9478.491-3.475 1.4726-4.5813.9973-1.1064 2.3296-1.6596 3.997-1.6596 1.4648 0 2.6646.483 3.5996 1.4492s1.4025 2.392 1.4025 4.2775zm-8.4615-.4207h6.4747c-.0312-1.2623-.343-2.166-.935-2.7115s-1.2856-.818-2.0803-.818c-1.0597 0-1.8856.3117-2.4777.935-.5766.6233-.9038 1.4882-.9817 2.5946zm17.9096-7.2227c-.3428 0-.639-.117-.8882-.3506-.2338-.2493-.3506-.5454-.3506-.8882 0-.3584.1168-.6623.3506-.9116.2493-.2493.5454-.374.8882-.374.3584 0 .6545.1247.8882.374.2493.2493.374.5532.374.9116s-.1247.6545-.374.8882c-.2337.2337-.5298.3506-.8882.3506zm1.005 12.365h3.2958v1.777h-8.5784v-1.777H91.1v-8.3914h-3.2958v-1.7764h5.2826V98.774zm12.7442 2.057c-1.6 0-2.844-.56-3.764-1.683s-1.38-2.649-1.38-4.5814.46-3.4516 1.38-4.558c.935-1.122 2.182-1.683 3.74-1.683 1.278 0 2.353.374 3.226 1.122v-4.815l1.987-.9584V100.55h-1.987v-.9822c-.78.8412-1.847 1.2622-3.202 1.2622zm.257-1.8465c1.34 0 2.322-.5454 2.945-1.6362v-5.6566c-.686-1.0285-1.675-1.5427-2.97-1.5427-1.075 0-1.9.3818-2.477 1.1453s-.865 1.8544-.865 3.2724c0 1.2778.304 2.3375.912 3.179.607.826 1.425 1.239 2.454 1.239zm9.728 6.2875V88.6063h1.987v1.0285c.904-.8727 1.97-1.31 3.203-1.31 1.605 0 2.867.56 3.786 1.683.935 1.122 1.403 2.6413 1.403 4.558 0 1.948-.476 3.4828-1.426 4.6048-.95 1.1065-2.182 1.6595-3.693 1.6595-1.372 0-2.462-.467-3.273-1.4024v4.8854l-1.987.958zm5.003-6.2875c1.06 0 1.877-.3818 2.454-1.1454.592-.7635.888-1.8543.888-3.2724 0-1.3557-.304-2.431-.912-3.2256-.592-.7947-1.425-1.192-2.5-1.192-1.324 0-2.306.5454-2.945 1.6362v5.5864c.795 1.0753 1.8 1.613 3.016 1.613zm14.707 1.8465c-1.278 0-2.384-.436-3.32-1.309v1.029h-1.987V84.6327l1.987-.9584v6.0306c.374-.4208.85-.7558 1.426-1.005s1.184-.374 1.823-.374c1.542 0 2.773.56 3.693 1.683.92 1.1064 1.38 2.6258 1.38 4.558 0 2.0102-.444 3.5607-1.332 4.6515-.873 1.0748-2.096 1.6128-3.67 1.6128zm-.304-1.8465c1.075 0 1.886-.3896 2.43-1.1688.56-.779.84-1.862.84-3.25 0-1.4336-.28-2.5244-.84-3.2724-.545-.7635-1.356-1.1453-2.43-1.1453-.686 0-1.3.1714-1.847.5142-.53.3273-.92.6935-1.168 1.0986v5.5865c.31.5142.732.9194 1.262 1.2154.53.2805 1.114.4208 1.753.4208zm17.02 6.2405v-5.7964c-.857.9354-1.924 1.4024-3.202 1.4024-1.574 0-2.836-.553-3.787-1.6595-.934-1.1064-1.402-2.6335-1.402-4.5814 0-1.9323.46-3.4594 1.38-4.5814.935-1.122 2.213-1.683 3.833-1.683 1.154 0 2.213.4363 3.18 1.31v-1.0285h1.987v15.7077l-1.987.91zm-3.038-6.2405c1.137 0 2.15-.5532 3.038-1.6596v-5.5397c-.64-1.0908-1.612-1.6362-2.92-1.6362-1.06 0-1.894.4207-2.5 1.2622-.608.826-.912 1.8855-.912 3.179 0 1.4336.28 2.5244.84 3.2724s1.38 1.122 2.455 1.122zm17.56-10.6587c1.106 0 1.98.187 2.618.56v4.1372h-1.987v-2.7114c-.156-.0156-.398-.0234-.725-.0234-1.215 0-2.244.296-3.085.8883-.826.592-1.24 1.4258-1.24 2.5v5.0956h3.483v1.777h-8.018v-1.777h2.5v-8.3914h-2.5v-1.7764h4.395v2.0803c.405-.7168 1.036-1.2856 1.893-1.7063.873-.4363 1.76-.6545 2.665-.6545zm11.972 12.5052c-1.278 0-2.384-.436-3.32-1.309v1.029h-1.987V84.6327l1.987-.9584v6.0306c.374-.4208.85-.7558 1.426-1.005s1.184-.374 1.823-.374c1.543 0 2.774.56 3.693 1.683.92 1.1064 1.38 2.6258 1.38 4.558 0 2.0102-.444 3.5607-1.332 4.6515-.873 1.0748-2.096 1.6128-3.67 1.6128zm-.304-1.8465c1.076 0 1.886-.3896 2.43-1.1688.56-.779.842-1.862.842-3.25 0-1.4336-.28-2.5244-.842-3.2724-.545-.7635-1.355-1.1453-2.43-1.1453-.685 0-1.3.1714-1.846.5142-.53.3273-.92.6935-1.17 1.0986v5.5865c.312.5142.733.9194 1.262 1.2154.53.2805 1.115.4208 1.753.4208zm15.222-.374h4.02v1.9405h-10.097v-1.9405h4.067V86.8532l-3.576 1.192v-1.94l5.586-1.9868v14.492zm16.484-10.2847c.997 0 1.73.3272 2.197.9817.483.6545.725 1.7063.725 3.1555v8.088h-1.94v-7.3166c0-1.0908-.093-1.87-.28-2.3374s-.56-.7013-1.122-.7013c-.577 0-1.005.2883-1.286.865s-.42 1.34-.42 2.2907v7.1997h-1.94v-7.527c0-.9038-.094-1.5972-.28-2.0803-.17-.4986-.522-.748-1.052-.748-.576 0-1.02.296-1.332.8883-.312.5765-.468 1.3323-.468 2.2673v7.1997H201V88.6063h1.824V90.15c.467-1.2155 1.238-1.8232 2.314-1.8232.592 0 1.1.1792 1.496.5376s.685.787.84 1.2856c.67-1.2155 1.558-1.8232 2.665-1.8232zm6.456 12.2252V84.6093l1.987-.935v6.2176c.748-1.044 1.846-1.566 3.296-1.566s2.547.4285 3.295 1.2856 1.122 2.2205 1.122 4.0905v6.849h-1.987v-7.1062c0-1.1376-.257-1.9713-.77-2.501-.5-.5298-1.17-.7947-2-.7947-1.963 0-2.945 1.083-2.945 3.25v7.153h-1.987zm13.726 0l4.417-6.1713-4.137-5.7734h2.22l2.43 3.3893.584.8882c.016-.0312.093-.1558.234-.374l.35-.5142 2.43-3.3893h2.22l-4.137 5.7734 4.417 6.1713h-2.22l-2.712-3.787-.35-.491-.234-.3973-.304.444-.28.444-2.712 3.787h-2.22zm15.128 4.72V88.6063h1.986v1.0285c.904-.8727 1.972-1.31 3.203-1.31 1.605 0 2.867.56 3.786 1.683.935 1.122 1.403 2.6413 1.403 4.558 0 1.948-.475 3.4828-1.426 4.6048-.95 1.1065-2.182 1.6595-3.693 1.6595-1.37 0-2.462-.467-3.273-1.4024v4.8854l-1.986.958zm5.002-6.2875c1.06 0 1.877-.3818 2.454-1.1454.592-.7635.888-1.8543.888-3.2724 0-1.3557-.304-2.431-.91-3.2256-.592-.7947-1.426-1.192-2.5-1.192-1.325 0-2.307.5454-2.946 1.6362v5.5864c.795 1.0753 1.8 1.613 3.016 1.613zm17.138-10.6587c1.106 0 1.98.187 2.618.56v4.1372h-1.987v-2.7114c-.156-.0156-.397-.0234-.724-.0234-1.216 0-2.244.296-3.086.8883-.826.592-1.24 1.4258-1.24 2.5v5.0956h3.483v1.777h-8.017v-1.777h2.5v-8.3914h-2.5v-1.7764h4.394v2.0803c.405-.7168 1.036-1.2856 1.893-1.7063.873-.4363 1.76-.6545 2.665-.6545zm10.664 12.5052c-1.294 0-2.33-.343-3.11-1.0284-.78-.7013-1.17-1.6986-1.17-2.992s.436-2.275 1.31-2.9452c.888-.67 1.98-1.005 3.272-1.005 1.185 0 2.26.257 3.226.7714v-.9116c0-1.7765-.84-2.6647-2.524-2.6647-1.23 0-2.494.4207-3.787 1.2622l-.584-1.6596c1.433-.8882 2.953-1.3323 4.558-1.3323.514 0 .997.0623 1.45.187.452.109.896.3117 1.332.6077.452.2805.803.7168 1.052 1.31.265.592.397 1.309.397 2.1504v7.971h-1.893v-1.099c-.997.919-2.174 1.379-3.53 1.379zm.257-1.7297c1.246 0 2.337-.5454 3.272-1.6362v-2.057c-.92-.56-1.917-.8415-2.992-.8415-.84 0-1.542.1948-2.103.5844-.56.374-.842.9272-.842 1.6596 0 .6856.234 1.2388.7 1.6595s1.122.631 1.964.631zm19.008.0468c-1.013 1.122-2.37 1.683-4.067 1.683s-3.054-.553-4.067-1.6595-1.52-2.6335-1.52-4.5814c0-1.9323.507-3.4594 1.52-4.5814s2.368-1.683 4.067-1.683c1.714 0 3.07.5532 4.067 1.6596 1.013 1.1064 1.52 2.6335 1.52 4.5813 0 1.9323-.506 3.4594-1.52 4.5814zm-4.067-.1636c1.122 0 1.994-.3896 2.618-1.1688.623-.7947.935-1.8777.935-3.25 0-1.3868-.304-2.47-.912-3.25s-1.488-1.1687-2.64-1.1687-2.034.3896-2.64 1.1687c-.608.7636-.912 1.8544-.912 3.2724 0 1.3713.304 2.4465.912 3.2256.623.7792 1.503 1.1688 2.64 1.1688zm9.425-14.796h9.934v1.496c-.998 1.153-1.847 2.4153-2.548 3.7866-.686 1.3713-1.2 2.7348-1.543 4.0905-.327 1.3402-.56 2.5634-.7 3.6698s-.2 2.2128-.2 3.3196h-2.01c.016-2.7742.374-5.322 1.076-7.6438.7-2.3375 1.916-4.6437 3.646-6.9188h-7.643v-1.7998z" fill-opacity=".5"/><path d="M152.154 239.605H93.7104v-5.235h58.4436v5.235zm0 18.395H93.7104v-5.235h58.4436V258zm71.94-35.684c-6.94 0-12.298 3.165-15.342 8.523-2.8-5.114-7.67-8.523-13.88-8.523-5.6 0-10.106 2.678-13.27 6.94V223.3h-15.585v48.702H181.6v-28.247c0-3.53 2.2-7.67 6.94-7.67 4.26 0 7.062 3.4 7.062 7.67v28.247h15.584v-28.247c0-3.53 2.192-7.67 6.94-7.67 4.262 0 7.184 3.4 7.184 7.67v28.247h15.463v-30.804c0-11.323-5.966-18.872-16.68-18.872zm80.507 29.952c-2.07 12.176-12.054 20.698-26.664 20.698-16.316 0-27.152-10.714-27.152-25.325s10.836-25.325 27.152-25.325c14.6 0 24.594 8.523 26.664 20.698h-16.072c-1.582-4.14-5.6-6.818-10.592-6.94-6.697.122-11.567 4.992-11.567 11.567s4.87 11.445 11.567 11.567c4.992-.122 9-2.8 10.592-6.94H304.6z"/></g><path fill-rule="evenodd" d="M56.1637 222.194c15.95 0 26.7865 10.106 26.9082 25.325l-.1217 2.68H45.2057c.6087 6.94 4.018 11.202 11.2016 11.202 5.48 0 9.3752-2.314 10.7145-6.2h15.0978c-2.435 10.593-11.6886 17.777-25.6906 17.777-16.437 0-27.7604-10.106-27.7604-25.326s11.445-25.447 27.395-25.447zm10.471 18.63c-1.5828-4.262-4.8703-6.697-10.2275-6.697-5.6008 0-8.7665 2.557-10.3493 6.697h20.5768z" class="H"/><g class="B"><path d="M132.046 387.176c14.12 0 26.1-8.322 26.1-22.444 0-28-34.8-21.056-34.8-34.17 0-4.287 3.278-6.305 7.313-6.305 4.287 0 8.574 2.396 12.356 6.557l11.096-10.6c-5.548-6.43-13.996-10.718-23.326-10.718-11.978 0-24.2 7.187-24.2 22.318 0 25.72 34.926 19.543 34.926 32.782 0 4.16-3.53 6.935-9.33 6.935-6.935 0-12.357-3.9-15.13-9.835l-13.743 8.574c4.917 9.457 15.5 16.896 28.748 16.896zm42.014-70.106v6.683l49.048 23.2-49.048 23.2v6.8l55.605-26.48v-7.06L174.06 317.07zm0 69.096h55.605v-4.917H174.06v4.917z"/></g><g class="K"><path d="M68.2338 310.515h-9.0783l-30.387 75.652h69.726l-30.26-75.652zM40.3686 378.98l23.326-59.26 23.2 59.26h-46.526zm236.8154 8.196c18.66 0 28.244-15.76 28.244-38.835s-9.583-38.835-28.244-38.835c-18.913 0-28.37 15.76-28.37 38.835s9.457 38.835 28.37 38.835zm0-14.248c-9.204 0-12.23-9.835-12.23-24.587s3.026-24.587 12.23-24.587c9.078 0 12.104 9.835 12.104 24.587s-3.026 24.587-12.104 24.587z"/></g><g class="B"><path d="M109.798 477.448h4.835v-18.575h18.575v-4.92h-18.575V435.38h-4.835v18.575H91.1382v4.92h18.6598v18.575zm98.525-22.56h40.712v-3.647h-40.712v3.647zm0 12.807h40.712v-3.647h-40.712v3.647zM310.398 440.9l2.7-3.52c2.606-3.45 3.45-4.823 3.486-7.287.035-3.486-2.817-6.1-6.584-6.1-3.873 0-7.393 2.816-6.97 6.83h5c-.282-1.408.598-2.253 1.725-2.253.704 0 1.866.28 1.866 1.936 0 .8-.176 1.303-2.183 4.014l-8.133 10.914h15.562V440.9h-6.478z"/></g><g class="H"><path d="M78.6708 440.9l2.7-3.52c2.6053-3.45 3.4503-4.823 3.4855-7.287.0352-3.486-2.8166-6.1-6.5837-6.1-3.8728 0-7.3935 2.816-6.97 6.83h4.9995c-.2817-1.408.5985-2.253 1.725-2.253.7042 0 1.866.28 1.866 1.936 0 .8-.176 1.303-2.1828 4.014l-8.133 10.914H85.15V440.9h-6.4782zm116.5022 0l2.7-3.52c2.606-3.45 3.45-4.823 3.486-7.287.035-3.486-2.817-6.1-6.584-6.1-3.873 0-7.393 2.816-6.97 6.83h5c-.28-1.408.6-2.253 1.726-2.253.704 0 1.866.28 1.866 1.936 0 .8-.177 1.303-2.183 4.014l-8.133 10.914h15.56V440.9h-6.478zm84.575 35.947c10.178 0 17.133-5.937 18.575-14.42h-11.196c-1.103 2.884-3.902 4.75-7.38 4.834-4.665-.084-8.058-3.477-8.058-8.057s3.393-7.973 8.058-8.058c3.477.085 6.276 1.95 7.38 4.835h11.196c-1.442-8.482-8.397-14.42-18.575-14.42-11.366 0-18.915 7.464-18.915 17.642s7.55 17.642 18.915 17.642z"/></g><g class="B"><path d="M166.48 441.563c-3.902 0-7.125 1.357-9.67 3.647v-27.142h-10.857v58.1l10.857.085V473.2c2.544 2.3 5.767 3.647 9.67 3.647 9.33 0 16.7-7.804 16.7-17.642s-7.38-17.642-16.7-17.642zm-2.12 25.7c-4.495 0-8.057-3.562-8.057-8.057s3.562-8.058 8.057-8.058 8.058 3.562 8.058 8.058-3.562 8.057-8.058 8.057zm-98.3988.084c-1.2723 0-2.1204-1.6-2.1204-4.4v-7.2c0-8.65-6.7006-14.164-16.6242-14.164s-16.5394 4.92-16.5394 12.553h10.8566c0-2.714 2.375-4.326 5.6828-4.326 3.3927 0 5.7676 1.866 5.7676 4.835v2.544h-11.62c-6.53 0-10.687 3.902-10.687 9.924 0 5.937 4.9194 9.754 12.4682 9.754 5.0042 0 9.33-1.78 11.9592-4.75 1.9508 3.053 5.1738 4.75 9.245 4.75 1.0178 0 2.3-.255 3.3927-.68v-8.82H65.961zm-19.7624 2.206c-2.8 0-4.58-1.103-4.58-2.884s1.357-2.97 3.4775-2.97h7.888c-.424 3.562-2.9686 5.853-6.7854 5.853z"/></g><g class="H"><path d="M334.653 221.602l-4.963 6.446h11.86v8.316h-28.49l14.9-19.983c3.674-4.963 3.996-5.866 3.996-7.348 0-3.03-2.127-3.545-3.416-3.545-2.063 0-3.674 1.547-3.16 4.125h-9.153c-.773-7.348 5.672-12.505 12.763-12.505 6.897 0 12.118 4.77 12.054 11.15-.065 4.513-1.612 7.026-6.382 13.343z"/><path d="M201.796 876.857c-5.686-.83-12.897-3.614-22.046-8.512-1.33-.71-1.866-2.447-1.148-3.79.71-1.33 2.447-1.867 3.8-1.148 8.45 4.52 15.25 7.18 20.214 7.906 3.24.474 5.57.112 6.93-1.08 1.524-1.335 1.387-3.696.99-8.107-.467-5.165-1.05-11.595 2.215-18.984 4.927-11.167 17.204-21.785 30.135-19.788 8.213 1.27 16.082 7.412 17.888 15.744 1.538 7.096-.674 16.818-8.234 19.535-5.014 1.79-10.743-.265-14.653-3.593-1.17-.97-1.338-2.8-.342-3.97.986-1.157 2.816-1.303 3.973-.293.048.04 4.89 4.104 9.126 2.582 4.798-1.722 5.573-8.84 4.654-13.078-1.316-6.073-7.346-10.48-13.272-11.397-10.397-1.605-20.248 7.67-24.158 16.517-2.678 6.066-2.19 11.46-1.76 16.218.448 4.91.864 9.547-2.875 12.822-3.098 2.733-7.51 3.002-11.425 2.413z" class="C D E"/></g><g class="B"><path d="M259.083 840.447c1.238 5.715.132 12.83-4.236 17.032 5.757-3.774 7.287-12.046 5.916-18.375-1.807-8.333-9.675-14.474-17.888-15.746-7.42-1.146-14.76 2.078-20.33 6.8 12.78-9.043 32.845-6.76 36.54 10.278zm-7.73 12.603c-3.027 3.52-8.465 1.7-11.523-.922-.35-.3-.772-.508-1.224-.606s-.92-.082-1.366.046c.445-.817 1.303-1.37 2.232-1.444a2.796 2.796 0 0 1 2.038.659c2.472 2.184 6.702 3.94 9.843 2.267zm-72.135 10.688c.392-.336 1.736-1.008 2.576-.616l2.77 1.347c5.535 2.734 14.276 7.052 20.58 7.052 5.6 0 6.103-2.8 5.32-10.2.095.428.216.9.343 1.4 1.078 4.228 2.697 10.582-5.662 10.582-9.127 0-23.382-7.903-25.926-9.575z" fill-opacity=".25"/></g><path d="M124.735 860.77c4.088 0 7.354-3.65 6.948-7.663-.607-7.113 2.086-14.804 7.386-22.217 4.822-6.747 9.99-10.444 6.015-14.804s-12.942.44-17.403 6.663c-7.36 10.294-10.884 21.178-9.926 31.77.358 3.525 2.893 6.252 6.98 6.252z" class="C D E H"/><path d="M120.937 850.934c-.046-12.574 10.036-31.095 21.85-36.303-14.56-2.352-27.438 26.15-24.942 39.395.808-1.318 2.208-2.606 3.09-3.092z" class="B F"/><path d="M166.437 894.313c.56-9.753 3.068-17.295 5.282-23.16s4.75-16.205-4.766-18.593c-13.607-3.414-21.09 28.46-21.647 38.182-.33 5.72 4.123 12.356 9.9 12.688 5.318.258 10.913-3.56 11.232-9.116z" class="C D E H"/><g class="B F"><path d="M145.172 890.728c5.767-.784 16.574-.784 21.1 3.807l.186-1.684c-4.722-4.14-15.473-4.42-21.057-3.635-.03.37-.2 1.135-.24 1.512zm1.792-10.023c5.348 4.96 12.193 7.742 19.934 8.8.065-.56.202-1.364.28-1.904-7.683-.994-14.357-4.2-19.7-9.07-.224.672-.406 1.7-.504 2.184z"/></g><path d="M175.537 894.313c-.56-9.753-3.068-17.295-5.282-23.16s-4.75-16.205 4.766-18.593c13.607-3.414 21.09 28.46 21.648 38.182.328 5.72-4.124 12.356-9.9 12.688-5.317.258-10.913-3.56-11.232-9.116z" class="C D E H"/><g class="B F"><path d="M196.803 890.728c-5.767-.784-16.574-.784-21.1 3.807l-.186-1.684c4.722-4.14 15.473-4.42 21.057-3.635.03.37.2 1.135.24 1.512zM195 880.705c-5.35 4.96-12.193 7.742-19.934 8.8-.065-.56-.202-1.364-.28-1.904 7.682-.994 14.357-4.2 19.7-9.07.224.672.405 1.7.504 2.184z"/></g><path d="M217.24 860.77c-4.088 0-7.354-3.65-6.948-7.663.607-7.113-2.086-14.804-7.386-22.217-4.822-6.747-9.99-10.444-6.015-14.804s12.942.44 17.403 6.663c7.36 10.294 10.885 21.178 9.926 31.77-.358 3.525-2.893 6.252-6.98 6.252z" class="C D E H"/><path d="M221.038 850.934c.046-12.574-10.036-31.095-21.85-36.303 14.558-2.352 27.437 26.15 24.94 39.395-.808-1.318-2.208-2.606-3.09-3.092z" class="B F"/><path d="M297.892 713.518c12.442 11.423 7.427 34.637-1.018 47.837-12.034 18.815-39.585 30.657-53.694 20.648-14.736-10.454-12.812-43.33 4.4-60.4 12.843-12.742 37.455-19.9 50.322-8.086z" class="C D E I"/><path d="M283.367 726.967c7.39 7.637 3.37 22.026-2.425 30-8.26 11.36-26 17.772-34.486 10.96-8.863-7.114-6.427-27.686 5.01-37.76 8.54-7.522 24.262-11.096 31.9-3.2z" fill="#ffc9a1"/><path d="M296.874 761.355c-6.796 10.622-21.85 22.758-38.815 24.27 11.91-2.8 29.12-15 34.34-23.15 8.445-13.2 12.92-37.962 1.018-47.838-3.63-3.012-12.848-7.293-25.503-5.053 15.454-4.76 24.95-.686 29.983 3.933 12.437 11.422 7.422 34.638-1.023 47.838z" class="B G"/><path d="M44.083 713.518c-12.442 11.423-7.4272 34.638 1.018 47.838 12.0345 18.814 39.585 30.657 53.6947 20.648 14.7355-10.455 12.8115-43.332-4.4-60.4-12.843-12.742-37.455-19.9-50.3226-8.087z" class="C D E I"/><path d="M58.608 726.967c-7.3913 7.637-3.371 22.026 2.4246 30 8.2593 11.362 26.0007 17.772 34.4862 10.96 8.8633-7.114 6.4273-27.686-5.0115-37.76-8.5404-7.522-24.2615-11.096-31.8993-3.2z" fill="#ffc9a1"/><path d="M45.101 761.355c6.7966 10.622 21.849 22.76 38.8156 24.27-11.9113-2.8-29.1192-15-34.3405-23.15-8.445-13.2-12.9192-37.96-1.018-47.838 3.6294-3.012 12.8485-7.292 25.5034-5.053-15.4546-4.76-24.9502-.686-29.983 3.933-12.4376 11.422-7.4227 34.638 1.0225 47.838z" class="B G"/><path d="M170.99 793.69c17.247 0 24.638 15.118 29.118 27.55s6.495 24.638 6.495 32.7c0 17.023-15.53 34.21-35.613 34.38-19.657.17-35.613-17.358-35.613-34.38 0-8.063 1.983-20.326 6.496-32.7 4.48-12.43 11.87-27.55 29.117-27.55z" class="C D E H"/><path d="M170.987 888.32c-19.673.18-36.957-17.582-35.613-37.74 1.12 16.574 16.256 32.306 35.613 32.14s34.493-15.567 35.613-32.14c1.344 20.158-15.94 37.562-35.613 37.74z" class="B F"/><path d="M170.987 807.575c11.647 0 17.92 7.616 19.487 14.335 3.862 16.555 7.167 30.685.448 39.197s-15.113 9.183-19.935 9.183c-5.325 0-13.214-.672-19.934-9.183s-3.633-21.708.448-39.197c1.568-6.72 7.84-14.335 19.486-14.335z" class="C D E I"/><g class="B"><path d="M170.987 870.3c-15.23 0-25.086-10.527-23.854-24.2.448 12.88 10.75 21.278 23.854 21.278s23.406-8.4 23.854-21.278c1.232 13.663-8.624 24.2-23.854 24.2z" class="G"/><path d="M215.224 823.926c-12.917 5.064-30.35 8.847-44.236 8.847s-29.043-2.96-44.236-8.847c-.81 1.18-1.86 2.942-2.576 4.144 15.903 6.383 30.797 9.63 46.812 9.63s30.91-3.248 46.812-9.63c-.69-1.2-1.784-2.952-2.576-4.144z" class="F"/></g><path d="M227.02 602.298c4.74-4.015-13.923-8.51-16.41-15.62-3-8.57 44.302 14.233 37.133 29.238-.56 1.177-6.208 10.527-46.768-2.662 44.59 14.467 78.354 45.145 78.195 101.93-.122 43.536-39.204 110.96-108.23 111.562-66.59.58-108.254-66.77-108.134-111.562.1478-54.7 48.394-110.975 108.182-115.182 35.77-2.514 52.108 5.61 56.03 2.296z" stroke-linejoin="round" class="C D H"/><g class="B F"><path d="M234.283 604.8c-3.322 7.297-23.72-4.48-59.5-1.964C101.6 607.98 48.5858 689.202 77.9674 755.04c7.63-7.882 16.9262-10.122 19.8883-11.105.8892.96 1.97 1.98 2.3573 2.44-9.112 2.84-19.702 9.005-24.2603 17.565-8.5414-16.53-13.1028-33.884-13.0568-48.753.1478-54.7 48.404-110.982 108.192-115.2 35.77-2.514 52.026 5.6 55.95 2.3 4.724-4.004-13.938-8.5-16.423-15.6-.96-2.74 3.227-2.27 9.133.126-2.24-.322-3.472.205-2.862 1.778 2.17 5.643 20.192 10.08 17.398 16.22zm44.72 110.392c-.04 14.305-4.27 31.2-12.38 47.435-8.395-11.494-23.432-16.086-24.97-16.086l2.24-2.744c2.632.616 14.404 3.126 20.974 11.894 6.64-14.8 9.7-28.576 9.725-41.533.164-58.7-39.602-87.894-73.618-100.905 44.6 14.467 78.187 45.152 78.028 101.94z"/></g><path d="M140.19 643.118c-33.26 0-74.4733 70.386-40.7083 102.863-64.4502 20.158.0001 87.24 71.5053 87.24s135.956-67.082 71.506-87.24c33.765-32.477-7.448-102.863-40.71-102.863-14.166 0-21.894 6.552-30.797 13.047-8.903-6.495-16.63-13.047-30.797-13.047z" fill="#ffcd98" class="C D"/><g class="B"><path d="M254.88 711.824c-1.758-34.553-29.678-68.67-53.923-68.67-15.074 0-24.213 9.2-29.97 13.012-4.603-3.14-14.838-13.012-30.058-13.012-28.624 0-53.5422 41.793-53.9936 69.737-2.5164-30.07 20.5616-75.203 54.1506-75.203 17.47 0 26.765 8.4 29.9 11.87 3.136-3.472 12.43-11.87 29.9-11.87 33.332 0 56.387 42.724 53.99 74.137z" class="F"/><path d="M87.0375 710.747c-.7967 13.154 2.6896 25.76 12.4813 35.178-1.1676.365-2.293.858-3.3766 1.253 2.5005-.805 4.8898-1.375 7.6518-1.87-9.4676-9.107-14.9466-21.476-16.7565-34.562zm-11.3977 51.435c-15.222 27.467 37.4402 70.983 95.3482 70.983s111.225-43.995 95.164-71.434c10.68 25.098-40.208 67.234-95.164 67.234-54.627 0-105.235-41.635-95.3482-66.783zm170.4372-14.97l-7.895-1.904c9.555-9.2 15.048-21.705 16.806-34.925.883 13.284-2.576 26.036-12.458 35.54 1.268.397 2.378.856 3.547 1.288z" class="G"/></g><path d="M144.074 665.467c17.346 2.016 29.843 23.378 27.998 42.194-1.835 18.74-18.22 38.3-36.943 36.173-17-1.937-28.027-20.855-28.4-36.75-.482-21.296 18.013-43.863 37.335-41.617z" class="J"/><path d="M165.134 712.745c2.476-12.76-4.423-24.835-15.4-26.966s-21.9 6.486-24.375 19.247 4.423 24.835 15.41 26.967 21.9-6.486 24.376-19.248z" class="C D E K"/><path d="M146.485 725.774c6.553 0 11.865-5.94 11.865-13.267s-5.312-13.266-11.865-13.266-11.864 5.94-11.864 13.266 5.312 13.267 11.864 13.267z" class="B"/><path d="M156.978 703.235c.834-2.357-.494-4.978-2.968-5.853s-5.155.326-5.99 2.683.495 4.978 2.968 5.854 5.155-.326 5.99-2.684z" class="C D E J"/><g class="B"><path d="M152.6 668.148c-22.9-6.26-41.938 20.858-41.47 41.213.276 12.01 6.647 25.734 17.1 32.662-13.035-5.463-21.188-21.315-21.502-34.94-.485-21.3 18.01-43.854 37.333-41.61a24.378 24.378 0 0 1 8.54 2.675z" fill-opacity=".05"/><path d="M155.715 688.143c-12.637-3.592-23.825 7.312-26.1 19.087-1.876 9.67 1.576 18.95 8.102 23.893-9.17-3.583-14.584-14.55-12.346-26.08 2.477-12.767 13.39-21.378 24.378-19.246 2.118.412 4.144 1.207 5.976 2.347z" class="F"/></g><path d="M197.193 665.003c-17.306 2.316-29.43 23.894-27.258 42.677 2.162 18.702 18.885 37.975 37.57 35.515 16.963-2.233 27.662-21.34 27.744-37.24.11-21.296-18.777-43.534-38.055-40.953z" class="J"/><path d="M201.642 731.5c10.948-2.323 17.635-14.514 14.937-27.23s-13.76-21.142-24.708-18.82-17.635 14.515-14.937 27.23 13.76 21.142 24.708 18.82z" class="C D E K"/><path d="M195.83 725.342c6.552-.115 11.76-6.146 11.63-13.472s-5.543-13.17-12.094-13.057-11.76 6.146-11.63 13.47 5.543 13.172 12.094 13.058z" class="B"/><path d="M203.278 705.932c2.458-.918 3.74-3.562 2.865-5.904s-3.577-3.497-6.034-2.58-3.74 3.562-2.866 5.905 3.578 3.496 6.035 2.578z" class="C D E J"/><g class="B"><path d="M235.243 705.956c-.073 13.805-8.147 30.028-21.376 35.524 10.67-6.9 17.03-21.063 17.096-33.323.108-20.56-20.28-48.294-43.222-39.776 2.91-1.747 6.08-2.927 9.448-3.38 19.282-2.58 38.168 19.658 38.054 40.954z" fill-opacity=".05"/><path d="M204.034 730.795c6.815-4.888 10.37-14.455 8.272-24.335-2.508-11.82-14.165-22.556-26.736-18.333a17.705 17.705 0 0 1 6.309-2.7c10.948-2.324 22.01 6.1 24.71 18.814 2.497 11.77-3.042 23.09-12.556 26.554z" class="F"/><path d="M146.9 743.405c0 8.55 11.07 18.926 24.218 18.814 12.12-.106 23.937-10.364 23.937-18.79 0-17.037-48.155-17.294-48.155-.025z" class="G"/></g><path d="M146.574 741.39c0 8.55 11.224 18.927 24.556 18.815 12.29-.107 24.27-10.365 24.27-18.8 0-6.78-14.137-12.74-24.27-12.655-9.4.088-24.556 4.6-24.556 12.63z" fill="#7a5d43"/><path d="M146.75 739.908c4.676 6.13 13.963 11.304 24.397 11.223 9.655-.076 19.14-5.277 23.976-11.372.182.544.278 1.097.278 1.655 0 8.425-11.983 18.683-24.27 18.8-13.332.112-24.557-10.264-24.557-18.815 0-.508.06-1.002.177-1.48z" fill-opacity=".2" class="B"/><path d="M160.91 906.575c3.583 0 7.065-2.643 7.47-6.287 1.02-9.208-10.566-10.044-16.873-10.183-6.395-.14-17.25 1.07-19.152 8.093-1.663 6.137 4.086 8.377 8.174 8.377s5.487-1.36 10.413-1.36c4.302 0 6.385 1.36 9.97 1.36z" class="C D E I"/><path d="M160.797 904.11c-3.584 0-5.667-1.36-9.97-1.36-4.926 0-6.326 1.36-10.413 1.36-3.18 0-7.364-1.355-8.284-4.845-.754 5.33 4.555 7.308 8.396 7.308 4.087 0 5.487-1.36 10.413-1.36 4.302 0 6.385 1.36 9.97 1.36 4.8 0 8.175-3.824 7.38-8.988-.332 3.747-3.812 6.525-7.493 6.525z" class="B G"/><path d="M181.067 906.575c-3.584 0-7.066-2.643-7.47-6.287-1.02-9.208 10.566-10.044 16.873-10.183 6.395-.14 17.25 1.07 19.153 8.093 1.662 6.137-4.087 8.377-8.174 8.377s-5.488-1.36-10.413-1.36c-4.302 0-6.386 1.36-9.97 1.36z" class="C D E I"/><path d="M181.178 904.11c3.584 0 5.667-1.36 9.97-1.36 4.926 0 6.326 1.36 10.413 1.36 3.18 0 7.364-1.355 8.284-4.845.754 5.33-4.554 7.308-8.396 7.308-4.087 0-5.487-1.36-10.413-1.36-4.302 0-6.385 1.36-9.97 1.36-4.8 0-8.175-3.824-7.38-8.988.332 3.747 3.812 6.525 7.493 6.525z" class="B G"/><path d="M126.348 873.413c6.363.005 10.413-7.627 6.56-12.91 1.783-5.063-2.025-10.683-7.465-10.813-6.27-.15-9.896 6.552-9.24 12.222.614 5.298 4.202 11.495 10.143 11.5z" class="C D E I"/><path d="M116.205 861.914c.76 6.558 6.09 14.2 14.04 10.504-7.707-.986-13.103-14.055-9.307-21.484-.604.43-1.556.934-3.09 3.092-1.377 2.433-1.982 5.174-1.642 7.888z" class="B G"/><path d="M215.626 873.413c-6.363.005-10.413-7.627-6.56-12.91-1.782-5.063 2.025-10.683 7.465-10.813 6.272-.15 9.896 6.552 9.24 12.222-.613 5.298-4.202 11.495-10.143 11.5z" class="C D E I"/><path d="M225.77 861.914c-.76 6.558-6.09 14.2-14.04 10.504 7.707-.986 13.103-14.055 9.307-21.484.604.43 1.556.934 3.09 3.092 1.377 2.433 1.982 5.174 1.642 7.888z" class="B G"/><path d="M171.033 818.607c30.798 0 64.06-12.6 74.278-42.494 1.708-4.737-2.475-9.517-7.554-8.794-22.12 3.143-44.436 4.72-66.78 4.72s-44.66-1.578-66.78-4.72c-5.0758-.722-9.2 4.033-7.5552 8.794 10.3332 29.895 43.5942 42.494 74.3912 42.494z" fill="#3d0c0c"/><g class="J"><path d="M235.74 789.662c3.666-4.496 6.27-9.266 7.586-14.092.997-3.66-1.645-6.724-5.268-6.2-44.388 6.215-89.753 6.294-134.14.001-3.63-.5-6.2694 2.55-5.2727 6.2 1.3148 4.827 3.9167 9.596 7.5857 14.092 42.903 5.875 86.6 5.928 129.5 0zm-64.707 26.873c22.236.038 46.387-7.36 62.035-23.847-41.152 5.413-83.012 5.408-124.165.003 15.766 16.613 39.715 23.805 62.13 23.844z"/></g><g class="B G"><path d="M243.327 775.57c-1.316 4.825-3.92 9.595-7.586 14.1l-9.958 1.257c4.765-6.693 8.1-13.907 10.303-21.284l1.964-.274c3.632-.515 6.274 2.55 5.277 6.2zM106.23 789.662l10.03 1.266c-4.783-6.687-8.12-13.903-10.315-21.283l-2.03-.284c-3.628-.5-6.2688 2.55-5.272 6.2 1.3147 4.826 3.916 9.595 7.586 14.1zm2.67 3.025c8.774 9.245 20.425 15.872 32.5 19.458-9.68-5.08-17.267-11.4-23.138-18.323l-9.373-1.135zm91.917 19.368c12.006-3.6 23.514-10.162 32.25-19.367l-9.287 1.127c-5.854 6.88-13.4 13.157-22.964 18.24z"/></g><path d="M165.99 178.076c0 2.753 2.23 4.985 4.984 4.985s4.985-2.232 4.985-4.985V165.57h11.872c3.103 0 5.618-2.516 5.618-5.62v-2.102c0-1.242-1.006-2.248-2.247-2.248H175.96v-12.506c0-2.753-2.232-4.985-4.985-4.985s-4.984 2.232-4.984 4.985V155.6h-15.243c-1.242 0-2.248 1.006-2.248 2.248v2.102c0 3.103 2.516 5.62 5.62 5.62h11.872v12.506z" fill="#abacb3"/><path d="M175.96 161.918h-.843v13.35c0 2.287-1.854 4.142-4.142 4.142s-4.14-1.855-4.14-4.142v-13.35h-13.35c-2.287 0-4.14-1.854-4.14-4.142s1.854-4.14 4.14-4.14h13.35v-13.35c0-2.287 1.854-4.14 4.14-4.14s4.142 1.854 4.142 4.14v13.35h13.35c2.287 0 4.142 1.854 4.142 4.14s-1.855 4.142-4.142 4.142H175.96z" fill="#d0d1d6" stroke="#abacb3" class="L"/><path d="M148.5 528.936c0 2.483 2.013 4.495 4.495 4.495h35.96c2.483 0 4.495-2.012 4.495-4.495v-2.06a1.967 1.967 0 0 0-1.966-1.967h-41.017c-1.087 0-1.967.88-1.967 1.967v2.06zm0 15.265c0 2.482 2.013 4.495 4.495 4.495h35.96c2.483 0 4.495-2.013 4.495-4.495v-2.06a1.966 1.966 0 0 0-1.966-1.966h-41.017c-1.087 0-1.967.88-1.967 1.966v2.06z" fill="#abacb2"/><path d="M152.76 529.78c-1.888 0-3.418-1.53-3.418-3.418s1.53-3.418 3.418-3.418h36.43c1.887 0 3.418 1.53 3.418 3.418s-1.53 3.418-3.418 3.418h-36.43zm0 15.264c-1.888 0-3.418-1.53-3.418-3.418s1.53-3.418 3.418-3.418h36.43c1.887 0 3.418 1.53 3.418 3.418s-1.53 3.418-3.418 3.418h-36.43z" fill="#d0d1d6" stroke="#abacb2" class="L"/></g><defs><clipPath id="A"><path d="M0 0h342v908H0z" class="J"/></clipPath></defs></svg>