<svg xmlns="http://www.w3.org/2000/svg" width="342" height="908" fill="none" xmlns:v="https://vecta.io/nano"><path d="M165.99 178.076c0 2.753 2.23 4.985 4.984 4.985s4.985-2.232 4.985-4.985V165.57h11.872c3.103 0 5.618-2.516 5.618-5.62v-2.102c0-1.242-1.006-2.248-2.247-2.248H175.96v-12.506c0-2.753-2.232-4.985-4.985-4.985s-4.984 2.232-4.984 4.985V155.6h-15.243c-1.242 0-2.248 1.006-2.248 2.248v2.102c0 3.103 2.516 5.62 5.62 5.62h11.872v12.506z" fill="#abacb3"/><path d="M175.96 161.918h-.843v13.35c0 2.287-1.854 4.142-4.142 4.142s-4.14-1.855-4.14-4.142v-13.35h-13.35c-2.287 0-4.14-1.854-4.14-4.142s1.854-4.14 4.14-4.14h13.35v-13.35c0-2.287 1.854-4.14 4.14-4.14s4.142 1.854 4.142 4.14v13.35h13.35c2.287 0 4.142 1.854 4.142 4.14s-1.855 4.142-4.142 4.142H175.96z" fill="#d0d1d6" stroke="#abacb3" stroke-width="1.6856"/><path d="M148.5 528.936c0 2.483 2.013 4.495 4.495 4.495h35.96c2.483 0 4.495-2.012 4.495-4.495v-2.06a1.967 1.967 0 0 0-1.966-1.967h-41.017c-1.087 0-1.967.88-1.967 1.967v2.06zm0 15.265c0 2.482 2.013 4.495 4.495 4.495h35.96c2.483 0 4.495-2.013 4.495-4.495v-2.06a1.966 1.966 0 0 0-1.966-1.966h-41.017c-1.087 0-1.967.88-1.967 1.966v2.06z" fill="#abacb2"/><path d="M152.76 529.78c-1.888 0-3.418-1.53-3.418-3.418s1.53-3.418 3.418-3.418h36.43c1.887 0 3.418 1.53 3.418 3.418s-1.53 3.418-3.418 3.418h-36.43zm0 15.264c-1.888 0-3.418-1.53-3.418-3.418s1.53-3.418 3.418-3.418h36.43c1.887 0 3.418 1.53 3.418 3.418s-1.53 3.418-3.418 3.418h-36.43z" fill="#d0d1d6" stroke="#abacb2" stroke-width="1.6856"/><path fill-rule="evenodd" d="M227.03 602.38c4.74-4.017-13.93-8.516-16.417-15.63-3.003-8.572 44.323 14.24 37.15 29.253-.56 1.176-6.198 10.512-46.66-2.62 42.507 13.828 75.152 42.404 77.914 94.305 48.762-2.365 23.338 72.914-12.6 76.502-6.79 15.48-26.164 31.37-50.742 40.765 1.68 2.54 3.127 5.11 4.333 7.702 6.046-6.23 14.32-10.432 22.877-9.11 29.446 4.56 15.515 49.164-5.002 31.702-2.803-2.328.888-6.66 3.633-4.264 13.283 11.125 20.514-18.805.51-21.904-7.554-1.166-14.82 3.408-19.73 9.4 2.062 6.412 4.258 16.9 3.476 23.652-.655 5.652-4.947 12.502-11.455 11.397-3.97 4.937-11.164 4.16-16.63 2.688-2.795 4.943-2.027 9.548-1.05 14.426 13.606 0 20.197 16.173 4.804 16.173-4.1 0-5.49-1.362-10.42-1.362-4.303 0-6.388 1.362-9.973 1.362-6.334 0-10.08-7.846-5.543-12.454 0-7.062-9.083-7.83-9.083 0 5.443 5.986.07 15.197-10.054 11.82-1.526-.51-3.212-.728-5.463-.728-2.578 0-4.19.373-5.73.73-16.903 3.906-18.596-14.278.115-15.54.186-2.675.848-6.827 1.97-11.422-14.233-12.874-13.078-30.58-8.614-47.583-12.066 20.355-2.334 19.296-5.78 29.085 3.854 5.284-.2 12.92-6.565 12.915-21.228-.017-6.63-40.97-.053-48.673-24.577-9.395-43.9502-25.285-50.7416-40.765-35.659-3.588-61.4656-79.054-12.45-76.495 4.326-52.215 50.8666-103.598 107.9066-107.61 35.79-2.516 52.134 5.613 56.06 2.297zM209.067 860.71c-2.296 3.15-1.785 7.133.35 9.838-2.166 1.75-5.485 1.268-8.033.767 7.678-12.144 5.34-26.545 1.877-39.73 12.424 21.93 3.323 21.163 5.806 29.125z" fill="#c66aff"/><g fill="#727272"><rect x="14" y="13" width="314" height="14" rx="7"/><rect x="14" y="50" width="314" height="14" rx="7"/><rect x="28" y="87" width="286" height="14" rx="7"/></g><rect x="92" y="222" width="213" height="51" rx="25.5" fill="#000"/><g fill="#c66aff"><rect x="29" y="224" width="54" height="49" rx="24.5"/><rect x="316" y="197" width="25" height="39" rx="12.5"/></g><g fill="#000"><rect x="29" y="440" width="220" height="37" rx="18.5"/><rect x="303" y="424" width="14" height="22" rx="7"/></g><rect x="261" y="440" width="38" height="37" rx="18.5" fill="#c66aff"/><rect x="29" y="311" width="69" height="75" rx="34.5" fill="#32ea7b"/><rect x="105" y="311" width="125" height="75" rx="37.5" fill="#000"/><rect x="249" y="311" width="56" height="75" rx="28" fill="#32ea7b"/></svg>