<svg xmlns="http://www.w3.org/2000/svg" width="746" height="212" fill="none" xmlns:v="https://vecta.io/nano"><style><![CDATA[.B{fill:#000}.C{stroke:#333}.D{stroke-width:.3649}.E{stroke-miterlimit:10}.F{fill-opacity:.15}.G{fill-opacity:.1}.H{fill:#c66aff}.I{fill:#f7c394}.J{fill:#32ea7b}]]></style><g class="B"><path d="M12.8503 51.2684c-1.2225 0-2.28-.4175-3.1755-1.2524V51H7.774V35.77l1.9008-.917v5.7696c.3578-.4025.8125-.723 1.364-.9616s1.133-.3578 1.7443-.3578c1.476 0 2.6537.5367 3.5333 1.61.8796 1.0585 1.3194 2.512 1.3194 4.3607 0 1.9232-.425 3.4066-1.2747 4.4502-.8348 1.0287-2.0052 1.543-3.511 1.543zm-.2907-1.7667c1.0286 0 1.804-.3727 2.3257-1.118.5367-.7455.805-1.7816.805-3.1085 0-1.3715-.2683-2.415-.805-3.1308-.5218-.7305-1.297-1.0957-2.3257-1.0957-.656 0-1.245.164-1.7667.492-.507.313-.8796.6634-1.118 1.05v5.3447c.2982.492.7007.8796 1.2076 1.163.5068.2683 1.066.4025 1.6772.4025zm12.8185 1.7667c-1.2374 0-2.2288-.328-2.9742-.984-.7454-.671-1.118-1.625-1.118-2.8624s.4174-2.1767 1.2523-2.8177c.8497-.641 1.8933-.9616 3.1308-.9616 1.133 0 2.1617.246 3.086.738v-.872c0-1.6996-.805-2.5494-2.4152-2.5494-1.1777 0-2.3853.4026-3.6227 1.2076l-.559-1.5877c1.3716-.8498 2.8252-1.2747 4.3607-1.2747.492 0 .9542.0596 1.3865.179.4324.1043.8573.2982 1.2747.5814.4323.2684.7678.6858 1.0063 1.2523.2535.5666.3802 1.2523.3802 2.0574V51H28.755v-1.05c-.954.8796-2.0797 1.3194-3.3768 1.3194zm.246-1.655c1.1927 0 2.2363-.5218 3.1308-1.5654v-1.968c-.8796-.5367-1.8337-.805-2.8624-.805-.805 0-1.476.1864-2.0127.559-.5367.3578-.805.887-.805 1.5878 0 .656.2236 1.1852.671 1.5877s1.0734.6038 1.8784.6038zm14.7194-10.3092c1.3865 0 2.4376.4 3.1532 1.23s1.0734 2.1245 1.0734 3.9135V51h-1.9008v-6.7983c0-1.0883-.246-1.886-.738-2.3928-.477-.507-1.118-.7603-1.9232-.7603-1.8785 0-2.8177 1.036-2.8177 3.1084V51h-1.9008V39.5726h1.79v1.3642c.6858-1.0884 1.774-1.6325 3.265-1.6325zm7.362 15.654v-1.856H59.692v1.856H47.7056zM68.463 49.144h3.8464V51h-9.6607v-1.856h3.8912V37.8954l-3.4215 1.1405v-1.856L68.463 35.28v13.865zm12.4385 2.1245c-1.5207 0-2.7208-.5368-3.6004-1.6102s-1.3195-2.5344-1.3195-4.383.4398-3.3022 1.3195-4.3607c.8945-1.0734 2.087-1.61 3.578-1.61 1.2225 0 2.2512.3578 3.086 1.0734V35.77l1.9008-.917V51H83.965v-.9392c-.7455.805-1.7667 1.2076-3.0637 1.2076zm.246-1.7667c1.2822 0 2.2214-.5218 2.8178-1.5654v-5.4118c-.656-.984-1.6027-1.476-2.84-1.476-1.0287 0-1.819.3652-2.3705 1.0957s-.8274 1.7742-.8274 3.1308c0 1.2225.2907 2.2363.8722 3.0414.5814.79 1.364 1.1852 2.348 1.1852zM90.4102 51V35.7486l1.901-.8945v5.9485c.7156-.999 1.7666-1.4983 3.153-1.4983s2.4376.4 3.1532 1.23 1.0734 2.1245 1.0734 3.9135V51H97.8v-6.7983c0-1.0883-.246-1.886-.738-2.3928-.477-.507-1.1182-.7603-1.9232-.7603-1.8785 0-2.8177 1.036-2.8177 3.1084V51h-1.901zm20.5118-14.2003c-.656 0-1.11.1267-1.365.38-.238.2386-.357.589-.357 1.051v1.3417h3.31v1.6996h-3.31v8.0282h3.04V51h-7.357v-1.6996h2.415v-8.0282h-2.415v-1.6996h2.415v-1.6772c0-1.0138.313-1.7368.94-2.1692s1.424-.6485 2.393-.6485c.91 0 1.744.179 2.505.5367v1.655c-.67-.313-1.41-.4696-2.214-.4696zm10.917 14.4687c-1.237 0-2.228-.328-2.974-.984-.745-.671-1.118-1.625-1.118-2.8624s.417-2.1767 1.252-2.8177c.85-.641 1.894-.9616 3.13-.9616 1.133 0 2.162.246 3.086.738v-.872c0-1.6996-.805-2.5494-2.415-2.5494-1.178 0-2.385.4026-3.623 1.2076l-.56-1.5877c1.372-.8498 2.825-1.2747 4.36-1.2747.492 0 .954.0596 1.386.179.433.1043.858.2982 1.275.5814.432.2684.768.6858 1.006 1.2523.254.5666.38 1.2523.38 2.0574V51h-1.812v-1.05c-.954.8796-2.08 1.3194-3.377 1.3194zm.246-1.655c1.193 0 2.237-.5218 3.13-1.5654v-1.968c-.88-.5367-1.834-.805-2.862-.805-.805 0-1.476.1864-2.013.559-.537.3578-.805.887-.805 1.5878 0 .656.224 1.1852.67 1.5877s1.073.6038 1.878.6038zm14.787 1.655c-1.223 0-2.28-.4175-3.176-1.2524V51h-1.9V35.77l1.9-.917v5.7696c.358-.4025.813-.723 1.364-.9616s1.133-.3578 1.745-.3578c1.476 0 2.653.5367 3.533 1.61.88 1.0585 1.32 2.512 1.32 4.3607 0 1.9232-.424 3.4066-1.274 4.4502-.835 1.0287-2.005 1.543-3.51 1.543zm-.29-1.7667c1.03 0 1.804-.3727 2.326-1.118.537-.7455.805-1.7816.805-3.1085 0-1.3715-.268-2.415-.805-3.1308-.522-.7305-1.297-1.0957-2.326-1.0957-.656 0-1.245.164-1.767.492-.506.313-.88.6634-1.118 1.05v5.3447c.298.492.7.8796 1.208 1.163.507.2683 1.066.4025 1.677.4025zM153.045 51l-3.533-6.9548-2.036 2.0797V51h-1.9V35.77l1.9-.917v9.1016l4.16-4.383h2.236l-3.02 3.086L155.125 51h-2.08zm11.924.2684c-1.938 0-2.907-.9542-2.907-2.8625v-7.1337h-2.617v-1.6996h2.617v-3.7793l1.9-.9392v4.7185h3.846v1.6996h-3.846v6.53c0 .5665.11.999.335 1.297.24.2832.678.425 1.32.425.7 0 1.402-.2088 2.103-.6262l-.224 1.856c-.656.343-1.498.5144-2.527.5144zm13.243 0c-1.222 0-2.28-.4175-3.175-1.2524V51h-1.9V35.77l1.9-.917v5.7696c.358-.4025.812-.723 1.364-.9616s1.133-.3578 1.744-.3578c1.476 0 2.654.5367 3.534 1.61.88 1.0585 1.32 2.512 1.32 4.3607 0 1.9232-.425 3.4066-1.275 4.4502-.835 1.0287-2.005 1.543-3.51 1.543zm-.3-1.7667c1.028 0 1.804-.3727 2.325-1.118.537-.7455.805-1.7816.805-3.1085 0-1.3715-.268-2.415-.805-3.1308-.52-.7305-1.297-1.0957-2.325-1.0957-.656 0-1.245.164-1.767.492-.507.313-.88.6634-1.118 1.05v5.3447c.298.492.7.8796 1.207 1.163.507.2683 1.066.4025 1.678.4025zM11.9558 87.2684c-1.0287 0-1.953-.1864-2.773-.559s-1.4387-.8125-1.856-1.3194l1.0958-1.4312c1.0585 1.0287 2.2363 1.543 3.5334 1.543.9988 0 1.8188-.3354 2.46-1.0063.656-.6858.984-1.528.984-2.527 0-.969-.261-1.7667-.7827-2.3928-.507-.6262-1.2-.9393-2.0797-.9393-1.148 0-2.1245.4622-2.9295 1.3865l-1.6996-.626 1.051-8.0506h7.5586v1.79H10.614l-.7156 4.7856c.79-.7454 1.7666-1.118 2.9295-1.118 1.3567 0 2.4525.477 3.2873 1.4312.8498.954 1.2747 2.1692 1.2747 3.645s-.4994 2.7432-1.4983 3.8017-2.3108 1.5878-3.9358 1.5878zm11.4544 0V85.636c1.4163-.343 2.6612-1.066 3.7346-2.1692 1.0734-1.1182 1.7294-2.378 1.968-3.7793-.7454.9094-1.8934 1.364-3.4438 1.364-1.3418 0-2.475-.4622-3.3992-1.3865-.9094-.9392-1.364-2.0872-1.364-3.4438 0-1.476.507-2.6985 1.5207-3.6675 1.0137-.984 2.2735-1.476 3.7793-1.476 1.6846 0 2.9667.559 3.8463 1.6772s1.3195 2.5792 1.3195 4.383c0 1.625-.3206 3.1532-.9616 4.5844-.6262 1.4163-1.5505 2.624-2.773 3.6228-1.2225.984-2.6314 1.625-4.2266 1.9232zm2.706-7.8717c.984 0 1.79-.3057 2.4152-.917.626-.6262.9392-1.4238.9392-2.3928 0-.9244-.3205-1.692-.9616-2.3034-.64-.626-1.4387-.9392-2.3928-.9392-.999 0-1.804.313-2.4152.9392-.6112.6113-.9168 1.38-.9168 2.3034 0 .984.298 1.7815.8945 2.3928.6112.6112 1.4237.917 2.4375.917zm14.7865 5.7472H44.75V87h-9.6607v-1.856h3.891V73.8954L35.558 75.036v-1.856l5.3447-1.9008v13.865zm12.8633 2.1245c-1.6548 0-2.9295-.559-3.824-1.6773-.8945-1.133-1.3418-2.594-1.3418-4.383 0-2.3555.753-4.495 2.2586-6.418s3.4663-3.1606 5.8814-3.7122v1.6325c-1.3566.3727-2.594 1.1107-3.7122 2.214-1.1032 1.0883-1.7964 2.28-2.0797 3.578.7454-.8498 1.8188-1.2747 3.2202-1.2747 1.327 0 2.43.4845 3.3097 1.4536s1.3194 2.1095 1.3194 3.4215c0 1.476-.4845 2.706-1.4536 3.6898s-2.1617 1.476-3.578 1.476zm-.0447-1.7667c.9392 0 1.707-.2982 2.3033-.8945.5964-.6113.8945-1.3865.8945-2.3257 0-.984-.2907-1.7816-.872-2.393-.5814-.626-1.3567-.9392-2.3257-.9392-.9393 0-1.7145.313-2.3258.9392-.5963.6262-.8945 1.4238-.8945 2.393 0 .9243.3057 1.692.917 2.3033s1.38.917 2.3034.917zm17.649.1565c-.97 1.0734-2.266 1.6102-3.891 1.6102s-2.922-.5293-3.891-1.5878-1.4536-2.5195-1.4536-4.383c0-1.8487.4845-3.3097 1.4536-4.383s2.266-1.61 3.891-1.61c1.64 0 2.937.5292 3.891 1.5877.969 1.0585 1.4536 2.5196 1.4536 4.383 0 1.8487-.4845 3.3097-1.4536 4.383zm-3.891-.1565c1.0734 0 1.9083-.3727 2.5046-1.118.5964-.7604.8945-1.7965.8945-3.1085 0-1.3268-.2907-2.363-.872-3.1084s-1.4238-1.118-2.527-1.118-1.9456.3727-2.527 1.118c-.5814.7305-.8722 1.774-.8722 3.1308 0 1.312.2908 2.3406.8722 3.086.5963.7454 1.4387 1.118 2.527 1.118zm11.12 5.8367l1.722-4.6515-4.2265-11.1143h1.9455l2.7954 7.7375.3578 1.1405.1118-.3578.1565-.425.1118-.3578 2.84-7.7375h1.9903l-5.8814 15.7658H78.598zm20.3325-5.6802c-.969 1.0734-2.266 1.6102-3.8912 1.6102s-2.922-.5293-3.891-1.5878-1.4536-2.5195-1.4536-4.383c0-1.8487.4846-3.3097 1.4536-4.383s2.266-1.61 3.891-1.61c1.64 0 2.937.5292 3.8912 1.5877.97 1.0585 1.4535 2.5196 1.4535 4.383 0 1.8487-.4845 3.3097-1.4535 4.383zm-3.8912-.1565c1.0734 0 1.9083-.3727 2.5047-1.118.5963-.7604.8945-1.7965.8945-3.1085 0-1.3268-.2907-2.363-.8722-3.1084s-1.4237-1.118-2.527-1.118-1.9455.3727-2.527 1.118c-.5814.7305-.872 1.774-.872 3.1308 0 1.312.2907 2.3406.872 3.086.5964.7454 1.4387 1.118 2.527 1.118zm17.5817.425c-.984.8945-2.25 1.3418-3.8 1.3418s-2.826-.4473-3.825-1.3418c-.983-.9094-1.475-2.05-1.475-3.4215 0-.9392.253-1.7816.76-2.527.522-.7603 1.193-1.297 2.013-1.61-.642-.2833-1.148-.7156-1.52-1.297s-.56-1.2225-.56-1.9232c0-1.133.432-2.0946 1.297-2.8848.88-.79 1.983-1.1852 3.3-1.1852s2.422.395 3.287 1.1852c.88.7902 1.32 1.7518 1.32 2.8848 0 .7007-.186 1.3418-.56 1.9232s-.887 1.0138-1.543 1.297c.835.328 1.506.8647 2.013 1.61.522.7454.782 1.5878.782 2.527 0 1.3716-.5 2.512-1.498 3.4215zm-5.747-8.878c.492.4323 1.14.6485 1.946.6485s1.453-.2162 1.945-.6485c.492-.4473.738-1.0138.738-1.6996 0-.7603-.253-1.3716-.76-1.8337-.507-.477-1.148-.7156-1.923-.7156-.79 0-1.44.2385-1.946.7156-.492.462-.738 1.0734-.738 1.8337 0 .6858.246 1.2523.738 1.6996zm1.946 8.4755c.97 0 1.766-.2908 2.392-.8722s.94-1.3567.94-2.3257c0-.8796-.314-1.625-.94-2.2363-.626-.626-1.423-.9392-2.392-.9392-.984 0-1.8.313-2.416.9392-.61.6113-.917 1.3567-.917 2.2363 0 .984.306 1.7666.917 2.348.626.5665 1.432.8498 2.416.8498zm14.205-10.2198c1.386 0 2.437.4 3.153 1.23s1.073 2.1245 1.073 3.9135V87h-1.9v-6.7983c0-1.0883-.246-1.886-.738-2.3928-.477-.507-1.118-.7603-1.923-.7603-1.878 0-2.818 1.036-2.818 3.1084V87h-1.9V75.5726h1.79v1.3642c.685-1.0884 1.774-1.6325 3.265-1.6325zm13.847 11.964c-1.223 0-2.28-.4175-3.176-1.2524V87h-1.9V71.77l1.9-.917v5.7696c.358-.4025.813-.723 1.364-.9616s1.133-.3578 1.745-.3578c1.476 0 2.653.5367 3.533 1.61.88 1.0585 1.32 2.512 1.32 4.3607 0 1.9232-.424 3.4066-1.274 4.4502-.835 1.0287-2.005 1.543-3.51 1.543zm-.29-1.7667c1.03 0 1.804-.3727 2.326-1.118.537-.7455.805-1.7816.805-3.1085 0-1.3715-.268-2.415-.805-3.1308-.522-.7305-1.297-1.0957-2.326-1.0957-.656 0-1.245.164-1.767.492-.506.313-.88.6634-1.118 1.05v5.3447c.298.492.7.8796 1.208 1.163.507.2683 1.066.4025 1.677.4025zm13.244 1.7667c-1.447 0-2.527-.4-3.243-1.23-.7-.835-1.05-2.1766-1.05-4.0253v-6.4405h1.923v6.6865c0 1.118.23 1.938.693 2.46.477.507 1.11.7603 1.9.7603 1.864 0 2.796-1.0585 2.796-3.1755v-6.7312h1.945V87h-1.945v-1.118c-.716.9243-1.722 1.3865-3.02 1.3865zm17.09-11.964c.955 0 1.655.313 2.103.9392.462.6262.693 1.6325.693 3.02V87h-1.856v-6.9995c0-1.0436-.1-1.789-.27-2.2363s-.536-.671-1.073-.671c-.552 0-.962.2758-1.23.8274s-.403 1.2822-.403 2.1916V87h-1.856v-7.2008c0-.8647-.09-1.528-.268-1.9903-.164-.477-.5-.7156-1.006-.7156-.552 0-.977.2833-1.275.8498-.298.5516-.447 1.2747-.447 2.1692V87h-1.856V75.5726h1.744v1.476c.447-1.163 1.185-1.7443 2.214-1.7443.566 0 1.043.1714 1.43.5143s.656.753.805 1.23c.64-1.163 1.49-1.7443 2.55-1.7443zm12.908-2.5046c-.656 0-1.1.1267-1.364.38-.238.2386-.357.589-.357 1.051v1.3417h3.31v1.6996h-3.31v8.0282h3.04V87h-7.357v-1.6996h2.415v-8.0282h-2.415v-1.6996h2.415v-1.6772c0-1.0138.313-1.7368.94-2.1692s1.424-.6485 2.393-.6485c.91 0 1.744.179 2.504.5367v1.655c-.67-.313-1.408-.4696-2.214-.4696zM7.0807 123l4.2265-5.904-3.9582-5.523h2.1245l2.3257 3.242.559.85c.015-.03.0894-.15.2236-.358l.3355-.492 2.3257-3.242h2.1245l-3.9583 5.523L17.636 123h-2.1245l-2.594-3.623-.3355-.47-.2236-.38-.2907.425-.2684.425L9.2052 123H7.0807zm19.5497.268c-1.2224 0-2.28-.417-3.1755-1.252V123H21.554v-15.23l1.9008-.917v5.77c.3578-.403.8126-.723 1.3642-.962s1.133-.358 1.7443-.358c1.476 0 2.6537.537 3.5333 1.6.8796 1.06 1.3194 2.512 1.3194 4.36 0 1.923-.425 3.407-1.2747 4.45-.835 1.03-2.0052 1.543-3.51 1.543zm-.2907-1.766c1.0287 0 1.804-.373 2.3258-1.118.5367-.746.805-1.782.805-3.11 0-1.37-.2683-2.415-.805-3.13-.5218-.73-1.297-1.095-2.3258-1.095-.656 0-1.2448.164-1.7666.492-.507.313-.8796.663-1.1182 1.05v5.344c.2982.492.7007.88 1.2076 1.163.507.27 1.066.403 1.6772.403zm13.221 1.766c-1.5206 0-2.7208-.536-3.6004-1.6s-1.3194-2.534-1.3194-4.383.4398-3.302 1.3194-4.36c.8945-1.073 2.0872-1.6 3.578-1.6 1.2225 0 2.2512.358 3.086 1.074v-4.607l1.901-.917V123h-1.901v-.94c-.7454.805-1.7666 1.207-3.0637 1.207zm.246-1.766c1.2822 0 2.2214-.522 2.8177-1.566v-5.41c-.656-.984-1.6026-1.476-2.84-1.476-1.0287 0-1.819.365-2.3705 1.095s-.8274 1.774-.8274 3.13c0 1.223.2907 2.236.872 3.04.5815.79 1.3642 1.186 2.348 1.186zm13.959 1.766c-1.6548 0-2.9295-.56-3.824-1.677-.8945-1.133-1.3418-2.594-1.3418-4.383 0-2.355.753-4.495 2.2586-6.418s3.4663-3.16 5.8814-3.712v1.632c-1.3566.373-2.594 1.11-3.7122 2.214-1.1032 1.088-1.7964 2.28-2.0797 3.578.7454-.85 1.8188-1.275 3.2202-1.275 1.327 0 2.43.485 3.3097 1.454s1.3194 2.1 1.3194 3.422c0 1.475-.4845 2.705-1.4536 3.69s-2.1617 1.476-3.578 1.476zm-.0447-1.766c.9392 0 1.707-.298 2.3033-.895.5964-.61.8945-1.386.8945-2.326 0-.984-.2907-1.78-.872-2.392-.5814-.627-1.3567-.94-2.3257-.94-.9393 0-1.7145.313-2.3258.94-.5963.626-.8945 1.423-.8945 2.392 0 .925.3057 1.693.917 2.304s1.38.917 2.3034.917zm13.4 1.766c-1.5207 0-2.7208-.536-3.6004-1.6s-1.3194-2.534-1.3194-4.383.4398-3.302 1.3194-4.36c.8945-1.073 2.0872-1.6 3.578-1.6 1.2225 0 2.2512.358 3.086 1.074v-4.607l1.9008-.917V123H70.185v-.94c-.7454.805-1.7667 1.207-3.0637 1.207zm.246-1.766c1.282 0 2.2213-.522 2.8177-1.566v-5.41c-.656-.984-1.6027-1.476-2.84-1.476-1.0287 0-1.8188.365-2.3704 1.095s-.8275 1.774-.8275 3.13c0 1.223.2908 2.236.8722 3.04.5814.79 1.364 1.186 2.348 1.186zm13.0645 6.194l-.9392-1.52c1.6698-.105 2.8177-.403 3.444-.895.64-.477.9616-1.148.9616-2.013v-1.386c-.671.924-1.6996 1.386-3.086 1.386-1.3716 0-2.512-.52-3.4215-1.565s-1.364-2.52-1.364-4.428c0-1.834.4472-3.287 1.3417-4.36s2.0723-1.6 3.5334-1.6c1.282 0 2.28.4 2.9966 1.23v-.96h1.9008v10.913c0 1.79-.4696 3.078-1.409 3.868-.9243.79-2.2437 1.238-3.9582 1.342zm.7827-6.194c.5367 0 1.0436-.142 1.5207-.425.492-.298.8796-.708 1.163-1.23v-5.255c-.2833-.477-.6784-.85-1.1853-1.12-.492-.283-.9914-.424-1.4983-.424-1.0585 0-1.8635.365-2.415 1.095-.5517.716-.8275 1.76-.8275 3.13 0 1.312.2982 2.348.8945 3.11.5964.745 1.379 1.118 2.348 1.118zm17.6266.425c-.984.894-2.2512 1.34-3.8017 1.34s-2.825-.447-3.824-1.34c-.984-.9-1.476-2.05-1.476-3.422 0-.94.2534-1.78.7603-2.527.5218-.76 1.1927-1.297 2.0126-1.6-.64-.283-1.148-.716-1.5206-1.297s-.559-1.223-.559-1.923c0-1.133.4324-2.095 1.297-2.885.8796-.8 1.983-1.185 3.3097-1.185s2.4227.395 3.2874 1.185c.8796.8 1.3194 1.752 1.3194 2.885 0 .7-.1864 1.342-.559 1.923s-.887 1.014-1.543 1.297c.8348.328 1.5057.865 2.0126 1.6.5214.746.7824 1.588.7824 2.527 0 1.372-.499 2.512-1.498 3.422zm-5.7472-8.878c.492.432 1.1405.648 1.9455.648s1.4536-.216 1.9456-.648c.492-.448.738-1.014.738-1.7 0-.76-.2535-1.372-.7604-1.834-.507-.477-1.148-.715-1.9232-.715-.79 0-1.4386.238-1.9455.715-.492.462-.738 1.074-.738 1.834 0 .686.246 1.252.738 1.7zm1.9455 8.475c.969 0 1.7667-.29 2.3928-.872s.9393-1.357.9393-2.326c0-.88-.313-1.625-.9393-2.236-.626-.626-1.4237-.94-2.3928-.94-.984 0-1.79.313-2.415.94-.6113.61-.917 1.357-.917 2.236 0 .984.3056 1.767.917 2.348.626.567 1.4312.85 2.415.85zm18.7897-4.74c0 .492-.023.9-.067 1.252h-7.984c.15 1.104.507 1.968 1.074 2.595.58.61 1.334.916 2.258.916.97 0 1.856-.328 2.66-.984l1.074 1.253c-1.074.97-2.34 1.453-3.802 1.453-1.595 0-2.87-.566-3.824-1.7-.94-1.133-1.41-2.564-1.41-4.294 0-1.863.47-3.324 1.41-4.383.954-1.058 2.23-1.588 3.824-1.588 1.402 0 2.55.462 3.444 1.387s1.342 2.288 1.342 4.092zm-8.096-.402h6.195c-.03-1.208-.328-2.073-.895-2.594s-1.23-.783-2-.783c-1.014 0-1.804.298-2.37.894-.552.597-.865 1.424-.94 2.483zm16.822 6.887c-.835 0-1.633-.18-2.393-.536-.745-.373-1.37-.865-1.878-1.476l1.297-1.14c.91 1 1.945 1.5 3.108 1.5.64 0 1.17-.127 1.588-.38.417-.268.626-.64.626-1.118 0-.283-.074-.537-.224-.76-.134-.224-.372-.432-.715-.626l-.85-.448c-.24-.12-.61-.275-1.118-.47l-1.43-.626c-.343-.18-.708-.4-1.096-.694-.373-.283-.65-.603-.828-.96-.164-.358-.246-.775-.246-1.252 0-.895.373-1.61 1.12-2.147.76-.552 1.722-.828 2.884-.828 1.64 0 2.975.59 4.003 1.767l-1.274 1.05c-.835-.775-1.76-1.163-2.773-1.163-.67 0-1.208.12-1.6.358-.388.238-.582.56-.582.962 0 .432.2.782.604 1.05.417.268 1.05.566 1.9.894l.18.067 1.118.47c.238.09.566.253.984.492.432.238.745.47.94.693s.373.522.537.895c.164.357.246.76.246 1.207 0 1-.373 1.79-1.118 2.37-.73.566-1.73.85-2.997.85zm13.467 0c-1.52 0-2.72-.536-3.6-1.6s-1.32-2.534-1.32-4.383.44-3.302 1.32-4.36c.894-1.073 2.087-1.6 3.578-1.6 1.222 0 2.25.358 3.086 1.074v-4.607l1.9-.917V123h-1.9v-.94c-.746.805-1.767 1.207-3.064 1.207zm.246-1.766c1.282 0 2.22-.522 2.818-1.566v-5.41c-.656-.984-1.603-1.476-2.84-1.476-1.03 0-1.82.365-2.37 1.095s-.827 1.774-.827 3.13c0 1.223.29 2.236.872 3.04.58.79 1.364 1.186 2.348 1.186zM146.694 123l-2.863-11.427h1.856l1.722 7.424.18.94.18-1.006 1.633-7.357h1.52l1.655 7.38.2 1.05c.03-.313.097-.663.202-1.05l1.655-7.38h1.856L153.626 123h-1.632l-1.6-7.09-.246-1.208-.224 1.163L148.35 123h-1.655zm18.275.268c-1.938 0-2.907-.954-2.907-2.862v-7.134h-2.617v-1.7h2.617v-3.78l1.9-.94v4.72h3.846v1.7h-3.846v6.53c0 .567.11 1 .335 1.297.24.283.678.425 1.32.425.7 0 1.402-.21 2.103-.626l-.224 1.856c-.656.343-1.498.514-2.527.514zm15.636-.268l-3.533-6.955-2.035 2.08V123h-1.9v-15.23l1.9-.917v9.102l4.16-4.383h2.237l-3.02 3.086 4.27 8.34h-2.08zM12.0005 159.268c-1.5207 0-2.7208-.536-3.6004-1.6s-1.3194-2.534-1.3194-4.383.4398-3.302 1.3194-4.36c.8945-1.073 2.0872-1.6 3.578-1.6 1.2225 0 2.2512.358 3.086 1.074v-4.607l1.9008-.917V159h-1.9008v-.94c-.7454.805-1.7667 1.207-3.0637 1.207zm.246-1.766c1.282 0 2.2213-.522 2.8177-1.566v-5.41c-.656-.984-1.6027-1.476-2.84-1.476-1.0287 0-1.8188.365-2.3704 1.095s-.8274 1.774-.8274 3.13c0 1.223.2907 2.236.872 3.04.5814.79 1.364 1.186 2.348 1.186zm13.1316 1.766c-1.2374 0-2.2288-.328-2.9742-.984-.7454-.67-1.118-1.625-1.118-2.862s.4174-2.177 1.2523-2.818c.8497-.64 1.8933-.96 3.1308-.96 1.133 0 2.1617.246 3.086.738v-.873c0-1.7-.805-2.55-2.4152-2.55-1.1777 0-2.3853.403-3.6227 1.208l-.559-1.588c1.3716-.85 2.8252-1.275 4.3607-1.275.492 0 .9542.06 1.3865.18.4324.105.8573.298 1.2747.582.4323.268.7678.685 1.0063 1.252.2535.566.3802 1.252.3802 2.057V159H28.755v-1.05c-.954.88-2.0797 1.32-3.3768 1.32zm.246-1.654c1.1927 0 2.2363-.522 3.1308-1.566v-1.968c-.8796-.537-1.8337-.805-2.8624-.805-.805 0-1.476.186-2.0127.56-.5367.358-.805.887-.805 1.588 0 .656.2236 1.185.671 1.588s1.0734.604 1.8784.604zm13.892 1.654c-1.0287 0-1.953-.186-2.773-.56s-1.4386-.812-1.856-1.32l1.0958-1.43c1.0585 1.028 2.2363 1.543 3.5333 1.543.999 0 1.819-.336 2.46-1.007.656-.685.984-1.528.984-2.527 0-.97-.261-1.766-.7827-2.392-.507-.627-1.2002-.94-2.0798-.94-1.148 0-2.1244.462-2.9295 1.387l-1.6995-.626 1.05-8.05h7.5586v1.79h-5.9038l-.7156 4.786c.7902-.746 1.7667-1.118 2.9296-1.118 1.3566 0 2.4524.477 3.2873 1.43.8498.954 1.2747 2.17 1.2747 3.645s-.4995 2.743-1.4983 3.802-2.311 1.587-3.936 1.587zm9.5983 4.25v-15.944h1.901v.984c.8647-.835 1.886-1.253 3.0637-1.253 1.5356 0 2.743.537 3.6227 1.6.8946 1.074 1.3418 2.527 1.3418 4.36 0 1.864-.4547 3.332-1.364 4.406-.9094 1.058-2.0872 1.587-3.5333 1.587-1.312 0-2.3556-.447-3.1308-1.34v4.673l-1.901.917zm4.7857-6.015c1.0138 0 1.7965-.366 2.348-1.096.5665-.73.8498-1.774.8498-3.13 0-1.297-.2908-2.326-.8722-3.086-.5665-.76-1.364-1.14-2.3928-1.14-1.2672 0-2.2065.52-2.8177 1.565v5.345c.7603 1.028 1.722 1.543 2.8848 1.543zm16.3966-10.198c1.0585 0 1.8934.18 2.5046.537v3.958h-1.9008v-2.594c-.149-.015-.3802-.022-.6933-.022-1.1628 0-2.1468.283-2.9518.85-.7902.566-1.1853 1.364-1.1853 2.392v4.875h3.332v1.7h-7.6704v-1.7h2.3928v-8.028h-2.3928v-1.7h4.2042v2c.3876-.686.9914-1.23 1.8113-1.633.835-.417 1.6847-.626 2.5494-.626zM75.9815 159l4.2266-5.904-3.9582-5.523h2.1245l2.3257 3.242.559.85c.015-.03.0894-.15.2236-.358l.3354-.492 2.3258-3.242h2.1244l-3.9582 5.523L86.5368 159h-2.1245l-2.594-3.623-.3354-.47-.2236-.38-.2908.425-.2683.425L78.106 159h-2.1245zm22.95-1.342c-.969 1.074-2.266 1.6-3.8912 1.6s-2.922-.53-3.891-1.587-1.4536-2.52-1.4536-4.384c0-1.848.4846-3.31 1.4536-4.383s2.266-1.6 3.891-1.6c1.64 0 2.937.53 3.8912 1.588.97 1.06 1.4535 2.52 1.4535 4.383 0 1.85-.4845 3.3-1.4535 4.383zm-3.8912-.156c1.0734 0 1.9083-.373 2.5047-1.118.5963-.76.8945-1.797.8945-3.11 0-1.327-.2907-2.363-.8722-3.108s-1.4237-1.118-2.527-1.118-1.9455.372-2.527 1.118c-.5814.73-.872 1.774-.872 3.13 0 1.312.2907 2.34.872 3.087.5964.745 1.4387 1.118 2.527 1.118zm17.6717.156c-.97 1.074-2.266 1.6-3.89 1.6s-2.923-.53-3.892-1.587-1.453-2.52-1.453-4.384c0-1.848.484-3.31 1.453-4.383s2.266-1.6 3.892-1.6c1.64 0 2.936.53 3.89 1.588.97 1.06 1.453 2.52 1.453 4.383 0 1.85-.484 3.3-1.453 4.383zm-3.89-.156c1.073 0 1.908-.373 2.504-1.118.596-.76.895-1.797.895-3.11 0-1.327-.29-2.363-.873-3.108s-1.423-1.118-2.526-1.118-1.946.372-2.527 1.118c-.582.73-.873 1.774-.873 3.13 0 1.312.29 2.34.873 3.087.596.745 1.438 1.118 2.527 1.118zm18.79-4.72c0 .492-.022.9-.067 1.252h-7.984c.15 1.104.507 1.968 1.074 2.595.58.61 1.334.916 2.258.916.97 0 1.857-.328 2.662-.984l1.073 1.253c-1.073.97-2.34 1.453-3.802 1.453-1.595 0-2.87-.566-3.824-1.7-.94-1.133-1.41-2.564-1.41-4.294 0-1.863.47-3.324 1.41-4.383.954-1.058 2.23-1.588 3.824-1.588 1.402 0 2.55.462 3.444 1.387s1.342 2.288 1.342 4.092zm-8.095-.402h6.194c-.03-1.208-.328-2.073-.894-2.594s-1.23-.783-1.99-.783c-1.013 0-1.804.298-2.37.894-.552.597-.865 1.424-.94 2.483zm17.134-6.9a1.2 1.2 0 0 1-.85-.336c-.223-.238-.335-.522-.335-.85 0-.343.112-.633.335-.872.24-.238.522-.358.85-.358.343 0 .626.12.85.358.24.24.358.53.358.872s-.12.626-.358.85c-.224.224-.507.336-.85.336zm.962 11.83h3.153v1.7h-8.207v-1.7h3.153v-8.028h-3.153v-1.7h5.054v9.727zm12.192 1.968c-1.52 0-2.72-.536-3.6-1.6s-1.32-2.534-1.32-4.383.44-3.302 1.32-4.36c.894-1.073 2.087-1.6 3.578-1.6 1.222 0 2.25.358 3.086 1.074v-4.607l1.9-.917V159h-1.9v-.94c-.746.805-1.767 1.207-3.064 1.207zm.246-1.766c1.282 0 2.222-.522 2.818-1.566v-5.41c-.656-.984-1.603-1.476-2.84-1.476-1.03 0-1.82.365-2.37 1.095s-.827 1.774-.827 3.13c0 1.223.29 2.236.872 3.04.582.79 1.364 1.186 2.348 1.186zm9.308 6.015v-15.944h1.9v.984c.864-.835 1.886-1.253 3.063-1.253 1.536 0 2.744.537 3.623 1.6.895 1.074 1.342 2.527 1.342 4.36 0 1.864-.455 3.332-1.364 4.406-.9 1.058-2.087 1.587-3.534 1.587-1.31 0-2.355-.447-3.13-1.34v4.673l-1.9.917zm4.785-6.015c1.014 0 1.797-.366 2.35-1.096.566-.73.85-1.774.85-3.13 0-1.297-.3-2.326-.872-3.086-.566-.76-1.364-1.14-2.393-1.14-1.267 0-2.206.52-2.817 1.565v5.345c.76 1.028 1.722 1.543 2.884 1.543zm14.07 1.766c-1.222 0-2.28-.417-3.175-1.252V159h-1.9v-15.23l1.9-.917v5.77c.358-.403.812-.723 1.364-.962s1.133-.358 1.744-.358c1.476 0 2.654.537 3.534 1.6.88 1.06 1.32 2.512 1.32 4.36 0 1.923-.425 3.407-1.275 4.45-.835 1.03-2.005 1.543-3.51 1.543zm-.3-1.766c1.028 0 1.804-.373 2.325-1.118.537-.746.805-1.782.805-3.11 0-1.37-.268-2.415-.805-3.13-.52-.73-1.297-1.095-2.325-1.095-.656 0-1.245.164-1.767.492-.507.313-.88.663-1.118 1.05v5.344c.298.492.7.88 1.207 1.163.507.27 1.066.403 1.678.403zm-155.9677 41.97v-5.546c-.82.894-1.8412 1.34-3.0637 1.34-1.5058 0-2.7134-.53-3.6228-1.587-.8945-1.06-1.3418-2.52-1.3418-4.384 0-1.848.44-3.31 1.3195-4.383.8945-1.073 2.117-1.6 3.6674-1.6 1.1033 0 2.117.418 3.0414 1.253v-.984h1.9008V198.6l-1.9008.873zm-2.9072-5.97c1.0883 0 2.0574-.53 2.9072-1.588v-5.3c-.6113-1.044-1.543-1.565-2.7954-1.565-1.0137 0-1.8113.402-2.3928 1.207-.5814.8-.872 1.804-.872 3.04 0 1.372.2683 2.416.805 3.13s1.3194 1.074 2.348 1.074zm16.7992-10.198c1.0585 0 1.8933.18 2.5046.537v3.958H36.45v-2.594c-.149-.015-.3802-.022-.6933-.022-1.1628 0-2.1468.283-2.952.85-.79.566-1.1852 1.364-1.1852 2.392v4.875h3.332v1.7h-7.6705v-1.7h2.3928v-8.028h-2.3928v-1.7h4.2042v2c.3877-.686.9914-1.23 1.8114-1.633.835-.417 1.6847-.626 2.5494-.626zm11.4544 11.964c-1.2225 0-2.28-.417-3.1755-1.252V195h-1.9008v-15.23l1.9008-.917v5.77c.3578-.403.8125-.723 1.364-.962s1.133-.358 1.7443-.358c1.476 0 2.6537.537 3.5333 1.6.8796 1.06 1.3194 2.512 1.3194 4.36 0 1.923-.4248 3.407-1.2746 4.45-.835 1.03-2.0052 1.543-3.51 1.543zM47 193.502c1.0287 0 1.804-.373 2.3257-1.118.5367-.746.805-1.782.805-3.11 0-1.37-.2684-2.415-.805-3.13-.5218-.73-1.297-1.095-2.3257-1.095-.656 0-1.245.164-1.7667.492-.5068.313-.8796.663-1.118 1.05v5.344c.2982.492.7007.88 1.2076 1.163.507.27 1.066.403 1.6772.403zm14.563-.358h3.8464V195h-9.6608v-1.856h3.8912v-11.25l-3.4215 1.14v-1.856l5.3447-1.9v13.865zm15.7704-9.84c.9542 0 1.655.313 2.102.94.4622.626.6933 1.632.6933 3.018V195h-1.856v-7c0-1.043-.0895-1.79-.2684-2.236s-.5367-.67-1.0734-.67c-.5516 0-.9616.276-1.23.828s-.4025 1.282-.4025 2.19V195h-1.856v-7.2c0-.865-.0894-1.528-.2683-2-.164-.477-.4995-.716-1.0064-.716-.5516 0-.9765.284-1.2746.85-.2982.552-.4473 1.275-.4473 2.17V195h-1.856v-11.427h1.7443v1.476c.4472-1.163 1.1852-1.745 2.214-1.745.5665 0 1.0436.172 1.4312.515s.656.753.805 1.23c.64-1.163 1.4908-1.745 2.5493-1.745zM83.5202 195v-15.25l1.9008-.895v5.95c.7156-1 1.7667-1.5 3.153-1.5s2.4376.4 3.1532 1.23 1.0734 2.125 1.0734 3.914V195H90.9v-6.798c0-1.09-.246-1.886-.738-2.393-.477-.507-1.118-.76-1.9232-.76-1.8785 0-2.8177 1.036-2.8177 3.108V195h-1.9008zm13.1316 0l4.2262-5.904-3.9578-5.523h2.1244l2.3254 3.242.56.85c.015-.03.1-.15.224-.358l.335-.492 2.326-3.242h2.125l-3.96 5.523 4.227 5.904h-2.124l-2.595-3.623-.335-.47-.224-.38-.3.425-.27.425L98.7763 195h-2.1245zm14.4732 4.517v-15.944h1.9v.984c.865-.835 1.886-1.253 3.064-1.253 1.535 0 2.743.537 3.623 1.6.894 1.074 1.34 2.527 1.34 4.36 0 1.864-.454 3.332-1.364 4.406-.91 1.058-2.087 1.587-3.533 1.587-1.312 0-2.356-.447-3.13-1.34v4.673l-1.9.917zm4.786-6.015c1.014 0 1.796-.366 2.348-1.096.566-.73.85-1.774.85-3.13 0-1.297-.29-2.326-.872-3.086-.567-.76-1.365-1.14-2.393-1.14-1.267 0-2.207.52-2.818 1.565v5.345c.76 1.028 1.722 1.543 2.885 1.543zm16.396-10.198c1.06 0 1.894.18 2.505.537v3.958h-1.9v-2.594c-.15-.015-.38-.022-.693-.022-1.163 0-2.147.283-2.952.85-.8.566-1.185 1.364-1.185 2.392v4.875h3.332v1.7h-7.67v-1.7h2.392v-8.028h-2.392v-1.7h4.204v2c.387-.686.99-1.23 1.81-1.633.835-.417 1.685-.626 2.55-.626zm10.203 11.964c-1.238 0-2.23-.328-2.975-.984-.745-.67-1.118-1.625-1.118-2.862s.418-2.177 1.253-2.818c.85-.64 1.893-.96 3.13-.96 1.133 0 2.162.246 3.086.738v-.873c0-1.7-.805-2.55-2.415-2.55-1.178 0-2.385.403-3.623 1.208l-.56-1.588c1.372-.85 2.826-1.275 4.36-1.275.492 0 .954.06 1.387.18.432.105.857.298 1.274.582.433.268.768.685 1.007 1.252.253.566.38 1.252.38 2.057V195h-1.812v-1.05c-.954.88-2.08 1.32-3.376 1.32zm.246-1.654c1.192 0 2.236-.522 3.13-1.566v-1.968c-.88-.537-1.833-.805-2.862-.805-.805 0-1.476.186-2.013.56-.536.358-.805.887-.805 1.588 0 .656.224 1.185.67 1.588s1.074.604 1.88.604zm18.185.044c-.97 1.074-2.266 1.6-3.89 1.6s-2.922-.53-3.89-1.587-1.454-2.52-1.454-4.384c0-1.848.485-3.31 1.454-4.383s2.266-1.6 3.89-1.6c1.64 0 2.937.53 3.89 1.588.97 1.06 1.454 2.52 1.454 4.383 0 1.85-.485 3.3-1.454 4.383zm-3.89-.156c1.074 0 1.908-.373 2.505-1.118.596-.76.894-1.797.894-3.11 0-1.327-.3-2.363-.872-3.108s-1.424-1.118-2.527-1.118-1.945.372-2.527 1.118c-.58.73-.872 1.774-.872 3.13 0 1.312.29 2.34.872 3.087.596.745 1.44 1.118 2.527 1.118zm9.017-14.156h9.504v1.43c-.954 1.104-1.766 2.31-2.437 3.623-.656 1.312-1.148 2.616-1.476 3.914-.313 1.282-.537 2.452-.67 3.5a25.268 25.268 0 0 0-.201 3.176h-1.924c.015-2.654.358-5.09 1.03-7.313.67-2.236 1.834-4.442 3.49-6.62h-7.313v-1.722z" fill-opacity=".5"/><path d="M359.34 43.6718h-38.054v-3.41h38.054v3.41zm0 11.9714h-38.054v-3.41h38.054v3.41zm46.844-23.2292c-4.52 0-8.007 2.0613-10 5.5497-1.824-3.3298-4.995-5.5497-9.038-5.5497-3.647 0-6.58 1.7442-8.642 4.52v-3.8847h-10.148v31.7123h10.148v-18.393c0-2.2992 1.427-4.9947 4.52-4.9947 2.775 0 4.598 2.2198 4.598 4.9947v18.393h10.148v-18.393c0-2.2992 1.427-4.9947 4.52-4.9947 2.775 0 4.678 2.2198 4.678 4.9947v18.393h10.068v-20.058c0-7.3732-3.884-12.2886-10.86-12.2886zm52.422 19.503c-1.348 7.928-7.85 13.4778-17.363 13.4778-10.623 0-17.68-6.9768-17.68-16.4904s7.056-16.4905 17.68-16.4905c9.514 0 16.015 5.5497 17.363 13.4778H448.14c-1.03-2.6956-3.647-4.4397-6.898-4.52-4.36.0793-7.53 3.2505-7.53 7.5317s3.17 7.4523 7.53 7.5316c3.25-.0793 5.867-1.8234 6.898-4.52h10.465z"/></g><path fill-rule="evenodd" d="M296.838 32.3347c10.386 0 17.442 6.5803 17.52 16.4904l-.08 1.7442h-24.577c.396 4.52 2.616 7.2938 7.294 7.2938 3.567 0 6.104-1.5063 6.976-4.0433h9.83c-1.585 6.8975-7.61 11.575-16.728 11.575-10.703 0-18.076-6.5803-18.076-16.4904s7.452-16.5697 17.838-16.5697zm6.818 12.13c-1.03-2.7748-3.17-4.3605-6.66-4.3605-3.647 0-5.708 1.665-6.74 4.3605h13.398z" class="H"/><path d="M346.248 139.76c9.196 0 16.995-5.418 16.995-14.614 0-18.226-22.66-13.7-22.66-22.25 0-2.8 2.135-4.105 4.762-4.105 2.792 0 5.583 1.56 8.046 4.27l7.225-6.8962c-3.613-4.187-9.113-6.9785-15.2-6.9785-7.8 0-15.763 4.6797-15.763 14.5317 0 16.75 22.742 12.726 22.742 21.346 0 2.7-2.3 4.516-6.076 4.516-4.515 0-8.046-2.545-9.852-6.404l-8.95 5.583c3.202 6.157 10.1 11 18.72 11zm27.358-45.6467v4.3513l31.937 15.1064-31.937 15.107v4.433l36.206-17.24v-4.598l-36.206-17.1587zm0 44.9907h36.206v-3.2h-36.206v3.2z" class="B"/><path d="M304.698 89.844h-5.912L279 139.105h45.402l-19.704-49.26zm-18.145 44.58l15.2-38.5875 15.106 38.5875h-30.295zm154.2 5.335c12.15 0 18.4-10.262 18.4-25.287s-6.24-25.2867-18.4-25.2867c-12.315 0-18.473 10.2625-18.473 25.2867s6.158 25.287 18.473 25.287zm0-9.277c-5.993 0-7.964-6.404-7.964-16s1.97-16.0094 7.964-16.0094c5.9 0 7.882 6.4034 7.882 16.0094s-1.97 16-7.882 16z" class="J"/><path d="M331.762 198.542h3.148v-12.095h12.094v-3.204H334.9V171.15h-3.148v12.094h-12.15v3.204h12.15v12.095zm64.153-14.692h26.5v-2.375h-26.5v2.375zm0 8.34h26.5v-2.374h-26.5v2.374zm66.465-17.446l1.766-2.293c1.696-2.247 2.246-3.14 2.27-4.745.023-2.27-1.834-3.966-4.287-3.966-2.52 0-4.814 1.834-4.54 4.447h3.256c-.184-.917.4-1.467 1.123-1.467.458 0 1.215.183 1.215 1.26 0 .527-.115.848-1.42 2.613l-5.296 7.107H466.6v-2.957h-4.22z" class="B"/><path d="M311.493 174.744l1.765-2.293c1.697-2.247 2.247-3.14 2.27-4.745.023-2.27-1.834-3.966-4.287-3.966-2.522 0-4.814 1.834-4.54 4.447h3.255c-.183-.917.4-1.467 1.124-1.467.458 0 1.215.183 1.215 1.26 0 .527-.115.848-1.422 2.613l-5.295 7.107H315.7v-2.957h-4.218zm75.86 0l1.765-2.293c1.696-2.247 2.246-3.14 2.27-4.745.023-2.27-1.834-3.966-4.287-3.966-2.52 0-4.814 1.834-4.54 4.447h3.256c-.184-.917.4-1.467 1.123-1.467.458 0 1.215.183 1.215 1.26 0 .527-.115.848-1.42 2.613l-5.296 7.107h10.133v-2.957h-4.218zm55.07 23.406c6.628 0 11.156-3.866 12.095-9.4h-7.3c-.718 1.878-2.54 3.093-4.805 3.148-3.037-.055-5.246-2.264-5.246-5.247s2.2-5.2 5.246-5.246c2.265.055 4.087 1.27 4.805 3.148h7.3c-.94-5.523-5.467-9.4-12.095-9.4-7.4 0-12.316 4.86-12.316 11.487s4.916 11.488 12.316 11.488z" class="H"/><path d="M368.67 175.175c-2.54 0-4.64.884-6.296 2.375v-17.673h-7.07v37.83l7.07.055v-1.988c1.657 1.5 3.755 2.375 6.296 2.375 6.075 0 10.88-5.08 10.88-11.488s-4.805-11.487-10.88-11.487zm-1.38 16.734c-2.927 0-5.246-2.32-5.246-5.247s2.32-5.246 5.246-5.246 5.247 2.32 5.247 5.246-2.32 5.247-5.247 5.247zm-64.072.055c-.83 0-1.38-1.05-1.38-2.87V184.4c0-5.633-4.363-9.223-10.825-9.223s-10.77 3.203-10.77 8.174h7.07c0-1.767 1.546-2.817 3.7-2.817 2.2 0 3.756 1.215 3.756 3.148v1.657h-7.57c-4.252 0-6.958 2.54-6.958 6.462 0 3.866 3.203 6.35 8.118 6.35 3.26 0 6.075-1.16 7.787-3.093 1.27 1.988 3.37 3.093 6.02 3.093.663 0 1.5-.166 2.2-.442v-5.744h-1.16zm-12.87 1.436c-1.822 0-2.982-.718-2.982-1.877s.884-1.933 2.264-1.933h5.137c-.276 2.32-1.933 3.8-4.42 3.8z" class="B"/><g class="H"><path d="M478.174 31.9494l-3.23 4.1973h7.722v5.4144h-18.55l9.695-13.0114c2.393-3.232 2.603-3.8195 2.603-4.7848 0-1.9727-1.385-2.3085-2.225-2.3085-1.343 0-2.392 1.0073-2.057 2.6862h-5.96C465.667 19.3578 469.864 16 474.48 16c4.49 0 7.89 3.106 7.85 7.2612-.042 2.938-1.05 4.575-4.156 8.6882z"/><path d="M675.667 191.345c-3.705-.542-8.405-2.356-14.368-5.548-.867-.463-1.217-1.595-.75-2.47.464-.866 1.595-1.216 2.47-.748 5.508 2.947 9.94 4.68 13.175 5.153 2.112.31 3.63.073 4.517-.703.993-.87.904-2.41.644-5.284-.304-3.366-.683-7.557 1.444-12.373 3.21-7.278 11.213-14.198 19.64-12.897 5.352.83 10.48 4.83 11.658 10.262 1.002 4.624-.44 10.96-5.367 12.73-3.268 1.168-7-.172-9.55-2.34-.762-.633-.872-1.825-.223-2.587.643-.754 1.836-.85 2.6-.19.03.026 3.186 2.675 5.948 1.683 3.127-1.123 3.632-5.763 3.033-8.524-.858-3.958-4.788-6.83-8.65-7.428-6.776-1.046-13.197 5-15.745 10.765-1.745 3.954-1.428 7.47-1.148 10.57.292 3.2.563 6.222-1.873 8.357-2.02 1.78-4.896 1.957-7.447 1.573z" class="C D E"/></g><path d="M713.005 167.615c.807 3.724.086 8.36-2.76 11.1 3.752-2.46 4.75-7.85 3.855-11.976-1.177-5.43-6.305-9.433-11.658-10.262-4.836-.747-9.62 1.354-13.25 4.44 8.33-5.894 21.407-4.406 23.815 6.7zm-5.04 8.213c-1.973 2.296-5.517 1.114-7.5-.6a1.813 1.813 0 0 0-.798-.395c-.295-.063-.6-.054-.9.03.3-.533.85-.893 1.454-.942a1.831 1.831 0 0 1 1.33.43c1.6 1.423 4.368 2.567 6.415 1.477zm-47.014 6.966c.256-.22 1.13-.656 1.68-.4l1.805.878c3.607 1.782 9.304 4.596 13.413 4.596 3.65 0 3.978-1.825 3.467-6.642.062.28.14.586.224.913.702 2.756 1.758 6.897-3.7 6.897-5.948 0-15.24-5.15-16.897-6.24z" fill-opacity=".25" class="B"/><path d="M625.443 180.86c2.664 0 4.792-2.377 4.528-4.994-.396-4.636 1.36-9.648 4.814-14.48 3.142-4.397 6.51-6.807 3.92-9.65s-8.435.287-11.343 4.343c-4.796 6.7-7.094 13.803-6.47 20.706.233 2.297 1.886 4.074 4.55 4.074z" class="C D E H"/><path d="M622.967 174.45c-.03-8.195 6.54-20.266 14.24-23.66-9.488-1.533-17.882 17.043-16.255 25.676.526-.86 1.44-1.7 2.014-2.016z" class="B F"/><path d="M652.622 202.72c.365-6.356 2-11.27 3.443-15.095s3.095-10.56-3.107-12.117c-8.868-2.226-13.745 18.548-14.11 24.885-.214 3.728 2.688 8.053 6.453 8.27 3.465.168 7.112-2.32 7.32-5.942z" class="C D E H"/><path d="M638.762 200.385c3.76-.5 10.802-.5 13.758 2.482l.122-1.098c-3.078-2.698-10.085-2.88-13.724-2.37-.02.24-.136.74-.156.985zm1.168-6.533c3.486 3.233 7.947 5.046 12.992 5.73.042-.365.132-.9.182-1.24-5.007-.648-9.357-2.744-12.846-5.912-.146.438-.264 1.114-.328 1.423z" class="B F"/><path d="M658.553 202.72c-.365-6.356-2-11.27-3.443-15.095s-3.096-10.56 3.107-12.117c8.868-2.226 13.744 18.548 14.108 24.885.215 3.728-2.687 8.053-6.452 8.27-3.465.168-7.112-2.32-7.32-5.942z" class="C D E H"/><path d="M672.413 200.385c-3.76-.5-10.803-.5-13.76 2.482l-.12-1.098c3.077-2.698 10.084-2.88 13.724-2.37.02.24.136.74.156.985zm-1.168-6.533c-3.486 3.233-7.947 5.046-12.992 5.73-.043-.365-.132-.9-.183-1.24 5.007-.648 9.358-2.744 12.846-5.912.146.438.265 1.114.33 1.423z" class="B F"/><path d="M685.732 180.86c-2.664 0-4.792-2.377-4.528-4.994.395-4.636-1.36-9.648-4.814-14.48-3.143-4.397-6.51-6.807-3.92-9.65s8.435.287 11.342 4.343c4.797 6.7 7.094 13.803 6.47 20.706-.234 2.297-1.886 4.074-4.55 4.074z" class="C D E H"/><path d="M688.207 174.45c.03-8.195-6.54-20.266-14.24-23.66 9.49-1.533 17.883 17.043 16.256 25.676-.526-.86-1.44-1.7-2.015-2.016z" class="B F"/><path d="M738.298 84.8886c8.11 7.445 4.84 22.5744-.663 31.1784-7.844 12.262-25.8 19.98-34.996 13.457-9.604-6.814-8.35-28.24 2.86-39.365 8.37-8.3047 24.412-12.9695 32.798-5.2705z" class="C D E I"/><path d="M728.83 93.6538c4.818 4.977 2.197 14.3552-1.58 19.5522-5.383 7.405-16.946 11.583-22.476 7.143-5.777-4.637-4.19-18.045 3.266-24.6107 5.566-4.902 15.812-7.2318 20.8-2.0845z" fill="#ffc9a1"/><path d="M737.635 116.066c-4.43 6.923-14.24 14.833-25.298 15.818 7.763-1.824 18.978-9.77 22.38-15.088 5.505-8.603 8.42-24.7414.664-31.1783-2.366-1.963-8.374-4.753-16.622-3.2933 10.073-3.102 16.26-.4474 19.54 2.5634 8.107 7.4442 4.838 22.5752-.666 31.1782z" class="B G"/><path d="M572.877 84.8887c-8.11 7.445-4.84 22.5753.663 31.1783 7.844 12.262 25.8 19.98 34.996 13.457 9.604-6.814 8.35-28.24-2.86-39.3648-8.37-8.3047-24.41-12.9695-32.798-5.2705z" class="C D E I"/><path d="M582.344 93.6538c-4.817 4.977-2.197 14.3552 1.58 19.5522 5.383 7.405 16.946 11.583 22.477 7.143 5.776-4.637 4.188-18.045-3.267-24.6107-5.566-4.902-15.812-7.2318-20.8-2.0845z" fill="#ffc9a1"/><path d="M573.54 116.066c4.43 6.923 14.24 14.833 25.298 15.818-7.763-1.824-18.98-9.77-22.382-15.088-5.504-8.603-8.42-24.7414-.663-31.1783 2.365-1.963 8.374-4.753 16.622-3.2933-10.073-3.102-16.262-.4474-19.542 2.5634-8.106 7.4442-4.837 22.5752.667 31.1782z" class="B G"/><path d="M655.59 137.14c11.24 0 16.057 9.853 18.977 17.955s4.233 16.058 4.233 21.313c0 11.094-10.122 22.295-23.2 22.408-12.812.1-23.21-11.314-23.21-22.408 0-5.255 1.292-13.248 4.233-21.313 2.92-8.102 7.737-17.955 18.978-17.955z" class="C D E H"/><path d="M655.587 198.816c-12.822.116-24.086-11.46-23.2-24.598.73 10.803 10.594 21.056 23.2 20.948s22.48-10.145 23.21-20.948c.876 13.138-10.39 24.48-23.21 24.598z" class="B F"/><path d="M655.587 146.2c7.59 0 11.68 4.963 12.7 9.343 2.518 10.79 4.672 20 .292 25.546s-9.85 5.985-12.992 5.985c-3.47 0-8.612-.438-12.992-5.985s-2.368-14.147.292-25.546c1.022-4.38 5.11-9.343 12.7-9.343z" class="C D E I"/><g class="B"><path d="M655.587 187.064c-9.927 0-16.35-6.86-15.547-15.765.292 8.394 7.007 13.868 15.547 13.868s15.255-5.474 15.547-13.868c.803 8.904-5.62 15.765-15.547 15.765z" class="G"/><path d="M684.42 156.847c-8.42 3.3-19.78 5.766-28.83 5.766s-18.93-1.93-28.83-5.766c-.53.77-1.213 1.917-1.68 2.7 10.365 4.16 20.072 6.277 30.5 6.277s20.145-2.116 30.51-6.277c-.45-.78-1.162-1.924-1.678-2.7z" class="F"/></g><path d="M692.106 12.4004c3.09-2.6167-9.074-5.5472-10.695-10.1813-1.956-5.5844 28.874 9.277 24.202 19.056-.365.767-4.046 6.86-30.482-1.735C704.193 28.97 726.2 48.9638 726.096 85.974c-.08 28.375-25.552 72.319-70.54 72.711-43.4.378-70.554-43.518-70.476-72.711.096-35.651 31.54-72.3283 70.508-75.0698 23.313-1.6386 33.96 3.6568 36.518 1.4963z" stroke-linejoin="round" class="C D H"/><path d="M696.84 14.03c-2.165 4.756-15.46-2.9196-38.773-1.2803-47.696 3.353-82.255 56.2896-63.106 99.1982 4.974-5.137 11.032-6.596 12.963-7.237.58.625 1.284 1.3 1.536 1.6-5.94 1.85-12.84 5.868-15.812 11.447-5.567-10.773-8.54-22.0835-8.5-31.7743.097-35.6518 31.548-72.3327 70.515-75.075 23.313-1.6386 33.908 3.6568 36.465 1.4934 3.078-2.6094-9.085-5.54-10.704-10.174-.626-1.7853 2.103-1.4795 5.952.0825-1.46-.2102-2.263.1336-1.865 1.1583 1.415 3.678 13.16 6.5705 11.34 10.57zm29.146 71.95c-.026 9.3237-2.782 20.328-8.068 30.916-5.47-7.5-15.272-10.484-16.274-10.484l1.46-1.788c1.715.4 9.388 2.037 13.67 7.75 4.33-9.645 6.315-18.6238 6.34-27.0687.107-38.2638-25.8-57.285-47.98-65.765 29.062 9.4288 50.96 29.428 50.855 66.4387z" class="B F"/><path d="M635.516 39.005c-21.678 0-48.54 45.874-26.532 67.041-42.006 13.138 0 56.86 46.604 56.86s88.61-43.72 46.603-56.86c22.007-21.167-4.853-67.041-26.53-67.041-9.233 0-14.27 4.27-20.072 8.5033-5.803-4.2334-10.84-8.5033-20.072-8.5033z" fill="#ffcd98" class="C D"/><g class="B"><path d="M710.264 83.7842c-1.146-22.5202-19.342-44.7565-35.144-44.7565-9.825 0-15.78 5.9954-19.532 8.4807-3-2.0474-9.672-8.4807-19.59-8.4807-18.656 0-34.896 27.24-35.2 45.4513-1.64-19.599 13.4-49.014 35.292-49.014 11.387 0 17.445 5.4742 19.49 7.737 2.043-2.2627 8.1-7.737 19.488-7.737 21.723 0 36.75 27.8455 35.188 48.319z" class="F"/><path d="M600.873 83.0826c-.52 8.5726 1.753 16.7887 8.135 22.9274-.76.238-1.495.56-2.2.816 1.63-.524 3.187-.896 4.987-1.218-6.17-5.9352-9.742-13.9967-10.92-22.5254zm-7.43 33.5224c-9.92 17.902 24.402 46.263 62.144 46.263s72.5-28.673 62.023-46.557c6.96 16.358-26.206 43.82-62.023 43.82-35.604 0-68.587-27.136-62.144-43.526zm111.083-9.755l-5.146-1.24c6.228-6 9.808-14.146 10.954-22.7623.576 8.658-1.68 16.97-8.12 23.1643.826.258 1.55.557 2.312.84z" class="G"/></g><path d="M638.046 53.571c11.306 1.3138 19.45 15.2366 18.248 27.5003-1.196 12.214-11.875 24.9628-24.078 23.5758-11.08-1.263-18.266-13.5923-18.503-23.9525-.315-13.8796 11.74-28.5878 24.333-27.1236z" fill="#fff"/><path d="M651.772 84.3845c1.614-8.3175-2.883-16.1863-10.043-17.5756s-14.273 4.2272-15.887 12.5447 2.883 16.1863 10.043 17.5755 14.273-4.2272 15.887-12.5446z" class="C D E J"/><path d="M639.618 92.8758c4.27 0 7.732-3.871 7.732-8.6463s-3.462-8.6464-7.732-8.6464-7.733 3.871-7.733 8.6464 3.462 8.6463 7.733 8.6463z" class="B"/><path d="M646.456 78.1864c.544-1.5364-.322-3.2444-1.934-3.815s-3.36.2124-3.904 1.7488.323 3.2444 1.935 3.815 3.36-.2124 3.903-1.7488z" fill="#fff" class="C D E"/><g class="B"><path d="M643.61 55.318c-14.918-4.0797-27.333 13.5945-27.028 26.861.18 7.828 4.332 16.7722 11.145 21.287-8.496-3.5602-13.81-13.8918-14.014-22.7725-.316-13.876 11.738-28.582 24.332-27.1192a15.875 15.875 0 0 1 5.565 1.7437z" fill-opacity=".05"/><path d="M645.634 68.3498c-8.237-2.3407-15.53 4.766-17.018 12.4403-1.223 6.3027 1.027 12.3513 5.28 15.5723-5.977-2.3356-9.506-9.4835-8.047-16.9985 1.614-8.3208 8.728-13.933 15.888-12.5433 1.38.268 2.7.7863 3.896 1.5292z" class="F"/></g><path d="M672.667 53.2684c-11.28 1.5094-19.18 15.573-17.766 27.8148 1.41 12.1893 12.308 24.7508 24.486 23.1468 11.056-1.455 18.028-13.9078 18.082-24.27.07-13.8797-12.238-28.3732-24.802-26.6915z" fill="#fff"/><path d="M675.567 96.6076c7.135-1.514 11.494-9.46 9.735-17.748S676.334 65.08 669.2 66.594s-11.494 9.46-9.735 17.748 8.968 13.7795 16.103 12.2655z" class="C D E J"/><path d="M671.78 92.5943c4.27-.0745 7.664-4.0054 7.58-8.78s-3.613-8.5846-7.883-8.51-7.663 4.0055-7.58 8.78 3.612 8.5846 7.882 8.5z" class="B"/><path d="M676.633 79.944c1.602-.5985 2.438-2.3214 1.867-3.848s-2.33-2.279-3.933-1.6805-2.438 2.3214-1.867 3.848 2.33 2.28 3.933 1.6804z" fill="#fff" class="C D E"/><g class="B"><path d="M697.466 79.9595c-.048 8.9974-5.3 19.5707-13.932 23.1535 6.955-4.498 11.1-13.7283 11.143-21.7185.07-13.3996-13.218-31.4762-28.17-25.9244 1.898-1.1387 3.963-1.908 6.158-2.202 12.567-1.6817 24.876 12.8118 24.802 26.6915z" fill-opacity=".05"/><path d="M677.126 96.1486c4.442-3.186 6.758-9.4208 5.39-15.8607-1.634-7.7032-9.232-14.7007-17.425-11.9483 1.243-.849 2.64-1.447 4.112-1.7598 7.135-1.5146 14.345 3.9765 16.105 12.2622 1.628 7.6712-1.982 15.0483-8.183 17.3066z" class="F"/><path d="M639.895 104.367c0 5.573 7.215 12.335 15.784 12.262 7.9-.07 15.602-6.755 15.602-12.246 0-11.1034-31.386-11.271-31.386-.016z" class="G"/></g><path d="M639.676 103.053c0 5.573 7.316 12.336 16.004 12.263 8-.07 15.82-6.756 15.82-12.247 0-4.4176-9.214-8.3036-15.82-8.2474-6.132.057-16.004 3.0043-16.004 8.2314z" fill="#7a5d43"/><path d="M639.79 102.088c3.048 3.996 9.1 7.367 15.9 7.315 6.292-.05 12.475-3.44 15.626-7.412.12.354.18.715.18 1.078 0 5.49-7.81 12.177-15.82 12.247-8.688.073-16.004-6.7-16.004-12.263 0-.33.04-.653.115-.965z" fill-opacity=".2" class="B"/><path d="M649.02 210.713c2.335 0 4.604-1.722 4.868-4.098.665-6-6.887-6.546-10.997-6.636-4.168-.09-11.243.698-12.483 5.275-1.084 4 2.663 5.46 5.327 5.46s3.577-.887 6.787-.887c2.804 0 4.162.887 6.498.887z" class="C D E I"/><path d="M648.946 209.107c-2.336 0-3.694-.887-6.498-.887-3.2 0-4.122.887-6.787.887-2.072 0-4.8-.883-5.4-3.157-.49 3.474 2.97 4.763 5.472 4.763 2.665 0 3.577-.887 6.787-.887 2.804 0 4.162.887 6.498.887 3.128 0 5.328-2.493 4.8-5.858-.216 2.442-2.484 4.252-4.883 4.252z" class="B G"/><path d="M662.156 210.713c-2.335 0-4.604-1.722-4.868-4.098-.665-6 6.887-6.546 10.997-6.636 4.168-.09 11.243.698 12.483 5.275 1.083 4-2.663 5.46-5.328 5.46s-3.576-.887-6.786-.887c-2.804 0-4.162.887-6.498.887z" class="C D E I"/><path d="M662.23 209.107c2.336 0 3.694-.887 6.497-.887 3.21 0 4.123.887 6.787.887 2.072 0 4.8-.883 5.4-3.157.49 3.474-2.968 4.763-5.472 4.763-2.664 0-3.576-.887-6.787-.887-2.803 0-4.16.887-6.497.887-3.128 0-5.328-2.493-4.8-5.858.216 2.442 2.484 4.252 4.883 4.252z" class="B G"/><path d="M626.494 189.1c4.147.003 6.787-4.97 4.276-8.413 1.162-3.3-1.32-6.963-4.865-7.048-4.088-.097-6.45 4.27-6.022 7.966.4 3.453 2.74 7.492 6.61 7.495z" class="C D E I"/><path d="M619.883 181.605c.495 4.274 3.968 9.255 9.15 6.847-5.024-.643-8.54-9.16-6.066-14.003-.394.28-1.014.61-2.015 2.015-.897 1.586-1.29 3.372-1.07 5.14z" class="B G"/><path d="M684.68 189.1c-4.147.003-6.787-4.97-4.276-8.413-1.162-3.3 1.32-6.963 4.865-7.048 4.088-.097 6.45 4.27 6.022 7.966-.4 3.453-2.74 7.492-6.61 7.495z" class="C D E I"/><path d="M691.292 181.605c-.495 4.274-3.97 9.255-9.15 6.847 5.023-.643 8.54-9.16 6.066-14.003.394.28 1.014.61 2.015 2.015.897 1.586 1.29 3.372 1.07 5.14z" class="B G"/><path d="M655.617 153.38c20.072 0 41.75-8.212 48.41-27.695 1.113-3.088-1.613-6.203-4.924-5.732-14.417 2.048-28.96 3.076-43.523 3.076s-29.107-1.028-43.525-3.076c-3.308-.47-5.996 2.628-4.923 5.732 6.734 19.483 28.412 27.695 48.484 27.695z" fill="#3d0c0c"/><path d="M697.8 134.515c2.4-2.93 4.086-6.04 4.944-9.184.65-2.385-1.072-4.383-3.433-4.048-28.93 4.05-58.497 4.102-87.427.001-2.364-.333-4.086 1.662-3.436 4.047.857 3.145 2.553 6.254 4.944 9.184 27.962 3.83 56.447 3.864 84.408 0zm-42.173 17.515c14.493.025 30.233-4.796 40.43-15.542-26.82 3.528-54.103 3.525-80.924.002 10.275 10.828 25.884 15.515 40.493 15.54z" fill="#fff"/><path d="M702.735 125.33c-.857 3.145-2.554 6.254-4.944 9.184l-6.5.82c3.105-4.363 5.28-9.064 6.715-13.873l1.28-.178c2.367-.336 4.1 1.662 3.44 4.047zm-89.355 9.185l6.538.825c-3.117-4.358-5.293-9.06-6.723-13.87l-1.323-.185c-2.364-.332-4.085 1.662-3.436 4.047.857 3.145 2.553 6.254 4.944 9.184zm1.743 1.97c5.72 6.026 13.312 10.345 21.2 12.682-6.3-3.3-11.254-7.43-15.08-11.942l-6.108-.74zM675.03 149.1c7.825-2.353 15.326-6.623 21.02-12.623l-6.053.735c-3.815 4.485-8.728 8.575-14.967 11.888z" class="B G"/><path d="M228.565 128.065c0 2.45 1.985 4.435 4.435 4.435s4.435-1.986 4.435-4.435v-11.13H248c2.76 0 5-2.238 5-5v-1.87c0-1.105-.895-2-2-2h-13.565V96.9355c0-2.4497-1.985-4.4355-4.435-4.4355s-4.435 1.9858-4.435 4.4355v11.1295H215c-1.105 0-2 .895-2 2v1.87c0 2.762 2.24 5 5 5h10.565v11.13z" fill="#abacb2"/><path d="M237.435 113.685h-.75v11.88c0 2.035-1.65 3.685-3.685 3.685s-3.685-1.65-3.685-3.685v-11.88h-11.88c-2.035 0-3.685-1.65-3.685-3.685s1.65-3.685 3.685-3.685h11.88V94.4355c0-2.0355 1.65-3.6855 3.685-3.6855s3.685 1.65 3.685 3.6855v11.8795h11.88c2.035 0 3.685 1.65 3.685 3.685s-1.65 3.685-3.685 3.685h-11.13z" fill="#d0d1d6" stroke="#abacb2" stroke-width="1.5"/><path d="M499 106.083c0 2.21 1.79 4 4 4h32c2.21 0 4-1.79 4-4v-1.833a1.751 1.751 0 0 0-1.75-1.75h-36.5a1.751 1.751 0 0 0-1.75 1.75v1.833zm0 13.584c0 2.21 1.79 4 4 4h32c2.21 0 4-1.79 4-4v-1.834a1.751 1.751 0 0 0-1.75-1.75h-36.5a1.751 1.751 0 0 0-1.75 1.75v1.834z" fill="#abacb2"/><path d="M502.792 106.833c-1.68 0-3.042-1.36-3.042-3.04s1.362-3.042 3.042-3.042h32.416c1.68 0 3.042 1.362 3.042 3.042s-1.362 3.04-3.042 3.04h-32.416zm0 13.584c-1.68 0-3.042-1.362-3.042-3.042s1.362-3.042 3.042-3.042h32.416c1.68 0 3.042 1.362 3.042 3.042s-1.362 3.042-3.042 3.042h-32.416z" fill="#d0d1d6" stroke="#abacb2" stroke-width="1.5"/></svg>