<svg xmlns="http://www.w3.org/2000/svg" width="746" height="212" fill="none" xmlns:v="https://vecta.io/nano"><g fill="#727272"><rect x="7" y="37" width="176" height="14" rx="7"/><rect x="7" y="73" width="176" height="14" rx="7"/><rect x="7" y="109" width="176" height="14" rx="7"/><rect x="7" y="145" width="176" height="14" rx="7"/><rect x="14" y="181" width="162" height="14" rx="7"/></g><rect x="321" y="32" width="138" height="33" rx="16.5" fill="#000"/><g fill="#c66aff"><rect x="279" y="32" width="35" height="33" rx="16.5"/><rect x="466" y="16" width="16" height="26" rx="8"/></g><g fill="#000"><rect x="279" y="175" width="145" height="24" rx="12"/><rect x="457" y="163.8" width="10" height="14" rx="5"/></g><rect x="430" y="175" width="25" height="24" rx="12" fill="#c66aff"/><rect x="279" y="90" width="41" height="50" rx="20.5" fill="#32ea7b"/><rect x="328" y="90" width="82" height="50" rx="25" fill="#000"/><rect x="423" y="90" width="36" height="50" rx="18" fill="#32ea7b"/><path fill-rule="evenodd" d="M691.93 12.4004c3.09-2.6167-9.074-5.5472-10.695-10.1813-1.956-5.5844 28.874 9.277 24.2 19.056-.364.7663-4.037 6.848-30.396-1.7074 27.69 9.008 48.957 27.6235 50.756 61.4337 31.765-1.541 15.203 47.4985-8.2 49.8355-4.424 10.085-17.045 20.436-33.055 26.556 1.094 1.654 2.037 3.33 2.822 5.017 3.94-4.06 9.328-6.796 14.903-5.935 19.182 2.97 10.107 32.027-3.258 20.652-1.826-1.517.578-4.34 2.366-2.778 8.654 7.247 13.364-12.25.332-14.27-4.92-.76-9.654 2.22-12.853 6.117 1.343 4.177 2.773 11.01 2.264 15.408-.427 3.682-3.223 8.144-7.463 7.424-2.585 3.216-7.272 2.7-10.833 1.75-1.82 3.22-1.32 6.22-.684 9.397 8.863 0 13.157 10.536 3.13 10.536-2.664 0-3.577-.887-6.787-.887-2.804 0-4.162.887-6.497.887-4.126 0-6.567-5.11-3.61-8.112 0-4.6-5.917-5.1-5.917 0 3.546 3.9.046 9.9-6.55 7.7-.993-.332-2.092-.474-3.558-.474-1.68 0-2.73.243-3.732.475-11.01 2.544-12.114-9.3.075-10.124.12-1.742.552-4.446 1.283-7.44-9.272-8.386-8.52-19.92-5.612-30.997-7.86 13.26-1.52 12.57-3.765 18.947 2.51 3.442-.13 8.416-4.276 8.413-13.83-.01-4.32-26.7-.035-31.707-16-6.12-28.63-16.47-33.055-26.556-23.23-2.337-40.04-51.4983-8.11-49.831 2.82-34.0152 33.137-67.4878 70.295-70.102 23.313-1.6386 33.96 3.6568 36.518 1.4963zm-11.7 168.2866c-1.497 2.05-1.163 4.647.228 6.408-1.412 1.14-3.574.827-5.234.5 5.002-7.91 3.48-17.292 1.223-25.88 8.094 14.286 2.165 13.786 3.783 18.973z" fill="#c66aff"/><path d="M228.565 128.065c0 2.45 1.985 4.435 4.435 4.435s4.435-1.986 4.435-4.435v-11.13H248c2.76 0 5-2.238 5-5v-1.87c0-1.105-.895-2-2-2h-13.565V96.9355c0-2.4497-1.985-4.4355-4.435-4.4355s-4.435 1.9858-4.435 4.4355v11.1295H215c-1.105 0-2 .895-2 2v1.87c0 2.762 2.24 5 5 5h10.565v11.13z" fill="#abacb2"/><path d="M237.435 113.685h-.75v11.88c0 2.035-1.65 3.685-3.685 3.685s-3.685-1.65-3.685-3.685v-11.88h-11.88c-2.035 0-3.685-1.65-3.685-3.685s1.65-3.685 3.685-3.685h11.88V94.4355c0-2.0355 1.65-3.6855 3.685-3.6855s3.685 1.65 3.685 3.6855v11.8795h11.88c2.035 0 3.685 1.65 3.685 3.685s-1.65 3.685-3.685 3.685h-11.13z" fill="#d0d1d6" stroke="#abacb2" stroke-width="1.5"/><path d="M499 106.083c0 2.21 1.79 4 4 4h32c2.21 0 4-1.79 4-4v-1.833a1.751 1.751 0 0 0-1.75-1.75h-36.5a1.751 1.751 0 0 0-1.75 1.75v1.833zm0 13.584c0 2.21 1.79 4 4 4h32c2.21 0 4-1.79 4-4v-1.834a1.751 1.751 0 0 0-1.75-1.75h-36.5a1.751 1.751 0 0 0-1.75 1.75v1.834z" fill="#abacb2"/><path d="M502.792 106.833c-1.68 0-3.042-1.36-3.042-3.04s1.362-3.042 3.042-3.042h32.416c1.68 0 3.042 1.362 3.042 3.042s-1.362 3.04-3.042 3.04h-32.416zm0 13.584c-1.68 0-3.042-1.362-3.042-3.042s1.362-3.042 3.042-3.042h32.416c1.68 0 3.042 1.362 3.042 3.042s-1.362 3.042-3.042 3.042h-32.416z" fill="#d0d1d6" stroke="#abacb2" stroke-width="1.5"/></svg>