<svg xmlns="http://www.w3.org/2000/svg" width="4001" height="4000" fill="none" xmlns:v="https://vecta.io/nano"><path fill-rule="evenodd" d="M2583.95 710.783c-16.95-33.008 49.72-60.786 65.97-18.973C2781.7 550.908 3214 1033.23 3047.6 1211c47.18 27.9 24.96 89-22.88 68.16l-47 28.74c25.98 19.15-11.46 28.4-26.78 17.04-14.18 5.7-32.25 17.6-48.2 15 43.4 139.9 61.96 292.04 62.1 438.5 145.18-7.6 239.43 96.77 235.34 239.2-5.85 204.9-152.37 386.78-347.87 444.1-78.4 177.62-275.34 295.07-448.5 362.07 13.95 21.5 26.62 43.78 37.85 66.8 53.63-53.6 125.9-89.22 200.6-77.68 76.9 11.9 148.83 70.9 161.48 149.88 20.04 123.8-96.57 226.3-206.12 133.06-25-20.8 7.92-59.46 32.42-38.06 75.64 63.35 141.2-10.06 123.05-93.72-11.74-54.23-65.6-93.57-118.5-101.77-65.38-10.1-128.34 28-172.06 79 12.63 37.87 19.47 78 18.52 117.95 16.5 8.04 17.53 33.18 4.42 52.17 18.6 61.36-23.4 160.2-98.2 147.5-17.6 21.9-45.25 32.05-72.73 33.73 3.08 17.63 28.72 42.96 16.75 59.62-10.4 17.34-52.65 29.6-104 38.1.93 7.17 2.07 14.27 3.22 21.4 49.97 6.38 102.7 24.7 114.83 69.4 14.84 54.8-36.5 74.8-73 74.8s-49-12.15-93-12.15c-30.63 0-59.52 12.63-90.03 12.14-31.9-.4-62.07-23.53-65.68-56.13-2.23-20.1 2.77-40.32 17.22-55-.78-13-1.95-25.6-3.44-37.73-24.74.73-49.4.44-74.16-.1-1.5 12.17-2.67 24.78-3.45 37.82 12.8 13 19.92 30.75 17.23 55-3.64 32.84-34.18 55.97-66.3 56.14-30.33.1-58.96-12.15-89.42-12.15-32.48 0-63.14 12.92-95.5 12.12-42.3-1.04-82.9-28.86-70.47-74.77 12.1-44.7 64.85-63.03 114.82-69.4l2.95-19.3c-30.05-4.88-114.85-12.33-113.7-50.3-.98-25.8 24.1-55.36 26.2-84.7 7.97-111.92-20.95-218.52 9.87-330.2-21.86 37.9-36.35 81.94-42.95 125.95 11.72 6.36 13.16 26.13 5.9 39.84 6.72 15.84 8.03 34.06 1.88 51.54 33.56 46.02-2.33 115.3-58.6 115.27-67.74-.06-103.15-86.93-87.52-144.96-14.54-14.44-13.35-42.23 1.68-53.42 5.02-84.77 40.15-170.5 84.37-236.42-175.68-67.34-373.04-183.9-451.82-363.35-169.993-49.8-303.58-196.58-339.085-369.92-32.2-157.18 49.61-323.46 227.945-313.3 12.62-151.35 46.63-302.43 107.42-442-13.57-2.27-26.97-11.2-39.37-16.8-13.7 9.27-49.53-2.35-26-18.2l-45.73-30.7c-49.944 23.62-72.166-59.7-19.97-69.07-152.863-177.82 290.34-651.992 419.27-501.904 23.58-52.217 84.1 0 65.1 21.744l38.42 40.777c12.15-26.59 36.12 4.297 22.22 22.687 8.3 12.42 22.8 26.902 24.4 42.45l.01.066c278.32-159.527 634.68-164.218 911.16-12 .9-16.515 17.27-31.397 26.45-43.943-14.8-16.075 7.42-38.297 23.16-21.73l40.1-39.114zM2310.1 3242.85c11.06-.48 24.87-2.53 33.3-10.5-19-24.13-23.54-59.65-3.06-87.73-6.1-17.3-4.88-35.33 1.67-51.06-7.18-13.1-6.3-32.02 4.07-39.33-3.37-45-15.66-84.34-36.9-123.73 22.07 105.58-1.77 206.2.9 312.35z" fill="#f9eb3d" stroke="#333" stroke-width="5" stroke-miterlimit="10"/></svg>