<svg xmlns="http://www.w3.org/2000/svg" width="224" height="360" fill="none" xmlns:v="https://vecta.io/nano"><style><![CDATA[.B{fill:#000}.C{stroke:#333}.D{stroke-width:.45}.E{stroke-miterlimit:10}.F{fill-opacity:.15}.G{fill-opacity:.2}.H{fill:#7f6145}.I{fill-opacity:.1}.J{fill:#fff}.K{fill:#f7c394}.L{fill:#736c3b}.M{fill:#cec467}.N{fill-opacity:.3}.O{fill:#f9eb3d}.P{stroke-linejoin:round}.Q{fill-rule:evenodd}]]></style><path d="M136.76 296.158c-4.57-.668-10.364-2.905-17.717-6.84-1.07-.572-1.5-1.967-.923-3.046.572-1.068 1.967-1.5 3.046-.922 6.8 3.633 12.256 5.77 16.245 6.354 2.603.38 4.477.1 5.57-.868 1.225-1.073 1.115-2.97.795-6.515-.376-4.15-.843-9.318 1.78-15.256 3.96-8.975 13.826-17.508 24.218-15.903 6.6 1.022 12.924 5.957 14.376 12.653 1.235 5.702-.542 13.516-6.618 15.7-4.03 1.44-8.633-.213-11.776-2.887-.94-.78-1.075-2.25-.275-3.2.793-.93 2.263-1.048 3.193-.236.04.033 3.93 3.3 7.334 2.076 3.856-1.385 4.48-7.106 3.74-10.51-1.058-4.88-5.904-8.42-10.666-9.16-8.356-1.3-16.273 6.164-19.415 13.274-2.152 4.875-1.76 9.21-1.415 13.033.36 3.946.694 7.673-2.3 10.305-2.5 2.196-6.037 2.412-9.182 1.94z" class="C D E H"/><path d="M182.798 266.897c.995 4.592.106 10.3-3.404 13.687 4.627-3.032 5.857-9.68 4.754-14.767-1.452-6.697-7.775-11.632-14.375-12.654-5.964-.92-11.86 1.67-16.34 5.474 10.27-7.267 26.396-5.432 29.364 8.26zm-6.212 10.128c-2.433 2.83-6.804 1.373-9.26-.74a2.258 2.258 0 0 0-.984-.487 2.251 2.251 0 0 0-1.097.037c.357-.657 1.047-1.1 1.793-1.16.595-.047 1.184.143 1.638.53 1.987 1.756 5.386 3.166 7.9 1.822zm-57.97 8.6c.315-.27 1.395-.8 2.07-.495l2.225 1.082c4.448 2.197 11.473 5.668 16.54 5.668 4.5 0 4.905-2.25 4.275-8.2.076.343.173.722.275 1.125.866 3.398 2.168 8.505-4.55 8.505-7.335 0-18.8-6.352-20.835-7.695z" class="B G"/><path d="M74.8297 283.23c3.285 0 5.9094-2.932 5.5837-6.158-.4878-5.717 1.6758-11.897 5.9355-17.855 3.8752-5.422 8.029-8.393 4.834-11.897s-10.4007.353-13.986 5.355c-5.914 8.273-8.747 17.02-7.9767 25.53.2874 2.833 2.3246 5.024 5.6096 5.024z" class="C D E H"/><path d="M71.778 275.325c-.0373-10.105 8.065-25 17.56-29.175-11.7-1.9-22.05 21.015-20.044 31.66.65-1.06 1.774-2.095 2.484-2.485z" class="B F"/><path d="M108.344 310.186c.45-7.837 2.466-13.9 4.245-18.613s3.817-13.023-3.83-14.942c-10.9352-2.744-16.9483 22.87-17.3973 30.685-.264 4.597 3.3137 9.93 7.956 10.196 4.2732.208 8.7702-2.862 9.0262-7.326z" class="C D E H"/><path d="M91.2533 307.305c4.635-.63 13.3197-.63 16.9647 3.06l.15-1.353c-3.795-3.327-12.4347-3.552-16.922-2.922-.024.297-.168.912-.1926 1.215zm1.4407-8.055c4.2984 3.986 9.8 6.222 16.02 7.065.052-.45.163-1.096.225-1.53-6.174-.8-11.538-3.384-15.84-7.3-.18.54-.3258 1.374-.405 1.755z" class="B F"/><path d="M115.656 310.186c-.45-7.837-2.466-13.9-4.245-18.613s-3.817-13.023 3.83-14.942c10.935-2.744 16.948 22.87 17.397 30.685.264 4.597-3.313 9.93-7.956 10.196-4.273.208-8.77-2.862-9.026-7.326z" class="C D E H"/><path d="M132.747 307.305c-4.635-.63-13.32-.63-16.965 3.06l-.15-1.353c3.795-3.327 12.435-3.552 16.922-2.922.024.297.168.912.193 1.215zm-1.44-8.055c-4.298 3.986-9.8 6.222-16.02 7.065-.052-.45-.163-1.096-.225-1.53 6.174-.8 11.538-3.384 15.84-7.3.18.54.326 1.374.405 1.755z" class="B F"/><path d="M149.17 283.23c-3.285 0-5.91-2.932-5.583-6.158.487-5.717-1.676-11.897-5.936-17.855-3.875-5.422-8.03-8.393-4.834-11.897s10.4.353 13.986 5.355c5.914 8.273 8.747 17.02 7.977 25.53-.287 2.833-2.325 5.024-5.6 5.024z" class="C D E H"/><path d="M152.222 275.325c.037-10.105-8.065-25-17.56-29.175 11.7-1.9 22.05 21.015 20.044 31.66-.65-1.06-1.774-2.095-2.484-2.485z" class="B F"/><path d="M213.987 164.89c10 9.18 5.97 27.836-.818 38.444-9.672 15.12-31.813 24.638-43.152 16.594-11.842-8.402-10.296-34.823 3.528-48.54 10.32-10.24 30.1-15.992 40.442-6.5z" class="C D E K"/><path d="M202.313 175.7c5.94 6.137 2.71 17.7-1.948 24.11-6.638 9.13-20.896 14.282-27.715 8.807-7.122-5.718-5.165-22.25 4.028-30.346 6.863-6.044 19.497-8.917 25.635-2.57z" fill="#ffc9a1"/><path d="M213.17 203.335c-5.463 8.537-17.56 18.3-31.194 19.505 9.572-2.25 23.4-12.047 27.597-18.605 6.787-10.608 10.383-30.507.818-38.444-2.916-2.42-10.325-5.86-20.495-4.06 12.42-3.825 20.05-.552 24.095 3.16 9.996 9.18 5.965 27.836-.82 38.444z" class="B I"/><path d="M10.0133 164.89c-10 9.18-5.9688 27.836.818 38.444 9.6714 15.12 31.8124 24.638 43.1515 16.594 11.8422-8.402 10.296-34.823-3.528-48.54-10.3212-10.24-30.1005-15.992-40.4415-6.5z" class="C D E K"/><path d="M21.6862 175.7c-5.94 6.137-2.71 17.7 1.9485 24.11 6.6375 9.13 20.8953 14.282 27.7146 8.807 7.1226-5.718 5.165-22.25-4.0275-30.346-6.8634-6.044-19.4976-8.917-25.6356-2.57z" fill="#ffc9a1"/><path d="M10.8314 203.335c5.462 8.537 17.56 18.3 31.194 19.505-9.5725-2.25-23.4015-12.047-27.5976-18.605-6.787-10.608-10.3824-30.507-.818-38.444 2.9168-2.42 10.3257-5.86 20.4957-4.06-12.42-3.825-20.051-.552-24.0957 3.16-9.9954 9.18-5.9652 27.836.8217 38.444z" class="B I"/><path d="M112 229.32c13.86 0 19.8 12.15 23.4 22.14s5.22 19.8 5.22 26.28c0 13.68-12.48 27.49-28.62 27.63-15.798.136-28.62-13.95-28.62-27.63 0-6.48 1.593-16.335 5.22-26.28 3.6-10 9.54-22.14 23.4-22.14z" class="C D E H"/><path d="M112 305.37c-15.8.144-29.6996-14.13-28.6196-30.33.9 13.32 13.0635 25.963 28.6196 25.83s27.72-12.5 28.62-25.83c1.08 16.2-12.81 30.187-28.62 30.33z" class="B F"/><path d="M112 240.48c9.36 0 14.4 6.12 15.66 11.52 3.104 13.304 5.76 24.66.36 31.5s-12.146 7.38-16.02 7.38c-4.28 0-10.62-.54-16.0203-7.38s-2.9195-17.445.36-31.5c1.26-5.4 6.3003-11.52 15.6603-11.52z" class="C D E K"/><path d="M112 290.88c-12.2397 0-20.1596-8.46-19.1696-19.44.36 10.35 8.6396 17.1 19.1696 17.1s18.8-6.75 19.17-17.1c1 10.98-6.93 19.44-19.17 19.44z" class="B I"/><g class="C D"><path d="M103.522 272.17c-1.922-2.533-2.727-6.305-1.25-11.35 3.516 9.107 16.067 9.123 19.577.002 1.476 5.045.672 8.817-1.25 11.35-2.008 2.646-5.266 3.978-8.54 3.978s-6.53-1.333-8.538-3.978z" fill="#d6d6d6"/><path d="M81.555 301.544c-.455-.583-.215-1.374.333-2.113 1.1223-1.512 1.556-3.033 1.7865-6.257.253-3.55-.242-8.726-.604-12.506-.5597-5.845-.0685-11.557 1.4922-17.21-2.397 4.156-3.8095 9.13-4.1524 13.923-5.67-5.58-10.206-1.677-11.88 3.288-1.08-9.318 2.69-19.425 7.674-26.723C99.21 262.85 125.1 263.013 148.1 253.9c4.73 7.178 8.145 14.805 6.885 25.2-2.887-4.61-8.412-5.276-11.8-.717.18-5.583-.947-10.1-3.387-14.627 1.26 6.036 1.937 11.766.9 17.944-.5 3.804-1.04 7.64-.766 11.484.243 3.407.505 4.785 1.574 6.226.567.764.678 1.5.332 2.19-2.035 4.05-23.183 5.094-29.07 5.094 1-13.408-3.563-32.815 6.756-43.652-4.307 0-8.615-.01-12.923-.038 6.3 13.415 6.91 29.188 5.235 43.7-6.042-.08-26.5296-.325-30.3-5.14z" class="O P"/></g><path d="M138.968 298.645c-1.142-1.535-1.744-4.396-1.98-7.717-.376-5.263 2.53-16.953 2-28.973 1.808 3.275 2.655 12.706 1.808 18.954-.512 3.774-1.197 8.827-.95 12.28.237 3.32.7 4.84 1.83 6.376 3.572 4.814-14.725 6.974-28.855 6.974l.1-2.475c9.225 0 28.483-2.168 26.068-5.42zm-52.222-7.717c-.2394 3.32-.8415 6.182-1.98 7.717-2.9423 3.965 18.1 5.42 27.324 5.42l-.27 2.565c-14.3548.18-33.8266-2.025-30.0212-7.154 1.1385-1.535 1.683-2.965 1.9197-6.286.516-7.24-1.6497-14.415-.6453-21.667.6634-4.8.5292-6.292 2.5992-9.568-.5418 12.02 1.45 23.7 1.0737 28.973zm-7.768-35.956c-2.8065 4.555-6.7798 13.048-6.7798 20.512-1.6695 1.065-2.9395 3.024-3.6678 5.184-1.08-9.318 2.7-19.425 7.674-26.722l2.7736 1.026zm66.18-.758c3.023 4.22 8.288 13.356 7.298 22.266 1.08.54 1.9 1.35 2.43 2.835 1.53-9.18-1.62-17.82-7.155-26.055-.928.333-1.637.65-2.573.954z" class="B F"/><g class="C D"><path d="M69.6278 275.104c-.135-1.745 2.02-2.888 3.25-1.75.8318-1.357 2.452-1.196 3.232-.038 1.4214-1.247 3.4014-.302 3.276 1.356 2.4398-.566 2.7958 2.663 1.5205 4.192-2.16-5.85-9.7232-4.823-12.555 1.575-1.755-1.575-1.2135-5.203 1.2775-5.336zm84.7022 0c.135-1.745-2.02-2.888-3.25-1.75-.832-1.357-2.452-1.196-3.232-.038-1.422-1.247-3.402-.302-3.276 1.356-2.44-.566-2.796 2.663-1.52 4.192 2.16-5.85 9.496-4.868 12.328 1.53 1.7-2.025 1.44-5.158-1.05-5.3z" class="O"/><path d="M110.65 306.68v-19.822c0-6.636-2.16-16.497-4.797-22.05-1.768-2.53 1.788-2.855 2.637-.834.49 1.163 2.93 8.372 3.5 10.027.867-2.114 3.166-9.044 3.78-10.027 1.126-1.803 3.53-.605 2.277 1.47-1.23 2.226-4.373 9-4.706 21.37-.177 6.67 0 13.11 0 19.88-.9.012-1.8-.006-2.7-.015z" class="J P"/></g><path d="M110.65 286.858v19.82h1.17v-19.82c0-6.637-2.223-16.66-4.86-22.213h-1.215c2.637 5.553 4.905 15.576 4.905 22.213zm.8-11.233c.135.18.495.405.9.585 1.272-3.103 3.24-10.755 5.397-12.984-.585-.296-1.432-.128-1.978.747-1.53 3.237-2.97 7.96-4.32 11.652z" class="B F"/><path d="M110.785 284.438c-.76-.001-1.393-.635-1.394-1.394v-8.125c.001-.76.635-1.394 1.394-1.395h2.21c.76.001 1.393.636 1.394 1.395v8.125c-.001.76-.635 1.393-1.394 1.394h-2.21zm-.124-4.68a.091.091 0 0 0-.09.09v2.572a.091.091 0 0 0 .09.09h2.497a.091.091 0 0 0 .09-.09v-2.572a.091.091 0 0 0-.09-.09h-2.497z" class="C D J"/><path d="M111.26 282.5c.234.446.704.757 1.235.758h1.877c-.1.656-.693 1.17-1.375 1.17h-2.212c-.76-.001-1.393-.635-1.394-1.394v-8.125c.001-.76.635-1.394 1.394-1.395h.335l-.02 6.234h-.44a.091.091 0 0 0-.09.09v2.572a.091.091 0 0 0 .09.09h.598zm36.3-28.88l2.07 3.33-7.604 2.78c-5.832 7.853-19.42 9.46-30.016 9.46-10.766 0-24.6994-1.573-30.3366-9.567-2.406-.798-4.8295-1.7-7.283-2.675.5748-.965 1.4184-2.38 2.07-3.33 17.3925 6.74 53.7936 6.784 71.0996 0z" class="B F"/><path d="M136.1 84.313c35.835 11.6262 62.97 36.281 62.842 81.916-.098 34.988-31.507 89.173-86.98 89.656-53.5157.467-86.9975-53.66-86.9012-89.656.1188-43.96 38.8917-89.1845 86.9402-92.565 47.997-3.3736 84.08 30.153 24.098 10.6488z" class="C D O P"/><path d="M150.792 78.5246c-8.106-1.3815-20.092-3.683-35.736-2.583C56.2448 80.076 13.632 145.35 37.2443 198.26c6.1326-6.334 13.6026-8.134 15.983-8.925.7146.772 1.584 1.6 1.8945 1.96-7.323 2.28-15.8335 7.236-19.4967 14.115-6.8643-13.284-10.53-27.23-10.493-39.18.1188-43.96 38.8998-89.1904 86.948-92.5717 2.623-.1843 5.115-.2645 7.482-.2645 13.455 0 24.795 3.015 31.23 5.1298zm48.014 87.7114c-.033 11.497-3.43 25.066-9.95 38.12-6.746-9.237-18.83-12.927-20.066-12.927l1.8-2.205c2.115.495 11.576 2.512 16.855 9.558 5.337-11.894 7.787-22.965 7.816-33.378.132-47.18-31.826-70.6353-59.163-81.0915 35.835 11.6262 62.835 36.2865 62.707 81.9225z" class="B F"/><path d="M87.2508 108.315c-26.73 0-59.85 56.565-32.715 82.665-51.795 16.2 0 70.1 57.4652 70.1s109.26-53.9 57.465-70.1c27.135-26.1-5.985-82.665-32.715-82.665-11.385 0-17.596 5.265-24.75 10.485-7.155-5.22-13.3652-10.485-24.7502-10.485z" fill="#ffcd98" class="C D"/><g class="B"><path d="M179.42 163.53c-1.413-27.77-23.85-55.187-43.335-55.187-12.114 0-19.458 7.392-24.084 10.457-3.7-2.525-11.925-10.457-24.1565-10.457-23.004 0-43.029 33.587-43.3917 56.044-2.0222-24.167 16.524-60.437 43.5177-60.437 14.0405 0 21.5105 6.75 24.0305 9.54 2.52-2.8 10-9.54 24.03-9.54 26.786 0 45.315 34.335 43.39 59.58z" class="F"/><path d="M44.5343 162.665c-.6402 10.57 2.1616 20.7 10.0306 28.27-.9384.293-1.8427.7-2.7136 1.007 2.0095-.647 3.9294-1.105 6.1495-1.502-7.6088-7.32-12.012-17.26-13.4665-27.775zM35.3747 204C23.1415 226.074 65.4634 261.045 112 261.045s89.385-35.357 76.478-57.408c8.582 20.17-32.314 54.033-76.478 54.033-43.9013 0-84.572-33.46-76.6263-53.67zm136.9713-12.03L166 190.44c7.68-7.386 12.093-17.443 13.506-28.067.7 10.675-2.07 20.923-10.012 28.562 1.02.32 1.9.688 2.85 1.035z" class="I"/></g><path d="M103.9 320.04c2.88 0 5.678-2.124 6.002-5.052.82-7.4-8.49-8.072-13.5593-8.183-5.1393-.113-13.863.86-15.392 6.504-1.336 4.93 3.284 6.73 6.569 6.73s4.4-1.093 8.3685-1.093c3.457 0 5.1318 1.093 8.0118 1.093z" class="C D E K"/><path d="M103.8 318.06c-2.88 0-4.5547-1.094-8.0118-1.094-3.9585 0-5.0835 1.094-8.3685 1.094-2.555 0-5.9177-1.09-6.6574-3.893-.6053 4.284 3.6605 5.873 6.7474 5.873 3.285 0 4.4-1.093 8.3685-1.093 3.457 0 5.1318 1.093 8.0118 1.093 3.857 0 6.57-3.074 5.93-7.224-.267 3.012-3.063 5.244-6.02 5.244z" class="B I"/><path d="M120.1 320.04c-2.88 0-5.678-2.124-6.002-5.052-.82-7.4 8.49-8.072 13.56-8.183 5.14-.113 13.863.86 15.392 6.504 1.336 4.93-3.284 6.73-6.57 6.73s-4.4-1.093-8.368-1.093c-3.457 0-5.132 1.093-8.012 1.093z" class="C D E K"/><path d="M120.2 318.06c2.88 0 4.554-1.094 8.012-1.094 3.958 0 5.083 1.094 8.368 1.094 2.555 0 5.918-1.09 6.657-3.893.606 4.284-3.66 5.873-6.747 5.873-3.285 0-4.4-1.093-8.368-1.093-3.458 0-5.132 1.093-8.012 1.093-3.858 0-6.57-3.074-5.932-7.224.267 3.012 3.063 5.244 6.022 5.244z" class="B I"/><path d="M76.1253 293.4c5.1136.004 8.369-6.13 5.273-10.374 1.4325-4.07-1.6276-8.586-5.9992-8.7-5.0402-.12-7.953 5.265-7.4252 9.822.4933 4.258 3.3772 9.238 8.1513 9.242z" fill="#4b72d1" class="C D E"/><path d="M67.9745 284.148c.6105 5.27 4.8934 11.412 11.2833 8.442-6.194-.793-10.53-11.295-7.48-17.266-.485.346-1.25.75-2.484 2.485-1.106 1.956-1.5925 4.158-1.3194 6.34z" class="B F"/><path d="M147.874 293.4c-5.113.004-8.37-6.13-5.273-10.374-1.432-4.07 1.628-8.586 6-8.7 5.04-.12 7.953 5.266 7.425 9.822-.493 4.258-3.377 9.238-8.15 9.242z" fill="#4b72d1" class="C D E"/><path d="M156.026 284.148c-.6 5.27-4.893 11.412-11.283 8.442 6.194-.793 10.53-11.295 7.48-17.266.485.346 1.25.75 2.484 2.485 1.106 1.956 1.592 4.158 1.32 6.34zm42.63-124.044C142.6 109.8 81.3997 109.8 25.3677 160.274c.093-1.936.2505-3.902.4725-5.9 46.6202-49.23 126.0768-51.07 172.7568.266.05 1.804.068 3.625.058 5.463z" class="B F"/><path d="M198.655 160.104c-46.335-54.264-126.9753-54.264-173.2873.17.4905-10.175 2.7594-21.277 6.7608-32.22 44.0233-44.3175 121.4995-40.84 164.0275 4.152 1.724 8.734 2.564 18.078 2.5 27.898z" fill="#4f4f4f" class="C D E"/><path d="M198.59 154.388l.216 5.857c-45.675-53.55-125.4205-55.35-173.475-.045.0992-1.944.3137-4.1.542-6.104 49.319-53.692 126.946-52.823 172.717.292z" class="B F"/><g class="C D E"><path d="M182.17 96.9564c-32.595-25.1235-83.5557-30.513-121.0147-12.897C96.034 52.8607 155.503 56.91 182.17 96.9564z" class="L"/><path d="M196.156 132.21C144.04 87.0295 79.9597 87.0295 30.2456 133.625c4.77-16.974 13.6-32.006 26.036-44.8765 25.756-26.6288 109.9163-19.796 128.6743 12.7055 5.49 9.515 9.048 20.007 11.2 30.755z" fill="#4f4927"/><path d="M200.64 109.724c-13.624-11.8583-24.327-26.702-31.274-43.3748-.727-1.747.61-4.337 2.62-5.1597l5.445-2.2293c1.46-.5976 9.27 4.5 21.21 18.3852 10.403 12.1086 12.585 25.8616 11.557 27.0586l-3.836 4.464c-1.413 1.65-4.292 2.1-5.72.856z" fill="#f41655"/></g><path d="M210.198 104.404l-3.836 4.464c-1.414 1.648-4.294 2.098-5.722.856-13.625-11.8577-24.327-26.7018-31.274-43.375-.727-1.746.61-4.3362 2.62-5.158l1.058-.433c6.805 13.212 16.06 25.0104 27.27 34.768 1.427 1.242 4.306.792 5.722-.855l1.8-2.0907c2.484 6.2937 2.955 11.1357 2.363 11.8237z" class="B G"/><path d="M199.75 117.842a117.337 117.337 0 0 1-39.016-50.1732l4.833-4.7142c8.205 20.545 22.052 38.3514 39.943 51.3644l-5.76 3.523z" class="C D E L"/><path d="M160.733 67.67a117.331 117.331 0 0 0 39.017 50.173l5.76-3.522-1.933-1.44-3.698 2.262c-16.83-12.418-30.037-29.11-38.25-48.345l-.896.872z" class="B G"/><g class="C D E"><path d="M192.21 120.17a117.319 117.319 0 0 1-35.591-45.7672c-.314-.72-.19-1.6686.3-2.34l2.424-3.3147A117.321 117.321 0 0 0 198.36 118.92l-3.8 1.53c-.77.314-1.718.202-2.34-.28z" class="L"/><path d="M204.97 115.668c-19.408-13.55-32.258-29.9884-40.61-52.1338a1.586 1.586 0 0 1 .36-1.593l3.205-3.1266c.476-.4635 1.088-.3267 1.315.2862 8.378 22.5225 21.463 39.258 41.228 52.9252.54.373.518 1-.047 1.345l-3.82 2.34c-.504.288-1.142.27-1.63-.043z" fill="#423809"/><path d="M198.324 119.8a117.329 117.329 0 0 1-39.849-51.2447c-.072-.1986-.037-.4255.1-.594l1.296-1.683c.192-.2466.488-.2178.597.0585a117.313 117.313 0 0 0 40.5 52.0862c.24.174.196.47-.1.593l-1.95.842c-.193.08-.42.058-.594-.058z" fill="#2d2d2d"/></g><g class="B"><path d="M158.475 68.565c8.2 20.4894 22.01 38.251 39.85 51.245.176.118.404.14.6.057l1.95-.842c.287-.124.33-.42.1-.593l-.516-.373-.917.396a.637.637 0 0 1-.598-.058c-17.81-12.972-31.606-30.6983-39.81-51.1477l-.556.72a.634.634 0 0 0-.092.5958z" class="N"/><path d="M156.62 74.4017c7.848 17.9933 20.085 33.7303 35.59 45.7683.62.482 1.57.594 2.34.287l3.8-1.53-1.18-.882-1.646.66c-.768.308-1.718.195-2.34-.287-15.505-12.038-27.742-27.7746-35.6-45.7677-.176-.4272-.22-.8977-.125-1.35l-.56.7677c-.49.666-.614 1.6137-.3 2.3337z" class="G"/><path d="M164.36 63.534c8.35 22.15 21.2 38.584 40.61 52.134.5.314 1.13.33 1.633.04l3.82-2.34c.566-.346.585-.974.046-1.35l-1.342-.94-2.95 1.683c-.513.274-1.152.24-1.63-.1-18.6-13.8596-30.82-30.2873-38.516-52.0133l-1.308 1.2753c-.407.4196-.55 1.047-.362 1.601z" class="N"/><path d="M30.2456 133.626C79.9597 87.0298 144.04 87.0298 196.156 132.2c-.55-2.75-1.192-5.48-1.935-8.184l-.045-.16c-20.82-20.958-48.098-32.25-77.78-33.166-34.2658-1.0595-58.1386 13.041-83.294 34.237l-.021.055a103.819 103.819 0 0 0-2.8366 8.633z" class="F"/></g><path d="M28.775 109.13a117.323 117.323 0 0 0 33.0798-42.0136c.8004-1.7146-.4245-4.359-2.3985-5.2658l-5.346-2.4575c-1.434-.6588-9.452 4.104-21.9668 17.4722C21.238 88.5222 18.476 102.17 19.4532 103.4l3.6437 4.622c1.342 1.7 4.1994 2.28 5.6782 1.097z" fill="#f41655" class="C D E"/><path d="M19.4506 103.4l3.6436 4.622c1.344 1.706 4.2023 2.278 5.681 1.097C42.8893 97.8577 54.2 83.4793 61.855 67.1145c.8004-1.7137-.4245-4.358-2.3986-5.264l-1.0382-.4772c-7.3583 12.9124-17.103 24.309-28.7155 33.584-1.4786 1.1806-4.336.6093-5.681-1.096l-1.7-2.165c-2.748 6.183-3.423 11.0008-2.8612 11.7138z" class="B G"/><path d="M29.3217 117.277a117.325 117.325 0 0 0 41.1022-48.4784l-4.6294-4.9143a117.326 117.326 0 0 1-42.0787 49.6307l5.606 3.762z" class="C D E L"/><path d="M70.4238 68.7986a117.327 117.327 0 0 1-41.103 48.4784l-5.606-3.763 1.9924-1.357 3.599 2.417c17.341-11.695 31.2405-27.813 40.2597-46.6846l.8578.9092z" class="B G"/><g class="C D E"><path d="M36.7555 119.92a117.324 117.324 0 0 0 37.4936-44.2216c.3443-.706.2594-1.6592-.2005-2.3506l-2.2814-3.4142A117.325 117.325 0 0 1 30.665 118.413l3.7417 1.7c.7546.346 1.708.274 2.3488-.182z" class="L"/><path d="M24.1982 114.885c19.964-12.718 33.4977-28.598 42.7776-50.3706.2075-.543.093-1.172-.2924-1.6068l-3.0707-3.2594c-.4552-.483-1.0724-.3723-1.3258.2304C52.965 82.0268 39.184 98.194 18.86 111.014c-.5552.35-.56.976-.01 1.345l3.7182 2.5c.4914.308 1.13.32 1.631.026z" fill="#423809"/><path d="M30.663 119.303A117.329 117.329 0 0 0 72.643 69.7895c.08-.1954.0553-.4235-.0648-.5973l-1.2238-1.7362c-.181-.2545-.478-.2383-.5986.0332A117.326 117.326 0 0 1 28.09 117.817c-.2483.163-.216.46.065.595l1.912.925c.19.088.417.076.596-.034z" fill="#2d2d2d"/></g><g class="B"><path d="M72.6428 69.7895C63.5845 89.914 49.0342 107.076 30.6626 119.304c-.1802.11-.4095.123-.6003.03l-1.913-.923c-.2816-.136-.3132-.433-.065-.596l.531-.35.8995.434c.1907.1.4196.078.5995-.032A117.316 117.316 0 0 0 72.051 68.4475l.5252.743c.1214.1738.1468.403.0666.599z" class="N"/><path d="M74.2493 75.6994a117.324 117.324 0 0 1-37.4936 44.2226c-.6408.455-1.5942.528-2.35.187l-3.7416-1.69 1.216-.832 1.6158.73c.755.34 1.7083.268 2.35-.188a117.324 117.324 0 0 0 37.4935-44.222c.1942-.4195.2576-.8876.182-1.3435l.5268.7906c.46.686.545 1.6382.2008 2.3443z" class="G"/><path d="M66.9756 64.514c-9.28 21.7762-22.8135 37.653-42.7793 50.37-.502.293-1.1416.28-1.6328-.03l-3.7182-2.5c-.55-.37-.5424-.998.0112-1.35l1.3805-.882 2.8773 1.806c.5.296 1.1407.287 1.634-.02 19.1687-13.0608 32.0734-28.9572 40.68-50.3384L66.681 62.9c.39.4364.5045 1.0694.2947 1.615z" class="N"/></g><path d="M124.317 203.197c-4.347 0-8.09 1.57-12.317 1.57s-7.97-1.57-12.3165-1.57c-8.45 0-23.0634-1.54-23.0634 28.497 0 26.232 7.849 33.448 35.38 33.448s35.38-8.018 35.38-33.448c0-28.978-14.612-28.497-23.063-28.497zm5.517 34.27c-12.42 0 2.216-12.948-17.834-12.948s-5.414 12.948-17.8335 12.948c-9.1377 0-8.4816-20.922-2.8647-20.034 6.0192.95 14.9262-1.014 20.7002-1.014s14.68 1.964 20.7 1.014c5.613-.888 6.27 20.034-2.868 20.034z" class="C D E H"/><path d="M129.833 237.47c4.55 0 6.67-5.4 6.962-10.5.675 5.782-1.678 12.947-6.962 12.947-12.42 0 2.217-12.947-17.833-12.947s-5.414 12.947-17.8335 12.947c-5.284 0-7.7715-6.535-7.0065-12.713.2916 5.098 2.456 10.275 7.0065 10.275 12.5685 0-2.5065-12.947 17.8335-12.947 20.05 0 5.413 12.947 17.833 12.947zm-5.516-34.27c8.45 0 23.063-.48 23.063 28.497-3.8-23.12-9.794-26.055-23.063-26.055-4.347 0-8.1 1.57-12.317 1.57s-7.97-1.57-12.3165-1.57c-12.7 0-22.1634 8.78-22.1634 21.553 0 26.232 6.95 33.448 34.48 33.448 20.77 0 31.237-4.562 34.683-17.722-2.436 16.636-11.703 22.222-34.683 22.222-28.9 0-35.38-8.773-35.38-33.446 0-20.645 5.995-28.503 20.2605-28.503 8.7294 0 10.5764 1.576 15.1194 1.576 4.226 0 7.97-1.57 12.317-1.57z" class="B F"/><path d="M85.802 140.764c10.531 1.224 18.118 14.193 16.998 25.617-1.114 11.378-11.0618 23.253-22.4292 21.96-10.321-1.176-17.0155-12.66-17.2358-22.312-.293-12.93 10.9357-26.63 22.667-25.266z" class="J"/><path d="M98.5887 169.468c1.5033-7.748-2.6852-15.078-9.3553-16.372s-13.2957 3.937-14.799 11.685 2.6853 15.078 9.3553 16.372 13.2957-3.937 14.799-11.685z" fill="#566859" class="C D E"/><path d="M87.267 177.377c3.978 0 7.203-3.606 7.203-8.054s-3.225-8.054-7.203-8.054-7.203 3.606-7.203 8.054 3.2248 8.054 7.203 8.054z" class="B"/><path d="M93.637 163.694c.5065-1.43-.3002-3.022-1.8018-3.554s-3.1295.198-3.636 1.63.3002 3.022 1.8018 3.554 3.1296-.198 3.636-1.63z" class="C D E J"/><g class="B"><path d="M90.9854 142.393c-13.8964-3.8-25.4612 12.663-25.1778 25.02.168 7.292 4.036 15.624 10.3822 19.83-7.914-3.317-12.864-12.94-13.0543-21.213-.2944-12.926 10.9344-26.625 22.6656-25.262a14.774 14.774 0 0 1 5.1843 1.624z" fill-opacity=".05"/><path d="M92.8705 154.53c-7.6727-2.18-14.4647 4.44-15.852 11.588-1.139 5.87.9566 11.506 4.919 14.506-5.567-2.176-8.8545-8.834-7.496-15.834 1.504-7.75 8.1304-12.98 14.8003-11.685 1.2863.25 2.516.733 3.6287 1.425z" class="F"/></g><path d="M138.197 140.764c-10.53 1.224-18.118 14.193-16.997 25.617 1.113 11.378 11.06 23.253 22.428 21.96 10.322-1.176 17.016-12.66 17.236-22.312.293-12.93-10.935-26.63-22.667-25.266z" class="J"/><path d="M125.41 169.468c-1.503-7.748 2.685-15.078 9.355-16.372s13.296 3.937 14.8 11.685-2.685 15.078-9.355 16.372-13.296-3.937-14.8-11.685z" fill="#566859" class="C D E"/><path d="M136.733 177.378c-3.978 0-7.203-3.607-7.203-8.055s3.225-8.054 7.203-8.054 7.203 3.606 7.203 8.054-3.225 8.055-7.203 8.055z" class="B"/><path d="M130.362 163.694c-.506-1.43.3-3.022 1.802-3.554s3.13.198 3.636 1.63-.3 3.022-1.802 3.554-3.13-.198-3.636-1.63z" class="C D E J"/><g class="B"><path d="M133.015 142.392c13.896-3.8 25.46 12.664 25.177 25.022-.167 7.292-4.036 15.623-10.382 19.83 7.914-3.316 12.864-12.94 13.055-21.213.294-12.926-10.935-26.625-22.666-25.262a14.79 14.79 0 0 0-5.184 1.624z" fill-opacity=".05"/><path d="M131.13 154.53c7.673-2.18 14.465 4.44 15.853 11.588 1.138 5.87-.957 11.506-4.92 14.506 5.567-2.176 8.855-8.834 7.496-15.834-1.504-7.75-8.13-12.98-14.8-11.685-1.286.25-2.516.733-3.63 1.425z" class="F"/></g><path d="M107.05 149.9l.8 2.553c2.275-.782 5.5-1.306 8.28.133l.8-2.4c-3.73-1.92-7.356-1.162-9.9-.286z" class="M"/><path d="M107.41 149.778l.45 1.414c2.275-.782 5.5-1.306 8.28.133l.445-1.32.365.18-.8 2.4c-2.8-1.44-6.005-.915-8.28-.133l-.8-2.553.36-.12z" class="B G"/><path d="M198.947 158.088c-6.66-4.195-14.22-8.157-24.334-8.73-1.736-.1-1.9 2.6-.154 2.7 9.503.54 16.694 4.32 23.05 8.323 1.454.89 2.918-1.36 1.44-2.293z" class="M"/><path opacity=".2" d="M199.502 158.78c-.284.803-1.282 1.14-1.993.692-6.355-4-13.546-7.78-23.05-8.323-.515-.03-.978-.36-1.173-.84-.227.826.305 1.7 1.173 1.74 9.503.54 16.694 4.32 23.05 8.323.428.27.918.245 1.314.038.534-.314.894-1.023.68-1.63z" class="B"/><path opacity=".5" d="M116.135 154.152c-.077 12.483 7.01 33.615 25.655 35.658s42.722-8.64 33.795-36.36c-6.9-21.426-59.33-18.72-59.45.702z" fill="#8df7ff"/><path d="M176.523 152.73c2.122 7.157 2.238 13.3.84 18.437-4.136 15.242-21.636 21.106-35.98 19.534-17.503-1.918-26.778-20.937-26.778-36.9 0-12.96 19.237-15.824 28.745-16.05 11.143-.265 29.378 2.18 33.173 14.988zm-59.398 1.06c0 14.666 8.342 32.63 24.533 34.405 13.083 1.433 29.47-3.666 33.274-17.69 1.25-4.608 1.192-10.256-.825-17.06-3.42-11.542-20.837-13.42-30.698-13.186-7.89.187-26.284 2.32-26.284 13.53z" class="M Q"/><path d="M178.282 163.368c-.044 2.368-.36 4.577-.918 6.63-4.136 15.242-21.636 21.106-35.98 19.534-17.23-1.888-26.486-20.346-26.77-36.16a11.766 11.766 0 0 0-.007.42c0 15.973 9.275 35 26.778 36.9 14.345 1.572 31.845-4.292 35.98-19.534.648-2.387.97-4.986.918-7.8zm-61.15-9.97l-.008-.776c0-11.2 18.393-13.343 26.284-13.53 9.86-.234 27.278 1.644 30.698 13.186 1.218 4.1 1.722 7.797 1.655 11.088-.06-3-.58-6.3-1.655-9.918-3.42-11.542-20.837-13.42-30.698-13.186-7.797.185-25.85 2.27-26.276 13.136z" class="B G"/><path d="M25.0533 158.063c6.66-4.195 14.22-8.156 24.3342-8.73 1.736-.1 1.8898 2.6.154 2.7-9.503.54-16.694 4.32-23.05 8.323-1.454.892-2.918-1.36-1.439-2.293z" class="M"/><path opacity=".2" d="M24.4987 158.755c.284.804 1.2822 1.14 1.9926.693 6.355-4.002 13.546-7.78 23.05-8.324.515-.03.9786-.36 1.173-.84.2267.826-.3048 1.7-1.173 1.74-9.503.54-16.694 4.32-23.05 8.324-.428.27-.918.244-1.314.037-.534-.313-.8933-1.022-.6786-1.63z" class="B"/><path opacity=".5" d="M107.866 154.128c.077 12.482-7.01 33.614-25.6554 35.657s-42.722-8.64-33.795-36.36c6.8994-21.426 59.3304-18.72 59.4504.703z" fill="#8df7ff"/><path d="M47.477 152.707c-2.121 7.157-2.2376 13.29-.841 18.436 4.1366 15.242 21.6368 21.106 35.9812 19.534 17.5036-1.917 26.7776-20.936 26.7786-36.91 0-12.96-19.238-15.824-28.745-16.05-11.1435-.265-29.378 2.182-33.1738 14.99zm59.399 1.06c-.001 14.665-8.3427 32.63-24.533 34.404-13.0834 1.434-29.469-3.666-33.2747-17.69-1.2505-4.608-1.1918-10.256.825-17.06 3.4208-11.542 20.8373-13.42 30.698-13.186 7.89.188 26.285 2.32 26.285 13.53z" class="M Q"/><g class="B"><path d="M45.7183 163.343c.0446 2.37.36 4.578.918 6.63 4.1366 15.242 21.6368 21.106 35.9812 19.534 17.2302-1.887 26.4866-20.346 26.7716-36.158l.007.42c-.001 15.973-9.275 34.992-26.7786 36.9-14.3444 1.572-31.8446-4.292-35.9812-19.534-.6477-2.386-.97-4.985-.918-7.8zm61.1497-9.97l.008-.775c0-11.2-18.394-13.343-26.285-13.53-9.8606-.234-27.277 1.644-30.698 13.186-1.218 4.1-1.7217 7.797-1.6543 11.088.06-3 .5787-6.3 1.6543-9.918 3.4208-11.542 20.8373-13.42 30.698-13.186 7.7974.186 25.85 2.27 26.277 13.136z" class="G"/><path d="M92.65 187.1c0 6.872 8.896 15.2 19.463 15.12 9.74-.085 19.237-8.33 19.237-15.1 0-13.69-38.7-13.898-38.7-.02z" class="I"/></g><path d="M92.3794 185.5c0 6.872 9.0206 15.2 19.7346 15.12 9.876-.085 19.505-8.33 19.505-15.1 0-5.448-11.36-10.24-19.505-10.17-7.562.07-19.7346 3.704-19.7346 10.15z" class="H"/><path d="M92.522 184.3c3.758 4.927 11.221 9.084 19.607 9.02 7.758-.062 15.382-4.24 19.268-9.14.146.437.223.88.223 1.33 0 6.77-9.63 15.015-19.506 15.1-10.713.1-19.734-8.248-19.734-15.12 0-.408.0488-.805.1422-1.2z" class="B G"/></svg>