<svg xmlns="http://www.w3.org/2000/svg" width="224" height="360" fill="none" xmlns:v="https://vecta.io/nano"><path fill-rule="evenodd" d="M164.525 63.9708C163 61 169 58.5 170.463 62.2632 182.322 49.582 221.23 92.991 206.254 109c4.246 2.5 2.246 8-2.06 6.134l-4.23 2.586c2.338 1.724-1.032 2.556-2.41 1.534-1.276.514-2.902 1.584-4.338 1.35 3.906 12.59 5.577 26.284 5.588 39.466 13.067-.685 21.55 8.71 21.18 21.528-.526 18.44-13.713 34.81-31.308 39.968-7.055 15.985-24.78 26.557-40.366 32.586 1.255 1.934 2.396 3.94 3.406 6.013 4.827-4.824 11.33-8.03 18.055-6.992 6.92 1.072 13.394 6.38 14.533 13.49 1.803 11.143-8.69 20.367-18.55 11.976-2.252-1.87.713-5.35 2.918-3.426 6.807 5.702 12.708-.905 11.074-8.434-1.057-4.88-5.903-8.422-10.665-9.16-5.885-.908-11.55 2.52-15.486 7.1 1.136 3.41 1.752 7.02 1.667 10.616 1.486.724 1.577 2.986.397 4.695 1.675 5.523-2.107 14.417-8.836 13.275-1.586 1.97-4.073 2.885-6.546 3.036.277 1.586 2.584 3.867 1.507 5.366-.936 1.56-4.74 2.664-9.36 3.43.083.645.186 1.285.3 1.927 4.497.575 9.244 2.224 10.334 6.248 1.336 4.93-3.284 6.73-6.57 6.73s-4.4-1.093-8.368-1.093c-2.758 0-5.358 1.136-8.104 1.093-2.87-.037-5.585-2.12-5.91-5.052-.2-1.808.25-3.63 1.55-4.95-.07-1.172-.175-2.303-.3-3.396-2.226.066-4.446.04-6.673-.01-.135 1.096-.24 2.23-.31 3.404 1.152 1.17 1.792 2.768 1.55 4.95-.328 2.955-3.075 5.037-5.966 5.052-2.73.01-5.306-1.093-8.048-1.093-2.923 0-5.682 1.162-8.5953 1.1-3.8062-.093-7.4618-2.596-6.3422-6.728 1.1-4.023 5.836-5.673 10.3336-6.248l.2653-1.737c-2.704-.44-10.3365-1.11-10.234-4.528-.088-2.322 2.1695-4.98 2.3582-7.622.7178-10.073-1.8856-19.667.8883-29.717-1.9675 3.41-3.2717 7.374-3.8656 11.335 1.055.573 1.1845 2.352.5322 3.586.605 1.425.7225 3.065.169 4.638 3.0207 4.14-.2094 10.378-5.2732 10.374-6.0962-.005-9.2828-7.823-7.876-13.046-1.3087-1.3-1.2022-3.8.151-4.808.4515-7.63 3.613-15.345 7.593-21.278-15.8105-6.06-33.573-16.55-40.664-32.7-15.3-4.48-27.3218-17.692-30.5172-33.293-2.898-14.146 4.4647-29.112 20.5154-28.198 1.135-13.622 4.196-27.218 9.6676-39.78-1.22-.205-2.4277-1.01-3.5438-1.512-1.2326.835-4.4577-.21-2.3402-1.638l-4.116-2.763c-4.495 2.126-6.495-5.374-1.7973-6.216-13.7578-16.004 26.1308-58.6794 37.734-45.1716 2.1224-4.6995 7.5682 0 5.8603 1.957l3.457 3.67c1.0937-2.393 3.2508.3867 2 2.042.7474 1.1178 2.0527 2.421 2.1972 3.8205l.0007.006c25.0487-14.3575 57.1212-14.7796 82.0052-1.08.08-1.4864 1.553-2.8257 2.38-3.955C157.5 68 159.5 66 160.916 67.491l3.61-3.5203zM139.88 291.857c.995-.043 2.238-.228 2.998-.945-1.71-2.172-2.12-5.37-.276-7.896-.548-1.557-.44-3.18.15-4.595-.647-1.178-.568-2.882.366-3.54-.303-4.05-1.41-7.6-3.32-11.135 1.986 9.5-.16 18.557.08 28.11z" fill="#f9eb3d"/></svg>