<svg xmlns="http://www.w3.org/2000/svg" xmlns:xlink="http://www.w3.org/1999/xlink" width="292" height="589" fill="none" xmlns:v="https://vecta.io/nano"><style><![CDATA[.B{fill:#000}.C{stroke:#333}.D{stroke-width:.25}.E{stroke-miterlimit:10}.F{fill-opacity:.15}.G{fill-opacity:.1}.H{fill:#f7c394}.I{fill:#fff}.J{fill:#5fa9df}.K{fill:#fbdd11}.L{fill:#f66}.M{fill:#ffc9a1}.N{fill:#999}.O{fill-opacity:.05}.P{fill:#5050d8}.Q{fill-opacity:.2}.R{fill-opacity:.25}.S{stroke-linejoin:round}.T{fill:#ffcd98}.U{fill:#7a5d43}.V{fill:#634b37}.W{fill-rule:evenodd}]]></style><g clip-path="url(#C)"><g class="B"><path d="M135 4.4V2.07h21V4.4h-8.46v.36c.9.52 1.58 1.24 2.04 2.16.48.92.72 1.92.72 3 0 .92-.17 1.8-.5 2.6s-.83 1.54-1.47 2.16c-.64.64-1.43 1.14-2.37 1.5-.94.38-2 .57-3.2.57h-.6c-1.22 0-2.3-.18-3.24-.54s-1.73-.86-2.37-1.5c-.64-.62-1.13-1.35-1.47-2.2-.32-.84-.48-1.73-.48-2.67 0-.48.06-.97.18-1.47.1-.5.26-.98.48-1.44a7.421 7.421 0 0 1 .84-1.23c.34-.38.74-.7 1.2-.96V4.4H135zm1.8 4.98c0 .72.12 1.38.36 1.98.26.6.62 1.12 1.08 1.56.46.46 1.02.8 1.68 1.05.66.26 1.4.4 2.22.4h.6c.8 0 1.52-.13 2.16-.4.66-.24 1.22-.6 1.68-1.05.48-.44.85-.97 1.1-1.6.26-.6.4-1.25.4-1.95s-.14-1.35-.42-1.95c-.26-.6-.63-1.13-1.1-1.6-.48-.44-1.06-.8-1.74-1.05-.66-.26-1.4-.4-2.2-.4h-.36c-.82 0-1.57.13-2.25.4-.66.26-1.23.6-1.7 1.05-.48.46-.85 1-1.1 1.6s-.4 1.25-.4 1.95zm.72 22.39v-.36c-1-.48-1.74-1.15-2.22-2-.48-.84-.72-1.73-.72-2.67 0-.98.16-1.9.48-2.73.34-.84.83-1.58 1.47-2.22.66-.62 1.46-1.1 2.4-1.47s2.03-.54 3.27-.54h.48c1.22 0 2.3.18 3.24.54s1.73.85 2.37 1.47c.66.64 1.16 1.38 1.5 2.22s.5 1.73.5 2.67c0 1.02-.23 1.94-.7 2.76-.44.84-1.13 1.5-2.07 1.98v.36h2.34v2.34h-11.82c-.6 0-.9.27-.9.8v.75H135v-1.6c0-.68.22-1.24.66-1.68.44-.42 1-.63 1.68-.63h.18zm-.72-4.8c0 .7.13 1.34.4 1.92.26.6.63 1.1 1.1 1.53s1.05.75 1.7 1c.68.24 1.43.36 2.25.36h.36c.8 0 1.53-.12 2.2-.36.68-.24 1.26-.58 1.74-1.02.48-.42.85-.93 1.1-1.53.28-.58.42-1.2.42-1.9s-.13-1.34-.4-1.92-.63-1.1-1.1-1.53c-.46-.42-1.03-.75-1.7-1-.66-.24-1.4-.36-2.2-.36h-.48c-1.7 0-3.03.44-4 1.32-.94.9-1.4 2.06-1.4 3.48zM135 41.6883v-2.34h14.88v2.34h-2.52v.36c1.96.92 2.94 2.52 2.94 4.8 0 1.72-.54 3.1-1.62 4.1-1.06 1.02-2.66 1.53-4.8 1.53H135v-2.34h8.4c1.56 0 2.73-.35 3.5-1.05s1.17-1.65 1.17-2.85c0-1.42-.5-2.54-1.47-3.36-.96-.8-2.25-1.2-3.87-1.2H135zm-1.44 15.61v13.98h-2.16v-13.98h2.16zm11.88 23.2892h3.48l4.38 6.84h.36v-11.88H156v14.04h-3.84l-4.38-6.84h-.36v1.2c0 .8-.13 1.57-.4 2.3s-.64 1.4-1.14 1.95c-.5.58-1.12 1.04-1.86 1.38-.72.36-1.56.54-2.52.54h-.54c-.9 0-1.74-.18-2.52-.54a6.276 6.276 0 0 1-2.04-1.5c-.56-.64-1-1.4-1.35-2.28-.32-.86-.48-1.8-.48-2.82 0-1.18.18-2.24.54-3.18s.85-1.74 1.47-2.4c.64-.66 1.38-1.17 2.22-1.53.86-.34 1.77-.5 2.73-.5h1.62v2.52h-1.44c-.76 0-1.44.12-2.04.36-.58.26-1.08.6-1.5 1.05-.4.46-.7 1-.93 1.62s-.33 1.3-.33 2c0 .66.1 1.27.33 1.83.22.58.52 1.08.9 1.5.4.42.86.75 1.38 1 .54.24 1.1.36 1.7.36h.18c1.26 0 2.24-.4 2.94-1.2.72-.8 1.08-1.8 1.08-3v-2.82zm4.44 24.4594v2.67l-7.08-4.38h-.36l-7.44 4.74v-2.73l6.54-4.05v-.54L135 96.7057v-2.73l7.44 4.74h.36l7.08-4.38v2.67l-6.18 3.7503v.54l6.18 3.75zm-12.6 19.18v-.36c-.46-.26-.86-.58-1.2-.96-.32-.36-.6-.76-.84-1.2-.22-.42-.38-.87-.48-1.35-.12-.46-.18-.9-.18-1.35 0-1 .17-1.93.5-2.8s.83-1.62 1.47-2.28c.64-.64 1.43-1.15 2.37-1.53.96-.36 2.05-.54 3.27-.54h.48c1.2 0 2.27.2 3.2.57.96.38 1.76.9 2.4 1.53a6.35 6.35 0 0 1 1.5 2.25c.34.86.5 1.77.5 2.73 0 1.02-.24 1.96-.72 2.82-.46.88-1.14 1.58-2.04 2.1v.36h2.34v2.34H129v-2.34h8.28zm-.48-4.98c0 .7.13 1.35.4 1.95s.63 1.12 1.1 1.56c.48.46 1.05.82 1.7 1.08.68.26 1.43.4 2.25.4h.36c.8 0 1.53-.13 2.2-.4.68-.26 1.26-.62 1.74-1.08.48-.44.85-.97 1.1-1.6.28-.6.42-1.24.42-1.92 0-.7-.13-1.36-.4-1.98-.26-.6-.63-1.13-1.1-1.6-.48-.44-1.05-.8-1.7-1.05-.66-.24-1.4-.36-2.2-.36h-.48c-.84 0-1.6.12-2.25.36-.66.26-1.23.6-1.7 1.05-.46.46-.82 1-1.08 1.6-.24.6-.36 1.26-.36 1.98zM57 25.4v-2.34h21v2.34h-8.46v.36c.9.52 1.58 1.24 2.04 2.16.48.92.72 1.92.72 3 0 .92-.17 1.8-.5 2.6s-.83 1.54-1.47 2.16c-.64.64-1.43 1.14-2.37 1.5-.94.38-2 .57-3.2.57h-.6c-1.22 0-2.3-.18-3.24-.54s-1.73-.86-2.37-1.5c-.64-.62-1.13-1.35-1.47-2.2-.32-.84-.48-1.73-.48-2.67 0-.48.06-.97.18-1.47.1-.5.26-.98.48-1.44a7.421 7.421 0 0 1 .84-1.23c.34-.38.74-.7 1.2-.96v-.36H57zm1.8 4.98c0 .72.12 1.38.36 1.98.26.6.62 1.12 1.08 1.56.46.46 1.02.8 1.68 1.05.66.26 1.4.4 2.22.4h.6c.8 0 1.52-.13 2.16-.4.66-.24 1.22-.6 1.68-1.05.48-.44.85-.97 1.1-1.6.26-.6.4-1.25.4-1.95s-.14-1.35-.42-1.95c-.26-.6-.63-1.13-1.1-1.6-.48-.44-1.06-.8-1.74-1.05-.66-.26-1.4-.4-2.2-.4h-.36c-.82 0-1.57.13-2.25.4-.66.26-1.23.6-1.7 1.05-.48.46-.85 1-1.1 1.6s-.4 1.25-.4 1.95zm.72 22.39v-.36c-1-.48-1.74-1.15-2.22-2-.48-.84-.72-1.73-.72-2.67 0-.98.16-1.9.48-2.73.34-.84.83-1.58 1.47-2.22.66-.62 1.46-1.1 2.4-1.47s2.03-.54 3.27-.54h.48c1.22 0 2.3.18 3.24.54s1.73.85 2.37 1.47c.66.64 1.16 1.38 1.5 2.22s.5 1.73.5 2.67c0 1.02-.23 1.94-.7 2.76-.44.84-1.13 1.5-2.07 1.98v.36h2.34v2.34h-11.8c-.6 0-.9.27-.9.8v.75H57v-1.6c0-.68.22-1.24.66-1.68.44-.42 1-.63 1.68-.63h.18zm-.72-4.8c0 .7.13 1.34.4 1.92.26.6.63 1.1 1.1 1.53s1.05.75 1.7 1c.68.24 1.43.36 2.25.36h.36c.8 0 1.53-.12 2.2-.36.68-.24 1.26-.58 1.74-1.02.48-.42.85-.93 1.1-1.53.28-.58.42-1.2.42-1.9s-.13-1.34-.4-1.92-.63-1.1-1.1-1.53c-.46-.42-1.03-.75-1.7-1-.66-.24-1.4-.36-2.2-.36h-.48c-1.7 0-3.03.44-4 1.32-.94.9-1.4 2.06-1.4 3.48zM57 62.6883v-2.34h14.88v2.34h-2.52v.36c1.96.92 2.94 2.52 2.94 4.8 0 1.72-.54 3.1-1.62 4.1-1.06 1.02-2.66 1.53-4.8 1.53H57v-2.34h8.4c1.56 0 2.73-.35 3.5-1.05s1.17-1.65 1.17-2.85c0-1.42-.5-2.54-1.47-3.36-.96-.8-2.25-1.2-3.87-1.2H57zm-1.44 15.61v13.98H53.4v-13.98h2.16zm3.78 24.2496H76.9v-.36L69 98.7366v-2.5h.18L78 100.177v4.9H59.34v5.94H57V96.6066h2.34v5.9404zm3.78 15.07c-1.3 0-2.35.4-3.15 1.2-.78.8-1.17 1.9-1.17 3.33 0 .68.12 1.3.36 1.86.24.58.58 1.07 1.02 1.47.46.42 1 .74 1.6.96.62.24 1.3.36 2.07.36h3.12v-.36c-.88-.46-1.57-1.12-2.07-1.98s-.75-1.86-.75-3c0-.98.15-1.88.45-2.7s.74-1.53 1.32-2.13c.6-.6 1.32-1.07 2.16-1.4.84-.32 1.8-.48 2.88-.48h.36c1.04 0 2 .18 2.85.54.88.36 1.63.86 2.25 1.5.64.66 1.13 1.43 1.47 2.3.36.9.54 1.88.54 2.94s-.18 2.03-.54 2.9c-.34.9-.82 1.67-1.44 2.3-.62.66-1.36 1.17-2.22 1.53s-1.8.54-2.82.54h-7.56c-1.12 0-2.13-.2-3.03-.57-.88-.36-1.64-.87-2.28-1.53-.62-.64-1.1-1.4-1.44-2.28s-.5-1.83-.5-2.85.15-1.96.45-2.82.73-1.6 1.3-2.22c.58-.62 1.27-1.1 2.07-1.44.82-.34 1.73-.5 2.73-.5v2.52zm13.08 4.4c0-.72-.12-1.38-.36-1.98-.24-.58-.58-1.08-1.02-1.5s-.96-.74-1.56-.96c-.58-.22-1.2-.33-1.9-.33H71c-.7 0-1.34.12-1.92.36-.56.24-1.05.57-1.47 1-.4.42-.7.92-.93 1.5s-.33 1.22-.33 1.92c0 .68.1 1.3.33 1.9.24.58.56 1.08.96 1.5.4.44.88.78 1.44 1.02s1.16.36 1.8.36h.57c.66 0 1.28-.1 1.86-.33s1.08-.54 1.5-.96c.44-.42.78-.93 1.02-1.53.24-.58.36-1.23.36-1.95zM213 25.4v-2.34h21v2.34h-8.46v.36c.9.52 1.58 1.24 2.04 2.16.48.92.72 1.92.72 3 0 .92-.17 1.8-.5 2.6s-.83 1.54-1.47 2.16c-.64.64-1.43 1.14-2.37 1.5-.94.38-2 .57-3.2.57h-.6c-1.22 0-2.3-.18-3.24-.54s-1.73-.86-2.37-1.5c-.64-.62-1.13-1.35-1.47-2.2-.32-.84-.48-1.73-.48-2.67 0-.48.06-.97.18-1.47.1-.5.26-.98.48-1.44a7.421 7.421 0 0 1 .84-1.23c.34-.38.74-.7 1.2-.96v-.36H213zm1.8 4.98c0 .72.12 1.38.36 1.98.26.6.62 1.12 1.08 1.56.46.46 1.02.8 1.68 1.05.66.26 1.4.4 2.22.4h.6c.8 0 1.52-.13 2.16-.4.66-.24 1.22-.6 1.68-1.05.48-.44.85-.97 1.1-1.6.26-.6.4-1.25.4-1.95s-.14-1.35-.42-1.95c-.26-.6-.63-1.13-1.1-1.6-.48-.44-1.06-.8-1.74-1.05-.66-.26-1.4-.4-2.2-.4h-.36c-.82 0-1.57.13-2.25.4-.66.26-1.23.6-1.7 1.05-.48.46-.85 1-1.1 1.6s-.4 1.25-.4 1.95zm.72 22.39v-.36c-1-.48-1.74-1.15-2.22-2-.48-.84-.72-1.73-.72-2.67 0-.98.16-1.9.48-2.73.34-.84.83-1.58 1.47-2.22.66-.62 1.46-1.1 2.4-1.47s2.03-.54 3.27-.54h.48c1.22 0 2.3.18 3.24.54s1.73.85 2.37 1.47c.66.64 1.16 1.38 1.5 2.22s.5 1.73.5 2.67c0 1.02-.23 1.94-.7 2.76-.44.84-1.13 1.5-2.07 1.98v.36h2.34v2.34h-11.82c-.6 0-.9.27-.9.8v.75H213v-1.6c0-.68.22-1.24.66-1.68.44-.42 1-.63 1.68-.63h.18zm-.72-4.8c0 .7.13 1.34.4 1.92.26.6.63 1.1 1.1 1.53s1.05.75 1.7 1c.68.24 1.43.36 2.25.36h.36c.8 0 1.53-.12 2.2-.36.68-.24 1.26-.58 1.74-1.02.48-.42.85-.93 1.1-1.53.28-.58.42-1.2.42-1.9s-.13-1.34-.4-1.92-.63-1.1-1.1-1.53c-.46-.42-1.03-.75-1.7-1-.66-.24-1.4-.36-2.2-.36h-.48c-1.7 0-3.03.44-4 1.32-.94.9-1.4 2.06-1.4 3.48zM213 62.6883v-2.34h14.88v2.34h-2.52v.36c1.96.92 2.94 2.52 2.94 4.8 0 1.72-.54 3.1-1.62 4.1-1.06 1.02-2.66 1.53-4.8 1.53H213v-2.34h8.4c1.56 0 2.73-.35 3.5-1.05s1.17-1.65 1.17-2.85c0-1.42-.5-2.54-1.47-3.36-.96-.8-2.25-1.2-3.87-1.2H213zm-1.44 15.61v13.98h-2.16v-13.98h2.16zm3.78 24.2496h17.55v-.36l-7.9-3.4504v-2.5h.18l8.82 3.9304v4.9h-18.66v5.94H213V96.6066h2.34v5.9404zm.18 23.7v-.36c-1-.48-1.74-1.15-2.22-2-.48-.84-.72-1.73-.72-2.67 0-.98.16-1.9.48-2.73.34-.84.83-1.58 1.47-2.22.66-.62 1.46-1.1 2.4-1.47s2.03-.54 3.27-.54h.48c1.22 0 2.3.18 3.24.54s1.73.85 2.37 1.47c.66.64 1.16 1.38 1.5 2.22s.5 1.73.5 2.67c0 1.02-.23 1.94-.7 2.76-.44.84-1.13 1.5-2.07 1.98v.36h2.34v2.34h-11.82c-.6 0-.9.27-.9.8v.75H213v-1.6c0-.68.22-1.24.66-1.68.44-.42 1-.63 1.68-.63h.18zm-.72-4.8c0 .7.13 1.34.4 1.92.26.6.63 1.1 1.1 1.53s1.05.75 1.7 1c.68.24 1.43.36 2.25.36h.36c.8 0 1.53-.12 2.2-.36.68-.24 1.26-.58 1.74-1.02.48-.42.85-.93 1.1-1.53.28-.58.42-1.2.42-1.9s-.13-1.34-.4-1.92-.63-1.1-1.1-1.53c-.46-.42-1.03-.75-1.7-1-.66-.24-1.4-.36-2.2-.36h-.48c-1.7 0-3.03.44-4 1.32-.94.9-1.4 2.06-1.4 3.48z" fill-opacity=".35"/></g><path d="M89.7563 516.383c-2.5385-.37-5.758-1.614-9.843-3.8-.5937-.318-.8333-1.093-.5125-1.692s1.0925-.833 1.692-.513c3.7725 2.02 6.81 3.206 9.025 3.53 1.4465.212 2.4875.05 3.094-.482.6805-.596.6195-1.65.4415-3.62-.2085-2.306-.468-5.177.99-8.476 2.1997-4.985 7.6817-9.726 13.4547-8.835 3.666.568 7.18 3.3 7.986 7.03.687 3.168-.3 7.51-3.676 8.72-2.24.8-4.796-.118-6.542-1.604-.522-.433-.598-1.25-.153-1.772.44-.516 1.257-.582 1.774-.13.02.018 2.183 1.833 4.074 1.153 2.142-.77 2.49-3.947 2.078-5.84-.587-2.71-3.28-4.678-5.925-5.088-4.642-.717-9.0404 3.424-10.7862 7.374-1.1955 2.708-.978 5.116-.786 7.24.2 2.192.3855 4.262-1.2835 5.725-1.3833 1.22-3.3536 1.34-5.1 1.077z" class="C D E J"/><g class="B R"><path d="M115.333 500.127c.553 2.552.06 5.728-1.9 7.604 2.57-1.685 3.253-5.378 2.64-8.204-.807-3.72-4.32-6.462-7.987-7.03-3.313-.5-6.6.928-9.0767 3.04 5.7057-4.037 14.6647-3.018 16.3137 4.6zm-3.453 5.627c-1.35 1.572-3.78.763-5.144-.412a1.241 1.241 0 0 0-.547-.27c-.202-.044-.4-.037-.6.02.2-.365.582-.6.997-.645a1.253 1.253 0 0 1 .91.295c1.103.975 2.992 1.758 4.394 1.012zm-32.2047 4.772c.175-.15.775-.45 1.15-.275l1.2365.6c2.47 1.22 6.3735 3.15 9.1885 3.15 2.5 0 2.725-1.25 2.375-4.55l.153.625c.48 1.888 1.2042 4.725-2.528 4.725-4.075 0-10.4393-3.53-11.575-4.275z"/></g><path d="M55.3514 509.2c1.825 0 3.283-1.63 3.102-3.42-.27-3.176.93-6.61 3.2975-9.92 2.153-3.013 4.4605-4.663 2.6855-6.6s-5.778.196-7.77 2.975c-3.2855 4.596-4.8595 9.456-4.4315 14.184.1597 1.574 1.2915 2.79 3.1165 2.79z" class="C D E J"/><path d="M53.6546 504.81c-.0207-5.614 4.4806-13.883 9.7556-16.208-6.5-1.05-12.25 11.675-11.1356 17.588.3606-.588.9856-1.163 1.38-1.38z" class="B F"/><path d="M73.9697 524.177c.25-4.354 1.37-7.722 2.3585-10.34s2.1208-7.235-2.128-8.3c-6.075-1.524-9.4156 12.706-9.665 17.047-.1466 2.554 1.84 5.517 4.42 5.665 2.374.115 4.8723-1.6 5.0145-4.07z" class="C D E J"/><g class="B F"><path d="M64.475 522.575c2.575-.35 7.4-.35 9.425 1.7l.083-.752c-2.108-1.848-6.908-1.973-9.4-1.623-.0133.165-.0933.507-.107.675z"/><use xlink:href="#D"/></g><path d="M78.0327 524.177c-.25-4.354-1.37-7.722-2.3585-10.34s-2.1207-7.235 2.128-8.3c6.075-1.524 9.4156 12.706 9.665 17.047.1467 2.554-1.841 5.517-4.42 5.665-2.374.115-4.8722-1.6-5.0145-4.07z" class="C D E J"/><g class="B F"><path d="M87.5266 522.575c-2.575-.35-7.4-.35-9.425 1.7l-.083-.752c2.108-1.848 6.908-1.973 9.4-1.623.0133.165.0933.507.107.675z"/><use xlink:href="#E"/></g><path d="M96.6496 509.2c-1.825 0-3.283-1.63-3.102-3.42.27-3.176-.93-6.61-3.2975-9.92-2.153-3.013-4.4605-4.663-2.6855-6.6s5.778.196 7.77 2.975c3.2855 4.596 4.8594 9.456 4.4315 14.184-.1597 1.574-1.2915 2.79-3.1165 2.79z" class="C D E J"/><path d="M98.346 504.81c.0207-5.614-4.4806-13.883-9.7556-16.208 6.5-1.05 12.2497 11.675 11.1356 17.588-.3606-.588-.9856-1.163-1.38-1.38z" class="B F"/><path d="M132.66 443.458c5.555 5.1 3.316 15.465-.455 21.358-5.373 8.4-17.673 13.688-23.973 9.22-6.58-4.668-5.72-19.346 1.96-26.966 5.734-5.69 16.723-8.885 22.468-3.61z" class="C D E H"/><path d="M126.175 449.462c3.3 3.4 1.505 9.834-1.083 13.394-3.687 5.073-11.608 7.935-15.397 4.893-3.957-3.176-2.87-12.36 2.238-16.86 3.813-3.358 10.832-4.954 14.242-1.428z" class="M"/><path d="M132.206 464.815c-3.034 4.742-9.755 10.16-17.33 10.836 5.32-1.25 13-6.693 15.332-10.336 3.77-5.894 5.768-16.95.455-21.358-1.62-1.345-5.737-3.256-11.387-2.256 6.9-2.125 11.14-.307 13.387 1.756 5.553 5.1 3.314 15.464-.457 21.358z" class="B G"/><path d="M19.3417 443.458c-5.555 5.1-3.316 15.465.4545 21.358 5.373 8.4 17.6735 13.688 23.973 9.22 6.58-4.668 5.72-19.346-1.96-26.966-5.734-5.69-16.7225-8.885-22.4675-3.61z" class="C D E H"/><path d="M25.8264 449.462c-3.3 3.4-1.505 9.834 1.0825 13.394 3.6875 5.073 11.6085 7.935 15.397 4.893 3.957-3.176 2.8695-12.36-2.2375-16.86-3.813-3.358-10.832-4.954-14.242-1.428z" class="M"/><path d="M19.7955 464.815c3.0345 4.742 9.755 10.16 17.33 10.836-5.318-1.25-13.001-6.693-15.332-10.336-3.7705-5.894-5.768-16.95-.4545-21.358 1.6204-1.345 5.7365-3.256 11.3865-2.256-6.9-2.125-11.1395-.307-13.3865 1.756-5.553 5.1-3.314 15.464.4565 21.358z" class="B G"/><path d="M76.002 479.25c7.7 0 11 6.75 13 12.3s2.9 11 2.9 14.6c0 7.6-6.934 15.273-15.9 15.35-8.7765.076-15.9-7.75-15.9-15.35 0-3.6.885-9.075 2.9-14.6 2-5.55 5.3-12.3 13-12.3z" class="C D E J"/><path d="M75.9997 521.5c-8.7835.08-16.5-7.85-15.9-16.85.5 7.4 7.2575 14.424 15.9 14.35s15.4-6.95 15.9-14.35c.6 9-7.1164 16.77-15.9 16.85z" class="B F"/><path d="M76.0004 485.45c5.2 0 8 3.4 8.7 6.4 1.7245 7.39 3.2 13.7.2 17.5s-6.7475 4.1-8.9 4.1c-2.3775 0-5.9-.3-8.9-4.1s-1.622-9.692.2-17.5c.7-3 3.5-6.4 8.7-6.4z" class="C D E H"/><g class="B"><use xlink:href="#F" class="G"/><path d="M95.7496 492.75c-5.7672 2.26-13.55 3.95-19.75 3.95s-12.9668-1.32-19.75-3.95c-.362.527-.8307 1.314-1.15 1.85 7.1 2.85 13.75 4.3 20.9 4.3s13.8-1.45 20.9-4.3c-.3077-.535-.7963-1.318-1.15-1.85z" class="F"/></g><path d="M101.016 393.8c2.116-1.793-6.2162-3.8-7.3262-6.975-1.34-3.825 19.7792 6.355 16.5782 13.054-.25.526-2.77 4.7-20.8802-1.188 19.9082 6.46 34.9832 20.156 34.9122 45.51-.055 19.437-17.504 49.54-48.3217 49.81-29.73.26-48.332-29.81-48.2785-49.81.066-24.422 21.6065-49.547 48.3-51.425 15.9705-1.123 23.2645 2.505 25.0162 1.025z" class="C D J S"/><g class="B F"><path d="M104.26 394.918c-1.483 3.258-10.6-2-26.5606-.877-32.6732 2.297-56.347 38.56-43.23 67.954 3.407-3.52 7.557-4.52 8.8795-4.958.397.428.88.883 1.0525 1.1-4.0683 1.267-8.7964 4.02-10.8315 7.842-3.8135-7.38-5.85-15.128-5.8295-21.767.066-24.422 21.6-49.55 48.3045-51.428 15.9705-1.123 23.228 2.505 24.98 1.023 2.1-1.788-6.2226-3.795-7.332-6.97-.4285-1.223 1.44-1.013 4.0775.057-1-.144-1.55.1-1.2775.793.97 2.52 9.015 4.5 7.767 7.242zm19.966 49.287c-.018 6.387-1.906 13.925-5.527 21.178-3.748-5.132-10.46-7.182-11.148-7.182l1-1.225c1.175.275 6.43 1.396 9.364 5.3 2.965-6.607 4.326-12.758 4.342-18.543.074-26.212-17.68-39.242-32.8678-45.05 19.9078 6.46 34.9078 20.16 34.8368 45.513z"/></g><path d="M62.25 412.026c-14.85 0-33.25 31.425-18.175 45.925-28.775 9 .0001 38.95 31.925 38.95s60.7-29.95 31.925-38.95c15.075-14.5-3.325-45.925-18.175-45.925-6.325 0-9.7753 2.925-13.75 5.825-3.975-2.9-7.425-5.825-13.75-5.825z" class="C D T"/><g class="B"><path d="M113.455 442.7c-.785-15.427-13.25-30.66-24.0747-30.66-6.73 0-10.8 4.107-13.38 5.81-2.055-1.402-6.625-5.81-13.42-5.81-12.78 0-23.905 18.66-24.1065 31.135-1.1235-13.426 9.18-33.576 24.1765-33.576 7.8 0 11.95 3.75 13.35 5.3 1.4-1.55 5.55-5.3 13.35-5.3 14.8817 0 25.1747 19.075 24.1047 33.1z" class="F"/><path d="M38.5186 442.22c-.3556 5.872 1.2 11.5 5.5726 15.705-.5213.163-1.0237.383-1.5076.56 1.1164-.36 2.183-.614 3.4164-.835-4.227-4.066-6.6733-9.588-7.4814-15.43zM33.43 465.184c-6.7962 12.263 16.716 31.7 42.57 31.7s49.66-19.642 42.488-31.893C123.256 476.188 100.536 495 76 495c-24.3895 0-46.9843-18.6-42.57-29.816zm76.095-6.684l-3.525-.85c4.266-4.103 6.718-9.7 7.503-15.593.395 5.93-1.15 11.625-5.562 15.868.566.177 1.062.382 1.584.575z" class="G"/></g><path d="M63.9827 422.004c7.7445.9 13.324 10.437 12.5 18.838-.82 8.367-8.1345 17.1-16.494 16.15-7.6-.865-12.513-9.31-12.675-16.408-.2155-9.508 8.042-19.583 16.67-18.58z" class="I"/><path d="M73.388 443.112c1.1055-5.697-1.9747-11.088-6.8798-12.04s-9.7775 2.895-10.883 8.593 1.9747 11.088 6.8798 12.04 9.7775-2.896 10.883-8.594z" class="C D E N"/><path d="M65.0612 448.93c2.9254 0 5.297-2.652 5.297-5.923s-2.3716-5.923-5.297-5.923-5.297 2.652-5.297 5.923 2.3715 5.923 5.297 5.923z" class="B"/><path d="M69.745 438.866c.3725-1.052-.2208-2.222-1.325-2.613s-2.3015.145-2.674 1.198.2208 2.222 1.325 2.613 2.3015-.145 2.674-1.198z" class="C D E I"/><g class="B"><path d="M67.7942 423.2c-10.2192-2.794-18.724 9.313-18.5155 18.4.1235 5.362 2.968 11.49 7.635 14.582-5.82-2.44-9.46-9.516-9.6-15.6-.2165-9.505 8.04-19.58 16.668-18.577a10.872 10.872 0 0 1 3.8125 1.194z" class="O"/><path d="M69.182 432.128c-5.6424-1.604-10.6372 3.265-11.6575 8.522-.8375 4.317.7035 8.46 3.6175 10.667-4.094-1.6-6.5115-6.496-5.5125-11.644 1.106-5.7 5.98-9.545 10.884-8.593.946.184 1.8503.54 2.6685 1.048z" class="F"/></g><path d="M87.7022 421.796c-7.727 1.034-13.1395 10.668-12.17 19.054.965 8.35 8.4315 16.955 16.7735 15.857 7.5735-.997 12.3503-9.528 12.3863-16.626.05-9.508-8.3828-19.437-16.9898-18.285z" class="I"/><path d="M89.688 451.485c4.8877-1.037 7.8733-6.48 6.6686-12.158s-6.1437-9.44-11.0314-8.402-7.8733 6.48-6.6685 12.158 6.1436 9.44 11.0313 8.402z" class="C D E N"/><path d="M87.092 448.735c2.925-.05 5.25-2.744 5.1928-6.014s-2.4745-5.88-5.3995-5.83-5.25 2.744-5.193 6.014 2.4746 5.88 5.3996 5.83z" class="B"/><path d="M90.4188 440.07c1.0973-.4 1.67-1.6 1.2792-2.636s-1.597-1.56-2.6944-1.15-1.67 1.6-1.2792 2.636 1.597 1.562 2.6944 1.15z" class="C D E I"/><g class="B"><path d="M104.7 440.08c-.033 6.164-3.638 13.407-9.544 15.86 4.7645-3.08 7.604-9.404 7.633-14.878.048-9.18-9.0547-21.562-19.2976-17.76 1.3-.78 2.7145-1.307 4.2185-1.508 8.6085-1.152 17.04 8.776 16.99 18.284z" class="O"/><path d="M90.7552 451.17c3.043-2.182 4.63-6.453 3.6935-10.865-1.1198-5.277-6.3242-10.07-11.937-8.185.8515-.58 1.8084-.99 2.817-1.205 4.888-1.038 9.827 2.724 11.0325 8.4 1.115 5.255-1.358 10.308-5.606 11.855z" class="F"/><path d="M65.2505 456.8c0 3.818 4.9425 8.45 10.8128 8.4 5.41-.047 10.6872-4.627 10.6872-8.39 0-7.606-21.5-7.72-21.5-.01z" class="G"/></g><path d="M65.1006 455.9c0 3.817 5.0115 8.45 10.9636 8.4 5.4866-.048 10.8364-4.628 10.8364-8.39 0-3.027-6.312-5.69-10.8364-5.65-4.201.04-10.9636 2.058-10.9636 5.64z" class="U"/><path d="M65.1796 455.24c2.0878 2.738 6.2338 5.047 10.8925 5.01 4.3105-.034 8.5458-2.356 10.7046-5.077.081.243.124.5.124.74 0 3.76-5.3498 8.34-10.8364 8.39-5.952.05-10.9636-4.583-10.9636-8.4 0-.227.027-.447.08-.662z" class="B Q"/><path d="M71.5018 529.65c1.6 0 3.1545-1.18 3.3348-2.807.4557-4.11-4.7174-4.485-7.533-4.546-2.855-.063-7.7017.478-8.551 3.613-.7423 2.74 1.8244 3.74 3.6494 3.74s2.45-.608 4.6492-.608c1.9206 0 2.851.608 4.4508.608z" class="C D E H"/><path d="M71.45 528.55c-1.6 0-2.5303-.608-4.4508-.608-2.1992 0-2.8242.608-4.6492.608-1.4195 0-3.2876-.605-3.6986-2.163-.3363 2.38 2.0337 3.263 3.7486 3.263 1.825 0 2.45-.608 4.6492-.608 1.9205 0 2.8508.608 4.4508.608 2.143 0 3.65-1.708 3.2954-4.014-.1483 1.674-1.7017 2.914-3.3454 2.914z" class="B G"/><path d="M80.5007 529.65c-1.6 0-3.1544-1.18-3.3348-2.807-.4557-4.11 4.7174-4.485 7.533-4.546 2.8552-.063 7.7017.478 8.5512 3.613.7422 2.74-1.8245 3.74-3.6495 3.74s-2.45-.608-4.6492-.608c-1.9206 0-2.851.608-4.4508.608z" class="C D E H"/><path d="M80.551 528.55c1.6 0 2.5303-.608 4.451-.608 2.1992 0 2.8242.608 4.6492.608 1.4194 0 3.2875-.605 3.6985-2.163.3363 2.38-2.0336 3.263-3.7485 3.263-1.825 0-2.45-.608-4.6492-.608-1.9206 0-2.851.608-4.451.608-2.143 0-3.65-1.708-3.2953-4.014.1483 1.674 1.7016 2.914 3.3453 2.914z" class="B G"/><path d="M56.0718 514.845c2.841.002 4.6494-3.405 2.9295-5.763.7958-2.26-.9042-4.77-3.333-4.828-2.8-.067-4.4183 2.925-4.125 5.457.274 2.365 1.8762 5.132 4.5285 5.134z" class="C D E H"/><path d="M51.542 509.71c.3392 2.928 2.7186 6.34 6.2685 4.7-3.441-.44-5.85-6.275-4.1555-9.592-.2694.192-.6944.417-1.38 1.38-.6144 1.086-.8847 2.31-.733 3.52z" class="B G"/><path d="M95.9306 514.845c-2.8408.002-4.6493-3.405-2.9295-5.763-.7958-2.26.9043-4.77 3.333-4.828 2.8-.067 4.418 2.925 4.125 5.457-.274 2.365-1.876 5.132-4.5284 5.134z" class="C D E H"/><g class="B"><path d="M100.46 509.71c-.34 2.928-2.7186 6.34-6.2686 4.7 3.441-.44 5.8496-6.275 4.1555-9.592.2695.192.6945.417 1.38 1.38.614 1.086.885 2.31.733 3.52z" class="G"/><path d="M32.1758 424.774c15.5-36.1 83.2932-29.388 90.9752 8.05-38.5502-16.125-63.3002-14.4-90.9752-8.05z" class="F"/></g><circle cx="86.8009" cy="375.65" r="9.525" fill="#ccc" class="C D"/><path d="M82.8002 381.3c5.3296 0 9.65-4.32 9.65-9.65 0-1.635-.4068-3.175-1.1247-4.525 3.049 1.622 5.1247 4.83 5.1247 8.525 0 5.33-4.3204 9.65-9.65 9.65-3.6942 0-6.9036-2.076-8.5253-5.124 1.3497.718 2.9 1.124 4.5253 1.124z" class="B G"/><path d="M122.276 418.6c-3.6-21.95-13.525-37.583-39.0256-39.55-32.075-2.475-46.25 22.325-47.125 31.475 23.4252-5.325 60.675-3.75 86.1505 8.075z" class="C D N"/><path d="M83.2502 379.05c25.4998 1.967 35.4248 17.6 39.0248 39.55-4.085-1.897-8.472-3.53-13.057-4.912-4.595-19.212-14.9673-32.45-37.4927-34.304l-.1047-.01c3.5798-.507 7.453-.648 11.6296-.325z" class="B G"/><path d="M124.826 414.475c-6.075-4.586-20.75-10.925-44.8254-12.9-13.9392-1.143-42.2.9-46.325 4.125s-5.775 17.61.925 16.1c8.325-1.875 22.925-4.55 43.425-3.425 15.4028.846 37.2254 8.065 42.6004 11.075s10.275-10.39 4.2-14.975z" fill="#666" class="C D"/><g class="B"><path d="M30.0743 415.85c.6897 1.52 1.92 2.378 3.8262 1.95 8.325-1.875 22.925-4.55 43.425-3.425 15.4028.845 37.2255 8.065 42.6005 11.075 3.547 1.986 6.887-3.174 7.003-8.232 2.407 5.677-1.78 14.765-6.303 12.232-5.375-3-27.1976-10.23-42.6004-11.075-20.5-1.125-35.1 1.55-43.425 3.425-3.254.733-4.5383-2.283-4.5263-5.95z" class="F"/><path d="M105.81 471.644c.052.458.087.914.203 1.36.114.44.298.846.482 1.26.124.282-.123.617-.434.484-1.188-.535-1.58-2.226-.874-3.284.188-.27.593-.13.623.18z" class="G"/></g><path d="M103.63 473.476c-.325-1.45-.112-3.053-.075-3.2.125-.5-.725-.825-1-.375-.095.155-.625 1.325-.525 3.1-3.1254 2.075-8.7254 2.5-14.1004 2.075-6.375-.275-15.275-3.75-25.725-3.75-7.125 0-10.875.95-12.25 1.2.05-.975-.4-2.275-.575-2.575-.3176-.545-1.1-.2-.975.375.1886.867.225 2.025-.05 3.25-.354 1.576-1.1966 2.813-1.3 3.175-.1696.593.4036.77.75.65.575-.2 1.975-2.475 2.075-3.825 2.225-.325 4.175-.975 12.325-.85 8.674.133 17.55 3.25 25.725 3.775 8.936.573 13.4504-2.025 14.2754-2.45.55 2.05 1.675 3.15 1.925 3.275.6.3 1.175-.225.775-.725-.432-.54-.95-1.675-1.275-3.125z" class="V"/><path d="M46.767 471.472c.7244 1.047.3582 2.744-.82 3.3-.309.14-.5614-.192-.4425-.476.177-.416.3532-.827.46-1.268.1075-.45.1347-.906.18-1.364.03-.31.425-.464.62-.193l.0015.001z" class="B G"/><path d="M229.755 509.242c-2.538-.37-5.758-1.613-9.843-3.8-.593-.317-.833-1.092-.512-1.692.317-.593 1.092-.833 1.692-.512 3.772 2.018 6.81 3.206 9.025 3.53 1.446.21 2.487.05 3.094-.482.68-.596.62-1.65.44-3.62-.208-2.306-.468-5.176.99-8.475 2.2-4.986 7.682-9.727 13.455-8.835 3.666.568 7.18 3.31 7.986 7.03.687 3.168-.3 7.51-3.676 8.722-2.24.8-4.796-.118-6.542-1.604-.522-.434-.598-1.25-.153-1.772.44-.517 1.257-.582 1.774-.13.02.018 2.183 1.832 4.074 1.153 2.142-.77 2.49-3.948 2.078-5.84-.587-2.712-3.28-4.68-5.925-5.09-4.642-.716-9.04 3.425-10.786 7.375-1.196 2.708-.978 5.116-.786 7.24.2 2.192.385 4.263-1.284 5.725-1.383 1.22-3.353 1.34-5.1 1.077z" class="C D E K"/><g class="B R"><path d="M255.335 492.986c.553 2.552.06 5.728-1.9 7.604 2.57-1.685 3.253-5.377 2.64-8.204-.807-3.72-4.32-6.462-7.987-7.03-3.313-.5-6.6.928-9.077 3.04 5.706-4.037 14.665-3.017 16.314 4.6zm-3.452 5.627c-1.35 1.572-3.78.763-5.144-.412-.157-.134-.345-.226-.547-.27s-.4-.037-.6.02c.2-.364.582-.6.997-.644a1.248 1.248 0 0 1 .91.294c1.103.975 2.992 1.76 4.394 1.012zm-32.206 4.772c.175-.15.775-.45 1.15-.275l1.237.6c2.47 1.22 6.373 3.15 9.188 3.15 2.5 0 2.725-1.25 2.375-4.55l.153.625c.48 1.888 1.205 4.725-2.528 4.725-4.075 0-10.44-3.53-11.575-4.275z"/></g><path d="M195.35 502.06c1.825 0 3.283-1.63 3.102-3.42-.27-3.176.93-6.6 3.298-9.92 2.153-3.012 4.46-4.662 2.685-6.61s-5.778.196-7.77 2.975c-3.285 4.596-4.86 9.455-4.43 14.184.16 1.574 1.29 2.79 3.116 2.79z" class="C D E K"/><path d="M193.655 497.668c-.02-5.614 4.48-13.883 9.755-16.208-6.5-1.05-12.25 11.675-11.135 17.59.36-.59.985-1.164 1.38-1.38z" class="B F"/><use xlink:href="#G" class="C D E K"/><g class="B F"><use xlink:href="#H"/><path d="M205.276 510.96c2.388 2.214 5.444 3.456 8.9 3.925l.125-.85c-3.43-.444-6.4-1.88-8.8-4.05-.1.3-.18.763-.225.975z"/></g><use xlink:href="#I" class="C D E K"/><g class="B F"><use xlink:href="#J"/><path d="M226.727 510.96c-2.388 2.214-5.444 3.456-8.9 3.925l-.125-.85c3.43-.444 6.4-1.88 8.8-4.05.1.3.18.763.225.975z"/></g><path d="M236.652 502.06c-1.825 0-3.283-1.63-3.102-3.42.27-3.176-.93-6.6-3.298-9.92-2.153-3.012-4.46-4.662-2.685-6.61s5.778.196 7.77 2.975c3.285 4.596 4.86 9.455 4.43 14.184-.16 1.574-1.29 2.79-3.116 2.79z" class="C D E K"/><path d="M238.347 497.668c.02-5.614-4.48-13.883-9.756-16.208 6.5-1.05 12.25 11.675 11.136 17.59-.36-.59-.986-1.164-1.38-1.38z" class="B F"/><path d="M272.66 436.317c5.555 5.1 3.316 15.465-.454 21.358-5.373 8.4-17.674 13.688-23.973 9.22-6.58-4.668-5.72-19.346 1.96-26.966 5.734-5.69 16.722-8.885 22.467-3.61z" class="C D E H"/><path d="M266.176 442.32c3.3 3.41 1.505 9.834-1.082 13.394-3.688 5.072-11.61 7.934-15.397 4.893-3.957-3.177-2.87-12.36 2.237-16.86 3.813-3.358 10.832-4.954 14.242-1.428z" class="M"/><path d="M272.208 457.675c-3.035 4.742-9.755 10.16-17.33 10.836 5.318-1.25 13-6.693 15.332-10.336 3.77-5.894 5.768-16.95.454-21.358-1.62-1.345-5.736-3.256-11.386-2.256 6.9-2.125 11.14-.307 13.386 1.756 5.553 5.1 3.314 15.464-.456 21.358z" class="B G"/><path d="M159.342 436.317c-5.555 5.1-3.316 15.465.454 21.358 5.373 8.4 17.674 13.688 23.973 9.22 6.58-4.668 5.72-19.346-1.96-26.966-5.734-5.69-16.722-8.885-22.467-3.61z" class="C D E H"/><path d="M165.827 442.32c-3.3 3.41-1.505 9.834 1.082 13.394 3.688 5.072 11.61 7.934 15.397 4.893 3.957-3.177 2.87-12.36-2.237-16.86-3.813-3.358-10.832-4.954-14.242-1.428z" class="M"/><path d="M159.796 457.675c3.034 4.742 9.754 10.16 17.33 10.836-5.318-1.25-13-6.693-15.33-10.336-3.77-5.894-5.77-16.95-.455-21.358 1.62-1.345 5.736-3.256 11.386-2.256-6.9-2.125-11.14-.307-13.386 1.756-5.553 5.1-3.314 15.464.457 21.358z" class="B G"/><path d="M216 472.1c7.7 0 11 6.75 13 12.3s2.9 11 2.9 14.6c0 7.6-6.934 15.273-15.9 15.35-8.777.075-15.9-7.75-15.9-15.35 0-3.6.885-9.075 2.9-14.6 2-5.55 5.3-12.3 13-12.3z" class="C D E K"/><use xlink:href="#K" class="B F"/><use xlink:href="#L" class="C D E H"/><g class="B"><path d="M216 506.3c-6.8 0-11.2-4.7-10.65-10.8.2 5.75 4.8 9.5 10.65 9.5s10.45-3.75 10.65-9.5c.55 6.1-3.85 10.8-10.65 10.8z" class="G"/><path d="M235.75 485.6c-5.767 2.26-13.55 3.95-19.75 3.95s-12.967-1.322-19.75-3.95c-.362.527-.83 1.314-1.15 1.85 7.1 2.85 13.75 4.3 20.9 4.3s13.8-1.45 20.9-4.3c-.308-.535-.796-1.318-1.15-1.85z" class="F"/></g><path d="M241.016 386.66c2.116-1.792-6.216-3.8-7.326-6.974-1.34-3.826 19.78 6.355 16.58 13.054-.25.525-2.772 4.7-20.88-1.19 19.908 6.46 34.983 20.156 34.912 45.51-.054 19.438-17.503 49.54-48.32 49.81-29.73.26-48.332-29.81-48.28-49.81.066-24.422 21.607-49.547 48.3-51.425 15.97-1.122 23.265 2.505 25.016 1.025z" class="C D K S"/><g class="B F"><path d="M244.257 387.777c-1.483 3.258-10.6-2-26.56-.877-32.673 2.297-56.347 38.56-43.23 67.954 3.407-3.52 7.557-4.52 8.88-4.958.397.43.88.884 1.053 1.1-4.068 1.268-8.796 4.02-10.832 7.842-3.813-7.38-5.85-15.128-5.83-21.766.066-24.423 21.6-49.55 48.304-51.43 15.97-1.122 23.228 2.505 24.98 1.023 2.1-1.787-6.223-3.795-7.333-6.97-.428-1.223 1.44-1.014 4.078.056-1-.144-1.55.092-1.278.794.97 2.52 9.015 4.5 7.768 7.24zm19.97 49.286c-.018 6.387-1.906 13.926-5.527 21.18-3.748-5.132-10.46-7.182-11.148-7.182l1-1.225c1.175.275 6.43 1.395 9.364 5.3 2.965-6.608 4.326-12.758 4.342-18.543.074-26.212-17.68-39.242-32.868-45.05 19.908 6.46 34.908 20.16 34.837 45.512z"/></g><path d="M202.25 404.885c-14.85 0-33.25 31.425-18.175 45.925-28.775 9 0 38.95 31.925 38.95s60.7-29.95 31.925-38.95c15.075-14.5-3.325-45.925-18.175-45.925-6.325 0-9.775 2.925-13.75 5.825-3.975-2.9-7.425-5.825-13.75-5.825z" class="C D T"/><g class="B"><path d="M253.455 435.56c-.785-15.427-13.25-30.66-24.075-30.66-6.73 0-10.8 4.107-13.38 5.81-2.055-1.402-6.625-5.81-13.42-5.81-12.78 0-23.905 18.66-24.106 31.135-1.124-13.426 9.18-33.576 24.176-33.576 7.8 0 11.95 3.75 13.35 5.3 1.4-1.55 5.55-5.3 13.35-5.3 14.882 0 25.175 19.075 24.105 33.1z" class="F"/><path d="M178.52 435.08c-.356 5.872 1.2 11.5 5.573 15.705-.522.163-1.024.383-1.508.56 1.116-.36 2.183-.614 3.416-.835-4.227-4.066-6.673-9.588-7.48-15.43zm-5.1 22.964c-6.796 12.263 16.716 31.7 42.57 31.7s49.66-19.642 42.488-31.893c4.768 11.205-17.952 30.018-42.488 30.018-24.4 0-46.984-18.6-42.57-29.816zm76.095-6.684L246 450.5c4.267-4.103 6.72-9.7 7.504-15.593.394 5.93-1.15 11.625-5.562 15.868.566.177 1.062.382 1.583.575z" class="G"/></g><path d="M203.984 414.863c7.744.9 13.324 10.438 12.5 18.84-.82 8.367-8.135 17.1-16.494 16.15-7.6-.865-12.513-9.31-12.675-16.408-.216-9.508 8.042-19.584 16.67-18.58z" class="I"/><path d="M213.387 435.97c1.106-5.697-1.974-11.088-6.88-12.04s-9.778 2.895-10.883 8.593 1.974 11.088 6.88 12.04 9.778-2.896 10.883-8.594z" fill="#29aa55" class="C D E"/><path d="M205.062 441.79c2.926 0 5.297-2.652 5.297-5.923s-2.37-5.923-5.297-5.923-5.297 2.65-5.297 5.923 2.372 5.923 5.297 5.923z" class="B"/><path d="M209.746 431.725c.373-1.052-.22-2.222-1.325-2.613s-2.3.146-2.674 1.198.22 2.223 1.326 2.613 2.3-.145 2.673-1.198z" class="C D E I"/><g class="B"><path d="M207.795 416.06c-10.22-2.795-18.724 9.312-18.515 18.4.123 5.363 2.968 11.5 7.635 14.583-5.82-2.44-9.46-9.517-9.6-15.6-.217-9.506 8.04-19.58 16.668-18.578a10.895 10.895 0 0 1 3.812 1.195z" class="O"/><path d="M209.183 424.987c-5.643-1.603-10.638 3.265-11.658 8.522-.837 4.318.704 8.46 3.618 10.668-4.094-1.6-6.512-6.497-5.513-11.645 1.106-5.7 5.98-9.544 10.884-8.592.946.184 1.85.54 2.67 1.047z" class="F"/></g><path d="M227.7 414.656c-7.727 1.034-13.14 10.668-12.17 19.054.965 8.35 8.432 16.955 16.774 15.857 7.573-.997 12.35-9.528 12.386-16.626.05-9.508-8.383-19.437-17-18.285z" class="I"/><path d="M229.688 444.345c4.888-1.037 7.874-6.48 6.67-12.158s-6.144-9.44-11.03-8.403-7.874 6.48-6.67 12.158 6.144 9.44 11.03 8.403z" fill="#29aa55" class="C D E"/><path d="M227.092 441.595c2.925-.05 5.25-2.744 5.193-6.014s-2.474-5.88-5.4-5.83-5.25 2.744-5.193 6.015 2.474 5.88 5.4 5.83z" class="B"/><use xlink:href="#M" class="C D E I"/><g class="B"><path d="M244.69 432.94c-.033 6.164-3.638 13.407-9.544 15.86 4.764-3.08 7.604-9.404 7.633-14.878.048-9.18-9.055-21.562-19.298-17.76 1.3-.78 2.715-1.307 4.22-1.508 8.608-1.152 17.04 8.776 17 18.284z" class="O"/><path d="M230.757 444.03c3.043-2.182 4.63-6.453 3.694-10.865-1.12-5.277-6.325-10.07-11.937-8.185.85-.58 1.808-.99 2.817-1.205 4.888-1.038 9.827 2.724 11.032 8.4 1.115 5.255-1.358 10.308-5.606 11.855z" class="F"/><path d="M205.252 449.66c0 3.818 4.942 8.45 10.813 8.4 5.41-.047 10.687-4.627 10.687-8.39 0-7.606-21.5-7.72-21.5-.01z" class="G"/></g><use xlink:href="#N" class="U"/><path d="M205.18 448.1c2.087 2.737 6.233 5.047 10.892 5.01 4.31-.034 8.546-2.356 10.705-5.078.08.243.124.5.124.74 0 3.762-5.35 8.342-10.837 8.39-5.952.05-10.963-4.582-10.963-8.4a2.788 2.788 0 0 1 .079-.661z" class="B Q"/><path d="M199.082 501.776c.497-1.724.098-2.668-.362-3.423 1.964-1.367-1.656-1.82-4.018-1.48s-4.834 1.56-2.778 2.17c-.795 2.733-.478 4.832.573 6.465 1.32 2.053 3.47 2.962 5.56 1.614 2.505-1.614 1.648-4.287 1.026-5.346z" class="C D I"/><path d="M197.976 507.16c-2.1 1.383-4.23.292-5.48-1.653-1.05-1.633-1.293-4.122-.623-6.465-1.85-.548.053-1.592 2.123-2.043-.922.478-1.21 1.048 0 1.407-1.836 3.048-.127 8.945 3.98 8.754z" class="B F"/><path d="M232.922 501.776c-.496-1.724-.098-2.668.362-3.423-1.964-1.367 1.656-1.82 4.018-1.48s4.834 1.56 2.778 2.17c.795 2.733.478 4.83-.572 6.465-1.32 2.053-3.47 2.962-5.56 1.614-2.505-1.614-1.647-4.287-1.026-5.346z" class="C D I"/><path d="M234.025 507.16c2.1 1.384 4.23.293 5.482-1.652 1.05-1.633 1.293-4.123.623-6.465 1.85-.548-.054-1.593-2.124-2.043.923.478 1.2 1.048.001 1.406 1.836 3.05.127 8.946-3.982 8.754z" class="B F"/><path d="M216.902 515.1c0-1.16.94-2.1 2.1-2.1h4.65c2.775 0 3.7 1.675 3.7 1.675h1.5c1.866 0 6.428 1.23 6.292 6.92-.02.842-.847 1.437-1.688 1.394-3.224-.165-9.805.043-13.627.19-1.596.062-2.927-1.214-2.927-2.81V515.1z" class="C D I"/><path d="M216.9 518.777v1.6c0 1.598 1.33 2.873 2.927 2.812 3.822-.147 10.403-.354 13.626-.19.84.043 1.67-.553 1.69-1.394.01-.45-.008-.872-.053-1.267-.196.66-.91 1.098-1.636 1.06-3.223-.165-9.804.042-13.626.19-1.597.06-2.927-1.214-2.927-2.81z" class="B G W"/><path d="M215.103 515.1c0-1.16-.94-2.1-2.1-2.1h-4.65c-2.775 0-3.7 1.675-3.7 1.675h-1.5c-1.866 0-6.428 1.23-6.292 6.92.02.842.847 1.437 1.688 1.394 3.224-.165 9.805.043 13.627.19 1.596.062 2.927-1.214 2.927-2.81V515.1z" class="C D I"/><g class="B G"><path d="M215.1 518.777v1.6c0 1.598-1.33 2.873-2.927 2.812-3.822-.147-10.403-.354-13.626-.19-.84.043-1.67-.553-1.69-1.394-.01-.45.008-.872.053-1.267.196.66.91 1.098 1.636 1.06 3.223-.165 9.804.042 13.626.19 1.597.06 2.927-1.214 2.927-2.81z" class="W"/><path d="M245.415 460.935c1.04.73 1.287 2.45.374 3.38-.197.2-.636.052-.582-.26.16-.902-.032-1.856-.3-2.72-.095-.297.24-.582.516-.396l.002-.002zm-59.167 7.05c-.883.915-.796 2.65.277 3.388.23.16.635-.07.52-.366-.327-.855-.322-1.83-.214-2.73.036-.3-.346-.525-.582-.3l-.002-.002z"/></g><path d="M242.9 460.6c1.135 1.195 1.27 3.208.343 4.562-.283.428-.915.105-.808-.373.108-.487.18-.987.178-1.487-9.86 1.512-19.755 2.78-29.664 3.904l-23.355 2.357c.073.542.236 1.07.44 1.574.173.446-.4.822-.745.48-1.134-1.185-1.322-3.195-.4-4.557.296-.426.863-.096.815.362-.078.395-.135.796-.153 1.198 7.616-1.306 15.502-2.185 23.22-3.086l29.748-3.2c-.082-.437-.22-.857-.37-1.275-.16-.445.42-.81.75-.47h0z" class="V"/><path d="M157.756 574.473c-2.538-.37-5.758-1.614-9.843-3.8-.593-.318-.833-1.093-.512-1.692s1.092-.833 1.692-.513c3.772 2.02 6.81 3.206 9.025 3.53 1.446.212 2.487.05 3.094-.482.68-.596.62-1.65.44-3.62-.208-2.306-.468-5.177.99-8.476 2.2-4.986 7.682-9.726 13.455-8.835 3.666.568 7.18 3.3 7.986 7.03.687 3.168-.3 7.508-3.676 8.72-2.24.8-4.796-.118-6.542-1.604-.522-.434-.598-1.25-.153-1.772s1.257-.582 1.774-.13c.02.018 2.183 1.833 4.074 1.153 2.142-.77 2.49-3.947 2.078-5.84-.587-2.71-3.28-4.678-5.925-5.088-4.642-.717-9.04 3.424-10.786 7.374-1.196 2.708-.978 5.116-.786 7.24.2 2.192.385 4.262-1.284 5.725-1.383 1.22-3.353 1.34-5.1 1.077z" class="C D E L"/><g class="B R"><path d="M183.333 558.216c.553 2.552.06 5.728-1.9 7.604 2.57-1.685 3.254-5.378 2.64-8.204-.806-3.72-4.32-6.462-7.986-7.03-3.313-.5-6.6.928-9.077 3.04 5.706-4.037 14.664-3.018 16.313 4.6zm-3.45 5.627c-1.352 1.572-3.78.763-5.145-.412-.157-.134-.345-.226-.547-.27a1.248 1.248 0 0 0-.61.02c.2-.365.582-.6.996-.644.33-.027.658.08.9.294 1.104.975 2.992 1.758 4.395 1.012zm-32.206 4.772c.175-.15.775-.45 1.15-.275l1.236.6c2.47 1.22 6.374 3.15 9.2 3.15 2.5 0 2.725-1.25 2.375-4.55l.153.625c.48 1.888 1.204 4.725-2.528 4.725-4.075 0-10.44-3.53-11.575-4.275z"/></g><path d="M123.35 567.29c1.825 0 3.283-1.63 3.102-3.42-.27-3.176.93-6.6 3.297-9.92 2.153-3.012 4.46-4.662 2.686-6.61s-5.778.196-7.77 2.975c-3.286 4.596-4.86 9.455-4.432 14.184.16 1.573 1.292 2.79 3.117 2.79z" class="C D E L"/><path d="M121.654 562.9c-.02-5.614 4.48-13.883 9.755-16.208-6.5-1.05-12.25 11.675-11.135 17.588.36-.588.985-1.163 1.38-1.38z" class="B F"/><path d="M141.97 582.266c.25-4.354 1.37-7.72 2.36-10.34s2.12-7.235-2.128-8.3c-6.075-1.524-9.416 12.706-9.665 17.047-.147 2.554 1.84 5.516 4.42 5.664 2.374.116 4.872-1.59 5.014-4.07z" class="C D E L"/><g class="B F"><path d="M132.473 580.666c2.575-.35 7.4-.35 9.425 1.7l.083-.752c-2.108-1.848-6.908-1.973-9.4-1.623-.013.165-.093.507-.107.675zm.8-4.476c2.388 2.215 5.444 3.457 8.9 3.925l.125-.85c-3.43-.444-6.4-1.88-8.8-4.05-.1.3-.18.764-.225.975z"/></g><path d="M146.03 582.266c-.25-4.354-1.37-7.72-2.36-10.34s-2.12-7.235 2.128-8.3c6.075-1.524 9.416 12.706 9.665 17.047.147 2.554-1.84 5.516-4.42 5.664-2.374.116-4.872-1.59-5.014-4.07z" class="C D E L"/><g class="B F"><path d="M155.526 580.666c-2.575-.35-7.4-.35-9.425 1.7l-.083-.752c2.108-1.848 6.908-1.973 9.4-1.623.013.165.093.507.107.675zm-.8-4.476c-2.388 2.215-5.444 3.457-8.9 3.925l-.125-.85c3.43-.444 6.4-1.88 8.8-4.05.1.3.18.764.225.975z"/></g><path d="M164.65 567.29c-1.825 0-3.283-1.63-3.102-3.42.27-3.176-.93-6.6-3.298-9.92-2.153-3.012-4.46-4.662-2.685-6.61s5.778.196 7.77 2.975c3.285 4.596 4.86 9.455 4.43 14.184-.16 1.573-1.29 2.79-3.116 2.79z" class="C D E L"/><path d="M166.347 562.9c.02-5.614-4.48-13.883-9.756-16.208 6.5-1.05 12.25 11.675 11.136 17.588-.36-.588-.986-1.163-1.38-1.38z" class="B F"/><path d="M200.66 501.548c5.555 5.1 3.316 15.464-.454 21.358-5.373 8.4-17.674 13.687-23.973 9.218-6.58-4.667-5.72-19.346 1.96-26.966 5.734-5.69 16.722-8.884 22.467-3.6z" class="C D E H"/><path d="M194.175 507.552c3.3 3.41 1.505 9.834-1.083 13.394-3.687 5.072-11.608 7.934-15.397 4.893-3.957-3.177-2.87-12.36 2.238-16.86 3.813-3.358 10.832-4.954 14.242-1.428z" class="M"/><path d="M200.204 522.905c-3.034 4.743-9.754 10.16-17.33 10.836 5.318-1.25 13-6.692 15.33-10.336 3.77-5.893 5.77-16.948.455-21.358-1.62-1.345-5.736-3.256-11.386-2.256 6.9-2.125 11.14-.306 13.386 1.756 5.553 5.1 3.314 15.465-.457 21.358z" class="B G"/><path d="M87.3412 501.548c-5.555 5.1-3.316 15.465.4545 21.358 5.373 8.4 17.6733 13.688 23.9733 9.22 6.58-4.668 5.72-19.346-1.96-26.966-5.734-5.69-16.7228-8.885-22.4678-3.61z" class="C D E H"/><path d="M93.827 507.552c-3.3 3.4-1.505 9.834 1.0825 13.394 3.6875 5.073 11.6086 7.935 15.3966 4.893 3.957-3.176 2.87-12.36-2.237-16.86-3.813-3.358-10.832-4.954-14.242-1.428z" class="M"/><path d="M87.7965 522.905c3.0345 4.743 9.755 10.16 17.3295 10.836-5.3176-1.25-13.0004-6.692-15.3315-10.336-3.7705-5.893-5.768-16.948-.4545-21.358 1.6204-1.345 5.7365-3.256 11.386-2.256-6.8995-2.125-11.14-.306-13.386 1.756-5.553 5.1-3.314 15.465.4565 21.358z" class="B G"/><path d="M144.003 537.34c7.7 0 11 6.75 13 12.3s2.9 11 2.9 14.6c0 7.6-6.934 15.273-15.9 15.35-8.777.076-15.9-7.75-15.9-15.35 0-3.6.885-9.075 2.9-14.6 2-5.55 5.3-12.3 13-12.3z" class="C D E L"/><path d="M144 579.59c-8.783.08-16.5-7.85-15.9-16.85.5 7.4 7.258 14.424 15.9 14.35s15.4-6.95 15.9-14.35c.6 9-7.116 16.77-15.9 16.85z" class="B F"/><path d="M144 543.54c5.2 0 8 3.4 8.7 6.4 1.725 7.39 3.2 13.7.2 17.5s-6.747 4.1-8.9 4.1c-2.377 0-5.9-.3-8.9-4.1s-1.622-9.692.2-17.5c.7-3 3.5-6.4 8.7-6.4z" class="C D E H"/><path d="M144 571.54c-6.8 0-11.2-4.7-10.65-10.8.2 5.75 4.8 9.5 10.65 9.5s10.45-3.75 10.65-9.5c.55 6.1-3.85 10.8-10.65 10.8z" class="B G"/><path d="M134.1 558.492c-.25 1.875-2.875 6.775-6 6.4.425 8.575 7.975 14.8 15.9 14.8s15.504-6.806 15.9-14.8c-3.125.375-5.75-4.525-6-6.4-3.49 4.07-16.322 4.057-19.8 0z" class="C D P"/><g class="B Q"><path d="M128.332 566.88c3.207 5.896 9.384 9.3 15.668 9.3 6.303 0 12.52-3.805 15.705-9.6-1.297 7.23-8.352 13.1-15.705 13.1-7.298 0-14.277-5.278-15.668-12.8zm22.018-6.3s2.225-.587 3.55-2.087c.106.725.4 1.15.4 1.15v2.792c0 .244-.107.477-.294.64l-1.1.95c-.336.292-.844.292-1.18 0l-1.1-.95c-.187-.163-.294-.396-.294-.64v-1.855z"/></g><g class="C D"><path d="M150.65 554.39l3.35-.6v8.315a.752.752 0 0 1-.25.559l-.925.828c-.285.255-.716.255-1 0l-.925-.828a.752.752 0 0 1-.25-.559v-7.715z" class="P"/><circle cx="152.325" cy="561.567" r=".975" fill="#ede72f"/></g><path d="M137.65 560.58s-2.225-.587-3.55-2.087c-.106.725-.4 1.15-.4 1.15v2.792c0 .244.107.477.294.64l1.09.95c.336.292.844.292 1.18 0l1.1-.95c.188-.163.295-.396.295-.64v-1.855z" class="B Q"/><g class="C D"><path d="M137.35 554.39l-3.35-.6v8.315a.751.751 0 0 0 .249.559l.925.828c.285.255.716.255 1 0l.925-.828a.752.752 0 0 0 .25-.559v-7.715z" class="P"/><path d="M134.7 561.567a.975.975 0 0 0 .975.975c.54 0 .975-.436.975-.975a.975.975 0 0 0-.975-.975.976.976 0 0 0-.975.975z" fill="#ede72f"/></g><path d="M163.75 550.84c-5.768 2.26-13.55 3.95-19.75 3.95s-12.967-1.32-19.75-3.95c-.362.527-.83 1.314-1.15 1.85 7.1 2.85 13.75 4.3 20.9 4.3s13.8-1.45 20.9-4.3c-.308-.535-.797-1.318-1.15-1.85z" class="B F"/><path d="M169.015 451.89c2.116-1.793-6.216-3.8-7.326-6.975-1.34-3.825 19.78 6.355 16.58 13.054-.25.526-2.772 4.7-20.88-1.188 19.908 6.46 34.983 20.156 34.912 45.51-.054 19.437-17.503 49.54-48.32 49.81-29.73.26-48.3322-29.81-48.2787-49.81.066-24.422 21.6067-49.547 48.2997-51.425 15.97-1.123 23.265 2.505 25.016 1.025z" class="C D L S"/><g class="B F"><path d="M172.256 453.008c-1.483 3.258-10.6-2-26.56-.877-32.673 2.297-56.347 38.56-43.23 67.954 3.407-3.52 7.557-4.52 8.88-4.958.397.43.88.884 1.053 1.1-4.068 1.268-8.796 4.02-10.832 7.842-3.813-7.38-5.8495-15.128-5.83-21.766.066-24.423 21.6-49.55 48.304-51.43 15.97-1.122 23.228 2.505 24.98 1.023 2.1-1.787-6.223-3.795-7.333-6.97-.428-1.223 1.44-1.014 4.078.056-1-.144-1.55.092-1.278.794.97 2.52 9.015 4.5 7.768 7.24zm19.97 49.286c-.018 6.387-1.906 13.926-5.527 21.18-3.748-5.132-10.462-7.182-11.148-7.182l1-1.225c1.175.275 6.43 1.395 9.364 5.3 2.965-6.608 4.326-12.758 4.342-18.543.073-26.212-17.68-39.242-32.868-45.05 19.908 6.46 34.908 20.16 34.837 45.512z"/></g><path d="M130.25 470.116c-14.85 0-33.2505 31.425-18.175 45.925-28.7755 9 0 38.95 31.925 38.95s60.7-29.95 31.925-38.95c15.075-14.5-3.325-45.925-18.175-45.925-6.325 0-9.776 2.925-13.75 5.825-3.975-2.9-7.425-5.825-13.75-5.825z" class="C D T"/><g class="B"><path d="M181.455 500.8c-.785-15.427-13.25-30.66-24.075-30.66-6.73 0-10.8 4.107-13.38 5.81-2.055-1.402-6.625-5.81-13.42-5.81-12.78 0-23.905 18.66-24.107 31.135-1.123-13.426 9.18-33.576 24.177-33.576 7.8 0 11.95 3.75 13.35 5.3 1.4-1.55 5.55-5.3 13.35-5.3 14.88 0 25.175 19.075 24.105 33.1z" class="F"/><path d="M106.518 500.3c-.356 5.872 1.2 11.5 5.573 15.706-.522.163-1.024.383-1.508.56 1.117-.36 2.183-.614 3.417-.834-4.228-4.066-6.674-9.6-7.482-15.43zm-5.088 22.974c-6.7957 12.263 16.716 31.692 42.57 31.692s49.658-19.643 42.487-31.893c4.768 11.205-17.952 30.018-42.487 30.018-24.4 0-46.9848-18.6-42.57-29.817zm76.095-6.684c-1.1-.32-2.23-.62-3.525-.85 4.266-4.104 6.718-9.7 7.503-15.593.394 5.93-1.15 11.624-5.562 15.868.566.177 1.062.382 1.584.575z" class="G"/></g><path d="M131.983 480.094c7.744.9 13.324 10.437 12.5 18.838-.82 8.367-8.135 17.1-16.494 16.15-7.6-.865-12.513-9.31-12.675-16.408-.216-9.508 8.042-19.583 16.67-18.58z" class="I"/><path d="M141.386 501.202c1.105-5.697-1.975-11.088-6.88-12.04s-9.777 2.895-10.883 8.593 1.975 11.088 6.88 12.04 9.777-2.896 10.883-8.594z" class="C D E P"/><path d="M133.06 507.02c2.925 0 5.297-2.652 5.297-5.923s-2.372-5.923-5.297-5.923-5.297 2.652-5.297 5.923 2.37 5.923 5.297 5.923z" class="B"/><path d="M137.745 496.957c.373-1.053-.22-2.223-1.325-2.614s-2.3.146-2.673 1.198.22 2.223 1.325 2.614 2.3-.146 2.673-1.198z" class="C D E I"/><g class="B"><path d="M135.794 481.3c-10.22-2.795-18.724 9.313-18.516 18.4.124 5.362 2.968 11.49 7.635 14.582-5.82-2.44-9.46-9.516-9.6-15.6-.216-9.505 8.04-19.58 16.668-18.577 1.334.16 2.627.564 3.813 1.194z" class="O"/><path d="M137.18 490.218c-5.642-1.604-10.637 3.265-11.657 8.522-.838 4.317.703 8.46 3.617 10.667-4.094-1.6-6.51-6.496-5.512-11.644 1.106-5.7 5.98-9.545 10.884-8.593.946.184 1.85.54 2.668 1.048z" class="F"/></g><path d="M155.7 479.887c-7.727 1.034-13.14 10.668-12.17 19.054.965 8.35 8.432 16.955 16.774 15.856 7.573-.997 12.35-9.527 12.386-16.626.05-9.508-8.383-19.436-17-18.284z" class="I"/><path d="M157.687 509.576c4.888-1.037 7.874-6.48 6.67-12.158s-6.144-9.44-11.03-8.402-7.874 6.48-6.67 12.158 6.144 9.44 11.03 8.402z" class="C D E P"/><path d="M155.093 506.827c2.925-.05 5.25-2.744 5.193-6.015s-2.475-5.88-5.4-5.83-5.25 2.744-5.193 6.015 2.475 5.88 5.4 5.83z" class="B"/><path d="M158.418 498.16c1.098-.4 1.67-1.6 1.28-2.636s-1.598-1.56-2.695-1.15-1.67 1.6-1.28 2.636 1.597 1.56 2.694 1.15z" class="C D E I"/><g class="B"><path d="M172.688 498.17c-.033 6.164-3.637 13.407-9.544 15.86 4.765-3.08 7.604-9.404 7.633-14.878.05-9.18-9.054-21.562-19.297-17.76 1.3-.78 2.714-1.307 4.218-1.508 8.61-1.152 17.04 8.776 17 18.284z" class="O"/><path d="M158.755 509.26c3.043-2.182 4.63-6.453 3.693-10.865-1.12-5.277-6.324-10.07-11.937-8.185a7.904 7.904 0 0 1 2.817-1.205c4.888-1.038 9.827 2.724 11.033 8.4 1.115 5.255-1.358 10.308-5.606 11.855z" class="F"/><path d="M133.25 514.9c0 3.818 4.943 8.45 10.813 8.4 5.41-.047 10.687-4.627 10.687-8.39 0-7.606-21.5-7.72-21.5-.01z" class="G"/></g><path d="M133.103 513.99c0 3.818 5.01 8.45 10.963 8.4 5.487-.047 10.837-4.627 10.837-8.39 0-3.026-6.312-5.688-10.837-5.65-4.2.04-10.963 2.058-10.963 5.64z" class="U"/><path d="M133.18 513.33c2.087 2.737 6.233 5.047 10.892 5.01 4.31-.035 8.546-2.356 10.705-5.078.08.243.124.5.124.74 0 3.762-5.35 8.342-10.837 8.39-5.952.05-10.963-4.582-10.963-8.4a2.788 2.788 0 0 1 .079-.661z" class="B Q"/><path d="M139.5 587.74c1.6 0 3.154-1.18 3.335-2.807.455-4.11-4.718-4.484-7.533-4.546-2.856-.063-7.702.478-8.552 3.613-.742 2.74 1.825 3.74 3.65 3.74s2.45-.608 4.65-.608c1.92 0 2.85.608 4.45.608z" class="C D E H"/><path d="M139.45 586.64c-1.6 0-2.53-.608-4.45-.608-2.2 0-2.825.608-4.65.608-1.42 0-3.287-.605-3.698-2.163-.336 2.38 2.033 3.263 3.748 3.263 1.825 0 2.45-.608 4.65-.608 1.92 0 2.85.608 4.45.608 2.143 0 3.65-1.708 3.296-4.013-.15 1.673-1.702 2.913-3.346 2.913z" class="B G"/><path d="M148.5 587.74c-1.6 0-3.154-1.18-3.335-2.807-.455-4.11 4.718-4.484 7.534-4.546 2.855-.063 7.7.478 8.55 3.613.742 2.74-1.825 3.74-3.65 3.74s-2.45-.608-4.65-.608c-1.92 0-2.85.608-4.45.608z" class="C D E H"/><path d="M148.55 586.64c1.6 0 2.53-.608 4.45-.608 2.2 0 2.824.608 4.65.608 1.42 0 3.288-.605 3.7-2.163.336 2.38-2.034 3.263-3.75 3.263-1.825 0-2.45-.608-4.65-.608-1.92 0-2.85.608-4.45.608-2.143 0-3.65-1.708-3.295-4.013.148 1.673 1.7 2.913 3.345 2.913z" class="B G"/><path d="M124.07 572.935c2.84.003 4.65-3.405 2.93-5.763.796-2.26-.904-4.77-3.333-4.828-2.8-.066-4.418 2.926-4.125 5.457.274 2.366 1.877 5.132 4.53 5.134z" class="C D E H"/><path d="M119.54 567.8c.34 2.928 2.718 6.34 6.268 4.7-3.44-.44-5.85-6.276-4.155-9.592-.27.19-.695.416-1.38 1.38-.615 1.086-.885 2.3-.733 3.522z" class="B G"/><path d="M163.93 572.935c-2.84.003-4.65-3.405-2.93-5.763-.796-2.26.904-4.77 3.333-4.828 2.8-.066 4.418 2.926 4.125 5.457-.274 2.366-1.877 5.132-4.53 5.134z" class="C D E H"/><g class="B G"><path d="M168.46 567.8c-.34 2.928-2.72 6.34-6.27 4.7 3.442-.44 5.85-6.276 4.156-9.592.27.2.694.416 1.38 1.38.614 1.086.885 2.3.733 3.522zm3.2-41.623c1.26.197 2.236 1.632 1.826 2.868-.1.286-.56.317-.636.023-.222-.854-.785-1.675-1.495-2.328-.227-.208 0-.605.305-.563h0zm-55.343 0c-1.258.197-2.235 1.632-1.826 2.868.102.286.56.317.637.023.222-.854.784-1.675 1.494-2.328.227-.208.001-.605-.305-.563h0z"/></g><path d="M169.93 528.666c-3.925 2.375-14.025 7-25.925 6.95s-22-4.575-25.936-6.95c.36-.425.775-.7 1.125-.925.358-.23.15-.85-.35-.825s-1.6.45-2.225 1.5-.475 2.05-.35 2.525.975.6 1.025 0c.02-.224.075-1.2.3-1.425 1.186.675 11.41 7.7 26.41 7.7s25.225-7.025 26.4-7.7c.225.225.28 1.2.3 1.425.05.6.9.475 1.025 0s.284-1.475-.35-2.525-1.725-1.475-2.225-1.5-.708.595-.35.825c.35.225.725.4 1.125.925z" class="V"/><path d="M192.13 498.692c-.093-.008-.18-.04-.256-.095a.502.502 0 0 1-.169-.215c-10.903-25.5-48.74-28.788-72.66-25.366-6.55.936-12.053 2.376-15.678 4-.05.022-.103.037-.158.043 2.417-3.98 5.307-7.653 8.608-10.937 18.974-3.405 52.226-5.865 74.314 11.73 3.405 5.75 5.536 12.64 5.998 20.84z" class="B F"/><g class="C D E"><path d="M174.7 421.992c.01 1.018-.196 2.027-.606 2.96s-1.012 1.768-1.77 2.45c-1.917-1.85-3.825-2.98-5.655-3.188-1.29-.146-3.233.2-5.65 1.004-.473-.972-.722-2.038-.728-3.12s.23-2.15.695-3.126 1.14-1.836 1.98-2.516 1.824-1.16 2.876-1.41a7.21 7.21 0 0 1 3.202-.024c1.055.232 2.045.7 2.896 1.366s1.54 1.517 2.018 2.486.73 2.035.74 3.116z" fill="#f2f2f2"/><path d="M104.46 475.465c-.405.184-.845-.228-.688-.644 10.033-26.326 53.534-51.666 62.89-50.607 13.207 1.495 30.48 51.083 26.036 72.522-.1.49-.774.556-.97.095-13.72-32.48-70.606-28.925-87.268-21.366z" class="P"/><g fill="#f2f2f2"><use xlink:href="#O"/><use xlink:href="#P"/><use xlink:href="#O"/><use xlink:href="#P"/></g></g><g class="B G"><path d="M174.69 421.99a7.183 7.183 0 0 1-.606 2.961 7.171 7.171 0 0 1-1.769 2.449c-1.1-1.06-2.197-1.886-3.278-2.435.523-.8.878-1.716 1.045-2.666a7.198 7.198 0 0 0-.075-2.861c-.217-.94-.62-1.826-1.184-2.607s-1.28-1.44-2.105-1.94l.706-.04c1.9-.017 3.75.726 5.112 2.065s2.138 3.165 2.154 5.075z"/><path d="M178.18 480.863c5.9 3.936 10.672 9.16 13.548 15.968.195.46.87.396.97-.095 4.443-21.44-12.83-71.027-26.036-72.522-.838-.095-1.95.022-3.286.332 14.805 6.596 15.227 43.318 14.805 56.317z"/></g><path d="M292 439v-50H0v50h292z" fill="url(#A)" fill-opacity=".75"/><path d="M292 85v50H0V85h292z" fill="url(#B)" fill-opacity=".75"/><path d="M0 140c0-6.627 5.3726-12 12-12h268c6.627 0 12 5.373 12 12v244c0 6.627-5.373 12-12 12H12c-6.6274 0-12-5.373-12-12V140z" class="B"/><path d="M0 152h292v-12c0-6.627-5.373-12-12-12H12c-6.6274 0-12 5.373-12 12v12z" fill="#404040"/><rect x="24" y="172" width="180" height="12" rx="6" class="L"/><rect x="216" y="172" width="20" height="12" rx="6" class="N"/><rect x="44" y="196" width="30" height="12" rx="6" class="J"/><rect x="86" y="196" width="50" height="12" rx="6" class="K"/><rect x="64" y="220" width="30" height="12" rx="6" class="L"/><rect x="104" y="220" width="100" height="12" rx="6" class="J"/><rect x="64" y="244" width="40" height="12" rx="6" class="L"/><rect x="116" y="244" width="30" height="12" rx="6" class="K"/><rect x="84" y="268" width="40" height="12" rx="6" class="J"/><rect x="136" y="268" width="60" height="12" rx="6" class="K"/><rect x="208" y="268" width="60" height="12" rx="6" class="L"/><g class="N"><rect x="64" y="292" width="20" height="12" rx="6"/><rect x="158" y="244" width="20" height="12" rx="6"/></g><rect x="64" y="316" width="40" height="12" rx="6" class="L"/><rect x="116" y="316" width="30" height="12" rx="6" class="K"/><rect x="158" y="316" width="60" height="12" rx="6" class="J"/><rect x="230" y="316" width="30" height="12" rx="6" class="K"/><rect x="44" y="340" width="50" height="12" rx="6" class="J"/><rect x="24" y="364" width="20" height="12" rx="6" class="N"/><circle cx="15" cy="140" r="5" class="L"/><circle cx="30" cy="140" r="5" class="K"/><circle cx="45" cy="140" r="5" class="J"/></g><defs><linearGradient id="A" x1="146" y1="401.917" x2="146" y2="436.5" gradientUnits="userSpaceOnUse"><stop stop-color="#fff"/><stop offset="1" stop-color="#fff" stop-opacity="0"/></linearGradient><linearGradient id="B" x1="146" y1="122.083" x2="146" y2="88.5" gradientUnits="userSpaceOnUse"><stop stop-color="#fff"/><stop offset="1" stop-color="#fff" stop-opacity="0"/></linearGradient><clipPath id="C"><path d="M0 0h292v589H0z" class="I"/></clipPath><path id="D" d="M65.2753 518.1c2.388 2.214 5.444 3.456 8.9 3.925l.125-.85c-3.43-.444-6.4-1.88-8.8-4.05-.1.3-.18.763-.225.975z"/><path id="E" d="M86.727 518.1c-2.388 2.214-5.444 3.456-8.9 3.925l-.125-.85c3.43-.444 6.4-1.88 8.8-4.05.1.3.18.763.225.975z"/><path id="F" d="M76.0005 513.45c-6.8 0-11.2-4.7-10.65-10.8.2 5.75 4.8 9.5 10.65 9.5s10.45-3.75 10.65-9.5c.55 6.1-3.85 10.8-10.65 10.8z"/><path id="G" d="M213.97 517.035c.25-4.354 1.37-7.72 2.36-10.34s2.12-7.235-2.128-8.3c-6.075-1.524-9.416 12.706-9.665 17.047-.147 2.554 1.84 5.516 4.42 5.664 2.374.116 4.872-1.59 5.014-4.07z"/><path id="H" d="M204.474 515.435c2.575-.35 7.4-.35 9.425 1.7l.083-.752c-2.108-1.848-6.908-1.973-9.4-1.623-.013.165-.093.507-.107.675z"/><path id="I" d="M218.032 517.035c-.25-4.354-1.37-7.72-2.36-10.34s-2.12-7.235 2.128-8.3c6.075-1.524 9.416 12.706 9.665 17.047.147 2.554-1.84 5.516-4.42 5.664-2.374.116-4.872-1.59-5.014-4.07z"/><path id="J" d="M227.528 515.435c-2.575-.35-7.4-.35-9.425 1.7l-.083-.752c2.108-1.848 6.908-1.973 9.4-1.623.013.165.093.507.107.675z"/><path id="K" d="M216 514.36c-8.783.08-16.5-7.85-15.9-16.85.5 7.4 7.258 14.424 15.9 14.35s15.4-6.95 15.9-14.35c.6 9-7.116 16.77-15.9 16.85z"/><path id="L" d="M216 478.31c5.2 0 8 3.4 8.7 6.4 1.725 7.39 3.2 13.7.2 17.5s-6.747 4.1-8.9 4.1c-2.377 0-5.9-.3-8.9-4.1s-1.622-9.692.2-17.5c.7-3 3.5-6.4 8.7-6.4z"/><path id="M" d="M230.417 432.93c1.098-.4 1.67-1.6 1.28-2.636s-1.598-1.56-2.695-1.15-1.67 1.6-1.28 2.636 1.597 1.56 2.694 1.15z"/><path id="N" d="M205.1 448.76c0 3.818 5.01 8.45 10.963 8.4 5.487-.047 10.837-4.627 10.837-8.39 0-3.026-6.312-5.688-10.837-5.65-4.2.04-10.963 2.058-10.963 5.64z"/><path id="O" d="M191.727 496.83c-13.72-32.48-70.606-28.923-87.268-21.363-.405.184-.846-.23-.688-.645 2.185-5.732 5.956-11.417 10.616-16.794 20.284-4.82 62.766-2.717 78.267 21.3 1.226 7.968 1.15 12.063.042 17.41-.102.488-.774.554-.97.09z"/><path id="P" d="M187.204 455.642c-14.918-11.36-38.37-14.396-55.917-13.292 7.287-5.608 14.82-10.28 21.18-13.48 8.54.83 17.6 2.69 25.485 5.92 3.34 5.61 6.615 12.953 9.253 20.853z"/></defs></svg>