<svg xmlns="http://www.w3.org/2000/svg" width="292" height="589" fill="none" xmlns:v="https://vecta.io/nano"><g clip-path="url(#C)"><g fill="#959595"><rect x="155" y="2" width="143" height="20" rx="10" transform="rotate(90 155 2)"/><rect x="77" y="23" width="122" height="20" rx="10" transform="rotate(90 77 23)"/><rect x="233" y="23" width="122" height="20" rx="10" transform="rotate(90 233 23)"/></g><g fill-rule="evenodd"><path d="M94.72 381.137c4.2793-6.18-.252-15.137-7.9395-15.137-6.5833 0-11.266 6.788-9.0932 12.89-22.6136.47-35.1847 15.023-39.6912 25.198-7.516 0-12.4105 17.478-4.5024 17.82-3.1377 5.964-5.1273 12.402-5.6662 18.87-21.6277-1.232-9.8482 34.16 5.558 34.16 3.938 8.97 13.835 14.813 22.6043 18.172-2.3164 3.593-8.9 21.728.0603 21.735 7.4293 0-.5707-8.494 5.3337-18.056-1.8 7.3-1.9217 15.185 4.0165 20.56-.4077 1.672-.6552 3.393-.928 5.092-5.9928-.59-8.8383 7.233-2.042 7.2 1.763-.01 2.4032-.59 4.512-.607 2.1835-.008 10.537 1.808 7.0118-4.95.2194-3.647 3.8403-3.53 4.0527 0-3.2295 3.277 1.4208 5.97 4.4867 5.275.9373-.213 1.8864-.353 2.849-.317 1.874.07 2.532.6 4.2375.6 6.8634 0 2.466-6.63-2.0923-7.21-.4377-2.724-1.3927-4.414.4176-6.444 2.4396.657 5.65 1.004 7.42-1.2 4.364.74 6.1414-5.37 4.4298-8.516.2014-2.433-.12-4.792-.8698-7.124 2.1914-2.67 5.4344-4.712 8.8054-4.19 2.646.4 5.338 2.377 5.925 5.088.908 4.183-2.37 7.854-6.152 4.687-1.225-1.07-2.872.863-1.62 1.902 5.41 4.604 11.56-.932 10.218-7.117-.806-3.72-4.32-6.462-7.986-7.03-3.813-.59-7.5 1.28-10.196 4.053-.5437-1.202-1.201-2.33-1.9143-3.436 8.7214-3.34 18.6684-9.24 22.6114-18.175 14.402 1.413 27.764-35.342 5.617-34.165-.2-3.926-.804-7.553-1.737-10.9 9.023-3.022 5.523-17.877-1.533-17.877-3.655-15-11.19-26.25-26.204-30.86zM93.1343 513.47c-.8682.82-2.5483.55-3.582.346 3.334-5.273 2.4455-11.27 1.018-17.025 5.9093 9.06-.6116 12.647 2.564 16.68z" fill="#5fa9df"/><path d="M233.837 379.097c2.36-1.123 19.255 7.75 16.368 13.792-.25.523-2.747 4.66-20.612-1.1 18.87 6.197 33.322 18.933 34.558 41.995 21.285-.783 10.285 32.717-5.616 34.164-3.948 8.942-13.888 14.833-22.613 18.174.714 1.107 1.37 2.232 1.915 3.434 2.697-2.772 6.382-4.64 10.194-4.05 3.668.568 7.182 3.3 7.99 7.03 1.373 6.334-4.56 11.935-10.22 7.116-1.194-.992.257-2.87 1.522-1.98 3.598 2.47 7.187-.297 6.252-4.608-.588-2.71-3.28-4.68-5.926-5.088-3.37-.52-6.61 1.52-8.802 4.187.48 1.49 2.195 6.74 1.22 7.03.88 3.075-.206 9.66-4.828 8.668-1.79 2.146-4.955 1.797-7.377 1.145-1.424 1.995-.924 3.995-.523 5.83 4.265 0 7.86 2.046 7.743 6.92-.02.84-.847 1.437-1.688 1.394-3.223-.165-9.805.042-13.627.19-1.596.06-2.928-1.214-2.928-2.812 0-6.716-1.798-7.052-1.798 0 0 1.598-1.33 2.873-2.927 2.812-3.822-.147-10.403-.354-13.627-.19-1.514.077-1.773-1.45-1.637-2.662l.001.004c.474-4.243 3.982-5.656 7.687-5.656.126-1.17.4-2.754.822-4.48-5.936-5.373-5.826-13.272-4.02-20.558-2.556 4.014-1.213 8.28-2.32 12.128 2.714 4.625-3.718 8.192-6.588 3.73-3.506-5.452.49-14.843 3.518-19.537-8.787-3.365-18.665-9.197-22.607-18.172-14.905-.948-27.405-34.948-5.556-34.162 2.04-24.482 23.644-46.237 48.194-48.004 15.97-1.123 23.228 2.505 24.98 1.023s-8.39-7.108-7.12-7.708zm-.82 127.44c-.7.51-1.896.604-3.51.286 3.465-5.48 2.486-11.103 1.018-17.023 4.555 5.2 0 13.7 2.493 16.737z" fill="#fbdd11"/><path d="M172.544 427.543l-.015-.014c15.768 15.2 25.2 52.963 19.913 71.497 21.842-1.06 10.288 32.966-5.618 34.14-3.028 6.9-11.658 13.984-22.6 18.178.71 1.103 1.374 2.24 1.915 3.436 2.697-2.773 6.383-4.64 10.195-4.052 3.667.568 7.18 3.3 7.987 7.03l.004.018c1.35 6.287-4.556 11.923-10.223 7.1-1.23-1.023.348-2.94 1.59-1.93 3.8 3.053 7.134-.284 6.185-4.66-.588-2.71-3.28-4.678-5.926-5.088-3.37-.52-6.613 1.52-8.804 4.2.75 2.33 1.07 4.692.87 7.127 1.71 3.148-.067 9.254-4.432 8.514-1.77 2.202-4.98 1.856-7.42 1.2-1.812 2.03-.858 3.718-.42 6.443 5.994 0 8.65 7.21 2.09 7.21-1.825 0-2.45-.607-4.65-.607-2.3 0-9.948 2.717-6.925-4.95-.212-3.53-3.832-3.65-4.05-.001 3.528 7.168-4.63 4.95-6.924 4.95-2.2 0-2.824.607-4.65.607-6.95 0-3.9-7.21 2.1-7.2.274-1.704.518-3.41.93-5.093-5.937-5.374-5.825-13.262-4.016-20.56-4.402 5.972 1.14 18.062-5.334 18.057-8.96-.008-2.374-18.144-.06-21.734-10.95-4.195-19.58-11.277-22.608-18.178-15.8995-1.173-27.4286-35.276-5.557-34.136 2.752-33.222 35.276-63.852 65.166-73.67-2.513-5.156 2.253-11.464 8.025-10.194 5.454 1.2 7.55 8.53 3.28 12.378zm-13.726 127.48c1.465 5.904 2.44 11.556-1.017 17.024 1.115.22 2.675.506 3.58-.346-3.43-4.355 2.833-8.756-2.563-16.678z" fill="#f66"/></g><path d="M292 439v-50H0v50h292z" fill="url(#A)" fill-opacity=".75"/><path d="M292 85v50H0V85h292z" fill="url(#B)" fill-opacity=".75"/><path d="M0 140c0-6.627 5.3726-12 12-12h268c6.627 0 12 5.373 12 12v244c0 6.627-5.373 12-12 12H12c-6.6274 0-12-5.373-12-12V140z" fill="#000"/><path d="M0 152h292v-12c0-6.627-5.373-12-12-12H12c-6.6274 0-12 5.373-12 12v12z" fill="#404040"/><rect x="24" y="172" width="212" height="12" rx="6" fill="#f66"/><rect x="44" y="196" width="92" height="12" rx="6" fill="#fbdd11"/><rect x="64" y="220" width="140" height="12" rx="6" fill="#5fa9df"/><rect x="64" y="244" width="114" height="12" rx="6" fill="#f66"/><rect x="84" y="268" width="184" height="12" rx="6" fill="#fbdd11"/><rect x="64" y="292" width="20" height="12" rx="6" fill="#999"/><g fill="#5fa9df"><rect x="64" y="316" width="196" height="12" rx="6"/><rect x="44" y="340" width="50" height="12" rx="6"/></g><rect x="24" y="364" width="20" height="12" rx="6" fill="#999"/><circle cx="15" cy="140" r="5" fill="#f66"/><circle cx="30" cy="140" r="5" fill="#fbdd11"/><circle cx="45" cy="140" r="5" fill="#5fa9df"/></g><defs><linearGradient id="A" x1="146" y1="401.917" x2="146" y2="436.5" gradientUnits="userSpaceOnUse"><stop stop-color="#fff"/><stop offset="1" stop-color="#fff" stop-opacity="0"/></linearGradient><linearGradient id="B" x1="146" y1="122.083" x2="146" y2="88.5" gradientUnits="userSpaceOnUse"><stop stop-color="#fff"/><stop offset="1" stop-color="#fff" stop-opacity="0"/></linearGradient><clipPath id="C"><path fill="#fff" d="M0 0h292v589H0z"/></clipPath></defs></svg>