<svg xmlns="http://www.w3.org/2000/svg" width="780" height="268" fill="none" xmlns:v="https://vecta.io/nano"><g fill-rule="evenodd"><path d="M597.74 26.286c4.28-6.1807-.252-15.1367-7.94-15.1367-6.583 0-11.266 6.7883-9.093 12.8886-22.614.4697-35.185 15.023-39.69 25.1986-7.516 0-12.41 17.4778-4.503 17.8204-3.137 5.9646-5.127 12.4023-5.666 18.869-21.628-1.2316-9.848 34.161 5.558 34.162 3.938 8.968 13.835 14.813 22.605 18.172-2.317 3.592-8.902 21.727.06 21.735 7.43 0-.57-8.495 5.334-18.057-1.81 7.3-1.922 15.185 4.016 20.56-.408 1.673-.655 3.394-.928 5.092-5.993-.59-8.838 7.233-2.042 7.21 1.763-.01 2.403-.59 4.512-.607 2.184-.008 10.537 1.807 7.012-4.95.22-3.647 3.84-3.53 4.052 0-3.23 3.278 1.42 5.97 4.487 5.275.938-.212 1.887-.353 2.85-.317 1.874.07 2.532.6 4.238.6 6.863 0 2.466-6.628-2.092-7.21-.438-2.723-1.393-4.414.417-6.443 2.44.657 5.65 1.003 7.42-1.2 4.364.74 6.14-5.37 4.43-8.515.2-2.433-.12-4.792-.87-7.125 2.192-2.67 5.434-4.71 8.805-4.19 2.646.4 5.338 2.377 5.926 5.09.908 4.183-2.37 7.854-6.152 4.686-1.225-1.07-2.873.864-1.622 1.903 5.4 4.604 11.56-.933 10.22-7.118-.807-3.72-4.32-6.46-7.987-7.03-3.813-.59-7.5 1.28-10.196 4.052-.543-1.202-1.2-2.33-1.914-3.436 8.72-3.34 18.668-9.24 22.612-18.175C636 121.5 649.36 84.7457 627.215 85.9227c-.21-3.9265-.804-7.5536-1.738-10.9C634.5 72 631 57.1457 623.945 57.1457c-3.656-15.01-11.19-26.25-26.204-30.8596zm-1.586 132.332c-.868.82-2.548.55-3.582.346 3.334-5.273 2.445-11.27 1.018-17.025 5.91 9.06-.612 12.648 2.564 16.68z" fill="#5fa9df"/><path d="M736.9 24.097c2.36-1.123 19.255 7.7505 16.368 13.792-.25.523-2.747 4.6586-20.612-1.1015 18.87 6.1974 33.322 18.9332 34.558 41.995C788.5 78 777.5 111.5 761.6 112.947c-3.948 8.942-13.888 14.833-22.613 18.174.714 1.107 1.37 2.232 1.915 3.434 2.697-2.772 6.382-4.64 10.194-4.05 3.668.568 7.182 3.3 7.99 7.03 1.373 6.334-4.56 11.935-10.22 7.116-1.194-.992.257-2.87 1.522-1.98 3.598 2.47 7.187-.297 6.25-4.608-.587-2.71-3.28-4.68-5.925-5.088-3.37-.52-6.61 1.52-8.802 4.187.48 1.49 2.195 6.74 1.22 7.03.88 3.075-.206 9.66-4.828 8.668-1.79 2.146-4.955 1.797-7.377 1.145C729.5 156 730 158 730.4 159.835c4.265 0 7.86 2.046 7.743 6.92-.02.84-.847 1.437-1.688 1.394-3.223-.165-9.805.042-13.627.19-1.596.06-2.928-1.214-2.928-2.812 0-6.716-1.798-7.052-1.798 0 0 1.598-1.33 2.873-2.927 2.812-3.822-.147-10.403-.354-13.627-.19-1.514.077-1.773-1.45-1.637-2.662l.001.004c.474-4.243 3.98-5.656 7.687-5.656.126-1.17.4-2.754.822-4.48-5.936-5.373-5.827-13.272-4.02-20.558-2.556 4.014-1.213 8.28-2.32 12.128 2.714 4.625-3.718 8.192-6.588 3.73-3.506-5.452.49-14.843 3.518-19.537-8.787-3.365-18.665-9.197-22.607-18.172C661.5 112 649 78 670.85 78.786c2.04-24.4824 23.644-46.2366 48.194-48.0045 15.97-1.1225 23.228 2.505 24.98 1.023s-8.39-7.1073-7.12-7.7075zm-.82 127.44c-.7.51-1.896.604-3.51.286 3.465-5.48 2.486-11.103 1.018-17.023 4.555 5.2 0 13.7 2.493 16.737z" fill="#fbdd11"/><path d="M666.314 101.55l-.015-.014c15.768 15.2 25.2 52.963 19.913 71.497 21.842-1.06 10.288 32.966-5.618 34.14-3.028 6.9-11.658 13.984-22.6 18.18.71 1.102 1.374 2.24 1.915 3.435 2.697-2.772 6.383-4.64 10.195-4.05 3.667.567 7.18 3.31 7.987 7.03l.004.018c1.35 6.287-4.556 11.923-10.223 7.1-1.23-1.023.348-2.94 1.59-1.93 3.8 3.053 7.134-.284 6.185-4.658-.588-2.712-3.28-4.68-5.926-5.09-3.37-.52-6.613 1.52-8.804 4.2.75 2.33 1.07 4.693.87 7.128 1.71 3.147-.066 9.253-4.432 8.514-1.77 2.202-4.98 1.856-7.42 1.2-1.812 2.03-.858 3.72-.42 6.444 5.994 0 8.65 7.2 2.09 7.2-1.825 0-2.45-.607-4.65-.607-2.3 0-9.948 2.717-6.925-4.95-.212-3.53-3.832-3.65-4.05-.001 3.528 7.168-4.63 4.95-6.924 4.95-2.2 0-2.824.607-4.65.607-6.95 0-3.9-7.2 2.1-7.2.274-1.704.518-3.41.93-5.093-5.937-5.374-5.825-13.262-4.016-20.56-4.402 5.972 1.14 18.062-5.334 18.057-8.96-.007-2.374-18.144-.06-21.734-10.95-4.194-19.58-11.277-22.608-18.178-15.9-1.173-27.43-35.275-5.557-34.135 2.752-33.223 35.276-63.853 65.166-73.671-2.513-5.1554 2.253-11.4636 8.025-10.1934 5.454 1.2003 7.55 8.5304 3.28 12.3775zm-13.726 127.48c1.465 5.904 2.44 11.556-1.017 17.024 1.115.22 2.675.506 3.58-.345-3.43-4.355 2.833-8.757-2.563-16.68z" fill="#f66"/></g><g fill="#959595"><rect x="57" y="47" width="196" height="27" rx="13.5"/><rect x="57" y="195" width="196" height="27" rx="13.5"/><rect x="3" y="122" width="250" height="27" rx="13.5"/></g><path transform="matrix(-1 0 0 1 579 0)" fill="url(#A)" fill-opacity=".75" d="M0 0h50v268H0z"/><path fill="url(#B)" fill-opacity=".75" d="M201 0h50v268h-50z"/><path d="M244 12c0-6.6274 5.373-12 12-12h268c6.627 0 12 5.3726 12 12v244c0 6.627-5.373 12-12 12H256c-6.627 0-12-5.373-12-12V12z" fill="#000"/><path d="M244 24h292V12c0-6.6274-5.373-12-12-12H256c-6.627 0-12 5.3726-12 12v12z" fill="#404040"/><rect x="268" y="44" width="212" height="12" rx="6" fill="#f66"/><rect x="288" y="68" width="92" height="12" rx="6" fill="#fbdd11"/><rect x="308" y="92" width="140" height="12" rx="6" fill="#5fa9df"/><rect x="308" y="116" width="114" height="12" rx="6" fill="#f66"/><rect x="328" y="140" width="184" height="12" rx="6" fill="#fbdd11"/><rect x="308" y="164" width="20" height="12" rx="6" fill="#999"/><g fill="#5fa9df"><rect x="308" y="188" width="196" height="12" rx="6"/><rect x="288" y="212" width="50" height="12" rx="6"/></g><rect x="268" y="236" width="20" height="12" rx="6" fill="#999"/><circle cx="259" cy="12" r="5" fill="#f66"/><circle cx="274" cy="12" r="5" fill="#fbdd11"/><circle cx="289" cy="12" r="5" fill="#5fa9df"/><defs><linearGradient id="A" x1="37.0833" y1="134" x2="2.5" y2="134" gradientUnits="userSpaceOnUse"><stop stop-color="#fff"/><stop offset="1" stop-color="#fff" stop-opacity="0"/></linearGradient><linearGradient id="B" x1="238.083" y1="134" x2="204.5" y2="134" gradientUnits="userSpaceOnUse"><stop stop-color="#fff"/><stop offset="1" stop-color="#fff" stop-opacity="0"/></linearGradient></defs></svg>