<svg xmlns="http://www.w3.org/2000/svg" width="190" height="360" fill="none" xmlns:v="https://vecta.io/nano"><style><![CDATA[.B{stroke-width:.45}.C{fill:#000}.D{stroke:#333}.E{stroke-miterlimit:10}.F{fill-opacity:.1}.G{fill-opacity:.2}.H{fill:#cf1c2c}.I{fill-opacity:.15}.J{fill:#f7c394}.K{fill-opacity:.3}.L{fill-rule:evenodd}.M{stroke-width:1.44}]]></style><path d="M119.76 296.158c-4.57-.668-10.364-2.905-17.717-6.84-1.07-.572-1.5-1.967-.923-3.046.572-1.068 1.967-1.5 3.046-.922 6.8 3.633 12.256 5.77 16.245 6.354 2.603.38 4.477.1 5.57-.868 1.225-1.073 1.115-2.97.795-6.515-.376-4.15-.843-9.318 1.78-15.256 3.96-8.975 13.826-17.508 24.218-15.903 6.6 1.022 12.924 5.957 14.376 12.653 1.235 5.702-.542 13.516-6.618 15.7-4.03 1.44-8.633-.213-11.776-2.887-.94-.78-1.075-2.25-.275-3.2.793-.93 2.263-1.048 3.193-.236.04.033 3.93 3.3 7.334 2.076 3.856-1.385 4.48-7.106 3.74-10.51-1.058-4.88-5.904-8.42-10.666-9.16-8.356-1.3-16.273 6.164-19.415 13.274-2.152 4.875-1.76 9.21-1.415 13.033.36 3.946.694 7.673-2.3 10.305-2.5 2.196-6.037 2.412-9.182 1.94z" class="B D E H"/><path d="M165.8 266.898c.995 4.592.106 10.3-3.404 13.687 4.626-3.033 5.856-9.68 4.754-14.767-1.452-6.697-7.775-11.632-14.376-12.654-5.963-.92-11.86 1.67-16.34 5.474 10.27-7.268 26.396-5.433 29.365 8.26zm-6.214 10.127c-2.433 2.83-6.803 1.374-9.26-.74a2.247 2.247 0 0 0-.984-.487 2.243 2.243 0 0 0-1.098.037c.358-.657 1.047-1.1 1.794-1.16.594-.048 1.184.143 1.638.53 1.986 1.755 5.386 3.165 7.9 1.82zm-57.97 8.6c.315-.27 1.395-.8 2.07-.495l2.226 1.082c4.448 2.198 11.472 5.668 16.54 5.668 4.5 0 4.905-2.25 4.275-8.2.077.344.173.723.276 1.126.866 3.397 2.167 8.504-4.55 8.504-7.335 0-18.8-6.352-20.835-7.695z" class="C G"/><path d="M57.8297 283.23c3.285 0 5.9094-2.932 5.5837-6.158-.4878-5.717 1.6758-11.897 5.9355-17.855 3.8752-5.422 8.029-8.393 4.834-11.897s-10.4007.353-13.986 5.355c-5.914 8.272-8.747 17.02-7.9767 25.53.2874 2.832 2.3246 5.024 5.6096 5.024z" class="B D E H"/><path d="M54.778 275.324c-.0373-10.104 8.065-24.99 17.56-29.174-11.7-1.9-22.05 21.015-20.044 31.66.65-1.06 1.774-2.094 2.484-2.485z" class="C I"/><path d="M91.3434 310.186c.45-7.838 2.466-13.9 4.2453-18.613s3.8173-13.023-3.8304-14.942c-10.935-2.744-16.948 22.87-17.397 30.685-.264 4.597 3.3137 9.93 7.956 10.196 4.273.208 8.77-2.862 9.026-7.326z" class="B D E H"/><path d="M74.2533 307.305c4.635-.63 13.32-.63 16.965 3.06l.1494-1.354c-3.7944-3.326-12.4344-3.55-16.9218-2.92-.024.297-.168.912-.1926 1.215zm1.4402-8.055c4.2984 3.986 9.7992 6.222 16.02 7.065.0522-.45.1626-1.096.225-1.53-6.174-.8-11.538-3.384-15.84-7.3-.18.54-.3258 1.374-.405 1.755z" class="C I"/><path d="M98.6566 310.186c-.45-7.838-2.466-13.9-4.2453-18.613s-3.8173-13.023 3.8304-14.942c10.9353-2.744 16.9483 22.87 17.3973 30.685.264 4.597-3.314 9.93-7.956 10.196-4.273.208-8.7703-2.862-9.0264-7.326z" class="B D E H"/><path d="M115.747 307.305c-4.635-.63-13.32-.63-16.9653 3.06l-.1494-1.354c3.7947-3.326 12.4347-3.55 16.9217-2.92.024.297.168.912.193 1.215zm-1.44-8.055c-4.3 3.986-9.8 6.222-16.0205 7.065-.0522-.45-.1626-1.096-.225-1.53 6.1745-.8 11.5385-3.384 15.8405-7.3.18.54.325 1.374.405 1.755z" class="C I"/><path d="M132.17 283.23c-3.285 0-5.9-2.932-5.584-6.158.488-5.717-1.676-11.897-5.935-17.855-3.876-5.422-8.03-8.393-4.834-11.897s10.4.353 13.986 5.355c5.914 8.272 8.747 17.02 7.976 25.53-.287 2.832-2.324 5.024-5.61 5.024z" class="B D E H"/><path d="M135.222 275.324c.037-10.104-8.065-24.99-17.56-29.174 11.7-1.9 22.05 21.015 20.044 31.66-.65-1.06-1.774-2.094-2.484-2.485z" class="C I"/><path d="M94.9994 229.32c13.8596 0 19.7996 12.15 23.3996 22.14s5.22 19.8 5.22 26.28c0 13.68-12.48 27.492-28.6196 27.63-15.7977.136-28.62-13.95-28.62-27.63 0-6.48 1.593-16.335 5.22-26.28 3.6-10 9.54-22.14 23.4-22.14z" class="B D E H"/><path d="M95 305.37c-15.8104.144-29.7-14.13-28.62-30.33.9 13.32 13.0635 25.963 28.62 25.83s27.72-12.5 28.62-25.83c1.08 16.2-12.8 30.187-28.62 30.33z" class="C I"/><path d="M94.9997 240.48c9.3603 0 14.4003 6.12 15.6603 11.52 3.104 13.304 5.76 24.66.36 31.5s-12.1458 7.38-16.0203 7.38c-4.2795 0-10.62-.54-16.02-7.38s-2.9195-17.445.36-31.5c1.26-5.4 6.3-11.52 15.66-11.52z" class="B D E J"/><path d="M95 290.88c-12.24 0-20.16-8.46-19.17-19.44.36 10.35 8.64 17.1 19.17 17.1s18.81-6.75 19.17-17.1c1 10.98-6.93 19.44-19.17 19.44z" class="C F"/><g fill="#fff"><circle cx="94.9998" cy="267.39" r="14.22" class="F"/><circle cx="94.9997" cy="267.39" r="13.32" class="F"/><circle cx="94.9996" cy="267.39" r="12.42" class="G"/><circle cx="94.9995" cy="267.39" r="11.52" class="K"/><circle cx="94.9999" cy="267.39" r="10.62" fill-opacity=".4"/><circle cx="94.9998" cy="267.39" r="9" stroke="#e7e7e7" class="M"/></g><circle cx="94.9995" cy="267.39" r="4.23" stroke="#e7e7e7" class="M"/><path d="M95.5394 257.85h-1.08v5.4h1.08v-5.4zm0 13.68h-1.08v5.4h1.08v-5.4zm-6.455-11.645l.8847-.62 3.0973 4.423-.8847.62-3.0973-4.424zm8.7312 10.587l-.8846.62 3.097 4.424.885-.62-3.0975-4.423zm-11.966-5.837l.3694-1.015 5.0743 1.847-.3693 1.015-5.0744-1.847zM99.074 268.3l-.3694 1.015 5.0744 1.847.37-1.015-5.074-1.847zm.956-9.034l.885.62-3.0978 4.424-.8847-.62 3.0975-4.423zM93.067 271.1l-.8847-.62-3.0973 4.423.8847.62 3.0973-4.424zm10.713-7.47l.37 1.015-5.074 1.847-.3694-1.015 5.0744-1.847zm-12.4867 5.694l-.3693-1.015-5.0744 1.847.3694 1.015 5.0743-1.847z" fill="#e7e7e7"/><circle cx="94.9998" cy="267.39" r="9.495" stroke="#8c8c8c" class="B"/><path d="M133.6 258.874c-1.076-2.088-2.348-4.158-3.807-6.2-16.423-22.91-50.6663-26.424-69.6064 0-1.459 2.04-2.7307 4.11-3.807 6.2 3.6844 2.566 6.4572 4.39 6.7953 4.42.2813.024 1.513.095 3.4962.186.687-1.28 1.4748-2.557 2.3576-3.825-.3458 1.317-.656 2.616-.9314 3.887a635.569 635.569 0 0 0 53.7697.001c-.28-1.283-.593-2.594-.943-3.926.894 1.28 1.7 2.57 2.384 3.863l3.497-.186c.338-.03 3.11-1.855 6.795-4.42z" class="C K"/><path d="M103.1 320.04c-2.88 0-5.6777-2.124-6.0023-5.053-.8202-7.4 8.4913-8.07 13.5593-8.183 5.14-.112 13.863.86 15.392 6.504 1.336 4.932-3.284 6.732-6.57 6.732s-4.4-1.094-8.368-1.094c-3.457 0-5.132 1.094-8.012 1.094z" class="B D E J"/><path d="M103.2 318.06c2.88 0 4.554-1.094 8.012-1.094 3.958 0 5.083 1.094 8.368 1.094 2.555 0 5.918-1.09 6.657-3.893.606 4.284-3.66 5.873-6.747 5.873-3.285 0-4.4-1.093-8.368-1.093-3.458 0-5.132 1.093-8.012 1.093-3.8575 0-6.57-3.074-5.9316-7.224.267 3.012 3.0626 5.244 6.0216 5.244z" class="C F"/><path d="M86.9002 320.04c2.88 0 5.678-2.124 6.0026-5.053.8202-7.4-8.4914-8.07-13.5596-8.183-5.1393-.112-13.863.86-15.392 6.504-1.3362 4.932 3.284 6.732 6.57 6.732s4.4-1.094 8.3685-1.094c3.457 0 5.1316 1.094 8.0115 1.094z" class="B D E J"/><path d="M86.8097 318.06c-2.88 0-4.5544-1.094-8.0115-1.094-3.9585 0-5.0835 1.094-8.3685 1.094-2.555 0-5.9177-1.09-6.6574-3.893-.6053 4.284 3.6605 5.873 6.7474 5.873 3.285 0 4.4-1.093 8.3685-1.093 3.457 0 5.1316 1.093 8.0115 1.093 3.8576 0 6.57-3.074 5.9317-7.224-.267 3.012-3.063 5.244-6.0217 5.244z" class="C F"/><path d="M59.1258 293.4c5.1136.004 8.369-6.13 5.273-10.375 1.4325-4.07-1.6276-8.585-5.9992-8.69-5.0402-.12-7.953 5.265-7.4252 9.822.4933 4.258 3.3772 9.238 8.1513 9.242z" class="B D E J"/><path d="M50.974 284.148c.6105 5.27 4.8934 11.412 11.2833 8.442-6.194-.793-10.53-11.295-7.48-17.266-.485.346-1.25.75-2.484 2.485-1.106 1.956-1.5925 4.158-1.3194 6.34z" class="C F"/><path d="M130.874 293.4c-5.113.004-8.37-6.13-5.273-10.375-1.432-4.07 1.628-8.585 6-8.69 5.04-.12 7.953 5.265 7.425 9.822-.493 4.258-3.377 9.238-8.15 9.242z" class="B D E J"/><path d="M139.026 284.148c-.61 5.27-4.894 11.412-11.284 8.442 6.194-.793 10.53-11.295 7.48-17.266.485.346 1.25.75 2.484 2.485 1.106 1.956 1.593 4.158 1.32 6.34z" class="C F"/><path d="M65.23 243.476c-7.9585 1.995-23.7584-11.132-32.822-29.624s-7.9585-35.35 0-37.344 21.7576 11.38 30.82 29.873 9.9593 35.1 2.0008 37.095zm59.54 0c7.958 1.995 23.758-11.132 32.822-29.624s7.958-35.35 0-37.344-21.758 11.38-30.82 29.873-9.96 35.1-2 37.095z" fill="#46413d"/><path d="M95 57.69c-43.6816 0-69.29 22.1865-70.5468 25.401C20.3628 93.544 14 140.356 14 171.413c0 14.392 17.6622 60.062 21.1086 64.083 3.3327 3.888 28.0773 22.876 29.2388 22.977s11.7153.91 30.6524.91 29.4912-.808 30.6532-.91 25.906-19.09 29.238-22.977c3.447-4.02 21.11-49.69 21.11-64.083 0-31.057-6.363-77.869-10.453-88.3222C164.29 79.8764 138.682 57.69 95 57.69zM68.8417 233.678c1.7168-1.212 20.5516-2.727 26.158-2.727h.0008c5.6066 0 24.4406 1.515 26.1576 2.727s5.252 6.514 6.767 9.393l6.11-1.706 2.98-5.465s.707-4.03.707-6.565h4.393l11.968-24.037-1.313-5.808 3.333-6.716 4.646-2.525c18.025-40.223-28.16-82.313-65.7488-82.313S6.9897 140.57 29.2507 190.25l4.646 2.525 3.333 6.716-1.313 5.808 11.9682 24.037h4.3934c0 2.535.707 6.565.707 6.565l2.9794 5.465 6.1104 1.706c1.515-2.88 5.0498-8.18 6.7668-9.393z" fill="#bf1323" class="L"/><g class="B D"><g stroke-linejoin="round"><path d="M69.005 233.585c2.2158 5.14 2.2158 8.425 2.2158 11.253 5.2755.37 19.2347.754 23.7796.754s21.2637-.584 23.6897-.754c0-3.773.6-6.608 2.305-11.253-5.846-1.927-16.955-2.432-25.9947-2.432s-19.1896.455-25.9954 2.432z" fill="#ed3344"/><path d="M71.242 242.212c-.8107.464-4.77 11.418-6.8392 16.266 10.4472.883 24.5374.904 30.597.904s19.442 0 30.597-.904c-2.07-4.848-6.088-15.71-6.84-16.266-.606-.447-18.506-.858-23.7586-.858s-22.8485.34-23.7574.858z" fill="#a60614"/></g><path d="M95 57.69c-43.6816 0-69.29 22.1866-70.5468 25.401C20.3628 93.544 14 140.356 14 171.413c0 14.392 17.6622 60.062 21.1086 64.083 3.3327 3.888 28.0773 22.876 29.2388 22.977s11.7153.91 30.6524.91 29.4912-.808 30.6532-.91 25.906-19.09 29.238-22.977c3.447-4.02 21.11-49.69 21.11-64.083 0-31.057-6.363-77.869-10.453-88.3222C164.29 79.8765 138.682 57.69 95 57.69zM68.8417 233.678c1.7168-1.212 20.5516-2.727 26.158-2.727h.0008c5.6066 0 24.4406 1.515 26.1576 2.727s5.252 6.514 6.767 9.393l6.11-1.706 2.98-5.465s.707-4.03.707-6.565h4.393l11.968-24.037-1.313-5.808 3.333-6.716 4.646-2.525c18.025-40.223-28.16-82.313-65.7488-82.313S6.9897 140.57 29.2507 190.25l4.646 2.525 3.333 6.716-1.313 5.808 11.9682 24.037h4.3934c0 2.535.707 6.565.707 6.565l2.9794 5.465 6.1104 1.706c1.515-2.88 5.0498-8.18 6.7668-9.393z"/></g><path d="M28.5438 88.2415C25.6432 104.144 19.96 159.9 19.96 169.696c0 6.01 3.3884 14.213 9.2918 20.553 1.7674 1 2.929 1.616 4.6458 2.525 9.3004 4.924 20.856 25.148 24.5424 37.924h73.122c3.687-12.776 15.242-33 24.543-37.924l4.645-2.525c5.904-6.34 9.292-14.544 9.292-20.553 0-9.797-5.684-65.552-8.585-81.4545 0 86.3035-132.9122 86.3035-132.9122 0z" fill="#ebc75e"/><g fill="#fff"><g class="L"><path d="M159.14 147.735l3.793 12.997c.612 2.095-.085 4.353-1.77 5.74l-9.124 7.506c-1.013.833-2.293 1.273-3.605 1.24l-34.102-.875c-1.957-.05-3.737-1.145-4.664-2.87l-8.53-15.873 58.003-7.865z" fill-opacity=".08"/><path d="M158.415 148.852l3.475 11.907a4.847 4.847 0 0 1-1.573 5.102l-8.802 7.24c-.9.74-2.038 1.132-3.204 1.102l-33.717-.864c-1.74-.045-3.322-1.02-4.146-2.552l-7.73-14.383 55.697-7.553z" class="F"/><path d="M157.69 149.97l3.157 10.816c.476 1.63-.066 3.386-1.377 4.465l-8.48 6.975c-.788.65-1.784.99-2.804.965l-33.332-.855a4.243 4.243 0 0 1-3.628-2.232l-6.93-12.893 53.392-7.24z" class="G"/><path d="M156.963 151.088l-51.087 6.928 6.13 11.403a3.636 3.636 0 0 0 3.109 1.914l32.947.844c.875.023 1.728-.27 2.403-.826l8.157-6.71c1.124-.924 1.588-2.43 1.18-3.826l-2.84-9.726z" class="K"/></g><path d="M115.375 170.33a3.031 3.031 0 0 1-2.591-1.595l-5.328-9.914 48.78-6.615 2.52 8.635c.34 1.164-.047 2.42-.984 3.19l-7.835 6.446c-.563.463-1.274.707-2.002.69l-32.562-.835z"/><g class="L"><path d="M30.86 147.735l-3.7936 12.997c-.6115 2.095.085 4.353 1.7706 5.74l9.1235 7.506a5.46 5.46 0 0 0 3.6047 1.24l34.1023-.875c1.9572-.05 3.7373-1.145 4.6642-2.87l8.5308-15.873-58.0025-7.865z" fill-opacity=".08"/><path d="M31.586 148.852L28.111 160.76c-.5436 1.862.0755 3.87 1.5738 5.102l8.8014 7.24c.9006.74 2.0382 1.132 3.204 1.102l33.7172-.864c1.7397-.045 3.322-1.02 4.146-2.552l7.73-14.383-55.6973-7.553z" class="F"/><path d="M32.312 149.97l-3.157 10.816c-.4756 1.63.0662 3.386 1.377 4.465l8.4792 6.975c.788.65 1.7835.99 2.8036.965l33.332-.855a4.242 4.242 0 0 0 3.6277-2.232l6.9294-12.893-53.392-7.24z" class="G"/><path d="M33.0382 151.088l51.087 6.928-6.1287 11.403a3.637 3.637 0 0 1-3.1095 1.914l-32.947.844c-.8744.023-1.7276-.27-2.403-.826l-8.157-6.71c-1.1237-.924-1.588-2.43-1.1804-3.826l2.8387-9.726z" class="K"/></g><path d="M74.6264 170.33a3.031 3.031 0 0 0 2.5912-1.595l5.328-9.914-48.7818-6.615-2.5203 8.635a3.03 3.03 0 0 0 .9836 3.189l7.8348 6.446a3.034 3.034 0 0 0 2.0026.689l32.5618-.835z"/></g><g class="B D"><path d="M170.022 170.485c-30.684 22.29-35.644 30.378-46.54 57.588 2.845.644 5.544 1.52 8.08 2.626 3.384-11.464 14.392-32.27 24.543-37.925l4.646-2.525c5.65-6.066 8.995-13.84 9.272-19.764z" class="C G"/><path d="M95 101.772c16.864-.243 29.882-12.6248 38.733-28.175 13.08 0 25.718 9.9454 27.42 13.4327s2.172 53.5284 2.172 56.0534-4.595 7.222-7.07 9.343c-9.393 2.02-36.056 7.27-61.2552 7.27s-51.862-5.252-61.2548-7.27c-2.4744-2.12-7.0697-6.818-7.0697-9.343s.4684-52.566 2.1713-56.0534 14.3417-13.4327 27.42-13.4327c8.85 15.5503 21.849 27.932 38.7325 28.175z" fill="#f5d062"/></g><g class="C"><path d="M36.7248 143.69c2.2714 2.17 20.587 11.36 58.326 11.367 37.7392-.008 55.9532-9.196 58.2252-11.367 3.125-2.986 7.877-32.572 7.877-56.6595 1.703 3.4873 2.172 53.5285 2.172 56.0535s-4.595 7.222-7.07 9.342c-9.38 2.018-38.004 7.258-61.1532 7.272s-41.763-3.434-61.3563-7.272c-2.4744-2.12-7.0697-6.817-7.0697-9.342s.4684-52.5662 2.1713-56.0535c0 24.0875 4.7523 53.6735 7.8777 56.6595z" class="F"/><path d="M19.978 170.485c30.6844 22.29 35.645 30.378 46.54 57.588-2.845.644-5.5432 1.52-8.0798 2.626-3.3834-11.464-14.392-32.27-24.5423-37.925l-4.646-2.525c-5.649-6.066-8.9952-13.84-9.273-19.764z" class="B D G"/><path d="M95 221.558c14.847 0 28.713 2.323 29.845 3.03s4.898 3.737 6.312 4.394c-.892-1.128-4.876-4.956-5.908-5.656-1.414-.96-13.484-3.434-30.249-3.434s-28.8348 2.474-30.2488 3.434c-1.032.7-5.0162 4.528-5.9083 5.656 1.414-.657 5.181-3.687 6.3123-4.394s14.998-3.03 29.8448-3.03z"/></g><g class="B D"><path d="M94.9998 221.558c-18.7855 0-28.1228 2.372-29.7437 2.93s-4.949 4-6.4133 4.495H55.51l-2.525 6.918 2.525 5.858 6.7163 1.464c1.212-2.508 4.7973-8.026 6.5648-9.24s13.1296-2.777 26.2088-2.777 24.4412 1.562 26.2092 2.777 5.352 6.733 6.564 9.24l6.717-1.464 2.525-5.858-2.525-6.918h-3.333c-1.465-.505-4.797-3.94-6.413-4.495s-10.96-2.93-29.7442-2.93z" fill="#fad464"/><path d="M95 101.772c16.864-.243 29.883-12.6248 38.733-28.175 13.08 0 25.718 9.9454 27.42 13.4327.133.2706.257.8215.375 1.6088 2.92 16.4126 8.513 71.3406 8.513 81.0576 0 6.01-3.388 14.213-9.292 20.553-1.767 1-2.928 1.616-4.645 2.525-8.894 4.708-19.85 23.41-24.015 36.208h2.4l2.525 6.918-2.525 5.858-6.716 1.464c-1.212-2.508-4.798-8.026-6.565-9.24s-13.13-2.777-26.209-2.777-24.4414 1.562-26.2088 2.777-5.3528 6.733-6.5648 9.24l-6.7163-1.464-2.525-5.858 2.525-6.918h2.401c-4.1648-12.8-15.1208-31.5-24.0145-36.208l-4.6458-2.525c-5.9034-6.34-9.2918-14.544-9.2918-20.553 0-9.716 5.591-64.637 8.5126-81.0537.1178-.7894.2427-1.3417.375-1.6127 1.703-3.4873 14.3416-13.4327 27.421-13.4327 8.85 15.5503 21.849 27.932 38.7325 28.175z"/><path d="M124.86 224.53c-1.6 3.304-2.725 6.184-3.972 9.272.13.06.236.12.32.178 1.767 1.215 5.353 6.733 6.565 9.24l6.716-1.464 2.525-5.858-2.525-6.918h-3.333c-1.43-.493-4.642-3.78-6.297-4.45zm-59.7204 0c1.195 2.494 2.5 5.78 3.972 9.272-.1286.06-.2358.12-.3208.178-1.7674 1.215-5.3527 6.733-6.5647 9.24l-6.7163-1.464-2.525-5.858 2.525-6.918h3.333c1.43-.493 4.642-3.78 6.2968-4.45z" class="C G"/></g><path d="M24.4532 83.0908C25.71 79.8765 51.3184 57.69 95 57.69s69.29 22.1866 70.547 25.401C169.637 93.544 176 140.356 176 171.413c0 14.392-17.662 60.062-21.11 64.083-.646.754-2.098 2.076-4.026 3.718 4.973-15.66 9.655-48.842 9.655-48.842l4.455-16.177-2.34-67.23c-.652-3.313-22.32-27.675-67.635-27.675s-66.9835 24.362-67.635 27.675c-1.0086 5.13-2.8 66.892-2.8 66.892l4.905 16.515s4.682 33.183 9.6554 48.842c-1.9288-1.642-3.3805-2.964-4.0268-3.718C31.6622 231.475 14 185.805 14 171.413c0-31.057 6.3628-77.869 10.4532-88.3222z" class="C G"/></svg>