<svg width="4000" height="4000" viewBox="0 0 4000 4000" fill="none" xmlns="http://www.w3.org/2000/svg">
<path d="M2275.11 3290.64C2224.34 3283.22 2159.95 3258.37 2078.25 3214.64C2066.38 3208.29 2061.58 3192.79 2068 3180.8C2074.35 3168.93 2089.85 3164.14 2101.84 3170.55C2177.29 3210.92 2238.02 3234.67 2282.34 3241.15C2311.27 3245.38 2332.09 3242.15 2344.22 3231.51C2357.83 3219.59 2356.61 3198.51 2353.05 3159.12C2348.88 3113 2343.69 3055.59 2372.83 2989.61C2416.83 2889.89 2526.46 2795.08 2641.92 2812.91C2715.25 2824.27 2785.52 2879.1 2801.65 2953.5C2815.38 3016.86 2795.63 3103.67 2728.12 3127.93C2683.35 3143.93 2632.19 3125.57 2597.28 3095.85C2586.84 3087.17 2585.33 3070.85 2594.22 3060.41C2603.03 3050.07 2619.37 3048.77 2629.7 3057.79C2630.13 3058.15 2673.36 3094.44 2711.19 3080.85C2754.03 3065.47 2760.96 3001.9 2752.75 2964.07C2741 2909.84 2687.15 2870.5 2634.24 2862.3C2541.4 2847.97 2453.44 2930.79 2418.52 3009.79C2394.61 3063.95 2398.96 3112.11 2402.8 3154.6C2406.8 3198.44 2410.51 3239.85 2377.13 3269.1C2349.47 3293.5 2310.06 3295.9 2275.11 3290.64Z" fill="#CF1C2C" stroke="#333333" stroke-width="5" stroke-miterlimit="10"/>
<path d="M2786.65 2965.53C2797.71 3016.55 2787.83 3080.08 2748.83 3117.61C2800.24 3083.91 2813.9 3010.05 2801.65 2953.53C2785.52 2879.12 2715.26 2824.29 2641.92 2812.93C2575.66 2802.7 2510.14 2831.49 2460.38 2873.75C2574.5 2793 2753.67 2813.39 2786.65 2965.53Z" fill="black" fill-opacity="0.2"/>
<path d="M2717.62 3078.06C2690.59 3109.51 2642.03 3093.32 2614.73 3069.83C2611.59 3067.15 2607.83 3065.29 2603.79 3064.42C2599.76 3063.55 2595.57 3063.69 2591.6 3064.83C2595.57 3057.53 2603.23 3052.6 2611.53 3051.93C2618.13 3051.4 2624.68 3053.52 2629.73 3057.82C2651.8 3077.32 2689.57 3092.99 2717.62 3078.06Z" fill="black" fill-opacity="0.2"/>
<path d="M2073.5 3173.5C2077 3170.5 2089 3164.5 2096.5 3168C2103.48 3171.26 2111.84 3175.39 2121.23 3180.03C2170.65 3204.44 2248.7 3243 2305 3243C2355 3243 2359.5 3218 2352.5 3152C2353.35 3155.82 2354.42 3160.03 2355.56 3164.51C2365.18 3202.26 2379.65 3259 2305 3259C2223.5 3259 2096.21 3188.43 2073.5 3173.5Z" fill="black" fill-opacity="0.2"/>
<path d="M1587 3147C1623.5 3147 1652.66 3114.42 1649.04 3078.58C1643.62 3015.06 1667.66 2946.39 1714.99 2880.19C1758.04 2819.94 1804.2 2786.94 1768.7 2748C1733.2 2709.06 1653.13 2751.92 1613.3 2807.5C1547.59 2899.42 1516.11 2996.61 1524.67 3091.18C1527.86 3122.65 1550.5 3147 1587 3147Z" fill="#CF1C2C" stroke="#333333" stroke-width="5" stroke-miterlimit="10"/>
<path d="M1553.08 3059.16C1552.67 2946.89 1642.7 2781.5 1748.2 2735C1618.2 2714 1503.2 2968.5 1525.48 3086.77C1532.7 3075 1545.2 3063.5 1553.08 3059.16Z" fill="black" fill-opacity="0.15"/>
<path d="M1959.37 3446.51C1964.37 3359.43 1986.77 3292.08 2006.54 3239.7C2026.31 3187.32 2048.96 3095 1963.98 3073.68C1842.48 3043.19 1775.67 3327.8 1770.68 3414.62C1767.75 3465.7 1807.5 3524.95 1859.08 3527.91C1906.56 3530.22 1956.53 3496.12 1959.37 3446.51Z" fill="#CF1C2C" stroke="#333333" stroke-width="5" stroke-miterlimit="10"/>
<path d="M1769.48 3414.5C1820.98 3407.5 1917.48 3407.5 1957.98 3448.5C1958.32 3445.41 1959.42 3436.56 1959.64 3433.46C1917.48 3396.5 1821.48 3394 1771.62 3401C1771.36 3404.3 1769.76 3411.13 1769.48 3414.5Z" fill="black" fill-opacity="0.15"/>
<path d="M1785.48 3325C1833.24 3369.29 1894.36 3394.13 1963.48 3403.5C1964.06 3398.49 1965.29 3391.32 1965.98 3386.5C1897.38 3377.62 1837.78 3348.9 1789.98 3305.5C1787.98 3311.5 1786.36 3320.77 1785.48 3325Z" fill="black" fill-opacity="0.15"/>
<path d="M2040.63 3446.51C2035.63 3359.43 2013.23 3292.08 1993.46 3239.7C1973.69 3187.32 1951.04 3095 2036.02 3073.68C2157.52 3043.19 2224.33 3327.8 2229.32 3414.62C2232.25 3465.7 2192.5 3524.95 2140.92 3527.91C2093.44 3530.22 2043.47 3496.12 2040.63 3446.51Z" fill="#CF1C2C" stroke="#333333" stroke-width="5" stroke-miterlimit="10"/>
<path d="M2230.52 3414.5C2179.02 3407.5 2082.52 3407.5 2042.02 3448.5C2041.68 3445.41 2040.58 3436.56 2040.36 3433.46C2082.52 3396.5 2178.52 3394 2228.38 3401C2228.64 3404.3 2230.24 3411.13 2230.52 3414.5Z" fill="black" fill-opacity="0.15"/>
<path d="M2214.52 3325C2166.76 3369.29 2105.64 3394.13 2036.52 3403.5C2035.94 3398.49 2034.71 3391.32 2034.02 3386.5C2102.62 3377.62 2162.22 3348.9 2210.02 3305.5C2212.02 3311.5 2213.64 3320.77 2214.52 3325Z" fill="black" fill-opacity="0.15"/>
<path d="M2413 3147C2376.5 3147 2347.34 3114.42 2350.96 3078.58C2356.38 3015.06 2332.34 2946.39 2285.01 2880.19C2241.95 2819.94 2195.8 2786.94 2231.3 2748C2266.8 2709.06 2346.86 2751.92 2386.7 2807.5C2452.41 2899.42 2483.89 2996.61 2475.33 3091.18C2472.14 3122.65 2449.5 3147 2413 3147Z" fill="#CF1C2C" stroke="#333333" stroke-width="5" stroke-miterlimit="10"/>
<path d="M2446.91 3059.16C2447.33 2946.89 2357.3 2781.5 2251.8 2735C2381.8 2714 2496.8 2968.5 2474.51 3086.77C2467.3 3075 2454.8 3063.5 2446.91 3059.16Z" fill="black" fill-opacity="0.15"/>
<path d="M2000 2548C2154 2548 2220 2683 2260 2794C2300 2905 2318 3014 2318 3086C2318 3238 2179.32 3391.46 2000 3393C1824.47 3394.51 1682 3238 1682 3086C1682 3014 1699.7 2904.5 1740 2794C1780 2683 1846 2548 2000 2548Z" fill="#CF1C2C" stroke="#333333" stroke-width="5" stroke-miterlimit="10"/>
<path d="M2000 3393C1824.33 3394.59 1670 3236 1682 3056C1692 3204 1827.15 3344.48 2000 3343C2172.85 3341.52 2308 3204 2318 3056C2330 3236 2175.67 3391.41 2000 3393Z" fill="black" fill-opacity="0.15"/>
<path d="M2000 2672C2104 2672 2160 2740 2174 2800C2208.49 2947.82 2238 3074 2178 3150C2118 3226 2043.05 3232 2000 3232C1952.45 3232 1882 3226 1822 3150C1762 3074 1789.56 2956.17 1826 2800C1840 2740 1896 2672 2000 2672Z" fill="#F7C394" stroke="#333333" stroke-width="5" stroke-miterlimit="10"/>
<path d="M2000 3232C1864 3232 1776 3138 1787 3016C1791 3131 1883 3206 2000 3206C2117 3206 2209 3131 2213 3016C2224 3138 2136 3232 2000 3232Z" fill="black" fill-opacity="0.1"/>
<circle cx="2000" cy="2971" r="158" fill="white" fill-opacity="0.1"/>
<circle cx="2000" cy="2971" r="148" fill="white" fill-opacity="0.1"/>
<circle cx="2000" cy="2971" r="138" fill="white" fill-opacity="0.2"/>
<circle cx="2000" cy="2971" r="128" fill="white" fill-opacity="0.3"/>
<circle cx="2000" cy="2971" r="118" fill="white" fill-opacity="0.4"/>
<circle cx="2000" cy="2971" r="100" fill="white" stroke="#E7E7E7" stroke-width="16"/>
<circle cx="2000" cy="2971" r="47" stroke="#E7E7E7" stroke-width="16"/>
<path d="M2006 2865H1994V2925H2006V2865Z" fill="#E7E7E7"/>
<path d="M2006 3017H1994V3077H2006V3017Z" fill="#E7E7E7"/>
<path d="M1934.28 2887.61L1944.11 2880.73L1978.52 2929.88L1968.69 2936.76L1934.28 2887.61Z" fill="#E7E7E7"/>
<path d="M2031.29 3005.24L2021.46 3012.12L2055.88 3061.27L2065.71 3054.39L2031.29 3005.24Z" fill="#E7E7E7"/>
<path d="M1898.34 2940.39L1902.44 2929.11L1958.82 2949.63L1954.72 2960.91L1898.34 2940.39Z" fill="#E7E7E7"/>
<path d="M2045.27 2981.1L2041.17 2992.37L2097.55 3012.89L2101.66 3001.62L2045.27 2981.1Z" fill="#E7E7E7"/>
<path d="M2055.88 2880.73L2065.71 2887.61L2031.3 2936.76L2021.47 2929.88L2055.88 2880.73Z" fill="#E7E7E7"/>
<path d="M1978.53 3012.13L1968.7 3005.24L1934.28 3054.39L1944.11 3061.27L1978.53 3012.13Z" fill="#E7E7E7"/>
<path d="M2097.55 2929.11L2101.66 2940.39L2045.27 2960.91L2041.17 2949.63L2097.55 2929.11Z" fill="#E7E7E7"/>
<path d="M1958.82 2992.37L1954.72 2981.1L1898.34 3001.62L1902.44 3012.89L1958.82 2992.37Z" fill="#E7E7E7"/>
<circle cx="2000" cy="2971" r="105.5" stroke="#8C8C8C" stroke-width="5"/>
<path d="M2429 2876.38C2417.04 2853.18 2402.91 2830.18 2386.7 2807.5C2204.23 2552.93 1823.75 2513.9 1613.3 2807.5C1597.09 2830.18 1582.96 2853.18 1571 2876.38C1611.94 2904.89 1642.75 2925.17 1646.5 2925.5C1649.63 2925.77 1663.31 2926.56 1685.35 2927.56C1692.98 2913.35 1701.74 2899.16 1711.54 2885.07C1707.7 2899.71 1704.26 2914.13 1701.2 2928.26C1900.19 2936.69 2099.64 2936.69 2298.64 2928.27C2295.54 2914.01 2292.05 2899.44 2288.16 2884.65C2298.09 2898.87 2306.94 2913.2 2314.65 2927.56C2336.69 2926.56 2350.38 2925.77 2353.5 2925.5C2357.26 2925.17 2388.07 2904.89 2429 2876.38Z" fill="black" fill-opacity="0.3"/>
<path d="M2090 3556C2058 3556 2026.91 3532.4 2023.31 3499.86C2014.19 3417.65 2117.65 3410.18 2173.97 3408.94C2231.07 3407.69 2328 3418.5 2344.99 3481.21C2359.84 3536 2308.5 3556 2272 3556C2235.5 3556 2223 3543.85 2179.02 3543.85C2140.61 3543.85 2122 3556 2090 3556Z" fill="#F7C394" stroke="#333333" stroke-width="5" stroke-miterlimit="10"/>
<path d="M2091 3534C2123 3534 2141.61 3521.85 2180.02 3521.85C2224 3521.85 2236.5 3534 2273 3534C2301.39 3534 2338.75 3521.9 2346.97 3490.74C2353.7 3538.34 2306.3 3556 2272 3556C2235.5 3556 2223 3543.85 2179.02 3543.85C2140.61 3543.85 2122 3556 2090 3556C2047.14 3556 2017 3521.85 2024.09 3475.74C2027.06 3509.2 2058.13 3534 2091 3534Z" fill="black" fill-opacity="0.1"/>
<path d="M1910 3556C1942 3556 1973.09 3532.4 1976.69 3499.86C1985.81 3417.65 1882.35 3410.18 1826.03 3408.94C1768.93 3407.69 1672 3418.5 1655.01 3481.21C1640.16 3536 1691.5 3556 1728 3556C1764.5 3556 1777 3543.85 1820.98 3543.85C1859.39 3543.85 1878 3556 1910 3556Z" fill="#F7C394" stroke="#333333" stroke-width="5" stroke-miterlimit="10"/>
<path d="M1909 3534C1877 3534 1858.39 3521.85 1819.98 3521.85C1776 3521.85 1763.5 3534 1727 3534C1698.61 3534 1661.25 3521.9 1653.03 3490.74C1646.3 3538.34 1693.7 3556 1728 3556C1764.5 3556 1777 3543.85 1820.98 3543.85C1859.39 3543.85 1878 3556 1910 3556C1952.86 3556 1983 3521.85 1975.91 3475.74C1972.94 3509.2 1941.87 3534 1909 3534Z" fill="black" fill-opacity="0.1"/>
<path d="M1601.4 3259.89C1658.21 3259.94 1694.38 3191.78 1659.99 3144.62C1675.9 3099.41 1641.9 3049.23 1593.33 3048.07C1537.33 3046.73 1504.96 3106.57 1510.83 3157.2C1516.31 3204.51 1548.35 3259.85 1601.4 3259.89Z" fill="#F7C394" stroke="#333333" stroke-width="5" stroke-miterlimit="10"/>
<path d="M1510.83 3157.2C1517.61 3215.77 1565.2 3284 1636.2 3251C1567.37 3242.2 1519.2 3125.5 1553.09 3059.16C1547.7 3063 1539.2 3067.5 1525.49 3086.77C1513.2 3108.5 1507.79 3132.97 1510.83 3157.2Z" fill="black" fill-opacity="0.1"/>
<path d="M2398.6 3259.89C2341.78 3259.94 2305.61 3191.78 2340.01 3144.62C2324.09 3099.41 2358.09 3049.23 2406.67 3048.07C2462.67 3046.73 2495.03 3106.57 2489.17 3157.2C2483.69 3204.51 2451.64 3259.85 2398.6 3259.89Z" fill="#F7C394" stroke="#333333" stroke-width="5" stroke-miterlimit="10"/>
<path d="M2489.17 3157.2C2482.39 3215.77 2434.8 3284 2363.8 3251C2432.62 3242.2 2480.8 3125.5 2446.91 3059.16C2452.3 3063 2460.8 3067.5 2474.51 3086.77C2486.8 3108.5 2492.21 3132.97 2489.17 3157.2Z" fill="black" fill-opacity="0.1"/>
<path d="M1669.23 2705.3C1580.8 2727.46 1405.25 2581.61 1304.54 2376.13C1203.84 2170.66 1216.11 1983.37 1304.54 1961.21C1392.97 1939.04 1546.29 2087.65 1647 2293.12C1747.71 2498.6 1757.66 2683.13 1669.23 2705.3Z" fill="#46413D"/>
<path d="M2330.77 2705.3C2419.2 2727.46 2594.76 2581.61 2695.46 2376.13C2796.17 2170.66 2783.89 1983.37 2695.46 1961.21C2607.03 1939.04 2453.71 2087.65 2353 2293.12C2252.3 2498.6 2242.35 2683.13 2330.77 2705.3Z" fill="#46413D"/>
<path fill-rule="evenodd" clip-rule="evenodd" d="M2000 641C1514.65 641 1230.12 887.517 1216.15 923.232C1170.7 1039.38 1100 1559.52 1100 1904.59C1100 2064.5 1296.25 2571.95 1334.54 2616.62C1371.57 2659.83 1646.51 2870.8 1659.42 2871.92C1672.32 2873.04 1789.59 2882.02 2000 2882.02C2210.41 2882.02 2327.68 2873.04 2340.58 2871.92C2353.49 2870.8 2628.43 2659.83 2665.46 2616.62C2703.75 2571.95 2900 2064.5 2900 1904.59C2900 1559.52 2829.3 1039.38 2783.85 923.232C2769.88 887.517 2485.35 641 2000 641ZM1709.35 2596.42C1728.43 2582.96 1937.7 2566.13 2000 2566.12H2000C2062.3 2566.13 2271.57 2582.96 2290.65 2596.42C2309.73 2609.89 2349 2668.81 2365.83 2700.79L2433.73 2681.84L2466.83 2621.11C2466.83 2621.11 2474.69 2576.33 2474.69 2548.17H2523.5L2656.48 2281.09L2641.89 2216.56L2678.93 2141.94L2730.55 2113.88C2930.82 1666.95 2417.66 1199.29 2000 1199.29C1582.34 1199.29 1022.11 1561.89 1269.45 2113.88L1321.07 2141.94L1358.11 2216.56L1343.52 2281.09L1476.5 2548.17H1525.31C1525.31 2576.33 1533.17 2621.11 1533.17 2621.11L1566.27 2681.84L1634.17 2700.79C1651 2668.81 1690.27 2609.89 1709.35 2596.42Z" fill="#BF1323"/>
<path d="M1711.16 2595.39C1735.78 2652.5 1735.78 2689 1735.78 2720.43C1794.4 2724.52 1949.5 2728.81 2000 2728.81C2050.5 2728.81 2236.26 2722.31 2263.21 2720.43C2263.21 2678.5 2270 2647 2288.83 2595.39C2223.88 2573.98 2100.44 2568.37 2000 2568.37C1899.56 2568.37 1786.78 2573.42 1711.16 2595.39Z" fill="#ED3344" stroke="#333333" stroke-width="5" stroke-linecap="round" stroke-linejoin="round"/>
<path d="M1736.02 2691.25C1727.01 2696.4 1683.02 2818.11 1660.03 2871.98C1776.11 2881.79 1932.67 2882.02 2000 2882.02C2067.33 2882.02 2216.02 2882.02 2339.96 2871.98C2316.97 2818.11 2272.32 2697.42 2263.97 2691.25C2257.24 2686.28 2058.35 2681.71 1999.99 2681.71C1941.63 2681.71 1746.12 2685.48 1736.02 2691.25Z" fill="#A60614" stroke="#333333" stroke-width="5" stroke-linecap="round" stroke-linejoin="round"/>
<path fill-rule="evenodd" clip-rule="evenodd" d="M2000 641C1514.65 641 1230.12 887.517 1216.15 923.232C1170.7 1039.38 1100 1559.52 1100 1904.59C1100 2064.5 1296.25 2571.95 1334.54 2616.62C1371.57 2659.83 1646.51 2870.8 1659.42 2871.92C1672.32 2873.04 1789.59 2882.02 2000 2882.02C2210.41 2882.02 2327.68 2873.04 2340.58 2871.92C2353.49 2870.8 2628.43 2659.83 2665.46 2616.62C2703.75 2571.95 2900 2064.5 2900 1904.59C2900 1559.52 2829.3 1039.38 2783.85 923.232C2769.88 887.517 2485.35 641 2000 641ZM1709.35 2596.42C1728.43 2582.96 1937.7 2566.13 2000 2566.12H2000C2062.3 2566.13 2271.57 2582.96 2290.65 2596.42C2309.73 2609.89 2349 2668.81 2365.83 2700.79L2433.73 2681.84L2466.83 2621.11C2466.83 2621.11 2474.69 2576.33 2474.69 2548.17H2523.5L2656.48 2281.09L2641.89 2216.56L2678.93 2141.94L2730.55 2113.88C2930.82 1666.95 2417.66 1199.29 2000 1199.29C1582.34 1199.29 1022.11 1561.89 1269.45 2113.88L1321.07 2141.94L1358.11 2216.56L1343.52 2281.09L1476.5 2548.17H1525.31C1525.31 2576.33 1533.17 2621.11 1533.17 2621.11L1566.27 2681.84L1634.17 2700.79C1651 2668.81 1690.27 2609.89 1709.35 2596.42Z" stroke="#333333" stroke-width="5"/>
<path d="M1261.6 980.464C1229.37 1157.16 1166.21 1776.66 1166.21 1885.51C1166.21 1952.28 1203.86 2043.44 1269.45 2113.88C1289.09 2125.1 1302 2131.83 1321.07 2141.94C1424.41 2196.64 1552.81 2421.36 1593.77 2563.32H2406.24C2447.2 2421.36 2575.59 2196.64 2678.93 2141.94C2698.01 2131.83 2710.91 2125.1 2730.55 2113.88C2796.14 2043.44 2833.79 1952.28 2833.79 1885.51C2833.79 1776.66 2770.63 1157.16 2738.41 980.464C2738.41 1939.39 1261.6 1939.39 1261.6 980.464Z" fill="#EBC75E"/>
<path fill-rule="evenodd" clip-rule="evenodd" d="M2712.67 1641.5L2754.82 1785.92C2761.62 1809.2 2753.88 1834.29 2735.15 1849.69L2633.78 1933.09C2622.52 1942.35 2608.3 1947.24 2593.72 1946.87L2214.81 1937.15C2193.06 1936.6 2173.28 1924.42 2162.99 1905.26L2068.2 1728.9L2712.67 1641.5Z" fill="white" fill-opacity="0.08"/>
<path fill-rule="evenodd" clip-rule="evenodd" d="M2704.61 1653.92L2743.22 1786.22C2749.26 1806.91 2742.38 1829.21 2725.73 1842.91L2627.94 1923.36C2617.93 1931.59 2605.29 1935.94 2592.34 1935.61L2217.7 1926C2198.37 1925.51 2180.79 1914.69 2171.64 1897.65L2085.75 1737.84L2704.61 1653.92Z" fill="white" fill-opacity="0.1"/>
<path fill-rule="evenodd" clip-rule="evenodd" d="M2696.54 1666.34L2731.62 1786.52C2736.9 1804.63 2730.88 1824.14 2716.32 1836.12L2622.1 1913.63C2613.35 1920.83 2602.29 1924.64 2590.95 1924.35L2220.59 1914.85C2203.68 1914.42 2188.3 1904.95 2180.29 1890.05L2103.29 1746.79L2696.54 1666.34Z" fill="white" fill-opacity="0.2"/>
<path fill-rule="evenodd" clip-rule="evenodd" d="M2688.47 1678.76L2120.84 1755.73L2188.94 1882.44C2195.8 1895.21 2208.99 1903.33 2223.49 1903.7L2589.56 1913.09C2599.28 1913.33 2608.76 1910.07 2616.27 1903.9L2706.9 1829.34C2719.38 1819.07 2724.54 1802.34 2720.01 1786.82L2688.47 1678.76Z" fill="white" fill-opacity="0.3"/>
<path d="M2226.38 1892.55C2214.3 1892.24 2203.31 1885.48 2197.59 1874.83L2138.39 1764.68L2680.41 1691.17L2708.41 1787.12C2712.19 1800.06 2707.89 1813.99 2697.49 1822.55L2610.43 1894.17C2604.18 1899.31 2596.28 1902.03 2588.18 1901.82L2226.38 1892.55Z" fill="white"/>
<path fill-rule="evenodd" clip-rule="evenodd" d="M1287.33 1641.5L1245.18 1785.92C1238.39 1809.2 1246.12 1834.29 1264.85 1849.69L1366.23 1933.09C1377.48 1942.35 1391.7 1947.24 1406.28 1946.87L1785.19 1937.15C1806.94 1936.6 1826.72 1924.42 1837.02 1905.26L1931.8 1728.9L1287.33 1641.5Z" fill="white" fill-opacity="0.08"/>
<path fill-rule="evenodd" clip-rule="evenodd" d="M1295.4 1653.92L1256.78 1786.22C1250.75 1806.91 1257.62 1829.21 1274.27 1842.91L1372.06 1923.36C1382.07 1931.59 1394.71 1935.94 1407.67 1935.61L1782.3 1926C1801.63 1925.51 1819.21 1914.69 1828.37 1897.65L1914.26 1737.84L1295.4 1653.92Z" fill="white" fill-opacity="0.1"/>
<path fill-rule="evenodd" clip-rule="evenodd" d="M1303.46 1666.34L1268.39 1786.52C1263.1 1804.63 1269.12 1824.14 1283.69 1836.12L1377.9 1913.63C1386.66 1920.83 1397.72 1924.64 1409.05 1924.35L1779.41 1914.85C1796.32 1914.42 1811.71 1904.95 1819.72 1890.05L1896.71 1746.79L1303.46 1666.34Z" fill="white" fill-opacity="0.2"/>
<path fill-rule="evenodd" clip-rule="evenodd" d="M1311.53 1678.76L1879.16 1755.73L1811.06 1882.44C1804.2 1895.21 1791.01 1903.33 1776.51 1903.7L1410.44 1913.09C1400.72 1913.33 1391.24 1910.07 1383.74 1903.9L1293.1 1829.34C1280.62 1819.07 1275.46 1802.34 1279.99 1786.82L1311.53 1678.76Z" fill="white" fill-opacity="0.3"/>
<path d="M1773.62 1892.55C1785.71 1892.24 1796.69 1885.48 1802.42 1874.83L1861.62 1764.68L1319.6 1691.17L1291.59 1787.12C1287.82 1800.06 1292.12 1813.99 1302.52 1822.55L1389.57 1894.17C1395.83 1899.31 1403.73 1902.03 1411.83 1901.82L1773.62 1892.55Z" fill="white"/>
<path d="M2833.58 1894.27C2492.64 2141.94 2437.52 2231.82 2316.46 2534.14C2348.07 2541.31 2378.05 2551.05 2406.23 2563.32C2443.83 2435.95 2566.15 2204.78 2678.93 2141.94C2698 2131.84 2710.91 2125.1 2730.55 2113.88C2793.31 2046.47 2830.49 1960.1 2833.58 1894.27Z" fill="black" fill-opacity="0.2" stroke="#333333" stroke-width="5"/>
<path d="M2000 1130.8C2187.38 1128.1 2332.03 990.526 2430.36 817.746C2575.69 817.746 2716.12 928.25 2735.04 966.997C2753.96 1005.75 2759.16 1561.76 2759.16 1589.82C2759.16 1617.87 2708.11 1670.05 2680.61 1693.62C2576.25 1716.06 2279.99 1774.42 2000 1774.42C1720.01 1774.42 1423.75 1716.06 1319.39 1693.62C1291.89 1670.05 1240.84 1617.87 1240.84 1589.82C1240.84 1561.76 1246.04 1005.75 1264.96 966.997C1283.88 928.25 1424.31 817.746 1569.64 817.746C1667.97 990.526 1812.41 1128.1 2000 1130.8Z" fill="#F5D062" stroke="#333333" stroke-width="5"/>
<path d="M1352.5 1596.55C1377.73 1620.66 1581.24 1722.76 2000.56 1722.85C2419.88 1722.76 2622.27 1620.66 2647.51 1596.55C2682.23 1563.36 2735.04 1234.64 2735.04 966.997C2753.96 1005.74 2759.16 1561.76 2759.16 1589.82C2759.16 1617.87 2708.1 1670.05 2680.61 1693.62C2576.39 1716.03 2258.34 1774.26 2001.13 1774.42C1743.92 1774.57 1537.09 1736.26 1319.39 1693.62C1291.9 1670.05 1240.84 1617.87 1240.84 1589.82C1240.84 1561.76 1246.04 1005.74 1264.97 966.997C1264.97 1234.64 1317.77 1563.36 1352.5 1596.55Z" fill="black" fill-opacity="0.1"/>
<path d="M1166.42 1894.27C1507.36 2141.94 1562.48 2231.82 1683.54 2534.14C1651.93 2541.31 1621.95 2551.05 1593.77 2563.32C1556.17 2435.95 1433.85 2204.78 1321.07 2141.94C1302 2131.84 1289.09 2125.1 1269.45 2113.88C1206.69 2046.47 1169.51 1960.1 1166.42 1894.27Z" fill="black" fill-opacity="0.2" stroke="#333333" stroke-width="5"/>
<path d="M2000 2461.76C2164.96 2461.76 2319.04 2487.57 2331.61 2495.43C2344.18 2503.28 2386.03 2536.95 2401.75 2544.24C2391.83 2531.71 2347.56 2489.18 2336.1 2481.4C2320.39 2470.74 2186.28 2443.24 2000 2443.24C1813.72 2443.24 1679.61 2470.74 1663.9 2481.4C1652.44 2489.18 1608.17 2531.71 1598.25 2544.24C1613.96 2536.95 1655.82 2503.28 1668.39 2495.43C1680.96 2487.57 1835.04 2461.76 2000 2461.76Z" fill="black"/>
<path d="M2000 2461.76C1791.27 2461.76 1687.52 2488.11 1669.51 2494.3C1651.56 2500.48 1614.53 2538.63 1598.26 2544.24H1561.22L1533.17 2621.11L1561.22 2686.2L1635.85 2702.47C1649.32 2674.6 1689.15 2613.29 1708.79 2599.79C1728.43 2586.29 1854.68 2568.93 2000 2568.93C2145.32 2568.93 2271.57 2586.29 2291.21 2599.79C2310.85 2613.29 2350.69 2674.6 2364.15 2702.47L2438.78 2686.2L2466.83 2621.11L2438.78 2544.24H2401.75C2385.47 2538.63 2348.44 2500.48 2330.49 2494.3C2312.48 2488.11 2208.73 2461.76 2000 2461.76Z" fill="#FAD464" stroke="#333333" stroke-width="5"/>
<path d="M2000 1130.8C2187.38 1128.1 2332.03 990.526 2430.36 817.746C2575.69 817.746 2716.12 928.25 2735.04 966.997C2736.51 970.004 2737.89 976.126 2739.2 984.873C2771.66 1167.23 2833.79 1777.55 2833.79 1885.51C2833.79 1952.28 2796.14 2043.44 2730.55 2113.88C2710.91 2125.1 2698.01 2131.84 2678.93 2141.94C2580.11 2194.25 2458.38 2402.03 2412.1 2544.24H2438.78L2466.83 2621.11L2438.78 2686.2L2364.15 2702.47C2350.69 2674.6 2310.85 2613.29 2291.21 2599.79C2271.57 2586.29 2145.33 2568.93 2000 2568.93C1854.68 2568.93 1728.43 2586.29 1708.79 2599.79C1689.15 2613.29 1649.32 2674.6 1635.85 2702.47L1561.22 2686.2L1533.17 2621.11L1561.22 2544.24H1587.9C1541.63 2402.03 1419.89 2194.25 1321.07 2141.94C1302 2131.83 1289.09 2125.1 1269.45 2113.88C1203.86 2043.44 1166.21 1952.28 1166.21 1885.51C1166.21 1777.56 1228.33 1167.33 1260.8 984.916C1262.1 976.146 1263.49 970.009 1264.96 966.997C1283.88 928.25 1424.31 817.746 1569.64 817.746C1667.97 990.526 1812.41 1128.1 2000 1130.8Z" stroke="#333333" stroke-width="5"/>
<path d="M2331.78 2494.79C2314 2531.5 2301.5 2563.5 2287.64 2597.82C2289.07 2598.48 2290.26 2599.14 2291.21 2599.79C2310.85 2613.29 2350.68 2674.6 2364.15 2702.47L2438.78 2686.2L2466.83 2621.11L2438.78 2544.24H2401.74C2385.85 2538.76 2350.17 2502.25 2331.78 2494.79Z" fill="black" fill-opacity="0.2" stroke="#333333" stroke-width="5"/>
<path d="M1668.22 2494.79C1681.5 2522.5 1696 2559 1712.35 2597.82C1710.93 2598.48 1709.74 2599.14 1708.79 2599.79C1689.15 2613.29 1649.32 2674.6 1635.85 2702.47L1561.22 2686.2L1533.17 2621.11L1561.22 2544.24H1598.26C1614.15 2538.76 1649.83 2502.25 1668.22 2494.79Z" fill="black" fill-opacity="0.2" stroke="#333333" stroke-width="5"/>
<path d="M1216.15 923.232C1230.12 887.517 1514.65 641 2000 641C2485.35 641 2769.88 887.517 2783.85 923.232C2829.3 1039.38 2900 1559.52 2900 1904.59C2900 2064.5 2703.75 2571.95 2665.46 2616.62C2658.28 2625 2642.15 2639.69 2620.72 2657.94C2675.98 2483.94 2728 2115.25 2728 2115.25L2777.5 1935.5C2777.5 1935.5 2762.71 1245.49 2751.5 1188.5C2744.26 1151.69 2503.5 881 2000 881C1496.5 881 1255.74 1151.69 1248.5 1188.5C1237.29 1245.49 1217.5 1931.75 1217.5 1931.75L1272 2115.25C1272 2115.25 1324.02 2483.94 1379.28 2657.94C1357.85 2639.69 1341.72 2625 1334.54 2616.62C1296.25 2571.95 1100 2064.5 1100 1904.59C1100 1559.52 1170.7 1039.38 1216.15 923.232Z" fill="black" fill-opacity="0.2"/>
</svg>
