<svg xmlns="http://www.w3.org/2000/svg" width="190" height="360" fill="none" xmlns:v="https://vecta.io/nano"><path fill-rule="evenodd" d="M24.2436 83.009C19.2146 91 13.775 143.87 13.775 171.413c0 18.282 9.322 37.775 16.3742 54.485 5.7495 13.624 16.8057 20.307 28.4987 28.952-4.563 6.92-7.1363 14.82-6.4476 23.128-2.938 5.405-.3166 15.406 6.9255 15.412 5.0638.004 8.294-6.232 5.273-10.374.7516-2.135.2664-4.393-.996-6.073-.4336-5.54 1.6126-11.51 5.6352-17.285-3.6725 14-5.0503 27.402 6.9178 38.235-.7393 3.033-1.177 6.1-1.6705 9.168-4.2087.538-9.8193 2.198-10.5126 7.107-.56 3.955 3.036 5.613 6.0206 5.844 3.3097.256 6.4684-1.198 9.7993-1.05 1.9567.087 3.8193.7 5.7504.97 5.5235.746 10.3746-5.464 6.0093-9.896.0972-1.618.2724-3.226.5217-4.826 2.066.23 4.2045.205 6.2457-.04.2514 1.615.43 3.235.528 4.866-3.6563 3.714-.634 10 4.4523 10.003 2.88 0 4.555-1.093 8.012-1.093 3.958 0 5.083 1.093 8.368 1.093 3.087 0 7.353-1.59 6.748-5.873-.694-4.91-6.305-6.568-10.513-7.106-.493-3.06-.938-6.16-1.673-9.175a30.436 30.436 0 0 0 2.422-2.424c4.38 1.18 10.167 1.81 13.36-2.16 7.8 1.324 11.04-9.685 7.975-15.324.36-4.342-.235-8.69-1.565-12.83 3.944-4.805 9.78-8.478 15.847-7.542 4.763.738 9.61 4.28 10.666 9.16 1.634 7.53-4.266 14.136-11.074 8.435-2.205-1.926-5.17 1.554-2.918 3.425 10.21 8.69 20.85-1.474 18.393-12.812-1.45-6.696-7.775-11.63-14.375-12.653-6.864-1.06-13.498 2.302-18.353 7.294-.888-1.965-1.92-3.865-3.068-5.605 11.067-8.184 22.977-15.868 28.5-28.953 7.052-16.7 16.374-36.203 16.374-54.485 0-27.542-4.45-80.913-10.47-88.404C134.42 44 42.5 54 24.2436 83.009zm96.6894 176.608c3.53 5.056 6.127 11.095 5.634 17.366-1.24 1.675-1.712 3.915-.966 6.033-1.843 2.527-1.435 5.724.276 7.897-1.62 1.53-4.507 1.004-6.45.622 6.235-9.863 4.315-21.223 1.505-31.918z" fill="#bf1323"/></svg>