<svg xmlns="http://www.w3.org/2000/svg" width="4001" height="4000" fill="none" xmlns:v="https://vecta.io/nano"><path fill-rule="evenodd" d="M1214.7 922.32c-55.88 88.79-116.32 676.25-116.32 982.27 0 203.13 103.57 419.72 181.93 605.4 63.9 151.37 186.73 225.62 316.66 321.7-50.7 76.88-79.3 164.67-71.64 256.97-32.65 60.06-3.52 171.18 76.95 171.25 56.26.04 92.15-69.26 58.6-115.27 8.35-23.73 2.96-48.82-11.07-67.48-4.82-61.55 17.92-127.87 62.6-192.06-40.8 155.45-56.1 304.47 76.87 424.84-8.22 33.7-13.08 67.77-18.56 101.86-46.77 5.98-109.1 24.42-116.8 78.97-6.2 43.95 33.73 62.37 66.9 64.93 36.78 2.85 71.87-13.3 108.9-11.66 21.74.96 42.43 7.9 63.9 10.8 61.37 8.3 115.27-60.7 66.77-109.96 1.08-17.97 3.03-35.84 5.8-53.62 22.95 2.55 46.7 2.27 69.4-.44 2.8 17.94 4.78 35.93 5.87 54.07-40.63 41.25-7.05 111 49.47 111.14 32 0 50.6-12.15 89.02-12.15 43.98 0 56.48 12.15 92.98 12.15 34.3 0 81.7-17.67 74.97-65.26-7.7-54.54-70.05-72.98-116.8-78.96-5.47-34-10.4-68.46-18.58-101.94 9.5-8.5 18.5-17.5 26.9-26.94 48.66 13.1 112.97 20.13 148.44-24 86.65 14.72 122.67-107.6 88.62-170.26 4-48.24-2.6-96.57-17.4-142.55 43.83-53.4 108.67-94.2 176.1-83.8 52.9 8.2 106.76 47.54 118.5 101.77 18.15 83.66-47.4 157.07-123.05 93.72-24.5-21.4-57.44 17.27-32.42 38.06 113.45 96.56 231.67-16.38 204.37-142.35-16.13-74.4-86.4-129.24-159.73-140.6-76.26-11.78-149.98 25.58-203.92 81.04-9.87-21.83-21.34-42.94-34.1-62.28 122.97-90.93 255.3-176.3 316.65-321.7 78.36-185.67 181.94-402.27 181.94-605.4 0-306.02-49.46-899.04-116.32-982.27-348.18-433.434-1369.5-322.322-1572.36 0zm1074.32 1962.31c39.23 56.18 68.08 123.27 62.6 192.95-13.8 18.62-19.03 43.5-10.74 67.04-20.48 28.08-15.95 63.6 3.07 87.74-18 17-50.08 11.15-71.66 6.9 69.28-109.6 47.94-235.8 16.72-354.64z" fill="#bf1323" stroke="#333" stroke-width="5"/></svg>