<svg xmlns="http://www.w3.org/2000/svg" width="250" height="453" fill="none" xmlns:v="https://vecta.io/nano"><rect y="8" width="250" height="444.667" rx="18" fill="#000"/><g clip-path="url(#A)"><path fill="#000" d="M0 0h250v444.667H0z"/><path fill="#2a2a2e" d="M0-1h213v446H0z"/><g fill="#fff"><circle cx="190" cy="33" r="7"/><circle cx="166" cy="33" r="7"/><circle cx="23" cy="33" r="7"/><rect x="39" y="26" width="68" height="14" rx="7"/></g><path fill="#000" fill-opacity=".75" d="M0 0h250v444.667H0z"/><path d="M0 73c0-11.0457 8.9543-20 20-20h210c11.046 0 20 8.9543 20 20v372H0V73z" fill="#2a2a2e"/><rect x="40" y="273" width="170" height="48" rx="8" fill="#212124"/><rect x="71" y="283" width="53" height="6" rx="3" fill="#fbdd11"/><g fill="#fff"><rect x="127" y="283" width="52" height="6" rx="3"/><rect x="71" y="294" width="108" height="6" rx="3"/><rect x="76" y="304" width="67" height="6" rx="3"/></g><rect x="145" y="304" width="29" height="6" rx="3" fill="#fbdd11"/><rect x="40" y="247" width="170" height="20" rx="10" fill="#212124"/><rect x="98" y="253" width="54" height="7" rx="3.5" fill="#fbdd11"/><g fill="#fff"><circle cx="226" cy="73" r="8"/><circle cx="24" cy="73" r="8"/></g><rect x="26.6665" y="350.666" width="196.667" height="33.3333" rx="16.6667" fill="#fbdd11"/><rect x="27.4165" y="395.416" width="195.167" height="31.8333" rx="15.9167" stroke="#fbdd11" stroke-width="1.5"/><rect x="85" y="70" width="80" height="12" rx="6" fill="#fff"/><path fill-rule="evenodd" d="M164.706 138.457c1.91 6.155 2.726 12.85 2.732 19.294 19.562.75 8.062 28.75-4.95 30.065-3.45 7.815-12.115 12.983-19.735 15.93.614.945 1.172 1.926 1.666 2.94 2.36-2.358 5.54-3.926 8.826-3.418 3.384.524 6.548 3.12 7.105 6.595.882 5.447-4.25 9.957-9.07 5.854-1.1-.914.348-2.616 1.426-1.674 3.33 2.787 6.213-.443 5.415-4.124-.517-2.386-2.887-4.117-5.215-4.478-2.877-.444-5.647 1.232-7.57 3.476.55 1.65 2.032 6.005 1 7.486.82 2.7-1.03 7.048-4.32 6.49-.775.964-1.992 1.41-3.2 1.485.59 3.368.318 3.61-3.84 4.3.04.315.09.628.142.942 2.2.28 4.52 1.087 5.052 3.054.653 2.41-1.605 3.29-3.21 3.29s-2.156-.534-4.092-.534c-1.348 0-2.62.555-3.96.534-2.464-.03-3.904-3.09-2.132-4.9-.035-.573-.086-1.126-.152-1.66-1.088.032-2.173.02-3.262-.005a27.131 27.131 0 0 0-.153 1.665c1.78 1.807.324 4.877-2.158 4.9-1.335.004-2.594-.534-3.935-.534-1.43 0-2.778.568-4.202.533-1.86-.046-3.648-1.27-3.1-3.3.533-1.967 2.854-2.773 5.052-3.054l.13-.85c-5.77-.937-4.158-1.64-3.85-5.94.35-4.924-.922-9.615.434-14.528-2.083 3.613-.362 6.195-1.547 9.562 1.477 2.025-.103 5.074-2.578 5.072-2.98-.002-4.538-3.825-3.85-6.378-2.238-2.224 2.453-10.766 3.786-12.753-7.7294-2.963-16.4133-8.092-19.88-15.987-13.0165-1.317-24.5165-30.062-4.8898-30.062.555-6.66 2.0514-13.307 4.7264-19.448C65.4998 135.5 97.4998 93 106.64 115.9v.003c12.246-7.02 27.926-7.225 40.092-.528C154.5 93.5 187 133 164.706 138.457zm-26.077 83.728c.487-.02 1.094-.11 1.466-.46-.836-1.062-1.036-2.625-.135-3.86-1.015-2.883.215-6.48-1.37-9.42.97 4.646-.078 9.073.04 13.743z" fill="#fbdd11"/><rect x="110" y="362" width="32" height="9" rx="4.5" fill="#2a2a2e"/><rect x="110" y="407" width="32" height="9" rx="4.5" fill="#fbdd11"/></g><defs><clipPath id="A"><rect width="250" height="444.667" rx="20" fill="#fff"/></clipPath></defs></svg>