<svg xmlns="http://www.w3.org/2000/svg" width="250" height="453" fill="none" xmlns:v="https://vecta.io/nano"><style><![CDATA[.B{fill:#000}.C{stroke:#333}.D{stroke-width:.22}.E{stroke-miterlimit:10}.F{fill-opacity:.15}.G{fill:#fff}.H{fill-opacity:.2}.I{fill:#7f6145}.J{fill-opacity:.1}.K{fill:#f7c394}.L{fill:#736c3b}.M{fill:#cec467}.N{fill:#fbdd11}.O{fill-opacity:.3}.P{fill:#212124}.Q{fill-rule:evenodd}.R{fill:#f9eb3d}.S{stroke-linejoin:round}]]></style><rect y="8" width="250" height="444.667" rx="18" class="B"/><g clip-path="url(#A)"><path d="M0 0h250v444.667H0z" class="B"/><path fill="#2a2a2e" d="M0-1h213v446H0z"/><g class="G"><path d="M195.444 33.7778v4.6666h-10.888v-4.6666c0-.4296-.35-.7778-.778-.7778a.778.778 0 0 0-.778.7778v4.6666C183 39.3 183.7 40 184.556 40h10.888c.856 0 1.556-.7 1.556-1.5556v-4.6666a.778.778 0 0 0-1.556 0zm-4.666-4.8l1.465 1.4594c.303.3024.795.302 1.098-.001a.777.777 0 0 0 0-1.0966L190 26l-3.34 3.3406a.777.777 0 0 0 0 1.0966c.303.303.795.3035 1.098.001l1.465-1.4594v6.7433a.778.778 0 0 0 1.556 0V28.98zm-19.334 4.8v4.6666h-10.888v-4.6666c0-.4296-.35-.7778-.778-.7778a.778.778 0 0 0-.778.7778v4.6666C159 39.3 159.7 40 160.556 40h10.888c.856 0 1.556-.7 1.556-1.5556v-4.6666a.778.778 0 0 0-1.556 0zm-4.666-.2567l1.465-1.4594c.303-.3024.795-.302 1.098.001a.777.777 0 0 1 0 1.0966L166 36.5l-3.34-3.3406a.777.777 0 0 1 0-1.0966c.303-.303.795-.3035 1.098-.001l1.465 1.4594V26.778a.778.778 0 0 1 1.556 0v6.7433zm-142.0723-8.229c-.3966-.3896-1.0322-.3896-1.4288 0L16 32.4405l7.277 7.1482c.3966.3896 1.0322.3896 1.4288 0a.984.984 0 0 0 .0124-1.391l-.0124-.0124-5.8482-5.7448 5.8482-5.7448a.984.984 0 0 0 .0124-1.3911l-.0124-.0124zm20.4 13.8608c-1.1787 0-2.2-.2493-3.094-.748-.8727-.5-1.547-1.2297-2.023-2.16-.4647-.9293-.697-2.0117-.697-3.247s.2323-2.312.697-3.23c.476-.9293 1.1503-1.6433 2.023-2.142.884-.5 1.9153-.765 3.094-.765.8046 0 1.564.1247 2.278.374s1.3146.6007 1.802 1.054l-.73 1.598c-.544-.4307-1.0824-.7423-1.615-.935-.5327-.204-1.0994-.306-1.7-.306-1.156 0-2.0514.374-2.686 1.122-.6234.748-.935 1.8247-.935 3.23 0 1.4167.3116 2.5.935 3.247.6346.748 1.53 1.122 2.686 1.122.6006 0 1.1673-.0963 1.7-.3.5326-.204 1.07-.5213 1.615-.952l.73 1.598c-.4874.4533-1.088.8047-1.802 1.054s-1.4734.374-2.278.374zm9.497-.017c-.85 0-1.598-.1757-2.244-.527-.6347-.3513-1.1277-.8557-1.48-1.513s-.527-1.4223-.527-2.295.1757-1.632.527-2.278c.3513-.6573.8443-1.1617 1.48-1.513.646-.3513 1.394-.527 2.244-.527s1.5923.1757 2.227.527c.646.3513 1.14.8557 1.48 1.513.3513.646.527 1.4053.527 2.278s-.1757 1.6377-.527 2.295c-.34.6573-.833 1.1617-1.48 1.513-.6347.3513-1.377.527-2.227.527zm-.017-1.65c.6913 0 1.2183-.2267 1.58-.68s.544-1.122.544-2.006c0-.8727-.1813-1.5357-.544-2-.3627-.4647-.884-.697-1.564-.697s-1.207.2323-1.58.697c-.3627.4533-.544 1.1163-.544 2 0 .884.1813 1.5527.544 2.006s.884.68 1.564.68zm10.8-7.004c.9973 0 1.7396.2833 2.227.85s.73 1.4223.73 2.567V39h-2.125v-4.98c0-.646-.1247-1.1163-.374-1.4-.238-.2947-.6177-.442-1.14-.442-.612 0-1.105.1927-1.48.578-.3627.3853-.544.9-.544 1.547V39h-2.125v-8.313h2.074v1.24c.2833-.4647.663-.8217 1.14-1.07s1.0143-.374 1.615-.374zm9.344 7.055c.2494 0 .5-.017.782-.05l-.102 1.58-.935.05c-1.1673 0-2.0286-.2663-2.584-.8-.5553-.544-.833-1.3487-.833-2.414v-3.62h-1.598v-1.598h1.598v-2.482h2.125v2.482h2.193v1.598h-2.193v3.587c0 1.1107.5157 1.666 1.547 1.666zm5.573-7.055c1.1673 0 2.0343.2833 2.6.85s.85 1.4393.85 2.618V39h-2.023v-1.275c-.1927.442-.4987.7877-.918 1.037-.408.2493-.884.374-1.428.374-.5554 0-1.0597-.1133-1.513-.34s-.8104-.5383-1.07-.935-.4-.8387-.4-1.326c0-.612.153-1.0937.46-1.445.3173-.3513.8273-.6063 1.53-.765s1.6716-.238 2.907-.238h.425v-.4c0-.5667-.1247-.9747-.374-1.224-.238-.2493-.6404-.374-1.207-.374-.442 0-.9067.0793-1.394.238-.476.1473-.9464.357-1.4.63l-.595-1.462c.4646-.2947 1.0256-.5383 1.683-.73s1.2806-.3 1.87-.3zm-.493 7.123c.5666 0 1.0256-.187 1.377-.56.3626-.3853.544-.8783.544-1.48v-.357h-.306c-.7594 0-1.3487.034-1.768.102s-.7197.187-.9.357-.272.4023-.272.697c0 .3627.1246.663.374.9.2493.2267.5666.34.952.34zm9.8723 1.53c-.8727 0-1.632-.1757-2.278-.527-.6347-.3513-1.122-.85-1.462-1.496s-.5-1.3997-.5-2.26.1757-1.6207.527-2.278c.3627-.6687.8727-1.1843 1.53-1.547s1.4167-.544 2.278-.544a5.201 5.201 0 0 1 1.717.289c.5667.1813 1.02.4307 1.36.748l-.612 1.496c-.3513-.2833-.7253-.4987-1.122-.646-.3853-.1473-.7707-.22-1.156-.22-.7367 0-1.3.2323-1.717.697-.408.4533-.612 1.1107-.612 1.972 0 .85.204 1.5073.612 1.972.408.4533.9803.68 1.717.68.3853 0 .7707-.0737 1.156-.22.3967-.1473.7707-.3627 1.122-.646l.612 1.48c-.3627.3287-.8273.5893-1.394.782-.5667.1813-1.156.272-1.768.272zm8.7872-1.598c.2494 0 .5-.017.782-.05l-.102 1.58-.935.05c-1.1673 0-2.0286-.2663-2.584-.8-.5553-.544-.833-1.3487-.833-2.414v-3.62h-1.598v-1.598h1.598v-2.482h2.125v2.482h2.193v1.598h-2.193v3.587c0 1.1107.5157 1.666 1.547 1.666zm5.0627 1.598c-.736 0-1.416-.0907-2.04-.272-.612-.1813-1.133-.442-1.5636-.782l.5946-1.48c.884.646 1.9.97 3.043.97.488 0 .856-.0793 1.105-.238.26-.1587.4-.3853.4-.68 0-.2493-.1-.442-.272-.578s-.48-.2607-.935-.374l-1.36-.306c-.77-.17-1.343-.4477-1.717-.833s-.56-.884-.56-1.496c0-.5.142-.9577.425-1.343.295-.3967.697-.7027 1.207-.918.522-.2153 1.122-.323 1.802-.323.6 0 1.156.0907 1.7.272.556.1813 1.043.4363 1.462.765l-.595 1.445c-.86-.6233-1.722-.935-2.584-.935-.464 0-.827.085-1.088.255s-.4.408-.4.714c0 .2267.08.4137.238.56.17.1473.437.2607.8.34l1.4.323c.828.1813 1.434.4703 1.82.867.386.3853.578.8953.578 1.53 0 .7707-.3 1.3827-.935 1.836s-1.467.68-2.533.68z"/></g><path fill-opacity=".75" d="M0 0h250v444.667H0z" class="B"/><path d="M0 73c0-11.0457 8.9543-20 20-20h210c11.046 0 20 8.9543 20 20v372H0V73z" fill="#2a2a2e"/><rect x="40" y="273" width="170" height="48" rx="8" class="P"/><path d="M73.5864 288.096c-.4374 0-.816-.15-1.136-.448V288h-.68v-5.448l.68-.328v2.064c.128-.144.2906-.26.488-.344a1.561 1.561 0 0 1 .624-.128c.528 0 .9493.192 1.264.576s.472.9.472 1.56c0 .688-.152 1.22-.456 1.592-.2987.368-.7174.552-1.256.552zm-.104-.632c.368 0 .6453-.133.832-.4.192-.267.288-.637.288-1.112 0-.49-.096-.864-.288-1.12-.1867-.26-.464-.392-.832-.392-.2347 0-.4454.06-.632.176-.1814.112-.3147.237-.4.376v1.912c.1066.176.2506.315.432.416s.3813.144.6.144zm4.5692.632c-.4427 0-.7973-.117-1.064-.352-.2667-.24-.4-.58-.4-1.024s.1493-.78.448-1.008c.304-.23.6773-.344 1.12-.344.4053 0 .7733.088 1.104.264v-.312c0-.608-.288-.912-.864-.912-.4213 0-.8533.144-1.296.432l-.2-.568c.4907-.304 1.0107-.456 1.56-.456.176 0 .3413.02.496.064.1547.037.3067.107.456.208.1547.096.2747.245.36.448.0907.203.136.448.136.736V288h-.648v-.376c-.3413.315-.744.472-1.208.472zm.088-.592c.4267 0 .8-.187 1.12-.56v-.704a1.93 1.93 0 0 0-1.024-.288c-.288 0-.528.067-.72.2s-.288.317-.288.568c0 .235.08.424.24.568s.384.216.672.216zm5.2492-3.688c.496 0 .872.147 1.128.44s.384.76.384 1.4V288h-.68v-2.432c0-.39-.088-.675-.264-.856-.1707-.18-.4-.272-.688-.272-.672 0-1.008.37-1.008 1.112V288h-.68v-4.088h.64v.488c.2453-.39.6347-.584 1.168-.584zm2.6172 5.6v-.664h4.288v.664h-4.288zm7.4092-2.08h1.376V288h-3.456v-.664h1.392v-4.024l-1.224.408v-.664l1.912-.68v4.96zm5.5933.664l-1.264-2.488-.728.744V288h-.68v-5.448l.68-.328v3.256l1.488-1.568h.8l-1.08 1.104 1.528 2.984h-.744zm3.6095.096c-.443 0-.798-.117-1.064-.352-.267-.24-.4-.58-.4-1.024s.15-.78.448-1.008.677-.344 1.12-.344c.405 0 .773.088 1.104.264v-.312c0-.608-.288-.912-.864-.912-.422 0-.854.144-1.296.432l-.2-.568c.5-.304 1-.456 1.56-.456.176 0 .34.02.496.064.154.037.306.107.456.208s.274.245.36.448.136.448.136.736V288h-.648v-.376c-.342.315-.744.472-1.208.472zm.088-.592c.426 0 .8-.187 1.12-.56v-.704c-.315-.192-.656-.288-1.024-.288-.288 0-.528.067-.72.2s-.288.317-.288.568c0 .235.08.424.24.568s.384.216.672.216zm5.45-.168h1.376V288h-3.456v-.664h1.392v-4.024l-1.224.408v-.664l1.912-.68v4.96zm4.657-4.176a.429.429 0 0 1-.424-.424c0-.123.04-.227.12-.312.085-.085.187-.128.304-.128.123 0 .224.043.304.128s.128.19.128.312-.043.224-.128.304-.18.12-.304.12zm.344 4.232h1.128V288h-2.936v-.608h1.128v-2.872h-1.128v-.608h1.808v3.48zm4.353.704c-.517 0-.904-.147-1.16-.44-.25-.3-.376-.78-.376-1.44v-2.304h.688v2.392c0 .4.083.693.248.88.17.18.398.272.68.272.667 0 1-.38 1-1.136v-2.408h.696V288h-.696v-.4c-.256.33-.616.496-1.08.496zm6.098-4.28c.34 0 .592.112.752.336.165.224.248.584.248 1.08V288h-.664v-2.504c0-.373-.032-.64-.096-.8s-.192-.24-.384-.24c-.198 0-.344.1-.44.296s-.144.46-.144.784V288h-.664v-2.576c0-.31-.032-.547-.096-.712-.06-.17-.18-.256-.36-.256-.198 0-.35.1-.456.304-.107.197-.16.456-.16.776V288h-.664v-4.088h.624v.528c.16-.416.424-.624.792-.624.202 0 .373.06.512.184s.234.27.288.44c.23-.416.533-.624.912-.624zM147.67 310v-1.416H145.1v-.384l2.712-3.8h.544v3.576h.776v.608h-.776V310h-.688zm0-2.024v-2.432l-1.688 2.432h1.688zm2.65-3.576h3.4v.512c-.34.395-.632.827-.872 1.296s-.41.936-.528 1.4-.192.877-.24 1.256-.072.757-.072 1.136h-.688c.005-.95.128-1.82.368-2.616.24-.8.656-1.59 1.248-2.368h-2.616v-.616zm6.64 5.696c-.592 0-1.048-.2-1.368-.6s-.48-.928-.48-1.568c0-.843.27-1.608.808-2.296s1.24-1.13 2.104-1.328v.584c-.485.133-.928.397-1.328.792-.395.39-.643.816-.744 1.28.267-.304.65-.456 1.152-.456.475 0 .87.173 1.184.52s.472.755.472 1.224c0 .528-.173.968-.52 1.32s-.773.528-1.28.528zm-.016-.632c.336 0 .61-.107.824-.32.213-.22.32-.496.32-.832 0-.352-.104-.637-.312-.856s-.485-.336-.832-.336c-.336 0-.613.112-.832.336-.213.224-.32.51-.32.856 0 .33.11.605.328.824s.493.328.824.328zm4.61 2.216l-.336-.544c.598-.037 1.008-.144 1.232-.32.23-.17.344-.41.344-.72v-.496c-.24.33-.608.496-1.104.496-.5 0-.898-.187-1.224-.56s-.488-.9-.488-1.584c0-.656.16-1.176.48-1.56s.742-.576 1.264-.576c.46 0 .816.147 1.072.44v-.344h.68v3.904c0 .64-.168 1.1-.504 1.384-.33.283-.802.443-1.416.48zm.28-2.216c.192 0 .374-.05.544-.152.176-.107.315-.253.416-.44v-1.88c-.1-.17-.242-.304-.424-.4-.176-.1-.354-.152-.536-.152-.378 0-.666.13-.864.392s-.296.63-.296 1.12c0 .47.107.84.32 1.112.214.267.494.4.84.4zm6.322.056c-.347.384-.81.576-1.392.576s-1.046-.19-1.392-.568-.52-.9-.52-1.568c0-.66.173-1.184.52-1.568s.8-.576 1.392-.576 1.05.19 1.392.568.52.9.52 1.568c0 .66-.174 1.184-.52 1.568zm-1.392-.056c.384 0 .682-.133.896-.4.213-.272.32-.643.32-1.112 0-.475-.104-.845-.312-1.112s-.5-.4-.904-.4-.696.133-.904.4c-.208.26-.312.635-.312 1.12 0 .47.104.837.312 1.104s.514.4.904.4zm6.305.056c-.347.384-.81.576-1.392.576s-1.046-.19-1.392-.568-.52-.9-.52-1.568c0-.66.173-1.184.52-1.568s.8-.576 1.392-.576 1.05.19 1.392.568.52.9.52 1.568c0 .66-.174 1.184-.52 1.568zm-1.392-.056c.384 0 .682-.133.896-.4.213-.272.32-.643.32-1.112 0-.475-.104-.845-.312-1.112s-.5-.4-.904-.4-.696.133-.904.4c-.208.26-.312.635-.312 1.12 0 .47.104.837.312 1.104.213.267.514.4.904.4z" class="N"/><path d="M128.016 288v-1.416h-2.568v-.384l2.712-3.8h.544v3.576h.776v.608h-.776V288h-.688zm0-2.024v-2.432l-1.688 2.432h1.688zm2.713 3.64v-5.704h.68v.352c.31-.3.675-.448 1.096-.448.55 0 .98.192 1.296.576.32.384.48.904.48 1.56 0 .667-.163 1.192-.488 1.576-.325.38-.747.568-1.264.568-.47 0-.843-.16-1.12-.48v1.672l-.68.328zm1.712-2.152c.363 0 .643-.13.84-.392.203-.26.304-.635.304-1.12 0-.464-.104-.832-.312-1.104s-.488-.408-.856-.408c-.453 0-.79.187-1.008.56v1.912c.272.368.616.552 1.032.552zm5.593-4.544c-.234 0-.397.045-.488.136-.085.085-.128.21-.128.376v.48h1.184v.608h-1.184v2.872h1.088V288h-2.632v-.608h.864v-2.872h-.864v-.608h.864v-.6c0-.363.112-.62.336-.776s.5-.232.856-.232c.326 0 .624.064.896.192v.592c-.24-.112-.504-.168-.792-.168zm4.04 5.176c-.517 0-.904-.147-1.16-.44-.25-.3-.376-.78-.376-1.44v-2.304h.688v2.392c0 .4.083.693.248.88.17.18.398.272.68.272.667 0 1-.38 1-1.136v-2.408h.696V288h-.696v-.4c-.256.33-.616.496-1.08.496zm6.826-2.32c0 .176-.008.325-.024.448h-2.856c.053.395.18.704.384.928s.477.328.808.328c.346 0 .664-.117.952-.352l.384.448c-.384.347-.838.52-1.36.52-.57 0-1.027-.203-1.368-.608-.336-.405-.504-.917-.504-1.536 0-.667.168-1.19.504-1.568.34-.38.797-.568 1.368-.568.5 0 .912.165 1.232.496s.48.82.48 1.464zm-2.896-.144h2.216c-.01-.432-.118-.74-.32-.928s-.44-.28-.712-.28c-.363 0-.646.107-.848.32s-.3.51-.336.888zm6 2.464c-.88 0-1.477-.437-1.792-1.312l.632-.264c.24.62.63.928 1.168.928.32 0 .584-.085.792-.256s.312-.424.312-.744-.1-.565-.296-.752c-.197-.192-.483-.288-.856-.288h-.416v-.64h.36c.3 0 .54-.083.72-.248.18-.17.272-.395.272-.672 0-.267-.085-.483-.256-.648s-.38-.248-.624-.248c-.464 0-.803.26-1.016.776l-.632-.248a1.958 1.958 0 0 1 .608-.84c.283-.224.624-.336 1.024-.336.464 0 .848.136 1.152.408s.456.624.456 1.056c0 .25-.064.488-.192.712-.128.22-.3.387-.512.504.288.117.515.3.68.552s.248.55.248.896c0 .485-.176.885-.528 1.2-.352.31-.787.464-1.304.464zm4.81 0c-.517 0-.904-.147-1.16-.44-.25-.3-.376-.78-.376-1.44v-2.304h.688v2.392c0 .4.083.693.248.88.17.18.397.272.68.272.667 0 1-.38 1-1.136v-2.408h.696V288h-.696v-.4c-.256.33-.616.496-1.08.496zm3.145-.096l1.512-2.112-1.416-1.976h.76l.832 1.16.2.304c.006-.01.032-.053.08-.128l.12-.176.832-1.16h.76l-1.416 1.976 1.512 2.112h-.76l-.928-1.296-.12-.168-.08-.136-.104.152-.096.152-.928 1.296h-.76zm7.17.096c-.694 0-1.04-.34-1.04-1.024v-2.552h-.936v-.608h.936v-1.352l.68-.336v1.688h1.376v.608h-1.376v2.336c0 .203.04.357.12.464.085.1.242.152.472.152.25 0 .5-.075.752-.224l-.08.664c-.235.123-.536.184-.904.184zm4.697-4.28c.496 0 .872.147 1.128.44s.384.76.384 1.4V288h-.68v-2.432c0-.39-.088-.675-.264-.856s-.4-.272-.688-.272c-.672 0-1.008.37-1.008 1.112V288h-.68v-4.088h.64v.488c.245-.39.634-.584 1.168-.584zm5.13 4.28c-.693 0-1.04-.34-1.04-1.024v-2.552h-.936v-.608h.936v-1.352l.68-.336v1.688h1.376v.608h-1.376v2.336c0 .203.04.357.12.464.085.1.243.152.472.152.25 0 .5-.075.752-.224l-.08.664c-.235.123-.536.184-.904.184zM74.3784 300.6v-1.984c-.2934.32-.6587.48-1.096.48-.5387 0-.9707-.19-1.296-.568-.32-.38-.48-.9-.48-1.568 0-.66.1573-1.184.472-1.568.32-.384.7573-.576 1.312-.576.3946 0 .7573.15 1.088.448v-.352h.68v5.376l-.68.312zm-1.04-2.136c.3893 0 .736-.19 1.04-.568V296c-.2187-.373-.552-.56-1-.56-.3627 0-.648.144-.856.432-.208.283-.312.645-.312 1.088 0 .49.096.864.288 1.12s.472.384.84.384zm4.9692.632c-.2987 0-.584-.064-.856-.192-.2667-.133-.4907-.31-.672-.528l.464-.408c.3253.357.696.536 1.112.536.2293 0 .4187-.045.568-.136s.224-.23.224-.4c0-.1-.0267-.192-.08-.272-.048-.08-.1333-.155-.256-.224l-.304-.16c-.0853-.043-.2187-.1-.4-.168l-.512-.224c-.1227-.064-.2533-.147-.392-.248-.1333-.1-.232-.216-.296-.344-.0587-.128-.088-.277-.088-.448 0-.32.1333-.576.4-.768.272-.197.616-.296 1.032-.296.5867 0 1.064.21 1.432.632l-.456.376c-.2987-.277-.6293-.416-.992-.416-.24 0-.432.043-.576.128-.1387.085-.208.2-.208.344 0 .155.072.28.216.376.1493.096.376.203.68.32l.064.024.4.168c.0853.032.2027.09.352.176.1547.085.2667.168.336.248s.1333.187.192.32.088.272.088.432c0 .357-.1333.64-.4.848-.2613.203-.6187.304-1.072.304zm5.9372-4.28c.3787 0 .6773.064.896.192v1.416h-.68v-.928c-.0533-.005-.136-.008-.248-.008-.416 0-.768.1-1.056.304-.2827.203-.424.488-.424.856v1.744h1.192V299h-2.744v-.608h.856v-2.872h-.856v-.608h1.504v.712c.1387-.245.3547-.44.648-.584.2987-.15.6027-.224.912-.224zm4.0012-.656c-.1173 0-.2186-.04-.304-.12a.429.429 0 0 1-.12-.304c0-.123.04-.227.12-.312.0854-.085.1867-.128.304-.128.1227 0 .224.043.304.128a.423.423 0 0 1 .128.312c0 .123-.0426.224-.128.304-.08.08-.1813.12-.304.12zm.344 4.232h1.128V299h-2.936v-.608H87.9v-2.872h-1.128v-.608H88.6v3.48zm4.6492.704c-.4373 0-.816-.15-1.136-.448V299h-.68v-5.448l.68-.328v2.064c.128-.144.2907-.26.488-.344s.4054-.128.624-.128c.528 0 .9494.192 1.264.576s.472.9.472 1.56c0 .688-.152 1.22-.456 1.592-.2986.368-.7173.552-1.256.552zm-.104-.632c.368 0 .6454-.133.832-.4.192-.267.288-.637.288-1.112 0-.49-.096-.864-.288-1.12-.1866-.26-.464-.392-.832-.392-.2346 0-.4453.06-.632.176-.1813.112-.3146.237-.4.376v1.912c.1067.176.2507.315.432.416s.3814.144.6.144zm6.2013.152c-.352.32-.8054.48-1.36.48s-1.0107-.16-1.368-.48c-.352-.325-.528-.733-.528-1.224 0-.336.0906-.637.272-.904.1866-.272.4266-.464.72-.576a1.212 1.212 0 0 1-.544-.464c-.1334-.208-.2-.437-.2-.688 0-.405.1546-.75.464-1.032.3146-.283.7093-.424 1.184-.424s.8666.14 1.176.424c.3146.283.472.627.472 1.032 0 .25-.0667.48-.2.688s-.3174.363-.552.464c.2986.117.5386.31.72.576.1866.267.28.568.28.904 0 .49-.1787.9-.536 1.224zm-2.056-3.176c.176.155.408.232.696.232s.52-.077.696-.232.264-.363.264-.608c0-.272-.0907-.49-.272-.656-.1814-.17-.4107-.256-.688-.256-.2827 0-.5147.085-.696.256-.176.165-.264.384-.264.656 0 .245.088.448.264.608zm.696 3.032c.3466 0 .632-.104.856-.312s.336-.485.336-.832c0-.315-.112-.58-.336-.8-.224-.224-.5094-.336-.856-.336-.352 0-.64.112-.864.336-.2187.22-.328.485-.328.8 0 .352.1093.632.328.84.224.203.512.304.864.304zm5.9775-3.656c.34 0 .592.112.752.336s.248.584.248 1.08V299h-.664v-2.504c0-.373-.032-.64-.096-.8s-.192-.24-.384-.24c-.198 0-.344.1-.44.296s-.144.46-.144.784V299h-.664v-2.576c0-.31-.032-.547-.096-.712-.06-.17-.18-.256-.36-.256-.198 0-.35.1-.456.304-.107.197-.16.456-.16.776V299h-.664v-4.088h.624v.528c.16-.416.424-.624.792-.624.202 0 .373.06.512.184s.234.27.288.44c.23-.416.533-.624.912-.624zm3.73 4.28c-.517 0-.904-.147-1.16-.44-.25-.3-.376-.78-.376-1.44v-2.304h.688v2.392c0 .4.083.693.248.88.17.18.397.272.68.272.667 0 1-.38 1-1.136v-2.408h.696V299h-.696v-.4c-.256.33-.616.496-1.08.496zm6.097-4.28c.34 0 .592.112.752.336.165.224.248.584.248 1.08V299h-.664v-2.504c0-.373-.032-.64-.096-.8s-.192-.24-.384-.24-.344.1-.44.296-.144.46-.144.784V299h-.664v-2.576c0-.31-.032-.547-.096-.712-.06-.17-.18-.256-.36-.256-.197 0-.35.1-.456.304-.107.197-.16.456-.16.776V299h-.664v-4.088h.624v.528c.16-.416.424-.624.792-.624.203 0 .373.06.512.184s.235.27.288.44c.23-.416.533-.624.912-.624zm1.96 4.184l1.512-2.112-1.416-1.976h.76l.832 1.16.2.304c.006-.01.032-.053.08-.128l.12-.176.832-1.16h.76l-1.416 1.976 1.512 2.112h-.76l-.928-1.296-.12-.168-.08-.136-.104.152-.096.152L116.5 299h-.76zm6.506 1.68l-.336-.544c.597-.037 1.008-.144 1.232-.32.23-.17.344-.41.344-.72v-.496c-.24.33-.608.496-1.104.496-.49 0-.9-.187-1.224-.56s-.488-.9-.488-1.584c0-.656.16-1.176.48-1.56s.74-.576 1.264-.576c.458 0 .816.147 1.072.44v-.344h.68v3.904c0 .64-.168 1.1-.504 1.384s-.803.443-1.416.48zm.28-2.216c.192 0 .373-.05.544-.152.176-.107.314-.253.416-.44v-1.88c-.102-.17-.243-.304-.424-.4s-.355-.152-.536-.152c-.38 0-.667.13-.864.392s-.296.63-.296 1.12c0 .47.106.84.32 1.112.213.267.493.4.84.4zm4.657.632c-.443 0-.798-.117-1.064-.352-.267-.24-.4-.58-.4-1.024s.15-.78.448-1.008.677-.344 1.12-.344c.405 0 .773.088 1.104.264v-.312c0-.608-.288-.912-.864-.912-.422 0-.854.144-1.296.432l-.2-.568c.5-.304 1-.456 1.56-.456.176 0 .34.02.496.064.154.037.306.107.456.208s.274.245.36.448.136.448.136.736V299h-.648v-.376c-.342.315-.744.472-1.208.472zm.088-.592c.426 0 .8-.187 1.12-.56v-.704c-.315-.192-.656-.288-1.024-.288-.288 0-.528.067-.72.2s-.288.317-.288.568c0 .235.08.424.24.568s.384.216.672.216zm3.56.496v-.464l2.184-3.016h-2.024v-.608h2.912v.448l-2.192 3.032h2.184V299h-3.064zm6.433.096a1.989 1.989 0 0 1-.856-.192c-.266-.133-.5-.31-.672-.528l.464-.408c.326.357.696.536 1.112.536.23 0 .42-.045.568-.136s.224-.23.224-.4c0-.1-.026-.192-.08-.272-.048-.08-.133-.155-.256-.224l-.304-.16c-.085-.043-.218-.1-.4-.168l-.512-.224c-.122-.064-.253-.147-.392-.248-.133-.1-.232-.216-.296-.344-.058-.128-.088-.277-.088-.448 0-.32.134-.576.4-.768.272-.197.616-.296 1.032-.296.587 0 1.064.21 1.432.632l-.456.376c-.298-.277-.63-.416-.992-.416-.24 0-.432.043-.576.128-.138.085-.208.2-.208.344 0 .155.072.28.216.376.15.096.376.203.68.32l.064.024.4.168c.086.032.203.09.352.176.155.085.267.168.336.248s.134.187.192.32.088.272.088.432c0 .357-.133.64-.4.848-.26.203-.618.304-1.072.304zm5.593-5.056c-.08.08-.18.12-.304.12s-.224-.04-.304-.12a.429.429 0 0 1-.12-.304c0-.123.04-.227.12-.312.086-.085.187-.128.304-.128.123 0 .224.043.304.128.086.085.128.19.128.312s-.042.224-.128.304zm.04.872v4.224c0 .512-.125.89-.376 1.136-.245.245-.634.39-1.168.432l-.328-.56c.47-.06.784-.163.944-.312.166-.144.248-.39.248-.736v-3.576h-1.128v-.608h1.808zm4.962-.992c-.235 0-.398.045-.488.136-.086.085-.128.21-.128.376v.48h1.184v.608h-1.184v2.872h1.088V299H145.7v-.608h.864v-2.872h-.864v-.608h.864v-.6c0-.363.112-.62.336-.776s.51-.232.856-.232c.325 0 .624.064.896.192v.592c-.24-.112-.504-.168-.792-.168zm4.017 5.176c-.368 0-.7-.067-.992-.2s-.515-.29-.664-.472l.392-.512c.38.368.8.552 1.264.552.357 0 .65-.12.88-.36.235-.245.352-.547.352-.904 0-.347-.093-.632-.28-.856-.18-.224-.43-.336-.744-.336-.41 0-.76.165-1.048.496l-.608-.224.376-2.88h2.704v.64h-2.112l-.256 1.712c.283-.267.632-.4 1.048-.4.485 0 .877.17 1.176.512s.456.776.456 1.304-.18.98-.536 1.36-.827.568-1.408.568zm6.417-.48c-.352.32-.805.48-1.36.48s-1.01-.16-1.368-.48-.528-.733-.528-1.224c0-.336.09-.637.272-.904.187-.272.427-.464.72-.576-.23-.1-.41-.256-.544-.464s-.2-.437-.2-.688c0-.405.155-.75.464-1.032.315-.283.71-.424 1.184-.424s.867.14 1.176.424c.315.283.472.627.472 1.032 0 .25-.067.48-.2.688s-.317.363-.552.464c.3.117.54.31.72.576.187.267.28.568.28.904 0 .49-.18.9-.536 1.224zm-2.056-3.176c.176.155.408.232.696.232s.52-.077.696-.232.264-.363.264-.608c0-.272-.09-.49-.272-.656-.18-.17-.41-.256-.688-.256-.283 0-.515.085-.696.256-.176.165-.264.384-.264.656 0 .245.088.448.264.608zm.696 3.032c.347 0 .632-.104.856-.312s.336-.485.336-.832c0-.315-.112-.58-.336-.8-.224-.224-.51-.336-.856-.336s-.64.112-.864.336c-.22.22-.328.485-.328.8 0 .352.11.632.328.84.224.203.512.304.864.304zm4.617 2.208l-.336-.544c.598-.037 1.008-.144 1.232-.32.23-.17.344-.41.344-.72v-.496c-.24.33-.608.496-1.104.496-.5 0-.898-.187-1.224-.56s-.488-.9-.488-1.584c0-.656.16-1.176.48-1.56s.742-.576 1.264-.576c.46 0 .816.147 1.072.44v-.344h.68v3.904c0 .64-.168 1.1-.504 1.384-.33.283-.802.443-1.416.48zm.28-2.216c.192 0 .374-.05.544-.152.176-.107.315-.253.416-.44v-1.88c-.1-.17-.242-.304-.424-.4-.176-.1-.354-.152-.536-.152-.378 0-.666.13-.864.392s-.296.63-.296 1.12c0 .47.107.84.32 1.112.214.267.494.4.84.4zm5.026-4.304c-.118 0-.22-.04-.304-.12a.429.429 0 0 1-.12-.304c0-.123.04-.227.12-.312s.186-.128.304-.128.224.043.304.128.128.19.128.312-.043.224-.128.304-.182.12-.304.12zm.344 4.232h1.128V299h-2.936v-.608h1.128v-2.872h-1.128v-.608h1.808v3.48zm4.345.704c-.544 0-.974-.192-1.288-.576s-.472-.907-.472-1.568.157-1.18.472-1.56c.32-.384.746-.576 1.28-.576.437 0 .805.128 1.104.384v-1.648l.68-.328V299h-.68v-.336c-.267.288-.632.432-1.096.432zm.088-.632c.458 0 .794-.187 1.008-.56v-1.936c-.235-.352-.574-.528-1.016-.528-.368 0-.65.13-.848.392s-.296.635-.296 1.12c0 .437.104.8.312 1.088.208.283.488.424.84.424zm3.297.536v-5.456l.68-.32v2.128c.256-.357.632-.536 1.128-.536s.872.147 1.128.44.384.76.384 1.4V299h-.68v-2.432c0-.39-.088-.675-.264-.856-.17-.18-.4-.272-.688-.272-.672 0-1.008.37-1.008 1.112V299h-.68zm-96.2564 10.336h1.376V310h-3.456v-.664h1.392v-4.024l-1.224.408v-.664l1.912-.68v4.96zm2.6732.664l1.512-2.112-1.416-1.976h.76l.832 1.16.2.304c.0053-.01.032-.053.08-.128l.12-.176.832-1.16h.76l-1.416 1.976 1.512 2.112h-.76l-.928-1.296-.12-.168-.08-.136-.104.152-.096.152-.928 1.296h-.76zm8.5932-2.224c0 .176-.008.325-.024.448h-2.856c.0534.395.1814.704.384.928.208.22.4774.328.808.328.3467 0 .664-.117.952-.352l.384.448c-.384.347-.8373.52-1.36.52-.5706 0-1.0266-.203-1.368-.608-.336-.405-.504-.917-.504-1.536 0-.667.168-1.19.504-1.568.3414-.38.7974-.568 1.368-.568.5014 0 .912.165 1.232.496s.48.82.48 1.464zm-2.896-.144h2.216c-.0106-.432-.1173-.74-.32-.928s-.44-.28-.712-.28c-.3626 0-.6453.107-.848.32-.1973.213-.3093.51-.336.888zm7.4092 1.888c-.3466.384-.8106.576-1.392.576s-1.0453-.19-1.392-.568-.52-.9-.52-1.568c0-.66.1734-1.184.52-1.568s.8107-.576 1.392-.576c.5867 0 1.0507.19 1.392.568.3467.38.52.9.52 1.568 0 .66-.1733 1.184-.52 1.568zm-1.392-.056c.384 0 .6827-.133.896-.4.2134-.272.32-.643.32-1.112 0-.475-.104-.845-.312-1.112s-.5093-.4-.904-.4-.696.133-.904.4c-.208.26-.312.635-.312 1.12 0 .47.104.837.312 1.104.2134.267.5147.4.904.4zm4.7693.632c-.368 0-.6987-.067-.992-.2s-.5147-.29-.664-.472l.392-.512c.3786.368.8.552 1.264.552.3573 0 .6506-.12.88-.36.2346-.245.352-.547.352-.904 0-.347-.0934-.632-.28-.856-.1814-.224-.4294-.336-.744-.336-.4107 0-.76.165-1.048.496l-.608-.224.376-2.88h2.704v.64h-2.112l-.256 1.712c.2826-.267.632-.4 1.048-.4.4853 0 .8773.17 1.176.512.304.34.456.776.456 1.304s-.1787.98-.536 1.36-.8267.568-1.408.568zm5.4255 0c-.694 0-1.04-.34-1.04-1.024v-2.552h-.936v-.608h.936v-1.352l.68-.336v1.688h1.376v.608h-1.376v2.336c0 .203.04.357.12.464.085.1.242.152.472.152.25 0 .5-.075.752-.224l-.08.664c-.235.123-.536.184-.904.184zm6.337-2.32c0 .176-.008.325-.024.448h-2.856c.053.395.18.704.384.928s.477.328.808.328c.347 0 .664-.117.952-.352l.384.448c-.384.347-.837.52-1.36.52-.57 0-1.027-.203-1.368-.608s-.504-.917-.504-1.536c0-.667.168-1.19.504-1.568s.797-.568 1.368-.568c.5 0 .912.165 1.232.496s.48.82.48 1.464zm-2.896-.144h2.216c-.01-.432-.117-.74-.32-.928s-.44-.28-.712-.28c-.363 0-.645.107-.848.32-.197.213-.31.51-.336.888zm6 2.464c-.88 0-1.477-.437-1.792-1.312l.632-.264c.24.62.63.928 1.168.928.32 0 .584-.085.792-.256s.312-.424.312-.744-.1-.565-.296-.752c-.197-.192-.483-.288-.856-.288h-.416v-.64h.36c.3 0 .54-.083.72-.248.18-.17.272-.395.272-.672 0-.267-.085-.483-.256-.648s-.38-.248-.624-.248c-.464 0-.803.26-1.016.776l-.632-.248a1.958 1.958 0 0 1 .608-.84c.283-.224.624-.336 1.024-.336.464 0 .848.136 1.152.408s.456.624.456 1.056c0 .25-.064.488-.192.712-.128.22-.3.387-.512.504.288.117.515.3.68.552s.248.55.248.896c0 .485-.176.885-.528 1.2-.352.31-.787.464-1.304.464zm3.69-.096l-1.024-4.088h.664l.616 2.656.064.336.064-.36.584-2.632h.544l.592 2.64.072.376c.01-.112.035-.237.072-.376l.592-2.64h.664L118.87 310h-.584l-.576-2.536-.088-.432-.08.416-.56 2.552h-.592zm4.498 0v-5.456l.68-.32v2.128c.256-.357.632-.536 1.128-.536s.872.147 1.128.44.384.76.384 1.4V310h-.68v-2.432c0-.39-.088-.675-.264-.856s-.4-.272-.688-.272c-.672 0-1.008.37-1.008 1.112V310h-.68zm6.553.096c-.3 0-.584-.064-.856-.192s-.49-.31-.672-.528l.464-.408c.325.357.696.536 1.112.536.23 0 .418-.045.568-.136s.224-.23.224-.4c0-.1-.027-.192-.08-.272s-.134-.155-.256-.224l-.304-.16c-.086-.043-.22-.1-.4-.168l-.512-.224c-.123-.064-.254-.147-.392-.248s-.232-.216-.296-.344-.088-.277-.088-.448c0-.32.133-.576.4-.768.272-.197.616-.296 1.032-.296.586 0 1.064.21 1.432.632l-.456.376c-.3-.277-.63-.416-.992-.416-.24 0-.432.043-.576.128-.14.085-.208.2-.208.344 0 .155.072.28.216.376.15.096.376.203.68.32l.064.024.4.168c.085.032.202.09.352.176s.266.168.336.248.133.187.192.32.088.272.088.432c0 .357-.134.64-.4.848s-.62.304-1.072.304zm5.897 1.504v-1.984c-.293.32-.66.48-1.096.48-.54 0-.97-.19-1.296-.568-.32-.38-.48-.9-.48-1.568 0-.66.157-1.184.472-1.568s.757-.576 1.312-.576c.395 0 .757.15 1.088.448v-.352h.68v5.376l-.68.312zm-1.04-2.136c.39 0 .736-.19 1.04-.568V307c-.22-.373-.552-.56-1-.56-.363 0-.648.144-.856.432-.208.283-.312.645-.312 1.088 0 .49.096.864.288 1.12s.472.384.84.384zm6.345.152c-.352.32-.805.48-1.36.48s-1-.16-1.368-.48c-.352-.325-.528-.733-.528-1.224 0-.336.09-.637.272-.904.187-.272.427-.464.72-.576-.23-.1-.4-.256-.544-.464s-.2-.437-.2-.688c0-.405.155-.75.464-1.032.315-.283.7-.424 1.184-.424s.867.14 1.176.424c.315.283.472.627.472 1.032 0 .25-.066.48-.2.688s-.317.363-.552.464c.3.117.54.31.72.576.187.267.28.568.28.904 0 .49-.178.9-.536 1.224zm-2.056-3.176c.176.155.408.232.696.232s.52-.077.696-.232.264-.363.264-.608c0-.272-.1-.49-.272-.656-.18-.17-.4-.256-.688-.256s-.514.085-.696.256c-.176.165-.264.384-.264.656 0 .245.088.448.264.608zm.696 3.032c.347 0 .632-.104.856-.312s.336-.485.336-.832c0-.315-.112-.58-.336-.8-.224-.224-.51-.336-.856-.336-.352 0-.64.112-.864.336-.218.22-.328.485-.328.8 0 .352.1.632.328.84.224.203.512.304.864.304zm3.377.528v-.464l2.184-3.016h-2.024v-.608h2.912v.448l-2.192 3.032h2.184V310h-3.064z" class="G"/><rect x="40" y="247" width="170" height="20" rx="10" class="P"/><path d="M112.994 260.248c-.698 0-1.31-.144-1.832-.432-.522-.283-.925-.68-1.208-1.192s-.424-1.1-.424-1.768c0-.725.15-1.355.448-1.888.304-.533.718-.94 1.24-1.224.528-.288 1.123-.432 1.784-.432.694 0 1.288.133 1.784.4.502.267.88.624 1.136 1.072s.384.94.384 1.48c0 .485-.074.896-.224 1.232s-.35.587-.6.752c-.245.165-.52.248-.824.248-.282 0-.51-.06-.68-.184s-.272-.29-.304-.504h-.016c-.298.46-.7.688-1.176.688-.378 0-.68-.128-.904-.384-.218-.26-.328-.61-.328-1.048 0-.373.07-.717.208-1.032.144-.315.344-.563.6-.744.262-.187.555-.28.88-.28.23 0 .43.05.6.152.176.1.296.24.36.416h.016l.088-.488h.736l-.352 1.984c-.02.112-.032.227-.032.344 0 .165.035.288.104.368s.182.12.336.12c.123 0 .246-.053.368-.16.123-.112.227-.29.312-.536s.128-.56.128-.944c0-.437-.098-.83-.296-1.176-.192-.352-.485-.63-.88-.832-.39-.203-.864-.304-1.424-.304-.522 0-.992.115-1.408.344-.4.23-.736.563-.976 1-.234.437-.352.957-.352 1.56 0 .555.1 1.04.328 1.456s.534.728.944.952.896.344 1.456.344c.416 0 .774-.053 1.072-.16s.523-.256.672-.448h.96c-.213.38-.557.68-1.032.904-.47.23-1.026.344-1.672.344zm-.352-2.344c.23 0 .427-.072.592-.216.17-.144.3-.33.384-.56.09-.23.136-.47.136-.72 0-.26-.06-.46-.184-.592-.122-.14-.293-.208-.512-.208s-.4.072-.576.216c-.16.14-.282.32-.368.544a1.988 1.988 0 0 0-.12.688c0 .26.06.47.176.624.123.15.28.224.472.224zm8.43 1.096h-1.24l-1.68-1.784V259h-1v-5.64h1v3.44l1.576-1.704h1.216l-1.76 1.872L121.07 259zm2.017-4.008c.55 0 .957.133 1.224.4s.4.677.4 1.232V259h-.952v-.6c-.09.208-.235.37-.432.488s-.416.176-.672.176c-.262 0-.5-.053-.712-.16s-.382-.253-.504-.44-.184-.395-.184-.624c0-.288.072-.515.216-.68.15-.165.39-.285.72-.36s.786-.112 1.368-.112h.2v-.184c0-.267-.06-.46-.176-.576s-.302-.176-.568-.176c-.208 0-.427.037-.656.112-.224.07-.446.168-.664.296l-.28-.688c.218-.14.482-.253.792-.344s.602-.136.88-.136zm-.232 3.352c.266 0 .482-.088.648-.264s.256-.413.256-.696v-.168h-.144c-.358 0-.635.016-.832.048s-.34.088-.424.168-.128.19-.128.328c0 .17.058.312.176.424.117.107.266.16.448.16zm2.855.656v-5.64h1V259h-1zm2.015 0v-3.912h1V259h-1zm-.056-5.728h1.104v.984h-1.104v-.984zm5.663 1.816V259h-.976v-.6c-.123.213-.288.38-.496.496-.208.112-.443.168-.704.168-.96 0-1.44-.54-1.44-1.616v-2.36h1v2.368c0 .277.056.483.168.616s.288.2.528.2c.277 0 .5-.09.664-.272.17-.187.256-.432.256-.736v-2.176h1zm5.672-.096c.443 0 .774.133.992.4.22.26.328.664.328 1.208v2.4h-1v-2.36c0-.3-.05-.515-.152-.648-.1-.14-.264-.208-.488-.208-.266 0-.474.09-.624.272s-.224.435-.224.76V259h-1v-2.36c0-.3-.05-.515-.152-.648-.096-.14-.258-.208-.488-.208-.26 0-.466.09-.616.272s-.224.435-.224.76V259h-1v-3.912h.976v.552c.118-.213.28-.373.488-.48s.446-.168.712-.168c.592 0 .984.245 1.176.736a1.316 1.316 0 0 1 .528-.536c.23-.133.486-.2.768-.2z" class="N"/><path d="M229.435 75.063h-.723l-.256-.247c.897-1.043 1.437-2.3968 1.437-3.8696 0-3.2842-2.663-5.9463-5.947-5.9463S218 67.662 218 70.9463s2.662 5.9462 5.946 5.9462c1.473 0 2.827-.5397 3.87-1.4362l.247.256v.7227l3.892 3.884a.964.964 0 0 0 1.363-.0006c.377-.3766.377-.987.001-1.3638l-3.884-3.8918zm-5.49 0a4.111 4.111 0 1 1 0-8.2333c2.278 0 4.117 1.8388 4.117 4.1167s-1.84 4.1166-4.117 4.1166z" class="G"/><g clip-path="url(#B)" class="G Q"><path d="M27.8857 68.77v10.7063A1.524 1.524 0 0 1 26.3621 81H18.438a1.524 1.524 0 0 1-1.5236-1.5236V68.77h10.9714zm-1.3548 1.5102H18.269v8.4255a.784.784 0 0 0 .784.784h6.6938a.784.784 0 0 0 .784-.784v-8.4255zM24.6857 65l.9143.8736h3.2v1.747H16v-1.747h3.2L20.1143 65h4.5714z"/></g><rect x="26.6665" y="350.666" width="196.667" height="33.3333" rx="16.6667" class="N"/><path d="M114.11 371.113c-.684 0-1.326-.093-1.926-.28s-1.106-.447-1.52-.785l.545-1.19c.43.33.883.57 1.355.722.482.152 1 .228 1.558.228.617 0 1.1-.105 1.42-.316.338-.22.507-.524.507-.912 0-.338-.156-.596-.47-.773-.304-.177-.815-.346-1.533-.507-.743-.16-1.346-.346-1.81-.557s-.815-.48-1.05-.81-.355-.747-.355-1.254c0-.523.144-.992.43-1.406s.692-.734 1.216-.962c.523-.237 1.127-.355 1.81-.355.625 0 1.22.097 1.786.29.566.186 1.03.444 1.393.773l-.544 1.19c-.794-.634-1.672-.95-2.635-.95-.574 0-1.03.118-1.368.354-.33.228-.494.55-.494.963 0 .346.148.612.443.798s.798.36 1.508.52c.75.17 1.36.36 1.824.57.473.203.832.465 1.076.786.254.32.38.726.38 1.216 0 .532-.143 1-.43 1.406-.28.397-.688.705-1.23.924-.532.21-1.16.317-1.887.317zm10.322-2.926h-4.218c.05.574.224 1 .52 1.28s.717.418 1.266.418c.684 0 1.31-.22 1.875-.658l.456 1.09c-.287.236-.65.426-1.09.57-.43.144-.866.215-1.305.215-1.013 0-1.816-.287-2.407-.86-.582-.574-.874-1.36-.874-2.356 0-.633.127-1.195.38-1.685s.608-.87 1.064-1.14c.465-.27.988-.405 1.57-.405.853 0 1.524.274 2.014.823.498.55.747 1.305.747 2.268v.443zm-2.723-2.42c-.422 0-.764.135-1.026.405-.253.27-.4.66-.47 1.165h2.863c-.017-.515-.144-.903-.38-1.165-.237-.27-.566-.405-.988-.405zm7.593-1.115c.743 0 1.297.21 1.66.633s.544 1.06.544 1.913v3.8h-1.583v-3.71c0-.482-.093-.832-.28-1.052-.177-.22-.46-.33-.848-.33-.456 0-.824.144-1.102.43-.27.287-.406.67-.406 1.152V371h-1.583v-6.194h1.545v.925c.21-.347.494-.613.85-.798s.756-.28 1.203-.28zm9.77-2.584V371h-1.57v-1c-.186.347-.456.617-.8.81-.347.194-.744.29-1.19.29-.532 0-1.01-.135-1.43-.405-.414-.27-.74-.65-.976-1.14-.228-.498-.342-1.068-.342-1.7s.114-1.203.342-1.685c.237-.48.562-.853.976-1.114s.9-.393 1.43-.393c.447 0 .844.093 1.19.28s.612.447.798.785v-3.648h1.583zm-3.154 7.803c.507 0 .895-.173 1.165-.52.28-.346.418-.84.418-1.482s-.14-1.13-.418-1.47c-.27-.346-.654-.52-1.152-.52-.507 0-.9.17-1.178.506s-.418.824-.418 1.457c0 .642.14 1.14.418 1.495s.667.532 1.165.532z" class="P"/><rect x="27.4165" y="395.416" width="195.167" height="31.8333" rx="15.9167" stroke="#fbdd11" stroke-width="1.5"/><path d="M114.327 415.78c-.88 0-1.647-.186-2.306-.557-.65-.38-1.152-.917-1.507-1.61-.346-.692-.52-1.5-.52-2.42s.173-1.723.52-2.407c.355-.692.857-1.224 1.507-1.596.66-.38 1.427-.57 2.306-.57.6 0 1.165.093 1.697.28s.98.447 1.343.785l-.545 1.19c-.405-.32-.807-.553-1.203-.697-.397-.152-.82-.228-1.267-.228-.86 0-1.53.28-2 .836-.465.557-.697 1.36-.697 2.407 0 1.055.232 1.862.697 2.42.472.557 1.14.836 2 .836.447 0 .87-.072 1.267-.215.396-.152.798-.39 1.203-.7l.545 1.19c-.364.338-.81.6-1.343.785s-1.098.28-1.697.28zm4.37-.114v-8.93h1.584v8.93h-1.584zm6.02.1c-.634 0-1.19-.13-1.672-.392-.473-.262-.84-.638-1.102-1.128s-.393-1.06-.393-1.7.13-1.216.393-1.697c.26-.5.63-.866 1.102-1.127.48-.262 1.038-.393 1.672-.393s1.186.13 1.66.393c.48.26.85.637 1.102 1.127.262.48.393 1.047.393 1.697s-.13 1.22-.393 1.7a2.631 2.631 0 0 1-1.102 1.128c-.473.26-1.026.392-1.66.392zm-.013-1.228c.515 0 .908-.17 1.178-.507s.405-.836.405-1.495c0-.65-.135-1.144-.405-1.482-.27-.346-.66-.52-1.165-.52s-.9.173-1.178.52c-.27.338-.406.832-.406 1.482 0 .66.135 1.157.406 1.495s.658.507 1.165.507zm6.73 1.228c-.548 0-1.055-.067-1.52-.202-.456-.135-.844-.33-1.165-.583l.443-1.102c.66.48 1.415.722 2.268.722.363 0 .637-.06.823-.177.194-.12.29-.287.29-.507 0-.186-.067-.33-.202-.43-.127-.1-.36-.194-.697-.278l-1.013-.228c-.574-.127-1-.334-1.28-.62s-.418-.66-.418-1.115c0-.38.106-.713.317-1 .22-.296.52-.524.9-.684.39-.16.836-.24 1.343-.24.44 0 .86.068 1.267.203.414.135.777.325 1.09.57l-.443 1.076c-.642-.464-1.284-.696-1.926-.696-.346 0-.616.063-.8.2s-.292.304-.292.532c0 .17.06.308.178.418.126.11.325.194.595.253l1.05.24c.617.135 1.07.35 1.356.646.287.287.43.667.43 1.14 0 .574-.232 1.03-.696 1.368s-1.094.506-1.888.506zm9.28-2.913h-4.218c.05.574.224 1 .52 1.28s.718.418 1.267.418c.684 0 1.31-.22 1.875-.658l.456 1.09c-.288.236-.65.426-1.1.57-.43.144-.865.215-1.304.215-1.014 0-1.816-.287-2.407-.86-.583-.574-.874-1.36-.874-2.356 0-.633.127-1.195.38-1.685s.608-.87 1.064-1.14c.464-.27.988-.405 1.57-.405.852 0 1.524.274 2.014.823.498.55.747 1.305.747 2.268v.443zm-2.723-2.42c-.423 0-.765.135-1.026.405-.254.27-.4.66-.47 1.165h2.863c-.017-.515-.144-.903-.38-1.165-.237-.27-.566-.405-.988-.405z" class="N"/><path d="M91.6897 82.153c-1.1787 0-2.2-.2493-3.094-.748-.8727-.5-1.547-1.2297-2.023-2.16-.4647-.9293-.697-2.0117-.697-3.247s.2323-2.312.697-3.23c.476-.9293 1.1503-1.6433 2.023-2.142.884-.5 1.9153-.765 3.094-.765.8047 0 1.564.1247 2.278.374s1.3147.6007 1.802 1.054l-.73 1.598c-.544-.4307-1.0823-.7423-1.615-.935-.5327-.204-1.0993-.306-1.7-.306-1.156 0-2.0513.374-2.686 1.122-.6233.748-.935 1.8247-.935 3.23 0 1.4167.3117 2.5.935 3.247.6347.748 1.53 1.122 2.686 1.122.6007 0 1.1673-.0963 1.7-.29.5327-.204 1.07-.5213 1.615-.952l.73 1.598c-.4873.4533-1.088.8047-1.802 1.054s-1.4733.374-2.278.374zm11.1813 0c-1.167 0-2.182-.2493-3.043-.748-.85-.4987-1.5073-1.2127-1.972-2.142S97.16 77.2457 97.16 76s.2267-2.33.68-3.247c.4647-.9293 1.1277-1.6433 1.99-2.142s1.876-.748 3.043-.748 2.176.2493 3.026.748c.86.4987 1.52 1.2127 1.972 2.142.465.918.697 2.0003.697 3.247s-.232 2.3347-.697 3.264-1.128 1.6433-1.99 2.142c-.85.4987-1.853.748-3.01.748zm0-1.75c1.1 0 1.955-.3797 2.567-1.14.623-.7593.935-1.8473.935-3.264s-.312-2.5-.935-3.247c-.612-.7593-1.468-1.14-2.567-1.14-1.11 0-1.978.3797-2.6 1.14-.612.748-.918 1.8303-.918 3.247s.306 2.5047.918 3.264c.623.7593 1.5 1.14 2.6 1.14zm15.946-10.387h2.057V82h-1.65l-6.426-8.364V82h-2.04V70.015h1.632l6.426 8.347v-8.347zM126.26 82V71.817h-3.9v-1.802h10.013v1.802h-3.9V82h-2.193zm15.266 0l-1.207-2.805h-5.83L133.28 82h-2.2l5.423-11.985h1.785L143.7 82h-2.176zm-6.324-4.505h4.386l-2.193-5.1-2.193 5.1zm14.814 4.658c-1.178 0-2.2-.2493-3.094-.748-.872-.5-1.547-1.2297-2.023-2.16-.464-.9293-.697-2.0117-.697-3.247s.233-2.312.697-3.23c.476-.9293 1.15-1.6433 2.023-2.142.884-.5 1.916-.765 3.094-.765.805 0 1.564.1247 2.278.374s1.315.6007 1.802 1.054l-.73 1.598c-.544-.4307-1.082-.7423-1.615-.935-.532-.204-1.1-.306-1.7-.306-1.156 0-2.05.374-2.686 1.122-.623.748-.935 1.8247-.935 3.23 0 1.4167.312 2.5.935 3.247.635.748 1.53 1.122 2.686 1.122.6 0 1.168-.0963 1.7-.29.533-.204 1.07-.5213 1.615-.952l.73 1.598c-.487.4533-1.088.8047-1.802 1.054s-1.473.374-2.278.374zM158.73 82V71.817h-3.9v-1.802h10.013v1.802h-3.9V82h-2.193z" class="G"/><path d="M137.105 224.288c-2.234-.326-5.067-1.42-8.662-3.344-.522-.28-.733-.96-.45-1.49.28-.522.96-.733 1.49-.45 3.32 1.776 5.992 2.82 7.942 3.107 1.273.186 2.19.044 2.723-.425.6-.524.545-1.452.388-3.185-.183-2.03-.412-4.555.87-7.458 1.935-4.388 6.76-8.56 11.84-7.775 3.227.5 6.32 2.912 7.03 6.186.604 2.788-.265 6.608-3.236 7.675-1.97.704-4.22-.104-5.757-1.412-.46-.38-.525-1.1-.134-1.56s1.106-.512 1.56-.115c.02.016 1.92 1.612 3.585 1.014 1.885-.676 2.2-3.473 1.83-5.138-.517-2.386-2.886-4.117-5.214-4.478-4.085-.63-7.956 3.014-9.492 6.5-1.052 2.383-.86 4.502-.692 6.37.176 1.93.34 3.75-1.13 5.038-1.218 1.074-2.95 1.18-4.49.948z" class="C D E I"/><g class="B H"><path d="M159.612 209.983c.487 2.245.052 5.04-1.664 6.692 2.262-1.483 2.863-4.733 2.324-7.22-.7-3.274-3.8-5.687-7.028-6.186-2.915-.45-5.798.816-7.987 2.676 5.02-3.553 12.904-2.656 14.355 4.038zm-3.037 4.95c-1.2 1.384-3.326.672-4.527-.362a1.108 1.108 0 0 0-.48-.238c-.176-.038-.362-.032-.537.018.175-.32.512-.538.877-.567.3-.023.58.07.8.26.97.858 2.633 1.547 3.867.9zm-28.34 4.2c.154-.132.682-.396 1.012-.242l1.088.53c2.175 1.074 5.6 2.77 8.086 2.77 2.2 0 2.398-1.1 2.1-4.004l.135.55c.423 1.66 1.06 4.158-2.225 4.158-3.586 0-9.187-3.105-10.186-3.762z"/></g><path d="M106.828 217.968c1.606 0 2.89-1.433 2.73-3-.24-2.795.82-5.817 2.902-8.73 1.894-2.65 3.925-4.104 2.363-5.817s-5.085.173-6.838 2.618c-2.89 4.045-4.276 8.32-3.9 12.482.14 1.385 1.137 2.456 2.743 2.456z" class="C D E I"/><path d="M105.336 214.103c-.018-4.94 3.943-12.217 8.585-14.263-5.72-.924-10.78 10.274-9.8 15.478.317-.518.867-1.024 1.214-1.215z" class="B F"/><path d="M123.213 231.146c.22-3.83 1.205-6.794 2.075-9.1s1.866-6.367-1.873-7.305c-5.346-1.342-8.285 11.18-8.505 15-.13 2.248 1.62 4.855 3.9 4.985 2.09.102 4.287-1.4 4.413-3.582z" class="C D E I"/><g class="B F"><path d="M114.858 229.738c2.266-.308 6.512-.308 8.294 1.496l.073-.662c-1.855-1.626-6.08-1.736-8.273-1.428-.012.145-.082.446-.094.594zm.702-3.938c2.102 1.95 4.8 3.042 7.832 3.454l.1-.748c-3.018-.4-5.64-1.655-7.744-3.564-.088.264-.16.672-.198.858z"/></g><path d="M126.787 231.146c-.22-3.83-1.205-6.794-2.075-9.1s-1.866-6.367 1.873-7.305c5.346-1.342 8.285 11.18 8.505 15 .13 2.248-1.62 4.855-3.9 4.985-2.09.102-4.287-1.4-4.413-3.582z" class="C D E I"/><g class="B F"><path d="M135.142 229.738c-2.266-.308-6.512-.308-8.294 1.496l-.073-.662c1.855-1.626 6.08-1.736 8.273-1.428.012.145.082.446.094.594zm-.702-3.938c-2.102 1.95-4.8 3.042-7.832 3.454l-.1-.748c3.018-.4 5.64-1.655 7.744-3.564.088.264.16.672.198.858z"/></g><path d="M143.172 217.968c-1.606 0-2.89-1.433-2.73-3 .24-2.795-.82-5.817-2.902-8.73-1.894-2.65-3.925-4.104-2.363-5.817s5.085.173 6.838 2.618c2.89 4.045 4.276 8.32 3.9 12.482-.14 1.385-1.137 2.456-2.743 2.456z" class="C D E I"/><path d="M144.664 214.103c.02-4.94-3.942-12.217-8.584-14.263 5.72-.924 10.78 10.274 9.8 15.478-.317-.518-.867-1.024-1.215-1.215z" class="B F"/><path d="M174.86 160.114c4.89 4.488 2.918 13.61-.4 18.795-4.728 7.392-15.552 12.045-21.096 8.112-5.79-4.107-5.034-17.024 1.725-23.73 5.046-5.006 14.716-7.818 19.77-3.177z" class="C D E K"/><path d="M169.153 165.398c2.904 3 1.325 8.654-.952 11.787-3.245 4.463-10.216 6.982-13.55 4.305-3.482-2.795-2.525-10.877 1.97-14.836 3.356-2.955 9.533-4.36 12.533-1.256z" fill="#ffc9a1"/><path d="M174.46 178.908c-2.67 4.174-8.584 8.942-15.25 9.536 4.68-1.1 11.44-5.89 13.492-9.096 3.318-5.186 5.076-14.914.4-18.795-1.426-1.183-5.048-2.865-10.02-1.985 6.072-1.87 9.803-.27 11.78 1.545 4.887 4.488 2.916 13.61-.402 18.795z" class="B J"/><path d="M75.1402 160.114c-4.8884 4.488-2.918 13.61.4 18.795 4.7282 7.392 15.5527 12.045 21.0962 8.112 5.7896-4.107 5.0336-17.024-1.7248-23.73-5.046-5.006-14.7158-7.818-19.7714-3.177z" class="C D E K"/><path d="M80.847 165.398c-2.904 3-1.3244 8.654.9526 11.787 3.245 4.463 10.2155 6.982 13.5494 4.305 3.4822-2.795 2.5252-10.877-1.97-14.836-3.3554-2.955-9.5322-4.36-12.533-1.256z" fill="#ffc9a1"/><path d="M75.54 178.908c2.6704 4.174 8.5844 8.942 15.2504 9.536-4.68-1.1-11.4407-5.89-13.492-9.096-3.318-5.186-5.076-14.914-.4-18.795 1.426-1.183 5.048-2.865 10.02-1.985-6.072-1.87-9.8027-.27-11.78 1.545-4.8866 4.488-2.9163 13.61.4017 18.795z" class="B J"/><path d="M125 191.612c6.776 0 9.68 5.94 11.44 10.824s2.552 9.68 2.552 12.848c0 6.688-6.102 13.44-13.992 13.508-7.724.067-13.992-6.82-13.992-13.508 0-3.168.78-7.986 2.552-12.848 1.76-4.884 4.664-10.824 11.44-10.824z" class="C D E I"/><path d="M125 228.792c-7.73.07-14.52-6.908-13.992-14.828.44 6.512 6.386 12.693 13.992 12.628s13.552-6.116 13.992-12.628c.528 7.92-6.263 14.758-13.992 14.828z" class="B F"/><path d="M125 197.068c4.576 0 7.04 2.992 7.656 5.632 1.517 6.504 2.816 12.056.176 15.4s-5.938 3.608-7.832 3.608c-2.093 0-5.192-.264-7.832-3.608s-1.428-8.528.176-15.4c.616-2.64 3.08-5.632 7.656-5.632z" class="C D E K"/><path d="M125 221.708c-5.984 0-9.856-4.136-9.372-9.504.176 5.06 4.224 8.36 9.372 8.36s9.196-3.3 9.372-8.36c.484 5.368-3.388 9.504-9.372 9.504z" class="B J"/><g class="C D"><path d="M120.855 212.56c-.94-1.238-1.333-3.082-.61-5.55 1.72 4.452 7.855 4.46 9.57.001.72 2.467.328 4.31-.61 5.55-.982 1.293-2.575 1.945-4.175 1.944s-3.192-.65-4.174-1.945z" fill="#d6d6d6"/><path d="M110.115 226.922c-.222-.285-.105-.672.163-1.033.55-.74.76-1.483.873-3.06.124-1.735-.118-4.266-.295-6.114-.274-2.858-.033-5.65.73-8.415-1.172 2.032-1.863 4.464-2.03 6.807-2.773-2.728-5-.82-5.808 1.608-.53-4.556 1.315-9.497 3.75-13.065 11.248 4.354 23.905 4.433 35.144-.027 2.313 3.51 3.982 7.238 3.366 12.32-1.41-2.254-4.112-2.58-5.764-.35.088-2.73-.463-4.94-1.656-7.152.617 2.95.947 5.753.446 8.773-.24 1.86-.51 3.735-.375 5.615.118 1.665.247 2.34.77 3.044.277.373.332.733.163 1.07-.995 1.98-11.334 2.49-14.213 2.49.49-6.555-1.742-16.043 3.303-21.34-2.106 0-4.212-.004-6.318-.018 3.08 6.558 3.38 14.27 2.56 21.36-2.954-.04-12.97-.16-14.81-2.513z" class="R S"/></g><g class="B F"><path d="M138.184 225.504c-.558-.75-.853-2.15-.968-3.772-.184-2.573 1.237-8.288.973-14.165.884 1.6 1.298 6.212.884 9.266h0c-.25 1.846-.586 4.316-.465 6.005.116 1.623.338 2.366.894 3.116 1.747 2.354-7.198 3.4-14.106 3.4l.044-1.2c4.5 0 13.925-1.06 12.744-2.65zm-25.53-3.772c-.117 1.623-.4 3.022-.968 3.772-1.438 1.94 8.848 2.65 13.36 2.65l-.133 1.254c-7.018.088-16.537-1-14.677-3.498.557-.75.823-1.45.94-3.072.252-3.54-.807-7.048-.316-10.593.325-2.34.26-3.077 1.27-4.678-.265 5.877.7 11.592.525 14.165zm-3.798-17.58c-1.372 2.227-3.314 6.38-3.314 10.028-.816.52-1.437 1.478-1.793 2.534-.53-4.555 1.315-9.496 3.75-13.064l1.356.502zm32.355-.37c1.48 2.063 4.053 6.53 3.57 10.885.528.264.924.66 1.188 1.386.748-4.488-.792-8.712-3.498-12.738-.454.163-.8.317-1.26.467z"/></g><g class="C D"><g class="R"><path d="M104.284 213.995c-.066-.853.988-1.412 1.6-.855.406-.663 1.2-.584 1.58-.018.695-.6 1.663-.148 1.6.662 1.193-.276 1.367 1.303.744 2.05-1.056-2.86-4.754-2.358-6.138.77-.858-.77-.593-2.544.624-2.6zm41.41 0c.066-.853-.988-1.412-1.6-.855-.406-.663-1.198-.584-1.58-.018-.694-.6-1.662-.148-1.6.662-1.193-.276-1.367 1.303-.744 2.05 1.057-2.86 4.643-2.38 6.027.748.836-1 .705-2.522-.513-2.587z"/></g><path d="M124.34 229.432v-9.69c0-3.244-1.056-8.065-2.345-10.78-.865-1.237.874-1.395 1.29-.407.24.568 1.432 4.092 1.716 4.902.424-1.034 1.548-4.422 1.847-4.902.55-.882 1.726-.296 1.114.718-.602 1.09-2.138 4.4-2.3 10.448-.087 3.26 0 6.4 0 9.72-.44.005-.88-.004-1.32-.008z" class="G S"/></g><g class="B F"><path d="M124.34 219.742v9.7h.572v-9.7c0-3.245-1.087-8.145-2.376-10.86h-.594c1.29 2.715 2.398 7.615 2.398 10.86z"/><path d="M124.736 214.25c.066.088.242.198.44.286.622-1.517 1.584-5.258 2.638-6.348-.285-.144-.7-.062-.967.366-.747 1.582-1.452 3.89-2.11 5.696z"/></g><path d="M124.405 218.56c-.37-.001-.68-.31-.68-.682v-3.972c0-.37.3-.68.68-.682h1.08c.37.001.68.31.682.682v3.972c-.001.37-.31.68-.682.682h-1.08zm-.06-2.288c-.024 0-.044.02-.044.044v1.257c0 .024.02.044.044.044h1.22c.024 0 .044-.02.044-.044v-1.257c0-.024-.02-.044-.044-.044h-1.22z" class="C D G"/><g class="B F"><path d="M124.638 217.616c.114.218.344.37.604.37h.917c-.054.32-.338.57-.672.572h-1.08c-.37-.001-.68-.3-.682-.682v-3.972c.001-.37.3-.68.682-.682h.163l-.01 3.048h-.215c-.024 0-.044.02-.044.044v1.257c0 .024.02.044.044.044h.293zm17.742-14.124l1.012 1.628-3.718 1.36c-2.85 3.84-9.494 4.626-14.674 4.626-5.264 0-12.076-.77-14.83-4.677-1.177-.4-2.362-.827-3.56-1.308.28-.472.693-1.165 1.012-1.628 8.503 3.294 26.3 3.316 34.76 0z"/></g><path d="M136.782 120.72c17.52 5.684 30.785 17.737 30.722 40.048-.048 17.105-15.403 43.595-42.523 43.832-26.163.228-42.532-26.234-42.4848-43.832.058-21.492 19.0138-43.602 42.5038-45.254 23.465-1.65 41.105 14.74 11.782 5.206z" class="C D R S"/><g class="B F"><path d="M143.964 117.9c-3.963-.675-9.822-1.8-17.47-1.263-28.752 2.02-49.585 33.933-38.04 59.8 2.9982-3.097 6.6502-3.977 7.814-4.363.3493.377.7744.777.9262.958-3.58 1.116-7.7408 3.538-9.5317 6.9-3.356-6.494-5.148-13.313-5.13-19.155.058-21.5 19.0176-43.604 42.5076-45.257 1.283-.1 2.5-.13 3.658-.13 6.578 0 12.122 1.474 15.268 2.508zm23.474 42.87c-.016 5.62-1.677 12.255-4.863 18.637-3.3-4.516-9.207-6.32-9.8-6.32l.88-1.078c1.034.242 5.66 1.228 8.24 4.673 2.6-5.815 3.807-11.227 3.82-16.318.064-23.066-15.56-34.533-28.924-39.645 17.52 5.684 30.72 17.74 30.656 40.05z"/></g><path d="M112.9 132.454c-13.068 0-29.26 27.654-15.994 40.414-25.322 7.92 0 34.276 28.094 34.276s53.416-26.356 28.094-34.276c13.266-12.76-2.926-40.414-15.994-40.414-5.566 0-8.602 2.574-12.1 5.126-3.498-2.552-6.534-5.126-12.1-5.126z" fill="#ffcd98" class="C D"/><g class="B"><path d="M157.96 159.448c-.69-13.576-11.66-26.98-21.186-26.98-5.923 0-9.513 3.615-11.775 5.113-1.808-1.234-5.83-5.113-11.81-5.113-11.247 0-21.0367 16.42-21.214 27.4-.9886-11.815 8.078-29.547 21.275-29.547 6.864 0 10.516 3.3 11.748 4.664 1.232-1.364 4.884-4.664 11.748-4.664 13.096 0 22.154 16.786 21.213 29.128z" class="F"/><path d="M92.0167 159.025c-.313 5.168 1.0567 10.12 4.9038 13.82-.4587.143-.9.337-1.3267.492.9825-.316 1.92-.54 3.0065-.734-3.72-3.578-5.8725-8.438-6.5836-13.58zm-4.478 20.208C81.558 190.025 102.25 207.122 125 207.122s43.7-17.285 37.4-28.066c4.196 9.86-15.797 26.416-37.4 26.416-21.462 0-41.346-16.358-37.4614-26.24zm66.9634-5.88l-3.102-.748c3.755-3.6 5.912-8.528 6.603-13.722.347 5.22-1.012 10.23-4.895 13.964.5.156.935.336 1.394.506z" class="J"/></g><path d="M121.04 235.964c1.408 0 2.776-1.038 2.935-2.47.4-3.617-4.152-3.946-6.63-4-2.513-.056-6.778.42-7.525 3.18-.654 2.41 1.605 3.29 3.21 3.29s2.156-.534 4.09-.534c1.69 0 2.51.534 3.917.534z" class="C D E K"/><path d="M120.996 234.996c-1.408 0-2.226-.534-3.917-.534-1.935 0-2.485.534-4.09.534-1.25 0-2.893-.532-3.255-1.903-.296 2.094 1.8 2.87 3.3 2.87 1.606 0 2.156-.534 4.09-.534 1.69 0 2.51.534 3.917.534 1.886 0 3.212-1.502 2.9-3.53-.13 1.472-1.497 2.563-2.944 2.563z" class="B J"/><path d="M128.96 235.964c-1.408 0-2.776-1.038-2.935-2.47-.4-3.617 4.152-3.946 6.63-4 2.513-.056 6.778.42 7.525 3.18.654 2.41-1.605 3.29-3.21 3.29s-2.156-.534-4.09-.534c-1.7 0-2.51.534-3.917.534z" class="C D E K"/><path d="M129.004 234.996c1.408 0 2.226-.534 3.916-.534 1.936 0 2.486.534 4.092.534 1.25 0 2.893-.532 3.254-1.903.296 2.094-1.79 2.87-3.298 2.87-1.606 0-2.156-.534-4.092-.534-1.7 0-2.508.534-3.916.534-1.886 0-3.212-1.502-2.9-3.53.13 1.472 1.497 2.563 2.944 2.563z" class="B J"/><path d="M107.46 222.935c2.5.002 4.092-2.997 2.578-5.072.7-1.99-.795-4.197-2.933-4.248-2.464-.06-3.888 2.574-3.63 4.802.24 2.082 1.65 4.516 3.985 4.518z" fill="#4b72d1" class="C D E"/><path d="M103.476 218.417c.298 2.577 2.392 5.58 5.516 4.127-3.028-.387-5.148-5.522-3.657-8.44-.237.168-.61.366-1.214 1.214-.54.956-.78 2.033-.645 3.1z" class="B F"/><path d="M142.54 222.935c-2.5.002-4.092-2.997-2.578-5.072-.7-1.99.795-4.197 2.933-4.248 2.464-.06 3.888 2.574 3.63 4.802-.24 2.082-1.65 4.516-3.985 4.518z" fill="#4b72d1" class="C D E"/><g class="B F"><path d="M146.524 218.417c-.3 2.577-2.393 5.58-5.517 4.127 3.03-.387 5.148-5.522 3.657-8.44.237.168.6.366 1.215 1.214.54.956.778 2.033.645 3.1zm20.84-60.643c-27.405-24.594-57.325-24.594-84.7185.083.0455-.947.1225-1.908.23-2.884 22.7925-24.068 61.6375-24.968 84.4585.13a84.346 84.346 0 0 1 .03 2.67z"/></g><path d="M167.365 157.774c-22.653-26.53-62.077-26.53-84.7185.083.2398-4.975 1.35-10.402 3.3053-15.752 21.5222-21.667 59.3992-19.967 80.1912 2.03.843 4.27 1.254 8.84 1.222 13.64z" fill="#4f4f4f" class="C D E"/><path d="M167.333 154.98l.105 2.863c-22.33-26.18-61.316-27.06-84.8096-.022.0485-.95.1534-2.005.265-2.983 24.1117-26.25 62.0627-25.825 84.4397.142z" class="B F"/><g class="C D E"><path d="M159.305 126.902c-15.935-12.283-40.85-14.918-59.162-6.306 17.052-15.252 46.126-13.273 59.162 6.306z" class="L"/><path d="M166.143 144.137c-25.48-22.088-56.807-22.088-81.1118.692 2.332-8.3 6.644-15.648 12.7288-21.94 12.592-13.02 53.737-9.678 62.908 6.21 2.684 4.653 4.423 9.782 5.475 15.037z" fill="#4f4927"/><path d="M168.335 133.144c-6.66-5.798-11.893-13.055-15.29-21.206-.356-.854.297-2.12 1.28-2.522l2.662-1.1c.714-.292 4.532 2.2 10.37 8.988 5.086 5.92 6.153 12.643 5.65 13.23l-1.875 2.182c-.69.807-2.1 1.027-2.797.42z" fill="#f41655"/></g><path d="M173.008 130.542l-1.875 2.182c-.692.806-2.1 1.026-2.798.42-6.66-5.797-11.893-13.054-15.29-21.206-.356-.853.297-2.12 1.28-2.522l.517-.21a57.372 57.372 0 0 0 13.332 16.997c.698.608 2.106.388 2.798-.418l.88-1.022c1.214 3.077 1.444 5.444 1.155 5.78z" class="B H"/><path d="M167.9 137.112a57.361 57.361 0 0 1-19.074-24.529l2.362-2.305a57.362 57.362 0 0 0 19.528 25.112l-2.816 1.722z" class="C D E L"/><path d="M148.825 112.583a57.359 57.359 0 0 0 19.075 24.529l2.816-1.722-.945-.704-1.808 1.106c-8.228-6.07-14.685-14.23-18.7-23.635l-.438.426z" class="B H"/><g class="C D E"><path d="M164.214 138.25a57.358 57.358 0 0 1-17.399-22.376c-.154-.352-.093-.815.146-1.144l1.185-1.62c3.98 9.775 10.58 18.263 19.074 24.53l-1.862.748c-.376.154-.84.1-1.144-.137z" class="L"/><path d="M170.452 136.05c-9.49-6.625-15.77-14.662-19.854-25.488-.1-.27-.02-.575.176-.78l1.567-1.53c.233-.226.532-.16.643.14 4.096 11.01 10.493 19.193 20.156 25.875.264.182.253.488-.023.657l-1.868 1.144a.776.776 0 0 1-.797-.02z" fill="#423809"/><path d="M167.203 138.074a57.358 57.358 0 0 1-19.482-25.052c-.035-.098-.018-.208.044-.29l.634-.823c.094-.12.238-.106.29.03a57.378 57.378 0 0 0 19.8 25.465c.118.084.096.23-.044.29l-.953.412a.309.309 0 0 1-.29-.029z" fill="#2d2d2d"/></g><g class="B"><path d="M147.72 113.02c4.01 10.017 10.76 18.7 19.482 25.053.086.058.198.07.293.028l.953-.41c.14-.06.162-.205.044-.3l-.252-.183-.448.194c-.095.04-.207.03-.293-.028-8.707-6.343-15.452-15.01-19.462-25.006l-.272.352a.31.31 0 0 0-.045.291z" class="O"/><path d="M146.815 115.875a57.355 57.355 0 0 0 17.399 22.375c.304.236.768.29 1.144.14l1.863-.748-.577-.43-.804.323c-.376.15-.84.096-1.144-.14-7.58-5.886-13.563-13.58-17.4-22.376a1.12 1.12 0 0 1-.061-.66l-.274.376c-.24.325-.3.79-.146 1.14z" class="H"/><path d="M150.598 110.562c4.083 10.828 10.365 18.863 19.855 25.488.24.153.552.16.798.02l1.868-1.144c.276-.17.285-.476.022-.66l-.656-.46-1.443.822c-.25.134-.563.117-.797-.044-9.093-6.776-15.068-14.807-18.83-25.428l-.64.623c-.2.205-.268.512-.177.783z" class="O"/><path d="M85.0312 144.828c24.3048-22.78 55.6328-22.78 81.1118-.692-.27-1.344-.583-2.68-.946-4-.008-.026-.015-.052-.022-.078-10.178-10.246-23.514-15.766-38.025-16.214-16.752-.518-28.4236 6.376-40.7218 16.738l-.0102.027a50.881 50.881 0 0 0-1.3868 4.22z" class="F"/></g><path d="M84.3127 132.852a57.347 57.347 0 0 0 16.1723-20.54c.39-.838-.207-2.13-1.1726-2.574l-2.6135-1.2c-.701-.323-4.621 2.006-10.7393 8.542-5.3317 5.7-6.682 12.37-6.2043 12.977l1.7814 2.26c.656.836 2.053 1.115 2.776.536z" fill="#f41655" class="C D E"/><path d="M79.7538 130.057l1.7813 2.26c.657.834 2.0545 1.114 2.7774.537 6.9002-5.51 12.4348-12.54 16.1725-20.54.39-.838-.208-2.13-1.1728-2.573l-.5076-.234a57.349 57.349 0 0 1-14.0387 16.419c-.723.577-2.12.298-2.7773-.536l-.836-1.058c-1.3434 3.023-1.6734 5.378-1.3988 5.727z" class="B H"/><path d="M84.5795 136.836a57.358 57.358 0 0 0 20.0945-23.701l-2.263-2.402c-4.4327 9.865-11.5643 18.277-20.572 24.263l2.7406 1.84z" class="C D E L"/><path d="M104.674 113.135c-4.4 9.6-11.3432 17.8-20.0945 23.7l-2.7406-1.84.974-.664 1.7596 1.182a57.371 57.371 0 0 0 19.6825-22.824l.42.444z" class="B H"/><g class="C D E"><path d="M88.214 138.13c7.8225-5.56 14.125-12.993 18.33-21.62.168-.345.127-.81-.098-1.15l-1.115-1.67a57.365 57.365 0 0 1-20.0947 23.701l1.8293.826c.369.17.835.134 1.1483-.09z" class="L"/><path d="M82.0752 135.667c9.7602-6.218 16.3766-13.982 20.9138-24.626.1-.266.045-.573-.143-.786l-1.502-1.593c-.222-.236-.524-.182-.648.112-4.557 10.828-11.2944 18.732-21.231 25-.2715.17-.274.477-.005.658l1.8177 1.222c.2403.15.5524.156.7975.013z" fill="#423809"/><path d="M85.2348 137.827c8.9816-5.978 16.0952-14.37 20.5232-24.207a.31.31 0 0 0-.031-.292l-.6-.85c-.088-.124-.233-.116-.292.016A57.357 57.357 0 0 1 83.977 137.1c-.1214.08-.1056.225.0317.29l.9348.452a.313.313 0 0 0 .2913-.016z" fill="#2d2d2d"/></g><g class="B"><path d="M105.76 113.62c-4.43 9.838-11.5422 18.23-20.524 24.207a.309.309 0 0 1-.2935.015l-.9352-.45c-.1377-.067-.153-.212-.0317-.292l.2596-.17.4398.212a.311.311 0 0 0 .2931-.016c8.9673-5.968 16.0728-14.34 20.5018-24.16l.257.363c.06.085.072.197.033.293z" class="O"/><path d="M106.544 116.51a57.349 57.349 0 0 1-18.33 21.62c-.3133.223-.7794.258-1.149.092l-1.8293-.826.5946-.407.79.357c.369.166.8352.13 1.15-.092 7.8224-5.56 14.1247-12.993 18.3297-21.62.095-.205.126-.434.09-.656l.258.386c.225.336.266.8.098 1.146z" class="H"/><path d="M102.988 111.04c-4.5366 10.646-11.153 18.408-20.914 24.626-.2454.143-.558.137-.7982-.015l-1.8178-1.222c-.269-.18-.2652-.488.0055-.66l.675-.43 1.4067.883c.245.144.5577.14.7988-.01 9.3714-6.385 15.6804-14.157 19.8882-24.6l.612.65a.778.778 0 0 1 .144.79z" class="O"/></g><path d="M131.022 178.84c-2.125 0-3.955.767-6.022.767s-3.896-.767-6.02-.767c-4.132 0-11.275-.753-11.275 13.932 0 12.824 3.837 16.352 17.296 16.352s17.297-3.92 17.297-16.352c0-14.167-7.144-13.932-11.275-13.932zm2.697 16.754c-6.072 0 1.084-6.33-8.72-6.33s-2.647 6.33-8.718 6.33c-4.467 0-4.147-10.228-1.4-9.794 2.943.465 7.298-.496 10.12-.496s7.177.96 10.12.496c2.745-.434 3.065 9.794-1.402 9.794z" class="C D E I"/><g class="B F"><path d="M133.72 195.596c2.224 0 3.26-2.645 3.403-5.138.33 2.827-.82 6.33-3.403 6.33-6.072 0 1.083-6.33-8.72-6.33s-2.647 6.33-8.72 6.33c-2.583 0-3.8-3.195-3.425-6.215.142 2.492 1.2 5.023 3.425 5.023 6.145 0-1.225-6.33 8.72-6.33 9.802 0 2.647 6.33 8.72 6.33zm-2.7-16.754c4.132 0 11.276-.235 11.276 13.932-1.853-11.303-4.8-12.738-11.276-12.738-2.125 0-3.955.767-6.02.767s-3.896-.767-6.02-.767c-6.2 0-10.836 4.293-10.836 10.537 0 12.825 3.397 16.352 16.857 16.352 10.154 0 15.27-2.23 16.956-8.664-1.2 8.133-5.722 10.864-16.956 10.864-14.124 0-17.297-4.3-17.297-16.35 0-10.093 2.93-13.935 9.905-13.935 4.268 0 5.17.77 7.392.77 2.066 0 3.896-.767 6.02-.767z"/></g><path d="M112.192 148.318c5.15.598 8.858 6.94 8.3 12.524-.544 5.562-5.408 11.368-10.965 10.736-5.046-.575-8.32-6.2-8.426-10.908-.144-6.32 5.346-13.02 11.08-12.352z" class="G"/><path d="M118.443 162.35c.735-3.788-1.312-7.37-4.573-8.004s-6.5 1.925-7.235 5.713 1.313 7.37 4.573 8.004 6.5-1.925 7.235-5.713z" fill="#566859" class="C D E"/><path d="M112.908 166.218c1.945 0 3.522-1.763 3.522-3.938s-1.577-3.937-3.522-3.937-3.52 1.762-3.52 3.937 1.576 3.938 3.52 3.938z" class="B"/><path d="M116.023 159.528c.248-.7-.147-1.477-.88-1.737s-1.53.096-1.778.796.147 1.478.88 1.737 1.53-.096 1.778-.796z" class="C D E G"/><g class="B"><path d="M114.726 149.114c-6.794-1.858-12.448 6.19-12.31 12.233.082 3.565 1.973 7.638 5.076 9.694-3.87-1.62-6.29-6.326-6.382-10.37-.144-6.32 5.345-13.016 11.08-12.35a7.228 7.228 0 0 1 2.534.794z" fill-opacity=".05"/><path d="M115.648 155.048c-3.75-1.066-7.072 2.17-7.75 5.666-.557 2.87.468 5.625 2.405 7.092-2.722-1.064-4.33-4.32-3.665-7.742.736-3.79 3.975-6.345 7.236-5.712.63.122 1.23.358 1.774.696z" class="F"/></g><path d="M137.808 148.318c-5.15.598-8.858 6.94-8.31 12.524.545 5.562 5.408 11.368 10.966 10.736 5.046-.575 8.318-6.2 8.426-10.908.143-6.32-5.346-13.02-11.08-12.352z" class="G"/><path d="M131.556 162.35c-.735-3.788 1.313-7.37 4.574-8.004s6.5 1.925 7.235 5.713-1.313 7.37-4.574 8.004-6.5-1.925-7.235-5.713z" fill="#566859" class="C D E"/><path d="M137.092 166.218c-1.945 0-3.522-1.763-3.522-3.938s1.577-3.937 3.522-3.937 3.52 1.762 3.52 3.937-1.576 3.938-3.52 3.938z" class="B"/><path d="M133.977 159.528c-.247-.7.147-1.477.88-1.737s1.53.096 1.778.796-.147 1.478-.88 1.737-1.53-.096-1.778-.796z" class="C D E G"/><g class="B"><path d="M135.274 149.114c6.794-1.858 12.448 6.19 12.31 12.233-.082 3.565-1.973 7.638-5.076 9.694 3.87-1.62 6.29-6.326 6.382-10.37.144-6.32-5.345-13.016-11.08-12.35-.886.106-1.745.375-2.534.794z" fill-opacity=".05"/><path d="M134.352 155.048c3.75-1.066 7.072 2.17 7.75 5.666.557 2.87-.468 5.625-2.405 7.092 2.722-1.064 4.33-4.32 3.665-7.742-.735-3.79-3.975-6.345-7.236-5.712-.63.122-1.23.358-1.774.696z" class="F"/></g><path d="M122.58 152.784l.396 1.248c1.112-.382 2.684-.64 4.048.065l.396-1.173c-1.824-.94-3.597-.568-4.84-.14z" class="M"/><path d="M122.757 152.725l.22.69c1.112-.382 2.684-.64 4.048.065l.217-.645.18.088-.396 1.173c-1.364-.704-2.936-.447-4.048-.065l-.396-1.248.176-.06z" class="B H"/><path d="M167.508 156.788c-3.256-2.05-6.952-3.988-11.897-4.268-.85-.05-.924 1.27-.075 1.32 4.646.264 8.16 2.112 11.268 4.07.71.436 1.427-.665.704-1.12z" class="M"/><path opacity=".2" d="M167.78 157.126c-.14.393-.627.558-.975.34-3.106-1.957-6.622-3.804-11.268-4.07a.666.666 0 0 1-.573-.411c-.11.404.15.827.573.85 4.646.264 8.162 2.112 11.268 4.07.2.13.45.12.643.018.26-.153.437-.5.332-.797z" class="B"/><path opacity=".5" d="M127.022 154.864c-.038 6.102 3.426 16.433 12.542 17.432s20.887-4.224 16.522-17.776c-3.373-10.475-29.005-9.152-29.064.344z" fill="#8df7ff"/><path d="M156.545 154.17c1.037 3.5 1.094 6.497.41 9.013-2.022 7.452-10.578 10.32-17.59 9.55-8.557-.938-13.09-10.236-13.09-18.045 0-6.336 9.405-7.736 14.053-7.847 5.448-.13 14.362 1.067 16.218 7.328zm-29.04.52c0 7.17 4.078 15.953 11.994 16.82 6.396.7 14.407-1.793 16.267-8.648.612-2.253.583-5.014-.403-8.34-1.672-5.642-10.187-6.56-15.008-6.446-3.858.092-12.85 1.134-12.85 6.615z" class="M Q"/><g class="B H"><path d="M157.405 159.37c-.022 1.158-.176 2.238-.45 3.242-2.022 7.45-10.578 10.318-17.6 9.55-8.423-.923-12.948-9.947-13.088-17.678l-.003.205c0 7.8 4.534 17.107 13.1 18.045 7.013.768 15.57-2.1 17.6-9.55.317-1.167.474-2.438.45-3.814zm-29.905-4.875l-.004-.38c0-5.48 8.992-6.523 12.85-6.615 4.82-.114 13.336.804 15.008 6.446.595 2 .842 3.812.8 5.42-.03-1.46-.283-3.074-.8-4.85-1.672-5.642-10.187-6.56-15.008-6.446-3.812.1-12.638 1.1-12.846 6.422z"/></g><path d="M82.4932 156.776c3.256-2.05 6.952-3.988 11.8967-4.268.8487-.048.924 1.272.0753 1.32-4.646.264-8.1616 2.112-11.2684 4.07-.711.436-1.4266-.665-.7036-1.12z" class="M"/><path opacity=".2" d="M82.2218 157.114c.1388.393.627.558.974.34 3.107-1.957 6.6225-3.804 11.2684-4.07a.667.667 0 0 0 .5735-.411c.1108.404-.15.827-.5735.85-4.646.264-8.1615 2.112-11.2684 4.07-.209.132-.4488.12-.6424.018-.26-.153-.4367-.5-.3317-.797z" class="B"/><path opacity=".5" d="M122.98 154.852c.038 6.102-3.427 16.433-12.542 17.432s-20.8868-4.223-16.5225-17.776c3.373-10.474 29.0055-9.152 29.0645.344z" fill="#8df7ff"/><path d="M93.4558 154.157c-1.037 3.5-1.094 6.497-.411 9.013 2.0223 7.452 10.5783 10.32 17.5903 9.55 8.558-.937 13.092-10.235 13.092-18.044 0-6.337-9.405-7.737-14.053-7.847-5.448-.13-14.3625 1.067-16.2182 7.328zm29.0392.52c0 7.17-4.078 15.952-11.994 16.82-6.396.7-14.4068-1.793-16.2673-8.648-.6114-2.253-.5827-5.014.4033-8.34 1.6724-5.643 10.187-6.56 15.008-6.446 3.858.09 12.85 1.134 12.85 6.615z" class="M Q"/><g class="B"><path d="M92.596 159.357c.0218 1.158.1765 2.238.4488 3.24 2.0223 7.452 10.5783 10.32 17.5903 9.55 8.424-.923 12.95-9.948 13.1-17.678l.003.205c0 7.8-4.534 17.107-13.092 18.045-7.012.768-15.568-2.1-17.5903-9.55-.3167-1.166-.4743-2.437-.4488-3.813zm29.894-4.874l.004-.38c0-5.48-8.992-6.523-12.85-6.615-4.82-.115-13.3356.804-15.008 6.446-.5954 2-.8418 3.812-.8088 5.42.0294-1.46.283-3.074.8088-4.85 1.6724-5.642 10.187-6.56 15.008-6.446 3.812.1 12.637 1.1 12.846 6.422z" class="H"/><path d="M115.54 170.976c0 3.36 4.35 7.436 9.515 7.392 4.762-.042 9.405-4.072 9.405-7.382 0-6.694-18.92-6.795-18.92-.01z" class="J"/></g><path d="M115.408 170.184c0 3.36 4.4 7.436 9.648 7.392 4.828-.042 9.536-4.072 9.536-7.382 0-2.664-5.554-5.006-9.536-4.972-3.697.034-9.648 1.81-9.648 4.962z" class="I"/><path d="M115.478 169.602c1.837 2.41 5.485 4.442 9.585 4.4 3.793-.03 7.52-2.073 9.42-4.468.072.214.11.43.11.65 0 3.3-4.708 7.34-9.536 7.382-5.238.044-9.648-4.032-9.648-7.392 0-.2.024-.393.07-.582z" class="B H"/></g><defs><clipPath id="A"><rect width="250" height="444.667" rx="20" class="G"/></clipPath><clipPath id="B"><path transform="translate(16 65)" d="M0 0h12.8v16H0z" class="G"/></clipPath></defs></svg>