<svg xmlns="http://www.w3.org/2000/svg" width="4001" height="4000" fill="none" xmlns:v="https://vecta.io/nano"><path fill-rule="evenodd" d="M2084.96 735.326c644.55 29.065 654.65 402.094 730.65 937.224 65.87 202.95 139.92 606.65 187.8 990.54l446.75-133.5c95.15-28.44 139.24 119.1 44.1 147.55l-472.82 141.3 7.5 73.07c-28.3-3.6-101.6-9.6-197.2-16.38l-134.9 40.32c51.22 23.76 93.53 68.44 105.6 124.06 27.3 125.97-90.9 238.92-204.37 142.35-25.02-20.8 7.92-59.46 32.42-38.06 75.64 63.35 141.2-10.06 123.05-93.72-11.75-54.23-65.6-93.57-118.5-101.77-60.67-9.37-119.05 23.56-160.03 65.8 3.6 24.82 3.4 49.62 1.34 74.54 34.38 63.25-2.28 186.93-90.1 170-36.02 41.84-97.14 34.37-144.8 21.83-9.03 10.32-18.74 20.14-29.07 29.38 8.17 33.47 13.1 67.92 18.58 101.93 46.77 5.97 109.1 24.4 116.8 78.95 5.83 41.26-29.02 60.03-60.75 64.3-36.2 4.87-71.05-11.18-107.2-11.18-30.44 0-59.08 12.23-89.38 12.15-55.63-.25-90.6-69-49.1-111.15-1.1-18.12-3.07-36.14-5.86-54.06-23.1 2.76-46.6 2.97-69.4.44-2.77 17.78-4.72 35.65-5.8 53.63 40.5 41.12 7.18 110.9-49.12 111.14h-.35c-32 0-50.6-12.15-89.02-12.15-43.98 0-56.48 12.15-92.98 12.15s-87.84-20-73-74.8c12.1-44.7 64.85-63.04 114.83-69.42 5.43-33.8 10.46-68.65 18.56-101.87-31.18-28.22-57.24-62.57-75.7-99.57l-50.9 15.2c-.05.02-.1.03-.15.05-20.38 32.48-62.63 43.92-96.44 24.64l-209.73 62.68c-5.26 15.95-70.4 31.54-75.82 13.43-28.73-7.8-53.7-106.37-37.3-124.86-5.4-18.12 57.6-40.83 70.75-30.38l201.97-60.35c2.35-7.6 5.5-15 9.36-22.13-5.8-70.06 8.15-138.45 39.72-201.4-17.53-3.95-31.42-17.47-35.9-34.78l-556.372 39.07C1012.7 2500.7 1096.28 1997.5 1186 1672.6c76-535.1 86.05-908.192 730.6-937.263 2.2-46.8 163.08-43.996 168.36-.001zM1683.68 3056.45l-34.53 10.3c-1.82-64.8 25.96-126.9 61.63-179.26-15.32 54.38-23.88 112.7-27.1 168.95zm665.02-36.97l-32.97 9.85c7.33 73.57-2 142.87-41.84 207.26 21.86 4.15 49.47 7.83 68.58-6.06-17.83-24.08-21.65-58.53-1.68-85.9-8.35-23.72-2.96-48.8 11.07-67.47 1.47-18.84.36-38.13-3.16-57.67z" fill="#262c30" stroke="#333" stroke-width="5"/></svg>