<svg xmlns="http://www.w3.org/2000/svg" xmlns:xlink="http://www.w3.org/1999/xlink" width="780" height="268" fill="none" xmlns:v="https://vecta.io/nano"><style><![CDATA[.B{fill:#000}.C{stroke:#333}.D{stroke-width:.25}.E{stroke-miterlimit:10}.F{fill-opacity:.15}.G{fill-opacity:.1}.H{fill:#f7c394}.I{fill:#fff}.J{fill:#5fa9df}.K{fill:#fbdd11}.L{fill:#f66}.M{fill-opacity:.25}.N{fill:#ffc9a1}.O{fill:#999}.P{fill-opacity:.05}.Q{fill:#5050d8}.R{fill-opacity:.2}.S{stroke-linejoin:round}.T{fill:#ffcd98}.U{fill:#7a5d43}.V{fill:#634b37}.W{fill-rule:evenodd}]]></style><g class="B"><path d="M5.292 147H2.484v-25.2h2.808v10.152h.432c.624-1.08 1.488-1.896 2.592-2.448 1.104-.576 2.304-.864 3.6-.864 1.104 0 2.148.204 3.132.612s1.848.996 2.592 1.764c.768.768 1.368 1.716 1.8 2.844.456 1.128.684 2.412.684 3.852v.72c0 1.464-.216 2.76-.648 3.888s-1.032 2.076-1.8 2.844c-.744.768-1.62 1.356-2.628 1.764-1.008.384-2.076.576-3.204.576-.576 0-1.164-.072-1.764-.216-.6-.12-1.176-.312-1.728-.576a8.905 8.905 0 0 1-1.476-1.008c-.456-.408-.84-.888-1.152-1.44h-.432V147zm5.976-2.16c.864 0 1.656-.144 2.376-.432.72-.312 1.344-.744 1.872-1.296.552-.552.972-1.224 1.26-2.016.312-.792.468-1.68.468-2.664v-.72c0-.96-.156-1.824-.468-2.592-.288-.792-.708-1.464-1.26-2.016-.528-.576-1.164-1.02-1.908-1.332-.72-.312-1.5-.468-2.34-.468s-1.62.168-2.34.504c-.72.312-1.356.756-1.908 1.332-.528.576-.948 1.272-1.26 2.088-.312.792-.468 1.668-.468 2.628v.432c0 .984.156 1.884.468 2.7.312.792.732 1.476 1.26 2.052.552.576 1.188 1.02 1.908 1.332s1.5.468 2.34.468zm26.867-.864h-.432c-.576 1.2-1.38 2.088-2.412 2.664-1.008.576-2.076.864-3.204.864-1.176 0-2.268-.192-3.276-.576-1.008-.408-1.896-.996-2.664-1.764-.744-.792-1.332-1.752-1.764-2.88s-.648-2.436-.648-3.924v-.576c0-1.464.216-2.76.648-3.888s1.02-2.076 1.764-2.844c.768-.792 1.656-1.392 2.664-1.8s2.076-.612 3.204-.612c1.224 0 2.328.276 3.312.828 1.008.528 1.8 1.356 2.376 2.484h.432v-2.808h2.808v14.184c0 .72.324 1.08.972 1.08h.9V147h-1.908c-.816 0-1.488-.264-2.016-.792-.504-.528-.756-1.2-.756-2.016v-.216zm-5.76.864c.84 0 1.608-.156 2.304-.468.72-.312 1.332-.756 1.836-1.332s.9-1.26 1.188-2.052c.288-.816.432-1.716.432-2.7v-.432c0-.96-.144-1.836-.432-2.628-.288-.816-.696-1.512-1.224-2.088-.504-.576-1.116-1.02-1.836-1.332-.696-.336-1.452-.504-2.268-.504-.84 0-1.608.156-2.304.468s-1.308.756-1.836 1.332c-.504.552-.9 1.236-1.188 2.052-.288.792-.432 1.668-.432 2.628v.576c0 2.04.528 3.636 1.584 4.788 1.08 1.128 2.472 1.692 4.176 1.692zm17.65 2.16h-2.808v-17.856h2.808v3.024h.432c1.104-2.352 3.024-3.528 5.76-3.528 2.064 0 3.708.648 4.932 1.944 1.224 1.272 1.836 3.192 1.836 5.76V147h-2.808v-10.08c0-1.872-.42-3.276-1.26-4.212s-1.98-1.404-3.42-1.404c-1.704 0-3.048.588-4.032 1.764-.96 1.152-1.44 2.7-1.44 4.644V147zm18.73 1.728h16.776v2.592H68.757v-2.592zm27.947-14.256v-4.176l8.208-5.256v-.432H90.656V121.8h16.848v4.608l-8.208 5.256v.432h1.44c.96 0 1.884.156 2.772.468s1.668.768 2.34 1.368c.696.6 1.248 1.344 1.656 2.232.432.864.648 1.872.648 3.024v.648c0 1.08-.216 2.088-.648 3.024s-1.032 1.752-1.8 2.448c-.768.672-1.68 1.212-2.736 1.62-1.032.384-2.16.576-3.384.576-1.416 0-2.688-.216-3.816-.648s-2.088-1.02-2.88-1.764c-.792-.768-1.404-1.656-1.836-2.664-.408-1.032-.612-2.124-.612-3.276v-1.944h3.024v1.728c0 .912.144 1.728.432 2.448.312.696.732 1.296 1.26 1.8.552.48 1.2.852 1.944 1.116s1.548.396 2.412.396c.792 0 1.524-.132 2.196-.396.696-.264 1.296-.624 1.8-1.08a5.385 5.385 0 0 0 1.188-1.656c.288-.648.432-1.332.432-2.052v-.216c0-1.512-.48-2.688-1.44-3.528-.96-.864-2.16-1.296-3.6-1.296h-3.384zm29.35-5.328h3.204l-5.256 8.496v.432L129.7 147h-3.276l-4.86-7.848h-.648l-4.86 7.848h-3.276l5.688-8.928v-.432l-5.256-8.496h3.204l4.5 7.416h.648l4.5-7.416zm23.015 15.12h-.432c-.312.552-.696 1.032-1.152 1.44-.432.384-.912.72-1.44 1.008-.504.264-1.044.456-1.62.576-.552.144-1.092.216-1.62.216-1.2 0-2.316-.204-3.348-.612s-1.944-.996-2.736-1.764c-.768-.768-1.38-1.716-1.836-2.844-.432-1.152-.648-2.46-.648-3.924v-.576c0-1.44.228-2.724.684-3.852.456-1.152 1.068-2.112 1.836-2.88a7.62 7.62 0 0 1 2.7-1.8c1.032-.408 2.124-.612 3.276-.612 1.224 0 2.352.288 3.384.864 1.056.552 1.896 1.368 2.52 2.448h.432v-2.808h2.808V154.2h-2.808v-9.936zm-5.976.576c.84 0 1.62-.156 2.34-.468s1.344-.756 1.872-1.332c.552-.576.984-1.26 1.296-2.052.312-.816.468-1.716.468-2.7v-.432c0-.96-.156-1.836-.468-2.628-.312-.816-.744-1.512-1.296-2.088-.528-.576-1.164-1.02-1.908-1.332-.72-.336-1.488-.504-2.304-.504-.84 0-1.632.156-2.376.468-.72.312-1.356.756-1.908 1.332-.528.576-.948 1.26-1.26 2.052-.288.792-.432 1.668-.432 2.628v.576c0 1.008.144 1.908.432 2.7.312.792.732 1.476 1.26 2.052.552.552 1.188.984 1.908 1.296.72.288 1.512.432 2.376.432zm27.515-15.696c0-1.56-.48-2.808-1.44-3.744-.96-.96-2.292-1.44-3.996-1.44-.816 0-1.572.144-2.268.432-.672.288-1.26.708-1.764 1.26-.48.528-.864 1.164-1.152 1.908-.264.744-.396 1.56-.396 2.448v3.744h.432c.576-1.056 1.392-1.884 2.448-2.484 1.08-.6 2.28-.9 3.6-.9 1.152 0 2.22.192 3.204.576.984.36 1.824.9 2.52 1.62.72.72 1.272 1.596 1.656 2.628.408 1.008.612 2.16.612 3.456v.432c0 1.248-.228 2.388-.684 3.42-.432 1.032-1.044 1.92-1.836 2.664-.768.744-1.692 1.32-2.772 1.728-1.056.408-2.208.612-3.456.612s-2.412-.204-3.492-.612c-1.056-.408-1.98-.972-2.772-1.692-.768-.744-1.38-1.62-1.836-2.628-.432-1.032-.648-2.16-.648-3.384v-9.18c0-1.32.228-2.52.684-3.6s1.08-1.992 1.872-2.736c.792-.768 1.704-1.356 2.736-1.764 1.056-.408 2.184-.612 3.384-.612s2.316.18 3.348.54 1.92.888 2.664 1.584c.744.672 1.32 1.5 1.728 2.484.432.96.648 2.04.648 3.24h-3.024zm-5.292 15.696c.864 0 1.644-.132 2.34-.396.72-.288 1.332-.684 1.836-1.188s.888-1.104 1.152-1.8.396-1.464.396-2.304v-.432c0-.84-.144-1.608-.432-2.304s-.684-1.296-1.188-1.8-1.116-.888-1.836-1.152c-.696-.288-1.452-.432-2.268-.432s-1.572.144-2.268.432-1.308.684-1.836 1.188c-.504.504-.9 1.092-1.188 1.764s-.432 1.392-.432 2.16v.684c0 .792.132 1.536.396 2.232.264.672.648 1.26 1.152 1.764s1.104.9 1.8 1.188c.72.264 1.512.396 2.376.396zm19.703-21.024c0-.696.24-1.284.72-1.764.504-.504 1.104-.756 1.8-.756s1.284.252 1.764.756c.504.48.756 1.068.756 1.764s-.252 1.296-.756 1.8c-.48.48-1.068.72-1.764.72s-1.296-.24-1.8-.72c-.48-.504-.72-1.104-.72-1.8zm-5.112 20.592h6.264v-12.672h-5.616v-2.592h8.424v15.264h5.832V147h-14.904v-2.592zm27-9.936v-4.176l8.208-5.256v-.432H200.87V121.8h16.848v4.608l-8.208 5.256v.432h1.44c.96 0 1.884.156 2.772.468s1.668.768 2.34 1.368c.696.6 1.248 1.344 1.656 2.232.432.864.648 1.872.648 3.024v.648c0 1.08-.216 2.088-.648 3.024s-1.032 1.752-1.8 2.448c-.768.672-1.68 1.212-2.736 1.62-1.032.384-2.16.576-3.384.576-1.416 0-2.688-.216-3.816-.648s-2.088-1.02-2.88-1.764c-.792-.768-1.404-1.656-1.836-2.664-.408-1.032-.612-2.124-.612-3.276v-1.944h3.024v1.728c0 .912.144 1.728.432 2.448.312.696.732 1.296 1.26 1.8.552.48 1.2.852 1.944 1.116s1.548.396 2.412.396c.792 0 1.524-.132 2.196-.396.696-.264 1.296-.624 1.8-1.08a5.385 5.385 0 0 0 1.188-1.656c.288-.648.432-1.332.432-2.052v-.216c0-1.512-.48-2.688-1.44-3.528-.96-.864-2.16-1.296-3.6-1.296h-3.384zM225.722 147h-2.808v-25.2h2.808v10.152h.432c.624-1.08 1.488-1.896 2.592-2.448 1.104-.576 2.304-.864 3.6-.864 1.104 0 2.148.204 3.132.612s1.848.996 2.592 1.764c.768.768 1.368 1.716 1.8 2.844.456 1.128.684 2.412.684 3.852v.72c0 1.464-.216 2.76-.648 3.888s-1.032 2.076-1.8 2.844c-.744.768-1.62 1.356-2.628 1.764-1.008.384-2.076.576-3.204.576-.576 0-1.164-.072-1.764-.216-.6-.12-1.176-.312-1.728-.576a8.905 8.905 0 0 1-1.476-1.008c-.456-.408-.84-.888-1.152-1.44h-.432V147zm5.976-2.16c.864 0 1.656-.144 2.376-.432.72-.312 1.344-.744 1.872-1.296.552-.552.972-1.224 1.26-2.016.312-.792.468-1.68.468-2.664v-.72c0-.96-.156-1.824-.468-2.592-.288-.792-.708-1.464-1.26-2.016-.528-.576-1.164-1.02-1.908-1.332-.72-.312-1.5-.468-2.34-.468s-1.62.168-2.34.504c-.72.312-1.356.756-1.908 1.332-.528.576-.948 1.272-1.26 2.088-.312.792-.468 1.668-.468 2.628v.432c0 .984.156 1.884.468 2.7.312.792.732 1.476 1.26 2.052.552.576 1.188 1.02 1.908 1.332s1.5.468 2.34.468zM60.292 221h-2.808v-25.2h2.808v10.152h.432c.624-1.08 1.488-1.896 2.592-2.448 1.104-.576 2.304-.864 3.6-.864 1.104 0 2.148.204 3.132.612s1.848.996 2.592 1.764c.768.768 1.368 1.716 1.8 2.844.456 1.128.684 2.412.684 3.852v.72c0 1.464-.216 2.76-.648 3.888s-1.032 2.076-1.8 2.844c-.744.768-1.62 1.356-2.628 1.764-1.008.384-2.076.576-3.204.576-.576 0-1.164-.072-1.764-.216-.6-.12-1.176-.312-1.728-.576a8.905 8.905 0 0 1-1.476-1.008c-.456-.408-.84-.888-1.152-1.44h-.432V221zm5.976-2.16c.864 0 1.656-.144 2.376-.432.72-.312 1.344-.744 1.872-1.296.552-.552.972-1.224 1.26-2.016.312-.792.468-1.68.468-2.664v-.72c0-.96-.156-1.824-.468-2.592-.288-.792-.708-1.464-1.26-2.016-.528-.576-1.164-1.02-1.908-1.332-.72-.312-1.5-.468-2.34-.468s-1.62.168-2.34.504c-.72.312-1.356.756-1.908 1.332-.528.576-.948 1.272-1.26 2.088-.312.792-.468 1.668-.468 2.628v.432c0 .984.156 1.884.468 2.7.312.792.732 1.476 1.26 2.052.552.576 1.188 1.02 1.908 1.332s1.5.468 2.34.468zm26.867-.864h-.432c-.576 1.2-1.38 2.088-2.412 2.664-1.008.576-2.076.864-3.204.864-1.176 0-2.268-.192-3.276-.576-1.008-.408-1.896-.996-2.664-1.764-.744-.792-1.332-1.752-1.764-2.88s-.648-2.436-.648-3.924v-.576c0-1.464.216-2.76.648-3.888s1.02-2.076 1.764-2.844c.768-.792 1.656-1.392 2.664-1.8s2.076-.612 3.204-.612c1.224 0 2.328.276 3.312.828 1.008.528 1.8 1.356 2.376 2.484h.432v-2.808h2.808v14.184c0 .72.324 1.08.972 1.08h.9V221h-1.908c-.816 0-1.488-.264-2.016-.792-.504-.528-.756-1.2-.756-2.016v-.216zm-5.76.864c.84 0 1.608-.156 2.304-.468.72-.312 1.332-.756 1.836-1.332s.9-1.26 1.188-2.052c.288-.816.432-1.716.432-2.7v-.432c0-.96-.144-1.836-.432-2.628-.288-.816-.696-1.512-1.224-2.088-.504-.576-1.116-1.02-1.836-1.332-.696-.336-1.452-.504-2.268-.504-.84 0-1.608.156-2.304.468s-1.308.756-1.836 1.332c-.504.552-.9 1.236-1.188 2.052-.288.792-.432 1.668-.432 2.628v.576c0 2.04.528 3.636 1.584 4.788 1.08 1.128 2.472 1.692 4.176 1.692zm17.65 2.16h-2.808v-17.856h2.808v3.024h.432c1.104-2.352 3.024-3.528 5.76-3.528 2.064 0 3.708.648 4.932 1.944 1.224 1.272 1.836 3.192 1.836 5.76V221h-2.808v-10.08c0-1.872-.42-3.276-1.26-4.212s-1.98-1.404-3.42-1.404c-1.704 0-3.048.588-4.032 1.764-.96 1.152-1.44 2.7-1.44 4.644V221zm18.73 1.728h16.776v2.592h-16.776v-2.592zm29.1-4.536v-21.06h-.432l-4.14 9.468h-2.988v-.216l4.716-10.584h5.868v22.392h7.128V221h-17.28v-2.808h7.128zm18.083-4.536c0 1.56.48 2.82 1.44 3.78.96.936 2.292 1.404 3.996 1.404.816 0 1.56-.144 2.232-.432.696-.288 1.284-.696 1.764-1.224.504-.552.888-1.188 1.152-1.908.288-.744.432-1.572.432-2.484v-3.744h-.432c-.552 1.056-1.344 1.884-2.376 2.484s-2.232.9-3.6.9c-1.176 0-2.256-.18-3.24-.54s-1.836-.888-2.556-1.584c-.72-.72-1.284-1.584-1.692-2.592-.384-1.008-.576-2.16-.576-3.456v-.432c0-1.248.216-2.388.648-3.42.432-1.056 1.032-1.956 1.8-2.7.792-.768 1.716-1.356 2.772-1.764 1.08-.432 2.256-.648 3.528-.648s2.436.216 3.492.648c1.08.408 2.004.984 2.772 1.728.792.744 1.404 1.632 1.836 2.664s.648 2.16.648 3.384v9.072c0 1.344-.228 2.556-.684 3.636-.432 1.056-1.044 1.968-1.836 2.736-.768.744-1.68 1.32-2.736 1.728s-2.196.612-3.42.612-2.352-.18-3.384-.54-1.92-.876-2.664-1.548c-.744-.696-1.32-1.524-1.728-2.484-.408-.984-.612-2.076-.612-3.276h3.024zm5.292-15.696c-.864 0-1.656.144-2.376.432-.696.288-1.296.696-1.8 1.224s-.888 1.152-1.152 1.872c-.264.696-.396 1.452-.396 2.268v.432c0 .84.144 1.608.432 2.304.288.672.684 1.26 1.188 1.764.504.48 1.104.852 1.8 1.116s1.464.396 2.304.396c.816 0 1.572-.132 2.268-.396.696-.288 1.296-.672 1.8-1.152.528-.48.936-1.056 1.224-1.728s.432-1.392.432-2.16v-.684c0-.792-.132-1.536-.396-2.232s-.648-1.296-1.152-1.8c-.504-.528-1.116-.936-1.836-1.224-.696-.288-1.476-.432-2.34-.432zm13.15 5.184h6.48v2.376h.432c.456-.984 1.104-1.704 1.944-2.16.84-.48 1.8-.72 2.88-.72 1.8 0 3.252.588 4.356 1.764s1.692 2.892 1.764 5.148l-2.952.432c0-1.656-.396-2.844-1.188-3.564-.792-.744-1.764-1.116-2.916-1.116-.744 0-1.392.144-1.944.432-.528.288-.972.684-1.332 1.188s-.624 1.092-.792 1.764-.252 1.392-.252 2.16v7.56h4.536V221H188.95v-2.592h4.104v-12.672h-3.672v-2.592zm36 14.832h-.432c-.576 1.2-1.38 2.088-2.412 2.664-1.008.576-2.076.864-3.204.864-1.176 0-2.268-.192-3.276-.576-1.008-.408-1.896-.996-2.664-1.764-.744-.792-1.332-1.752-1.764-2.88s-.648-2.436-.648-3.924v-.576c0-1.464.216-2.76.648-3.888s1.02-2.076 1.764-2.844c.768-.792 1.656-1.392 2.664-1.8s2.076-.612 3.204-.612c1.224 0 2.328.276 3.312.828 1.008.528 1.8 1.356 2.376 2.484h.432v-2.808h2.808v14.184c0 .72.324 1.08.972 1.08h.9V221h-1.908c-.816 0-1.488-.264-2.016-.792-.504-.528-.756-1.2-.756-2.016v-.216zm-5.76.864c.84 0 1.608-.156 2.304-.468.72-.312 1.332-.756 1.836-1.332s.9-1.26 1.188-2.052c.288-.816.432-1.716.432-2.7v-.432c0-.96-.144-1.836-.432-2.628-.288-.816-.696-1.512-1.224-2.088-.504-.576-1.116-1.02-1.836-1.332-.696-.336-1.452-.504-2.268-.504-.84 0-1.608.156-2.304.468s-1.308.756-1.836 1.332c-.504.552-.9 1.236-1.188 2.052-.288.792-.432 1.668-.432 2.628v.576c0 2.04.528 3.636 1.584 4.788 1.08 1.128 2.472 1.692 4.176 1.692zm20.243-10.368v-4.176l8.208-5.256v-.432h-14.256V195.8h16.848v4.608l-8.208 5.256v.432h1.44c.96 0 1.884.156 2.772.468s1.668.768 2.34 1.368c.696.6 1.248 1.344 1.656 2.232.432.864.648 1.872.648 3.024v.648c0 1.08-.216 2.088-.648 3.024s-1.032 1.752-1.8 2.448c-.768.672-1.68 1.212-2.736 1.62-1.032.384-2.16.576-3.384.576-1.416 0-2.688-.216-3.816-.648s-2.088-1.02-2.88-1.764c-.792-.768-1.404-1.656-1.836-2.664-.408-1.032-.612-2.124-.612-3.276v-1.944h3.024v1.728c0 .912.144 1.728.432 2.448.312.696.732 1.296 1.26 1.8.552.48 1.2.852 1.944 1.116s1.548.396 2.412.396c.792 0 1.524-.132 2.196-.396.696-.264 1.296-.624 1.8-1.08a5.385 5.385 0 0 0 1.188-1.656c.288-.648.432-1.332.432-2.052v-.216c0-1.512-.48-2.688-1.44-3.528-.96-.864-2.16-1.296-3.6-1.296h-3.384z" fill-opacity=".35"/><path d="M60.292 74h-2.808V48.8h2.808v10.152h.432c.624-1.08 1.488-1.896 2.592-2.448 1.104-.576 2.304-.864 3.6-.864 1.104 0 2.148.204 3.132.612s1.848.996 2.592 1.764c.768.768 1.368 1.716 1.8 2.844.456 1.128.684 2.412.684 3.852v.72c0 1.464-.216 2.76-.648 3.888s-1.032 2.076-1.8 2.844c-.744.768-1.62 1.356-2.628 1.764-1.008.384-2.076.576-3.204.576-.576 0-1.164-.072-1.764-.216-.6-.12-1.176-.312-1.728-.576a8.905 8.905 0 0 1-1.476-1.008c-.456-.408-.84-.888-1.152-1.44h-.432V74zm5.976-2.16c.864 0 1.656-.144 2.376-.432.72-.312 1.344-.744 1.872-1.296.552-.552.972-1.224 1.26-2.016.312-.792.468-1.68.468-2.664v-.72c0-.96-.156-1.824-.468-2.592-.288-.792-.708-1.464-1.26-2.016-.528-.576-1.164-1.02-1.908-1.332-.72-.312-1.5-.468-2.34-.468s-1.62.168-2.34.504c-.72.312-1.356.756-1.908 1.332-.528.576-.948 1.272-1.26 2.088-.312.792-.468 1.668-.468 2.628v.432c0 .984.156 1.884.468 2.7.312.792.732 1.476 1.26 2.052.552.576 1.188 1.02 1.908 1.332s1.5.468 2.34.468zm26.867-.864h-.432c-.576 1.2-1.38 2.088-2.412 2.664-1.008.576-2.076.864-3.204.864-1.176 0-2.268-.192-3.276-.576-1.008-.408-1.896-.996-2.664-1.764-.744-.792-1.332-1.752-1.764-2.88s-.648-2.436-.648-3.924v-.576c0-1.464.216-2.76.648-3.888s1.02-2.076 1.764-2.844c.768-.792 1.656-1.392 2.664-1.8s2.076-.612 3.204-.612c1.224 0 2.328.276 3.312.828 1.008.528 1.8 1.356 2.376 2.484h.432v-2.808h2.808v14.184c0 .72.324 1.08.972 1.08h.9V74h-1.908c-.816 0-1.488-.264-2.016-.792-.504-.528-.756-1.2-.756-2.016v-.216zm-5.76.864c.84 0 1.608-.156 2.304-.468.72-.312 1.332-.756 1.836-1.332s.9-1.26 1.188-2.052c.288-.816.432-1.716.432-2.7v-.432c0-.96-.144-1.836-.432-2.628-.288-.816-.696-1.512-1.224-2.088-.504-.576-1.116-1.02-1.836-1.332-.696-.336-1.452-.504-2.268-.504-.84 0-1.608.156-2.304.468s-1.308.756-1.836 1.332c-.504.552-.9 1.236-1.188 2.052-.288.792-.432 1.668-.432 2.628v.576c0 2.04.528 3.636 1.584 4.788 1.08 1.128 2.472 1.692 4.176 1.692zm17.65 2.16h-2.808V56.144h2.808v3.024h.432c1.104-2.352 3.024-3.528 5.76-3.528 2.064 0 3.708.648 4.932 1.944 1.224 1.272 1.836 3.192 1.836 5.76V74h-2.808V63.92c0-1.872-.42-3.276-1.26-4.212s-1.98-1.404-3.42-1.404c-1.704 0-3.048.588-4.032 1.764-.96 1.152-1.44 2.7-1.44 4.644V74zm18.73 1.728h16.776v2.592h-16.776v-2.592zm29.1-4.536v-21.06h-.432l-4.14 9.468h-2.988v-.216l4.716-10.584h5.868v22.392h7.128V74h-17.28v-2.808h7.128zm28.45-.216h-.432c-.576 1.2-1.38 2.088-2.412 2.664-1.008.576-2.076.864-3.204.864-1.176 0-2.268-.192-3.276-.576-1.008-.408-1.896-.996-2.664-1.764-.744-.792-1.332-1.752-1.764-2.88s-.648-2.436-.648-3.924v-.576c0-1.464.216-2.76.648-3.888s1.02-2.076 1.764-2.844c.768-.792 1.656-1.392 2.664-1.8s2.076-.612 3.204-.612c1.224 0 2.328.276 3.312.828 1.008.528 1.8 1.356 2.376 2.484h.432v-2.808h2.808v14.184c0 .72.324 1.08.972 1.08h.9V74h-1.908c-.816 0-1.488-.264-2.016-.792-.504-.528-.756-1.2-.756-2.016v-.216zm-5.76.864c.84 0 1.608-.156 2.304-.468.72-.312 1.332-.756 1.836-1.332s.9-1.26 1.188-2.052c.288-.816.432-1.716.432-2.7v-.432c0-.96-.144-1.836-.432-2.628-.288-.816-.696-1.512-1.224-2.088-.504-.576-1.116-1.02-1.836-1.332-.696-.336-1.452-.504-2.268-.504-.84 0-1.608.156-2.304.468s-1.308.756-1.836 1.332c-.504.552-.9 1.236-1.188 2.052-.288.792-.432 1.668-.432 2.628v.576c0 2.04.528 3.636 1.584 4.788 1.08 1.128 2.472 1.692 4.176 1.692zm17.65 2.16H190.4V48.8h2.808v10.584h.432c.552-1.152 1.32-2.064 2.304-2.736 1.008-.672 2.232-1.008 3.672-1.008 1.944 0 3.516.648 4.716 1.944 1.224 1.272 1.836 3.192 1.836 5.76V74h-2.808V63.92c0-1.872-.42-3.276-1.26-4.212s-1.98-1.404-3.42-1.404c-1.704 0-3.048.588-4.032 1.764-.96 1.152-1.44 2.7-1.44 4.644V74zm32.195-3.024h-.432c-.576 1.2-1.38 2.088-2.412 2.664-1.008.576-2.076.864-3.204.864-1.176 0-2.268-.192-3.276-.576-1.008-.408-1.896-.996-2.664-1.764-.744-.792-1.332-1.752-1.764-2.88s-.648-2.436-.648-3.924v-.576c0-1.464.216-2.76.648-3.888s1.02-2.076 1.764-2.844c.768-.792 1.656-1.392 2.664-1.8s2.076-.612 3.204-.612c1.224 0 2.328.276 3.312.828 1.008.528 1.8 1.356 2.376 2.484h.432v-2.808h2.808v14.184c0 .72.324 1.08.972 1.08h.9V74h-1.908c-.816 0-1.488-.264-2.016-.792-.504-.528-.756-1.2-.756-2.016v-.216zm-5.76.864c.84 0 1.608-.156 2.304-.468.72-.312 1.332-.756 1.836-1.332s.9-1.26 1.188-2.052c.288-.816.432-1.716.432-2.7v-.432c0-.96-.144-1.836-.432-2.628-.288-.816-.696-1.512-1.224-2.088-.504-.576-1.116-1.02-1.836-1.332-.696-.336-1.452-.504-2.268-.504-.84 0-1.608.156-2.304.468s-1.308.756-1.836 1.332c-.504.552-.9 1.236-1.188 2.052-.288.792-.432 1.668-.432 2.628v.576c0 2.04.528 3.636 1.584 4.788 1.08 1.128 2.472 1.692 4.176 1.692zM249.92 74h-5.184l-2.16-16.56h-.432L239.984 74H234.8l-2.808-17.856h2.88l2.376 16.56h.432l2.088-16.56h5.184l2.088 16.56h.432l2.376-16.56h2.88L249.92 74z" fill-opacity=".35"/></g><path d="M592.756 161.532c-2.54-.37-5.758-1.613-9.843-3.8-.594-.317-.833-1.092-.513-1.692.318-.593 1.093-.833 1.692-.512 3.773 2.018 6.81 3.206 9.025 3.53 1.447.21 2.488.05 3.094-.482.68-.596.62-1.65.442-3.62-.21-2.306-.468-5.176.99-8.475 2.2-4.986 7.68-9.727 13.454-8.835 3.667.568 7.18 3.31 7.987 7.03.686 3.168-.3 7.51-3.677 8.722-2.238.8-4.796-.118-6.542-1.604-.522-.434-.597-1.25-.153-1.772.44-.517 1.258-.582 1.774-.13.022.018 2.183 1.832 4.075 1.153 2.142-.77 2.488-3.948 2.078-5.84-.588-2.712-3.28-4.68-5.926-5.09-4.642-.716-9.04 3.425-10.786 7.375-1.195 2.708-.978 5.116-.786 7.24.2 2.192.386 4.263-1.283 5.725-1.383 1.22-3.354 1.34-5.1 1.077z" class="C D E J"/><path d="M618.332 145.277c.553 2.55.06 5.727-1.9 7.604 2.57-1.685 3.254-5.378 2.64-8.204-.806-3.72-4.32-6.462-7.986-7.03-3.313-.512-6.6.928-9.077 3.04 5.706-4.038 14.664-3.018 16.313 4.6zm-3.452 5.626c-1.352 1.572-3.78.763-5.145-.4a1.241 1.241 0 0 0-.547-.27 1.256 1.256 0 0 0-.609.021c.2-.365.582-.612.996-.645a1.245 1.245 0 0 1 .91.294c1.104.975 2.992 1.76 4.395 1.012zm-32.205 4.772c.175-.15.775-.45 1.15-.275l1.236.602c2.47 1.22 6.374 3.148 9.2 3.148 2.5 0 2.725-1.25 2.375-4.55l.153.626c.48 1.887 1.204 4.724-2.528 4.724-4.075 0-10.44-3.528-11.575-4.275z" class="B M"/><path d="M558.35 154.35c1.825 0 3.283-1.628 3.102-3.42-.27-3.176.93-6.61 3.297-9.92 2.153-3.012 4.46-4.663 2.686-6.6s-5.778.197-7.77 2.975c-3.286 4.596-4.86 9.456-4.432 14.184.16 1.574 1.292 2.79 3.117 2.79z" class="C D E J"/><path d="M556.654 149.958c-.02-5.613 4.48-13.883 9.756-16.208-6.5-1.05-12.25 11.675-11.136 17.59.36-.59.986-1.164 1.38-1.38z" class="B F"/><path d="M576.97 169.326c.25-4.354 1.37-7.72 2.36-10.34s2.12-7.235-2.128-8.3c-6.075-1.525-9.416 12.706-9.665 17.047-.147 2.553 1.84 5.516 4.42 5.664 2.374.115 4.872-1.6 5.014-4.07z" class="C D E J"/><g class="B F"><use xlink:href="#C"/><path d="M568.275 163.25c2.388 2.215 5.444 3.457 8.9 3.925l.125-.85c-3.43-.444-6.4-1.88-8.8-4.05-.1.3-.18.764-.225.975z"/></g><path d="M581.032 169.326c-.25-4.354-1.37-7.72-2.358-10.34s-2.12-7.235 2.128-8.3c6.075-1.525 9.415 12.706 9.665 17.047.146 2.553-1.84 5.516-4.42 5.664-2.374.115-4.873-1.6-5.015-4.07z" class="C D E J"/><g class="B F"><use xlink:href="#D"/><path d="M589.727 163.25c-2.388 2.215-5.444 3.457-8.9 3.925l-.125-.85c3.43-.444 6.4-1.88 8.8-4.05.1.3.18.764.225.975z"/></g><path d="M599.65 154.35c-1.825 0-3.283-1.628-3.102-3.42.27-3.176-.93-6.61-3.297-9.92-2.153-3.012-4.46-4.663-2.686-6.6s5.778.197 7.77 2.975c3.286 4.596 4.86 9.456 4.432 14.184-.16 1.574-1.292 2.79-3.117 2.79z" class="C D E J"/><path d="M601.345 149.958c.02-5.613-4.48-13.883-9.755-16.208 6.5-1.05 12.25 11.675 11.135 17.59-.36-.59-.985-1.164-1.38-1.38z" class="B F"/><path d="M635.66 88.6076c5.555 5.1 3.316 15.4644-.454 21.3584-5.373 8.4-17.674 13.687-23.973 9.218-6.58-4.667-5.72-19.346 1.96-26.966 5.734-5.69 16.722-8.8845 22.467-3.6105z" class="C D E H"/><path d="M629.174 94.6117c3.3 3.4095 1.505 9.8343-1.082 13.3943-3.688 5.072-11.61 7.934-15.397 4.893-3.957-3.177-2.87-12.36 2.237-16.8593 3.813-3.358 10.832-4.954 14.242-1.428z" class="N"/><path d="M635.206 109.964c-3.035 4.743-9.755 10.16-17.33 10.836 5.318-1.25 13-6.692 15.332-10.336 3.77-5.893 5.768-16.9482.454-21.3577-1.62-1.3447-5.736-3.256-11.386-2.256 6.9-2.125 11.14-.3065 13.386 1.756 5.553 5.0995 3.314 15.4647-.456 21.3577z" class="B G"/><path d="M522.34 88.6076c-5.555 5.1-3.316 15.4644.455 21.3584 5.373 8.4 17.673 13.687 23.973 9.218 6.58-4.667 5.72-19.346-1.96-26.966-5.734-5.69-16.723-8.8845-22.468-3.6105z" class="C D E H"/><path d="M528.826 94.6117c-3.3 3.4095-1.505 9.8343 1.082 13.3943 3.688 5.072 11.61 7.934 15.397 4.893 3.957-3.177 2.87-12.36-2.237-16.8593-3.813-3.358-10.832-4.954-14.242-1.428z" class="N"/><path d="M522.795 109.964c3.035 4.743 9.755 10.16 17.33 10.836-5.318-1.25-13-6.692-15.332-10.336-3.77-5.893-5.768-16.9482-.454-21.3577 1.62-1.3447 5.736-3.256 11.386-2.256-6.9-2.125-11.14-.3065-13.386 1.756-5.553 5.0995-3.314 15.4647.456 21.3577z" class="B G"/><path d="M579.002 124.4c7.7 0 11 6.75 13 12.3s2.9 11 2.9 14.6c0 7.6-6.934 15.273-15.9 15.35-8.777.075-15.9-7.75-15.9-15.35 0-3.6.885-9.075 2.9-14.6 2-5.55 5.3-12.3 13-12.3z" class="C D E J"/><use xlink:href="#E" class="B F"/><use xlink:href="#F" class="C D E H"/><g class="B"><use xlink:href="#G" class="G"/><use xlink:href="#H" class="F"/></g><path d="M604.015 38.9502c2.116-1.7925-6.216-3.8-7.326-6.9745-1.34-3.8255 19.78 6.355 16.58 13.054-.25.5255-2.772 4.7-20.88-1.1885 19.908 6.46 34.983 20.156 34.912 45.51-.054 19.4378-17.503 49.5408-48.32 49.8088-29.73.26-48.332-29.81-48.28-49.8088.066-24.422 21.607-49.547 48.3-51.425 15.97-1.1225 23.265 2.505 25.016 1.025z" class="C D J S"/><path d="M607.26 40.067c-1.483 3.258-10.6-2-26.56-.877-32.673 2.297-56.347 38.56-43.23 67.954 3.407-3.52 7.557-4.52 8.88-4.958.397.43.88.884 1.053 1.1-4.068 1.268-8.796 4.02-10.832 7.842-3.813-7.38-5.85-15.128-5.83-21.7664.066-24.4225 21.6-49.55 48.304-51.4285 15.97-1.1225 23.228 2.505 24.98 1.023 2.1-1.7875-6.223-3.795-7.333-6.9695-.428-1.223 1.44-1.0135 4.078.0565-1-.144-1.55.0915-1.278.7935.97 2.5195 9.015 4.5 7.768 7.2415zm19.966 49.287c-.018 6.387-1.906 13.926-5.527 21.18-3.748-5.132-10.462-7.182-11.148-7.182l1-1.225c1.175.275 6.43 1.395 9.364 5.3 2.965-6.608 4.326-12.7585 4.342-18.5435.073-26.2118-17.68-39.242-32.868-45.05 19.908 6.46 34.908 20.16 34.837 45.5124z" class="B F"/><path d="M565.25 57.175c-14.85 0-33.25 31.425-18.175 45.925-28.775 9 0 38.95 31.925 38.95s60.7-29.95 31.925-38.95C626 88.6 607.6 57.175 592.75 57.175c-6.325 0-9.776 2.925-13.75 5.825-3.975-2.9-7.425-5.825-13.75-5.825z" class="C D T"/><g class="B"><path d="M616.455 87.8498c-.785-15.427-13.25-30.6595-24.075-30.6595-6.73 0-10.8 4.107-13.38 5.8095-2.055-1.4025-6.625-5.8095-13.42-5.8095-12.78 0-23.905 18.6595-24.107 31.1355-1.123-13.426 9.18-33.576 24.177-33.576 7.8 0 11.95 3.75 13.35 5.3 1.4-1.55 5.55-5.3 13.35-5.3 14.88 0 25.175 19.075 24.105 33.1z" class="F"/><path d="M541.518 87.37c-.356 5.8724 1.2 11.5007 5.573 15.706-.522.163-1.024.383-1.508.56 1.117-.36 2.183-.614 3.417-.834-4.228-4.066-6.674-9.5885-7.482-15.43zm-5.088 22.964c-6.796 12.263 16.716 31.692 42.57 31.692s49.658-19.643 42.487-31.893c4.768 11.205-17.952 30.018-42.487 30.018-24.4 0-46.985-18.6-42.57-29.817zm76.095-6.683c-1.1-.32-2.23-.62-3.525-.85 4.266-4.1037 6.718-9.6908 7.503-15.5932.394 5.93-1.15 11.6243-5.562 15.8682.566.177 1.062.382 1.584.575z" class="G"/></g><path d="M566.982 67.1532c7.745.9 13.324 10.4375 12.5 18.8385-.82 8.367-8.134 17.1003-16.494 16.1503-7.6-.865-12.513-9.3113-12.675-16.4083-.215-9.508 8.042-19.5835 16.67-18.5805z" class="I"/><path d="M576.387 88.2617c1.106-5.6977-1.974-11.088-6.88-12.0398s-9.778 2.8958-10.883 8.5935 1.974 11.088 6.88 12.0398 9.778-2.8958 10.883-8.5935z" class="C D E O"/><path d="M568.06 94.0784c2.925 0 5.297-2.6518 5.297-5.923s-2.372-5.923-5.297-5.923-5.297 2.6518-5.297 5.923 2.37 5.923 5.297 5.923z" class="B"/><use xlink:href="#I" class="C D E I"/><g class="B"><path d="M570.794 68.3498c-10.22-2.7947-18.724 9.3126-18.516 18.4005.124 5.3625 2.968 11.4895 7.635 14.5827-5.82-2.4392-9.46-9.5167-9.6-15.6002-.216-9.5055 8.04-19.5795 16.668-18.5775 1.334.1594 2.627.5644 3.813 1.1945z" class="P"/><path d="M572.182 77.2772c-5.643-1.6035-10.638 3.2648-11.658 8.522-.837 4.3175.704 8.46 3.618 10.6675-4.094-1.6-6.512-6.4965-5.513-11.6445 1.106-5.7 5.98-9.5445 10.884-8.5925.946.1836 1.85.5386 2.67 1.0475z" class="F"/></g><path d="M590.702 66.9455c-7.727 1.034-13.14 10.668-12.17 19.054.965 8.35 8.43 16.9555 16.773 15.8565 7.574-.997 12.35-9.5275 12.387-16.626.05-9.508-8.383-19.4365-17-18.2845z" class="I"/><path d="M592.687 96.6345c4.888-1.037 7.874-6.4804 6.67-12.158s-6.144-9.4394-11.03-8.4022-7.874 6.4804-6.67 12.158 6.144 9.4393 11.03 8.4022z" class="C D E O"/><path d="M590.092 93.8845c2.925-.051 5.25-2.744 5.192-6.0146s-2.474-5.8807-5.4-5.8296-5.25 2.7438-5.193 6.0145 2.475 5.8807 5.4 5.8297z" class="B"/><path d="M593.418 85.219c1.098-.41 1.67-1.5903 1.28-2.636s-1.598-1.5612-2.695-1.151-1.67 1.5902-1.28 2.636 1.597 1.5612 2.694 1.1512z" class="C D E I"/><g class="B"><path d="M607.69 85.2295c-.033 6.1635-3.637 13.4065-9.544 15.8605 4.765-3.08 7.604-9.404 7.633-14.8775.05-9.179-9.054-21.562-19.297-17.76 1.3-.78 2.714-1.307 4.218-1.5085 8.61-1.152 17.04 8.7765 17 18.2845z" class="P"/><path d="M593.755 96.3196c3.043-2.1825 4.63-6.4535 3.693-10.865-1.12-5.277-6.324-10.0704-11.937-8.185a7.919 7.919 0 0 1 2.817-1.2055c4.888-1.0375 9.827 2.724 11.033 8.4 1.115 5.255-1.358 10.3085-5.606 11.8555z" class="F"/><path d="M568.25 101.95c0 3.818 4.943 8.45 10.813 8.4 5.41-.047 10.687-4.627 10.687-8.39 0-7.6058-21.5-7.7207-21.5-.01z" class="G"/></g><path d="M568.1 101.05c0 3.818 5.012 8.45 10.964 8.4 5.486-.047 10.836-4.627 10.836-8.39 0-3.0264-6.312-5.6884-10.836-5.65-4.2.04-10.964 2.058-10.964 5.639z" class="U"/><path d="M568.18 100.39c2.088 2.737 6.234 5.047 10.893 5.01 4.3-.034 8.545-2.356 10.704-5.078.08.243.124.5.124.74 0 3.762-5.35 8.342-10.836 8.39-5.952.05-10.964-4.582-10.964-8.4a2.788 2.788 0 0 1 .079-.661z" class="B R"/><path d="M574.5 174.8c1.6 0 3.155-1.18 3.335-2.807.456-4.11-4.717-4.484-7.533-4.546-2.855-.063-7.702.478-8.55 3.613-.742 2.74 1.824 3.74 3.65 3.74s2.45-.607 4.65-.607c1.92 0 2.85.607 4.45.607z" class="C D E H"/><path d="M574.45 173.7c-1.6 0-2.53-.608-4.45-.608-2.2 0-2.825.608-4.65.608-1.42 0-3.287-.605-3.698-2.163-.336 2.38 2.033 3.263 3.748 3.263 1.825 0 2.45-.608 4.65-.608 1.92 0 2.85.608 4.45.608 2.143 0 3.65-1.708 3.296-4.013-.15 1.673-1.702 2.913-3.346 2.913z" class="B G"/><path d="M583.5 174.8c-1.6 0-3.154-1.18-3.335-2.807-.455-4.11 4.718-4.484 7.534-4.546 2.855-.063 7.7.478 8.55 3.613.742 2.74-1.825 3.74-3.65 3.74s-2.45-.607-4.65-.607c-1.92 0-2.85.607-4.45.607z" class="C D E H"/><path d="M583.55 173.7c1.6 0 2.53-.608 4.45-.608 2.2 0 2.824.608 4.65.608 1.42 0 3.288-.605 3.7-2.163.336 2.38-2.034 3.263-3.75 3.263-1.825 0-2.45-.608-4.65-.608-1.92 0-2.85.608-4.45.608-2.143 0-3.65-1.708-3.295-4.013.148 1.673 1.702 2.913 3.345 2.913z" class="B G"/><path d="M559.07 159.995c2.84.002 4.65-3.406 2.93-5.764.796-2.26-.904-4.77-3.333-4.828-2.8-.066-4.418 2.926-4.125 5.457.274 2.366 1.876 5.132 4.528 5.135z" class="C D E H"/><path d="M554.542 154.86c.34 2.93 2.718 6.34 6.268 4.7-3.44-.44-5.85-6.275-4.155-9.592-.27.192-.695.417-1.38 1.38-.615 1.086-.885 2.3-.733 3.52z" class="B G"/><path d="M598.93 159.995c-2.84.002-4.65-3.406-2.93-5.764-.796-2.26.904-4.77 3.333-4.828 2.8-.066 4.418 2.926 4.125 5.457-.274 2.366-1.877 5.132-4.53 5.135z" class="C D E H"/><g class="B"><path d="M603.458 154.86c-.34 2.93-2.718 6.34-6.268 4.7 3.44-.44 5.85-6.275 4.155-9.592.27.192.695.417 1.38 1.38.615 1.086.885 2.3.733 3.52z" class="G"/><path d="M535.175 69.9237c15.5-36.1 83.293-29.3878 90.975 8.05-38.55-16.125-63.3-14.4-90.975-8.05z" class="F"/></g><circle cx="589.8" cy="20.7994" r="9.525" fill="#ccc" class="C D"/><path d="M585.8 26.4497c5.33 0 9.65-4.3204 9.65-9.65 0-1.6353-.407-3.1756-1.125-4.5253 3.05 1.6217 5.125 4.831 5.125 8.5253 0 5.3296-4.32 9.65-9.65 9.65-3.694 0-6.904-2.0758-8.526-5.1247 1.35.718 2.9 1.1247 4.526 1.1247z" class="B G"/><path d="M625.275 63.75c-3.6-21.95-13.525-37.5822-39.025-39.55-32.075-2.475-46.25 22.325-47.125 31.475 23.425-5.325 60.675-3.75 86.15 8.075z" class="C D O"/><path d="M586.25 24.199c25.5 1.9677 35.425 17.6 39.025 39.55-4.085-1.896-8.473-3.5287-13.058-4.9116-4.595-19.2122-14.967-32.4487-37.492-34.304l-.105-.0086c3.58-.5078 7.453-.648 11.63-.3257z" class="B G"/><path d="M627.825 59.6247c-6.075-4.586-20.75-10.925-44.825-12.9-13.94-1.1435-42.2.9-46.325 4.125s-5.775 17.61.925 16.1c8.325-1.875 22.925-4.55 43.425-3.425 15.403.8453 37.225 8.065 42.6 11.075s10.275-10.39 4.2-14.975z" fill="#666" class="C D"/><g class="B"><path d="M533.074 61.0007c.7 1.5205 1.92 2.3776 3.826 1.9483 8.325-1.875 22.925-4.55 43.425-3.425 15.403.8453 37.225 8.065 42.6 11.075 3.547 1.9865 6.888-3.174 7.003-8.2314 2.407 5.6768-1.78 14.7645-6.303 12.2315-5.375-3-27.197-10.2297-42.6-11.075-20.5-1.125-35.1 1.55-43.425 3.425-3.254.7328-4.538-2.283-4.526-5.9484z" class="F"/><path d="M608.81 116.794c.052.457.087.913.203 1.36.114.44.298.846.482 1.26.124.28-.123.617-.434.483-1.19-.535-1.58-2.225-.875-3.284.188-.27.593-.13.624.18z" class="G"/></g><path d="M606.628 118.625c-.325-1.45-.112-3.053-.075-3.2.125-.5-.725-.825-1-.375-.095.155-.625 1.325-.525 3.1-3.125 2.075-8.725 2.5-14.1 2.075-6.375-.275-15.275-3.75-25.725-3.75-7.125 0-10.875.95-12.25 1.2.05-.975-.4-2.275-.575-2.575-.318-.545-1.1-.2-.975.375.19.867.225 2.025-.05 3.25-.354 1.576-1.197 2.813-1.3 3.175-.17.594.404.77.75.65.575-.2 1.975-2.475 2.075-3.825 2.225-.325 4.175-.975 12.325-.85 8.674.133 17.55 3.25 25.725 3.775 8.936.574 13.45-2.025 14.275-2.45.55 2.05 1.675 3.15 1.925 3.275.6.3 1.175-.225.775-.725-.432-.54-.95-1.675-1.275-3.125z" class="V"/><path d="M549.767 116.622c.724 1.047.358 2.744-.82 3.3-.31.14-.562-.192-.443-.476.177-.417.353-.827.46-1.27.108-.45.135-.905.18-1.364.03-.31.425-.464.62-.192l.002.001z" class="B G"/><path d="M732.754 154.392c-2.538-.37-5.758-1.614-9.843-3.8-.593-.318-.833-1.093-.512-1.692s1.092-.834 1.692-.513c3.772 2.02 6.81 3.206 9.025 3.53 1.446.212 2.487.05 3.094-.482.68-.596.62-1.65.44-3.62-.208-2.306-.468-5.177.99-8.476 2.2-4.986 7.682-9.726 13.455-8.835 3.666.568 7.18 3.3 7.986 7.03.687 3.168-.3 7.508-3.676 8.72-2.24.8-4.796-.118-6.542-1.604-.522-.434-.598-1.25-.153-1.772.44-.517 1.257-.582 1.774-.13.02.018 2.183 1.833 4.074 1.153 2.142-.77 2.49-3.947 2.078-5.84-.587-2.71-3.28-4.68-5.925-5.088-4.642-.717-9.04 3.424-10.786 7.374-1.196 2.708-.978 5.116-.786 7.24.2 2.192.385 4.262-1.284 5.725-1.383 1.22-3.353 1.34-5.1 1.077z" class="C D E K"/><g class="B M"><use xlink:href="#J"/><use xlink:href="#K"/><path d="M722.676 148.534c.175-.15.775-.45 1.15-.275l1.237.602c2.47 1.22 6.373 3.148 9.188 3.148 2.5 0 2.725-1.25 2.375-4.55l.153.626c.48 1.887 1.205 4.724-2.528 4.724-4.075 0-10.44-3.528-11.575-4.275z"/></g><path d="M698.35 147.21c1.825 0 3.283-1.628 3.102-3.42-.27-3.176.93-6.61 3.298-9.92 2.153-3.012 4.46-4.663 2.685-6.6s-5.778.196-7.77 2.975c-3.285 4.596-4.86 9.456-4.43 14.184.16 1.574 1.29 2.79 3.116 2.79z" class="C D E K"/><path d="M696.655 142.818c-.02-5.614 4.48-13.884 9.755-16.21-6.5-1.05-12.25 11.675-11.135 17.59.36-.59.985-1.164 1.38-1.38z" class="B F"/><path d="M716.97 162.185c.25-4.354 1.37-7.722 2.36-10.34s2.12-7.234-2.128-8.3c-6.075-1.524-9.416 12.707-9.665 17.047-.147 2.554 1.84 5.517 4.42 5.665 2.374.115 4.872-1.6 5.014-4.07z" class="C D E K"/><g class="B F"><use xlink:href="#C" x="140" y="-7.14"/><path d="M708.276 156.1c2.388 2.215 5.444 3.457 8.9 3.925l.125-.85c-3.43-.444-6.4-1.88-8.8-4.05-.1.3-.18.763-.225.975z"/></g><path d="M721.03 162.185c-.25-4.354-1.37-7.722-2.36-10.34s-2.12-7.234 2.128-8.3c6.075-1.524 9.416 12.707 9.665 17.047.147 2.554-1.84 5.517-4.42 5.665-2.374.115-4.872-1.6-5.014-4.07z" class="C D E K"/><g class="B F"><use xlink:href="#D" x="140.001" y="-7.14"/><path d="M729.726 156.1c-2.388 2.215-5.444 3.457-8.9 3.925l-.125-.85c3.43-.444 6.4-1.88 8.8-4.05.1.3.18.763.225.975z"/></g><path d="M739.652 147.21c-1.825 0-3.283-1.628-3.102-3.42.27-3.176-.93-6.61-3.298-9.92-2.153-3.012-4.46-4.663-2.685-6.6s5.778.196 7.77 2.975c3.285 4.596 4.86 9.456 4.43 14.184-.16 1.574-1.29 2.79-3.116 2.79z" class="C D E K"/><path d="M741.347 142.818c.02-5.614-4.48-13.884-9.756-16.21 6.5-1.05 12.25 11.675 11.136 17.59-.36-.59-.986-1.164-1.38-1.38z" class="B F"/><path d="M775.66 81.4665c5.555 5.1 3.316 15.4645-.454 21.3585-5.373 8.4-17.674 13.687-23.973 9.218-6.58-4.667-5.72-19.346 1.96-26.966 5.734-5.69 16.722-8.8845 22.467-3.6105z" class="C D E H"/><path d="M769.175 87.47c3.3 3.4095 1.505 9.834-1.082 13.394-3.688 5.073-11.61 7.935-15.397 4.893-3.957-3.176-2.87-12.361 2.237-16.859 3.813-3.358 10.832-4.954 14.242-1.428z" class="N"/><path d="M775.207 102.824c-3.035 4.743-9.755 10.16-17.33 10.836 5.318-1.25 13-6.692 15.332-10.336 3.77-5.8934 5.768-16.9484.454-21.358-1.62-1.3447-5.736-3.256-11.386-2.256 6.9-2.125 11.14-.3065 13.386 1.756 5.553 5.0995 3.314 15.4645-.456 21.358z" class="B G"/><path d="M662.34 81.4665c-5.555 5.1-3.316 15.4645.454 21.3585 5.373 8.4 17.674 13.687 23.973 9.218 6.58-4.667 5.72-19.346-1.96-26.966-5.734-5.69-16.722-8.8845-22.467-3.6105z" class="C D E H"/><path d="M668.826 87.47c-3.3 3.4095-1.505 9.834 1.082 13.394 3.688 5.073 11.61 7.935 15.397 4.893 3.957-3.176 2.87-12.361-2.237-16.859-3.813-3.358-10.832-4.954-14.242-1.428z" class="N"/><path d="M662.795 102.824c3.034 4.743 9.755 10.16 17.33 10.836-5.32-1.25-13-6.692-15.332-10.336-3.77-5.8934-5.768-16.9484-.455-21.358 1.62-1.3447 5.737-3.256 11.387-2.256-6.9-2.125-11.14-.3065-13.387 1.756-5.553 5.0995-3.314 15.4645.457 21.358z" class="B G"/><path d="M719 117.26c7.7 0 11 6.75 13 12.3s2.9 11 2.9 14.6c0 7.6-6.934 15.273-15.9 15.35-8.777.076-15.9-7.75-15.9-15.35 0-3.6.885-9.075 2.9-14.6 2-5.55 5.3-12.3 13-12.3z" class="C D E K"/><use xlink:href="#E" x="140" y="-7.15" class="B F"/><path d="M719 123.46c5.2 0 8 3.4 8.7 6.4 1.725 7.39 3.2 13.7.2 17.5s-6.747 4.1-8.9 4.1c-2.377 0-5.9-.3-8.9-4.1s-1.622-9.692.2-17.5c.7-3 3.5-6.4 8.7-6.4z" class="C D E H"/><g class="B"><use xlink:href="#G" x="140" y="-7.14" class="G"/><use xlink:href="#H" x="140" y="-7.14" class="F"/></g><path d="M744.016 31.8096c2.116-1.7925-6.216-3.8-7.326-6.9745-1.34-3.8255 19.78 6.355 16.58 13.054-.25.5255-2.772 4.7-20.88-1.1885 19.908 6.46 34.983 20.156 34.912 45.51-.054 19.4374-17.503 49.5404-48.32 49.8094-29.73.26-48.332-29.81-48.28-49.8094.066-24.422 21.607-49.547 48.3-51.425 15.97-1.1225 23.265 2.505 25.016 1.025z" class="C D K S"/><path d="M747.257 32.9265c-1.483 3.258-10.6-2-26.56-.877-32.673 2.297-56.347 38.56-43.23 67.9545 3.407-3.5195 7.557-4.5195 8.88-4.9585.397.4285.88.8835 1.053 1.1-4.068 1.2676-8.796 4.0205-10.832 7.8425-3.813-7.3805-5.85-15.1285-5.83-21.767.066-24.4225 21.6-49.55 48.304-51.4285 15.97-1.1225 23.228 2.505 24.98 1.023 2.1-1.7875-6.223-3.795-7.333-6.9695-.428-1.223 1.44-1.0135 4.078.0565-1-.144-1.55.0915-1.278.7935.97 2.5195 9.015 4.5 7.768 7.2415zm19.97 49.2862c-.018 6.387-1.906 13.9255-5.527 21.1783-3.748-5.1318-10.46-7.1818-11.148-7.1818l1-1.225c1.175.275 6.43 1.3955 9.364 5.3098 2.965-6.6073 4.326-12.7578 4.342-18.5428.074-26.212-17.68-39.242-32.868-45.05 19.908 6.46 34.908 20.16 34.837 45.5125z" class="B F"/><path d="M705.25 50.0342c-14.85 0-33.25 31.425-18.175 45.925-28.775 8.9998 0 38.9498 31.925 38.9498s60.7-29.95 31.925-38.9498c15.075-14.5-3.325-45.925-18.175-45.925-6.325 0-9.775 2.925-13.75 5.825-3.975-2.9-7.425-5.825-13.75-5.825z" class="C D T"/><g class="B"><path d="M756.455 80.71c-.785-15.427-13.25-30.6595-24.075-30.6595-6.73 0-10.8 4.107-13.38 5.8095-2.055-1.4025-6.625-5.8095-13.42-5.8095-12.78 0-23.905 18.6595-24.106 31.1355-1.124-13.426 9.18-33.576 24.176-33.576 7.8 0 11.95 3.75 13.35 5.3 1.4-1.55 5.55-5.3 13.35-5.3 14.882 0 25.175 19.075 24.105 33.1z" class="F"/><path d="M681.52 80.23c-.356 5.8725 1.2 11.5008 5.573 15.7057-.522.163-1.024.383-1.508.5595 1.116-.3595 2.183-.614 3.416-.8345-4.227-4.066-6.673-9.5883-7.48-15.4307zm-5.1 22.964c-6.796 12.263 16.716 31.692 42.57 31.692s49.66-19.643 42.488-31.893C766.256 114.197 743.536 133 719 133c-24.4 0-46.984-18.6-42.57-29.817zm76.095-6.6834l-3.525-.85c4.267-4.1035 6.72-9.6906 7.504-15.593.394 5.93-1.15 11.6242-5.562 15.868.566.177 1.062.382 1.583.575z" class="G"/></g><path d="M706.983 60.0126c7.744.9 13.324 10.4375 12.5 18.8385-.82 8.367-8.135 17.1-16.494 16.15-7.6-.865-12.513-9.31-12.675-16.408-.216-9.508 8.042-19.5835 16.67-18.5805z" class="I"/><path d="M716.386 81.1208c1.106-5.6977-1.974-11.088-6.88-12.0397s-9.778 2.8957-10.883 8.5934 1.974 11.088 6.88 12.0398 9.778-2.8957 10.883-8.5935z" fill="#29aa55" class="C D E"/><path d="M708.06 86.938c2.926 0 5.297-2.6518 5.297-5.923s-2.37-5.923-5.297-5.923-5.297 2.652-5.297 5.923 2.372 5.923 5.297 5.923z" class="B"/><use xlink:href="#I" x="140.001" y="-7.1409" class="C D E I"/><g class="B"><path d="M710.794 61.2092c-10.22-2.7948-18.724 9.3126-18.515 18.4005.123 5.3625 2.968 11.4895 7.635 14.5825-5.82-2.44-9.46-9.5165-9.6-15.6-.217-9.5055 8.04-19.5795 16.668-18.5775 1.333.1594 2.626.5644 3.812 1.1945z" class="P"/><path d="M712.182 70.1368c-5.643-1.6034-10.638 3.2648-11.658 8.522-.837 4.3175.704 8.46 3.618 10.6675-4.094-1.6-6.512-6.4965-5.513-11.6445 1.106-5.7 5.98-9.5445 10.884-8.5925.946.1836 1.85.5386 2.67 1.0475z" class="F"/></g><path d="M730.7 59.8056c-7.727 1.034-13.14 10.668-12.17 19.054.965 8.35 8.432 16.955 16.774 15.8565 7.573-.997 12.35-9.5275 12.386-16.626.05-9.508-8.383-19.4365-17-18.2845z" class="I"/><path d="M732.688 89.494c4.888-1.037 7.874-6.4804 6.67-12.158s-6.144-9.4393-11.03-8.4022-7.874 6.4804-6.67 12.158 6.144 9.4394 11.03 8.4022z" fill="#29aa55" class="C D E"/><path d="M730.092 86.7446c2.925-.051 5.25-2.744 5.193-6.0146s-2.474-5.8807-5.4-5.8296-5.25 2.744-5.193 6.0145 2.474 5.8807 5.4 5.8297z" class="B"/><path d="M733.417 78.0787c1.098-.4 1.67-1.5902 1.28-2.636s-1.598-1.5612-2.695-1.1512-1.67 1.5903-1.28 2.636 1.597 1.5612 2.694 1.151z" class="C D E I"/><g class="B"><path d="M747.69 78.09c-.033 6.1635-3.638 13.4065-9.544 15.8605 4.764-3.08 7.604-9.404 7.633-14.8775.048-9.1792-9.055-21.562-19.298-17.76 1.3-.78 2.715-1.307 4.22-1.5085 8.608-1.152 17.04 8.7765 17 18.2845z" class="P"/><path d="M733.757 89.1798c3.043-2.1825 4.63-6.4535 3.694-10.865-1.12-5.277-6.325-10.0705-11.937-8.185.85-.5817 1.808-.9912 2.817-1.2055 4.888-1.0375 9.827 2.724 11.032 8.4 1.115 5.255-1.358 10.3085-5.606 11.8555z" class="F"/><path d="M708.25 94.8088c0 3.8175 4.943 8.4502 10.813 8.4002 5.41-.048 10.687-4.6277 10.687-8.3892 0-7.6063-21.5-7.7212-21.5-.01z" class="G"/></g><path d="M708.1 93.9094c0 3.8175 5.01 8.4496 10.963 8.3996 5.487-.047 10.837-4.627 10.837-8.3886 0-3.0265-6.312-5.6885-10.837-5.65-4.2.04-10.963 2.058-10.963 5.64z" class="U"/><path d="M708.178 93.2482c2.087 2.7373 6.233 5.047 10.892 5.01 4.31-.0343 8.546-2.356 10.705-5.0776.08.243.124.4898.124.74 0 3.7615-5.35 8.3414-10.837 8.3894-5.952.05-10.963-4.583-10.963-8.4004 0-.2267.027-.4473.08-.6614z" class="B R"/><path d="M702.08 146.926c.497-1.725.098-2.67-.362-3.423 1.964-1.367-1.656-1.82-4.018-1.48s-4.834 1.56-2.778 2.17c-.795 2.733-.478 4.83.573 6.464 1.32 2.054 3.47 2.962 5.56 1.615 2.505-1.615 1.648-4.287 1.026-5.346z" class="C D I"/><path d="M700.976 152.31c-2.1 1.384-4.23.293-5.482-1.652-1.05-1.634-1.293-4.123-.623-6.465-1.85-.55.053-1.593 2.124-2.044-.923.478-1.2 1.05-.001 1.407-1.836 3.05-.127 8.945 3.982 8.754z" class="B F"/><path d="M735.92 146.926c-.496-1.725-.098-2.67.362-3.424-1.964-1.366 1.656-1.82 4.018-1.48s4.834 1.56 2.778 2.17c.796 2.734.478 4.832-.572 6.465-1.32 2.053-3.47 2.962-5.56 1.615-2.505-1.615-1.647-4.288-1.026-5.346z" class="C D I"/><path d="M737.024 152.3c2.1 1.383 4.23.293 5.482-1.653 1.05-1.633 1.293-4.122.623-6.464 1.85-.55-.054-1.593-2.124-2.044.923.478 1.2 1.048.001 1.407 1.836 3.048.127 8.945-3.982 8.754z" class="B F"/><path d="M719.902 160.26c0-1.16.94-2.1 2.1-2.1h4.65c2.775 0 3.7 1.675 3.7 1.675h1.5c1.866 0 6.428 1.23 6.292 6.92-.02.84-.847 1.437-1.688 1.394-3.224-.165-9.805.042-13.627.19-1.596.06-2.927-1.214-2.927-2.812v-5.266z" class="C D I"/><path d="M719.9 163.926v1.6c0 1.597 1.33 2.872 2.927 2.81 3.822-.147 10.403-.354 13.626-.19.84.043 1.67-.552 1.69-1.394.01-.45-.008-.87-.053-1.267-.196.66-.91 1.1-1.636 1.06-3.223-.165-9.804.043-13.626.19-1.597.062-2.927-1.213-2.927-2.81z" class="B G W"/><path d="M718.103 160.26c0-1.16-.94-2.1-2.1-2.1h-4.65c-2.775 0-3.7 1.675-3.7 1.675h-1.5c-1.866 0-6.428 1.23-6.292 6.92.02.84.847 1.437 1.688 1.394 3.224-.165 9.805.042 13.627.19 1.596.06 2.927-1.214 2.927-2.812v-5.266z" class="C D I"/><g class="B G"><path d="M718.1 163.926v1.6c0 1.597-1.33 2.872-2.927 2.81-3.822-.147-10.403-.354-13.626-.19-.84.043-1.67-.552-1.69-1.394-.01-.45.008-.87.053-1.267.196.66.91 1.1 1.636 1.06 3.223-.165 9.804.043 13.626.19 1.597.062 2.927-1.213 2.927-2.81z" class="W"/><path d="M748.414 106.084c1.04.73 1.287 2.45.374 3.38-.197.2-.636.053-.582-.26.16-.9-.032-1.856-.3-2.72-.095-.297.24-.582.516-.395l.002-.003zm-59.167 7.05c-.883.915-.796 2.65.277 3.388.23.16.635-.07.52-.366-.327-.855-.322-1.828-.214-2.73.036-.3-.346-.526-.582-.3l-.002-.002z"/></g><path d="M745.91 105.748c1.135 1.195 1.27 3.208.343 4.562-.283.43-.915.105-.808-.373.108-.487.18-.987.178-1.487-9.86 1.513-19.755 2.78-29.664 3.905l-23.355 2.356c.073.542.236 1.07.44 1.575.173.446-.4.822-.745.48-1.134-1.184-1.322-3.195-.4-4.557.297-.426.864-.096.815.362-.078.395-.135.796-.153 1.2 7.616-1.307 15.502-2.185 23.22-3.087l29.748-3.19c-.082-.438-.22-.857-.37-1.275-.16-.446.42-.81.75-.47h0z" class="V"/><path d="M651.756 248.622c-2.54-.37-5.758-1.613-9.843-3.8-.594-.317-.833-1.092-.513-1.692.318-.593 1.093-.833 1.692-.512 3.773 2.018 6.81 3.206 9.025 3.53 1.447.21 2.488.05 3.094-.482.68-.596.62-1.65.442-3.62-.21-2.306-.468-5.176.99-8.475 2.2-4.986 7.68-9.727 13.454-8.835 3.667.567 7.18 3.31 7.987 7.03.686 3.168-.3 7.51-3.677 8.722-2.238.8-4.796-.12-6.542-1.604-.522-.434-.597-1.25-.153-1.772.44-.517 1.258-.582 1.774-.13.022.018 2.183 1.832 4.075 1.153 2.142-.77 2.488-3.948 2.078-5.84-.588-2.712-3.28-4.68-5.926-5.09-4.642-.717-9.04 3.424-10.786 7.375-1.195 2.708-.978 5.116-.786 7.24.2 2.192.386 4.263-1.283 5.725-1.383 1.22-3.354 1.34-5.1 1.077z" class="C D E L"/><g class="B M"><use xlink:href="#J" x="-81.001" y="94.23"/><use xlink:href="#K" x="-81.002" y="94.23"/><path d="M641.675 242.764c.175-.15.775-.45 1.15-.275l1.237.602c2.47 1.22 6.373 3.148 9.188 3.148 2.5 0 2.725-1.25 2.375-4.55l.153.626c.482 1.887 1.205 4.724-2.528 4.724-4.075 0-10.44-3.528-11.575-4.275z"/></g><path d="M617.348 241.44c1.825 0 3.283-1.63 3.102-3.42-.27-3.176.93-6.61 3.298-9.92 2.153-3.013 4.46-4.663 2.685-6.6s-5.778.196-7.77 2.975c-3.285 4.596-4.86 9.456-4.43 14.184.16 1.574 1.29 2.79 3.116 2.79z" class="C D E L"/><path d="M615.653 237.048c-.02-5.614 4.48-13.883 9.756-16.208-6.5-1.05-12.25 11.675-11.136 17.59.36-.59.986-1.164 1.38-1.38z" class="B F"/><path d="M635.97 256.416c.25-4.354 1.37-7.722 2.358-10.34s2.12-7.235-2.128-8.3c-6.075-1.524-9.415 12.706-9.665 17.047-.146 2.554 1.84 5.517 4.42 5.665 2.374.115 4.872-1.6 5.015-4.07z" class="C D E L"/><path d="M626.473 254.816c2.575-.35 7.4-.35 9.425 1.7l.083-.752c-2.108-1.848-6.908-1.973-9.4-1.623-.013.165-.093.507-.107.675zm.8-4.476c2.388 2.214 5.444 3.456 8.9 3.925l.125-.85c-3.43-.444-6.4-1.88-8.8-4.05-.1.3-.18.763-.225.975z" class="B F"/><path d="M640.03 256.416c-.25-4.354-1.37-7.722-2.358-10.34s-2.12-7.235 2.128-8.3c6.075-1.524 9.415 12.706 9.665 17.047.146 2.554-1.84 5.517-4.42 5.665-2.374.115-4.872-1.6-5.015-4.07z" class="C D E L"/><path d="M649.526 254.816c-2.575-.35-7.4-.35-9.425 1.7l-.083-.752c2.108-1.848 6.908-1.973 9.4-1.623.013.165.093.507.107.675zm-.8-4.476c-2.388 2.214-5.444 3.456-8.9 3.925l-.125-.85c3.43-.444 6.4-1.88 8.8-4.05.1.3.18.763.225.975z" class="B F"/><path d="M658.65 241.44c-1.825 0-3.283-1.63-3.102-3.42.27-3.176-.93-6.61-3.297-9.92-2.153-3.013-4.46-4.663-2.686-6.6s5.778.196 7.77 2.975c3.286 4.596 4.86 9.456 4.432 14.184-.16 1.574-1.292 2.79-3.117 2.79z" class="C D E L"/><path d="M660.346 237.048c.02-5.614-4.48-13.883-9.755-16.208 6.5-1.05 12.25 11.675 11.135 17.59-.36-.59-.985-1.164-1.38-1.38z" class="B F"/><path d="M694.66 175.697c5.555 5.1 3.316 15.465-.455 21.358-5.373 8.4-17.673 13.688-23.973 9.22-6.58-4.668-5.72-19.346 1.96-26.966 5.734-5.69 16.723-8.885 22.468-3.61z" class="C D E H"/><path d="M688.174 181.7c3.3 3.4 1.505 9.834-1.082 13.394-3.688 5.073-11.61 7.935-15.397 4.893-3.957-3.176-2.87-12.36 2.237-16.86 3.813-3.358 10.832-4.954 14.242-1.428z" class="N"/><path d="M694.204 197.055c-3.034 4.742-9.755 10.16-17.33 10.836 5.318-1.25 13-6.693 15.332-10.336 3.77-5.894 5.768-16.95.454-21.358-1.62-1.345-5.736-3.256-11.386-2.256 6.9-2.125 11.14-.307 13.386 1.756 5.553 5.1 3.315 15.464-.456 21.358z" class="B G"/><path d="M581.34 175.697c-5.555 5.1-3.316 15.465.454 21.358 5.373 8.4 17.674 13.688 23.973 9.22 6.58-4.668 5.72-19.346-1.96-26.966-5.734-5.69-16.722-8.885-22.467-3.61z" class="C D E H"/><path d="M587.826 181.702c-3.3 3.41-1.505 9.834 1.083 13.394 3.687 5.072 11.608 7.934 15.397 4.893 3.957-3.177 2.87-12.36-2.238-16.86-3.813-3.358-10.832-4.954-14.242-1.428z" class="N"/><path d="M581.796 197.055c3.034 4.742 9.755 10.16 17.33 10.836-5.318-1.25-13-6.693-15.332-10.336-3.77-5.894-5.768-16.95-.454-21.358 1.62-1.345 5.736-3.256 11.386-2.256-6.9-2.125-11.14-.307-13.386 1.756-5.553 5.1-3.315 15.464.456 21.358z" class="B G"/><path d="M638.002 211.49c7.7 0 11 6.75 13 12.3s2.9 11 2.9 14.6c0 7.6-6.934 15.273-15.9 15.35-8.776.075-15.9-7.75-15.9-15.35 0-3.6.885-9.076 2.9-14.6 2-5.55 5.3-12.3 13-12.3z" class="C D E L"/><path d="M638 253.74c-8.784.08-16.5-7.85-15.9-16.85.5 7.4 7.257 14.424 15.9 14.35s15.4-6.95 15.9-14.35c.6 9-7.117 16.77-15.9 16.85z" class="B F"/><use xlink:href="#F" x="59" y="87.1" class="C D E H"/><use xlink:href="#G" x="59" y="87.1" class="B G"/><path d="M628.1 232.64c-.25 1.875-2.875 6.775-6 6.4.425 8.575 7.974 14.8 15.9 14.8s15.503-6.806 15.9-14.8c-3.125.375-5.75-4.525-6-6.4-3.5 4.07-16.323 4.058-19.8 0z" class="C D Q"/><path d="M622.33 241.03c3.208 5.896 9.384 9.3 15.668 9.3 6.304 0 12.52-3.806 15.705-9.6-1.296 7.23-8.35 13.1-15.705 13.1-7.297 0-14.277-5.28-15.668-12.8zm22.02-6.302s2.225-.587 3.55-2.087c.105.725.4 1.15.4 1.15v2.793c0 .244-.107.477-.295.64l-1.1.95c-.336.292-.845.292-1.18 0l-1.1-.95c-.187-.162-.294-.395-.294-.64v-1.856z" class="B R"/><g class="C D"><path d="M644.65 228.54l3.35-.6v8.315a.748.748 0 0 1-.249.559l-.925.828c-.285.255-.716.255-1 0l-.925-.828a.749.749 0 0 1-.25-.559v-7.715z" class="Q"/><circle cx="646.324" cy="235.717" r=".975" fill="#ede72f"/></g><path d="M631.65 234.728s-2.225-.587-3.55-2.087c-.105.725-.4 1.15-.4 1.15v2.793c0 .244.107.477.295.64l1.1.95c.336.292.844.292 1.18 0l1.09-.95c.187-.162.294-.395.294-.64v-1.856z" class="B R"/><g class="C D"><path d="M631.35 228.54l-3.35-.6v8.315a.749.749 0 0 0 .25.559l.925.828c.284.255.716.255 1 0l.925-.828a.749.749 0 0 0 .25-.559v-7.715z" class="Q"/><path d="M628.7 235.717a.975.975 0 0 0 .975.975.976.976 0 0 0 .975-.975.975.975 0 0 0-.975-.975c-.54 0-.975.436-.975.975z" fill="#ede72f"/></g><use xlink:href="#H" x="59" y="87.1" class="B F"/><path d="M663.015 126.04c2.116-1.792-6.216-3.8-7.326-6.974-1.34-3.826 19.78 6.355 16.578 13.054-.25.525-2.77 4.7-20.88-1.19 19.908 6.46 34.983 20.156 34.912 45.51-.055 19.438-17.504 49.54-48.322 49.81-29.73.26-48.332-29.81-48.278-49.81.066-24.422 21.606-49.547 48.3-51.425 15.97-1.122 23.264 2.505 25.016 1.025z" class="C D L S"/><path d="M666.255 127.157c-1.483 3.258-10.6-2-26.56-.877-32.673 2.297-56.347 38.56-43.23 67.954 3.407-3.52 7.557-4.52 8.88-4.958.397.43.88.884 1.052 1.1-4.068 1.268-8.796 4.02-10.83 7.842-3.814-7.38-5.85-15.128-5.83-21.766.066-24.423 21.6-49.55 48.305-51.43 15.97-1.122 23.228 2.505 24.98 1.023 2.1-1.787-6.223-3.795-7.332-6.97-.43-1.223 1.44-1.014 4.077.056-1-.144-1.55.092-1.277.794.97 2.52 9.015 4.5 7.767 7.24zm19.97 49.287c-.018 6.387-1.906 13.925-5.527 21.178-3.748-5.132-10.46-7.182-11.148-7.182l1-1.225c1.175.275 6.43 1.396 9.364 5.3 2.965-6.607 4.326-12.758 4.342-18.543.074-26.212-17.68-39.242-32.868-45.05 19.908 6.46 34.908 20.16 34.837 45.513z" class="B F"/><path d="M624.25 144.265c-14.85 0-33.25 31.425-18.175 45.925-28.775 9 0 38.95 31.925 38.95s60.7-29.95 31.925-38.95c15.075-14.5-3.325-45.925-18.175-45.925-6.325 0-9.775 2.925-13.75 5.825-3.975-2.9-7.425-5.825-13.75-5.825z" class="C D T"/><g class="B"><path d="M675.454 174.94c-.785-15.427-13.25-30.66-24.075-30.66-6.73 0-10.8 4.107-13.38 5.8-2.055-1.403-6.625-5.8-13.42-5.8-12.78 0-23.905 18.66-24.106 31.136-1.124-13.426 9.18-33.576 24.176-33.576 7.8 0 11.95 3.75 13.35 5.3 1.4-1.55 5.55-5.3 13.35-5.3 14.882 0 25.175 19.075 24.105 33.1z" class="F"/><path d="M600.518 174.46c-.356 5.873 1.2 11.5 5.572 15.706-.52.163-1.024.383-1.507.56 1.116-.36 2.183-.615 3.416-.835-4.227-4.066-6.673-9.588-7.48-15.43zm-5.088 22.964c-6.796 12.263 16.716 31.7 42.57 31.7s49.66-19.642 42.488-31.893c4.768 11.205-17.952 30.018-42.488 30.018-24.4 0-46.984-18.6-42.57-29.816zm76.094-6.684L668 189.9c4.266-4.103 6.718-9.7 7.503-15.593.395 5.93-1.15 11.624-5.562 15.868.566.177 1.062.382 1.584.575z" class="G"/></g><path d="M625.982 154.243c7.745.9 13.324 10.438 12.5 18.84-.82 8.367-8.134 17.1-16.494 16.15-7.6-.865-12.513-9.31-12.675-16.408-.215-9.508 8.042-19.584 16.67-18.58z" class="I"/><path d="M635.385 175.352c1.106-5.698-1.974-11.088-6.88-12.04s-9.778 2.896-10.883 8.594 1.974 11.088 6.88 12.04 9.778-2.895 10.883-8.593z" class="C D E Q"/><path d="M627.06 181.17c2.926 0 5.297-2.652 5.297-5.923s-2.37-5.923-5.297-5.923-5.297 2.65-5.297 5.923 2.372 5.923 5.297 5.923z" class="B"/><path d="M631.745 171.106c.372-1.052-.22-2.222-1.325-2.613s-2.3.145-2.674 1.198.22 2.222 1.325 2.613 2.3-.146 2.674-1.198z" class="C D E I"/><g class="B"><path d="M629.793 155.44c-10.22-2.795-18.724 9.312-18.515 18.4.123 5.363 2.968 11.5 7.635 14.583-5.82-2.44-9.46-9.517-9.6-15.6-.217-9.506 8.04-19.58 16.668-18.578a10.895 10.895 0 0 1 3.812 1.195z" class="P"/><path d="M631.18 164.367c-5.643-1.603-10.638 3.265-11.658 8.522-.837 4.318.704 8.46 3.618 10.668-4.094-1.6-6.512-6.497-5.513-11.645 1.106-5.7 5.98-9.544 10.884-8.592a7.897 7.897 0 0 1 2.669 1.047z" class="F"/></g><path d="M649.7 154.036c-7.727 1.034-13.14 10.668-12.17 19.054.965 8.35 8.43 16.955 16.773 15.857 7.574-.997 12.35-9.528 12.387-16.626.05-9.508-8.383-19.437-17-18.285z" class="I"/><path d="M651.687 183.726c4.888-1.038 7.873-6.48 6.67-12.158s-6.144-9.44-11.032-8.403-7.873 6.48-6.668 12.158 6.143 9.44 11.03 8.403z" class="C D E Q"/><path d="M649.092 180.976c2.925-.05 5.25-2.744 5.193-6.015s-2.474-5.88-5.4-5.83-5.25 2.744-5.193 6.014 2.474 5.88 5.4 5.83z" class="B"/><path d="M652.418 172.3c1.097-.4 1.67-1.6 1.28-2.636s-1.597-1.56-2.694-1.15-1.67 1.6-1.28 2.636 1.598 1.56 2.695 1.15z" class="C D E I"/><g class="B"><path d="M666.688 172.32c-.033 6.163-3.638 13.406-9.544 15.86 4.764-3.08 7.604-9.404 7.633-14.877.048-9.18-9.055-21.562-19.298-17.76 1.3-.78 2.715-1.307 4.22-1.51 8.608-1.152 17.04 8.777 17 18.285z" class="P"/><path d="M652.754 183.4c3.043-2.182 4.63-6.453 3.694-10.865-1.12-5.276-6.324-10.07-11.937-8.185.85-.58 1.808-.99 2.817-1.205 4.888-1.038 9.827 2.724 11.032 8.4 1.115 5.255-1.358 10.308-5.606 11.855z" class="F"/><path d="M627.25 189.04c0 3.817 4.943 8.45 10.813 8.4 5.41-.048 10.687-4.628 10.687-8.39 0-7.607-21.5-7.722-21.5-.01z" class="G"/></g><path d="M627.102 188.14c0 3.817 5.012 8.45 10.964 8.4 5.486-.048 10.836-4.628 10.836-8.39 0-3.027-6.312-5.69-10.836-5.65-4.2.04-10.964 2.058-10.964 5.64z" class="U"/><path d="M627.18 187.48c2.088 2.738 6.234 5.047 10.893 5.01 4.3-.034 8.545-2.356 10.704-5.077.08.243.124.49.124.74 0 3.76-5.35 8.34-10.836 8.39-5.952.05-10.964-4.583-10.964-8.4a2.796 2.796 0 0 1 .079-.662z" class="B R"/><path d="M633.5 261.9c1.6 0 3.155-1.18 3.335-2.807.456-4.1-4.717-4.484-7.533-4.546-2.855-.062-7.702.478-8.55 3.614-.742 2.74 1.824 3.74 3.65 3.74s2.45-.607 4.65-.607c1.92 0 2.85.607 4.45.607z" class="C D E H"/><path d="M633.45 260.8c-1.6 0-2.53-.607-4.45-.607-2.2 0-2.824.607-4.65.607-1.42 0-3.288-.605-3.7-2.163-.336 2.38 2.034 3.263 3.75 3.263 1.825 0 2.45-.607 4.65-.607 1.92 0 2.85.607 4.45.607 2.143 0 3.65-1.707 3.295-4.013-.148 1.673-1.7 2.913-3.345 2.913z" class="B G"/><path d="M642.5 261.9c-1.6 0-3.155-1.18-3.335-2.807-.456-4.1 4.717-4.484 7.533-4.546 2.855-.062 7.702.478 8.55 3.614.742 2.74-1.824 3.74-3.65 3.74s-2.45-.607-4.65-.607c-1.92 0-2.85.607-4.45.607z" class="C D E H"/><path d="M642.55 260.8c1.6 0 2.53-.607 4.45-.607 2.2 0 2.824.607 4.65.607 1.42 0 3.288-.605 3.7-2.163.336 2.38-2.034 3.263-3.75 3.263-1.825 0-2.45-.607-4.65-.607-1.92 0-2.85.607-4.45.607-2.143 0-3.65-1.707-3.295-4.013.148 1.673 1.702 2.913 3.345 2.913z" class="B G"/><path d="M618.07 247.085c2.84.002 4.65-3.406 2.93-5.764.796-2.26-.904-4.77-3.333-4.827-2.8-.067-4.418 2.925-4.125 5.456.274 2.366 1.876 5.133 4.528 5.135z" class="C D E H"/><path d="M613.54 241.95c.34 2.928 2.72 6.34 6.27 4.7-3.442-.44-5.85-6.275-4.156-9.592-.27.192-.694.417-1.38 1.38-.614 1.086-.885 2.31-.733 3.52z" class="B G"/><path d="M657.93 247.085c-2.84.002-4.65-3.406-2.93-5.764-.796-2.26.904-4.77 3.333-4.827 2.8-.067 4.418 2.925 4.125 5.456-.274 2.366-1.876 5.133-4.528 5.135z" class="C D E H"/><path d="M662.458 241.95c-.34 2.928-2.718 6.34-6.268 4.7 3.44-.44 5.85-6.275 4.155-9.592.27.192.695.417 1.38 1.38.615 1.086.885 2.3.733 3.52zm3.212-41.624c1.26.198 2.235 1.633 1.826 2.87-.102.286-.56.316-.637.023-.222-.854-.784-1.676-1.494-2.328-.227-.2-.001-.605.305-.563v-.001zm-55.343 0c-1.26.198-2.236 1.633-1.826 2.87.1.286.56.316.636.023.222-.854.785-1.676 1.495-2.328.227-.2 0-.605-.305-.563v-.001z" class="B G"/><path d="M663.93 202.815c-3.925 2.375-14.025 7-25.925 6.95s-22-4.575-25.935-6.95c.36-.425.775-.7 1.125-.925.357-.23.15-.85-.35-.825s-1.59.45-2.225 1.5-.475 2.05-.35 2.525.975.6 1.025 0c.018-.224.075-1.2.3-1.425 1.185.675 11.4 7.7 26.4 7.7s25.225-7.025 26.4-7.7c.225.225.282 1.2.3 1.425.05.6.9.475 1.025 0s.285-1.475-.35-2.525-1.725-1.475-2.225-1.5-.707.595-.35.825c.35.225.725.4 1.125.925z" class="V"/><path d="M686.13 172.84c-.092-.007-.18-.04-.256-.095s-.133-.13-.17-.215c-10.903-25.5-48.738-28.788-72.66-25.366-6.55.937-12.053 2.377-15.678 4a.532.532 0 0 1-.157.044 57.604 57.604 0 0 1 8.607-10.938c18.974-3.405 52.227-5.864 74.314 11.73 3.406 5.75 5.536 12.64 5.998 20.84z" class="B F"/><g class="C D E"><path d="M668.7 96.141a7.197 7.197 0 0 1-.606 2.9605 7.193 7.193 0 0 1-1.77 2.4496c-1.917-1.85-3.825-2.981-5.654-3.188-1.29-.146-3.233.2105-5.65 1.004-.474-.9716-.723-2.0373-.73-3.1182s.232-2.1492.695-3.126 1.14-1.8366 1.98-2.516a7.199 7.199 0 0 1 2.875-1.4092c1.052-.248 2.147-.2563 3.202-.024s2.046.6992 2.896 1.366 1.54 1.5165 2.02 2.486a7.21 7.21 0 0 1 .741 3.1152z" fill="#f2f2f2"/><path d="M598.458 149.615c-.404.184-.844-.23-.687-.644 10.033-26.327 53.534-51.667 62.888-50.608 13.208 1.495 30.48 51.084 26.036 72.523-.1.5-.774.556-.97.094-13.72-32.48-70.606-28.924-87.268-21.365z" class="Q"/><g fill="#f2f2f2"><use xlink:href="#L"/><use xlink:href="#M"/><use xlink:href="#L"/><use xlink:href="#M"/></g></g><g class="B G"><path d="M668.69 96.1408c.01 1.0186-.197 2.0277-.606 2.9604a7.192 7.192 0 0 1-1.77 2.4498c-1.1-1.062-2.196-1.8867-3.277-2.4357.523-.8097.878-1.716 1.045-2.6655s.14-1.9225-.076-2.8618a7.2 7.2 0 0 0-1.183-2.6068c-.565-.781-1.28-1.441-2.105-1.9404l.705-.0405a7.202 7.202 0 0 1 5.112 2.0653c1.363 1.339 2.138 3.1647 2.155 5.0752z"/><path d="M672.18 155.012c5.9 3.936 10.672 9.16 13.547 15.968.195.462.87.396.97-.094 4.443-21.44-12.828-71.028-26.036-72.523-.837-.0948-1.95.022-3.285.3323C672.18 105.29 672.6 142.014 672.18 155.012z"/></g><path transform="matrix(-1 0 0 1 579 0)" fill="url(#A)" fill-opacity=".75" d="M0 0h50v268H0z"/><path fill="url(#B)" fill-opacity=".75" d="M201 0h50v268h-50z"/><path d="M244 12c0-6.6274 5.373-12 12-12h268c6.627 0 12 5.3726 12 12v244c0 6.627-5.373 12-12 12H256c-6.627 0-12-5.373-12-12V12z" class="B"/><path d="M244 24h292V12c0-6.6274-5.373-12-12-12H256c-6.627 0-12 5.3726-12 12v12z" fill="#404040"/><rect x="268" y="44" width="180" height="12" rx="6" class="L"/><rect x="460" y="44" width="20" height="12" rx="6" class="O"/><rect x="288" y="68" width="30" height="12" rx="6" class="J"/><rect x="330" y="68" width="50" height="12" rx="6" class="K"/><rect x="308" y="92" width="30" height="12" rx="6" class="L"/><rect x="348" y="92" width="100" height="12" rx="6" class="J"/><rect x="308" y="116" width="40" height="12" rx="6" class="L"/><rect x="360" y="116" width="30" height="12" rx="6" class="K"/><rect x="328" y="140" width="40" height="12" rx="6" class="J"/><rect x="380" y="140" width="60" height="12" rx="6" class="K"/><rect x="452" y="140" width="60" height="12" rx="6" class="L"/><g class="O"><rect x="308" y="164" width="20" height="12" rx="6"/><rect x="402" y="116" width="20" height="12" rx="6"/></g><rect x="308" y="188" width="40" height="12" rx="6" class="L"/><rect x="360" y="188" width="30" height="12" rx="6" class="K"/><rect x="402" y="188" width="60" height="12" rx="6" class="J"/><rect x="474" y="188" width="30" height="12" rx="6" class="K"/><rect x="288" y="212" width="50" height="12" rx="6" class="J"/><rect x="268" y="236" width="20" height="12" rx="6" class="O"/><circle cx="259" cy="12" r="5" class="L"/><circle cx="274" cy="12" r="5" class="K"/><circle cx="289" cy="12" r="5" class="J"/><defs><linearGradient id="A" x1="37.0833" y1="134" x2="2.5" y2="134" gradientUnits="userSpaceOnUse"><stop stop-color="#fff"/><stop offset="1" stop-color="#fff" stop-opacity="0"/></linearGradient><linearGradient id="B" x1="238.083" y1="134" x2="204.5" y2="134" gradientUnits="userSpaceOnUse"><stop stop-color="#fff"/><stop offset="1" stop-color="#fff" stop-opacity="0"/></linearGradient><path id="C" d="M567.474 167.725c2.575-.35 7.4-.35 9.425 1.7l.083-.752c-2.108-1.848-6.908-1.973-9.4-1.623-.013.165-.093.506-.107.675z"/><path id="D" d="M590.526 167.725c-2.575-.35-7.4-.35-9.425 1.7l-.083-.752c2.108-1.848 6.908-1.973 9.4-1.623.013.165.093.506.107.675z"/><path id="E" d="M579 166.65c-8.783.08-16.5-7.85-15.9-16.85.5 7.4 7.258 14.424 15.9 14.35s15.4-6.95 15.9-14.35c.6 9-7.116 16.77-15.9 16.85z"/><path id="F" d="M579 130.6c5.2 0 8 3.4 8.7 6.4 1.724 7.39 3.2 13.7.2 17.5s-6.748 4.1-8.9 4.1c-2.378 0-5.9-.3-8.9-4.1s-1.622-9.69.2-17.5c.7-3 3.5-6.4 8.7-6.4z"/><path id="G" d="M579 158.6c-6.8 0-11.2-4.7-10.65-10.8.2 5.75 4.8 9.5 10.65 9.5s10.45-3.75 10.65-9.5c.55 6.1-3.85 10.8-10.65 10.8z"/><path id="H" d="M598.75 137.9c-5.767 2.26-13.55 3.95-19.75 3.95s-12.967-1.322-19.75-3.95c-.362.527-.83 1.313-1.15 1.85 7.1 2.85 13.75 4.3 20.9 4.3s13.8-1.45 20.9-4.3c-.308-.535-.796-1.318-1.15-1.85z"/><path id="I" d="M572.744 84.0157c.373-1.0525-.22-2.2225-1.325-2.6133s-2.3.1455-2.673 1.198.22 2.2225 1.325 2.6133 2.3-.1455 2.673-1.198z"/><path id="J" d="M758.334 138.136c.553 2.55.06 5.727-1.89 7.604 2.57-1.685 3.253-5.378 2.64-8.204-.807-3.72-4.32-6.462-7.987-7.03-3.313-.512-6.59.928-9.077 3.04 5.706-4.038 14.665-3.018 16.314 4.59z"/><path id="K" d="M754.882 143.762c-1.35 1.573-3.78.763-5.144-.41-.157-.134-.345-.227-.547-.27a1.26 1.26 0 0 0-.61.021c.2-.365.582-.612.997-.645a1.248 1.248 0 0 1 .91.294c1.103.975 2.992 1.76 4.394 1.012z"/><path id="L" d="M685.727 170.98c-13.72-32.48-70.606-28.923-87.27-21.364-.405.185-.846-.23-.687-.645 2.184-5.732 5.956-11.417 10.616-16.793 20.284-4.82 62.766-2.717 78.266 21.3 1.226 7.967 1.15 12.063.042 17.41-.1.487-.774.553-.968.09z"/><path id="M" d="M681.203 129.79c-14.918-11.36-38.37-14.395-55.916-13.29 7.287-5.61 14.818-10.28 21.178-13.482 8.54.83 17.6 2.692 25.486 5.92 3.34 5.61 6.614 12.953 9.252 20.853z"/></defs></svg>