<svg xmlns="http://www.w3.org/2000/svg" width="88" height="22" fill="none" xmlns:v="https://vecta.io/nano"><path d="M31.648 15.3454l.9864 2.7037h2.5077L30.628 6.216h-2.675L23.406 18.05h2.44l.9864-2.7037h4.815zm-4.046-2.103l1.6384-4.4728 1.6384 4.4728H27.602zm8.3594 7.9776h2.2236v-3.972c.4012.5508 1.2372 1.0014 2.374 1.0014 2.324 0 3.8787-1.836 3.8787-4.3226 0-2.4367-1.3876-4.2726-3.795-4.2726-1.237 0-2.1567.5508-2.5245 1.185V9.8378h-2.1567V21.22zm4.2465-9.5798c1.137 0 2.0397.8512 2.0397 2.303 0 1.4687-.9028 2.32-2.0397 2.32s-2.0563-.868-2.0563-2.32.9195-2.303 2.0563-2.303zm5.3317 9.5798h2.2236v-3.972c.4012.5508 1.237 1.0014 2.374 1.0014 2.324 0 3.8787-1.836 3.8787-4.3226 0-2.4367-1.3876-4.2726-3.795-4.2726-1.2372 0-2.1567.5508-2.5245 1.185V9.8378h-2.1567V21.22zm4.2465-9.5798c1.137 0 2.0397.8512 2.0397 2.303 0 1.4687-.9028 2.32-2.0397 2.32s-2.0564-.868-2.0564-2.32.9196-2.303 2.0564-2.303zm13.6286 4.9235V5.9658h-2.2v4.6898c-.234-.434-.9028-1.018-2.324-1.018-2.3238 0-3.9455 1.886-3.9455 4.2893 0 2.4867 1.6718 4.3226 4.0124 4.3226 1.1034 0 1.9393-.5007 2.307-1.1516 0 .384.0502.7844.0836.9513h2.1233c-.0335-.3338-.067-.9346-.067-1.4854zm-4.1796-.3004c-1.1703 0-2.0397-.868-2.0397-2.3365s.9028-2.3032 2.0397-2.3032 2.023.8178 2.023 2.2865c0 1.4853-.886 2.3532-2.023 2.3532z" fill-rule="evenodd" fill="#000"/><path d="M64.8647 18.05h2.2235V9.8378h-2.2235v8.2113zm10.11-9.513c0 .7344-.4013 1.3018-1.2706 1.3018h-2.0017V7.3844h-2.0062V8.536c0 .7344-.4012 1.3018-1.2706 1.3018h-.418v1.9694h1.488v3.822c0 1.5855 1.003 2.5368 2.608 2.5368.652 0 1.0532-.1168 1.254-.2002v-1.836c-.117.0334-.418.0668-.6855.0668-.6353 0-.9697-.2337-.9697-.9514v-3.438h3.0717v3.822c0 1.5855 1.003 2.5368 2.608 2.5368.652 0 1.0533-.1168 1.254-.2002v-1.836c-.117.0334-.418.0668-.6854.0668-.6353 0-.9697-.2337-.9697-.9514v-3.438h1.655V9.8378H76.98V7.3844h-2.0062V8.536z" fill="#000"/><path fill-rule="evenodd" d="M87.9483 13.9434c0-2.5368-1.8557-4.356-4.3133-4.356s-4.3134 1.819-4.3134 4.356c0 2.5202 1.8557 4.356 4.3134 4.356s4.3133-1.8358 4.3133-4.356zm-2.2235 0c0 1.5522-1.003 2.3366-2.0898 2.3366s-2.09-.801-2.09-2.3366c0-1.552 1.0032-2.3365 2.09-2.3365s2.0898.7844 2.0898 2.3365z" fill="#000"/><path d="M67.34 7.1508c0-.7677-.602-1.3852-1.371-1.3852-.7523 0-1.371.6175-1.371 1.3852 0 .7343.6186 1.352 1.371 1.352.77 0 1.371-.6175 1.371-1.352z" fill="#000"/><path fill-rule="evenodd" d="M20.718 3.9368a1.282 1.282 0 0 1 1.0566.5578c.239.349.2914.7933.14 1.1884l-5.935 15.4926c-.1902.4964-.666.8242-1.1966.8244H5.8022c-.4223 0-.8175-.2086-1.0566-.5574a1.287 1.287 0 0 1-.1399-1.1883l.5117-1.337h5.7864c.5307-.0006 1.0063-.3284 1.1966-.825l5.423-14.1556h3.195zM16.1974 0c.4223 0 .8175.2086 1.0566.5574a1.287 1.287 0 0 1 .14 1.1882L11.459 17.236c-.1897.4975-.666.8263-1.1975.8263h-8.98a1.282 1.282 0 0 1-1.0561-.5575c-.24-.3486-.2916-.7927-.1405-1.1877L6.02.8244C6.2102.328 6.686.0002 7.2166 0h8.9808zm-1.0932 5.327L1.7865 14.2597.994 16.3305c-.0755.1976-.0493.4198.0702.5943a.642.642 0 0 0 .5281.2795l8.5208-.002a.642.642 0 0 0 .5988-.4134L15.1042 5.327zm1.2813-3.3445L3.0668 10.916l-.64 1.6708 13.3177-8.9306.641-1.6737z" fill="#000"/></svg>