<svg xmlns="http://www.w3.org/2000/svg" width="130" height="32" fill="#000" xmlns:v="https://vecta.io/nano"><path d="M22 2c.572-.4927-2.5-2-1-2s5.862 2.1572 5 4c-.2224.4755-1.12 1.61-6 0 5.1268 1.696 8.667 4.6338 9 11 2.1074.316 3 2 3 4s-2.378 5.3114-5 6c.4858-1.68-.2534-4.7674-3-6 4.1017-5.0037-2.7083-14.6798-8.0015-10C10.7052 4.3206 3.8982 13.9962 8 19c-2.7466 1.2326-3.4858 4.32-3 6-2.67-.7015-5-4-5-6s.9312-3.7 3-4C3.5218 8.5952 9.12 2.4922 15.9985 2c4.3164-.3085 5.528.4068 6.0015 0zM7 27c5 4 13 4 18 0-2 3-5 5-9 5s-7-2-9-5zm33-1.152h4.0458v-9.443l4.1242 5.52h1.2268l4.124-5.5444V25.85h4.046V8h-2.6363l-6.1602 8.5823L42.6102 8H40v17.848z"/><path fill-rule="evenodd" d="M58.9922 19.19c0 4 2.8974 7.0126 6.9954 7.0126S72.983 23.19 72.983 19.19c0-3.9747-2.8974-6.9874-6.9954-6.9874s-6.9954 3.0127-6.9954 6.9874zm3.9414 0c0-2.2026 1.3313-3.595 3.054-3.595s3.054 1.3924 3.054 3.595-1.3312 3.595-3.054 3.595-3.054-1.3924-3.054-3.595z"/><path d="M74.1146 25.848h3.863v-6.7595c0-2.152 1.2007-3.3164 2.7668-3.3164 1.305 0 2.3753.7848 2.3753 2.8607v7.2152h3.8632v-7.8734c0-3.7722-2.2448-5.7722-4.8812-5.7722-1.827 0-3.34.8608-4.124 2.1266v-1.7975h-3.863V25.848zm15.1574 0h4.072v-7.8734l6.0035 7.8734h5.0636l-7.23-9.0886 6.9-8.633H99.19l-5.847 7.7975V8.1266h-4.072V25.848z"/><path fill-rule="evenodd" d="M103.217 19.2405c0 3.924 2.95 6.962 7.204 6.962 2 0 3.81-.6076 5.403-1.6202l-1.67-2.6836c-.94.6076-2.245.962-3.472.962-1.853 0-3.132-.9874-3.523-2.557h9.057c.104-.4304.13-.9873.13-1.443 0-3.7975-2.454-6.6583-6.448-6.6583-4.02 0-6.682 3.0633-6.682 7.038zm6.682-3.9747c1.514 0 2.48 1.038 2.663 2.7342h-5.43c.34-1.7468 1.384-2.7342 2.767-2.7342z"/><path d="M116.6 29.5696c.626.2785 1.487.4304 2.427.4304 2.114 0 4.072-.9367 5.534-4.4557L130 12.5316h-4.072L122.9 20.81l-2.975-8.2785h-4.177l5.247 12.633c-.73 1.367-1.358 1.6455-2.48 1.6455-.574 0-1.096-.1266-1.54-.3038l-.365 3.0633z"/></svg>