<svg xmlns="http://www.w3.org/2000/svg" width="90" height="24" fill="none" xmlns:v="https://vecta.io/nano"><path d="M32.648 16.345l.986 2.704h2.508L31.628 7.216h-2.675L24.406 19.05h2.44l.986-2.704h4.815zm-4.046-2.103L30.24 9.77l1.638 4.473H28.6zm8.358 7.978h2.224v-3.972c.4.55 1.237 1 2.374 1 2.324 0 3.88-1.836 3.88-4.323 0-2.437-1.388-4.273-3.795-4.273-1.237 0-2.157.55-2.525 1.185v-1H36.96V22.22zm4.247-9.58c1.137 0 2.04.85 2.04 2.303 0 1.47-.903 2.32-2.04 2.32s-2.056-.868-2.056-2.32.92-2.303 2.056-2.303zm5.333 9.58h2.224v-3.972c.4.55 1.237 1 2.374 1 2.324 0 3.88-1.836 3.88-4.323 0-2.437-1.388-4.273-3.795-4.273-1.237 0-2.157.55-2.524 1.185v-1h-2.16V22.22zm4.246-9.58c1.137 0 2.04.85 2.04 2.303 0 1.47-.903 2.32-2.04 2.32s-2.056-.868-2.056-2.32.92-2.303 2.056-2.303zm13.63 4.924V6.966h-2.2v4.7c-.234-.434-.903-1.018-2.324-1.018-2.324 0-3.946 1.886-3.946 4.3 0 2.487 1.672 4.323 4.012 4.323 1.103 0 1.94-.5 2.307-1.152 0 .384.05.784.084.95h2.123c-.034-.334-.067-.935-.067-1.485zm-4.18-.3c-1.17 0-2.04-.868-2.04-2.337s.903-2.303 2.04-2.303 2.023.818 2.023 2.287c0 1.485-.886 2.353-2.023 2.353z" fill-rule="evenodd" fill="#000"/><path d="M65.865 19.05h2.224v-8.2h-2.224v8.2zm10.1-9.514c0 .734-.4 1.302-1.27 1.302h-2.002V8.384h-2.006v1.152c0 .734-.4 1.302-1.27 1.302h-.418v1.97h1.488v3.822c0 1.585 1.003 2.537 2.608 2.537.652 0 1.053-.117 1.254-.2V17.13c-.117.033-.418.067-.685.067-.635 0-.97-.234-.97-.95V12.81h3.072v3.822c0 1.585 1.003 2.537 2.608 2.537.652 0 1.053-.117 1.254-.2V17.13a3.23 3.23 0 0 1-.685.067c-.635 0-.97-.234-.97-.95V12.81h1.655v-1.97H77.98V8.384h-2.006v1.152z" fill="#000"/><path fill-rule="evenodd" d="M88.948 14.943c0-2.537-1.856-4.356-4.313-4.356s-4.313 1.82-4.313 4.356c0 2.52 1.856 4.356 4.313 4.356s4.313-1.836 4.313-4.356zm-2.224 0c0 1.552-1.003 2.337-2.1 2.337s-2.1-.8-2.1-2.337c0-1.552 1.003-2.337 2.1-2.337s2.1.784 2.1 2.337z" fill="#000"/><path d="M68.34 8.15c0-.768-.602-1.385-1.37-1.385a1.38 1.38 0 0 0-1.371 1.385c0 .734.618 1.352 1.37 1.352.77 0 1.37-.618 1.37-1.352z" fill="#000"/><path fill-rule="evenodd" d="M21.718 4.937a1.28 1.28 0 0 1 1.057.558 1.29 1.29 0 0 1 .14 1.188L16.98 22.176c-.2.496-.666.824-1.197.824h-8.98a1.28 1.28 0 0 1-1.057-.557c-.24-.35-.29-.793-.14-1.188l.512-1.337h5.786c.53-.001 1.006-.328 1.197-.825l5.423-14.156h3.195zM17.197 1a1.28 1.28 0 0 1 1.057.557c.24.35.29.793.14 1.188l-5.935 15.5a1.28 1.28 0 0 1-1.197.826h-8.98a1.28 1.28 0 0 1-1.056-.558c-.24-.35-.292-.793-.14-1.188L7.02 1.824C7.2 1.328 7.686 1 8.217 1h8.98zm-1.093 5.327L2.786 15.26l-.793 2.07c-.076.198-.05.42.07.594a.64.64 0 0 0 .528.279l8.52-.002a.64.64 0 0 0 .599-.413l4.392-11.462zm1.28-3.345l-13.32 8.934-.64 1.67 13.318-8.93.64-1.674z" fill="#000"/></svg>