<svg xmlns="http://www.w3.org/2000/svg" width="132" height="34" fill="#000" xmlns:v="https://vecta.io/nano"><path d="M23 3c.572-.493-2.5-2-1-2s5.862 2.157 5 4c-.222.475-1.12 1.6-6 0 5.127 1.696 8.667 4.634 9 11 2.107.316 3 2 3 4s-2.378 5.3-5 6c.486-1.68-.253-4.767-3-6 4.102-5.004-2.708-14.68-8-10-5.295-4.68-12.102 4.996-8 10-2.747 1.233-3.486 4.32-3 6-2.67-.7-5-4-5-6s.93-3.7 3-4c.522-6.405 6.12-12.508 13-13 4.316-.3 5.528.407 6.002 0zM8 28c5 4 13 4 18 0-2 3-5 5-9 5s-7-2-9-5zm33-1.152h4.046v-9.443l4.124 5.52h1.227l4.124-5.544v9.468h4.046V9H55.93l-6.16 8.582L43.6 9H41v17.848z"/><path fill-rule="evenodd" d="M59.992 20.2c0 4 2.897 7.013 6.995 7.013s6.995-3.013 6.995-7.013c0-3.975-2.897-6.987-6.995-6.987s-6.995 3.013-6.995 6.987zm3.94 0c0-2.203 1.33-3.595 3.054-3.595s3.054 1.392 3.054 3.595-1.33 3.595-3.054 3.595-3.054-1.392-3.054-3.595z"/><path d="M75.115 26.848h3.863v-6.76c0-2.152 1.2-3.316 2.767-3.316 1.305 0 2.375.785 2.375 2.86v7.215h3.863v-7.873c0-3.772-2.245-5.772-4.88-5.772-1.827 0-3.34.86-4.124 2.127V13.53h-3.863v13.317zm15.157 0h4.072v-7.873l6.003 7.873h5.064l-7.23-9.1 6.9-8.633h-4.88l-5.847 7.798V9.127h-4.072V26.85z"/><path fill-rule="evenodd" d="M104.217 20.24c0 3.924 2.95 6.962 7.204 6.962 2 0 3.81-.608 5.403-1.62l-1.67-2.684c-.94.608-2.245.962-3.472.962-1.853 0-3.132-.987-3.523-2.557h9.057c.104-.43.13-.987.13-1.443 0-3.797-2.454-6.658-6.448-6.658-4.02 0-6.682 3.063-6.682 7.038zm6.682-3.975c1.514 0 2.48 1.038 2.663 2.734h-5.43c.34-1.747 1.384-2.734 2.767-2.734z"/><path d="M117.6 30.57c.626.278 1.487.43 2.427.43 2.114 0 4.072-.937 5.534-4.456L131 13.532h-4.072L123.9 21.8l-2.975-8.278h-4.177l5.247 12.633c-.73 1.367-1.358 1.645-2.48 1.645-.574 0-1.096-.127-1.54-.304l-.365 3.063z"/></svg>