<svg xmlns="http://www.w3.org/2000/svg" width="580" height="580" fill="none" xmlns:v="https://vecta.io/nano"><g stroke-width="10"><path d="M553.557 49.6483l.064.0368.065.0348c9.694 5.2234 15.423 11.608 18.39 18.284 2.974 6.695 3.367 14.1266 1.617 21.76-3.54 15.4363-15.753 31.0983-31.073 40.6843-22.784 14.098-54.82 22.743-89.995 18.788-21.018-28.49-29.536-60.5526-28.547-87.2085v-.0204l.001-.0204c.523-18.0895 7.93-36.5242 19.5-47.3223 5.726-5.3387 12.356-8.72 19.644-9.493 7.268-.772 15.667.9966 25.045 6.7847l.062.0386.064.0367c11.2 6.4656 17.303 19.0608 18.935 34.356l.728 6.8204 6.27-2.78c14.1-6.2507 27.598-7.4893 39.22-.7794z" stroke="#000"/><path d="M527.686 386.884l.063.036.064.035c9.282 5.005 14.762 11.09 17.608 17.423 2.853 6.348 3.256 13.38 1.62 20.603-3.31 14.617-14.892 29.446-29.48 38.5-21.702 13.317-52.275 21.428-85.91 17.547-20.185-27.203-28.435-57.735-27.592-83.072l.001-.02v-.02c.43-17.192 7.432-34.663 18.415-44.852 5.425-5.034 11.714-8.207 18.638-8.912 6.908-.703 14.923 1 23.904 6.542l.062.038.063.037c10.692 6.174 16.563 18.145 18.18 32.686l.75 6.756 6.226-2.728c13.435-5.887 26.292-7.005 37.39-.597z" stroke="#74e5a1"/></g><path d="M386.902 553.635l71.483 12.628-6.62-23.328-36.535-4.66-.278-.983 28.783-22.66-6.8-24.003L383 539.884l3.902 13.75zm105.942 19.807L492.625 457l-22.487 6.448.22 116.442 22.487-6.448zm82.953-88.845l-71.658-13.24 6.8 24.003 36.343 3.984.28.982-28.592 23.335 6.62 23.328 54.098-48.64-3.9-13.75z" fill="#727379"/><path d="M87.8064 419.037l.0426-.042.0412-.044c6.461-6.852 13.0138-10.182 19.2088-11.158 6.21-.98 12.454.347 18.38 3.486 11.976 6.345 22.202 19.898 26.725 34.66 6.6 21.924 6.642 50.277-4.416 78.425-28.154 11.06-56.4994 11.008-78.284 4.296l-.032-.01c-14.8134-4.432-28.3992-14.622-34.7605-26.587-3.1467-5.918-4.4775-12.16-3.5003-18.375.9746-6.197 4.306-12.756 11.163-19.22l.0438-.04.0425-.043c7.847-7.847 19.6282-10.094 32.6116-8.06l5.546.87-.8695-5.546c-2.0405-13.016-.0833-24.47 8.059-32.612z" stroke="#727379" stroke-width="8.1842"/><path d="M86.697 108.355l.0515-.05.05-.053c6.355-6.737 12.725-9.9657 18.6655-10.9285 5.958-.9655 11.957.2713 17.685 3.2875 11.612 6.113 21.583 19.313 25.958 33.79 6.378 21.492 6.33 49.35-4.59 77.113-27.77 10.926-55.6212 10.96-76.9693 4.473l-.0197-.006-.0196-.006c-14.5254-4.285-27.7574-14.22-33.8864-25.82-3.0227-5.72-4.264-11.72-3.3-17.68.9613-5.944 4.1918-12.32 10.933-18.68l.053-.05.0515-.05c7.578-7.578 18.9816-9.862 31.7206-7.922l6.7188 1.023-1.023-6.72c-1.946-12.78.0527-23.85 7.9222-31.72z" stroke="#000" stroke-width="10"/><path d="M6.906 114.928l69.78-4.76-11.7155-20.292-35.2385 4.1115-.4932-.8544 21.52-27.8743L38.703 44.3805 0 102.966l6.906 11.962zm103.677-6.03L82.77 0 63.2886 11.247l27.8142 108.897 19.4802-11.247zM167.02 6.5377l-70.088 4.225 12.055 20.8793 34.9-4.7.493.8544L123.2 56.259l11.716 20.2918 39-58.0517-6.906-11.9615z" fill="#74e5a1"/><path fill-rule="evenodd" d="M352.472 128.202c5.296-4.486-15.56-9.51-18.337-17.457-3.354-9.575 49.508 15.907 41.496 32.674-.625 1.314-6.924 11.742-52.12-2.927 47.48 15.445 84.416 46.455 87.5 104.427 46.726 0 33.272 71.726-14.052 86.07-4.576 10.43-18.736 29.86-46.255 40.985.586 1.17 2.053 4.338 2.928 6.44 5.4-3.282 10.246-4.15 16.56-3.175 9.178 1.42 17.972 8.283 20 17.595.77 3.55.923 4.902.8 7.938h21.396a2.629 2.629 0 0 1 2.628 2.628v12.516a2.629 2.629 0 0 1-2.628 2.628h-55.692v48.934c0 1.106-.897 2.002-2.002 2.002h-8.26c-1.106 0-2.003-.896-2.003-2.002v-48.934l-3.668.27c.586 15.808-5.27 18.15-21.078 15.808-1.053 1.18-1.737 1.863-2.927 2.928 1.25 5.126 1.548 9.3 1.756 12.295 6.293.784 13.11 3.15 14.638 8.783 1.857 6.857-4.677 10.78-9.245 10.78s-6.133-1.52-11.637-1.52c-4.808 0-7.136 1.52-11.14 1.52-7.074 0-11.69-9.732-6.62-14.88-.533-8.856-8.82-9.145-9.368 0 5.07 5.146.538 14.88-6.537 14.88-4.005 0-6.333-1.52-11.14-1.52-5.505 0-7.07 1.52-11.637 1.52s-11.187-3.337-9.33-10.195c1.526-5.633 8.345-8.584 14.637-9.368.21-2.987.504-7.163 1.757-12.295-4.767-4.31-9.954-12.88-11.466-19.006h-16.25v48.934c0 1.106-.897 2.002-2.002 2.002h-8.26c-1.106 0-2.003-.896-2.003-2.002v-48.934h-55.567c-1.452 0-2.628-1.177-2.628-2.628V403.4c0-1.45 1.176-2.628 2.628-2.628h60.108c-9.917-5.31-2.777-22.404.896-28.798-22.904-10.67-39.583-26.614-46.274-41.866-39.794-6.145-66.142-84.017-13.907-85.442 4.832-58.323 57.988-114.546 121.7-119.028 39.975-2.8 58.232 6.27 62.616 2.565zm-.356 272.57h32.307c0-2.686.265-3.737-.36-6.615-1.47-6.787-8.2-11.71-14.832-12.737-5.264-.812-9.388.43-13.84 3.435 1.482 5.42 2.342 13.466-3.275 15.917z" fill="#727379"/></svg>