<svg xmlns="http://www.w3.org/2000/svg" width="900" height="318" fill="none" xmlns:v="https://vecta.io/nano"><g stroke-width="10"><path d="M765.308 177.13l.064.037.064.034c9.695 5.224 15.423 11.608 18.39 18.284 2.975 6.695 3.368 14.127 1.618 21.76-3.54 15.436-15.754 31.098-31.074 40.684-22.784 14.1-54.82 22.744-89.994 18.79-21.018-28.492-29.537-60.553-28.548-87.21l.001-.02.001-.02c.523-18.09 7.93-36.524 19.5-47.322 5.725-5.34 12.356-8.72 19.644-9.493 7.267-.772 15.667.996 25.044 6.784l.063.04.063.037c11.2 6.465 17.304 19.06 18.936 34.356l.728 6.82 6.27-2.78c14.1-6.25 27.6-7.49 39.22-.78z" stroke="#000"/><path d="M877.343 68.4366l.063.0364.064.0346c8.11 4.372 12.85 9.66 15.303 15.1175 2.46 5.4727 2.817 11.5534 1.394 17.833-2.884 12.73-13 25.7-25.785 33.642-19.01 11.662-45.795 18.792-75.287 15.447-17.648-23.876-24.853-50.6307-24.115-72.8162l.002-.04c.377-15.062 6.518-30.3345 16.085-39.2093 4.717-4.3764 10.16-7.112 16.13-7.72 5.955-.6062 12.91.8553 20.757 5.6953l.062.0382.063.0365c9.228 5.3276 14.36 15.6932 15.775 28.4347l.75 6.7547 6.225-2.7272c11.78-5.1606 22.93-6.09 32.512-.5562z" stroke="#74e5a1"/></g><g fill="#727379"><path d="M641.638 14.1028l32.178 47.7498 9.62-16.6612-17.466-23.4132.405-.7015 28.73 3.902 9.898-17.1435-57.695-3.5537-5.67 9.8213zm47.07 71.3712l66.085-64.4432-16.047-9.265L672.66 76.21l16.048 9.265zm96.187-1.757L752.97 35.5288l-9.897 17.1435 17.744 22.93-.405.7015-29-3.4198-9.62 16.6612 57.442 3.9922 5.67-9.8213z"/><path fill-rule="evenodd" d="M504.007 23.327c4.523-3.8315-13.286-8.1225-15.66-14.908-2.864-8.177 42.28 13.5838 35.437 27.903-.534 1.122-5.913 10.027-44.508-2.5C519.823 47.012 551.365 73.4934 554 123c39.903 0 28.413 61.252-12 73.5-3.907 8.907-16 25.5-39.5 35 .5 1 1.753 3.705 2.5 5.5 4.62-2.803 8.75-3.544 14.14-2.71 7.837 1.213 15.347 7.073 17.07 15.025.657 3.032.788 4.186.682 6.78h18.27c1.24 0 2.245 1.005 2.245 2.245v10.687c0 1.24-1.005 2.245-2.245 2.245h-47.56v41.788c0 .944-.765 1.7-1.7 1.7h-7.054a1.711 1.711 0 0 1-1.71-1.71V271.27l-3.132.23c.5 13.5-4.5 15.5-18 13.5-.9 1.008-1.484 1.59-2.5 2.5 1.068 4.378 1.322 7.95 1.5 10.5 5.374.67 11.197 2.69 12.5 7.5 1.587 5.856-3.994 9.207-7.895 9.207s-5.237-1.3-9.938-1.3c-4.105 0-6.093 1.3-9.513 1.3-6.04 0-9.982-8.312-5.654-12.707-.455-7.563-7.53-7.81-8 0 4.33 4.395.46 12.707-5.582 12.707-3.42 0-5.408-1.3-9.514-1.3-4.7 0-6.036 1.3-9.937 1.3s-9.554-2.85-7.967-8.707c1.303-4.8 7.127-7.33 12.5-8 .178-2.55.43-6.117 1.5-10.5-4.07-3.68-8.5-11-9.79-16.23H403.83v41.788a1.711 1.711 0 0 1-1.71 1.71h-7.054a1.711 1.711 0 0 1-1.71-1.71V271.27h-47.453c-1.24 0-2.244-1.005-2.244-2.245v-10.687c0-1.24 1.005-2.245 2.244-2.245h51.33c-8.47-4.534-2.37-19.132.765-24.593-19.56-9.113-33.803-22.727-39.517-35.752C324.5 190.5 302 124 346.607 122.783c4.127-49.8066 49.52-97.82 103.93-101.647 34.137-2.3993 49.728 5.3545 53.47 2.19zm-.303 232.766h27.59c0-2.294.226-3.19-.307-5.65-1.256-5.796-7.01-10-12.666-10.877-4.495-.694-8.017.368-11.82 2.933 1.266 4.628 2 11.5-2.796 13.593z"/></g><g stroke-width="10"><path d="M200.12 195.82l.05-.05.05-.053c6.355-6.737 12.725-9.966 18.666-10.93 5.957-.965 11.957.272 17.685 3.287 11.612 6.114 21.583 19.314 25.958 33.8 6.377 21.49 6.33 49.35-4.592 77.113-27.77 10.926-55.62 10.96-76.97 4.473l-.02-.006-.02-.006c-14.525-4.285-27.757-14.22-33.886-25.82-3.023-5.72-4.264-11.72-3.3-17.68.96-5.943 4.192-12.32 10.933-18.678l.053-.05.05-.05c7.578-7.578 18.982-9.862 31.72-7.923l6.72 1.024-1.023-6.72c-1.946-12.78.052-23.85 7.922-31.72z" stroke="#000"/><path d="M184.603 12.03l.064-.0368.062-.0386c9.37-5.784 17.764-7.5525 25.03-6.7832 7.285.7715 13.918 4.1467 19.653 9.4792 11.6 10.783 19.055 29.1916 19.697 47.2518.818 26.7806-7.713 58.8476-28.726 87.3326-35.183 3.956-67.208-4.698-89.8-18.882l-.017-.01-.017-.01c-15.405-9.498-27.666-25.13-31.2274-40.5578-1.7608-7.6277-1.3728-15.0602 1.6004-21.7587 2.966-6.6798 8.697-13.07 18.398-18.297l.065-.035.064-.0367c11.198-6.4656 25.158-5.455 39.22.7794l6.27 2.78.728-6.8205c1.636-15.3356 7.313-27.646 18.935-34.356z" stroke="#727379"/></g><path d="M6.906 231.505l69.78-4.76-11.7155-20.292-35.2385 4.112-.4932-.855 21.52-27.874-12.0546-20.88L0 219.544l6.906 11.96zm103.677-6.03L82.77 116.577l-19.4803 11.247 27.814 108.896 19.4802-11.247zm56.437-102.36l-70.088 4.225 12.055 20.88 34.9-4.7.493.855-21.18 28.46 11.716 20.292 39-58.05-6.906-11.962z" fill="#74e5a1"/></svg>