<svg xmlns="http://www.w3.org/2000/svg" width="900" height="318" fill="none" xmlns:v="https://vecta.io/nano"><style><![CDATA[.B{fill:#000}.C{stroke:#333}.D{stroke-width:.5344}.E{stroke-miterlimit:10}.F{fill-opacity:.1}.G{fill:#727379}.H{fill-opacity:.15}.I{fill:#f7c394}.J{fill-rule:evenodd}.K{fill-opacity:.3}]]></style><rect x="370" y="313" width="160" height="4" rx="2" class="B F"/><path d="M479.94 285.346c-5.427-.793-12.308-3.45-21.04-8.123-1.27-.678-1.78-2.335-1.095-3.616.68-1.27 2.335-1.78 3.616-1.096 8.064 4.315 14.555 6.853 19.29 7.546 3.092.452 5.317.107 6.614-1.03 1.454-1.274 1.324-3.526.943-7.736-.445-4.93-1-11.065 2.114-18.117 4.702-10.657 16.42-20.8 28.76-18.884 7.838 1.213 15.347 7.073 17.07 15.025 1.468 6.772-.643 16.05-7.858 18.642-4.785 1.7-10.252-.252-13.984-3.428-1.116-.928-1.277-2.672-.326-3.788.94-1.105 2.687-1.244 3.79-.28.046.04 4.666 3.917 8.7 2.465 4.578-1.644 5.32-8.438 4.44-12.48-1.255-5.796-7.01-10-12.665-10.877-9.923-1.532-19.324 7.32-23.056 15.763-2.555 5.788-2.1 10.936-1.68 15.477.428 4.685.824 9.11-2.743 12.237-2.957 2.607-7.168 2.864-10.903 2.302z" class="C D E G"/><path d="M534.6 250.6c1.182 5.453.126 12.242-4.042 16.253 5.494-3.6 6.954-11.495 5.645-17.536-1.724-7.952-9.233-13.813-17.07-15.026-7.08-1.094-14.084 1.983-19.402 6.5 12.196-8.63 31.345-6.45 34.87 9.8zm-7.38 12.026c-2.888 3.36-8.078 1.63-10.996-.88a2.658 2.658 0 0 0-1.17-.578 2.662 2.662 0 0 0-1.303.043c.425-.78 1.244-1.307 2.13-1.378a2.67 2.67 0 0 1 1.945.629c2.36 2.084 6.396 3.76 9.393 2.163zm-68.84 10.2c.374-.32 1.657-.96 2.458-.587l2.643 1.285c5.282 2.6 13.624 6.73 19.64 6.73 5.343 0 5.824-2.672 5.076-9.725.1.408.206.858.328 1.336 1.028 4.035 2.573 10.1-5.404 10.1-8.7 0-22.314-7.542-24.742-9.138z" fill-opacity=".25" class="B"/><path d="M446.194 302.005c.534-9.307 2.928-16.505 5.04-22.103s4.533-15.465-4.548-17.743c-12.986-3.26-20.126 27.16-20.66 36.438-.314 5.46 3.935 11.79 9.447 12.107 5.075.247 10.415-3.398 10.72-8.7z" class="C D E G"/><path d="M425.9 298.584c5.504-.75 15.818-.75 20.146 3.633l.178-1.607c-4.506-3.95-14.766-4.217-20.095-3.47-.03.352-.2 1.083-.23 1.443zm1.7-9.566c5.104 4.734 11.636 7.388 19.024 8.4.062-.535.193-1.302.267-1.817-7.332-.95-13.7-4.02-18.8-8.657-.214.64-.387 1.632-.48 2.084z" class="B H"/><path d="M454.877 302.005c-.534-9.307-2.928-16.505-5.04-22.103s-4.533-15.465 4.55-17.743c12.985-3.26 20.125 27.16 20.66 36.438.313 5.46-3.935 11.79-9.448 12.107-5.074.247-10.415-3.398-10.72-8.7z" class="C D E G"/><path d="M475.172 298.584c-5.504-.75-15.818-.75-20.146 3.633l-.177-1.607c4.505-3.95 14.766-4.217 20.094-3.47.03.352.2 1.083.23 1.443zm-1.7-9.566c-5.105 4.734-11.637 7.388-19.024 8.4-.062-.535-.193-1.302-.267-1.817 7.332-.95 13.7-4.02 18.8-8.657.214.64.387 1.632.48 2.084z" class="B H"/><path d="M400.15 256.903c3.9.286 7.254-2.957 7.15-6.806-.078-6.813 3.023-13.943 8.588-20.628 5.062-6.083 10.24-9.24 6.762-13.668s-12.348-.49-17.03 5.122c-7.726 9.282-11.844 19.394-11.675 29.54.094 3.38 2.315 6.152 6.206 6.44z" class="C D E G"/><path d="M398.42 256.585c-5.782-11.917 7.365-36.45 22-42.36-4.18-1.445-10.927 2.054-14.803 6.7-7.726 9.282-11.844 19.394-11.675 29.54.08 2.84 1.662 5.254 4.477 6.12z" fill-opacity=".14" class="B"/><path d="M500.79 256.903c-3.9.286-7.254-2.957-7.15-6.806.08-6.813-3.022-13.943-8.587-20.628-5.062-6.083-10.24-9.24-6.762-13.668s12.348-.49 17.03 5.122c7.726 9.282 11.844 19.394 11.675 29.54-.094 3.38-2.315 6.152-6.206 6.44z" class="C D E G"/><path d="M502.52 256.585c5.782-11.917-7.365-36.45-22-42.36 4.18-1.445 10.927 2.054 14.803 6.7 7.726 9.282 11.844 19.394 11.675 29.54-.08 2.84-1.662 5.254-4.477 6.12z" fill-opacity=".14" class="B"/><path d="M571.645 129.468c11.874 10.902 7.088 33.056-.97 45.653-11.485 17.955-37.777 29.257-51.242 19.705-14.063-9.977-12.227-41.353 4.19-57.64 12.257-12.16 35.744-18.99 48.024-7.718z" class="C D E I"/><path d="M557.784 142.302c7.053 7.288 3.217 21.02-2.314 28.63-7.882 10.843-24.813 16.96-32.91 10.46-8.458-6.8-6.134-26.422 4.782-36.036 8.15-7.178 23.154-10.59 30.443-3.053z" fill="#ffc9a1"/><path d="M570.674 175.12c-6.486 10.138-20.85 21.72-37.043 23.162 11.368-2.67 27.8-14.305 32.772-22.093 8.06-12.597 12.33-36.227.972-45.653-3.464-2.874-12.262-6.96-24.34-4.822 14.75-4.542 23.81-.655 28.614 3.754 11.87 10.9 7.084 33.055-.976 45.652z" class="B F"/><path d="M329.427 129.468c-11.874 10.902-7.088 33.056.97 45.653 11.485 17.955 37.777 29.257 51.243 19.705 14.062-9.977 12.226-41.353-4.2-57.64-12.256-12.16-35.744-18.99-48.024-7.718z" class="C D E I"/><path d="M343.29 142.302c-7.054 7.288-3.217 21.02 2.313 28.63 7.883 10.843 24.814 16.96 32.912 10.46 8.458-6.8 6.133-26.422-4.783-36.036-8.15-7.178-23.153-10.59-30.442-3.053z" fill="#ffc9a1"/><path d="M330.398 175.12c6.486 10.138 20.85 21.72 37.043 23.162-11.367-2.67-27.79-14.305-32.772-22.093-8.06-12.597-12.33-36.227-.972-45.653 3.464-2.874 12.262-6.96 24.34-4.822-14.75-4.542-23.81-.655-28.614 3.754-11.87 10.9-7.083 33.055.976 45.652z" class="B F"/><path d="M450.535 205.977c16.46 0 23.513 14.428 27.788 26.29s6.198 23.512 6.198 31.207c0 16.245-14.82 32.646-33.986 32.81-18.76.16-33.986-16.566-33.986-32.81 0-7.695 1.892-19.398 6.2-31.207 4.275-11.863 11.328-26.29 27.787-26.29z" class="C D E G"/><path d="M450.535 296.286c-18.775.17-35.27-16.78-33.986-36.017 1.068 15.817 15.513 30.83 33.986 30.673s32.917-14.856 33.986-30.673c1.283 19.237-15.21 35.846-33.986 36.017z" class="B H"/><path d="M450.535 219.23c11.115 0 17.1 7.267 18.596 13.68 3.687 15.798 6.84 29.284.428 37.406s-14.423 8.764-19.024 8.764c-5.082 0-12.61-.64-19.024-8.764s-3.467-20.716.428-37.406c1.496-6.413 7.48-13.68 18.596-13.68z" class="C D E I"/><g class="B"><path d="M450.535 279.08c-14.535 0-23.94-10.046-22.765-23.085.428 12.29 10.26 20.306 22.765 20.306s22.336-8.015 22.764-20.306c1.176 13.04-8.23 23.085-22.764 23.085z" class="F"/><path d="M492.75 234.833c-12.327 4.832-28.963 8.443-42.215 8.443s-27.717-2.825-42.216-8.443c-.774 1.126-1.776 2.808-2.458 3.954 15.176 6.092 29.4 9.19 44.674 9.19s29.497-3.1 44.673-9.19c-.657-1.143-1.702-2.817-2.458-3.954z" class="H"/></g><path d="M504.008 23.327c4.523-3.8315-13.287-8.1225-15.66-14.908-2.864-8.177 42.278 13.5838 35.436 27.903-.534 1.1233-5.924 10.0463-44.632-2.5404 42.554 13.806 74.776 43.0834 74.625 97.2754-.117 41.548-37.414 105.893-103.288 106.467-63.55.554-103.31-63.72-103.195-106.467.14-52.202 46.184-105.9066 103.24-109.921 34.137-2.3993 49.728 5.3545 53.472 2.19z" stroke-linejoin="round" class="C D G"/><path d="M510.938 25.7146c-3.17 6.964-22.637-4.275-56.774-1.8746-69.84 4.9095-120.442 82.422-92.402 145.252 7.282-7.522 16.153-9.66 18.98-10.598.848.916 1.88 1.888 2.25 2.328-8.696 2.7-18.803 8.593-23.153 16.762-8.15-15.775-12.504-32.336-12.46-46.526.14-52.203 46.193-105.913 103.25-109.9284 34.137-2.3993 49.65 5.3545 53.393 2.1867 4.508-3.8208-13.3-8.1118-15.673-14.8973-.916-2.6142 3.08-2.1664 8.716.1208-2.138-.3078-3.313.1956-2.73 1.696 2.07 5.3854 19.27 9.62 16.603 15.4787zm42.68 105.3494c-.038 13.653-4.074 29.766-11.814 45.27-8-10.97-22.36-15.352-23.828-15.352l2.137-2.618c2.512.587 13.746 2.982 20.016 11.35 6.337-14.124 9.246-27.27 9.28-39.636.157-56.028-37.793-83.8798-70.256-96.2965 42.554 13.806 74.616 43.0898 74.464 97.2825z" class="B H"/><path d="M421.145 62.283c-31.742 0-71.072 67.17-38.85 98.165-61.506 19.237 0 83.255 68.24 83.255s129.746-64.018 68.24-83.255c32.223-30.994-7.107-98.165-38.85-98.165-13.52 0-20.895 6.252-29.39 12.451-8.497-6.1988-15.87-12.451-29.39-12.451z" fill="#ffcd98" class="C D"/><g class="B"><path d="M530.596 127.85c-1.678-32.9756-28.322-65.535-51.46-65.535-14.385 0-23.106 8.7787-28.6 12.4178-4.392-2.9978-14.16-12.4178-28.685-12.4178-27.317 0-51.097 39.885-51.528 66.552-2.4-28.698 19.622-71.7686 51.678-71.7686 16.672 0 25.543 8.0156 28.535 11.3287 2.993-3.313 11.863-11.3287 28.536-11.3287 31.81 0 53.81 40.7728 51.524 70.7516z" class="H"/><path d="M370.42 126.823c-.76 12.553 2.566 24.583 11.9 33.57-1.114.35-2.188.82-3.223 1.196 2.387-.768 4.667-1.313 7.303-1.784-9.035-8.7-14.264-20.495-16-32.983zM359.542 175.9c-14.526 26.212 35.73 67.74 90.994 67.74s106.145-41.986 90.817-68.172c10.192 23.952-38.372 64.164-90.817 64.164-52.133 0-100.43-39.734-90.994-63.733zm162.654-14.287l-7.535-1.817c9.12-8.77 14.36-20.713 16.038-33.33.843 12.678-2.458 24.847-11.9 33.918 1.2.378 2.27.817 3.386 1.23z" class="F"/></g><path d="M424.85 83.611c16.554 1.9237 28.48 22.31 26.72 40.267-1.75 17.885-17.388 36.55-35.256 34.52-16.224-1.85-26.746-19.902-27.093-35.072-.46-20.324 17.2-41.86 35.63-39.716z" fill="#fff"/><path d="M432.997 86.1695c-21.843-5.9738-40.022 19.9055-39.576 39.3315.263 11.462 6.344 24.558 16.32 31.17-12.44-5.214-20.22-20.342-20.52-33.345-.462-20.318 17.188-41.8516 35.628-39.7098 2.85.3408 5.614 1.2065 8.15 2.5533z" fill-opacity=".05" class="B"/><path d="M444.95 133.005c2.363-12.18-4.22-23.7-14.705-25.735s-20.9 6.19-23.263 18.368 4.22 23.7 14.706 25.735 20.9-6.19 23.262-18.368z" fill="#74e5a1" class="C D E"/><path d="M427.15 148.645c6.254 0 11.323-5.67 11.323-12.66s-5.07-12.66-11.323-12.66-11.322 5.668-11.322 12.66 5.07 12.66 11.322 12.66z" class="B"/><path d="M437.165 127.136c.797-2.25-.47-4.75-2.832-5.586s-4.92.31-5.715 2.56.472 4.75 2.832 5.586 4.92-.31 5.715-2.56z" fill="#fff" class="C D E"/><path d="M435.96 109.527c-12.06-3.427-22.737 6.98-24.918 18.216-1.8 9.23 1.504 18.085 7.733 22.802-8.75-3.42-13.92-13.887-11.783-24.9 2.364-12.184 12.78-20.402 23.264-18.367 2.022.393 3.955 1.15 5.704 2.24z" class="B H"/><path d="M475.544 83.1673c-16.516 2.2102-28.085 22.8027-26.013 40.7277 2.063 17.848 18.022 36.242 35.853 33.893 16.19-2.13 26.4-20.365 26.477-35.538.104-20.323-17.92-41.545-36.317-39.0827z" fill="#fff"/><path d="M511.858 122.25c-.07 13.175-7.776 28.657-20.4 33.902 10.184-6.585 16.254-20.1 16.316-31.8.103-19.62-19.355-46.0895-41.25-37.9603 2.78-1.6673 5.803-2.7937 9.017-3.2244 18.4-2.4624 36.425 18.7597 36.317 39.0827z" fill-opacity=".05" class="B"/><path d="M479.79 150.904c10.448-2.217 16.83-13.852 14.254-25.988s-13.132-20.176-23.58-17.96-16.83 13.852-14.254 25.988 13.132 20.177 23.58 17.96z" fill="#74e6a1" class="C D E"/><path d="M474.245 148.232c6.252-.11 11.222-5.865 11.1-12.856s-5.3-12.57-11.542-12.46-11.222 5.865-11.1 12.856 5.3 12.57 11.542 12.46z" class="B"/><path d="M481.352 129.71c2.346-.876 3.57-3.4 2.735-5.634s-3.414-3.338-5.76-2.46-3.57 3.4-2.734 5.634 3.414 3.338 5.76 2.46z" fill="#fff" class="C D E"/><path d="M482.074 150.23c6.504-4.665 9.896-13.794 7.894-23.224-2.393-11.28-13.518-21.525-25.515-17.495 1.82-1.244 3.866-2.12 6.02-2.577 10.45-2.218 21.006 5.822 23.582 17.955 2.384 11.232-2.902 22.034-11.982 25.34z" class="B H"/><path d="M440.918 313.706c3.42 0 6.742-2.522 7.128-6 .974-8.787-10.084-9.586-16.102-9.718-6.103-.134-16.462 1.022-18.278 7.724-1.587 5.856 3.9 7.993 7.8 7.993s5.236-1.298 9.937-1.298c4.105 0 6.094 1.298 9.514 1.298z" class="C D E I"/><path d="M440.8 311.355c-3.42 0-5.408-1.3-9.514-1.3-4.7 0-6.036 1.3-9.937 1.3-3.034 0-7.027-1.293-7.906-4.623-.72 5.087 4.347 6.974 8.013 6.974 3.9 0 5.237-1.298 9.937-1.298 4.105 0 6.094 1.298 9.514 1.298 4.58 0 7.802-3.65 7.044-8.578-.317 3.576-3.638 6.227-7.15 6.227z" class="B F"/><path d="M460.154 313.706c-3.42 0-6.742-2.522-7.128-6-.974-8.787 10.084-9.586 16.102-9.718 6.103-.134 16.462 1.022 18.278 7.724 1.587 5.856-3.9 7.993-7.8 7.993s-5.236-1.298-9.937-1.298c-4.105 0-6.094 1.298-9.514 1.298z" class="C D E I"/><path d="M460.26 311.355c3.42 0 5.408-1.3 9.514-1.3 4.7 0 6.036 1.3 9.937 1.3 3.034 0 7.027-1.293 7.906-4.623.72 5.087-4.347 6.974-8.013 6.974-3.9 0-5.237-1.298-9.937-1.298-4.106 0-6.094 1.298-9.514 1.298-4.58 0-7.802-3.65-7.044-8.578.317 3.576 3.637 6.227 7.15 6.227z" class="B F"/><path d="M450.58 229.756c29.39 0 61.133-12.023 70.885-40.552 1.63-4.52-2.36-9.083-7.208-8.393a452.969 452.969 0 0 1-63.73 4.504 453.133 453.133 0 0 1-63.731-4.504c-4.843-.69-8.78 3.85-7.21 8.393 9.86 28.53 41.603 40.552 70.993 40.552z" fill="#3d0c0c"/><path d="M512.332 202.133c3.5-4.3 5.984-8.843 7.24-13.448.95-3.492-1.57-6.417-5.027-5.926-42.36 5.93-85.654 6.006-128.014.001-3.463-.487-5.983 2.433-5.032 5.925 1.255 4.606 3.738 9.158 7.24 13.448 40.943 5.607 82.653 5.658 123.594 0zM450.58 227.78c21.22.036 44.268-7.024 59.2-22.758-39.272 5.166-79.22 5.16-118.493.003 15.046 15.855 37.9 22.718 59.292 22.755z" fill="#fff"/><path d="M519.572 188.686c-1.256 4.604-3.74 9.157-7.24 13.447l-9.503 1.2c4.547-6.388 7.73-13.27 9.832-20.312l1.875-.26c3.466-.492 5.987 2.434 5.036 5.926zm-130.837 13.447l9.573 1.2c-4.565-6.382-7.75-13.27-9.844-20.312l-1.937-.27c-3.463-.486-5.983 2.434-5.032 5.926 1.255 4.605 3.738 9.157 7.24 13.447zm2.55 2.887c8.374 8.823 19.492 15.148 31.026 18.57-9.237-4.848-16.478-10.88-22.08-17.485l-8.945-1.084zm87.718 18.484c11.458-3.445 22.44-9.698 30.778-18.483l-8.862 1.076c-5.588 6.567-12.78 12.556-21.916 17.407zM427.56 158c0 8.16 10.564 18.062 23.112 17.955 11.566-.102 22.844-9.892 22.844-17.932 0-16.258-45.956-16.504-45.956-.023z" class="B F"/><path d="M427.238 156.066c0 8.16 10.712 18.062 23.435 17.955 11.728-.102 23.163-9.89 23.163-17.932 0-6.47-13.492-12.16-23.163-12.076-8.98.083-23.435 4.4-23.435 12.053z" fill="#7a5d43"/><path d="M427.407 154.652c4.462 5.85 13.324 10.788 23.282 10.71 9.214-.073 18.267-5.036 22.88-10.853.174.52.265 1.047.265 1.58 0 8.04-11.435 17.83-23.162 17.93-12.723.107-23.435-9.795-23.435-17.955a5.981 5.981 0 0 1 .169-1.414z" fill-opacity=".2" class="B"/><rect x="393.358" y="269.239" width="10.4737" height="45.5287" rx="1.71" fill="#3d3d3d" class="C D"/><path d="M393.48 313.698c.254.627.87 1.07 1.586 1.07h7.054c.944 0 1.7-.765 1.7-1.7V270.95c0-.945-.766-1.7-1.7-1.7h-2.7a1.687 1.687 0 0 1 .125.641v42.108c0 .945-.766 1.7-1.7 1.7h-4.365z" class="B J K"/><rect x="497.133" y="269.239" width="10.4737" height="45.5287" rx="1.71" fill="#3d3d3d" class="C D"/><path d="M497.257 313.7c.254.627.868 1.07 1.586 1.07h7.054a1.711 1.711 0 0 0 1.71-1.71v-42.11a1.711 1.711 0 0 0-1.71-1.71h-2.7a1.706 1.706 0 0 1 .124.641v42.11c0 .944-.765 1.7-1.7 1.7h-4.364z" class="B J K"/><rect x="343.661" y="256.093" width="213.75" height="15.1762" rx="2.2444" fill="#505050" class="C D"/><path d="M343.66 263.68v5.344c0 1.24 1.005 2.244 2.244 2.244h209.262c1.24 0 2.244-1.004 2.244-2.244v-5.344c0 1.24-1.005 2.245-2.244 2.245H345.905c-1.24 0-2.244-1.005-2.244-2.245z" class="B J K"/><g class="C D"><path d="M397.343 194.44c-.132-1.856 1.338-3.435 3.2-3.435h99.988c1.86 0 3.33 1.58 3.198 3.435l-4.03 56.415h-98.325l-4.03-56.415z" fill="#e6e6e6"/><path d="M401.373 250.856h98.325l-.456 4.47a.855.855 0 0 1-.851.768h-95.71c-.44 0-.806-.332-.85-.768l-.456-4.47z" fill="#b3b3b3"/></g><path d="M456.216 229.9c-8.163 1.03-11.922-6.176-11.255-6.88.44-.465 1.124-.492 1.717-.508 2.73-.075 6.593 3.12 7.376 3.105 1.518-.03 3.8-2.45 5.296-4.443.626-.834 4.538-2.1 4.104.1-1.406 7.105-6.198 8.493-7.238 8.624zm-11.36-13.447c8.163-1.03 11.922 6.177 11.255 6.88-.44.464-1.124.492-1.717.508-2.73.074-6.593-3.122-7.376-3.106-1.518.03-3.8 2.45-5.297 4.443-.626.834-4.537 2.09-4.103-.1 1.406-7.106 6.198-8.493 7.238-8.625z" fill="#a4a4a4" class="J"/><path d="M401.25 191.006l98.296 59.437c-.196.252-.502.413-.844.413h-96.335c-.56 0-1.026-.433-1.066-.992l-3.96-55.423c-.132-1.856 1.338-3.435 3.198-3.435h.7z" class="B F"/><g stroke-width="10"><path d="M765.308 177.13l.064.037.064.034c9.695 5.224 15.423 11.608 18.39 18.284 2.975 6.695 3.368 14.127 1.618 21.76-3.54 15.436-15.754 31.098-31.074 40.684-22.784 14.1-54.82 22.744-89.994 18.79-21.018-28.492-29.537-60.553-28.548-87.21l.001-.02.001-.02c.523-18.09 7.93-36.524 19.5-47.322 5.725-5.34 12.356-8.72 19.644-9.493 7.267-.772 15.667.996 25.044 6.784l.063.04.063.037c11.2 6.465 17.304 19.06 18.936 34.356l.728 6.82 6.27-2.78c14.1-6.25 27.6-7.49 39.22-.78z" stroke="#000"/><path d="M877.343 68.4366l.063.0364.064.0346c8.11 4.372 12.85 9.66 15.303 15.1175 2.46 5.4727 2.817 11.5534 1.394 17.833-2.884 12.73-13 25.7-25.785 33.642-19.01 11.662-45.795 18.792-75.287 15.447-17.648-23.876-24.853-50.6307-24.115-72.8162l.002-.04c.377-15.062 6.518-30.3345 16.085-39.2093 4.717-4.3764 10.16-7.112 16.13-7.72 5.955-.6062 12.91.8553 20.757 5.6953l.062.0382.063.0365c9.228 5.3276 14.36 15.6932 15.775 28.4347l.75 6.7547 6.225-2.7272c11.78-5.1606 22.93-6.09 32.512-.5562z" stroke="#74e5a1"/></g><path d="M641.638 14.1028l32.178 47.7498 9.62-16.6612-17.466-23.4132.405-.7015 28.73 3.902 9.898-17.1435-57.695-3.5537-5.67 9.8213zm47.07 71.3712l66.085-64.4432-16.047-9.265L672.66 76.21l16.048 9.265zm96.187-1.757L752.97 35.5288l-9.897 17.1435 17.744 22.93-.405.7015-29-3.4198-9.62 16.6612 57.442 3.9922 5.67-9.8213z" class="G"/><g stroke-width="10"><path d="M200.12 195.82l.05-.05.05-.053c6.355-6.737 12.725-9.966 18.666-10.93 5.957-.965 11.957.272 17.685 3.287 11.612 6.114 21.583 19.314 25.958 33.8 6.377 21.49 6.33 49.35-4.592 77.113-27.77 10.926-55.62 10.96-76.97 4.473l-.02-.006-.02-.006c-14.525-4.285-27.757-14.22-33.886-25.82-3.023-5.72-4.264-11.72-3.3-17.68.96-5.943 4.192-12.32 10.933-18.678l.053-.05.05-.05c7.578-7.578 18.982-9.862 31.72-7.923l6.72 1.024-1.023-6.72c-1.946-12.78.052-23.85 7.922-31.72z" stroke="#000"/><path d="M184.603 12.03l.064-.0368.062-.0386c9.37-5.784 17.764-7.5525 25.03-6.7832 7.285.7715 13.918 4.1467 19.653 9.4792 11.6 10.783 19.055 29.1916 19.697 47.2518.818 26.7806-7.713 58.8476-28.726 87.3326-35.183 3.956-67.208-4.698-89.8-18.882l-.017-.01-.017-.01c-15.405-9.498-27.666-25.13-31.2274-40.5578-1.7608-7.6277-1.3728-15.0602 1.6004-21.7587 2.966-6.6798 8.697-13.07 18.398-18.297l.065-.035.064-.0367c11.198-6.4656 25.158-5.455 39.22.7794l6.27 2.78.728-6.8205c1.636-15.3356 7.313-27.646 18.935-34.356z" stroke="#727379"/></g><path d="M6.906 231.505l69.78-4.76-11.7155-20.292-35.2385 4.112-.4932-.855 21.52-27.874-12.0546-20.88L0 219.544l6.906 11.96zm103.677-6.03L82.77 116.577l-19.4803 11.247 27.814 108.896 19.4802-11.247zm56.437-102.36l-70.088 4.225 12.055 20.88 34.9-4.7.493.855-21.18 28.46 11.716 20.292 39-58.05-6.906-11.962z" fill="#74e5a1"/></svg>