<svg xmlns="http://www.w3.org/2000/svg" width="580" height="580" fill="none" xmlns:v="https://vecta.io/nano"><style><![CDATA[.B{fill:#000}.C{stroke:#333}.D{stroke-width:.625}.E{stroke-miterlimit:10}.F{fill-opacity:.1}.G{fill:#727379}.H{fill-opacity:.15}.I{fill:#f7c394}.J{fill-rule:evenodd}.K{fill-opacity:.3}]]></style><g stroke-width="10"><path d="M553.557 49.6483l.064.0368.065.0348c9.694 5.2234 15.423 11.608 18.39 18.284 2.974 6.695 3.367 14.1266 1.617 21.76-3.54 15.4363-15.753 31.0983-31.073 40.6843-22.784 14.098-54.82 22.743-89.995 18.788-21.018-28.49-29.536-60.5526-28.547-87.2085v-.0204l.001-.0204c.523-18.0895 7.93-36.5242 19.5-47.3223 5.726-5.3387 12.356-8.72 19.644-9.493 7.268-.772 15.667.9966 25.045 6.7847l.062.0386.064.0367c11.2 6.4656 17.303 19.0608 18.935 34.356l.728 6.8204 6.27-2.78c14.1-6.2507 27.598-7.4893 39.22-.7794z" stroke="#000"/><path d="M527.686 386.884l.063.036.064.035c9.282 5.005 14.762 11.09 17.608 17.423 2.853 6.348 3.256 13.38 1.62 20.603-3.31 14.617-14.892 29.446-29.48 38.5-21.702 13.317-52.275 21.428-85.91 17.547-20.185-27.203-28.435-57.735-27.592-83.072l.001-.02v-.02c.43-17.192 7.432-34.663 18.415-44.852 5.425-5.034 11.714-8.207 18.638-8.912 6.908-.703 14.923 1 23.904 6.542l.062.038.063.037c10.692 6.174 16.563 18.145 18.18 32.686l.75 6.756 6.226-2.728c13.435-5.887 26.292-7.005 37.39-.597z" stroke="#74e5a1"/></g><path d="M386.902 553.635l71.483 12.628-6.62-23.328-36.535-4.66-.278-.983 28.783-22.66-6.8-24.003L383 539.884l3.902 13.75zm105.942 19.807L492.625 457l-22.487 6.448.22 116.442 22.487-6.448zm82.953-88.845l-71.658-13.24 6.8 24.003 36.343 3.984.28.982-28.592 23.335 6.62 23.328 54.098-48.64-3.9-13.75z" class="G"/><path d="M87.8064 419.037l.0426-.042.0412-.044c6.461-6.852 13.0138-10.182 19.2088-11.158 6.21-.98 12.454.347 18.38 3.486 11.976 6.345 22.202 19.898 26.725 34.66 6.6 21.924 6.642 50.277-4.416 78.425-28.154 11.06-56.4994 11.008-78.284 4.296l-.032-.01c-14.8134-4.432-28.3992-14.622-34.7605-26.587-3.1467-5.918-4.4775-12.16-3.5003-18.375.9746-6.197 4.306-12.756 11.163-19.22l.0438-.04.0425-.043c7.847-7.847 19.6282-10.094 32.6116-8.06l5.546.87-.8695-5.546c-2.0405-13.016-.0833-24.47 8.059-32.612z" stroke="#727379" stroke-width="8.1842"/><path d="M86.697 108.355l.0515-.05.05-.053c6.355-6.737 12.725-9.9657 18.6655-10.9285 5.958-.9655 11.957.2713 17.685 3.2875 11.612 6.113 21.583 19.313 25.958 33.79 6.378 21.492 6.33 49.35-4.59 77.113-27.77 10.926-55.6212 10.96-76.9693 4.473l-.0197-.006-.0196-.006c-14.5254-4.285-27.7574-14.22-33.8864-25.82-3.0227-5.72-4.264-11.72-3.3-17.68.9613-5.944 4.1918-12.32 10.933-18.68l.053-.05.0515-.05c7.578-7.578 18.9816-9.862 31.7206-7.922l6.7188 1.023-1.023-6.72c-1.946-12.78.0527-23.85 7.9222-31.72z" stroke="#000" stroke-width="10"/><path d="M6.906 114.928l69.78-4.76-11.7155-20.292-35.2385 4.1115-.4932-.8544 21.52-27.8743L38.703 44.3805 0 102.966l6.906 11.962zm103.677-6.03L82.77 0 63.2886 11.247l27.8142 108.897 19.4802-11.247zM167.02 6.5377l-70.088 4.225 12.055 20.8793 34.9-4.7.493.8544L123.2 56.259l11.716 20.2918 39-58.0517-6.906-11.9615z" fill="#74e5a1"/><rect x="195.807" y="467.321" width="187.134" height="4.6783" rx="2.3392" class="B F"/><path d="M324.388 434.978c-6.346-.928-14.395-4.034-24.607-9.5-1.484-.794-2.083-2.732-1.282-4.23.795-1.484 2.732-2.084 4.23-1.282 9.432 5.047 17.023 8.015 22.563 8.825 3.616.53 6.22.125 7.735-1.205 1.7-1.5 1.55-4.125 1.104-9.048-.522-5.765-1.17-12.942 2.472-21.19 5.5-12.465 19.203-24.317 33.636-22.087 9.167 1.42 17.95 8.273 19.966 17.573 1.717 7.92-.752 18.772-9.19 21.804-5.596 2-12-.296-16.355-4-1.305-1.085-1.493-3.125-.382-4.43 1.1-1.292 3.143-1.455 4.435-.328.053.045 5.457 4.582 10.186 2.883 5.355-1.923 6.22-9.87 5.195-14.598-1.47-6.778-8.2-11.696-14.814-12.72-11.605-1.79-22.6 8.56-26.965 18.436-2.988 6.77-2.445 12.8-1.965 18.102.5 5.48.964 10.656-3.208 14.312-3.458 3.05-8.384 3.35-12.753 2.693z" class="C D E G"/><path d="M388.33 394.34c1.382 6.378.147 14.318-4.728 19 6.426-4.213 8.134-13.445 6.603-20.5-2.017-9.3-10.8-16.156-19.966-17.575-8.282-1.28-16.473 2.32-22.693 7.602 14.265-10.093 36.66-7.544 40.784 11.473zm-8.63 14.065c-3.378 3.93-9.448 1.908-12.86-1.03a3.126 3.126 0 0 0-1.367-.676 3.133 3.133 0 0 0-1.524.051c.497-.912 1.454-1.53 2.5-1.612a3.127 3.127 0 0 1 2.276.736c2.758 2.438 7.48 4.397 10.986 2.53zm-80.513 11.93c.437-.375 1.937-1.125 2.875-.687l3.1 1.503c6.177 3.052 15.933 7.87 22.97 7.87 6.25 0 6.812-3.124 5.937-11.374.106.477.24 1.003.383 1.563 1.203 4.72 3 11.8-6.32 11.8-10.188 0-26.098-8.82-28.937-10.687z" fill-opacity=".25" class="B"/><path d="M284.922 454.46c.625-10.885 3.425-19.303 5.896-25.85s5.302-18.087-5.32-20.752c-15.187-3.81-23.54 31.765-24.162 42.617-.367 6.385 4.602 13.79 11.05 14.16 5.935.29 12.18-3.974 12.537-10.175z" class="C D E G"/><path d="M261.186 450.46c6.438-.875 18.5-.875 23.563 4.25l.207-1.88c-5.27-4.62-17.27-4.933-23.502-4.058-.034.413-.234 1.267-.268 1.688zm2-11.188c5.97 5.537 13.6 8.642 22.25 9.813.073-.626.226-1.523.313-2.125-8.575-1.1-16.025-4.7-22-10.125-.25.75-.453 1.908-.563 2.437z" class="B H"/><path d="M295.078 454.46c-.625-10.885-3.425-19.303-5.896-25.85s-5.302-18.087 5.32-20.752c15.187-3.81 23.538 31.765 24.162 42.617.367 6.385-4.602 13.79-11.05 14.16-5.935.29-12.18-3.974-12.536-10.175z" class="C D E G"/><path d="M318.815 450.46c-6.438-.875-18.5-.875-23.563 4.25l-.207-1.88c5.27-4.62 17.27-4.933 23.502-4.058.034.413.234 1.267.268 1.688zm-2-11.188c-5.97 5.537-13.6 8.642-22.25 9.813-.072-.626-.225-1.523-.312-2.125 8.575-1.1 16.025-4.7 22-10.125.25.75.452 1.908.562 2.437z" class="B H"/><path d="M231.068 401.7c4.55.336 8.484-3.458 8.362-7.96-.092-7.968 3.535-16.308 10.044-24.126 5.92-7.115 11.977-10.806 7.91-15.986s-14.442-.572-19.92 6c-9.035 10.856-13.852 22.683-13.654 34.55.11 3.953 2.708 7.196 7.258 7.53z" class="C D E G"/><path d="M229.046 401.338c-6.763-13.937 8.614-42.63 25.732-49.544-4.9-1.7-12.78 2.403-17.314 7.835-9.035 10.856-13.852 22.683-13.654 34.55.092 3.324 1.944 6.146 5.236 7.16z" fill-opacity=".14" class="B"/><path d="M348.778 401.7c-4.55.336-8.484-3.458-8.362-7.96.092-7.968-3.536-16.308-10.044-24.126-5.92-7.115-11.977-10.806-7.91-15.986s14.442-.572 19.918 6c9.036 10.856 13.853 22.683 13.654 34.55-.11 3.953-2.707 7.196-7.257 7.53z" class="C D E G"/><path d="M350.8 401.338c6.763-13.937-8.615-42.63-25.732-49.544 4.9-1.7 12.78 2.403 17.313 7.835 9.036 10.856 13.853 22.683 13.654 34.55-.09 3.324-1.943 6.146-5.235 7.16z" fill-opacity=".14" class="B"/><path d="M431.648 252.665c13.887 12.75 8.3 38.66-1.136 53.395-13.433 21-44.184 34.22-59.933 23.046-16.447-11.67-14.3-48.365 4.9-67.415 14.335-14.222 41.807-22.21 56.17-9.026z" class="C D E I"/><path d="M415.435 267.676c8.25 8.523 3.763 24.584-2.706 33.484-9.22 12.682-29.02 19.837-38.493 12.233-9.892-7.94-7.173-30.902 5.594-42.147 9.533-8.395 27.08-12.385 35.605-3.57z" fill="#ffc9a1"/><path d="M430.512 306.058c-7.586 11.856-24.387 25.403-43.324 27.1 13.295-3.125 32.5-16.73 38.33-25.84 9.426-14.734 14.42-42.37 1.137-53.395-4.05-3.36-14.342-8.14-28.467-5.64 17.25-5.312 27.85-.766 33.467 4.4 13.882 12.75 8.284 38.66-1.142 53.395z" class="B F"/><path d="M148.353 252.665c-13.888 12.75-8.3 38.66 1.136 53.395 13.432 21 44.183 34.22 59.932 23.046 16.447-11.67 14.3-48.365-4.9-67.415-14.335-14.222-41.806-22.21-56.168-9.026z" class="C D E I"/><path d="M164.565 267.676c-8.25 8.523-3.763 24.584 2.706 33.484 9.22 12.682 29.02 19.837 38.493 12.233 9.892-7.94 7.173-30.902-5.594-42.147-9.533-8.395-27.08-12.385-35.605-3.57z" fill="#ffc9a1"/><path d="M149.488 306.058c7.586 11.856 24.388 25.403 43.325 27.1-13.295-3.125-32.502-16.73-38.33-25.84-9.426-14.734-14.42-42.37-1.136-53.395 4.05-3.36 14.34-8.14 28.466-5.64-17.25-5.312-27.85-.766-33.466 4.4-13.882 12.75-8.285 38.66 1.14 53.395z" class="B F"/><path d="M290 342.148c19.25 0 27.5 16.875 32.5 30.75s7.25 27.5 7.25 36.5c0 19-17.335 38.182-39.75 38.375-21.94.19-39.75-19.375-39.75-38.375 0-9 2.213-22.688 7.25-36.5 5-13.875 13.25-30.75 32.5-30.75z" class="C D E G"/><path d="M290 447.772c-21.96.2-41.25-19.625-39.75-42.125 1.25 18.5 18.144 36.06 39.75 35.875s38.5-17.375 39.75-35.875c1.5 22.5-17.79 41.926-39.75 42.125z" class="B H"/><path d="M290 357.648c13 0 20 8.5 21.75 16 4.31 18.477 8 34.25.5 43.75s-16.87 10.25-22.25 10.25c-5.944 0-14.75-.75-22.25-10.25s-4.055-24.23.5-43.75c1.75-7.5 8.75-16 21.75-16z" class="C D E I"/><g class="B"><path d="M289.998 427.648c-17 0-28-11.75-26.624-27 .5 14.375 12 23.75 26.624 23.75s26.125-9.375 26.625-23.75c1.375 15.25-9.625 27-26.625 27z" class="F"/><path d="M339.375 375.898c-14.418 5.652-33.875 9.875-49.375 9.875s-32.417-3.304-49.375-9.875c-.905 1.317-2.076 3.284-2.875 4.625 17.75 7.125 34.375 10.75 52.25 10.75s34.5-3.625 52.25-10.75c-.77-1.338-1.99-3.295-2.875-4.625z" class="H"/></g><path d="M352.54 128.524c5.3-4.48-15.54-9.5-18.315-17.436-3.35-9.564 49.45 15.887 41.446 32.635-.625 1.313-6.93 11.75-52.2-2.972 49.77 16.148 87.457 50.4 87.28 113.772-.137 48.594-43.76 123.85-120.804 124.522-74.327.65-120.83-74.527-120.695-124.522.165-61.054 54.016-123.867 120.75-128.562 39.926-2.806 58.16 6.263 62.54 2.563z" stroke-linejoin="round" class="C D G"/><path d="M360.646 131.316c-3.707 8.145-26.476-5-66.402-2.192-81.683 5.742-140.867 96.4-108.072 169.884 8.517-8.797 18.892-11.297 22.2-12.395.992 1.07 2.2 2.2 2.63 2.723-10.17 3.17-22 10.05-27.08 19.605-9.534-18.45-14.625-37.82-14.573-54.416.165-61.056 54.027-123.875 120.76-128.57 39.926-2.806 58.07 6.262 62.45 2.557 5.272-4.468-15.558-9.487-18.33-17.423-1.072-3.058 3.602-2.534 10.193.14-2.5-.36-3.875.23-3.193 1.984 2.422 6.298 22.537 11.252 19.418 18.103zm49.917 123.216c-.045 15.967-4.765 34.814-13.817 52.946-9.37-12.83-26.154-17.955-27.87-17.955l2.5-3.062c2.937.687 16.077 3.488 23.4 13.275 7.412-16.52 10.815-31.895 10.855-46.358.184-65.53-44.202-98.104-82.17-112.627 49.77 16.148 87.27 50.397 87.092 113.78z" class="B H"/><path d="M255.626 174.086c-37.125 0-83.125 78.562-45.437 114.812-71.938 22.5 0 97.375 79.812 97.375s151.75-74.875 79.812-97.375c37.687-36.25-8.312-114.812-45.437-114.812-15.813 0-24.44 7.313-34.375 14.563-9.938-7.25-18.562-14.563-34.375-14.563z" fill="#ffcd98" class="C D"/><g class="B"><path d="M383.638 250.773c-1.963-38.567-33.125-76.648-60.188-76.648-16.824 0-27.024 10.267-33.45 14.524-5.138-3.507-16.563-14.524-33.55-14.524-31.95 0-59.762 46.648-60.266 77.838-2.81-33.565 22.95-83.94 60.44-83.94 19.5 0 29.875 9.375 33.375 13.25 3.5-3.875 13.875-13.25 33.374-13.25 37.204 0 62.938 47.687 60.263 82.75z" class="H"/><path d="M196.297 249.57c-.9 14.682 3.003 28.752 13.932 39.264-1.303.408-2.56.958-3.77 1.4 2.8-.9 5.457-1.535 8.54-2.086-10.568-10.165-16.683-23.97-18.704-38.577zm-12.72 57.412C166.585 337.64 225.365 386.2 290 386.2s124.145-49.106 106.218-79.732c11.92 28.013-44.88 75.045-106.22 75.045-60.973 0-117.46-46.472-106.424-74.54zm190.237-16.71L365 288.148c10.666-10.26 16.796-24.226 18.76-38.982.986 14.827-2.876 29.06-13.906 39.67 1.415.443 2.655.956 3.96 1.438z" class="F"/></g><path d="M259.96 199.03c19.36 2.25 33.31 26.094 31.25 47.096-2.047 20.917-20.336 42.75-41.234 40.375-18.975-2.163-31.283-23.278-31.688-41.02-.54-23.77 20.105-48.96 41.673-46.45z" fill="#fff"/><path d="M269.487 202.024c-25.548-6.987-46.81 23.28-46.288 46 .31 13.406 7.42 28.723 19.087 36.456-14.55-6.098-23.65-23.79-24-39-.54-23.764 20.103-48.948 41.67-46.443a27.189 27.189 0 0 1 9.531 2.986z" fill-opacity=".05" class="B"/><path d="M283.466 256.8c2.764-14.244-4.937-27.72-17.2-30.1s-24.444 7.24-27.208 21.484 4.937 27.72 17.2 30.1 24.443-7.24 27.207-21.484z" fill="#74e5a1" class="C D E"/><path d="M262.65 275.093c7.313 0 13.242-6.63 13.242-14.807s-5.93-14.807-13.242-14.807-13.243 6.63-13.243 14.807 5.93 14.807 13.243 14.807z" class="B"/><path d="M274.362 249.937c.932-2.63-.55-5.556-3.312-6.534s-5.754.364-6.685 2.996.552 5.556 3.313 6.533 5.753-.364 6.684-2.995z" fill="#fff" class="C D E"/><path d="M272.953 229.342c-14.106-4.01-26.593 8.162-29.144 21.305-2.093 10.793 1.76 21.152 9.044 26.668-10.235-4-16.28-16.24-13.78-29.11 2.765-14.25 14.947-23.86 27.2-21.48 2.365.46 4.625 1.346 6.67 2.62z" class="B H"/><path d="M319.25 198.512c-19.318 2.585-32.85 26.67-30.425 47.635 2.412 20.875 21.078 42.388 41.933 39.64 18.934-2.492 30.875-23.818 30.966-41.564.123-23.77-20.957-48.592-42.474-45.712z" fill="#fff"/><path d="M361.72 244.223c-.083 15.41-9.094 33.516-23.86 39.65 11.91-7.702 19-23.5 19.082-37.193.12-22.948-22.636-53.905-48.243-44.398 3.25-1.95 6.786-3.267 10.546-3.77 21.52-2.88 42.6 21.94 42.475 45.71z" fill-opacity=".05" class="B"/><path d="M324.216 277.736c12.22-2.593 19.683-16.2 16.67-30.395s-15.36-23.598-27.578-21.006-19.683 16.2-16.67 30.395 15.36 23.6 27.578 21.006z" fill="#74e6a1" class="C D E"/><path d="M317.73 274.61c7.312-.128 13.125-6.86 12.982-15.036s-6.186-14.702-13.5-14.574-13.125 6.86-12.982 15.036 6.186 14.702 13.5 14.574z" class="B"/><path d="M326.042 252.947c2.743-1.025 4.175-3.976 3.198-6.6s-3.993-3.903-6.736-2.878-4.175 3.976-3.198 6.6 3.993 3.903 6.736 2.878z" fill="#fff" class="C D E"/><path d="M326.886 276.948c7.607-5.456 11.574-16.134 9.233-27.163-2.8-13.192-15.8-25.176-29.842-20.462a19.773 19.773 0 0 1 7.042-3.014c12.22-2.593 24.568 6.8 27.58 21 2.788 13.138-3.395 25.77-14.014 29.64z" class="B H"/><path d="M278.75 468.147c4 0 7.886-2.95 8.337-7.017 1.14-10.277-11.794-11.21-18.833-11.365-7.138-.157-19.254 1.195-21.377 9.033-1.856 6.85 4.56 9.35 9.123 9.35s6.125-1.518 11.623-1.518c4.8 0 7.127 1.518 11.127 1.518z" class="C D E I"/><path d="M278.625 465.397c-4 0-6.326-1.52-11.127-1.52-5.498 0-7.06 1.52-11.623 1.52-3.55 0-8.22-1.512-9.247-5.407-.84 5.95 5.084 8.157 9.372 8.157 4.562 0 6.125-1.52 11.623-1.52 4.8 0 7.127 1.52 11.127 1.52 5.357 0 9.125-4.27 8.238-10.032-.37 4.182-4.254 7.282-8.363 7.282z" class="B F"/><path d="M301.25 468.147c-4 0-7.886-2.95-8.337-7.017-1.14-10.277 11.793-11.21 18.833-11.365 7.137-.157 19.254 1.195 21.377 9.033 1.856 6.85-4.56 9.35-9.123 9.35s-6.125-1.518-11.623-1.518c-4.802 0-7.127 1.518-11.127 1.518z" class="C D E I"/><path d="M301.375 465.397c4 0 6.325-1.52 11.127-1.52 5.498 0 7.06 1.52 11.623 1.52 3.548 0 8.22-1.512 9.246-5.407.84 5.95-5.084 8.157-9.37 8.157-4.563 0-6.125-1.52-11.623-1.52-4.802 0-7.127 1.52-11.127 1.52-5.358 0-9.125-4.27-8.24-10.032.37 4.182 4.254 7.282 8.364 7.282z" class="B F"/><path d="M290.05 369.96c34.375 0 71.5-14.062 82.906-47.43 1.906-5.288-2.762-10.623-8.43-9.816-24.69 3.508-49.6 5.268-74.538 5.268s-49.847-1.76-74.538-5.268c-5.665-.806-10.27 4.5-8.432 9.816 11.533 33.367 48.658 47.43 83.033 47.43z" fill="#3d0c0c"/><path d="M362.276 337.653c4.092-5.018 6.998-10.343 8.467-15.73 1.113-4.083-1.836-7.505-5.88-6.93-49.545 6.937-100.18 7.025-149.723.001-4.05-.57-6.998 2.847-5.885 6.93 1.467 5.388 4.37 10.7 8.467 15.73 47.886 6.558 96.67 6.617 144.554 0zm-72.226 29.995c24.82.042 51.775-8.215 69.24-26.618-45.933 6.043-92.656 6.037-138.588.004 17.597 18.543 44.328 26.57 69.347 26.614z" fill="#fff"/><path d="M370.743 321.925c-1.468 5.385-4.375 10.7-8.467 15.728l-11.115 1.404c5.32-7.472 9.042-15.523 11.5-23.758l2.192-.305c4.054-.575 7.003 2.846 5.9 6.93zM217.72 337.653l11.196 1.414c-5.34-7.464-9.065-15.52-11.514-23.756l-2.264-.317c-4.05-.568-6.998 2.846-5.885 6.93 1.467 5.387 4.37 10.7 8.467 15.728zm2.98 3.377c9.794 10.32 22.798 17.717 36.288 21.72-10.804-5.67-19.273-12.725-25.826-20.45l-10.462-1.27zm102.595 21.618c13.4-4.03 26.246-11.343 35.997-21.618l-10.365 1.26c-6.535 7.68-14.947 14.685-25.632 20.36zm-60.17-76.625c0 9.544 12.357 21.125 27.032 21 13.528-.12 26.718-11.57 26.718-20.972 0-19.016-53.75-19.303-53.75-.028z" class="B F"/><path d="M262.752 283.773c0 9.544 12.53 21.125 27.41 21 13.717-.12 27.09-11.57 27.09-20.972 0-7.566-15.78-14.22-27.09-14.125-10.502.097-27.41 5.145-27.41 14.097z" fill="#7a5d43"/><path d="M262.948 282.12c5.22 6.843 15.585 12.617 27.232 12.527 10.776-.085 21.364-5.9 26.76-12.694.203.608.3 1.225.3 1.848 0 9.404-13.375 20.854-27.09 20.972-14.88.125-27.41-11.456-27.41-21 0-.567.068-1.118.197-1.653z" fill-opacity=".2" class="B"/><rect x="223.125" y="416.139" width="12.2499" height="53.2498" rx="2" fill="#3d3d3d" class="C D"/><path d="M223.27 468.138c.296.733 1.015 1.25 1.854 1.25h8.25c1.105 0 2-.895 2-2v-49.25c0-1.105-.895-2-2-2h-3.146c.094.23.146.484.146.75v49.25c0 1.105-.896 2-2 2h-5.104z" class="B J K"/><rect x="344.499" y="416.139" width="12.2499" height="53.2498" rx="2" fill="#3d3d3d" class="C D"/><path d="M344.646 468.14c.296.733 1.015 1.25 1.854 1.25h8.25c1.105 0 2-.895 2-2v-49.25c0-1.104-.895-2-2-2h-3.147c.094.232.146.485.146.75v49.25c0 1.104-.896 2-2 2h-5.103z" class="B J K"/><rect x="165" y="400.764" width="249.999" height="17.7499" rx="2.625" fill="#505050" class="C D"/><path d="M165 409.64v6.25c0 1.45 1.176 2.625 2.625 2.625h244.75c1.45 0 2.625-1.175 2.625-2.625v-6.25c0 1.45-1.175 2.625-2.625 2.625h-244.75c-1.45 0-2.625-1.175-2.625-2.625z" class="B J K"/><g class="C D"><path d="M227.787 328.656c-.155-2.17 1.564-4.017 3.74-4.017h116.945c2.176 0 3.896 1.847 3.74 4.017L347.5 394.64h-115l-4.713-65.983z" fill="#e6e6e6"/><path d="M232.5 394.64h115l-.534 5.226a1 1 0 0 1-.995.899H234.028a1 1 0 0 1-.995-.899l-.533-5.226z" fill="#b3b3b3"/></g><path d="M296.642 370.128c-9.547 1.205-13.943-7.224-13.163-8.046.515-.543 1.315-.576 2.01-.595 3.192-.086 7.7 3.65 8.627 3.633 1.774-.037 4.444-2.865 6.194-5.197.732-.975 5.307-2.445 4.8.118-1.644 8.3-7.25 9.933-8.466 10.087zM283.356 354.4c9.547-1.205 13.943 7.224 13.163 8.047-.515.543-1.315.575-2.01.594-3.192.087-7.7-3.65-8.627-3.632-1.774.036-4.444 2.865-6.194 5.196-.732.976-5.306 2.445-4.8-.117 1.645-8.31 7.25-9.934 8.466-10.088z" fill="#a4a4a4" class="J"/><path d="M232.357 324.64l114.966 69.516a1.248 1.248 0 0 1-.988.484h-112.67a1.25 1.25 0 0 1-1.247-1.161l-4.63-64.822c-.155-2.17 1.564-4.017 3.74-4.017h.83z" class="B F"/></svg>