<svg xmlns="http://www.w3.org/2000/svg" width="282" height="360" fill="none" xmlns:v="https://vecta.io/nano"><path fill-rule="evenodd" d="M148.577 66.1793c58.01 2.616 58.918 36.1877 65.758 84.3497 5.928 18.266 12.592 54.6 16.902 89.15l40.208-12.016c8.563-2.56 12.53 10.72 3.968 13.28L232.86 253.66l.675 6.576c-2.55-.324-9.146-.864-17.748-1.474l-12.14 3.63c4.6 2.138 8.418 6.16 9.503 11.165 2.456 11.337-8.182 21.503-18.393 12.81-2.252-1.87.712-5.35 2.917-3.425 6.808 5.7 12.71-.905 11.075-8.435-1.058-4.88-5.904-8.42-10.666-9.16-5.46-.843-10.715 2.12-14.402 5.922.322 2.234.306 4.466.12 6.71 3.094 5.692-.205 16.823-8.1 15.3-3.242 3.766-8.743 3.094-13.032 1.965a30.335 30.335 0 0 1-2.615 2.644c.735 3.013 1.18 6.113 1.672 9.174 4.21.537 9.82 2.197 10.513 7.106.525 3.713-2.612 5.402-5.468 5.786-3.258.438-6.394-1.007-9.648-1.007-2.74 0-5.317 1.102-8.044 1.094-5.006-.023-8.155-6.21-4.42-10.003-.098-1.632-.277-3.253-.528-4.866-2.08.25-4.192.268-6.246.04-.25 1.6-.424 3.208-.522 4.826 3.646 3.702.647 9.98-4.42 10.003h-.032c-2.88 0-4.554-1.093-8.01-1.093-3.96 0-5.084 1.093-8.37 1.093s-7.905-1.8-6.57-6.73c1.1-4.024 5.837-5.673 10.335-6.248.49-3.04.94-6.18 1.67-9.168-2.806-2.54-5.152-5.632-6.812-8.96l-4.58 1.37c-.004.001-.01.002-.013.004-1.835 2.923-5.637 3.953-8.68 2.218l-18.8756 5.64c-.4736 1.435-6.3363 2.84-6.8236 1.208-2.586-.7-4.8337-9.573-3.3582-11.237-.4873-1.63 5.1842-3.674 6.368-2.734l18.1766-5.432c.2115-.683.494-1.35.8427-1.99-.5228-6.306.7332-12.46 3.5742-18.127-1.577-.355-2.8276-1.572-3.2316-3.13l-50.0732 3.516c3.6025-35.173 11.125-80.462 19.1997-109.704 6.84-48.158 7.745-81.737 65.754-84.3536.197-4.212 14.678-3.9597 15.153-.0001zM112.46 275.08l-3.107.93c-.165-5.832 2.336-11.42 5.546-16.134-1.38 4.894-2.15 10.142-2.44 15.205zm59.852-3.327l-2.967.887c.66 6.62-.18 12.858-3.766 18.654 1.967.372 4.453.704 6.172-.546-1.605-2.167-1.948-5.268-.15-7.732-.75-2.135-.266-4.393.996-6.072.133-1.696.033-3.432-.284-5.19z" fill="#262c30"/></svg>