<svg xmlns="http://www.w3.org/2000/svg" xmlns:xlink="http://www.w3.org/1999/xlink" width="282" height="360" fill="none" xmlns:v="https://vecta.io/nano"><style><![CDATA[.B{fill:#000}.C{stroke-miterlimit:10}.D{stroke:#333}.E{fill-opacity:.3}.F{stroke-width:.45}.G{fill:#262c30}.H{fill:#353535}.I{fill-opacity:.1}.J{fill:#f7c394}.K{fill-opacity:.2}.L{fill:#202021}.M{fill:#141619}.N{stroke-linecap:round}.O{fill:#b5b2b4}.P{fill:#28323c}.Q{fill:#868488}.R{stroke-width:1.2798}.S{stroke-width:.9666}.T{fill-rule:evenodd}]]></style><g clip-path="url(#A)"><path d="M165.76 295.888c-4.57-.668-10.364-2.905-17.717-6.84-1.07-.572-1.5-1.967-.923-3.046.572-1.068 1.967-1.5 3.046-.922 6.8 3.633 12.256 5.77 16.245 6.354 2.603.38 4.477.1 5.57-.868 2.328-2.04 1.02-10.243 2.575-13.76 3.96-8.975 13.826-17.508 24.218-15.903 6.6 1.022 12.924 5.957 14.376 12.653 1.235 5.702-.542 13.516-6.618 15.7-4.03 1.44-8.633-.213-11.776-2.887-.94-.78-1.075-2.25-.275-3.2.793-.93 2.263-1.048 3.193-.236.04.033 3.93 3.3 7.334 2.076 3.856-1.385 4.48-7.106 3.74-10.51-1.058-4.88-5.904-8.42-10.666-9.16-8.356-1.3-16.273 6.164-19.415 13.274-2.16 4.893.617 11.524-3.725 15.328-2.5 2.196-6.037 2.412-9.182 1.94z" class="C D F H"/><g class="B E"><path d="M211.8 274.637c.995 4.593.106 10.3-3.404 13.688 4.626-3.033 5.856-9.68 4.754-14.768-1.452-6.696-7.775-11.63-14.376-12.654-5.963-.92-11.86 1.67-16.34 5.474 10.27-7.267 26.396-5.432 29.365 8.26zm-6.214 10.128c-2.433 2.83-6.803 1.374-9.26-.74-.283-.242-.62-.4-.984-.487a2.243 2.243 0 0 0-1.098.037c.358-.657 1.047-1.102 1.794-1.16.594-.048 1.184.143 1.638.53 1.986 1.755 5.386 3.165 7.9 1.82zm-57.97 3.82c1.415-1.213 2.936-.085 4.296.587 4.448 2.198 11.472 5.398 16.54 5.398 4.5 0 7.065-1.576 7.785-7.38.36 0 1.305.045 1.665.27-.585 6.165-4.4 8.685-9.45 8.685-7.335 0-18.8-6.217-20.835-7.56z"/></g><path d="M103.83 283.23c3.285 0 5.9-2.932 5.584-6.158-.488-5.716 1.676-11.897 5.935-17.855 3.876-5.422 8.03-8.393 4.834-11.897s-10.4.353-13.986 5.355c-5.914 8.273-8.7468 17.02-7.9764 25.53.2874 2.833 2.3244 5.024 5.6094 5.024z" class="C D F H"/><path d="M100.778 275.325c-.037-10.105 8.065-25 17.56-29.175-11.7-1.9-22.0496 21.015-20.0436 31.66.65-1.06 1.7736-2.095 2.4836-2.485z" class="B E"/><path d="M137.344 310.186c.45-7.837 2.466-13.9 4.245-18.613s3.817-13.023-3.83-14.942c-10.935-2.744-16.948 22.87-17.397 30.685-.264 4.597 3.313 9.93 7.956 10.196 4.273.208 8.77-2.862 9.026-7.326z" class="C D F H"/><g class="B E"><path d="M120.254 307.305c4.635-.63 13.32-.63 16.965 3.06l.15-1.353c-3.794-3.327-12.434-3.552-16.922-2.922-.024.297-.168.912-.192 1.215zm1.44-8.055c4.298 3.986 9.8 6.222 16.02 7.065.052-.45.163-1.096.225-1.53-6.174-.8-11.538-3.384-15.84-7.3-.18.54-.326 1.374-.405 1.755z"/></g><path d="M144.657 310.186c-.45-7.837-2.466-13.9-4.246-18.613s-3.817-13.023 3.83-14.942c10.935-2.744 16.948 22.87 17.397 30.685.264 4.597-3.314 9.93-7.956 10.196-4.273.208-8.77-2.862-9.026-7.326z" class="C D F H"/><g class="B E"><path d="M161.747 307.305c-4.635-.63-13.32-.63-16.965 3.06l-.15-1.353c3.795-3.327 12.435-3.552 16.922-2.922.024.297.168.912.193 1.215zm-1.44-8.055c-4.298 3.986-9.8 6.222-16.02 7.065-.052-.45-.163-1.096-.225-1.53 6.174-.8 11.538-3.384 15.84-7.3.18.54.326 1.374.405 1.755z"/></g><path d="M178.17 283.23c-3.285 0-5.91-2.932-5.583-6.158.487-5.716-1.676-11.897-5.936-17.855-3.875-5.422-8.03-8.393-4.834-11.897s10.4.353 13.986 5.355c5.914 8.273 8.747 17.02 7.977 25.53-.287 2.833-2.325 5.024-5.6 5.024z" class="C D F H"/><path d="M181.222 275.325c.037-10.105-8.065-25-17.56-29.175 11.7-1.9 22.05 21.015 20.044 31.66-.65-1.06-1.774-2.095-2.484-2.485z" class="B E"/><path d="M141 229.32c13.86 0 19.8 12.15 23.4 22.14s5.22 19.8 5.22 26.28c0 13.68-12.48 27.49-28.62 27.63-15.797.136-28.62-13.95-28.62-27.63 0-6.48 1.593-16.335 5.22-26.28 3.6-10 9.54-22.14 23.4-22.14z" class="C D F H"/><path d="M141 305.37c-15.8.144-29.7-14.13-28.62-30.33.9 13.32 13.064 25.963 28.62 25.83s27.72-12.5 28.62-25.83c1.08 16.2-12.81 30.187-28.62 30.33z" class="B E"/><path d="M141 240.48c9.36 0 14.4 6.12 15.66 11.52 3.104 13.304 5.76 24.66.36 31.5s-12.145 7.38-16.02 7.38c-4.28 0-10.62-.54-16.02-7.38s-2.92-17.445.36-31.5c1.26-5.4 6.3-11.52 15.66-11.52z" class="C D F J"/><g class="B"><path d="M141 290.88c-12.24 0-20.16-8.46-19.17-19.44.36 10.35 8.64 17.1 19.17 17.1s18.8-6.75 19.17-17.1c1 10.98-6.93 19.44-19.17 19.44z" class="I"/><path d="M180.928 261.667l-10.95 3.108c1.174 2.43 1.98 4.863 2.38 7.252l10.873-3.082c-.498-2.433-1.27-4.865-2.305-7.278zm-11.56 11.21c-.223-2.33-.598-4.894-1.133-7.607l-25.025 7.104c-.75-.68-1.826-.927-2.797-.64l-11.073 3.075-12.57 3.497c-.15-.5-.64-.815-1.144-.667l-3.235.824c.142 4.355 1.565 8.725 3.95 12.64l3.02-.76c.506-.148.744-.676.603-1.177l10.5-3.088c.232.414.733.62 1.188.485l4.602-1.35c.627-.184.832-.828.663-1.402l6.48-1.903c1.04-.307 1.84-1.188 2.05-2.25l23.9-6.78z" class="E"/></g><path d="M132.9 320.04c2.88 0 5.678-2.124 6.003-5.052.82-7.4-8.492-8.072-13.56-8.183-5.14-.113-13.863.86-15.392 6.504-1.336 4.93 3.284 6.73 6.57 6.73s4.4-1.093 8.37-1.093c3.457 0 5.13 1.093 8.01 1.093z" class="C D F J"/><path d="M132.8 318.06c-2.88 0-4.554-1.093-8.01-1.093-3.96 0-5.084 1.093-8.37 1.093-2.555 0-5.917-1.09-6.657-3.893-.606 4.284 3.66 5.873 6.747 5.873 3.285 0 4.4-1.093 8.37-1.093 3.457 0 5.13 1.093 8.01 1.093 3.858 0 6.57-3.073 5.932-7.223-.267 3.01-3.063 5.243-6.022 5.243z" class="B I"/><path d="M149.1 320.04c-2.88 0-5.678-2.124-6.002-5.052-.82-7.4 8.49-8.072 13.56-8.183 5.14-.113 13.863.86 15.392 6.504 1.336 4.93-3.284 6.73-6.57 6.73s-4.4-1.093-8.368-1.093c-3.457 0-5.132 1.093-8.012 1.093z" class="C D F J"/><path d="M149.2 318.06c2.88 0 4.554-1.094 8.012-1.094 3.958 0 5.083 1.094 8.368 1.094 2.555 0 5.918-1.09 6.657-3.893.606 4.284-3.66 5.873-6.747 5.873-3.285 0-4.4-1.093-8.368-1.093-3.458 0-5.132 1.093-8.012 1.093-3.858 0-6.57-3.074-5.932-7.224.267 3.012 3.063 5.244 6.022 5.244z" class="B I"/><path d="M176.874 293.4c-5.113.004-8.37-6.13-5.273-10.374-1.432-4.07 1.628-8.586 6-8.7 5.04-.12 7.953 5.266 7.425 9.822-.493 4.258-3.377 9.238-8.15 9.242z" class="C D F J"/><g class="B"><path d="M185.026 284.148c-.61 5.27-4.894 11.412-11.284 8.442 6.194-.792 10.53-11.295 7.48-17.265.485.345 1.25.75 2.484 2.485 1.106 1.955 1.593 4.157 1.32 6.338z" class="I"/><path d="M167.055 259.695l1.755 2.88 7.404 1.067c.696 1.138 3.306 2.533 5.78.463-2.115-7.3-11.883-19.777-21.232-25.688-8.424-17.468-26.795-18.88-37.1-.824-10.443 5.664-20.644 16.747-23.8837 27.142 1.7997 1.035 4.2747.675 5.6817-.793l.08-.013c2.576-.42 4.91-.8 7.512-1.05.482-.827 1.355-2.285 1.845-3.005-.218.775-.495 2.205-.612 3.005 0 0 7.587-1.997 26.712-1.997s26.64 1.602 26.64 1.602c-.083-.428-.493-2.345-.585-2.8z" class="E"/></g><g fill="#0e0e0f"><path d="M136.017 64.3618h9.966c1.178 0 2.2.7646 2.594 1.818 54.515 2.4584 58.6 32.2566 64.573 75.8103v.001l1.185 8.54c7.125 21.955 15.315 70.015 19.2 109.705-5.3-.675-28.125-2.28-50.072-3.514-.808 3.112-4.923 4.297-7.248 1.966l-3.6-.653c-6.82-.98-16.464-1.353-31.625-1.353-12.73 0-22.646.587-29.645 1.4l-5.886.9c-2.402 1.963-6.1577.68-6.922-2.26l-50.077 3.516c3.6025-35.173 11.125-80.462 19.1997-109.704l1.1863-8.548c5.9704-43.5467 10.056-73.3467 64.5678-75.8053.392-1.053 1.415-1.8174 2.593-1.818z" stroke-width=".9" class="D"/><path d="M98.547 256.72l-50.077 3.517c3.6025-35.173 11.125-80.462 19.1997-109.704 7.1258-50.17 7.8102-84.518 73.33-84.518s66.21 34.34 73.335 84.514c7.125 21.956 15.315 70.016 19.2 109.706-5.3-.675-28.125-2.28-50.072-3.515-.808 3.113-4.923 4.298-7.248 1.967-22.246-4.366-48.418-3.414-70.746.295-2.402 1.963-6.1577.68-6.922-2.262z"/></g><path d="M152.835 142.554c2.883 2.34 29.19 1.62 32.43-2.7 27.382-36.51 5.49-57.482-2.065-65.725-9.82-5.2617-23.318-8.114-42.2-8.114s-32.38 2.8527-42.1982 8.1147c-7.5518 8.2424-29.4503 29.2144-2.066 65.7274 3.2436 4.32 29.5483 5.044 32.4303 2.7S141 113.55 141 105.803c0 7.746 8.953 34.41 11.835 36.75z" class="G"/><path d="M93.2148 169.283c7.5022-10.396 29.5042-10.24 37.4282-.433 3.426 4.244 3.947 9.26 4 9.855.314 3.424.19 8.872-3.468 10.557-4.044 1.8-16.98 1.06-16.98 1.06-7.268-.42-19.162.992-23.242-6.62-2.4597-4.575-.342-10.812 2.2617-14.42z" fill="#131516"/><g class="G"><path d="M199.006 205.92c-4.08 4.702-19.35 24.66-22.176 41.775l-27.757-41.774c2.933-1.325 6.333-2.43 9.873-2.9 6.12-.84 37.702 1.8 40.06 2.9zm-66.316-.08c-4.966 7.905-19.33 29.763-27.508 41.934-2.8-17.135-18.1006-37.147-22.1893-41.856 2.3598-1.098 33.9403-3.748 40.0603-2.9 3.47.475 6.777 1.543 9.637 2.833z"/><path d="M176.417 254.31c-23.122-2.453-47.707-2.428-70.83 0 .116-2.103-.035-4.297-.4-6.54l27.508-41.935c2.942 1.325 5.938 3.004 8.234 5.3 2.268-2.268 5.244-3.91 8.148-5.222 9.473 13.774 18.492 27.86 27.757 41.774-.367 2.185-.535 4.407-.416 6.62z"/></g><g class="M"><path d="M113.2 248.15v2.165l-1.658.2 1.658-2.354zm10.15-14.676v15.957l-4.6.343-.12-9.428 4.7-6.872zm9.994-15.458l-.172 30.942-4.477.174v-23.7l4.65-7.406zm37.236 32.678l-1.758-.18v-2.384l1.758 2.564zm-7.203-10.294l-.124 9.648-4.582-.34v-16.226l4.706 6.918zm-10.05-15.418v24.367l-4.478-.25-.18-31.967 4.658 7.85zm-9.977-10.177v34.07l-4.68-.05v-34.02h4.68z"/></g><path d="M90.1594 189.665c.073-.58 1.9233-.878 2.6838-.87s1.2555 1.748 4.4352 2.25 28.4466 3.433 36.9796-1.128c.884.665 1.836 2.682 1.863 3.32-.212.638-10.635 7.2-25.595 6.692-12.282-.417-17.1518-2.23-17.9483-2.92s-2.4966-6.72-2.4183-7.34z" class="G"/><g stroke="#e6e6e6" stroke-width="2.7063" class="C N"><path d="M111.167 165.567c-3.34 0-10.412.485-13.6 5.907m-2.79 4.916c-.5652.834-.883 3.755-.713 4.6"/></g><path d="M188.8 169.283c-7.5-10.396-29.504-10.24-37.427-.433-3.962 4.907-4.535 10.475-3.345 16.358.355 1.757 1.135 3.283 2.81 4.054 4.044 1.8 16.98 1.06 16.98 1.06 7.27-.42 19.16.992 23.243-6.62 2.455-4.575.337-10.812-2.263-14.42z" fill="#131516"/><path d="M191.842 189.665c-.072-.58-1.923-.878-2.682-.87s-1.26 1.748-4.437 2.25-28.446 3.433-36.98-1.128c-.883.665-1.836 2.682-1.863 3.32.213.638 10.636 7.2 25.595 6.692 12.283-.417 17.154-2.23 17.95-2.92s2.496-6.72 2.417-7.34z" class="G"/><g stroke="#2c343a" class="C N R"><path d="M135.6 168.98c2.114-1 9.63-.907 11.2.128m-10.352 3.97c2.114-1 7.45-1.036 9.016 0m-7.954 3.968c2.114-1 5.4-.963 6.97.072m-6.97 3.846c2.114-1 5.4-.963 6.97.072"/></g><path opacity=".3" d="M145.902 207.48c.782-.474.714-.4 1.62-.864l-.477-.696a37.74 37.74 0 0 0-3.993 2.097c3.676 5.322 8.882 15.263 15.6 25.456 4.81 7.282 9.28 13.286 11.91 17.222-8.51-.54-18.23-1.96-29.57-1.96s-21.98.9-29.467 1.768c13.726-19.446 24.91-36.16 26.973-42.57-1.283-.777-2.61-1.476-3.978-2.09l-.45.7c.888.45.952.444 1.722.912-9.947 15.927-21.64 31.057-31.295 47.146 6.345-1.7 22.005-2.405 36.495-2.405s25.965.425 35.406 1.96l-30.504-46.686z" class="B"/><path d="M137.23 185.197c2.114-1 5.887-1.098 7.455-.063" stroke="#2c343a" class="C N R"/><path d="M101.7 259.78l-1.24-4.303c5.823-1.676 16.013-3.273 40.538-3.273s32.58 1.192 39.274 2.84l-1.22 4.308c-6.982-1.98-17.4-2.67-38.054-2.67s-33.903 1.545-39.3 3.098z" class="M"/><g stroke="#e6e6e6" stroke-width="2.7" class="C N"><path d="M169.6 167.06c-3.34 0-10.412.484-13.6 5.907m-2.78 4.915c-.565.833-.882 3.754-.713 4.6"/></g><g class="B E"><path d="M185.266 139.854c-3.24 4.32-29.547 5.045-32.43 2.7S141 113.55 141 105.803c0 7.746-8.95 34.4-11.834 36.754s-29.186 1.62-32.4295-2.7c-11.0016-14.67-14.05-26.692-13.2678-36.36.6723 8.557 4.3668 18.7 13.2678 30.56 3.24 4.32 29.5475 5.045 32.4295 2.7S141 107.75 141 100.004c0 7.747 8.952 34.4 11.834 36.755s29.187 1.62 32.43-2.7c8.9-11.868 12.594-22.002 13.267-30.56.782 9.663-2.264 21.684-13.266 36.354zm-49.144 53.38c-.213.637-10.636 7.2-25.596 6.7-12.282-.417-17.1518-2.23-17.9492-2.92s-2.4948-6.718-2.4165-7.34c.0162-.133.127-.252.298-.355.5103 2.022 1.547 5.267 2.1186 5.76.7974.7 5.67 2.503 17.9492 2.92 13.15.45 22.795-4.57 25.08-6.222.3.604.502 1.178.515 1.467zM189.42 197c-.796.7-5.665 2.504-17.948 2.92-14.96.508-25.38-6.054-25.596-6.7.013-.3.216-.863.516-1.465 2.284 1.653 11.93 6.67 25.08 6.222 12.283-.417 17.152-2.23 17.948-2.92.573-.495 1.6-3.74 2.12-5.76.17.103.282.222.3.355.08.615-1.618 6.643-2.42 7.338z"/></g><path d="M222.104 185.83c-7.014-12.484-16.75-28.676-31.176-33.414-15.154-4.97-36.83 2.204-49.928 9.687-11.64-6.632-27.753-10.9-41.0367-10.9-19.2566 0-31.6885 19.723-40.0654 34.637 3.2022-17.72 5.986-29.716 8.0766-34.785l.0342-.083.0756-.18c5.0988-6.447 14.0058-11.52 22.3686-11.52 9.5104 0 38.533 2.355 50.48 16.14 9.563-13.515 41.063-16.14 50.608-16.14 8.366 0 17.273 5.07 22.375 11.52l.054.126c2.098 5 4.9 17.033 8.134 34.922z" class="G"/><path d="M221.122 183.14c-6.9-11.85-16.318-26.674-30.046-31.184-15.7-5.153-36.43 2.2-50.076 9.59-11.896-6.44-27.576-10.84-41.0396-10.84-18.55 0-30.7055 18.06-39.0834 32.43l1.0728-5.68c8.2937-13.825 20.1437-30.617 38.0087-30.617 13.4665 0 29.1405 4.402 41.0405 10.84 13.68-7.412 34.966-14.56 50.076-9.59 13.1 4.31 22.2 18.083 28.97 29.37l1.076 5.678z" class="B E"/><g stroke="#0e0e0f"><path d="M220.998 182.784c-3.176-5.54-6.888-11.577-11.286-16.9-5.146-6.24-11.265-11.558-18.615-13.972h-.001c-7.71-2.53-17.03-1.958-26.027.16-8.884 2.092-17.512 5.706-24.07 9.418-11.7-6.59-27.76-10.83-41.0357-10.83-9.8302 0-17.8834 5.038-24.5 11.89-5.8104 6.016-10.553 13.47-14.4605 20.252 2.9628-16.01 5.5313-26.84 7.472-31.545h0l.0032-.008.0135-.033c.0026-.006.0057-.013.018-.044l.045-.107c5.0228-6.314 13.755-11.258 21.8994-11.258 4.723 0 14.314.586 24.204 2.887 9.91 2.305 20.01 6.308 25.868 13.067l.45.52.398-.562c2.318-3.276 6-5.924 10.393-8.05s9.49-3.707 14.597-4.874c10.217-2.335 20.437-2.99 25.177-2.99 8.148 0 16.88 4.942 21.907 11.26l.024.058c1.947 4.63 4.534 15.5 7.526 31.667z" stroke-width="1.08"/><use xlink:href="#B" class="C G S"/></g><g class="B"><path d="M145.984 64.845h-9.967c-1.242.0005-2.28 1.0386-2.28 2.2806v86.7494c-.004 2.116-.27 6 1.79 7.156 1.143.636 3.18 1.127 4.284 1.64.705.328 1.542.306 2.228-.06.978-.52 2.616-1.203 3.64-1.654 1.614-.712 2.58-5.166 2.585-7.296V67.1256c0-1.242-1.038-2.28-2.28-2.2806zm1.31 80.564c.002 4.382-1.983 5.496-5.344 7.284-.594.317-1.32.336-1.93.05-3.894-1.81-5.32-2.612-5.31-7.15V70.4367c0-1.0785.9-1.98 1.98-1.98h8.632c1.08 0 1.98.9015 1.98 1.98l-.007 74.9723z" class="E"/><path opacity=".2" d="M199.006 205.92c-4.08 4.702-19.35 24.66-22.176 41.774l-27.757-41.773a43.597 43.597 0 0 1 1.286-.554l25.505 38.462c2.394-14.5 13.696-31.006 19.586-38.6 1.87.255 3.15.5 3.556.682zm-66.316-.08c-4.966 7.905-19.33 29.763-27.508 41.935-2.8-17.136-18.1006-37.148-22.1893-41.857.4077-.2 1.6866-.425 3.556-.682 5.903 7.6 17.2354 24.167 19.6004 38.673l25.37-38.573c.398.163.787.332 1.17.504z"/><path d="M150.853 216.737h-19.858c0-.9-.588-4.635.72-7.9-.508 2.676-.147 5.24-.147 5.967h18.843c0-.376.313-2.57-.044-5.064 1.005 3.2.486 6.53.486 6.996z" fill-opacity=".4"/></g><g class="G"><use xlink:href="#B" stroke="#0e0e0f" class="C S"/><use xlink:href="#B"/></g><path d="M182.597 256.145l-3.35 2.97a1.477 1.477 0 0 1-.09-.111c-12.832-15.675-22.562-34.323-34.073-50.988a37.74 37.74 0 0 1 3.993-2.097l33.52 50.226z" class="M"/><path d="M179.273 259.956c2.388 0 4.323-1.935 4.323-4.323s-1.935-4.324-4.323-4.324-4.324 1.936-4.324 4.324 1.936 4.323 4.324 4.323z" class="P"/><path d="M179.273 258.22c1.43 0 2.588-1.16 2.588-2.588s-1.16-2.587-2.588-2.587-2.587 1.158-2.587 2.587 1.158 2.588 2.587 2.588z" class="Q"/><path d="M136.67 207.93c-10.616 17-22.354 34.71-33.914 51.188l-3.3463-2.975 33.2823-50.3c1.367.614 2.695 1.31 3.978 2.087z" class="M"/><path d="M102.73 259.956c2.388 0 4.323-1.935 4.323-4.323s-1.935-4.324-4.323-4.324-4.3237 1.936-4.3237 4.324 1.9357 4.323 4.3237 4.323z" class="P"/><path d="M102.73 258.22c1.43 0 2.587-1.16 2.587-2.588s-1.158-2.587-2.587-2.587-2.588 1.158-2.588 2.587 1.16 2.588 2.588 2.588z" class="Q"/><path d="M140.99 201.617c-11.357 0-9.422 11.504-9.422 13.188H150.4c0-.94 1.948-13.188-9.42-13.188z" class="P"/><path d="M141 204.002c-8.063 0-7.3 7.92-7.3 8.417h14.58c0-1.1.494-8.417-7.3-8.417z" class="Q"/><g fill="#ff1f1f" class="T"><path d="M136.032 282.56l-3.852-12.97 139.376-41.915c3.67-1.104 7.508.905 8.57 4.486s-1.05 7.38-4.72 8.483L136.032 282.56z" fill-opacity=".05"/><path d="M136.048 281.622l-3.35-11.277L271.8 228.537c3.193-.96 6.532.786 7.457 3.9s-.913 6.416-4.106 7.376l-139.104 41.808z" class="I"/><path d="M142.704 278.697l-2.85-9.588 132.192-39.713c2.716-.816 5.556.67 6.343 3.317s-.777 5.456-3.493 6.272l-132.19 39.712z" class="K"/></g><path d="M272.288 230.256c2.24-.672 4.58.552 5.23 2.733s-.64 4.495-2.88 5.168l-131.315 39.42-2.35-7.9 131.315-39.42z" fill="#ff1f1f"/><g class="T"><path d="M143.943 276.457L274.38 237.33c1.763-.53 2.778-2.348 2.267-4.064s-2.354-2.678-4.117-2.15l-130.438 39.128 1.85 6.213z" fill="#ff6e6e"/><path d="M144.563 275.338l129.56-38.83c1.286-.386 2.027-1.712 1.654-2.963s-1.718-1.952-3.004-1.567l-129.56 38.83 1.35 4.53z" fill="#ffb6b6"/><path d="M144.838 274.32l129.03-38.633c.8-.242 1.276-1.077 1.04-1.864s-1.08-1.228-1.89-.985l-129.03 38.633.85 2.85z" fill="#ffebeb"/><path d="M144.596 273.458L273.61 234.87c.334-.1.526-.443.43-.766s-.445-.505-.778-.405l-129.014 38.586.35 1.172z" fill="#fff"/></g><path d="M143.91 269.93c-.323-1.15-1.658-1.74-2.982-1.32l-6.51 2.07-.355-1.264c-.138-.493-.71-.746-1.278-.566l-5.395 1.715c-.568.18-.916.726-.777 1.22l.23.818-9.763 3.103c-.265-.296-.73-.415-1.195-.268l-8.82 2.803c-.526.168-.878.625-.875 1.088l-1.057.336c-.07-.246-.355-.373-.64-.282l-24.8784 7.908c-.179-.227-.5167-.322-.8523-.216l-1.9696.627c-.4256.135-.6865.544-.5827.914l.0627.223-.5138.163-.1045-.372c-.0807-.287-.4146-.435-.7457-.33l-.685.218c-.331.105-.534.424-.4533.71l.1237.44c-.4086.293-.6222.774-.4974 1.218l2.0473 7.287c.1247.444.5513.72 1.044.728l.1237.44c.0807.287.4146.435.7456.33l.685-.218c.331-.105.534-.424.4532-.71l-.1044-.372.5138-.163.0627.223c.1038.37.533.56.9587.424l1.9696-.626c.3356-.107.5688-.384.6016-.677l24.8784-7.908c.284-.1.457-.363.388-.6l1.058-.336c.235.4.766.567 1.292.4l8.82-2.804c.463-.147.79-.52.86-.922l10.19-3.24.04.15c.14.493.717.744 1.292.56l4.598-1.46c.575-.183.928-.73.8-1.223l-.167-.595 6.85-2.178c1.324-.42 2.136-1.694 1.813-2.844l-1.296-4.6z" stroke-width=".9" class="D"/><path d="M77.4722 287.06l2.8695 10.6-3.6408 1.2c-.7218.24-1.4497-.096-1.6258-.746l-2.2318-8.244c-.176-.65.2663-1.37.988-1.608l3.6408-1.2z" class="L"/><path d="M107.218 278.22l2.7014 9.8884-29.002 9.4808-2.7014-9.8884z" class="O"/><path d="M80.5607 295l.7405 2.59 28.6178-8.934-.74-2.59L80.5607 295z" class="B K"/><g class="L"><path d="M104.24 278.43c.287-.1.577.036.647.28l.38 1.328c.07.244-.106.515-.393.604l-25.66 7.994-.6344-2.213 25.6603-7.994zm1.4 4.658c.287-.1.577.036.647.28l.38 1.328c.07.245-.106.515-.393.605l-25.6603 7.994-.6345-2.213 25.6608-7.994zm1.392 4.656c.287-.1.577.036.647.28l.38 1.328c.07.244-.106.515-.394.604l-25.6602 7.994-.6344-2.213 25.6606-7.994z"/></g><path d="M128.168 271.76l2.8427 10.6015-13.356 4.4483-2.8427-10.6015z" class="O"/><path d="M119.672 280.335l-.944-3.076c-.166-.54.11-1.134.62-1.326l7.857-2.965c.5-.196 1.056.1 1.22.63l.944 3.076c.167.54-.11 1.134-.62 1.326l-7.858 2.965c-.51.192-1.056-.09-1.22-.63z" class="B E"/><path d="M120.06 279.97l-.9-2.932c-.158-.516.106-1.08.59-1.264l7.485-2.825c.484-.183 1.006.087 1.163.602l.9 2.932c.158.516-.106 1.08-.59 1.264l-7.483 2.825c-.486.183-1.007-.087-1.165-.602z" fill="#9b9b9b"/><g fill="#303030"><path d="M126.68 274.768c.195-.073.303-.286.24-.477s-.268-.285-.463-.213-.302.286-.24.477.27.285.463.213zm.452 1.402c.194-.072.302-.286.24-.476s-.27-.286-.463-.213-.302.286-.24.476.268.286.463.213zm.45 1.402c.194-.073.302-.286.24-.476s-.27-.286-.463-.213-.302.286-.24.476.268.286.463.213zm-2.343-2.266c.194-.073.302-.286.24-.476s-.268-.286-.463-.213-.302.286-.24.476.268.286.463.213zm.452 1.402c.194-.073.302-.286.24-.477s-.27-.285-.463-.213-.303.286-.24.477.268.285.463.213zm.45 1.402c.195-.073.303-.286.242-.476s-.27-.286-.463-.213-.303.286-.242.476.27.286.463.213zm-2.343-2.265c.194-.073.302-.286.24-.477s-.27-.285-.463-.213-.303.286-.24.477.268.285.463.213zm.452 1.402c.194-.073.302-.286.24-.476s-.27-.286-.463-.213-.303.286-.24.476.268.286.463.213zm.45 1.403c.195-.072.303-.286.24-.476s-.268-.286-.463-.213-.302.286-.24.476.27.286.463.213zm-2.343-2.267c.195-.073.303-.286.24-.477s-.268-.285-.463-.213-.302.286-.24.477.27.285.463.213zm.45 1.403c.195-.072.303-.286.24-.476s-.268-.286-.463-.213-.302.286-.24.476.27.286.463.213zm.452 1.402c.194-.073.302-.286.24-.477s-.268-.285-.463-.212-.302.285-.24.476.27.286.463.213zm-2.342-2.266c.195-.073.303-.286.24-.476s-.268-.286-.463-.213-.302.286-.24.476.27.286.463.213zm.45 1.402c.194-.072.302-.286.24-.476s-.268-.286-.463-.213-.302.286-.24.476.27.286.463.213zm.452 1.403c.194-.073.302-.286.24-.476s-.268-.286-.463-.213-.302.286-.24.476.27.286.463.213z"/></g><path d="M116.042 274.682c.65-.216 1.304.088 1.462.68l2.647 9.884c.16.59-.24 1.246-.888 1.462l-9.315 3.106c-.65.216-1.304-.088-1.462-.68l-2.647-9.883c-.16-.592.24-1.247.888-1.463l9.315-3.106z" class="L"/><path d="M107.69 285.2l1.077 3.972c.155.57.794.863 1.428.655l9.095-2.996c.634-.21 1.022-.84.868-1.41l-1.077-3.972c.154.57-.234 1.202-.868 1.41l-9.095 2.995c-.634.21-1.273-.084-1.428-.654z" class="B"/><ellipse rx="1.7049" ry="1.9091" transform="matrix(.257668 .961791 -.94322 .314426 125.995 281.854)" fill="#a77559"/><path d="M124.568 281.97c.243.908 1.25 1.374 2.246 1.042.322-.108.604-.286.83-.508-.24.442-.663.8-1.193.987-.997.333-2.003-.134-2.246-1.042-.165-.615.062-1.274.535-1.74-.213.39-.286.835-.172 1.26z" class="B K"/><path d="M141.196 268.5c1.387-.462 2.787.187 3.126 1.45l1.357 5.064c.34 1.263-.512 2.662-1.9 3.124l-9.154 3.05-2.584-9.638 9.155-3.05z" class="L"/><path d="M134.113 278.573l.7 2.616 9-2.96c1.364-.45 2.2-1.807 1.868-3.033l-.71-2.617c.333 1.226-.503 2.584-1.867 3.033l-9 2.96z" class="B"/><path d="M133.97 268.895l3.252 12.064c.15.556-.232 1.173-.854 1.38l-4.97 1.646c-.622.206-1.247-.077-1.397-.632l-3.253-12.065 7.223-2.392z" fill="#9b9b9b"/><path d="M132.91 268.21c.608-.202 1.22.082 1.37.634l2.572 9.577c.148.552-.225 1.163-.832 1.365l-5.776 1.92c-.607.202-1.22-.082-1.368-.634l-2.572-9.577c-.148-.552.224-1.163.832-1.365l5.775-1.92z" class="L"/><path d="M127.225 270.1c-.63.2-1.086.787-.923 1.396l2.572 9.577c.148.552.76.836 1.368.634l5.776-1.92c.607-.202.98-.813.832-1.365l-.47-1.75-5.684 1.9c-.608.202-1.22-.082-1.368-.633l-2.103-7.83z" class="B"/><path d="M74.4663 286.81c.3803-.12.7637.05.8564.38l3.263 11.617c.0928.33-.1402.696-.5205.817l-.7867.25c-.3803.12-.7637-.048-.8564-.38l-3.263-11.617c-.0928-.33.1402-.696.5205-.817l.7867-.25z" class="O"/><path d="M75.5425 295.805l1.0008 3.7c.088.325.4515.492.812.373l.746-.246c.3605-.12.5814-.48.4935-.804l-1.0008-3.7c.088.325-.133.685-.4935.804l-.746.247c-.3605.12-.724-.048-.812-.373z" class="B K"/><path d="M78.458 285.66c.474-.155.9522.062 1.0678.484l3.0715 11.192c.1157.42-.175.888-.65 1.042l-2.1938.714c-.474.155-.9522-.062-1.0678-.483l-3.0715-11.193c-.1157-.42.175-.888.65-1.042l2.1938-.714z" class="O"/><path d="M77.905 294.986l.9756 3.64c.1102.41.5657.623 1.0175.472l2.0903-.696c.4517-.15.7286-.606.6184-1.018l-.9756-3.64c.1103.41-.1666.867-.6184 1.017l-2.0903.697c-.4517.15-.9073-.06-1.0175-.472z" class="B K"/><path d="M105.126 293.4c5.114.004 8.37-6.13 5.273-10.374 1.433-4.07-1.627-8.586-6-8.7-5.04-.12-7.9528 5.266-7.425 9.822.4932 4.258 3.377 9.238 8.15 9.242z" class="C D F J"/><path d="M96.975 284.148c.6105 5.27 4.893 11.412 11.283 8.442-6.194-.792-10.5296-11.295-7.48-17.265-.485.345-1.2496.75-2.4836 2.485-1.106 1.955-1.5925 4.157-1.3194 6.338z" class="B I"/></g><defs><clipPath id="A"><path fill="#fff" d="M0 0h282v360H0z"/></clipPath><path id="B" d="M146.93 159.79a2.512 2.512 0 0 1-1.431 1.44c-1.044.402-2.48 1.135-3.46 1.655-.686.366-1.523.388-2.227.06l-4.015-1.73a2.51 2.51 0 0 1-1.558-1.731c-.612-2.468-.502-5.6-.502-5.6V67.1256c0-1.242 1.038-2.28 2.28-2.2806h9.967c1.242 0 2.28 1.0384 2.28 2.2806V153.66c0 1.97-.647 4.314-1.335 6.13z"/></defs></svg>