<svg width="4000" height="4000" viewBox="0 0 4000 4000" fill="none" xmlns="http://www.w3.org/2000/svg"><path d="M2000 2771c275 0 572-113 664-380 15-42-22-85-68-78a4238 4238 0 01-1192 0c-46-7-83 36-68 78 92 267 389 380 664 380z" fill="#3D0C0C"/><path d="M2000 2752c151 0 310-37 440-119-269 17-632 23-878 1a835 835 0 00438 118z" fill="#fff"/><path d="M2266 2712c61-18 120-45 174-79l-58 3c-34 28-73 53-116 76z" fill="#000" fill-opacity=".1"/><path d="M2933 2794c-175-34-446-107-582-202-39-27-39-105 39-112 263-21 479-9 642 0 85 115 122 350-99 314z" fill="#B34A31"/><path d="M2813 2470h-7c-52 81-75 184-62 280l5 2c-13-97 11-200 64-282zM2619 2469c-48 61-76 139-77 217l5 2c1-78 29-158 79-219h-7zM2470 2475c-32 47-51 98-57 155l5 2c6-58 25-109 58-157h-6z" fill="#933B2A"/><path d="M2618 2479c-90 10-190 20-280 26 3-4 11-11 17-14 86-6 184-25 271-22l-8 10zM2348 2546c136 95 407 168 582 202 118 20 163-39 165-115 15 96-21 184-162 161-175-34-446-107-582-202a64 64 0 01-23-70c4 10 11 18 20 24z" fill="#000" fill-opacity=".2"/><path d="M2938 2799c-26-5-69-8-73-40 0-7 6-14 6-21-2-17-25-16-30-32-3-14 16-20 16-39-1-22-27-29-25-49 1-14 14-14 18-31 4-20-10-28-4-38 7-12 29-9 38-22 7-10 9-16 15-30 16-41 130-15 155-6 13 110-87 206-116 308z" fill="#EAEAEA"/><path d="M2963 2805c-25 0-91-4-87-52 3-32-15-35-19-52-4-14 4-13 4-32 0-23-17-31-14-51 1-13 11-12 15-28 4-21-6-29 0-39 8-12 23-3 34-15 12-11 12-25 18-39 6-15 18-11 39-15 11-2 23-9 36-9 16 0 49 1 65 6 13 111-62 224-91 326z" fill="#D6D6D6"/><path d="M2984 2814c-38-7-100-11-97-59 0-19-15-34-19-51-3-14 7-14 6-27 0-23-16-31-14-51 2-14 11-14 14-30 4-21-1-26 5-36 7-12 33-19 45-30 11-12 4-18 9-32 6-13 24-7 39-12 14-5 35-11 50-11 18 0 58 3 69 12 13 111-78 225-107 327z" fill="#C1C1C1"/><path d="M3206 2717c45-125-31-241-150-241-16 0-17 7-29 9-16 3-26-6-37 5-12 11-26 5-39 15-6 5-7 18-15 30-8 10-20 4-24 11-5 9 5 19-3 25-24 17-28 28-20 52 3 9-5 18-7 26-2 10 4 19 6 32 3 17-9 20-3 32 3 7 12 15 14 26s-4 19 0 29c35 76 262 75 307-51z" fill="#181818"/><path d="M2951 2808c-25-4-48-11-69-24-173-38-408-106-531-192-39-27-39-105 39-112a4058 4058 0 01584-4c26-8 55 0 82 0 119 0 195 116 150 241-34 96-175 120-255 91z" stroke="#333" stroke-width="5"/><path d="M2609 2470c17-28 29-56 37-84 9-32-15-60-47-55-396 55-802 56-1198 0-32-5-56 23-47 55 8 28 20 56 37 84 281 38 849 50 1218 0z" fill="#fff"/><path d="M1391 2470l92 10c-28-47-49-96-64-147-9-1-19-3-29-3-26 3-44 27-36 56 8 28 20 56 37 84zM1622 2638c33 27 71 52 114 75-61-18-120-45-174-79l60 4zM2517 2480l92-10c17-28 29-56 37-84 9-32-14-59-46-55l-19 2c-15 51-36 100-64 147z" fill="#000" fill-opacity=".1"/><path d="M3031 2775c7-2 10 0 11-2 2-2 0-7-3-9-8-5-35 10-29 17 2 3 17-5 21-6zM3014 2649c5-5 9-5 9-8 0-2-3-5-7-6-9-1-27 25-18 28 3 2 13-12 16-14zM3064 2523c-7-2-17-11-19-10s-1 11 0 15c4 8 42 8 40-1-1-4-17-3-21-4zM3089 2765c3 6 3 9 5 10 3 1 13-13 14-17 3-9-26-19-31-11-2 3 10 15 12 18zM3107 2682c7 0 10 2 12 0s0-10-2-13c-7-6-40 7-35 14 2 4 22 0 25-1zM3087 2629c25 4 71-20 28-25-10-1-34-9-37 15 0 6 5 9 9 10zM2966 2728c-13 3-31 12-12 27 8 5 39-23 33-30-3-3-17 2-21 3zM2937 2684c-5-5-5-9-8-9s-5 3-6 7c-1 9 25 26 28 18 2-4-12-13-14-16zM2950 2588c3 1 19-8 18-12-1-6-21-5-24 1-2 4 2 10 6 11zM3174 2666c3 1 19-8 18-12-1-7-21-5-24 1-2 4 2 10 6 11zM3126 2548c3 0 32 0 31-4-1-6-37-20-40-14-2 4 4 16 9 18zM3152 2583c1 4 33 35 36 33 5-5-24-44-30-43-4 1-7 6-6 10zM3009 2603c3 0 47-12 46-16-1-6-50-1-52 5-2 4 1 10 6 11zM2986 2545c11-6 28-5 27-9-1-7-37 0-38 7-2 9 7 4 11 2zM2966 2645c5-10 7-15 4-19-30-28-21 63-4 19zM3142 2749c2 5 5-10 7-17 2-4 13-14 11-17-11-15-23 25-18 34zM3027 2714c4 1 19-2 18-6-1-7-18-21-24-5-1 4 2 10 6 11zM3055 2679c4 1 10-26 9-30-1-7-14 12-17 18-2 3 4 11 8 12z" fill="#B5482C"/></svg>