<svg fill="none" height="4000" viewBox="0 0 4000 4000" width="4000" xmlns="http://www.w3.org/2000/svg"><path d="m2000.41 2770.5c275 0 572-112.5 663.25-379.44 15.25-42.3-22.09-84.98-67.45-78.53-197.53 28.07-396.79 42.15-596.3 42.15s-398.78-14.09-596.31-42.15c-45.32-6.44-82.16 36.01-67.46 78.53 92.27 266.94 389.27 379.44 664.27 379.44z" fill="#3d0c0c"/><path d="m2000.41 2752c150.13.26 310.04-37.45 439.51-119.5-268.92 17.5-631.92 23-877.92 1.41 129.2 81.35 287.69 117.83 438.41 118.09z" fill="#fff"/><path d="m2933.03 2794.23c-175.53-34.23-446.53-107.23-582.52-201.93-38.51-26.82-38.72-105.59 39.69-112.08 262.3-21.72 478.3-9.22 641.3-.22 85.26 114.81 122.61 350.31-98.47 314.23z" fill="#b34a31"/><path d="m2812.5 2470.25-6.5-.25c-51.99 81.38-74.58 184.27-62.5 280 1.77.52 3.5 1 5.5 1.5-12.56-96.24 10.54-199.78 63.5-281.25z" fill="#933b2a"/><path d="m2618.5 2469c-47.82 60.92-75.02 139.48-76.5 217 1 .5 3.34 1.39 5 2 1.12-78.36 29.49-157.96 78.5-219z" fill="#933b2a"/><path d="m2469.72 2474.77c-31.7 47.61-50.49 97.84-56.72 154.73 1.59.75 3.35 1.74 5 2.5 6.04-57.92 25.21-109.41 58-157.5z" fill="#933b2a"/><path d="m2617.5 2479c-89.63 10.15-190 20.21-280 26 3-4.5 11.2-11.39 17-14.5 86.01-5.77 184.79-24.69 271-21.5-.53.66-6.32 7.5-8 10z" fill="#000" fill-opacity=".2"/><path d="m2347.51 2546.3c135.99 94.7 406.99 167.7 582.52 201.93 118.27 19.3 162.58-39.12 165.16-115.21 14.87 96.4-20.86 184.27-162.16 161.21-175.53-34.23-446.53-107.23-582.52-201.93-20.93-14.57-30.55-44.49-22.38-69.81 4.34 9.56 10.94 17.93 19.38 23.81z" fill="#000" fill-opacity=".2"/><path d="m2938 2798.5c-26.39-4.46-69.27-7.8-72.71-39.89-.75-6.94 6.02-13.3 5.22-20.71-1.86-17.19-24.95-15.65-29.04-31.97-3.55-14.3 15.34-19.79 15.09-38.64-.31-22.71-26.86-29.57-24.8-49.5 1.42-13.86 14.63-14.16 17.83-30.59 3.98-20.46-9.86-28.16-3.93-37.8 7.62-12.44 29.49-9.36 38.33-22.58 6.81-10.2 9.14-15.74 14.86-29.88 16.41-40.49 129.82-14.71 155.15-6.44 13.21 110.54-87.15 206.29-116 308z" fill="#eaeaea"/><path d="m2963 2805c-25.5 0-91.5-4.5-86.96-52.08 3.03-31.81-15.18-35.22-19.28-51.54-3.54-14.31 4.68-13.73 4.43-32.58-.3-22.7-16.75-30.51-14.69-50.44 1.42-13.86 11.98-12.34 15.18-28.77 3.99-20.46-5.6-28.94.32-38.58 7.62-12.45 23.07-3.15 34.16-14.54 11.39-11.7 12.31-25.07 18.03-39.21 6.16-15.19 17.82-11.6 38.81-15.26 11.46-2 23.37-9.15 35.5-9 16.99.21 49.42 1.22 65.47 6.47 13.21 110.54-62.12 223.82-90.97 325.53z" fill="#d6d6d6"/><path d="m2984 2813.5c-37.73-6.37-99.88-10.3-97.5-58.5.95-19.29-14.1-34.3-18.2-50.62-3.54-14.3 6.35-14.24 6.17-27.35-.3-22.71-16.43-31.14-14.38-51.08 1.43-13.86 11.04-13.6 14.24-30.03 3.99-20.46-1.5-26.1 4.43-35.74 7.62-12.44 33.66-18.8 44.75-30.19 11.39-11.7 4.25-17.63 9.97-31.78 5.47-13.49 23.19-6.99 38.27-12.44 13.94-5.03 34.78-11.11 50.25-10.77 18.01.39 57.62 3.14 69 12 13.21 110.54-78.15 224.79-107 326.5z" fill="#c1c1c1"/><path d="m3206 2717c45-125.5-31-241-150.5-241-15.01 0-16.77 6.92-29 9.11-15.71 2.77-25.5-6.61-36.5 4.39-11.99 11.99-26.1 5.04-38.93 15.13-6.48 5.14-6.68 18.41-15.13 29.89-7.48 10.17-19.51 4.39-23.81 11.55-5.36 8.92 5.17 18.71-3.32 24.85-23.89 17.25-27.53 28.48-19.78 51.72 2.99 8.98-5.45 17.87-6.96 26.28-1.87 10.53 3.77 18.63 5.89 31.76 2.71 16.85-8.71 20.41-3.22 31.93 3.58 7.58 12.37 15.33 14.07 26.4 1.69 10.99-4.31 18.99 0 28.49 34.83 76.78 262.19 75 307.19-50.5z" fill="#181818"/><path d="m2950.56 2808.09c-24.28-4.57-47.15-11.5-68.33-24.3-173.55-37.43-408.27-105.52-531.72-191.49-38.51-26.82-38.72-105.59 39.69-112.08 217.29-17.99 402.8-12.5 552.73-4.97 9.81-.75 20.46-.55 31.2.26 25.43-7.87 55.25.49 81.37.49 119.5 0 195.5 115.5 150.5 241-34.4 95.94-175.38 119.58-255.44 91.09z" stroke="#333" stroke-width="5"/><path d="m2608.75 2469.5c16.94-27.19 29.52-55.13 37.2-83.29 8.9-32.67-14.69-60.04-47.04-55.45-396.36 55.5-801.44 56.2-1197.79.01-32.4-4.56-55.98 22.77-47.08 55.44 7.67 28.16 20.25 56.11 37.18 83.29 280.78 38.5 848.28 50.5 1217.53 0z" fill="#fff"/><g fill="#000" fill-opacity=".1"><path d="m1391.22 2469.5c27.95 3.84 58.74 7.41 91.89 10.68-28.05-47.14-48.95-96.58-63.9-146.88-9.59-1.32-19.54-3.7-29.27-2.84-26.38 2.35-43.74 26.98-35.9 55.75 7.67 28.17 20.25 56.11 37.18 83.29z"/><path d="m1621.5 2638.47c33.88 27 71.88 52.01 114.41 74.33-60.96-18.09-120.12-45.02-173.91-78.89 19.16 1.69 39.02 3.2 59.5 4.56z"/><path d="m2517.23 2480.38c31.59-3.25 62.18-6.86 91.52-10.88 16.93-27.18 29.52-55.13 37.2-83.29 8.82-32.36-14.26-59.53-46.15-55.56-6.18.76-12.34 1.71-18.51 2.56-15.04 50.39-36 99.92-64.06 147.17z"/><path d="m2266.36 2712c60.87-18.3 119.9-45.49 173.56-79.5-18.85 1.23-38.15 2.39-57.85 3.5-34.23 27.59-72.66 53.14-115.71 76z"/></g><g fill="#b5482c"><path d="m3030.65 2774.97c7.06-1.7 10.14-.15 11.54-2.28s-.25-6.43-3.11-8.5c-7.67-5.64-35.31 9.52-29.06 16.38 2.43 3.1 17.25-4.79 20.63-5.6z"/><path d="m3013.63 2648.7c5.49-4.76 8.93-4.8 9.2-7.33.26-2.54-3.2-5.6-6.69-6.12-9.4-1.48-26.96 24.69-18.25 27.91 3.59 1.64 13.11-12.19 15.74-14.46z"/><path d="m3064.42 2522.9c-7.02-1.88-17.33-11-19.58-9.79-2.25 1.2-1.01 11.24.51 14.42 4.05 8.6 41.64 8.75 39.42-.25-.65-3.89-16.99-3.48-20.35-4.38z"/><path d="m3088.62 2764.63c3.71 6.24 3.13 9.63 5.58 10.34 2.45.72 12.47-13.4 13.61-16.73 3.14-8.98-25.89-19.66-30.61-11.67-2.26 3.23 9.65 15.06 11.42 18.06z"/><path d="m3107.12 2682.46c7.24-.62 10.04 1.37 11.75-.52 1.71-1.9.27-10.14-2.24-12.62-6.74-6.72-39.94 6.44-34.79 14.16 1.93 3.43 21.81-.73 25.28-1.02z"/><path d="m3086.78 2628.9c25.14 3.6 71.14-19.84 27.96-24.75-9.45-1.08-34.01-9.19-36.33 14.67-.6 6.21 4.93 9.59 8.37 10.08z"/><path d="m2966.31 2728.14c-13.36 3.21-31.41 12.33-11.92 26.47 7.67 5.64 38.69-23.06 32.45-29.92-2.43-3.1-17.14 2.63-20.53 3.45z"/><path d="m2936.56 2684.09c-4.87-5.38-4.98-8.83-7.53-9.04-2.54-.21-5.53 3.31-5.99 6.8-1.28 9.43 25.27 26.43 28.31 17.67 1.56-3.62-12.46-12.85-14.79-15.43z"/><path d="m2949.68 2587.76c3.58.93 19.15-7.83 18.41-11.75-1.21-6.49-21.28-4.62-23.93 1.22-1.72 3.85 1.47 9.46 5.52 10.53z"/><path d="m3173.56 2665.58c3.58.92 19.16-7.83 18.41-11.76-1.2-6.49-21.27-4.61-23.93 1.22-1.72 3.85 1.47 9.47 5.52 10.54z"/><path d="m3125.53 2547.5c3.58.93 32.03.56 31.28-3.36-1.2-6.49-37.28-20.01-39.93-14.17-1.73 3.85 4.6 16.46 8.65 17.53z"/><path d="m3151.85 2583.25c1.08 3.53 33.63 35.13 36.59 32.45 4.9-4.42-24.12-43.45-30.49-42.66-4.18.55-7.3 6.2-6.1 10.21z"/><path d="m3008.51 2602.51c3.59.85 47.35-11.18 46.53-15.09-1.33-6.47-49.72-1.23-52.26 4.66-1.64 3.88 1.66 9.43 5.73 10.43z"/><path d="m2986.13 2544.58c10.37-6.08 27.59-5.01 26.84-8.93-1.2-6.49-36.69.59-38.08 6.85-2.06 9.27 7.25 4.42 11.24 2.08z"/><path d="m2966.49 2645.09c4.23-10.43 6.14-15.4 3.82-19.25-30.15-28.04-21.43 62.77-3.82 19.25z"/><path d="m3141.71 2749.02c2.47 5.15 4.99-10.27 7.77-16.86 1.73-4.12 12.32-14.46 10.32-17.27-10.7-14.97-22.61 24.73-18.09 34.13z"/><path d="m3026.94 2713.71c3.58.92 19.15-1.88 18.41-5.81-1.21-6.49-18.41-20.83-23.93-4.73-1.73 3.85 1.47 9.47 5.52 10.54z"/><path d="m3055.04 2679c3.57.92 10.12-26.38 9.38-30.3-1.21-6.49-14.77 11.96-17.42 17.8-1.72 3.85 3.99 11.43 8.04 12.5z"/></g></svg>