<svg xmlns="http://www.w3.org/2000/svg" width="4000" height="4000" fill="none" xmlns:v="https://vecta.io/nano"><path d="M2000.4 2770.5c275 0 572-112.5 663.25-379.44 15.25-42.3-22.1-84.98-67.45-78.53-197.53 28.07-396.8 42.15-596.3 42.15s-398.78-14.1-596.3-42.15c-45.32-6.44-82.16 36-67.46 78.53C1428.4 2658 1725.4 2770.5 2000.4 2770.5z" fill="#3d0c0c"/><path d="M2000.4 2752c150.13.26 310.04-37.45 439.5-119.5-268.92 17.5-631.92 23-877.92 1.4 129.2 81.35 287.7 117.83 438.4 118.1z" fill="#fff"/><path d="M2933.03 2794.23C2757.5 2760 2486.5 2687 2350.5 2592.3c-38.5-26.82-38.72-105.6 39.7-112.08 262.3-21.72 478.3-9.22 641.3-.22 85.26 114.8 122.6 350.3-98.47 314.23z" fill="#b34a31"/><path d="M2812.5 2470.25l-6.5-.25c-52 81.38-74.58 184.27-62.5 280 1.77.52 3.5 1 5.5 1.5-12.56-96.24 10.54-199.78 63.5-281.25zm-194-1.25c-47.82 60.92-75.02 139.48-76.5 217 1 .5 3.34 1.4 5 2 1.12-78.36 29.5-157.96 78.5-219h-7zm-148.78 5.77c-31.7 47.6-50.5 97.84-56.72 154.73 1.6.75 3.35 1.74 5 2.5 6.04-57.92 25.2-109.4 58-157.5l-6.28.27z" fill="#933b2a"/><path d="M2617.5 2479c-89.63 10.15-190 20.2-280 26 3-4.5 11.2-11.4 17-14.5 86-5.77 184.8-24.7 271-21.5-.53.66-6.32 7.5-8 10zm-270 67.3c136 94.7 407 167.7 582.52 201.93 118.27 19.3 162.58-39.12 165.16-115.2 14.87 96.4-20.86 184.27-162.16 161.2C2757.5 2760 2486.5 2687 2350.5 2592.3c-20.93-14.57-30.55-44.5-22.38-69.8 4.34 9.56 10.94 17.93 19.38 23.8z" fill-opacity=".2" fill="#000"/><path d="M2938 2798.5c-26.4-4.46-69.27-7.8-72.7-39.9-.75-6.94 6.02-13.3 5.22-20.7-1.86-17.2-24.95-15.65-29.04-31.97-3.55-14.3 15.34-19.8 15.1-38.64-.3-22.7-26.86-29.57-24.8-49.5 1.42-13.86 14.63-14.16 17.83-30.6 3.98-20.46-9.86-28.16-3.93-37.8 7.62-12.44 29.5-9.36 38.33-22.58 6.8-10.2 9.14-15.74 14.86-29.88 16.4-40.5 129.82-14.7 155.15-6.44 13.2 110.54-87.15 206.3-116 308z" fill="#eaeaea"/><path d="M2963 2805c-25.5 0-91.5-4.5-86.96-52.08 3.03-31.8-15.18-35.22-19.28-51.54-3.54-14.3 4.68-13.73 4.43-32.58-.3-22.7-16.75-30.5-14.7-50.44 1.42-13.86 11.98-12.34 15.18-28.77 4-20.46-5.6-28.94.32-38.58 7.62-12.45 23.07-3.15 34.16-14.54 11.4-11.7 12.3-25.07 18.03-39.2 6.16-15.2 17.82-11.6 38.8-15.26 11.46-2 23.37-9.15 35.5-9 17 .2 49.42 1.22 65.47 6.47 13.2 110.54-62.12 223.82-90.97 325.53z" fill="#d6d6d6"/><path d="M2984 2813.5c-37.73-6.37-99.88-10.3-97.5-58.5.95-19.3-14.1-34.3-18.2-50.62-3.54-14.3 6.35-14.24 6.17-27.35-.3-22.7-16.43-31.14-14.38-51.08 1.43-13.86 11.04-13.6 14.24-30.03 4-20.46-1.5-26.1 4.43-35.74 7.62-12.44 33.66-18.8 44.75-30.2 11.4-11.7 4.25-17.63 9.97-31.78 5.47-13.5 23.2-7 38.27-12.44 13.94-5.03 34.78-11.1 50.25-10.77 18 .4 57.62 3.14 69 12 13.2 110.54-78.15 224.8-107 326.5z" fill="#c1c1c1"/><path d="M3206 2717c45-125.5-31-241-150.5-241-15 0-16.77 6.92-29 9.1-15.7 2.77-25.5-6.6-36.5 4.4-12 12-26.1 5.04-38.93 15.13-6.48 5.14-6.68 18.4-15.13 29.9-7.48 10.17-19.5 4.4-23.8 11.55-5.36 8.92 5.17 18.7-3.32 24.85-23.9 17.25-27.53 28.48-19.78 51.72 3 8.98-5.45 17.87-6.96 26.28-1.87 10.53 3.77 18.63 5.9 31.76 2.7 16.85-8.7 20.4-3.22 31.93 3.58 7.58 12.37 15.33 14.07 26.4 1.7 11-4.3 19 0 28.5 34.83 76.78 262.2 75 307.2-50.5z" fill="#181818"/><path d="M2950.56 2808.1c-24.28-4.57-47.15-11.5-68.33-24.3-173.55-37.43-408.27-105.52-531.72-191.5-38.5-26.82-38.72-105.6 39.7-112.08 217.3-18 402.8-12.5 552.73-4.97 9.8-.75 20.46-.55 31.2.26 25.43-7.87 55.25.5 81.37.5 119.5 0 195.5 115.5 150.5 241-34.4 95.94-175.38 119.58-255.44 91.1z" stroke="#333" stroke-width="5"/><path d="M2608.75 2469.5c16.94-27.2 29.52-55.13 37.2-83.3 8.9-32.67-14.7-60.04-47.04-55.45-396.36 55.5-801.44 56.2-1197.8.01-32.4-4.56-55.98 22.77-47.08 55.44 7.67 28.16 20.25 56.1 37.18 83.3 280.78 38.5 848.28 50.5 1217.53 0z" fill="#fff"/><path d="M2517.23 2480.38c31.6-3.25 62.18-6.86 91.52-10.88 16.94-27.18 29.52-55.13 37.2-83.3 8.82-32.36-14.26-59.53-46.15-55.56-6.18.76-12.34 1.7-18.5 2.56-15.04 50.4-36 99.92-64.06 147.17zm-1126-10.88c27.95 3.84 58.74 7.4 91.9 10.68-28.05-47.14-48.95-96.58-63.9-146.88-9.6-1.32-19.54-3.7-29.27-2.84-26.38 2.35-43.74 26.98-35.9 55.75 7.67 28.17 20.25 56.1 37.18 83.3zm875.14 242.5c60.87-18.3 119.9-45.5 173.56-79.5l-57.85 3.5c-34.23 27.6-72.66 53.14-115.7 76zm-644.86-73.53c33.88 27 71.88 52 114.4 74.33-60.96-18.1-120.12-45.02-173.9-78.9l59.5 4.56z" fill-opacity=".1" fill="#000"/><path d="M3030.65 2774.97c7.06-1.7 10.14-.15 11.54-2.28s-.25-6.43-3.1-8.5c-7.67-5.64-35.3 9.52-29.06 16.38 2.43 3.1 17.25-4.8 20.63-5.6zm-17.02-126.27c5.5-4.76 8.93-4.8 9.2-7.33.26-2.54-3.2-5.6-6.7-6.12-9.4-1.48-26.96 24.7-18.25 27.9 3.6 1.64 13.1-12.2 15.74-14.46zm50.8-125.8c-7.02-1.88-17.33-11-19.58-9.8s-1 11.24.5 14.42c4.05 8.6 41.64 8.75 39.42-.25-.65-3.9-17-3.48-20.35-4.38zm24.2 241.73c3.7 6.24 3.13 9.63 5.58 10.34 2.45.72 12.47-13.4 13.6-16.73 3.14-8.98-25.9-19.66-30.6-11.67-2.26 3.23 9.65 15.06 11.42 18.06zm18.5-82.17c7.24-.62 10.04 1.37 11.75-.52 1.7-1.9.27-10.14-2.24-12.62-6.74-6.72-39.94 6.44-34.8 14.16 1.93 3.43 21.8-.73 25.28-1.02zm-20.34-53.56c25.14 3.6 71.14-19.84 27.96-24.75-9.45-1.08-34-9.2-36.33 14.67-.6 6.2 4.93 9.6 8.37 10.08zm-120.48 99.24c-13.36 3.2-31.4 12.33-11.92 26.47 7.67 5.64 38.7-23.06 32.45-29.92-2.43-3.1-17.14 2.63-20.53 3.45zm-29.74-44.04c-4.87-5.38-4.98-8.83-7.53-9.04-2.54-.2-5.53 3.3-6 6.8-1.28 9.43 25.27 26.43 28.3 17.67 1.56-3.62-12.46-12.85-14.8-15.43zm13.12-96.34c3.58.93 19.15-7.83 18.4-11.75-1.2-6.5-21.28-4.62-23.93 1.22-1.72 3.85 1.47 9.46 5.52 10.53zm223.88 77.82c3.58.92 19.16-7.83 18.4-11.76-1.2-6.5-21.27-4.6-23.93 1.22-1.72 3.85 1.47 9.47 5.52 10.54zm-48.03-118.08c3.58.93 32.03.56 31.28-3.36-1.2-6.5-37.28-20-39.93-14.17-1.73 3.85 4.6 16.46 8.65 17.53zm26.32 35.75c1.08 3.53 33.63 35.13 36.6 32.45 4.9-4.42-24.12-43.45-30.5-42.66-4.18.55-7.3 6.2-6.1 10.2zm-143.35 19.25c3.6.85 47.35-11.18 46.53-15.1-1.33-6.47-49.72-1.23-52.26 4.66-1.64 3.88 1.66 9.43 5.73 10.43zm-22.37-57.92c10.37-6.08 27.6-5 26.84-8.93-1.2-6.5-36.7.6-38.08 6.85-2.06 9.27 7.25 4.42 11.24 2.08zm-19.63 100.52c4.23-10.43 6.14-15.4 3.82-19.25-30.15-28.04-21.43 62.77-3.82 19.25zm175.2 103.92c2.47 5.15 5-10.27 7.77-16.86 1.73-4.12 12.32-14.46 10.32-17.27-10.7-14.97-22.6 24.73-18.1 34.13zm-114.76-35.32c3.58.92 19.15-1.88 18.4-5.8-1.2-6.5-18.4-20.83-23.93-4.73-1.73 3.85 1.47 9.47 5.52 10.54zm28.1-34.7c3.57.92 10.12-26.38 9.38-30.3-1.2-6.5-14.77 11.96-17.42 17.8-1.72 3.85 4 11.43 8.04 12.5z" fill="#b5482c"/></svg>