<svg xmlns="http://www.w3.org/2000/svg" width="4000" height="4000" fill="none" xmlns:v="https://vecta.io/nano"><path d="M2596.13 2395.88c1.05 9.15 1.74 18.26 4.06 27.2 2.28 8.8 5.97 16.92 9.64 25.2 2.48 5.63-2.46 12.34-8.68 9.67-23.76-10.7-31.6-44.5-17.5-65.68 3.77-5.4 11.86-2.63 12.47 3.6z" fill="#000" fill-opacity=".15"/><path d="M2552.5 2432.5c-6.5-29-2.24-61.05-1.5-64 2.5-10-14.5-16.5-20-7.5-1.9 3.1-12.5 26.5-10.5 62-62.5 41.5-174.5 50-282 41.5-127.5-5.5-305.5-75-514.5-75-142.5 0-217.5 19-245 24 1-19.5-8-45.5-11.5-51.5-6.35-10.9-22-4-19.5 7.5 3.77 17.35 4.5 40.5-1 65-7.08 31.53-23.93 56.27-26 63.5-3.4 11.88 8.07 15.4 15 13 11.5-4 39.5-49.5 41.5-76.5 44.5-6.5 83.5-19.5 246.5-17 173.48 2.66 351 65 514.5 75.5 178.72 11.48 269-40.5 285.5-49 11 41 33.5 63 38.5 65.5 12 6 23.5-4.5 15.5-14.5-8.64-10.8-19-33.5-25.5-62.5z" fill="#634b37"/><path d="M1415.3 2392.44c14.5 20.94 7.16 54.87-16.4 66-6.18 2.8-11.23-3.85-8.85-9.52 3.54-8.33 7.06-16.55 9.22-25.37 2.15-9 2.7-18.1 3.58-27.28.62-6.2 8.5-9.28 12.42-3.85l.03.02z" fill="#000" fill-opacity=".15"/></svg>