<svg fill="none" height="4000" viewBox="0 0 4000 4000" width="4000" xmlns="http://www.w3.org/2000/svg"><path d="m2593.62 2458.41c17.05 18.87 14.18 53.51-7.75 67.55-4.72 3.02-12.64-1.82-10.18-7.66 7.11-16.88 7.63-36.34 6.07-54.43-.54-6.22 7.24-10.29 11.82-5.42z" fill="#000" fill-opacity=".1"/><path d="m1412.6 2339.52c-21.29 13.92-27.32 48.15-9.67 67.3 3.8 4.12 12.69 1.46 11.79-4.82-2.58-18.13 1.86-37.08 7.97-54.19 2.09-5.87-4.4-11.79-10.06-8.24z" fill="#000" fill-opacity=".1"/><path d="m2535.5 2533.5c-7.43 7.09-17.8-2.47-14-11.5 4-9.5 6.5-20.5 7.5-30-202-26-314.78-43.8-513-62-152.93-14.04-392-31.5-549-45-.99 10.89 1.76 20.73 3.5 31.5 1.39 9.47-11.99 14.15-17 6-16.84-28.14-17.04-68.04 7-90.5 7.67-6.98 17.98-.21 15 8.5-3.28 7.35-6.5 17-7.5 26 151 3 396.16 18.37 551 32 204.5 18 439.5 56 510.58 74.79.34-8.89-2.01-15.47-3.08-24.29-1.15-9.4 9.38-14.63 15-7 14 19 23.5 63-6 91.5z" fill="#634b37"/><path d="m2858.06 2968.22c-230.13-160.52-468.62-343.66-664.12-545.69 62.56 7.9 124.93 17.03 187.18 27.08 231.88 90.39 519.42 196.06 713.88 286.39 51.2 167.66-33.05 331.25-236.94 232.22z" fill="#d6d6d6" stroke="#ccc" stroke-width="8"/><path d="m2263.04 2431.75c39.42 5.54 78.78 11.52 118.08 17.86 12.25 5.59 24.55 11.09 36.88 16.5-47.5-6.61-94-12.61-134-18.11 193.95 160.22 419.51 307.68 633.28 433.49 237.56 93.52 129.64 178.46-59.22 86.73-222.42-155.14-452.65-331.42-644.34-525.46-6.64-6.72-13.23-13.46-19.78-20.23 23.06 2.91 46.09 5.99 69.1 9.22z" fill="#000" fill-opacity=".05"/><path d="m2929.41 3014.74c-23.63-12.57-90.78-37.21-83.91-68.74 1.49-6.82 9.92-10.72 11.5-18 3.67-16.9-18.72-22.73-17.45-39.51 1.16-14.69 20.81-13.93 26.53-31.89 6.89-21.64-16.13-36.54-7.88-54.8 5.73-12.7 18.35-8.81 26.58-23.39 10.25-18.15-.45-29.83 8.22-37.1 11.16-9.4 30.94.44 43.5-9.31 9.69-7.52 14.6-14.89 24.5-26.5 28.36-33.23 128.08 15.65 149.5 31.5-22.4 109.05-121.58 190.37-181.09 277.74z" fill="#eaeaea"/><path d="m2942.91 3023.59c-33.78-17.97-102.02-34.28-85.41-79.59 11-30-3.27-38.22-2-55 1.16-14.69 8.78-11.54 14.5-29.5 6.89-21.64-6.25-34.24 2-52.5 5.73-12.7 15.27-7.92 23.5-22.5 10.25-18.15 3.83-29.23 12.5-36.5 11.16-9.4 22.88 4.31 37-3 14.5-7.5 19.6-19.89 29.5-31.5 10.64-12.47 28.93-9.16 50-6 11.51 1.73 25.04-.97 36.5 3 11.45 3.97 21.82 9.28 31 13.79 9.63 4.74 17.39 9.3 22 12.71-22.4 109.05-111.58 199.21-171.09 286.59z" fill="#d6d6d6"/><path d="m2951 3036c-33.78-17.97-99.49-38.53-82-83.5 7-18-4.77-40.22-3.5-57 1.16-14.69 10.52-11.5 14.5-24 6.89-21.64-5.75-34.74 2.5-53 5.73-12.7 14.77-9.42 23-24 10.25-18.15 6.83-25.23 15.5-32.5 11.16-9.4 37.88-7.2 52-14.5 14.5-7.5 9.6-15.39 19.5-27 9.45-11.07 25.47-3.11 41.5-3.5 14.82-.37 34.93-3.71 49.5 1.5 16.96 6.07 49 24.5 57 36.5-22.4 109.05-129.99 193.62-189.5 281z" fill="#c1c1c1"/><path d="m3208.5 2992c8.2-13.24 5.45-26.61 9.05-39.5 2.3-8.11 6.34-15.5 8.35-25.5 3.46-17.18 1-30.37-4.39-52.31-5.38-21.78-3-32.19-14.01-54.19-7.76-15.5-24.3-26.5-35-46-11.79-21.47-32.5-33.5-56-40-13-3.6-16.71 4.29-29 2.5-15.78-2.33-14.19-13.41-26.14-11.59-7.87 1.23-11.85 6.08-22.39 6.59-11.1.53-20.13-4.05-31.81.15-7.77 2.83-12.16 15.35-23.8 23.57-10.32 7.29-19.9-2-26.24 3.44-7.91 6.76-1.01 19.39-11 22.52-28.12 8.82-35.12 18.32-35.12 42.82 0 9.47-10.82 15.23-14.91 22.73-5.1 9.4-2.31 18.87-4.45 32-2.75 16.84-14.71 16.61-13.14 29.27 1 8.33 4.76 18.3 5 29.5.25 11.77-4.01 37.61 0 50 9.97 30.86 44.21 39.89 69.62 56 19.29 12.23 40.99 30.25 64.38 30.25 24 0 41.5-3.6 59.38-4.93 23.31-1.73 31.08 2.69 57.62-5.82 17.66-5.66 26.51-28.62 40.72-41.5 9.53-8.5 24.37-15.47 33.28-30z" fill="#a3d3a4" stroke="#d6d6d6" stroke-width="8"/><path d="m3114.56 2734.03c23.34 4.77 46.36 19.38 57.94 40.47 10.7 19.5 27.24 30.5 35 46 11.01 22 8.63 32.41 14.01 54.19 5.39 21.94 7.85 35.13 4.39 52.31-2.75 13.67-9.25 25.81-10.61 39.92-.8 8.31-1.62 16.72-6.79 25.08-6.14 10.01-15.09 16.43-23.18 22.23-18.33 13.15-29.03 42.29-50.82 49.27-26.54 8.51-34.31 4.09-57.62 5.82-17.88 1.33-35.38 4.93-59.38 4.93-23.39 0-45.09-18.02-64.38-30.25-19.31-12.24-43.72-20.4-58.7-37.15-16.03-10.49-38.2-28.14-46.88-45.98-226.86-158.75-461.07-339.39-653.6-538.34 62.56 7.9 124.93 17.03 187.18 27.08 207.45 80.87 416.7 157.04 621.29 245.11 16.9 1.76 36 7.53 53.58 14.46 20.22 3.88 41.17 14.22 58.57 24.85z" stroke="#8c8c8c" stroke-width="9"/><g fill="#649167"><path d="m3030.65 3031.97c7.06-1.7 10.14-.15 11.54-2.28 1.41-2.13-.25-6.43-3.11-8.5-7.67-5.64-35.31 9.52-29.06 16.38 2.43 3.1 17.25-4.79 20.63-5.6z"/><path d="m3013.63 2905.7c5.49-4.76 8.93-4.8 9.2-7.33.26-2.54-3.2-5.6-6.69-6.12-9.4-1.48-26.95 24.69-18.25 27.91 3.59 1.64 13.11-12.19 15.74-14.46z"/><path d="m3064.42 2779.9c-7.02-1.88-17.33-11-19.58-9.79-2.25 1.2-1.01 11.24.51 14.42 4.05 8.6 41.64 8.75 39.42-.25-.65-3.89-16.99-3.48-20.35-4.38z"/><path d="m3088.62 3021.63c3.71 6.24 3.13 9.63 5.58 10.34 2.45.72 12.47-13.4 13.62-16.73 3.13-8.98-25.9-19.66-30.62-11.67-2.26 3.23 9.65 15.06 11.42 18.06z"/><path d="m3107.12 2939.46c7.24-.62 10.04 1.37 11.75-.52 1.71-1.9.27-10.14-2.24-12.62-6.74-6.72-39.94 6.44-34.79 14.16 1.93 3.43 21.81-.73 25.28-1.02z"/><path d="m3086.78 2885.9c25.14 3.6 71.14-19.84 27.97-24.75-9.46-1.08-34.02-9.19-36.34 14.67-.6 6.21 4.93 9.59 8.37 10.08z"/><path d="m2966.31 2985.14c-13.36 3.21-31.41 12.33-11.91 26.47 7.66 5.64 38.68-23.06 32.44-29.92-2.43-3.1-17.14 2.63-20.53 3.45z"/><path d="m2930.56 2941.09c-4.87-5.38-4.98-8.83-7.53-9.04-2.54-.21-5.53 3.31-5.99 6.8-1.28 9.43 25.27 26.43 28.31 17.67 1.57-3.62-12.46-12.85-14.79-15.43z"/><path d="m2945.68 2844.76c3.58.93 19.15-7.83 18.41-11.75-1.21-6.49-21.28-4.62-23.93 1.22-1.72 3.85 1.47 9.46 5.52 10.53z"/><path d="m3173.56 2922.58c3.58.92 19.16-7.83 18.41-11.76-1.2-6.49-21.27-4.61-23.93 1.22-1.72 3.85 1.47 9.47 5.52 10.54z"/><path d="m3125.53 2804.5c3.58.93 32.03.56 31.28-3.36-1.2-6.49-37.28-20.01-39.93-14.17-1.73 3.85 4.6 16.46 8.65 17.53z"/><path d="m3151.85 2840.25c1.08 3.53 33.63 35.13 36.59 32.45 4.9-4.42-24.12-43.45-30.49-42.66-4.18.55-7.3 6.2-6.1 10.21z"/><path d="m3008.51 2859.51c3.59.85 47.35-11.18 46.53-15.09-1.33-6.47-49.72-1.23-52.26 4.66-1.64 3.88 1.66 9.43 5.73 10.43z"/><path d="m2986.13 2801.58c10.37-6.08 27.59-5.01 26.84-8.93-1.2-6.49-36.69.59-38.08 6.85-2.06 9.27 7.25 4.42 11.24 2.08z"/><path d="m2966.49 2902.09c4.23-10.43 6.14-15.4 3.82-19.25-30.15-28.04-21.43 62.77-3.82 19.25z"/><path d="m3141.71 3006.02c2.47 5.15 5-10.27 7.77-16.86 1.73-4.12 12.32-14.46 10.32-17.27-10.7-14.97-22.61 24.73-18.09 34.13z"/><path d="m3026.94 2970.71c3.58.92 19.15-1.88 18.41-5.81-1.21-6.49-18.41-20.83-23.93-4.73-1.72 3.85 1.47 9.47 5.52 10.54z"/><path d="m3055.04 2936c3.57.92 10.12-26.38 9.38-30.3-1.21-6.49-14.77 11.96-17.42 17.8-1.72 3.85 3.99 11.43 8.04 12.5z"/></g></svg>