<svg fill="none" height="4000" viewBox="0 0 4000 4000" width="4000" xmlns="http://www.w3.org/2000/svg"><path d="m2588.29 2324.51c20.82 14.6 25.74 49.01 7.48 67.58-3.93 4-12.73 1.04-11.63-5.2 3.17-18.04-.65-37.13-6.2-54.42-1.91-5.94 4.77-11.64 10.32-7.91z" fill="#000" fill-opacity=".1"/><path d="m1404.97 2465.51c-17.65 18.31-15.91 53.03 5.55 67.77 4.62 3.17 12.7-1.41 10.43-7.33-6.56-17.1-6.45-36.57-4.3-54.6.74-6.19-6.91-10.52-11.64-5.8z" fill="#000" fill-opacity=".1"/><path d="m2538.22 2317.78c22.69 23.9 25.4 64.16 6.86 91.24-5.66 8.57-18.32 2.1-16.17-7.46 2.17-9.74 3.62-19.74 3.56-29.74-197.17 30.25-395.09 55.62-593.28 78.09-152.66 16.72-323.07 36.59-467.09 47.13 1.45 10.84 4.71 21.38 8.81 31.49 3.46 8.92-8.2 16.44-14.9 9.61-22.68-23.69-26.45-63.89-8.01-91.14 5.92-8.52 17.26-1.91 16.3 7.24-1.57 7.9-2.71 15.92-3.06 23.97 152.31-26.13 310.03-43.7 464.42-61.73 198.32-21.6 396.68-41.82 594.96-63.79-1.65-8.75-4.41-17.14-7.41-25.5-3.22-8.91 8.38-16.18 15-9.41z" fill="#634b37"/></svg>