<svg xmlns="http://www.w3.org/2000/svg" width="4000" height="4000" fill="none" xmlns:v="https://vecta.io/nano"><path d="M2588.3 2324.5c20.82 14.6 25.74 49 7.48 67.58-3.93 4-12.73 1.04-11.63-5.2 3.17-18.04-.65-37.13-6.2-54.42-1.9-5.94 4.77-11.64 10.32-7.9l.03-.05zm-1183.33 141c-17.65 18.3-15.9 53.03 5.55 67.77 4.62 3.17 12.7-1.4 10.43-7.33-6.56-17.1-6.45-36.57-4.3-54.6.74-6.2-6.9-10.52-11.64-5.8l-.04-.04z" fill-opacity=".15" fill="#000"/><path d="M2538.22 2317.78c22.7 23.9 25.4 64.16 6.86 91.24-5.66 8.57-18.32 2.1-16.17-7.46 2.17-9.74 3.62-19.74 3.56-29.74-197.17 30.25-395.1 55.62-593.28 78.1l-467.1 47.13c1.45 10.84 4.7 21.38 8.8 31.5 3.46 8.92-8.2 16.44-14.9 9.6-22.68-23.7-26.45-63.9-8-91.14 5.92-8.52 17.26-1.9 16.3 7.24-1.57 7.9-2.7 15.92-3.06 23.97 152.3-26.13 310.03-43.7 464.42-61.73l594.96-63.8c-1.65-8.75-4.4-17.14-7.4-25.5-3.22-8.9 8.38-16.18 15-9.4h.01z" fill="#634b37"/></svg>