<svg xmlns="http://www.w3.org/2000/svg" width="4000" height="4000" fill="none" xmlns:v="https://vecta.io/nano"><path d="M2593.62 2458.4c17.05 18.87 14.18 53.5-7.75 67.55-4.72 3.02-12.64-1.82-10.18-7.66 7.1-16.88 7.63-36.34 6.07-54.43-.54-6.22 7.24-10.3 11.82-5.42l.04-.04zM1412.6 2339.52c-21.3 13.92-27.32 48.15-9.67 67.3 3.8 4.12 12.7 1.46 11.8-4.82-2.58-18.13 1.86-37.08 7.97-54.2 2.1-5.87-4.4-11.8-10.06-8.24l-.03-.05z" fill-opacity=".15" fill="#000"/><path d="M2535.5 2533.5c-7.43 7.1-17.8-2.47-14-11.5 4-9.5 6.5-20.5 7.5-30-202-26-314.78-43.8-513-62l-549-45c-1 10.9 1.76 20.73 3.5 31.5 1.4 9.47-12 14.15-17 6-16.84-28.14-17.04-68.04 7-90.5 7.67-6.98 17.98-.2 15 8.5-3.28 7.35-6.5 17-7.5 26 151 3 396.16 18.37 551 32 204.5 18 442 55 510.58 74.8.34-8.9-2-15.47-3.08-24.3-1.15-9.4 9.38-14.63 15-7 14 19 23.5 63-6 91.5z" fill="#634b37"/><path d="M2780.2 2876.53l-.18-.12c-181.5-123-340.3-300.88-503.77-447.9l87.2 13.18 452 387.05c34.2 21.03-3.38 68.17-35.26 47.78z" fill="#42240d"/><g fill="#000"><path d="M2389 2463.62l-85.5-10.7-27.28-24.4 87.2 13.18 25.6 21.92z" fill-opacity=".3"/><path d="M2780.18 2876.53l-.18-.12c-181.5-123-340.3-300.88-503.77-447.9l23.83 3.44C2456 2578 2647.5 2758 2804 2868c15.92 10.62-16.8 13.02-23.82 8.53z" fill-opacity=".2"/></g><path d="M3028.22 2806.18c4.22 123.23-70 225.8-165.77 229.06s-176.84-93.94-181.07-217.16c-1.5-43.55 6.8-84.5 22.4-119.42 17-38.44 85.9-9.14 147.82-11.26 63.43-2.17 133.94-17.7 150.95 10.86 15.9 33.76 24.38 70.65 25.66 107.92z" fill="#542d10"/><path d="M3004.68 2702.85c-39.27 23.38-86.35 37.76-137.3 39.5-61.3 2.1-118.24-14.4-163.58-43.7 17-38.44 87.06-16 149-16.52 32.16-.28 139.2-18.14 151.9 20.7z" fill="#6b3917"/><path d="M2862.45 3035.25c-95.78 3.3-176.84-93.94-181.07-217.17-.4-11.64-.1-23.3.9-34.9 10 116 88.33 205.22 180.16 202.07 86.57-3 155.5-87 164.86-194.14.43 4.98.73 10 .9 15.08 4.22 123.22-70 225.8-165.77 229.06z" fill="#000" fill-opacity=".2"/></svg>