<svg fill="none" height="4000" viewBox="0 0 4000 4000" width="4000" xmlns="http://www.w3.org/2000/svg"><path d="m2593.62 2458.41c17.05 18.87 14.18 53.51-7.75 67.55-4.72 3.02-12.64-1.82-10.18-7.66 7.11-16.88 7.63-36.34 6.07-54.43-.54-6.22 7.24-10.29 11.82-5.42z" fill="#000" fill-opacity=".1"/><path d="m1412.6 2339.52c-21.29 13.92-27.32 48.15-9.67 67.3 3.8 4.12 12.69 1.46 11.79-4.82-2.58-18.13 1.86-37.08 7.97-54.19 2.09-5.87-4.4-11.79-10.06-8.24z" fill="#000" fill-opacity=".1"/><path d="m2535.5 2533.5c-7.43 7.09-17.8-2.47-14-11.5 4-9.5 6.5-20.5 7.5-30-202-26-314.78-43.8-513-62-152.93-14.04-392-31.5-549-45-.99 10.89 1.76 20.73 3.5 31.5 1.39 9.47-11.99 14.15-17 6-16.84-28.14-17.04-68.04 7-90.5 7.67-6.98 17.98-.21 15 8.5-3.28 7.35-6.5 17-7.5 26 151 3 396.16 18.37 551 32 204.5 18 442 55 510.58 74.79.34-8.89-2.01-15.47-3.08-24.29-1.15-9.4 9.38-14.63 15-7 14 19 23.5 63-6 91.5z" fill="#634b37"/><path d="m2780.2 2876.53-.18-.12c-181.5-123-340.31-300.88-503.77-447.89 29.1 4.16 58.16 8.59 87.2 13.18l452.01 387.05c34.2 21.03-3.38 68.17-35.26 47.78z" fill="#42240d"/><path d="m2389 2463.62c-3-.42-81.53-10.18-85.51-10.69-18-16-19.53-17.44-27.28-24.41 29.1 4.16 58.16 8.59 87.2 13.18z" fill="#000" fill-opacity=".3"/><path d="m2780.18 2876.53-.18-.12c-181.5-123-340.31-300.88-503.77-447.89 7.95 1.14 15.89 2.25 23.83 3.44 155.94 146.04 347.44 326.04 503.94 436.04 15.92 10.62-16.8 13.02-23.82 8.53z" fill="#000" fill-opacity=".2"/><path d="m3028.22 2806.18c4.22 123.23-70 225.79-165.77 229.06s-176.84-93.94-181.07-217.16c-1.49-43.55 6.81-84.51 22.41-119.42 17-38.44 85.89-9.14 147.82-11.26 63.43-2.17 133.94-17.69 150.95 10.86 15.89 33.76 24.38 70.65 25.66 107.92z" fill="#542d10"/><path d="m3004.68 2702.85c-39.27 23.38-86.35 37.76-137.31 39.5-61.3 2.11-118.24-14.4-163.58-43.69 17-38.44 87.06-16 149-16.52 32.16-.28 139.21-18.14 151.89 20.71z" fill="#6b3917"/><path d="m2862.45 3035.25c-95.78 3.29-176.84-93.94-181.07-217.17-.41-11.64-.1-23.3.91-34.9 10 116 88.33 205.22 180.16 202.07 86.57-3 155.51-87 164.86-194.14.43 4.98.73 10.01.91 15.08 4.22 123.22-69.99 225.81-165.77 229.06z" fill="#000" fill-opacity=".2"/></svg>