<svg xmlns="http://www.w3.org/2000/svg" width="4000" height="4000" fill="none" xmlns:v="https://vecta.io/nano"><path d="M2553.44 2324.73c25.17 3.95 44.7 32.65 36.52 57.37-2.03 5.72-11.2 6.33-12.73.46-4.44-17.08-15.7-33.52-29.9-46.56-4.54-4.17-.01-12.1 6.1-11.26v-.01zm-1106.88 0c-25.17 3.95-44.7 32.65-36.52 57.37 2.03 5.72 11.2 6.33 12.73.46 4.44-17.08 15.7-33.52 29.9-46.56 4.55-4.17.01-12.1-6.1-11.26v-.01z" fill-opacity=".15" fill="#000"/><path d="M2518.6 2374.5c-78.5 47.5-280.5 140-518.5 139s-440-91.5-518.7-139c7.2-8.5 15.5-14 22.5-18.5 7.15-4.6 3-17-7-16.5s-31.8 9-44.5 30-9.5 41-7 50.5 19.5 12 20.5 0c.37-4.5 1.5-24 6-28.5 23.7 13.5 228.2 154 528.2 154s504.5-140.5 528-154c4.5 4.5 5.63 24 6 28.5 1 12 18 9.5 20.5 0s5.7-29.5-7-50.5-34.5-29.5-44.5-30-14.15 11.9-7 16.5c7 4.5 14.5 8 22.5 18.5z" fill="#634b37"/><path d="M2253.86 2481c-75.94 19.42-162.18 32.87-253.76 32.5-91.02-.38-176.77-13.85-252.38-33 30.85 127.4 161.14 262.93 252.28 262.93 93.5 0 226.2-108.3 253.86-262.42z" fill="#e15f6b"/><g fill="#000"><path d="M2005.6 2513.5c7.13 42.73 4.7 94.77-2.47 129.8-.66 3.24 1.43 6.4 4.68 7.08 3.24.66 6.4-1.43 7.08-4.68 7.28-35.58 9.9-88.13 2.85-132.3l-12.14.1z" fill-opacity=".2"/><path d="M2000.1 2513.5c91.58.38 177.82-13.07 253.76-32.5-.96 5.33-2.04 10.6-3.24 15.83-75.15 18.97-160.24 32.04-250.52 31.66-89.25-.38-173.44-13.34-247.97-31.9a287.95 287.95 0 0 1-4.41-16.1c75.6 19.15 161.36 32.62 252.38 33z" fill-opacity=".05"/><path d="M1761.9 2484c42.47 116.56 154.92 229.44 238.1 229.44 86.7 0 203.65-93.1 242.26-229.52l11.6-2.9c-27.67 154.12-160.36 262.42-253.86 262.42-91.14 0-221.43-135.53-252.28-262.93l14.2 3.5z" fill-opacity=".2"/></g></svg>