<svg width="4000" height="4000" viewBox="0 0 4000 4000" fill="none" xmlns="http://www.w3.org/2000/svg"><path d="M2000 2771c275 0 572-113 664-380 15-42-22-85-68-78a4238 4238 0 01-1192 0c-46-7-83 36-68 78 92 267 389 380 664 380z" fill="#3D0C0C"/><path d="M2578 2512c33-40 56-83 68-126 9-32-15-60-47-55-396 55-802 56-1198 0-32-5-56 23-47 55 12 43 35 86 68 126 383 53 773 53 1156 0z" fill="#fff"/><path d="M2000 2752c199 0 415-66 554-213-367 48-741 48-1108 0 140 148 354 213 554 213z" fill="#fff"/><path d="M2266 2712c108-32 210-91 288-173l-83 10a693 693 0 01-205 163zM2646 2386c-12 43-35 86-68 126l-89 11c43-59 73-124 92-190l18-2c32-5 56 23 47 55zM1446 2539c78 83 182 142 290 174a686 686 0 01-207-164l-83-10zM1422 2512l89 11c-42-59-72-124-92-190l-18-2c-32-5-56 23-47 55 12 43 35 86 68 126z" fill="#000" fill-opacity=".1"/></svg>