<svg fill="none" height="4000" viewBox="0 0 4000 4000" width="4000" xmlns="http://www.w3.org/2000/svg"><path d="m2553.44 2324.73c25.17 3.95 44.7 32.65 36.52 57.37-2.03 5.72-11.21 6.33-12.73.46-4.44-17.08-15.69-33.52-29.9-46.56-4.54-4.17-.01-12.1 6.11-11.26z" fill="#000" fill-opacity=".1"/><path d="m1446.56 2324.73c-25.17 3.95-44.71 32.65-36.52 57.37 2.03 5.72 11.21 6.33 12.73.46 4.44-17.08 15.69-33.52 29.89-46.56 4.55-4.17.01-12.1-6.1-11.26z" fill="#000" fill-opacity=".1"/><path d="m2518.6 2374.5c-78.5 47.5-280.5 140-518.5 139s-440-91.5-518.71-139c7.21-8.5 15.5-14 22.5-18.5 7.15-4.6 3-17-7-16.5s-31.81 9-44.5 30-9.5 41-7 50.5 19.5 12 20.5 0c.37-4.49 1.5-24 6-28.5 23.71 13.5 228.21 154 528.21 154s504.5-140.5 528-154c4.5 4.5 5.63 24.01 6 28.5 1 12 18 9.5 20.5 0s5.69-29.5-7-50.5-34.5-29.5-44.5-30-14.15 11.9-7 16.5c7 4.5 14.5 8 22.5 18.5z" fill="#634b37"/><path d="m2253.86 2481.01c-75.94 19.42-162.18 32.87-253.76 32.49-91.02-.38-176.77-13.85-252.38-33 30.85 127.4 161.14 262.93 252.28 262.93 93.5 0 226.19-108.3 253.86-262.42z" fill="#e15f6b"/><g fill="#000"><path d="m2005.59 2513.51c7.13 42.73 4.7 94.77-2.47 129.79-.66 3.24 1.43 6.41 4.68 7.08 3.24.66 6.41-1.43 7.08-4.68 7.28-35.58 9.91-88.13 2.85-132.3-4.04.06-8.08.1-12.14.11z" fill-opacity=".2"/><path d="m2000.1 2513.5c91.58.38 177.82-13.07 253.76-32.49-.96 5.33-2.04 10.61-3.24 15.83-75.15 18.97-160.24 32.04-250.52 31.66-89.25-.38-173.44-13.34-247.97-31.9-1.64-5.37-3.11-10.75-4.41-16.1 75.61 19.15 161.36 32.62 252.38 33z" fill-opacity=".05"/><path d="m1761.91 2483.99c42.47 116.56 154.92 229.44 238.09 229.44 86.69 0 203.65-93.11 242.26-229.52 3.89-.95 7.76-1.91 11.6-2.9-27.67 154.12-160.36 262.42-253.86 262.42-91.14 0-221.43-135.53-252.28-262.93 4.7 1.18 9.42 2.35 14.19 3.49z" fill-opacity=".2"/></g></svg>