<svg fill="none" height="4000" viewBox="0 0 4000 4000" width="4000" xmlns="http://www.w3.org/2000/svg"><path d="m2000.41 2770.5c275 0 572-112.5 663.25-379.44 15.25-42.3-22.09-84.98-67.45-78.53-197.53 28.07-396.79 42.15-596.3 42.15s-398.78-14.09-596.31-42.15c-45.32-6.44-82.16 36.01-67.46 78.53 92.27 266.94 389.27 379.44 664.27 379.44z" fill="#3d0c0c"/><path d="m2578.21 2512.04c32.74-40.14 55.99-82.74 67.74-125.83 8.9-32.67-14.69-60.04-47.04-55.45-396.36 55.5-801.44 56.2-1197.79.01-32.4-4.56-55.98 22.77-47.08 55.44 11.74 43.1 34.97 85.69 67.74 125.83 383.09 52.47 773.36 52.94 1156.43 0z" fill="#fff"/><path d="m2000.41 2752c198.55.34 414.2-65.72 553.93-212.94-367.46 48.34-741.25 48.29-1108.71.03 140.78 148.35 354.63 212.57 554.78 212.91z" fill="#fff"/><g fill="#000" fill-opacity=".1"><path d="m2645.95 2386.22c-11.75 43.08-35 85.68-67.74 125.82-29.59 4.09-59.24 7.83-88.92 11.23 42.55-59.77 72.34-124.18 92-190.06l17.54-2.44c32.43-4.6 56.02 22.77 47.12 55.45z"/><path d="m1421.75 2512.04c29.82 4.05 59.68 7.82 89.57 11.31-42.71-59.71-72.52-124.15-92.11-190.05-6.04-.83-12.08-1.67-18.12-2.53-32.4-4.55-55.98 22.77-47.08 55.45 11.74 43.09 34.97 85.68 67.74 125.82z"/><path d="m1445.61 2539.05c78.35 82.56 182.38 141.73 290.3 173.75-86.43-45.37-154.18-101.8-206.61-163.61-27.93-3.04-55.83-6.48-83.69-10.14z"/><path d="m2266.36 2712c107.21-32.23 209.97-90.74 287.98-172.94-27.6 3.63-55.24 7.05-82.92 10.07-52.28 61.44-119.58 117.48-205.06 162.87z"/></g></svg>