<svg fill="none" height="4000" viewBox="0 0 4000 4000" width="4000" xmlns="http://www.w3.org/2000/svg"><path d="m2553.44 2324.73c25.17 3.95 44.7 32.65 36.52 57.37-2.03 5.72-11.21 6.33-12.73.46-4.44-17.08-15.69-33.52-29.9-46.56-4.54-4.17-.01-12.1 6.11-11.26z" fill="#000" fill-opacity=".1"/><path d="m1446.56 2324.73c-25.17 3.95-44.71 32.65-36.52 57.37 2.03 5.72 11.21 6.33 12.73.46 4.44-17.08 15.69-33.52 29.89-46.56 4.55-4.17.01-12.1-6.1-11.26z" fill="#000" fill-opacity=".1"/><path d="m2518.6 2374.5c-78.5 47.5-280.5 140-518.5 139s-440-91.5-518.71-139c7.21-8.5 15.5-14 22.5-18.5 7.15-4.6 3-17-7-16.5s-31.81 9-44.5 30-9.5 41-7 50.5 19.5 12 20.5 0c.37-4.49 1.5-24 6-28.5 23.71 13.5 228.21 154 528.21 154s504.5-140.5 528-154c4.5 4.5 5.63 24.01 6 28.5 1 12 18 9.5 20.5 0s5.69-29.5-7-50.5-34.5-29.5-44.5-30-14.15 11.9-7 16.5c7 4.5 14.5 8 22.5 18.5z" fill="#634b37"/></svg>