<svg xmlns="http://www.w3.org/2000/svg" width="4000" height="4000" fill="none" xmlns:v="https://vecta.io/nano"><path d="M1587 3147c36.5 0 65.66-32.58 62.04-68.42-5.42-63.52 18.62-132.2 65.95-198.4 43.06-60.25 89.2-93.26 53.7-132.2-35.5-38.94-115.56 3.92-155.4 59.5-65.7 91.92-97.2 189.1-88.63 283.68 3.2 31.47 25.83 55.82 62.33 55.82z" fill="#7f6145" stroke="#333" stroke-width="5" stroke-miterlimit="10"/><path d="M1570.65 3145.22c-62.15-107.22 43.67-345.2 176.18-410.4-40-10.6-100.55 26.68-133.53 72.7-65.7 91.92-97.2 189.1-88.63 283.68 2.68 26.46 19.12 47.9 45.98 54.04z" fill="#000" fill-opacity=".14"/><path d="M2413 3147c-36.5 0-65.66-32.58-62.04-68.42 5.42-63.52-18.62-132.2-65.95-198.4-43.06-60.25-89.2-93.26-53.7-132.2 35.5-38.94 115.56 3.92 155.4 59.5 65.7 91.92 97.2 189.1 88.63 283.68-3.2 31.47-25.83 55.82-62.33 55.82z" fill="#7f6145" stroke="#333" stroke-width="5" stroke-miterlimit="10"/><path d="M2429.35 3145.22c62.15-107.22-43.67-345.2-176.18-410.4 40-10.6 100.55 26.68 133.53 72.7 65.7 91.92 97.2 189.1 88.63 283.68-2.7 26.46-19.12 47.9-45.98 54.04z" fill="#000" fill-opacity=".14"/></svg>