<svg fill="none" height="4000" viewBox="0 0 4000 4000" width="4000" xmlns="http://www.w3.org/2000/svg"><path d="m1587 3147c36.5 0 65.66-32.58 62.04-68.42-5.42-63.52 18.62-132.19 65.95-198.39 43.06-60.25 89.21-93.26 53.71-132.19-35.5-38.94-115.56 3.92-155.4 59.5-65.71 91.92-97.19 189.11-88.63 283.68 3.19 31.47 25.83 55.82 62.33 55.82z" fill="#7f6145" stroke="#333" stroke-miterlimit="10" stroke-width="5"/><path d="m1570.65 3145.22c-62.15-107.22 43.67-345.19 176.18-410.41-40.01-10.61-100.55 26.68-133.53 72.69-65.71 91.92-97.19 189.11-88.63 283.68 2.68 26.46 19.12 47.89 45.98 54.04z" fill="#000" fill-opacity=".14"/><path d="m2413 3147c-36.5 0-65.66-32.58-62.04-68.42 5.42-63.52-18.62-132.19-65.95-198.39-43.06-60.25-89.21-93.26-53.71-132.19 35.5-38.94 115.56 3.92 155.4 59.5 65.71 91.92 97.19 189.11 88.63 283.68-3.19 31.47-25.83 55.82-62.33 55.82z" fill="#7f6145" stroke="#333" stroke-miterlimit="10" stroke-width="5"/><path d="m2429.35 3145.22c62.15-107.22-43.67-345.19-176.18-410.41 40.01-10.61 100.55 26.68 133.53 72.69 65.71 91.92 97.19 189.11 88.63 283.68-2.69 26.46-19.12 47.89-45.98 54.04z" fill="#000" fill-opacity=".14"/></svg>