<svg xmlns="http://www.w3.org/2000/svg" width="4000" height="4000" fill="none" xmlns:v="https://vecta.io/nano"><style><![CDATA[.B{stroke:#333}.C{stroke-width:5}.D{stroke-miterlimit:10}]]></style><path d="M1759.66 1403.06c154.9 18 266.48 208.75 250 376.77-16.38 167.34-162.7 342-329.88 323-151.8-17.3-250.26-186.22-253.5-328.16-4.3-190.16 160.84-391.67 333.38-371.6z" fill="#fff"/><path d="M1947.73 1825.22c22.1-113.95-39.5-221.76-137.6-240.8-98.1-19.04-195.55 57.9-217.66 171.87-22.1 113.95 39.5 221.76 137.6 240.8 98.1 19.04 195.55-57.9 217.66-171.87z" fill="#313cc4" class="B C D"/><path d="M1781.2 1941.56c58.5 0 105.94-53.04 105.94-118.46s-47.43-118.46-105.94-118.46-105.94 53.04-105.94 118.46 47.43 118.46 105.94 118.46z" fill="#000"/><path d="M1874.9 1740.3c7.45-21.05-4.4-44.45-26.5-52.27-22.08-7.82-46.02 2.9-53.47 23.96s4.4 44.45 26.5 52.27c22.08 7.8 46.02-2.9 53.47-23.96z" fill="#fff" class="B C D"/><g fill="#000"><path d="M1835.9 1427c-204.38-55.9-374.47 186.25-370.3 368 2.47 107.25 59.36 229.8 152.7 291.65-116.4-48.78-189.2-190.33-192-312-4.33-190.1 160.82-391.6 333.36-371.55 26.68 3.2 52.53 11.3 76.25 23.9z" fill-opacity=".05"/><path d="M1863.55 1605.84c-112.85-32.06-212.75 65.3-233.15 170.44-16.75 86.35 14.07 169.22 72.35 213.35-81.88-32-130.23-129.93-110.25-232.9 22.12-114 119.58-190.9 217.68-171.85 18.92 3.68 37 10.78 53.37 20.95z" fill-opacity=".13"/></g><path d="M2234 1398.9c-154.54 20.68-262.8 213.36-243.4 381.08 19.3 167 168.63 339.1 335.47 317.13 151.47-19.94 247-190.55 247.73-332.52.98-190.16-167.66-388.73-339.8-365.7z" fill="#fff"/><path d="M2273.74 1992.7c97.75-20.74 157.47-129.6 133.37-243.16-24.1-113.55-122.87-188.8-220.63-168.05-97.75 20.75-157.46 129.6-133.37 243.16 24.1 113.56 122.87 188.8 220.63 168.05z" fill="#313cc4" class="B C D"/><path d="M2221.84 1937.7c58.5-1.03 105-54.88 103.86-120.3-1.15-65.4-49.5-117.6-108-116.6-58.5 1.02-105 54.88-103.86 120.3 1.14 65.42 49.5 117.62 108 116.6z" fill="#000"/><path d="M2288.34 1764.4c21.95-8.2 33.4-31.8 25.58-52.72-7.8-20.92-31.94-31.23-53.88-23.03-21.95 8.2-33.4 31.8-25.6 52.73 7.82 20.9 31.94 31.22 53.9 23.02z" fill="#fff" class="B C D"/><g fill="#000"><path d="M2573.77 1764.6c-.66 123.27-72.75 268.13-190.88 317.2 95.3-61.62 152.08-188.08 152.66-297.55.96-183.58-181.1-431.24-385.95-355.18 26-15.6 54.3-26.14 84.37-30.17 172.17-23.04 340.8 175.53 339.8 365.7z" fill-opacity=".05"/><path d="M2295.1 1986.4c60.86-43.65 92.6-129.07 73.87-217.3-22.4-105.54-126.48-201.4-238.74-163.7 17.03-11.63 36.17-19.82 56.34-24.1 97.76-20.75 196.54 54.48 220.65 168 22.3 105.1-27.16 206.17-112.12 237.1z" fill-opacity=".13"/></g></svg>