<svg fill="none" height="4000" viewBox="0 0 4000 4000" width="4000" xmlns="http://www.w3.org/2000/svg"><path d="m2395 2818c-115.35 45.22-271 79-395 79s-259.34-26.43-395-79c-7.24 10.54-16.61 26.27-23 37 142 57 275 86 418 86s276-29 418-86c-6.15-10.7-15.93-26.36-23-37z" fill="#000" fill-opacity=".15"/><path d="m2500.32 839c42.32-35.85-124.32-76-146.52-139.49-26.8-76.51 395.59 127.1 331.57 261.08-5 10.51-55.43 94-417.61-23.77 398.16 129.18 699.66 403.12 698.24 910.18-1.09 388.75-350.07 990.81-966.43 996.18-594.62 5.19-966.64-596.22-965.57-996.18 1.32-488.44 432.13-990.94 966-1028.5 319.41-22.45 465.29 50.1 500.32 20.5z" fill="#7f6145" stroke="#333" stroke-linecap="round" stroke-linejoin="round" stroke-width="5"/><path d="m2565.16 861.34c-29.66 65.16-211.81-40-531.22-17.54-653.46 45.937-1126.939 771.2-864.58 1359.08 68.14-70.38 151.14-90.38 177.59-99.16 7.94 8.57 17.6 17.67 21.05 21.78-81.37 25.35-175.93 80.41-216.63 156.84-76.27-147.6-117-302.56-116.59-435.33 1.32-488.45 432.22-991 966.09-1028.57 319.41-22.45 464.56 50.1 499.59 20.46 42.18-35.75-124.46-75.9-146.65-139.39-8.57-24.46 28.82-20.27 81.55 1.13-20-2.88-31 1.83-25.55 15.87 19.38 50.39 180.3 90.02 155.35 144.83z" fill="#000" fill-opacity=".14"/><path d="m2964.5 1847.07c-.36 127.74-38.12 278.51-110.54 423.57-74.96-102.64-209.23-143.64-222.96-143.64 4-5 16-19.7 20-24.5 23.5 5.5 128.62 27.91 187.28 106.2 59.3-132.15 86.52-255.16 86.84-370.86 1.47-524.24-353.62-784.84-657.36-901.02 398.16 129.18 698.16 403.18 696.74 910.25z" fill="#000" fill-opacity=".14"/><path d="m1725 1203.5c-297 0-665 628.5-363.5 918.5-575.499 180 0 779 638.5 779s1214-599 638.5-779c301.5-290-66.5-918.5-363.5-918.5-126.5 0-195.51 58.5-275 116.5-79.5-58-148.5-116.5-275-116.5z" fill="#ffcd98" stroke="#333" stroke-width="5"/><g fill="#000"><path d="m2749.1 1817c-15.7-308.54-265-613.19-481.5-613.19-134.6 0-216.2 82.14-267.6 116.19-41.1-28.05-132.5-116.19-268.4-116.19-255.6 0-478.1 373.19-482.13 622.71-22.47-268.52 183.6-671.52 483.53-671.52 156 0 239 75 267 106 28-31 111-106 267-106 297.63 0 503.5 381.5 482.1 662z" fill-opacity=".14"/><path d="m1148.6 2266.67c-135.93 245.26 334.32 633.83 851.4 633.83s993.17-392.85 849.75-637.86c95.36 224.1-359.03 600.36-849.75 600.36-487.79 0-939.69-371.78-851.4-596.33z" fill-opacity=".1"/><path d="m1250.37 1807.39c-7.11 117.45 24.02 230.01 111.45 314.11-10.42 3.26-20.47 7.66-30.15 11.19 22.33-7.19 43.66-12.28 68.33-16.69-84.54-81.32-133.47-191.77-149.63-308.61z" fill-opacity=".1"/><path d="m2670.5 2133c-21.76-6.41-44.6-12.37-70.5-17 85.32-82.07 134.37-193.81 150.07-311.86 7.89 118.62-23.01 232.49-111.25 317.36 11.32 3.54 21.24 7.64 31.68 11.5z" fill-opacity=".1"/></g></svg>