<svg xmlns="http://www.w3.org/2000/svg" width="4000" height="4000" fill="none" xmlns:v="https://vecta.io/nano"><path d="M2395 2818c-115.35 45.22-271 79-395 79s-259.34-26.43-395-79c-7.24 10.54-16.6 26.27-23 37 142 57 275 86 418 86s276-29 418-86c-6.15-10.7-15.93-26.36-23-37z" fill="#000" fill-opacity=".15"/><path d="M2500.32 839c42.32-35.85-124.32-76-146.52-139.5-26.8-76.5 395.6 127.1 331.57 261.08-5 10.5-55.43 94-417.6-23.77C2665.92 1066 2967.42 1339.94 2966 1847c-1.1 388.75-350.07 990.8-966.43 996.18-594.62 5.2-966.64-596.22-965.57-996.18 1.32-488.44 432.13-990.94 966-1028.5 319.4-22.45 465.3 50.1 500.32 20.5z" fill="#7f6145" stroke="#333" stroke-width="5" stroke-linejoin="round"/><path d="M2565.16 861.34c-29.66 65.16-211.8-40-531.22-17.54C1380.48 889.737 907 1615 1169.36 2202.88c68.14-70.38 151.14-90.38 177.6-99.16 7.94 8.57 17.6 17.67 21.05 21.78-81.37 25.35-175.93 80.4-216.63 156.84-76.27-147.6-117-302.56-116.6-435.33 1.32-488.45 432.22-991 966.1-1028.57 319.4-22.45 464.56 50.1 499.6 20.46 42.18-35.75-124.46-75.9-146.65-139.4-8.57-24.46 28.82-20.27 81.55 1.13-20-2.88-31 1.83-25.55 15.87 19.38 50.4 180.3 90.02 155.35 144.83zm399.34 985.73c-.36 127.74-38.12 278.5-110.54 423.57C2779 2168 2644.73 2127 2631 2127l20-24.5c23.5 5.5 128.62 27.9 187.28 106.2 59.3-132.15 86.52-255.16 86.84-370.86 1.47-524.24-353.62-784.84-657.36-901.02C2665.92 1066 2965.92 1340 2964.5 1847.07z" fill-opacity=".14" fill="#000"/><path d="M1725 1203.5c-297 0-665 628.5-363.5 918.5-575.5 180 0 779 638.5 779s1214-599 638.5-779c301.5-290-66.5-918.5-363.5-918.5-126.5 0-195.5 58.5-275 116.5-79.5-58-148.5-116.5-275-116.5z" fill="#ffcd98" stroke="#333" stroke-width="5"/><g fill="#000"><path d="M2749.1 1817c-15.7-308.54-265-613.2-481.5-613.2-134.6 0-216.2 82.14-267.6 116.2-41.1-28.05-132.5-116.2-268.4-116.2-255.6 0-478.1 373.2-482.13 622.7C1227 1558 1433.07 1155 1733 1155c156 0 239 75 267 106 28-31 111-106 267-106 297.63 0 503.5 381.5 482.1 662z" fill-opacity=".14"/><path d="M1250.37 1807.4c-7.1 117.45 24.02 230 111.45 314.1-10.42 3.26-20.47 7.66-30.15 11.2 22.33-7.2 43.66-12.28 68.33-16.7-84.54-81.32-133.47-191.77-149.63-308.6zm-101.77 459.27c-135.93 245.26 334.32 633.83 851.4 633.83s993.17-392.85 849.75-637.86C2945.1 2486.74 2490.72 2863 2000 2863c-487.8 0-939.7-371.78-851.4-596.33zM2670.5 2133c-21.76-6.4-44.6-12.37-70.5-17 85.32-82.07 134.37-193.8 150.07-311.86 7.9 118.62-23 232.5-111.25 317.36 11.32 3.54 21.24 7.64 31.68 11.5z" fill-opacity=".1"/></g></svg>