<svg width="4000" height="4000" viewBox="0 0 4000 4000" fill="none" xmlns="http://www.w3.org/2000/svg"><path d="M1959.37 3446.51c5-87.08 27.4-154.43 47.17-206.81 19.77-52.38 42.42-144.7-42.56-166.02-121.5-30.49-188.31 254.12-193.3 340.94-2.93 51.08 36.82 110.33 88.4 113.29 47.48 2.31 97.45-31.79 100.29-81.4z" fill="#7F6145" stroke="#333" stroke-width="5" stroke-miterlimit="10"/><path d="M1769.48 3414.5c51.5-7 148-7 188.5 34 .34-3.09 1.44-11.94 1.66-15.04-42.16-36.96-138.16-39.46-188.02-32.46-.26 3.3-1.86 10.13-2.14 13.5zM1785.48 3325c47.76 44.29 108.88 69.13 178 78.5.58-5.01 1.81-12.18 2.5-17-68.6-8.88-128.2-37.6-176-81-2 6-3.62 15.27-4.5 19.5z" fill="#000" fill-opacity=".14"/><path d="M2040.63 3446.51c-5-87.08-27.4-154.43-47.17-206.81-19.77-52.38-42.42-144.7 42.56-166.02 121.5-30.49 188.31 254.12 193.3 340.94 2.93 51.08-36.82 110.33-88.4 113.29-47.48 2.31-97.45-31.79-100.29-81.4z" fill="#7F6145" stroke="#333" stroke-width="5" stroke-miterlimit="10"/><path d="M2230.52 3414.5c-51.5-7-148-7-188.5 34-.34-3.09-1.44-11.94-1.66-15.04 42.16-36.96 138.16-39.46 188.02-32.46.26 3.3 1.86 10.13 2.14 13.5zM2214.52 3325c-47.76 44.29-108.88 69.13-178 78.5-.58-5.01-1.81-12.18-2.5-17 68.6-8.88 128.2-37.6 176-81 2 6 3.62 15.27 4.5 19.5z" fill="#000" fill-opacity=".14"/></svg>