<svg width="4000" height="4000" viewBox="0 0 4000 4000" fill="none" xmlns="http://www.w3.org/2000/svg"><path d="M2275.11 3290.64c-50.77-7.42-115.16-32.27-196.86-76-11.87-6.35-16.67-21.85-10.25-33.84 6.35-11.87 21.85-16.66 33.84-10.25 75.45 40.37 136.18 64.12 180.5 70.6 28.93 4.23 49.75 1 61.88-9.64 13.61-11.92 12.39-33 8.83-72.39-4.17-46.12-9.36-103.53 19.78-169.51 44-99.72 153.63-194.53 269.09-176.7 73.33 11.36 143.6 66.19 159.73 140.59 13.73 63.36-6.02 150.17-73.53 174.43-44.77 16-95.93-2.36-130.84-32.08-10.44-8.68-11.95-25-3.06-35.44 8.81-10.34 25.15-11.64 35.48-2.62.43.36 43.66 36.65 81.49 23.06 42.84-15.38 49.77-78.95 41.56-116.78-11.75-54.23-65.6-93.57-118.51-101.77-92.84-14.33-180.8 68.49-215.72 147.49-23.91 54.16-19.56 102.32-15.72 144.81 4 43.84 7.71 85.25-25.67 114.5-27.66 24.4-67.07 26.8-102.02 21.54z" fill="#7F6145" stroke="#333" stroke-width="5" stroke-miterlimit="10"/><path d="M2787.15 2965.67c11.06 51.03 1.18 114.55-37.82 152.08 51.41-33.69 65.07-107.55 52.82-164.08-16.13-74.4-86.39-129.24-159.73-140.6-66.26-10.23-131.78 18.56-181.54 60.82 114.12-80.75 293.29-60.35 326.27 91.78z" fill="#000" fill-opacity=".24"/><path d="M2718.12 3078.2c-27.03 31.45-75.59 15.27-102.89-8.23a25.04 25.04 0 00-23.13-5 25.2 25.2 0 0119.93-12.89 25.03 25.03 0 0118.2 5.88c22.07 19.51 59.84 35.18 87.89 20.24zM2074 3173.64c3.5-3 15.5-9 23-5.5 6.98 3.26 15.34 7.39 24.73 12.03 49.42 24.42 127.47 62.97 183.77 62.97 50 0 54.5-25 47.5-91a442 442 0 003.06 12.51c9.62 37.75 24.09 94.49-50.56 94.49-81.5 0-208.79-70.57-231.5-85.5z" fill="#000" fill-opacity=".24"/></svg>