<svg xmlns="http://www.w3.org/2000/svg" width="1440" height="598" fill="none" xmlns:v="https://vecta.io/nano"><path d="M509.19 598c-129.42-118.62-182.94-254.11-160.367-277.89 29.348-30.92 74.98-32.774 114.527-33.84 181.96-4.935 439.514 207.88 491.748 206.834 101.163-2.073 253.363-163.14 353.093-295.917 17.63-23.463 74.35-51.95 131.8-66.028V0H852.608C1038.94 127.94 1118.9 312.73 1092.16 340.89c-29.35 30.918-74.96 32.774-114.51 33.84-181.96 4.936-439.514-207.9-491.748-206.833-101.168 2.073-253.364 163.14-353.11 295.917C115.067 487.413 57.7938 516.095 0 530.087V598h509.19z" fill="url(#A)" fill-opacity=".75"/><path d="M0 114.188C33.3652 67.6903 69.1048 30.1753 104.59 0H0v114.188z" fill="url(#A)" fill-opacity=".75"/><path d="M1440 548.208c-12.92 17.906-26.18 34.47-39.65 49.792H1440v-49.792z" fill="url(#A)" fill-opacity=".75"/><defs><radialGradient id="A" cx="0" cy="0" r="1" gradientUnits="userSpaceOnUse" gradientTransform="translate(706 299) rotate(90) scale(299 1024.8)"><stop stop-color="#e4e5e9"/><stop offset=".6776" stop-color="#e4e5e9"/><stop offset="1" stop-color="#e4e5e9" stop-opacity="0"/></radialGradient></defs></svg>