<svg xmlns="http://www.w3.org/2000/svg" width="1440" height="450" fill="none" xmlns:v="https://vecta.io/nano"><g clip-path="url(#B)"><path fill="url(#A)" d="M0 0h1440v450H0z"/><g fill="#fff"><path d="M154 332.5L207.5 611l78.5 45.5L266.5-82h-80l17 432-35-38-14.5 20.5z" fill-opacity=".5"/><path d="M1341 290.5l53.5 318.5 78.5 45.5L1453.5-14h-80l17 322-35-38-14.5 20.5z"/><path d="M354 211L330-30l82.5-21 5 342 39 363.5-99-4.5-3.5-439zm649 128l34.5-379L955-61v412.5l-24 353 99-4.5-27-361z" fill-opacity=".25"/><path d="M503.5 400L476-33l54.5-16.5 10.5 347L563 747h-59.5V400zM825 705.5h59.5L890-32l-50-14 18 282-33 469.5z" fill-opacity=".5"/><path d="M1265 675.5h59.5L1260-52h-26l31 727.5zm-604 11h-39.5L584 257l10-11.5 14 22.5-4-311.5L638.5-60l5 317L661 686.5z" fill-opacity=".25"/><path d="M748 686.5l-31.5 10-7.5-750h42l6 325.5 31.5-65 22.5 18-63 461.5z" fill-opacity=".5"/><path d="M1169 706.5h-39.5l-17.5-730 34.5-16.5 22.5 746.5z" fill-opacity=".8"/><path d="M73.5 641h-28L28-59l52.5-21 7 336 19-39 21 15-54 409z"/></g></g><defs><radialGradient id="A" cx="0" cy="0" r="1" gradientUnits="userSpaceOnUse" gradientTransform="translate(711 450) rotate(-90) scale(441 1835.72)"><stop stop-color="#e4e5e9"/><stop offset=".373" stop-color="#e4e5e9"/><stop offset="1" stop-color="#e4e5e9" stop-opacity="0"/></radialGradient><clipPath id="B"><path fill="#fff" d="M0 0h1440v450H0z"/></clipPath></defs></svg>