<svg xmlns="http://www.w3.org/2000/svg" width="290" height="214" fill="none" xmlns:v="https://vecta.io/nano"><g clip-path="url(#B)"><path fill-rule="evenodd" d="M88.6192 9.8412L332.575 129.754c9.69 4.763 18.272 11.505 25.193 19.79l32.73 39.186c3.55 4.25-3.624 15.103-8.42 10.612-4.54-4.252-9.02-8.757-13.528-13.292-9.932-10-20.012-20.13-31.23-28.043-13.987 33.398-58.027 72.858-109.33 47.64-50.95-25.043-41.422-87.422-25.22-114.3857l-4.336-2.1313c-13.752 33.503-57.978 73.49-109.539 48.147-50.66-24.9-41.5287-86.7144-25.497-113.9227C50.2736 19.29 36.0675 17.5017 22.074 15.741L3.283 13.1514C-3.2032 12.097 1.0094-.212 6.542.0028l51.0185 1.98c10.7886.4187 21.3693 3.0958 31.0587 7.8585zM145.88 129.942c-54.9168 12.614-95.4798-46.9317-71.5295-95.6572C76.8278 76.0527 107 115.11 145.88 129.942zm139.096 68.37c-54.916 12.614-95.48-46.932-71.53-95.657 2.476 41.767 32.65 80.826 71.53 95.657z" fill="url(#A)"/></g><defs><linearGradient id="A" x1="166.043" y1="125.117" x2="290.043" y2="125.117" gradientUnits="userSpaceOnUse"><stop stop-color="#e4e5e8"/><stop offset="1" stop-color="#e4e5e8" stop-opacity="0"/></linearGradient><clipPath id="B"><path fill="#fff" d="M0 0h290v214H0z"/></clipPath></defs></svg>