<svg xmlns="http://www.w3.org/2000/svg" width="387" height="235" fill="none" xmlns:v="https://vecta.io/nano"><path d="M317.637 47.965c3.326 19.4914-2.56 33.2997-10.444 51.8035-5.276 12.3784-11.447 26.8584-16.355 46.5474 36.29-.998 57.867-.17 57.867 21.543 0 70.516-115.99 70.397-174.346 64.84S0 191.064 0 128.947c0-32.2923 24.8442-29.104 63.8057-17.355-.374 9.62-1.13 20.52-2.4657 32.993-3.3603 31.355 80.814 44.115 104.83 47.756l.444.068c27.316 4.145 114.763 12.792 118.49-15.537 1.824-13.86 4.334-25.7 7.167-36.042-24.463 15.537-96.595 10.21-121.774 6.174-20.464-3.276-84.3335-18.6-106.5188-40.794.4507-17.4924-.3535-30.4938-1.006-41.0404-1.229-19.8692-1.9193-31.0263 7.3366-47.0855 13.2-22.904 64.6642-20.87 133.3152-11.3096s110.35 19.7307 114.01 41.1906z" fill="url(#A)"/><defs><linearGradient id="A" x1="246.5" y1="123" x2="97.5" y2="123" gradientUnits="userSpaceOnUse"><stop stop-color="#e4e5e8"/><stop offset="1" stop-color="#e4e5e8" stop-opacity="0"/></linearGradient></defs></svg>