<svg xmlns="http://www.w3.org/2000/svg" width="1440" height="548" fill="none" xmlns:v="https://vecta.io/nano"><g clip-path="url(#B)"><path fill="url(#A)" d="M0 0h1440v548H0z"/><g fill="#fff"><path d="M154 277.5L207.5 556l78.5 45.5L266.5-47h-80l17 342-35-38-14.5 20.5z" fill-opacity=".5"/><path d="M1341 235.5l53.5 318.5 78.5 45.5L1453.5-19h-80l17 272-35-38-14.5 20.5z"/><path d="M354 156L330-15l82.5-21 5 272 39 363.5-99-4.5-3.5-439zm649 128l34.5-309L955-46v342.5l-24 353 99-4.5-27-361z" fill-opacity=".25"/><path d="M503.5 345L476-8l54.5-16.5 10.5 267L563 692h-59.5V345zM825 650.5h59.5L890-27l-50-14 18 222-33 469.5z" fill-opacity=".5"/><path d="M1265 620.5h59.5L1260-37h-26l31 657.5zm-604 11h-39.5L584 202l10-11.5 14 22.5-4-221.5L638.5-25l5 227L661 631.5z" fill-opacity=".25"/><path d="M748 631.5l-31.5 10-7.5-670h42l6 245.5 31.5-65 22.5 18-63 461.5z" fill-opacity=".6"/><path d="M1169 651.5h-39.5l-17.5-680 34.5-16.5 22.5 696.5z" fill-opacity=".8"/><path d="M73.5 586h-28L28-34l52.5-21 7 256 19-39 21 15-54 409z"/></g></g><defs><radialGradient id="A" cx="0" cy="0" r="1" gradientUnits="userSpaceOnUse" gradientTransform="translate(720) rotate(90) scale(526.5 1199.06)"><stop stop-color="#e4e5e9"/><stop offset=".7425" stop-color="#e4e5e9"/><stop offset="1" stop-color="#e4e5e9" stop-opacity="0"/></radialGradient><clipPath id="B"><path fill="#fff" d="M0 0h1440v548H0z"/></clipPath></defs></svg>