<svg xmlns="http://www.w3.org/2000/svg" width="443" height="284" fill="none" xmlns:v="https://vecta.io/nano"><g clip-path="url(#B)"><path fill-rule="evenodd" d="M174.614 100.36c-2.4 8.954-9.6 14.865-17.837 15.467l11.163 30.843-18.78-5.032-8.85-28.118-3.82-1.024-6.437 24.022-16.705-4.476L130.9 66.5278l29.153 7.8115c11.683 3.1305 17.604 14.6643 14.56 26.0197zm-34.528-1.2936l9.718 2.6036c3.93 1.053 7.53-1.025 8.584-4.9555s-1.025-7.5303-4.956-8.5836l-9.718-2.6038-3.628 13.5393z" fill="url(#A)"/><path d="M190.224 152.64l-16.706-4.476 17.554-65.513 16.706 4.4763-17.554 65.5127z" fill="url(#A)"/><path d="M240.205 140.755l3.423-12.775 33.74 9.04-.965 3.603c-4.974 18.562-24.08 29.593-42.64 24.62-18.67-5.003-29.593-24.08-24.62-42.64s23.97-29.6218 42.64-24.619c12.993 3.482 22.36 13.949 25.002 26.36l-16.373 3.454c-1.317-6.44-6.03-11.563-13.017-13.436-9.937-2.662-19.322 2.664-21.984 12.6s2.802 19.24 12.738 21.904c6.442 1.726 12.64-.007 17.015-4.1l-14.96-4.008z" fill="url(#A)"/><path d="M314.76 160.732l3.423-12.775 33.74 9.04-.965 3.603c-4.974 18.562-24.08 29.593-42.64 24.62-18.67-5.003-29.593-24.08-24.62-42.64s23.97-29.622 42.64-24.62c12.993 3.482 22.36 13.95 25.002 26.36l-16.373 3.454c-1.317-6.44-6.03-11.563-13.018-13.436-9.936-2.662-19.32 2.664-21.983 12.6s2.802 19.24 12.738 21.904c6.442 1.726 12.64-.007 17.015-4.1l-14.96-4.008z" fill="url(#A)"/><path d="M410.486 141.443l-3.89 14.522-23.913-6.408-2.955 11.028 20.2 5.413-3.862 14.413-20.2-5.413-2.955 11.028 23.912 6.407-3.89 14.522-40.618-10.883 17.554-65.513 40.618 10.884z" fill="url(#A)"/><g fill-rule="evenodd"><path d="M425.32 215.634l-22.712-6.086 17.555-65.512 22.71 6.085c18.016 4.827 28.836 23.408 23.98 41.533s-23.517 28.807-41.533 23.98zm13.662-50.99l-6.005-1.61-9.772 36.47 6.006 1.61c9.062 2.428 18.295-3.64 21.045-13.905s-2.21-20.136-11.274-22.564z" fill="url(#A)"/><path d="M64.6988 20.1146C68.5768 5.642 83.453-2.9468 97.9256.9312L534.677 117.958c14.473 3.878 23.062 18.755 19.184 33.227l-32.768 122.29c-3.878 14.473-18.754 23.06-33.226 19.183L51.1146 175.632c-14.4726-3.878-23.0614-18.754-19.1835-33.227L64.6988 20.1146zm15.1297 13.4162c2.5853-9.6485 12.5027-15.3743 22.1515-12.79L521.26 133.088c9.65 2.585 15.375 12.503 12.79 22.15l-28.086 104.82c-2.585 9.648-12.503 15.374-22.15 12.79L64.531 160.502c-9.6484-2.585-15.3743-12.502-12.79-22.15L79.8285 33.5308z" fill="url(#A)"/></g></g><defs><linearGradient id="A" x1="258.058" y1="176.093" x2="441.558" y2="176.093" gradientUnits="userSpaceOnUse"><stop stop-color="#e4e5e8"/><stop offset="1" stop-color="#e4e5e8" stop-opacity="0"/></linearGradient><clipPath id="B"><path fill="#fff" d="M0 0h443v284H0z"/></clipPath></defs></svg>