<svg xmlns="http://www.w3.org/2000/svg" width="443" height="315" fill="none" xmlns:v="https://vecta.io/nano"><g clip-path="url(#B)"><path fill-rule="evenodd" d="M35.1884 107.06c-2.5732 9.603-10.2968 15.943-19.1305 16.588l11.972 33.08L7.887 151.33-1.605 121.174l-4.0988-1.1-6.9035 25.765-17.9177-4.802 18.8276-70.2652L19.571 79.151c12.5307 3.3576 18.881 15.728 15.6175 27.908zM-1.844 105.67l10.4227 2.793c4.216 1.13 8.0766-1.1 9.2063-5.316s-1.0993-8.0762-5.3153-9.2058L2.047 91.1494-1.844 105.67z" fill="url(#A)"/><path d="M51.931 163.132l-17.9177-4.8L52.84 88.0658l17.9177 4.801-18.8276 70.265z" fill="url(#A)"/><path d="M105.538 150.385l3.672-13.702 36.186 9.696-1.035 3.865c-5.335 19.908-25.826 31.74-45.7347 26.405-20.0257-5.366-31.7394-25.826-26.405-45.735s25.709-31.7707 45.7346-26.405c13.936 3.734 23.982 14.96 26.816 28.273l-17.56 3.704c-1.413-6.906-6.467-12.402-13.962-14.4-10.657-2.856-20.7227 2.857-23.5783 13.514s3.0055 20.637 13.6623 23.492c6.9 1.852 13.558-.007 18.25-4.398l-16.044-4.3z" fill="url(#A)"/><path d="M185.502 171.81l3.67-13.702 36.187 9.696-1.035 3.865C219 191.58 198.5 203.41 178.6 198.075c-20.026-5.366-31.74-25.826-26.405-45.735s25.71-31.77 45.735-26.405c13.936 3.735 23.98 14.96 26.816 28.273l-17.56 3.704c-1.413-6.906-6.467-12.402-13.962-14.4-10.657-2.856-20.723 2.857-23.58 13.514s3.006 20.637 13.663 23.492c6.91 1.852 13.558-.007 18.25-4.398l-16.044-4.3z" fill="url(#A)"/><path d="M288.172 151.123L284 166.698l-25.647-6.872-3.17 11.828 21.665 5.805-4.142 15.46-21.666-5.805-3.17 11.828 25.647 6.872-4.173 15.575-43.565-11.673 18.828-70.265 43.564 11.673z" fill="url(#A)"/><g fill-rule="evenodd"><path d="M304.082 230.696l-24.358-6.527 18.827-70.265 24.36 6.527c19.323 5.177 30.928 25.106 25.72 44.546s-25.224 30.897-44.547 25.72zm14.654-54.7l-6.44-1.726-10.48 39.115 6.44 1.726c9.72 2.604 19.623-3.905 22.572-14.913s-2.37-21.597-12.092-24.202z" fill="url(#A)"/><path d="M-82.8564 21.574C-78.697 6.0513-62.7418-3.1606-47.219.9987L421.218 126.516c15.523 4.16 24.735 20.115 20.576 35.637L406.65 293.316c-4.16 15.523-20.115 24.734-35.638 20.575L-97.426 188.374c-15.523-4.16-24.735-20.115-20.575-35.638l35.1446-131.162zm16.2272 14.3895C-63.8564 25.615-53.2195 19.4737-42.87 22.2466l449.7 120.4964c10.348 2.773 16.5 13.4 13.717 23.76l-30.124 112.425c-2.773 10.348-13.4 16.49-23.76 13.716L-83.0366 172.147c-10.3484-2.773-16.4897-13.4-13.7168-23.76l30.1242-112.4246z" fill="url(#A)"/></g></g><defs><linearGradient id="A" x1="219.796" y1="164.897" x2="6.2961" y2="164.897" gradientUnits="userSpaceOnUse"><stop stop-color="#e4e5e8"/><stop offset="1" stop-color="#e4e5e8" stop-opacity="0"/></linearGradient><clipPath id="B"><path fill="#fff" d="M0 0h443v315H0z"/></clipPath></defs></svg>