<svg xmlns="http://www.w3.org/2000/svg" width="562" height="315" fill="none" xmlns:v="https://vecta.io/nano"><path fill-rule="evenodd" d="M154.188 107.06c-2.573 9.603-10.296 15.943-19.13 16.588l11.972 33.08-20.143-5.397-9.492-30.157-4.1-1.1-6.903 25.765-17.918-4.802 18.828-70.2652 31.268 8.3783c12.53 3.3576 18.88 15.728 15.617 27.908zm-37.032-1.388l10.423 2.793c4.216 1.13 8.076-1.1 9.206-5.316s-1.1-8.0762-5.315-9.2058l-10.423-2.7928-3.89 14.5216z" fill="url(#A)"/><path d="M170.93 163.132l-17.918-4.8 18.828-70.2652 17.918 4.801-18.828 70.265z" fill="url(#A)"/><path d="M224.538 150.385l3.672-13.702 36.186 9.696-1.035 3.865c-5.335 19.908-25.826 31.74-45.735 26.405-20.025-5.366-31.74-25.826-26.405-45.735s25.71-31.7707 45.735-26.405c13.936 3.734 23.982 14.96 26.816 28.273l-17.56 3.704c-1.413-6.906-6.467-12.402-13.962-14.4-10.657-2.856-20.723 2.857-23.578 13.514s3.005 20.637 13.662 23.492c6.9 1.852 13.558-.007 18.25-4.398l-16.044-4.3z" fill="url(#A)"/><path d="M304.502 171.81l3.67-13.702 36.187 9.696-1.035 3.865C338 191.58 317.5 203.41 297.6 198.075c-20.026-5.366-31.74-25.826-26.405-45.735s25.71-31.77 45.735-26.405c13.936 3.735 23.98 14.96 26.816 28.273l-17.56 3.704c-1.413-6.906-6.467-12.402-13.962-14.4-10.657-2.856-20.723 2.857-23.58 13.514s3.006 20.637 13.663 23.492c6.91 1.852 13.558-.007 18.25-4.398l-16.044-4.3z" fill="url(#A)"/><path d="M407.172 151.123L403 166.698l-25.647-6.872-3.17 11.828 21.665 5.805-4.142 15.46-21.666-5.805-3.17 11.828 25.647 6.872-4.173 15.575-43.565-11.673 18.828-70.265 43.564 11.673z" fill="url(#A)"/><g fill-rule="evenodd"><path d="M423.082 230.696l-24.358-6.527 18.827-70.265 24.36 6.527c19.323 5.177 30.928 25.106 25.72 44.546s-25.224 30.897-44.547 25.72zm14.654-54.7l-6.44-1.726-10.48 39.115 6.44 1.726c9.72 2.604 19.623-3.905 22.572-14.913s-2.37-21.597-12.092-24.202z" fill="url(#A)"/><path d="M36.1436 21.574C40.303 6.0513 56.2582-3.1606 71.781.9987L540.218 126.516c15.523 4.16 24.735 20.115 20.576 35.637L525.65 293.316c-4.16 15.523-20.115 24.734-35.638 20.575L21.574 188.374C6.0512 184.214-3.1606 168.26.9987 152.736l35.145-131.162zm16.2272 14.3895C55.1436 25.615 65.7805 19.4737 76.13 22.2466l449.7 120.4964c10.348 2.773 16.5 13.4 13.717 23.76l-30.124 112.425c-2.773 10.348-13.4 16.49-23.76 13.716L35.9634 172.147c-10.3484-2.773-16.4897-13.4-13.7168-23.76L52.3708 35.9634z" fill="url(#A)"/></g><defs><linearGradient id="A" x1="338.796" y1="164.897" x2="125.296" y2="164.897" gradientUnits="userSpaceOnUse"><stop stop-color="#e4e5e8"/><stop offset="1" stop-color="#e4e5e8" stop-opacity="0"/></linearGradient></defs></svg>