<svg fill="none" height="4000" viewBox="0 0 4000 4000" width="4000" xmlns="http://www.w3.org/2000/svg"><path d="m1802 2971c-5 37.5-57.5 135.5-120 128 8.5 171.5 159.5 296 318 296s310.08-136.12 318-296c-62.5 7.5-115-90.5-120-128-69.79 81.42-326.44 81.15-396 0z" fill="#5050d8" stroke="#333" stroke-width="5"/><path d="m1686.63 3138.81c64.15 117.91 187.69 186.19 313.37 186.19 126.07 0 250.4-76.11 314.09-191.8-25.93 144.62-167.03 261.8-314.09 261.8-145.96 0-285.55-105.57-313.37-256.19z" fill="#000" fill-opacity=".2"/><path d="m2127 3012.74s44.5-11.74 71-41.74c2.11 14.5 8 23 8 23v55.85c0 4.89-2.14 9.54-5.89 12.8l-21.81 18.97c-6.72 5.84-16.88 5.84-23.6 0l-21.81-18.97c-3.75-3.26-5.89-7.91-5.89-12.8z" fill="#000" fill-opacity=".2"/><path d="m2133 2889 67-12v166.3c0 4.26-1.82 8.33-4.99 11.17l-18.5 16.57c-5.7 5.1-14.32 5.1-20.02 0l-18.5-16.57c-3.17-2.84-4.99-6.91-4.99-11.17z" fill="#5050d8" stroke="#333" stroke-width="5"/><circle cx="2166.5" cy="3032.5" fill="#ede72f" r="19.5" stroke="#333" stroke-width="5"/><path d="m1873 3012.74s-44.5-11.74-71-41.74c-2.11 14.5-8 23-8 23v55.85c0 4.89 2.14 9.54 5.89 12.8l21.81 18.97c6.72 5.84 16.88 5.84 23.6 0l21.81-18.97c3.75-3.26 5.89-7.91 5.89-12.8z" fill="#000" fill-opacity=".2"/><g stroke="#333" stroke-width="5"><path d="m1867 2889-67-12v166.3c0 4.26 1.82 8.33 4.99 11.17l18.5 16.57c5.7 5.1 14.32 5.1 20.02 0l18.5-16.57c3.17-2.84 4.99-6.91 4.99-11.17z" fill="#5050d8"/><path d="m1814 3032.5c0 10.77 8.73 19.5 19.5 19.5s19.5-8.73 19.5-19.5-8.73-19.5-19.5-19.5-19.5 8.73-19.5 19.5z" fill="#ede72f"/></g></svg>