<svg xmlns="http://www.w3.org/2000/svg" width="4000" height="4000" fill="none" xmlns:v="https://vecta.io/nano"><path d="M1802 2971c-5 37.5-57.5 135.5-120 128 8.5 171.5 159.5 296 318 296s310.08-136.12 318-296c-62.5 7.5-115-90.5-120-128-69.8 81.42-326.44 81.15-396 0z" fill="#e24040" stroke="#333" stroke-width="5"/><path d="M1686.63 3138.8c64.15 117.9 187.7 186.2 313.37 186.2 126.07 0 250.4-76.1 314.1-191.8-25.93 144.62-167.03 261.8-314.1 261.8-145.96 0-285.55-105.57-313.37-256.2zM2127 3012.74s44.5-11.74 71-41.74c2.1 14.5 8 23 8 23v55.85c0 4.9-2.14 9.54-5.9 12.8l-21.8 18.97c-6.72 5.84-16.88 5.84-23.6 0l-21.8-18.97c-3.75-3.26-5.9-7.9-5.9-12.8v-37.1z" fill-opacity=".2" fill="#000"/><g stroke="#333" stroke-width="5"><path d="M2133 2889l67-12v166.3c0 4.26-1.82 8.33-5 11.17l-18.5 16.57c-5.7 5.1-14.32 5.1-20.02 0l-18.5-16.57c-3.17-2.84-5-6.9-5-11.17V2889z" fill="#e24040"/><circle cx="2166.5" cy="3032.5" r="19.5" fill="#ede72f"/></g><path d="M1873 3012.74s-44.5-11.74-71-41.74c-2.1 14.5-8 23-8 23v55.85c0 4.9 2.14 9.54 5.9 12.8l21.8 18.97c6.72 5.84 16.88 5.84 23.6 0l21.8-18.97c3.75-3.26 5.9-7.9 5.9-12.8v-37.1z" fill="#000" fill-opacity=".2"/><g stroke="#333" stroke-width="5"><path d="M1867 2889l-67-12v166.3c0 4.26 1.82 8.33 5 11.17l18.5 16.57c5.7 5.1 14.32 5.1 20.02 0l18.5-16.57c3.17-2.84 5-6.9 5-11.17V2889z" fill="#e24040"/><path d="M1814 3032.5c0 10.77 8.73 19.5 19.5 19.5s19.5-8.73 19.5-19.5-8.73-19.5-19.5-19.5-19.5 8.73-19.5 19.5z" fill="#ede72f"/></g></svg>