<svg xmlns="http://www.w3.org/2000/svg" width="4000" height="4000" fill="none" xmlns:v="https://vecta.io/nano"><g stroke="#333" stroke-width="5"><path d="M1959.37 3446.5c2.7-47 10.47-88.26 20.16-124.5-60.03-38.5-128.53-42-183.27-42-15.3 54.22-23.9 105.53-25.58 134.62-2.93 51.08 36.82 110.33 88.4 113.3 47.48 2.3 97.45-31.8 100.3-81.4z" fill="#dbce37" stroke-miterlimit="10"/><path d="M1790.37 3302c33.9 29.4 72.8 53.12 114.63 69.46-4.8 15.78-15.8 36.65-29.38 46.53-35.4 25.76-67.38 7.1-75.94-29.68-2.66-11.47-4.85-20.88-11.2-21.76-5.17-.7-9.44 4.7-13.86 12.47 3.32-22.18 8.58-48.82 15.74-77.02z" fill="#b092c2" stroke-linejoin="round"/></g><path d="M1769.48 3414.5c51.5-7 148-7 188.5 34l1.66-15.04c-42.16-36.96-138.16-39.46-188.02-32.46-.26 3.3-1.86 10.13-2.14 13.5zm16-89.5c47.76 44.3 108.88 69.13 178 78.5.58-5 1.8-12.18 2.5-17-68.6-8.88-128.2-37.6-176-81-2 6-3.62 15.27-4.5 19.5z" fill-opacity=".15" fill="#000"/><g stroke="#333" stroke-width="5"><path d="M2040.63 3446.5c-2.7-47-10.46-88.26-20.15-124.5 60.03-38.5 128.53-42 183.27-42 15.3 54.22 23.9 105.53 25.57 134.62 2.94 51.08-36.8 110.33-88.4 113.3-47.47 2.3-97.44-31.8-100.3-81.4z" fill="#dbce37" stroke-miterlimit="10"/><path d="M2211.2 3308.25c4.27 17.38 7.8 34.07 10.6 49.38-17.3-1.63-8.92 39.88-20.4 57.03-20.98 31.4-109.34-2-98.96-40.92 39.68-15.1 76.82-37.5 108.74-65.5z" fill="#b092c2" stroke-linejoin="round"/></g><path d="M2230.52 3414.5c-51.5-7-148-7-188.5 34l-1.66-15.04c42.16-36.96 138.16-39.46 188.02-32.46.27 3.3 1.87 10.13 2.14 13.5zm-16-89.5c-47.76 44.3-108.88 69.13-178 78.5-.58-5-1.8-12.18-2.5-17 68.6-8.88 128.2-37.6 176-81 2 6 3.62 15.27 4.5 19.5z" fill-opacity=".15" fill="#000"/><g stroke="#333" stroke-width="5"><path d="M2306.1 3164.1c-37.2 122.4-157.75 227.64-306.1 228.9-145.28 1.25-267.9-105.74-305.86-228.84 221 65.4 391 65.26 611.96-.07z" fill="#e8dc4b"/><path d="M1813.57 3330.36c-16.6-12.35-32-26.18-45.97-41.17 9.56-1.58 18.42-4.62 20.23-11.54 1.86-7.18-6.46-13.6-16.15-21.05-28.08-21.62-33.62-48.2-2.9-71.8 17.18 4.06 34.14 7.67 50.9 10.86 7.1 19.85 8.16 45.9 15.54 45.82 6.67 0 8.56-21.36 14.44-40.55 30.4 4.9 60.3 8.33 89.97 10.3 34.9 41.33 25.57 66.3-27.05 67.03-16.72.22-31.6.42-33.4 7.48-6.08 23.58 78.64 32.43 57.74 67.82-5.38 9.58-17.8 18.75-31.93 24.55-23.33-7.66-45.5-18.06-66.18-30.68-3.6-23.93-10.3-43-25.27-17.07zm343.6 19.1c-3.6-13.26-5.78-40.15-15.45-42.1-8.97-1.8-15.47 18.3-25.87 33.6-27.44 40.4-92.14-15.9-76.4-50.2 9.32-20.4 61.44-7.32 65.63-23.18 5.24-19.85-40.58-26.72-38.33-56.8 23.47-1.73 47.1-4.37 71-7.92 4.13 16.45 5.78 33.12 11.46 33.4 6.25.3 8-19.72 13.54-37.4 18.93-3.28 38.07-7.12 57.5-11.5 18.33 14.2 39.33 36.3 46.05 59.82-6.26 9.3-13.02 18.3-20.25 27-17.45.48-52.9-5.8-55.86 5.7-1.8 6.98 12.42 15.22 27.05 24.85-18.1 16.95-38.25 32.06-60.06 44.78z" fill="#b092c2" stroke-linejoin="round"/></g><path d="M1693.55 3163.9C1739.5 3299 1858.4 3394.3 2000 3393c140.54-1.28 264-96 306.83-228.63l-20.74 6.25c-51.3 98.95-158.4 174.3-286.1 175.38-128.37 1.1-235.95-76.4-286.9-176.6l-19.54-5.5z" fill="#000" fill-opacity=".15"/></svg>