<svg xmlns="http://www.w3.org/2000/svg" width="4000" height="4000" fill="none" xmlns:v="https://vecta.io/nano"><path d="M1959.37 3446.5c2.7-47 10.47-88.26 20.16-124.5-60.03-38.5-128.53-42-183.27-42-15.3 54.22-23.9 105.52-25.58 134.62-2.93 51.08 36.82 110.33 88.4 113.3 47.48 2.3 97.45-31.8 100.3-81.4z" fill="#385a8a" stroke="#333" stroke-width="5" stroke-miterlimit="10"/><path d="M1769.48 3414.5c51.5-7 148-7 188.5 34l1.66-15.04c-42.16-36.96-138.16-39.46-188.02-32.46-.26 3.3-1.86 10.13-2.14 13.5zm16-89.5c47.76 44.3 108.88 69.13 178 78.5.58-5 1.8-12.18 2.5-17-68.6-8.88-128.2-37.6-176-81-2 6-3.62 15.27-4.5 19.5z" fill-opacity=".15" fill="#000"/><path d="M2040.63 3446.5c-2.7-47-10.46-88.26-20.15-124.5 60.03-38.5 128.53-42 183.27-42 15.3 54.22 23.9 105.52 25.57 134.62 2.94 51.08-36.8 110.33-88.4 113.3-47.47 2.3-97.44-31.8-100.3-81.4z" fill="#385a8a" stroke="#333" stroke-width="5" stroke-miterlimit="10"/><path d="M2230.52 3414.5c-51.5-7-148-7-188.5 34l-1.66-15.04c42.16-36.96 138.16-39.46 188.02-32.46.27 3.3 1.87 10.13 2.14 13.5zm-16-89.5c-47.76 44.3-108.88 69.13-178 78.5-.58-5-1.8-12.18-2.5-17 68.6-8.88 128.2-37.6 176-81 2 6 3.62 15.27 4.5 19.5z" fill-opacity=".15" fill="#000"/><g stroke="#333" stroke-width="5"><path d="M2316.95 3109.02c-13.06 144.1-146.7 282.52-316.95 283.98-166.67 1.43-303.54-139.6-316.93-283.97 189.98 70.96 443.9 70.96 633.88-.01z" fill="#446593"/><path d="M2316.95 3109.02c-1.68 18.5-5.34 36.92-10.82 54.96-221.5 65.67-390.56 65.7-612.03.08-5.57-18.1-9.3-36.54-11.03-55.03 189.98 70.96 443.9 70.96 633.88-.01z" fill="#755841"/></g><path d="M2311.92 3149.22c-218.64 64.07-405.5 64.04-624.2-.1.87 4.7 1.86 9.33 2.96 13.92 224 66.88 394.1 66.95 618 .2 1.2-4.63 2.3-9.3 3.25-14z" fill="#000" fill-opacity=".15"/><path d="M1912 3160c0-8.84 7.16-16 16-16h144c8.84 0 16 7.16 16 16v50c0 8.84-7.16 16-16 16h-144c-8.84 0-16-7.16-16-16v-50z" fill="#755841" stroke="#333" stroke-width="5"/><path d="M1912 3193v17c0 8.84 7.16 16 16 16h144c8.84 0 16-7.16 16-16v-17c0 8.84-7.16 16-16 16h-144c-8.84 0-16-7.16-16-16zm88 200c-159.52 1.45-301.5-130-317.2-284 1.7.5 4.7 1.5 7.6 2 33.47 127.7 156.8 236.3 309.6 235 152.15-1.3 275.1-108.02 309.17-234.5 1.83-.5 5.83-2 7.92-2.5-18.1 158.5-157.94 282.56-317.1 284z" fill-opacity=".15" fill="#000"/></svg>