<svg fill="none" height="4000" viewBox="0 0 4000 4000" width="4000" xmlns="http://www.w3.org/2000/svg"><path d="m1959.37 3446.51c2.7-47 10.47-88.26 20.16-124.51-60.03-38.5-128.53-42-183.27-42-15.29 54.22-23.91 105.53-25.58 134.62-2.93 51.08 36.82 110.33 88.4 113.29 47.48 2.31 97.45-31.8 100.29-81.4z" fill="#dbce37" stroke="#333" stroke-miterlimit="10" stroke-width="5"/><path d="m1790.37 3302.01c33.91 29.41 72.81 53.12 114.63 69.46-4.79 15.78-15.8 36.65-29.38 46.53-35.41 25.76-67.38 7.09-75.94-29.68-2.66-11.47-4.85-20.88-11.19-21.76-5.17-.71-9.44 4.71-13.86 12.47 3.32-22.18 8.58-48.82 15.74-77.02z" fill="#b092c2" stroke="#333" stroke-linecap="round" stroke-linejoin="round" stroke-width="5"/><path d="m1769.48 3414.5c51.5-7 148-7 188.5 34 .34-3.09 1.44-11.94 1.66-15.04-42.16-36.96-138.16-39.46-188.02-32.46-.26 3.3-1.86 10.13-2.14 13.5z" fill="#000" fill-opacity=".15"/><path d="m1785.48 3325c47.76 44.29 108.88 69.13 178 78.5.58-5.01 1.81-12.18 2.5-17-68.6-8.88-128.2-37.6-176-81-2 6-3.62 15.27-4.5 19.5z" fill="#000" fill-opacity=".15"/><path d="m2040.63 3446.51c-2.69-47-10.46-88.26-20.15-124.51 60.03-38.5 128.53-42 183.27-42 15.29 54.22 23.9 105.53 25.57 134.62 2.94 51.08-36.81 110.33-88.4 113.29-47.47 2.31-97.44-31.8-100.29-81.4z" fill="#dbce37" stroke="#333" stroke-miterlimit="10" stroke-width="5"/><path d="m2211.2 3308.25c4.27 17.38 7.81 34.07 10.61 49.38-17.31-1.63-8.92 39.88-20.39 57.03-20.98 31.4-109.34-2.01-98.96-40.92 39.68-15.09 76.82-37.5 108.74-65.49z" fill="#b092c2" stroke="#333" stroke-linecap="round" stroke-linejoin="round" stroke-width="5"/><path d="m2230.52 3414.5c-51.5-7-148-7-188.5 34-.33-3.09-1.44-11.94-1.66-15.04 42.16-36.96 138.16-39.46 188.02-32.46.27 3.3 1.87 10.13 2.14 13.5z" fill="#000" fill-opacity=".15"/><path d="m2214.52 3325c-47.76 44.29-108.88 69.13-178 78.5-.58-5.01-1.8-12.18-2.5-17 68.6-8.88 128.2-37.6 176-81 2 6 3.62 15.27 4.5 19.5z" fill="#000" fill-opacity=".15"/><g stroke="#333" stroke-width="5"><path d="m2306.1 3164.09c-37.21 122.39-157.75 227.64-306.1 228.91-145.28 1.25-267.91-105.74-305.86-228.84 221.01 65.41 391.01 65.26 611.96-.07z" fill="#e8dc4b"/><g fill="#b092c2" stroke-linecap="round" stroke-linejoin="round"><path d="m1813.57 3330.36c-16.61-12.35-32-26.18-45.97-41.17 9.56-1.58 18.42-4.62 20.23-11.54 1.86-7.18-6.46-13.59-16.15-21.05-28.08-21.62-33.62-48.2-2.89-71.81 17.18 4.06 34.14 7.67 50.91 10.86 7.1 19.85 8.16 45.91 15.54 45.82 6.67 0 8.56-21.36 14.44-40.55 30.41 4.89 60.3 8.33 89.97 10.31 34.91 41.33 25.57 66.31-27.05 67.03-16.72.22-31.59.42-33.39 7.48-6.08 23.58 78.64 32.43 57.74 67.82-5.38 9.58-17.81 18.75-31.93 24.55-23.33-7.66-45.51-18.06-66.18-30.68-3.6-23.93-10.29-43-25.27-17.07z"/><path d="m2157.16 3349.47c-3.61-13.26-5.78-40.15-15.45-42.09-8.97-1.8-15.47 18.3-25.87 33.59-27.44 40.41-92.14-15.89-76.41-50.2 9.32-20.39 61.44-7.32 65.63-23.18 5.24-19.85-40.58-26.72-38.33-56.81 23.47-1.73 47.09-4.37 71-7.92 4.13 16.45 5.78 33.12 11.46 33.39 6.25.3 8-19.72 13.54-37.41 18.93-3.28 38.07-7.12 57.5-11.51 18.33 14.21 39.33 36.29 46.05 59.82-6.26 9.29-13.02 18.31-20.25 27-17.45.48-52.91-5.79-55.86 5.69-1.81 6.98 12.42 15.22 27.05 24.85-18.11 16.95-38.25 32.06-60.06 44.78z"/></g></g><path d="m1693.55 3163.9c45.95 135.1 164.84 230.39 306.45 229.1 140.54-1.28 264-96 306.83-228.63-7.3 2.15-13.54 4.24-20.74 6.25-51.29 98.95-158.4 174.29-286.09 175.38-128.37 1.1-235.95-76.4-286.91-176.6-7.46-2.09-11.97-3.26-19.54-5.5z" fill="#000" fill-opacity=".15"/></svg>