<svg width="4000" height="4000" viewBox="0 0 4000 4000" fill="none" xmlns="http://www.w3.org/2000/svg"><path d="M2456.64 2931.88c-11.22 9.05-89.14 48.12-125.49 41.88C2320 2942 2309.5 2925 2298 2909c24 77 44.5 218.5-5 301-60.8 59.77-184 90-293 90s-232.2-30.23-293-90c-40-63-40-180.5-5-301-10 12-17.28 22.88-33.15 64.76-43.85 0-95.08-15.23-127.49-37.88C1562 2871.5 1594 2830 1604.22 2819c132.06 51.39 252.28 79.13 395.78 79.13 143.5 0 284.48-30 398.59-75 7.12 10.87 44.41 57.37 58.05 108.75z" fill="#fff" stroke="#333" stroke-width="5" stroke-linecap="round" stroke-linejoin="round"/><path d="M2457 2932c-33.5 20-82.5 43-125.5 42-6.5-22-28.14-59.22-33-67 17.36 11.29 25.62 29.83 33.96 47.91 41.2 2.55 96.04-23.41 118.04-43.41 2 4 5.5 15 6.5 20.5zM2320 3029.86c10.5 97.14-9.78 154.89-28.54 181.84-84.96 72.8-207.78 87.57-291.46 88.3-118.33 1-232.94-31.66-293.74-91.43-27.26-35.57-30.95-113.88-30.07-161.91.77 43.11 10.89 101.04 39.31 137.34 46.8 59.77 166.17 88.04 284.5 87 129.24-1.12 245.61-25.36 291.34-93.11 27.91-41.34 27.94-100.75 28.66-148.03zM1669 2974c-43 1-93.5-18-127-38 .5-5 6.5-19 8-21.5 22 20 76.84 42.96 118.04 40.41C1674 2942 1682 2920 1702 2907c-4.86 7.78-26.5 45-33 67z" fill="#000" fill-opacity=".15"/></svg>