<svg fill="none" height="4000" viewBox="0 0 4000 4000" width="4000" xmlns="http://www.w3.org/2000/svg"><path d="m2220.79 3301.3c-68.54 18.94-142.98 29.7-220.79 29.7-77.68 0-152-10.73-220.45-29.61-60.12-58.39-97.55-137.48-97.55-215.39 0-52 9.23-123.56 29.54-200.92-45.04 64.68-67.79 131.54-62.5 193.5 3.62 35.84-25.54 68.42-62.04 68.42s-59.14-24.35-62.33-55.82c-8.49-93.84 22.43-190.25 87.1-281.54 104.12 44.47 239.82 71.36 388.23 71.36s284.11-26.89 388.23-71.36c64.67 91.29 95.59 187.71 87.1 281.54-3.19 31.47-25.83 55.82-62.33 55.82s-65.66-32.58-62.04-68.42c5.3-62.09-17.56-129.11-62.8-193.93 20.4 77.66 29.84 149.21 29.84 201.35 0 78.39-36.89 157.17-97.21 215.3z" fill="#fff" stroke="#333" stroke-linecap="round" stroke-linejoin="round" stroke-width="5"/><g fill="#62ffaa"><path d="m2345.81 3009.07c-6.9-30.89-19.72-62.3-37.86-93.48 23.61-3.97 89.67-30.53 117.84-45.33 17.79 33.4 31.09 67.24 39.62 101.17-26.84 15.13-94.55 33.69-119.6 37.64z"/><path d="m1534.59 2971.43c8.53-33.93 21.83-67.77 39.62-101.17 28.17 14.8 94.23 41.36 117.83 45.33-18.13 31.18-30.96 62.59-37.85 93.48-25.05-3.95-92.76-22.51-119.6-37.64z"/><path d="m2316.66 3049.55c-204.88 45.73-428.46 45.73-633.34 0 1.91-27.96 5.93-59.55 12.24-93.34 197.65 41.83 411.09 41.83 608.74.03 6.35 33.8 10.42 65.35 12.36 93.31z"/><path d="m2268.93 3243.16c-175.97 31.74-361.37 31.76-537.35.09-21.27-32.56-36.48-68.25-44.07-104.78 202.48 44.39 422.62 44.38 625.1-.02-7.48 36.6-22.51 72.25-43.68 104.71z"/></g><g stroke="#333" stroke-width="5"><path d="m2345.81 3009.07c-6.9-30.89-19.72-62.3-37.86-93.48 23.61-3.97 89.67-30.53 117.84-45.33 17.79 33.4 31.09 67.24 39.62 101.17-26.84 15.13-94.55 33.69-119.6 37.64z"/><path d="m1534.59 2971.43c8.53-33.93 21.83-67.77 39.62-101.17 28.17 14.8 94.23 41.36 117.83 45.33-18.13 31.18-30.96 62.59-37.85 93.48-25.05-3.95-92.76-22.51-119.6-37.64z"/><path d="m2316.66 3049.55c-204.88 45.73-428.46 45.73-633.34 0 1.91-27.96 5.93-59.55 12.24-93.34 197.65 41.83 411.09 41.83 608.74.03 6.35 33.8 10.42 65.35 12.36 93.31z"/><path d="m2268.93 3243.16c-175.97 31.74-361.37 31.76-537.35.09-21.27-32.56-36.48-68.25-44.07-104.78 202.48 44.39 422.62 44.38 625.1-.02-7.48 36.6-22.51 72.25-43.68 104.71z"/></g><path d="m2355 2822.5c61.5 84 115.5 198.5 83 319.5 73-18.5 26.5-198.5-1.42-250.27-14.98-27.76-29.3-56.93-48.57-81.99-11.65 4.97-20.59 8.24-33.01 12.76z" fill="#000" fill-opacity=".15"/><path d="m1644.5 2822.5c-58.83 82.24-114 195-82.5 319.5-73-18.5-26.5-198.5 1.42-250.27 14.98-27.76 29.3-56.93 48.57-81.99 11.65 4.97 20.09 8.24 32.51 12.76z" fill="#000" fill-opacity=".15"/><path d="m2218.96 3301.8c-36.26 9.93-74.15 17.57-113.31 22.54 117.26-41.74 201.1-147.89 211.79-261.4 6.56 92.56-33.37 176.65-98.48 238.86z" fill="#000" fill-opacity=".15"/><path d="m1889.24 3323.67c-114.61-42.42-196.18-148.85-206.68-260.79-6.56 93.12 32.31 175.7 96.99 238.51 35.13 9.69 71.81 17.24 109.69 22.28z" fill="#000" fill-opacity=".15"/></svg>