<svg xmlns="http://www.w3.org/2000/svg" xmlns:xlink="http://www.w3.org/1999/xlink" width="4000" height="4000" fill="none" xmlns:v="https://vecta.io/nano"><path d="M2220.8 3301.3c-68.54 18.94-142.98 29.7-220.8 29.7-77.68 0-152-10.73-220.45-29.6C1719.43 3243 1682 3163.9 1682 3086c0-52 9.23-123.56 29.54-200.92-45.04 64.68-67.8 131.54-62.5 193.5 3.62 35.84-25.54 68.42-62.04 68.42s-59.14-24.35-62.33-55.82c-8.5-93.84 22.43-190.25 87.1-281.54C1715.9 2854.1 1851.6 2881 2000 2881s284.1-26.9 388.23-71.36c64.67 91.3 95.6 187.7 87.1 281.54-3.2 31.47-25.83 55.82-62.33 55.82s-65.66-32.58-62.04-68.42c5.3-62.1-17.56-129.1-62.8-193.93 20.4 77.66 29.84 149.2 29.84 201.35 0 78.4-36.9 157.17-97.2 215.3z" fill="#fff" stroke="#333" stroke-width="5" stroke-linejoin="round"/><g fill="#62ffaa"><use xlink:href="#B"/><use xlink:href="#C"/><use xlink:href="#D"/><use xlink:href="#E"/></g><g stroke="#333" stroke-width="5"><use xlink:href="#B"/><use xlink:href="#C"/><use xlink:href="#D"/><use xlink:href="#E"/></g><path d="M2355 2822.5c61.5 84 115.5 198.5 83 319.5 73-18.5 26.5-198.5-1.42-250.27-14.98-27.76-29.3-56.93-48.57-82-11.65 4.97-20.6 8.24-33 12.76zm-710.5 0c-58.83 82.24-114 195-82.5 319.5-73-18.5-26.5-198.5 1.42-250.27 14.98-27.76 29.3-56.93 48.57-82 11.65 4.97 20.1 8.24 32.5 12.76zm574.46 479.3c-36.26 9.93-74.15 17.57-113.3 22.54 117.26-41.74 201.1-147.9 211.8-261.4 6.56 92.56-33.37 176.65-98.48 238.86zm-329.72 21.87c-114.6-42.42-196.18-148.85-206.68-260.8-6.56 93.12 32.3 175.7 97 238.5 35.13 9.7 71.8 17.24 109.7 22.28z" fill-opacity=".15" fill="#000"/><defs ><path id="B" d="M2345.8 3009.07c-6.9-30.9-19.72-62.3-37.86-93.48 23.6-3.97 89.67-30.53 117.84-45.33 17.8 33.4 31.1 67.24 39.62 101.17-26.84 15.13-94.55 33.7-119.6 37.64z"/><path id="C" d="M1534.6 2971.43c8.53-33.93 21.83-67.77 39.62-101.17 28.17 14.8 94.23 41.36 117.83 45.33-18.13 31.18-30.96 62.6-37.85 93.48-25.05-3.95-92.76-22.5-119.6-37.64z"/><path id="D" d="M2316.66 3049.55c-204.88 45.73-428.46 45.73-633.34 0 1.9-27.96 5.93-59.55 12.24-93.34 197.65 41.83 411.1 41.83 608.74.03 6.35 33.8 10.42 65.35 12.36 93.3z"/><path id="E" d="M2268.93 3243.16c-175.97 31.74-361.37 31.76-537.35.1-21.27-32.56-36.48-68.25-44.07-104.78 202.48 44.4 422.62 44.38 625.1-.02-7.48 36.6-22.5 72.25-43.68 104.7z"/></defs></svg>