<svg xmlns="http://www.w3.org/2000/svg" width="4000" height="4000" fill="none" xmlns:v="https://vecta.io/nano"><path d="M2456.64 2931.88c-11.22 9.05-89.14 48.12-125.5 41.88C2320 2942 2309.5 2925 2298 2909c24 77 44.5 218.5-5 301-60.8 59.77-184 90-293 90s-232.2-30.23-293-90c-40-63-40-180.5-5-301-10 12-17.28 22.88-33.15 64.76-43.85 0-95.08-15.23-127.5-37.88C1562 2871.5 1594 2830 1604.22 2819c132.06 51.4 252.28 79.13 395.78 79.13s284.48-30 398.6-75c7.12 10.87 44.4 57.37 58.05 108.75z" fill="#fff" stroke="#333" stroke-width="5" stroke-linejoin="round"/><path d="M1669 2974c-43 1-93.5-18-127-38 .5-5 6.5-19 8-21.5 22 20 76.84 42.96 118.04 40.4C1674 2942 1682 2920 1702 2907c-4.86 7.78-26.5 45-33 67zm788-42c-33.5 20-82.5 43-125.5 42-6.5-22-28.14-59.22-33-67 17.36 11.3 25.62 29.83 33.96 47.9 41.2 2.55 96.04-23.4 118.04-43.4 2 4 5.5 15 6.5 20.5zm-137 97.86c10.5 97.14-9.78 154.9-28.54 181.84-84.96 72.8-207.78 87.57-291.46 88.3-118.33 1-232.94-31.66-293.74-91.43-27.26-35.57-30.95-113.88-30.07-161.9.77 43.1 10.9 101.04 39.3 137.34 46.8 59.77 166.17 88.04 284.5 87 129.24-1.12 245.6-25.36 291.34-93.1 27.9-41.34 27.94-100.75 28.66-148.03z" fill-opacity=".15" fill="#000"/></svg>